<svg width="40" height="40" viewBox="0 0 40 40" fill="none" xmlns="http://www.w3.org/2000/svg">
<path d="M30 3.33594H10C7.23333 3.33594 5 5.5526 5 8.28594V26.4693C5 29.2026 7.23333 31.4193 10 31.4193H11.2667C12.6 31.4193 13.8667 31.9359 14.8 32.8693L17.65 35.6859C18.95 36.9693 21.0667 36.9693 22.3667 35.6859L25.2167 32.8693C26.15 31.9359 27.4333 31.4193 28.75 31.4193H30C32.7667 31.4193 35 29.2026 35 26.4693V8.28594C35 5.5526 32.7667 3.33594 30 3.33594ZM17.3 21.6859C17.9833 21.6859 18.55 22.2526 18.55 22.9359C18.55 23.6193 17.9833 24.1859 17.3 24.1859H12.8333C12.1 24.1859 11.4167 23.8359 10.9833 23.2359C10.5667 22.6693 10.4667 21.9693 10.6667 21.3026C11.25 19.5193 12.6833 18.5526 13.95 17.6859C15.2833 16.7859 16.0333 16.2193 16.0333 15.2526C16.0333 14.3859 15.3333 13.6859 14.4667 13.6859C13.6 13.6859 12.9167 14.4026 12.9167 15.2693C12.9167 15.9526 12.35 16.5193 11.6667 16.5193C10.9833 16.5193 10.4167 15.9526 10.4167 15.2693C10.4167 13.0359 12.2333 11.2026 14.4833 11.2026C16.7333 11.2026 18.55 13.0193 18.55 15.2693C18.55 17.6193 16.7833 18.8193 15.3667 19.7859C14.4833 20.3859 13.65 20.9526 13.2333 21.7026H17.3V21.6859ZM28.3333 21.8026H27.9833V22.9526C27.9833 23.6359 27.4167 24.2026 26.7333 24.2026C26.05 24.2026 25.4833 23.6359 25.4833 22.9526V21.8026H22.2167C22.2167 21.8026 22.2167 21.8026 22.2 21.8026C21.3833 21.8026 20.6333 21.3693 20.2167 20.6693C19.8 19.9526 19.8 19.0693 20.2167 18.3693C21.35 16.4193 22.6667 14.2026 23.8667 12.2693C24.4 11.4193 25.4167 11.0359 26.3667 11.3026C27.3167 11.5859 27.9833 12.4526 27.9667 13.4526V19.3193H28.3333C29.0167 19.3193 29.5833 19.8859 29.5833 20.5693C29.5833 21.2526 29.0167 21.8026 28.3333 21.8026Z" fill="#9B9B9B"/>
<path d="M25.4831 19.2984V14.3984C24.4997 15.9984 23.4831 17.7151 22.5664 19.2818H25.4831V19.2984Z" fill="#9B9B9B"/>
</svg>
