<svg width="40" height="40" viewBox="0 0 40 40" fill="none" xmlns="http://www.w3.org/2000/svg">
<path d="M36.6663 16.2487C35.983 16.2487 35.4163 15.682 35.4163 14.9987V11.6654C35.4163 7.36537 32.633 4.58203 28.333 4.58203H11.6663C7.36634 4.58203 4.58301 7.36537 4.58301 11.6654V14.9987C4.58301 15.682 4.01634 16.2487 3.33301 16.2487C2.64967 16.2487 2.08301 15.682 2.08301 14.9987V11.6654C2.08301 5.93203 5.93301 2.08203 11.6663 2.08203H28.333C34.0663 2.08203 37.9163 5.93203 37.9163 11.6654V14.9987C37.9163 15.682 37.3497 16.2487 36.6663 16.2487Z" fill="#9B9B9B"/>
<path d="M28.333 37.9167H11.6663C5.93301 37.9167 2.08301 34.0667 2.08301 28.3333V25C2.08301 24.3167 2.64967 23.75 3.33301 23.75C4.01634 23.75 4.58301 24.3167 4.58301 25V28.3333C4.58301 32.6333 7.36634 35.4167 11.6663 35.4167H28.333C32.633 35.4167 35.4163 32.6333 35.4163 28.3333V25C35.4163 24.3167 35.983 23.75 36.6663 23.75C37.3497 23.75 37.9163 24.3167 37.9163 25V28.3333C37.9163 34.0667 34.0663 37.9167 28.333 37.9167Z" fill="#9B9B9B"/>
<path d="M27.3336 13.6849L21.0669 10.3016C20.4003 9.95156 19.6169 9.95156 18.9503 10.3016L12.6669 13.6849C12.2169 13.9349 11.9336 14.4182 11.9336 14.9516C11.9336 15.5016 12.2169 15.9849 12.6669 16.2349L18.9336 19.6182C19.2669 19.8016 19.6336 19.8849 20.0003 19.8849C20.3669 19.8849 20.7336 19.8016 21.0669 19.6182L27.3336 16.2349C27.7836 15.9849 28.0669 15.5016 28.0669 14.9516C28.0669 14.4182 27.7836 13.9349 27.3336 13.6849Z" fill="#9B9B9B"/>
<path d="M17.9 20.7847L12.0667 17.868C11.6167 17.6513 11.1 17.668 10.6667 17.9347C10.25 18.2013 10 18.6513 10 19.1513V24.668C10 25.618 10.5333 26.4847 11.3833 26.9013L17.2167 29.818C17.4167 29.918 17.6333 29.968 17.8667 29.968C18.1333 29.968 18.3833 29.9013 18.6167 29.7513C19.05 29.4847 19.3 29.0347 19.3 28.5347V23.018C19.2833 22.068 18.7667 21.218 17.9 20.7847Z" fill="#9B9B9B"/>
<path d="M29.3169 17.9347C28.8835 17.668 28.3669 17.6513 27.9169 17.868L22.0835 20.7847C21.2335 21.218 20.7002 22.068 20.7002 23.018V28.5347C20.7002 29.0347 20.9502 29.4847 21.3835 29.7513C21.6169 29.9013 21.8669 29.968 22.1335 29.968C22.3502 29.968 22.5669 29.918 22.7835 29.818L28.6169 26.9013C29.4669 26.468 30.0002 25.618 30.0002 24.668V19.1513C30.0002 18.6513 29.7502 18.2013 29.3169 17.9347Z" fill="#9B9B9B"/>
</svg>
