<svg width="41" height="40" viewBox="0 0 41 40" fill="none" xmlns="http://www.w3.org/2000/svg">
<g clip-path="url(#clip0_697_16147)">
<path d="M7.26042 0.00390625H33.7396C37.7542 0.00390625 41 3.2511 41 7.26737V32.7322C41 36.7485 37.7542 39.9957 33.7396 39.9957H7.26042C3.24583 39.9957 0 36.7485 0 32.7322V7.26737C0 3.2511 3.24583 0.00390625 7.26042 0.00390625Z" fill="#330000"/>
<path d="M19.8689 23.9991H13.5139L12.2155 28.0154C12.1814 28.1692 12.0447 28.2718 11.891 28.2547H8.67929C8.49137 28.2547 8.44012 28.1521 8.49137 27.947L13.9922 12.1041C14.0435 11.9332 14.0947 11.7452 14.163 11.5401C14.2314 11.1812 14.2655 10.8053 14.2655 10.4293C14.2485 10.3438 14.3168 10.2584 14.4022 10.2413H18.8268C18.9635 10.2413 19.0318 10.2925 19.0489 10.378L25.2843 27.9812C25.3355 28.1692 25.2843 28.2547 25.1135 28.2547H21.543C21.4235 28.2718 21.3039 28.1863 21.2697 28.0667L19.8689 23.9991ZM14.5047 20.5298H18.8439C18.7414 20.1709 18.6047 19.7436 18.451 19.2992C18.2972 18.8378 18.1435 18.3422 17.9897 17.8295C17.8189 17.2996 17.6651 16.7869 17.4943 16.2571C17.3235 15.7273 17.1697 15.2317 17.033 14.7361C16.8964 14.2575 16.7768 13.8132 16.6572 13.403H16.623C16.4693 14.1379 16.2814 14.8728 16.0422 15.6077C15.786 16.428 15.5297 17.2826 15.2564 18.1371C15.0172 19.0087 14.761 19.8119 14.5047 20.5298ZM29.0085 13.1637C28.4447 13.1808 27.898 12.9587 27.488 12.5656C27.0951 12.1383 26.8901 11.5743 26.9072 10.9932C26.8901 10.4122 27.1122 9.86527 27.5222 9.47219C27.9322 9.07911 28.4789 8.87402 29.0426 8.87402C29.7089 8.87402 30.2214 9.07911 30.5972 9.47219C30.973 9.88236 31.178 10.4293 31.161 10.9932C31.178 11.5743 30.973 12.1383 30.563 12.5656C30.1701 12.9757 29.5893 13.1979 29.0085 13.1637ZM27.0951 27.9983V14.8386C27.0951 14.6677 27.1635 14.5993 27.3172 14.5993H30.6997C30.8535 14.5993 30.9218 14.6848 30.9218 14.8386V27.9983C30.9218 28.1863 30.8535 28.2718 30.6997 28.2718H27.3514C27.1805 28.2718 27.0951 28.1692 27.0951 27.9983Z" fill="#FF9A00"/>
</g>
<defs>
<clipPath id="clip0_697_16147">
<rect width="41" height="40" fill="white"/>
</clipPath>
</defs>
</svg>
