<svg width="101" height="112" viewBox="0 0 101 112" fill="none" xmlns="http://www.w3.org/2000/svg">
<g opacity="0.3" clip-path="url(#clip0_5536_80004)">
<path d="M37.9944 74.9141C42.2803 74.9141 45.7549 78.3795 45.7549 82.6541V115.857C45.7549 120.132 42.2803 123.596 37.9944 123.596C33.7089 123.596 30.2344 120.132 30.2344 115.857V82.6541C30.2344 78.38 33.7089 74.9146 37.9944 74.9146V74.9141Z" fill="#A4C639"/>
<path d="M20.2765 34.9922C20.2509 35.2857 20.2285 35.5824 20.2285 35.8824V86.1877C20.2285 91.5977 24.5221 95.9561 29.8522 95.9561H81.1444C86.4751 95.9561 90.7687 91.5972 90.7687 86.1877V35.8824C90.7687 35.5824 90.7578 35.2846 90.7327 34.9922H20.2765Z" fill="#A4C639"/>
<path d="M73.0055 74.9124C77.2915 74.9124 80.766 78.3778 80.766 82.6525V115.855C80.766 120.13 77.2915 123.595 73.0055 123.595C68.72 123.595 65.2455 120.13 65.2455 115.855V82.6525C65.2455 78.3784 68.72 74.913 73.0055 74.913V74.9124ZM7.76053 39.4704C12.046 39.4704 15.5205 42.9358 15.5205 47.2105V80.4132C15.5205 84.6879 12.046 88.1533 7.76053 88.1533C3.47456 88.1533 6.40922e-08 84.6879 6.40922e-08 80.4138V47.211C-0.000544879 42.9364 3.47401 39.4704 7.76053 39.4704ZM103.239 39.4704C107.525 39.4704 110.999 42.9358 110.999 47.2105V80.4132C110.999 84.6879 107.525 88.1533 103.239 88.1533C98.9535 88.1533 95.4789 84.6879 95.4789 80.4138V47.211C95.4789 42.9364 98.9535 39.4704 103.239 39.4704ZM20.504 31.6891C20.7198 16.2372 34.242 3.56809 51.5996 1.89844H59.3988C76.7574 3.56863 90.2785 16.2383 90.4943 31.6891H20.504Z" fill="#A4C639"/>
<path d="M23.2031 0.40625L31.3893 14.5483M87.7969 0.40625L79.6102 14.5483" stroke="#A4C639" stroke-linecap="round" stroke-linejoin="round"/>
<path d="M45.0747 17.8399C45.0812 19.9998 43.2889 21.7559 41.071 21.7619C38.8541 21.7673 37.0515 20.0216 37.0449 17.8617V17.8399C37.0389 15.6795 38.8313 13.924 41.0486 13.918C43.2655 13.912 45.0681 15.6572 45.0747 17.8182V17.8399ZM75.0444 17.8399C75.0509 19.9998 73.2586 21.7559 71.0407 21.7619C68.8238 21.7673 67.0212 20.0216 67.0146 17.8617V17.8399C67.0086 15.6795 68.8009 13.924 71.0183 13.918C73.2351 13.912 75.0378 15.6572 75.0444 17.8182V17.8399Z" fill="white"/>
</g>
<defs>
<clipPath id="clip0_5536_80004">
<rect width="111" height="124" fill="white"/>
</clipPath>
</defs>
</svg>
