<svg width="40" height="41" viewBox="0 0 40 41" fill="none" xmlns="http://www.w3.org/2000/svg">
<path d="M18.3333 30.3828V35.3828C18.3333 36.2995 17.5833 37.0495 16.6667 37.0495C15.75 37.0495 15 36.2995 15 35.3828V30.3828H18.3333Z" fill="#9B9B9B"/>
<path d="M24.9993 30.3828V35.3828C24.9993 36.2995 24.2493 37.0495 23.3327 37.0495C22.416 37.0495 21.666 36.2995 21.666 35.3828V30.3828H24.9993Z" fill="#9B9B9B"/>
<path d="M28.3327 18.7161V27.0495C28.3327 28.8828 26.8327 30.3828 24.9993 30.3828H14.9993C13.166 30.3828 11.666 28.8828 11.666 27.0495V18.7161C11.666 16.8828 13.166 15.3828 14.9993 15.3828H24.9993C26.8327 15.3828 28.3327 16.8828 28.3327 18.7161Z" fill="#9B9B9B"/>
<path d="M8.33333 18.7135V25.3802C8.33333 26.2969 7.58333 27.0469 6.66667 27.0469C5.75 27.0469 5 26.2969 5 25.3802V18.7135C5 17.7969 5.75 17.0469 6.66667 17.0469C7.58333 17.0469 8.33333 17.7969 8.33333 18.7135Z" fill="#9B9B9B"/>
<path d="M34.9993 18.7135V25.3802C34.9993 26.2969 34.2493 27.0469 33.3327 27.0469C32.416 27.0469 31.666 26.2969 31.666 25.3802V18.7135C31.666 17.7969 32.416 17.0469 33.3327 17.0469C34.2493 17.0469 34.9993 17.7969 34.9993 18.7135Z" fill="#9B9B9B"/>
<path d="M16.0006 13.0521H24.0007C25.4674 13.0521 26.6673 11.8521 26.6673 10.3854C26.6673 6.70208 23.684 3.71875 20.0007 3.71875C16.3173 3.71875 13.334 6.70208 13.334 10.3854C13.334 11.8521 14.5339 13.0521 16.0006 13.0521Z" fill="#9B9B9B"/>
</svg>
