<svg width="40" height="41" viewBox="0 0 40 41" fill="none" xmlns="http://www.w3.org/2000/svg">
<path fill-rule="evenodd" clip-rule="evenodd" d="M31.8334 32.3135C32.8168 30.8135 33.1834 30.0469 33.9334 28.3636C28.4001 26.2636 27.5168 18.3802 32.9834 15.3635C31.3168 13.2635 28.9668 12.0469 26.7501 12.0469C25.1501 12.0469 24.0501 12.4636 23.0668 12.8469C22.2334 13.1636 21.4834 13.4469 20.5501 13.4469C19.5501 13.4469 18.6668 13.1302 17.7334 12.7969C16.7168 12.4302 15.6501 12.0469 14.3168 12.0469C11.8334 12.0469 9.18344 13.5635 7.50011 16.1635C5.13344 19.8302 5.55012 26.6969 9.36678 32.5635C10.7334 34.6635 12.5668 37.0135 14.9501 37.0469C15.9501 37.0635 16.6001 36.7636 17.3168 36.4469C18.1334 36.0802 19.0168 35.6802 20.5668 35.6802C22.1168 35.6635 22.9834 36.0802 23.8001 36.4469C24.5001 36.7636 25.1334 37.0635 26.1168 37.0469C28.5334 37.0135 30.4668 34.4135 31.8334 32.3135Z" fill="#9B9B9B"/>
<path fill-rule="evenodd" clip-rule="evenodd" d="M26.4007 3.71875C26.6674 5.55208 25.9174 7.36877 24.9341 8.63544C23.8841 10.0021 22.0507 11.0687 20.2841 11.0021C19.9674 9.23541 20.7841 7.41873 21.7841 6.20207C22.9007 4.86873 24.784 3.83542 26.4007 3.71875Z" fill="#9B9B9B"/>
</svg>
