<svg width="39" height="40" viewBox="0 0 39 40" fill="none" xmlns="http://www.w3.org/2000/svg">
<g clip-path="url(#clip0_708_19116)">
<path d="M38.9853 19.9908C38.9853 31.0244 30.2606 39.9684 19.5009 39.9684C8.73768 39.9684 0.0136719 31.0244 0.0136719 19.9908C0.0136719 8.95987 8.73768 0.0151367 19.5009 0.0151367C30.2611 0.0151659 38.9853 8.95987 38.9853 19.9908Z" fill="#00979D" stroke="#81C9CB" stroke-width="1.69732" stroke-miterlimit="10"/>
<path opacity="0.5" d="M38.9853 20.0076C38.9853 31.0409 30.2606 39.9852 19.5009 39.9852C8.73768 39.9852 0.0136719 31.0405 0.0136719 20.0076C0.0136719 8.97644 8.73768 0.0317383 19.5009 0.0317383C30.2611 0.0322045 38.9853 8.97641 38.9853 20.0076Z" fill="url(#paint0_linear_708_19116)" stroke="url(#paint1_linear_708_19116)" stroke-width="1.82116" stroke-miterlimit="10"/>
<path d="M26.9427 27.1349C26.5758 27.1349 26.2001 27.1078 25.8306 27.0514C22.7333 26.5982 20.6622 24.3176 19.5021 22.5644C18.3384 24.3175 16.2675 26.6004 13.1715 27.053C12.8031 27.1071 12.4315 27.1342 12.0593 27.1342C10.1337 27.1342 8.32593 26.3994 6.96616 25.0653C5.59343 23.7201 4.83594 21.915 4.83594 19.9902C4.83594 18.0629 5.5934 16.2603 6.96815 14.9127C8.32661 13.5783 10.1357 12.8457 12.0622 12.8457C12.4293 12.8457 12.803 12.8727 13.1713 12.9268C16.2673 13.3795 18.3381 15.6604 19.5019 17.4138C20.6622 15.6604 22.7332 13.3801 25.8302 12.9268C26.1997 12.8725 26.5734 12.8457 26.9405 12.8457C28.8662 12.8457 30.6751 13.5802 32.0336 14.9127C33.4076 16.2603 34.1634 18.0629 34.1634 19.9902C34.1634 21.915 33.4095 23.7201 32.0355 25.0653C30.6747 26.3994 28.8684 27.1349 26.9427 27.1349ZM20.8736 19.9909C21.4785 21.172 23.2629 24.1191 26.1796 24.5474C26.435 24.5835 26.692 24.6035 26.9424 24.6035C29.5625 24.6035 31.6952 22.5346 31.6952 19.9902C31.6952 17.4458 29.5629 15.3769 26.9406 15.3769C26.6901 15.3769 26.4331 15.3953 26.1802 15.4329C23.2629 15.8602 21.4785 18.8073 20.8736 19.9909ZM12.0621 15.3776C9.4386 15.3776 7.30551 17.4464 7.30551 19.9909C7.30551 22.5348 9.43772 24.6041 12.0589 24.6041C12.3104 24.6041 12.5675 24.5841 12.8228 24.5481C15.7397 24.1199 17.5235 21.1744 18.1288 19.9916C17.5252 18.8105 15.7396 15.8609 12.8228 15.435C12.5705 15.3959 12.3128 15.3776 12.0621 15.3776Z" fill="white"/>
<path d="M10.0723 19.2925H14.4101V20.7256H10.0723V19.2925ZM28.8905 19.2925H27.422V17.7847H26.0194V19.2925H24.5515V20.7256H26.0194V22.2331H27.422V20.7256H28.8905V19.2925Z" fill="white"/>
</g>
<defs>
<linearGradient id="paint0_linear_708_19116" x1="0.0136719" y1="20.0085" x2="38.9853" y2="20.0085" gradientUnits="userSpaceOnUse">
<stop offset="0.117" stop-color="white" stop-opacity="0"/>
<stop offset="0.252" stop-color="#C0D1D3" stop-opacity="0.153"/>
<stop offset="0.387" stop-color="#91B3B7" stop-opacity="0.306"/>
<stop offset="0.52" stop-color="#6D9FA3" stop-opacity="0.457"/>
<stop offset="0.65" stop-color="#4D9195" stop-opacity="0.604"/>
<stop offset="0.776" stop-color="#30888B" stop-opacity="0.746"/>
<stop offset="0.895" stop-color="#148386" stop-opacity="0.881"/>
<stop offset="1" stop-color="#008184"/>
</linearGradient>
<linearGradient id="paint1_linear_708_19116" x1="-0.000538872" y1="20.0085" x2="38.9995" y2="20.0085" gradientUnits="userSpaceOnUse">
<stop stop-color="white" stop-opacity="0"/>
<stop offset="0.153" stop-color="#C0D1D3" stop-opacity="0.153"/>
<stop offset="0.306" stop-color="#91B3B7" stop-opacity="0.306"/>
<stop offset="0.457" stop-color="#6D9FA3" stop-opacity="0.457"/>
<stop offset="0.604" stop-color="#4D9195" stop-opacity="0.604"/>
<stop offset="0.746" stop-color="#30888B" stop-opacity="0.746"/>
<stop offset="0.881" stop-color="#148386" stop-opacity="0.881"/>
<stop offset="1" stop-color="#008184"/>
</linearGradient>
<clipPath id="clip0_708_19116">
<rect width="39" height="40" fill="white"/>
</clipPath>
</defs>
</svg>
