<svg width="114" height="73" viewBox="0 0 114 73" fill="none" xmlns="http://www.w3.org/2000/svg">
<g opacity="0.3" clip-path="url(#clip0_5548_79647)">
<path d="M35.3461 26.5122C35.3461 28.0145 35.5078 29.2325 35.7907 30.1257C36.114 31.0189 36.5181 31.9933 37.0839 33.0489C37.286 33.3738 37.3668 33.6986 37.3668 33.9828C37.3668 34.3888 37.1243 34.7948 36.599 35.2008L34.0529 36.906C33.6892 37.1496 33.3254 37.2714 33.0021 37.2714C32.598 37.2714 32.1938 37.0684 31.7897 36.703C31.2239 36.094 30.739 35.4444 30.3348 34.7948C29.9307 34.1046 29.5265 33.3332 29.082 32.3993C25.9297 36.1346 21.9692 38.0022 17.2003 38.0022C13.8056 38.0022 11.0978 37.0278 9.11757 35.079C7.1373 33.1301 6.12695 30.5317 6.12695 27.2837C6.12695 23.8326 7.33937 21.0311 9.80461 18.9199C12.2698 16.8087 15.5434 15.7531 19.706 15.7531C21.0801 15.7531 22.4945 15.8749 23.9898 16.0779C25.4852 16.2809 27.0209 16.6057 28.6374 16.9711V14.0072C28.6374 10.9216 27.9908 8.76974 26.738 7.51112C25.4447 6.2525 23.2624 5.64349 20.1505 5.64349C18.7361 5.64349 17.2812 5.8059 15.7858 6.1713C14.2905 6.53671 12.8356 6.98332 11.4212 7.55173C10.7745 7.83593 10.2896 7.99833 10.0067 8.07953C9.72378 8.16074 9.52171 8.20133 9.36006 8.20133C8.79426 8.20133 8.51137 7.79533 8.51137 6.94272V4.95328C8.51137 4.30367 8.59219 3.81646 8.79426 3.53226C8.99633 3.24805 9.36006 2.96385 9.92585 2.67964C11.3403 1.94883 13.0377 1.33982 15.018 0.852614C16.9983 0.324805 19.0998 0.0812013 21.3225 0.0812013C26.1318 0.0812013 29.6478 1.17742 31.911 3.36986C34.1337 5.56229 35.2653 8.89155 35.2653 13.3576V26.5122H35.3461ZM18.9381 32.6835C20.2718 32.6835 21.6459 32.4399 23.1007 31.9527C24.5556 31.4655 25.8489 30.5723 26.9401 29.3543C27.5867 28.5829 28.0716 27.7303 28.3141 26.7558C28.5566 25.7814 28.7183 24.604 28.7183 23.2236V21.5184C27.5463 21.2342 26.2934 20.9905 25.0002 20.8281C23.707 20.6657 22.4541 20.5845 21.2013 20.5845C18.4936 20.5845 16.5133 21.1124 15.1796 22.2086C13.846 23.3048 13.1994 24.8476 13.1994 26.8776C13.1994 28.7859 13.6843 30.2069 14.6947 31.1813C15.6646 32.1963 17.0791 32.6835 18.9381 32.6835ZM51.3904 37.0684C50.663 37.0684 50.178 36.9466 49.8547 36.6624C49.5314 36.4188 49.2485 35.8504 49.006 35.079L39.5087 3.69466C39.2663 2.88265 39.145 2.35484 39.145 2.07063C39.145 1.42102 39.4683 1.05562 40.115 1.05562H44.0755C44.8434 1.05562 45.3687 1.17742 45.6516 1.46162C45.975 1.70523 46.2174 2.27364 46.4599 3.04505L53.2494 29.9227L59.554 3.04505C59.7561 2.23304 59.9985 1.70523 60.3218 1.46162C60.6452 1.21802 61.2109 1.05562 61.9384 1.05562H65.1715C65.9394 1.05562 66.4647 1.17742 66.7881 1.46162C67.1114 1.70523 67.3943 2.27364 67.5559 3.04505L73.9413 30.2475L80.9329 3.04505C81.1754 2.23304 81.4583 1.70523 81.7412 1.46162C82.0645 1.21802 82.5899 1.05562 83.3173 1.05562H87.0758C87.7224 1.05562 88.0861 1.38042 88.0861 2.07063C88.0861 2.27364 88.0457 2.47664 88.0053 2.72025C87.9649 2.96385 87.8841 3.28865 87.7224 3.73526L77.9827 35.1196C77.7402 35.9316 77.4573 36.4594 77.134 36.703C76.8107 36.9466 76.2853 37.109 75.5983 37.109H72.1227C71.3548 37.109 70.8294 36.9872 70.5061 36.703C70.1828 36.4188 69.8999 35.891 69.7383 35.079L63.4741 8.89155L57.2504 35.0384C57.0483 35.8504 56.8059 36.3782 56.4825 36.6624C56.1592 36.9466 55.5934 37.0684 54.866 37.0684H51.3904ZM103.322 38.1646C101.221 38.1646 99.1191 37.921 97.0984 37.4338C95.0777 36.9466 93.5016 36.4188 92.4508 35.8098C91.8042 35.4444 91.3596 35.0384 91.198 34.673C91.0363 34.3076 90.9555 33.9016 90.9555 33.5362V31.4655C90.9555 30.6129 91.2788 30.2069 91.885 30.2069C92.1275 30.2069 92.37 30.2475 92.6125 30.3287C92.855 30.4099 93.2187 30.5723 93.6228 30.7347C94.9969 31.3437 96.4922 31.8309 98.0683 32.1557C99.6849 32.4805 101.261 32.6429 102.878 32.6429C105.424 32.6429 107.404 32.1963 108.778 31.3031C110.152 30.4099 110.88 29.1107 110.88 27.4461C110.88 26.3092 110.516 25.3754 109.788 24.604C109.061 23.8326 107.687 23.1424 105.707 22.4928L99.8465 20.6657C96.8963 19.7319 94.714 18.3515 93.3803 16.5245C92.0467 14.738 91.3596 12.7486 91.3596 10.6374C91.3596 8.93215 91.7234 7.42992 92.4508 6.1307C93.1783 4.83148 94.1482 3.69466 95.3606 2.80145C96.573 1.86763 97.9471 1.17742 99.5636 0.690211C101.18 0.203003 102.878 0 104.656 0C105.545 0 106.474 0.0406007 107.364 0.162403C108.293 0.284205 109.142 0.446607 109.99 0.60901C110.799 0.812013 111.567 1.01502 112.294 1.25862C113.021 1.50222 113.587 1.74583 113.991 1.98943C114.557 2.31424 114.961 2.63904 115.204 3.00445C115.446 3.32926 115.568 3.77586 115.568 4.34427V6.2525C115.568 7.10512 115.244 7.55173 114.638 7.55173C114.315 7.55173 113.789 7.38932 113.102 7.06452C110.799 6.0089 108.212 5.48109 105.343 5.48109C103.039 5.48109 101.221 5.8465 99.9678 6.61791C98.715 7.38932 98.0683 8.56674 98.0683 10.2314C98.0683 11.3682 98.4725 12.3426 99.2807 13.114C100.089 13.8854 101.584 14.6568 103.726 15.3471L109.465 17.1741C112.375 18.1079 114.476 19.4071 115.729 21.0717C116.982 22.7364 117.588 24.6446 117.588 26.7558C117.588 28.5017 117.224 30.0851 116.537 31.4655C115.81 32.8459 114.84 34.064 113.587 35.0384C112.334 36.0534 110.839 36.7842 109.101 37.312C107.283 37.8804 105.383 38.1646 103.322 38.1646Z" fill="white"/>
<path fill-rule="evenodd" clip-rule="evenodd" d="M110.961 57.9C97.665 67.766 78.3472 73.0035 61.7371 73.0035C38.4588 73.0035 17.484 64.3555 1.64183 49.9829C0.389007 48.8461 1.52059 47.3032 3.0159 48.1965C20.1514 58.1842 41.2878 64.2337 63.1516 64.2337C77.9027 64.2337 94.1086 61.1481 109.021 54.8144C111.244 53.7993 113.143 56.276 110.961 57.9Z" fill="#FF9900"/>
<path fill-rule="evenodd" clip-rule="evenodd" d="M116.498 51.5644C114.8 49.3719 105.263 50.5087 100.938 51.0366C99.6451 51.199 99.4431 50.0621 100.615 49.2095C108.213 43.8502 120.701 45.3931 122.156 47.1795C123.611 49.0065 121.751 61.5521 114.639 67.561C113.547 68.4948 112.497 68.0076 112.982 66.7896C114.598 62.7702 118.195 53.7162 116.498 51.5644Z" fill="#FF9900"/>
</g>
<defs>
<clipPath id="clip0_5548_79647">
<rect width="124" height="73" fill="white"/>
</clipPath>
</defs>
</svg>
