<svg width="78" height="79" viewBox="0 0 78 79" fill="none" xmlns="http://www.w3.org/2000/svg">
<g clip-path="url(#clip0_268_6927)">
<path d="M21.9816 33.4773C21.9816 34.4393 22.0854 35.2193 22.267 35.7913C22.4745 36.3632 22.734 36.9872 23.0971 37.6632C23.2269 37.8712 23.2787 38.0792 23.2787 38.2612C23.2787 38.5211 23.1231 38.7811 22.7858 39.0411L21.1515 40.1331C20.918 40.2891 20.6845 40.3671 20.477 40.3671C20.2176 40.3671 19.9582 40.2371 19.6987 40.0031C19.3356 39.6131 19.0243 39.1971 18.7648 38.7811C18.5054 38.3392 18.246 37.8452 17.9606 37.2472C15.9372 39.6391 13.3948 40.8351 10.3337 40.8351C8.15456 40.8351 6.41645 40.2111 5.14529 38.9631C3.87414 37.7152 3.22559 36.0512 3.22559 33.9713C3.22559 31.7614 4.00385 29.9675 5.58631 28.6155C7.16877 27.2636 9.27007 26.5876 11.9421 26.5876C12.8241 26.5876 13.7321 26.6656 14.6919 26.7956C15.6518 26.9256 16.6376 27.1336 17.6753 27.3676V25.4697C17.6753 23.4937 17.2602 22.1158 16.456 21.3098C15.6259 20.5038 14.225 20.1139 12.2275 20.1139C11.3195 20.1139 10.3856 20.2179 9.42572 20.4518C8.46587 20.6858 7.53195 20.9718 6.62399 21.3358C6.20891 21.5178 5.89761 21.6218 5.71602 21.6738C5.53442 21.7258 5.40471 21.7518 5.30094 21.7518C4.93776 21.7518 4.75616 21.4918 4.75616 20.9458V19.6719C4.75616 19.2559 4.80805 18.9439 4.93776 18.7619C5.06747 18.5799 5.30094 18.3979 5.66413 18.2159C6.5721 17.748 7.66166 17.358 8.93282 17.046C10.204 16.708 11.553 16.552 12.9798 16.552C16.0669 16.552 18.3238 17.254 19.7766 18.6579C21.2034 20.0619 21.9298 22.1938 21.9298 25.0537V33.4773H21.9816ZM11.4492 37.4292C12.3053 37.4292 13.1873 37.2732 14.1212 36.9612C15.0551 36.6492 15.8853 36.0772 16.5857 35.2973C17.0008 34.8033 17.3121 34.2573 17.4677 33.6333C17.6234 33.0094 17.7272 32.2554 17.7272 31.3714V30.2795C16.9748 30.0975 16.1706 29.9415 15.3405 29.8375C14.5103 29.7335 13.7061 29.6815 12.9019 29.6815C11.1638 29.6815 9.89267 30.0195 9.03659 30.7214C8.1805 31.4234 7.76543 32.4114 7.76543 33.7113C7.76543 34.9333 8.07674 35.8432 8.72528 36.4672C9.34789 37.1172 10.2559 37.4292 11.4492 37.4292ZM32.2806 40.2371C31.8136 40.2371 31.5023 40.1591 31.2948 39.9771C31.0873 39.8211 30.9057 39.4571 30.75 38.9631L24.6537 18.8659C24.498 18.3459 24.4202 18.0079 24.4202 17.8259C24.4202 17.41 24.6277 17.176 25.0428 17.176H27.5851C28.078 17.176 28.4152 17.254 28.5968 17.436C28.8044 17.592 28.96 17.9559 29.1157 18.4499L33.4739 35.6613L37.5209 18.4499C37.6506 17.9299 37.8062 17.592 38.0138 17.436C38.2213 17.28 38.5845 17.176 39.0515 17.176H41.1268C41.6197 17.176 41.957 17.254 42.1645 17.436C42.372 17.592 42.5536 17.9559 42.6574 18.4499L46.7562 35.8692L51.2442 18.4499C51.3998 17.9299 51.5814 17.592 51.763 17.436C51.9706 17.28 52.3078 17.176 52.7748 17.176H55.1874C55.6024 17.176 55.8359 17.384 55.8359 17.8259C55.8359 17.9559 55.81 18.0859 55.784 18.2419C55.7581 18.3979 55.7062 18.6059 55.6024 18.8919L49.3504 38.9891C49.1948 39.5091 49.0132 39.8471 48.8056 40.0031C48.5981 40.1591 48.2609 40.2631 47.8198 40.2631H45.5888C45.0959 40.2631 44.7587 40.1851 44.5512 40.0031C44.3436 39.8211 44.162 39.4831 44.0583 38.9631L40.0373 22.1938L36.0422 38.9371C35.9125 39.4571 35.7568 39.7951 35.5493 39.9771C35.3418 40.1591 34.9786 40.2371 34.5116 40.2371H32.2806ZM65.616 40.939C64.2671 40.939 62.9181 40.7831 61.621 40.4711C60.3239 40.1591 59.3121 39.8211 58.6376 39.4311C58.2226 39.1971 57.9372 38.9371 57.8334 38.7031C57.7297 38.4691 57.6778 38.2092 57.6778 37.9752V36.6492C57.6778 36.1032 57.8853 35.8432 58.2745 35.8432C58.4301 35.8432 58.5858 35.8692 58.7414 35.9212C58.8971 35.9732 59.1305 36.0772 59.39 36.1812C60.272 36.5712 61.2318 36.8832 62.2436 37.0912C63.2813 37.2992 64.293 37.4032 65.3307 37.4032C66.965 37.4032 68.2362 37.1172 69.1182 36.5452C70.0002 35.9732 70.4672 35.1413 70.4672 34.0753C70.4672 33.3473 70.2337 32.7494 69.7668 32.2554C69.2998 31.7614 68.4178 31.3194 67.1466 30.9034L63.385 29.7335C61.4913 29.1355 60.0904 28.2515 59.2343 27.0816C58.3782 25.9376 57.9372 24.6637 57.9372 23.3117C57.9372 22.2198 58.1707 21.2578 58.6376 20.4258C59.1046 19.5939 59.7272 18.8659 60.5055 18.2939C61.2837 17.696 62.1658 17.254 63.2034 16.942C64.2411 16.63 65.3307 16.5 66.4721 16.5C67.0428 16.5 67.6395 16.526 68.2102 16.604C68.8069 16.682 69.3517 16.786 69.8965 16.89C70.4153 17.02 70.9082 17.15 71.3752 17.306C71.8421 17.462 72.2053 17.618 72.4647 17.774C72.8279 17.9819 73.0873 18.1899 73.243 18.4239C73.3986 18.6319 73.4765 18.9179 73.4765 19.2819V20.5038C73.4765 21.0498 73.2689 21.3358 72.8798 21.3358C72.6723 21.3358 72.335 21.2318 71.894 21.0238C70.4153 20.3479 68.755 20.0099 66.9131 20.0099C65.4344 20.0099 64.2671 20.2439 63.4629 20.7378C62.6587 21.2318 62.2436 21.9858 62.2436 23.0517C62.2436 23.7797 62.503 24.4037 63.0218 24.8977C63.5407 25.3917 64.5005 25.8856 65.8755 26.3276L69.5592 27.4976C71.427 28.0955 72.776 28.9275 73.5802 29.9935C74.3844 31.0594 74.7736 32.2814 74.7736 33.6333C74.7736 34.7513 74.5401 35.7653 74.0991 36.6492C73.6321 37.5332 73.0095 38.3132 72.2053 38.9371C71.4011 39.5871 70.4412 40.0551 69.3257 40.3931C68.1583 40.7571 66.9391 40.939 65.616 40.939Z" fill="#252F3E"/>
<path fill-rule="evenodd" clip-rule="evenodd" d="M70.5186 53.5743C61.9837 59.8921 49.5834 63.246 38.9213 63.246C23.9787 63.246 10.5148 57.7082 0.345551 48.5045C-0.45865 47.7766 0.267726 46.7886 1.22758 47.3606C12.227 53.7563 25.7946 57.6302 39.8292 57.6302C49.2981 57.6302 59.7008 55.6543 69.2734 51.5984C70.7002 50.9484 71.9195 52.5344 70.5186 53.5743Z" fill="#FF9900"/>
<path fill-rule="evenodd" clip-rule="evenodd" d="M74.0724 49.5185C72.9829 48.1146 66.8606 48.8425 64.0848 49.1805C63.2546 49.2845 63.1249 48.5565 63.8772 48.0106C68.7543 44.5787 76.7704 45.5667 77.7043 46.7106C78.6382 47.8806 77.4449 55.9143 72.8791 59.7621C72.1787 60.3601 71.5042 60.0481 71.8155 59.2681C72.8532 56.6942 75.162 50.8965 74.0724 49.5185Z" fill="#FF9900"/>
</g>
<defs>
<clipPath id="clip0_268_6927">
<rect width="78" height="78" fill="white" transform="translate(0 0.5)"/>
</clipPath>
</defs>
</svg>
