<svg width="40" height="40" viewBox="0 0 40 40" fill="none" xmlns="http://www.w3.org/2000/svg">
<path d="M33.2666 14.932C32.1499 13.6987 30.4666 12.982 28.1332 12.732V11.4654C28.1332 9.18203 27.1666 6.98203 25.4666 5.44869C23.7499 3.88203 21.5166 3.14869 19.1999 3.36536C15.2166 3.74869 11.8666 7.59869 11.8666 11.7654V12.732C9.53324 12.982 7.8499 13.6987 6.73324 14.932C5.11657 16.732 5.16657 19.132 5.3499 20.7987L6.51657 30.082C6.86657 33.332 8.18323 36.6654 15.3499 36.6654H24.6499C31.8166 36.6654 33.1332 33.332 33.4832 30.0987L34.6499 20.782C34.8332 19.132 34.8832 16.732 33.2666 14.932ZM19.4332 5.68203C21.0999 5.53203 22.6832 6.0487 23.9166 7.16536C25.1332 8.26536 25.8166 9.83203 25.8166 11.4654V12.632H14.1832V11.7654C14.1832 8.79869 16.6332 5.94869 19.4332 5.68203ZM19.9999 30.9654C16.5166 30.9654 13.6832 28.132 13.6832 24.6487C13.6832 21.1654 16.5166 18.332 19.9999 18.332C23.4832 18.332 26.3166 21.1654 26.3166 24.6487C26.3166 28.132 23.4832 30.9654 19.9999 30.9654Z" fill="#9B9B9B"/>
<path d="M18.3334 27.6328C17.9167 27.6328 17.5 27.4161 17.2667 27.0328C16.9167 26.4495 17.1 25.6661 17.7 25.3161L19.1834 24.4328V22.6328C19.1834 21.9495 19.75 21.3828 20.4334 21.3828C21.1167 21.3828 21.6667 21.9328 21.6667 22.6328V25.1328C21.6667 25.5661 21.4334 25.9828 21.0667 26.1995L18.9834 27.4495C18.7834 27.5661 18.55 27.6328 18.3334 27.6328Z" fill="#9B9B9B"/>
</svg>
