<svg width="40" height="40" viewBox="0 0 40 40" fill="none" xmlns="http://www.w3.org/2000/svg">
<path d="M38.3334 25.3672C37.6501 25.3672 37.0834 25.9339 37.0834 26.6172C37.0834 31.5505 33.6501 35.6839 29.0334 36.7672L29.4834 36.0172C29.8334 35.4172 29.6501 34.6505 29.0501 34.3005C28.4667 33.9505 27.6834 34.1339 27.3334 34.7339L25.5834 37.6505C25.3501 38.0339 25.3501 38.5172 25.5667 38.9005C25.7834 39.3005 26.2001 39.5339 26.6501 39.5339C33.7667 39.5339 39.5667 33.7339 39.5667 26.6172C39.5834 25.9339 39.0167 25.3672 38.3334 25.3672Z" fill="#9B9B9B"/>
<path d="M13.3337 0.367188C6.21699 0.367188 0.416992 6.16719 0.416992 13.2839C0.416992 13.9672 0.983659 14.5339 1.66699 14.5339C2.35033 14.5339 2.91699 13.9672 2.91699 13.2839C2.91699 8.35052 6.35033 4.21719 10.967 3.13385L10.517 3.88385C10.167 4.48385 10.3503 5.25052 10.9503 5.60052C11.5337 5.95052 12.317 5.76719 12.667 5.16719L14.417 2.25052C14.6337 1.86719 14.6503 1.40052 14.417 1.00052C14.2003 0.617188 13.7837 0.367188 13.3337 0.367188Z" fill="#9B9B9B"/>
<path d="M35.8337 14.4513C35.8337 19.5846 32.1004 23.818 27.2171 24.6013C27.2171 24.5846 27.2171 24.5846 27.2171 24.568C26.7337 18.3513 21.7004 13.2846 15.4004 12.7846C16.1837 7.9013 20.4171 4.16797 25.5504 4.16797C31.2337 4.16797 35.8337 8.76797 35.8337 14.4513Z" fill="#9B9B9B"/>
<path d="M16.3499 23.6685C16.3499 23.4185 16.0665 23.0352 15.7165 23.0352H12.2832V24.2852H15.7165C16.0665 24.3018 16.3499 24.0185 16.3499 23.6685Z" fill="#9B9B9B"/>
<path d="M16.3832 26.8008H15.7165H12.2832V28.0508H16.3999C16.9332 28.0508 17.2999 27.7174 17.2999 27.4174C17.2999 27.1174 16.9165 26.8008 16.3832 26.8008Z" fill="#9B9B9B"/>
<path d="M24.717 24.75C24.3337 19.7 20.3003 15.6667 15.2503 15.2833C14.9837 15.2667 14.7337 15.25 14.4503 15.25C8.76699 15.25 4.16699 19.85 4.16699 25.55C4.16699 31.2333 8.76699 35.8333 14.4503 35.8333C20.1337 35.8333 24.7503 31.2333 24.7503 25.55C24.7503 25.2667 24.7337 25.0167 24.717 24.75ZM16.3837 30.55H15.2837V31.1833C15.2837 31.8667 14.717 32.4333 14.0337 32.4333C13.3503 32.4333 12.7837 31.8667 12.7837 31.1833V30.55H11.0337C10.3503 30.55 9.78366 29.9833 9.78366 29.3V25.55V21.8C9.78366 21.1167 10.3503 20.55 11.0337 20.55H12.7837V19.9167C12.7837 19.2333 13.3503 18.6667 14.0337 18.6667C14.717 18.6667 15.2837 19.2333 15.2837 19.9167V20.55H15.717C17.3837 20.55 18.8503 22.0167 18.8503 23.6833C18.8503 24.1667 18.7337 24.6167 18.5337 25.0333C19.3003 25.6 19.7837 26.4667 19.7837 27.4333C19.7837 29.15 18.267 30.55 16.3837 30.55Z" fill="#9B9B9B"/>
</svg>
