<svg width="40" height="40" viewBox="0 0 40 40" fill="none" xmlns="http://www.w3.org/2000/svg">
<path d="M33.5 11.5693C33.5 12.4693 33.0167 13.2859 32.25 13.7026L29.35 15.2693L26.8833 16.5859L21.7667 19.3526C21.2167 19.6526 20.6167 19.8026 20 19.8026C19.3833 19.8026 18.7833 19.6526 18.2333 19.3526L7.75 13.7026C6.98333 13.2859 6.5 12.4693 6.5 11.5693C6.5 10.6693 6.98333 9.8526 7.75 9.43594L11.0333 7.66927L13.65 6.2526L18.2333 3.78594C19.3333 3.18594 20.6667 3.18594 21.7667 3.78594L32.25 9.43594C33.0167 9.8526 33.5 10.6693 33.5 11.5693Z" fill="#9B9B9B"/>
<path d="M16.5 21.313L6.74999 16.4463C5.99999 16.063 5.13333 16.113 4.41666 16.5463C3.69999 16.9797 3.28333 17.7463 3.28333 18.5797V27.7963C3.28333 29.3963 4.16666 30.8297 5.59999 31.5463L15.35 36.413C15.6833 36.5797 16.05 36.663 16.4167 36.663C16.85 36.663 17.2833 36.5463 17.6667 36.2963C18.3833 35.863 18.8 35.0963 18.8 34.263V25.0463C18.8167 23.463 17.9333 22.0297 16.5 21.313Z" fill="#9B9B9B"/>
<path d="M36.7167 18.5853V27.802C36.7167 29.3853 35.8333 30.8187 34.4 31.5353L24.65 36.4187C24.3167 36.5853 23.95 36.6687 23.5833 36.6687C23.15 36.6687 22.7167 36.552 22.3167 36.302C21.6167 35.8687 21.1833 35.102 21.1833 34.2687V25.0687C21.1833 23.4687 22.0667 22.0353 23.5 21.3187L27.0833 19.5353L29.5834 18.2853L33.25 16.452C34 16.0687 34.8667 16.102 35.5834 16.552C36.2834 16.9853 36.7167 17.752 36.7167 18.5853Z" fill="#9B9B9B"/>
<path d="M29.35 15.2667L26.8833 16.5833L11.0333 7.66667L13.65 6.25L28.95 14.8833C29.1167 14.9833 29.25 15.1167 29.35 15.2667Z" fill="#9B9B9B"/>
<path d="M29.5834 18.2812V22.0646C29.5834 22.7479 29.0167 23.3146 28.3334 23.3146C27.65 23.3146 27.0834 22.7479 27.0834 22.0646V19.5312L29.5834 18.2812Z" fill="#9B9B9B"/>
</svg>
