<svg width="40" height="40" viewBox="0 0 40 40" fill="none" xmlns="http://www.w3.org/2000/svg">
<path d="M8.88353 32.3661C8.7002 32.3661 8.5002 32.3161 8.33353 32.2328L4.63353 30.3828C4.21686 30.1661 3.9502 29.7328 3.9502 29.2661V24.6328C3.9502 23.9495 4.51686 23.3828 5.2002 23.3828C5.88353 23.3828 6.4502 23.9495 6.4502 24.6328V28.4828L9.4502 29.9995C10.0669 30.2995 10.3169 31.0495 10.0002 31.6661C9.78353 32.0995 9.3502 32.3661 8.88353 32.3661Z" fill="#9B9B9B"/>
<path d="M20.0001 37.9185C19.9001 37.9185 19.8001 37.9018 19.7168 37.8852C19.6168 37.8685 19.5168 37.8185 19.4168 37.7685L15.7334 35.9352C15.1168 35.6185 14.8668 34.8685 15.1668 34.2518C15.4834 33.6352 16.2334 33.3852 16.8501 33.6852L18.7501 34.6352V32.0352C18.7501 31.3518 19.3168 30.7852 20.0001 30.7852C20.6834 30.7852 21.2501 31.3518 21.2501 32.0352V34.6352L23.1501 33.6852C23.7668 33.3852 24.5168 33.6352 24.8334 34.2518C25.1501 34.8685 24.9001 35.6185 24.2668 35.9352L20.5834 37.7685C20.4834 37.8185 20.3834 37.8518 20.2834 37.8852C20.1834 37.9018 20.1001 37.9185 20.0001 37.9185Z" fill="#9B9B9B"/>
<path d="M31.117 32.3651C30.667 32.3651 30.217 32.1151 30.0003 31.6818C29.6836 31.0651 29.9336 30.3151 30.567 29.9984L33.5836 28.4984V24.6484C33.5836 23.9651 34.1503 23.3984 34.8336 23.3984C35.517 23.3984 36.0836 23.9651 36.0836 24.6484V29.2818C36.0836 29.7484 35.817 30.1818 35.4003 30.3984L31.667 32.2318C31.4836 32.3151 31.3003 32.3651 31.117 32.3651Z" fill="#9B9B9B"/>
<path d="M20.0001 24.0344C19.3168 24.0344 18.7501 23.4677 18.7501 22.7844V18.9344L15.7334 17.4344C15.1168 17.1177 14.8668 16.3677 15.1668 15.7511C15.4834 15.1344 16.2334 14.8844 16.8501 15.1844L20.0001 16.7511L23.1501 15.1844C23.7668 14.8844 24.5168 15.1177 24.8334 15.7511C25.1501 16.3677 24.9001 17.1177 24.2668 17.4344L21.2501 18.9344V22.7844C21.2501 23.4677 20.6834 24.0344 20.0001 24.0344Z" fill="#9B9B9B"/>
<path d="M5.18359 16.6174C4.50026 16.6174 3.93359 16.0507 3.93359 15.3674V10.7674V10.7507C3.93359 10.6507 3.95026 10.5507 3.96693 10.4674C4.00026 10.3174 4.05026 10.2007 4.11693 10.084C4.16693 10.0007 4.23359 9.93402 4.30026 9.86735C4.36693 9.80068 4.45026 9.73402 4.53359 9.68402C4.56693 9.66735 4.61693 9.63402 4.65026 9.61735L8.33359 7.76735C8.95026 7.46735 9.70026 7.71735 10.0003 8.33402C10.3169 8.95068 10.0669 9.70068 9.45026 10.0007L7.98359 10.734L9.45026 11.4674C10.0669 11.784 10.3169 12.534 10.0003 13.1507C9.70026 13.7674 8.95026 14.0173 8.33359 13.7174L6.43359 12.7674V15.3674C6.43359 16.0674 5.88359 16.6174 5.18359 16.6174Z" fill="#9B9B9B"/>
<path d="M23.7 6.43229C23.5167 6.43229 23.3167 6.38229 23.15 6.29896L20 4.73229L16.85 6.29896C16.2333 6.61563 15.4833 6.36563 15.1833 5.74896C14.8667 5.13229 15.1167 4.38229 15.7333 4.06563L19.4333 2.21563C19.7833 2.03229 20.2 2.03229 20.55 2.21563L24.25 4.06563C24.8667 4.38229 25.1167 5.13229 24.8167 5.74896C24.6 6.18229 24.1667 6.43229 23.7 6.43229Z" fill="#9B9B9B"/>
<path d="M34.8164 16.6174C34.1331 16.6174 33.5664 16.0507 33.5664 15.3674V12.7674L31.6664 13.7174C31.0497 14.0173 30.2997 13.7674 29.9997 13.1507C29.6831 12.534 29.9331 11.784 30.5664 11.4674L32.0331 10.734L30.5497 10.0007C29.9331 9.70068 29.6831 8.95068 29.9997 8.33402C30.3164 7.71735 31.0497 7.46735 31.6664 7.76735L35.3497 9.60068C35.3831 9.61735 35.4331 9.63402 35.4664 9.66735C35.5664 9.71735 35.6497 9.80068 35.7331 9.88402C35.7831 9.95068 35.8331 10.0174 35.8831 10.084C35.9497 10.2007 35.9997 10.3174 36.0331 10.4507C36.0497 10.5507 36.0664 10.6507 36.0664 10.734V10.7507V15.3507C36.0664 16.0674 35.4997 16.6174 34.8164 16.6174Z" fill="#9B9B9B"/>
</svg>
