<svg width="40" height="40" viewBox="0 0 40 40" fill="none" xmlns="http://www.w3.org/2000/svg">
<path d="M35.1502 11.6365C33.7336 10.0698 31.3669 9.28646 27.9336 9.28646H27.5336V9.21979C27.5336 6.41979 27.5336 2.95312 21.2669 2.95312H18.7336C12.4669 2.95312 12.4669 6.43646 12.4669 9.21979V9.30312H12.0669C8.61689 9.30312 6.26689 10.0865 4.85023 11.6531C3.20023 13.4865 3.25023 15.9531 3.41689 17.6365L3.43356 17.7531L3.57768 19.2664C3.59194 19.4162 3.67282 19.5515 3.7985 19.6343C4.16473 19.8753 4.9508 20.3868 5.40023 20.6365C5.63356 20.7865 5.88356 20.9198 6.13356 21.0531C8.98356 22.6198 12.1169 23.6698 15.3002 24.1865C15.4502 25.7531 16.1336 27.5865 19.7836 27.5865C23.4336 27.5865 24.1502 25.7698 24.2669 24.1531C27.6669 23.6031 30.9502 22.4198 33.9169 20.6865C34.0169 20.6365 34.0836 20.5865 34.1669 20.5365C34.8699 20.1391 35.601 19.6436 36.2573 19.1657C36.37 19.0836 36.4423 18.9577 36.4577 18.8192L36.5002 18.4365L36.5836 17.6531C36.6002 17.5531 36.6002 17.4698 36.6169 17.3531C36.7502 15.6698 36.7169 13.3698 35.1502 11.6365ZM21.8169 23.0531C21.8169 24.8198 21.8169 25.0865 19.7669 25.0865C17.7169 25.0865 17.7169 24.7698 17.7169 23.0698V20.9698H21.8169V23.0531ZM14.8502 9.28646V9.21979C14.8502 6.38646 14.8502 5.33646 18.7336 5.33646H21.2669C25.1502 5.33646 25.1502 6.40313 25.1502 9.21979V9.30312H14.8502V9.28646Z" fill="#9B9B9B"/>
<path d="M35.3299 22.6349C35.6825 22.4647 36.0876 22.7453 36.0522 23.1353L35.3999 30.3204C35.0499 33.6538 33.6832 37.0538 26.3499 37.0538H13.6499C6.31657 37.0538 4.9499 33.6538 4.5999 30.3371L3.97919 23.5093C3.94415 23.1238 4.34122 22.8441 4.69302 23.0054C6.43068 23.8025 10.6066 25.662 12.9685 26.2425C13.1334 26.283 13.268 26.4006 13.3351 26.5567C14.3109 28.8271 16.5351 30.0371 19.7832 30.0371C22.9992 30.0371 25.2533 28.7805 26.2312 26.5069C26.2984 26.3507 26.4327 26.2332 26.5978 26.1926C29.101 25.5766 33.5229 23.507 35.3299 22.6349Z" fill="#9B9B9B"/>
</svg>
