<svg width="41" height="40" viewBox="0 0 41 40" fill="none" xmlns="http://www.w3.org/2000/svg">
<path d="M13.8347 36.6667H27.168C33.868 36.6667 35.068 33.9833 35.418 30.7167L36.668 17.3833C37.118 13.3167 35.9513 10 28.8347 10H12.168C5.05134 10 3.88467 13.3167 4.33467 17.3833L5.58467 30.7167C5.93467 33.9833 7.13467 36.6667 13.8347 36.6667Z" stroke="#292D32" stroke-width="2" stroke-miterlimit="10" stroke-linecap="round" stroke-linejoin="round"/>
<path d="M13.832 10.0007V8.66732C13.832 5.71732 13.832 3.33398 19.1654 3.33398H21.832C27.1654 3.33398 27.1654 5.71732 27.1654 8.66732V10.0007" stroke="#292D32" stroke-width="2" stroke-miterlimit="10" stroke-linecap="round" stroke-linejoin="round"/>
<path d="M23.8346 21.6667V23.3333C23.8346 23.35 23.8346 23.35 23.8346 23.3667C23.8346 25.1833 23.818 26.6667 20.5013 26.6667C17.2013 26.6667 17.168 25.2 17.168 23.3833V21.6667C17.168 20 17.168 20 18.8346 20H22.168C23.8346 20 23.8346 20 23.8346 21.6667Z" stroke="#292D32" stroke-width="2" stroke-miterlimit="10" stroke-linecap="round" stroke-linejoin="round"/>
<path d="M36.582 18.334C32.732 21.134 28.332 22.8007 23.832 23.3673" stroke="#292D32" stroke-width="2" stroke-miterlimit="10" stroke-linecap="round" stroke-linejoin="round"/>
<path d="M4.86719 18.7832C8.61719 21.3499 12.8505 22.8999 17.1672 23.3832" stroke="#292D32" stroke-width="2" stroke-miterlimit="10" stroke-linecap="round" stroke-linejoin="round"/>
</svg>
