<svg width="95" height="124" viewBox="0 0 95 124" fill="none" xmlns="http://www.w3.org/2000/svg">
<g opacity="0.3">
<path d="M103.516 38.3895C103.555 36.6124 103.126 34.8562 102.272 33.2965C101.387 31.7889 100.111 30.5474 98.5779 29.7029C84.9901 21.872 71.3976 14.0521 57.8003 6.2432C54.1389 4.1301 50.5902 4.20506 46.9523 6.35096C41.5447 9.52296 14.4644 25.0269 6.39525 29.6982C3.07183 31.6192 1.45706 34.5616 1.45706 38.3848V85.6134C1.42276 87.3529 1.83482 89.0723 2.65405 90.608C3.53971 92.1616 4.83963 93.4396 6.40933 94.3001C14.4785 98.9854 41.5634 114.471 46.971 117.657C50.609 119.803 54.1577 119.878 57.8238 117.764C71.4085 109.93 85.0011 102.107 98.6014 94.2954C100.171 93.4349 101.471 92.1569 102.357 90.6033C103.176 89.0676 103.588 87.3482 103.554 85.6087V38.3895H103.516Z" fill="#004482"/>
<path d="M103.525 85.6137C103.561 87.3533 103.148 89.0729 102.328 90.6083C102.127 90.9739 101.899 91.3247 101.648 91.6578L52.4863 61.9994L98.5777 29.7031C100.109 30.548 101.384 31.7895 102.267 33.2968C103.125 34.8553 103.556 36.6121 103.516 38.3898C103.525 54.1327 103.525 85.6137 103.525 85.6137Z" fill="#00599C"/>
<path d="M102.267 33.2981L2.63911 90.6096C1.82352 89.0745 1.4147 87.3568 1.4515 85.6196V38.3864C1.4515 34.5631 3.07096 31.6207 6.38969 29.6997C14.4635 25.0284 41.5438 9.52452 46.9561 6.34315C50.5846 4.19725 54.1381 4.12228 57.7995 6.23539C71.3842 14.0693 84.9767 21.8923 98.5771 29.7044C100.108 30.5493 101.383 31.7908 102.267 33.2981Z" fill="#659AD2"/>
<path d="M54.4583 81.0799C51.1036 81.0846 47.8092 80.1901 44.9192 78.4898C42.0292 76.7895 39.6496 74.3458 38.0289 71.414C37.8631 71.1204 37.7066 70.8205 37.5595 70.5144C35.56 66.3924 35.1442 61.6817 36.3909 57.2743C37.6377 52.8668 40.4604 49.0688 44.3245 46.5993C48.1885 44.1299 52.8257 43.1605 57.3578 43.8748C61.89 44.589 66.0023 46.9374 68.9161 50.4751C69.1649 50.7749 69.3855 51.0888 69.6343 51.4121C69.747 51.5667 69.8596 51.7214 69.9629 51.8807L86.4251 42.4162C86.0245 41.7728 85.6052 41.148 85.1671 40.5421C84.9371 40.2188 84.6977 39.9095 84.4724 39.605C78.7505 32.1856 70.451 27.1756 61.2107 25.5633C51.9705 23.9509 42.4603 25.8532 34.556 30.8949C26.6517 35.9367 20.9271 43.7518 18.5113 52.799C16.0955 61.8461 17.1639 71.4684 21.5057 79.768C21.6653 80.0679 21.8296 80.363 21.9751 80.6582C25.1639 86.2739 29.7531 90.9713 35.2972 94.2945C40.8413 97.6176 47.152 99.4537 53.6167 99.6244C60.0814 99.795 66.4806 98.2946 72.1929 95.2686C77.9053 92.2426 82.7368 87.7939 86.2186 82.3543L70.1225 72.6416C68.4184 75.2353 66.0941 77.3648 63.3595 78.8379C60.6248 80.3111 57.5658 81.0816 54.4583 81.0799Z" fill="white"/>
</g>
</svg>
