<svg width="41" height="40" viewBox="0 0 41 40" fill="none" xmlns="http://www.w3.org/2000/svg">
<path d="M5.5 36.666H35.5" stroke="#292D32" stroke-width="2" stroke-linecap="round" stroke-linejoin="round"/>
<path d="M9.83329 13.9668H7.16667C6.25 13.9668 5.5 14.7168 5.5 15.6335V30.0001C5.5 30.9168 6.25 31.6668 7.16667 31.6668H9.83329C10.75 31.6668 11.5 30.9168 11.5 30.0001V15.6335C11.5 14.7168 10.75 13.9668 9.83329 13.9668Z" stroke="#292D32" stroke-width="2" stroke-linecap="round" stroke-linejoin="round"/>
<path d="M21.8333 8.65039H19.1667C18.25 8.65039 17.5 9.40039 17.5 10.3171V30.0004C17.5 30.9171 18.25 31.6671 19.1667 31.6671H21.8333C22.75 31.6671 23.5 30.9171 23.5 30.0004V10.3171C23.5 9.40039 22.75 8.65039 21.8333 8.65039Z" stroke="#292D32" stroke-width="2" stroke-linecap="round" stroke-linejoin="round"/>
<path d="M33.8333 3.33398H31.1667C30.25 3.33398 29.5 4.08398 29.5 5.00065V30.0007C29.5 30.9173 30.25 31.6673 31.1667 31.6673H33.8333C34.75 31.6673 35.5 30.9173 35.5 30.0007V5.00065C35.5 4.08398 34.75 3.33398 33.8333 3.33398Z" stroke="#292D32" stroke-width="2" stroke-linecap="round" stroke-linejoin="round"/>
</svg>
