<svg width="40" height="40" viewBox="0 0 40 40" fill="none" xmlns="http://www.w3.org/2000/svg">
<path d="M35 37.9141H5C4.31667 37.9141 3.75 37.3474 3.75 36.6641C3.75 35.9807 4.31667 35.4141 5 35.4141H35C35.6833 35.4141 36.25 35.9807 36.25 36.6641C36.25 37.3474 35.6833 37.9141 35 37.9141Z" fill="#9B9B9B"/>
<path d="M9.33333 13.9688H6.66667C5.75 13.9688 5 14.7187 5 15.6354V30.0021C5 30.9187 5.75 31.6687 6.66667 31.6687H9.33333C10.25 31.6687 11 30.9187 11 30.0021V15.6354C11 14.7021 10.25 13.9688 9.33333 13.9688Z" fill="#9B9B9B"/>
<path d="M21.3333 8.64844H18.6667C17.75 8.64844 17 9.39844 17 10.3151V29.9984C17 30.9151 17.75 31.6651 18.6667 31.6651H21.3333C22.25 31.6651 23 30.9151 23 29.9984V10.3151C23 9.39844 22.25 8.64844 21.3333 8.64844Z" fill="#9B9B9B"/>
<path d="M33.3333 3.33594H30.6667C29.75 3.33594 29 4.08594 29 5.0026V30.0026C29 30.9193 29.75 31.6693 30.6667 31.6693H33.3333C34.25 31.6693 35 30.9193 35 30.0026V5.0026C35 4.08594 34.25 3.33594 33.3333 3.33594Z" fill="#9B9B9B"/>
</svg>
