<svg width="810" height="540" viewBox="0 0 810 540" fill="none" xmlns="http://www.w3.org/2000/svg">
<path d="M809.181 41.1386V38.9324H788.292V0H786.086V38.9324H711.795V0H709.589V38.9324H635.302V0H633.096V38.9324H558.805V0H556.599V38.9324H482.308V0H480.102V38.9324H405.811V0H403.605V38.9324H329.314V0H327.108V38.9324H252.817V0H250.611V38.9324H176.32V0H174.114V38.9324H99.8268V0H97.6205V38.9324H23.3298V0H21.1236V38.9324H0.234375V41.1386H21.1236V115.429H0.234375V117.636H21.1236V191.926H0.234375V194.133H21.1236V268.423H0.234375V270.629H21.1236V344.92H0.234375V347.126H21.1236V421.417H0.234375V423.623H21.1236V497.914H0.234375V500.12H21.1236V539.053H23.3298V500.12H97.6205V539.053H99.8268V500.12H174.114V539.053H176.32V500.12H250.611V539.053H252.817V500.12H327.108V539.053H329.314V500.12H403.605V539.053H405.811V500.12H480.102V539.053H482.308V500.12H556.599V539.053H558.805V500.12H633.096V539.053H635.302V500.12H709.589V539.053H711.795V500.12H786.086V539.053H788.292V500.12H809.181V497.914H788.292V423.623H809.181V421.417H788.292V347.126H809.181V344.92H788.292V270.629H809.181V268.423H788.292V194.133H809.181V191.926H788.292V117.636H809.181V115.429H788.292V41.1386H809.181ZM97.6205 497.914H23.3298V423.623H97.6205V497.914ZM97.6205 421.417H23.3298V347.126H97.6205V421.417ZM97.6205 344.92H23.3298V270.629H97.6205V344.92ZM97.6205 268.423H23.3298V194.133H97.6205V268.423ZM97.6205 191.926H23.3298V117.636H97.6205V191.926ZM97.6205 115.429H23.3298V41.1386H97.6205V115.429ZM174.114 497.914H99.8268V423.623H174.114V497.914ZM174.114 421.417H99.8268V347.126H174.114V421.417ZM174.114 344.92H99.8268V270.629H174.114V344.92ZM174.114 268.423H99.8268V194.133H174.114V268.423ZM174.114 191.926H99.8268V117.636H174.114V191.926ZM174.114 115.429H99.8268V41.1386H174.114V115.429ZM250.611 497.914H176.32V423.623H250.611V497.914ZM250.611 421.417H176.32V347.126H250.611V421.417ZM250.611 344.92H176.32V270.629H250.611V344.92ZM250.611 268.423H176.32V194.133H250.611V268.423ZM250.611 191.926H176.32V117.636H250.611V191.926ZM250.611 115.429H176.32V41.1386H250.611V115.429ZM327.108 497.914H252.817V423.623H327.108V497.914ZM327.108 421.417H252.817V347.126H327.108V421.417ZM327.108 344.92H252.817V270.629H327.108V344.92ZM327.108 268.423H252.817V194.133H327.108V268.423ZM327.108 191.926H252.817V117.636H327.108V191.926ZM327.108 115.429H252.817V41.1386H327.108V115.429ZM403.605 497.914H329.314V423.623H403.605V497.914ZM403.605 421.417H329.314V347.126H403.605V421.417ZM403.605 344.92H329.314V270.629H403.605V344.92ZM403.605 268.423H329.314V194.133H403.605V268.423ZM403.605 191.926H329.314V117.636H403.605V191.926ZM403.605 115.429H329.314V41.1386H403.605V115.429ZM480.102 497.914H405.811V423.623H480.102V497.914ZM480.102 421.417H405.811V347.126H480.102V421.417ZM480.102 344.92H405.811V270.629H480.102V344.92ZM480.102 268.423H405.811V194.133H480.102V268.423ZM480.102 191.926H405.811V117.636H480.102V191.926ZM480.102 115.429H405.811V41.1386H480.102V115.429ZM556.599 497.914H482.308V423.623H556.599V497.914ZM556.599 421.417H482.308V347.126H556.599V421.417ZM556.599 344.92H482.308V270.629H556.599V344.92ZM556.599 268.423H482.308V194.133H556.599V268.423ZM556.599 191.926H482.308V117.636H556.599V191.926ZM556.599 115.429H482.308V41.1386H556.599V115.429ZM633.096 497.914H558.805V423.623H633.096V497.914ZM633.096 421.417H558.805V347.126H633.096V421.417ZM633.096 344.92H558.805V270.629H633.096V344.92ZM633.096 268.423H558.805V194.133H633.096V268.423ZM633.096 191.926H558.805V117.636H633.096V191.926ZM633.096 115.429H558.805V41.1386H633.096V115.429ZM709.589 497.914H635.302V423.623H709.589V497.914ZM709.589 421.417H635.302V347.126H709.589V421.417ZM709.589 344.92H635.302V270.629H709.589V344.92ZM709.589 268.423H635.302V194.133H709.589V268.423ZM709.589 191.926H635.302V117.636H709.589V191.926ZM709.589 115.429H635.302V41.1386H709.589V115.429ZM786.086 497.914H711.795V423.623H786.086V497.914ZM786.086 421.417H711.795V347.126H786.086V421.417ZM786.086 344.92H711.795V270.629H786.086V344.92ZM786.086 268.423H711.795V194.133H786.086V268.423ZM786.086 191.926H711.795V117.636H786.086V191.926ZM786.086 115.429H711.795V41.1386H786.086V115.429Z" fill="url(#paint0_radial_5341_3741)"/>
<defs>
<radialGradient id="paint0_radial_5341_3741" cx="0" cy="0" r="1" gradientUnits="userSpaceOnUse" gradientTransform="translate(404.708 270.791) scale(402.429 265.603)">
<stop offset="0.14" stop-color="#0096FF"/>
<stop offset="1" stop-color="white"/>
</radialGradient>
</defs>
</svg>
