<svg width="742" height="495" viewBox="0 0 742 495" fill="none" xmlns="http://www.w3.org/2000/svg">
<path d="M741.416 37.7044V35.6823H722.271V0H720.249V35.6823H652.16V0H650.138V35.6823H582.052V0H580.03V35.6823H511.941V0H509.919V35.6823H441.83V0H439.808V35.6823H371.719V0H369.697V35.6823H301.608V0H299.586V35.6823H231.497V0H229.475V35.6823H161.386V0H159.364V35.6823H91.2784V0H89.2564V35.6823H21.1674V0H19.1454V35.6823H0V37.7044H19.1454V105.793H0V107.815H19.1454V175.904H0V177.926H19.1454V246.015H0V248.037H19.1454V316.126H0V318.148H19.1454V386.237H0V388.259H19.1454V456.348H0V458.37H19.1454V494.053H21.1674V458.37H89.2564V494.053H91.2784V458.37H159.364V494.053H161.386V458.37H229.475V494.053H231.497V458.37H299.586V494.053H301.608V458.37H369.697V494.053H371.719V458.37H439.808V494.053H441.83V458.37H509.919V494.053H511.941V458.37H580.03V494.053H582.052V458.37H650.138V494.053H652.16V458.37H720.249V494.053H722.271V458.37H741.416V456.348H722.271V388.259H741.416V386.237H722.271V318.148H741.416V316.126H722.271V248.037H741.416V246.015H722.271V177.926H741.416V175.904H722.271V107.815H741.416V105.793H722.271V37.7044H741.416ZM89.2564 456.348H21.1674V388.259H89.2564V456.348ZM89.2564 386.237H21.1674V318.148H89.2564V386.237ZM89.2564 316.126H21.1674V248.037H89.2564V316.126ZM89.2564 246.015H21.1674V177.926H89.2564V246.015ZM89.2564 175.904H21.1674V107.815H89.2564V175.904ZM89.2564 105.793H21.1674V37.7044H89.2564V105.793ZM159.364 456.348H91.2784V388.259H159.364V456.348ZM159.364 386.237H91.2784V318.148H159.364V386.237ZM159.364 316.126H91.2784V248.037H159.364V316.126ZM159.364 246.015H91.2784V177.926H159.364V246.015ZM159.364 175.904H91.2784V107.815H159.364V175.904ZM159.364 105.793H91.2784V37.7044H159.364V105.793ZM229.475 456.348H161.386V388.259H229.475V456.348ZM229.475 386.237H161.386V318.148H229.475V386.237ZM229.475 316.126H161.386V248.037H229.475V316.126ZM229.475 246.015H161.386V177.926H229.475V246.015ZM229.475 175.904H161.386V107.815H229.475V175.904ZM229.475 105.793H161.386V37.7044H229.475V105.793ZM299.586 456.348H231.497V388.259H299.586V456.348ZM299.586 386.237H231.497V318.148H299.586V386.237ZM299.586 316.126H231.497V248.037H299.586V316.126ZM299.586 246.015H231.497V177.926H299.586V246.015ZM299.586 175.904H231.497V107.815H299.586V175.904ZM299.586 105.793H231.497V37.7044H299.586V105.793ZM369.697 456.348H301.608V388.259H369.697V456.348ZM369.697 386.237H301.608V318.148H369.697V386.237ZM369.697 316.126H301.608V248.037H369.697V316.126ZM369.697 246.015H301.608V177.926H369.697V246.015ZM369.697 175.904H301.608V107.815H369.697V175.904ZM369.697 105.793H301.608V37.7044H369.697V105.793ZM439.808 456.348H371.719V388.259H439.808V456.348ZM439.808 386.237H371.719V318.148H439.808V386.237ZM439.808 316.126H371.719V248.037H439.808V316.126ZM439.808 246.015H371.719V177.926H439.808V246.015ZM439.808 175.904H371.719V107.815H439.808V175.904ZM439.808 105.793H371.719V37.7044H439.808V105.793ZM509.919 456.348H441.83V388.259H509.919V456.348ZM509.919 386.237H441.83V318.148H509.919V386.237ZM509.919 316.126H441.83V248.037H509.919V316.126ZM509.919 246.015H441.83V177.926H509.919V246.015ZM509.919 175.904H441.83V107.815H509.919V175.904ZM509.919 105.793H441.83V37.7044H509.919V105.793ZM580.03 456.348H511.941V388.259H580.03V456.348ZM580.03 386.237H511.941V318.148H580.03V386.237ZM580.03 316.126H511.941V248.037H580.03V316.126ZM580.03 246.015H511.941V177.926H580.03V246.015ZM580.03 175.904H511.941V107.815H580.03V175.904ZM580.03 105.793H511.941V37.7044H580.03V105.793ZM650.138 456.348H582.052V388.259H650.138V456.348ZM650.138 386.237H582.052V318.148H650.138V386.237ZM650.138 316.126H582.052V248.037H650.138V316.126ZM650.138 246.015H582.052V177.926H650.138V246.015ZM650.138 175.904H582.052V107.815H650.138V175.904ZM650.138 105.793H582.052V37.7044H650.138V105.793ZM720.249 456.348H652.16V388.259H720.249V456.348ZM720.249 386.237H652.16V318.148H720.249V386.237ZM720.249 316.126H652.16V248.037H720.249V316.126ZM720.249 246.015H652.16V177.926H720.249V246.015ZM720.249 175.904H652.16V107.815H720.249V175.904ZM720.249 105.793H652.16V37.7044H720.249V105.793Z" fill="url(#paint0_radial_5341_3690)"/>
<defs>
<radialGradient id="paint0_radial_5341_3690" cx="0" cy="0" r="1" gradientUnits="userSpaceOnUse" gradientTransform="translate(370.708 248.186) scale(368.834 243.431)">
<stop offset="0.14" stop-color="#0096FF"/>
<stop offset="1" stop-color="white"/>
</radialGradient>
</defs>
</svg>
