<svg width="34" height="34" viewBox="0 0 34 34" fill="none" xmlns="http://www.w3.org/2000/svg">
<path d="M17.0007 0.333984C7.81732 0.333984 0.333984 7.81732 0.333984 17.0007C0.333984 26.184 7.81732 33.6673 17.0007 33.6673C26.184 33.6673 33.6673 26.184 33.6673 17.0007C33.6673 7.81732 26.184 0.333984 17.0007 0.333984ZM22.6007 20.834C23.084 21.3173 23.084 22.1173 22.6007 22.6007C22.3507 22.8507 22.034 22.9673 21.7173 22.9673C21.4007 22.9673 21.084 22.8507 20.834 22.6007L17.0007 18.7673L13.1673 22.6007C12.9173 22.8507 12.6007 22.9673 12.284 22.9673C11.9673 22.9673 11.6507 22.8507 11.4007 22.6007C10.9173 22.1173 10.9173 21.3173 11.4007 20.834L15.234 17.0007L11.4007 13.1673C10.9173 12.684 10.9173 11.884 11.4007 11.4007C11.884 10.9173 12.684 10.9173 13.1673 11.4007L17.0007 15.234L20.834 11.4007C21.3173 10.9173 22.1173 10.9173 22.6007 11.4007C23.084 11.884 23.084 12.684 22.6007 13.1673L18.7673 17.0007L22.6007 20.834Z" fill="#222222"/>
</svg>
