<svg width="40" height="40" viewBox="0 0 40 40" fill="none" xmlns="http://www.w3.org/2000/svg">
<path d="M31.9995 24.6339C30.5662 25.9506 28.6662 26.6839 26.7162 26.6673H10.6162C3.83288 26.1839 3.81621 16.3339 10.6162 15.8506H10.6829C6.03288 2.91726 25.6829 -2.23274 27.9329 11.3339C34.2162 12.1339 36.7662 20.4839 31.9995 24.6339Z" fill="#9B9B9B"/>
<path d="M31.25 35.0013C31.25 35.6846 30.6833 36.2513 30 36.2513H23.3333C23.25 36.2513 23.1833 36.2513 23.1 36.218C22.6167 37.4513 21.4 38.3346 20 38.3346C18.6 38.3346 17.3833 37.4513 16.9 36.218C16.8167 36.2513 16.75 36.2513 16.6667 36.2513H10C9.31667 36.2513 8.75 35.6846 8.75 35.0013C8.75 34.318 9.31667 33.7513 10 33.7513H16.6667C16.75 33.7513 16.8167 33.7513 16.9 33.7846C17.2333 32.918 17.9167 32.2346 18.7833 31.9013C18.75 31.818 18.75 31.7513 18.75 31.668V26.668H21.25V31.668C21.25 31.7513 21.25 31.818 21.2167 31.9013C22.0833 32.2346 22.7667 32.918 23.1 33.7846C23.1833 33.7513 23.25 33.7513 23.3333 33.7513H30C30.6833 33.7513 31.25 34.318 31.25 35.0013Z" fill="#9B9B9B"/>
</svg>
