<svg width="98" height="79" viewBox="0 0 98 79" fill="none" xmlns="http://www.w3.org/2000/svg">
<path d="M19.75 39.5L49 63.8263V78.5L0.25 39.5H19.75Z" fill="#669DF6"/>
<path d="M49 63.8263L78.25 39.5H97.75L49 78.5V63.8263Z" fill="#669DF6"/>
<path d="M0.25 39.5L49 0.5V15.1738L19.75 39.5H0.25Z" fill="#AECBFA"/>
<path d="M49 15.1738L78.25 39.5H97.75L49 0.5V15.1738Z" fill="#AECBFA"/>
<path d="M49 49.25C54.3848 49.25 58.75 44.8848 58.75 39.5C58.75 34.1152 54.3848 29.75 49 29.75C43.6152 29.75 39.25 34.1152 39.25 39.5C39.25 44.8848 43.6152 49.25 49 49.25Z" fill="#4285F4"/>
</svg>
