<svg width="40" height="40" viewBox="0 0 40 40" fill="none" xmlns="http://www.w3.org/2000/svg">
<path d="M20.0003 19.2148C15.4003 19.2148 11.667 22.9482 11.667 27.5482C11.667 28.7815 11.9337 29.9482 12.4337 30.9815C12.567 31.2815 12.717 31.5648 12.8837 31.8315C14.317 34.2482 16.967 35.8815 20.0003 35.8815C23.0337 35.8815 25.6837 34.2482 27.117 31.8315C27.2837 31.5648 27.4337 31.2815 27.567 30.9815C28.067 29.9482 28.3337 28.7815 28.3337 27.5482C28.3337 22.9482 24.6003 19.2148 20.0003 19.2148ZM23.4503 26.8315L19.9003 30.1148C19.667 30.3315 19.3503 30.4482 19.0503 30.4482C18.7337 30.4482 18.417 30.3315 18.167 30.0815L16.517 28.4315C16.0337 27.9482 16.0337 27.1482 16.517 26.6648C17.0003 26.1815 17.8003 26.1815 18.2837 26.6648L19.0837 27.4648L21.7503 24.9982C22.267 24.5315 23.0503 24.5648 23.517 25.0648C23.9837 25.5648 23.9503 26.3482 23.4503 26.8315Z" fill="#9B9B9B"/>
<path d="M33.6665 28.4512C33.0665 28.9845 32.4165 29.4345 31.7165 29.8012C31.1165 30.1012 30.5165 29.5178 30.6165 28.8512C30.6832 28.3678 30.7165 27.8678 30.7165 27.3512C30.7165 21.3845 25.8499 16.5178 19.8832 16.5178C13.9165 16.5178 9.04987 21.3845 9.04987 27.3512C9.04987 28.1178 9.13321 28.8512 9.28321 29.5679C9.39987 30.1512 8.94987 30.7345 8.36654 30.5845C1.78321 28.9845 1.74987 18.8512 9.11654 18.3345H9.19987C3.84987 3.45118 26.4165 -2.49882 28.9999 13.1345C36.2165 14.0512 39.1332 23.6679 33.6665 28.4512Z" fill="#9B9B9B"/>
</svg>
