<svg width="40" height="40" viewBox="0 0 40 40" fill="none" xmlns="http://www.w3.org/2000/svg">
<path d="M24.9997 37.9167C24.5497 37.9167 24.133 37.6667 23.9163 37.2833C23.6997 36.9 23.6997 36.4167 23.933 36.0333L25.683 33.1167C26.033 32.5167 26.7997 32.3333 27.3997 32.6833C27.9997 33.0333 28.183 33.8 27.833 34.4L27.383 35.15C31.983 34.0667 35.433 29.9333 35.433 25C35.433 24.3167 35.9997 23.75 36.683 23.75C37.3663 23.75 37.933 24.3167 37.933 25C37.9163 32.1167 32.1163 37.9167 24.9997 37.9167Z" fill="#9B9B9B"/>
<path d="M3.33301 16.2526C2.64967 16.2526 2.08301 15.6859 2.08301 15.0026C2.08301 7.88594 7.88301 2.08594 14.9997 2.08594C15.4497 2.08594 15.8663 2.33594 16.083 2.71927C16.2997 3.1026 16.2997 3.58594 16.0663 3.96927L14.3163 6.9026C13.9663 7.48594 13.1997 7.68594 12.5997 7.31927C12.0163 6.96927 11.8163 6.2026 12.183 5.6026L12.633 4.8526C8.01634 5.93594 4.58301 10.0693 4.58301 15.0026C4.58301 15.6859 4.01634 16.2526 3.33301 16.2526Z" fill="#9B9B9B"/>
<path d="M17.7836 23.0807L12.5503 20.2641C12.0003 19.9641 11.3336 19.9641 10.7836 20.2641L5.55026 23.0807C5.16693 23.2807 4.93359 23.6974 4.93359 24.1474C4.93359 24.5974 5.16693 25.0141 5.55026 25.2141L10.7836 28.0307C11.0669 28.1807 11.3669 28.2474 11.6669 28.2474C11.9669 28.2474 12.2669 28.1807 12.5503 28.0307L17.7836 25.2141C18.1669 25.0141 18.4003 24.5974 18.4003 24.1474C18.4003 23.6974 18.1503 23.2974 17.7836 23.0807Z" fill="#9B9B9B"/>
<path d="M9.91634 29.0203L5.04967 26.587C4.68301 26.4036 4.24967 26.4203 3.88301 26.637C3.54967 26.8536 3.33301 27.237 3.33301 27.6536V32.2536C3.33301 33.0536 3.76634 33.7703 4.48301 34.1203L9.34967 36.5536C9.51634 36.6203 9.69967 36.6703 9.88301 36.6703C10.0997 36.6703 10.3163 36.6036 10.5163 36.487C10.8663 36.2703 11.083 35.887 11.083 35.4703V30.8703C11.083 30.087 10.633 29.3703 9.91634 29.0203Z" fill="#9B9B9B"/>
<path d="M19.4333 26.637C19.0833 26.4203 18.65 26.4036 18.2667 26.587L13.4 29.0203C12.6833 29.3703 12.25 30.087 12.25 30.887V35.487C12.25 35.9036 12.4667 36.287 12.8167 36.5036C13.0167 36.6036 13.2333 36.6703 13.45 36.6703C13.6333 36.6703 13.8167 36.6203 13.9833 36.537L18.85 34.1036C19.5667 33.7536 20 33.037 20 32.237V27.637C20 27.237 19.7833 26.8536 19.4333 26.637Z" fill="#9B9B9B"/>
<path d="M34.4496 6.38542L29.2163 3.56875C28.6663 3.26875 27.9996 3.26875 27.4496 3.56875L22.2163 6.38542C21.8329 6.58542 21.5996 7.00208 21.5996 7.45208C21.5996 7.90208 21.8329 8.31875 22.2163 8.51875L27.4496 11.3354C27.7329 11.4854 28.0329 11.5521 28.3329 11.5521C28.6329 11.5521 28.9329 11.4854 29.2163 11.3354L34.4496 8.51875C34.8329 8.31875 35.0663 7.90208 35.0663 7.45208C35.0663 6.98542 34.8163 6.58542 34.4496 6.38542Z" fill="#9B9B9B"/>
<path d="M26.5833 12.3016L21.7167 9.86823C21.35 9.6849 20.9167 9.70156 20.55 9.91823C20.2167 10.1349 20 10.5182 20 10.9349V15.5349C20 16.3349 20.4333 17.0516 21.15 17.4016L26.0167 19.8349C26.1833 19.9182 26.3667 19.9682 26.55 19.9682C26.7667 19.9682 26.9833 19.9016 27.1833 19.7849C27.5333 19.5682 27.75 19.1849 27.75 18.7682V14.1682C27.75 13.3682 27.3 12.6516 26.5833 12.3016Z" fill="#9B9B9B"/>
<path d="M36.1003 9.91823C35.7503 9.70156 35.317 9.6849 34.9337 9.86823L30.067 12.3016C29.3503 12.6516 28.917 13.3682 28.917 14.1682V18.7682C28.917 19.1849 29.1337 19.5682 29.4837 19.7849C29.6837 19.9016 29.9003 19.9682 30.117 19.9682C30.3003 19.9682 30.4837 19.9182 30.6503 19.8349L35.517 17.4016C36.2337 17.0349 36.667 16.3182 36.667 15.5349V10.9349C36.667 10.5182 36.4503 10.1349 36.1003 9.91823Z" fill="#9B9B9B"/>
</svg>
