<svg width="29" height="40" viewBox="0 0 29 40" fill="none" xmlns="http://www.w3.org/2000/svg">
<g clip-path="url(#clip0_697_16163)">
<path d="M1.42427 13.498C0.93716 13.2756 0.515158 13.104 0.170322 12.9746C0.0979785 12.4319 0.0449268 11.888 0.0123724 11.3416C-0.0141535 10.8919 0.00272661 10.4483 0.0557783 10.0132C0.348769 10.0615 0.763536 10.1341 1.27959 10.2344C1.22894 10.8521 1.22412 11.5024 1.27959 12.1889C1.31455 12.6277 1.36278 13.0641 1.42427 13.498ZM6.24233 16.3495C5.01009 15.4429 3.85259 14.7406 2.84702 14.2015C2.64326 12.9456 2.55644 11.7006 2.6324 10.516C3.56201 10.7215 4.66163 10.9874 5.87097 11.3247C5.79139 12.9094 5.9397 14.6137 6.24233 16.3495ZM18.8976 17.0106C18.8855 17.1472 18.8698 17.2862 18.8554 17.4252C17.1722 18.3064 15.4962 19.4946 13.9903 21.0962C13.5032 21.6136 13.0595 22.1333 12.6532 22.6507C12.1974 22.0729 11.7115 21.4879 11.1954 20.9004C10.9639 20.6381 10.7324 20.3831 10.4985 20.1341C10.1115 17.5352 9.86552 14.9715 9.81971 12.5685C12.8159 13.6346 16.0509 15.0815 18.8976 17.0106Z" fill="#2AC64B"/>
<path d="M1.79288 7.70947C1.54088 8.47582 1.35761 9.31711 1.28045 10.2346C0.764399 10.1342 0.349631 10.0617 0.0566406 10.0134C0.0891951 9.73897 0.13863 9.46821 0.200121 9.20107C0.567866 8.8046 1.09959 8.28121 1.79288 7.70947Z" fill="#008A5A"/>
<path d="M7.65464 4.39746C6.76844 6.02686 6.05827 8.22316 5.87861 11.1532C5.8762 11.21 5.87258 11.268 5.87017 11.3248C4.66083 10.9876 3.56242 10.7229 2.63281 10.5162C2.63402 10.4763 2.63764 10.4388 2.64005 10.3989C2.7558 8.86259 3.20794 7.45318 3.89158 6.20213C4.949 5.54819 6.20175 4.91239 7.65464 4.39746Z" fill="#009550"/>
<path d="M18.8973 17.0105C16.0506 15.0813 12.8156 13.6345 9.81943 12.5684C9.76156 9.70603 9.98341 7.07458 10.5742 4.894C10.5899 4.83356 10.6068 4.77433 10.6236 4.71631C13.0001 6.1245 16.0964 7.69467 19.036 8.38366C19.2928 10.9825 19.2156 13.9355 18.8973 17.0105Z" fill="#00983E"/>
<path d="M28.9883 11.3419C28.9159 12.5506 28.7435 13.7473 28.4758 14.944C28.137 14.9572 27.7464 14.979 27.3135 15.0165C27.504 14.0942 27.6439 13.1502 27.7211 12.1892C27.9791 8.95459 26.9361 6.49115 25.7304 4.7711C26.0837 4.87143 26.4189 4.97054 26.7312 5.06725C28.0852 6.78851 29.1305 9.00052 28.9883 11.3419ZM25.9752 15.1724C25.0311 15.3078 23.9652 15.5193 22.8403 15.8421C23.0983 14.2187 23.2105 12.6328 23.12 11.1533C22.9151 7.77968 22.0035 5.38031 20.9316 3.69531C21.9396 3.86212 22.8958 4.05915 23.7783 4.26584C25.1854 5.9315 26.1813 8.01055 26.3598 10.4003C26.4731 11.9233 26.3104 13.5478 25.9752 15.1724Z" fill="#009A37"/>
<path d="M19.0354 8.38393C16.0958 7.69374 12.9995 6.12357 10.623 4.71658C10.7484 4.28022 10.8883 3.88375 11.0426 3.52355C11.4779 3.4486 11.9264 3.38817 12.3882 3.34102C14.245 3.15125 16.0994 3.16938 17.8646 3.31443C18.0732 3.77617 18.2637 4.29956 18.4253 4.89427C18.7122 5.95797 18.9136 7.12925 19.0354 8.38393Z" fill="#00863F"/>
<path d="M6.34673 1.74316C6.24907 1.8036 3.09128 3.75211 1.79272 7.70835C1.09943 8.28009 0.567711 8.80469 0.201172 9.19995C1.05965 5.46733 4.4863 2.41886 6.34673 1.74316ZM8.34461 3.28311C8.10708 3.62156 7.87559 3.99265 7.65614 4.39758C6.20446 4.91251 4.95051 5.54831 3.89309 6.20346C4.70213 4.71548 5.83912 3.4475 7.1208 2.44182C7.42465 2.6594 7.84062 2.94829 8.34461 3.28311Z" fill="#06CBF6"/>
<path d="M26.7302 5.06709C26.4179 4.97039 26.0827 4.87127 25.7294 4.77094C24.3043 2.73782 22.6512 1.74181 22.6512 1.74181C23.7472 2.13949 25.3906 3.36395 26.7302 5.06709ZM23.7774 4.26568C22.896 4.05899 21.9399 3.86196 20.9319 3.69515C19.1233 0.847335 16.8517 0.03868 16.7408 0.00120875C19.1751 0.490753 21.8591 1.99565 23.7774 4.26568ZM17.8645 3.3144C16.0993 3.16814 14.245 3.15121 12.3881 3.34099C11.9264 3.38813 11.479 3.44857 11.0426 3.52351C12.3471 0.441194 14.4692 0 14.4692 0H14.5295C14.5295 0 16.5551 0.420645 17.8645 3.3144ZM12.2591 0.00120875C12.1542 0.0374713 10.0997 0.768766 8.34295 3.28297C7.84016 2.94935 7.42298 2.66046 7.11914 2.44289C8.72034 1.1882 10.5506 0.344494 12.2591 0.00120875Z" fill="url(#paint0_linear_697_16163)"/>
<path d="M14.4995 39.9998H16.6806L17.4873 36.4702H11.5117L12.3183 39.9998H14.4995Z" fill="#666565"/>
<path d="M6.26346 24.2014C6.68305 25.0705 7.08335 25.8465 7.42819 26.4944C8.01899 27.6029 8.58086 28.5457 9.16081 29.4039C9.32841 28.8164 9.537 28.1964 9.79743 27.5533C9.3477 26.5198 8.89676 25.409 8.46752 24.2522C7.53429 21.7392 6.70596 19.005 6.24297 16.3494C5.01072 15.444 3.85323 14.7405 2.84766 14.2026C3.42279 17.7769 4.93838 21.4576 6.26346 24.2014Z" fill="url(#paint1_linear_697_16163)"/>
<path d="M4.29349 24.157C4.53101 24.5728 4.77819 24.9911 5.0338 25.4129C6.23108 27.3808 7.61404 29.1987 8.84508 30.6758C8.88126 30.4969 8.92346 30.312 8.97048 30.1246C8.47252 29.4381 7.98661 28.7418 7.56823 28.0951C6.96898 27.1704 6.10207 25.8299 5.19778 24.18C3.64963 21.3503 1.99659 17.6092 1.42267 13.4995C0.935555 13.2771 0.513552 13.1054 0.169922 12.9761C0.665473 16.6591 2.07134 20.2757 4.29349 24.157Z" fill="url(#paint2_linear_697_16163)"/>
<path d="M10.7131 21.506C10.8687 22.4367 11.0507 23.382 11.2473 24.3163C11.2665 24.4058 11.2846 24.494 11.3039 24.5835C11.697 23.9464 12.1443 23.2998 12.6507 22.6519C12.1805 22.056 11.6946 21.4721 11.193 20.9004C10.9615 20.6381 10.73 20.383 10.4961 20.1353C10.5648 20.591 10.636 21.0479 10.7131 21.506Z" fill="url(#paint3_linear_697_16163)"/>
<path d="M27.3123 15.0164C26.7577 17.7167 25.781 20.2176 24.7417 22.3571C24.9515 22.5687 25.1565 22.7802 25.3554 22.9881C26.836 20.2285 27.8886 17.5886 28.4758 14.9438C28.1358 14.9571 27.7463 14.9777 27.3123 15.0164ZM22.8415 15.8419C22.6377 17.1317 22.3447 18.4444 21.9902 19.7462C22.6027 20.2998 23.2719 20.9199 23.9302 21.5557C24.7537 19.5855 25.523 17.3771 25.9763 15.1723C25.0311 15.3089 23.9664 15.5204 22.8415 15.8419Z" fill="#97CC1A"/>
<path d="M13.9895 21.0951C13.5024 21.6124 13.0587 22.1322 12.6523 22.6507C14.4235 24.8942 15.7402 27.0276 16.6939 28.8117C17.04 27.47 17.3993 25.9845 17.7212 24.4626C17.9298 23.4811 18.1215 22.4863 18.2855 21.506C18.5158 20.1377 18.7075 18.7706 18.8546 17.4253C17.1702 18.3065 15.4954 19.4935 13.9895 21.0951ZM24.7409 22.357C24.7011 22.4392 24.6613 22.5202 24.6215 22.6012C23.446 24.9788 22.2101 26.8886 21.43 28.0937C20.5293 29.485 19.3152 31.1144 18.353 32.3606C18.388 32.4525 18.4217 32.5383 18.4531 32.6205C19.9433 30.9935 22.1643 28.3717 23.9644 25.4127C24.4166 24.6693 24.8386 23.938 25.2328 23.214C25.2738 23.1391 25.3148 23.0641 25.3546 22.988C25.1557 22.7789 24.9507 22.5685 24.7409 22.357ZM21.9894 19.7461L21.9424 19.9153C20.8006 24.048 19.062 28.0514 17.6862 30.8098C17.8357 31.1374 17.972 31.4432 18.0914 31.7236C19.3622 30.2078 20.4087 28.6727 21.5711 26.4946C22.2089 25.2955 23.036 23.6612 23.8258 21.8022L23.9295 21.5556C23.2711 20.9198 22.602 20.2997 21.9894 19.7461Z" fill="url(#paint4_linear_697_16163)"/>
<path d="M15.6465 34.4073C16.5749 33.4427 17.3695 32.5869 18.0917 31.7239C17.9723 31.4434 17.8373 31.1388 17.6866 30.8101C16.7123 32.7658 15.9178 34.0954 15.6465 34.4073Z" fill="url(#paint5_linear_697_16163)"/>
<path d="M16.7871 34.3492C16.8365 34.3009 17.4949 33.6663 18.4546 32.6207C18.4221 32.5385 18.3895 32.4527 18.3545 32.3608C17.4937 33.4777 16.8377 34.2888 16.7871 34.3492Z" fill="url(#paint6_linear_697_16163)"/>
<path d="M11.3047 24.5822C12.4019 29.7279 13.9066 34.4468 13.9066 34.4468H15.0931C15.0931 34.4468 15.8563 32.0499 16.6943 28.8104C15.7405 27.0263 14.4239 24.8941 12.6527 22.6494C12.1451 23.2985 11.6978 23.9452 11.3047 24.5822Z" fill="url(#paint7_linear_697_16163)"/>
<path d="M9.16016 29.4041C10.3598 31.1894 11.6234 32.6097 13.3524 34.4071C12.9497 33.9454 11.3895 31.2269 9.79678 27.5547C9.53634 28.1965 9.32775 28.8166 9.16016 29.4041Z" fill="url(#paint8_linear_697_16163)"/>
<path d="M8.8457 30.6747C10.6555 32.8469 12.1385 34.2768 12.2145 34.3493C12.1349 34.2502 10.5012 32.2364 8.9711 30.1235C8.92528 30.3109 8.88308 30.4958 8.8457 30.6747Z" fill="url(#paint9_linear_697_16163)"/>
</g>
<defs>
<linearGradient id="paint0_linear_697_16163" x1="7.99608" y1="2.11674" x2="25.5755" y2="2.64816" gradientUnits="userSpaceOnUse">
<stop stop-color="#0288F7"/>
<stop offset="1" stop-color="#2EE2BD"/>
</linearGradient>
<linearGradient id="paint1_linear_697_16163" x1="9.34177" y1="28.0937" x2="4.99891" y2="17.3811" gradientUnits="userSpaceOnUse">
<stop stop-color="#CB1918"/>
<stop offset="0.388" stop-color="#A2183D"/>
<stop offset="0.749" stop-color="#902869"/>
<stop offset="1" stop-color="#73358A"/>
</linearGradient>
<linearGradient id="paint2_linear_697_16163" x1="7.1568" y1="28.9796" x2="2.81382" y2="18.2669" gradientUnits="userSpaceOnUse">
<stop stop-color="#CB1918"/>
<stop offset="0.388" stop-color="#A2183D"/>
<stop offset="0.749" stop-color="#902869"/>
<stop offset="1" stop-color="#73358A"/>
</linearGradient>
<linearGradient id="paint3_linear_697_16163" x1="13.1594" y1="26.5455" x2="8.81647" y2="15.8327" gradientUnits="userSpaceOnUse">
<stop stop-color="#CB1918"/>
<stop offset="0.388" stop-color="#A2183D"/>
<stop offset="0.749" stop-color="#902869"/>
<stop offset="1" stop-color="#73358A"/>
</linearGradient>
<linearGradient id="paint4_linear_697_16163" x1="22.0469" y1="20.4778" x2="15.7546" y2="27.3336" gradientUnits="userSpaceOnUse">
<stop stop-color="#ADD816"/>
<stop offset="1" stop-color="#DBD704"/>
</linearGradient>
<linearGradient id="paint5_linear_697_16163" x1="17.3018" y1="33.681" x2="11.9402" y2="24.6619" gradientUnits="userSpaceOnUse">
<stop stop-color="#E1282B"/>
<stop offset="0.388" stop-color="#E3402A"/>
<stop offset="0.702" stop-color="#E76226"/>
<stop offset="1" stop-color="#F19A0A"/>
</linearGradient>
<linearGradient id="paint6_linear_697_16163" x1="17.6431" y1="33.4781" x2="12.2814" y2="24.459" gradientUnits="userSpaceOnUse">
<stop stop-color="#E1282B"/>
<stop offset="0.388" stop-color="#E3402A"/>
<stop offset="0.702" stop-color="#E76226"/>
<stop offset="1" stop-color="#F19A0A"/>
</linearGradient>
<linearGradient id="paint7_linear_697_16163" x1="16.7347" y1="34.0173" x2="11.3732" y2="24.9984" gradientUnits="userSpaceOnUse">
<stop stop-color="#E1282B"/>
<stop offset="0.388" stop-color="#E3402A"/>
<stop offset="0.702" stop-color="#E76226"/>
<stop offset="1" stop-color="#F19A0A"/>
</linearGradient>
<linearGradient id="paint8_linear_697_16163" x1="13.7908" y1="35.768" x2="8.42912" y2="26.7489" gradientUnits="userSpaceOnUse">
<stop stop-color="#E1282B"/>
<stop offset="0.388" stop-color="#E3402A"/>
<stop offset="0.702" stop-color="#E76226"/>
<stop offset="1" stop-color="#F19A0A"/>
</linearGradient>
<linearGradient id="paint9_linear_697_16163" x1="12.8035" y1="36.3552" x2="7.44201" y2="27.3362" gradientUnits="userSpaceOnUse">
<stop stop-color="#E1282B"/>
<stop offset="0.388" stop-color="#E3402A"/>
<stop offset="0.702" stop-color="#E76226"/>
<stop offset="1" stop-color="#F19A0A"/>
</linearGradient>
<clipPath id="clip0_697_16163">
<rect width="29" height="40" fill="white"/>
</clipPath>
</defs>
</svg>
