<svg width="1060" height="276" viewBox="0 0 1060 276" fill="none" xmlns="http://www.w3.org/2000/svg">
<path d="M356.308 270.586C356.317 270.586 356.326 270.586 356.335 270.586C356.637 270.571 356.87 270.315 356.855 270.013C356.844 269.803 355.821 248.969 355.164 240.703C355.14 240.401 354.878 240.177 354.575 240.2C354.274 240.225 354.049 240.488 354.073 240.789C354.729 249.039 355.75 269.857 355.761 270.065C355.777 270.359 356.02 270.586 356.308 270.586Z" fill="black"/>
<path d="M352.447 268.603C350.516 268.917 348.458 269.286 347.222 270.979C346.602 271.827 346.42 272.947 346.889 273.886C347.617 275.343 349.308 275.445 350.775 275.391C352.997 275.31 355.053 275.186 357.196 274.59C358.51 274.224 359.242 273.4 359.207 270.324C359.194 269.217 358.278 268.332 357.171 268.351C355.564 268.381 353.393 268.448 352.447 268.603Z" fill="#FF5233"/>
<path d="M350.258 275.946C350.438 275.946 350.618 275.942 350.795 275.936C352.978 275.856 355.121 275.734 357.343 275.115C359.135 274.616 359.789 273.316 359.755 270.318C359.747 269.637 359.473 268.999 358.983 268.525C358.492 268.048 357.842 267.791 357.161 267.805C355.508 267.836 353.331 267.905 352.358 268.062C350.495 268.365 348.177 268.743 346.78 270.655C346.006 271.716 345.86 273.047 346.4 274.129C347.163 275.654 348.723 275.946 350.258 275.946ZM357.21 268.897C357.59 268.897 357.948 269.043 358.223 269.309C358.501 269.579 358.659 269.943 358.662 270.329C358.697 273.361 357.985 273.801 357.052 274.061C354.943 274.649 352.871 274.766 350.757 274.843C349.342 274.896 347.953 274.785 347.381 273.641C347.024 272.927 347.133 272.03 347.665 271.301C348.798 269.751 350.784 269.427 352.536 269.142C353.245 269.026 354.896 268.94 357.183 268.899C357.191 268.898 357.201 268.897 357.21 268.897Z" fill="black"/>
<path d="M428.932 256.565C429.087 256.565 429.242 256.499 429.35 256.371C429.546 256.141 429.517 255.797 429.287 255.601C423.48 250.667 417.576 244.561 411.864 238.657C410.653 237.404 409.446 236.156 408.243 234.922C408.032 234.706 407.685 234.702 407.47 234.913C407.254 235.123 407.25 235.47 407.46 235.686C408.661 236.918 409.867 238.166 411.078 239.417C416.808 245.341 422.731 251.466 428.579 256.435C428.681 256.522 428.807 256.565 428.932 256.565Z" fill="black"/>
<path d="M429.4 251.168C430.506 249.554 431.716 247.849 433.772 247.451C434.803 247.251 435.893 247.561 436.544 248.386C437.553 249.666 436.926 251.239 436.253 252.543C435.234 254.52 434.248 256.328 432.796 258.014C431.905 259.048 430.848 259.36 428.08 258.02C427.084 257.538 426.672 256.332 427.162 255.338C427.873 253.896 428.859 251.958 429.4 251.168Z" fill="#FF5233"/>
<path d="M430.999 259.461C431.894 259.461 432.584 259.099 433.212 258.371C434.717 256.623 435.74 254.735 436.74 252.795C437.517 251.287 438.154 249.543 436.973 248.049C436.225 247.1 434.958 246.665 433.668 246.915C431.342 247.366 430.015 249.304 428.948 250.86C428.391 251.672 427.403 253.613 426.671 255.097C426.369 255.711 426.326 256.405 426.547 257.052C426.769 257.698 427.229 258.217 427.842 258.514C429.148 259.144 430.162 259.461 430.999 259.461ZM434.386 247.938C435.082 247.938 435.717 248.22 436.115 248.725C436.908 249.73 436.417 251.033 435.767 252.292C434.797 254.173 433.809 255.998 432.382 257.657C431.749 258.391 431.048 258.849 428.319 257.528C427.97 257.359 427.708 257.064 427.582 256.695C427.454 256.325 427.48 255.93 427.651 255.579C428.663 253.527 429.444 252.07 429.85 251.478C430.854 250.013 431.99 248.353 433.876 247.988C434.048 247.955 434.218 247.938 434.386 247.938Z" fill="black"/>
<path d="M286.229 175.751C286.441 175.751 286.644 175.637 286.75 175.437C292.254 164.989 300.137 159.687 313.111 157.709C313.432 157.66 313.653 157.36 313.604 157.039C313.555 156.718 313.254 156.499 312.933 156.547C299.55 158.587 291.408 164.073 285.71 174.888C285.559 175.175 285.669 175.531 285.956 175.682C286.044 175.729 286.137 175.751 286.229 175.751Z" fill="black"/>
<path d="M281.415 177.121C281.57 179.832 283.893 181.907 286.604 181.752C289.316 181.597 291.39 179.274 291.236 176.563C291.081 173.85 288.758 171.777 286.046 171.931C283.334 172.085 281.26 174.408 281.415 177.121Z" fill="#FF5233"/>
<path d="M286.318 182.305C286.424 182.305 286.53 182.301 286.635 182.296C288.093 182.214 289.43 181.568 290.403 180.479C291.375 179.39 291.865 177.987 291.782 176.53C291.611 173.521 289.027 171.218 286.015 171.383C283.007 171.554 280.699 174.142 280.87 177.149C280.953 178.607 281.598 179.944 282.687 180.917C283.696 181.819 284.976 182.305 286.318 182.305ZM286.331 172.469C287.405 172.469 288.428 172.858 289.237 173.579C290.108 174.356 290.625 175.427 290.691 176.591C290.758 177.758 290.366 178.879 289.588 179.75C288.811 180.621 287.74 181.136 286.573 181.203C285.409 181.27 284.286 180.879 283.415 180.1C282.544 179.323 282.027 178.252 281.962 177.086C281.825 174.68 283.672 172.611 286.077 172.474C286.162 172.472 286.246 172.469 286.331 172.469Z" fill="black"/>
<path d="M468.276 160.401C468.671 160.401 469.07 160.351 469.473 160.242C470.493 159.963 471.464 159.309 472.359 158.296C474.111 156.314 475.06 153.564 475.811 151.143C477.59 145.41 478.907 139.425 479.726 133.357C479.766 133.058 479.555 132.782 479.257 132.742C478.958 132.704 478.682 132.913 478.642 133.211C477.831 139.219 476.527 145.143 474.766 150.819C474.048 153.132 473.147 155.752 471.539 157.572C470.798 158.41 469.984 158.968 469.186 159.186C467.455 159.658 465.486 158.769 462.99 156.387C460.77 154.269 458.725 151.859 456.912 149.228C456.74 148.979 456.4 148.917 456.152 149.087C455.903 149.259 455.84 149.599 456.011 149.848C457.865 152.541 459.961 155.006 462.235 157.177C463.744 158.619 465.918 160.401 468.276 160.401Z" fill="black"/>
<path d="M475.7 120.185C474.119 116.257 475.356 111.373 478.618 108.673C479.397 108.028 480.513 107.492 481.382 108.011C482.168 108.48 482.304 109.542 482.357 110.456C482.474 112.501 482.59 114.546 482.708 116.591C482.972 121.21 486.954 120.418 489.977 122.718C491.644 123.986 492.934 126.58 493.245 128.616C495.178 141.305 488.22 142.987 480.19 141.808C477.338 141.389 473.664 140.198 472.595 138.098C470.635 134.252 471.407 121.634 475.7 120.185Z" fill="#FF5233"/>
<path d="M484.058 142.664C487.436 142.664 489.919 141.83 491.594 140.146C493.906 137.822 494.622 134.023 493.786 128.533C493.477 126.506 492.184 123.707 490.309 122.282C489.228 121.459 488.03 121.008 486.973 120.61C484.905 119.832 483.41 119.269 483.255 116.559L482.905 110.424C482.864 109.705 482.779 108.206 481.664 107.541C480.741 106.991 479.473 107.256 478.271 108.252C474.946 111.005 473.623 115.823 475.011 119.892C473.999 120.439 473.148 121.546 472.477 123.193C470.697 127.562 470.511 135.209 472.11 138.345C473.258 140.598 476.998 141.891 480.114 142.348C481.543 142.558 482.857 142.664 484.058 142.664ZM480.603 108.35C480.783 108.35 480.953 108.39 481.102 108.479C481.643 108.803 481.763 109.634 481.812 110.486L482.163 116.621C482.359 120.042 484.508 120.851 486.588 121.633C487.624 122.024 488.695 122.426 489.647 123.151C491.273 124.388 492.436 126.931 492.705 128.696C493.474 133.749 492.84 137.342 490.82 139.374C488.811 141.394 485.358 142.013 480.271 141.266C477.556 140.866 474.043 139.732 473.083 137.848C471.538 134.816 472.002 127.253 473.489 123.604C474.137 122.014 474.963 121.01 475.877 120.702C476.02 120.654 476.136 120.548 476.199 120.412C476.262 120.275 476.266 120.118 476.209 119.979C474.729 116.301 475.914 111.622 478.968 109.093C479.446 108.697 480.07 108.35 480.603 108.35Z" fill="black"/>
<path d="M477.759 123.679C477.905 123.679 478.051 123.621 478.159 123.506C478.365 123.286 478.355 122.939 478.133 122.733C477.246 121.903 476.734 121.05 476.192 119.943C476.06 119.671 475.732 119.559 475.46 119.692C475.189 119.825 475.076 120.152 475.209 120.424C475.804 121.642 476.377 122.586 477.384 123.531C477.491 123.63 477.625 123.679 477.759 123.679Z" fill="black"/>
<path d="M484.571 141.889C483.467 141.317 482.663 140.784 482.159 140.29C481.656 139.796 481.289 138.916 481.337 138.079C481.391 137.119 482.232 136.117 483.763 135.822C485.089 135.566 486.396 135.946 488.633 136.196C486.971 136.038 483.645 135.42 482.274 134.467C481.664 134.043 481.065 133.48 480.972 132.743C480.915 132.295 481.06 131.842 481.274 131.445C481.893 130.297 483.08 129.539 484.33 129.163C485.58 128.787 488.895 128.498 490.2 128.472C488.873 128.458 485.567 128.459 484.25 128.294C482.726 128.104 480.94 127.583 480.489 126.114C480.115 124.897 480.939 123.589 482.029 122.934C483.69 121.935 485.415 122.055 486.685 121.957C488.922 121.785 491.646 121.93 493.294 122.351C494.313 122.613 495.254 123.247 495.858 124.108C496.463 124.97 496.597 126.226 495.943 127.052C495.407 127.729 494.504 127.97 493.664 128.172C494.934 128.321 496.285 129.49 496.829 130.649C497.372 131.806 497.276 133.241 496.581 134.315C495.463 136.043 493.124 136.571 491.08 136.318C491.925 136.798 493.076 137.285 493.613 138.094C494.151 138.903 494.396 139.947 494.089 140.87C493.767 141.838 492.888 142.54 491.929 142.888C490.972 143.237 489.857 143.189 488.846 143.055C487.629 142.894 485.829 142.541 484.571 141.889Z" fill="#FF5233"/>
<path d="M490.195 143.704C490.82 143.704 491.491 143.631 492.116 143.403C493.331 142.961 494.263 142.079 494.607 141.044C494.946 140.026 494.745 138.811 494.068 137.793C493.822 137.423 493.485 137.119 493.112 136.856C494.63 136.655 496.142 135.999 497.039 134.612C497.832 133.386 497.944 131.739 497.322 130.417C496.952 129.631 496.213 128.772 495.31 128.213C495.704 128.022 496.077 127.763 496.37 127.392C497.225 126.312 496.984 124.765 496.304 123.794C495.633 122.837 494.584 122.118 493.427 121.822C491.755 121.394 489.027 121.227 486.639 121.412C486.424 121.429 486.195 121.439 485.955 121.449C484.744 121.502 483.235 121.569 481.744 122.466C480.506 123.209 479.497 124.757 479.963 126.275C480.369 127.593 481.645 128.435 483.759 128.778C482.413 129.272 481.368 130.116 480.79 131.187C480.485 131.753 480.362 132.301 480.427 132.812C480.524 133.578 481.025 134.266 481.959 134.917C482.241 135.112 482.596 135.295 482.998 135.463C481.551 135.968 480.844 137.075 480.789 138.049C480.735 138.994 481.132 140.052 481.774 140.682C482.322 141.22 483.155 141.775 484.317 142.376C485.746 143.116 487.722 143.46 488.771 143.598C489.177 143.652 489.669 143.704 490.195 143.704ZM491.079 135.772C490.845 135.772 490.634 135.922 490.559 136.147C490.477 136.395 490.581 136.665 490.809 136.794C490.977 136.889 491.155 136.983 491.339 137.081C492.023 137.446 492.8 137.858 493.157 138.397C493.648 139.137 493.803 139.996 493.57 140.697C493.33 141.418 492.647 142.045 491.742 142.374C490.816 142.71 489.687 142.615 488.918 142.513C488.129 142.409 486.152 142.092 484.822 141.403C483.773 140.861 483.005 140.354 482.543 139.9C482.119 139.483 481.847 138.748 481.883 138.11C481.922 137.422 482.551 136.614 483.868 136.358C484.713 136.195 485.588 136.324 486.799 136.502C486.965 136.526 487.139 136.552 487.32 136.578C487.788 136.651 488.218 136.705 488.583 136.74C488.88 136.768 489.147 136.55 489.178 136.252C489.209 135.953 488.994 135.685 488.695 135.652C488.223 135.6 487.789 135.54 487.391 135.482C485.654 135.205 483.539 134.679 482.587 134.017C481.922 133.553 481.57 133.115 481.515 132.673C481.478 132.391 481.56 132.065 481.755 131.704C482.424 130.462 483.755 129.906 484.489 129.686C485.648 129.337 488.894 129.044 490.211 129.019C490.51 129.013 490.749 128.769 490.747 128.47C490.746 128.171 490.505 127.928 490.206 127.926L489.534 127.921C487.994 127.909 485.418 127.89 484.319 127.752C482.418 127.513 481.306 126.909 481.012 125.953C480.714 124.983 481.459 123.916 482.311 123.403C483.563 122.65 484.862 122.592 486.007 122.542C486.259 122.53 486.5 122.52 486.726 122.503C488.969 122.332 491.615 122.486 493.157 122.882C494.066 123.114 494.887 123.676 495.41 124.423C495.847 125.046 496.031 126.06 495.514 126.713C495.104 127.23 494.376 127.439 493.536 127.641C493.278 127.703 493.102 127.941 493.117 128.205C493.133 128.47 493.336 128.685 493.599 128.716C494.6 128.834 495.827 129.805 496.334 130.882C496.799 131.87 496.715 133.101 496.122 134.018C495.072 135.641 492.787 135.98 491.148 135.776C491.124 135.773 491.101 135.772 491.079 135.772Z" fill="black"/>
<path d="M337.853 48.4029L339.092 70.205C329.203 73.7423 318.135 78.8955 313.241 88.189C309.82 94.685 309.303 102.276 309.067 109.615C308.62 123.522 312.351 181.162 314.76 216.314C315.817 231.719 329.069 243.406 344.486 242.528L434.895 237.388C450.312 236.512 462.154 223.398 461.457 207.973C459.867 172.773 457.04 115.083 455.019 101.316C453.952 94.0522 452.578 86.5679 448.443 80.5011C442.527 71.8235 430.948 67.9564 420.721 65.5634L419.482 43.7612" fill="white"/>
<path d="M342.852 243.128C343.407 243.128 343.961 243.113 344.519 243.08L434.927 237.94C442.53 237.507 449.527 234.158 454.63 228.506C459.733 222.855 462.354 215.554 462.011 207.947C460.48 174.061 457.609 115.137 455.568 101.235C454.501 93.9701 453.108 86.3596 448.902 80.1896C442.804 71.244 430.99 67.4271 421.251 65.1205L420.034 43.7307C420.016 43.4253 419.751 43.1869 419.451 43.2101C419.145 43.2268 418.912 43.4884 418.93 43.7938L420.17 65.596C420.184 65.8408 420.358 66.047 420.596 66.1024C430.214 68.3536 442.021 72.0597 447.987 80.812C452.06 86.7874 453.425 94.2575 454.473 101.395C456.506 115.249 459.376 174.131 460.906 207.996C461.235 215.311 458.715 222.331 453.809 227.764C448.902 233.197 442.174 236.418 434.865 236.834L344.457 241.975C337.145 242.39 330.098 239.952 324.607 235.11C319.116 230.268 315.816 223.578 315.315 216.274C312.995 182.453 309.172 123.625 309.623 109.631C309.855 102.42 310.364 94.8438 313.733 88.4445C318.669 79.0724 329.979 74.0519 339.28 70.7247C339.511 70.6422 339.661 70.418 339.646 70.1719L338.407 48.3697C338.39 48.0643 338.124 47.8272 337.823 47.8491C337.518 47.8659 337.284 48.1274 337.302 48.4328L338.519 69.8214C329.104 73.2169 317.799 78.3495 312.754 87.9278C309.275 94.5346 308.753 102.253 308.516 109.593C308.064 123.635 311.889 182.506 314.21 216.348C314.731 223.944 318.164 230.902 323.874 235.937C329.166 240.609 335.851 243.128 342.852 243.128Z" fill="black"/>
<path d="M338.604 61.6035L337.854 48.4029L419.482 43.7612L420.233 56.9619C413.468 58.1577 344.248 61.4231 338.604 61.6035Z" fill="black"/>
<path d="M325.232 227.423C328.819 230.804 336.49 235.615 348.978 234.733C353.145 234.439 406.305 231.465 414.153 231.027C425.181 230.411 438.883 230.316 446.405 228.442C451.326 227.217 458.263 222.34 461.332 212.205C459.921 225.73 448.878 236.594 434.893 237.389L344.485 242.529C329.068 243.406 315.816 231.719 314.759 216.315C314.509 212.677 314.246 208.797 313.974 204.75C315.952 210.55 319.888 222.384 325.232 227.423Z" fill="black"/>
<path d="M329.569 56.7291L428.655 51.0953C430.901 50.9677 432.619 49.0425 432.491 46.7965L430.134 5.33764C430.007 3.09157 428.082 1.37256 425.836 1.50143L326.75 7.13527C324.504 7.26284 322.786 9.18804 322.914 11.4341L325.27 52.8929C325.398 55.139 327.323 56.8567 329.569 56.7291Z" fill="#000427"/>
<path d="M329.332 57.283C329.421 57.283 329.511 57.2804 329.6 57.2753L428.686 51.6414C431.23 51.4958 433.182 49.309 433.038 46.7653L430.681 5.30648C430.611 4.07456 430.065 2.94315 429.144 2.12101C428.222 1.29887 427.041 0.882645 425.805 0.954808L326.719 6.58865C324.175 6.73298 322.223 8.92107 322.367 11.4648L324.724 52.9236C324.795 54.1568 325.34 55.2882 326.261 56.1091C327.116 56.8719 328.197 57.283 329.332 57.283ZM426.072 2.04112C426.939 2.04112 427.764 2.35553 428.416 2.9367C429.119 3.56426 429.535 4.42764 429.588 5.36834L431.945 46.8271C432.056 48.7691 430.565 50.4391 428.623 50.55L329.537 56.1838C328.595 56.2379 327.691 55.9209 326.988 55.2934C326.285 54.6658 325.868 53.8024 325.814 52.8617L323.457 11.4029C323.347 9.461 324.838 7.79093 326.78 7.68011L425.865 2.04627C425.935 2.0424 426.003 2.04112 426.072 2.04112Z" fill="black"/>
<path d="M334.922 219.063L441.738 212.99C445.675 212.765 448.685 209.393 448.462 205.455L442.389 98.6375C442.165 94.7008 438.791 91.6905 434.855 91.9135L328.037 97.9868C324.1 98.211 321.09 101.585 321.313 105.521L327.386 212.339C327.61 216.277 330.984 219.287 334.922 219.063Z" fill="#FD7E14"/>
<path d="M334.511 219.663C334.658 219.663 334.806 219.659 334.954 219.65L441.772 213.577C443.832 213.459 445.725 212.547 447.099 211.006C448.474 209.466 449.166 207.483 449.049 205.422L442.975 98.6047C442.733 94.3509 439.08 91.0933 434.821 91.3278L328.003 97.4011C325.943 97.5184 324.05 98.4307 322.676 99.9719C321.301 101.512 320.609 103.495 320.727 105.557L326.8 212.374C327.033 216.479 330.449 219.663 334.511 219.663ZM435.264 92.4902C438.709 92.4902 441.604 95.1898 441.803 98.6717L447.876 205.489C447.975 207.237 447.388 208.918 446.223 210.224C445.058 211.529 443.454 212.304 441.706 212.403L334.889 218.476C331.274 218.685 328.18 215.913 327.974 212.306L321.901 105.488C321.801 103.741 322.388 102.059 323.554 100.753C324.719 99.4475 326.323 98.673 328.07 98.5738L434.888 92.5005C435.013 92.4927 435.139 92.4902 435.264 92.4902Z" fill="black"/>
<path d="M385.984 159.813C386.136 159.813 386.285 159.755 386.399 159.642L393.812 152.244C394.042 152.014 394.043 151.642 393.813 151.412C393.584 151.183 393.212 151.182 392.982 151.411L385.904 158.474L376.337 152.321C376.064 152.146 375.701 152.224 375.525 152.497C375.35 152.771 375.429 153.134 375.702 153.309L385.667 159.719C385.763 159.782 385.874 159.813 385.984 159.813Z" fill="black"/>
<path d="M408.084 146.649C408.242 149.425 410.62 151.548 413.395 151.39C416.171 151.233 418.294 148.854 418.136 146.079C417.978 143.303 415.6 141.181 412.825 141.338C410.049 141.495 407.927 143.873 408.084 146.649Z" fill="#BC2763"/>
<path d="M404.351 138.624C404.209 136.141 402.879 134.976 401.325 135.065C399.771 135.152 398.581 136.46 398.722 138.944C398.862 141.427 400.193 142.592 401.748 142.503C403.302 142.415 404.491 141.107 404.351 138.624Z" fill="black"/>
<path d="M363.155 143.671C363.197 143.671 363.241 143.666 363.285 143.657L375.79 140.831C375.993 140.785 376.157 140.635 376.22 140.437C376.283 140.239 376.238 140.022 376.099 139.866L367.3 129.997C367.084 129.754 366.713 129.734 366.47 129.949C366.228 130.165 366.206 130.537 366.423 130.779L374.558 139.904L363.027 142.51C362.71 142.581 362.512 142.897 362.584 143.213C362.643 143.486 362.885 143.671 363.155 143.671Z" fill="black"/>
<path d="M375.659 140.845C375.916 140.845 376.15 140.676 376.224 140.419C376.313 140.107 376.132 139.781 375.821 139.692L361.449 135.577C361.135 135.487 360.811 135.669 360.722 135.981C360.632 136.293 360.813 136.619 361.125 136.707L375.496 140.822C375.551 140.837 375.605 140.845 375.659 140.845Z" fill="black"/>
<path d="M350.776 150.01C350.559 147.238 352.631 144.815 355.403 144.599C358.175 144.382 360.598 146.454 360.815 149.226C361.031 151.998 358.96 154.421 356.187 154.638C353.415 154.854 350.992 152.783 350.776 150.01Z" fill="#BC2763"/>
<path d="M438.76 187.975C438.802 187.975 438.843 187.974 438.886 187.971C440.092 187.903 441.015 186.869 440.945 185.663L439.989 168.857C439.921 167.651 438.886 166.731 437.681 166.798C436.475 166.866 435.552 167.9 435.622 169.106L436.577 185.912C436.644 187.076 437.609 187.975 438.76 187.975Z" fill="#FFA600"/>
<path d="M440.176 199.392C440.218 199.392 440.259 199.391 440.302 199.388C441.508 199.32 442.431 198.286 442.361 197.08L442.145 193.261C442.076 192.055 441.043 191.133 439.837 191.2C438.63 191.269 437.708 192.302 437.777 193.508L437.995 197.328C438.06 198.493 439.024 199.392 440.176 199.392Z" fill="#FFA600"/>
<path d="M348.182 36.4743L347.439 24.5871L349.739 24.4433L350.482 36.3305L348.182 36.4743ZM349.569 31.4987L349.441 29.4527L355.427 29.0785L355.555 31.1245L349.569 31.4987ZM349.257 26.5105L349.13 24.4814L355.404 24.0892L355.53 26.1183L349.257 26.5105ZM359.531 35.7649L359.403 33.7188L362.429 33.5296C363.196 33.4817 363.857 33.282 364.412 32.9304C364.967 32.5675 365.383 32.0831 365.662 31.4772C365.953 30.8706 366.073 30.1671 366.023 29.3667C365.974 28.5889 365.768 27.9227 365.405 27.3683C365.042 26.8025 364.563 26.3798 363.968 26.1001C363.373 25.8091 362.697 25.6872 361.942 25.7345L358.865 25.9268L358.737 23.8808L361.848 23.6863C362.727 23.6314 363.548 23.7272 364.311 23.9738C365.084 24.2196 365.764 24.5959 366.35 25.1024C366.947 25.597 367.42 26.1955 367.77 26.898C368.13 27.5997 368.337 28.3789 368.391 29.2356C368.445 30.0924 368.336 30.897 368.067 31.6494C367.807 32.3899 367.418 33.048 366.9 33.6236C366.381 34.188 365.753 34.6403 365.016 34.9806C364.29 35.3202 363.493 35.5172 362.625 35.5714L359.531 35.7649ZM357.958 35.8632L357.215 23.976L359.515 23.8322L360.258 35.7194L357.958 35.8632ZM371.402 35.0227L374.919 24.2103L377.185 24.0686L373.786 34.8737L371.402 35.0227ZM369.144 25.2334L369.019 23.2381L377.101 22.7328L377.185 24.0686L376.364 24.782L369.144 25.2334ZM379.474 34.5181L378.731 22.6309L381.031 22.4871L381.774 34.3743L379.474 34.5181ZM381.165 34.4124L381.039 32.3833L387.616 31.9721L387.743 34.0012L381.165 34.4124ZM380.847 29.3227L380.725 27.3612L386.71 26.987L386.833 28.9485L380.847 29.3227ZM380.549 24.5543L380.422 22.5252L386.915 22.1193L387.042 24.1484L380.549 24.5543ZM391.151 33.7881L390.408 21.9009L392.674 21.7593L393.417 33.6465L391.151 33.7881ZM388.199 24.0421L388.075 22.0468L392.505 21.7699L392.63 23.7652L388.199 24.0421ZM394.798 29.3503L398.376 21.4029L400.912 21.2443L397.233 29.1981L394.798 29.3503ZM394.883 30.703L394.798 29.3503L395.603 28.638L404.125 28.1052L404.251 30.1174L394.883 30.703ZM400.674 33.1928L400.201 25.6175L402.467 25.4758L402.94 33.0512L400.674 33.1928Z" fill="white"/>
<path d="M918.03 270.586C918.039 270.586 918.048 270.586 918.057 270.586C918.359 270.571 918.592 270.315 918.576 270.013C918.566 269.803 917.543 248.969 916.886 240.703C916.861 240.401 916.6 240.177 916.297 240.2C915.995 240.225 915.771 240.488 915.794 240.789C916.45 249.039 917.472 269.857 917.482 270.065C917.499 270.359 917.741 270.586 918.03 270.586Z" fill="black"/>
<path d="M914.169 268.603C912.238 268.917 910.18 269.286 908.944 270.979C908.324 271.827 908.142 272.947 908.612 273.886C909.34 275.343 911.03 275.445 912.497 275.391C914.72 275.31 916.775 275.186 918.918 274.59C920.232 274.224 920.964 273.4 920.929 270.324C920.917 269.217 920 268.332 918.893 268.351C917.287 268.381 915.115 268.448 914.169 268.603Z" fill="#FF5233"/>
<path d="M911.98 275.946C912.16 275.946 912.339 275.942 912.517 275.936C914.7 275.856 916.843 275.734 919.065 275.115C920.857 274.616 921.51 273.316 921.477 270.318C921.469 269.637 921.195 268.999 920.705 268.525C920.214 268.048 919.563 267.791 918.883 267.805C917.23 267.836 915.053 267.905 914.08 268.062C912.217 268.365 909.899 268.743 908.502 270.655C907.727 271.716 907.582 273.047 908.122 274.129C908.884 275.654 910.445 275.946 911.98 275.946ZM918.932 268.897C919.312 268.897 919.67 269.043 919.945 269.309C920.223 269.579 920.38 269.943 920.384 270.329C920.419 273.361 919.706 273.801 918.773 274.061C916.665 274.649 914.593 274.766 912.478 274.843C911.063 274.896 909.674 274.785 909.102 273.641C908.745 272.927 908.855 272.03 909.387 271.301C910.52 269.751 912.505 269.427 914.258 269.142C914.967 269.026 916.617 268.94 918.905 268.899C918.912 268.898 918.923 268.897 918.932 268.897Z" fill="black"/>
<path d="M990.654 256.565C990.809 256.565 990.963 256.499 991.071 256.371C991.267 256.141 991.239 255.797 991.008 255.601C985.202 250.667 979.297 244.561 973.586 238.657C972.375 237.404 971.167 236.156 969.965 234.922C969.754 234.706 969.407 234.702 969.192 234.913C968.975 235.123 968.972 235.47 969.182 235.686C970.383 236.918 971.589 238.166 972.8 239.417C978.529 245.341 984.453 251.466 990.301 256.435C990.403 256.522 990.529 256.565 990.654 256.565Z" fill="black"/>
<path d="M991.122 251.168C992.227 249.554 993.437 247.849 995.494 247.451C996.525 247.251 997.615 247.561 998.266 248.386C999.275 249.666 998.647 251.239 997.975 252.543C996.955 254.52 995.969 256.328 994.517 258.014C993.627 259.048 992.57 259.36 989.802 258.02C988.806 257.538 988.394 256.332 988.883 255.338C989.595 253.896 990.58 251.958 991.122 251.168Z" fill="#FF5233"/>
<path d="M992.721 259.461C993.615 259.461 994.306 259.099 994.934 258.371C996.439 256.623 997.462 254.735 998.462 252.795C999.239 251.287 999.875 249.543 998.695 248.049C997.946 247.1 996.68 246.665 995.39 246.915C993.064 247.366 991.737 249.304 990.67 250.86C990.113 251.672 989.124 253.613 988.393 255.097C988.091 255.711 988.047 256.405 988.269 257.052C988.49 257.698 988.951 258.217 989.564 258.514C990.869 259.144 991.883 259.461 992.721 259.461ZM996.108 247.938C996.803 247.938 997.439 248.22 997.837 248.725C998.629 249.73 998.138 251.033 997.489 252.292C996.519 254.173 995.53 255.998 994.104 257.657C993.471 258.391 992.77 258.849 990.041 257.528C989.691 257.359 989.43 257.064 989.304 256.695C989.176 256.325 989.202 255.93 989.373 255.579C990.385 253.527 991.166 252.07 991.572 251.478C992.575 250.013 993.712 248.353 995.597 247.988C995.77 247.955 995.94 247.938 996.108 247.938Z" fill="black"/>
<path d="M847.951 175.751C848.162 175.751 848.365 175.637 848.471 175.437C853.975 164.989 861.859 159.687 874.832 157.709C875.153 157.66 875.374 157.36 875.325 157.039C875.276 156.718 874.976 156.499 874.655 156.547C861.271 158.587 853.13 164.073 847.431 174.888C847.28 175.175 847.39 175.531 847.677 175.682C847.765 175.729 847.858 175.751 847.951 175.751Z" fill="black"/>
<path d="M843.136 177.121C843.291 179.832 845.614 181.907 848.325 181.752C851.037 181.597 853.111 179.274 852.957 176.563C852.802 173.85 850.479 171.777 847.767 171.931C845.055 172.085 842.982 174.408 843.136 177.121Z" fill="#FF5233"/>
<path d="M848.04 182.305C848.145 182.305 848.251 182.301 848.357 182.296C849.814 182.214 851.152 181.568 852.124 180.479C853.096 179.39 853.586 177.987 853.503 176.53C853.332 173.521 850.748 171.218 847.737 171.383C844.728 171.554 842.42 174.142 842.591 177.149C842.674 178.607 843.319 179.944 844.408 180.917C845.417 181.819 846.697 182.305 848.04 182.305ZM848.052 172.469C849.126 172.469 850.149 172.858 850.958 173.579C851.829 174.356 852.346 175.427 852.412 176.591C852.479 177.758 852.087 178.879 851.309 179.75C850.532 180.621 849.461 181.136 848.295 181.203C847.13 181.27 846.007 180.879 845.136 180.1C844.265 179.323 843.748 178.252 843.683 177.086C843.546 174.68 845.393 172.611 847.799 172.474C847.884 172.472 847.967 172.469 848.052 172.469Z" fill="black"/>
<path d="M1030 160.401C1030.39 160.401 1030.79 160.351 1031.2 160.242C1032.21 159.963 1033.19 159.309 1034.08 158.296C1035.83 156.314 1036.78 153.564 1037.53 151.143C1039.31 145.41 1040.63 139.425 1041.45 133.357C1041.49 133.058 1041.28 132.782 1040.98 132.742C1040.68 132.704 1040.4 132.913 1040.36 133.211C1039.55 139.219 1038.25 145.143 1036.49 150.819C1035.77 153.132 1034.87 155.752 1033.26 157.572C1032.52 158.41 1031.71 158.968 1030.91 159.186C1029.18 159.658 1027.21 158.769 1024.71 156.387C1022.49 154.269 1020.45 151.859 1018.63 149.228C1018.46 148.979 1018.12 148.917 1017.87 149.087C1017.63 149.259 1017.56 149.599 1017.73 149.848C1019.59 152.541 1021.68 155.006 1023.96 157.177C1025.47 158.619 1027.64 160.401 1030 160.401Z" fill="black"/>
<path d="M1037.42 120.185C1035.84 116.257 1037.08 111.373 1040.34 108.673C1041.12 108.028 1042.23 107.492 1043.1 108.011C1043.89 108.48 1044.03 109.542 1044.08 110.456C1044.2 112.501 1044.31 114.546 1044.43 116.591C1044.69 121.21 1048.68 120.418 1051.7 122.718C1053.37 123.986 1054.66 126.58 1054.97 128.616C1056.9 141.305 1049.94 142.987 1041.91 141.808C1039.06 141.389 1035.39 140.198 1034.32 138.098C1032.36 134.252 1033.13 121.634 1037.42 120.185Z" fill="#FF5233"/>
<path d="M1045.78 142.664C1049.16 142.664 1051.64 141.83 1053.32 140.146C1055.63 137.822 1056.34 134.023 1055.51 128.533C1055.2 126.506 1053.91 123.707 1052.03 122.282C1050.95 121.459 1049.75 121.008 1048.69 120.61C1046.63 119.832 1045.13 119.269 1044.98 116.559L1044.63 110.424C1044.59 109.705 1044.5 108.206 1043.39 107.541C1042.46 106.991 1041.2 107.256 1039.99 108.252C1036.67 111.005 1035.34 115.823 1036.73 119.892C1035.72 120.439 1034.87 121.546 1034.2 123.193C1032.42 127.562 1032.23 135.209 1033.83 138.345C1034.98 140.598 1038.72 141.891 1041.84 142.348C1043.26 142.558 1044.58 142.664 1045.78 142.664ZM1042.33 108.35C1042.5 108.35 1042.67 108.39 1042.82 108.479C1043.37 108.803 1043.48 109.634 1043.53 110.486L1043.88 116.621C1044.08 120.042 1046.23 120.851 1048.31 121.633C1049.35 122.024 1050.42 122.426 1051.37 123.151C1052.99 124.388 1054.16 126.931 1054.43 128.696C1055.2 133.749 1054.56 137.342 1052.54 139.374C1050.53 141.394 1047.08 142.013 1041.99 141.266C1039.28 140.866 1035.76 139.732 1034.8 137.848C1033.26 134.816 1033.72 127.253 1035.21 123.604C1035.86 122.014 1036.68 121.01 1037.6 120.702C1037.74 120.654 1037.86 120.548 1037.92 120.412C1037.98 120.275 1037.99 120.118 1037.93 119.979C1036.45 116.301 1037.64 111.622 1040.69 109.093C1041.17 108.697 1041.79 108.35 1042.33 108.35Z" fill="black"/>
<path d="M1039.48 123.679C1039.63 123.679 1039.77 123.621 1039.88 123.506C1040.09 123.286 1040.08 122.939 1039.85 122.733C1038.97 121.903 1038.46 121.05 1037.91 119.943C1037.78 119.671 1037.45 119.559 1037.18 119.692C1036.91 119.825 1036.8 120.152 1036.93 120.424C1037.53 121.642 1038.1 122.586 1039.11 123.531C1039.21 123.63 1039.35 123.679 1039.48 123.679Z" fill="black"/>
<path d="M1046.29 141.889C1045.19 141.317 1044.38 140.784 1043.88 140.29C1043.38 139.796 1043.01 138.916 1043.06 138.079C1043.11 137.119 1043.95 136.117 1045.48 135.822C1046.81 135.566 1048.12 135.946 1050.35 136.196C1048.69 136.038 1045.37 135.42 1044 134.467C1043.39 134.043 1042.79 133.48 1042.69 132.743C1042.64 132.295 1042.78 131.842 1043 131.445C1043.62 130.297 1044.8 129.539 1046.05 129.163C1047.3 128.787 1050.62 128.498 1051.92 128.472C1050.59 128.458 1047.29 128.459 1045.97 128.294C1044.45 128.104 1042.66 127.583 1042.21 126.114C1041.84 124.897 1042.66 123.589 1043.75 122.934C1045.41 121.935 1047.14 122.055 1048.41 121.957C1050.64 121.785 1053.37 121.93 1055.02 122.351C1056.03 122.613 1056.98 123.247 1057.58 124.108C1058.18 124.97 1058.32 126.226 1057.66 127.052C1057.13 127.729 1056.23 127.97 1055.39 128.172C1056.66 128.321 1058.01 129.49 1058.55 130.649C1059.09 131.806 1059 133.241 1058.3 134.315C1057.18 136.043 1054.85 136.571 1052.8 136.318C1053.65 136.798 1054.8 137.285 1055.34 138.094C1055.87 138.903 1056.12 139.947 1055.81 140.87C1055.49 141.838 1054.61 142.54 1053.65 142.888C1052.69 143.237 1051.58 143.189 1050.57 143.055C1049.35 142.894 1047.55 142.541 1046.29 141.889Z" fill="#FF5233"/>
<path d="M1051.92 143.704C1052.54 143.704 1053.21 143.631 1053.84 143.403C1055.05 142.961 1055.98 142.079 1056.33 141.044C1056.67 140.026 1056.47 138.811 1055.79 137.793C1055.54 137.423 1055.21 137.119 1054.83 136.856C1056.35 136.655 1057.86 135.999 1058.76 134.612C1059.55 133.386 1059.67 131.739 1059.04 130.417C1058.67 129.631 1057.93 128.772 1057.03 128.213C1057.43 128.022 1057.8 127.763 1058.09 127.392C1058.95 126.312 1058.71 124.765 1058.03 123.794C1057.35 122.837 1056.31 122.118 1055.15 121.822C1053.48 121.394 1050.75 121.227 1048.36 121.412C1048.15 121.429 1047.92 121.439 1047.68 121.449C1046.47 121.502 1044.96 121.569 1043.47 122.466C1042.23 123.209 1041.22 124.757 1041.68 126.275C1042.09 127.593 1043.37 128.435 1045.48 128.778C1044.13 129.272 1043.09 130.116 1042.51 131.187C1042.21 131.753 1042.08 132.301 1042.15 132.812C1042.25 133.578 1042.75 134.266 1043.68 134.917C1043.96 135.112 1044.32 135.295 1044.72 135.463C1043.27 135.968 1042.57 137.075 1042.51 138.049C1042.46 138.994 1042.85 140.052 1043.5 140.682C1044.04 141.22 1044.88 141.775 1046.04 142.376C1047.47 143.116 1049.44 143.46 1050.49 143.598C1050.9 143.652 1051.39 143.704 1051.92 143.704ZM1052.8 135.772C1052.57 135.772 1052.36 135.922 1052.28 136.147C1052.2 136.395 1052.3 136.665 1052.53 136.794C1052.7 136.889 1052.88 136.983 1053.06 137.081C1053.74 137.446 1054.52 137.858 1054.88 138.397C1055.37 139.137 1055.52 139.996 1055.29 140.697C1055.05 141.418 1054.37 142.045 1053.46 142.374C1052.54 142.71 1051.41 142.615 1050.64 142.513C1049.85 142.409 1047.87 142.092 1046.54 141.403C1045.5 140.861 1044.73 140.354 1044.26 139.9C1043.84 139.483 1043.57 138.748 1043.6 138.11C1043.64 137.422 1044.27 136.614 1045.59 136.358C1046.43 136.195 1047.31 136.324 1048.52 136.502C1048.69 136.526 1048.86 136.552 1049.04 136.578C1049.51 136.651 1049.94 136.705 1050.3 136.74C1050.6 136.768 1050.87 136.55 1050.9 136.252C1050.93 135.953 1050.72 135.685 1050.42 135.652C1049.94 135.6 1049.51 135.54 1049.11 135.482C1047.38 135.205 1045.26 134.679 1044.31 134.017C1043.64 133.553 1043.29 133.115 1043.24 132.673C1043.2 132.391 1043.28 132.065 1043.48 131.704C1044.15 130.462 1045.48 129.906 1046.21 129.686C1047.37 129.337 1050.62 129.044 1051.93 129.019C1052.23 129.013 1052.47 128.769 1052.47 128.47C1052.47 128.171 1052.23 127.928 1051.93 127.926L1051.26 127.921C1049.72 127.909 1047.14 127.89 1046.04 127.752C1044.14 127.513 1043.03 126.909 1042.73 125.953C1042.44 124.983 1043.18 123.916 1044.03 123.403C1045.29 122.65 1046.58 122.592 1047.73 122.542C1047.98 122.53 1048.22 122.52 1048.45 122.503C1050.69 122.332 1053.34 122.486 1054.88 122.882C1055.79 123.114 1056.61 123.676 1057.13 124.423C1057.57 125.046 1057.75 126.06 1057.24 126.713C1056.83 127.23 1056.1 127.439 1055.26 127.641C1055 127.703 1054.82 127.941 1054.84 128.205C1054.85 128.47 1055.06 128.685 1055.32 128.716C1056.32 128.834 1057.55 129.805 1058.06 130.882C1058.52 131.87 1058.44 133.101 1057.84 134.018C1056.79 135.641 1054.51 135.98 1052.87 135.776C1052.85 135.773 1052.82 135.772 1052.8 135.772Z" fill="black"/>
<path d="M899.574 48.4029L900.814 70.205C890.925 73.7423 879.857 78.8955 874.963 88.189C871.542 94.685 871.025 102.276 870.789 109.615C870.342 123.522 874.072 181.162 876.482 216.314C877.539 231.719 890.791 243.406 906.208 242.528L996.616 237.388C1012.03 236.512 1023.88 223.398 1023.18 207.973C1021.59 172.773 1018.76 115.083 1016.74 101.316C1015.67 94.0522 1014.3 86.5679 1010.16 80.5011C1004.25 71.8235 992.669 67.9564 982.443 65.5634L981.203 43.7612" fill="white"/>
<path d="M904.574 243.128C905.128 243.128 905.682 243.113 906.24 243.08L996.649 237.94C1004.25 237.507 1011.25 234.158 1016.35 228.506C1021.45 222.855 1024.08 215.554 1023.73 207.947C1022.2 174.061 1019.33 115.137 1017.29 101.235C1016.22 93.9701 1014.83 86.3596 1010.62 80.1896C1004.53 71.244 992.712 67.4271 982.973 65.1205L981.756 43.7307C981.738 43.4253 981.473 43.1869 981.172 43.2101C980.867 43.2268 980.634 43.4884 980.652 43.7938L981.891 65.596C981.906 65.8408 982.079 66.047 982.318 66.1024C991.936 68.3536 1003.74 72.0597 1009.71 80.812C1013.78 86.7874 1015.15 94.2575 1016.19 101.395C1018.23 115.249 1021.1 174.131 1022.63 207.996C1022.96 215.311 1020.44 222.331 1015.53 227.764C1010.62 233.197 1003.9 236.418 996.587 236.834L906.178 241.975C898.867 242.39 891.819 239.952 886.329 235.11C880.838 230.268 877.538 223.578 877.036 216.274C874.717 182.453 870.893 123.625 871.344 109.631C871.576 102.42 872.085 94.8438 875.455 88.4445C880.391 79.0724 891.701 74.0519 901.002 70.7247C901.233 70.6422 901.382 70.418 901.368 70.1719L900.128 48.3697C900.112 48.0643 899.846 47.8272 899.545 47.8491C899.239 47.8659 899.006 48.1274 899.024 48.4328L900.24 69.8214C890.826 73.2169 879.521 78.3495 874.476 87.9278C870.997 94.5346 870.475 102.253 870.238 109.593C869.785 123.635 873.611 182.506 875.932 216.348C876.453 223.944 879.885 230.902 885.595 235.937C890.888 240.609 897.573 243.128 904.574 243.128Z" fill="black"/>
<path d="M900.326 61.6035L899.576 48.4029L981.203 43.7612L981.955 56.9619C975.189 58.1577 905.97 61.4231 900.326 61.6035Z" fill="black"/>
<path d="M886.953 227.423C890.541 230.804 898.212 235.615 910.7 234.733C914.866 234.439 968.027 231.465 975.875 231.027C986.903 230.411 1000.6 230.316 1008.13 228.442C1013.05 227.217 1019.98 222.34 1023.05 212.205C1021.64 225.73 1010.6 236.594 996.615 237.389L906.207 242.529C890.79 243.406 877.538 231.719 876.481 216.315C876.231 212.677 875.968 208.797 875.696 204.75C877.674 210.55 881.61 222.384 886.953 227.423Z" fill="black"/>
<path d="M891.291 56.7291L990.377 51.0953C992.623 50.9677 994.341 49.0425 994.213 46.7965L991.856 5.33764C991.729 3.09157 989.803 1.37256 987.557 1.50143L888.471 7.13527C886.225 7.26284 884.508 9.18804 884.635 11.4341L886.992 52.8929C887.12 55.139 889.045 56.8567 891.291 56.7291Z" fill="#000427"/>
<path d="M911.614 37.268L914.917 32.0029L915.73 31.6974C915.611 31.9651 915.467 32.2061 915.3 32.4203C915.143 32.6225 914.932 32.7828 914.668 32.9012C914.404 33.0195 914.052 33.0925 913.612 33.1199C912.913 33.1636 912.26 33.0403 911.654 32.7501C911.058 32.4478 910.567 32.0145 910.181 31.4502C909.794 30.8859 909.578 30.226 909.531 29.4708C909.483 28.7042 909.631 27.9933 909.974 27.3381C910.317 26.6716 910.804 26.1319 911.435 25.719C912.065 25.3061 912.781 25.0747 913.581 25.0246C914.393 24.9739 915.132 25.1144 915.797 25.4463C916.475 25.7774 917.018 26.2413 917.429 26.8381C917.851 27.4341 918.086 28.1154 918.134 28.882C918.2 29.9304 917.9 31.0129 917.234 32.1296L914.235 37.1042L911.614 37.268ZM913.976 31.3318C914.37 31.3071 914.714 31.1951 915.007 30.9957C915.3 30.7963 915.521 30.5335 915.671 30.2073C915.831 29.8691 915.898 29.5027 915.874 29.1082C915.848 28.6911 915.734 28.3304 915.534 28.026C915.346 27.7209 915.093 27.4877 914.778 27.3264C914.461 27.1538 914.106 27.0798 913.711 27.1045C913.317 27.1291 912.968 27.2471 912.664 27.4585C912.371 27.6579 912.144 27.9211 911.983 28.248C911.834 28.5742 911.772 28.9458 911.798 29.3629C911.824 29.7688 911.931 30.1242 912.12 30.4293C912.32 30.7336 912.583 30.9661 912.91 31.1268C913.237 31.2874 913.592 31.3557 913.976 31.3318ZM920.777 36.6952L924.294 25.8827L926.56 25.7411L923.161 36.5461L920.777 36.6952ZM918.519 26.9058L918.394 24.9105L926.476 24.4052L926.56 25.7411L925.739 26.4544L918.519 26.9058ZM927.97 36.2455L932.012 24.0592L933.889 23.9418L939.401 35.5309L936.949 35.6842L932.653 26.158L933.498 26.1052L930.371 36.0954L927.97 36.2455ZM930.368 33.8718L930.248 31.9442L936.639 31.5446L936.76 33.4723L930.368 33.8718ZM943.957 35.4159C943.134 35.4673 942.376 35.3733 941.682 35.1337C940.987 34.8829 940.398 34.501 939.913 33.9881L941.341 32.3881C941.587 32.7122 941.925 32.9626 942.355 33.1395C942.796 33.3156 943.27 33.3878 943.778 33.3561C944.24 33.3272 944.635 33.2176 944.962 33.0274C945.301 32.8365 945.557 32.5828 945.73 32.2665C945.913 31.9382 945.991 31.5654 945.965 31.1484C945.938 30.7087 945.813 30.3431 945.591 30.0514C945.38 29.759 945.107 29.5441 944.77 29.4067C944.433 29.2693 944.062 29.2133 943.656 29.2387C943.228 29.2655 942.842 29.3462 942.5 29.4807C942.168 29.6033 941.852 29.7929 941.551 30.0493L941.595 28.5867C941.795 28.3478 942.009 28.1534 942.238 28.0033C942.465 27.8419 942.724 27.7183 943.012 27.6323C943.312 27.5344 943.664 27.4727 944.07 27.4474C944.938 27.3931 945.671 27.5284 946.269 27.8532C946.877 28.166 947.351 28.6116 947.693 29.19C948.034 29.7572 948.227 30.3959 948.271 31.1061C948.32 31.8839 948.172 32.5891 947.826 33.2218C947.481 33.8545 946.976 34.3671 946.31 34.7595C945.655 35.14 944.87 35.3588 943.957 35.4159ZM941.551 30.0493L940.384 29.0358L940.583 23.5234L942.663 23.3934L942.402 28.9946L941.551 30.0493ZM941.063 25.4965L940.583 23.5234L947.11 23.1154L947.234 25.1107L941.063 25.4965ZM951.974 34.7449L951.857 32.868L954.951 32.6746C955.504 32.64 955.921 32.4442 956.205 32.087C956.499 31.729 956.632 31.319 956.603 30.8568C956.583 30.5412 956.498 30.2579 956.346 30.0071C956.195 29.7563 955.979 29.5661 955.699 29.4364C955.43 29.2948 955.11 29.2357 954.738 29.2589L951.643 29.4523L951.527 27.5923L954.368 27.4147C954.841 27.3852 955.211 27.2432 955.478 26.9888C955.757 26.7338 955.881 26.3695 955.852 25.8961C955.821 25.4113 955.652 25.0598 955.344 24.8414C955.048 24.6222 954.663 24.5275 954.189 24.5571L951.348 24.7347L951.231 22.8577L954.342 22.6632C955.131 22.6139 955.8 22.7192 956.348 22.9792C956.907 23.2272 957.336 23.5795 957.636 24.036C957.936 24.4813 958.103 24.9801 958.137 25.5325C958.18 26.2089 958.008 26.8081 957.622 27.3302C957.246 27.8403 956.671 28.2383 955.897 28.5244L955.952 27.774C956.847 27.9671 957.549 28.3363 958.058 28.8816C958.578 29.4149 958.863 30.0818 958.913 30.8821C958.953 31.5134 958.831 32.0982 958.548 32.6365C958.275 33.1628 957.85 33.6024 957.272 33.9554C956.705 34.2964 955.999 34.4934 955.153 34.5462L951.974 34.7449ZM950.283 34.8506L949.54 22.9635L951.823 22.8207L952.566 34.7079L950.283 34.8506ZM961.762 34.1331L965.279 23.3206L967.545 23.179L964.146 33.984L961.762 34.1331ZM959.504 24.3437L959.379 22.3484L967.462 21.8431L967.545 23.179L966.724 23.8923L959.504 24.3437Z" fill="white"/>
<path d="M891.054 57.283C891.143 57.283 891.233 57.2804 891.322 57.2753L990.408 51.6414C992.952 51.4958 994.904 49.309 994.76 46.7653L992.403 5.30648C992.333 4.07456 991.787 2.94315 990.865 2.12101C989.944 1.29887 988.762 0.882645 987.527 0.954808L888.441 6.58865C885.897 6.73298 883.945 8.92107 884.089 11.4648L886.446 52.9236C886.517 54.1568 887.062 55.2882 887.983 56.1091C888.838 56.8719 889.919 57.283 891.054 57.283ZM987.793 2.04112C988.661 2.04112 989.485 2.35553 990.137 2.9367C990.841 3.56426 991.257 4.42764 991.31 5.36834L993.667 46.8271C993.778 48.7691 992.287 50.4391 990.345 50.55L891.259 56.1838C890.317 56.2379 889.412 55.9209 888.71 55.2934C888.006 54.6658 887.59 53.8024 887.536 52.8617L885.179 11.4029C885.068 9.461 886.559 7.79093 888.501 7.68011L987.587 2.04627C987.657 2.0424 987.725 2.04112 987.793 2.04112Z" fill="black"/>
<path d="M896.644 219.063L1003.46 212.99C1007.4 212.765 1010.41 209.393 1010.18 205.455L1004.11 98.6375C1003.89 94.7008 1000.51 91.6905 996.576 91.9135L889.759 97.9868C885.822 98.211 882.812 101.585 883.035 105.521L889.108 212.339C889.332 216.277 892.706 219.287 896.644 219.063Z" fill="#97A5B7"/>
<path d="M896.233 219.663C896.38 219.663 896.528 219.659 896.676 219.65L1003.49 213.577C1005.55 213.459 1007.45 212.547 1008.82 211.006C1010.2 209.466 1010.89 207.483 1010.77 205.422L1004.7 98.6047C1004.45 94.3509 1000.8 91.0933 996.543 91.3278L889.725 97.4011C887.665 97.5184 885.772 98.4307 884.398 99.9719C883.023 101.512 882.331 103.495 882.448 105.557L888.522 212.374C888.755 216.479 892.171 219.663 896.233 219.663ZM996.986 92.4902C1000.43 92.4902 1003.33 95.1898 1003.52 98.6717L1009.6 205.489C1009.7 207.237 1009.11 208.918 1007.94 210.224C1006.78 211.529 1005.18 212.304 1003.43 212.403L896.61 218.476C892.996 218.685 889.902 215.913 889.695 212.306L883.622 105.488C883.523 103.741 884.109 102.059 885.276 100.753C886.44 99.4475 888.045 98.673 889.792 98.5738L996.61 92.5005C996.735 92.4927 996.861 92.4902 996.986 92.4902Z" fill="black"/>
<path d="M947.705 159.813C947.858 159.813 948.007 159.755 948.12 159.642L955.534 152.244C955.763 152.014 955.765 151.642 955.535 151.412C955.306 151.183 954.933 151.182 954.704 151.411L947.626 158.474L938.059 152.321C937.786 152.146 937.422 152.224 937.247 152.497C937.072 152.771 937.15 153.134 937.424 153.309L947.388 159.719C947.485 159.782 947.596 159.813 947.705 159.813Z" fill="black"/>
<path d="M969.805 146.649C969.964 149.425 972.341 151.548 975.117 151.39C977.893 151.233 980.015 148.854 979.858 146.079C979.7 143.303 977.322 141.181 974.546 141.338C971.771 141.495 969.648 143.873 969.805 146.649Z" fill="#FF5233"/>
<path d="M966.072 138.624C965.93 136.141 964.601 134.976 963.047 135.065C961.492 135.152 960.303 136.46 960.444 138.944C960.584 141.427 961.915 142.592 963.469 142.503C965.023 142.415 966.213 141.107 966.072 138.624Z" fill="black"/>
<path d="M924.876 143.671C924.919 143.671 924.963 143.666 925.007 143.657L937.511 140.831C937.715 140.785 937.879 140.635 937.942 140.437C938.005 140.239 937.96 140.022 937.821 139.866L929.022 129.997C928.805 129.754 928.434 129.734 928.192 129.949C927.95 130.165 927.928 130.537 928.144 130.779L936.279 139.904L924.749 142.51C924.432 142.581 924.233 142.897 924.306 143.213C924.365 143.486 924.607 143.671 924.876 143.671Z" fill="black"/>
<path d="M937.381 140.845C937.638 140.845 937.872 140.676 937.946 140.419C938.034 140.107 937.854 139.781 937.542 139.692L923.17 135.577C922.857 135.487 922.532 135.669 922.443 135.981C922.353 136.293 922.535 136.619 922.847 136.707L937.218 140.822C937.273 140.837 937.327 140.845 937.381 140.845Z" fill="black"/>
<path d="M912.497 150.01C912.281 147.238 914.353 144.815 917.125 144.599C919.897 144.382 922.32 146.454 922.537 149.226C922.753 151.998 920.681 154.421 917.909 154.638C915.137 154.854 912.714 152.783 912.497 150.01Z" fill="#FF5233"/>
<path d="M1000.48 187.975C1000.52 187.975 1000.56 187.974 1000.61 187.971C1001.81 187.903 1002.74 186.869 1002.67 185.663L1001.71 168.857C1001.64 167.651 1000.61 166.731 999.403 166.798C998.196 166.866 997.274 167.9 997.343 169.106L998.298 185.912C998.365 187.076 999.33 187.975 1000.48 187.975Z" fill="#C4D1E1"/>
<path d="M1001.9 199.392C1001.94 199.392 1001.98 199.391 1002.02 199.388C1003.23 199.32 1004.15 198.286 1004.08 197.08L1003.87 193.261C1003.8 192.055 1002.76 191.133 1001.56 191.2C1000.35 191.269 999.43 192.302 999.499 193.508L999.717 197.328C999.781 198.493 1000.75 199.392 1001.9 199.392Z" fill="#C4D1E1"/>
<path d="M141.413 270.586C141.404 270.586 141.395 270.586 141.386 270.586C141.085 270.571 140.851 270.315 140.867 270.013C140.877 269.803 141.9 248.969 142.558 240.703C142.582 240.401 142.844 240.177 143.147 240.2C143.448 240.225 143.672 240.488 143.649 240.789C142.993 249.039 141.971 269.857 141.961 270.065C141.944 270.359 141.702 270.586 141.413 270.586Z" fill="black"/>
<path d="M145.274 268.603C147.206 268.917 149.264 269.286 150.5 270.979C151.12 271.827 151.301 272.947 150.832 273.886C150.104 275.343 148.414 275.445 146.947 275.391C144.724 275.31 142.669 275.186 140.526 274.59C139.212 274.224 138.48 273.4 138.514 270.324C138.527 269.217 139.443 268.332 140.55 268.351C142.157 268.381 144.329 268.448 145.274 268.603Z" fill="#FF5233"/>
<path d="M147.464 275.946C147.283 275.946 147.104 275.942 146.926 275.936C144.743 275.856 142.6 275.734 140.379 275.115C138.586 274.616 137.933 273.316 137.967 270.318C137.974 269.637 138.249 268.999 138.738 268.525C139.229 268.048 139.88 267.791 140.561 267.805C142.214 267.836 144.39 267.905 145.363 268.062C147.227 268.365 149.545 268.743 150.942 270.655C151.716 271.716 151.862 273.047 151.322 274.129C150.559 275.654 148.998 275.946 147.464 275.946ZM140.512 268.897C140.131 268.897 139.773 269.043 139.499 269.309C139.22 269.579 139.063 269.943 139.059 270.329C139.025 273.361 139.737 273.801 140.67 274.061C142.778 274.649 144.85 274.766 146.965 274.843C148.38 274.896 149.769 274.785 150.341 273.641C150.698 272.927 150.589 272.03 150.056 271.301C148.924 269.751 146.938 269.427 145.185 269.142C144.477 269.026 142.826 268.94 140.539 268.899C140.531 268.898 140.521 268.897 140.512 268.897Z" fill="black"/>
<path d="M68.7894 256.565C68.6348 256.565 68.4802 256.499 68.3719 256.371C68.176 256.141 68.2044 255.797 68.4351 255.601C74.2416 250.667 80.146 244.561 85.8572 238.657C87.0685 237.404 88.2759 236.156 89.4782 234.922C89.6896 234.706 90.0362 234.702 90.2514 234.913C90.4679 235.123 90.4718 235.47 90.2617 235.686C89.0607 236.918 87.8546 238.166 86.6433 239.417C80.9141 245.341 74.9903 251.466 69.1425 256.435C69.0407 256.522 68.9144 256.565 68.7894 256.565Z" fill="black"/>
<path d="M68.3217 251.168C67.216 249.554 66.006 247.849 63.9494 247.451C62.9185 247.251 61.8283 247.561 61.1776 248.386C60.1686 249.666 60.7961 251.239 61.4688 252.543C62.4881 254.52 63.4739 256.328 64.9262 258.014C65.8166 259.048 66.8733 259.36 69.6412 258.02C70.6373 257.538 71.0497 256.332 70.56 255.338C69.8487 253.896 68.8629 251.958 68.3217 251.168Z" fill="#FF5233"/>
<path d="M66.7224 259.461C65.828 259.461 65.1373 259.099 64.5098 258.371C63.0047 256.623 61.9815 254.735 60.9815 252.795C60.2045 251.287 59.5679 249.543 60.7483 248.049C61.497 247.1 62.7637 246.665 64.0536 246.915C66.3796 247.366 67.7069 249.304 68.7738 250.86C69.3305 251.672 70.3189 253.613 71.0508 255.097C71.3524 255.711 71.3962 256.405 71.1745 257.052C70.9529 257.698 70.4929 258.217 69.8795 258.514C68.5741 259.144 67.56 259.461 66.7224 259.461ZM63.3358 247.938C62.64 247.938 62.0047 248.22 61.6065 248.725C60.814 249.73 61.305 251.033 61.9545 252.292C62.9248 254.173 63.9132 255.998 65.3397 257.657C65.9724 258.391 66.6734 258.849 69.4027 257.528C69.7519 257.359 70.0135 257.064 70.1398 256.695C70.2673 256.325 70.2416 255.93 70.0702 255.579C69.0586 253.527 68.2777 252.07 67.8718 251.478C66.868 250.013 65.7314 248.353 63.8461 247.988C63.6735 247.955 63.5034 247.938 63.3358 247.938Z" fill="black"/>
<path d="M211.492 175.751C211.281 175.751 211.077 175.637 210.972 175.437C205.468 164.989 197.584 159.687 184.61 157.709C184.29 157.66 184.069 157.36 184.118 157.039C184.167 156.718 184.467 156.499 184.788 156.547C198.172 158.587 206.313 164.073 212.012 174.888C212.162 175.175 212.053 175.531 211.765 175.682C211.678 175.729 211.585 175.751 211.492 175.751Z" fill="black"/>
<path d="M216.307 177.121C216.152 179.832 213.829 181.907 211.117 181.752C208.406 181.597 206.332 179.274 206.486 176.563C206.641 173.85 208.964 171.777 211.675 171.931C214.388 172.085 216.461 174.408 216.307 177.121Z" fill="#FF5233"/>
<path d="M211.403 182.305C211.298 182.305 211.192 182.301 211.086 182.296C209.629 182.214 208.291 181.568 207.318 180.479C206.347 179.39 205.857 177.987 205.94 176.53C206.111 173.521 208.695 171.218 211.706 171.383C214.715 171.554 217.023 174.142 216.852 177.149C216.769 178.607 216.124 179.944 215.035 180.917C214.026 181.819 212.746 182.305 211.403 182.305ZM211.39 172.469C210.317 172.469 209.294 172.858 208.485 173.579C207.614 174.356 207.097 175.427 207.031 176.591C206.964 177.758 207.356 178.879 208.134 179.75C208.911 180.621 209.982 181.136 211.148 181.203C212.313 181.27 213.436 180.879 214.307 180.1C215.178 179.323 215.694 178.252 215.76 177.086C215.897 174.68 214.05 172.611 211.644 172.474C211.559 172.472 211.476 172.469 211.39 172.469Z" fill="black"/>
<path d="M29.4455 160.401C29.0512 160.401 28.6517 160.351 28.2484 160.242C27.2291 159.963 26.2574 159.309 25.3631 158.296C23.6106 156.314 22.6622 153.564 21.9109 151.143C20.1313 145.41 18.8144 139.425 17.9961 133.357C17.9561 133.058 18.1662 132.782 18.4651 132.742C18.7641 132.704 19.0399 132.913 19.0798 133.211C19.8904 139.219 21.1944 145.143 22.956 150.819C23.6737 153.132 24.5745 155.752 26.1827 157.572C26.9236 158.41 27.7381 158.968 28.5357 159.186C30.2663 159.658 32.2353 158.769 34.7314 156.387C36.9517 154.269 38.9967 151.859 40.8098 149.228C40.9812 148.979 41.3214 148.917 41.5701 149.087C41.8188 149.259 41.882 149.599 41.7106 149.848C39.8562 152.541 37.761 155.006 35.4865 157.177C33.9776 158.619 31.8037 160.401 29.4455 160.401Z" fill="black"/>
<path d="M22.0215 120.185C23.6026 116.257 22.3655 111.373 19.104 108.673C18.3244 108.028 17.2085 107.492 16.34 108.011C15.5539 108.48 15.4173 109.542 15.3645 110.456C15.2472 112.501 15.1312 114.546 15.014 116.591C14.7498 121.21 10.768 120.418 7.74486 122.718C6.07738 123.986 4.78747 126.58 4.47692 128.616C2.54399 141.305 9.50125 142.987 17.5319 141.808C20.3836 141.389 24.0575 140.198 25.1271 138.098C27.0871 134.252 26.3152 121.634 22.0215 120.185Z" fill="#FF5233"/>
<path d="M13.6634 142.664C10.286 142.664 7.80278 141.83 6.12757 140.146C3.81579 137.822 3.09931 134.023 3.93563 128.533C4.2449 126.506 5.53738 123.707 7.41233 122.282C8.49348 121.459 9.6919 121.008 10.7486 120.61C12.8168 119.832 14.3116 119.269 14.4662 116.559L14.8167 110.424C14.858 109.705 14.943 108.206 16.0577 107.541C16.9803 106.991 18.2483 107.256 19.4506 108.252C22.7753 111.005 24.0987 115.823 22.7108 119.892C23.7224 120.439 24.5742 121.546 25.2443 123.193C27.0251 127.562 27.2107 135.209 25.6115 138.345C24.4634 140.598 20.7238 141.891 17.6079 142.348C16.1788 142.558 14.8644 142.664 13.6634 142.664ZM17.1182 108.35C16.9391 108.35 16.769 108.39 16.6195 108.479C16.0783 108.803 15.9585 109.634 15.9095 110.486L15.559 116.621C15.3631 120.042 13.2137 120.851 11.1339 121.633C10.0978 122.024 9.02697 122.426 8.07468 123.151C6.44844 124.388 5.2861 126.931 5.01678 128.696C4.24747 133.749 4.88148 137.342 6.90203 139.374C8.91099 141.394 12.3632 142.013 17.4507 141.266C20.1658 140.866 23.6786 139.732 24.6386 137.848C26.1837 134.816 25.7198 127.253 24.2327 123.604C23.5845 122.014 22.7585 121.01 21.8449 120.702C21.7018 120.654 21.5859 120.548 21.5227 120.412C21.4596 120.275 21.4557 120.118 21.5124 119.979C22.993 116.301 21.8075 111.622 18.7535 109.093C18.2754 108.697 17.6517 108.35 17.1182 108.35Z" fill="black"/>
<path d="M19.9623 123.679C19.8167 123.679 19.6711 123.621 19.5629 123.506C19.3567 123.286 19.367 122.939 19.5886 122.733C20.4752 121.903 20.9881 121.05 21.5293 119.943C21.662 119.671 21.9893 119.559 22.2612 119.692C22.5331 119.825 22.6453 120.152 22.5125 120.424C21.9172 121.642 21.345 122.586 20.3373 123.531C20.2304 123.63 20.0964 123.679 19.9623 123.679Z" fill="black"/>
<path d="M13.1504 141.889C14.2548 141.317 15.0589 140.784 15.5627 140.29C16.0653 139.796 16.4326 138.916 16.3849 138.079C16.3308 137.119 15.4893 136.117 13.9584 135.822C12.6324 135.566 11.3258 135.946 9.08871 136.196C10.751 136.038 14.077 135.42 15.4481 134.467C16.0576 134.043 16.6568 133.48 16.7496 132.743C16.8063 132.295 16.6619 131.842 16.448 131.445C15.8282 130.297 14.6414 129.539 13.3914 129.163C12.1415 128.787 8.82712 128.498 7.52175 128.472C8.84903 128.458 12.1543 128.459 13.4713 128.294C14.9957 128.104 16.7818 127.583 17.2328 126.114C17.6065 124.897 16.7831 123.589 15.6929 122.934C14.0319 121.935 12.3064 122.055 11.0371 121.957C8.80006 121.785 6.07592 121.93 4.42777 122.351C3.40847 122.613 2.46778 123.247 1.86342 124.108C1.25905 124.97 1.12504 126.226 1.77837 127.052C2.31443 127.729 3.21775 127.97 4.05794 128.172C2.78736 128.321 1.43688 129.49 0.893084 130.649C0.349286 131.806 0.445932 133.241 1.1405 134.315C2.25902 136.043 4.59787 136.571 6.64162 136.318C5.79628 136.798 4.64555 137.285 4.10819 138.094C3.57084 138.903 3.326 139.947 3.63269 140.87C3.95485 141.838 4.83369 142.54 5.79242 142.888C6.74987 143.237 7.86452 143.189 8.87609 143.055C10.0925 142.894 11.8927 142.541 13.1504 141.889Z" fill="#FF5233"/>
<path d="M7.52703 143.704C6.90205 143.704 6.23068 143.631 5.6057 143.403C4.39053 142.961 3.45885 142.079 3.11479 141.044C2.77588 140.026 2.97691 138.811 3.65344 137.793C3.89956 137.423 4.23718 137.119 4.60959 136.856C3.0916 136.655 1.58004 135.999 0.683164 134.612C-0.110626 133.386 -0.222737 131.739 0.399666 130.417C0.7695 129.631 1.50917 128.772 2.4112 128.213C2.01818 128.022 1.64447 127.763 1.35196 127.392C0.496313 126.312 0.737286 124.765 1.41768 123.794C2.08905 122.837 3.13799 122.118 4.29517 121.822C5.96651 121.394 8.69452 121.227 11.0823 121.412C11.2975 121.429 11.5269 121.439 11.7666 121.449C12.9779 121.502 14.4869 121.569 15.9778 122.466C17.2162 123.209 18.2252 124.757 17.7587 126.275C17.3528 127.593 16.077 128.435 13.9624 128.778C15.309 129.272 16.3541 130.116 16.9314 131.187C17.2368 131.753 17.3592 132.301 17.2948 132.812C17.1981 133.578 16.6969 134.266 15.7626 134.917C15.4804 135.112 15.126 135.295 14.724 135.463C16.1711 135.968 16.8773 137.075 16.9327 138.049C16.9868 138.994 16.5899 140.052 15.9482 140.682C15.3992 141.22 14.5668 141.775 13.4044 142.376C11.9753 143.116 9.99989 143.46 8.95096 143.598C8.54504 143.652 8.05278 143.704 7.52703 143.704ZM6.64304 135.772C6.87628 135.772 7.08761 135.922 7.16235 136.147C7.24482 136.395 7.14044 136.665 6.91236 136.794C6.74484 136.889 6.56701 136.983 6.38273 137.081C5.69848 137.446 4.92144 137.858 4.56449 138.397C4.07352 139.137 3.91889 139.996 4.15213 140.697C4.39181 141.418 5.07478 142.045 5.97939 142.374C6.90591 142.71 8.03475 142.615 8.80405 142.513C9.59269 142.409 11.5694 142.092 12.8993 141.403C13.9482 140.861 14.7162 140.354 15.1789 139.9C15.6028 139.483 15.8747 138.748 15.8386 138.11C15.8 137.422 15.1711 136.614 13.8542 136.358C13.0088 136.195 12.1338 136.324 10.9225 136.502C10.7563 136.526 10.5823 136.552 10.4019 136.578C9.93417 136.651 9.50377 136.705 9.13909 136.74C8.84142 136.768 8.57468 136.55 8.54375 136.252C8.51283 135.953 8.72802 135.685 9.02698 135.652C9.49862 135.6 9.93288 135.54 10.3311 135.482C12.0681 135.205 14.1828 134.679 15.135 134.017C15.8 133.553 16.1518 133.115 16.2072 132.673C16.2433 132.391 16.1621 132.065 15.9662 131.704C15.2974 130.462 13.9663 129.906 13.233 129.686C12.0733 129.337 8.82725 129.044 7.51028 129.019C7.21132 129.013 6.97292 128.769 6.97421 128.47C6.9755 128.171 7.21647 127.928 7.51543 127.926L8.18809 127.921C9.72799 127.909 12.3039 127.89 13.4031 127.752C15.3039 127.513 16.4159 126.909 16.7097 125.953C17.0074 124.983 16.2626 123.916 15.4108 123.403C14.1583 122.65 12.8593 122.592 11.715 122.542C11.4625 122.53 11.2215 122.52 10.996 122.503C8.75251 122.332 6.10697 122.486 4.56449 122.882C3.65601 123.114 2.83516 123.676 2.31198 124.423C1.87514 125.046 1.69086 126.06 2.2076 126.713C2.61738 127.23 3.34546 127.439 4.18564 127.641C4.44336 127.703 4.6199 127.941 4.60444 128.205C4.58897 128.47 4.38537 128.685 4.12249 128.716C3.12123 128.834 1.89447 129.805 1.38804 130.882C0.922847 131.87 1.00661 133.101 1.59937 134.018C2.6496 135.641 4.93432 135.98 6.57345 135.776C6.59793 135.773 6.62113 135.772 6.64304 135.772Z" fill="black"/>
<path d="M159.869 48.4029L158.629 70.205C168.518 73.7423 179.586 78.8955 184.48 88.189C187.902 94.685 188.419 102.276 188.654 109.615C189.101 123.522 185.371 181.162 182.961 216.314C181.905 231.719 168.652 243.406 153.235 242.528L62.827 237.388C47.4099 236.512 35.5675 223.398 36.2646 207.973C37.8548 172.773 40.682 115.083 42.7026 101.316C43.7695 94.0522 45.1432 86.5679 49.2784 80.5011C55.1945 71.8235 66.774 67.9564 77.0005 65.5634L78.2401 43.7612" fill="white"/>
<path d="M154.869 243.128C154.315 243.128 153.761 243.113 153.203 243.08L62.7947 237.94C55.1919 237.507 48.1946 234.158 43.0917 228.506C37.9888 222.855 35.3677 215.554 35.7105 207.947C37.2414 174.061 40.1124 115.137 42.1536 101.235C43.2206 93.9701 44.6136 86.3596 48.8196 80.1896C54.9174 71.244 66.7315 67.4271 76.4708 65.1205L77.6873 43.7307C77.7053 43.4253 77.9708 43.1869 78.2711 43.2101C78.5765 43.2268 78.8097 43.4884 78.7917 43.7938L77.552 65.596C77.5378 65.8408 77.3639 66.047 77.1255 66.1024C67.5072 68.3536 55.7009 72.0597 49.7345 80.812C45.6612 86.7874 44.2966 94.2575 43.2489 101.395C41.2155 115.249 38.3457 174.131 36.8161 207.996C36.4862 215.311 39.0068 222.331 43.9126 227.764C48.8196 233.197 55.5475 236.418 62.8566 236.834L153.265 241.975C160.577 242.39 167.624 239.952 173.115 235.11C178.606 230.268 181.906 223.578 182.407 216.274C184.727 182.453 188.55 123.625 188.099 109.631C187.867 102.42 187.358 94.8438 183.988 88.4445C179.053 79.0724 167.743 74.0519 158.441 70.7247C158.211 70.6422 158.061 70.418 158.075 70.1719L159.315 48.3697C159.332 48.0643 159.597 47.8272 159.899 47.8491C160.204 47.8659 160.437 48.1274 160.419 48.4328L159.203 69.8214C168.618 73.2169 179.923 78.3495 184.968 87.9278C188.447 94.5346 188.969 102.253 189.206 109.593C189.658 123.635 185.832 182.506 183.511 216.348C182.991 223.944 179.558 230.902 173.848 235.937C168.556 240.609 161.87 243.128 154.869 243.128Z" fill="black"/>
<path d="M159.118 61.6035L159.868 48.4029L78.24 43.7612L77.4888 56.9619C84.254 58.1577 153.474 61.4231 159.118 61.6035Z" fill="black"/>
<path d="M172.49 227.423C168.902 230.804 161.231 235.615 148.743 234.733C144.577 234.439 91.4163 231.465 83.5686 231.027C72.5406 230.411 58.8387 230.316 51.317 228.442C46.3958 227.217 39.4591 222.34 36.3896 212.205C37.8007 225.73 48.8442 236.594 62.8283 237.389L153.237 242.529C168.654 243.406 181.906 231.719 182.962 216.315C183.212 212.677 183.475 208.797 183.747 204.75C181.769 210.55 177.834 222.384 172.49 227.423Z" fill="black"/>
<path d="M168.156 56.7291L69.0704 51.0953C66.8244 50.9677 65.1066 49.0425 65.2342 46.7965L67.5911 5.33764C67.7187 3.09157 69.6439 1.37256 71.8899 1.50143L170.976 7.13527C173.222 7.26284 174.94 9.18804 174.812 11.4341L172.455 52.8929C172.328 55.139 170.402 56.8567 168.156 56.7291Z" fill="#000427"/>
<path d="M168.389 57.283C168.3 57.283 168.21 57.2804 168.121 57.2753L69.0355 51.6414C66.4917 51.4958 64.5395 49.309 64.6838 46.7653L67.0407 5.30648C67.1102 4.07456 67.6566 2.94315 68.578 2.12101C69.4994 1.29887 70.681 0.882645 71.9168 0.954808L171.003 6.58865C173.546 6.73298 175.499 8.92107 175.354 11.4648L172.997 52.9236C172.927 54.1568 172.382 55.2882 171.46 56.1091C170.606 56.8719 169.525 57.283 168.389 57.283ZM71.6501 2.04112C70.7828 2.04112 69.9581 2.35553 69.3061 2.9367C68.6025 3.56426 68.1862 4.42764 68.1334 5.36834L65.7765 46.8271C65.6657 48.7691 67.1566 50.4391 69.0986 50.55L168.185 56.1838C169.126 56.2379 170.031 55.9209 170.733 55.2934C171.437 54.6658 171.853 53.8024 171.907 52.8617L174.264 11.4029C174.375 9.461 172.884 7.79093 170.942 7.68011L71.8562 2.04627C71.7867 2.0424 71.7184 2.04112 71.6501 2.04112Z" fill="black"/>
<path d="M162.8 219.063L55.9832 212.99C52.0465 212.765 49.0363 209.393 49.2592 205.455L55.3324 98.6375C55.5567 94.7008 58.9303 91.6905 62.867 91.9135L169.685 97.9868C173.621 98.211 176.632 101.585 176.409 105.521L170.335 212.339C170.111 216.277 166.738 219.287 162.8 219.063Z" fill="#7F63A8"/>
<path d="M163.211 219.663C163.064 219.663 162.916 219.659 162.767 219.65L55.9498 213.577C53.8893 213.459 51.9963 212.547 50.6226 211.006C49.2477 209.466 48.5557 207.483 48.6729 205.422L54.7462 98.6047C54.9885 94.3509 58.6417 91.0933 62.9006 91.3278L169.718 97.4011C171.779 97.5184 173.672 98.4307 175.045 99.9719C176.42 101.512 177.112 103.495 176.995 105.557L170.922 212.374C170.689 216.479 167.272 219.663 163.211 219.663ZM62.4573 92.4902C59.0128 92.4902 56.1173 95.1898 55.9189 98.6717L49.8456 205.489C49.7464 207.237 50.334 208.918 51.4989 210.224C52.6638 211.529 54.2681 212.304 56.0155 212.403L162.833 218.476C166.448 218.685 169.542 215.913 169.748 212.306L175.821 105.488C175.92 103.741 175.334 102.059 174.168 100.753C173.003 99.4475 171.399 98.673 169.651 98.5738L62.8336 92.5005C62.7086 92.4927 62.5823 92.4902 62.4573 92.4902Z" fill="black"/>
<path d="M111.738 159.813C111.586 159.813 111.436 159.755 111.323 159.642L103.909 152.244C103.68 152.014 103.679 151.642 103.908 151.412C104.138 151.183 104.51 151.182 104.739 151.411L111.818 158.474L121.384 152.321C121.658 152.146 122.021 152.224 122.196 152.497C122.372 152.771 122.293 153.134 122.02 153.309L112.055 159.719C111.958 159.782 111.847 159.813 111.738 159.813Z" fill="white"/>
<path d="M89.6379 146.649C89.4794 149.425 87.1019 151.548 84.3262 151.39C81.5505 151.233 79.4281 148.854 79.5853 146.079C79.7438 143.303 82.1214 141.181 84.897 141.338C87.6727 141.495 89.7951 143.873 89.6379 146.649Z" fill="#FF3336"/>
<path d="M93.3711 138.624C93.5129 136.141 94.8427 134.976 96.3968 135.065C97.9509 135.152 99.1403 136.46 98.9998 138.944C98.8594 141.427 97.5282 142.592 95.9741 142.503C94.4201 142.415 93.2307 141.107 93.3711 138.624Z" fill="white"/>
<path d="M134.567 143.671C134.524 143.671 134.481 143.666 134.437 143.657L121.932 140.831C121.728 140.785 121.565 140.635 121.502 140.437C121.438 140.239 121.484 140.022 121.623 139.866L130.421 129.997C130.638 129.754 131.009 129.734 131.251 129.949C131.494 130.165 131.515 130.537 131.299 130.779L123.164 139.904L134.695 142.51C135.012 142.581 135.21 142.897 135.138 143.213C135.079 143.486 134.836 143.671 134.567 143.671Z" fill="white"/>
<path d="M122.062 140.845C121.806 140.845 121.571 140.676 121.498 140.419C121.409 140.107 121.589 139.781 121.901 139.692L136.273 135.577C136.586 135.487 136.911 135.669 137 135.981C137.09 136.293 136.908 136.619 136.597 136.707L122.226 140.822C122.17 140.837 122.116 140.845 122.062 140.845Z" fill="white"/>
<path d="M146.946 150.01C147.163 147.238 145.091 144.815 142.319 144.599C139.546 144.382 137.123 146.454 136.907 149.226C136.69 151.998 138.762 154.421 141.534 154.638C144.306 154.854 146.729 152.783 146.946 150.01Z" fill="#FF3336"/>
<path d="M58.9621 187.975C58.9196 187.975 58.8784 187.974 58.8359 187.971C57.6297 187.903 56.7071 186.869 56.7766 185.663L57.7328 168.857C57.8011 167.651 58.8359 166.731 60.0407 166.798C61.2469 166.866 62.1695 167.9 62.0999 169.106L61.1451 185.912C61.0781 187.076 60.1129 187.975 58.9621 187.975Z" fill="#B394E0"/>
<path d="M57.5461 199.392C57.5036 199.392 57.4624 199.391 57.4198 199.388C56.2137 199.32 55.291 198.286 55.3606 197.08L55.5771 193.261C55.6454 192.055 56.6789 191.133 57.885 191.2C59.0912 191.269 60.0138 192.302 59.9443 193.508L59.7265 197.328C59.662 198.493 58.6982 199.392 57.5461 199.392Z" fill="#B394E0"/>
<path d="M92.8045 33.2653L97.4302 22.8787L99.6984 22.9742L95.1912 33.3658L92.8045 33.2653ZM91.5794 23.2937L91.6635 21.2963L99.7547 21.637L99.6984 22.9742L98.8074 23.598L91.5794 23.2937ZM100.885 33.6055L101.386 21.7057L103.688 21.8026L103.187 33.7024L100.885 33.6055ZM102.783 28.8017L102.87 26.7535L108.862 27.0058L108.776 29.054L102.783 28.8017ZM102.994 23.8082L103.079 21.7769L109.359 22.0413L109.274 24.0726L102.994 23.8082ZM114.253 34.3379C113.44 34.3037 112.714 34.0922 112.075 33.7036C111.448 33.3041 110.955 32.7859 110.597 32.1491C110.252 31.5015 110.095 30.794 110.127 30.0266C110.171 28.9771 110.577 27.9372 111.344 26.9068L114.846 22.2723L117.486 22.3835L113.668 27.276L112.812 27.4774C112.947 27.223 113.103 27.0035 113.281 26.8188C113.469 26.6345 113.707 26.4976 113.993 26.4079C114.28 26.3182 114.637 26.2824 115.066 26.3005C115.777 26.3304 116.413 26.5267 116.974 26.8895C117.536 27.241 117.98 27.7175 118.305 28.3191C118.63 28.9093 118.777 29.5825 118.745 30.3386C118.713 31.1172 118.491 31.8144 118.081 32.4302C117.67 33.046 117.13 33.5264 116.46 33.8712C115.79 34.216 115.054 34.3716 114.253 34.3379ZM114.34 32.2727C114.735 32.2894 115.088 32.2138 115.401 32.0461C115.714 31.8671 115.967 31.6234 116.161 31.315C116.355 30.9954 116.461 30.6324 116.478 30.2261C116.495 29.8199 116.42 29.455 116.253 29.1314C116.086 28.7965 115.854 28.5324 115.557 28.339C115.26 28.1456 114.914 28.0406 114.519 28.024C114.124 28.0074 113.764 28.0883 113.44 28.2669C113.128 28.4346 112.875 28.6727 112.681 28.981C112.498 29.2899 112.399 29.6474 112.381 30.0537C112.364 30.4599 112.434 30.8303 112.589 31.1646C112.756 31.4882 112.988 31.7523 113.285 31.957C113.593 32.1509 113.945 32.2561 114.34 32.2727ZM123.099 34.7103C122.298 34.6766 121.571 34.5046 120.917 34.1945C120.263 33.8731 119.722 33.432 119.294 32.8713L120.88 31.4289C121.092 31.777 121.402 32.0614 121.811 32.2821C122.22 32.5028 122.667 32.6233 123.152 32.6438C123.604 32.6628 123.997 32.6002 124.33 32.456C124.665 32.3005 124.928 32.0798 125.121 31.794C125.326 31.4974 125.437 31.1516 125.453 30.7566C125.471 30.3391 125.39 29.9796 125.21 29.6781C125.042 29.3771 124.787 29.1402 124.443 28.9675C124.1 28.7948 123.686 28.6982 123.201 28.6778C122.986 28.6688 122.766 28.6764 122.538 28.7008C122.312 28.7139 122.118 28.7453 121.958 28.795L123.028 27.5513C123.314 27.4729 123.593 27.4112 123.866 27.3662C124.151 27.3104 124.412 27.2874 124.649 27.2974C125.259 27.3231 125.8 27.4928 126.273 27.8067C126.757 28.1097 127.13 28.5323 127.389 29.0746C127.661 29.606 127.782 30.2272 127.752 30.9382C127.719 31.7281 127.503 32.4143 127.106 32.9967C126.709 33.5679 126.164 34.0084 125.473 34.3185C124.793 34.6177 124.002 34.7483 123.099 34.7103ZM121.958 28.795L122.014 27.4747L125.209 24.0652L127.851 24.1425L124.551 27.6155L121.958 28.795ZM120.307 24.5032L120.391 22.5058L127.907 22.8222L127.851 24.1425L125.944 24.7405L120.307 24.5032ZM128.537 34.7697L133.828 23.0715L135.707 23.1506L139.98 35.2514L137.525 35.1481L134.246 25.2257L135.093 25.2613L130.941 34.8709L128.537 34.7697ZM131.169 32.6591L131.251 30.7294L137.649 30.9988L137.568 32.9285L131.169 32.6591ZM144.997 35.6322C144.151 35.5966 143.424 35.419 142.815 35.0995C142.218 34.7804 141.756 34.3483 141.428 33.8032C141.112 33.2586 140.968 32.6534 140.996 31.9876C141.019 31.4346 141.148 30.9369 141.381 30.4946C141.615 30.0522 141.935 29.687 142.343 29.3989C142.763 29.1001 143.246 28.9 143.793 28.7986L143.718 29.3551C143.272 29.2232 142.896 29.0096 142.592 28.7142C142.288 28.4187 142.065 28.0759 141.923 27.6855C141.782 27.2839 141.72 26.8743 141.738 26.4568C141.765 25.8136 141.941 25.2557 142.266 24.7833C142.602 24.3114 143.047 23.9514 143.6 23.7033C144.165 23.4558 144.802 23.347 145.513 23.3769C146.224 23.4068 146.845 23.5686 147.375 23.8623C147.905 24.1559 148.313 24.5518 148.597 25.0498C148.892 25.5484 149.027 26.1193 149 26.7625C148.982 27.1801 148.886 27.583 148.711 27.9713C148.537 28.3483 148.286 28.6713 147.958 28.9401C147.642 29.2094 147.25 29.3907 146.782 29.4841L146.755 28.9233C147.303 29.0708 147.767 29.3108 148.149 29.6434C148.531 29.9647 148.82 30.3556 149.015 30.816C149.211 31.2764 149.297 31.7831 149.274 32.336C149.246 33.0018 149.051 33.5928 148.69 34.109C148.329 34.6251 147.832 35.0168 147.199 35.2841C146.566 35.5513 145.832 35.6674 144.997 35.6322ZM145.082 33.6179C145.455 33.6336 145.79 33.5742 146.09 33.4399C146.39 33.2943 146.625 33.0893 146.794 32.8252C146.975 32.5615 147.072 32.2603 147.087 31.9218C147.101 31.572 147.03 31.2637 146.871 30.997C146.725 30.7195 146.508 30.5013 146.22 30.3422C145.934 30.1719 145.604 30.0789 145.232 30.0632C144.848 30.047 144.506 30.1118 144.206 30.2574C143.918 30.3922 143.683 30.5915 143.503 30.8552C143.322 31.1076 143.225 31.4088 143.21 31.7586C143.196 32.0971 143.268 32.4054 143.426 32.6833C143.584 32.9613 143.8 33.1852 144.076 33.3551C144.363 33.5141 144.698 33.6017 145.082 33.6179ZM145.305 28.3197C145.745 28.3382 146.112 28.2123 146.406 27.9421C146.7 27.6719 146.857 27.3167 146.875 26.8766C146.894 26.4252 146.768 26.0525 146.498 25.7585C146.228 25.4645 145.873 25.3082 145.433 25.2897C144.993 25.2712 144.62 25.3968 144.315 25.6665C144.021 25.9368 143.864 26.292 143.846 26.7321C143.827 27.1835 143.952 27.5562 144.223 27.8502C144.504 28.1446 144.865 28.3011 145.305 28.3197Z" fill="white"/>
<path d="M703.135 270.586C703.126 270.586 703.117 270.586 703.108 270.586C702.806 270.571 702.573 270.315 702.589 270.013C702.599 269.803 703.622 248.969 704.279 240.703C704.304 240.401 704.565 240.177 704.868 240.2C705.17 240.225 705.394 240.488 705.371 240.789C704.715 249.039 703.693 269.857 703.683 270.065C703.666 270.359 703.424 270.586 703.135 270.586Z" fill="black"/>
<path d="M706.996 268.603C708.928 268.917 710.986 269.286 712.222 270.979C712.841 271.827 713.023 272.947 712.554 273.886C711.826 275.343 710.135 275.445 708.669 275.391C706.446 275.31 704.391 275.186 702.248 274.59C700.933 274.224 700.201 273.4 700.236 270.324C700.249 269.217 701.165 268.332 702.272 268.351C703.879 268.381 706.05 268.448 706.996 268.603Z" fill="#FF5233"/>
<path d="M709.185 275.946C709.005 275.946 708.826 275.942 708.648 275.936C706.465 275.856 704.322 275.734 702.101 275.115C700.308 274.616 699.655 273.316 699.688 270.318C699.696 269.637 699.97 268.999 700.46 268.525C700.951 268.048 701.602 267.791 702.282 267.805C703.936 267.836 706.112 267.905 707.085 268.062C708.948 268.365 711.266 268.743 712.663 270.655C713.438 271.716 713.583 273.047 713.043 274.129C712.281 275.654 710.72 275.946 709.185 275.946ZM702.233 268.897C701.853 268.897 701.495 269.043 701.22 269.309C700.942 269.579 700.785 269.943 700.781 270.329C700.746 273.361 701.459 273.801 702.392 274.061C704.5 274.649 706.572 274.766 708.687 274.843C710.102 274.896 711.491 274.785 712.063 273.641C712.42 272.927 712.31 272.03 711.778 271.301C710.645 269.751 708.66 269.427 706.907 269.142C706.198 269.026 704.548 268.94 702.26 268.899C702.253 268.898 702.242 268.897 702.233 268.897Z" fill="black"/>
<path d="M630.511 256.565C630.356 256.565 630.202 256.499 630.094 256.371C629.898 256.141 629.926 255.797 630.157 255.601C635.963 250.667 641.868 244.561 647.579 238.657C648.79 237.404 649.998 236.156 651.2 234.922C651.411 234.706 651.758 234.702 651.973 234.913C652.19 235.123 652.193 235.47 651.983 235.686C650.782 236.918 649.576 238.166 648.365 239.417C642.636 245.341 636.712 251.466 630.864 256.435C630.762 256.522 630.636 256.565 630.511 256.565Z" fill="black"/>
<path d="M630.043 251.168C628.938 249.554 627.728 247.849 625.671 247.451C624.64 247.251 623.55 247.561 622.899 248.386C621.89 249.666 622.518 251.239 623.19 252.543C624.21 254.52 625.196 256.328 626.648 258.014C627.538 259.048 628.595 259.36 631.363 258.02C632.359 257.538 632.771 256.332 632.282 255.338C631.57 253.896 630.585 251.958 630.043 251.168Z" fill="#FF5233"/>
<path d="M628.444 259.461C627.55 259.461 626.859 259.099 626.231 258.371C624.726 256.623 623.703 254.735 622.703 252.795C621.926 251.287 621.29 249.543 622.47 248.049C623.219 247.1 624.485 246.665 625.775 246.915C628.101 247.366 629.429 249.304 630.496 250.86C631.052 251.672 632.041 253.613 632.773 255.097C633.074 255.711 633.118 256.405 632.896 257.052C632.675 257.698 632.215 258.217 631.601 258.514C630.296 259.144 629.282 259.461 628.444 259.461ZM625.058 247.938C624.362 247.938 623.726 248.22 623.328 248.725C622.536 249.73 623.027 251.033 623.676 252.292C624.646 254.173 625.635 255.998 627.061 257.657C627.694 258.391 628.395 258.849 631.124 257.528C631.474 257.359 631.735 257.064 631.861 256.695C631.989 256.325 631.963 255.93 631.792 255.579C630.78 253.527 629.999 252.07 629.593 251.478C628.59 250.013 627.453 248.353 625.568 247.988C625.395 247.955 625.225 247.938 625.058 247.938Z" fill="black"/>
<path d="M773.214 175.751C773.003 175.751 772.799 175.637 772.693 175.437C767.19 164.989 759.306 159.687 746.332 157.709C746.011 157.66 745.791 157.36 745.84 157.039C745.889 156.718 746.189 156.499 746.51 156.547C759.894 158.587 768.035 164.073 773.733 174.888C773.884 175.175 773.775 175.531 773.487 175.682C773.4 175.729 773.307 175.751 773.214 175.751Z" fill="black"/>
<path d="M778.029 177.121C777.874 179.832 775.551 181.907 772.84 181.752C770.128 181.597 768.054 179.274 768.208 176.563C768.363 173.85 770.686 171.777 773.398 171.931C776.11 172.085 778.184 174.408 778.029 177.121Z" fill="#FF5233"/>
<path d="M773.126 182.305C773.02 182.305 772.914 182.301 772.809 182.296C771.351 182.214 770.014 181.568 769.041 180.479C768.069 179.39 767.579 177.987 767.662 176.53C767.833 173.521 770.417 171.218 773.428 171.383C776.437 171.554 778.745 174.142 778.574 177.149C778.491 178.607 777.846 179.944 776.757 180.917C775.748 181.819 774.468 182.305 773.126 182.305ZM773.113 172.469C772.039 172.469 771.016 172.858 770.207 173.579C769.336 174.356 768.819 175.427 768.753 176.591C768.686 177.758 769.078 178.879 769.856 179.75C770.633 180.621 771.704 181.136 772.87 181.203C774.035 181.27 775.158 180.879 776.029 180.1C776.9 179.323 777.417 178.252 777.482 177.086C777.619 174.68 775.772 172.611 773.366 172.474C773.281 172.472 773.198 172.469 773.113 172.469Z" fill="black"/>
<path d="M591.167 160.401C590.773 160.401 590.373 160.351 589.97 160.242C588.951 159.963 587.979 159.309 587.085 158.296C585.332 156.314 584.384 153.564 583.633 151.143C581.853 145.41 580.536 139.425 579.718 133.357C579.678 133.058 579.888 132.782 580.187 132.742C580.486 132.704 580.762 132.913 580.801 133.211C581.612 139.219 582.916 145.143 584.678 150.819C585.395 153.132 586.296 155.752 587.904 157.572C588.645 158.41 589.46 158.968 590.257 159.186C591.988 159.658 593.957 158.769 596.453 156.387C598.673 154.269 600.718 151.859 602.532 149.228C602.703 148.979 603.043 148.917 603.292 149.087C603.54 149.259 603.604 149.599 603.432 149.848C601.578 152.541 599.483 155.006 597.208 157.177C595.699 158.619 593.525 160.401 591.167 160.401Z" fill="black"/>
<path d="M583.743 120.185C585.324 116.257 584.087 111.373 580.826 108.673C580.046 108.028 578.93 107.492 578.062 108.011C577.276 108.48 577.139 109.542 577.086 110.456C576.969 112.501 576.853 114.546 576.736 116.591C576.471 121.21 572.49 120.418 569.467 122.718C567.799 123.986 566.509 126.58 566.199 128.616C564.266 141.305 571.223 142.987 579.254 141.808C582.105 141.389 585.779 140.198 586.849 138.098C588.809 134.252 588.037 121.634 583.743 120.185Z" fill="#FF5233"/>
<path d="M575.385 142.664C572.008 142.664 569.524 141.83 567.849 140.146C565.537 137.822 564.821 134.023 565.657 128.533C565.967 126.506 567.259 123.707 569.134 122.282C570.215 121.459 571.414 121.008 572.47 120.61C574.538 119.832 576.033 119.269 576.188 116.559L576.538 110.424C576.58 109.705 576.665 108.206 577.779 107.541C578.702 106.991 579.97 107.256 581.172 108.252C584.497 111.005 585.82 115.823 584.433 119.892C585.444 120.439 586.296 121.546 586.966 123.193C588.747 127.562 588.932 135.209 587.333 138.345C586.185 140.598 582.445 141.891 579.33 142.348C577.9 142.558 576.586 142.664 575.385 142.664ZM578.84 108.35C578.661 108.35 578.491 108.39 578.341 108.479C577.8 108.803 577.68 109.634 577.631 110.486L577.281 116.621C577.085 120.042 574.935 120.851 572.856 121.633C571.819 122.024 570.749 122.426 569.796 123.151C568.17 124.388 567.008 126.931 566.738 128.696C565.969 133.749 566.603 137.342 568.624 139.374C570.633 141.394 574.085 142.013 579.172 141.266C581.887 140.866 585.4 139.732 586.36 137.848C587.905 134.816 587.441 127.253 585.954 123.604C585.306 122.014 584.48 121.01 583.567 120.702C583.424 120.654 583.308 120.548 583.244 120.412C583.181 120.275 583.177 120.118 583.234 119.979C584.715 116.301 583.529 111.622 580.475 109.093C579.997 108.697 579.373 108.35 578.84 108.35Z" fill="black"/>
<path d="M581.684 123.679C581.538 123.679 581.393 123.621 581.285 123.506C581.078 123.286 581.089 122.939 581.31 122.733C582.197 121.903 582.71 121.05 583.251 119.943C583.384 119.671 583.711 119.559 583.983 119.692C584.255 119.825 584.367 120.152 584.234 120.424C583.639 121.642 583.067 122.586 582.059 123.531C581.952 123.63 581.818 123.679 581.684 123.679Z" fill="black"/>
<path d="M574.872 141.889C575.976 141.317 576.781 140.784 577.284 140.29C577.787 139.796 578.154 138.916 578.107 138.079C578.052 137.119 577.211 136.117 575.68 135.822C574.354 135.566 573.047 135.946 570.81 136.196C572.473 136.038 575.799 135.42 577.17 134.467C577.779 134.043 578.378 133.48 578.471 132.743C578.528 132.295 578.384 131.842 578.17 131.445C577.55 130.297 576.363 129.539 575.113 129.163C573.863 128.787 570.549 128.498 569.243 128.472C570.571 128.458 573.876 128.459 575.193 128.294C576.717 128.104 578.503 127.583 578.954 126.114C579.328 124.897 578.505 123.589 577.415 122.934C575.754 121.935 574.028 122.055 572.759 121.957C570.522 121.785 567.798 121.93 566.149 122.351C565.13 122.613 564.189 123.247 563.585 124.108C562.981 124.97 562.847 126.226 563.5 127.052C564.036 127.729 564.939 127.97 565.78 128.172C564.509 128.321 563.159 129.49 562.615 130.649C562.071 131.806 562.168 133.241 562.862 134.315C563.981 136.043 566.32 136.571 568.363 136.318C567.518 136.798 566.367 137.285 565.83 138.094C565.293 138.903 565.048 139.947 565.354 140.87C565.677 141.838 566.555 142.54 567.514 142.888C568.472 143.237 569.586 143.189 570.598 143.055C571.814 142.894 573.614 142.541 574.872 141.889Z" fill="#FF5233"/>
<path d="M569.249 143.704C568.624 143.704 567.952 143.631 567.327 143.403C566.112 142.961 565.181 142.079 564.836 141.044C564.498 140.026 564.699 138.811 565.375 137.793C565.621 137.423 565.959 137.119 566.331 136.856C564.813 136.655 563.302 135.999 562.405 134.612C561.611 133.386 561.499 131.739 562.121 130.417C562.491 129.631 563.231 128.772 564.133 128.213C563.74 128.022 563.366 127.763 563.074 127.392C562.218 126.312 562.459 124.765 563.139 123.794C563.811 122.837 564.86 122.118 566.017 121.822C567.688 121.394 570.416 121.227 572.804 121.412C573.019 121.429 573.249 121.439 573.488 121.449C574.7 121.502 576.209 121.569 577.699 122.466C578.938 123.209 579.947 124.757 579.48 126.275C579.074 127.593 577.799 128.435 575.684 128.778C577.031 129.272 578.076 130.116 578.653 131.187C578.958 131.753 579.081 132.301 579.016 132.812C578.92 133.578 578.419 134.266 577.484 134.917C577.202 135.112 576.848 135.295 576.446 135.463C577.893 135.968 578.599 137.075 578.654 138.049C578.708 138.994 578.312 140.052 577.67 140.682C577.121 141.22 576.288 141.775 575.126 142.376C573.697 143.116 571.722 143.46 570.673 143.598C570.267 143.652 569.774 143.704 569.249 143.704ZM568.365 135.772C568.598 135.772 568.809 135.922 568.884 136.147C568.967 136.395 568.862 136.665 568.634 136.794C568.467 136.889 568.289 136.983 568.104 137.081C567.42 137.446 566.643 137.858 566.286 138.397C565.795 139.137 565.641 139.996 565.874 140.697C566.113 141.418 566.796 142.045 567.701 142.374C568.628 142.71 569.756 142.615 570.526 142.513C571.314 142.409 573.291 142.092 574.621 141.403C575.67 140.861 576.438 140.354 576.901 139.9C577.324 139.483 577.596 138.748 577.56 138.11C577.522 137.422 576.893 136.614 575.576 136.358C574.73 136.195 573.856 136.324 572.644 136.502C572.478 136.526 572.304 136.552 572.124 136.578C571.656 136.651 571.225 136.705 570.861 136.74C570.563 136.768 570.296 136.55 570.265 136.252C570.235 135.953 570.45 135.685 570.749 135.652C571.22 135.6 571.655 135.54 572.053 135.482C573.79 135.205 575.904 134.679 576.857 134.017C577.522 133.553 577.873 133.115 577.929 132.673C577.965 132.391 577.884 132.065 577.688 131.704C577.019 130.462 575.688 129.906 574.955 129.686C573.795 129.337 570.549 129.044 569.232 129.019C568.933 129.013 568.695 128.769 568.696 128.47C568.697 128.171 568.938 127.928 569.237 127.926L569.91 127.921C571.45 127.909 574.026 127.89 575.125 127.752C577.026 127.513 578.138 126.909 578.431 125.953C578.729 124.983 577.984 123.916 577.132 123.403C575.88 122.65 574.581 122.592 573.437 122.542C573.184 122.53 572.943 122.52 572.718 122.503C570.474 122.332 567.829 122.486 566.286 122.882C565.378 123.114 564.557 123.676 564.034 124.423C563.597 125.046 563.413 126.06 563.929 126.713C564.339 127.23 565.067 127.439 565.907 127.641C566.165 127.703 566.342 127.941 566.326 128.205C566.311 128.47 566.107 128.685 565.844 128.716C564.843 128.834 563.616 129.805 563.11 130.882C562.645 131.87 562.728 133.101 563.321 134.018C564.371 135.641 566.656 135.98 568.295 135.776C568.32 135.773 568.343 135.772 568.365 135.772Z" fill="black"/>
<path d="M721.591 48.4029L720.351 70.205C730.24 73.7423 741.308 78.8955 746.202 88.189C749.623 94.685 750.14 102.276 750.376 109.615C750.823 123.522 747.093 181.162 744.683 216.314C743.626 231.719 730.374 243.406 714.957 242.528L624.549 237.388C609.132 236.512 597.289 223.398 597.986 207.973C599.576 172.773 602.404 115.083 604.424 101.316C605.491 94.0522 606.865 86.5679 611 80.5011C616.916 71.8235 628.496 67.9564 638.722 65.5634L639.962 43.7612" fill="white"/>
<path d="M716.591 243.128C716.037 243.128 715.483 243.113 714.925 243.08L624.516 237.94C616.914 237.507 609.916 234.158 604.813 228.506C599.71 222.855 597.089 215.554 597.432 207.947C598.963 174.061 601.834 115.137 603.875 101.235C604.942 93.9701 606.335 86.3596 610.541 80.1896C616.639 71.244 628.453 67.4271 638.193 65.1205L639.409 43.7307C639.427 43.4253 639.692 43.1869 639.993 43.2101C640.298 43.2268 640.531 43.4884 640.513 43.7938L639.274 65.596C639.26 65.8408 639.086 66.047 638.847 66.1024C629.229 68.3536 617.423 72.0597 611.456 80.812C607.383 86.7874 606.018 94.2575 604.971 101.395C602.937 115.249 600.067 174.131 598.538 207.996C598.208 215.311 600.728 222.331 605.634 227.764C610.541 233.197 617.269 236.418 624.578 236.834L714.987 241.975C722.298 242.39 729.346 239.952 734.837 235.11C740.327 230.268 743.627 223.578 744.129 216.274C746.448 182.453 750.272 123.625 749.821 109.631C749.589 102.42 749.08 94.8438 745.71 88.4445C740.774 79.0724 729.464 74.0519 720.163 70.7247C719.932 70.6422 719.783 70.418 719.797 70.1719L721.037 48.3697C721.053 48.0643 721.319 47.8272 721.62 47.8491C721.926 47.8659 722.159 48.1274 722.141 48.4328L720.925 69.8214C730.339 73.2169 741.644 78.3495 746.689 87.9278C750.169 94.5346 750.69 102.253 750.928 109.593C751.38 123.635 747.554 182.506 745.233 216.348C744.712 223.944 741.28 230.902 735.57 235.937C730.277 240.609 723.592 243.128 716.591 243.128Z" fill="black"/>
<path d="M720.839 61.6035L721.589 48.4029L639.962 43.7612L639.21 56.9619C645.976 58.1577 715.195 61.4231 720.839 61.6035Z" fill="black"/>
<path d="M734.212 227.423C730.624 230.804 722.953 235.615 710.465 234.733C706.299 234.439 653.138 231.465 645.29 231.027C634.262 230.411 620.56 230.316 613.039 228.442C608.117 227.217 601.181 222.34 598.111 212.205C599.522 225.73 610.566 236.594 624.55 237.389L714.958 242.529C730.375 243.406 743.628 231.719 744.684 216.315C744.934 212.677 745.197 208.797 745.469 204.75C743.491 210.55 739.555 222.384 734.212 227.423Z" fill="black"/>
<path d="M729.878 56.7291L630.792 51.0953C628.546 50.9677 626.828 49.0425 626.956 46.7965L629.313 5.33764C629.44 3.09157 631.366 1.37256 633.612 1.50143L732.698 7.13527C734.944 7.26284 736.661 9.18804 736.534 11.4341L734.177 52.8929C734.049 55.139 732.124 56.8567 729.878 56.7291Z" fill="#000427"/>
<path d="M653.526 33.2945L654.027 21.3947L656.295 21.4902L655.794 33.39L653.526 33.2945ZM651.607 23.2937L651.691 21.2963L656.126 21.483L656.042 23.4804L651.607 23.2937ZM658.235 33.4928L658.736 21.5929L661.038 21.6898L660.537 33.5897L658.235 33.4928ZM659.928 33.564L660.013 31.5328L666.598 31.81L666.512 33.8413L659.928 33.564ZM660.142 28.4689L660.225 26.5054L666.217 26.7576L666.134 28.7212L660.142 28.4689ZM660.343 23.6954L660.429 21.6642L666.929 21.9378L666.843 23.9691L660.343 23.6954ZM667.695 32.5684L672.378 28.0684C672.708 27.7431 672.974 27.4548 673.177 27.2033C673.392 26.941 673.549 26.6933 673.649 26.4601C673.75 26.2156 673.806 25.9693 673.816 25.721C673.837 25.2245 673.69 24.8283 673.374 24.5324C673.07 24.2369 672.664 24.0785 672.157 24.0571C671.637 24.0353 671.169 24.1512 670.751 24.405C670.345 24.6592 669.955 25.0723 669.58 25.6444L668.062 24.2409C668.57 23.4596 669.182 22.8806 669.899 22.5038C670.627 22.1162 671.449 21.9416 672.363 21.9801C673.141 22.0129 673.812 22.1937 674.375 22.5226C674.949 22.852 675.382 23.2942 675.675 23.8492C675.969 24.4042 676.1 25.0428 676.07 25.765C676.049 26.2502 675.969 26.6877 675.828 27.0775C675.698 27.4677 675.484 27.8544 675.185 28.2375C674.898 28.6097 674.502 29.0283 673.996 29.4931L670.589 32.6902L667.695 32.5684ZM667.639 33.8887L667.695 32.5684L669.687 31.9739L676.051 32.2419L675.967 34.2393L667.639 33.8887ZM677.155 30.0839L681.542 22.5531L684.081 22.66L679.593 30.1866L677.155 30.0839ZM677.098 31.4381L677.155 30.0839L678.029 29.4594L686.561 29.8186L686.476 31.8329L677.098 31.4381ZM682.598 34.5185L682.917 26.9351L685.186 27.0306L684.866 34.614L682.598 34.5185ZM690.979 35.0409C690.177 35.0072 689.45 34.8352 688.796 34.5251C688.143 34.2036 687.602 33.7626 687.173 33.2019L688.76 31.7595C688.971 32.1076 689.281 32.3919 689.69 32.6126C690.099 32.8333 690.547 32.9539 691.032 32.9743C691.483 32.9933 691.876 32.9307 692.21 32.7865C692.544 32.631 692.808 32.4104 693.001 32.1246C693.205 31.828 693.316 31.4822 693.333 31.0872C693.35 30.6697 693.269 30.3102 693.09 30.0087C692.922 29.7077 692.666 29.4708 692.323 29.2981C691.98 29.1254 691.565 29.0288 691.08 29.0084C690.866 28.9994 690.645 29.007 690.418 29.0314C690.191 29.0444 689.998 29.0759 689.837 29.1256L690.907 27.8819C691.193 27.8035 691.473 27.7418 691.746 27.6968C692.031 27.6409 692.292 27.618 692.529 27.628C693.138 27.6537 693.679 27.8234 694.152 28.1372C694.637 28.4403 695.009 28.8629 695.269 29.4052C695.54 29.9366 695.661 30.5578 695.631 31.2688C695.598 32.0587 695.383 32.7449 694.985 33.3273C694.588 33.8984 694.044 34.339 693.352 34.6491C692.673 34.9483 691.882 35.0789 690.979 35.0409ZM689.837 29.1256L689.893 27.8053L693.089 24.3958L695.731 24.4731L692.431 27.9461L689.837 29.1256ZM688.187 24.8338L688.271 22.8364L695.786 23.1528L695.731 24.4731L693.823 25.0711L688.187 24.8338ZM696.678 30.9058L701.064 23.375L703.603 23.4819L699.115 31.0085L696.678 30.9058ZM696.621 32.26L696.678 30.9058L697.552 30.2813L706.083 30.6405L705.998 32.6548L696.621 32.26ZM702.121 35.3404L702.44 27.757L704.708 27.8525L704.389 35.4359L702.121 35.3404Z" fill="white"/>
<path d="M730.111 57.283C730.022 57.283 729.932 57.2804 729.843 57.2753L630.757 51.6414C628.213 51.4958 626.261 49.309 626.405 46.7653L628.762 5.30648C628.832 4.07456 629.378 2.94315 630.3 2.12101C631.221 1.29887 632.403 0.882645 633.638 0.954808L732.724 6.58865C735.268 6.73298 737.22 8.92107 737.076 11.4648L734.719 52.9236C734.648 54.1568 734.103 55.2882 733.182 56.1091C732.328 56.8719 731.246 57.283 730.111 57.283ZM633.372 2.04112C632.505 2.04112 631.68 2.35553 631.028 2.9367C630.324 3.56426 629.908 4.42764 629.855 5.36834L627.498 46.8271C627.387 48.7691 628.878 50.4391 630.82 50.55L729.906 56.1838C730.848 56.2379 731.753 55.9209 732.455 55.2934C733.159 54.6658 733.575 53.8024 733.629 52.8617L735.986 11.4029C736.097 9.461 734.606 7.79093 732.664 7.68011L633.578 2.04627C633.508 2.0424 633.44 2.04112 633.372 2.04112Z" fill="black"/>
<path d="M724.521 219.063L617.705 212.99C613.768 212.765 610.758 209.393 610.981 205.455L617.054 98.6375C617.278 94.7008 620.652 91.6905 624.589 91.9135L731.406 97.9868C735.343 98.211 738.353 101.585 738.13 105.521L732.057 212.339C731.833 216.277 728.459 219.287 724.521 219.063Z" fill="#1E2434"/>
<path d="M724.932 219.663C724.785 219.663 724.637 219.659 724.489 219.65L617.671 213.577C615.611 213.459 613.718 212.547 612.344 211.006C610.969 209.466 610.277 207.483 610.395 205.422L616.468 98.6047C616.71 94.3509 620.363 91.0933 624.622 91.3278L731.44 97.4011C733.5 97.5184 735.393 98.4307 736.767 99.9719C738.142 101.512 738.834 103.495 738.717 105.557L732.644 212.374C732.41 216.479 728.994 219.663 724.932 219.663ZM624.179 92.4902C620.735 92.4902 617.839 95.1898 617.641 98.6717L611.567 205.489C611.468 207.237 612.056 208.918 613.221 210.224C614.385 211.529 615.99 212.304 617.737 212.403L724.555 218.476C728.169 218.685 731.263 215.913 731.47 212.306L737.543 105.488C737.642 103.741 737.056 102.059 735.89 100.753C734.725 99.4475 733.12 98.673 731.373 98.5738L624.555 92.5005C624.43 92.4927 624.304 92.4902 624.179 92.4902Z" fill="black"/>
<path d="M673.46 159.813C673.307 159.813 673.158 159.755 673.045 159.642L665.631 152.244C665.402 152.014 665.401 151.642 665.63 151.412C665.859 151.183 666.232 151.182 666.461 151.411L673.539 158.474L683.106 152.321C683.379 152.146 683.743 152.224 683.918 152.497C684.093 152.771 684.015 153.134 683.741 153.309L673.777 159.719C673.68 159.782 673.569 159.813 673.46 159.813Z" fill="white"/>
<path d="M651.36 146.649C651.201 149.425 648.824 151.548 646.048 151.39C643.272 151.233 641.15 148.854 641.307 146.079C641.466 143.303 643.843 141.181 646.619 141.338C649.394 141.495 651.517 143.873 651.36 146.649Z" fill="#FF5233"/>
<path d="M655.093 138.624C655.235 136.141 656.564 134.976 658.118 135.065C659.673 135.152 660.862 136.46 660.722 138.944C660.581 141.427 659.25 142.592 657.696 142.503C656.142 142.415 654.952 141.107 655.093 138.624Z" fill="white"/>
<path d="M696.289 143.671C696.246 143.671 696.202 143.666 696.158 143.657L683.654 140.831C683.45 140.785 683.286 140.635 683.223 140.437C683.16 140.239 683.205 140.022 683.344 139.866L692.143 129.997C692.36 129.754 692.731 129.734 692.973 129.949C693.215 130.165 693.237 130.537 693.021 130.779L684.886 139.904L696.416 142.51C696.733 142.581 696.932 142.897 696.859 143.213C696.8 143.486 696.558 143.671 696.289 143.671Z" fill="white"/>
<path d="M683.784 140.845C683.527 140.845 683.293 140.676 683.219 140.419C683.131 140.107 683.311 139.781 683.623 139.692L697.995 135.577C698.308 135.487 698.633 135.669 698.722 135.981C698.812 136.293 698.63 136.619 698.318 136.707L683.948 140.822C683.892 140.837 683.838 140.845 683.784 140.845Z" fill="white"/>
<path d="M708.668 150.01C708.884 147.238 706.812 144.815 704.04 144.599C701.268 144.382 698.845 146.454 698.629 149.226C698.412 151.998 700.484 154.421 703.256 154.638C706.028 154.854 708.451 152.783 708.668 150.01Z" fill="#FF5233"/>
<path d="M620.684 187.975C620.641 187.975 620.6 187.974 620.558 187.971C619.351 187.903 618.429 186.869 618.498 185.663L619.454 168.857C619.523 167.651 620.558 166.731 621.762 166.798C622.969 166.866 623.891 167.9 623.822 169.106L622.867 185.912C622.8 187.076 621.835 187.975 620.684 187.975Z" fill="#454E66"/>
<path d="M619.268 199.392C619.225 199.392 619.184 199.391 619.142 199.388C617.935 199.32 617.013 198.286 617.082 197.08L617.299 193.261C617.367 192.055 618.401 191.133 619.607 191.2C620.813 191.269 621.736 192.302 621.666 193.508L621.448 197.328C621.384 198.493 620.42 199.392 619.268 199.392Z" fill="#454E66"/>
</svg>
