<svg width="40" height="40" viewBox="0 0 40 40" fill="none" xmlns="http://www.w3.org/2000/svg">
<path d="M36.2193 29.4873C36.4827 29.029 36.6464 28.5125 36.6464 28.0488V11.9513C36.6464 11.4876 36.483 10.9713 36.2194 10.5129L19.8613 20.0001L36.2193 29.4873Z" fill="#00599C"/>
<path d="M21.3155 38.6265L35.1934 30.5779C35.5932 30.346 35.9565 29.9456 36.2199 29.4872L19.8619 20L3.50391 29.4873C3.76731 29.9456 4.13077 30.3461 4.53043 30.5779L18.4083 38.6265C19.2077 39.0903 20.5161 39.0903 21.3155 38.6265Z" fill="#004482"/>
<path d="M36.2194 10.5128C35.9559 10.0544 35.5924 9.65399 35.1927 9.42212L21.3149 1.37344C20.5154 0.9097 19.2071 0.9097 18.4076 1.37344L4.52978 9.42212C3.73024 9.88575 3.07617 11.0239 3.07617 11.9513V28.0488C3.07617 28.5125 3.23974 29.0289 3.50326 29.4873L19.8613 20.0001L36.2194 10.5128Z" fill="#659AD2"/>
<path d="M19.8619 31.2405C13.6917 31.2405 8.67188 26.1979 8.67188 19.9996C8.67188 13.8014 13.6917 8.75879 19.8619 8.75879C23.8434 8.75879 27.5566 10.9111 29.5524 14.3757L24.7096 17.1908C23.7108 15.4566 21.8531 14.3792 19.8619 14.3792C16.7768 14.3792 14.2669 16.9005 14.2669 19.9996C14.2669 23.0987 16.7768 25.6201 19.8619 25.6201C21.8533 25.6201 23.711 24.5427 24.71 22.8082L29.5527 25.6232C27.557 29.0881 23.8436 31.2405 19.8619 31.2405Z" fill="white"/>
<path d="M31.0523 19.3759H29.8089V18.127H28.5657V19.3759H27.3223V20.6248H28.5657V21.8739H29.8089V20.6248H31.0523V19.3759Z" fill="white"/>
<path d="M35.7144 19.3759H34.471V18.127H33.2278V19.3759H31.9844V20.6248H33.2278V21.8739H34.471V20.6248H35.7144V19.3759Z" fill="white"/>
</svg>
