<svg width="40" height="40" viewBox="0 0 40 40" fill="none" xmlns="http://www.w3.org/2000/svg">
<path d="M35.4168 21.2487C36.1168 21.2487 36.6668 20.682 36.6668 19.9987C36.6668 19.2987 36.1168 18.7487 35.4168 18.7487H33.3335V15.082H35.4168C36.1168 15.082 36.6668 14.532 36.6668 13.832C36.6668 13.1487 36.1168 12.582 35.4168 12.582H32.9502C32.1502 9.93203 30.0668 7.8487 27.4168 7.0487V4.58203C27.4168 3.8987 26.8502 3.33203 26.1668 3.33203C25.4835 3.33203 24.9168 3.8987 24.9168 4.58203V6.66536H21.2502V4.58203C21.2502 3.8987 20.6835 3.33203 20.0002 3.33203C19.3168 3.33203 18.7502 3.8987 18.7502 4.58203V6.66536H15.1002V4.58203C15.1002 3.8987 14.5335 3.33203 13.8502 3.33203C13.1502 3.33203 12.6002 3.8987 12.6002 4.58203V7.0487C9.9335 7.8487 7.85016 9.93203 7.05016 12.582H4.5835C3.90016 12.582 3.3335 13.1487 3.3335 13.832C3.3335 14.532 3.90016 15.082 4.5835 15.082H6.66683V18.7487H4.5835C3.90016 18.7487 3.3335 19.2987 3.3335 19.9987C3.3335 20.682 3.90016 21.2487 4.5835 21.2487H6.66683V24.9154H4.5835C3.90016 24.9154 3.3335 25.4654 3.3335 26.1654C3.3335 26.8487 3.90016 27.4154 4.5835 27.4154H7.05016C7.8335 30.0654 9.9335 32.1487 12.6002 32.9487V35.4154C12.6002 36.0987 13.1502 36.6654 13.8502 36.6654C14.5335 36.6654 15.1002 36.0987 15.1002 35.4154V33.332H18.7668V35.4154C18.7668 36.0987 19.3168 36.6654 20.0168 36.6654C20.7002 36.6654 21.2668 36.0987 21.2668 35.4154V33.332H24.9168V35.4154C24.9168 36.0987 25.4835 36.6654 26.1668 36.6654C26.8502 36.6654 27.4168 36.0987 27.4168 35.4154V32.9487C30.0668 32.1487 32.1502 30.0654 32.9502 27.4154H35.4168C36.1168 27.4154 36.6668 26.8487 36.6668 26.1654C36.6668 25.4654 36.1168 24.9154 35.4168 24.9154H33.3335V21.2487H35.4168ZM28.7668 23.7654C28.7668 26.5154 26.5168 28.7654 23.7668 28.7654H16.2335C13.4835 28.7654 11.2335 26.5154 11.2335 23.7654V16.232C11.2335 13.482 13.4835 11.232 16.2335 11.232H23.7668C26.5168 11.232 28.7668 13.482 28.7668 16.232V23.7654Z" fill="#9B9B9B"/>
<path d="M16.6998 27.0818H23.3165C25.3998 27.0818 27.0998 25.3984 27.0998 23.2984V16.6818C27.0998 14.5984 25.4165 12.8984 23.3165 12.8984H16.6998C14.6165 12.8984 12.9165 14.5818 12.9165 16.6818V23.2984C12.9165 25.3984 14.5998 27.0818 16.6998 27.0818Z" fill="#9B9B9B"/>
</svg>
