<svg width="40" height="40" viewBox="0 0 40 40" fill="none" xmlns="http://www.w3.org/2000/svg">
<path d="M33.6105 8.4834L31.1558 35.9221L20.1217 38.9744L9.11813 35.9264L6.66602 8.4834H33.6105Z" fill="#264DE4"/>
<path d="M29.0547 34.175L31.1524 10.7274H20.1387V36.6415L29.0547 34.175Z" fill="#2965F1"/>
<path d="M12.2891 20.9056L12.5914 24.2714H20.1399V20.9056H12.2891Z" fill="#EBEBEB"/>
<path d="M20.138 14.0931H20.1263H11.6797L11.9863 17.4589H20.138V14.0931Z" fill="#EBEBEB"/>
<path d="M20.1381 33.1487V29.6469L20.1232 29.6508L16.3665 28.6386L16.1264 25.9542H14.3009H12.7402L13.2128 31.239L20.1225 33.153L20.1381 33.1487Z" fill="#EBEBEB"/>
<path d="M13.0078 1.02563H17.0933V2.73037H14.7163V4.4351H17.0933V6.13983H13.0078V1.02563Z" fill="black"/>
<path d="M17.9102 1.02563H21.9956V2.50801H19.6186V2.80449H21.9956V6.21395H17.9102V4.65745H20.2872V4.36098H17.9102V1.02563Z" fill="black"/>
<path d="M22.8125 1.02563H26.898V2.50801H24.5209V2.80449H26.898V6.21395H22.8125V4.65745H25.1895V4.36098H22.8125V1.02563Z" fill="black"/>
<path d="M24.2806 24.2712L23.8891 28.6364L20.127 29.6496V33.1513L27.0422 31.239L27.0929 30.6703L27.8855 21.8093L27.9679 20.9055L28.5768 14.0931H20.127V17.4589H24.8801L24.5732 20.9055H20.127V24.2712H24.2806Z" fill="white"/>
</svg>
