<svg width="41" height="40" viewBox="0 0 41 40" fill="none" xmlns="http://www.w3.org/2000/svg">
<path d="M7.82003 11.3633C8.53307 11 9.46649 11 11.3333 11C12.0697 11 12.6486 10.3924 12.8422 9.68195C13.4206 7.56003 15.3614 6 17.6667 6C19.9719 6 21.9128 7.56003 22.4911 9.68195C22.6848 10.3924 23.2636 11 24 11C25.8668 11 26.8003 11 27.5133 11.3633C28.1405 11.6829 28.6504 12.1928 28.97 12.82C29.3333 13.5331 29.3333 14.4665 29.3333 16.3333C29.3333 17.0697 29.9409 17.6486 30.6514 17.8422C32.7733 18.4206 34.3333 20.3614 34.3333 22.6667C34.3333 24.9719 32.7733 26.9128 30.6514 27.4911C29.9409 27.6848 29.3333 28.2636 29.3333 29C29.3333 30.8668 29.3333 31.8003 28.97 32.5133C28.6504 33.1405 28.1405 33.6504 27.5133 33.97C26.8003 34.3333 25.8668 34.3333 24 34.3333C23.2636 34.3333 22.6848 33.7257 22.4911 33.0153C21.9128 30.8934 19.9719 29.3333 17.6667 29.3333C15.3614 29.3333 13.4206 30.8934 12.8422 33.0153C12.6486 33.7257 12.0697 34.3333 11.3333 34.3333C9.46649 34.3333 8.53307 34.3333 7.82003 33.97C7.19283 33.6504 6.68289 33.1405 6.36331 32.5133C6 31.8003 6 30.8668 6 29C6 28.2636 6.60759 27.6848 7.31805 27.4911C9.43997 26.9128 11 24.9719 11 22.6667C11 20.3614 9.43997 18.4206 7.31805 17.8422C6.60759 17.6486 6 17.0697 6 16.3333C6 14.4665 6 13.5331 6.36331 12.82C6.68289 12.1928 7.19283 11.6829 7.82003 11.3633Z" stroke="black" stroke-width="1.5"/>
</svg>
