<svg width="1920" height="838" viewBox="0 0 1920 838" fill="none" xmlns="http://www.w3.org/2000/svg">
<g opacity="0.5">
<path d="M59 95.2305C165.742 95.2305 252.25 177.157 252.25 278.19C252.25 379.223 165.742 461.149 59 461.149C-47.742 461.149 -134.25 379.223 -134.25 278.19C-134.25 177.157 -47.7421 95.2305 59 95.2305Z" stroke="#585858" stroke-width="0.5"/>
<path d="M59 100.834C162.473 100.834 246.331 180.252 246.331 278.19C246.331 376.128 162.473 455.546 59 455.546C-44.4733 455.546 -128.332 376.129 -128.332 278.19C-128.332 180.252 -44.4735 100.834 59 100.834Z" stroke="#585858" stroke-width="0.5"/>
<path d="M59.0029 106.439C159.208 106.439 240.416 183.348 240.416 278.191C240.416 373.035 159.208 449.944 59.0029 449.944C-41.2018 449.944 -122.41 373.035 -122.41 278.191C-122.41 183.348 -41.2017 106.44 59.0029 106.439Z" stroke="#585858" stroke-width="0.5"/>
<path d="M58.999 112.041C155.935 112.041 234.494 186.441 234.494 278.189C234.494 369.938 155.935 444.339 58.999 444.339C-37.9372 444.339 -116.496 369.938 -116.496 278.189C-116.496 186.441 -37.9371 112.041 58.999 112.041Z" stroke="#585858" stroke-width="0.5"/>
<path d="M59 117.645C152.668 117.645 228.577 189.536 228.577 278.189C228.577 366.843 152.668 438.734 59 438.734C-34.6674 438.734 -110.576 366.843 -110.576 278.189C-110.576 189.536 -34.6674 117.645 59 117.645Z" stroke="#585858" stroke-width="0.5"/>
<path d="M59 123.248C149.399 123.248 222.658 192.63 222.658 278.189C222.658 363.749 149.399 433.131 59 433.131C-31.3989 433.131 -104.658 363.749 -104.658 278.189C-104.658 192.63 -31.3989 123.248 59 123.248Z" stroke="#585858" stroke-width="0.5"/>
<path d="M59 128.852C146.13 128.852 216.739 195.725 216.739 278.189C216.739 360.653 146.13 427.527 59 427.527C-28.1303 427.527 -98.7402 360.654 -98.7402 278.189C-98.7402 195.725 -28.1303 128.852 59 128.852Z" stroke="#585858" stroke-width="0.5"/>
<path d="M58.999 134.455C142.861 134.455 210.82 198.82 210.82 278.189C210.82 357.559 142.861 421.924 58.999 421.924C-24.8626 421.924 -92.8222 357.559 -92.8223 278.189C-92.8223 198.82 -24.8626 134.455 58.999 134.455Z" stroke="#585858" stroke-width="0.5"/>
<path d="M59.001 140.061C139.594 140.061 204.904 201.917 204.904 278.191C204.904 354.466 139.594 416.322 59.001 416.322C-21.5921 416.322 -86.9023 354.466 -86.9023 278.191C-86.9023 201.917 -21.5922 140.061 59.001 140.061Z" stroke="#585858" stroke-width="0.5"/>
<path d="M58.998 145.662C136.323 145.662 198.983 205.009 198.983 278.189C198.983 351.369 136.322 410.717 58.998 410.717C-18.3262 410.717 -80.9862 351.369 -80.9863 278.189C-80.9863 205.01 -18.3263 145.662 58.998 145.662Z" stroke="#585858" stroke-width="0.5"/>
<path d="M59 151.268C133.056 151.268 193.066 208.106 193.066 278.191C193.066 348.276 133.056 405.114 59 405.114C-15.0558 405.114 -75.0662 348.276 -75.0664 278.191C-75.0664 208.106 -15.0559 151.268 59 151.268Z" stroke="#585858" stroke-width="0.5"/>
<path d="M59.002 156.871C129.789 156.871 187.149 211.2 187.149 278.19C187.149 345.181 129.789 399.511 59.002 399.511C-11.7853 399.511 -69.1465 345.181 -69.1465 278.19C-69.1462 211.2 -11.7852 156.871 59.002 156.871Z" stroke="#585858" stroke-width="0.5"/>
<path d="M58.9971 162.473C126.516 162.473 181.226 214.293 181.227 278.188C181.227 342.084 126.516 393.905 58.9971 393.905C-8.52148 393.905 -63.2324 342.084 -63.2324 278.188C-63.2322 214.293 -8.52136 162.473 58.9971 162.473Z" stroke="#585858" stroke-width="0.5"/>
<path d="M58.999 168.076C123.249 168.076 175.31 217.388 175.311 278.188C175.311 338.989 123.249 388.301 58.999 388.301C-5.25097 388.301 -57.3125 338.989 -57.3125 278.188C-57.3124 217.388 -5.25089 168.076 58.999 168.076Z" stroke="#585858" stroke-width="0.5"/>
<path d="M58.998 173.68C119.979 173.68 169.392 220.483 169.392 278.188C169.392 335.894 119.979 382.697 58.998 382.697C-1.98317 382.697 -51.3945 335.894 -51.3945 278.188C-51.3945 220.483 -1.98312 173.68 58.998 173.68Z" stroke="#585858" stroke-width="0.5"/>
<path d="M59 179.285C116.713 179.285 163.475 223.579 163.475 278.19C163.475 332.802 116.713 377.096 59 377.096C1.28726 377.096 -45.4746 332.802 -45.4746 278.19C-45.4746 223.579 1.28726 179.285 59 179.285Z" stroke="#585858" stroke-width="0.5"/>
<path d="M59.002 184.889C113.446 184.889 157.558 226.674 157.558 278.19C157.558 329.707 113.446 371.492 59.002 371.492C4.55789 371.492 -39.5546 329.707 -39.5547 278.19C-39.5547 226.674 4.55785 184.889 59.002 184.889Z" stroke="#585858" stroke-width="0.5"/>
<path d="M58.999 190.492C110.175 190.492 151.637 229.769 151.637 278.19C151.637 326.612 110.174 365.888 58.999 365.888C7.82368 365.888 -33.6385 326.612 -33.6387 278.19C-33.6387 229.769 7.82358 190.492 58.999 190.492Z" stroke="#585858" stroke-width="0.5"/>
<path d="M59.001 196.096C106.908 196.096 145.72 232.864 145.72 278.19C145.72 323.517 106.908 360.284 59.001 360.284C11.0943 360.284 -27.7185 323.517 -27.7188 278.19C-27.7188 232.864 11.0941 196.096 59.001 196.096Z" stroke="#585858" stroke-width="0.5"/>
<path d="M59.002 201.701C103.64 201.701 139.803 235.96 139.804 278.191C139.804 320.423 103.64 354.683 59.002 354.683C14.3638 354.682 -21.7988 320.423 -21.7988 278.191C-21.7986 235.96 14.364 201.701 59.002 201.701Z" stroke="#585858" stroke-width="0.5"/>
<path d="M59 207.303C100.369 207.303 133.883 239.053 133.883 278.189C133.883 317.327 100.37 349.077 59 349.077C17.6304 349.077 -15.8828 317.327 -15.8828 278.189C-15.8826 239.052 17.6305 207.303 59 207.303Z" stroke="#585858" stroke-width="0.5"/>
<path d="M58.999 212.906C97.0999 212.906 127.964 242.147 127.964 278.189C127.964 314.232 97.1 343.473 58.999 343.473C20.8982 343.472 -9.96484 314.232 -9.96484 278.189C-9.96471 242.147 20.8983 212.906 58.999 212.906Z" stroke="#585858" stroke-width="0.5"/>
<path d="M58.999 218.51C93.8313 218.51 122.045 245.242 122.045 278.189C122.045 311.137 93.8314 337.869 58.999 337.869C24.1667 337.869 -4.04688 311.137 -4.04688 278.189C-4.04681 245.242 24.1667 218.51 58.999 218.51Z" stroke="#585858" stroke-width="0.5"/>
<path d="M58.999 224.113C90.5625 224.113 116.126 248.337 116.126 278.189C116.126 308.042 90.5625 332.265 58.999 332.266C27.4353 332.266 1.8711 308.042 1.87109 278.189C1.87109 248.337 27.4353 224.113 58.999 224.113Z" stroke="#585858" stroke-width="0.5"/>
<path d="M22.7908 243.91C42.7864 224.978 75.2055 224.978 95.2011 243.91C115.197 262.842 115.197 293.537 95.2011 312.469C75.2055 331.401 42.7864 331.401 22.7908 312.469C2.7954 293.537 2.7954 262.842 22.7908 243.91Z" stroke="#585858" stroke-width="0.5"/>
<path d="M26.9754 247.872C44.6598 231.128 73.3316 231.129 91.0159 247.872C108.7 264.616 108.7 291.763 91.0159 308.506C73.3316 325.25 44.6598 325.251 26.9754 308.507C9.2911 291.763 9.2911 264.616 26.9754 247.872Z" stroke="#585858" stroke-width="0.5"/>
<path d="M31.1574 251.834C46.5304 237.279 71.4549 237.279 86.828 251.834C102.201 266.39 102.201 289.989 86.828 304.544C71.4549 319.1 46.5304 319.1 31.1574 304.544C15.7845 289.989 15.7845 266.39 31.1574 251.834Z" stroke="#585858" stroke-width="0.5"/>
<path d="M35.3439 255.796C48.4058 243.429 69.5829 243.43 82.6447 255.797C95.7063 268.164 95.7063 288.215 82.6447 300.582C69.5829 312.949 48.4058 312.949 35.3439 300.582C22.2821 288.215 22.2821 268.164 35.3439 255.796Z" stroke="#585858" stroke-width="0.5"/>
<path d="M39.5278 259.759C50.2784 249.58 67.7088 249.58 78.4595 259.758C89.2102 269.937 89.2102 286.441 78.4595 296.62C67.7088 306.799 50.2784 306.799 39.5278 296.62C28.7776 286.441 28.7775 269.938 39.5278 259.759Z" stroke="#585858" stroke-width="0.5"/>
<path d="M43.7124 263.721C52.1518 255.731 65.8348 255.731 74.2743 263.721C82.7137 271.712 82.7137 284.667 74.2743 292.658C65.8348 300.648 52.1518 300.648 43.7124 292.658C35.2729 284.667 35.273 271.712 43.7124 263.721Z" stroke="#585858" stroke-width="0.5"/>
<path d="M47.897 267.683C54.0252 261.881 63.961 261.882 70.0891 267.684C76.2168 273.486 76.2168 282.893 70.0891 288.695C63.961 294.497 54.0252 294.498 47.897 288.696C41.7688 282.893 41.7688 273.485 47.897 267.683Z" stroke="#585858" stroke-width="0.5"/>
<path d="M49.358 276.706C50.2203 271.676 55.233 268.24 60.577 269.062C65.9208 269.883 69.5287 274.644 68.6668 279.673C67.8047 284.702 62.7917 288.139 57.4477 287.318C52.1036 286.497 48.4959 281.735 49.358 276.706Z" stroke="#585858" stroke-width="0.5"/>
<path d="M-89.5 277.962C-1.59932 169.892 157.145 137.686 294.981 165.554C432.818 193.422 554.272 271.253 668.541 352.017C782.81 432.78 895.727 519.195 1027.17 568.596C1132.16 608.053 1246.81 622.391 1358.49 610.03C1518.7 592.3 1706.73 484.409 1775.54 335.191" stroke="#202020" stroke-width="2" stroke-miterlimit="10"/>
<path d="M1361.14 -100.064C1359.89 -67.7202 1335.19 -41.4257 1311.01 -19.4643C1269.64 18.1225 1225.32 52.572 1178.58 83.4855C1118.05 123.515 1052.13 158.761 1006.12 214.416C960.104 270.071 939.42 354.35 980.835 413.397C1019.92 469.118 1097.6 482.567 1166.42 481.055C1243.77 479.353 1320.8 464.826 1393.31 438.281C1463.3 412.651 1529.6 375.775 1602.78 361.1C1675.97 346.425 1761.65 359.49 1807.5 417.475" stroke="#202020" stroke-width="2" stroke-miterlimit="10"/>
<path d="M-63.0592 260.434C5.62858 240.743 84.603 250.18 155.54 265.72C248.727 286.141 339.119 317.612 404.937 367.034C519.958 453.403 553.816 645.717 361.517 694.766C263.955 719.651 175.455 705.616 84.6951 675.432C50.001 663.89 15.995 651.033 -20.77 643.013C-57.535 634.993 -98.0607 632.101 -134.5 640.783" stroke="#202020" stroke-width="2" stroke-miterlimit="10"/>
<path d="M576.916 699.097C568.239 719.924 569.314 747.388 587.603 760.924C599.886 770.014 617.001 770.484 631.725 766.131C669.612 754.93 693.45 717.257 729.539 701.309C780.919 678.602 847.596 703.675 893.645 671.775C903.07 665.245 911.305 655.874 912.776 644.628C915.924 620.53 888.517 603.98 864.508 598.247C814.13 586.224 756.889 590.531 715.786 559.464C699.331 547.027 614.262 408.008 587.51 457.731C580.122 471.46 602.801 493.81 609.628 503.984C625.418 527.509 636.9 549.776 634.453 578.636C630.265 628.067 594.836 656.088 576.916 699.092V699.097Z" stroke="#202020" stroke-width="2" stroke-miterlimit="10"/>
<path d="M737.696 221.091C727.149 223.615 715.547 227.376 710.544 236.849C704.439 248.407 711.276 262.566 719.995 272.366C737.462 292.013 761.991 303.883 783.751 318.824C801.26 330.847 817.845 345.373 838.441 350.938C859.031 356.502 885.472 349.063 891.92 329.043C899.204 306.433 878.141 284.788 874.717 261.309C870.306 231.09 894.933 205.455 911.539 179.661C916.781 171.516 921.359 160.965 916.397 152.657C912.157 145.554 902.254 143.403 894.175 145.564C868.15 152.534 845.611 176.585 824.127 191.807C798.501 209.962 768.159 213.804 737.696 221.091Z" stroke="#202020" stroke-width="2" stroke-miterlimit="10"/>
<path d="M45.8945 666.859V682.757" stroke="#5A5A5A" stroke-width="2" stroke-miterlimit="10"/>
<path d="M54.2901 674.807H37.5" stroke="#5A5A5A" stroke-width="2" stroke-miterlimit="10"/>
<path d="M83.9785 666.859V682.757" stroke="#5A5A5A" stroke-width="2" stroke-miterlimit="10"/>
<path d="M92.3707 674.807H75.584" stroke="#5A5A5A" stroke-width="2" stroke-miterlimit="10"/>
<path d="M122.061 666.859V682.757" stroke="#5A5A5A" stroke-width="2" stroke-miterlimit="10"/>
<path d="M130.456 674.807H113.666" stroke="#5A5A5A" stroke-width="2" stroke-miterlimit="10"/>
<path d="M160.145 666.859V682.757" stroke="#5A5A5A" stroke-width="2" stroke-miterlimit="10"/>
<path d="M168.538 674.807H151.748" stroke="#5A5A5A" stroke-width="2" stroke-miterlimit="10"/>
<path d="M45.8945 699.785V715.679" stroke="#5A5A5A" stroke-width="2" stroke-miterlimit="10"/>
<path d="M54.2901 707.734H37.5" stroke="#5A5A5A" stroke-width="2" stroke-miterlimit="10"/>
<path d="M83.9785 699.785V715.679" stroke="#5A5A5A" stroke-width="2" stroke-miterlimit="10"/>
<path d="M92.3707 707.734H75.584" stroke="#5A5A5A" stroke-width="2" stroke-miterlimit="10"/>
<path d="M122.061 699.785V715.679" stroke="#5A5A5A" stroke-width="2" stroke-miterlimit="10"/>
<path d="M130.456 707.734H113.666" stroke="#5A5A5A" stroke-width="2" stroke-miterlimit="10"/>
<path d="M160.145 699.785V715.679" stroke="#5A5A5A" stroke-width="2" stroke-miterlimit="10"/>
<path d="M168.538 707.734H151.748" stroke="#5A5A5A" stroke-width="2" stroke-miterlimit="10"/>
<path d="M45.8945 732.713V748.607" stroke="#5A5A5A" stroke-width="2" stroke-miterlimit="10"/>
<path d="M54.2901 740.658H37.5" stroke="#5A5A5A" stroke-width="2" stroke-miterlimit="10"/>
<path d="M83.9785 732.713V748.607" stroke="#5A5A5A" stroke-width="2" stroke-miterlimit="10"/>
<path d="M92.3707 740.658H75.584" stroke="#5A5A5A" stroke-width="2" stroke-miterlimit="10"/>
<path d="M122.061 732.713V748.607" stroke="#5A5A5A" stroke-width="2" stroke-miterlimit="10"/>
<path d="M130.456 740.658H113.666" stroke="#5A5A5A" stroke-width="2" stroke-miterlimit="10"/>
<path d="M160.145 732.713V748.607" stroke="#5A5A5A" stroke-width="2" stroke-miterlimit="10"/>
<path d="M168.538 740.658H151.748" stroke="#5A5A5A" stroke-width="2" stroke-miterlimit="10"/>
<path d="M45.8945 765.639V781.533" stroke="#5A5A5A" stroke-width="2" stroke-miterlimit="10"/>
<path d="M54.2901 773.584H37.5" stroke="#5A5A5A" stroke-width="2" stroke-miterlimit="10"/>
<path d="M83.9785 765.639V781.533" stroke="#5A5A5A" stroke-width="2" stroke-miterlimit="10"/>
<path d="M92.3707 773.584H75.584" stroke="#5A5A5A" stroke-width="2" stroke-miterlimit="10"/>
<path d="M122.061 765.639V781.533" stroke="#5A5A5A" stroke-width="2" stroke-miterlimit="10"/>
<path d="M130.456 773.584H113.666" stroke="#5A5A5A" stroke-width="2" stroke-miterlimit="10"/>
<path d="M160.145 765.639V781.533" stroke="#5A5A5A" stroke-width="2" stroke-miterlimit="10"/>
<path d="M168.538 773.584H151.748" stroke="#5A5A5A" stroke-width="2" stroke-miterlimit="10"/>
<path d="M1636.28 27.167C1638.93 27.167 1641.07 25.1389 1641.07 22.6372C1641.07 20.1355 1638.93 18.1074 1636.28 18.1074C1633.64 18.1074 1631.5 20.1355 1631.5 22.6372C1631.5 25.1389 1633.64 27.167 1636.28 27.167Z" stroke="#3A3A3A" stroke-width="3" stroke-miterlimit="10"/>
<path d="M1666.82 27.167C1669.46 27.167 1671.6 25.1389 1671.6 22.6372C1671.6 20.1355 1669.46 18.1074 1666.82 18.1074C1664.17 18.1074 1662.03 20.1355 1662.03 22.6372C1662.03 25.1389 1664.17 27.167 1666.82 27.167Z" stroke="#3A3A3A" stroke-width="3" stroke-miterlimit="10"/>
<path d="M1697.34 27.167C1699.98 27.167 1702.13 25.1389 1702.13 22.6372C1702.13 20.1355 1699.98 18.1074 1697.34 18.1074C1694.7 18.1074 1692.56 20.1355 1692.56 22.6372C1692.56 25.1389 1694.7 27.167 1697.34 27.167Z" stroke="#3A3A3A" stroke-width="3" stroke-miterlimit="10"/>
<path d="M1727.87 27.167C1730.51 27.167 1732.65 25.1389 1732.65 22.6372C1732.65 20.1355 1730.51 18.1074 1727.87 18.1074C1725.23 18.1074 1723.09 20.1355 1723.09 22.6372C1723.09 25.1389 1725.23 27.167 1727.87 27.167Z" stroke="#3A3A3A" stroke-width="3" stroke-miterlimit="10"/>
<path d="M1758.4 27.167C1761.04 27.167 1763.18 25.1389 1763.18 22.6372C1763.18 20.1355 1761.04 18.1074 1758.4 18.1074C1755.76 18.1074 1753.61 20.1355 1753.61 22.6372C1753.61 25.1389 1755.76 27.167 1758.4 27.167Z" stroke="#3A3A3A" stroke-width="3" stroke-miterlimit="10"/>
<path d="M1636.28 55.4091C1638.93 55.4091 1641.07 53.3811 1641.07 50.8793C1641.07 48.3776 1638.93 46.3496 1636.28 46.3496C1633.64 46.3496 1631.5 48.3776 1631.5 50.8793C1631.5 53.3811 1633.64 55.4091 1636.28 55.4091Z" stroke="#3A3A3A" stroke-width="3" stroke-miterlimit="10"/>
<path d="M1666.82 55.4091C1669.46 55.4091 1671.6 53.3811 1671.6 50.8793C1671.6 48.3776 1669.46 46.3496 1666.82 46.3496C1664.17 46.3496 1662.03 48.3776 1662.03 50.8793C1662.03 53.3811 1664.17 55.4091 1666.82 55.4091Z" stroke="#3A3A3A" stroke-width="3" stroke-miterlimit="10"/>
<path d="M1697.34 55.4091C1699.98 55.4091 1702.13 53.3811 1702.13 50.8793C1702.13 48.3776 1699.98 46.3496 1697.34 46.3496C1694.7 46.3496 1692.56 48.3776 1692.56 50.8793C1692.56 53.3811 1694.7 55.4091 1697.34 55.4091Z" stroke="#3A3A3A" stroke-width="3" stroke-miterlimit="10"/>
<path d="M1727.87 55.4091C1730.51 55.4091 1732.65 53.3811 1732.65 50.8793C1732.65 48.3776 1730.51 46.3496 1727.87 46.3496C1725.23 46.3496 1723.09 48.3776 1723.09 50.8793C1723.09 53.3811 1725.23 55.4091 1727.87 55.4091Z" stroke="#3A3A3A" stroke-width="3" stroke-miterlimit="10"/>
<path d="M1758.4 55.4091C1761.04 55.4091 1763.18 53.3811 1763.18 50.8793C1763.18 48.3776 1761.04 46.3496 1758.4 46.3496C1755.76 46.3496 1753.61 48.3776 1753.61 50.8793C1753.61 53.3811 1755.76 55.4091 1758.4 55.4091Z" stroke="#3A3A3A" stroke-width="3" stroke-miterlimit="10"/>
<path d="M1636.28 83.6455C1638.93 83.6455 1641.07 81.6174 1641.07 79.1157C1641.07 76.614 1638.93 74.5859 1636.28 74.5859C1633.64 74.5859 1631.5 76.614 1631.5 79.1157C1631.5 81.6174 1633.64 83.6455 1636.28 83.6455Z" stroke="#3A3A3A" stroke-width="3" stroke-miterlimit="10"/>
<path d="M1666.82 83.6455C1669.46 83.6455 1671.6 81.6174 1671.6 79.1157C1671.6 76.614 1669.46 74.5859 1666.82 74.5859C1664.17 74.5859 1662.03 76.614 1662.03 79.1157C1662.03 81.6174 1664.17 83.6455 1666.82 83.6455Z" stroke="#3A3A3A" stroke-width="3" stroke-miterlimit="10"/>
<path d="M1697.34 83.6455C1699.98 83.6455 1702.13 81.6174 1702.13 79.1157C1702.13 76.614 1699.98 74.5859 1697.34 74.5859C1694.7 74.5859 1692.56 76.614 1692.56 79.1157C1692.56 81.6174 1694.7 83.6455 1697.34 83.6455Z" stroke="#3A3A3A" stroke-width="3" stroke-miterlimit="10"/>
<path d="M1727.87 83.6455C1730.51 83.6455 1732.65 81.6174 1732.65 79.1157C1732.65 76.614 1730.51 74.5859 1727.87 74.5859C1725.23 74.5859 1723.09 76.614 1723.09 79.1157C1723.09 81.6174 1725.23 83.6455 1727.87 83.6455Z" stroke="#3A3A3A" stroke-width="3" stroke-miterlimit="10"/>
<path d="M1758.4 83.6455C1761.04 83.6455 1763.18 81.6174 1763.18 79.1157C1763.18 76.614 1761.04 74.5859 1758.4 74.5859C1755.76 74.5859 1753.61 76.614 1753.61 79.1157C1753.61 81.6174 1755.76 83.6455 1758.4 83.6455Z" stroke="#3A3A3A" stroke-width="3" stroke-miterlimit="10"/>
<path d="M1636.28 111.888C1638.93 111.888 1641.07 109.86 1641.07 107.358C1641.07 104.856 1638.93 102.828 1636.28 102.828C1633.64 102.828 1631.5 104.856 1631.5 107.358C1631.5 109.86 1633.64 111.888 1636.28 111.888Z" stroke="#3A3A3A" stroke-width="3" stroke-miterlimit="10"/>
<path d="M1666.82 111.888C1669.46 111.888 1671.6 109.86 1671.6 107.358C1671.6 104.856 1669.46 102.828 1666.82 102.828C1664.17 102.828 1662.03 104.856 1662.03 107.358C1662.03 109.86 1664.17 111.888 1666.82 111.888Z" stroke="#3A3A3A" stroke-width="3" stroke-miterlimit="10"/>
<path d="M1697.34 111.888C1699.98 111.888 1702.13 109.86 1702.13 107.358C1702.13 104.856 1699.98 102.828 1697.34 102.828C1694.7 102.828 1692.56 104.856 1692.56 107.358C1692.56 109.86 1694.7 111.888 1697.34 111.888Z" stroke="#3A3A3A" stroke-width="3" stroke-miterlimit="10"/>
<path d="M1727.87 111.888C1730.51 111.888 1732.65 109.86 1732.65 107.358C1732.65 104.856 1730.51 102.828 1727.87 102.828C1725.23 102.828 1723.09 104.856 1723.09 107.358C1723.09 109.86 1725.23 111.888 1727.87 111.888Z" stroke="#3A3A3A" stroke-width="3" stroke-miterlimit="10"/>
<path d="M1758.4 111.888C1761.04 111.888 1763.18 109.86 1763.18 107.358C1763.18 104.856 1761.04 102.828 1758.4 102.828C1755.76 102.828 1753.61 104.856 1753.61 107.358C1753.61 109.86 1755.76 111.888 1758.4 111.888Z" stroke="#3A3A3A" stroke-width="3" stroke-miterlimit="10"/>
<path d="M1821.5 497.098C1950.06 497.098 2054.25 595.769 2054.25 717.457C2054.25 839.145 1950.06 937.815 1821.5 937.815C1692.94 937.815 1588.75 839.145 1588.75 717.457C1588.75 595.769 1692.94 497.098 1821.5 497.098Z" stroke="#585858" stroke-width="0.5"/>
<path d="M1821.5 503.846C1946.12 503.846 2047.12 599.495 2047.12 717.457C2047.12 835.419 1946.12 931.068 1821.5 931.068C1696.88 931.068 1595.88 835.419 1595.88 717.457C1595.88 599.496 1696.88 503.846 1821.5 503.846Z" stroke="#585858" stroke-width="0.5"/>
<path d="M1821.5 510.596C1942.19 510.596 2040 603.225 2040 717.46C2040 831.695 1942.19 924.323 1821.5 924.323C1700.82 924.323 1603.01 831.695 1603.01 717.46C1603.01 603.225 1700.82 510.596 1821.5 510.596Z" stroke="#585858" stroke-width="0.5"/>
<path d="M1821.5 517.34C1938.25 517.34 2032.87 606.948 2032.87 717.456C2032.87 827.965 1938.25 917.572 1821.5 917.572C1704.75 917.572 1610.13 827.964 1610.13 717.456C1610.13 606.948 1704.75 517.34 1821.5 517.34Z" stroke="#585858" stroke-width="0.5"/>
<path d="M1821.5 524.088C1934.31 524.088 2025.74 610.675 2025.74 717.457C2025.74 824.239 1934.31 910.825 1821.5 910.825C1708.69 910.825 1617.26 824.239 1617.26 717.457C1617.26 610.675 1708.69 524.088 1821.5 524.088Z" stroke="#585858" stroke-width="0.5"/>
<path d="M1821.5 530.836C1930.38 530.836 2018.62 614.402 2018.62 717.457C2018.62 820.512 1930.38 904.078 1821.5 904.078C1712.62 904.078 1624.38 820.512 1624.38 717.457C1624.38 614.402 1712.62 530.836 1821.5 530.836Z" stroke="#585858" stroke-width="0.5"/>
<path d="M1821.5 537.582C1926.44 537.582 2011.49 618.127 2011.49 717.456C2011.49 816.785 1926.44 897.329 1821.5 897.329C1716.56 897.329 1631.51 816.785 1631.51 717.456C1631.51 618.127 1716.56 537.582 1821.5 537.582Z" stroke="#585858" stroke-width="0.5"/>
<path d="M1821.5 544.33C1922.51 544.33 2004.36 621.854 2004.36 717.456C2004.36 813.058 1922.51 890.583 1821.5 890.583C1720.49 890.583 1638.63 813.058 1638.63 717.456C1638.63 621.854 1720.49 544.33 1821.5 544.33Z" stroke="#585858" stroke-width="0.5"/>
<path d="M1821.5 551.078C1918.57 551.078 1997.24 625.581 1997.24 717.457C1997.24 809.333 1918.57 883.836 1821.5 883.836C1724.43 883.836 1645.76 809.333 1645.76 717.457C1645.76 625.581 1724.43 551.078 1821.5 551.078Z" stroke="#585858" stroke-width="0.5"/>
<path d="M1821.5 557.824C1914.63 557.824 1990.11 629.307 1990.11 717.456C1990.11 805.605 1914.63 877.087 1821.5 877.087C1728.36 877.087 1652.89 805.605 1652.89 717.456C1652.89 629.307 1728.36 557.824 1821.5 557.824Z" stroke="#585858" stroke-width="0.5"/>
<path d="M1821.5 564.572C1910.7 564.572 1982.99 633.033 1982.99 717.456C1982.99 801.879 1910.7 870.34 1821.5 870.34C1732.3 870.34 1660.02 801.879 1660.02 717.456C1660.02 633.033 1732.3 564.572 1821.5 564.572Z" stroke="#585858" stroke-width="0.5"/>
<path d="M1821.5 571.32C1906.76 571.32 1975.86 636.761 1975.86 717.457C1975.86 798.153 1906.76 863.593 1821.5 863.593C1736.24 863.593 1667.14 798.153 1667.14 717.457C1667.14 636.761 1736.24 571.32 1821.5 571.32Z" stroke="#585858" stroke-width="0.5"/>
<path d="M1821.5 578.066C1902.82 578.067 1968.73 640.486 1968.73 717.455C1968.73 794.425 1902.82 856.844 1821.5 856.844C1740.17 856.844 1674.27 794.425 1674.27 717.455C1674.27 640.486 1740.17 578.066 1821.5 578.066Z" stroke="#585858" stroke-width="0.5"/>
<path d="M1821.5 584.814C1898.89 584.814 1961.6 644.213 1961.6 717.456C1961.6 790.699 1898.89 850.097 1821.5 850.097C1744.11 850.097 1681.39 790.699 1681.39 717.456C1681.39 644.213 1744.11 584.814 1821.5 584.814Z" stroke="#585858" stroke-width="0.5"/>
<path d="M1821.5 591.562C1894.95 591.562 1954.48 647.94 1954.48 717.456C1954.48 786.973 1894.95 843.351 1821.5 843.351C1748.04 843.35 1688.52 786.972 1688.52 717.456C1688.52 647.94 1748.04 591.563 1821.5 591.562Z" stroke="#585858" stroke-width="0.5"/>
<path d="M1821.5 598.311C1891.02 598.311 1947.35 651.667 1947.35 717.457C1947.35 783.247 1891.02 836.603 1821.5 836.604C1751.98 836.604 1695.65 783.247 1695.65 717.457C1695.65 651.667 1751.98 598.311 1821.5 598.311Z" stroke="#585858" stroke-width="0.5"/>
<path d="M1821.5 605.059C1887.08 605.059 1940.23 655.394 1940.23 717.457C1940.23 779.52 1887.08 829.856 1821.5 829.856C1755.92 829.856 1702.78 779.52 1702.78 717.457C1702.78 655.394 1755.92 605.059 1821.5 605.059Z" stroke="#585858" stroke-width="0.5"/>
<path d="M1821.5 611.805C1883.15 611.805 1933.1 659.119 1933.1 717.456C1933.1 775.793 1883.15 823.107 1821.5 823.107C1759.85 823.107 1709.9 775.793 1709.9 717.456C1709.9 659.119 1759.85 611.805 1821.5 611.805Z" stroke="#585858" stroke-width="0.5"/>
<path d="M1821.5 618.553C1879.21 618.553 1925.97 662.846 1925.97 717.456C1925.97 772.066 1879.21 816.36 1821.5 816.36C1763.79 816.36 1717.03 772.066 1717.03 717.456C1717.03 662.846 1763.79 618.553 1821.5 618.553Z" stroke="#585858" stroke-width="0.5"/>
<path d="M1821.5 625.303C1875.28 625.303 1918.85 666.575 1918.85 717.459C1918.85 768.343 1875.28 809.615 1821.5 809.615C1767.73 809.615 1724.16 768.343 1724.16 717.459C1724.16 666.575 1767.73 625.303 1821.5 625.303Z" stroke="#585858" stroke-width="0.5"/>
<path d="M1821.5 632.047C1871.34 632.047 1911.72 670.298 1911.72 717.455C1911.72 764.612 1871.34 802.864 1821.5 802.864C1771.66 802.864 1731.28 764.612 1731.28 717.455C1731.28 670.298 1771.66 632.047 1821.5 632.047Z" stroke="#585858" stroke-width="0.5"/>
<path d="M1821.5 638.795C1867.4 638.795 1904.59 674.026 1904.59 717.456C1904.59 760.886 1867.4 796.117 1821.5 796.117C1775.6 796.117 1738.41 760.887 1738.41 717.456C1738.41 674.025 1775.6 638.795 1821.5 638.795Z" stroke="#585858" stroke-width="0.5"/>
<path d="M1821.5 645.543C1863.47 645.543 1897.47 677.752 1897.47 717.456C1897.47 757.16 1863.47 789.37 1821.5 789.37C1779.53 789.37 1745.53 757.16 1745.53 717.456C1745.53 677.752 1779.53 645.543 1821.5 645.543Z" stroke="#585858" stroke-width="0.5"/>
<path d="M1821.5 652.289C1859.53 652.289 1890.34 681.478 1890.34 717.455C1890.34 753.433 1859.53 782.621 1821.5 782.621C1783.47 782.621 1752.66 753.432 1752.66 717.455C1752.66 681.478 1783.47 652.289 1821.5 652.289Z" stroke="#585858" stroke-width="0.5"/>
<path d="M1777.86 676.144C1801.96 653.328 1841.03 653.329 1865.13 676.145C1889.22 698.961 1889.22 735.953 1865.13 758.769C1841.03 781.585 1801.96 781.586 1777.86 758.77C1753.76 735.954 1753.76 698.961 1777.86 676.144Z" stroke="#585858" stroke-width="0.5"/>
<path d="M1782.9 680.915C1804.22 660.734 1838.77 660.735 1860.09 680.916C1881.4 701.097 1881.4 733.817 1860.09 753.998C1838.77 774.179 1804.22 774.18 1782.9 753.999C1761.59 733.817 1761.59 701.097 1782.9 680.915Z" stroke="#585858" stroke-width="0.5"/>
<path d="M1787.94 685.687C1806.47 668.141 1836.51 668.14 1855.05 685.686C1873.58 703.233 1873.58 731.681 1855.05 749.228C1836.51 766.774 1806.47 766.773 1787.94 749.227C1769.41 731.681 1769.41 703.233 1787.94 685.687Z" stroke="#585858" stroke-width="0.5"/>
<path d="M1792.98 690.458C1808.73 675.547 1834.26 675.547 1850.01 690.458C1865.76 705.369 1865.76 729.545 1850.01 744.456C1834.26 759.367 1808.73 759.367 1792.98 744.456C1777.23 729.545 1777.23 705.369 1792.98 690.458Z" stroke="#585858" stroke-width="0.5"/>
<path d="M1798.02 695.229C1810.98 682.953 1832 682.953 1844.97 695.229C1857.94 707.505 1857.94 727.409 1844.97 739.686C1832 751.962 1810.98 751.961 1798.02 739.685C1785.05 727.409 1785.05 707.505 1798.02 695.229Z" stroke="#585858" stroke-width="0.5"/>
<path d="M1803.05 700C1813.24 690.359 1829.75 690.359 1839.93 700C1850.11 709.641 1850.11 725.273 1839.93 734.914C1829.75 744.555 1813.24 744.555 1803.05 734.914C1792.87 725.273 1792.87 709.641 1803.05 700Z" stroke="#585858" stroke-width="0.5"/>
<path d="M1808.09 704.771C1815.49 697.765 1827.49 697.765 1834.89 704.771C1842.29 711.777 1842.29 723.137 1834.89 730.143C1827.49 737.149 1815.49 737.149 1808.09 730.143C1800.69 723.137 1800.69 711.777 1808.09 704.771Z" stroke="#585858" stroke-width="0.5"/>
<path d="M1809.84 715.663C1810.88 709.577 1816.95 705.423 1823.41 706.415C1829.87 707.408 1834.23 713.165 1833.19 719.251C1832.15 725.338 1826.08 729.492 1819.62 728.5C1813.16 727.507 1808.8 721.75 1809.84 715.663Z" stroke="#585858" stroke-width="0.5"/>
</g>
</svg>
