<svg width="40" height="40" viewBox="0 0 40 40" fill="none" xmlns="http://www.w3.org/2000/svg">
<path d="M36.2671 26.5359L25.6005 7.33594C24.1671 4.7526 22.1838 3.33594 20.0005 3.33594C17.8171 3.33594 15.8338 4.7526 14.4005 7.33594L3.73378 26.5359C2.38378 28.9859 2.23378 31.3359 3.31712 33.1859C4.40045 35.0359 6.53378 36.0526 9.33378 36.0526H30.6671C33.4671 36.0526 35.6005 35.0359 36.6838 33.1859C37.7671 31.3359 37.6171 28.9693 36.2671 26.5359ZM18.7505 15.0026C18.7505 14.3193 19.3171 13.7526 20.0005 13.7526C20.6838 13.7526 21.2505 14.3193 21.2505 15.0026V23.3359C21.2505 24.0193 20.6838 24.5859 20.0005 24.5859C19.3171 24.5859 18.7505 24.0193 18.7505 23.3359V15.0026ZM21.1838 29.5193C21.1005 29.5859 21.0171 29.6526 20.9338 29.7193C20.8338 29.7859 20.7338 29.8359 20.6338 29.8693C20.5338 29.9193 20.4338 29.9526 20.3171 29.9693C20.2171 29.9859 20.1005 30.0026 20.0005 30.0026C19.9005 30.0026 19.7838 29.9859 19.6671 29.9693C19.5671 29.9526 19.4671 29.9193 19.3671 29.8693C19.2671 29.8359 19.1671 29.7859 19.0671 29.7193C18.9838 29.6526 18.9005 29.5859 18.8171 29.5193C18.5171 29.2026 18.3338 28.7693 18.3338 28.3359C18.3338 27.9026 18.5171 27.4693 18.8171 27.1526C18.9005 27.0859 18.9838 27.0193 19.0671 26.9526C19.1671 26.8859 19.2671 26.8359 19.3671 26.8026C19.4671 26.7526 19.5671 26.7193 19.6671 26.7026C19.8838 26.6526 20.1171 26.6526 20.3171 26.7026C20.4338 26.7193 20.5338 26.7526 20.6338 26.8026C20.7338 26.8359 20.8338 26.8859 20.9338 26.9526C21.0171 27.0193 21.1005 27.0859 21.1838 27.1526C21.4838 27.4693 21.6671 27.9026 21.6671 28.3359C21.6671 28.7693 21.4838 29.2026 21.1838 29.5193Z" fill="#9B9B9B"/>
</svg>
