<svg width="40" height="40" viewBox="0 0 40 40" fill="none" xmlns="http://www.w3.org/2000/svg">
<path d="M33.3335 23.75C35.4046 23.75 37.0835 22.0711 37.0835 20C37.0835 17.9289 35.4046 16.25 33.3335 16.25C31.2624 16.25 29.5835 17.9289 29.5835 20C29.5835 22.0711 31.2624 23.75 33.3335 23.75Z" fill="#9B9B9B"/>
<path d="M33.3335 10.418C35.4046 10.418 37.0835 8.73904 37.0835 6.66797C37.0835 4.5969 35.4046 2.91797 33.3335 2.91797C31.2624 2.91797 29.5835 4.5969 29.5835 6.66797C29.5835 8.73904 31.2624 10.418 33.3335 10.418Z" fill="#9B9B9B"/>
<path d="M33.3335 37.082C35.4046 37.082 37.0835 35.4031 37.0835 33.332C37.0835 31.261 35.4046 29.582 33.3335 29.582C31.2624 29.582 29.5835 31.261 29.5835 33.332C29.5835 35.4031 31.2624 37.082 33.3335 37.082Z" fill="#9B9B9B"/>
<path d="M6.6665 23.75C8.73757 23.75 10.4165 22.0711 10.4165 20C10.4165 17.9289 8.73757 16.25 6.6665 16.25C4.59544 16.25 2.9165 17.9289 2.9165 20C2.9165 22.0711 4.59544 23.75 6.6665 23.75Z" fill="#9B9B9B"/>
<path d="M31.6668 21.2513C32.3502 21.2513 32.9168 20.6846 32.9168 20.0013C32.9168 19.318 32.3502 18.7513 31.6668 18.7513H19.5835V11.668C19.5835 9.03464 20.7002 7.91797 23.3335 7.91797H31.6668C32.3502 7.91797 32.9168 7.3513 32.9168 6.66797C32.9168 5.98464 32.3502 5.41797 31.6668 5.41797H23.3335C19.3002 5.41797 17.0835 7.63464 17.0835 11.668V18.7513H8.3335C7.65016 18.7513 7.0835 19.318 7.0835 20.0013C7.0835 20.6846 7.65016 21.2513 8.3335 21.2513H17.0835V28.3346C17.0835 32.368 19.3002 34.5846 23.3335 34.5846H31.6668C32.3502 34.5846 32.9168 34.018 32.9168 33.3346C32.9168 32.6513 32.3502 32.0846 31.6668 32.0846H23.3335C20.7002 32.0846 19.5835 30.968 19.5835 28.3346V21.2513H31.6668Z" fill="#9B9B9B"/>
</svg>
