<svg width="41" height="40" viewBox="0 0 41 40" fill="none" xmlns="http://www.w3.org/2000/svg">
<path d="M33.8333 23.3346C35.6743 23.3346 37.1667 21.8423 37.1667 20.0013C37.1667 18.1604 35.6743 16.668 33.8333 16.668C31.9924 16.668 30.5 18.1604 30.5 20.0013C30.5 21.8423 31.9924 23.3346 33.8333 23.3346Z" stroke="#222222" stroke-width="2" stroke-linecap="round" stroke-linejoin="round"/>
<path d="M33.8333 9.9987C35.6743 9.9987 37.1667 8.50631 37.1667 6.66536C37.1667 4.82442 35.6743 3.33203 33.8333 3.33203C31.9924 3.33203 30.5 4.82442 30.5 6.66536C30.5 8.50631 31.9924 9.9987 33.8333 9.9987Z" stroke="#222222" stroke-width="2" stroke-linecap="round" stroke-linejoin="round"/>
<path d="M33.8333 36.6667C35.6743 36.6667 37.1667 35.1743 37.1667 33.3333C37.1667 31.4924 35.6743 30 33.8333 30C31.9924 30 30.5 31.4924 30.5 33.3333C30.5 35.1743 31.9924 36.6667 33.8333 36.6667Z" stroke="#222222" stroke-width="2" stroke-linecap="round" stroke-linejoin="round"/>
<path d="M7.16732 23.3346C9.00827 23.3346 10.5007 21.8423 10.5007 20.0013C10.5007 18.1604 9.00827 16.668 7.16732 16.668C5.32637 16.668 3.83398 18.1604 3.83398 20.0013C3.83398 21.8423 5.32637 23.3346 7.16732 23.3346Z" stroke="#222222" stroke-width="2" stroke-linecap="round" stroke-linejoin="round"/>
<path d="M10.5 20H30.5" stroke="#222222" stroke-width="2" stroke-linecap="round" stroke-linejoin="round"/>
<path d="M30.5007 6.66797H23.834C20.5007 6.66797 18.834 8.33464 18.834 11.668V28.3346C18.834 31.668 20.5007 33.3346 23.834 33.3346H30.5007" stroke="#222222" stroke-width="2" stroke-linecap="round" stroke-linejoin="round"/>
</svg>
