<svg width="40" height="41" viewBox="0 0 40 41" fill="none" xmlns="http://www.w3.org/2000/svg">
<path d="M26.6667 3.91406H13.3333C7.5 3.91406 5 7.2474 5 12.2474V28.9141C5 33.9141 7.5 37.2474 13.3333 37.2474H26.6667C32.5 37.2474 35 33.9141 35 28.9141V12.2474C35 7.2474 32.5 3.91406 26.6667 3.91406ZM13.3333 20.9974H20C20.6833 20.9974 21.25 21.5641 21.25 22.2474C21.25 22.9307 20.6833 23.4974 20 23.4974H13.3333C12.65 23.4974 12.0833 22.9307 12.0833 22.2474C12.0833 21.5641 12.65 20.9974 13.3333 20.9974ZM26.6667 30.1641H13.3333C12.65 30.1641 12.0833 29.5974 12.0833 28.9141C12.0833 28.2307 12.65 27.6641 13.3333 27.6641H26.6667C27.35 27.6641 27.9167 28.2307 27.9167 28.9141C27.9167 29.5974 27.35 30.1641 26.6667 30.1641ZM30.8333 15.9974H27.5C24.9667 15.9974 22.9167 13.9474 22.9167 11.4141V8.08073C22.9167 7.3974 23.4833 6.83073 24.1667 6.83073C24.85 6.83073 25.4167 7.3974 25.4167 8.08073V11.4141C25.4167 12.5641 26.35 13.4974 27.5 13.4974H30.8333C31.5167 13.4974 32.0833 14.0641 32.0833 14.7474C32.0833 15.4307 31.5167 15.9974 30.8333 15.9974Z" fill="#9B9B9B"/>
</svg>
