<svg width="78" height="79" viewBox="0 0 78 79" fill="none" xmlns="http://www.w3.org/2000/svg">
<path d="M30.6573 23.9486C32.6262 29.9704 33.3715 40.7119 39.1299 40.7119C39.5681 40.7119 40.0117 40.6696 40.4556 40.5848C35.2212 39.3652 34.6009 28.7392 31.4063 23.2379C31.1509 23.4703 30.9012 23.7085 30.6553 23.9506" fill="url(#paint0_linear_268_6550)"/>
<path d="M31.4082 23.2362C34.6028 28.7375 35.2231 39.3634 40.4575 40.5833C40.8683 40.5083 41.2815 40.3931 41.6944 40.2492C36.996 37.9478 35.6974 27.6292 32.071 22.6619C31.8464 22.8482 31.6275 23.0403 31.4102 23.2343" fill="url(#paint1_linear_268_6550)"/>
<path d="M36.0083 19.9651C35.5701 19.9651 35.1265 20.0074 34.6809 20.0918C33.515 20.3108 32.3316 20.8122 31.1387 21.5728C31.4654 21.8936 31.7745 22.2624 32.0667 22.6638C33.2806 21.6573 34.485 20.912 35.6873 20.4664C36.1252 20.3032 36.5769 20.1764 37.0377 20.0918C36.7015 20.0074 36.3559 19.9651 36.0083 19.967" fill="#14559A"/>
<path d="M45.359 38.1285C45.8604 37.7289 46.3425 37.3062 46.8036 36.8626C44.8019 30.8694 44.0874 19.9727 38.2884 19.9727C37.8736 19.9727 37.455 20.0111 37.0381 20.0879C42.3202 21.4017 42.9965 32.892 45.359 38.1265" fill="url(#paint2_linear_268_6550)"/>
<path d="M37.0382 20.0894C36.702 20.0049 36.3564 19.9626 36.0088 19.9645L38.2885 19.9722C37.8737 19.9722 37.4551 20.0107 37.0382 20.0894Z" fill="#3092C4"/>
<path d="M45.2595 39.4018C45.0329 39.1849 44.8176 38.9484 44.6065 38.6951C43.6305 39.3866 42.6585 39.9089 41.6943 40.2508C42.0383 40.4201 42.4031 40.5447 42.7798 40.6218C43.0852 40.6832 43.3943 40.714 43.7055 40.714C44.7889 40.714 45.6457 40.5853 46.3754 40.2356C45.9741 40.0184 45.6052 39.7363 45.2612 39.4039" fill="#1969BC"/>
<path d="M35.6875 20.4661C40.4186 22.9401 40.8294 34.1462 44.6041 38.6948C44.8615 38.5141 45.1128 38.3242 45.3588 38.1283C42.9963 32.8938 42.3199 21.4015 37.0399 20.0896C36.5787 20.1761 36.1274 20.3028 35.6875 20.4661Z" fill="url(#paint3_linear_268_6550)"/>
<path d="M32.0691 22.6639C35.6958 27.6311 36.9941 37.9479 41.6924 40.2509C42.6586 39.9111 43.6306 39.3868 44.6046 38.6952C40.8302 34.1445 40.4191 22.9405 35.688 20.4664C34.4873 20.912 33.2812 21.6573 32.0674 22.6639" fill="url(#paint4_linear_268_6550)"/>
<path d="M28.337 23.8026C27.7685 25.0876 27.1884 26.7779 26.4854 28.9831C27.8818 27.0161 29.2744 25.32 30.6573 23.9486C30.4671 23.3627 30.2617 22.8229 30.0407 22.3408C29.4473 22.798 28.8768 23.2859 28.337 23.8045" fill="url(#paint5_linear_268_6550)"/>
<path d="M30.5454 21.9702C30.3761 22.0912 30.2072 22.2141 30.042 22.3409C30.2629 22.823 30.4663 23.3628 30.6565 23.9486C30.9025 23.7066 31.1521 23.4703 31.4075 23.236C31.1406 22.775 30.8545 22.3505 30.5454 21.9683" fill="#2B74B1"/>
<path d="M31.1412 21.5725C30.9395 21.7012 30.7418 21.8338 30.5459 21.9701C30.855 22.3524 31.1391 22.7769 31.4081 23.2379C31.6253 23.0419 31.8442 22.8499 32.0689 22.6636C31.777 22.2621 31.4679 21.8933 31.1412 21.5725Z" fill="#125A9E"/>
<path d="M63.4096 19.5057C60.7336 29.8244 55.1461 38.1107 50.4613 40.2006H50.4535C50.369 40.2391 50.2842 40.2739 50.1998 40.3084C50.1883 40.3161 50.1768 40.3161 50.169 40.3199C50.144 40.3293 50.1211 40.3371 50.0981 40.3469C50.0866 40.3543 50.0768 40.3563 50.0653 40.3601C50.0251 40.3736 49.9866 40.3871 49.9481 40.4023C49.9309 40.4101 49.9157 40.4141 49.9001 40.4199C49.8809 40.4273 49.8619 40.433 49.8427 40.4388C49.8255 40.4465 49.8062 40.4506 49.7869 40.458C49.7697 40.4658 49.7525 40.4678 49.7369 40.4753C49.7025 40.4851 49.6717 40.4945 49.6369 40.506C49.6238 40.506 49.6102 40.5138 49.5947 40.5178C49.5738 40.5253 49.5508 40.5293 49.5275 40.5367C49.5123 40.5445 49.4988 40.5465 49.4815 40.5503C49.4586 40.558 49.4315 40.5638 49.4086 40.5695L49.3184 40.5888C49.5332 40.6675 49.7599 40.7077 49.9886 40.706C54.4315 40.706 58.9109 32.7442 66.3234 19.5038H63.4133L63.4096 19.5057Z" fill="url(#paint6_linear_268_6550)"/>
<path d="M25.5202 20.3833C25.5202 20.3833 25.526 20.3756 25.5279 20.3756C25.5318 20.3756 25.5375 20.3756 25.5394 20.3679H25.5452C25.5702 20.3602 25.5932 20.3487 25.6163 20.341C25.622 20.341 25.6259 20.341 25.6297 20.3333C25.6355 20.3333 25.6413 20.3257 25.6489 20.3257C25.6758 20.318 25.7008 20.3064 25.7258 20.2988H25.7296C25.7891 20.2815 25.8429 20.2584 25.9005 20.2392C25.9083 20.2392 25.9159 20.2315 25.9255 20.2315C25.9486 20.2238 25.9736 20.2162 25.9985 20.2104C26.01 20.2027 26.0216 20.2027 26.0312 20.1989C26.0562 20.1912 26.0811 20.1835 26.1042 20.1778C26.1157 20.1778 26.1253 20.1701 26.133 20.1701C26.2156 20.147 26.2963 20.1259 26.3769 20.1067C26.3885 20.1067 26.398 20.099 26.4096 20.099C26.4326 20.0913 26.4557 20.0875 26.4807 20.0856C26.4902 20.0779 26.5037 20.0779 26.5152 20.0759C26.5383 20.0683 26.5613 20.0683 26.5882 20.0625H26.6055C26.6554 20.0529 26.7054 20.0433 26.7534 20.0356H26.7841C26.8072 20.0279 26.8283 20.0279 26.8533 20.0241C26.8667 20.0241 26.8802 20.0164 26.8917 20.0164C26.9128 20.0164 26.9359 20.0087 26.957 20.0068C26.9685 20.0068 26.9801 20.0068 26.9935 19.9991C27.0454 19.9914 27.0992 19.9895 27.1529 19.9857C26.9954 19.9703 26.8379 19.9607 26.6804 19.9607C21.6766 19.9607 14.7847 29.2441 11.6787 41.2666H12.278C13.2711 39.4936 14.1643 37.8186 14.9806 36.2436C17.155 27.7285 21.5844 21.9219 25.5183 20.3833" fill="url(#paint7_linear_268_6550)"/>
<path d="M28.3369 23.8026C28.8786 23.2839 29.4472 22.7961 30.0406 22.3389C29.9197 22.07 29.7832 21.8087 29.6354 21.5552C29.1782 22.1103 28.7595 22.8441 28.3369 23.8026Z" fill="#0D82CA"/>
<path d="M28.747 20.4524C29.0735 20.7271 29.3655 21.1036 29.6344 21.555C29.7188 21.4513 29.8036 21.3552 29.8938 21.265C29.5211 20.9173 29.1196 20.633 28.6836 20.4198C28.7009 20.4294 28.7182 20.4371 28.7374 20.4448C28.7374 20.4448 28.745 20.4524 28.747 20.4524Z" fill="#0D82CA"/>
<path d="M14.9814 36.2439C19.5434 27.4522 21.7044 21.8895 25.5211 20.3835C21.5872 21.9241 17.1578 27.7307 14.9834 36.2439" fill="url(#paint8_linear_268_6550)"/>
<path d="M29.8923 21.2672C29.8038 21.3575 29.7193 21.4535 29.6348 21.5572C29.7845 21.8108 29.921 22.074 30.0419 22.341C30.2071 22.2142 30.3761 22.0913 30.5453 21.9703C30.3456 21.7205 30.1264 21.4862 29.894 21.2672" fill="#127BCA"/>
<path d="M17.0515 41.2265C17.0226 41.234 16.9957 41.234 16.9689 41.236H16.9535C16.9304 41.236 16.9055 41.2438 16.8824 41.2438H16.8709C16.8133 41.2512 16.7576 41.2512 16.7038 41.2552H16.6865C21.3042 41.1265 23.4152 38.8137 24.462 35.462C25.2573 32.9208 25.9123 30.7789 26.4847 28.9811C24.5504 31.7029 22.6084 34.9492 20.6549 38.5833C19.7138 40.335 18.2808 41.0671 17.0515 41.2245" fill="url(#paint9_linear_268_6550)"/>
<path d="M17.0517 41.2248C18.2791 41.0691 19.7121 40.3373 20.6533 38.5836C22.6068 34.9495 24.5507 31.7032 26.483 28.9814C27.186 26.7744 27.7661 25.0859 28.3347 23.8009C24.4834 27.4659 20.6168 33.5627 17.0498 41.2228" fill="url(#paint10_linear_268_6550)"/>
<path d="M14.9809 36.2441C14.1646 37.8175 13.2714 39.4941 12.2783 41.2671H14.0186C14.2376 39.5749 14.5603 37.8979 14.9809 36.2462" fill="#05A1E6"/>
<path d="M26.9938 20.0034C26.9804 20.0034 26.9688 20.0111 26.9573 20.0111C26.9362 20.0187 26.915 20.0187 26.892 20.0207C26.8786 20.0207 26.867 20.0207 26.8536 20.0283C26.8305 20.036 26.8075 20.036 26.7844 20.0399C26.7748 20.0399 26.7633 20.0399 26.7537 20.0476C26.7038 20.0552 26.6538 20.0648 26.6058 20.0745H26.5885C26.5635 20.0821 26.5405 20.086 26.5155 20.0879C26.504 20.0956 26.4906 20.0956 26.479 20.0975C26.456 20.1052 26.431 20.1071 26.408 20.1109C26.3964 20.1186 26.3868 20.1186 26.3753 20.1186C26.2927 20.1378 26.212 20.159 26.1313 20.182C26.1237 20.182 26.1141 20.1897 26.1025 20.1897C26.0775 20.1974 26.0545 20.2031 26.0295 20.2108C26.0199 20.2185 26.0065 20.2185 25.9969 20.2204C25.9719 20.2281 25.9489 20.2339 25.9239 20.2415C25.9143 20.2415 25.9066 20.2492 25.897 20.2492C25.8413 20.2704 25.7856 20.2915 25.728 20.3088C25.703 20.3165 25.6761 20.3261 25.6511 20.3357C25.6415 20.3434 25.6319 20.3434 25.6185 20.3491C25.5935 20.3568 25.5685 20.3664 25.5455 20.376C25.5378 20.3837 25.5282 20.3837 25.5224 20.3875C21.7077 21.8935 19.5448 27.4581 14.9828 36.2478C14.5622 37.9018 14.2395 39.5785 14.0205 41.2691H14.2644C14.9521 41.2691 15.1461 41.2613 15.9375 41.2613H16.7039C16.7577 41.2535 16.8153 41.2535 16.871 41.2498H16.8825C16.9056 41.2498 16.9305 41.242 16.9536 41.242H16.9709C16.9958 41.242 17.0247 41.2343 17.0535 41.2326C20.6205 33.5721 24.4852 27.4773 28.3384 23.8105C28.761 22.852 29.1797 22.1182 29.6369 21.5631C29.3698 21.1117 29.0779 20.7333 28.7494 20.4605C28.421 20.1878 28.7398 20.4605 28.7398 20.4529C28.7206 20.4452 28.7033 20.4356 28.6861 20.4279C28.6668 20.4183 28.6515 20.4106 28.6323 20.401C28.615 20.3933 28.5977 20.3856 28.5804 20.376C28.5573 20.3683 28.54 20.3587 28.5189 20.3491C28.5016 20.3414 28.4882 20.3357 28.4709 20.328C28.4363 20.3146 28.4037 20.3011 28.3691 20.2857C28.3537 20.2781 28.3403 20.2742 28.3268 20.2704C28.3019 20.2608 28.2769 20.2512 28.2519 20.2396C28.2404 20.232 28.225 20.232 28.2116 20.2262C28.1751 20.2147 28.1405 20.2012 28.1079 20.1897H28.0983C28.0579 20.1762 28.0176 20.1666 27.9772 20.1551C27.9676 20.1474 27.96 20.1474 27.9504 20.1474C27.9139 20.1378 27.8832 20.1282 27.8486 20.1186C27.8409 20.1186 27.8313 20.1109 27.8255 20.1109C27.741 20.0898 27.6565 20.0706 27.572 20.0552C27.5643 20.0552 27.5547 20.0476 27.5451 20.0476C27.5086 20.0399 27.4721 20.0341 27.4356 20.0303C27.426 20.0226 27.4221 20.0226 27.4145 20.0226C27.3703 20.0168 27.328 20.0111 27.2838 20.0053H27.2608C27.2262 19.9976 27.1936 19.9976 27.1609 19.9938C27.1052 20.0014 27.0533 20.0034 27.0015 20.0091" fill="url(#paint11_linear_268_6550)"/>
<path d="M52.9581 25.2183C52.08 28.0304 51.3696 30.3489 50.751 32.258C53.1598 28.9447 55.5317 24.7746 57.7908 19.9629C55.1554 20.7908 53.7493 22.6847 52.9581 25.2183Z" fill="url(#paint12_linear_268_6550)"/>
<path d="M50.8278 40.0262C50.7049 40.0898 50.5822 40.1492 50.4609 40.2009C55.1461 38.111 60.7356 29.8247 63.4093 19.506H62.8677C56.7211 30.4874 54.7444 37.8384 50.8278 40.0262Z" fill="url(#paint13_linear_268_6550)"/>
<path d="M47.768 39.1043C48.7879 37.8597 49.6176 35.7448 50.7511 32.2583C49.443 34.0542 48.1271 35.5988 46.8095 36.857C46.8095 36.857 46.8068 36.8607 46.8018 36.8684C47.0899 37.7289 47.4051 38.4894 47.7643 39.1022" fill="#079AE1"/>
<path d="M47.7674 39.1038C47.4197 39.5264 47.0528 39.849 46.6437 40.0892C46.5535 40.1409 46.4633 40.1909 46.3711 40.2352C46.8147 40.475 47.2988 40.6288 47.8001 40.6865C47.8768 40.6943 47.9539 40.7017 48.0346 40.7075H48.0478C48.0843 40.7075 48.1208 40.7075 48.1613 40.7152H48.5417C48.5549 40.7152 48.5704 40.7152 48.5839 40.7075C48.6106 40.7075 48.6397 40.7075 48.6684 40.7H48.7106C48.7393 40.7 48.7701 40.6923 48.8029 40.6902H48.8106C48.8106 40.6902 48.8299 40.6825 48.8393 40.6825C48.8721 40.675 48.9045 40.673 48.9373 40.6673H48.966C49.0025 40.6595 49.039 40.6558 49.0755 40.648H49.0927C49.166 40.6345 49.239 40.6193 49.312 40.6021C48.7069 40.3811 48.2015 39.8585 47.7657 39.1152" fill="#1969BC"/>
<path d="M39.1299 40.7116C39.5677 40.7116 40.0116 40.6694 40.4552 40.5829C40.8664 40.5079 41.2792 40.3947 41.692 40.2505C42.036 40.4194 42.4008 40.5444 42.7775 40.6211C43.0829 40.6826 43.392 40.7133 43.7032 40.7133H39.1299V40.7116Z" fill="#1E5CB3"/>
<path d="M43.7029 40.7121C44.7864 40.7121 45.6431 40.5834 46.3708 40.2338C46.8148 40.474 47.2989 40.6273 47.8002 40.6851C47.8769 40.6929 47.9536 40.7003 48.0344 40.7064H48.0479C48.0844 40.7064 48.1208 40.7064 48.161 40.7138H48.2918H43.6992H43.7029V40.7121Z" fill="#1E5CB3"/>
<path d="M48.2959 40.7119H48.5456C48.5608 40.7119 48.5743 40.7119 48.5878 40.7041C48.6145 40.7041 48.6435 40.7041 48.6722 40.6964H48.7145C48.7432 40.6964 48.7739 40.6886 48.8047 40.6869H48.8125C48.8125 40.6869 48.8317 40.6791 48.8395 40.6791C48.8719 40.6714 48.9047 40.6697 48.9375 40.6636C48.9469 40.6636 48.9567 40.6636 48.9682 40.6562C49.0047 40.6484 49.0412 40.6464 49.0777 40.6389H49.0949C49.1679 40.6254 49.2408 40.6099 49.3138 40.5927C49.529 40.6714 49.7557 40.7119 49.9841 40.7099L48.2959 40.7176V40.7099V40.7119Z" fill="#1D60B5"/>
<path d="M46.8058 36.868V36.8602C46.3429 37.3041 45.8625 37.7264 45.3612 38.1261C45.1152 38.3221 44.8639 38.5102 44.6064 38.6927C44.8176 38.9464 45.0328 39.1825 45.2595 39.3998C45.6034 39.7339 45.972 40.0143 46.3737 40.2315C46.4656 40.1873 46.5561 40.1373 46.6443 40.0852C47.0534 39.8471 47.4203 39.5244 47.7679 39.1001C47.4088 38.4873 47.0939 37.7264 46.8058 36.866" fill="#175FAB"/>
<path d="M61.1498 19.5058H58.4204C58.2725 19.5134 58.1302 19.5173 57.9883 19.5269C57.9211 19.6709 57.8539 19.8131 57.7867 19.9572C55.5275 24.7689 53.1556 28.939 50.7468 32.2524C49.6133 35.7389 48.7836 37.8534 47.7637 39.0963C48.1998 39.8395 48.7069 40.3622 49.31 40.5831C49.3272 40.5754 49.3427 40.5754 49.3579 40.5716H49.3674C49.3772 40.5716 49.3887 40.5639 49.4002 40.5639C49.4252 40.5561 49.4522 40.5524 49.4752 40.5446C49.4904 40.5368 49.5039 40.5368 49.5194 40.5311C49.5424 40.5237 49.5654 40.5196 49.5866 40.5139C49.5998 40.5061 49.6154 40.5044 49.6289 40.5024C49.6633 40.4909 49.6961 40.4831 49.7285 40.4716C49.7441 40.4639 49.7613 40.4581 49.7785 40.4544C49.7978 40.4466 49.8171 40.4429 49.8343 40.4331C49.8556 40.4257 49.8745 40.4216 49.8921 40.4139C49.9073 40.4064 49.9245 40.4024 49.94 40.3966C49.9802 40.3831 50.0187 40.37 50.0573 40.3544C50.0687 40.3544 50.0782 40.345 50.0897 40.3429C50.1127 40.3335 50.1377 40.3257 50.161 40.3142C50.1684 40.3064 50.1799 40.3064 50.1917 40.3027C50.2741 40.2679 50.3586 40.2335 50.4451 40.195H50.4549C50.5775 40.1392 50.7005 40.0818 50.8214 40.0203C54.7383 37.8325 56.7147 30.4814 62.8613 19.5H61.1441H61.1461L61.1498 19.5058Z" fill="url(#paint14_linear_268_6550)"/>
<path d="M27.1552 19.9881C27.1648 19.9881 27.1745 19.9881 27.1841 19.9958C27.2071 19.9958 27.2321 19.9958 27.2551 20.0035H27.2782C27.3204 20.0112 27.3646 20.015 27.4088 20.0208C27.4165 20.0208 27.4242 20.0208 27.4299 20.0285C27.4664 20.0361 27.5029 20.0419 27.5394 20.0477C27.5471 20.0477 27.5586 20.0554 27.5663 20.0554C27.6508 20.0726 27.7373 20.0899 27.8198 20.111C27.8275 20.111 27.8352 20.1187 27.8429 20.1187C27.8775 20.1264 27.9101 20.1379 27.9447 20.1476C27.9562 20.1476 27.9639 20.1552 27.9735 20.1552C28.0158 20.1648 28.0542 20.1764 28.0945 20.1898C28.0945 20.1898 28.0984 20.1898 28.1041 20.1975C28.1387 20.2071 28.1733 20.2205 28.2098 20.234C28.2232 20.2417 28.2367 20.2436 28.2501 20.2474C28.2751 20.2589 28.302 20.2686 28.325 20.2782C28.3385 20.2782 28.3538 20.2878 28.3673 20.2935C28.3999 20.3089 28.4345 20.3224 28.4672 20.3358C28.4845 20.3435 28.4998 20.3512 28.5171 20.3569C28.5363 20.3665 28.5555 20.3761 28.5767 20.3819C28.594 20.3896 28.6132 20.3992 28.6304 20.4068C28.6496 20.4165 28.6669 20.4241 28.6842 20.4337C29.1202 20.6489 29.5217 20.9332 29.8923 21.2808C30.0251 21.1406 30.169 21.01 30.3207 20.8909C29.5083 20.3147 28.5882 19.9862 27.524 19.9862C27.4011 19.9862 27.2782 19.9939 27.1533 20.0035" fill="#7DCBEC"/>
<path d="M29.8923 21.2672C30.1268 21.4862 30.3437 21.7206 30.5437 21.9703C30.7396 21.8339 30.9372 21.7013 31.1389 21.5727C30.8856 21.3172 30.6126 21.0848 30.319 20.8773C30.167 20.9964 30.0231 21.127 29.8906 21.2672" fill="#5EC5ED"/>
<path d="M27.1552 19.9881C27.28 19.9785 27.403 19.9728 27.5259 19.9728C28.5881 19.9728 29.5082 20.3012 30.3227 20.8775C31.1811 20.2013 32.2166 19.9651 33.6571 19.9651H26.6826C26.844 19.9651 27.0015 19.9747 27.1552 19.9881Z" fill="url(#paint15_linear_268_6550)"/>
<path d="M33.6548 19.9651C32.2142 19.9651 31.1791 20.2013 30.3203 20.8775C30.6122 21.0849 30.8869 21.3174 31.1386 21.5728C32.3335 20.8141 33.5146 20.3108 34.6808 20.0918C35.1186 20.0092 35.5622 19.967 36.0061 19.9651H33.6531H33.6548Z" fill="url(#paint16_linear_268_6550)"/>
<path d="M50.7511 32.2599C51.3696 30.3505 52.0801 28.0302 52.9598 25.2181C53.7534 22.6845 55.1554 20.7887 57.7909 19.9627C57.8602 19.8206 57.9254 19.6746 57.9946 19.5325C53.6994 19.7899 51.6902 21.9758 50.6801 25.2104C48.9129 30.8596 47.8429 34.5228 46.8115 36.8566C48.1271 35.5985 49.445 34.0539 50.7511 32.2599Z" fill="url(#paint17_linear_268_6550)"/>
<path d="M57.0528 39.2077H56.5667V40.7212H56.3687V39.2077H55.8809V39.027H57.0545V39.2077H57.0528ZM59.0464 40.7212H58.8488V39.5841C58.8488 39.4939 58.8562 39.3844 58.864 39.2557C58.843 39.3324 58.8275 39.3864 58.8123 39.4209L58.2359 40.7212H58.14L57.5616 39.4304C57.5444 39.3939 57.5271 39.3364 57.5099 39.2557H57.5021C57.5099 39.3229 57.5116 39.4344 57.5116 39.5861V40.7212H57.3217V39.027H57.5829L58.1015 40.2084C58.14 40.2969 58.165 40.3658 58.1782 40.4121H58.1859C58.2204 40.3179 58.2474 40.2486 58.2687 40.2047L58.7988 39.029H59.0484V40.7212H59.0464Z" fill="black"/>
<path d="M2 57.9322C2 56.9602 2.66652 56.2572 3.62118 56.2572C4.57585 56.2572 5.22315 56.941 5.22315 57.9322C5.22315 58.9231 4.57392 59.5896 3.60196 59.5896C2.63003 59.5896 2 58.8866 2 57.9322Z" fill="black"/>
<path d="M6.96973 59.3899V47.2504H10.1756L12.6976 51.699C13.4179 52.9781 14.1383 54.4899 14.678 55.8595H14.7318C14.5513 54.2575 14.4975 52.6173 14.4975 50.798V47.2504H17.0195V59.3899H14.1383L11.5451 54.7071C10.8248 53.4105 10.0315 51.8429 9.43801 50.4196L9.38422 50.4369C9.45527 52.0389 9.49179 53.7504 9.49179 55.7328V59.3882H6.96973V59.3899Z" fill="black"/>
<path d="M26.6178 54.2575H22.1519V57.1389H27.1403V59.3899H19.3955V47.2504H26.8887V49.5014H22.1519V52.0237H26.6178V54.2575Z" fill="black"/>
<path d="M31.4441 49.557H28.1846V47.252H37.514V49.557H34.2005V59.3918H31.4441V49.557Z" fill="black"/>
<path d="M53.2002 54.0598C53.11 52.3673 53.0026 50.3314 53.0198 48.8196H52.9661C52.5513 50.2429 52.0479 51.7548 51.435 53.4298L49.2915 59.319H48.1026L46.1394 53.5372C45.5631 51.8257 45.0773 50.2585 44.7354 48.8176H44.6989C44.6624 50.3314 44.5719 52.3656 44.4644 54.1845L44.1398 59.3899H42.6455L43.4925 47.2504H45.4921L47.5627 53.1223C48.0678 54.6166 48.481 55.9497 48.7881 57.2098H48.8421C49.1475 55.9845 49.5796 54.6531 50.1212 53.1223L52.2823 47.2504H54.2817L55.0384 59.3899H53.5077L53.2023 54.0598H53.2002Z" fill="black"/>
<path d="M60.1152 59.3899L56.1523 47.2504H57.8446L59.7348 53.2298C60.2571 54.8683 60.7067 56.3453 61.0314 57.769H61.0679C61.4098 56.3646 61.9149 54.8338 62.4547 53.249L64.5081 47.2524H66.1831L61.8419 59.3919H60.1132L60.1152 59.3899Z" fill="black"/>
<path d="M75.981 58.9943C75.4047 59.2825 74.2523 59.5707 72.7753 59.5707C69.3543 59.5707 66.7783 57.4095 66.7783 53.4294C66.7783 49.4497 69.3543 47.0544 73.1192 47.0544C74.6327 47.0544 75.5854 47.3791 76.0003 47.594L75.6219 48.8734C75.0263 48.5852 74.1814 48.3683 73.1729 48.3683C70.328 48.3683 68.4361 50.1872 68.4361 53.3757C68.4361 56.3474 70.1476 58.2568 73.1 58.2568C74.0543 58.2568 75.0263 58.0588 75.6564 57.7514L75.981 58.9943Z" fill="black"/>
<defs>
<linearGradient id="paint0_linear_268_6550" x1="35.7002" y1="20.3712" x2="35.7002" y2="46.101" gradientUnits="userSpaceOnUse">
<stop stop-color="#0994DC"/>
<stop offset="0.35" stop-color="#66CEF5"/>
<stop offset="0.85" stop-color="#127BCA"/>
<stop offset="1" stop-color="#127BCA"/>
</linearGradient>
<linearGradient id="paint1_linear_268_6550" x1="36.5285" y1="18.6534" x2="36.5285" y2="46.4276" gradientUnits="userSpaceOnUse">
<stop stop-color="#0E76BC"/>
<stop offset="0.36" stop-color="#36AEE8"/>
<stop offset="0.85" stop-color="#00ADEF"/>
<stop offset="1" stop-color="#00ADEF"/>
</linearGradient>
<linearGradient id="paint2_linear_268_6550" x1="41.7661" y1="41.0258" x2="41.7661" y2="18.5156" gradientUnits="userSpaceOnUse">
<stop stop-color="#1C63B7"/>
<stop offset="0.5" stop-color="#33BDF2"/>
<stop offset="1" stop-color="#33BDF2" stop-opacity="0.42"/>
</linearGradient>
<linearGradient id="paint3_linear_268_6550" x1="40.6669" y1="16.7805" x2="40.6669" y2="44.1752" gradientUnits="userSpaceOnUse">
<stop stop-color="#166AB8"/>
<stop offset="0.4" stop-color="#36AEE8"/>
<stop offset="0.85" stop-color="#0798DD"/>
<stop offset="1" stop-color="#0798DD"/>
</linearGradient>
<linearGradient id="paint4_linear_268_6550" x1="38.0833" y1="15.5195" x2="38.0833" y2="46.1824" gradientUnits="userSpaceOnUse">
<stop stop-color="#124379"/>
<stop offset="0.39" stop-color="#1487CB"/>
<stop offset="0.78" stop-color="#165197"/>
<stop offset="1" stop-color="#165197"/>
</linearGradient>
<linearGradient id="paint5_linear_268_6550" x1="26.4345" y1="25.6874" x2="30.6377" y2="25.6874" gradientUnits="userSpaceOnUse">
<stop stop-color="#33BDF2" stop-opacity="0.7"/>
<stop offset="1" stop-color="#1DACD8"/>
</linearGradient>
<linearGradient id="paint6_linear_268_6550" x1="57.664" y1="39.9996" x2="57.664" y2="18.6407" gradientUnits="userSpaceOnUse">
<stop stop-color="#136AB4"/>
<stop offset="0.6" stop-color="#59CAF5" stop-opacity="0.55"/>
<stop offset="1" stop-color="#59CAF5" stop-opacity="0.23"/>
</linearGradient>
<linearGradient id="paint7_linear_268_6550" x1="11.0998" y1="30.0474" x2="26.6889" y2="30.0474" gradientUnits="userSpaceOnUse">
<stop stop-color="#05A1E6" stop-opacity="0.25"/>
<stop offset="1" stop-color="#05A1E6"/>
</linearGradient>
<linearGradient id="paint8_linear_268_6550" x1="20.5925" y1="40.08" x2="20.5925" y2="19.1848" gradientUnits="userSpaceOnUse">
<stop stop-color="#318ED5"/>
<stop offset="1" stop-color="#38A7E4"/>
</linearGradient>
<linearGradient id="paint9_linear_268_6550" x1="21.6079" y1="40.2786" x2="21.6079" y2="20.3042" gradientUnits="userSpaceOnUse">
<stop stop-color="#05A1E6"/>
<stop offset="1" stop-color="#05A1E6" stop-opacity="0.55"/>
</linearGradient>
<linearGradient id="paint10_linear_268_6550" x1="22.2695" y1="41.1988" x2="22.2695" y2="23.6462" gradientUnits="userSpaceOnUse">
<stop stop-color="#1959A6"/>
<stop offset="0.5" stop-color="#05A1E6"/>
<stop offset="0.92" stop-color="#7EC5EA"/>
<stop offset="1" stop-color="#7EC5EA"/>
</linearGradient>
<linearGradient id="paint11_linear_268_6550" x1="22.9679" y1="40.8556" x2="18.5783" y2="21.5219" gradientUnits="userSpaceOnUse">
<stop stop-color="#165096"/>
<stop offset="1" stop-color="#0D82CA"/>
</linearGradient>
<linearGradient id="paint12_linear_268_6550" x1="54.3746" y1="29.2871" x2="54.3746" y2="19.7592" gradientUnits="userSpaceOnUse">
<stop stop-color="#05A1E6"/>
<stop offset="0.87" stop-color="#0495D6"/>
<stop offset="1" stop-color="#0495D6"/>
</linearGradient>
<linearGradient id="paint13_linear_268_6550" x1="59.0245" y1="19.1396" x2="49.8484" y2="39.235" gradientUnits="userSpaceOnUse">
<stop stop-color="#38A7E4" stop-opacity="0.33"/>
<stop offset="0.96" stop-color="#0E88D3"/>
<stop offset="1" stop-color="#0E88D3"/>
</linearGradient>
<linearGradient id="paint14_linear_268_6550" x1="54.9927" y1="19.2434" x2="54.9927" y2="42.1125" gradientUnits="userSpaceOnUse">
<stop stop-color="#168CD4"/>
<stop offset="0.5" stop-color="#1C87CC"/>
<stop offset="1" stop-color="#154B8D"/>
</linearGradient>
<linearGradient id="paint15_linear_268_6550" x1="27.8046" y1="19.1012" x2="27.8959" y2="21.3473" gradientUnits="userSpaceOnUse">
<stop stop-color="#97D6EE"/>
<stop offset="0.7" stop-color="#55C1EA"/>
<stop offset="1" stop-color="#55C1EA"/>
</linearGradient>
<linearGradient id="paint16_linear_268_6550" x1="30.7548" y1="21.3591" x2="31.1886" y2="18.9725" gradientUnits="userSpaceOnUse">
<stop stop-color="#7ACCEC"/>
<stop offset="1" stop-color="#3FB7ED"/>
</linearGradient>
<linearGradient id="paint17_linear_268_6550" x1="52.3517" y1="20.5337" x2="52.3517" y2="42.0144" gradientUnits="userSpaceOnUse">
<stop stop-color="#1DA7E7"/>
<stop offset="1" stop-color="#37ABE7" stop-opacity="0"/>
</linearGradient>
</defs>
</svg>
