<svg width="40" height="40" viewBox="0 0 40 40" fill="none" xmlns="http://www.w3.org/2000/svg">
<path d="M20.2471 37.5058C30.0517 37.5058 38 29.5576 38 19.7529C38 9.94825 30.0517 2 20.2471 2C10.4424 2 2.49414 9.94825 2.49414 19.7529C2.49414 29.5576 10.4424 37.5058 20.2471 37.5058Z" fill="#5C2D91"/>
<path opacity="0.1" d="M7.94209 6.99316C6.13737 8.60136 4.6801 10.5612 3.65959 12.7525C2.63909 14.9438 2.07685 17.3205 2.00734 19.7368C1.93783 22.1531 2.36252 24.5581 3.25537 26.8044C4.14822 29.0508 5.49043 31.0912 7.19971 32.8004C8.90899 34.5097 10.9493 35.8519 13.1957 36.7448C15.4421 37.6376 17.8471 38.0623 20.2634 37.9928C22.6797 37.9233 25.0563 37.3611 27.2476 36.3406C29.439 35.3201 31.3988 33.8628 33.007 32.0581L7.94209 6.99316Z" fill="white"/>
<path d="M6.59871 24.8844C6.49515 24.886 6.39238 24.8662 6.29689 24.8261C6.2014 24.786 6.11527 24.7265 6.04393 24.6514C5.97064 24.579 5.91272 24.4925 5.87363 24.3972C5.83455 24.3019 5.81511 24.1996 5.81647 24.0966C5.81573 23.9937 5.83546 23.8916 5.87451 23.7964C5.91356 23.7011 5.97115 23.6146 6.04393 23.5418C6.11457 23.4655 6.20044 23.4048 6.29601 23.3637C6.39157 23.3226 6.4947 23.302 6.59871 23.3033C6.70258 23.303 6.80539 23.3241 6.90081 23.3651C6.99623 23.4061 7.08223 23.4663 7.15349 23.5418C7.22753 23.614 7.28631 23.7003 7.32634 23.7956C7.36637 23.8909 7.38682 23.9932 7.3865 24.0966C7.38747 24.2001 7.3673 24.3026 7.32723 24.398C7.28717 24.4934 7.22805 24.5796 7.15349 24.6514C7.08155 24.7257 6.9953 24.7846 6.89995 24.8247C6.8046 24.8647 6.70213 24.885 6.59871 24.8844Z" fill="white"/>
<path d="M17.6227 24.7459H16.1691L10.9709 16.6795C10.8416 16.4806 10.7337 16.2686 10.6491 16.047H10.6047C10.6541 16.5076 10.6727 16.9709 10.6602 17.434V24.7459H9.47852V14.6323H11.0153L16.0748 22.5546C16.2856 22.8837 16.4225 23.1093 16.4854 23.2314H16.5131C16.4546 22.7381 16.4305 22.2413 16.441 21.7446V14.6323H17.6227V24.7459Z" fill="white"/>
<path d="M25.6239 24.7459H20.248V14.6323H25.3742V15.703H21.4575V19.065H25.1079V20.1302H21.4575V23.6364H25.6294L25.6239 24.7459Z" fill="white"/>
<path d="M33.5622 15.703H30.6219V24.7459H29.4402V15.703H26.5332V14.6323H33.5622V15.703Z" fill="white"/>
</svg>
