<svg width="500" height="500" viewBox="0 0 500 500" fill="none" xmlns="http://www.w3.org/2000/svg">
<path d="M92.4987 204.132H79.9177V190.56H66.3457V177.979H79.9177V164.406H92.4987V177.979H106.072V190.56H92.4987V204.132ZM81.7077 202.342H90.7077V188.77H104.281V179.77H90.7077V166.197H81.7077V179.77H68.1357V188.77H81.7077V202.342Z" fill="#EBEBEB"/>
<path d="M424.446 126.851H415.91V117.643H406.702V109.107H415.91V99.8984H424.446V109.107H433.655V117.643H424.446V126.851ZM417.125 125.637H423.231V116.429H432.44V110.323H423.231V101.114H417.125V110.323H407.917V116.429H417.125V125.637Z" fill="#EBEBEB"/>
<path d="M408.663 62.4957V75.0807H395.088V88.6567H382.512V75.0807H368.936V62.4957H382.512V48.9297H395.088V62.4957H408.663Z" fill="#EBEBEB"/>
<path d="M375.735 402.812H446.351V296.88H375.735V402.812Z" fill="#EBEBEB"/>
<path d="M367.205 296.883H454.88V268.44H367.205V296.883Z" fill="#DBDBDB"/>
<path d="M449.593 292.477H450.969C451.276 292.477 451.524 292.229 451.524 291.922V272.875C451.524 272.568 451.275 272.32 450.969 272.32H449.593C449.286 272.32 449.038 272.569 449.038 272.875V291.922C449.038 292.229 449.286 292.477 449.593 292.477Z" fill="#C7C7C7"/>
<path d="M444.977 292.477H446.353C446.66 292.477 446.908 292.229 446.908 291.922V272.875C446.908 272.568 446.659 272.32 446.353 272.32H444.977C444.67 272.32 444.422 272.569 444.422 272.875V291.922C444.422 292.229 444.671 292.477 444.977 292.477Z" fill="#C7C7C7"/>
<path d="M440.361 292.477H441.737C442.043 292.477 442.292 292.229 442.292 291.922V272.875C442.292 272.568 442.043 272.32 441.737 272.32H440.361C440.054 272.32 439.806 272.569 439.806 272.875V291.922C439.806 292.229 440.054 292.477 440.361 292.477Z" fill="#C7C7C7"/>
<path d="M435.744 292.477H437.12C437.427 292.477 437.675 292.229 437.675 291.922V272.875C437.675 272.568 437.426 272.32 437.12 272.32H435.744C435.437 272.32 435.189 272.569 435.189 272.875V291.922C435.189 292.229 435.437 292.477 435.744 292.477Z" fill="#C7C7C7"/>
<path d="M431.127 292.477H432.503C432.809 292.477 433.058 292.229 433.058 291.922V272.875C433.058 272.568 432.809 272.32 432.503 272.32H431.127C430.82 272.32 430.572 272.569 430.572 272.875V291.922C430.572 292.229 430.821 292.477 431.127 292.477Z" fill="#C7C7C7"/>
<path d="M426.511 292.477H427.887C428.194 292.477 428.442 292.229 428.442 291.922V272.875C428.442 272.568 428.193 272.32 427.887 272.32H426.511C426.205 272.32 425.956 272.569 425.956 272.875V291.922C425.956 292.229 426.205 292.477 426.511 292.477Z" fill="#C7C7C7"/>
<path d="M421.896 292.477H423.272C423.579 292.477 423.827 292.229 423.827 291.922V272.875C423.827 272.568 423.578 272.32 423.272 272.32H421.896C421.589 272.32 421.341 272.569 421.341 272.875V291.922C421.341 292.229 421.589 292.477 421.896 292.477Z" fill="#C7C7C7"/>
<path d="M417.279 292.477H418.655C418.962 292.477 419.21 292.229 419.21 291.922V272.875C419.21 272.568 418.962 272.32 418.655 272.32H417.279C416.973 272.32 416.724 272.569 416.724 272.875V291.922C416.724 292.229 416.973 292.477 417.279 292.477Z" fill="#C7C7C7"/>
<path d="M412.662 292.477H414.038C414.344 292.477 414.593 292.229 414.593 291.922V272.875C414.593 272.568 414.344 272.32 414.038 272.32H412.662C412.356 272.32 412.107 272.569 412.107 272.875V291.922C412.107 292.229 412.356 292.477 412.662 292.477Z" fill="#C7C7C7"/>
<path d="M408.046 292.477H409.422C409.728 292.477 409.977 292.229 409.977 291.922V272.875C409.977 272.568 409.728 272.32 409.422 272.32H408.046C407.739 272.32 407.491 272.569 407.491 272.875V291.922C407.491 292.229 407.739 292.477 408.046 292.477Z" fill="#C7C7C7"/>
<path d="M403.431 292.477H404.807C405.114 292.477 405.362 292.229 405.362 291.922V272.875C405.362 272.568 405.114 272.32 404.807 272.32H403.431C403.124 272.32 402.876 272.569 402.876 272.875V291.922C402.875 292.229 403.124 292.477 403.431 292.477Z" fill="#C7C7C7"/>
<path d="M398.814 292.477H400.19C400.497 292.477 400.745 292.229 400.745 291.922V272.875C400.745 272.568 400.496 272.32 400.19 272.32H398.814C398.507 272.32 398.259 272.569 398.259 272.875V291.922C398.259 292.229 398.508 292.477 398.814 292.477Z" fill="#C7C7C7"/>
<path d="M394.198 292.477H395.574C395.88 292.477 396.129 292.229 396.129 291.922V272.875C396.129 272.568 395.88 272.32 395.574 272.32H394.198C393.891 272.32 393.643 272.569 393.643 272.875V291.922C393.643 292.229 393.891 292.477 394.198 292.477Z" fill="#C7C7C7"/>
<path d="M389.581 292.477H390.957C391.264 292.477 391.512 292.229 391.512 291.922V272.875C391.512 272.568 391.263 272.32 390.957 272.32H389.581C389.274 272.32 389.026 272.569 389.026 272.875V291.922C389.026 292.229 389.274 292.477 389.581 292.477Z" fill="#C7C7C7"/>
<path d="M384.965 292.477H386.341C386.648 292.477 386.896 292.229 386.896 291.922V272.875C386.896 272.568 386.647 272.32 386.341 272.32H384.965C384.658 272.32 384.41 272.569 384.41 272.875V291.922C384.409 292.229 384.658 292.477 384.965 292.477Z" fill="#C7C7C7"/>
<path d="M380.349 292.477H381.725C382.032 292.477 382.28 292.229 382.28 291.922V272.875C382.28 272.568 382.032 272.32 381.725 272.32H380.349C380.042 272.32 379.794 272.569 379.794 272.875V291.922C379.794 292.229 380.043 292.477 380.349 292.477Z" fill="#C7C7C7"/>
<path d="M375.733 292.477H377.109C377.416 292.477 377.664 292.229 377.664 291.922V272.875C377.664 272.568 377.415 272.32 377.109 272.32H375.733C375.426 272.32 375.178 272.569 375.178 272.875V291.922C375.178 292.229 375.426 292.477 375.733 292.477Z" fill="#C7C7C7"/>
<path d="M371.117 292.477H372.493C372.8 292.477 373.048 292.229 373.048 291.922V272.875C373.048 272.568 372.799 272.32 372.493 272.32H371.117C370.81 272.32 370.562 272.569 370.562 272.875V291.922C370.562 292.229 370.81 292.477 371.117 292.477Z" fill="#C7C7C7"/>
<path d="M387.536 374.383H434.55V327.369H387.536V374.383Z" fill="white"/>
<path d="M457.481 414.597V414.572C457.481 409.667 453.491 405.703 448.586 405.703H430.975C426.07 405.703 422.08 409.667 422.08 414.572V414.597C422.08 419.502 426.07 423.491 430.975 423.491H448.586C453.491 423.492 457.481 419.502 457.481 414.597Z" fill="#DBDBDB"/>
<path d="M457.482 414.597V414.572C457.482 409.667 453.492 405.703 448.587 405.703H439.769V423.492H448.587C453.492 423.492 457.482 419.502 457.482 414.597Z" fill="#EBEBEB"/>
<path d="M347.396 400.386V400.412C347.396 405.317 351.386 409.281 356.291 409.281H373.902C378.807 409.281 382.797 405.317 382.797 400.412V400.386C382.797 395.481 378.807 391.492 373.902 391.492H356.291C351.386 391.491 347.396 395.481 347.396 400.386Z" fill="#DBDBDB"/>
<path d="M347.396 400.386V400.412C347.396 405.317 351.386 409.281 356.291 409.281H365.109V391.492H356.291C351.386 391.491 347.396 395.481 347.396 400.386Z" fill="#EBEBEB"/>
<path d="M327.413 404.008L327.432 404.026C330.9 407.494 336.525 407.476 339.993 404.008L352.446 391.555C355.914 388.087 355.931 382.462 352.463 378.994L352.446 378.976C348.978 375.508 343.335 375.508 339.867 378.976L327.413 391.429C323.945 394.898 323.945 400.54 327.413 404.008Z" fill="#DBDBDB"/>
<path d="M327.413 404.01L327.432 404.028C330.9 407.496 336.525 407.478 339.993 404.01L346.229 397.774L333.649 385.195L327.413 391.431C323.945 394.9 323.945 400.542 327.413 404.01Z" fill="#EBEBEB"/>
<path d="M407.964 418.175V418.15C407.964 413.245 403.974 409.281 399.069 409.281H381.458C376.553 409.281 372.562 413.245 372.562 418.15V418.175C372.562 423.08 376.553 427.07 381.458 427.07H399.069C403.974 427.07 407.964 423.08 407.964 418.175Z" fill="#DBDBDB"/>
<path d="M407.964 418.175V418.15C407.964 413.245 403.974 409.281 399.069 409.281H390.251V427.07H399.069C403.974 427.07 407.964 423.08 407.964 418.175Z" fill="#EBEBEB"/>
<path d="M45.6916 402.369H121.379C123.132 402.369 124.553 400.948 124.553 399.195V271.092C124.553 266.411 120.759 262.617 116.078 262.617H50.9926C46.3116 262.617 42.5176 266.411 42.5176 271.092V399.195C42.5176 400.948 43.9386 402.369 45.6916 402.369Z" fill="#EBEBEB"/>
<path d="M59.7872 266.641H107.283V244.878H59.7872V266.641Z" fill="#EBEBEB"/>
<path d="M42.5187 363.453H124.553V308.144H42.5187V363.453Z" fill="white"/>
<path d="M42.5178 357.141H124.552V352.134H42.5178V357.141Z" fill="#DBDBDB"/>
<path d="M42.5178 319.453H124.552V314.446H42.5178V319.453Z" fill="#DBDBDB"/>
<path d="M56.4758 249.797H110.593V229.644H56.4758V249.797Z" fill="#DBDBDB"/>
<path d="M53.6366 255.766H113.433V249.798H53.6366V255.766Z" fill="#C7C7C7"/>
<path d="M105.928 246.977H107.304C107.611 246.977 107.859 246.729 107.859 246.422V233.008C107.859 232.701 107.611 232.453 107.304 232.453H105.928C105.621 232.453 105.373 232.702 105.373 233.008V246.422C105.373 246.729 105.621 246.977 105.928 246.977Z" fill="#C7C7C7"/>
<path d="M101.312 246.977H102.688C102.995 246.977 103.243 246.729 103.243 246.422V233.008C103.243 232.701 102.995 232.453 102.688 232.453H101.312C101.005 232.453 100.757 232.702 100.757 233.008V246.422C100.757 246.729 101.005 246.977 101.312 246.977Z" fill="#C7C7C7"/>
<path d="M96.6946 246.977H98.0706C98.3766 246.977 98.6256 246.729 98.6256 246.422V233.008C98.6256 232.701 98.3766 232.453 98.0706 232.453H96.6946C96.3876 232.453 96.1396 232.702 96.1396 233.008V246.422C96.1396 246.729 96.3886 246.977 96.6946 246.977Z" fill="#C7C7C7"/>
<path d="M92.0794 246.977H93.4554C93.7624 246.977 94.0104 246.729 94.0104 246.422V233.008C94.0104 232.701 93.7614 232.453 93.4554 232.453H92.0794C91.7724 232.453 91.5244 232.702 91.5244 233.008V246.422C91.5244 246.729 91.7724 246.977 92.0794 246.977Z" fill="#C7C7C7"/>
<path d="M87.4632 246.977H88.8392C89.1462 246.977 89.3942 246.729 89.3942 246.422V233.008C89.3942 232.701 89.1462 232.453 88.8392 232.453H87.4632C87.1562 232.453 86.9082 232.702 86.9082 233.008V246.422C86.9082 246.729 87.1562 246.977 87.4632 246.977Z" fill="#C7C7C7"/>
<path d="M82.846 246.977H84.222C84.529 246.977 84.777 246.729 84.777 246.422V233.008C84.777 232.701 84.528 232.453 84.222 232.453H82.846C82.539 232.453 82.291 232.702 82.291 233.008V246.422C82.291 246.729 82.54 246.977 82.846 246.977Z" fill="#C7C7C7"/>
<path d="M78.2298 246.977H79.6058C79.9128 246.977 80.1608 246.729 80.1608 246.422V233.008C80.1608 232.701 79.9118 232.453 79.6058 232.453H78.2298C77.9228 232.453 77.6748 232.702 77.6748 233.008V246.422C77.6748 246.729 77.9228 246.977 78.2298 246.977Z" fill="#C7C7C7"/>
<path d="M73.6136 246.977H74.9896C75.2966 246.977 75.5446 246.729 75.5446 246.422V233.008C75.5446 232.701 75.2956 232.453 74.9896 232.453H73.6136C73.3066 232.453 73.0586 232.702 73.0586 233.008V246.422C73.0586 246.729 73.3066 246.977 73.6136 246.977Z" fill="#C7C7C7"/>
<path d="M68.9974 246.977H70.3734C70.6804 246.977 70.9284 246.729 70.9284 246.422V233.008C70.9284 232.701 70.6804 232.453 70.3734 232.453H68.9974C68.6904 232.453 68.4424 232.702 68.4424 233.008V246.422C68.4424 246.729 68.6914 246.977 68.9974 246.977Z" fill="#C7C7C7"/>
<path d="M64.3812 246.977H65.7572C66.0642 246.977 66.3122 246.729 66.3122 246.422V233.008C66.3122 232.701 66.0642 232.453 65.7572 232.453H64.3812C64.0742 232.453 63.8262 232.702 63.8262 233.008V246.422C63.8262 246.729 64.0742 246.977 64.3812 246.977Z" fill="#C7C7C7"/>
<path d="M59.765 246.977H61.141C61.448 246.977 61.696 246.729 61.696 246.422V233.008C61.696 232.701 61.447 232.453 61.141 232.453H59.765C59.459 232.453 59.21 232.702 59.21 233.008V246.422C59.21 246.729 59.458 246.977 59.765 246.977Z" fill="#C7C7C7"/>
<path d="M250 467.306C362.114 467.306 453.001 458.493 453.001 447.622C453.001 436.75 362.114 427.938 250 427.938C137.886 427.938 46.999 436.75 46.999 447.622C46.999 458.493 137.886 467.306 250 467.306Z" fill="#EBEBEB"/>
<path d="M36.4688 402.476L89.8507 402.233L143.234 402.145L250 401.977L356.766 402.144L410.148 402.232L463.531 402.476L410.148 402.721L356.766 402.809L250 402.975L143.234 402.808L89.8507 402.719L36.4688 402.476Z" fill="#263238"/>
<path d="M380.289 83.7812H112.428V439.573H380.289V83.7812Z" fill="#03B0EF"/>
<g opacity="0.1">
<path d="M380.289 83.7812H112.428V439.573H380.289V83.7812Z" fill="black"/>
</g>
<path d="M387.571 83.7812H119.71V439.573H387.571V83.7812Z" fill="#03B0EF"/>
<path d="M369.815 97.9969L133.372 101L137.443 421.515L373.886 418.512L369.815 97.9969Z" fill="#EBEBEB"/>
<path d="M135.267 96.9546L128.343 417.438L364.762 422.545L371.686 102.062L135.267 96.9546Z" fill="#DBDBDB"/>
<path d="M368.234 99.4844H131.767V420.031H368.234V99.4844Z" fill="white"/>
<path d="M178.845 284.125H158.767V304.203H178.845V284.125Z" fill="#EBEBEB"/>
<path d="M254.74 284.125H189.688V287.068H254.74V284.125Z" fill="#455A64"/>
<path d="M341.233 289.836H189.687V292.779H341.233V289.836Z" fill="#EBEBEB"/>
<path d="M341.233 295.547H189.687V298.49H341.233V295.547Z" fill="#EBEBEB"/>
<path d="M341.233 301.258H189.687V304.201H341.233V301.258Z" fill="#EBEBEB"/>
<path d="M160.247 293.123C160.988 293.74 161.693 294.385 162.392 295.036C163.096 295.682 163.762 296.358 164.45 297.018C165.801 298.356 167.105 299.73 168.389 301.122L166.086 301.269C167.905 297.454 170.019 293.816 172.338 290.303C173.502 288.549 174.734 286.836 176.05 285.174C177.373 283.516 178.76 281.897 180.335 280.391C179.735 282.486 178.949 284.468 178.097 286.41C177.239 288.349 176.296 290.236 175.286 292.083C173.256 295.771 171.021 299.335 168.491 302.721L167.232 304.407L166.188 302.868C165.125 301.302 164.082 299.72 163.086 298.1C162.6 297.281 162.092 296.479 161.623 295.646C161.148 294.818 160.68 293.984 160.247 293.123Z" fill="#03B0EF"/>
<path d="M178.845 317.344H158.767V337.422H178.845V317.344Z" fill="#EBEBEB"/>
<path d="M254.741 317.344H189.687V320.286H254.741V317.344Z" fill="#455A64"/>
<path d="M341.233 323.055H189.687V325.997H341.233V323.055Z" fill="#EBEBEB"/>
<path d="M341.234 328.766H189.688V331.709H341.234V328.766Z" fill="#EBEBEB"/>
<path d="M341.234 334.477H189.688V337.42H341.234V334.477Z" fill="#EBEBEB"/>
<path d="M178.845 350.57H158.767V370.648H178.845V350.57Z" fill="#EBEBEB"/>
<path d="M254.74 350.57H189.688V353.512H254.74V350.57Z" fill="#455A64"/>
<path d="M341.234 356.281H189.688V359.223H341.234V356.281Z" fill="#EBEBEB"/>
<path d="M341.233 361.992H189.687V364.934H341.233V361.992Z" fill="#EBEBEB"/>
<path d="M341.233 367.703H189.687V370.646H341.233V367.703Z" fill="#EBEBEB"/>
<path d="M341.233 390.094H239.687V393.037H341.233V390.094Z" fill="#EBEBEB"/>
<path d="M276.74 179.984H221.688V182.927H276.74V179.984Z" fill="#455A64"/>
<path d="M341.233 185.695H221.687V188.638H341.233V185.695Z" fill="#EBEBEB"/>
<path d="M341.233 191.406H221.687V194.349H341.233V191.406Z" fill="#EBEBEB"/>
<path d="M341.233 202.836H221.687V205.779H341.233V202.836Z" fill="#EBEBEB"/>
<path d="M273.674 208.547H221.687V211.49H273.674V208.547Z" fill="#EBEBEB"/>
<path d="M341.466 130H159V157.95H341.466V130Z" fill="#03B0EF"/>
<path d="M193.368 151V138.4H195.438V151H193.368ZM201.378 151V138.4H203.448V151H201.378ZM194.79 145.42V143.53H201.828V145.42H194.79ZM209.926 151.18C209.062 151.18 208.282 150.988 207.586 150.604C206.902 150.208 206.356 149.668 205.948 148.984C205.552 148.3 205.354 147.532 205.354 146.68C205.354 145.828 205.552 145.066 205.948 144.394C206.344 143.71 206.878 143.17 207.55 142.774C208.234 142.378 208.99 142.18 209.818 142.18C210.622 142.18 211.33 142.366 211.942 142.738C212.566 143.11 213.052 143.62 213.4 144.268C213.76 144.916 213.94 145.654 213.94 146.482C213.94 146.626 213.928 146.776 213.904 146.932C213.892 147.076 213.868 147.238 213.832 147.418H206.74V145.798H212.806L212.068 146.446C212.044 145.918 211.942 145.474 211.762 145.114C211.582 144.754 211.324 144.478 210.988 144.286C210.664 144.094 210.262 143.998 209.782 143.998C209.278 143.998 208.84 144.106 208.468 144.322C208.096 144.538 207.808 144.844 207.604 145.24C207.4 145.624 207.298 146.086 207.298 146.626C207.298 147.166 207.406 147.64 207.622 148.048C207.838 148.456 208.144 148.774 208.54 149.002C208.936 149.218 209.392 149.326 209.908 149.326C210.352 149.326 210.76 149.248 211.132 149.092C211.516 148.936 211.84 148.708 212.104 148.408L213.364 149.686C212.944 150.178 212.434 150.55 211.834 150.802C211.234 151.054 210.598 151.18 209.926 151.18ZM219.146 151.18C218.366 151.18 217.658 150.982 217.022 150.586C216.398 150.19 215.9 149.656 215.528 148.984C215.168 148.3 214.988 147.538 214.988 146.698C214.988 145.846 215.168 145.084 215.528 144.412C215.9 143.728 216.398 143.188 217.022 142.792C217.658 142.384 218.366 142.18 219.146 142.18C219.806 142.18 220.388 142.324 220.892 142.612C221.408 142.888 221.816 143.272 222.116 143.764C222.416 144.256 222.566 144.814 222.566 145.438V147.922C222.566 148.546 222.416 149.104 222.116 149.596C221.828 150.088 221.426 150.478 220.91 150.766C220.394 151.042 219.806 151.18 219.146 151.18ZM219.47 149.308C220.202 149.308 220.79 149.062 221.234 148.57C221.69 148.078 221.918 147.448 221.918 146.68C221.918 146.164 221.816 145.708 221.612 145.312C221.408 144.916 221.12 144.61 220.748 144.394C220.388 144.166 219.962 144.052 219.47 144.052C218.99 144.052 218.564 144.166 218.192 144.394C217.832 144.61 217.544 144.916 217.328 145.312C217.124 145.708 217.022 146.164 217.022 146.68C217.022 147.196 217.124 147.652 217.328 148.048C217.544 148.444 217.832 148.756 218.192 148.984C218.564 149.2 218.99 149.308 219.47 149.308ZM221.792 151V148.678L222.134 146.572L221.792 144.484V142.36H223.772V151H221.792ZM225.969 151V138.04H227.949V151H225.969ZM231.467 151V138.76H233.447V151H231.467ZM229.397 144.16V142.36H235.517V144.16H229.397ZM242.877 151V146.014C242.877 145.438 242.691 144.964 242.319 144.592C241.959 144.22 241.491 144.034 240.915 144.034C240.531 144.034 240.189 144.118 239.889 144.286C239.589 144.454 239.355 144.688 239.187 144.988C239.019 145.288 238.935 145.63 238.935 146.014L238.161 145.582C238.161 144.922 238.305 144.34 238.593 143.836C238.881 143.32 239.277 142.918 239.781 142.63C240.297 142.33 240.873 142.18 241.509 142.18C242.157 142.18 242.733 142.324 243.237 142.612C243.741 142.9 244.137 143.302 244.425 143.818C244.713 144.322 244.857 144.91 244.857 145.582V151H242.877ZM236.955 151V138.04H238.935V151H236.955ZM252.165 145.654V143.944H255.351C255.987 143.944 256.479 143.782 256.827 143.458C257.187 143.122 257.367 142.66 257.367 142.072C257.367 141.544 257.193 141.1 256.845 140.74C256.497 140.38 256.005 140.2 255.369 140.2H252.165V138.4H255.459C256.251 138.4 256.947 138.562 257.547 138.886C258.147 139.198 258.609 139.63 258.933 140.182C259.269 140.722 259.437 141.34 259.437 142.036C259.437 142.768 259.269 143.404 258.933 143.944C258.609 144.484 258.147 144.904 257.547 145.204C256.947 145.504 256.251 145.654 255.459 145.654H252.165ZM250.743 151V138.4H252.813V151H250.743ZM257.655 151L253.245 145.528L255.171 144.826L260.265 151H257.655ZM265.28 151.18C264.416 151.18 263.636 150.988 262.94 150.604C262.256 150.208 261.71 149.668 261.302 148.984C260.906 148.3 260.708 147.532 260.708 146.68C260.708 145.828 260.906 145.066 261.302 144.394C261.698 143.71 262.232 143.17 262.904 142.774C263.588 142.378 264.344 142.18 265.172 142.18C265.976 142.18 266.684 142.366 267.296 142.738C267.92 143.11 268.406 143.62 268.754 144.268C269.114 144.916 269.294 145.654 269.294 146.482C269.294 146.626 269.282 146.776 269.258 146.932C269.246 147.076 269.222 147.238 269.186 147.418H262.094V145.798H268.16L267.422 146.446C267.398 145.918 267.296 145.474 267.116 145.114C266.936 144.754 266.678 144.478 266.342 144.286C266.018 144.094 265.616 143.998 265.136 143.998C264.632 143.998 264.194 144.106 263.822 144.322C263.45 144.538 263.162 144.844 262.958 145.24C262.754 145.624 262.652 146.086 262.652 146.626C262.652 147.166 262.76 147.64 262.976 148.048C263.192 148.456 263.498 148.774 263.894 149.002C264.29 149.218 264.746 149.326 265.262 149.326C265.706 149.326 266.114 149.248 266.486 149.092C266.87 148.936 267.194 148.708 267.458 148.408L268.718 149.686C268.298 150.178 267.788 150.55 267.188 150.802C266.588 151.054 265.952 151.18 265.28 151.18ZM274.859 151.18C274.007 151.18 273.233 150.982 272.537 150.586C271.853 150.19 271.313 149.65 270.917 148.966C270.521 148.282 270.323 147.52 270.323 146.68C270.323 145.828 270.521 145.066 270.917 144.394C271.313 143.71 271.853 143.17 272.537 142.774C273.233 142.378 274.007 142.18 274.859 142.18C275.531 142.18 276.155 142.312 276.731 142.576C277.319 142.828 277.817 143.194 278.225 143.674L276.929 144.988C276.677 144.688 276.371 144.466 276.011 144.322C275.663 144.166 275.279 144.088 274.859 144.088C274.367 144.088 273.929 144.202 273.545 144.43C273.173 144.646 272.879 144.946 272.663 145.33C272.459 145.714 272.357 146.164 272.357 146.68C272.357 147.184 272.459 147.634 272.663 148.03C272.879 148.414 273.173 148.72 273.545 148.948C273.929 149.164 274.367 149.272 274.859 149.272C275.279 149.272 275.663 149.2 276.011 149.056C276.371 148.9 276.677 148.672 276.929 148.372L278.225 149.686C277.817 150.166 277.319 150.538 276.731 150.802C276.155 151.054 275.531 151.18 274.859 151.18ZM283.437 151.18C282.597 151.18 281.835 150.982 281.151 150.586C280.467 150.178 279.921 149.632 279.513 148.948C279.117 148.264 278.919 147.502 278.919 146.662C278.919 145.822 279.117 145.066 279.513 144.394C279.921 143.722 280.467 143.188 281.151 142.792C281.835 142.384 282.597 142.18 283.437 142.18C284.289 142.18 285.057 142.378 285.741 142.774C286.425 143.17 286.965 143.71 287.361 144.394C287.769 145.066 287.973 145.822 287.973 146.662C287.973 147.502 287.769 148.264 287.361 148.948C286.965 149.632 286.425 150.178 285.741 150.586C285.057 150.982 284.289 151.18 283.437 151.18ZM283.437 149.272C283.929 149.272 284.361 149.164 284.733 148.948C285.117 148.72 285.411 148.408 285.615 148.012C285.831 147.616 285.939 147.166 285.939 146.662C285.939 146.158 285.831 145.714 285.615 145.33C285.399 144.946 285.105 144.646 284.733 144.43C284.361 144.202 283.929 144.088 283.437 144.088C282.957 144.088 282.525 144.202 282.141 144.43C281.769 144.646 281.475 144.946 281.259 145.33C281.055 145.714 280.953 146.158 280.953 146.662C280.953 147.166 281.055 147.616 281.259 148.012C281.475 148.408 281.769 148.72 282.141 148.948C282.525 149.164 282.957 149.272 283.437 149.272ZM289.619 151V142.36H291.599V151H289.619ZM291.599 146.194L290.915 145.852C290.915 144.76 291.155 143.878 291.635 143.206C292.127 142.522 292.865 142.18 293.849 142.18C294.281 142.18 294.671 142.258 295.019 142.414C295.367 142.57 295.691 142.822 295.991 143.17L294.695 144.502C294.539 144.334 294.365 144.214 294.173 144.142C293.981 144.07 293.759 144.034 293.507 144.034C292.955 144.034 292.499 144.208 292.139 144.556C291.779 144.904 291.599 145.45 291.599 146.194ZM300.304 151.18C299.524 151.18 298.816 150.982 298.18 150.586C297.556 150.19 297.058 149.656 296.686 148.984C296.326 148.3 296.146 147.538 296.146 146.698C296.146 145.846 296.326 145.084 296.686 144.412C297.058 143.728 297.556 143.188 298.18 142.792C298.816 142.384 299.524 142.18 300.304 142.18C300.964 142.18 301.546 142.324 302.05 142.612C302.566 142.888 302.974 143.272 303.274 143.764C303.574 144.256 303.724 144.814 303.724 145.438V147.922C303.724 148.546 303.574 149.104 303.274 149.596C302.986 150.088 302.584 150.478 302.068 150.766C301.552 151.042 300.964 151.18 300.304 151.18ZM300.628 149.308C301.12 149.308 301.546 149.2 301.906 148.984C302.278 148.756 302.566 148.444 302.77 148.048C302.974 147.652 303.076 147.196 303.076 146.68C303.076 146.164 302.974 145.708 302.77 145.312C302.566 144.916 302.278 144.61 301.906 144.394C301.546 144.166 301.126 144.052 300.646 144.052C300.154 144.052 299.722 144.166 299.35 144.394C298.99 144.61 298.702 144.916 298.486 145.312C298.282 145.708 298.18 146.164 298.18 146.68C298.18 147.196 298.282 147.652 298.486 148.048C298.702 148.444 298.99 148.756 299.35 148.984C299.722 149.2 300.148 149.308 300.628 149.308ZM304.93 151H302.95V148.678L303.292 146.572L302.95 144.484V138.04H304.93V151Z" fill="white"/>
<path d="M341.733 269.505H158.267V230.258H341.733V269.505ZM159.267 268.505H340.733V231.258H159.267V268.505Z" fill="#EBEBEB"/>
<path d="M341.233 253.391H158.767V254.391H341.233V253.391Z" fill="#EBEBEB"/>
<path d="M341.233 238.305H158.767V239.305H341.233V238.305Z" fill="#EBEBEB"/>
<path d="M218.825 230.758H217.825V269.005H218.825V230.758Z" fill="#EBEBEB"/>
<path d="M282.175 230.758H281.175V269.005H282.175V230.758Z" fill="#EBEBEB"/>
<path d="M169.186 234.852C172.413 234.646 175.64 234.549 178.866 234.469C182.093 234.377 185.319 234.365 188.546 234.352C191.773 234.363 195 234.376 198.226 234.467L203.066 234.606C204.679 234.689 206.293 234.738 207.906 234.851C206.293 234.964 204.679 235.013 203.066 235.096L198.226 235.235C194.999 235.326 191.772 235.339 188.546 235.35C185.319 235.337 182.093 235.325 178.866 235.233C175.639 235.155 172.412 235.058 169.186 234.852Z" fill="#455A64"/>
<path d="M230.64 234.852C233.867 234.646 237.093 234.549 240.32 234.469C243.547 234.377 246.773 234.365 250 234.352C253.227 234.363 256.453 234.376 259.68 234.467L264.52 234.606C266.133 234.689 267.747 234.738 269.36 234.851C267.747 234.964 266.133 235.013 264.52 235.096L259.68 235.235C256.453 235.326 253.227 235.339 250 235.35C246.773 235.337 243.546 235.325 240.32 235.233C237.093 235.155 233.866 235.058 230.64 234.852Z" fill="#455A64"/>
<path d="M292.473 234.852C295.7 234.646 298.926 234.549 302.153 234.469C305.38 234.377 308.606 234.365 311.833 234.352C315.06 234.363 318.286 234.376 321.513 234.467L326.353 234.606C327.966 234.689 329.58 234.738 331.193 234.851C329.58 234.964 327.966 235.013 326.353 235.096L321.513 235.235C318.286 235.326 315.059 235.339 311.833 235.35C308.606 235.337 305.38 235.325 302.153 235.233C298.926 235.155 295.7 235.058 292.473 234.852Z" fill="#455A64"/>
<path d="M169.186 244.5C172.413 244.294 175.64 244.197 178.866 244.117C182.093 244.026 185.319 244.013 188.546 244C191.773 244.011 195 244.024 198.226 244.115L203.066 244.254C204.679 244.337 206.293 244.386 207.906 244.499C206.293 244.612 204.679 244.661 203.066 244.744L198.226 244.884C194.999 244.975 191.772 244.988 188.546 244.999C185.319 244.986 182.093 244.974 178.866 244.882C175.639 244.803 172.412 244.706 169.186 244.5Z" fill="#EBEBEB"/>
<path d="M230.64 244.5C233.867 244.294 237.093 244.197 240.32 244.117C243.547 244.026 246.773 244.013 250 244C253.227 244.011 256.453 244.024 259.68 244.115L264.52 244.254C266.133 244.337 267.747 244.386 269.36 244.499C267.747 244.612 266.133 244.661 264.52 244.744L259.68 244.884C256.453 244.975 253.227 244.988 250 244.999C246.773 244.986 243.546 244.974 240.32 244.882C237.093 244.803 233.866 244.706 230.64 244.5Z" fill="#EBEBEB"/>
<path d="M292.473 244.5C295.7 244.294 298.926 244.197 302.153 244.117C305.38 244.026 308.606 244.013 311.833 244C315.06 244.011 318.286 244.024 321.513 244.115L326.353 244.254C327.966 244.337 329.58 244.386 331.193 244.499C329.58 244.612 327.966 244.661 326.353 244.744L321.513 244.884C318.286 244.975 315.059 244.988 311.833 244.999C308.606 244.986 305.38 244.974 302.153 244.882C298.926 244.803 295.7 244.706 292.473 244.5Z" fill="#EBEBEB"/>
<path d="M169.186 248.383C172.413 248.177 175.64 248.08 178.866 248C182.093 247.909 185.319 247.896 188.546 247.883C191.773 247.894 195 247.908 198.226 247.998L203.066 248.137C204.679 248.22 206.293 248.269 207.906 248.382C206.293 248.495 204.679 248.544 203.066 248.627L198.226 248.766C194.999 248.857 191.772 248.87 188.546 248.881C185.319 248.868 182.093 248.856 178.866 248.764C175.639 248.686 172.412 248.589 169.186 248.383Z" fill="#EBEBEB"/>
<path d="M230.64 248.383C233.867 248.177 237.093 248.08 240.32 248C243.547 247.909 246.773 247.896 250 247.883C253.227 247.894 256.453 247.908 259.68 247.998L264.52 248.137C266.133 248.22 267.747 248.269 269.36 248.382C267.747 248.495 266.133 248.544 264.52 248.627L259.68 248.766C256.453 248.857 253.227 248.87 250 248.881C246.773 248.868 243.546 248.856 240.32 248.764C237.093 248.686 233.866 248.589 230.64 248.383Z" fill="#EBEBEB"/>
<path d="M292.473 248.383C295.7 248.177 298.926 248.08 302.153 248C305.38 247.909 308.606 247.896 311.833 247.883C315.06 247.894 318.286 247.908 321.513 247.998L326.353 248.137C327.966 248.22 329.58 248.269 331.193 248.382C329.58 248.495 327.966 248.544 326.353 248.627L321.513 248.766C318.286 248.857 315.059 248.87 311.833 248.881C308.606 248.868 305.38 248.856 302.153 248.764C298.926 248.686 295.7 248.589 292.473 248.383Z" fill="#EBEBEB"/>
<path d="M169.186 258.742C172.413 258.536 175.64 258.439 178.866 258.359C182.093 258.268 185.319 258.255 188.546 258.242C191.773 258.253 195 258.267 198.226 258.357L203.066 258.497C204.679 258.58 206.293 258.629 207.906 258.742C206.293 258.855 204.679 258.904 203.066 258.987L198.226 259.126C194.999 259.217 191.772 259.23 188.546 259.241C185.319 259.228 182.093 259.216 178.866 259.124C175.639 259.045 172.412 258.948 169.186 258.742Z" fill="#EBEBEB"/>
<path d="M230.64 258.742C233.867 258.536 237.093 258.439 240.32 258.359C243.547 258.268 246.773 258.255 250 258.242C253.227 258.253 256.453 258.267 259.68 258.357L264.52 258.497C266.133 258.58 267.747 258.629 269.36 258.742C267.747 258.855 266.133 258.904 264.52 258.987L259.68 259.126C256.453 259.217 253.227 259.23 250 259.241C246.773 259.228 243.546 259.216 240.32 259.124C237.093 259.045 233.866 258.948 230.64 258.742Z" fill="#EBEBEB"/>
<path d="M292.473 258.742C295.7 258.536 298.926 258.439 302.153 258.359C305.38 258.268 308.606 258.255 311.833 258.242C315.06 258.253 318.286 258.267 321.513 258.357L326.353 258.497C327.966 258.58 329.58 258.629 331.193 258.742C329.58 258.855 327.966 258.904 326.353 258.987L321.513 259.126C318.286 259.217 315.059 259.23 311.833 259.241C308.606 259.228 305.38 259.216 302.153 259.124C298.926 259.045 295.7 258.948 292.473 258.742Z" fill="#EBEBEB"/>
<path d="M169.186 262.625C172.413 262.419 175.64 262.322 178.866 262.242C182.093 262.151 185.319 262.138 188.546 262.125C191.773 262.136 195 262.149 198.226 262.24L203.066 262.38C204.679 262.463 206.293 262.512 207.906 262.625C206.293 262.738 204.679 262.787 203.066 262.87L198.226 263.01C194.999 263.101 191.772 263.114 188.546 263.125C185.319 263.112 182.093 263.1 178.866 263.008C175.639 262.928 172.412 262.831 169.186 262.625Z" fill="#EBEBEB"/>
<path d="M230.64 262.625C233.867 262.419 237.093 262.322 240.32 262.242C243.547 262.151 246.773 262.138 250 262.125C253.227 262.136 256.453 262.149 259.68 262.24L264.52 262.38C266.133 262.463 267.747 262.512 269.36 262.625C267.747 262.738 266.133 262.787 264.52 262.87L259.68 263.01C256.453 263.101 253.227 263.114 250 263.125C246.773 263.112 243.546 263.1 240.32 263.008C237.093 262.928 233.866 262.831 230.64 262.625Z" fill="#EBEBEB"/>
<path d="M292.473 262.625C295.7 262.419 298.926 262.322 302.153 262.242C305.38 262.151 308.606 262.138 311.833 262.125C315.06 262.136 318.286 262.149 321.513 262.24L326.353 262.38C327.966 262.463 329.58 262.512 331.193 262.625C329.58 262.738 327.966 262.787 326.353 262.87L321.513 263.01C318.286 263.101 315.059 263.114 311.833 263.125C308.606 263.112 305.38 263.1 302.153 263.008C298.926 262.928 295.7 262.831 292.473 262.625Z" fill="#EBEBEB"/>
<path d="M202.527 200.682C193.691 212.374 183.137 217.506 183.137 217.506C183.137 217.506 172.591 212.374 163.755 200.682C156.93 191.65 157.266 177.508 167.031 174.449C177.829 171.066 183.137 187.317 183.137 187.317C183.137 187.317 188.521 170.959 199.251 174.449C208.981 177.613 209.352 191.649 202.527 200.682Z" fill="#03B0EF"/>
<path d="M175.52 210.367L172.577 198.111L170.656 202.432H158.767V201.048H169.757L172.969 193.822L175.264 203.377L178.509 183.578L181.372 199.241L183.637 192.701L187.207 203.406L187.998 201.041H207.527V202.425H188.994L187.206 207.773L183.612 196.999L180.958 204.667L178.583 191.677L175.52 210.367Z" fill="white"/>
<path d="M308.074 77.2891H191.926V112.7H308.074V77.2891Z" fill="#C7C7C7"/>
<path d="M285.509 57.9297H213.429L210.234 77.2887H289.769L285.509 57.9297ZM249.996 71.8577C247.653 71.8577 245.747 69.9627 245.747 67.6087C245.747 65.2657 247.653 63.3597 249.996 63.3597C252.349 63.3597 254.245 65.2657 254.245 67.6087C254.245 69.9627 252.349 71.8577 249.996 71.8577Z" fill="#C7C7C7"/>
<path d="M289.769 77.2871H210.234L210.947 72.9531H288.81L289.769 77.2871Z" fill="#A6A6A6"/>
<path d="M77.7319 340.998C77.0279 343.99 76.2849 346.933 76.1399 350.003C76.2209 350.154 76.2059 350.711 76.1149 350.559C76.0969 351.054 75.3439 350.963 75.3439 350.476C75.3519 350.158 75.3589 349.839 75.3749 349.531C73.6159 347.346 71.0609 345.962 68.9959 344.064C67.3259 342.527 66.1319 340.696 65.4999 338.5C63.7869 332.597 65.3929 326.341 63.3319 320.453C61.5559 315.376 58.3709 310.963 55.6749 306.363C52.8299 301.499 50.7309 296.387 50.5199 290.69C50.3519 286.327 50.8729 280.514 54.1949 277.246C57.7169 273.778 62.0829 276.377 64.7819 279.47C72.6009 288.444 76.2189 299.784 77.6809 311.38C78.4869 317.798 79.3249 324.254 79.1319 330.732C79.0219 334.213 78.5219 337.617 77.7319 340.998Z" fill="#03B0EF"/>
<path d="M76.1737 352.36C76.5787 346.295 76.5527 340.22 75.9587 334.179C75.9687 334.157 75.9877 334.142 75.9887 334.113C76.0877 329.199 76.4777 324.304 76.2847 319.384C76.0757 314.039 75.2917 308.799 74.1207 303.585C74.1067 303.525 74.0137 303.539 74.0257 303.6C74.9897 308.686 75.5497 313.877 75.7357 319.051C75.8357 321.827 75.8157 324.606 75.6697 327.38C75.6217 328.283 75.5387 329.192 75.4777 330.102C75.4777 330.099 75.4767 330.096 75.4767 330.094C73.4947 316.263 68.3897 303.143 60.8547 291.4C60.7527 291.24 60.4687 291.411 60.5697 291.575C65.9957 300.435 69.9967 310.167 72.4707 320.265C68.7107 313.299 63.0317 307.57 58.8177 300.876C58.7947 300.84 58.7347 300.877 58.7537 300.915C62.5387 308.367 68.7927 314.244 72.7787 321.586C73.4707 324.578 74.0367 327.599 74.4577 330.638C75.0367 334.811 75.3077 339.009 75.3647 343.213C73.0747 338.932 70.6967 334.837 68.8237 330.309C68.7737 330.189 68.6007 330.271 68.6417 330.391C70.2357 335.094 72.3787 340.161 75.3777 344.171C75.3937 347.147 75.3057 350.126 75.1307 353.099C74.6627 361.037 73.3077 368.868 72.6807 376.78C72.6617 377.018 72.9967 377.046 73.0437 376.819C74.6907 368.834 75.6317 360.491 76.1737 352.36Z" fill="#263238"/>
<path d="M67.7446 291.146C67.7206 291.088 67.6356 291.128 67.6566 291.185C69.1066 295.194 69.9256 299.256 70.9726 303.366C71.0206 303.553 71.2916 303.514 71.2716 303.317C70.8466 299.148 69.3576 294.989 67.7446 291.146Z" fill="#263238"/>
<path d="M104.56 307.948C103.621 310.303 102.454 312.582 101.226 314.798C98.6154 319.539 95.8924 323.883 95.3994 329.403C95.1794 331.868 95.1004 334.344 94.3494 336.719C93.7004 338.775 92.6464 340.672 91.4334 342.446C88.6034 346.568 85.0674 350.12 82.4454 354.397C79.7174 358.842 77.7054 363.733 76.4734 368.798C76.4084 369.075 75.9714 369.001 76.0364 368.724C76.0464 368.702 76.0494 368.684 76.0534 368.661C76.0434 368.647 76.0284 368.633 76.0274 368.603C75.6124 356.767 76.5564 344.837 80.1674 333.497C81.7464 328.539 83.6934 323.607 85.9034 318.894C87.8374 314.782 90.2484 310.829 93.6434 307.757C95.8464 305.773 100.624 302.012 103.76 304.002C105.265 304.96 105.153 306.471 104.56 307.948Z" fill="#03B0EF"/>
<path d="M92.6634 334.785C90.6334 338.255 88.2264 341.485 85.7844 344.673C84.6384 346.169 83.4764 347.653 82.3324 349.151C81.7914 349.859 81.1864 350.564 80.6894 351.324C81.0024 350.079 81.3074 348.833 81.6244 347.589C83.1514 341.609 84.6194 335.576 86.8944 329.825C89.1184 324.204 92.0754 318.926 95.1134 313.713C95.1934 313.576 94.9724 313.477 94.8914 313.609C92.3904 317.722 89.8514 321.83 87.7494 326.167C86.5744 328.59 85.5864 331.082 84.7174 333.618C85.7404 328.181 86.9654 322.961 88.7534 317.698C88.7694 317.651 88.7024 317.617 88.6824 317.665C86.5014 322.826 84.9314 328.631 84.4944 334.225C84.4934 334.236 84.4984 334.244 84.5024 334.252C83.9894 335.789 83.5184 337.341 83.0774 338.905C81.2124 345.527 79.5754 352.219 78.0574 358.933C78.0834 354.499 78.3624 350.145 79.1994 345.77C79.2184 345.67 79.0684 345.646 79.0444 345.744C77.9444 350.25 77.4474 354.991 77.9014 359.62C77.3274 362.173 76.7694 364.73 76.2234 367.287C75.0594 372.743 73.6304 378.297 72.9504 383.837C72.9324 383.981 73.1324 384.01 73.1694 383.874C73.9814 380.888 74.4714 377.792 75.1354 374.768C75.8014 371.735 76.4874 368.707 77.1934 365.683C78.2214 361.279 79.2984 356.887 80.3954 352.5C81.1284 350.891 82.5464 349.463 83.6084 348.114C84.7734 346.634 85.9394 345.153 87.0734 343.648C89.1854 340.846 91.1224 337.935 92.7694 334.834C92.8044 334.768 92.7004 334.722 92.6634 334.785Z" fill="#263238"/>
<path d="M93.1683 329.717C90.6013 333.012 88.2713 336.66 86.4373 340.413C86.4133 340.461 86.4883 340.512 86.5183 340.465C88.7843 336.914 91.0113 333.337 93.2723 329.784C93.3113 329.723 93.2113 329.662 93.1683 329.717Z" fill="#263238"/>
<path d="M42.7808 319.171C44.3148 321.813 46.0658 324.986 45.4068 328.158C44.9888 330.166 43.5198 331.796 43.2548 333.844C42.6608 338.366 47.1658 341.353 50.4268 343.49C58.5548 348.823 69.7018 353.577 71.1798 364.468C71.2358 364.853 71.9028 364.757 71.8548 364.38C71.8548 364.356 71.8468 364.332 71.8388 364.308C71.8548 364.284 71.8788 364.276 71.8788 364.244C72.9308 358.727 72.9068 353.105 71.7258 347.611C70.5128 341.997 68.0638 336.954 65.1728 332.022C60.2818 323.677 55.1018 315.132 47.7048 308.739C45.6568 306.972 41.4648 303.792 39.8338 307.783C38.2518 311.662 40.9018 315.95 42.7808 319.171Z" fill="#03B0EF"/>
<path d="M50.2202 336.861C55.6092 342.695 64.1762 345.965 68.8152 352.5C66.0662 342.485 61.5172 333.479 54.5242 325.656C54.3442 325.455 54.6252 325.17 54.8212 325.359C59.9412 330.28 63.7332 336.032 66.4992 342.273C65.2552 337.817 63.5152 333.602 61.4702 329.412C61.3932 329.254 61.6172 329.118 61.7082 329.273C64.3132 333.714 66.0442 338.701 67.1282 343.73C73.2402 358.526 73.8062 375.88 72.5252 391.476C72.5072 391.698 72.1672 391.705 72.1742 391.476C72.5252 379.186 72.3262 366.68 69.3812 354.677C69.3202 354.426 69.2512 354.18 69.1882 353.93C64.1422 346.896 55.6112 343.635 50.1262 336.956C50.0742 336.89 50.1622 336.798 50.2202 336.861Z" fill="#263238"/>
<path d="M48.9707 331.855C51.7997 334.45 54.5847 337.105 57.4177 339.698C57.4467 339.724 57.4087 339.774 57.3757 339.752C54.2917 337.665 51.1597 334.908 48.8017 332.023C48.7067 331.906 48.8557 331.749 48.9707 331.855Z" fill="#263238"/>
<path d="M48.5236 320.605C51.0926 324.723 53.7866 328.585 56.9876 332.247C57.0296 332.295 56.9636 332.363 56.9166 332.318C53.4816 329.009 50.4296 325.007 48.3726 320.694C48.3236 320.593 48.4626 320.508 48.5236 320.605Z" fill="#263238"/>
<path d="M61.2598 402.47H86.0388L82.6998 369.133H65.0768L61.2598 402.47Z" fill="#455A64"/>
<path d="M64.4551 374.552H83.2451L82.7011 369.133H65.0751L64.4551 374.552Z" fill="#263238"/>
<path d="M62.0367 370.766H85.2637V365.443H62.0367V370.766Z" fill="#455A64"/>
<path d="M171.848 374.826C171.848 374.826 165.858 422.788 156.012 433.58C144.193 446.527 135.615 444.634 130.843 451.309C130.833 451.309 130.833 451.319 130.833 451.319C126.061 444.634 117.483 446.537 105.654 433.58C95.8081 422.788 89.8281 374.826 89.8281 374.826C115.772 362.231 130.833 348.117 130.833 348.117C130.833 348.117 130.833 348.117 130.843 348.127C131.305 348.559 146.306 362.432 171.848 374.826Z" fill="#37474F"/>
<path d="M130.842 348.126V451.309C130.832 451.309 130.832 451.319 130.832 451.319C126.06 444.634 117.482 446.537 105.653 433.58C95.8071 422.788 89.8271 374.826 89.8271 374.826C115.771 362.231 130.832 348.117 130.832 348.117C130.832 348.117 130.832 348.116 130.842 348.126Z" fill="#263238"/>
<path d="M165.484 378.69C165.484 378.69 160.425 419.206 152.108 428.327C142.115 439.28 134.865 437.671 130.832 443.312C126.8 437.671 119.549 439.28 109.556 428.327C101.24 419.206 96.1904 378.69 96.1904 378.69C118.105 368.047 130.832 356.125 130.832 356.125C130.832 356.125 143.569 368.048 165.484 378.69Z" fill="#455A64"/>
<path d="M96.2012 378.696C96.2012 378.696 101.26 419.208 109.579 428.332C119.563 439.276 126.806 437.677 130.843 443.303V356.141C130.454 356.506 117.777 368.218 96.2012 378.696Z" fill="#37474F"/>
<path d="M130.837 415.78C139.71 415.78 146.903 408.587 146.903 399.714C146.903 390.841 139.71 383.648 130.837 383.648C121.964 383.648 114.771 390.841 114.771 399.714C114.771 408.587 121.964 415.78 130.837 415.78Z" fill="#03B0EF"/>
<path d="M129.008 410.155L121.852 402.714L124.507 400.161L128.452 404.263L136.955 391.219L140.04 393.23L129.008 410.155Z" fill="white"/>
<path d="M118.419 128.494C98.038 128.494 81.457 111.913 81.457 91.5323C81.457 71.1513 98.038 54.5703 118.419 54.5703C138.8 54.5703 155.381 71.1513 155.381 91.5323C155.381 111.913 138.8 128.494 118.419 128.494ZM118.419 56.2143C98.945 56.2143 83.102 72.0573 83.102 91.5313C83.102 111.005 98.945 126.849 118.419 126.849C137.893 126.849 153.736 111.006 153.736 91.5313C153.736 72.0583 137.893 56.2143 118.419 56.2143Z" fill="#37474F"/>
<path d="M116.563 133.728C116 133.704 115.44 133.669 114.882 133.622L115.019 131.983C115.555 132.028 116.094 132.061 116.634 132.085L116.563 133.728ZM122.448 133.578L122.294 131.94C122.832 131.889 123.368 131.828 123.901 131.756L124.121 133.386C123.567 133.461 123.008 133.525 122.448 133.578ZM109.063 132.728C108.514 132.604 107.97 132.469 107.428 132.324L107.855 130.735C108.375 130.875 108.898 131.004 109.426 131.123L109.063 132.728ZM129.888 132.192L129.441 130.609C129.961 130.462 130.478 130.305 130.989 130.139L131.498 131.703C130.967 131.876 130.429 132.039 129.888 132.192ZM101.858 130.397C101.34 130.176 100.827 129.945 100.319 129.703L101.024 128.217C101.512 128.449 102.005 128.671 102.503 128.883L101.858 130.397ZM136.957 129.491L136.236 128.012C136.72 127.776 137.199 127.53 137.671 127.274L138.453 128.721C137.96 128.988 137.462 129.245 136.957 129.491ZM95.1882 126.81C94.7192 126.5 94.2562 126.182 93.8002 125.854L94.7592 124.518C95.1972 124.833 95.6422 125.139 96.0942 125.437L95.1882 126.81ZM143.423 125.572L142.45 124.246C142.884 123.927 143.312 123.599 143.733 123.263L144.759 124.549C144.32 124.898 143.875 125.239 143.423 125.572ZM89.2682 122.094C88.8622 121.706 88.4642 121.311 88.0732 120.908L89.2552 119.764C89.6302 120.152 90.0132 120.532 90.4032 120.904L89.2682 122.094ZM149.092 120.563L147.899 119.431C148.27 119.039 148.633 118.64 148.988 118.234L150.226 119.317C149.857 119.74 149.479 120.156 149.092 120.563ZM84.2822 116.404C83.9522 115.951 83.6302 115.492 83.3172 115.027L84.6822 114.11C84.9832 114.558 85.2922 115 85.6102 115.435L84.2822 116.404ZM153.786 114.624L152.409 113.724C152.705 113.273 152.991 112.814 153.269 112.351L154.679 113.197C154.391 113.678 154.093 114.154 153.786 114.624ZM80.3882 109.921C80.1442 109.417 79.9092 108.908 79.6852 108.394L81.1932 107.738C81.4072 108.232 81.6332 108.72 81.8672 109.203L80.3882 109.921ZM157.345 107.942L155.83 107.301C156.04 106.804 156.24 106.302 156.43 105.795L157.97 106.373C157.772 106.901 157.564 107.424 157.345 107.942ZM77.7172 102.844C77.5682 102.305 77.4282 101.761 77.2992 101.212L78.9002 100.836C79.0242 101.363 79.1572 101.885 79.3022 102.403L77.7172 102.844ZM159.647 100.724L158.042 100.365C158.159 99.8407 158.265 99.3127 158.361 98.7797L159.98 99.0717C159.88 99.6257 159.769 100.177 159.647 100.724ZM76.3612 95.3997C76.3112 94.8427 76.2712 94.2827 76.2422 93.7197L77.8852 93.6367C77.9122 94.1767 77.9502 94.7157 77.9992 95.2507L76.3612 95.3997ZM160.617 93.2187L158.974 93.1537C158.995 92.6167 159.005 92.0777 159.005 91.5357L159.004 91.3667H160.649L160.65 91.5237C160.65 92.0997 160.64 92.6607 160.617 93.2187ZM77.9852 87.9767L76.3472 87.8327C76.3962 87.2727 76.4552 86.7137 76.5262 86.1597L78.1582 86.3667C78.0902 86.9007 78.0322 87.4367 77.9852 87.9767ZM158.593 85.7257C158.516 85.1907 158.429 84.6577 158.331 84.1287L159.948 83.8297C160.049 84.3797 160.141 84.9337 160.221 85.4907L158.593 85.7257ZM79.2612 80.8177L77.6742 80.3837C77.8232 79.8407 77.9812 79.3017 78.1512 78.7677L79.7192 79.2657C79.5562 79.7787 79.4042 80.2957 79.2612 80.8177ZM156.919 78.6497C156.747 78.1377 156.566 77.6297 156.374 77.1257L157.911 76.5417C158.11 77.0657 158.3 77.5937 158.478 78.1277L156.919 78.6497ZM81.8042 74.0007L80.3202 73.2897C80.5642 72.7817 80.8172 72.2787 81.0812 71.7827L82.5332 72.5557C82.2802 73.0307 82.0372 73.5137 81.8042 74.0007ZM153.999 71.9937C153.739 71.5217 153.47 71.0547 153.192 70.5947L154.601 69.7447C154.89 70.2237 155.17 70.7097 155.44 71.2007L153.999 71.9937ZM85.5272 67.7507L84.1952 66.7847C84.5252 66.3297 84.8632 65.8817 85.2102 65.4407L86.5032 66.4587C86.1702 66.8817 85.8452 67.3127 85.5272 67.7507ZM149.941 65.9667C149.6 65.5477 149.252 65.1357 148.895 64.7307L150.13 63.6447C150.499 64.0647 150.862 64.4927 151.216 64.9277L149.941 65.9667ZM90.3042 62.2627L89.1652 61.0767C89.5702 60.6877 89.9822 60.3067 90.4022 59.9347L91.4932 61.1657C91.0892 61.5227 90.6932 61.8887 90.3042 62.2627ZM144.87 60.7507C144.461 60.3987 144.044 60.0557 143.622 59.7197L144.644 58.4317C145.084 58.7807 145.517 59.1377 145.943 59.5037L144.87 60.7507ZM95.9772 57.7117L95.0662 56.3427C95.5322 56.0327 96.0052 55.7317 96.4852 55.4397L97.3392 56.8447C96.8792 57.1247 96.4252 57.4137 95.9772 57.7117ZM138.952 56.5177C138.488 56.2447 138.016 55.9807 137.539 55.7257L138.315 54.2747C138.811 54.5397 139.302 54.8157 139.786 55.0997L138.952 56.5177ZM102.365 54.2477L101.713 52.7367C102.226 52.5157 102.744 52.3047 103.268 52.1027L103.859 53.6377C103.356 53.8317 102.857 54.0347 102.365 54.2477ZM132.372 53.4107C131.865 53.2257 131.354 53.0497 130.837 52.8837L131.34 51.3177C131.877 51.4897 132.41 51.6727 132.937 51.8667L132.372 53.4107ZM109.269 51.9837L108.9 50.3807C109.445 50.2547 109.995 50.1397 110.549 50.0357L110.853 51.6527C110.322 51.7527 109.794 51.8627 109.269 51.9837ZM125.342 51.5357C124.813 51.4447 124.279 51.3647 123.742 51.2937L123.956 49.6627C124.515 49.7367 125.07 49.8197 125.62 49.9147L125.342 51.5357ZM116.474 50.9937L116.397 49.3507C116.955 49.3247 117.516 49.3087 118.08 49.3047L118.093 50.9497C117.551 50.9537 117.012 50.9687 116.474 50.9937Z" fill="#37474F"/>
<path d="M112.75 114.394H124.142V97.2136H141.323V85.8216H124.142V68.6406H112.75V85.8216H95.5703V97.2136H112.75V114.394Z" fill="#37474F"/>
<path d="M324.414 452.917C326.391 453.555 382.738 452.824 384.864 451.433C385.681 450.918 386.053 442.701 386.218 432.761C386.219 432.657 387.151 396.039 387.151 396.039L351.088 396.416L349.884 433.131C349.884 433.131 328.441 443.058 326.263 444.834C324.103 446.604 322.437 452.288 324.414 452.917Z" fill="#FFBE93"/>
<path d="M386.08 439.033C385.86 445.963 385.5 451.033 384.87 451.433C382.74 452.823 326.39 453.553 324.42 452.923C322.44 452.293 324.1 446.603 326.26 444.833C327.41 443.903 333.92 440.693 339.81 437.883C333.34 442.193 326.39 448.533 386.08 439.033Z" fill="#263238"/>
<path d="M342.347 436.988C342.494 436.945 342.571 436.902 342.58 436.859C342.58 436.859 342.493 436.902 342.347 436.988Z" fill="#03B0EF"/>
<path d="M398.716 233.727C398.716 233.727 389.53 329.163 388.151 336.43C387.832 338.085 387.293 429.777 387.293 429.777L348.827 429.191C348.827 429.191 350.571 350.318 352.329 335.802C354.088 321.278 364.328 233.727 364.328 233.727H398.716Z" fill="#37474F"/>
<path d="M386.111 421.754C384.976 421.559 383.789 421.553 382.64 421.5C381.482 421.447 380.324 421.387 379.165 421.342C376.889 421.254 374.614 421.153 372.338 421.074C367.703 420.913 363.068 420.758 358.434 420.588C355.825 420.492 353.214 420.489 350.605 420.513C350.504 420.514 350.499 420.659 350.599 420.669C359.818 421.599 369.133 421.794 378.393 422.019C379.718 422.051 381.043 422.07 382.368 422.087C383.614 422.103 384.896 422.174 386.136 422.031C386.31 422.011 386.252 421.778 386.111 421.754Z" fill="#263238"/>
<path d="M393.523 237.929C390.717 261.2 387.913 284.476 385.589 307.802C384.437 319.369 383.356 330.954 382.637 342.557C381.912 354.254 381.625 365.963 381.464 377.679C381.281 390.922 380.97 404.175 381.181 417.418C381.183 417.545 381.37 417.537 381.376 417.413C382.527 394.008 382.199 370.554 383.439 347.149C384.681 323.722 387.222 300.419 389.798 277.109C391.239 264.07 392.593 251.024 393.939 237.975C393.962 237.74 393.551 237.693 393.523 237.929Z" fill="#263238"/>
<path d="M402.57 457.072C404.642 457.223 459.206 443.14 460.941 441.284C461.613 440.59 460.024 432.52 457.825 422.824C457.801 422.723 446.35 388.102 446.35 388.102L411.407 397.027L422.618 431.807C422.618 431.807 404.143 446.539 402.449 448.782C400.769 451.013 400.5 456.93 402.57 457.072Z" fill="#FFBE93"/>
<path d="M459.178 428.945C460.609 435.729 461.462 440.74 460.945 441.278C459.206 443.134 404.639 457.216 402.576 457.072C400.503 456.93 400.765 451.008 402.443 448.776C403.339 447.6 408.902 442.936 413.956 438.809C408.695 444.531 403.448 452.339 459.178 428.945Z" fill="#263238"/>
<path d="M420.305 428.814L459.485 417.921C459.485 417.921 430.1 343.503 428.453 338.407C427.257 334.707 417.587 289.56 414.192 269.836C414.192 269.836 419.267 255.44 407.897 233.695H364.328C364.328 233.695 365.963 256.24 371.195 269.361C371.195 269.361 373.772 269.4 379.709 271.014C379.709 271.014 393.196 342.744 395.249 349.182C399.69 363.112 420.305 428.814 420.305 428.814Z" fill="#37474F"/>
<path d="M387.653 309.928C386.084 301.61 384.53 293.289 382.972 284.969C382.532 282.62 382.04 280.283 381.553 277.943C381.069 275.622 380.647 273.242 379.976 270.969C379.933 270.823 379.699 270.856 379.708 271.012C379.833 273.136 380.225 275.253 380.506 277.362C380.779 279.412 381.092 281.465 381.441 283.504C382.158 287.696 382.937 291.878 383.732 296.056C385.319 304.396 386.901 312.765 388.84 321.031C389.931 325.684 390.949 330.355 392.105 334.993C392.13 335.093 392.271 335.044 392.255 334.948C390.799 326.594 389.226 318.26 387.653 309.928Z" fill="#263238"/>
<path d="M378.474 261.755C379.061 260.302 378.594 258.628 378.329 257.157C377.992 255.286 377.664 253.413 377.319 251.543C376.541 247.324 375.684 243.12 374.778 238.927C374.769 238.884 374.696 238.895 374.702 238.939C375.113 242.294 375.565 245.643 376.053 248.988C376.543 252.349 377.191 255.7 377.604 259.071C377.738 260.164 377.647 262.312 376.065 262.321C374.733 262.329 373.925 260.333 373.496 259.347C372.226 256.428 371.706 253.205 371.061 250.107C370.288 246.396 369.658 242.656 369.01 238.922C368.988 238.796 368.781 238.832 368.788 238.958C369.013 242.671 369.496 246.346 370.096 250.017C370.666 253.504 371.213 257.173 372.679 260.414C373.231 261.633 374.001 263.132 375.408 263.513C375.614 263.569 375.816 263.586 376.014 263.586C376.136 264.701 376.304 265.804 376.535 266.902C376.773 268.037 377.013 269.208 377.42 270.295C377.476 270.444 377.686 270.388 377.677 270.252C377.68 270.252 377.682 270.253 377.685 270.253C377.632 269.113 377.392 267.965 377.176 266.846C376.961 265.736 376.678 264.646 376.349 263.566C377.301 263.421 378.099 262.683 378.474 261.755Z" fill="#263238"/>
<path d="M385.778 272.644C383.61 271.635 381.204 270.885 378.867 270.351C376.502 269.811 374.309 269.594 371.908 269.399C371.821 269.392 371.804 269.54 371.891 269.553C374.219 269.914 383.432 272.179 385.736 272.751C385.798 272.767 385.84 272.672 385.778 272.644Z" fill="#263238"/>
<path d="M442.603 391.778C440.521 386.239 438.435 380.701 436.344 375.165C432.199 364.187 427.933 353.256 423.809 342.269C419.736 331.419 417.994 319.881 415.767 308.533C414.632 302.75 413.513 296.963 412.369 291.182C411.235 285.455 409.867 279.714 409.197 273.907C408.542 268.226 409.394 262.542 408.894 256.861C408.447 251.785 407.078 246.821 404.888 242.24C404.331 241.074 403.715 239.942 403.049 238.837C402.97 238.707 402.78 238.828 402.851 238.961C405.392 243.709 407.112 248.849 407.883 254.203C408.265 256.855 408.376 259.521 408.306 262.198C408.231 265.065 408.027 267.931 408.164 270.799C408.436 276.531 409.769 282.179 410.865 287.789C411.984 293.518 413.122 299.242 414.25 304.969C415.389 310.751 416.534 316.532 417.664 322.315C418.764 327.946 419.894 333.564 421.718 339.008C423.547 344.47 425.689 349.833 427.731 355.215C429.83 360.749 431.921 366.286 434.038 371.813C438.252 382.818 442.38 393.864 446.784 404.791C447.297 406.064 447.818 407.327 448.375 408.582C448.449 408.749 448.714 408.621 448.659 408.451C446.866 402.819 444.681 397.307 442.603 391.778Z" fill="#263238"/>
<path d="M454.797 411.259C453.654 411.402 452.517 411.74 451.402 412.023C450.278 412.308 449.153 412.587 448.031 412.881C445.828 413.458 443.621 414.022 441.421 414.607C436.939 415.799 432.459 416.997 427.975 418.18C425.451 418.846 422.952 419.601 420.462 420.382C420.366 420.412 420.403 420.553 420.502 420.533C429.593 418.745 438.564 416.227 447.49 413.753C448.767 413.399 450.041 413.032 451.314 412.664C452.511 412.318 453.759 412.013 454.903 411.517C455.062 411.448 454.939 411.241 454.797 411.259Z" fill="#263238"/>
<path d="M350.069 205.875C350.548 205.991 352.79 206.542 356.065 207.355C357.683 205.512 359.86 202.098 360.443 196.711C360.534 195.818 361.484 201.275 359.11 208.109C365.441 209.673 374.053 211.795 381.593 213.578C382.394 210.657 383.269 207.986 383.269 207.986C383.056 210.172 383.086 212.193 383.232 213.972C384.261 214.224 385.275 214.451 386.244 214.678C387.039 210.044 389.592 202.229 389.592 202.229C389.044 207.937 389.836 212.768 390.536 215.667C395.334 216.748 398.511 217.373 398.358 217.1C392.94 207.16 399.323 203.543 398.884 195.749C398.354 186.409 391.086 183.333 392.774 176.781C394.134 171.447 396.964 161.849 390.64 158.262C390.64 158.262 386.461 150.993 377.055 152.399C365.421 154.128 365.992 171.635 364.513 174.842C362.405 179.425 359.738 180.613 356.81 185.723C353.832 190.891 355.545 195.14 354.997 198.971C354.434 202.797 348.866 205.596 350.069 205.875Z" fill="#263238"/>
<path d="M398.835 215.957C398.196 214.255 397.68 212.496 397.546 210.737C397.36 208.978 397.97 207.354 398.684 205.697C399.395 204.049 400.179 202.377 400.745 200.586C401.288 198.798 401.646 196.871 401.442 194.938C401.27 193.009 400.594 191.142 399.607 189.532C398.638 187.903 397.425 186.496 396.26 185.115C395.111 183.723 393.963 182.346 393.228 180.736C392.465 179.144 392.19 177.326 392.368 175.508C391.903 177.27 391.968 179.216 392.613 180.986C393.243 182.765 394.325 184.323 395.413 185.783C396.499 187.252 397.607 188.667 398.457 190.195C399.3 191.721 399.88 193.363 400.008 195.066C400.142 196.766 399.904 198.495 399.402 200.182C398.922 201.879 398.219 203.536 397.592 205.267C397.286 206.136 396.988 207.024 396.812 207.965C396.629 208.907 396.656 209.908 396.814 210.829C397.167 212.679 397.89 214.394 398.835 215.957Z" fill="#263238"/>
<path d="M369.624 157.219C368.338 159.07 367.538 161.209 366.744 163.305C365.988 165.424 365.337 167.573 364.712 169.72L363.757 172.92C363.436 173.989 363.072 174.979 362.577 175.919C361.599 177.813 360.084 179.317 358.417 180.819C357.601 181.588 356.766 182.391 356.029 183.299C355.291 184.204 354.642 185.193 354.124 186.243C353.635 187.313 353.23 188.377 352.91 189.489C352.584 190.598 352.39 191.763 352.343 192.923C352.29 194.086 352.371 195.215 352.405 196.311C352.443 197.406 352.379 198.506 352.208 199.574C351.905 201.699 350.337 203.541 348.342 204.533C350.465 203.836 352.31 202.026 352.888 199.721C353.169 198.6 353.301 197.46 353.348 196.32C353.401 195.181 353.359 194.071 353.471 193.002C353.668 190.876 354.409 188.778 355.356 186.86C355.86 185.92 356.438 185.027 357.126 184.209C357.807 183.385 358.595 182.639 359.414 181.885C360.224 181.122 361.065 180.341 361.829 179.459C362.591 178.578 363.283 177.606 363.806 176.549C364.324 175.493 364.695 174.363 364.983 173.28C365.289 172.191 365.551 171.101 365.811 170.013C366.342 167.84 366.84 165.666 367.426 163.517C367.987 161.362 368.63 159.228 369.624 157.219Z" fill="#263238"/>
<path d="M380.421 197.122C373.952 206.02 359.648 228.829 348.679 229.647C339.825 230.307 321.06 212.267 316.164 207.411C312.972 204.245 328.554 184.682 332.007 187.854C336.462 191.946 347.42 206.523 349.768 206.523C351.074 206.523 358.909 201.797 374.11 191.608C380.015 187.651 384.283 191.81 380.421 197.122Z" fill="#FFBE93"/>
<path d="M304.315 198.552C307.443 202.899 317.316 209.288 320.291 209.913C323.266 210.538 334.686 194.113 333.75 191.138C332.814 188.162 321.15 174.341 315.886 172.873C310.622 171.405 301.075 194.048 304.315 198.552Z" fill="#FFBE93"/>
<path d="M305.652 226.53L309.134 227.578L350.059 91.6562L346.578 90.608L305.652 226.53Z" fill="#A6A6A6"/>
<path d="M347.964 83.115L353.015 84.636L356.078 70.785L353.058 69.875L347.964 83.115Z" fill="#DBDBDB"/>
<path d="M289.898 242.782C299.238 245.594 306.313 239.801 308.473 232.625L311.243 223.424L306.166 221.896L303.396 231.096C302.349 234.574 298.649 239.879 291.426 237.704C285.03 235.778 284.877 228.79 285.805 225.707L288.423 217.013L283.346 215.484L280.728 224.178C280.013 226.551 279.705 230.422 280.981 234.169C282.452 238.491 285.535 241.469 289.898 242.782Z" fill="#263238"/>
<path d="M261.806 104.689C261.806 104.689 274.772 102.973 281.793 105.293C288.794 107.626 300.227 116.257 300.227 116.257C300.227 116.257 313.293 115.208 320.588 117.198C327.888 119.171 337.373 127.441 337.373 127.441C337.373 127.441 349.847 125.783 357.023 128.168C364.204 130.536 374.504 138.62 374.504 138.62C374.504 138.62 388.802 137.736 395.942 139.661C403.077 141.603 412.94 150.193 412.94 150.193C408.246 123.226 387.547 91.2541 351.533 80.4101C315.519 69.5661 280.594 84.7921 261.806 104.689Z" fill="#455A64"/>
<path d="M261.806 104.687C265.165 102.513 268.555 100.39 271.996 98.3549C275.424 96.2989 278.887 94.3039 282.403 92.4109C289.431 88.6369 296.595 85.0399 304.129 82.4799C307.882 81.1809 311.728 80.1349 315.672 79.8099C319.638 79.4049 323.627 79.2659 327.615 79.1689C331.604 79.0929 335.599 79.1699 339.587 79.3849C343.578 79.5689 347.563 79.9059 351.533 80.4079C343.652 78.9869 335.628 78.4009 327.61 78.3479C323.599 78.3139 319.584 78.4919 315.585 78.8459C311.543 79.1489 307.588 80.1829 303.787 81.4799C299.982 82.8029 296.287 84.3919 292.667 86.1239C289.049 87.8589 285.483 89.6999 282.011 91.7039C275.047 95.6729 268.284 99.9839 261.806 104.687Z" fill="#37474F"/>
<path d="M300.241 116.257C301.68 113.95 303.183 111.689 304.788 109.502C306.365 107.297 308.014 105.145 309.755 103.074C313.248 98.9722 316.971 94.9422 321.363 91.8992C325.79 88.8612 330.828 86.7642 335.905 84.9242C338.45 84.0022 341.038 83.1912 343.647 82.4502C346.249 81.6822 348.882 81.0153 351.532 80.4062C346.149 81.2023 340.839 82.4902 335.644 84.1572C330.463 85.8482 325.371 87.9762 320.768 91.0242C319.636 91.8022 318.523 92.6532 317.522 93.5852C316.487 94.4852 315.507 95.4422 314.537 96.4082C312.63 98.3702 310.796 100.401 309.12 102.558C305.768 106.865 302.737 111.42 300.241 116.257Z" fill="#37474F"/>
<path d="M337.373 127.438C338.762 123.582 340.041 119.692 341.302 115.797C342.566 111.903 343.738 107.981 344.96 104.075C346.1 100.144 347.284 96.2263 348.383 92.2823L350.011 86.3603C350.517 84.3753 351.057 82.4002 351.532 80.4062C350.827 82.3312 350.188 84.2763 349.513 86.2103L347.601 92.0463C346.34 95.9413 345.164 99.8613 343.944 103.769C342.806 107.701 341.619 111.618 340.522 115.562C339.425 119.507 338.343 123.455 337.373 127.438Z" fill="#37474F"/>
<path d="M412.938 150.19C410.133 142.692 406.874 135.364 403.26 128.21C401.472 124.623 399.516 121.119 397.457 117.674C395.395 114.232 393.191 110.866 390.749 107.662C388.295 104.483 385.569 101.437 382.366 98.9523C379.227 96.4493 375.978 94.0843 372.615 91.8973C365.9 87.5143 358.887 83.5722 351.531 80.4062C355.118 82.1793 358.627 84.0993 362.056 86.1493C365.5 88.1723 368.873 90.3133 372.158 92.5793C375.429 94.8613 378.678 97.1803 381.761 99.7073C384.871 102.156 387.499 105.152 389.911 108.307C394.779 114.601 398.766 121.556 402.542 128.583C404.429 132.103 406.215 135.678 407.938 139.285C409.684 142.881 411.338 146.522 412.938 150.19Z" fill="#37474F"/>
<path d="M374.502 138.616C375.091 133.205 375.079 127.734 374.663 122.292C374.457 119.569 374.049 116.863 373.542 114.174C373.266 112.833 372.977 111.495 372.611 110.172C372.291 108.842 371.833 107.518 371.318 106.245C369.163 101.162 366.092 96.5762 362.706 92.3062C359.295 88.0482 355.578 84.0422 351.53 80.4062C353.403 82.3772 355.23 84.3862 356.975 86.4642C358.742 88.5222 360.451 90.6272 362.064 92.8012C365.281 97.1382 368.324 101.668 370.338 106.646C372.32 111.608 373.199 117.023 373.846 122.372C374.154 125.06 374.341 127.765 374.438 130.474C374.571 133.183 374.577 135.898 374.502 138.616Z" fill="#37474F"/>
<path d="M320.584 175.807C321.509 178.49 317.818 178.044 317.818 178.044C317.818 178.044 322.976 179.966 322.86 183.1C322.74 186.121 318.301 185.425 317.982 185.38C318.254 185.484 322.948 187.374 322.507 190.51C322.046 193.771 317.709 192.308 317.429 192.212C317.655 192.391 320.603 194.807 319.726 197.115C318.217 201.08 310.509 195.11 307.123 195.686C307.123 195.686 307.444 201.536 307.418 201.708C307.418 201.708 299.968 196.181 299.447 191.57C299.172 189.14 301.383 188.402 301.383 188.402C301.383 188.402 298.784 186.885 299.053 184.404C299.194 183.131 301.357 182.225 301.357 182.225C301.357 182.225 299.327 180.924 299.704 178.731C299.999 176.98 302.123 176.343 302.123 176.343C302.123 176.343 300.753 174.189 301.636 172.499C303.409 169.086 318.598 170.065 320.584 175.807Z" fill="#FFBE93"/>
<path d="M302.442 176.195C302.391 176.196 302.38 176.125 302.432 176.116C307.506 175.219 313.355 175.788 318.019 178.051C318.172 178.125 318.118 178.406 317.934 178.356C312.681 176.942 307.907 176.107 302.442 176.195Z" fill="#263238"/>
<path d="M301.284 182.19C301.225 182.191 301.222 182.093 301.285 182.082C306.518 181.185 313.089 182.008 318.157 185.249C318.331 185.36 318.375 185.634 318.166 185.522C314.632 183.622 306.203 182.085 301.284 182.19Z" fill="#263238"/>
<path d="M317.705 192.566C312.725 189.646 307.31 188.616 301.597 188.357C301.523 188.354 301.535 188.249 301.598 188.235C304.427 187.6 308.052 188.144 310.837 188.807C313.504 189.442 315.783 190.55 317.807 192.392C317.886 192.463 317.811 192.628 317.705 192.566Z" fill="#263238"/>
<path d="M317.818 178.047C318.774 178.514 319.694 179.052 320.538 179.679C321.366 180.306 322.164 181.058 322.527 181.969C322.703 182.419 322.732 182.902 322.569 183.339C322.398 183.781 322.128 184.203 321.767 184.496C321.053 185.1 319.976 185.224 319.065 185.069L316.772 184.679L318.791 185.843C319.672 186.351 320.531 187.012 321.195 187.775C321.859 188.535 322.319 189.468 322.191 190.374C322.076 191.323 321.463 192.039 320.529 192.171C319.612 192.34 318.533 192.128 317.606 191.79L315.015 190.848L317.145 192.578C317.722 193.047 318.28 193.621 318.721 194.229C319.158 194.839 319.499 195.529 319.512 196.203C319.528 196.864 319.18 197.541 318.61 197.814C318.014 198.11 317.208 198.079 316.448 197.974C314.9 197.741 313.38 197.173 311.846 196.685C311.079 196.434 310.309 196.181 309.527 195.966C308.75 195.766 307.93 195.547 307.124 195.689C307.935 195.632 308.704 195.932 309.46 196.179C310.215 196.451 310.959 196.759 311.704 197.068C313.195 197.685 314.703 198.29 316.336 198.63C317.149 198.77 318.037 198.893 318.935 198.52C319.859 198.128 320.373 197.131 320.358 196.194C320.346 195.238 319.921 194.418 319.443 193.718C318.945 193.015 318.38 192.412 317.715 191.853L317.255 192.641C318.347 193.048 319.469 193.313 320.704 193.125C321.311 193.029 321.948 192.726 322.383 192.219C322.823 191.712 323.042 191.104 323.117 190.483C323.267 189.192 322.612 188.027 321.857 187.192C321.078 186.334 320.183 185.668 319.18 185.108L318.905 185.882C320.071 186.04 321.301 185.815 322.209 184.997C322.652 184.59 322.944 184.071 323.126 183.514C323.312 182.94 323.237 182.294 322.999 181.77C322.501 180.71 321.588 180.033 320.699 179.446C319.792 178.868 318.821 178.406 317.818 178.047Z" fill="#263238"/>
<path d="M333.084 190.088C333.084 190.088 321.555 164.712 315.619 172.622C313.855 174.972 309.417 186.73 311.761 187.667C314.788 188.877 317.556 184.315 318.84 181.175C318.84 181.175 321.38 188.555 327.046 188.318C330.599 188.17 333.084 190.088 333.084 190.088Z" fill="#FFBE93"/>
<path d="M316.154 171.992C315.32 172.797 314.719 173.811 314.155 174.819C313.593 175.835 313.129 176.901 312.71 177.981C311.896 180.157 311.156 182.333 310.721 184.659C310.62 185.244 310.543 185.844 310.613 186.503C310.649 186.829 310.738 187.189 310.934 187.509C311.029 187.67 311.128 187.8 311.305 187.958C311.466 188.086 311.631 188.187 311.802 188.25C312.484 188.534 313.205 188.468 313.829 188.268C314.449 188.045 314.983 187.694 315.46 187.3C316.405 186.498 317.103 185.511 317.694 184.492C318.298 183.475 318.769 182.403 319.211 181.325L318.457 181.294C318.782 182.15 319.183 182.923 319.647 183.68C320.11 184.432 320.644 185.141 321.251 185.784C321.862 186.422 322.565 186.975 323.332 187.405C324.096 187.841 324.941 188.124 325.799 188.238C324.965 188.008 324.179 187.648 323.48 187.166C322.777 186.688 322.173 186.087 321.63 185.443C321.087 184.797 320.616 184.092 320.215 183.349C319.817 182.611 319.467 181.82 319.223 181.046L318.913 180.061L318.469 181.015C317.991 182.043 317.517 183.075 316.913 184.018C316.323 184.962 315.67 185.885 314.843 186.561C314.048 187.226 312.991 187.699 312.169 187.36C311.422 187.125 311.46 185.862 311.623 184.798C311.784 183.694 312.064 182.585 312.344 181.479C312.628 180.371 312.925 179.267 313.279 178.181C314.023 176.038 314.768 173.837 316.154 171.992Z" fill="#263238"/>
<path d="M334.181 188.953L318.567 211.982C318.567 211.982 340.433 230.87 349.327 230.802C358.221 230.734 371.345 210.67 378.045 202.025C385.135 192.877 383.447 185.046 371.955 192.03C360.445 199.025 350.515 205.332 350.063 205.415C349.612 205.497 334.181 188.953 334.181 188.953Z" fill="#03B0EF"/>
<path d="M377.909 190.081C377.909 190.451 377.609 190.741 377.239 190.741C376.879 190.741 376.579 190.451 376.579 190.081C376.579 189.981 376.599 189.881 376.649 189.791C376.979 189.681 377.299 189.601 377.609 189.531C377.789 189.651 377.909 189.861 377.909 190.081ZM325.947 204.276C325.581 204.276 325.284 204.573 325.284 204.939C325.284 205.305 325.581 205.601 325.947 205.601C326.313 205.601 326.61 205.304 326.61 204.939C326.61 204.573 326.313 204.276 325.947 204.276ZM336.206 204.276C335.84 204.276 335.543 204.573 335.543 204.939C335.543 205.305 335.84 205.601 336.206 205.601C336.572 205.601 336.869 205.304 336.869 204.939C336.869 204.573 336.572 204.276 336.206 204.276ZM346.465 204.276C346.099 204.276 345.802 204.573 345.802 204.939C345.802 205.305 346.099 205.601 346.465 205.601C346.831 205.601 347.128 205.304 347.128 204.939C347.128 204.573 346.831 204.276 346.465 204.276ZM356.724 204.276C356.358 204.276 356.061 204.573 356.061 204.939C356.061 205.305 356.358 205.601 356.724 205.601C357.09 205.601 357.386 205.304 357.386 204.939C357.386 204.573 357.09 204.276 356.724 204.276ZM366.983 204.276C366.617 204.276 366.32 204.573 366.32 204.939C366.32 205.305 366.617 205.601 366.983 205.601C367.349 205.601 367.646 205.304 367.646 204.939C367.645 204.573 367.349 204.276 366.983 204.276ZM331.077 196.604C330.711 196.604 330.414 196.901 330.414 197.267C330.414 197.633 330.711 197.929 331.077 197.929C331.443 197.929 331.739 197.632 331.739 197.267C331.739 196.9 331.443 196.604 331.077 196.604ZM341.379 196.601H341.339C340.969 196.601 340.669 196.901 340.669 197.271C340.669 197.631 340.969 197.931 341.339 197.931C341.699 197.931 341.999 197.631 341.999 197.271V197.261C341.789 197.041 341.579 196.821 341.379 196.601ZM372.112 196.604C371.746 196.604 371.449 196.901 371.449 197.267C371.449 197.633 371.746 197.929 372.112 197.929C372.478 197.929 372.775 197.632 372.775 197.267C372.775 196.9 372.478 196.604 372.112 196.604ZM320.818 211.46C320.452 211.46 320.155 211.757 320.155 212.122C320.155 212.488 320.452 212.785 320.818 212.785C321.184 212.785 321.481 212.488 321.481 212.122C321.48 211.757 321.184 211.46 320.818 211.46ZM336.206 219.133C335.84 219.133 335.543 219.43 335.543 219.795C335.543 220.161 335.84 220.458 336.206 220.458C336.572 220.458 336.869 220.161 336.869 219.795C336.869 219.43 336.572 219.133 336.206 219.133ZM346.465 219.133C346.099 219.133 345.802 219.43 345.802 219.795C345.802 220.161 346.099 220.458 346.465 220.458C346.831 220.458 347.128 220.161 347.128 219.795C347.128 219.43 346.831 219.133 346.465 219.133ZM356.724 219.133C356.358 219.133 356.061 219.43 356.061 219.795C356.061 220.161 356.358 220.458 356.724 220.458C357.09 220.458 357.386 220.161 357.386 219.795C357.386 219.43 357.09 219.133 356.724 219.133ZM331.077 211.46C330.711 211.46 330.414 211.757 330.414 212.122C330.414 212.488 330.711 212.785 331.077 212.785C331.443 212.785 331.739 212.488 331.739 212.122C331.739 211.757 331.443 211.46 331.077 211.46ZM341.336 211.46C340.97 211.46 340.674 211.757 340.674 212.122C340.674 212.488 340.971 212.785 341.336 212.785C341.702 212.785 341.999 212.488 341.999 212.122C341.998 211.757 341.701 211.46 341.336 211.46ZM351.594 211.46C351.228 211.46 350.932 211.757 350.932 212.122C350.932 212.488 351.229 212.785 351.594 212.785C351.959 212.785 352.257 212.488 352.257 212.122C352.257 211.757 351.96 211.46 351.594 211.46ZM361.853 211.46C361.487 211.46 361.19 211.757 361.19 212.122C361.19 212.488 361.487 212.785 361.853 212.785C362.219 212.785 362.515 212.488 362.515 212.122C362.516 211.757 362.219 211.46 361.853 211.46ZM341.336 226.317C340.97 226.317 340.674 226.614 340.674 226.98C340.674 227.346 340.971 227.642 341.336 227.642C341.702 227.642 341.999 227.345 341.999 226.98C341.998 226.613 341.701 226.317 341.336 226.317ZM351.594 226.317C351.228 226.317 350.932 226.614 350.932 226.98C350.932 227.346 351.229 227.642 351.594 227.642C351.959 227.642 352.257 227.345 352.257 226.98C352.257 226.613 351.96 226.317 351.594 226.317Z" fill="white"/>
<path d="M331.79 205.073C332.981 203.358 337.618 196.46 338.571 194.636C338.599 194.582 338.507 194.538 338.471 194.578C337.087 196.125 332.246 202.94 331.062 204.659C328.696 208.093 326.26 211.514 324.21 215.16C324.168 215.235 324.278 215.322 324.335 215.254C327.037 212.038 329.395 208.523 331.79 205.073Z" fill="#263238"/>
<path opacity="0.1" d="M378.049 202.03C371.349 210.67 358.219 230.74 349.329 230.8C347.469 230.81 345.049 230 342.379 228.71L377.519 189.55C383.779 188.12 383.769 194.64 378.049 202.03Z" fill="black"/>
<path d="M362.084 242.726L413.715 244.529C413.715 244.529 400.907 201.42 390.152 189.928C385.258 184.699 380.474 185.498 376.42 188.862C375.409 189.703 362.869 205.618 361.807 211.165C360.868 216.067 364.853 221.508 364.853 221.508L362.084 242.726Z" fill="#03B0EF"/>
<path d="M380.091 221.19C377.9 221.02 375.687 220.923 373.491 221.079C372.399 221.157 371.318 221.285 370.233 221.436C369.692 221.511 369.153 221.568 368.61 221.623C368.053 221.679 367.459 221.717 366.903 221.634C366.853 221.627 366.841 221.701 366.89 221.711C367.425 221.824 367.938 221.93 368.485 221.971C369.005 222.01 369.532 221.993 370.053 221.961C371.162 221.893 372.267 221.773 373.374 221.693C375.609 221.532 377.843 221.372 380.085 221.373C380.189 221.373 380.195 221.198 380.091 221.19Z" fill="#263238"/>
<path d="M385.077 224.068C383.341 223.566 381.553 223.14 379.77 222.838C378.873 222.686 377.975 222.587 377.068 222.512C376.635 222.476 376.202 222.448 375.768 222.425C375.291 222.399 374.81 222.438 374.334 222.406C374.284 222.403 374.27 222.478 374.321 222.483C374.769 222.527 375.212 222.645 375.657 222.715C376.104 222.785 376.552 222.852 376.999 222.922C377.895 223.062 378.788 223.212 379.685 223.344C381.481 223.608 383.266 223.889 385.051 224.215C385.149 224.233 385.167 224.094 385.077 224.068Z" fill="#263238"/>
<path d="M377.905 190.084C377.905 190.45 377.608 190.747 377.243 190.747C376.877 190.747 376.58 190.45 376.58 190.084C376.58 189.718 376.877 189.422 377.243 189.422C377.609 189.422 377.905 189.719 377.905 190.084ZM387.502 189.422C387.136 189.422 386.839 189.719 386.839 190.084C386.839 190.45 387.136 190.747 387.502 190.747C387.868 190.747 388.165 190.45 388.165 190.084C388.164 189.719 387.868 189.422 387.502 189.422ZM366.984 204.278C366.618 204.278 366.321 204.575 366.321 204.941C366.321 205.307 366.618 205.603 366.984 205.603C367.35 205.603 367.647 205.306 367.647 204.941C367.646 204.575 367.35 204.278 366.984 204.278ZM377.243 204.278C376.877 204.278 376.58 204.575 376.58 204.941C376.58 205.307 376.877 205.603 377.243 205.603C377.609 205.603 377.905 205.306 377.905 204.941C377.905 204.575 377.609 204.278 377.243 204.278ZM387.502 204.278C387.136 204.278 386.839 204.575 386.839 204.941C386.839 205.307 387.136 205.603 387.502 205.603C387.868 205.603 388.165 205.306 388.165 204.941C388.164 204.575 387.868 204.278 387.502 204.278ZM397.761 204.278C397.395 204.278 397.098 204.575 397.098 204.941C397.098 205.307 397.395 205.603 397.761 205.603C398.127 205.603 398.424 205.306 398.424 204.941C398.423 204.575 398.126 204.278 397.761 204.278ZM372.113 196.606C371.747 196.606 371.45 196.903 371.45 197.269C371.45 197.635 371.747 197.931 372.113 197.931C372.479 197.931 372.776 197.634 372.776 197.269C372.776 196.902 372.479 196.606 372.113 196.606ZM382.372 196.606C382.006 196.606 381.709 196.903 381.709 197.269C381.709 197.635 382.006 197.931 382.372 197.931C382.738 197.931 383.035 197.634 383.035 197.269C383.035 196.902 382.738 196.606 382.372 196.606ZM392.631 196.606C392.265 196.606 391.968 196.903 391.968 197.269C391.968 197.635 392.265 197.931 392.631 197.931C392.997 197.931 393.294 197.634 393.294 197.269C393.294 196.902 392.997 196.606 392.631 196.606ZM366.984 219.135C366.618 219.135 366.321 219.432 366.321 219.797C366.321 220.163 366.618 220.46 366.984 220.46C367.35 220.46 367.647 220.163 367.647 219.797C367.646 219.432 367.35 219.135 366.984 219.135ZM377.243 219.135C376.877 219.135 376.58 219.432 376.58 219.797C376.58 220.163 376.877 220.46 377.243 220.46C377.609 220.46 377.905 220.163 377.905 219.797C377.905 219.432 377.609 219.135 377.243 219.135ZM387.502 219.135C387.136 219.135 386.839 219.432 386.839 219.797C386.839 220.163 387.136 220.46 387.502 220.46C387.868 220.46 388.165 220.163 388.165 219.797C388.164 219.432 387.868 219.135 387.502 219.135ZM397.761 219.135C397.395 219.135 397.098 219.432 397.098 219.797C397.098 220.163 397.395 220.46 397.761 220.46C398.127 220.46 398.424 220.163 398.424 219.797C398.423 219.432 398.126 219.135 397.761 219.135ZM361.85 211.463C361.82 211.463 361.79 211.463 361.76 211.473C361.69 211.903 361.67 212.333 361.67 212.753C361.72 212.773 361.79 212.783 361.85 212.783C362.22 212.783 362.52 212.493 362.52 212.123C362.52 211.763 362.22 211.463 361.85 211.463ZM372.113 211.462C371.747 211.462 371.45 211.759 371.45 212.124C371.45 212.49 371.747 212.787 372.113 212.787C372.479 212.787 372.776 212.49 372.776 212.124C372.776 211.759 372.479 211.462 372.113 211.462ZM382.372 211.462C382.006 211.462 381.709 211.759 381.709 212.124C381.709 212.49 382.006 212.787 382.372 212.787C382.738 212.787 383.035 212.49 383.035 212.124C383.035 211.759 382.738 211.462 382.372 211.462ZM392.631 211.462C392.265 211.462 391.968 211.759 391.968 212.124C391.968 212.49 392.265 212.787 392.631 212.787C392.997 212.787 393.294 212.49 393.294 212.124C393.294 211.759 392.997 211.462 392.631 211.462ZM402.24 212.013C402.23 212.043 402.23 212.083 402.23 212.123C402.23 212.353 402.34 212.543 402.51 212.663C402.41 212.453 402.33 212.233 402.24 212.013ZM366.984 233.991C366.618 233.991 366.321 234.288 366.321 234.654C366.321 235.02 366.618 235.317 366.984 235.317C367.35 235.317 367.647 235.02 367.647 234.654C367.647 234.288 367.35 233.991 366.984 233.991ZM377.243 233.991C376.877 233.991 376.58 234.288 376.58 234.654C376.58 235.02 376.877 235.317 377.243 235.317C377.609 235.317 377.905 235.02 377.905 234.654C377.905 234.288 377.609 233.991 377.243 233.991ZM387.502 233.991C387.136 233.991 386.839 234.288 386.839 234.654C386.839 235.02 387.136 235.317 387.502 235.317C387.868 235.317 388.165 235.02 388.165 234.654C388.165 234.288 387.868 233.991 387.502 233.991ZM397.761 233.991C397.395 233.991 397.098 234.288 397.098 234.654C397.098 235.02 397.395 235.317 397.761 235.317C398.127 235.317 398.424 235.02 398.424 234.654C398.424 234.288 398.126 233.991 397.761 233.991ZM408.02 233.991C407.654 233.991 407.357 234.288 407.357 234.654C407.357 235.02 407.654 235.317 408.02 235.317C408.386 235.317 408.683 235.02 408.683 234.654C408.683 234.288 408.385 233.991 408.02 233.991ZM372.113 226.319C371.747 226.319 371.45 226.616 371.45 226.982C371.45 227.348 371.747 227.644 372.113 227.644C372.479 227.644 372.776 227.347 372.776 226.982C372.776 226.615 372.479 226.319 372.113 226.319ZM382.372 226.319C382.006 226.319 381.709 226.616 381.709 226.982C381.709 227.348 382.006 227.644 382.372 227.644C382.738 227.644 383.035 227.347 383.035 226.982C383.035 226.615 382.738 226.319 382.372 226.319ZM392.631 226.319C392.265 226.319 391.968 226.616 391.968 226.982C391.968 227.348 392.265 227.644 392.631 227.644C392.997 227.644 393.294 227.347 393.294 226.982C393.294 226.615 392.997 226.319 392.631 226.319ZM402.89 226.319C402.524 226.319 402.227 226.616 402.227 226.982C402.227 227.348 402.524 227.644 402.89 227.644C403.256 227.644 403.553 227.347 403.553 226.982C403.553 226.615 403.256 226.319 402.89 226.319ZM362.27 241.323L362.13 242.443C362.36 242.333 362.52 242.103 362.52 241.833C362.52 241.623 362.42 241.443 362.27 241.323ZM372.113 241.175C371.747 241.175 371.45 241.472 371.45 241.838C371.45 242.204 371.747 242.501 372.113 242.501C372.479 242.501 372.776 242.204 372.776 241.838C372.776 241.472 372.479 241.175 372.113 241.175ZM382.372 241.175C382.006 241.175 381.709 241.472 381.709 241.838C381.709 242.204 382.006 242.501 382.372 242.501C382.738 242.501 383.035 242.204 383.035 241.838C383.035 241.472 382.738 241.175 382.372 241.175ZM392.631 241.175C392.265 241.175 391.968 241.472 391.968 241.838C391.968 242.204 392.265 242.501 392.631 242.501C392.997 242.501 393.294 242.204 393.294 241.838C393.294 241.472 392.997 241.175 392.631 241.175ZM402.89 241.175C402.524 241.175 402.227 241.472 402.227 241.838C402.227 242.204 402.524 242.501 402.89 242.501C403.256 242.501 403.553 242.204 403.553 241.838C403.553 241.472 403.256 241.175 402.89 241.175ZM412.73 241.323C412.58 241.443 412.49 241.633 412.49 241.833C412.49 242.183 412.75 242.473 413.1 242.503C412.99 242.153 412.87 241.753 412.73 241.323Z" fill="white"/>
<path d="M368.346 199.433C367.24 200.912 366.245 202.449 365.301 204.027C365.686 203.134 366.048 202.233 366.364 201.308C366.377 201.27 366.317 201.247 366.299 201.283C365.971 201.937 365.636 202.589 365.361 203.268C365.114 203.877 364.874 204.486 364.647 205.102C364.641 205.113 364.633 205.124 364.627 205.135C363.567 206.998 362.328 208.881 361.797 210.981C361.323 212.855 361.409 214.865 361.917 216.722C362.181 217.69 362.572 218.616 363.034 219.506C363.432 220.274 363.879 221.082 364.501 221.699C364.156 223.664 363.929 225.659 363.672 227.637C363.422 229.554 363.076 231.52 363.067 233.457C363.067 233.58 363.243 233.592 363.276 233.48C363.315 233.341 363.358 233.203 363.403 233.065C363.412 233.038 363.4 233.016 363.384 232.999C363.806 231.216 363.99 229.348 364.235 227.54C364.49 225.661 364.965 221.739 364.967 221.717C364.975 221.627 364.072 220.074 363.718 219.327C363.288 218.418 362.944 217.462 362.683 216.49C362.186 214.643 362.054 212.715 362.569 210.857C363.118 208.876 364.222 206.98 365.218 205.195C366.279 203.294 367.374 201.406 368.471 199.525C368.515 199.45 368.4 199.361 368.346 199.433Z" fill="#263238"/>
<path d="M375.748 219.26L347.244 236.531L369.728 273.637L398.232 256.365L375.748 219.26Z" fill="#263238"/>
<path d="M355.996 234.256L369.496 226.055L367.011 221.964L353.511 230.166L355.996 234.256Z" fill="#A6A6A6"/>
<path d="M356.559 228.302L358.221 227.292L357.075 225.405L361.115 222.951L362.261 224.837L363.924 223.828L361.835 220.391L354.447 224.879L356.559 228.302Z" fill="#A6A6A6"/>
<path d="M390.9 190.454C402.459 200.019 425.852 223.642 421.819 231.121C415.189 243.418 395.458 257.504 389.058 260.835C386.267 262.288 371.035 243.315 373.42 240.942C376.283 238.094 397.989 225.087 397.428 223.104C397.11 221.98 392.311 213.081 387.272 201.382C381.428 187.811 385.39 185.894 390.9 190.454Z" fill="#FFBE93"/>
<path d="M350.871 251.954C351.102 254.621 353.808 255.222 353.808 255.222C353.808 255.222 352.781 257.097 353.331 259.075C353.96 261.341 357.789 261.348 357.789 261.348C357.789 261.348 357.143 263.461 357.934 265.492C358.755 267.6 362.617 268.158 362.617 268.158C362.617 268.158 363.096 270.457 365.039 271.722C368.361 273.886 373.853 271.335 377.36 269.749C380.867 268.163 389.33 260.379 391.093 259.059L381.108 236.461C381.108 236.461 363.357 239.099 359.498 241.549C356.247 243.613 350.612 248.96 350.871 251.954Z" fill="#FFBE93"/>
<path d="M353.803 254.788C356.733 251.764 360.397 249.771 363.942 247.574C364.021 247.525 364.097 247.649 364.017 247.697C360.466 249.841 357.387 252.663 353.929 254.944C353.834 255.007 353.724 254.87 353.803 254.788Z" fill="#263238"/>
<path d="M357.731 261.02C358.414 260.356 359.315 259.919 360.142 259.462C361.032 258.97 361.931 258.494 362.837 258.031C364.651 257.105 366.486 256.22 368.346 255.39C368.428 255.353 368.505 255.47 368.421 255.514C366.615 256.44 364.823 257.393 363.057 258.395C362.174 258.896 361.294 259.405 360.418 259.919C359.603 260.398 358.784 260.97 357.877 261.259C357.742 261.301 357.628 261.12 357.731 261.02Z" fill="#263238"/>
<path d="M362.692 268.113C363.263 267.512 364.201 267.183 364.937 266.826C365.772 266.421 366.605 266.012 367.436 265.598C369.097 264.77 370.758 263.942 372.389 263.056C372.47 263.012 372.546 263.134 372.464 263.179C370.811 264.087 369.171 265.017 367.51 265.91C366.695 266.349 365.877 266.783 365.056 267.212C364.358 267.577 363.528 268.113 362.73 268.196C362.686 268.203 362.664 268.143 362.692 268.113Z" fill="#263238"/>
<path d="M380.39 235.416L396.743 257.638C396.743 257.638 420.538 239.328 422.889 229.952C424.999 221.533 398.521 195.912 392.659 191.091C386.796 186.27 382.168 186.347 385.103 196.112C388.037 205.877 396.578 222.796 396.648 223.078C396.716 223.361 380.39 235.416 380.39 235.416Z" fill="#03B0EF"/>
<path d="M388.164 190.084C388.164 190.45 387.867 190.747 387.501 190.747C387.135 190.747 386.838 190.45 386.838 190.084C386.838 189.718 387.135 189.422 387.501 189.422C387.867 189.422 388.164 189.719 388.164 190.084ZM397.761 204.278C397.395 204.278 397.098 204.575 397.098 204.941C397.098 205.307 397.395 205.603 397.761 205.603C398.127 205.603 398.424 205.306 398.424 204.941C398.423 204.575 398.126 204.278 397.761 204.278ZM392.631 196.606C392.265 196.606 391.968 196.903 391.968 197.269C391.968 197.635 392.265 197.931 392.631 197.931C392.997 197.931 393.294 197.634 393.294 197.269C393.294 196.902 392.997 196.606 392.631 196.606ZM397.761 219.135C397.395 219.135 397.098 219.432 397.098 219.797C397.098 220.163 397.395 220.46 397.761 220.46C398.127 220.46 398.424 220.163 398.424 219.797C398.423 219.432 398.126 219.135 397.761 219.135ZM408.02 219.135C407.654 219.135 407.357 219.432 407.357 219.797C407.357 220.163 407.654 220.46 408.02 220.46C408.386 220.46 408.683 220.163 408.683 219.797C408.682 219.432 408.385 219.135 408.02 219.135ZM418.278 219.135C417.912 219.135 417.615 219.432 417.615 219.797C417.615 220.163 417.912 220.46 418.278 220.46C418.644 220.46 418.941 220.163 418.941 219.797C418.941 219.432 418.644 219.135 418.278 219.135ZM392.631 211.462C392.265 211.462 391.968 211.759 391.968 212.124C391.968 212.49 392.265 212.787 392.631 212.787C392.997 212.787 393.294 212.49 393.294 212.124C393.294 211.759 392.997 211.462 392.631 211.462ZM402.89 211.462C402.524 211.462 402.227 211.759 402.227 212.124C402.227 212.49 402.524 212.787 402.89 212.787C403.256 212.787 403.553 212.49 403.553 212.124C403.553 211.759 403.256 211.462 402.89 211.462ZM413.65 212.553C413.53 212.693 413.35 212.783 413.15 212.783C412.78 212.783 412.49 212.493 412.49 212.123C412.49 211.883 412.62 211.663 412.82 211.553L413.65 212.553ZM387.502 233.991C387.136 233.991 386.839 234.288 386.839 234.654C386.839 235.02 387.136 235.317 387.502 235.317C387.868 235.317 388.165 235.02 388.165 234.654C388.165 234.288 387.868 233.991 387.502 233.991ZM397.761 233.991C397.395 233.991 397.098 234.288 397.098 234.654C397.098 235.02 397.395 235.317 397.761 235.317C398.127 235.317 398.424 235.02 398.424 234.654C398.424 234.288 398.126 233.991 397.761 233.991ZM408.02 233.991C407.654 233.991 407.357 234.288 407.357 234.654C407.357 235.02 407.654 235.317 408.02 235.317C408.386 235.317 408.683 235.02 408.683 234.654C408.683 234.288 408.385 233.991 408.02 233.991ZM418.278 233.991C417.912 233.991 417.615 234.288 417.615 234.654C417.615 235.02 417.912 235.317 418.278 235.317C418.644 235.317 418.941 235.02 418.941 234.654C418.941 234.288 418.644 233.991 418.278 233.991ZM392.631 226.319C392.265 226.319 391.968 226.616 391.968 226.982C391.968 227.348 392.265 227.644 392.631 227.644C392.997 227.644 393.294 227.347 393.294 226.982C393.294 226.615 392.997 226.319 392.631 226.319ZM402.89 226.319C402.524 226.319 402.227 226.616 402.227 226.982C402.227 227.348 402.524 227.644 402.89 227.644C403.256 227.644 403.553 227.347 403.553 226.982C403.553 226.615 403.256 226.319 402.89 226.319ZM413.149 226.319C412.783 226.319 412.486 226.616 412.486 226.982C412.486 227.348 412.783 227.644 413.149 227.644C413.515 227.644 413.812 227.347 413.812 226.982C413.811 226.615 413.515 226.319 413.149 226.319ZM397.761 248.848C397.395 248.848 397.098 249.145 397.098 249.511C397.098 249.877 397.395 250.174 397.761 250.174C398.127 250.174 398.424 249.877 398.424 249.511C398.423 249.145 398.126 248.848 397.761 248.848ZM392.631 241.175C392.265 241.175 391.968 241.472 391.968 241.838C391.968 242.204 392.265 242.501 392.631 242.501C392.997 242.501 393.294 242.204 393.294 241.838C393.294 241.472 392.997 241.175 392.631 241.175ZM402.89 241.175C402.524 241.175 402.227 241.472 402.227 241.838C402.227 242.204 402.524 242.501 402.89 242.501C403.256 242.501 403.553 242.204 403.553 241.838C403.553 241.472 403.256 241.175 402.89 241.175ZM413.149 241.175C412.783 241.175 412.486 241.472 412.486 241.838C412.486 242.204 412.783 242.501 413.149 242.501C413.515 242.501 413.812 242.204 413.812 241.838C413.812 241.472 413.515 241.175 413.149 241.175Z" fill="white"/>
<path d="M393.88 241.958C392.671 240.254 387.757 233.546 386.366 232.03C386.325 231.985 386.252 232.057 386.277 232.104C387.262 233.932 392.029 240.804 393.243 242.502C395.669 245.896 398.061 249.35 400.794 252.519C400.85 252.584 400.97 252.511 400.925 252.434C398.818 248.798 396.312 245.385 393.88 241.958Z" fill="#263238"/>
<path d="M391.973 212.582C390.328 208.999 388.759 205.379 387.18 201.767C387.15 201.699 387.035 201.748 387.059 201.819C387.766 203.91 388.544 205.969 389.37 208.009C388.753 207.003 388.165 205.979 387.593 204.947C387.55 204.87 387.446 204.939 387.479 205.015C388.091 206.419 388.892 207.726 389.768 208.978C390.28 210.214 390.803 211.446 391.35 212.67C392.148 214.456 395.856 222.265 396.336 223.123C393.441 224.992 390.978 227.027 388.197 229.062C386.836 230.058 385.484 231.064 384.144 232.089C382.822 233.1 381.164 234.089 380.033 235.226C379.963 235.297 380.339 235.619 380.484 235.792C380.548 235.868 380.693 235.82 380.639 235.734C380.639 235.734 380.529 235.553 380.495 235.482C381.194 235.098 383.88 233.084 384.577 232.577C385.939 231.585 387.296 230.587 388.654 229.59C391.412 227.566 397.139 223.363 397.123 223.316C396.825 222.463 392.807 214.398 391.973 212.582Z" fill="#263238"/>
<path d="M385.728 188.562C385.523 189.484 381.202 195.501 376.998 195.351C375.629 195.3 375.575 187.814 375.575 187.814L375.444 187.262L373.626 179.538L382.657 173.6L383.963 172.812C383.963 172.812 384.321 174.958 384.74 177.635C384.76 177.759 384.78 177.884 384.8 178.017C384.828 178.168 384.856 178.31 384.875 178.452C384.943 178.851 385.01 179.258 385.069 179.665C385.115 179.975 385.161 180.277 385.198 180.604C385.243 180.931 385.28 181.25 385.325 181.577C385.696 184.815 385.809 188.171 385.728 188.562Z" fill="#FFBE93"/>
<path d="M384.739 177.634C382.59 183.822 377.695 186.389 375.444 187.261L373.626 179.537L382.657 173.6L383.963 172.813C383.961 172.812 384.32 174.957 384.739 177.634Z" fill="#263238"/>
<path d="M362.157 165.239C358.186 178.587 365.732 182.473 368.611 183.326C371.225 184.1 380.223 186.405 385.552 173.539C390.881 160.672 385.93 154.606 380.046 152.519C374.162 150.431 366.128 151.89 362.157 165.239Z" fill="#FFBE93"/>
<path d="M364.725 163.497C365.05 163.547 365.359 163.538 365.685 163.554C366.054 163.572 366.345 163.624 366.675 163.425C366.852 163.318 366.921 163.023 366.834 162.842C366.631 162.419 366.185 162.285 365.742 162.245C365.261 162.202 364.88 162.292 364.481 162.562C364.094 162.823 364.296 163.431 364.725 163.497Z" fill="#263238"/>
<path d="M373.944 165.987C373.639 165.864 373.378 165.7 373.089 165.547C372.762 165.375 372.485 165.271 372.302 164.932C372.204 164.75 372.295 164.461 372.463 164.349C372.853 164.088 373.305 164.2 373.707 164.391C374.142 164.599 374.425 164.87 374.631 165.306C374.83 165.729 374.347 166.149 373.944 165.987Z" fill="#263238"/>
<path d="M370.914 168.702C370.931 168.669 370.972 168.766 370.96 168.803C370.66 169.703 370.467 170.784 371.199 171.331C371.222 171.348 371.205 171.393 371.176 171.38C370.215 170.939 370.485 169.506 370.914 168.702Z" fill="#263238"/>
<path d="M372.008 167.994C373.502 168.32 372.741 171.285 371.356 170.983C369.994 170.685 370.756 167.72 372.008 167.994Z" fill="#263238"/>
<path d="M372.55 168.298C372.766 168.532 372.944 168.894 373.248 169.005C373.6 169.134 373.953 168.893 374.265 168.655C374.298 168.63 374.316 168.663 374.307 168.702C374.169 169.272 373.801 169.799 373.171 169.727C372.595 169.662 372.326 169.056 372.331 168.449C372.331 168.336 372.463 168.203 372.55 168.298Z" fill="#263238"/>
<path d="M365.858 167.199C365.859 167.162 365.775 167.225 365.767 167.263C365.567 168.19 365.183 169.219 364.274 169.317C364.246 169.32 364.237 169.367 364.269 169.37C365.321 169.48 365.818 168.11 365.858 167.199Z" fill="#263238"/>
<path d="M365.275 166.037C363.823 165.557 362.969 168.496 364.314 168.941C365.638 169.379 366.493 166.439 365.275 166.037Z" fill="#263238"/>
<path d="M364.606 166.048C364.329 166.136 364.017 166.353 363.734 166.29C363.406 166.218 363.261 165.831 363.144 165.466C363.132 165.428 363.102 165.446 363.089 165.485C362.91 166.042 362.926 166.682 363.434 166.946C363.898 167.187 364.4 166.81 364.696 166.29C364.752 166.193 364.718 166.012 364.606 166.048Z" fill="#263238"/>
<path d="M369.083 176.269C368.815 176.44 368.531 176.693 368.188 176.651C367.859 176.611 367.511 176.386 367.239 176.209C367.212 176.191 367.176 176.216 367.189 176.248C367.356 176.655 367.816 176.984 368.262 176.998C368.698 177.012 368.981 176.693 369.164 176.33C369.189 176.279 369.122 176.244 369.083 176.269Z" fill="#263238"/>
<path d="M365.942 173.822C365.942 173.822 366.279 174.866 367.025 175.454C367.299 175.672 367.621 175.829 368.005 175.854C368.794 175.908 369.036 175.249 369.095 174.636C369.145 174.132 369.064 173.656 369.064 173.656C369.064 173.656 367.673 174.289 365.942 173.822Z" fill="#263238"/>
<path d="M367.025 175.451C367.299 175.669 367.621 175.826 368.005 175.851C368.794 175.905 369.036 175.246 369.095 174.633C368.292 174.451 367.346 174.719 367.025 175.451Z" fill="#FF97B8"/>
<path d="M366.146 171.928C366.146 171.928 365.589 173.245 365.415 173.89C365.399 173.95 365.547 174.021 365.763 174.093C365.773 174.099 365.777 174.105 365.788 174.101C366.879 174.586 368.132 174.501 369.075 173.758C369.137 173.707 369.073 173.618 369.003 173.643C367.984 174.038 367.001 173.946 365.987 173.691C365.99 173.5 367.017 171.468 366.917 171.433C366.573 171.308 365.813 171.36 365.363 171.37C366.445 168.594 367.962 166.014 368.998 163.233C369.033 163.133 368.895 163.063 368.841 163.146C367.059 165.737 365.744 168.905 364.553 171.743C364.4 172.095 365.859 171.968 366.146 171.928Z" fill="#263238"/>
<path d="M384.717 173.213C381.516 172.557 382.62 167.524 382.62 167.524C382.62 167.524 379.066 166.419 380.053 160.512C380.053 160.512 377.553 163.669 372.486 163.336C371.413 163.265 375.477 161.317 375.477 161.317C375.477 161.317 370.49 164.203 363.045 161.106C362.519 160.887 365.439 152.96 372.118 151.474C378.797 149.988 383.94 152.746 386.881 157.388C386.881 157.388 390.898 160.397 390.494 164.725C390.09 169.054 385.961 173.468 384.717 173.213Z" fill="#263238"/>
<path d="M384.113 178.463C383.869 178.502 383.651 178.511 383.448 178.496C383.206 178.49 382.992 178.446 382.801 178.381C382.5 178.289 382.258 178.138 382.067 177.965C381.889 177.813 381.744 177.633 381.634 177.462C381.349 177.013 381.274 176.59 381.274 176.59L382.778 173.101C382.778 173.101 386.634 169.456 388.343 170.915C390.06 172.374 386.556 178.087 384.113 178.463Z" fill="#FFBE93"/>
<path d="M387.301 172.524C387.338 172.528 387.335 172.581 387.301 172.587C385.578 172.905 384.438 174.207 383.537 175.616C384.131 175.125 384.841 174.934 385.514 175.66C385.549 175.698 385.497 175.755 385.454 175.736C384.831 175.462 384.338 175.479 383.79 175.91C383.403 176.215 383.094 176.639 382.783 177.019C382.679 177.146 382.438 177.017 382.526 176.864C382.533 176.853 382.54 176.841 382.547 176.83C382.923 174.795 385.082 172.281 387.301 172.524Z" fill="#263238"/>
<path d="M384.042 177.85C383.903 178.178 383.524 178.331 383.196 178.192C382.868 178.053 382.715 177.674 382.855 177.346C382.994 177.018 383.373 176.865 383.701 177.004C384.029 177.144 384.182 177.522 384.042 177.85Z" fill="white"/>
<path d="M385.537 177.165C385.438 177.397 385.171 177.505 384.939 177.407C384.707 177.308 384.599 177.041 384.698 176.809C384.796 176.577 385.064 176.469 385.296 176.567C385.528 176.666 385.636 176.933 385.537 177.165Z" fill="white"/>
<path d="M375.624 189.46L371.086 197.194L376.682 195.255L381.11 199.855L385.728 188.562L376.746 195.052L375.624 189.46Z" fill="white"/>
</svg>
