<svg width="40" height="40" viewBox="0 0 40 40" fill="none" xmlns="http://www.w3.org/2000/svg">
<path d="M34.167 27.9141H30.417V24.1641C30.417 23.4807 29.8503 22.9141 29.167 22.9141C28.4837 22.9141 27.917 23.4807 27.917 24.1641V27.9141H24.167C23.4837 27.9141 22.917 28.4807 22.917 29.1641C22.917 29.8474 23.4837 30.4141 24.167 30.4141H27.917V34.1641C27.917 34.8474 28.4837 35.4141 29.167 35.4141C29.8503 35.4141 30.417 34.8474 30.417 34.1641V30.4141H34.167C34.8503 30.4141 35.417 29.8474 35.417 29.1641C35.417 28.4807 34.8503 27.9141 34.167 27.9141Z" fill="#9B9B9B"/>
<path d="M36.6667 14.2026V6.63594C36.6667 4.28594 35.6 3.33594 32.95 3.33594H26.2167C23.5667 3.33594 22.5 4.28594 22.5 6.63594V14.1859C22.5 16.5526 23.5667 17.4859 26.2167 17.4859H32.95C35.6 17.5026 36.6667 16.5526 36.6667 14.2026Z" fill="#9B9B9B"/>
<path d="M17.4997 14.2026V6.63594C17.4997 4.28594 16.433 3.33594 13.783 3.33594H7.04967C4.39967 3.33594 3.33301 4.28594 3.33301 6.63594V14.1859C3.33301 16.5526 4.39967 17.4859 7.04967 17.4859H13.783C16.433 17.5026 17.4997 16.5526 17.4997 14.2026Z" fill="#9B9B9B"/>
<path d="M17.4997 32.95V26.2167C17.4997 23.5667 16.433 22.5 13.783 22.5H7.04967C4.39967 22.5 3.33301 23.5667 3.33301 26.2167V32.95C3.33301 35.6 4.39967 36.6667 7.04967 36.6667H13.783C16.433 36.6667 17.4997 35.6 17.4997 32.95Z" fill="#9B9B9B"/>
</svg>
