<svg width="40" height="40" viewBox="0 0 40 40" fill="none" xmlns="http://www.w3.org/2000/svg">
<path d="M18.3332 33.1654V6.83203C18.3332 4.33203 17.2665 3.33203 14.6165 3.33203H7.88317C5.23317 3.33203 4.1665 4.33203 4.1665 6.83203V33.1654C4.1665 35.6654 5.23317 36.6654 7.88317 36.6654H14.6165C17.2665 36.6654 18.3332 35.6654 18.3332 33.1654Z" fill="#9B9B9B"/>
<path d="M35.8332 18.1654V6.83203C35.8332 4.33203 34.7665 3.33203 32.1165 3.33203H25.3832C22.7332 3.33203 21.6665 4.33203 21.6665 6.83203V18.1654C21.6665 20.6654 22.7332 21.6654 25.3832 21.6654H32.1165C34.7665 21.6654 35.8332 20.6654 35.8332 18.1654Z" fill="#9B9B9B"/>
<path d="M35.8332 33.1667V28.5C35.8332 26 34.7665 25 32.1165 25H25.3832C22.7332 25 21.6665 26 21.6665 28.5V33.1667C21.6665 35.6667 22.7332 36.6667 25.3832 36.6667H32.1165C34.7665 36.6667 35.8332 35.6667 35.8332 33.1667Z" fill="#9B9B9B"/>
</svg>
