<svg width="114" height="112" viewBox="0 0 114 112" fill="none" xmlns="http://www.w3.org/2000/svg">
<g opacity="0.3" clip-path="url(#clip0_5536_79768)">
<path d="M58.5691 0.807542C48.4231 1.30489 39.1325 4.10997 30.6377 9.22275C25.883 12.0875 20.2331 16.8024 16.4731 20.9802C5.15338 33.6328 0.000809669 48.1953 0.796574 65.344C1.27403 75.6691 4.03931 84.8602 9.23168 93.4942C15.3591 103.66 25.6642 113.03 36.029 117.845C44.1856 121.644 52.3024 123.355 62.0505 123.355C74.8822 123.355 85.645 120.212 95.5721 113.567C101.68 109.489 106.932 104.476 111.507 98.4081C120.082 86.9888 124.001 73.8388 123.305 58.779C122.907 50.2842 121.136 43.0825 117.655 35.861C113.218 26.65 106.733 18.8316 98.218 12.4854C88.9872 5.56224 77.8266 1.46405 66.7257 0.887119C62.2296 0.668283 61.4935 0.648389 58.5691 0.807542ZM43.8872 38.7655C47.1697 39.5812 50.0345 41.2921 52.5412 43.9181C56.2415 47.7974 58.2906 52.7511 59.0465 59.5151C59.1659 60.5894 59.2654 61.9819 59.2654 62.6583V63.852H24.9878L25.1072 66.0801C25.4653 72.6651 28.8274 77.1214 34.7359 78.8124C36.785 79.4092 41.1617 79.449 43.1511 78.9118C46.9907 77.8773 50.2732 74.8733 50.8303 71.8892L50.9496 71.2128H58.5094L58.3502 71.8494C57.2163 77.1015 53.894 81.3389 48.9801 83.8257C45.5384 85.5565 40.1471 86.3124 35.4521 85.7355C30.6775 85.1387 26.9772 83.4278 23.834 80.3641C20.5912 77.181 18.7808 73.5603 17.627 67.9303C17.0501 65.0257 16.9904 58.6795 17.5275 56.1729C18.8604 50.0256 22.143 44.8133 26.5992 41.7894C29.0263 40.1382 32.3685 38.8053 35.094 38.3875C37.0834 38.0891 42.0172 38.288 43.8872 38.7655ZM77.9459 46.4446C81.0494 50.9805 83.6555 54.7007 83.755 54.7007C83.8346 54.7007 86.5203 51.0203 89.7233 46.5242C92.9262 42.0281 95.6318 38.3079 95.7512 38.2682C95.8705 38.2284 98.0191 38.2085 100.506 38.2284L105.042 38.2881L97.1438 48.8319C92.8068 54.6211 89.1264 59.5748 88.9673 59.8135C88.6888 60.2313 89.1065 60.848 97.7008 72.8441C102.674 79.7673 106.812 85.5565 106.892 85.6758C107.011 85.8748 105.977 85.9344 101.998 85.9344L96.9647 85.9146L90.4195 76.1863C86.8386 70.8149 83.8346 66.4382 83.755 66.4382C83.6754 66.4382 80.6515 70.8149 77.0507 76.1863L70.5055 85.9146L65.7906 85.9344C63.1845 85.9344 61.0558 85.8947 61.0558 85.8549C61.0558 85.7952 65.0347 80.1851 69.9087 73.3614C74.7828 66.5377 78.7218 60.8679 78.682 60.7485C78.6223 60.6092 74.9618 55.576 70.5254 49.5282C66.089 43.4804 62.4484 38.4671 62.4484 38.3676C62.4484 38.2682 64.6169 38.1886 67.3822 38.1886H72.296L77.9459 46.4446Z" fill="white"/>
<path d="M36.1876 44.9508C33.283 45.3288 31.1345 46.4031 29.0058 48.5317C27.7525 49.7453 27.3347 50.362 26.5787 51.9137C25.7233 53.6843 25.0469 56.0318 25.0469 57.1658V57.683H51.1082V57.0265C51.1082 55.8528 50.3522 53.3461 49.5166 51.7347C47.5869 48.0145 44.0855 45.5476 39.8879 44.9707C38.2168 44.7319 37.8189 44.7319 36.1876 44.9508Z" fill="white"/>
</g>
<defs>
<clipPath id="clip0_5536_79768">
<rect width="124" height="124" fill="white"/>
</clipPath>
</defs>
</svg>
