<svg width="794" height="794" viewBox="0 0 794 794" fill="none" xmlns="http://www.w3.org/2000/svg">
<path d="M515.439 397.001C515.439 462.506 462.506 515.439 397.001 515.439C331.496 515.439 278.562 462.506 278.562 397.001C278.562 331.496 331.496 278.562 397.001 278.562C462.506 278.562 515.439 331.496 515.439 397.001Z" stroke="#292D32" stroke-width="4.5" stroke-linecap="round" stroke-linejoin="round"/>
<path d="M397.002 670.599C513.786 670.599 622.63 601.786 698.391 482.686C728.166 436.039 728.166 357.631 698.391 310.984C622.63 191.884 513.786 123.07 397.002 123.07C280.217 123.07 171.373 191.884 95.6125 310.984C65.8375 357.631 65.8375 436.039 95.6125 482.686C171.373 601.786 280.217 670.599 397.002 670.599Z" stroke="#292D32" stroke-width="4.5" stroke-linecap="round" stroke-linejoin="round"/>
</svg>
