<svg width="47" height="40" viewBox="0 0 47 40" fill="none" xmlns="http://www.w3.org/2000/svg">
<path d="M46.561 22.7848C46.561 23.8608 46.561 25 46.561 26.076C46.561 26.1392 46.561 26.1392 46.561 26.2025C46.561 26.4557 46.561 26.6456 46.4982 26.8987C46.4353 27.5316 46.3096 28.1646 46.1839 28.7342C45.9325 29.6835 45.6183 30.5696 45.1783 31.3924C44.8012 32.0886 44.2984 32.7215 43.7328 33.2279C43.4185 33.5443 43.0414 33.7975 42.6643 34.0506C41.9101 34.4937 41.093 34.8101 40.2131 34.9367C40.0874 34.9367 40.0246 34.9367 39.8989 35C39.2704 35 38.579 35 37.9505 35C37.8877 35 37.8877 35 37.8248 35C37.5734 34.9367 37.2592 34.9367 37.0078 34.8734C36.3793 34.7468 35.8136 34.557 35.3108 34.2405C34.6194 33.8608 34.0538 33.4177 33.4881 32.9114C33.0482 32.4684 32.6082 32.0253 32.1683 31.519C31.5398 30.7595 30.9741 29.9367 30.4085 29.1772C29.5914 27.9114 28.7743 26.6456 28.0201 25.3165C27.1402 23.7975 26.2603 22.2785 25.3804 20.8228C25.129 20.3797 24.8148 19.9367 24.5634 19.4937C24.5634 19.4937 24.5634 19.4304 24.5005 19.4304C24.4377 19.3671 24.4376 19.3671 24.3748 19.4304C24.3748 19.4304 24.3748 19.4937 24.3119 19.4937C24.2491 19.6203 24.1234 19.8101 24.0605 19.9367C23.6834 20.5696 23.3063 21.2658 22.9292 21.8987C22.3007 22.9747 21.7351 24.0506 21.1066 25.0633C20.5409 26.076 19.9753 27.0253 19.3468 27.9747C18.7811 28.9241 18.1526 29.8101 17.4612 30.6962C16.8956 31.3924 16.3299 32.0886 15.7014 32.6582C15.2615 33.1013 14.7587 33.481 14.2559 33.7975C13.376 34.3671 12.4332 34.7468 11.4276 34.8734C11.3647 34.8734 11.239 34.8734 11.1762 34.9367C10.4848 34.9367 9.85632 34.9367 9.16496 34.9367C9.10211 34.9367 9.10211 34.9367 9.03926 34.9367C8.66216 34.8734 8.22221 34.8101 7.8451 34.6835C6.33669 34.2405 5.14253 33.4177 4.19977 32.2152C3.69697 31.5823 3.25701 30.8228 2.94276 30.0633C2.56565 29.1139 2.31425 28.1013 2.18855 27.0886C2.1257 26.7089 2.06285 26.3291 2.06285 25.8861C2.06285 25.5063 2 25.1266 2 24.8101C2 24.4937 2 24.1139 2 23.7975C2 23.5443 2 23.2911 2 23.1013C2 22.7215 2.06285 22.3418 2.06285 21.962C2.1257 21.4557 2.18855 20.9494 2.2514 20.443C2.43995 19.3671 2.62851 18.2911 2.94276 17.2785C3.31986 15.9494 3.75982 14.6203 4.38832 13.4177C4.89113 12.3418 5.45678 11.3291 6.08529 10.3797C6.71379 9.49367 7.3423 8.73418 8.0965 7.97468C8.66216 7.46835 9.22781 6.96203 9.85632 6.58228C10.6105 6.07595 11.4276 5.6962 12.3075 5.44304C12.9988 5.25316 13.7531 5.06329 14.5073 5.06329C14.5701 5.06329 14.633 5.06329 14.6958 5.06329C14.8215 5.06329 14.8844 5.06329 15.0101 5.06329C15.0729 5.06329 15.1358 5.06329 15.1986 5.06329C15.5757 5.06329 15.9528 5.12658 16.2671 5.18987C17.4612 5.37974 18.5925 5.75949 19.5982 6.3924C20.5409 6.96202 21.358 7.59493 22.175 8.35443C22.6778 8.79747 23.1178 9.3038 23.5577 9.74684C23.9977 10.2532 24.3748 10.6962 24.7519 11.2025C24.8776 11.3291 24.8776 11.3291 24.9405 11.2025C25.129 10.9494 25.3804 10.6329 25.569 10.3797C26.0089 9.81013 26.4489 9.30379 26.9517 8.73417C27.3916 8.29114 27.8316 7.8481 28.2715 7.40506C28.7743 6.96202 29.34 6.51898 29.9685 6.13924C30.597 5.75949 31.2884 5.44303 31.9797 5.25316C32.4825 5.12658 32.9225 5 33.4253 5C33.8024 5 34.1795 5 34.6194 5C34.9337 5 35.2479 5.06329 35.625 5.12658C36.6307 5.31645 37.5734 5.75949 38.5162 6.26582C39.3332 6.77215 40.0874 7.40506 40.7788 8.03797C40.9674 8.22785 41.2188 8.48101 41.4073 8.73417C41.8473 9.2405 42.2244 9.74683 42.6015 10.3165C43.3557 11.4557 43.9842 12.5949 44.487 13.8608C44.8012 14.557 45.0526 15.2532 45.2412 16.0127C45.4926 16.7722 45.6811 17.5949 45.8697 18.3544C45.9954 18.9873 46.1211 19.557 46.1839 20.1899C46.2468 20.6329 46.3096 21.0127 46.3096 21.4557C46.3725 21.7722 46.3725 22.0886 46.3725 22.4051C46.561 22.6582 46.561 22.7215 46.561 22.7848ZM42.3501 24.4304C42.3501 24.3038 42.3501 24.2405 42.3501 24.1772C42.3501 23.7342 42.3501 23.2911 42.2872 22.8481C42.2872 22.4684 42.2244 22.0886 42.1615 21.7089C42.0987 21.1392 42.0358 20.5063 41.9101 19.9367C41.6587 18.481 41.2816 17.0253 40.7159 15.6962C40.3388 14.7468 39.8989 13.7975 39.3332 12.9114C38.8933 12.1519 38.3276 11.519 37.6991 10.8861C37.2592 10.443 36.8192 10.0633 36.2536 9.81013C35.4365 9.3038 34.4937 9.05063 33.551 9.05063C33.2996 9.05063 33.0482 9.11392 32.7968 9.11392C32.294 9.24051 31.7912 9.43038 31.3512 9.68354C30.8484 10 30.4085 10.3165 30.0313 10.6962C29.4657 11.2658 28.9 11.8987 28.3972 12.5316C27.9573 13.1013 27.5802 13.6709 27.2031 14.3038C27.0774 14.4937 27.0774 14.4304 27.2031 14.6203C28.0201 15.8861 28.8372 17.1519 29.5914 18.4177C30.3456 19.6835 31.037 20.8861 31.7912 22.1519C32.1683 22.7848 32.5454 23.4177 32.9853 24.0506C33.6138 25 34.1795 25.9494 34.8708 26.8987C35.3108 27.5316 35.8136 28.1646 36.3164 28.7975C36.5678 29.1139 36.8821 29.3671 37.2592 29.6203C37.6363 29.8734 38.0134 30 38.3905 30.0633C38.7676 30.1266 39.0818 30.1266 39.4589 30.0633C40.2131 30 40.8416 29.6203 41.2816 29.0506C41.533 28.6709 41.7216 28.2911 41.9101 27.8481C42.1615 27.0886 42.2872 26.3291 42.2872 25.5696C42.2872 25.443 42.2872 25.3798 42.2872 25.2532C42.3501 25.0633 42.3501 24.7468 42.3501 24.4304ZM6.83949 24.6835C6.83949 24.8734 6.83949 25.0633 6.83949 25.2532C6.83949 25.6962 6.90234 26.1392 6.9652 26.5823C7.02805 27.0886 7.15375 27.5949 7.40515 28.1013C7.5937 28.5443 7.8451 28.9873 8.22221 29.3671C8.47361 29.6203 8.78786 29.8101 9.10212 29.9367C9.47922 30.0633 9.79347 30.1266 10.1706 30.1899C10.3591 30.1899 10.5477 30.1899 10.7362 30.1899C11.1762 30.1266 11.5533 30 11.9304 29.8101C12.3703 29.557 12.6846 29.3038 13.0617 28.9873C13.4388 28.6709 13.7531 28.2911 14.0045 27.9114C14.633 27.1519 15.1358 26.3924 15.7014 25.6329C16.3928 24.6203 17.0841 23.5443 17.7126 22.5316C18.1526 21.8354 18.6554 21.0759 19.0954 20.3797C19.5982 19.557 20.1638 18.7342 20.6666 17.9114C21.0437 17.2785 21.4837 16.6456 21.8608 16.076C21.9865 15.8861 21.9865 15.8861 21.8608 15.7595C21.2951 14.9367 20.6666 14.1139 20.0381 13.4177C19.5353 12.8481 19.0325 12.3418 18.5297 11.8354C18.1526 11.519 17.7755 11.2025 17.3355 10.9494C16.8956 10.6962 16.3928 10.5063 15.8271 10.3797C15.45 10.3165 15.0729 10.2532 14.6958 10.2532C14.3816 10.2532 14.0673 10.3165 13.7531 10.3797C13.1874 10.5696 12.6846 10.8228 12.1818 11.1392C11.7418 11.4557 11.3647 11.7722 11.0505 12.1519C10.7362 12.4684 10.4848 12.8481 10.1706 13.2278C9.60492 13.9873 9.16497 14.8101 8.78786 15.6962C8.28506 16.8354 7.90795 17.9747 7.5937 19.1139C7.40515 19.9367 7.2166 20.8228 7.0909 21.6456C7.02805 22.0253 6.9652 22.4684 6.9652 22.8481C6.9652 23.1646 6.90235 23.481 6.90235 23.8608C6.83949 24.0506 6.83949 24.3671 6.83949 24.6835Z" fill="url(#paint0_linear_703_19073)"/>
<defs>
<linearGradient id="paint0_linear_703_19073" x1="15.9571" y1="29.4364" x2="37.2798" y2="10.8029" gradientUnits="userSpaceOnUse">
<stop stop-color="#0082FB"/>
<stop offset="0.1846" stop-color="#007CF5"/>
<stop offset="0.4402" stop-color="#006AE5"/>
<stop offset="0.5056" stop-color="#0064E0"/>
<stop offset="0.703" stop-color="#006EE9"/>
<stop offset="0.9525" stop-color="#0082FB"/>
</linearGradient>
</defs>
</svg>
