<svg width="40" height="40" viewBox="0 0 40 40" fill="none" xmlns="http://www.w3.org/2000/svg">
<path d="M34.3335 6.83333V10.5C34.3335 11.8333 33.5001 13.5 32.6668 14.3333L25.5001 20.6667C24.5001 21.5 23.8335 23.1667 23.8335 24.5V31.6667C23.8335 32.6667 23.1668 34 22.3335 34.5L20.0001 36C17.8335 37.3333 14.8335 35.8333 14.8335 33.1667V24.3333C14.8335 23.1667 14.1668 21.6667 13.5001 20.8333L12.7168 20.0167C12.2001 19.4667 12.1001 18.6333 12.5168 17.9833L21.0501 4.28333C21.3501 3.8 21.8835 3.5 22.4668 3.5H31.0001C32.8335 3.5 34.3335 5 34.3335 6.83333Z" fill="#9B9B9B"/>
<path d="M17.2503 6.05L11.3337 15.5333C10.767 16.45 9.46699 16.5833 8.71699 15.8L7.16699 14.1667C6.33366 13.3333 5.66699 11.8333 5.66699 10.8333V7C5.66699 5 7.16699 3.5 9.00033 3.5H15.8337C17.1337 3.5 17.9337 4.93333 17.2503 6.05Z" fill="#9B9B9B"/>
</svg>
