<svg width="40" height="40" viewBox="0 0 40 40" fill="none" xmlns="http://www.w3.org/2000/svg">
<path d="M14.5918 37.8836C16.1797 38.5225 17.9023 38.9019 19.7111 38.965C22.159 39.0504 24.4869 38.5443 26.5679 37.5829C24.0724 36.6025 21.8123 35.1687 19.8834 33.386C18.6331 35.388 16.7838 36.9692 14.5918 37.8836Z" fill="#FF9100"/>
<path d="M19.8833 33.3866C15.4803 29.3144 12.8092 23.4203 13.0349 16.9557C13.0423 16.7457 13.0533 16.5359 13.0663 16.3262C12.2777 16.1222 11.4544 15.9978 10.6072 15.9682C9.3945 15.9258 8.22008 16.0762 7.11134 16.3885C5.93595 18.4474 5.22665 20.8098 5.13829 23.3401C4.91024 29.8706 8.86216 35.5766 14.5917 37.8841C16.7837 36.9698 18.633 35.3904 19.8833 33.3866Z" fill="#FFC400"/>
<path d="M19.8832 33.3863C20.9069 31.7481 21.5276 29.8274 21.5998 27.7582C21.7899 22.315 18.1306 17.6325 13.0661 16.3259C13.0532 16.5357 13.0421 16.7455 13.0347 16.9554C12.809 23.4201 15.4801 29.3141 19.8832 33.3863Z" fill="#FF9100"/>
<path d="M21.0322 1.02563C18.1478 3.33643 15.8701 6.3834 14.492 9.89343C13.703 11.9039 13.2073 14.0636 13.0625 16.3274C18.127 17.634 21.7863 22.3165 21.5962 27.7597C21.5239 29.8289 20.9014 31.7476 19.8796 33.3878C21.8084 35.1723 24.0685 36.6043 26.5641 37.5847C31.573 35.2694 35.1269 30.2871 35.3328 24.394C35.466 20.5758 33.999 17.173 31.9261 14.3006C29.7371 11.2628 21.0322 1.02563 21.0322 1.02563Z" fill="#DD2C00"/>
</svg>
