<svg width="110" height="102" viewBox="0 0 110 102" fill="none" xmlns="http://www.w3.org/2000/svg">
<g opacity="0.3">
<path d="M61.6353 103.499C47.9857 90.8753 39.7053 72.6038 40.4051 52.5634C40.4279 51.9126 40.4622 51.2622 40.5023 50.612C38.0578 49.9798 35.5056 49.5939 32.8792 49.5022C29.1198 49.3709 25.4791 49.8372 22.042 50.8051C18.3983 57.1878 16.1995 64.5112 15.9256 72.3552C15.2186 92.5997 27.4696 110.288 45.2312 117.442C52.0263 114.607 57.759 109.711 61.6353 103.499Z" fill="#FFC400"/>
<path d="M61.6364 103.497C64.8099 98.418 66.7341 92.464 66.958 86.0494C67.5473 69.1754 56.2036 54.6599 40.5036 50.6094C40.4634 51.2596 40.4291 51.9099 40.4064 52.5607C39.7065 72.6013 47.9869 90.8727 61.6364 103.497Z" fill="#FF9100"/>
<path d="M65.2021 3.17969C56.2604 10.3431 49.1995 19.7888 44.9276 30.6699C42.4818 36.9025 40.9448 43.5973 40.4961 50.6151C56.1962 54.6656 67.5399 69.1812 66.9506 86.0552C66.7266 92.4698 64.7968 98.4178 61.629 103.502C67.6084 109.034 74.6148 113.474 82.351 116.513C97.8788 109.335 108.896 93.8902 109.534 75.6217C109.947 63.7853 105.399 53.2365 98.9734 44.3321C92.1873 34.9149 65.2021 3.17969 65.2021 3.17969Z" fill="#DD2C00"/>
</g>
</svg>
