<svg width="40" height="40" viewBox="0 0 40 40" fill="none" xmlns="http://www.w3.org/2000/svg">
<path d="M19.9997 3.33203C15.633 3.33203 12.083 6.88203 12.083 11.2487C12.083 15.532 15.433 18.9987 19.7997 19.1487C19.933 19.132 20.0663 19.132 20.1663 19.1487C20.1997 19.1487 20.2163 19.1487 20.2497 19.1487C20.2663 19.1487 20.2663 19.1487 20.283 19.1487C24.5497 18.9987 27.8997 15.532 27.9163 11.2487C27.9163 6.88203 24.3663 3.33203 19.9997 3.33203Z" fill="#9B9B9B"/>
<path d="M28.4666 23.5828C23.8166 20.4828 16.2333 20.4828 11.5499 23.5828C9.43327 24.9995 8.2666 26.9161 8.2666 28.9661C8.2666 31.0161 9.43327 32.9161 11.5333 34.3161C13.8666 35.8828 16.9333 36.6661 19.9999 36.6661C23.0666 36.6661 26.1333 35.8828 28.4666 34.3161C30.5666 32.8995 31.7333 30.9995 31.7333 28.9328C31.7166 26.8828 30.5666 24.9828 28.4666 23.5828Z" fill="#9B9B9B"/>
</svg>
