<svg width="40" height="40" viewBox="0 0 40 40" fill="none" xmlns="http://www.w3.org/2000/svg">
<path d="M27.5 4.77272V34.7727C27.5 38.1295 29.8182 40 32.2727 40C34.5455 40 37.0455 38.409 37.0455 34.7727V4.99999C37.0455 1.92273 34.7728 0 32.2727 0C29.7727 0 27.5 2.12045 27.5 4.77272Z" fill="#F9AB00"/>
<path d="M15 19.9998V34.7725C15 38.1293 17.3182 39.9998 19.7727 39.9998C22.0455 39.9998 24.5455 38.4088 24.5455 34.7725V20.227C24.5455 17.1498 22.2728 15.2271 19.7727 15.2271C17.2727 15.2271 15 17.3475 15 19.9998Z" fill="#E37400"/>
<path d="M7.27275 39.9995C9.90866 39.9995 12.0455 37.8627 12.0455 35.2268C12.0455 32.5909 9.90866 30.4541 7.27275 30.4541C4.63683 30.4541 2.5 32.5909 2.5 35.2268C2.5 37.8627 4.63683 39.9995 7.27275 39.9995Z" fill="#E37400"/>
</svg>
