<svg width="44" height="40" viewBox="0 0 44 40" fill="none" xmlns="http://www.w3.org/2000/svg">
<g clip-path="url(#clip0_703_19002)">
<path d="M0.908203 29.1211L15.5382 3.96777L28.2154 11.2329L13.5872 36.3862L0.908203 29.1211Z" fill="#FBBC04"/>
<path d="M42.9678 29.0336L28.3287 3.87131C26.4389 0.323704 22.0108 -1.03168 18.4366 0.844043C14.8624 2.71977 13.4987 7.11494 15.3867 10.6625C15.4695 10.8181 15.5578 10.9701 15.6515 11.1203L30.2905 36.2826C32.265 39.7837 36.7255 41.0336 40.2529 39.0738C43.7802 37.114 45.0395 32.6867 43.065 29.1856C43.0326 29.1284 43.0002 29.0729 42.9678 29.0175V29.0336Z" fill="#4285F4"/>
<path d="M7.31952 39.9623C11.362 39.9623 14.639 36.7096 14.639 32.6972C14.639 28.6848 11.362 25.4321 7.31952 25.4321C3.27706 25.4321 0 28.6848 0 32.6972C0 36.7096 3.27706 39.9623 7.31952 39.9623Z" fill="#34A853"/>
</g>
<defs>
<clipPath id="clip0_703_19002">
<rect width="44" height="40" fill="white"/>
</clipPath>
</defs>
</svg>
