<svg width="40" height="40" viewBox="0 0 40 40" fill="none" xmlns="http://www.w3.org/2000/svg">
<path d="M36.6663 18.7487H33.2663C32.6663 12.3987 27.5997 7.31536 21.2497 6.73203V3.33203C21.2497 2.6487 20.683 2.08203 19.9997 2.08203C19.3163 2.08203 18.7497 2.6487 18.7497 3.33203V6.73203C12.3997 7.33203 7.31634 12.3987 6.73301 18.7487H3.33301C2.64967 18.7487 2.08301 19.3154 2.08301 19.9987C2.08301 20.682 2.64967 21.2487 3.33301 21.2487H6.73301C7.33301 27.5987 12.3997 32.682 18.7497 33.2654V36.6654C18.7497 37.3487 19.3163 37.9154 19.9997 37.9154C20.683 37.9154 21.2497 37.3487 21.2497 36.6654V33.2654C27.5997 32.6654 32.683 27.5987 33.2663 21.2487H36.6663C37.3497 21.2487 37.9163 20.682 37.9163 19.9987C37.9163 19.3154 37.3497 18.7487 36.6663 18.7487ZM19.9997 25.1987C17.133 25.1987 14.7997 22.8654 14.7997 19.9987C14.7997 17.132 17.133 14.7987 19.9997 14.7987C22.8663 14.7987 25.1997 17.132 25.1997 19.9987C25.1997 22.8654 22.8663 25.1987 19.9997 25.1987Z" fill="#9B9B9B"/>
</svg>
