<svg width="117" height="222" viewBox="0 0 117 222" fill="none" xmlns="http://www.w3.org/2000/svg">
<path opacity="0.4" d="M162.322 15.5623C147.207 6.26055 130.11 0.964916 112.547 0.144457C94.9847 -0.676003 77.4977 3.00403 61.6355 10.8586C45.7732 18.7131 32.0254 30.4998 21.6096 45.1744C11.1939 59.8491 4.43176 76.9588 1.92227 94.9881C-0.587221 113.017 1.23337 131.41 7.22277 148.536C13.2122 165.662 23.1855 180.993 36.2594 193.171C49.3332 205.35 65.104 214 82.1748 218.354C99.2456 222.709 117.09 222.635 134.126 218.137L125.23 181.958C113.936 184.939 102.106 184.989 90.7893 182.102C79.4724 179.215 69.0174 173.48 60.3502 165.407C51.6831 157.333 45.0714 147.17 41.1008 135.816C37.1302 124.463 35.9232 112.27 37.5869 100.317C39.2505 88.3652 43.7334 77.0225 50.6384 67.2941C57.5433 57.5657 66.6573 49.7519 77.173 44.5448C87.6887 39.3377 99.2815 36.8981 110.924 37.442C122.568 37.9859 133.901 41.4966 143.922 47.6631L162.322 15.5623Z" fill="#F58436" fill-opacity="0.6"/>
</svg>
