<svg width="67" height="162" viewBox="0 0 67 162" fill="none" xmlns="http://www.w3.org/2000/svg">
<path d="M-18.8423 0.422477C-7.5723 -0.656889 3.78932 0.823499 14.4505 4.76044C25.1117 8.69738 34.8159 14.9961 42.8867 23.2176C50.9574 31.4391 57.2005 41.3855 61.1807 52.3634C65.161 63.3413 66.7825 75.0865 65.9324 86.7804C65.0822 98.4742 61.7808 109.835 56.2584 120.071C50.7359 130.308 43.1252 139.173 33.9568 146.049C24.7885 152.925 14.2831 157.646 3.17302 159.884C-7.93707 162.122 -19.3845 161.822 -30.3713 159.005L-24.0707 132.619C-16.7872 134.487 -9.19821 134.685 -1.83292 133.202C5.53238 131.718 12.4968 128.588 18.5748 124.03C24.6529 119.472 29.6983 113.595 33.3594 106.809C37.0204 100.023 39.209 92.4909 39.7726 84.7387C40.3362 76.9864 39.2612 69.2 36.6226 61.9224C33.9839 54.6447 29.8452 48.0509 24.4948 42.6005C19.1443 37.1502 12.7111 32.9745 5.64335 30.3646C-1.42435 27.7546 -8.9564 26.7732 -16.4277 27.4888L-18.8423 0.422477Z" fill="#03B0EF" fill-opacity="0.2"/>
</svg>
