<svg width="41" height="40" viewBox="0 0 41 40" fill="none" xmlns="http://www.w3.org/2000/svg">
<path d="M15.4499 36.6673H25.4499C33.7832 36.6673 37.1165 33.334 37.1165 25.0007V15.0007C37.1165 6.66732 33.7832 3.33398 25.4499 3.33398H15.4499C7.11654 3.33398 3.7832 6.66732 3.7832 15.0007V25.0007C3.7832 33.334 7.11654 36.6673 15.4499 36.6673Z" stroke="#222222" stroke-width="2" stroke-linecap="round" stroke-linejoin="round"/>
<path d="M3.7832 21.1662L13.7832 21.1329C15.0332 21.1329 16.4332 22.0829 16.8999 23.2495L18.7999 28.0495C19.2332 29.1329 19.9165 29.1329 20.3499 28.0495L24.1665 18.3662C24.5332 17.4329 25.2165 17.3995 25.6832 18.2829L27.4165 21.5662C27.9332 22.5495 29.2665 23.3495 30.3665 23.3495H37.1332" stroke="#222222" stroke-width="2" stroke-linecap="round" stroke-linejoin="round"/>
</svg>
