<svg width="41" height="40" viewBox="0 0 41 40" fill="none" xmlns="http://www.w3.org/2000/svg">
<path d="M33.8333 23.3327C35.6743 23.3327 37.1667 21.8403 37.1667 19.9993C37.1667 18.1584 35.6743 16.666 33.8333 16.666C31.9924 16.666 30.5 18.1584 30.5 19.9993C30.5 21.8403 31.9924 23.3327 33.8333 23.3327Z" stroke="#292D32" stroke-width="2" stroke-linecap="round" stroke-linejoin="round"/>
<path d="M33.8333 10.0007C35.6743 10.0007 37.1667 8.50827 37.1667 6.66732C37.1667 4.82637 35.6743 3.33398 33.8333 3.33398C31.9924 3.33398 30.5 4.82637 30.5 6.66732C30.5 8.50827 31.9924 10.0007 33.8333 10.0007Z" stroke="#292D32" stroke-width="2" stroke-linecap="round" stroke-linejoin="round"/>
<path d="M33.8333 36.6667C35.6743 36.6667 37.1667 35.1743 37.1667 33.3333C37.1667 31.4924 35.6743 30 33.8333 30C31.9924 30 30.5 31.4924 30.5 33.3333C30.5 35.1743 31.9924 36.6667 33.8333 36.6667Z" stroke="#292D32" stroke-width="2" stroke-linecap="round" stroke-linejoin="round"/>
<path d="M7.16536 23.3327C9.00631 23.3327 10.4987 21.8403 10.4987 19.9993C10.4987 18.1584 9.00631 16.666 7.16536 16.666C5.32442 16.666 3.83203 18.1584 3.83203 19.9993C3.83203 21.8403 5.32442 23.3327 7.16536 23.3327Z" stroke="#292D32" stroke-width="2" stroke-linecap="round" stroke-linejoin="round"/>
<path d="M10.5 20H30.5" stroke="#292D32" stroke-width="2" stroke-linecap="round" stroke-linejoin="round"/>
<path d="M30.4987 6.66602H23.832C20.4987 6.66602 18.832 8.33268 18.832 11.666V28.3327C18.832 31.666 20.4987 33.3327 23.832 33.3327H30.4987" stroke="#292D32" stroke-width="2" stroke-linecap="round" stroke-linejoin="round"/>
</svg>
