<svg width="41" height="40" viewBox="0 0 41 40" fill="none" xmlns="http://www.w3.org/2000/svg">
<path d="M35.5 19.9991H31.5601C30.4635 19.9991 29.9152 19.9991 29.4296 20.2153C28.9441 20.4316 28.5771 20.8393 27.8432 21.6547L26.1278 23.5608C25.5257 24.2297 25.2247 24.5642 24.8429 24.556C24.461 24.5478 24.1749 24.201 23.6026 23.5073L17.7223 16.3797C17.1888 15.733 16.922 15.4096 16.56 15.3879C16.1979 15.3661 15.8944 15.6552 15.2873 16.2334L12.7816 18.6198C12.0664 19.3009 11.7088 19.6415 11.2618 19.8203C10.8148 19.9991 10.321 19.9991 9.33333 19.9991H5.5" stroke="#1C274C" stroke-width="2" stroke-linecap="round"/>
<path d="M15.4359 32.2845L16.0679 31.5095H16.0679L15.4359 32.2845ZM20.4997 9.16461L19.7676 9.84581C19.9567 10.0491 20.222 10.1646 20.4997 10.1646C20.7774 10.1646 21.0426 10.0491 21.2318 9.84581L20.4997 9.16461ZM25.5635 32.2846L26.1954 33.0596L25.5635 32.2846ZM15.4359 32.2845L16.0679 31.5095C13.6443 29.5332 10.807 26.9359 8.58392 24.0867C6.3419 21.2133 4.83301 18.2209 4.83301 15.4341H3.83301H2.83301C2.83301 18.893 4.67364 22.3264 7.00711 25.317C9.35954 28.332 12.3236 31.0369 14.8039 33.0595L15.4359 32.2845ZM3.83301 15.4341H4.83301C4.83301 10.8091 6.96856 7.65789 9.73806 6.5057C12.4803 5.36484 16.2202 6.03329 19.7676 9.84581L20.4997 9.16461L21.2318 8.48342C17.2794 4.23572 12.686 3.11311 8.96983 4.65913C5.28092 6.19383 2.83301 10.2075 2.83301 15.4341H3.83301ZM25.5635 32.2846L26.1954 33.0596C28.6757 31.037 31.6398 28.3321 33.9923 25.3171C36.3257 22.3265 38.1663 18.8931 38.1663 15.434H37.1663H36.1663C36.1663 18.2209 34.6574 21.2134 32.4154 24.0868C30.1924 26.9359 27.355 29.5333 24.9315 31.5096L25.5635 32.2846ZM37.1663 15.434H38.1663C38.1663 10.2073 35.7184 6.19365 32.0295 4.659C28.3134 3.11303 23.7199 4.23573 19.7676 8.48342L20.4997 9.16461L21.2318 9.84581C24.7792 6.03328 28.519 5.36476 31.2613 6.50558C34.0308 7.65773 36.1663 10.8089 36.1663 15.434H37.1663ZM15.4359 32.2845L14.8039 33.0595C16.9425 34.8035 18.3409 36 20.4997 36L20.4997 35L20.4997 34C19.1909 34 18.3692 33.3862 16.0679 31.5095L15.4359 32.2845ZM25.5635 32.2846L24.9315 31.5096C22.6301 33.3862 21.8085 34 20.4997 34L20.4997 35L20.4997 36C22.6585 36 24.0568 34.8035 26.1954 33.0596L25.5635 32.2846Z" fill="#1C274C"/>
</svg>
