<svg width="41" height="40" viewBox="0 0 41 40" fill="none" xmlns="http://www.w3.org/2000/svg">
<path d="M8.83301 24.9987V13.332" stroke="#292D32" stroke-width="2" stroke-linecap="round" stroke-linejoin="round"/>
<path d="M9.24967 36.6654C12.2412 36.6654 14.6663 34.2402 14.6663 31.2487C14.6663 28.2572 12.2412 25.832 9.24967 25.832C6.25813 25.832 3.83301 28.2572 3.83301 31.2487C3.83301 34.2402 6.25813 36.6654 9.24967 36.6654Z" stroke="#292D32" stroke-width="2" stroke-linecap="round" stroke-linejoin="round"/>
<path d="M8.83301 13.332C11.5944 13.332 13.833 11.0935 13.833 8.33203C13.833 5.57061 11.5944 3.33203 8.83301 3.33203C6.07158 3.33203 3.83301 5.57061 3.83301 8.33203C3.83301 11.0935 6.07158 13.332 8.83301 13.332Z" stroke="#292D32" stroke-width="2" stroke-linecap="round" stroke-linejoin="round"/>
<path d="M32.167 13.332C34.9284 13.332 37.167 11.0935 37.167 8.33203C37.167 5.57061 34.9284 3.33203 32.167 3.33203C29.4056 3.33203 27.167 5.57061 27.167 8.33203C27.167 11.0935 29.4056 13.332 32.167 13.332Z" stroke="#292D32" stroke-width="2" stroke-linecap="round" stroke-linejoin="round"/>
<path d="M9.0498 25.0009C9.7998 22.0843 12.4665 19.9176 15.6165 19.9342L21.3331 19.9509C25.6998 19.9676 29.4165 17.1676 30.7831 13.2676" stroke="#292D32" stroke-width="2" stroke-linecap="round" stroke-linejoin="round"/>
</svg>
