<svg width="42" height="40" viewBox="0 0 42 40" fill="none" xmlns="http://www.w3.org/2000/svg">
<g clip-path="url(#clip0_703_19007)">
<path d="M26.4719 27.7692C25.6428 28.0585 23.8044 28.4924 21.7857 27.4437C21.6776 27.4075 21.5695 27.516 21.6776 27.5884C22.3265 28.2754 23.48 29.5049 24.1649 30.0835C24.3091 30.192 24.5254 30.192 24.6696 30.0474L26.6161 27.9138C26.6522 27.8777 26.5801 27.733 26.4719 27.7692Z" fill="white"/>
<path d="M34.0269 18.8652C32.9816 16.6231 31.4315 14.5257 29.0884 14.2364C28.6558 14.2003 28.2233 14.2726 27.8628 14.4896L25.3034 16.0084C24.6545 16.37 23.8615 16.3338 23.2847 15.8637L21.0498 14.128C20.2928 13.5494 19.4637 13.1154 18.5264 12.8984C14.7054 11.9944 12.146 14.0195 10.1634 17.7803C8.28891 21.3604 9.33429 26.5315 13.9484 27.7611C18.8148 29.0629 22.0231 23.6386 23.2847 21.8666C23.5371 21.505 24.0417 21.505 24.2941 21.8666C26.2767 24.5788 28.9442 27.4718 31.828 26.8932C35.613 26.1699 35.1805 21.3965 34.0269 18.8652ZM19.9684 21.722C19.0311 22.3367 17.8415 22.1921 17.1206 21.1434C16.3996 20.0947 16.7241 18.9013 17.6613 18.2866C18.5985 17.6718 19.7881 17.8165 20.5091 18.8652C21.23 19.9139 20.9056 21.0711 19.9684 21.722ZM29.9175 21.9028C28.9803 22.5176 27.7907 22.3729 27.0697 21.3242C26.3488 20.2755 26.6732 19.0822 27.6105 18.4674C28.5477 17.8526 29.7373 17.9973 30.4582 19.046C31.1431 20.0947 30.8187 21.288 29.9175 21.9028Z" fill="white"/>
<path d="M24.2698 23.2814C24.0895 23.0644 23.729 23.0644 23.5488 23.2814L21.5301 25.7042C21.422 25.8127 21.458 25.9935 21.5662 26.0659C22.0348 26.3913 23.1883 27.1507 24.3058 27.1507C25.3512 27.1507 26.2884 26.7529 26.7571 26.4998C26.9012 26.4275 26.9373 26.2105 26.8291 26.102L24.2698 23.2814Z" fill="white"/>
<path d="M21.034 7.00239C17.3594 6.97431 13.2686 9.2339 10.2817 12.6059C8.11658 15.0448 5.39348 21.8013 4.06222 25.3259C3.4917 26.8268 3.76259 28.5166 4.77357 29.7649C7.1358 32.6757 12.0476 37.4195 21.5474 37.4938C30.2508 37.5671 34.6817 33.6891 36.7589 30.8331C37.9111 29.2535 38.2618 27.2263 37.7133 25.3398C36.7847 22.164 34.8413 16.6555 31.6488 12.8448C28.0098 8.50887 24.7085 7.03046 21.034 7.00239Z" fill="#FF4C46"/>
<path d="M24.1356 15.8524C29.5154 12.0995 32.4422 15.3632 34.0812 18.9794C35.2708 21.5827 35.6934 26.4679 31.8526 27.2034C28.9088 27.7726 26.1885 24.7881 24.1754 21.992C23.971 21.7049 23.567 21.6441 23.2887 21.8504C23.2374 21.8877 23.192 21.9349 23.1446 21.99C21.8206 23.8194 18.509 29.3161 13.5526 27.9541C8.86403 26.6603 7.82921 21.3759 9.77739 17.7321C12.6534 12.2338 16.8687 10.4432 24.1356 15.8524Z" fill="white"/>
<path d="M21.2672 27.69C21.8847 28.3675 23.1709 29.7523 23.9422 30.4185C24.0937 30.5494 24.3145 30.5384 24.4449 30.3868L26.5191 28.1102C26.5507 28.0846 26.5547 28.0353 26.5272 28.0115C26.5075 27.9897 26.4681 27.9797 26.4405 27.9894C24.7717 28.623 22.9074 28.468 21.362 27.5798C21.3246 27.5618 21.2772 27.5834 21.2673 27.6228C21.2456 27.6425 21.2554 27.6702 21.2672 27.69Z" fill="white"/>
<path d="M23.3507 23.4297L21.2411 25.8823C21.1462 25.9925 21.1558 26.1545 21.266 26.2497C21.2739 26.2517 21.2798 26.2616 21.2877 26.2636C21.7699 26.6131 22.9374 27.372 24.0826 27.3863C24.9518 27.364 25.8018 27.152 26.5811 26.7541C26.7074 26.6855 26.755 26.5297 26.6941 26.405C26.6823 26.3852 26.6705 26.3654 26.6567 26.3535L24.0761 23.4128C23.8912 23.2146 23.5817 23.2114 23.3843 23.3963C23.3705 23.418 23.3606 23.4238 23.3507 23.4297Z" fill="white"/>
<path d="M30.4186 19.1386C31.0378 20.1109 30.7633 21.4017 29.8021 22.0222C28.8388 22.6506 27.5441 22.3631 26.9229 21.3987C26.3095 20.4363 26.5721 19.1593 27.5196 18.5269C28.4198 17.8824 29.6851 18.0869 30.3281 18.998C30.3576 19.0475 30.397 19.0911 30.4186 19.1386Z" fill="#FF4C46"/>
<path d="M23.1607 15.8327C23.7549 16.3027 24.5765 16.369 25.2275 15.9807L38.3045 8.35466C38.4741 8.24675 38.5297 8.0259 38.4295 7.85774C38.3569 7.74693 38.2328 7.67343 38.1047 7.68281L23.9386 8.84644L7.77832 2.67967C7.55581 2.59789 7.3073 2.71932 7.22608 2.94205C7.16665 3.11156 7.21949 3.30125 7.3572 3.4202L23.1607 15.8327Z" fill="#FF4C46"/>
<path d="M17.3823 17.9787C16.2992 18.3498 15.7589 19.4974 16.0842 20.5713C16.4567 21.6572 17.6032 22.2009 18.6743 21.8772C19.7573 21.506 20.2859 20.3387 19.9724 19.2846C19.9744 19.2767 19.9704 19.2589 19.9528 19.2292C19.6195 18.1869 18.552 17.6296 17.5401 17.9181C17.5007 17.908 17.4415 17.9434 17.3823 17.9787Z" fill="#FF4C46"/>
</g>
<defs>
<clipPath id="clip0_703_19007">
<rect width="42" height="40" fill="white"/>
</clipPath>
</defs>
</svg>
