<svg width="500" height="500" viewBox="0 0 500 500" fill="none" xmlns="http://www.w3.org/2000/svg">
<path d="M108.199 129.188C126.315 129.188 141 114.502 141 96.3869C141 78.2714 126.315 63.5859 108.199 63.5859C90.0839 63.5859 75.3984 78.2714 75.3984 96.3869C75.3984 114.502 90.0839 129.188 108.199 129.188Z" fill="#EBEBEB"/>
<path d="M131.832 119.24C144.054 107.018 144.054 87.2011 131.832 74.9786C119.609 62.756 99.7928 62.756 87.5703 74.9786C75.3478 87.2011 75.3478 107.018 87.5703 119.24C99.7928 131.463 119.609 131.463 131.832 119.24Z" fill="#DBDBDB"/>
<path d="M120.717 124.278C135.722 118.191 142.952 101.092 136.865 86.0864C130.777 71.081 113.678 63.8514 98.6727 69.9388C83.6673 76.0262 76.4377 93.1253 82.5251 108.131C88.6124 123.136 105.712 130.366 120.717 124.278Z" fill="white"/>
<path d="M110.078 69.9219H109.328V74.3659H110.078V69.9219Z" fill="#EBEBEB"/>
<path d="M96.4327 73.3746L95.7822 73.75L98.0038 77.5989L98.6542 77.2235L96.4327 73.3746Z" fill="#EBEBEB"/>
<path d="M86.3398 83.1864L85.9648 83.8359L89.8147 86.058L90.1896 85.4084L86.3398 83.1864Z" fill="#EBEBEB"/>
<path d="M86.9538 96.7422H82.5098V97.4922H86.9538V96.7422Z" fill="#EBEBEB"/>
<path d="M89.8191 108.16L85.9697 110.383L86.3448 111.032L90.1942 108.809L89.8191 108.16Z" fill="#EBEBEB"/>
<path d="M98.0001 116.635L95.7803 120.484L96.4309 120.859L98.6506 117.01L98.0001 116.635Z" fill="#EBEBEB"/>
<path d="M110.078 119.867H109.328V124.311H110.078V119.867Z" fill="#EBEBEB"/>
<path d="M121.407 116.624L120.757 117L122.98 120.849L123.63 120.474L121.407 116.624Z" fill="#EBEBEB"/>
<path d="M129.588 108.163L129.213 108.812L133.061 111.035L133.436 110.385L129.588 108.163Z" fill="#EBEBEB"/>
<path d="M136.896 96.7422H132.451V97.4922H136.896V96.7422Z" fill="#EBEBEB"/>
<path d="M133.07 83.1916L129.222 85.4141L129.597 86.0636L133.445 83.8411L133.07 83.1916Z" fill="#EBEBEB"/>
<path d="M122.973 73.3759L120.753 77.2266L121.404 77.6017L123.624 73.751L122.973 73.3759Z" fill="#EBEBEB"/>
<path d="M114.052 87.7111L101.188 113L101.855 113.34L114.719 88.0507L114.052 87.7111Z" fill="#EBEBEB"/>
<path d="M108.2 87.0538L107.22 87.25L112.702 114.648L113.682 114.452L108.2 87.0538Z" fill="#DBDBDB"/>
<path d="M461.665 86.8125H319.535V355.734H461.665V86.8125Z" fill="#EBEBEB"/>
<path d="M449.494 100.195H331.705V270.937H449.494V100.195Z" fill="white"/>
<path d="M339.229 382.797H329.838V355.734H346.548L339.229 382.797Z" fill="#EBEBEB"/>
<path d="M346.55 355.727L343.851 365.7H329.834V355.727H346.55Z" fill="#C7C7C7"/>
<path d="M441.971 382.797H451.362V355.734H434.652L441.971 382.797Z" fill="#EBEBEB"/>
<path d="M434.65 355.727L437.349 365.7H451.366V355.727H434.65Z" fill="#C7C7C7"/>
<path d="M449.495 283.117C440.672 283.298 431.848 283.401 423.025 283.471C414.202 283.579 405.378 283.556 396.555 283.597L397.036 283.116C397.066 287.554 397.042 291.991 397.024 296.429L396.968 309.742C396.873 318.617 396.783 327.492 396.555 336.368C396.326 327.493 396.237 318.618 396.142 309.742L396.086 296.429C396.068 291.991 396.044 287.554 396.074 283.116L396.077 282.633L396.555 282.635C405.378 282.677 414.202 282.653 423.025 282.761C431.848 282.833 440.671 282.936 449.495 283.117Z" fill="#C7C7C7"/>
<path d="M396.554 343.97C405.377 343.784 414.201 343.682 423.024 343.609C431.847 343.499 440.671 343.531 449.494 343.485L449.009 343.97C448.978 339.617 449.017 335.264 449.027 330.911L449.086 317.852C449.177 309.146 449.268 300.44 449.493 291.734C449.717 300.44 449.808 309.146 449.9 317.852L449.959 330.911C449.97 335.264 450.009 339.617 449.977 343.97L449.974 344.457L449.493 344.454C440.67 344.408 431.846 344.44 423.023 344.33C414.201 344.258 405.378 344.156 396.554 343.97Z" fill="#C7C7C7"/>
<path d="M402.485 320.289H406.492V304.924H402.485V320.289Z" fill="#C7C7C7"/>
<path d="M331.705 283.116C340.528 282.935 349.352 282.832 358.175 282.761C366.998 282.653 375.822 282.677 384.645 282.635L385.123 282.633L385.126 283.116C385.156 287.554 385.132 291.991 385.114 296.429L385.058 309.742C384.963 318.617 384.874 327.492 384.645 336.368C384.416 327.493 384.327 318.618 384.232 309.742L384.176 296.429C384.158 291.991 384.134 287.554 384.165 283.116L384.646 283.597C375.823 283.555 366.999 283.579 358.176 283.471C349.352 283.4 340.529 283.297 331.705 283.116Z" fill="#C7C7C7"/>
<path d="M384.646 343.969C375.823 344.155 366.999 344.257 358.176 344.33C349.353 344.44 340.529 344.408 331.706 344.454L331.225 344.457L331.222 343.97C331.191 339.617 331.229 335.264 331.24 330.911L331.299 317.852C331.39 309.146 331.481 300.44 331.706 291.734C331.93 300.44 332.021 309.146 332.113 317.852L332.172 330.911C332.183 335.264 332.222 339.617 332.19 343.97L331.705 343.485C340.528 343.531 349.352 343.499 358.175 343.609C366.999 343.681 375.822 343.783 384.646 343.969Z" fill="#C7C7C7"/>
<path d="M378.715 304.922H374.708V320.287H378.715V304.922Z" fill="#C7C7C7"/>
<path d="M449.494 154.719H331.705V156.545H449.494V154.719Z" fill="#C7C7C7"/>
<path d="M449.494 191.781H331.705V193.607H449.494V191.781Z" fill="#C7C7C7"/>
<path d="M449.494 228.844H331.705V230.67H449.494V228.844Z" fill="#C7C7C7"/>
<path d="M391.955 100.195H389.246V270.937H391.955V100.195Z" fill="#EBEBEB"/>
<path d="M174.927 280.109L177.32 294.457L193.529 381.992H196.141L184.355 294.457L182.613 280.109H174.927Z" fill="#EBEBEB"/>
<path d="M182.613 280.109H174.927L177.32 294.457H184.355L182.613 280.109Z" fill="#C7C7C7"/>
<path d="M124.026 381.992H126.638L142.847 294.457L145.24 280.109H137.554L135.812 294.457L124.026 381.992Z" fill="#EBEBEB"/>
<path d="M137.554 280.109L135.812 294.457H142.848L145.24 280.109H137.554Z" fill="#C7C7C7"/>
<path d="M75.4072 381.992H78.0202L94.2292 294.457L96.6222 280.109H88.9362L87.1942 294.457L75.4072 381.992Z" fill="#EBEBEB"/>
<path d="M87.1943 294.457H94.2293L96.6223 280.109H88.9363L87.1943 294.457Z" fill="#C7C7C7"/>
<path d="M79.5508 286.85H198.325V277.218L153.862 274.335L138.919 188.141H84.0788L79.5508 286.85Z" fill="#EBEBEB"/>
<path d="M79.5508 286.85H86.0248L90.2448 188.141H84.0788L79.5508 286.85Z" fill="#C7C7C7"/>
<path d="M249.999 457.855C324.744 457.855 385.337 447.696 385.337 435.166C385.337 422.635 324.744 412.477 249.999 412.477C175.254 412.477 114.661 422.635 114.661 435.166C114.661 447.696 175.254 457.855 249.999 457.855Z" fill="#EBEBEB"/>
<path d="M88.8736 444.73C116.432 444.73 138.773 440.016 138.773 434.201C138.773 428.386 116.432 423.672 88.8736 423.672C61.3152 423.672 38.9746 428.386 38.9746 434.201C38.9746 440.016 61.3152 444.73 88.8736 444.73Z" fill="#EBEBEB"/>
<path d="M400.399 444.73C427.957 444.73 450.298 440.016 450.298 434.201C450.298 428.386 427.957 423.672 400.399 423.672C372.841 423.672 350.5 428.386 350.5 434.201C350.5 440.016 372.841 444.73 400.399 444.73Z" fill="#EBEBEB"/>
<path d="M33.4004 382.796L87.5504 382.553L141.7 382.464L250 382.297L358.3 382.463L412.45 382.551L466.6 382.796L412.45 383.04L358.3 383.128L250 383.295L141.7 383.127L87.5504 383.039L33.4004 382.796Z" fill="#263238"/>
<path d="M273.642 241.586H196.859V382.647H273.642V241.586Z" fill="#455A64"/>
<path d="M273.642 241.586H196.859V250.784H273.642V241.586Z" fill="#263238"/>
<path d="M306.61 234.164H41.6943V241.587H306.61V234.164Z" fill="#455A64"/>
<path d="M58.0677 241.586L57.8237 250.784L54.5867 382.647H48.7227V241.586H58.0677Z" fill="#455A64"/>
<path d="M48.7227 241.586H58.0677L57.8237 250.784H48.7227V241.586Z" fill="#263238"/>
<path d="M299.661 241.586H273.643V382.647H299.661V241.586Z" fill="#37474F"/>
<path d="M299.661 241.586H273.643V250.784H299.661V241.586Z" fill="#263238"/>
<path d="M119.227 325.353C115.831 322.026 111.442 318.005 106.251 319.44C101.367 320.79 99.4966 326.121 98.6216 330.563C97.4946 336.288 96.6176 342.069 95.7086 347.832C94.7906 353.653 93.9286 359.482 93.0906 365.315C92.6176 368.606 92.1496 371.897 91.6896 375.19C91.4596 376.837 91.2306 378.483 91.0036 380.13C90.7796 381.745 90.5096 383.359 90.4206 384.988C90.3926 385.507 91.2066 385.582 91.3206 385.087C91.9496 382.341 92.2096 379.485 92.6136 376.698C93.0196 373.895 93.4246 371.092 93.8346 368.289C94.6486 362.721 95.4906 357.157 96.3296 351.592C97.1686 346.025 98.0376 340.463 98.9256 334.904C99.6786 330.19 100.034 324.332 104.214 321.223C106.507 319.518 109.432 319.498 112.03 320.49C114.78 321.539 116.977 323.509 119.128 325.457C119.197 325.518 119.293 325.417 119.227 325.353Z" fill="#263238"/>
<path d="M114.578 321.951C114.578 321.951 107.636 319.453 104.212 324.519C100.787 329.585 104.881 342.47 136.486 349.739C136.486 349.739 135.657 335.944 128.882 321.169C122.106 306.393 110.034 311.988 114.578 321.951Z" fill="#03B0EF"/>
<path d="M134.669 347.635C134.234 346.739 133.62 345.906 133.079 345.072C132.551 344.257 132.017 343.446 131.476 342.639C131.07 342.033 130.655 341.431 130.239 340.829C130.269 340.683 130.277 340.53 130.298 340.377C130.334 340.103 130.37 339.829 130.406 339.556C130.483 338.964 130.57 338.373 130.657 337.782C130.744 337.192 130.842 336.604 130.955 336.019C131.07 335.42 131.129 334.716 131.369 334.157C131.408 334.065 131.243 334.019 131.231 334.128C131.192 334.48 131.043 334.835 130.949 335.175C130.875 335.44 130.805 335.707 130.737 335.973C130.583 336.572 130.438 337.174 130.302 337.778C130.177 338.334 130.072 338.894 129.977 339.456C129.931 339.726 129.891 339.996 129.855 340.267C129.292 339.463 128.718 338.667 128.125 337.886C126.447 335.675 124.672 333.548 122.835 331.473C122.843 331.453 122.862 331.44 122.863 331.416C123.027 328.095 122.947 324.809 123.684 321.541C123.704 321.452 123.57 321.404 123.55 321.493C122.859 324.558 122.17 327.775 122.369 330.941C121.71 330.204 121.044 329.474 120.37 328.75C118.831 327.095 117.263 325.465 115.661 323.871C115.596 323.806 115.494 323.901 115.557 323.968C118.22 326.835 120.749 329.821 123.213 332.861C121.294 332.798 119.344 332.933 117.436 333.075C115.293 333.234 113.164 333.508 111.036 333.802C110.945 333.814 110.973 333.956 111.064 333.942C113.18 333.625 115.317 333.458 117.454 333.369C119.516 333.283 121.567 333.376 123.627 333.37C124.958 335.021 126.275 336.682 127.572 338.36C127.479 338.357 127.383 338.357 127.279 338.355C126.795 338.346 126.31 338.338 125.826 338.346C124.866 338.363 123.903 338.43 122.947 338.512C120.985 338.68 119.033 338.954 117.111 339.385C117.021 339.405 117.048 339.535 117.139 339.525C119.08 339.306 121.027 339.124 122.98 339.055C123.912 339.022 124.843 339.022 125.776 339.022C126.26 339.022 126.745 339.018 127.229 339.026C127.52 339.03 127.783 339.063 128.027 338.953C128.877 340.057 129.728 341.16 130.57 342.269C131.241 343.152 131.903 344.042 132.552 344.941C133.215 345.859 133.816 346.862 134.555 347.72C134.609 347.781 134.704 347.707 134.669 347.635Z" fill="#263238"/>
<path d="M117.602 329.133C116.493 328.951 115.343 328.97 114.222 328.969C113.094 328.968 111.965 329.002 110.838 329.041C110.735 329.045 110.742 329.19 110.847 329.182C111.99 329.1 113.133 329.08 114.279 329.097C115.384 329.113 116.493 329.219 117.598 329.189C117.634 329.189 117.638 329.14 117.602 329.133Z" fill="#263238"/>
<path d="M127.522 331.679C127.652 330.6 127.787 329.515 128.017 328.452C128.039 328.351 127.894 328.32 127.879 328.423C127.717 329.486 127.51 330.54 127.353 331.604C127.274 332.136 127.202 332.669 127.137 333.202C127.077 333.69 126.964 334.219 127.007 334.709C127.015 334.803 127.168 334.812 127.192 334.723C127.321 334.245 127.308 333.71 127.356 333.218C127.405 332.705 127.461 332.191 127.522 331.679Z" fill="#263238"/>
<path d="M125.442 319.719C125.166 320.77 124.891 321.833 124.697 322.902C124.599 323.444 124.516 323.99 124.442 324.536C124.372 325.057 124.277 325.606 124.336 326.133C124.341 326.175 124.406 326.178 124.418 326.139C124.571 325.652 124.6 325.121 124.668 324.617C124.738 324.091 124.818 323.568 124.909 323.045C125.101 321.943 125.296 320.852 125.575 319.767C125.6 319.679 125.466 319.63 125.442 319.719Z" fill="#263238"/>
<path d="M84.2874 383.822C84.1134 381.832 83.9194 379.844 83.7104 377.857C83.2954 373.919 82.8144 369.991 82.2864 366.067C81.7604 362.155 81.2574 358.235 80.6284 354.338C80.3404 352.551 80.0424 350.72 79.4234 349.013C78.8904 347.544 78.0114 346.215 76.4734 345.684C72.7544 344.4 70.2464 348.256 68.7454 350.984C68.7004 351.066 68.8184 351.127 68.8704 351.053C69.7694 349.761 72.2544 346.133 75.0744 346.302C76.9724 346.416 78.4914 347.76 79.4024 352.493C81.6724 364.286 83.7184 388.216 83.9574 389.782C84.0844 390.612 84.6704 390.576 84.6754 389.686C84.6854 387.73 84.4584 385.77 84.2874 383.822Z" fill="#263238"/>
<path d="M69.7468 349.517C69.7468 349.517 72.9968 338.041 65.8118 343.779C53.8518 353.332 53.4268 374.11 53.4268 374.11C53.4268 374.11 74.6878 361.761 77.3308 353.616C81.2698 341.484 69.7468 349.517 69.7468 349.517Z" fill="#03B0EF"/>
<path d="M73.7713 355.148C72.1023 355.486 70.4113 355.708 68.7263 355.95C67.9293 356.065 67.1313 356.177 66.3333 356.286C65.7953 356.36 65.2493 356.412 64.7073 356.478C66.2913 354.296 67.8873 352.123 69.4063 349.897C69.4643 349.811 69.3323 349.722 69.2633 349.793C68.0013 351.078 66.8323 352.466 65.7113 353.893C65.4003 353.004 65.0813 352.118 64.7693 351.229C64.4073 350.201 64.0193 349.179 63.7583 348.12C63.7363 348.031 63.5973 348.072 63.6213 348.161C63.9113 349.213 64.1173 350.286 64.3983 351.341C64.6703 352.36 64.9793 353.366 65.3403 354.356C64.5613 355.367 63.8153 356.403 63.0883 357.449C62.7233 356.412 62.2683 355.409 61.9483 354.355C61.9213 354.267 61.7833 354.309 61.8113 354.396C62.1923 355.561 62.3973 356.772 62.7553 357.943C62.2673 358.656 61.7793 359.369 61.3133 360.089C60.4543 361.416 59.6453 362.767 58.8533 364.127C58.7293 364.197 58.6503 364.298 58.6673 364.448C57.3243 366.771 56.0463 369.129 54.7853 371.508C54.7423 371.589 54.8663 371.658 54.9103 371.577C56.1723 369.227 57.5763 366.94 59.0363 364.693C59.0413 364.691 59.0473 364.693 59.0523 364.691C59.2063 364.606 59.5563 364.596 59.7473 364.557C59.9923 364.507 60.2373 364.451 60.4813 364.398C61.0313 364.278 61.5753 364.136 62.1213 364.001C63.1993 363.733 64.2673 363.479 65.3623 363.29C65.4523 363.275 65.4113 363.136 65.3213 363.153C64.0343 363.398 62.7433 363.544 61.4423 363.695C60.8283 363.766 60.2163 363.845 59.6053 363.942C59.5793 363.946 59.5473 363.95 59.5173 363.955C60.2823 362.794 61.0563 361.64 61.8413 360.501C62.6143 359.38 63.4073 358.273 64.2053 357.17C64.9423 357.067 65.6743 356.873 66.4043 356.733C67.2273 356.576 68.0503 356.415 68.8723 356.253C70.5183 355.927 72.1573 355.559 73.8123 355.284C73.9013 355.27 73.8613 355.13 73.7713 355.148Z" fill="#263238"/>
<path d="M60.9929 356.278C60.8939 355.975 60.8029 355.669 60.7059 355.365C60.5039 354.731 60.3499 354.092 60.2179 353.44C60.1999 353.351 60.0619 353.392 60.0809 353.481C60.2199 354.129 60.3709 354.775 60.5199 355.421C60.6659 356.055 60.8269 356.726 61.0739 357.329C61.1349 357.479 61.3649 357.417 61.3199 357.255C61.2299 356.925 61.0999 356.604 60.9929 356.278Z" fill="#263238"/>
<path d="M75.9464 352.493C74.9774 352.639 73.9984 352.707 73.0224 352.792C72.0404 352.878 71.0744 353.014 70.1004 353.16C70.0474 353.168 70.0464 353.249 70.1024 353.246C71.0824 353.179 72.0524 353.103 73.0264 352.976C73.9984 352.849 74.9704 352.704 75.9494 352.637C76.0434 352.629 76.0354 352.48 75.9464 352.493Z" fill="#263238"/>
<path d="M99.9339 369.294C99.5569 360.844 99.0209 352.409 98.1709 343.993C97.7479 339.802 97.2749 335.613 96.6849 331.442C96.1069 327.355 95.4009 323.268 94.2639 319.295C93.3939 316.254 92.2519 313.2 90.2199 310.73C88.2149 308.293 85.2589 306.767 82.0499 307.164C78.3519 307.621 75.3739 309.951 72.7989 312.482C69.9089 315.322 67.2639 318.422 64.5869 321.46C63.9099 322.228 63.2389 323.002 62.5719 323.78C62.5119 323.85 62.6149 323.948 62.6749 323.878C65.2919 320.872 68.0099 317.951 70.8549 315.159C73.4839 312.578 76.1909 309.757 79.8329 308.692C81.5199 308.198 83.3489 308.061 85.0489 308.569C86.4229 308.98 87.6239 309.798 88.6119 310.826C90.6619 312.958 91.8129 315.846 92.6309 318.64C94.9039 326.407 95.7169 334.551 96.5609 342.572C97.4189 350.721 97.9969 358.892 98.4069 367.075C98.8189 375.301 99.1399 383.538 99.9319 391.739C100.03 392.751 100.161 393.76 100.29 394.769C100.376 395.448 101.43 395.449 101.374 394.742C100.704 386.267 100.314 377.786 99.9339 369.294Z" fill="#263238"/>
<path d="M72.3336 313.395C72.3336 313.395 77.1586 304.465 71.4566 301.601C65.7546 298.737 46.6726 320.037 41.0986 351.183C41.0986 351.183 71.9186 337.547 82.3846 323.959C92.8506 310.371 80.9856 307.38 72.3336 313.395Z" fill="#03B0EF"/>
<path d="M76.865 320.657C73.401 320.665 69.947 320.395 66.482 320.42C67.131 319.675 67.778 318.929 68.434 318.19C69.34 317.168 70.375 316.175 71.142 315.044C71.191 314.972 71.087 314.87 71.017 314.925C70.055 315.679 69.233 316.665 68.396 317.554C67.528 318.475 66.665 319.401 65.806 320.33C64.482 321.762 63.185 323.219 61.89 324.678C61.887 324.536 61.884 324.395 61.885 324.258C61.888 323.651 61.884 323.045 61.888 322.438C61.896 321.263 61.914 320.088 61.925 318.914C61.948 316.533 61.942 314.138 62.107 311.762C62.113 311.67 61.971 311.675 61.964 311.766C61.798 314.155 61.552 316.533 61.434 318.926C61.376 320.101 61.348 321.275 61.334 322.452C61.327 323.059 61.317 323.665 61.321 324.272C61.324 324.602 61.311 324.952 61.336 325.292C61.134 325.521 60.925 325.742 60.724 325.972C57.96 329.131 55.331 332.398 52.772 335.722C52.769 335.539 52.744 335.35 52.726 335.17C52.691 334.803 52.647 334.437 52.605 334.071C52.516 333.276 52.406 332.485 52.287 331.693C52.175 330.95 52.058 330.208 51.933 329.467C51.793 328.635 51.589 327.791 51.526 326.949C51.518 326.847 51.364 326.869 51.386 326.971C51.563 327.796 51.596 328.669 51.676 329.508C51.748 330.27 51.819 331.032 51.887 331.794C51.955 332.557 52.025 333.32 52.103 334.082C52.141 334.448 52.174 334.815 52.213 335.181C52.233 335.365 52.255 335.548 52.28 335.73C52.313 335.972 52.35 336.003 52.429 336.166C51.989 336.739 51.547 337.31 51.111 337.887C49.363 340.2 47.648 342.539 45.932 344.875C45.879 344.948 45.979 345.047 46.035 344.973C47.66 342.854 49.332 340.773 51.027 338.711C52.295 338.765 53.589 338.672 54.856 338.651C56.193 338.628 57.529 338.622 58.866 338.618C58.958 338.618 58.955 338.474 58.862 338.476C57.525 338.499 56.189 338.52 54.852 338.525C53.634 338.529 52.391 338.47 51.172 338.536C52.662 336.725 54.168 334.926 55.678 333.13C56.229 332.475 56.782 331.823 57.333 331.168C57.834 331.272 58.373 331.221 58.88 331.22C59.487 331.219 60.095 331.219 60.702 331.217C61.841 331.213 62.979 331.187 64.118 331.169C66.471 331.133 68.824 331.055 71.176 331.049C71.268 331.049 71.264 330.907 71.172 330.906C68.817 330.877 66.461 330.775 64.106 330.716C62.967 330.687 61.827 330.65 60.687 330.634C60.079 330.626 59.472 330.62 58.864 330.613C58.518 330.609 58.162 330.585 57.811 330.598C59.104 329.063 60.395 327.527 61.693 325.997C61.724 325.979 61.749 325.951 61.765 325.913C63.028 324.423 64.292 322.934 65.569 321.456C65.744 321.254 65.922 321.054 66.097 320.853C69.688 320.965 73.274 320.729 76.864 320.799C76.96 320.801 76.957 320.657 76.865 320.657Z" fill="#263238"/>
<path d="M75.0937 326.781C74.8137 326.783 74.5337 326.786 74.2547 326.788C74.1717 326.789 74.1757 326.916 74.2577 326.917C74.5377 326.919 74.8177 326.922 75.0977 326.924C75.1887 326.925 75.1857 326.781 75.0937 326.781Z" fill="#263238"/>
<path d="M73.2277 326.79C72.1177 326.774 71.0087 326.751 69.8987 326.72C69.3437 326.704 68.7897 326.686 68.2347 326.667C67.7387 326.65 67.1717 326.573 66.6867 326.685C66.6317 326.698 66.6417 326.774 66.6897 326.788C67.1697 326.933 67.7427 326.888 68.2407 326.898C68.7947 326.908 69.3497 326.916 69.9037 326.922C71.0127 326.934 72.1217 326.937 73.2317 326.933C73.3237 326.933 73.3197 326.791 73.2277 326.79Z" fill="#263238"/>
<path d="M63.5387 337.194C61.2837 336.878 59.0047 336.558 56.7227 336.579C56.6897 336.579 56.6927 336.626 56.7237 336.629C58.9877 336.845 61.2557 336.967 63.5037 337.332C63.5947 337.347 63.6287 337.206 63.5387 337.194Z" fill="#263238"/>
<path d="M54.2754 327.276C54.2524 327.078 54.2304 326.88 54.2044 326.682C54.1464 326.236 54.0754 325.791 54.0054 325.347C53.8724 324.501 53.7244 323.657 53.5634 322.815C53.5484 322.737 53.4134 322.758 53.4234 322.837C53.5304 323.708 53.6234 324.58 53.7044 325.453C53.7444 325.882 53.7764 326.311 53.8154 326.74C53.8504 327.128 53.8154 327.608 53.9884 327.961C54.0534 328.094 54.2524 328.04 54.2874 327.914C54.3464 327.704 54.2994 327.491 54.2754 327.276Z" fill="#263238"/>
<path d="M99.6295 301.922C98.5255 299.869 97.1226 297.156 94.3686 297.328C92.0956 297.47 91.0706 299.79 90.5856 301.708C89.0836 307.639 88.9785 313.896 88.6855 319.974C88.0675 332.82 87.5116 345.68 87.4306 358.543C87.4076 362.108 87.4206 365.674 87.4536 369.239C87.4876 372.875 87.4776 376.532 87.7086 380.162C87.7306 380.505 88.2416 380.494 88.2436 380.149C88.2646 377.039 88.1536 373.927 88.1406 370.816C88.1286 367.78 88.1526 364.745 88.2016 361.71C88.2996 355.562 88.4656 349.416 88.6936 343.272C88.9196 337.165 89.1886 331.06 89.4466 324.954C89.5756 321.903 89.7046 318.852 89.8426 315.801C89.9766 312.845 90.1036 309.887 90.4416 306.946C90.6306 305.299 90.8746 303.652 91.2176 302.03C91.4626 300.873 91.8156 299.623 92.6396 298.735C93.7266 297.563 95.3695 297.647 96.6585 298.444C97.9935 299.269 98.8046 300.64 99.5076 301.999C99.5506 302.078 99.6735 302.003 99.6295 301.922Z" fill="#263238"/>
<path d="M98.8845 300.944C98.8845 300.944 96.6205 292.95 101.626 296.947C109.957 303.601 110.253 318.075 110.253 318.075C110.253 318.075 95.4425 309.473 93.6015 303.799C90.8585 295.348 98.8845 300.944 98.8845 300.944Z" fill="#03B0EF"/>
<path d="M107.137 312.139C107.001 311.918 106.856 311.703 106.717 311.484C106.753 311.263 106.717 311.016 106.716 310.802C106.714 310.458 106.711 310.114 106.719 309.77C106.735 309.095 106.76 308.42 106.793 307.745C106.797 307.653 106.655 307.657 106.65 307.749C106.615 308.411 106.588 309.073 106.57 309.736C106.561 310.067 106.545 310.399 106.535 310.73C106.531 310.859 106.514 311.008 106.507 311.157C105.926 310.254 105.329 309.36 104.711 308.483C104.532 308.228 104.344 307.98 104.162 307.728C104.026 306.873 104.107 305.977 104.117 305.117C104.128 304.188 104.141 303.259 104.174 302.331C104.177 302.239 104.034 302.243 104.031 302.335C104.004 303.302 103.956 304.266 103.907 305.232C103.872 305.916 103.809 306.613 103.85 307.3C102.419 305.355 100.903 303.48 99.3656 301.615C99.3146 301.553 99.2056 301.641 99.2556 301.704C100.207 302.907 101.119 304.143 102.012 305.392C100.269 304.985 98.4966 304.752 96.7256 304.496C96.6356 304.483 96.5996 304.621 96.6906 304.634C98.5656 304.917 100.406 305.388 102.256 305.796C102.271 305.799 102.279 305.789 102.293 305.789C103.003 306.788 103.704 307.793 104.401 308.799C104.685 309.209 104.961 309.624 105.241 310.037C105.215 310.034 105.187 310.031 105.161 310.027C104.969 310 104.777 309.971 104.585 309.948C104.176 309.899 103.764 309.866 103.353 309.834C102.5 309.767 101.643 309.722 100.789 309.676C100.698 309.671 100.7 309.817 100.793 309.819C101.636 309.839 102.472 309.902 103.31 309.992C103.752 310.04 104.193 310.1 104.634 310.152C104.827 310.175 105.02 310.197 105.213 310.221C105.27 310.228 105.326 310.237 105.383 310.245C105.857 310.945 106.333 311.643 106.807 312.343C107.643 313.579 108.39 314.904 109.282 316.099C109.335 316.17 109.434 316.106 109.397 316.028C108.776 314.68 107.915 313.402 107.137 312.139Z" fill="#263238"/>
<path d="M103.449 303.111C103.448 302.8 103.456 302.489 103.455 302.177C103.454 301.527 103.445 300.864 103.534 300.219C103.548 300.116 103.394 300.1 103.393 300.203C103.391 300.85 103.322 301.497 103.291 302.143C103.276 302.466 103.275 302.791 103.274 303.114C103.274 303.263 103.274 303.413 103.275 303.562C103.276 303.714 103.255 303.884 103.309 304.027C103.332 304.088 103.413 304.085 103.433 304.024C103.477 303.889 103.454 303.736 103.452 303.596C103.451 303.435 103.449 303.273 103.449 303.111Z" fill="#263238"/>
<path d="M101.618 306.425C101.067 306.331 100.503 306.303 99.9466 306.255C99.3346 306.203 98.7256 306.149 98.1176 306.071C98.0156 306.058 97.9986 306.205 98.1016 306.212C99.2706 306.288 100.435 306.496 101.605 306.538C101.669 306.539 101.682 306.436 101.618 306.425Z" fill="#263238"/>
<path d="M106.27 306.475C106.313 306.535 106.284 306.711 106.284 306.783V307.041C106.284 307.227 106.282 307.414 106.281 307.6C106.279 307.786 106.278 307.973 106.276 308.159C106.275 308.307 106.236 308.512 106.303 308.647C106.314 308.669 106.348 308.666 106.358 308.646C106.394 308.573 106.387 308.494 106.386 308.414C106.385 308.328 106.385 308.242 106.384 308.156C106.383 307.97 106.381 307.783 106.38 307.597C106.378 307.411 106.376 307.224 106.376 307.038V306.78C106.376 306.701 106.346 306.537 106.392 306.472C106.484 306.343 106.175 306.341 106.27 306.475Z" fill="#263238"/>
<path d="M99.9745 344.587C96.8595 342.249 94.0615 338.888 89.8725 338.724C86.4145 338.588 83.9915 341.191 82.6065 344.09C81.8755 345.619 81.3755 347.241 80.9115 348.866C80.2865 351.054 79.6985 353.252 79.1465 355.46C78.0615 359.803 77.1285 364.187 76.3735 368.599C75.9525 371.059 75.5605 373.527 75.2485 376.004C74.9345 378.5 74.5255 381.066 74.5215 383.585C74.5205 384.023 75.2055 384.108 75.2945 383.67C75.7165 381.599 75.8925 379.46 76.1985 377.368C76.5055 375.263 76.8245 373.16 77.1805 371.063C77.8925 366.868 78.7145 362.687 79.6605 358.538C80.5545 354.62 81.4315 350.642 82.6965 346.824C83.6025 344.089 85.0565 340.896 88.0105 339.913C92.5055 338.417 96.5875 342.221 99.8765 344.691C99.9485 344.744 100.048 344.642 99.9745 344.587Z" fill="#263238"/>
<path d="M96.751 342.346C96.751 342.346 93.881 334.148 98.033 332.54C104.256 330.131 120.545 348.477 117.357 376.586C117.357 376.586 104.771 369.654 95.478 361.854C86.185 354.054 83.806 343.868 87.9 341.234C91.994 338.6 96.751 342.346 96.751 342.346Z" fill="#03B0EF"/>
<path d="M115.476 370.557C115.111 369.568 114.472 368.644 113.963 367.722C113.431 366.76 112.893 365.801 112.337 364.852C111.255 363.003 110.181 361.148 109.073 359.314C108.894 359.017 108.707 358.723 108.527 358.426C108.552 358.317 108.571 358.206 108.595 358.097C108.657 357.826 108.718 357.555 108.78 357.284C108.919 356.675 109.025 356.058 109.14 355.444C109.365 354.241 109.574 353.022 109.899 351.841C109.923 351.754 109.778 351.726 109.758 351.816C109.501 353.018 109.122 354.201 108.766 355.378C108.591 355.957 108.405 356.535 108.251 357.12C108.198 357.321 108.146 357.521 108.094 357.722C106.755 355.529 105.395 353.346 103.928 351.237C104.051 350.962 104.04 350.651 104.074 350.335C104.118 349.924 104.168 349.513 104.216 349.103C104.326 348.178 104.432 347.254 104.568 346.332C104.835 344.521 105.104 342.723 105.554 340.947C105.576 340.858 105.436 340.834 105.413 340.922C104.965 342.692 104.477 344.462 104.141 346.257C103.976 347.137 103.82 348.021 103.703 348.908C103.644 349.352 103.597 349.798 103.551 350.244C103.537 350.375 103.517 350.511 103.5 350.647C103.048 350.01 102.597 349.372 102.124 348.751C100.686 346.86 99.1966 345.013 97.6936 343.175C97.6356 343.104 97.5187 343.186 97.5767 343.257C100.216 346.485 102.448 350.062 104.654 353.593C105.066 354.253 105.469 354.918 105.878 355.58C105.741 355.562 105.605 355.546 105.474 355.529C104.948 355.462 104.415 355.429 103.887 355.38C102.828 355.281 101.769 355.189 100.709 355.104C98.5886 354.935 96.4626 354.805 94.3476 354.579C94.2566 354.569 94.2316 354.709 94.3226 354.72C96.4656 354.965 98.5986 355.309 100.735 355.613C101.785 355.762 102.835 355.902 103.887 356.037C104.613 356.13 105.523 356.346 106.314 356.286C107.147 357.639 107.983 358.99 108.813 360.344C108.629 360.318 108.435 360.326 108.251 360.323C107.898 360.317 107.544 360.32 107.191 360.32C106.534 360.32 105.878 360.319 105.221 360.32C103.856 360.321 102.491 360.348 101.125 360.346C101.033 360.346 101.048 360.487 101.139 360.488C102.523 360.504 103.902 360.575 105.284 360.647C105.939 360.681 106.594 360.72 107.249 360.766C107.576 360.789 107.903 360.816 108.231 360.836C108.518 360.854 108.825 360.91 109.095 360.802C109.801 361.954 110.516 363.102 111.221 364.254C111.872 365.318 112.53 366.377 113.203 367.427C113.879 368.482 114.506 369.694 115.338 370.631C115.394 370.692 115.509 370.647 115.476 370.557Z" fill="#263238"/>
<path d="M109.479 347.838C109.378 348.737 109.139 349.635 108.916 350.51C108.684 351.421 108.419 352.323 108.124 353.215C108.083 353.337 108.253 353.393 108.292 353.269C108.571 352.384 108.821 351.49 109.04 350.588C109.258 349.685 109.399 348.764 109.619 347.863C109.642 347.773 109.489 347.746 109.479 347.838Z" fill="#263238"/>
<path d="M100.233 353.326C100.037 353.128 99.8159 353.108 99.5469 353.07C99.1509 353.014 98.7549 352.962 98.3589 352.908C97.6229 352.807 96.8839 352.726 96.1459 352.64C94.6119 352.46 93.0769 352.311 91.5439 352.118C91.4529 352.107 91.4279 352.247 91.5189 352.259C92.9649 352.435 94.4039 352.654 95.8489 352.844C96.5569 352.937 97.2639 353.037 97.9729 353.12C98.3139 353.16 98.6549 353.196 98.9959 353.234C99.3729 353.276 99.8179 353.266 100.163 353.434C100.233 353.466 100.282 353.375 100.233 353.326Z" fill="#263238"/>
<path d="M109.457 365.692C108.734 365.63 108.004 365.607 107.278 365.585C106.912 365.574 106.545 365.562 106.179 365.551C106.003 365.545 105.827 365.54 105.652 365.535C105.43 365.528 105.181 365.55 104.966 365.495C104.865 365.469 104.855 365.653 104.96 365.636C105.164 365.603 105.397 365.644 105.603 365.656C105.793 365.667 105.984 365.679 106.174 365.69C106.54 365.712 106.906 365.734 107.272 365.756C107.996 365.799 108.726 365.843 109.452 365.847C109.539 365.848 109.545 365.7 109.457 365.692Z" fill="#263238"/>
<path d="M113.894 362.546C113.977 362.135 114.055 361.722 114.131 361.309C114.28 360.499 114.429 359.689 114.577 358.878C114.594 358.787 114.457 358.764 114.437 358.853C114.259 359.642 114.081 360.431 113.903 361.221C113.814 361.616 113.726 362.01 113.644 362.406C113.606 362.589 113.568 362.771 113.53 362.954C113.49 363.146 113.429 363.339 113.465 363.535C113.477 363.601 113.575 363.655 113.622 363.584C113.812 363.296 113.827 362.88 113.894 362.546Z" fill="#263238"/>
<path d="M112.218 386.773L111.519 398.391L109.451 432.691H67.0385L64.9705 398.391L64.2715 386.773H112.218Z" fill="#455A64"/>
<path d="M112.218 386.773L111.519 398.391H64.9705L64.2715 386.773H112.218Z" fill="#263238"/>
<path d="M115.463 378.555H61.0254V390.181H115.463V378.555Z" fill="#455A64"/>
<path d="M243.624 375.578C243.624 375.578 237.77 418.634 237.771 418.664C237.665 426.899 237.425 434.116 236.953 437.839C236.953 437.859 236.954 437.879 236.944 437.899C236.767 439.304 236.558 440.199 236.304 440.435C236.284 440.455 236.275 440.476 236.255 440.486C233.783 442.115 167.95 443.186 165.642 442.451C163.324 441.726 165.248 435.078 167.77 432.998C170.312 430.918 195.323 419.235 195.323 419.235L201.585 376.204L243.624 375.578Z" fill="#FFBE93"/>
<path d="M237.679 423.961C237.549 429.931 237.319 434.941 236.949 437.841C236.949 437.861 236.949 437.881 236.939 437.901C236.769 439.301 236.559 440.201 236.299 440.431C236.279 440.451 236.279 440.471 236.259 440.481C233.779 442.111 167.949 443.181 165.639 442.451C163.319 441.721 165.249 435.081 167.769 433.001C168.979 432.011 175.339 428.821 181.639 425.761C179.649 427.331 177.639 429.261 178.549 430.041C180.169 431.411 220.089 429.971 237.679 423.961Z" fill="#263238"/>
<path d="M185.351 423.964C185.351 423.964 197.001 418.658 216.977 428.25L185.351 423.964Z" fill="#263238"/>
<path d="M253.46 405.251L196.094 404.331L224.961 189.07H263.851L253.46 405.251Z" fill="#263238"/>
<path d="M263.851 189.07L256.481 342.41L237.141 189.07H263.851Z" fill="#37474F"/>
<path d="M250.702 395.284C248.972 395.091 247.196 395.096 245.456 395.029C243.792 394.965 242.124 394.936 240.459 394.908C237.003 394.851 233.547 394.788 230.09 394.754C223.261 394.687 216.432 394.644 209.602 394.66C205.722 394.669 201.856 394.785 197.982 394.956C197.856 394.962 197.856 395.144 197.981 395.151C204.847 395.561 211.713 395.671 218.592 395.755C225.421 395.838 232.25 395.867 239.08 395.86C240.996 395.858 242.911 395.841 244.827 395.822C246.77 395.803 248.766 395.828 250.699 395.642C250.932 395.622 250.933 395.31 250.702 395.284Z" fill="#455A64"/>
<path d="M232.304 200.297C228.92 224.739 225.791 249.218 222.467 273.669C219.158 298.019 215.649 322.339 212.113 346.657C210.129 360.301 208.039 373.933 206.21 387.599C206.182 387.809 206.496 387.896 206.536 387.68C211.013 363.416 214.556 338.963 218.095 314.547C221.62 290.225 224.894 265.867 227.904 241.476C229.594 227.776 231.233 214.065 232.62 200.33C232.638 200.154 232.329 200.119 232.304 200.297Z" fill="#455A64"/>
<path d="M263.905 376.213C263.905 376.213 269.419 417.26 269.418 417.29C269.471 425.525 269.664 432.744 270.113 436.469C270.112 436.489 270.112 436.509 270.121 436.529C270.289 437.935 270.492 438.831 270.745 439.069C270.764 439.09 270.774 439.11 270.794 439.121C273.256 440.766 332.035 442.261 334.348 441.54C336.67 440.829 334.789 434.17 332.281 432.074C329.753 429.977 311.862 418.134 311.862 418.134L304.951 375.125L263.905 376.213Z" fill="#FFBE93"/>
<path d="M334.349 441.541C332.039 442.261 273.259 440.761 270.789 439.121C270.769 439.111 270.769 439.081 270.749 439.061C270.489 438.831 270.289 437.931 270.119 436.521C270.109 436.501 270.109 436.481 270.109 436.461C269.709 433.041 269.559 430.834 269.489 423.434C279.095 429.517 303.945 432.229 311.845 430.499C318.845 428.959 317.309 423.321 315.838 420.781C321.258 424.391 330.508 430.601 332.278 432.071C334.789 434.161 336.669 440.821 334.349 441.541Z" fill="#263238"/>
<path d="M315.839 420.784C315.839 420.784 296.056 417.563 282.53 428.25L315.839 420.784Z" fill="#263238"/>
<path d="M228.911 189.031C228.911 189.031 228.911 189.041 228.921 189.071C229.091 189.871 231.811 202.491 234.631 213.331C236.681 221.251 238.791 228.211 240.001 228.931C241.371 229.741 248.051 232.701 250.291 233.631L259.026 404.848L318.385 403.518L287.381 216.761L282.141 189.031H228.911Z" fill="#263238"/>
<path d="M236.446 227.161C241.214 228.802 245.816 231.132 250.216 233.574C250.389 233.67 250.275 233.938 250.088 233.857C245.449 231.865 240.719 229.959 236.196 227.714C235.841 227.538 236.08 227.035 236.446 227.161Z" fill="#455A64"/>
<path d="M235.05 195.387C235.062 195.227 235.344 195.191 235.343 195.364C235.305 200.871 235.657 205.716 236.121 210.863C236.337 213.253 238.259 226.458 242.402 225.495C243.096 225.334 243.45 224.651 243.559 223.605C243.69 222.348 243.217 220.806 243.009 219.555C242.549 216.791 242.18 214.018 241.943 211.225C241.5 206.013 241.478 200.8 242.112 195.604C242.133 195.433 242.379 195.446 242.379 195.619C242.373 202.835 242.562 210.037 243.641 217.184C244.16 220.618 245.889 225.789 242.297 226.318C238.637 226.856 236.271 218.195 235.825 215.826C234.577 209.214 234.527 202.077 235.05 195.387Z" fill="#455A64"/>
<path d="M242.291 225.852C242.665 226.739 242.967 227.662 243.223 228.589C243.422 229.309 243.692 230.088 243.61 230.839C243.594 230.985 243.401 230.999 243.323 230.9C242.837 230.284 242.632 229.441 242.36 228.711C242.045 227.865 241.711 227.024 241.421 226.169C241.228 225.601 242.061 225.305 242.291 225.852Z" fill="#455A64"/>
<path d="M314.993 395.338C313.259 395.195 311.483 395.25 309.742 395.233C308.077 395.217 306.409 395.235 304.744 395.255C301.288 395.297 297.831 395.333 294.375 395.398C287.547 395.526 280.719 395.678 273.893 395.889C270.015 396.009 266.153 396.236 262.286 396.517C262.16 396.526 262.165 396.708 262.291 396.712C269.166 396.925 276.032 396.839 282.911 396.726C289.74 396.614 296.567 396.447 303.394 396.245C305.309 396.188 307.223 396.117 309.138 396.043C311.079 395.968 313.076 395.936 315.003 395.695C315.233 395.669 315.224 395.357 314.993 395.338Z" fill="#455A64"/>
<path d="M288.992 372.29C288.478 367.058 287.924 361.831 287.381 356.602C286.304 346.247 285.182 335.896 284.044 325.547C281.768 304.84 279.427 284.141 277.057 263.445C275.727 251.833 274.627 240.182 273.118 228.592C273.105 228.489 272.945 228.489 272.954 228.596C273.854 239.068 275.131 249.514 276.194 259.971C277.246 270.324 278.273 280.68 279.347 291.03C281.496 311.74 283.719 332.442 285.973 353.141C286.606 358.952 287.248 364.763 287.933 370.568C288.619 376.383 289.42 382.18 290.147 387.988C290.165 388.13 290.387 388.129 290.374 387.982C289.898 382.753 289.506 377.518 288.992 372.29Z" fill="#455A64"/>
<path d="M224.501 212.681L234.631 213.331L264.161 215.251L287.381 216.761L282.141 189.031H228.911C228.911 189.031 228.911 189.041 228.921 189.071H224.961L224.501 212.681Z" fill="#263238"/>
<path d="M238.679 80.7372C228.982 89.0512 231.682 101.174 227.631 107.75C225.154 111.772 217.088 116.019 215.484 120.653C212.849 128.267 219.304 131.001 217.86 135.139C215.815 141.002 207.965 140.546 206.551 150.137C205.137 159.728 215.69 169.931 240.736 172.694C265.782 175.458 279.542 166.288 280.44 158.15C281.338 150.013 273.006 147.304 272.438 141.227C272.075 137.344 277.221 134.64 277.481 127.493C277.741 120.346 270.777 118.022 269.779 111.953C268.777 105.855 271.994 91.1342 263.075 83.6042C254.159 76.0752 243.464 76.6352 238.679 80.7372Z" fill="#263238"/>
<path d="M239.803 80.9513C237.042 82.8953 234.934 85.3953 233.365 88.3793C231.734 91.4803 230.654 94.8413 229.785 98.2243C229.271 100.223 228.8 102.277 227.84 104.119C227.009 105.716 225.805 107.067 224.477 108.268C221.768 110.719 218.534 112.581 216.101 115.334C213.796 117.942 212.003 121.431 212.923 124.985C213.423 126.918 214.698 128.495 215.49 130.299C216.24 132.008 216.543 134.132 215.076 135.552C213.823 136.765 212.008 137.321 210.586 138.315C209.191 139.29 207.943 140.489 206.931 141.859C204.867 144.654 203.976 148.058 204.625 151.492C206.099 159.284 213.409 163.714 220.157 166.505C221.098 166.894 222.044 167.273 222.99 167.649C223.136 167.707 223.26 167.497 223.111 167.43C216.338 164.399 208.478 160.841 205.877 153.269C204.705 149.859 205.088 146.255 207.045 143.216C207.985 141.756 209.228 140.479 210.623 139.45C211.985 138.444 213.558 137.827 214.944 136.872C216.347 135.904 217.155 134.485 217.074 132.757C216.988 130.928 216.094 129.331 215.21 127.778C214.274 126.134 213.48 124.473 213.612 122.532C213.736 120.713 214.58 118.995 215.616 117.527C217.723 114.541 220.845 112.582 223.643 110.322C226.458 108.048 228.711 105.424 229.738 101.891C230.257 100.105 230.58 98.2673 231.028 96.4623C231.444 94.7893 231.927 93.1313 232.522 91.5123C233.699 88.3073 235.375 85.2053 237.817 82.7843C238.457 82.1503 239.135 81.5833 239.886 81.0853C239.969 81.0293 239.885 80.8943 239.803 80.9513Z" fill="#263238"/>
<path d="M281.554 152.179C281.243 150.862 280.661 149.597 279.821 148.534C278.95 147.43 277.897 146.498 276.931 145.48C276.017 144.517 275.15 143.432 274.883 142.098C274.563 140.497 275.235 138.961 275.986 137.585C276.775 136.14 277.651 134.771 278.228 133.22C278.785 131.725 279.094 130.144 279.182 128.551C279.366 125.221 278.386 122.06 276.662 119.237C275.808 117.838 274.847 116.509 273.982 115.117C273.03 113.584 272.279 111.982 271.761 110.252C270.633 106.481 270.39 102.503 269.468 98.6797C268.523 94.7617 267.113 90.9667 265.4 87.3207C265.357 87.2297 265.224 87.3127 265.267 87.4027C266.821 90.6877 267.985 94.1297 268.824 97.6647C269.62 101.017 269.926 104.432 270.518 107.818C270.808 109.476 271.178 111.126 271.789 112.699C272.36 114.17 273.14 115.544 273.963 116.886C275.655 119.645 277.404 122.369 277.871 125.641C278.333 128.878 277.784 132.127 276.256 135.016C274.939 137.506 273.095 140.251 274.246 143.167C275.22 145.635 277.574 147.115 279.137 149.16C280.86 151.415 281.362 154.318 280.831 157.077C279.482 164.09 272.455 167.569 265.874 167.916C265.668 167.927 265.675 168.239 265.882 168.236C271.603 168.168 277.826 165.654 280.509 160.298C281.753 157.814 282.194 154.896 281.554 152.179Z" fill="#263238"/>
<path d="M244.293 130.672C242.514 137.956 221.36 206.2 217.17 207.145C204.837 209.925 190.026 211.962 190.245 201.845C190.589 185.968 220.44 144.17 234.737 130.275C244.15 121.128 246.048 123.484 244.293 130.672Z" fill="#FFBE93"/>
<path d="M244.293 130.672C242.514 137.956 221.36 206.2 217.17 207.145C204.837 209.925 190.026 211.962 190.245 201.845C190.589 185.968 220.44 144.17 234.737 130.275C244.15 121.128 246.048 123.484 244.293 130.672Z" fill="#FFBE93"/>
<path d="M190.156 205.486C185.037 187.494 228.31 134.572 236.727 127.838C245.144 121.104 246.245 123.21 244.53 131.718C242.815 140.226 222.362 204.644 218.04 206.978C213.719 209.311 192.477 213.643 190.156 205.486Z" fill="#EBEBEB"/>
<path d="M225.524 171.509L220.771 204.191C220.771 204.191 274.032 204.977 287.253 204.045C287.253 204.045 276.469 142.949 262.253 127.513C255.142 119.793 246.794 120.37 241.473 125.767C240.126 127.133 224.062 148.364 222.37 156.475C220.893 163.632 225.524 171.509 225.524 171.509Z" fill="#03B0EF"/>
<path d="M256.357 122.992C256.357 122.992 250.157 293.35 253.451 301.439C256.745 309.528 306.249 317.557 306.249 317.557C306.249 317.557 291.723 195.618 278.544 158.613C266.326 124.305 256.357 122.992 256.357 122.992Z" fill="#EBEBEB"/>
<path d="M289.436 227.742C289.413 227.741 282.016 228.798 275.884 228.798C269.546 228.798 263.25 228.181 261.436 228.157C261.269 228.155 261.187 228.69 261.298 228.705C263.667 229.01 270.939 229.733 275.771 229.733C280.603 229.733 287.053 228.964 288.969 228.483C288.946 229.827 288.943 230.873 288.947 232.217C284.476 233.08 275.851 234.577 261.917 232.786C261.874 232.219 261.953 229.235 261.83 228.412C261.812 228.287 261.296 228.265 261.271 228.455C261.163 229.26 260.833 236.448 260.824 237.908C260.8 241.508 261.038 251.673 261.933 253.642C263.963 258.104 272.644 258.112 275.048 258.131C277.47 258.15 285.197 258.391 288.1 255.554C289.649 254.04 289.984 245.799 289.757 238.518C289.647 235.027 289.644 227.806 289.436 227.742ZM275.739 257.215C268.061 257.224 264.722 255.616 263.539 254.014C262.16 252.146 262.043 248.894 261.939 245.299C261.858 242.484 261.952 233.645 261.939 233.466C266.415 234.373 278.222 235.6 288.949 233.106C288.963 237.295 288.977 240.641 288.979 244.831C288.981 247.867 288.792 252.954 287.254 254.721C285.967 256.199 281.29 257.208 275.739 257.215Z" fill="#A6A6A6"/>
<path d="M223.715 302.197C220.972 308.681 204.592 313.078 204.592 313.078L225.235 170.917C225.235 170.917 220.967 164.599 222.353 156.618C223.739 148.637 240.435 125.516 243.132 124.32C243.132 124.32 239.318 139.254 237.341 160.579C232.708 210.547 226.706 295.127 223.715 302.197Z" fill="#EBEBEB"/>
<path d="M227.615 145.824C229.1 143.454 230.628 141.11 232.087 138.724C232.128 138.657 232.023 138.577 231.974 138.641C230.484 140.594 229.033 142.579 227.592 144.569C228.068 143.503 228.532 142.431 228.962 141.344C229.01 141.221 228.837 141.117 228.777 141.242C228.116 142.642 227.517 144.068 226.931 145.499C225.665 147.291 224.49 149.15 223.529 151.124C221.5 155.292 220.626 159.853 221.725 164.416C222.028 165.677 222.47 166.891 223.052 168.05C223.448 168.84 224.727 170.547 224.718 170.596C223.886 175.255 223.26 179.968 222.602 184.655C221.937 189.398 221.262 194.14 220.711 198.898C220.399 201.592 220.197 204.307 219.805 206.989C219.791 207.088 219.942 207.126 219.957 207.027C220.298 204.69 220.805 202.375 221.219 200.048C221.634 197.719 222.027 195.385 222.403 193.05C223.162 188.33 223.837 183.595 224.52 178.863C224.906 176.187 225.329 173.511 225.635 170.824C225.668 170.53 224.458 168.619 224.101 167.887C223.621 166.903 223.232 165.862 222.932 164.81C222.323 162.675 222.117 160.403 222.369 158.194C222.888 153.658 225.235 149.622 227.615 145.824Z" fill="#263238"/>
<path d="M243.003 124.844C241.435 127.219 239.845 129.577 238.225 131.914C236.594 134.243 235 136.599 233.338 138.905L233.303 138.353L237.295 142.535L237.625 142.881L237.275 143.22C235.595 144.848 233.885 146.444 232.181 148.047L232.324 147.631C232.942 151.964 233.605 156.291 234.155 160.634C234.74 164.972 235.289 169.316 235.769 173.67C234.944 169.368 234.188 165.056 233.468 160.738C232.713 156.425 232.071 152.096 231.383 147.773L231.345 147.531L231.526 147.357C233.213 145.737 234.895 144.11 236.607 142.516L236.587 143.201L232.671 138.948L232.427 138.683L232.636 138.396C234.312 136.1 236.058 133.854 237.766 131.581C239.484 129.315 241.232 127.072 243.003 124.844Z" fill="#A6A6A6"/>
<path d="M260.879 135.073C265.434 141.029 285.947 164.899 287.254 166.997C288.135 168.41 283.184 175.06 283.292 176.018C283.733 179.919 291.759 204.948 295.079 202.223C299.45 198.636 319.575 173.69 316.651 162.951C313.727 152.212 267.921 126.404 260.879 124.316C253.838 122.229 256.384 129.195 260.879 135.073Z" fill="#FFBE93"/>
<path d="M286.72 167.325C286.744 165.808 262.686 140.251 258.307 131.715C253.929 123.18 256.145 121.351 267.396 126.838C278.647 132.325 313.231 152.388 317.333 162.364C321.434 172.34 298.932 199.775 298.932 199.775L283.192 173.283C283.192 173.283 286.701 168.572 286.72 167.325Z" fill="#EBEBEB"/>
<path d="M301.963 192.138C296.534 182.051 289.298 172.272 288.158 170.478C288.104 170.393 287.973 170.49 288.032 170.573C289.242 172.275 296.299 184.347 301.825 192.243C301.889 192.334 302.016 192.235 301.963 192.138Z" fill="#263238"/>
<path d="M277.815 156.278C276.816 155.041 275.87 153.767 274.849 152.547C273.812 151.307 272.75 150.089 271.685 148.874C269.529 146.414 267.34 144 265.104 141.613C265.071 141.578 265.007 141.628 265.038 141.667C266.189 143.113 267.354 144.543 268.528 145.966C268.52 145.96 268.513 145.954 268.505 145.947C267.757 145.33 266.97 144.755 266.173 144.203C266.136 144.177 266.097 144.235 266.127 144.266C266.823 144.948 267.539 145.615 268.291 146.236C268.656 146.538 269.021 146.841 269.387 147.142C269.492 147.229 269.604 147.307 269.714 147.387C270.189 147.954 270.657 148.526 271.137 149.09C272.184 150.32 273.231 151.552 274.306 152.758C275.407 153.993 276.57 155.163 277.692 156.377C277.754 156.44 277.871 156.348 277.815 156.278Z" fill="#263238"/>
<path d="M280.695 208.753C278.354 206.735 282.072 205.131 282.072 205.131C282.072 205.131 276.163 206.15 274.554 203.137C273.011 200.228 277.571 198.448 277.896 198.317C277.583 198.368 272.129 199.163 270.824 195.968C269.47 192.646 274.354 191.646 274.67 191.582C274.359 191.537 270.26 190.881 269.82 188.228C269.067 183.669 280.957 184.545 283.829 182.146C283.829 182.146 283.362 176.192 283.293 176.016C283.293 176.016 284.329 178.441 286.324 179.266C288.798 180.29 291.054 180.976 291.948 182.327C293.415 184.551 291.862 186.369 291.862 186.369C291.862 186.369 295.14 186.372 296.247 188.855C296.812 190.131 295.273 192.17 295.273 192.17C295.273 192.17 297.898 192.282 298.745 194.552C299.427 196.362 297.777 198.125 297.777 198.125C297.777 198.125 300.247 199.402 300.343 201.477C300.546 205.662 285.712 213.069 280.695 208.753Z" fill="#FFBE93"/>
<path d="M297.559 198.445C297.606 198.416 297.656 198.477 297.612 198.514C293.328 202.141 287.51 204.812 281.88 205.239C281.695 205.253 281.592 204.959 281.793 204.905C287.512 203.355 292.464 201.524 297.559 198.445Z" fill="#263238"/>
<path d="M295.362 192.164C295.417 192.13 295.474 192.222 295.42 192.266C290.986 195.979 284.35 198.808 277.802 198.536C277.577 198.527 277.385 198.293 277.645 198.284C282.012 198.135 290.789 194.96 295.362 192.164Z" fill="#263238"/>
<path d="M274.22 191.403C280.508 191.421 286.17 189.422 291.689 186.532C291.761 186.494 291.806 186.599 291.755 186.647C289.44 188.796 285.73 190.271 282.746 191.175C279.888 192.04 277.135 192.248 274.219 191.623C274.106 191.599 274.085 191.403 274.22 191.403Z" fill="#263238"/>
<path d="M297.944 198.129C298.995 197.085 299.788 195.71 299.335 194.191C299.13 193.502 298.664 192.924 298.057 192.538C297.305 192.059 296.193 192.069 295.661 192.032C296.615 190.785 297.106 189.076 296.241 187.651C295.84 186.99 295.219 186.668 294.479 186.427C294.079 186.297 292.415 186.143 291.938 186.233C292.736 185.511 293.146 184.388 293.025 183.321C292.884 182.08 292.073 181.172 291.032 180.551C289.834 179.837 288.449 179.563 287.134 179.148C286.45 178.932 285.775 178.719 285.155 178.347C284.593 178.01 283.8 177.386 283.723 176.674C283.708 176.533 283.508 176.624 283.578 176.717C283.902 177.145 284.102 177.641 284.474 178.047C284.85 178.457 285.281 178.811 285.751 179.109C286.889 179.83 288.211 180.127 289.431 180.672C290.498 181.148 291.508 181.847 292.075 182.899C292.66 183.983 292.48 185.272 291.791 186.257C291.749 186.302 291.773 186.385 291.867 186.388C292.426 186.407 293.755 186.749 294.091 186.91C294.664 187.183 295.242 187.525 295.555 188.077C296.262 189.324 296.033 190.956 295.275 192.17C295.248 192.214 296.612 192.361 297.572 193.06C298.026 193.39 298.352 193.909 298.546 194.432C299.003 195.668 298.666 197.136 297.746 198.069C297.731 198.084 297.73 198.101 297.727 198.117L297.726 198.12C297.724 198.131 297.723 198.141 297.726 198.151C297.727 198.169 297.735 198.183 297.749 198.197C297.758 198.205 298.533 198.637 298.574 198.645C298.598 198.649 298.598 198.617 298.583 198.6C298.553 198.568 298.055 198.179 297.944 198.129Z" fill="#263238"/>
<path d="M257.152 124.352C258.363 126.927 259.548 129.513 260.7 132.113C261.839 134.718 263.021 137.306 264.124 139.926L264.262 140.253L263.963 140.455L259.173 143.693L259.311 143.022C260.61 144.968 261.872 146.937 263.141 148.903L263.265 149.095L263.197 149.306C261.914 153.285 260.675 157.278 259.326 161.236C258.011 165.205 256.662 169.163 255.246 173.101C256.329 169.059 257.478 165.038 258.663 161.028C259.813 157.008 261.073 153.021 262.289 149.021L262.345 149.424C261.055 147.472 259.758 145.525 258.498 143.554L258.236 143.143L258.637 142.882L263.484 139.731L263.323 140.26C262.236 137.633 261.228 134.973 260.176 132.332C259.136 129.685 258.132 127.024 257.152 124.352Z" fill="#A6A6A6"/>
<path d="M262.248 129.306C262.003 123.484 254.749 121.963 250.357 121.847C245.153 121.71 241.786 122.516 239.872 127.759C237.854 133.288 237.164 139.523 236.779 145.372C236.707 146.464 235.008 146.381 235.08 145.287C235.524 138.546 235.849 126.028 242.036 121.711C247.73 117.737 263.534 119.528 263.948 129.393C263.993 130.485 262.294 130.392 262.248 129.306Z" fill="#455A64"/>
<path d="M231.864 148.344C231.755 150.5 233.415 152.335 235.57 152.444C237.726 152.552 239.561 150.893 239.669 148.737C239.778 146.581 238.118 144.746 235.962 144.638C233.808 144.529 231.973 146.188 231.864 148.344Z" fill="#263238"/>
<path d="M233.418 148.422C233.353 149.72 234.352 150.824 235.649 150.89C236.947 150.955 238.051 149.956 238.117 148.659C238.182 147.361 237.183 146.257 235.886 146.191C234.588 146.126 233.483 147.125 233.418 148.422Z" fill="#EBEBEB"/>
<path d="M258.38 148.055C255.901 164.76 256.999 168.652 258.555 170.37C260.194 172.179 262.603 172.99 262.705 173.024L263.077 171.898L262.891 172.461L263.078 171.898C263.056 171.891 260.859 171.146 259.434 169.574C258.309 168.333 257.098 164.77 259.553 148.23L258.38 148.055Z" fill="#C7C7C7"/>
<path d="M261.258 171.599L261.143 171.875C260.907 172.44 261.177 173.096 261.742 173.331L263.476 174.054C264.041 174.29 264.697 174.02 264.932 173.455L265.047 173.179C265.283 172.614 265.013 171.958 264.448 171.723L262.714 171C262.149 170.764 261.494 171.034 261.258 171.599Z" fill="#263238"/>
<path d="M269.02 147.285C273.595 159.162 275.114 165.772 273.801 168.088C272.75 169.942 270.774 171.14 270.754 171.152L271.363 172.169C271.455 172.114 273.628 170.796 274.833 168.673C276.396 165.916 275.033 159.596 270.127 146.859L269.02 147.285Z" fill="#C7C7C7"/>
<path d="M272.463 170.462L272.636 170.706C272.99 171.206 272.87 171.905 272.37 172.258L270.836 173.343C270.336 173.697 269.638 173.577 269.284 173.077L269.111 172.833C268.757 172.333 268.877 171.634 269.377 171.281L270.911 170.196C271.411 169.842 272.109 169.962 272.463 170.462Z" fill="#263238"/>
<path d="M270.475 146.302C269.952 144.648 268.511 140.555 267.485 138.536C266.643 136.878 264.802 135.901 264.802 135.901C264.567 135.904 264.44 133.832 264.374 132.136C264.317 130.639 264.283 128.895 263.875 128.455C263.48 128.031 262.579 128.1 262.248 128.551C261.891 129.033 262.061 130.771 262.174 132.266C262.304 133.959 262.416 136.03 262.18 136.055C262.18 136.055 260.583 137.308 259.959 139.005C259.263 140.898 258.18 145.868 258.031 147.303C257.845 149.085 258.441 149.237 258.958 149.353C259.69 149.515 260.086 148.985 260.427 146.999C260.968 143.852 261.508 138.596 263.632 138.377V138.372C265.763 138.353 267.218 143.696 268.23 146.652C268.864 148.503 269.284 148.641 269.994 148.396C270.494 148.223 270.995 147.949 270.475 146.302Z" fill="#263238"/>
<path d="M255.143 124.007C254.752 125.009 250.918 131.719 246.127 131.719C243.114 131.719 243.848 121.393 243.848 121.393L243.797 120.749L243.099 111.74L254.297 106.635L255.904 105.977C255.904 105.977 255.932 108.454 255.937 111.539C255.938 111.682 255.939 111.825 255.938 111.978C255.943 112.152 255.95 112.317 255.946 112.48C255.953 112.941 255.957 113.411 255.952 113.88C255.95 114.237 255.949 114.584 255.933 114.958C255.926 115.334 255.912 115.699 255.906 116.076C255.762 119.785 255.303 123.581 255.143 124.007Z" fill="#FFBE93"/>
<path d="M255.938 111.539C252.439 118.126 246.483 120.161 243.798 120.749L243.1 111.74L254.298 106.635L255.905 105.977C255.905 105.977 255.934 108.454 255.938 111.539Z" fill="#263238"/>
<path d="M231.839 98.3361C230.366 114.125 239.657 116.791 243.062 117.104C246.153 117.389 256.714 117.966 259.811 102.414C262.907 86.8611 256.032 81.1851 248.997 80.1591C241.961 79.1341 233.312 82.5471 231.839 98.3361Z" fill="#FFBE93"/>
<path d="M236.946 94.8142C237.319 94.7852 237.659 94.6952 238.025 94.6282C238.438 94.5522 238.776 94.5342 239.09 94.2282C239.259 94.0642 239.259 93.7182 239.115 93.5402C238.78 93.1242 238.251 93.0912 237.749 93.1622C237.205 93.2392 236.805 93.4382 236.433 93.8402C236.071 94.2312 236.453 94.8532 236.946 94.8142Z" fill="#263238"/>
<path d="M247.819 95.2393C247.449 95.1823 247.117 95.0673 246.757 94.9733C246.35 94.8663 246.016 94.8234 245.725 94.4954C245.569 94.3194 245.595 93.9743 245.752 93.8073C246.117 93.4173 246.648 93.4243 247.142 93.5323C247.679 93.6503 248.062 93.8783 248.404 94.3073C248.734 94.7233 248.307 95.3143 247.819 95.2393Z" fill="#263238"/>
<path d="M245.403 99.1583C245.414 99.1173 245.484 99.2143 245.48 99.2583C245.38 100.334 245.447 101.582 246.4 101.999C246.429 102.012 246.423 102.066 246.387 102.059C245.208 101.819 245.136 100.16 245.403 99.1583Z" fill="#263238"/>
<path d="M246.434 98.0939C248.176 98.0679 248.1 101.553 246.486 101.577C244.898 101.601 244.974 98.1159 246.434 98.0939Z" fill="#263238"/>
<path d="M247.115 98.2913C247.415 98.4953 247.706 98.8493 248.072 98.8933C248.496 98.9443 248.824 98.5863 249.109 98.2423C249.139 98.2063 249.168 98.2373 249.168 98.2833C249.163 98.9513 248.892 99.6303 248.174 99.7143C247.519 99.7913 247.063 99.1893 246.911 98.5143C246.882 98.3903 246.994 98.2093 247.115 98.2913Z" fill="#263238"/>
<path d="M238.887 98.8385C238.879 98.7975 238.802 98.8885 238.803 98.9325C238.822 100.012 238.662 101.252 237.681 101.597C237.65 101.608 237.653 101.662 237.689 101.657C238.883 101.507 239.079 99.8595 238.887 98.8385Z" fill="#263238"/>
<path d="M237.94 97.7004C236.205 97.5444 236.021 101.025 237.628 101.169C239.209 101.312 239.394 97.8314 237.94 97.7004Z" fill="#263238"/>
<path d="M237.201 97.8939C236.916 98.0639 236.626 98.3849 236.297 98.3889C235.915 98.3939 235.653 98.0019 235.429 97.6279C235.406 97.5889 235.377 97.6169 235.373 97.6629C235.319 98.3269 235.503 99.0319 236.135 99.1939C236.712 99.3419 237.17 98.7929 237.364 98.1389C237.4 98.0179 237.316 97.8259 237.201 97.8939Z" fill="#263238"/>
<path d="M244.526 107.745C244.274 108.004 244.024 108.358 243.633 108.4C243.258 108.44 242.814 108.281 242.466 108.156C242.432 108.143 242.398 108.181 242.421 108.212C242.711 108.62 243.307 108.865 243.805 108.766C244.292 108.669 244.523 108.241 244.631 107.791C244.646 107.729 244.563 107.708 244.526 107.745Z" fill="#263238"/>
<path d="M240.144 103.692C240.144 103.692 239.867 105.296 239.841 106.057C239.839 106.128 240.022 106.168 240.279 106.192C240.291 106.196 240.298 106.201 240.309 106.194C241.644 106.448 243.012 106.03 243.864 104.962C243.919 104.889 243.825 104.808 243.754 104.853C242.727 105.555 241.613 105.708 240.422 105.688C240.375 105.476 240.988 102.956 240.867 102.943C240.452 102.894 239.624 103.149 239.127 103.276C239.606 99.917 240.62 96.663 241.048 93.312C241.061 93.192 240.89 93.15 240.851 93.256C239.547 96.592 238.91 100.444 238.326 103.9C238.251 104.329 239.835 103.811 240.144 103.692Z" fill="#263238"/>
<path d="M240.803 105.806C240.803 105.806 241.392 106.741 242.267 107.129C242.589 107.273 242.942 107.347 243.324 107.276C244.107 107.132 244.18 106.429 244.084 105.816C244.007 105.311 243.81 104.867 243.81 104.867C243.81 104.867 242.609 105.831 240.803 105.806Z" fill="#263238"/>
<path d="M242.266 107.125C242.588 107.269 242.941 107.343 243.323 107.272C244.106 107.128 244.179 106.425 244.083 105.812C243.254 105.833 242.397 106.33 242.266 107.125Z" fill="#FF9CBD"/>
<path d="M232.767 92.7484C234.633 93.3524 241.259 89.2334 243.922 83.3034C243.922 83.3034 244.285 88.2754 248.604 92.2784C252.923 96.2814 257.019 96.5774 257.019 96.5774C257.019 96.5774 258.305 103.724 259.484 103.878C260.663 104.032 268.09 79.5904 247.306 79.3134C247.306 79.3134 241.226 78.7034 237.427 82.2504C233.63 85.7964 232.767 92.7484 232.767 92.7484Z" fill="#263238"/>
<path d="M257.187 101.835C257.187 101.835 260.68 96.9077 262.918 98.1557C265.156 99.4047 262.507 106.563 259.864 107.527C257.221 108.491 256.28 106.062 256.28 106.062L257.187 101.835Z" fill="#FFBE93"/>
<path d="M262.109 100.188C262.152 100.184 262.159 100.244 262.123 100.259C260.269 100.996 259.285 102.704 258.592 104.477C259.146 103.796 259.897 103.426 260.81 104.087C260.858 104.122 260.811 104.197 260.759 104.186C260.003 104.019 259.456 104.147 258.94 104.75C258.575 105.177 258.324 105.719 258.061 106.213C257.973 106.378 257.675 106.287 257.74 106.097C257.745 106.083 257.751 106.069 257.755 106.054C257.723 103.695 259.576 100.409 262.109 100.188Z" fill="#263238"/>
<path d="M243.77 123.865C243.076 124.225 244.092 137.09 244.53 137.81C244.693 138.079 253.126 131.409 255.938 122.842C255.938 122.842 250.965 120.13 243.77 123.865Z" fill="#FFBE93"/>
<path d="M228.981 149.584L190.486 161.57L206.09 211.682L244.584 199.696L228.981 149.584Z" fill="#455A64"/>
<path d="M201.367 161.434L219.605 155.734L217.878 150.208L199.64 155.908L201.367 161.434Z" fill="#A6A6A6"/>
<path d="M203.784 154.627L206.03 153.925L205.234 151.377L210.691 149.671L211.488 152.22L213.734 151.518L212.282 146.875L202.301 149.995L203.784 154.627Z" fill="#A6A6A6"/>
<path d="M236.434 168.707C238.535 170.703 237.217 173.398 237.217 173.398C237.217 173.398 239.497 173.795 240.8 175.595C242.293 177.657 239.714 180.902 239.714 180.902C239.714 180.902 241.938 181.781 243.124 183.822C244.354 185.94 242.219 189.585 242.219 189.585C242.219 189.585 243.841 191.542 243.6 194.041C243.189 198.313 237.323 201.239 233.614 203.136C229.904 205.034 217.604 206.941 215.297 207.542L202.913 183.837C202.913 183.837 217.128 170.595 221.806 168.983C225.747 167.627 234.075 166.467 236.434 168.707Z" fill="#FFBE93"/>
<path d="M204.591 182.297C200.346 185.551 187.612 198.108 190.606 204.497C193.599 210.887 203.834 210.241 218.04 206.974L204.591 182.297Z" fill="#FFBE93"/>
<path d="M204.591 182.297C200.346 185.551 186.948 197.807 190.34 206.012C193.035 212.533 205.082 213.324 219.288 210.057L204.591 182.297Z" fill="#EBEBEB"/>
<path d="M211.98 210.29C207.536 199.731 201.264 189.308 200.3 187.414C200.254 187.324 200.115 187.408 200.166 187.496C201.209 189.305 207.084 201.994 211.833 210.381C211.887 210.478 212.022 210.392 211.98 210.29Z" fill="#263238"/>
<path d="M236.854 173.102C232.317 173.54 228.157 175.296 223.905 176.813C223.81 176.847 223.864 176.995 223.959 176.96C228.17 175.403 232.636 174.701 236.901 173.315C237.019 173.276 236.977 173.09 236.854 173.102Z" fill="#263238"/>
<path d="M239.476 180.634C238.453 180.764 237.475 181.231 236.53 181.622C235.512 182.043 234.503 182.482 233.5 182.937C231.492 183.847 229.504 184.803 227.546 185.816C227.459 185.861 227.506 186.005 227.6 185.963C229.603 185.06 231.619 184.186 233.659 183.368C234.679 182.958 235.704 182.558 236.73 182.164C237.685 181.797 238.723 181.49 239.579 180.917C239.705 180.832 239.63 180.614 239.476 180.634Z" fill="#263238"/>
<path d="M242.134 189.617C241.24 189.694 240.328 190.266 239.53 190.648C238.624 191.082 237.715 191.51 236.804 191.934C234.982 192.781 233.16 193.627 231.31 194.41C231.218 194.449 231.271 194.596 231.364 194.557C233.248 193.771 235.142 193.011 237.019 192.208C237.941 191.814 238.86 191.415 239.777 191.011C240.557 190.667 241.571 190.326 242.18 189.707C242.214 189.672 242.178 189.613 242.134 189.617Z" fill="#263238"/>
<path d="M204.033 182.513C202.495 183.746 201.226 184.641 199.815 186.101C199.485 186.443 199.153 186.786 198.822 187.131C198.676 187.222 198.533 187.315 198.391 187.408C197.787 187.804 197.195 188.218 196.631 188.67C195.538 189.545 194.524 190.51 193.555 191.52C193.485 191.593 193.596 191.697 193.668 191.628C194.688 190.653 195.794 189.774 196.949 188.964C197.1 188.858 197.256 188.759 197.407 188.654C196.852 189.27 196.31 189.896 195.809 190.55C194.467 192.299 193.213 194.054 192.094 195.958C192.043 196.045 192.178 196.118 192.231 196.034C194.3 192.711 203.324 183.826 204.307 182.762C205.32 181.664 204.785 181.91 204.033 182.513Z" fill="#263238"/>
<path d="M342.028 109.289C331.227 123.582 318.325 129.855 318.325 129.855C318.325 129.855 305.433 123.582 294.633 109.289C286.29 98.248 286.701 80.961 298.638 77.222C311.838 73.087 318.326 92.952 318.326 92.952C318.326 92.952 324.908 72.956 338.024 77.222C349.918 81.09 350.371 98.248 342.028 109.289Z" fill="#03B0EF"/>
<path d="M309.014 121.13L305.416 106.149L303.068 111.43H288.534V109.739H301.969L305.895 100.906L308.701 112.586L312.667 88.3828L316.168 107.53L318.936 99.5348L323.3 112.621L324.267 109.731H348.14V111.422H325.484L323.299 117.96L318.906 104.79L315.662 114.162L312.758 98.2828L309.014 121.13Z" fill="white"/>
<path d="M417.109 363.922V379.242H410.991V370.522H389.776V379.242H383.658V363.922H417.109Z" fill="#03B0EF"/>
<path opacity="0.1" d="M389.78 372.5H383.66V379.24H389.78V372.5Z" fill="black"/>
<path opacity="0.1" d="M417.11 372.5H410.99V379.24H417.11V372.5Z" fill="black"/>
<path d="M445.755 432.614H355.044L360.044 375.875H440.755L445.755 432.614Z" fill="#03B0EF"/>
<path opacity="0.1" d="M400.399 432.614H355.044L360.044 375.875H400.399V432.614Z" fill="black"/>
<path d="M414.361 400.944V407.542H403.697V418.206H397.099V407.542H386.436V400.944H397.099V390.281H403.697V400.944H414.361Z" fill="#FFFFFD"/>
</svg>
