<svg width="40" height="40" viewBox="0 0 40 40" fill="none" xmlns="http://www.w3.org/2000/svg">
<path d="M36.6663 35.4141H3.33301C2.64967 35.4141 2.08301 35.9807 2.08301 36.6641C2.08301 37.3474 2.64967 37.9141 3.33301 37.9141H36.6663C37.3497 37.9141 37.9163 37.3474 37.9163 36.6641C37.9163 35.9807 37.3497 35.4141 36.6663 35.4141Z" fill="#9B9B9B"/>
<path d="M28.3333 3.33594H11.6667C6.66667 3.33594 5 6.31927 5 10.0026V36.6693H15V26.5693C15 25.7026 15.7 25.0026 16.5667 25.0026H23.45C24.3 25.0026 25.0167 25.7026 25.0167 26.5693V36.6693H35.0167V10.0026C35 6.31927 33.3333 3.33594 28.3333 3.33594ZM24.1667 15.4193H21.25V18.3359C21.25 19.0193 20.6833 19.5859 20 19.5859C19.3167 19.5859 18.75 19.0193 18.75 18.3359V15.4193H15.8333C15.15 15.4193 14.5833 14.8526 14.5833 14.1693C14.5833 13.4859 15.15 12.9193 15.8333 12.9193H18.75V10.0026C18.75 9.31927 19.3167 8.7526 20 8.7526C20.6833 8.7526 21.25 9.31927 21.25 10.0026V12.9193H24.1667C24.85 12.9193 25.4167 13.4859 25.4167 14.1693C25.4167 14.8526 24.85 15.4193 24.1667 15.4193Z" fill="#9B9B9B"/>
</svg>
