<svg width="70" height="70" viewBox="0 0 70 70" fill="none" xmlns="http://www.w3.org/2000/svg">
<path d="M48.4051 22.8927C49.4975 19.4254 47.5722 15.7291 44.105 14.6367C40.6377 13.5443 36.9414 15.4696 35.849 18.9368C34.7566 22.4041 36.6819 26.1004 40.1491 27.1928C43.6164 28.2852 47.3127 26.3599 48.4051 22.8927Z" fill="#E59E47"/>
<path d="M47.8724 32.482L44.6932 30.6395C43.101 29.7165 41.1363 29.7165 39.5441 30.6395L36.365 32.482C33.2205 34.304 31.2852 37.6635 31.2852 41.2974V52.5933H52.9528V41.2974C52.9528 37.6635 51.0168 34.3046 47.8724 32.482Z" fill="#E59E47"/>
<path d="M61.8339 8.16655C50.9452 -2.72218 33.291 -2.72218 22.4023 8.16655C14.1146 16.4519 12.141 28.6538 16.4682 38.8128C17.4717 41.1688 17.0111 43.8903 15.2003 45.7005L15.0429 45.8579C12.53 48.3708 12.53 52.4447 15.0429 54.9576L15.0435 54.9582C17.5563 57.4711 21.6297 57.4711 24.1426 54.9582L24.3006 54.8002C26.1114 52.99 28.8322 52.5293 31.1883 53.5323C41.3467 57.8583 53.5486 55.8847 61.8339 47.5976C72.7227 36.71 72.7227 19.0559 61.8339 8.16655ZM57.6607 43.4249C49.0774 52.0105 35.1605 52.0105 26.5755 43.4249C17.9923 34.8417 17.9923 20.9236 26.5755 12.3404C35.1605 3.75712 49.0774 3.75712 57.6607 12.3404C66.2445 20.9236 66.2445 34.8417 57.6607 43.4249Z" fill="#8404E3"/>
<path d="M13.6904 56.3104C11.1776 53.7976 7.10364 53.7976 4.59076 56.3104L1.88458 59.016C-0.628294 61.5289 -0.62829 65.6034 1.88517 68.1157C4.39805 70.628 8.47141 70.628 10.9843 68.1151L13.6899 65.4101C16.2028 62.8973 16.2033 58.8233 13.6904 56.3104Z" fill="#384CB3"/>
</svg>
