<svg width="36" height="40" viewBox="0 0 36 40" fill="none" xmlns="http://www.w3.org/2000/svg">
<g clip-path="url(#clip0_703_19069)">
<path d="M34.7235 18.9992C33.8313 17.4784 32.5588 16.2152 31.03 15.3344C29.8632 14.6568 28.6563 14.2264 27.2941 14.0408V9.1672C27.9548 8.8936 28.5186 8.4288 28.9118 7.832C29.305 7.2352 29.51 6.5344 29.5004 5.82C29.5028 5.3376 29.4099 4.8592 29.2265 4.4128C29.0431 3.9664 28.7741 3.5608 28.4329 3.2184C28.0925 2.8768 27.6873 2.6048 27.2413 2.42C26.7952 2.2352 26.3171 2.1392 25.8342 2.1392C24.8564 2.1392 23.9178 2.5264 23.2251 3.216C22.5323 3.9056 22.1415 4.8416 22.1383 5.8192C22.1383 7.3144 22.9328 8.5904 24.2982 9.1672V14.0128C23.1674 14.176 22.0695 14.5208 21.0476 15.032L7.98834 5.1544C8.07964 4.8096 8.15972 4.4528 8.15972 4.0768C8.15892 1.8248 6.33221 0 4.07786 0C1.8235 0 0 1.8248 0 4.0768C0 6.3288 1.82671 8.1536 4.08106 8.1536C4.85067 8.1536 5.56261 7.928 6.17685 7.5584L7.03214 8.2056L18.7468 16.6432C18.1269 17.2112 17.5495 17.8576 17.0882 18.584C16.1537 20.064 15.5819 21.6904 15.5819 23.4664V23.8328C15.5859 25.0368 15.8029 26.2312 16.2233 27.3608C16.5781 28.3248 17.0971 29.204 17.7417 29.9976L13.8497 33.8944C12.6981 33.4672 11.4063 33.7512 10.535 34.6208C9.94238 35.2096 9.60924 36.012 9.61244 36.8488C9.61564 37.6848 9.94238 38.4816 10.5382 39.0768C11.134 39.672 11.9309 40.0016 12.7685 40.0016C13.6062 40.0016 14.4086 39.672 14.9989 39.0768C15.5883 38.4816 15.9246 37.6856 15.9214 36.8488C15.9214 36.528 15.8718 36.2088 15.7749 35.9032L19.7951 31.8872C20.3452 32.2688 20.9403 32.5888 21.5817 32.864C22.8999 33.4416 24.3238 33.7408 25.7637 33.7432H26.0384C27.725 33.7432 29.3162 33.3464 30.8098 32.5376C32.345 31.7152 33.6351 30.5016 34.5489 29.0192C35.4867 27.524 36 25.8672 36 24.0448V23.9536C36 22.1624 35.5844 20.5112 34.7171 18.9976L34.7235 18.9992ZM29.8143 27.4272C28.7236 28.6384 27.4687 29.3864 26.0512 29.3864H25.7821C24.9725 29.3864 24.1781 29.1632 23.4052 28.7544C22.558 28.3144 21.8396 27.6608 21.3215 26.8592C20.7593 26.0656 20.4542 25.1992 20.4542 24.2808V24.0064C20.4542 23.1032 20.6279 22.2456 21.0652 21.4368C21.5329 20.5216 22.1648 19.8656 23.0048 19.3192C23.8449 18.7728 24.7098 18.5104 25.6932 18.5104H25.7853C26.6711 18.5104 27.5175 18.6848 28.3112 19.0904C29.116 19.5128 29.7991 20.1336 30.2964 20.8936C30.789 21.656 31.0941 22.524 31.1854 23.4264L31.207 23.9968C31.207 25.2384 30.7305 26.3888 29.7807 27.4328L29.8143 27.4272Z" fill="#F8761F"/>
</g>
<defs>
<clipPath id="clip0_703_19069">
<rect width="36" height="40" fill="white"/>
</clipPath>
</defs>
</svg>
