<svg width="48" height="48" viewBox="0 0 48 48" fill="none" xmlns="http://www.w3.org/2000/svg">
<path d="M36 4C39.32 4 42 6.66043 42 9.94043V31.7598C42 35.0398 39.32 37.7002 36 37.7002H34.5C32.92 37.7002 31.3798 38.3204 30.2598 39.4404L26.8398 42.8203C25.2798 44.3601 22.7396 44.3602 21.1797 42.8203L17.7598 39.4404C16.6398 38.3204 15.1195 37.7002 13.5195 37.7002H12C8.68 37.7002 6 35.0398 6 31.7598V9.94043C6 6.66043 8.68 4 12 4H36ZM31.6396 13.5596C30.4998 13.2398 29.2796 13.6999 28.6396 14.7197C27.1996 17.0397 25.6198 19.7 24.2598 22.04C23.7599 22.8799 23.7599 23.9399 24.2598 24.7998C24.7597 25.6397 25.6598 26.16 26.6396 26.1602H30.5801V27.54C30.5801 28.36 31.2601 29.04 32.0801 29.04C32.9 29.04 33.5801 28.36 33.5801 27.54V26.1602H34C34.82 26.1602 35.5 25.4997 35.5 24.6797C35.4998 23.8598 34.8199 23.1797 34 23.1797H33.5596V16.1396C33.5794 14.9398 32.7795 13.8995 31.6396 13.5596ZM17.3799 13.4404C14.6799 13.4405 12.5 15.6404 12.5 18.3203C12.5002 19.1402 13.1801 19.8203 14 19.8203C14.8199 19.8203 15.4998 19.1402 15.5 18.3203C15.5 17.2803 16.3204 16.4199 17.3604 16.4199C18.4001 16.4201 19.2401 17.26 19.2402 18.2998C19.2402 19.4597 18.3401 20.1398 16.7402 21.2197C15.2203 22.2597 13.4999 23.4198 12.7998 25.5596C12.5598 26.3595 12.6798 27.1999 13.1797 27.8799C13.6997 28.5999 14.5204 29.0195 15.4004 29.0195H20.7598C21.5798 29.0195 22.2598 28.3395 22.2598 27.5195C22.2595 26.6997 21.5796 26.0195 20.7598 26.0195V26.04H15.8799C16.3799 25.14 17.3804 24.4602 18.4404 23.7402C20.1403 22.5803 22.2596 21.14 22.2598 18.3203C22.2598 15.6203 20.0799 13.4404 17.3799 13.4404ZM30.5801 23.1416H27.0801C28.1801 21.2616 29.4001 19.2012 30.5801 17.2812V23.1416Z" fill="#03B0EF"/>
</svg>
