<svg width="40" height="40" viewBox="0 0 40 40" fill="none" xmlns="http://www.w3.org/2000/svg">
<path d="M6.66602 30V10" stroke="white" stroke-width="2" stroke-linecap="round"/>
<path d="M33.334 10V30" stroke="white" stroke-width="2" stroke-linecap="round"/>
<path d="M19.9993 16.6693C27.3631 16.6693 33.3327 13.6845 33.3327 10.0026C33.3327 6.32071 27.3631 3.33594 19.9993 3.33594C12.6356 3.33594 6.66602 6.32071 6.66602 10.0026C6.66602 13.6845 12.6356 16.6693 19.9993 16.6693Z" stroke="white" stroke-width="2"/>
<path d="M33.3327 20C33.3327 23.6819 27.3631 26.6667 19.9993 26.6667C12.6356 26.6667 6.66602 23.6819 6.66602 20" stroke="white" stroke-width="2"/>
<path d="M33.3327 30C33.3327 33.6819 27.3631 36.6667 19.9993 36.6667C12.6356 36.6667 6.66602 33.6819 6.66602 30" stroke="white" stroke-width="2"/>
</svg>
