<svg width="48" height="48" viewBox="0 0 48 48" fill="none" xmlns="http://www.w3.org/2000/svg">
<path d="M32.38 4H15.62C8.34 4 4 8.34 4 15.62V32.36C4 39.66 8.34 44 15.62 44H32.36C39.64 44 43.98 39.66 43.98 32.38V15.62C44 8.34 39.66 4 32.38 4ZM37.5 20C37.5 20.82 36.82 21.5 36 21.5C35.18 21.5 34.5 20.82 34.5 20V15.62L15.62 34.5H20C20.82 34.5 21.5 35.18 21.5 36C21.5 36.82 20.82 37.5 20 37.5H12C11.8 37.5 11.6 37.46 11.42 37.38C11.06 37.22 10.76 36.94 10.6 36.56C10.54 36.38 10.5 36.2 10.5 36V28C10.5 27.18 11.18 26.5 12 26.5C12.82 26.5 13.5 27.18 13.5 28V32.38L32.38 13.5H28C27.18 13.5 26.5 12.82 26.5 12C26.5 11.18 27.18 10.5 28 10.5H36C36.2 10.5 36.38 10.54 36.58 10.62C36.94 10.78 37.24 11.06 37.4 11.44C37.46 11.62 37.5 11.8 37.5 12V20Z" fill="#03B0EF"/>
</svg>
