<svg width="40" height="40" viewBox="0 0 40 40" fill="none" xmlns="http://www.w3.org/2000/svg">
<g clip-path="url(#clip0_2863_58090)">
<path d="M13.9902 4H4.9668C4.43287 4 4 4.43287 4 4.9668V7.22266H14.957V4.9668C14.957 4.43287 14.5242 4 13.9902 4Z" fill="#9B9B9B"/>
<path d="M36.5143 13.2161C36.2138 13.0437 35.8442 13.0452 35.5452 13.2201L25.9785 18.8147V14.0547C25.9785 13.7083 25.7932 13.3884 25.4928 13.2161C25.1923 13.0437 24.8227 13.0452 24.5237 13.2201L14.957 18.8147V9.15625H4V36.0332C4 36.5671 4.43287 37 4.9668 37H36.0332C36.5671 37 37 36.5671 37 36.0332V14.0547C37 13.7083 36.8147 13.3884 36.5143 13.2161ZM18.8242 30.2002C18.8242 30.7341 18.3914 31.167 17.8574 31.167H13.9902C13.4563 31.167 13.0234 30.7341 13.0234 30.2002V26.333C13.0234 25.7991 13.4563 25.3662 13.9902 25.3662H17.8574C18.3914 25.3662 18.8242 25.7991 18.8242 26.333V30.2002ZM29.8457 30.2002C29.8457 30.7341 29.4128 31.167 28.8789 31.167H25.0117C24.4778 31.167 24.0449 30.7341 24.0449 30.2002V26.333C24.0449 25.7991 24.4778 25.3662 25.0117 25.3662H28.8789C29.4128 25.3662 29.8457 25.7991 29.8457 26.333V30.2002Z" fill="#9B9B9B"/>
</g>
<defs>
<clipPath id="clip0_2863_58090">
<rect width="33" height="33" fill="white" transform="translate(4 4)"/>
</clipPath>
</defs>
</svg>
