<svg width="60" height="60" viewBox="0 0 60 60" fill="none" xmlns="http://www.w3.org/2000/svg">
<rect x="0.5" y="0.5" width="59" height="59" rx="7.5" stroke="#D9D9D9"/>
<path d="M46.6193 40.5487C46.6193 41.1487 46.4859 41.7654 46.2026 42.3654C45.9193 42.9654 45.5526 43.532 45.0693 44.0654C44.2526 44.9654 43.3526 45.6154 42.3359 46.032C41.3359 46.4487 40.2526 46.6654 39.0859 46.6654C37.3859 46.6654 35.5693 46.2654 33.6526 45.4487C31.7359 44.632 29.8193 43.532 27.9193 42.1487C26.0026 40.7487 24.1859 39.1987 22.4526 37.482C20.7359 35.7487 19.1859 33.932 17.8026 32.032C16.4359 30.132 15.3359 28.232 14.5359 26.3487C13.7359 24.4487 13.3359 22.632 13.3359 20.8987C13.3359 19.7654 13.5359 18.682 13.9359 17.682C14.3359 16.6654 14.9693 15.732 15.8526 14.8987C16.9193 13.8487 18.0859 13.332 19.3193 13.332C19.7859 13.332 20.2526 13.432 20.6693 13.632C21.1026 13.832 21.4859 14.132 21.7859 14.5654L25.6526 20.0154C25.9526 20.432 26.1693 20.8154 26.3193 21.182C26.4693 21.532 26.5526 21.882 26.5526 22.1987C26.5526 22.5987 26.4359 22.9987 26.2026 23.382C25.9859 23.7654 25.6693 24.1654 25.2693 24.5654L24.0026 25.882C23.8193 26.0654 23.7359 26.282 23.7359 26.5487C23.7359 26.682 23.7526 26.7987 23.7859 26.932C23.8359 27.0654 23.8859 27.1654 23.9193 27.2654C24.2193 27.8154 24.7359 28.532 25.4693 29.3987C26.2193 30.2654 27.0193 31.1487 27.8859 32.032C28.7859 32.9154 29.6526 33.732 30.5359 34.482C31.4026 35.2154 32.1193 35.7154 32.6859 36.0154C32.7693 36.0487 32.8693 36.0987 32.9859 36.1487C33.1193 36.1987 33.2526 36.2154 33.4026 36.2154C33.6859 36.2154 33.9026 36.1154 34.0859 35.932L35.3526 34.682C35.7693 34.2654 36.1693 33.9487 36.5526 33.7487C36.9359 33.5154 37.3193 33.3987 37.7359 33.3987C38.0526 33.3987 38.3859 33.4654 38.7526 33.6154C39.1193 33.7654 39.5026 33.982 39.9193 34.2654L45.4359 38.182C45.8693 38.482 46.1693 38.832 46.3526 39.2487C46.5193 39.6654 46.6193 40.082 46.6193 40.5487Z" fill="#F58436"/>
</svg>
