<svg width="48" height="48" viewBox="0 0 48 48" fill="none" xmlns="http://www.w3.org/2000/svg">
<path d="M40.2 18.4428C36.58 18.4428 35.1 15.8828 36.9 12.7428C37.94 10.9228 37.32 8.6028 35.5 7.5628L32.04 5.5828C30.46 4.6428 28.42 5.2028 27.48 6.7828L27.26 7.1628C25.46 10.3028 22.5 10.3028 20.68 7.1628L20.46 6.7828C19.56 5.2028 17.52 4.6428 15.94 5.5828L12.48 7.5628C10.66 8.6028 10.04 10.9428 11.08 12.7628C12.9 15.8828 11.42 18.4428 7.8 18.4428C5.72 18.4428 4 20.1428 4 22.2428V25.7628C4 27.8428 5.7 29.5628 7.8 29.5628C11.42 29.5628 12.9 32.1228 11.08 35.2628C10.04 37.0828 10.66 39.4028 12.48 40.4428L15.94 42.4228C17.52 43.3628 19.56 42.8028 20.5 41.2228L20.72 40.8428C22.52 37.7028 25.48 37.7028 27.3 40.8428L27.52 41.2228C28.46 42.8028 30.5 43.3628 32.08 42.4228L35.54 40.4428C37.36 39.4028 37.98 37.0628 36.94 35.2628C35.12 32.1228 36.6 29.5628 40.22 29.5628C42.3 29.5628 44.02 27.8628 44.02 25.7628V22.2428C44 20.1628 42.3 18.4428 40.2 18.4428ZM24 30.5028C20.42 30.5028 17.5 27.5828 17.5 24.0028C17.5 20.4228 20.42 17.5028 24 17.5028C27.58 17.5028 30.5 20.4228 30.5 24.0028C30.5 27.5828 27.58 30.5028 24 30.5028Z" fill="#03B0EF"/>
</svg>
