<svg width="48" height="48" viewBox="0 0 48 48" fill="none" xmlns="http://www.w3.org/2000/svg">
<path d="M35.12 4H12.82C7.96 4 4 7.96 4 12.82V25.82V26.22C4 31.1 7.96 35.04 12.82 35.04H20.5C21.6 35.04 22.5 35.94 22.5 37.04V38.98C22.5 40.08 21.6 40.98 20.5 40.98H15.66C14.84 40.98 14.16 41.66 14.16 42.48C14.16 43.3 14.82 44 15.66 44H32.36C33.18 44 33.86 43.32 33.86 42.5C33.86 41.68 33.18 41 32.36 41H27.52C26.42 41 25.52 40.1 25.52 39V37.06C25.52 35.96 26.42 35.06 27.52 35.06H35.14C40.02 35.06 43.96 31.1 43.96 26.24V25.84V12.84C43.94 7.96 39.98 4 35.12 4Z" fill="#03B0EF"/>
</svg>
