<svg width="48" height="48" viewBox="0 0 48 48" fill="none" xmlns="http://www.w3.org/2000/svg">
<path d="M10.6602 38.8425C10.4402 38.8425 10.2002 38.7825 10.0002 38.6825L5.56023 36.4625C5.06023 36.2025 4.74023 35.6825 4.74023 35.1225V29.5625C4.74023 28.7425 5.42023 28.0625 6.24023 28.0625C7.06023 28.0625 7.74023 28.7425 7.74023 29.5625V34.1825L11.3402 36.0025C12.0802 36.3625 12.3802 37.2625 12.0002 38.0025C11.7402 38.5225 11.2202 38.8425 10.6602 38.8425Z" fill="#03B0EF"/>
<path d="M23.9999 45.4975C23.8799 45.4975 23.7599 45.4775 23.6599 45.4575C23.5399 45.4375 23.4199 45.3775 23.2999 45.3175L18.8799 43.1175C18.1399 42.7375 17.8399 41.8375 18.1999 41.0975C18.5799 40.3575 19.4799 40.0575 20.2199 40.4175L22.4999 41.5575V38.4375C22.4999 37.6175 23.1799 36.9375 23.9999 36.9375C24.8199 36.9375 25.4999 37.6175 25.4999 38.4375V41.5575L27.7799 40.4175C28.5199 40.0575 29.4199 40.3575 29.7999 41.0975C30.1799 41.8375 29.8799 42.7375 29.1199 43.1175L24.6999 45.3175C24.5799 45.3775 24.4599 45.4175 24.3399 45.4575C24.2199 45.4775 24.1199 45.4975 23.9999 45.4975Z" fill="#03B0EF"/>
<path d="M37.3404 38.8381C36.8004 38.8381 36.2604 38.5381 36.0004 38.0181C35.6204 37.2781 35.9204 36.3781 36.6804 35.9981L40.3004 34.1981V29.5781C40.3004 28.7581 40.9804 28.0781 41.8004 28.0781C42.6204 28.0781 43.3004 28.7581 43.3004 29.5781V35.1381C43.3004 35.6981 42.9804 36.2181 42.4804 36.4781L38.0004 38.6781C37.7804 38.7781 37.5604 38.8381 37.3404 38.8381Z" fill="#03B0EF"/>
<path d="M23.9999 28.8381C23.1799 28.8381 22.4999 28.1581 22.4999 27.3381V22.7181L18.8799 20.9181C18.1399 20.5381 17.8399 19.6381 18.1999 18.8981C18.5799 18.1581 19.4799 17.8581 20.2199 18.2181L23.9999 20.0981L27.7799 18.2181C28.5199 17.8581 29.4199 18.1381 29.7999 18.8981C30.1799 19.6381 29.8799 20.5381 29.1199 20.9181L25.4999 22.7181V27.3381C25.4999 28.1581 24.8199 28.8381 23.9999 28.8381Z" fill="#03B0EF"/>
<path d="M6.21973 19.9361C5.39973 19.9361 4.71973 19.2561 4.71973 18.4361V12.9161V12.8961C4.71973 12.7761 4.73973 12.6561 4.75973 12.5561C4.79973 12.3761 4.85973 12.2361 4.93973 12.0961C4.99973 11.9961 5.07973 11.9161 5.15973 11.8361C5.23973 11.7561 5.33973 11.6761 5.43973 11.6161C5.47973 11.5961 5.53973 11.5561 5.57973 11.5361L9.99973 9.31613C10.7397 8.95613 11.6397 9.25613 11.9997 9.99613C12.3797 10.7361 12.0797 11.6361 11.3397 11.9961L9.57973 12.8761L11.3397 13.7561C12.0797 14.1361 12.3797 15.0361 11.9997 15.7761C11.6397 16.5161 10.7397 16.8161 9.99973 16.4561L7.71973 15.3161V18.4361C7.71973 19.2761 7.05973 19.9361 6.21973 19.9361Z" fill="#03B0EF"/>
<path d="M28.4396 7.72109C28.2196 7.72109 27.9796 7.66109 27.7796 7.56109L23.9996 5.68109L20.2196 7.56109C19.4796 7.94109 18.5796 7.64109 18.2196 6.90109C17.8396 6.16109 18.1396 5.26109 18.8796 4.88109L23.3196 2.66109C23.7396 2.44109 24.2396 2.44109 24.6596 2.66109L29.0996 4.88109C29.8396 5.26109 30.1396 6.16109 29.7796 6.90109C29.5196 7.42109 28.9996 7.72109 28.4396 7.72109Z" fill="#03B0EF"/>
<path d="M41.7799 19.9361C40.9599 19.9361 40.2799 19.2561 40.2799 18.4361V15.3161L37.9999 16.4561C37.2599 16.8161 36.3599 16.5161 35.9999 15.7761C35.6199 15.0361 35.9199 14.1361 36.6799 13.7561L38.4399 12.8761L36.6599 11.9961C35.9199 11.6361 35.6199 10.7361 35.9999 9.99613C36.3799 9.25613 37.2599 8.95613 37.9999 9.31613L42.4199 11.5161C42.4599 11.5361 42.5199 11.5561 42.5599 11.5961C42.6799 11.6561 42.7799 11.7561 42.8799 11.8561C42.9399 11.9361 42.9999 12.0161 43.0599 12.0961C43.1399 12.2361 43.1999 12.3761 43.2399 12.5361C43.2599 12.6561 43.2799 12.7761 43.2799 12.8761V12.8961V18.4161C43.2799 19.2761 42.5999 19.9361 41.7799 19.9361Z" fill="#03B0EF"/>
</svg>
