<svg width="40" height="40" viewBox="0 0 40 40" fill="none" xmlns="http://www.w3.org/2000/svg">
<path d="M36.6663 4.58203H3.33301C2.64967 4.58203 2.08301 4.01536 2.08301 3.33203C2.08301 2.6487 2.64967 2.08203 3.33301 2.08203H36.6663C37.3497 2.08203 37.9163 2.6487 37.9163 3.33203C37.9163 4.01536 37.3497 4.58203 36.6663 4.58203Z" fill="#9B9B9B"/>
<path d="M27.7838 37.232C27.5671 37.6654 27.1171 37.9154 26.6671 37.9154C26.4838 37.9154 26.2838 37.8654 26.1171 37.782L20.0004 34.732L13.8838 37.782C13.7171 37.8654 13.5171 37.9154 13.3338 37.9154C12.8838 37.9154 12.4338 37.6654 12.2171 37.232C11.9004 36.5987 12.1504 35.8487 12.7838 35.5487L18.7504 32.5654V28.332H21.2504V32.5654L27.2171 35.5487C27.8504 35.8487 28.1004 36.5987 27.7838 37.232Z" fill="#9B9B9B"/>
<path d="M5 3.33203V23.4987C5 26.6654 6.66667 28.332 9.83333 28.332H30.1667C33.3333 28.332 35 26.6654 35 23.4987V3.33203H5ZM28.3 14.2987L23.05 18.682C22.5667 19.082 21.95 19.2487 21.3667 19.1487C20.7667 19.0487 20.25 18.682 19.9333 18.1487L18.1833 15.232L13.3 19.2987C13.0667 19.4987 12.7833 19.582 12.5 19.582C12.15 19.582 11.7833 19.432 11.5333 19.132C11.0833 18.5987 11.1667 17.8154 11.7 17.3654L16.95 12.982C17.4333 12.582 18.05 12.4154 18.6333 12.5154C19.2333 12.6154 19.75 12.982 20.0667 13.5154L21.8167 16.432L26.7 12.3654C27.2333 11.9154 28.0167 11.9987 28.4667 12.532C28.9 13.0654 28.8333 13.8487 28.3 14.2987Z" fill="#9B9B9B"/>
</svg>
