<svg width="24" height="24" viewBox="0 0 24 24" fill="none" xmlns="http://www.w3.org/2000/svg">
<rect y="-0.000183105" width="24" height="24" rx="4" fill="#4E4E4E"/>
<path d="M11.1883 12.4169C11.0062 12.1759 10.7971 11.9916 10.563 11.8665C10.7703 11.7344 10.9476 11.5708 11.0946 11.3777C11.3424 11.0512 11.4684 10.6411 11.4684 10.1586C11.4684 9.7567 11.3675 9.38746 11.168 9.06036C10.9691 8.73452 10.6735 8.47222 10.2895 8.28162C9.9126 8.0948 9.45928 7.99982 8.94147 7.99982H6V15.9998H9.07645C9.58053 15.9998 10.0303 15.9029 10.4137 15.713C10.8043 15.5192 11.1089 15.2481 11.3179 14.9078C11.5276 14.5663 11.6339 14.1781 11.6339 13.7542C11.6339 13.2579 11.484 12.8075 11.1877 12.4156L11.1883 12.4169ZM9.62593 10.9594C9.44377 11.1148 9.17917 11.1934 8.83814 11.1934H7.56601V9.42079H8.83814C9.17738 9.42079 9.44138 9.50257 9.62294 9.66297C9.79674 9.81708 9.88154 10.0297 9.88154 10.3121C9.88154 10.5946 9.79794 10.8122 9.62533 10.9594H9.62593ZM7.56601 12.6125H8.93192C9.28967 12.6125 9.56441 12.7037 9.77285 12.8918C9.97233 13.0717 10.0691 13.3113 10.0691 13.6246C10.0691 13.9379 9.97889 14.1586 9.79434 14.3235C9.60263 14.4952 9.3267 14.582 8.97372 14.582H7.56661V12.6125H7.56601Z" fill="white"/>
<path d="M17.6437 11.08C17.4066 10.629 17.0715 10.2736 16.6463 10.0245C16.2216 9.77536 15.7313 9.64893 15.1896 9.64893C14.6479 9.64893 14.1211 9.77913 13.6863 10.0351C13.2509 10.2918 12.9087 10.6623 12.668 11.1347C12.4279 11.6071 12.3066 12.1619 12.3066 12.7834C12.3066 13.4049 12.4321 13.9597 12.6787 14.4321C12.926 14.9051 13.2718 15.2769 13.7066 15.5366C14.1414 15.7971 14.6401 15.9285 15.1896 15.9285C15.8639 15.9285 16.4372 15.748 16.8935 15.3926C17.3492 15.0366 17.6688 14.5742 17.8432 14.0169L17.8557 13.9773H16.5215L16.5137 13.9943C16.2569 14.5415 15.8119 14.8189 15.1902 14.8189C14.7566 14.8189 14.3863 14.6742 14.0882 14.3893C13.7974 14.1113 13.6307 13.7395 13.5913 13.2828H17.9543L17.9578 13.257C17.9859 13.0734 17.9997 12.8658 17.9997 12.64C17.9997 12.0543 17.8796 11.5291 17.6431 11.0787L17.6437 11.08ZM14.1085 11.1611C14.3922 10.8944 14.7386 10.7592 15.1376 10.7592C15.5778 10.7592 15.9523 10.8963 16.2503 11.1674C16.54 11.431 16.6935 11.7845 16.7066 12.2185H13.6033C13.6618 11.7776 13.8314 11.4222 14.1085 11.1617V11.1611Z" fill="white"/>
<path d="M16.6064 8.18561H13.7002V8.91088H16.6064V8.18561Z" fill="white"/>
</svg>
