<svg width="40" height="40" viewBox="0 0 40 40" fill="none" xmlns="http://www.w3.org/2000/svg">
<path d="M8.88328 32.3661C8.69995 32.3661 8.49995 32.3161 8.33328 32.2328L4.63328 30.3828C4.21662 30.1661 3.94995 29.7328 3.94995 29.2661V24.6328C3.94995 23.9495 4.51662 23.3828 5.19995 23.3828C5.88328 23.3828 6.44995 23.9495 6.44995 24.6328V28.4828L9.44995 29.9995C10.0666 30.2995 10.3166 31.0495 9.99995 31.6661C9.78329 32.0995 9.34995 32.3661 8.88328 32.3661Z" fill="#9B9B9B"/>
<path d="M20.0001 37.9185C19.9001 37.9185 19.8001 37.9018 19.7168 37.8852C19.6168 37.8685 19.5168 37.8185 19.4168 37.7685L15.7334 35.9352C15.1168 35.6185 14.8668 34.8685 15.1668 34.2518C15.4834 33.6352 16.2334 33.3852 16.8501 33.6852L18.7501 34.6352V32.0352C18.7501 31.3518 19.3168 30.7852 20.0001 30.7852C20.6834 30.7852 21.2501 31.3518 21.2501 32.0352V34.6352L23.1501 33.6852C23.7668 33.3852 24.5168 33.6352 24.8334 34.2518C25.1501 34.8685 24.9001 35.6185 24.2668 35.9352L20.5834 37.7685C20.4834 37.8185 20.3834 37.8518 20.2834 37.8852C20.1834 37.9018 20.1001 37.9185 20.0001 37.9185Z" fill="#9B9B9B"/>
<path d="M31.1167 32.3651C30.6667 32.3651 30.2167 32.1151 30.0001 31.6818C29.6834 31.0651 29.9334 30.3151 30.5667 29.9984L33.5834 28.4984V24.6484C33.5834 23.9651 34.1501 23.3984 34.8334 23.3984C35.5167 23.3984 36.0834 23.9651 36.0834 24.6484V29.2818C36.0834 29.7484 35.8167 30.1818 35.4001 30.3984L31.6667 32.2318C31.4834 32.3151 31.3001 32.3651 31.1167 32.3651Z" fill="#9B9B9B"/>
<path d="M20.0001 24.0344C19.3168 24.0344 18.7501 23.4677 18.7501 22.7844V18.9344L15.7334 17.4344C15.1168 17.1177 14.8668 16.3677 15.1668 15.7511C15.4834 15.1344 16.2334 14.8844 16.8501 15.1844L20.0001 16.7511L23.1501 15.1844C23.7668 14.8844 24.5168 15.1177 24.8334 15.7511C25.1501 16.3677 24.9001 17.1177 24.2668 17.4344L21.2501 18.9344V22.7844C21.2501 23.4677 20.6834 24.0344 20.0001 24.0344Z" fill="#9B9B9B"/>
<path d="M5.18335 16.6174C4.50002 16.6174 3.93335 16.0507 3.93335 15.3674V10.7674V10.7507C3.93335 10.6507 3.95002 10.5507 3.96668 10.4674C4.00002 10.3174 4.05002 10.2007 4.11668 10.084C4.16668 10.0007 4.23335 9.93402 4.30002 9.86735C4.36668 9.80068 4.45002 9.73402 4.53335 9.68402C4.56668 9.66735 4.61668 9.63402 4.65002 9.61735L8.33335 7.76735C8.95002 7.46735 9.70002 7.71735 10 8.33402C10.3167 8.95068 10.0667 9.70068 9.45002 10.0007L7.98335 10.734L9.45002 11.4674C10.0667 11.784 10.3167 12.534 10 13.1507C9.70002 13.7674 8.95002 14.0173 8.33335 13.7174L6.43335 12.7674V15.3674C6.43335 16.0674 5.88335 16.6174 5.18335 16.6174Z" fill="#9B9B9B"/>
<path d="M23.7 6.43229C23.5167 6.43229 23.3167 6.38229 23.15 6.29896L20 4.73229L16.85 6.29896C16.2333 6.61563 15.4833 6.36563 15.1833 5.74896C14.8667 5.13229 15.1167 4.38229 15.7333 4.06563L19.4333 2.21563C19.7833 2.03229 20.2 2.03229 20.55 2.21563L24.25 4.06563C24.8667 4.38229 25.1167 5.13229 24.8167 5.74896C24.6 6.18229 24.1667 6.43229 23.7 6.43229Z" fill="#9B9B9B"/>
<path d="M34.8167 16.6174C34.1333 16.6174 33.5667 16.0507 33.5667 15.3674V12.7674L31.6667 13.7174C31.05 14.0173 30.3 13.7674 30 13.1507C29.6833 12.534 29.9333 11.784 30.5667 11.4674L32.0333 10.734L30.55 10.0007C29.9333 9.70068 29.6833 8.95068 30 8.33402C30.3167 7.71735 31.05 7.46735 31.6667 7.76735L35.35 9.60068C35.3833 9.61735 35.4333 9.63402 35.4667 9.66735C35.5667 9.71735 35.65 9.80068 35.7333 9.88402C35.7833 9.95068 35.8333 10.0174 35.8833 10.084C35.95 10.2007 36 10.3174 36.0333 10.4507C36.05 10.5507 36.0667 10.6507 36.0667 10.734V10.7507V15.3507C36.0667 16.0674 35.5 16.6174 34.8167 16.6174Z" fill="#9B9B9B"/>
</svg>
