<svg width="40" height="40" viewBox="0 0 40 40" fill="none" xmlns="http://www.w3.org/2000/svg">
<path d="M30 23.3333C30 29.7767 25.5228 35 20 35C14.4772 35 10 29.7767 10 23.3333M30 23.3333C30 16.89 25.5228 11.6667 20 11.6667M30 23.3333H35M10 23.3333C10 16.89 14.4772 11.6667 20 11.6667M10 23.3333H5M20 11.6667V24.0767M26.4566 13.3333C26.5937 12.8006 26.6667 12.2422 26.6667 11.6667C26.6667 7.98477 23.6819 5 20 5C16.3181 5 13.3333 7.98477 13.3333 11.6667C13.3333 12.2422 13.4063 12.8006 13.5434 13.3333M30 16.6667L33.3333 13.3333M30 30L33.3333 33.3333M10 16.6667L6.66667 13.3333M10 30L6.66667 33.3333M20 24.0767C20 24.6809 20.1642 25.2737 20.475 25.7917L25 33.3333M20 24.0767C20 24.6809 19.8358 25.2737 19.525 25.7917L15 33.3333" stroke="white" stroke-width="2" stroke-linecap="round"/>
</svg>
