<svg width="40" height="40" viewBox="0 0 40 40" fill="none" xmlns="http://www.w3.org/2000/svg">
<path d="M10.1535 8.69534C10.8666 8.33203 11.8 8.33203 13.6668 8.33203H14.2002C14.478 8.33203 14.6169 8.33203 14.7149 8.28784C14.8112 8.24444 14.8689 8.19523 14.927 8.10705C14.9861 8.01726 15.0118 7.85656 15.0633 7.53517L15.0633 7.53516C15.4449 5.15249 17.5099 3.33203 20.0002 3.33203C22.4904 3.33203 24.5554 5.15249 24.937 7.53516C24.9885 7.85656 25.0142 8.01726 25.0734 8.10705C25.1314 8.19523 25.1891 8.24444 25.2854 8.28784C25.3834 8.33203 25.5223 8.33203 25.8002 8.33203H26.3335C28.2003 8.33203 29.1338 8.33203 29.8468 8.69534C30.474 9.01492 30.9839 9.52486 31.3035 10.1521C31.6668 10.8651 31.6668 11.7985 31.6668 13.6654V14.1987C31.6668 14.4765 31.6668 14.6154 31.711 14.7135C31.7544 14.8097 31.8036 14.8674 31.8918 14.9255C31.9816 14.9846 32.1423 15.0104 32.4637 15.0619C34.8464 15.4435 36.6668 17.5085 36.6668 19.9987C36.6668 22.4889 34.8464 24.5539 32.4637 24.9355C32.1423 24.987 31.9816 25.0128 31.8918 25.0719C31.8036 25.13 31.7544 25.1877 31.711 25.2839C31.6668 25.382 31.6668 25.5209 31.6668 25.7987V26.332C31.6668 28.1989 31.6668 29.1323 31.3035 29.8453C30.9839 30.4725 30.474 30.9825 29.8468 31.3021C29.1338 31.6654 28.2003 31.6654 26.3335 31.6654H25.8002C25.5223 31.6654 25.3834 31.6654 25.2854 31.6212C25.1891 31.5778 25.1314 31.5286 25.0734 31.4404C25.0142 31.3506 24.9885 31.1899 24.937 30.8685C24.5554 28.4858 22.4904 26.6654 20.0002 26.6654C17.5099 26.6654 15.4449 28.4858 15.0633 30.8685C15.0118 31.1899 14.9861 31.3506 14.927 31.4404C14.8689 31.5286 14.8112 31.5778 14.7149 31.6212C14.6169 31.6654 14.478 31.6654 14.2002 31.6654H13.6668C11.8 31.6654 10.8666 31.6654 10.1535 31.3021C9.52632 30.9825 9.01639 30.4725 8.69681 29.8453C8.3335 29.1323 8.3335 28.1989 8.3335 26.332V25.7987C8.3335 25.5209 8.3335 25.382 8.37769 25.2839C8.42109 25.1877 8.4703 25.13 8.55848 25.0719C8.64827 25.0128 8.80897 24.987 9.13037 24.9355C11.513 24.5539 13.3335 22.4889 13.3335 19.9987C13.3335 17.5085 11.513 15.4435 9.13037 15.0619L9.13035 15.0618C8.80896 15.0104 8.64827 14.9846 8.55848 14.9255C8.4703 14.8674 8.42109 14.8097 8.37769 14.7135C8.3335 14.6154 8.3335 14.4765 8.3335 14.1987V13.6654C8.3335 11.7985 8.3335 10.8651 8.69681 10.1521C9.01639 9.52486 9.52632 9.01492 10.1535 8.69534Z" fill="#9B9B9B"/>
</svg>
