<svg width="38" height="40" viewBox="0 0 38 40" fill="none" xmlns="http://www.w3.org/2000/svg">
<path d="M34.0201 7.7L22.1401 0.84C20.2001 -0.28 17.8001 -0.28 15.8401 0.84L3.98009 7.7C2.04009 8.82 0.840088 10.9 0.840088 13.16V26.84C0.840088 29.08 2.04009 31.16 3.98009 32.3L15.8601 39.16C17.8001 40.28 20.2001 40.28 22.1601 39.16L34.0401 32.3C35.9801 31.18 37.1801 29.1 37.1801 26.84V13.16C37.1601 10.9 35.9601 8.84 34.0201 7.7ZM17.5001 11.5C17.5001 10.68 18.1801 10 19.0001 10C19.8201 10 20.5001 10.68 20.5001 11.5V22C20.5001 22.82 19.8201 23.5 19.0001 23.5C18.1801 23.5 17.5001 22.82 17.5001 22V11.5ZM20.8401 29.26C20.7401 29.5 20.6001 29.72 20.4201 29.92C20.0401 30.3 19.5401 30.5 19.0001 30.5C18.7401 30.5 18.4801 30.44 18.2401 30.34C17.9801 30.24 17.7801 30.1 17.5801 29.92C17.4001 29.72 17.2601 29.5 17.1401 29.26C17.0401 29.02 17.0001 28.76 17.0001 28.5C17.0001 27.98 17.2001 27.46 17.5801 27.08C17.7801 26.9 17.9801 26.76 18.2401 26.66C18.9801 26.34 19.8601 26.52 20.4201 27.08C20.6001 27.28 20.7401 27.48 20.8401 27.74C20.9401 27.98 21.0001 28.24 21.0001 28.5C21.0001 28.76 20.9401 29.02 20.8401 29.26Z" fill="#03B0EF"/>
</svg>
