<svg width="48" height="48" viewBox="0 0 48 48" fill="none" xmlns="http://www.w3.org/2000/svg">
<path d="M37.0003 8.22063L27.0203 4.48063C25.3603 3.86062 22.6403 3.86062 20.9803 4.48063L11.0003 8.22063C8.70031 9.08063 6.82031 11.8006 6.82031 14.2406V29.1006C6.82031 31.4606 8.38031 34.5606 10.2803 35.9806L18.8803 42.4006C21.7003 44.5206 26.3403 44.5206 29.1603 42.4006L37.7603 35.9806C39.6603 34.5606 41.2203 31.4606 41.2203 29.1006V14.2406C41.1803 11.8006 39.3003 9.08063 37.0003 8.22063ZM23.8603 14.0606C26.2203 14.0606 28.1403 15.9806 28.1403 18.3406C28.1403 20.6606 26.3203 22.5206 24.0203 22.6006H23.9803H23.9403C23.9003 22.6006 23.8603 22.6006 23.8203 22.6006C21.4203 22.5206 19.6203 20.6606 19.6203 18.3406C19.6003 15.9806 21.5203 14.0606 23.8603 14.0606ZM28.3803 32.7206C27.1603 33.5206 25.5803 33.9406 24.0003 33.9406C22.4203 33.9406 20.8203 33.5406 19.6203 32.7206C18.4803 31.9606 17.8603 30.9206 17.8403 29.7806C17.8403 28.6606 18.4803 27.5806 19.6203 26.8206C22.0403 25.2206 25.9803 25.2206 28.4003 26.8206C29.5403 27.5806 30.1803 28.6206 30.1803 29.7606C30.1603 30.8806 29.5203 31.9606 28.3803 32.7206Z" fill="#03B0EF"/>
</svg>
