<svg width="40" height="40" viewBox="0 0 40 40" fill="none" xmlns="http://www.w3.org/2000/svg">
<path d="M26.9833 3.33203H13.0166C6.94992 3.33203 3.33325 6.9487 3.33325 13.0154V26.9654C3.33325 33.0487 6.94992 36.6654 13.0166 36.6654H26.9666C33.0333 36.6654 36.6499 33.0487 36.6499 26.982V13.0154C36.6666 6.9487 33.0499 3.33203 26.9833 3.33203ZM31.2499 16.6654C31.2499 17.3487 30.6833 17.9154 29.9999 17.9154C29.3166 17.9154 28.7499 17.3487 28.7499 16.6654V13.0154L13.0166 28.7487H16.6666C17.3499 28.7487 17.9166 29.3154 17.9166 29.9987C17.9166 30.682 17.3499 31.2487 16.6666 31.2487H9.99992C9.83325 31.2487 9.66658 31.2154 9.51659 31.1487C9.21659 31.0154 8.96659 30.782 8.83325 30.4654C8.78325 30.3154 8.74992 30.1654 8.74992 29.9987V23.332C8.74992 22.6487 9.31659 22.082 9.99992 22.082C10.6833 22.082 11.2499 22.6487 11.2499 23.332V26.982L26.9833 11.2487H23.3333C22.6499 11.2487 22.0833 10.682 22.0833 9.9987C22.0833 9.31536 22.6499 8.7487 23.3333 8.7487H29.9999C30.1666 8.7487 30.3166 8.78203 30.4833 8.8487C30.7833 8.98203 31.0333 9.21536 31.1666 9.53203C31.2166 9.68203 31.2499 9.83203 31.2499 9.9987V16.6654Z" fill="#9B9B9B"/>
</svg>
