<svg width="40" height="40" viewBox="0 0 40 40" fill="none" xmlns="http://www.w3.org/2000/svg">
<path d="M32.5167 9.7487L22.6167 4.03203C21 3.0987 19 3.0987 17.3667 4.03203L7.48337 9.7487C5.8667 10.682 4.8667 12.4154 4.8667 14.2987V25.6987C4.8667 27.5654 5.8667 29.2987 7.48337 30.2487L17.3834 35.9654C19 36.8987 21 36.8987 22.6334 35.9654L32.5334 30.2487C34.15 29.3154 35.15 27.582 35.15 25.6987V14.2987C35.1334 12.4154 34.1334 10.6987 32.5167 9.7487ZM18.75 12.9154C18.75 12.232 19.3167 11.6654 20 11.6654C20.6834 11.6654 21.25 12.232 21.25 12.9154V21.6654C21.25 22.3487 20.6834 22.9154 20 22.9154C19.3167 22.9154 18.75 22.3487 18.75 21.6654V12.9154ZM21.5334 27.7154C21.45 27.9154 21.3334 28.0987 21.1834 28.2654C20.8667 28.582 20.45 28.7487 20 28.7487C19.7834 28.7487 19.5667 28.6987 19.3667 28.6154C19.15 28.532 18.9834 28.4154 18.8167 28.2654C18.6667 28.0987 18.55 27.9154 18.45 27.7154C18.3667 27.5154 18.3334 27.2987 18.3334 27.082C18.3334 26.6487 18.5 26.2154 18.8167 25.8987C18.9834 25.7487 19.15 25.632 19.3667 25.5487C19.9834 25.282 20.7167 25.432 21.1834 25.8987C21.3334 26.0654 21.45 26.232 21.5334 26.4487C21.6167 26.6487 21.6667 26.8654 21.6667 27.082C21.6667 27.2987 21.6167 27.5154 21.5334 27.7154Z" fill="#9B9B9B"/>
</svg>
