<svg width="40" height="40" viewBox="0 0 40 40" fill="none" xmlns="http://www.w3.org/2000/svg">
<path d="M29.2673 3.33594H10.684C6.63398 3.33594 3.33398 6.63594 3.33398 10.6859V21.5193V21.8526C3.33398 25.9193 6.63398 29.2026 10.684 29.2026H17.084C18.0007 29.2026 18.7507 29.9526 18.7507 30.8693V32.4859C18.7507 33.4026 18.0007 34.1526 17.084 34.1526H13.0507C12.3673 34.1526 11.8007 34.7193 11.8007 35.4026C11.8007 36.0859 12.3507 36.6693 13.0507 36.6693H26.9673C27.6507 36.6693 28.2173 36.1026 28.2173 35.4193C28.2173 34.7359 27.6507 34.1693 26.9673 34.1693H22.934C22.0173 34.1693 21.2673 33.4193 21.2673 32.5026V30.8859C21.2673 29.9693 22.0173 29.2193 22.934 29.2193H29.284C33.3506 29.2193 36.634 25.9193 36.634 21.8693V21.5359V10.7026C36.6173 6.63594 33.3173 3.33594 29.2673 3.33594Z" fill="#9B9B9B"/>
</svg>
