<svg width="24" height="24" viewBox="0 0 24 24" fill="none" xmlns="http://www.w3.org/2000/svg">
<rect y="-0.000183105" width="24" height="24" rx="4" fill="#4E4E4E"/>
<path fill-rule="evenodd" clip-rule="evenodd" d="M11.1823 13.8277C11.1716 13.8623 11.1614 13.8913 11.1532 13.9202C10.6788 15.6471 10.6263 16.0306 10.1386 16.8327C9.90598 17.2139 9.64429 17.5751 9.35454 17.9207C9.32189 17.9595 9.29128 18.0103 9.22598 17.9979C9.15457 17.9837 9.14896 17.924 9.14131 17.8709C9.06326 17.3461 9.02041 16.8199 9.03877 16.2899C9.06326 15.5997 9.15507 15.3627 10.1126 11.6215C10.1264 11.5646 10.1111 11.5172 10.0901 11.4655C9.86109 10.891 9.81569 10.3079 10.0157 9.71726C10.4493 8.44112 12.0057 8.34346 12.2781 9.39632C12.4459 10.0477 12.0021 10.8995 11.6613 12.1596C11.3792 13.1991 12.6959 13.9377 13.8212 13.1792C14.8588 12.48 15.2618 10.8028 15.1853 9.61438C15.0343 7.24462 12.2383 6.73264 10.4641 7.49586C8.43019 8.36953 7.96801 10.7123 8.88624 11.7827C9.00255 11.9187 9.2219 12.0022 9.18364 12.1401C9.12446 12.3544 9.07243 12.5705 9.00867 12.7839C8.96123 12.9427 8.68882 13 8.5164 12.9351C8.17768 12.808 7.89608 12.6075 7.66703 12.344C6.88704 11.4466 6.66412 9.67175 7.69509 8.16901C8.83727 6.50415 10.962 5.831 12.902 6.03532C15.219 6.2804 16.6835 7.75138 16.9575 9.42003C17.0825 10.1804 16.9927 12.0553 15.8439 13.3798C14.5226 14.9024 12.3811 15.0034 11.393 14.0685C11.317 13.997 11.2558 13.9131 11.1813 13.8273L11.1823 13.8277Z" fill="white"/>
</svg>
