<svg width="40" height="40" viewBox="0 0 40 40" fill="none" xmlns="http://www.w3.org/2000/svg">
<path d="M35 37.918H5C4.31667 37.918 3.75 37.3513 3.75 36.668C3.75 35.9846 4.31667 35.418 5 35.418H35C35.6833 35.418 36.25 35.9846 36.25 36.668C36.25 37.3513 35.6833 37.918 35 37.918Z" fill="#9B9B9B"/>
<path d="M9.33333 13.9648H6.66667C5.75 13.9648 5 14.7148 5 15.6315V29.9982C5 30.9148 5.75 31.6648 6.66667 31.6648H9.33333C10.25 31.6648 11 30.9148 11 29.9982V15.6315C11 14.6982 10.25 13.9648 9.33333 13.9648Z" fill="#9B9B9B"/>
<path d="M21.3333 8.64844H18.6667C17.75 8.64844 17 9.39844 17 10.3151V29.9984C17 30.9151 17.75 31.6651 18.6667 31.6651H21.3333C22.25 31.6651 23 30.9151 23 29.9984V10.3151C23 9.39844 22.25 8.64844 21.3333 8.64844Z" fill="#9B9B9B"/>
<path d="M33.3333 3.33203H30.6667C29.75 3.33203 29 4.08203 29 4.9987V29.9987C29 30.9154 29.75 31.6654 30.6667 31.6654H33.3333C34.25 31.6654 35 30.9154 35 29.9987V4.9987C35 4.08203 34.25 3.33203 33.3333 3.33203Z" fill="#9B9B9B"/>
</svg>
