<svg width="40" height="40" viewBox="0 0 40 40" fill="none" xmlns="http://www.w3.org/2000/svg">
<path d="M30.9001 6.94974L21.7334 3.51641C20.7834 3.16641 19.2334 3.16641 18.2834 3.51641L9.11675 6.94974C7.35008 7.61641 5.91675 9.68307 5.91675 11.5664V25.0664C5.91675 26.4164 6.80008 28.1997 7.88341 28.9997L17.0501 35.8497C18.6667 37.0664 21.3167 37.0664 22.9334 35.8497L32.1001 28.9997C33.1834 28.1831 34.0667 26.4164 34.0667 25.0664V11.5664C34.0834 9.68307 32.6501 7.61641 30.9001 6.94974ZM21.2501 21.4497V25.8331C21.2501 26.5164 20.6834 27.0831 20.0001 27.0831C19.3167 27.0831 18.7501 26.5164 18.7501 25.8331V21.4497C17.0667 20.9164 15.8334 19.3497 15.8334 17.4997C15.8334 15.1997 17.7001 13.3331 20.0001 13.3331C22.3001 13.3331 24.1667 15.1997 24.1667 17.4997C24.1667 19.3664 22.9334 20.9164 21.2501 21.4497Z" fill="#9B9B9B"/>
</svg>
