<svg width="48" height="48" viewBox="0 0 48 48" fill="none" xmlns="http://www.w3.org/2000/svg">
<path d="M42 45.5H6C5.18 45.5 4.5 44.82 4.5 44C4.5 43.18 5.18 42.5 6 42.5H42C42.82 42.5 43.5 43.18 43.5 44C43.5 44.82 42.82 45.5 42 45.5Z" fill="#03B0EF"/>
<path d="M11.2 16.7617H8C6.9 16.7617 6 17.6617 6 18.7617V36.0017C6 37.1017 6.9 38.0017 8 38.0017H11.2C12.3 38.0017 13.2 37.1017 13.2 36.0017V18.7617C13.2 17.6417 12.3 16.7617 11.2 16.7617Z" fill="#03B0EF"/>
<path d="M25.6004 10.3828H22.4004C21.3004 10.3828 20.4004 11.2828 20.4004 12.3828V36.0028C20.4004 37.1028 21.3004 38.0028 22.4004 38.0028H25.6004C26.7004 38.0028 27.6004 37.1028 27.6004 36.0028V12.3828C27.6004 11.2828 26.7004 10.3828 25.6004 10.3828Z" fill="#03B0EF"/>
<path d="M40.0008 4H36.8008C35.7008 4 34.8008 4.9 34.8008 6V36C34.8008 37.1 35.7008 38 36.8008 38H40.0008C41.1008 38 42.0008 37.1 42.0008 36V6C42.0008 4.9 41.1008 4 40.0008 4Z" fill="#03B0EF"/>
</svg>
