<svg width="42" height="42" viewBox="0 0 42 42" fill="none" xmlns="http://www.w3.org/2000/svg">
<path d="M35.653 26.9242C35.3719 31.3833 32.2342 34.3848 27.5692 34.5093L12.5745 34.9095C7.97618 35.0322 4.14456 31.3998 4.02183 26.8015L3.71056 15.139C3.58961 10.6072 6.23748 7.36877 10.4717 6.72224C10.9031 6.64403 11.3521 6.59871 11.8186 6.58625L26.8132 6.18605C27.2464 6.17448 27.6634 6.18003 28.065 6.236C32.0594 6.59622 34.8327 9.30653 35.2902 13.3291C35.3531 13.8109 34.9639 14.2214 34.4807 14.2343L31.8983 14.3033C30.2989 14.346 28.8325 15.002 27.7956 16.13C26.5623 17.3967 25.9754 19.1463 26.1716 20.8751C26.5191 23.9002 29.2484 26.2115 32.414 26.127L34.7964 26.0635C35.2796 26.0506 35.6901 26.4397 35.653 26.9242Z" fill="#9B9B9B"/>
<path d="M37.1416 18.3658L37.2332 21.798C37.2576 22.7143 36.5446 23.4836 35.6125 23.5418L32.347 23.629C30.5476 23.677 28.8631 22.4048 28.6651 20.6095C28.5371 19.5625 28.9107 18.5689 29.5922 17.8671C30.1918 17.2175 31.0317 16.8283 31.9647 16.8034L35.4301 16.7109C36.364 16.7193 37.1171 17.4495 37.1416 18.3658Z" fill="#9B9B9B"/>
</svg>
