<svg width="40" height="40" viewBox="0 0 40 40" fill="none" xmlns="http://www.w3.org/2000/svg">
<path d="M29.3335 8.84948L19.9168 3.78281C18.9168 3.24948 17.7335 3.24948 16.7335 3.78281L7.33346 8.84948C6.65013 9.23281 6.2168 9.96615 6.2168 10.7661C6.2168 11.5828 6.63346 12.3161 7.33346 12.6828L16.7501 17.7495C17.2501 18.0161 17.8001 18.1495 18.3335 18.1495C18.8668 18.1495 19.4335 18.0161 19.9168 17.7495L29.3335 12.6828C30.0168 12.3161 30.4501 11.5828 30.4501 10.7661C30.4501 9.96615 30.0168 9.23281 29.3335 8.84948Z" fill="#9B9B9B"/>
<path d="M15.2007 19.5163L6.45065 15.1497C5.76732 14.7997 5.00065 14.8497 4.35065 15.233C3.71732 15.633 3.33398 16.3163 3.33398 17.0663V25.333C3.33398 26.7663 4.13398 28.0497 5.41732 28.6997L14.1673 33.0663C14.4673 33.2163 14.8007 33.2997 15.134 33.2997C15.5173 33.2997 15.9173 33.183 16.2673 32.983C16.9007 32.583 17.284 31.8997 17.284 31.1497V22.883C17.2673 21.4497 16.4673 20.1663 15.2007 19.5163Z" fill="#9B9B9B"/>
<path d="M33.3337 17.0663V21.1663C32.5337 20.933 31.6837 20.833 30.8337 20.833C28.5671 20.833 26.3504 21.6163 24.6004 23.0163C22.2004 24.8997 20.8337 27.7497 20.8337 30.833C20.8337 31.6497 20.9337 32.4663 21.1504 33.2497C20.9004 33.2163 20.6504 33.1163 20.4171 32.9663C19.7837 32.583 19.4004 31.8997 19.4004 31.1497V22.883C19.4004 21.4497 20.2004 20.1663 21.4671 19.5163L30.2171 15.1497C30.9004 14.7997 31.6671 14.8497 32.3171 15.233C32.9504 15.633 33.3337 16.3163 33.3337 17.0663Z" fill="#9B9B9B"/>
<path d="M36.634 26.1172C35.2673 24.4339 33.184 23.3672 30.834 23.3672C29.0673 23.3672 27.434 23.9839 26.1507 25.0172C24.4173 26.3839 23.334 28.5005 23.334 30.8672C23.334 32.2672 23.734 33.6005 24.4173 34.7339C24.8673 35.4839 25.434 36.1339 26.1007 36.6672H26.1173C27.4007 37.7339 29.0507 38.3672 30.834 38.3672C32.734 38.3672 34.4506 37.6672 35.7673 36.5005C36.3506 36.0005 36.8507 35.4005 37.2507 34.7339C37.934 33.6005 38.334 32.2672 38.334 30.8672C38.334 29.0672 37.7007 27.4005 36.634 26.1172ZM34.6007 29.9339L30.6007 33.6339C30.3673 33.8505 30.0507 33.9672 29.7507 33.9672C29.434 33.9672 29.1173 33.8505 28.8673 33.6005L27.0173 31.7505C26.534 31.2672 26.534 30.4672 27.0173 29.9839C27.5006 29.5005 28.3007 29.5005 28.784 29.9839L29.784 30.9839L32.9007 28.1005C33.4007 27.6339 34.2006 27.6672 34.6673 28.1672C35.1506 28.6839 35.1173 29.4672 34.6007 29.9339Z" fill="#9B9B9B"/>
</svg>
