<svg width="48" height="48" viewBox="0 0 48 48" fill="none" xmlns="http://www.w3.org/2000/svg">
<path d="M40.7202 25.4592C39.9802 25.4592 39.3602 24.8992 39.2802 24.1592C38.8002 19.7592 36.4402 15.7992 32.8002 13.2792C32.1402 12.8192 31.9802 11.9192 32.4402 11.2592C32.9002 10.5992 33.8002 10.4392 34.4602 10.8992C38.8002 13.9192 41.6002 18.6392 42.1802 23.8592C42.2602 24.6592 41.6802 25.3792 40.8802 25.4592C40.8202 25.4592 40.7802 25.4592 40.7202 25.4592Z" fill="#03B0EF"/>
<path d="M7.4796 25.5584C7.4396 25.5584 7.3796 25.5584 7.3396 25.5584C6.5396 25.4784 5.9596 24.7584 6.0396 23.9584C6.5796 18.7384 9.3396 14.0184 13.6396 10.9784C14.2796 10.5184 15.1996 10.6784 15.6596 11.3184C16.1196 11.9784 15.9596 12.8784 15.3196 13.3384C11.7196 15.8984 9.3796 19.8584 8.9396 24.2385C8.8596 24.9985 8.2196 25.5584 7.4796 25.5584Z" fill="#03B0EF"/>
<path d="M31.9802 42.2007C29.5202 43.3807 26.8802 43.9807 24.1202 43.9807C21.2402 43.9807 18.5002 43.3407 15.9402 42.0407C15.2202 41.7007 14.9402 40.8207 15.3002 40.1007C15.6402 39.3807 16.5202 39.1007 17.2402 39.4407C18.5002 40.0807 19.8402 40.5207 21.2002 40.7807C23.0402 41.1407 24.9202 41.1607 26.7602 40.8407C28.1202 40.6007 29.4602 40.1807 30.7002 39.5807C31.4402 39.2407 32.3202 39.5207 32.6402 40.2607C33.0002 40.9807 32.7202 41.8607 31.9802 42.2007Z" fill="#03B0EF"/>
<path d="M24.1 4.01953C21 4.01953 18.46 6.53953 18.46 9.65953C18.46 12.7795 20.98 15.2995 24.1 15.2995C27.22 15.2995 29.74 12.7795 29.74 9.65953C29.74 6.53953 27.22 4.01953 24.1 4.01953Z" fill="#03B0EF"/>
<path d="M10.1 27.7383C6.99996 27.7383 4.45996 30.2583 4.45996 33.3783C4.45996 36.4983 6.97996 39.0183 10.1 39.0183C13.22 39.0183 15.74 36.4983 15.74 33.3783C15.74 30.2583 13.2 27.7383 10.1 27.7383Z" fill="#03B0EF"/>
<path d="M37.8998 27.7383C34.7998 27.7383 32.2598 30.2583 32.2598 33.3783C32.2598 36.4983 34.7798 39.0183 37.8998 39.0183C41.0198 39.0183 43.5398 36.4983 43.5398 33.3783C43.5398 30.2583 41.0198 27.7383 37.8998 27.7383Z" fill="#03B0EF"/>
</svg>
