<svg width="20" height="21" viewBox="0 0 20 21" fill="none" xmlns="http://www.w3.org/2000/svg">
<path d="M18.3083 15.7743C18.3083 16.0743 18.2417 16.3827 18.1 16.6827C17.9583 16.9827 17.775 17.266 17.5333 17.5327C17.125 17.9827 16.675 18.3077 16.1667 18.516C15.6667 18.7243 15.125 18.8327 14.5417 18.8327C13.6917 18.8327 12.7833 18.6327 11.825 18.2243C10.8667 17.816 9.90834 17.266 8.95834 16.5743C8.00001 15.8743 7.09167 15.0993 6.22501 14.241C5.36667 13.3743 4.59167 12.466 3.90001 11.516C3.21667 10.566 2.66667 9.61602 2.26667 8.67435C1.86667 7.72435 1.66667 6.81602 1.66667 5.94935C1.66667 5.38268 1.76667 4.84102 1.96667 4.34102C2.16667 3.83268 2.48334 3.36602 2.92501 2.94935C3.45834 2.42435 4.04167 2.16602 4.65834 2.16602C4.89167 2.16602 5.12501 2.21602 5.33334 2.31602C5.55001 2.41602 5.74167 2.56602 5.89167 2.78268L7.82501 5.50768C7.97501 5.71602 8.08334 5.90768 8.15834 6.09102C8.23334 6.26602 8.27501 6.44102 8.27501 6.59935C8.27501 6.79935 8.21667 6.99935 8.10001 7.19102C7.99167 7.38268 7.83334 7.58268 7.63334 7.78268L7.00001 8.44102C6.90834 8.53268 6.86667 8.64102 6.86667 8.77435C6.86667 8.84102 6.87501 8.89935 6.89167 8.96602C6.91667 9.03268 6.94167 9.08268 6.95834 9.13268C7.10834 9.40768 7.36667 9.76602 7.73334 10.1993C8.10834 10.6327 8.50834 11.0743 8.94167 11.516C9.39167 11.9577 9.82501 12.366 10.2667 12.741C10.7 13.1077 11.0583 13.3577 11.3417 13.5077C11.3833 13.5243 11.4333 13.5493 11.4917 13.5743C11.5583 13.5993 11.625 13.6077 11.7 13.6077C11.8417 13.6077 11.95 13.5577 12.0417 13.466L12.675 12.841C12.8833 12.6327 13.0833 12.4743 13.275 12.3743C13.4667 12.2577 13.6583 12.1993 13.8667 12.1993C14.025 12.1993 14.1917 12.2327 14.375 12.3077C14.5583 12.3827 14.75 12.491 14.9583 12.6327L17.7167 14.591C17.9333 14.741 18.0833 14.916 18.175 15.1243C18.2583 15.3327 18.3083 15.541 18.3083 15.7743Z" fill="white"/>
</svg>
