<svg width="40" height="40" viewBox="0 0 40 40" fill="none" xmlns="http://www.w3.org/2000/svg">
<path d="M36.6673 37.9193H8.33398C4.88398 37.9193 2.08398 35.1193 2.08398 31.6693V3.33594C2.08398 2.6526 2.65065 2.08594 3.33398 2.08594C4.01732 2.08594 4.58398 2.6526 4.58398 3.33594V31.6693C4.58398 33.7359 6.26732 35.4193 8.33398 35.4193H36.6673C37.3507 35.4193 37.9173 35.9859 37.9173 36.6693C37.9173 37.3526 37.3507 37.9193 36.6673 37.9193Z" fill="#9B9B9B"/>
<path d="M8.33369 29.5804C8.05035 29.5804 7.75035 29.4804 7.51702 29.2804C7.00035 28.8304 6.93369 28.0471 7.38369 27.5138L15.0337 18.5804C15.867 17.6138 17.067 17.0304 18.3337 16.9804C19.6004 16.9471 20.8504 17.4138 21.7504 18.3138L23.3337 19.8971C23.7504 20.3138 24.2837 20.5138 24.8837 20.5138C25.467 20.4971 26.0004 20.2304 26.3837 19.7804L34.0337 10.8471C34.4837 10.3304 35.267 10.2638 35.8004 10.7138C36.317 11.1638 36.3837 11.9471 35.9337 12.4804L28.2837 21.4138C27.4504 22.3804 26.2504 22.9638 24.9837 23.0138C23.7004 23.0471 22.467 22.5804 21.567 21.6804L20.0004 20.0971C19.5837 19.6804 19.0337 19.4638 18.4504 19.4804C17.867 19.4971 17.3337 19.7638 16.9504 20.2138L9.30035 29.1471C9.03369 29.4304 8.68369 29.5804 8.33369 29.5804Z" fill="#9B9B9B"/>
</svg>
