<svg width="40" height="40" viewBox="0 0 40 40" fill="none" xmlns="http://www.w3.org/2000/svg">
<path d="M14.4531 23.8844C14.4531 26.0344 16.1031 27.7677 18.1531 27.7677H22.3365C24.1198 27.7677 25.5698 26.251 25.5698 24.3844C25.5698 22.351 24.6865 21.6344 23.3698 21.1677L16.6531 18.8344C15.3365 18.3677 14.4531 17.651 14.4531 15.6177C14.4531 13.751 15.9031 12.2344 17.6865 12.2344H21.8698C23.9198 12.2344 25.5698 13.9677 25.5698 16.1177" stroke="white" stroke-width="2" stroke-linecap="round" stroke-linejoin="round"/>
<path d="M20 10V30" stroke="white" stroke-width="2" stroke-linecap="round" stroke-linejoin="round"/>
<path d="M20.0007 36.6693C29.2054 36.6693 36.6673 29.2073 36.6673 20.0026C36.6673 10.7979 29.2054 3.33594 20.0007 3.33594C10.7959 3.33594 3.33398 10.7979 3.33398 20.0026C3.33398 29.2073 10.7959 36.6693 20.0007 36.6693Z" stroke="white" stroke-width="2" stroke-linecap="round" stroke-linejoin="round"/>
</svg>
