<svg width="40" height="40" viewBox="0 0 40 40" fill="none" xmlns="http://www.w3.org/2000/svg">
<path d="M27.066 3.33594H12.9327C8.33268 3.33594 6.66602 5.0026 6.66602 9.68594V30.3193C6.66602 35.0026 8.33268 36.6693 12.9327 36.6693H27.0493C31.666 36.6693 33.3327 35.0026 33.3327 30.3193V9.68594C33.3327 5.0026 31.666 3.33594 27.066 3.33594ZM19.9993 32.1693C18.3993 32.1693 17.0827 30.8526 17.0827 29.2526C17.0827 27.6526 18.3993 26.3359 19.9993 26.3359C21.5993 26.3359 22.916 27.6526 22.916 29.2526C22.916 30.8526 21.5993 32.1693 19.9993 32.1693ZM23.3327 10.4193H16.666C15.9827 10.4193 15.416 9.8526 15.416 9.16927C15.416 8.48594 15.9827 7.91927 16.666 7.91927H23.3327C24.016 7.91927 24.5827 8.48594 24.5827 9.16927C24.5827 9.8526 24.016 10.4193 23.3327 10.4193Z" fill="#9B9B9B"/>
</svg>
