<svg width="48" height="48" viewBox="0 0 48 48" fill="none" xmlns="http://www.w3.org/2000/svg">
<path d="M37.0801 8.23969L26.0801 4.11969C24.9401 3.69969 23.0801 3.69969 21.9401 4.11969L10.9401 8.23969C8.8201 9.03969 7.1001 11.5197 7.1001 13.7797V29.9797C7.1001 31.5997 8.1601 33.7397 9.4601 34.6997L20.4601 42.9197C22.4001 44.3797 25.5801 44.3797 27.5201 42.9197L38.5201 34.6997C39.8201 33.7197 40.8801 31.5997 40.8801 29.9797V13.7797C40.9001 11.5197 39.1801 9.03969 37.0801 8.23969ZM30.9601 19.4397L22.3601 28.0397C22.0601 28.3397 21.6801 28.4797 21.3001 28.4797C20.9201 28.4797 20.5401 28.3397 20.2401 28.0397L17.0401 24.7997C16.4601 24.2197 16.4601 23.2597 17.0401 22.6797C17.6201 22.0997 18.5801 22.0997 19.1601 22.6797L21.3201 24.8397L28.8601 17.2997C29.4401 16.7197 30.4001 16.7197 30.9801 17.2997C31.5601 17.8797 31.5601 18.8597 30.9601 19.4397Z" fill="#03B0EF"/>
</svg>
