<svg width="48" height="48" viewBox="0 0 48 48" fill="none" xmlns="http://www.w3.org/2000/svg">
<path d="M39 26.5C41.4853 26.5 43.5 24.4853 43.5 22C43.5 19.5147 41.4853 17.5 39 17.5C36.5147 17.5 34.5 19.5147 34.5 22C34.5 24.4853 36.5147 26.5 39 26.5Z" fill="#03B0EF"/>
<path d="M39 10.5C41.4853 10.5 43.5 8.48528 43.5 6C43.5 3.51472 41.4853 1.5 39 1.5C36.5147 1.5 34.5 3.51472 34.5 6C34.5 8.48528 36.5147 10.5 39 10.5Z" fill="#03B0EF"/>
<path d="M39 42.5C41.4853 42.5 43.5 40.4853 43.5 38C43.5 35.5147 41.4853 33.5 39 33.5C36.5147 33.5 34.5 35.5147 34.5 38C34.5 40.4853 36.5147 42.5 39 42.5Z" fill="#03B0EF"/>
<path d="M7 26.5C9.48528 26.5 11.5 24.4853 11.5 22C11.5 19.5147 9.48528 17.5 7 17.5C4.51472 17.5 2.5 19.5147 2.5 22C2.5 24.4853 4.51472 26.5 7 26.5Z" fill="#03B0EF"/>
<path d="M37 23.5C37.82 23.5 38.5 22.82 38.5 22C38.5 21.18 37.82 20.5 37 20.5H22.5V12C22.5 8.84 23.84 7.5 27 7.5H37C37.82 7.5 38.5 6.82 38.5 6C38.5 5.18 37.82 4.5 37 4.5H27C22.16 4.5 19.5 7.16 19.5 12V20.5H9C8.18 20.5 7.5 21.18 7.5 22C7.5 22.82 8.18 23.5 9 23.5H19.5V32C19.5 36.84 22.16 39.5 27 39.5H37C37.82 39.5 38.5 38.82 38.5 38C38.5 37.18 37.82 36.5 37 36.5H27C23.84 36.5 22.5 35.16 22.5 32V23.5H37Z" fill="#03B0EF"/>
</svg>
