<svg width="60" height="60" viewBox="0 0 60 60" fill="none" xmlns="http://www.w3.org/2000/svg">
<rect x="0.5" y="0.5" width="59" height="59" rx="7.5" stroke="#D9D9D9"/>
<path d="M44.3659 24.0827C42.6159 16.3827 35.8992 12.916 29.9992 12.916C29.9992 12.916 29.9992 12.916 29.9825 12.916C24.0992 12.916 17.3658 16.366 15.6158 24.066C13.6658 32.666 18.9325 39.9493 23.6992 44.5327C25.4658 46.2327 27.7325 47.0827 29.9992 47.0827C32.2658 47.0827 34.5325 46.2327 36.2825 44.5327C41.0492 39.9493 46.3158 32.6827 44.3659 24.0827ZM29.9992 32.4327C27.0992 32.4327 24.7492 30.0827 24.7492 27.1827C24.7492 24.2827 27.0992 21.9327 29.9992 21.9327C32.8992 21.9327 35.2492 24.2827 35.2492 27.1827C35.2492 30.0827 32.8992 32.4327 29.9992 32.4327Z" fill="#F58436"/>
</svg>
