<svg width="48" height="48" viewBox="0 0 48 48" fill="none" xmlns="http://www.w3.org/2000/svg">
<path d="M32.4792 4.00391H15.5192C9.99921 4.00391 7.99921 6.00391 7.99921 11.6239V36.3839C7.99921 42.0039 9.99921 44.0039 15.5192 44.0039H32.4592C37.9992 44.0039 39.9992 42.0039 39.9992 36.3839V11.6239C39.9992 6.00391 37.9992 4.00391 32.4792 4.00391ZM23.9992 38.6039C22.0792 38.6039 20.4992 37.0239 20.4992 35.1039C20.4992 33.1839 22.0792 31.6039 23.9992 31.6039C25.9192 31.6039 27.4992 33.1839 27.4992 35.1039C27.4992 37.0239 25.9192 38.6039 23.9992 38.6039ZM27.9992 12.5039H19.9992C19.1792 12.5039 18.4992 11.8239 18.4992 11.0039C18.4992 10.1839 19.1792 9.50391 19.9992 9.50391H27.9992C28.8192 9.50391 29.4992 10.1839 29.4992 11.0039C29.4992 11.8239 28.8192 12.5039 27.9992 12.5039Z" fill="#03B0EF"/>
</svg>
