<svg width="48" height="48" viewBox="0 0 48 48" fill="none" xmlns="http://www.w3.org/2000/svg">
<path d="M43.52 31.84L30.72 8.8C29 5.7 26.62 4 24 4C21.38 4 19 5.7 17.28 8.8L4.47996 31.84C2.85996 34.78 2.67996 37.6 3.97996 39.82C5.27996 42.04 7.83996 43.26 11.2 43.26H36.8C40.16 43.26 42.72 42.04 44.02 39.82C45.32 37.6 45.14 34.76 43.52 31.84ZM22.5 18C22.5 17.18 23.18 16.5 24 16.5C24.82 16.5 25.5 17.18 25.5 18V28C25.5 28.82 24.82 29.5 24 29.5C23.18 29.5 22.5 28.82 22.5 28V18ZM25.42 35.42C25.32 35.5 25.22 35.58 25.12 35.66C25 35.74 24.88 35.8 24.76 35.84C24.64 35.9 24.52 35.94 24.38 35.96C24.26 35.98 24.12 36 24 36C23.88 36 23.74 35.98 23.6 35.96C23.48 35.94 23.36 35.9 23.24 35.84C23.12 35.8 23 35.74 22.88 35.66C22.78 35.58 22.68 35.5 22.58 35.42C22.22 35.04 22 34.52 22 34C22 33.48 22.22 32.96 22.58 32.58C22.68 32.5 22.78 32.42 22.88 32.34C23 32.26 23.12 32.2 23.24 32.16C23.36 32.1 23.48 32.06 23.6 32.04C23.86 31.98 24.14 31.98 24.38 32.04C24.52 32.06 24.64 32.1 24.76 32.16C24.88 32.2 25 32.26 25.12 32.34C25.22 32.42 25.32 32.5 25.42 32.58C25.78 32.96 26 33.48 26 34C26 34.52 25.78 35.04 25.42 35.42Z" fill="#03B0EF"/>
</svg>
