<svg width="48" height="48" viewBox="0 0 48 48" fill="none" xmlns="http://www.w3.org/2000/svg">
<path d="M37.5 44C41.0899 44 44 41.0899 44 37.5C44 33.9101 41.0899 31 37.5 31C33.9101 31 31 33.9101 31 37.5C31 41.0899 33.9101 44 37.5 44Z" fill="#03B0EF"/>
<path d="M38 16C41.3137 16 44 13.3137 44 10C44 6.68629 41.3137 4 38 4C34.6863 4 32 6.68629 32 10C32 13.3137 34.6863 16 38 16Z" fill="#03B0EF"/>
<path d="M10 16C13.3137 16 16 13.3137 16 10C16 6.68629 13.3137 4 10 4C6.68629 4 4 6.68629 4 10C4 13.3137 6.68629 16 10 16Z" fill="#03B0EF"/>
<path d="M9.66 16.04C11.6 21.6 16.84 25.34 22.74 25.34C22.76 25.34 22.78 25.34 22.8 25.34L29.86 25.32C32.9 25.28 35.62 27.34 36.44 30.3V34C36.44 34.84 37.12 35.52 37.98 35.52C38.82 35.52 39.5 34.84 39.5 34V11.52C39.5 10.68 38.82 10 37.98 10C37.14 10 36.44 10.68 36.44 11.52V24.76C34.68 23.2 32.38 22.24 29.88 22.24C29.86 22.24 29.86 22.24 29.84 22.24L22.78 22.26C22.76 22.26 22.76 22.26 22.74 22.26C18.16 22.26 14.06 19.36 12.56 15.02C12.32 14.4 11.74 14 11.1 14C10.94 14 10.76 14.04 10.6 14.08C9.8 14.36 9.38 15.24 9.66 16.04Z" fill="#03B0EF"/>
</svg>
