<svg width="40" height="40" viewBox="0 0 40 40" fill="none" xmlns="http://www.w3.org/2000/svg">
<path d="M20.0001 19.2148C15.4001 19.2148 11.6667 22.9482 11.6667 27.5482C11.6667 28.7815 11.9334 29.9482 12.4334 30.9815C12.5667 31.2815 12.7167 31.5648 12.8834 31.8315C14.3167 34.2482 16.9667 35.8815 20.0001 35.8815C23.0334 35.8815 25.6834 34.2482 27.1167 31.8315C27.2834 31.5648 27.4334 31.2815 27.5667 30.9815C28.0667 29.9482 28.3334 28.7815 28.3334 27.5482C28.3334 22.9482 24.6001 19.2148 20.0001 19.2148ZM23.4501 26.8315L19.9001 30.1148C19.6667 30.3315 19.3501 30.4482 19.0501 30.4482C18.7334 30.4482 18.4167 30.3315 18.1667 30.0815L16.5167 28.4315C16.0334 27.9482 16.0334 27.1482 16.5167 26.6648C17.0001 26.1815 17.8001 26.1815 18.2834 26.6648L19.0834 27.4648L21.7501 24.9982C22.2667 24.5315 23.0501 24.5648 23.5167 25.0648C23.9834 25.5648 23.9501 26.3482 23.4501 26.8315Z" fill="#9B9B9B"/>
<path d="M33.6668 28.4512C33.0668 28.9845 32.4168 29.4345 31.7168 29.8012C31.1168 30.1012 30.5168 29.5178 30.6168 28.8512C30.6835 28.3678 30.7168 27.8678 30.7168 27.3512C30.7168 21.3845 25.8501 16.5178 19.8835 16.5178C13.9168 16.5178 9.05012 21.3845 9.05012 27.3512C9.05012 28.1178 9.13345 28.8512 9.28345 29.5679C9.40012 30.1512 8.95012 30.7345 8.36678 30.5845C1.78345 28.9845 1.75012 18.8512 9.11678 18.3345H9.20012C3.85012 3.45118 26.4168 -2.49882 29.0001 13.1345C36.2168 14.0512 39.1334 23.6679 33.6668 28.4512Z" fill="#9B9B9B"/>
</svg>
