<svg width="60" height="60" viewBox="0 0 60 60" fill="none" xmlns="http://www.w3.org/2000/svg">
<rect x="0.5" y="0.5" width="59" height="59" rx="7.5" stroke="#D9D9D9"/>
<path d="M38.332 13.334H21.6654C17.0654 13.334 13.332 17.0507 13.332 21.634V31.6007V33.2673C13.332 37.8507 17.0654 41.5673 21.6654 41.5673H24.1654C24.6154 41.5673 25.2154 41.8673 25.4987 42.234L27.9987 45.5507C29.0987 47.0173 30.8987 47.0173 31.9987 45.5507L34.4987 42.234C34.8154 41.8173 35.3154 41.5673 35.832 41.5673H38.332C42.932 41.5673 46.6654 37.8507 46.6654 33.2673V21.634C46.6654 17.0507 42.932 13.334 38.332 13.334ZM23.332 30.0007C22.3987 30.0007 21.6654 29.2507 21.6654 28.334C21.6654 27.4173 22.4154 26.6673 23.332 26.6673C24.2487 26.6673 24.9987 27.4173 24.9987 28.334C24.9987 29.2507 24.2654 30.0007 23.332 30.0007ZM29.9987 30.0007C29.0654 30.0007 28.332 29.2507 28.332 28.334C28.332 27.4173 29.082 26.6673 29.9987 26.6673C30.9154 26.6673 31.6654 27.4173 31.6654 28.334C31.6654 29.2507 30.932 30.0007 29.9987 30.0007ZM36.6654 30.0007C35.732 30.0007 34.9987 29.2507 34.9987 28.334C34.9987 27.4173 35.7487 26.6673 36.6654 26.6673C37.582 26.6673 38.332 27.4173 38.332 28.334C38.332 29.2507 37.5987 30.0007 36.6654 30.0007Z" fill="#F58436"/>
</svg>
