<svg width="40" height="40" viewBox="0 0 40 40" fill="none" xmlns="http://www.w3.org/2000/svg">
<path d="M19.1663 3.33203C10.433 3.33203 3.33301 10.432 3.33301 19.1654C3.33301 27.8987 10.433 34.9987 19.1663 34.9987C27.8997 34.9987 34.9997 27.8987 34.9997 19.1654C34.9997 10.432 27.8997 3.33203 19.1663 3.33203ZM19.1663 22.9154H14.1663C13.483 22.9154 12.9163 22.3487 12.9163 21.6654C12.9163 20.982 13.483 20.4154 14.1663 20.4154H19.1663C19.8497 20.4154 20.4163 20.982 20.4163 21.6654C20.4163 22.3487 19.8497 22.9154 19.1663 22.9154ZM24.1663 17.9154H14.1663C13.483 17.9154 12.9163 17.3487 12.9163 16.6654C12.9163 15.982 13.483 15.4154 14.1663 15.4154H24.1663C24.8497 15.4154 25.4163 15.982 25.4163 16.6654C25.4163 17.3487 24.8497 17.9154 24.1663 17.9154Z" fill="#9B9B9B"/>
<path d="M35.5012 36.663C35.2012 36.663 34.9012 36.5464 34.6846 36.3297L31.5846 33.2297C31.1346 32.7797 31.1346 32.0464 31.5846 31.5797C32.0346 31.1297 32.7679 31.1297 33.2346 31.5797L36.3346 34.6797C36.7846 35.1297 36.7846 35.863 36.3346 36.3297C36.1012 36.5464 35.8012 36.663 35.5012 36.663Z" fill="#9B9B9B"/>
</svg>
