<svg width="48" height="48" viewBox="0 0 48 48" fill="none" xmlns="http://www.w3.org/2000/svg">
<path d="M37.0801 8.34125L26.0801 4.22125C24.9401 3.80125 23.0801 3.80125 21.9401 4.22125L10.9401 8.34125C8.8201 9.14125 7.1001 11.6213 7.1001 13.8813V30.0812C7.1001 31.7012 8.1601 33.8412 9.4601 34.8012L20.4601 43.0213C22.4001 44.4813 25.5801 44.4813 27.5201 43.0213L38.5201 34.8012C39.8201 33.8212 40.8801 31.7012 40.8801 30.0812V13.8813C40.9001 11.6213 39.1801 9.14125 37.0801 8.34125ZM25.5001 25.7412V31.0012C25.5001 31.8212 24.8201 32.5012 24.0001 32.5012C23.1801 32.5012 22.5001 31.8212 22.5001 31.0012V25.7412C20.4801 25.1012 19.0001 23.2212 19.0001 21.0012C19.0001 18.2412 21.2401 16.0013 24.0001 16.0013C26.7601 16.0013 29.0001 18.2412 29.0001 21.0012C29.0001 23.2412 27.5201 25.1012 25.5001 25.7412Z" fill="#03B0EF"/>
</svg>
