<svg width="40" height="40" viewBox="0 0 40 40" fill="none" xmlns="http://www.w3.org/2000/svg">
<path d="M33.2675 14.932C32.1509 13.6987 30.4675 12.982 28.1342 12.732V11.4654C28.1342 9.18203 27.1675 6.98203 25.4675 5.44869C23.7509 3.88203 21.5175 3.14869 19.2009 3.36536C15.2175 3.74869 11.8675 7.59869 11.8675 11.7654V12.732C9.53421 12.982 7.85088 13.6987 6.73421 14.932C5.11754 16.732 5.16755 19.132 5.35088 20.7987L6.51755 30.082C6.86755 33.332 8.18421 36.6654 15.3509 36.6654H24.6509C31.8175 36.6654 33.1342 33.332 33.4842 30.0987L34.6509 20.782C34.8342 19.132 34.8675 16.732 33.2675 14.932ZM19.4342 5.68203C21.1009 5.53203 22.6842 6.0487 23.9175 7.16536C25.1342 8.26536 25.8175 9.83203 25.8175 11.4654V12.632H14.1842V11.7654C14.1842 8.79869 16.6342 5.94869 19.4342 5.68203ZM14.0342 21.9154H14.0175C13.1009 21.9154 12.3509 21.1654 12.3509 20.2487C12.3509 19.332 13.1009 18.582 14.0175 18.582C14.9509 18.582 15.7009 19.332 15.7009 20.2487C15.7009 21.1654 14.9509 21.9154 14.0342 21.9154ZM25.7009 21.9154H25.6842C24.7675 21.9154 24.0175 21.1654 24.0175 20.2487C24.0175 19.332 24.7675 18.582 25.6842 18.582C26.6175 18.582 27.3675 19.332 27.3675 20.2487C27.3675 21.1654 26.6175 21.9154 25.7009 21.9154Z" fill="#9B9B9B"/>
</svg>
