<svg width="48" height="48" viewBox="0 0 48 48" fill="none" xmlns="http://www.w3.org/2000/svg">
<path d="M40 28.5C42.4853 28.5 44.5 26.4853 44.5 24C44.5 21.5147 42.4853 19.5 40 19.5C37.5147 19.5 35.5 21.5147 35.5 24C35.5 26.4853 37.5147 28.5 40 28.5Z" fill="#03B0EF"/>
<path d="M40 12.5C42.4853 12.5 44.5 10.4853 44.5 8C44.5 5.51472 42.4853 3.5 40 3.5C37.5147 3.5 35.5 5.51472 35.5 8C35.5 10.4853 37.5147 12.5 40 12.5Z" fill="#03B0EF"/>
<path d="M40 44.5C42.4853 44.5 44.5 42.4853 44.5 40C44.5 37.5147 42.4853 35.5 40 35.5C37.5147 35.5 35.5 37.5147 35.5 40C35.5 42.4853 37.5147 44.5 40 44.5Z" fill="#03B0EF"/>
<path d="M8 28.5C10.4853 28.5 12.5 26.4853 12.5 24C12.5 21.5147 10.4853 19.5 8 19.5C5.51472 19.5 3.5 21.5147 3.5 24C3.5 26.4853 5.51472 28.5 8 28.5Z" fill="#03B0EF"/>
<path d="M38 25.5C38.82 25.5 39.5 24.82 39.5 24C39.5 23.18 38.82 22.5 38 22.5H23.5V14C23.5 10.84 24.84 9.5 28 9.5H38C38.82 9.5 39.5 8.82 39.5 8C39.5 7.18 38.82 6.5 38 6.5H28C23.16 6.5 20.5 9.16 20.5 14V22.5H10C9.18 22.5 8.5 23.18 8.5 24C8.5 24.82 9.18 25.5 10 25.5H20.5V34C20.5 38.84 23.16 41.5 28 41.5H38C38.82 41.5 39.5 40.82 39.5 40C39.5 39.18 38.82 38.5 38 38.5H28C24.84 38.5 23.5 37.16 23.5 34V25.5H38Z" fill="#03B0EF"/>
</svg>
