<svg width="40" height="40" viewBox="0 0 40 40" fill="none" xmlns="http://www.w3.org/2000/svg">
<path d="M27.0665 3.33203H12.9332C8.33317 3.33203 6.6665 4.9987 6.6665 9.68203V30.3154C6.6665 34.9987 8.33317 36.6654 12.9332 36.6654H27.0498C31.6665 36.6654 33.3332 34.9987 33.3332 30.3154V9.68203C33.3332 4.9987 31.6665 3.33203 27.0665 3.33203ZM19.9998 32.1654C18.3998 32.1654 17.0832 30.8487 17.0832 29.2487C17.0832 27.6487 18.3998 26.332 19.9998 26.332C21.5998 26.332 22.9165 27.6487 22.9165 29.2487C22.9165 30.8487 21.5998 32.1654 19.9998 32.1654ZM23.3332 10.4154H16.6665C15.9832 10.4154 15.4165 9.8487 15.4165 9.16536C15.4165 8.48203 15.9832 7.91536 16.6665 7.91536H23.3332C24.0165 7.91536 24.5832 8.48203 24.5832 9.16536C24.5832 9.8487 24.0165 10.4154 23.3332 10.4154Z" fill="#9B9B9B"/>
</svg>
