<svg width="48" height="48" viewBox="0 0 48 48" fill="none" xmlns="http://www.w3.org/2000/svg">
<path d="M28.7 4H19.3C17.22 4 15.52 5.68 15.52 7.76V9.64C15.52 11.72 17.2 13.4 19.28 13.4H28.7C30.78 13.4 32.46 11.72 32.46 9.64V7.76C32.48 5.68 30.78 4 28.7 4Z" fill="#03B0EF"/>
<path d="M34.4801 9.63898C34.4801 12.819 31.8801 15.419 28.7001 15.419H19.3001C16.1201 15.419 13.5201 12.819 13.5201 9.63898C13.5201 8.51898 12.3201 7.81898 11.3201 8.33898C8.50008 9.83898 6.58008 12.819 6.58008 16.239V35.059C6.58008 39.979 10.6001 43.999 15.5201 43.999H32.4801C37.4001 43.999 41.4201 39.979 41.4201 35.059V16.239C41.4201 12.819 39.5001 9.83898 36.6801 8.33898C35.6801 7.81898 34.4801 8.51898 34.4801 9.63898ZM30.6801 25.459L22.6801 33.459C22.3801 33.759 22.0001 33.899 21.6201 33.899C21.2401 33.899 20.8601 33.759 20.5601 33.459L17.5601 30.459C16.9801 29.879 16.9801 28.919 17.5601 28.339C18.1401 27.759 19.1001 27.759 19.6801 28.339L21.6201 30.279L28.5601 23.339C29.1401 22.759 30.1001 22.759 30.6801 23.339C31.2601 23.919 31.2601 24.879 30.6801 25.459Z" fill="#03B0EF"/>
</svg>
