<svg width="40" height="40" viewBox="0 0 40 40" fill="none" xmlns="http://www.w3.org/2000/svg">
<path d="M33.5002 15.3677C30.4835 15.3677 29.2502 13.2344 30.7502 10.6177C31.6168 9.10103 31.1002 7.1677 29.5835 6.30103L26.7002 4.65103C25.3835 3.8677 23.6835 4.33437 22.9002 5.65103L22.7168 5.9677C21.2168 8.58437 18.7502 8.58437 17.2335 5.9677L17.0502 5.65103C16.3002 4.33437 14.6002 3.8677 13.2835 4.65103L10.4002 6.30103C8.8835 7.1677 8.36683 9.1177 9.2335 10.6344C10.7502 13.2344 9.51683 15.3677 6.50016 15.3677C4.76683 15.3677 3.3335 16.7844 3.3335 18.5344V21.4677C3.3335 23.201 4.75016 24.6344 6.50016 24.6344C9.51683 24.6344 10.7502 26.7677 9.2335 29.3844C8.36683 30.901 8.8835 32.8344 10.4002 33.701L13.2835 35.351C14.6002 36.1344 16.3002 35.6677 17.0835 34.351L17.2668 34.0344C18.7668 31.4177 21.2335 31.4177 22.7502 34.0344L22.9335 34.351C23.7168 35.6677 25.4168 36.1344 26.7335 35.351L29.6168 33.701C31.1335 32.8344 31.6502 30.8844 30.7835 29.3844C29.2668 26.7677 30.5002 24.6344 33.5168 24.6344C35.2502 24.6344 36.6835 23.2177 36.6835 21.4677V18.5344C36.6668 16.801 35.2502 15.3677 33.5002 15.3677ZM20.0002 25.4177C17.0168 25.4177 14.5835 22.9844 14.5835 20.001C14.5835 17.0177 17.0168 14.5844 20.0002 14.5844C22.9835 14.5844 25.4168 17.0177 25.4168 20.001C25.4168 22.9844 22.9835 25.4177 20.0002 25.4177Z" fill="#9B9B9B"/>
</svg>
