<svg width="48" height="48" viewBox="0 0 48 48" fill="none" xmlns="http://www.w3.org/2000/svg">
<path d="M12.184 10.436C13.0397 10 14.1598 10 16.4 10H17.2C17.4788 10 17.6182 10 17.7178 9.95415C17.8137 9.90998 17.8748 9.85642 17.9312 9.76717C17.9898 9.67453 18.0107 9.51699 18.0526 9.20191C18.4429 6.26549 20.9569 4 24 4C27.0431 4 29.5571 6.26549 29.9474 9.20191C29.9893 9.51699 30.0102 9.67453 30.0688 9.76717C30.1252 9.85642 30.1863 9.90998 30.2822 9.95415C30.3818 10 30.5212 10 30.8 10H31.6C33.8402 10 34.9603 10 35.816 10.436C36.5686 10.8195 37.1805 11.4314 37.564 12.184C38 13.0397 38 14.1598 38 16.4V17.2C38 17.4788 38 17.6182 38.0459 17.7178C38.09 17.8137 38.1436 17.8748 38.2328 17.9312C38.3255 17.9898 38.483 18.0107 38.7981 18.0526C41.7345 18.4429 44 20.9569 44 24C44 27.0431 41.7345 29.5571 38.7981 29.9474C38.483 29.9893 38.3255 30.0102 38.2328 30.0688C38.1436 30.1252 38.09 30.1863 38.0459 30.2822C38 30.3818 38 30.5212 38 30.8V31.6C38 33.8402 38 34.9603 37.564 35.816C37.1805 36.5686 36.5686 37.1805 35.816 37.564C34.9603 38 33.8402 38 31.6 38H30.8C30.5212 38 30.3818 38 30.2822 37.9541C30.1863 37.91 30.1252 37.8564 30.0688 37.7672C30.0102 37.6745 29.9893 37.517 29.9474 37.2019C29.5571 34.2655 27.0431 32 24 32C20.9569 32 18.4429 34.2655 18.0526 37.2019C18.0107 37.517 17.9898 37.6745 17.9312 37.7672C17.8748 37.8564 17.8137 37.91 17.7178 37.9541C17.6182 38 17.4788 38 17.2 38H16.4C14.1598 38 13.0397 38 12.184 37.564C11.4314 37.1805 10.8195 36.5686 10.436 35.816C10 34.9603 10 33.8402 10 31.6V30.8C10 30.5212 10 30.3818 10.0459 30.2822C10.09 30.1863 10.1436 30.1252 10.2328 30.0688C10.3255 30.0102 10.483 29.9893 10.7981 29.9474C13.7345 29.5571 16 27.0431 16 24C16 20.9569 13.7345 18.4429 10.7981 18.0526H10.7981C10.483 18.0107 10.3255 17.9898 10.2328 17.9312C10.1436 17.8748 10.09 17.8137 10.0459 17.7178C10 17.6182 10 17.4788 10 17.2V16.4C10 14.1598 10 13.0397 10.436 12.184C10.8195 11.4314 11.4314 10.8195 12.184 10.436Z" fill="#03B0EF"/>
</svg>
