<svg width="40" height="40" viewBox="0 0 40 40" fill="none" xmlns="http://www.w3.org/2000/svg">
<path d="M30 31.4349H28.7333C27.4 31.4349 26.1333 31.9515 25.2 32.8848L22.35 35.7016C21.05 36.985 18.9333 36.985 17.6333 35.7016L14.7833 32.8848C13.85 31.9515 12.5667 31.4349 11.25 31.4349H10C7.23333 31.4349 5 29.2182 5 26.4849V8.30151C5 5.56818 7.23333 3.35156 10 3.35156H30C32.7667 3.35156 35 5.56818 35 8.30151V26.4849C35 29.2016 32.7667 31.4349 30 31.4349Z" stroke="white" stroke-width="2" stroke-miterlimit="10" stroke-linecap="round" stroke-linejoin="round"/>
<path d="M11.666 15.266C11.666 13.716 12.9327 12.4492 14.4827 12.4492C16.0327 12.4492 17.2994 13.716 17.2994 15.266C17.2994 18.3993 12.8493 18.7326 11.866 21.716C11.666 22.3326 12.1827 22.9493 12.8327 22.9493H17.2994" stroke="white" stroke-width="1.5" stroke-linecap="round" stroke-linejoin="round"/>
<path d="M26.7329 22.9321V13.4155C26.7329 12.9822 26.4496 12.5988 26.0329 12.4821C25.6163 12.3654 25.1663 12.5321 24.933 12.8988C23.733 14.8321 22.4329 17.0321 21.2996 18.9655C21.1163 19.2821 21.1163 19.6988 21.2996 20.0155C21.4829 20.3321 21.8329 20.532 22.2163 20.532H28.3329" stroke="white" stroke-width="1.5" stroke-linecap="round" stroke-linejoin="round"/>
</svg>
