<svg width="40" height="40" viewBox="0 0 40 40" fill="none" xmlns="http://www.w3.org/2000/svg">
<path d="M12.633 25.0115L13.339 24.3034L12.633 25.0115ZM12.633 15.8833L11.9269 15.1752L12.633 15.8833ZM24.0776 27.2936L23.3715 26.5854L24.0776 27.2936ZM14.9219 27.2936L14.2159 28.0018L14.9219 27.2936ZM33.8223 17.5781L34.5284 18.2862L33.8223 17.5781ZM22.3777 6.1678L23.0838 6.87597V6.87597L22.3777 6.1678ZM17.9169 23.4377C18.308 23.0477 18.3089 22.4146 17.919 22.0234C17.5291 21.6323 16.8959 21.6314 16.5048 22.0213L17.9169 23.4377ZM9.28885 19.2174L9.99596 18.5103L9.99489 18.5093L9.28885 19.2174ZM16.6679 12.1584C17.1323 12.4573 17.7511 12.3231 18.05 11.8587C18.3489 11.3943 18.2147 10.7755 17.7503 10.4766L16.6679 12.1584ZM16.1604 10.6426L16.7016 9.80167L16.7016 9.80167L16.1604 10.6426ZM11.8777 8.44503L12.0239 7.45578L11.8777 8.44503ZM3.70855 13.3708L4.41459 14.0789L3.70855 13.3708ZM8.89899 8.82571L9.28223 9.74936L8.89899 8.82571ZM4.77188 15.7088L4.4035 16.6384H4.4035L4.77188 15.7088ZM4.97724 15.7909L5.35818 14.8663L4.97724 15.7909ZM7.68763 17.621L8.39367 16.9128L7.68763 17.621ZM7.53063 17.4655L6.83426 18.1832L7.53063 17.4655ZM4.1408 15.4587L4.50918 14.529H4.50918L4.1408 15.4587ZM20.8333 30.832L20.1262 31.5391C20.1417 31.5546 20.1576 31.5695 20.1741 31.5839L20.8333 30.832ZM29.4965 22.1877C29.1964 21.7241 28.5772 21.5916 28.1136 21.8918C27.65 22.192 27.5176 22.8111 27.8177 23.2747L29.4965 22.1877ZM29.3341 23.7767L28.4947 24.3202V24.3202L29.3341 23.7767ZM31.5383 28.0466L32.5274 27.8995L31.5383 28.0466ZM26.5977 36.1913L27.3038 36.8994L26.5977 36.1913ZM31.1564 31.0164L32.0793 31.4016L31.1564 31.0164ZM24.5817 35.9565L25.5106 35.5862L24.5817 35.9565ZM23.7914 34.1367L24.6682 33.6557L23.7914 34.1367ZM21.7048 31.5961L22.4108 30.8879L22.3881 30.8653L22.364 30.8442L21.7048 31.5961ZM23.068 33.0402L23.8551 32.4234L23.068 33.0402ZM26.4576 36.3309L25.7516 35.6228L26.4576 36.3309ZM9.58258 19.5112L10.5104 19.8843L9.58258 19.5112ZM33.8223 17.5781L33.1163 16.8699L23.3715 26.5854L24.0776 27.2936L24.7836 28.0018L34.5284 18.2862L33.8223 17.5781ZM14.9219 27.2936L15.628 26.5854L13.339 24.3034L12.633 25.0115L11.9269 25.7197L14.2159 28.0018L14.9219 27.2936ZM12.633 15.8833L13.339 16.5915L23.0838 6.87597L22.3777 6.1678L21.6717 5.45964L11.9269 15.1752L12.633 15.8833ZM29.2445 3.33203V4.33203H30.1926V3.33203V2.33203H29.2445V3.33203ZM36.6666 9.78665H35.6666V10.7319H36.6666H37.6666V9.78665H36.6666ZM30.1926 3.33203V4.33203C31.7467 4.33203 32.812 4.33414 33.6116 4.44132C34.3828 4.54469 34.7553 4.72906 35.0125 4.98546L35.7185 4.27729L36.4246 3.56912C35.7337 2.88026 34.8692 2.592 33.8774 2.45905C32.914 2.32992 31.6904 2.33203 30.1926 2.33203V3.33203ZM36.6666 9.78665H37.6666C37.6666 8.29364 37.6688 7.07298 37.5392 6.11177C37.4056 5.1215 37.1159 4.2584 36.4246 3.56912L35.7185 4.27729L35.0125 4.98546C35.2693 5.24144 35.4536 5.61165 35.5571 6.37906C35.6645 7.17554 35.6666 8.23693 35.6666 9.78665H36.6666ZM12.633 25.0115L13.339 24.3034C12.24 23.2076 11.4885 22.4554 10.9994 21.8162C10.5278 21.2 10.396 20.8083 10.396 20.4474H9.39597H8.39597C8.39597 21.4233 8.80363 22.2379 9.41108 23.0317C10.001 23.8025 10.868 24.6639 11.9269 25.7197L12.633 25.0115ZM14.9219 27.2936L14.2159 28.0018C15.2749 29.0576 16.1388 29.922 16.9118 30.51C17.7081 31.1157 18.5237 31.5209 19.4997 31.5209V30.5209V29.5209C19.135 29.5209 18.7407 29.3883 18.1227 28.9182C17.4815 28.4304 16.727 27.6811 15.628 26.5854L14.9219 27.2936ZM33.8223 17.5781L34.5284 18.2862C35.8738 16.9448 36.7567 16.0897 37.2205 14.9733L36.297 14.5897L35.3736 14.206C35.0981 14.8689 34.5777 15.4129 33.1163 16.8699L33.8223 17.5781ZM36.6666 10.7319H35.6666C35.6666 12.7924 35.6489 13.5434 35.3736 14.206L36.297 14.5897L37.2205 14.9733C37.6844 13.8567 37.6666 12.6289 37.6666 10.7319H36.6666ZM22.3777 6.1678L23.0838 6.87597C24.5448 5.41935 25.0908 4.89985 25.7568 4.62481L25.3751 3.70053L24.9934 2.77624C23.8748 3.2382 23.0175 4.11789 21.6717 5.45964L22.3777 6.1678ZM29.2445 3.33203V2.33203C27.3412 2.33203 26.1117 2.31442 24.9934 2.77624L25.3751 3.70053L25.7568 4.62481C26.4232 4.34964 27.1784 4.33203 29.2445 4.33203V3.33203ZM13.7774 26.1526L14.4835 26.8607L17.9169 23.4377L17.2108 22.7295L16.5048 22.0213L13.0714 25.4444L13.7774 26.1526ZM17.2091 11.3175L17.7503 10.4766L16.7016 9.80167L16.1604 10.6426L15.6192 11.4835L16.6679 12.1584L17.2091 11.3175ZM16.1604 10.6426L16.7016 9.80167C15.6627 9.133 14.8362 8.60021 14.1272 8.2182C13.4057 7.82942 12.7458 7.56247 12.0239 7.45578L11.8777 8.44503L11.7315 9.43429C12.1368 9.49418 12.5664 9.64901 13.1785 9.97886C13.8032 10.3155 14.5545 10.7982 15.6192 11.4835L16.1604 10.6426ZM3.70855 13.3708L4.41459 14.0789C5.35204 13.1443 6.36272 12.137 7.27217 11.3073C7.72663 10.8927 8.14388 10.5335 8.5046 10.2555C8.8808 9.96556 9.13837 9.80905 9.28223 9.74936L8.89899 8.82571L8.51576 7.90206C8.11867 8.06681 7.69035 8.35798 7.28365 8.67145C6.86147 8.99685 6.3988 9.39686 5.92427 9.82976C4.97574 10.6951 3.93213 11.7358 3.00252 12.6626L3.70855 13.3708ZM11.8777 8.44503L12.0239 7.45578C10.8455 7.28164 9.63219 7.43883 8.51576 7.90206L8.89899 8.82571L9.28223 9.74936C10.0739 9.42087 10.9219 9.31464 11.7315 9.43429L11.8777 8.44503ZM4.1408 15.4587L3.77242 16.3884L4.4035 16.6384L4.77188 15.7088L5.14026 14.7791L4.50918 14.529L4.1408 15.4587ZM7.68763 17.621L6.98158 18.3292L8.58281 19.9256L9.28885 19.2174L9.99489 18.5093L8.39367 16.9128L7.68763 17.621ZM4.77188 15.7088L4.4035 16.6384C4.50895 16.6802 4.55322 16.6978 4.5963 16.7155L4.97724 15.7909L5.35818 14.8663C5.29972 14.8422 5.24093 14.819 5.14026 14.7791L4.77188 15.7088ZM7.68763 17.621L8.39367 16.9128C8.31707 16.8365 8.27234 16.7919 8.22699 16.7478L7.53063 17.4655L6.83426 18.1832C6.86765 18.2156 6.90134 18.2492 6.98158 18.3292L7.68763 17.621ZM4.97724 15.7909L4.5963 16.7155C5.4292 17.0587 6.1887 17.5568 6.83426 18.1832L7.53063 17.4655L8.22699 16.7478C7.39912 15.9446 6.42546 15.3061 5.35818 14.8663L4.97724 15.7909ZM3.70855 13.3708L3.00252 12.6626C1.84069 13.8209 2.25004 15.7851 3.77243 16.3884L4.1408 15.4587L4.50918 14.529C4.3217 14.4547 4.27534 14.2178 4.41459 14.0789L3.70855 13.3708ZM28.6571 22.7312L27.8177 23.2747L28.4947 24.3202L29.3341 23.7767L30.1735 23.2332L29.4965 22.1877L28.6571 22.7312ZM26.5977 36.1913L25.8917 35.4831L25.7516 35.6228L26.4576 36.3309L27.1637 37.0391L27.3038 36.8994L26.5977 36.1913ZM29.3341 23.7767L28.4947 24.3202C29.1821 25.3819 29.6661 26.1307 30.0037 26.7533C30.3344 27.3634 30.4893 27.7909 30.5491 28.1937L31.5383 28.0466L32.5274 27.8995C32.4202 27.1785 32.152 26.5197 31.7619 25.8002C31.3787 25.0932 30.8442 24.269 30.1735 23.2332L29.3341 23.7767ZM26.5977 36.1913L27.3038 36.8994C28.2334 35.9726 29.2772 34.9321 30.1451 33.9864C30.5793 33.5133 30.9806 33.052 31.307 32.631C31.6214 32.2256 31.9137 31.7982 32.0793 31.4016L31.1564 31.0164L30.2336 30.6312C30.174 30.7739 30.0174 31.0303 29.7265 31.4055C29.4477 31.765 29.0874 32.181 28.6716 32.6341C27.8395 33.5408 26.8291 34.5485 25.8917 35.4831L26.5977 36.1913ZM31.5383 28.0466L30.5491 28.1937C30.6689 28.9992 30.5626 29.843 30.2336 30.6312L31.1564 31.0164L32.0793 31.4016C32.5444 30.2874 32.7023 29.0761 32.5274 27.8995L31.5383 28.0466ZM21.7048 31.5961L22.364 30.8442L21.4926 30.0801L20.8333 30.832L20.1741 31.5839L21.0455 32.348L21.7048 31.5961ZM24.5817 35.9565L25.5106 35.5862C25.1506 34.6832 24.9417 34.1545 24.6682 33.6557L23.7914 34.1367L22.9146 34.6176C23.1158 34.9844 23.2755 35.3804 23.6528 36.3268L24.5817 35.9565ZM21.7048 31.5961L20.9987 32.3043C21.7209 33.0243 22.0226 33.3275 22.2809 33.657L23.068 33.0402L23.8551 32.4234C23.5041 31.9755 23.1 31.5751 22.4108 30.8879L21.7048 31.5961ZM23.7914 34.1367L24.6682 33.6557C24.4311 33.2236 24.1592 32.8114 23.8551 32.4234L23.068 33.0402L22.2809 33.657C22.518 33.9596 22.7299 34.2808 22.9146 34.6176L23.7914 34.1367ZM28.6554 15.8833L27.9494 15.1752C27.0755 16.0464 25.6575 16.0464 24.7836 15.1752L24.0776 15.8833L23.3715 16.5915C25.026 18.2409 27.7071 18.2409 29.3615 16.5915L28.6554 15.8833ZM24.0776 15.8833L24.7836 15.1752C23.9114 14.3056 23.9114 12.897 24.7836 12.0274L24.0776 11.3192L23.3715 10.6111C21.7155 12.2622 21.7155 14.9404 23.3715 16.5915L24.0776 15.8833ZM24.0776 11.3192L24.7836 12.0274C25.6575 11.1562 27.0755 11.1562 27.9494 12.0274L28.6554 11.3192L29.3615 10.6111C27.7071 8.9616 25.026 8.9616 23.3715 10.6111L24.0776 11.3192ZM28.6554 11.3192L27.9494 12.0274C28.8216 12.897 28.8216 14.3056 27.9494 15.1752L28.6554 15.8833L29.3615 16.5915C31.0175 14.9404 31.0175 12.2622 29.3615 10.6111L28.6554 11.3192ZM26.4576 36.3309L25.7516 35.6228C25.7173 35.657 25.6697 35.6736 25.6108 35.6618C25.5524 35.6501 25.5239 35.6196 25.5106 35.5862L24.5817 35.9565L23.6528 36.3268C24.2247 37.7615 26.088 38.1116 27.1637 37.0391L26.4576 36.3309ZM24.0776 27.2936L23.3715 26.5854C22.5217 27.4328 21.8733 28.0784 21.3141 28.5613C20.7532 29.0457 20.3534 29.3018 20.019 29.425L20.3646 30.3633L20.7103 31.3017C21.3813 31.0545 21.9974 30.6138 22.6213 30.075C23.2469 29.5347 23.9523 28.8306 24.7836 28.0018L24.0776 27.2936ZM20.3646 30.3633L20.019 29.425C19.8388 29.4914 19.6721 29.5209 19.4997 29.5209V30.5209V31.5209C19.9199 31.5209 20.3202 31.4454 20.7103 31.3017L20.3646 30.3633ZM20.8333 30.832L21.5404 30.1249L21.0717 29.6562L20.3646 30.3633L19.6575 31.0705L20.1262 31.5391L20.8333 30.832ZM12.633 15.8833L11.9269 15.1752C11.1157 15.984 10.424 16.6729 9.88838 17.2841C9.3546 17.8933 8.91451 18.4922 8.65479 19.1381L9.58258 19.5112L10.5104 19.8843C10.6444 19.551 10.9096 19.1534 11.3926 18.6022C11.8738 18.053 12.5105 17.4176 13.339 16.5915L12.633 15.8833ZM9.58258 19.5112L8.65479 19.1381C8.48604 19.5577 8.39597 19.9899 8.39597 20.4474H9.39597H10.396C10.396 20.263 10.4303 20.0834 10.5104 19.8843L9.58258 19.5112ZM9.28885 19.2174L8.58174 19.9245L8.87548 20.2183L9.58258 19.5112L10.2897 18.8041L9.99596 18.5103L9.28885 19.2174Z" fill="white"/>
</svg>
