<svg width="40" height="40" viewBox="0 0 40 40" fill="none" xmlns="http://www.w3.org/2000/svg">
<path d="M26.3335 3.68414C25.6501 3.0008 24.4668 3.46747 24.4668 4.41747V10.2341C24.4668 12.6675 26.5335 14.6841 29.0501 14.6841C30.6335 14.7008 32.8335 14.7008 34.7168 14.7008C35.6668 14.7008 36.1668 13.5841 35.5001 12.9175C33.1001 10.5008 28.8001 6.1508 26.3335 3.68414Z" fill="#9B9B9B"/>
<path d="M34.167 16.982H29.3503C25.4003 16.982 22.1837 13.7654 22.1837 9.81536V4.9987C22.1837 4.08203 21.4337 3.33203 20.517 3.33203H13.4503C8.31699 3.33203 4.16699 6.66536 4.16699 12.6154V27.382C4.16699 33.332 8.31699 36.6654 13.4503 36.6654H26.5503C31.6837 36.6654 35.8337 33.332 35.8337 27.382V18.6487C35.8337 17.732 35.0837 16.982 34.167 16.982ZM19.167 29.582H12.5003C11.817 29.582 11.2503 29.0154 11.2503 28.332C11.2503 27.6487 11.817 27.082 12.5003 27.082H19.167C19.8503 27.082 20.417 27.6487 20.417 28.332C20.417 29.0154 19.8503 29.582 19.167 29.582ZM22.5003 22.9154H12.5003C11.817 22.9154 11.2503 22.3487 11.2503 21.6654C11.2503 20.982 11.817 20.4154 12.5003 20.4154H22.5003C23.1837 20.4154 23.7503 20.982 23.7503 21.6654C23.7503 22.3487 23.1837 22.9154 22.5003 22.9154Z" fill="#9B9B9B"/>
</svg>
