<svg width="237" height="187" viewBox="0 0 237 187" fill="none" xmlns="http://www.w3.org/2000/svg">
<g opacity="0.2" clip-path="url(#clip0_4141_48771)">
<path d="M24.5195 88.4238L203.386 33.1436L256.496 204.628L77.6302 259.908L24.5195 88.4238Z" fill="white"/>
<path d="M5.00525 82.1333C2.36032 73.5933 7.34596 64.4621 16.1387 61.7446L199.782 4.98797C208.575 2.2705 217.851 6.9939 220.496 15.5339L277.78 200.491C280.425 209.031 275.437 218.154 266.644 220.871L83.0003 277.628C74.2076 280.345 64.9337 275.63 62.2888 267.091L5.00525 82.1333Z" fill="url(#paint0_linear_4141_48771)"/>
<path d="M121.659 227.09L91.5582 129.899L59.3124 139.865L89.4136 237.055L121.659 227.09ZM71.3356 121.614C82.5774 118.139 87.2668 108.511 84.3775 99.1819C81.2161 89.7091 72.175 84.5519 61.1494 87.9594C50.1152 91.3697 45.1538 100.854 48.1075 110.391C50.9968 119.72 60.3014 125.024 71.1279 121.678L71.3356 121.614ZM139.504 221.574L171.75 211.608L154.941 157.334C154.041 154.43 153.349 151.461 153.564 149.124C154.093 142.596 157.538 134.948 166.451 132.193C178.117 128.588 185.542 136.059 189.589 149.124L205.69 201.11L237.935 191.144L220.677 135.422C211.432 105.571 191.224 96.5977 170.012 103.153C152.617 108.529 148 120.625 145.805 128.571L146.021 128.504L141.658 114.415L109.403 124.384C112.652 133.373 139.504 221.574 139.504 221.574Z" fill="white"/>
</g>
<defs>
<linearGradient id="paint0_linear_4141_48771" x1="107.96" y1="33.3663" x2="180.879" y2="235.543" gradientUnits="userSpaceOnUse">
<stop offset="0.306865" stop-color="#0A66C2"/>
<stop offset="1" stop-color="#EAF1F9"/>
</linearGradient>
<clipPath id="clip0_4141_48771">
<rect width="226" height="226" fill="white" transform="matrix(0.955411 -0.295278 0.295848 0.955235 0 66.7324)"/>
</clipPath>
</defs>
</svg>
