<svg width="200" height="160" viewBox="0 0 200 160" fill="none" xmlns="http://www.w3.org/2000/svg">
<g opacity="0.2">
<g clip-path="url(#clip0_4140_48769)">
<path d="M1.63744e-06 120.5C1.34052e-06 98.6493 5.3825 78.4857 16.147 60.009C26.9117 41.5323 41.5325 26.9117 60.009 16.147C78.4857 5.38225 98.6495 -1.32816e-06 120.5 -1.62234e-06C142.351 -1.91652e-06 162.514 5.38225 180.991 16.147C199.468 26.9117 214.088 41.5323 224.853 60.009C235.618 78.4857 241 98.6493 241 120.5C241 142.351 235.618 162.514 224.853 180.991C214.088 199.468 199.468 214.088 180.991 224.853C162.514 235.618 142.351 241 120.5 241C98.6495 241 78.4858 235.618 60.009 224.853C41.5325 214.088 26.9117 199.468 16.147 180.991C5.3825 162.514 1.93436e-06 142.351 1.63744e-06 120.5ZM20.003 120.5C20.003 145.564 28.438 167.656 45.308 186.775C53.02 171.672 65.2307 157.293 81.94 143.636C98.6495 129.979 114.957 121.384 130.863 117.849C128.453 112.226 126.123 107.165 123.874 102.666C96.2395 111.503 66.3555 115.921 34.222 115.921C27.956 115.921 23.2967 115.841 20.244 115.68C20.244 116.323 20.204 117.126 20.1235 118.09C20.0432 119.054 20.003 119.857 20.003 120.5ZM23.136 95.677C26.6707 95.9983 31.8925 96.159 38.801 96.159C65.6325 96.159 91.098 92.544 115.198 85.314C102.987 63.624 89.5717 45.549 74.951 31.089C62.2585 37.5157 51.3732 46.4327 42.2955 57.84C33.218 69.2473 26.8315 81.8597 23.136 95.677ZM59.045 199.789C77.2005 213.928 97.6855 220.997 120.5 220.997C132.389 220.997 144.198 218.748 155.927 214.249C152.714 186.775 146.448 160.185 137.129 134.478C122.348 137.691 107.446 145.805 92.4235 158.819C77.4012 171.833 66.275 185.49 59.045 199.789ZM95.918 23.377C110.057 37.9977 123.151 56.2333 135.201 78.084C157.052 68.926 173.52 57.2777 184.606 43.139C165.969 27.715 144.6 20.003 120.5 20.003C112.306 20.003 104.112 21.1277 95.918 23.377ZM143.877 95.195C146.287 100.336 149.018 106.843 152.071 114.716C163.96 113.591 176.894 113.029 190.872 113.029C200.833 113.029 210.714 113.27 220.515 113.752C219.23 91.9012 211.357 72.4607 196.897 55.43C186.454 71.0147 168.78 84.2697 143.877 95.195ZM158.096 131.586C166.29 155.365 171.833 179.786 174.725 204.85C187.418 196.656 197.781 186.132 205.814 173.279C213.847 160.426 218.667 146.528 220.274 131.586C208.545 130.783 197.861 130.381 188.221 130.381C179.384 130.381 169.343 130.783 158.096 131.586Z" fill="url(#paint0_linear_4140_48769)"/>
</g>
</g>
<defs>
<linearGradient id="paint0_linear_4140_48769" x1="77.5" y1="-1.99931e-06" x2="170.5" y2="206" gradientUnits="userSpaceOnUse">
<stop offset="0.238304" stop-color="#BD4378"/>
<stop offset="1" stop-color="#F7E8EE"/>
</linearGradient>
<clipPath id="clip0_4140_48769">
<rect width="200" height="160" rx="16" fill="white"/>
</clipPath>
</defs>
</svg>
