<svg width="257" height="180" viewBox="0 0 257 180" fill="none" xmlns="http://www.w3.org/2000/svg">
<g opacity="0.2" clip-path="url(#clip0_4141_48772)">
<path d="M109.274 158.167C102.95 137.481 114.586 115.583 135.271 109.259C155.956 102.935 177.858 114.58 184.182 135.265C190.506 155.95 178.861 177.851 158.176 184.175C137.49 190.5 115.598 178.852 109.274 158.167ZM89.0249 164.357C98.7676 196.224 132.497 214.158 164.364 204.416C196.231 194.673 214.165 160.944 204.422 129.077C194.679 97.2101 160.95 79.276 129.083 89.0187C97.2162 98.7614 79.2822 132.49 89.0249 164.357ZM174.883 72.5149C175.697 75.182 177.284 77.5479 179.443 79.3132C181.601 81.0785 184.235 82.164 187.011 82.4323C189.787 82.7007 192.58 82.14 195.037 80.821C197.494 79.5021 199.505 77.4841 200.815 75.0223C202.125 72.5606 202.676 69.7656 202.398 66.9908C202.119 64.216 201.025 61.586 199.252 59.4335C197.479 57.2809 195.107 55.7024 192.437 54.8977C189.767 54.0929 186.918 54.098 184.251 54.9123L184.246 54.9139C180.671 56.0085 177.678 58.4769 175.922 61.777C174.167 65.0772 173.793 68.9392 174.883 72.5149ZM129.291 252.059C118.183 254.91 111.671 254.905 107.242 254.573C101.372 254.135 96.8848 252.847 91.7477 250.12C86.6107 247.393 83.0313 244.398 79.394 239.774C76.6422 236.29 72.9963 230.892 69.149 220.089C64.9831 208.411 63.7866 204.886 54.6125 174.879C45.4384 144.872 44.4714 141.288 41.383 129.27C38.5325 118.163 38.5534 111.656 38.8687 107.222C39.3072 101.351 40.5953 96.8643 43.3222 91.7273C46.0491 86.5902 49.0439 83.0109 53.6773 79.3708C57.161 76.619 62.5594 72.9732 73.3623 69.1258C85.04 64.9599 88.5647 63.7634 118.558 54.5934C148.552 45.4235 152.149 44.4524 164.167 41.3639C175.275 38.5135 181.782 38.5344 186.216 38.8497C192.084 39.2792 196.573 40.5763 201.71 43.3032C206.847 46.0301 210.421 49.0366 214.067 53.6583C216.819 57.142 220.464 62.5403 224.312 73.3433C228.481 85.0309 229.674 88.5457 238.848 118.553C248.022 148.56 248.998 152.141 252.078 164.162C254.928 175.27 254.915 181.785 254.592 186.21C254.154 192.081 252.866 196.568 250.136 201.696C247.406 206.824 244.402 210.406 239.781 214.052C236.297 216.804 230.899 220.45 220.096 224.297C208.418 228.463 204.893 229.66 174.886 238.834C144.879 248.008 141.298 248.984 129.291 252.059ZM66.2516 49.1952C54.4561 53.3971 46.8621 57.7929 40.5729 62.753C34.0571 67.8817 28.9753 73.6433 24.6305 81.7993C20.2856 89.9552 18.3636 97.3969 17.7553 105.667C17.1614 113.659 17.7623 122.408 20.8747 134.537C23.9839 146.687 25.0282 150.556 34.3576 181.071C43.6869 211.586 44.9847 215.377 49.2014 227.189C53.4036 238.985 57.7977 246.574 62.7592 252.868C67.8865 259.379 73.6444 264.481 81.8054 268.81C89.9665 273.14 97.4006 275.069 105.673 275.685C113.674 276.276 122.414 275.678 134.543 272.566C146.697 269.446 150.562 268.412 181.077 259.083C211.592 249.754 215.384 248.456 227.195 244.239C238.992 240.037 246.58 235.643 252.874 230.681C259.383 225.546 264.471 219.791 268.816 211.635C273.161 203.479 275.074 196.035 275.691 187.768C276.285 179.776 275.693 171.024 272.572 158.898C269.451 146.741 268.41 142.881 259.08 112.366C249.751 81.8513 248.453 78.0598 244.245 66.2454C240.043 54.449 235.648 46.8559 230.688 40.5667C225.552 34.0579 219.797 28.9692 211.641 24.6243C203.485 20.2794 196.039 18.3588 187.783 17.7464C179.782 17.1552 171.03 17.7472 158.913 20.8658C146.765 23.984 142.894 25.0193 112.379 34.3487C81.8637 43.678 78.0695 44.9766 66.2516 49.1952Z" fill="url(#paint0_radial_4141_48772)"/>
<path d="M109.274 158.167C102.95 137.481 114.586 115.583 135.271 109.259C155.956 102.935 177.858 114.58 184.182 135.265C190.506 155.95 178.861 177.851 158.176 184.175C137.49 190.5 115.598 178.852 109.274 158.167ZM89.0249 164.357C98.7676 196.224 132.497 214.158 164.364 204.416C196.231 194.673 214.165 160.944 204.422 129.077C194.679 97.2101 160.95 79.276 129.083 89.0187C97.2162 98.7614 79.2822 132.49 89.0249 164.357ZM174.883 72.5149C175.697 75.182 177.284 77.5479 179.443 79.3132C181.601 81.0785 184.235 82.164 187.011 82.4323C189.787 82.7007 192.58 82.14 195.037 80.821C197.494 79.5021 199.505 77.4841 200.815 75.0223C202.125 72.5606 202.676 69.7656 202.398 66.9908C202.119 64.216 201.025 61.586 199.252 59.4335C197.479 57.2809 195.107 55.7024 192.437 54.8977C189.767 54.0929 186.918 54.098 184.251 54.9123L184.246 54.9139C180.671 56.0085 177.678 58.4769 175.922 61.777C174.167 65.0772 173.793 68.9392 174.883 72.5149ZM129.291 252.059C118.183 254.91 111.671 254.905 107.242 254.573C101.372 254.135 96.8848 252.847 91.7477 250.12C86.6107 247.393 83.0313 244.398 79.394 239.774C76.6422 236.29 72.9963 230.892 69.149 220.089C64.9831 208.411 63.7866 204.886 54.6125 174.879C45.4384 144.872 44.4714 141.288 41.383 129.27C38.5325 118.163 38.5534 111.656 38.8687 107.222C39.3072 101.351 40.5953 96.8643 43.3222 91.7273C46.0491 86.5902 49.0439 83.0109 53.6773 79.3708C57.161 76.619 62.5594 72.9732 73.3623 69.1258C85.04 64.9599 88.5647 63.7634 118.558 54.5934C148.552 45.4235 152.149 44.4524 164.167 41.3639C175.275 38.5135 181.782 38.5344 186.216 38.8497C192.084 39.2792 196.573 40.5763 201.71 43.3032C206.847 46.0301 210.421 49.0366 214.067 53.6583C216.819 57.142 220.464 62.5403 224.312 73.3433C228.481 85.0309 229.674 88.5457 238.848 118.553C248.022 148.56 248.998 152.141 252.078 164.162C254.928 175.27 254.915 181.785 254.592 186.21C254.154 192.081 252.866 196.568 250.136 201.696C247.406 206.824 244.402 210.406 239.781 214.052C236.297 216.804 230.899 220.45 220.096 224.297C208.418 228.463 204.893 229.66 174.886 238.834C144.879 248.008 141.298 248.984 129.291 252.059ZM66.2516 49.1952C54.4561 53.3971 46.8621 57.7929 40.5729 62.753C34.0571 67.8817 28.9753 73.6433 24.6305 81.7993C20.2856 89.9552 18.3636 97.3969 17.7553 105.667C17.1614 113.659 17.7623 122.408 20.8747 134.537C23.9839 146.687 25.0282 150.556 34.3576 181.071C43.6869 211.586 44.9847 215.377 49.2014 227.189C53.4036 238.985 57.7977 246.574 62.7592 252.868C67.8865 259.379 73.6444 264.481 81.8054 268.81C89.9665 273.14 97.4006 275.069 105.673 275.685C113.674 276.276 122.414 275.678 134.543 272.566C146.697 269.446 150.562 268.412 181.077 259.083C211.592 249.754 215.384 248.456 227.195 244.239C238.992 240.037 246.58 235.643 252.874 230.681C259.383 225.546 264.471 219.791 268.816 211.635C273.161 203.479 275.074 196.035 275.691 187.768C276.285 179.776 275.693 171.024 272.572 158.898C269.451 146.741 268.41 142.881 259.08 112.366C249.751 81.8513 248.453 78.0598 244.245 66.2454C240.043 54.449 235.648 46.8559 230.688 40.5667C225.552 34.0579 219.797 28.9692 211.641 24.6243C203.485 20.2794 196.039 18.3588 187.783 17.7464C179.782 17.1552 171.03 17.7472 158.913 20.8658C146.765 23.984 142.894 25.0193 112.379 34.3487C81.8637 43.678 78.0695 44.9766 66.2516 49.1952Z" fill="url(#paint1_radial_4141_48772)"/>
</g>
<defs>
<radialGradient id="paint0_radial_4141_48772" cx="0" cy="0" r="1" gradientUnits="userSpaceOnUse" gradientTransform="translate(98.8928 285.37) rotate(-17) scale(306.773 306.773)">
<stop offset="0.09" stop-color="#FA8F21"/>
<stop offset="0.78" stop-color="#D82D7E"/>
</radialGradient>
<radialGradient id="paint1_radial_4141_48772" cx="0" cy="0" r="1" gradientUnits="userSpaceOnUse" gradientTransform="translate(208.404 262.898) rotate(-17) scale(241.779 241.779)">
<stop offset="0.64" stop-color="#8C3AAA" stop-opacity="0"/>
<stop offset="1" stop-color="#8C3AAA"/>
</radialGradient>
<clipPath id="clip0_4141_48772">
<rect width="235" height="235" fill="white" transform="translate(0 68.707) rotate(-17)"/>
</clipPath>
</defs>
</svg>
