<svg width="277" height="190" viewBox="0 0 277 190" fill="none" xmlns="http://www.w3.org/2000/svg">
<g opacity="0.2" clip-path="url(#clip0_4141_48770)">
<path d="M87.3197 63.425C96.1521 60.7247 104.442 59.0417 112.193 58.3784C119.944 57.7137 126.96 58.3654 133.239 60.3247C139.52 62.2884 144.99 65.7788 149.649 70.7964C154.308 75.8141 157.961 82.6521 160.609 91.3135C163.469 100.67 163.731 109.114 161.395 116.646C159.056 124.18 154.343 131.208 147.25 137.735C159.685 137.533 169.976 140.688 178.12 147.192C186.26 153.703 192.113 162.761 195.661 174.365C198.521 183.719 199.18 192.376 197.633 200.333C196.091 208.29 192.904 215.372 188.082 221.575C183.258 227.789 177.223 233.136 169.981 237.627C162.69 242.134 154.847 245.677 146.646 248.168L56.7638 275.648L0.0390625 90.1094L87.3197 63.425ZM105.086 140.114C112.36 137.891 117.803 134.333 121.421 129.436C125.038 124.544 125.653 118.197 123.27 110.402C121.946 106.073 120.081 102.757 117.675 100.462C115.27 98.1686 112.529 96.634 109.455 95.8721C106.38 95.1059 103.063 94.9409 99.4993 95.3626C95.8386 95.8109 92.225 96.5832 88.7009 97.6705L50.5155 109.345L63.7837 152.743L105.086 140.114ZM131.494 218.134C135.476 216.917 139.168 215.361 142.566 213.47C145.963 211.578 148.769 209.3 150.986 206.631C153.198 203.969 154.652 200.823 155.345 197.2C156.036 193.581 155.641 189.345 154.157 184.492C151.245 174.968 146.48 168.99 139.869 166.558C133.254 164.128 125.532 164.262 116.701 166.962L72.2826 180.542L87.8538 231.473L131.494 218.134ZM252.546 176.864C259.73 180.545 268.516 180.789 278.907 177.612C286.351 175.336 292.192 171.518 296.42 166.15C300.651 160.789 302.736 155.838 302.677 151.308L335.147 141.381C334.879 159.079 330.432 173.038 321.815 183.247C313.194 193.462 301.264 200.896 286.027 205.555C275.463 208.784 265.42 210.008 255.902 209.223C246.383 208.441 237.725 205.83 229.935 201.393C222.139 196.958 215.317 190.904 209.464 183.217C203.611 175.537 199.099 166.496 195.921 156.101C192.85 146.056 191.631 136.2 192.276 126.53C192.915 116.865 195.299 107.943 199.432 99.7617C203.557 91.5893 209.267 84.397 216.554 78.1898C223.839 71.9836 232.592 67.3205 242.811 64.1964C254.241 60.7018 264.872 59.8661 274.711 61.6885C284.544 63.5113 293.332 67.3198 301.065 73.0944C308.797 78.8773 315.329 86.1639 320.671 94.9453C326.009 103.734 329.916 113.43 332.406 124.035L235.513 153.658C239.684 165.451 245.359 173.191 252.546 176.864ZM272.628 93.4366C266.731 89.9379 259.276 89.5625 250.274 92.3147C244.384 94.1152 239.799 96.6091 236.511 99.7899C233.225 102.977 230.859 106.394 229.421 110.056C227.987 113.717 227.292 117.341 227.348 120.919C227.4 124.503 227.738 127.621 228.359 130.271L288.364 111.926C283.773 103.099 278.529 96.9374 272.628 93.4366ZM194.194 41.0518L269.167 18.1302L275.525 38.9252L200.552 61.8468L194.194 41.0518Z" fill="url(#paint0_linear_4141_48770)"/>
</g>
<defs>
<linearGradient id="paint0_linear_4141_48770" x1="147.389" y1="45.0601" x2="204.113" y2="230.598" gradientUnits="userSpaceOnUse">
<stop offset="0.293633" stop-color="#1769FF"/>
<stop offset="1" stop-color="#E4EAFE"/>
</linearGradient>
<clipPath id="clip0_4141_48770">
<rect width="308.242" height="194.014" fill="white" transform="translate(0 90.1211) rotate(-17)"/>
</clipPath>
</defs>
</svg>
