<svg width="40" height="41" viewBox="0 0 40 41" fill="none" xmlns="http://www.w3.org/2000/svg">
<path d="M31.8993 13.2469C32.3827 14.4969 33.5827 15.3802 34.9994 15.3802C36.8327 15.3802 38.3327 13.8802 38.3327 12.0469C38.3327 10.2135 36.8327 8.71354 34.9994 8.71354C33.5827 8.71354 32.3827 9.59688 31.8993 10.8469C31.816 10.8302 31.7493 10.7969 31.666 10.7969H24.9993V9.54688C24.9993 8.18021 23.866 7.04688 22.4993 7.04688H17.4993C16.1327 7.04688 14.9993 8.18021 14.9993 9.54688V10.7969H8.33268C8.24935 10.7969 8.18268 10.8302 8.09935 10.8469C7.61602 9.59688 6.41602 8.71354 4.99935 8.71354C3.16602 8.71354 1.66602 10.2135 1.66602 12.0469C1.66602 13.8802 3.16602 15.3802 4.99935 15.3802C6.41602 15.3802 7.61602 14.4969 8.09935 13.2469C8.18268 13.2635 8.24935 13.2969 8.33268 13.2969H12.616C9.19935 15.8302 7.08268 20.0302 7.08268 24.5469C7.08268 24.8302 7.09935 25.0969 7.13268 25.3802H6.66602C5.28268 25.3802 4.16602 26.4969 4.16602 27.8802V31.2135C4.16602 32.5969 5.28268 33.7135 6.66602 33.7135H9.99935C10.366 33.7135 10.6993 33.6302 11.016 33.4802C11.8827 33.1135 12.4993 32.2302 12.4993 31.2135V27.8802C12.4993 26.4969 11.3827 25.3802 9.99935 25.3802H9.61602C9.61602 25.3302 9.63268 25.2802 9.63268 25.2302C9.59935 24.9969 9.59935 24.7802 9.59935 24.5469C9.59935 20.4302 11.716 16.6635 15.0327 14.7135C15.0993 15.9969 16.1827 17.0469 17.4993 17.0469H22.4993C23.816 17.0469 24.8993 15.9969 24.9827 14.7135C28.2994 16.6635 30.416 20.4469 30.416 24.5469C30.416 24.7802 30.3993 24.9969 30.3827 25.2302C30.3827 25.2802 30.3993 25.3302 30.3993 25.3802H29.9993C28.616 25.3802 27.4993 26.4969 27.4993 27.8802V31.2135C27.4993 32.2302 28.116 33.1135 28.9827 33.4802C29.2993 33.6302 29.6327 33.7135 29.9993 33.7135H33.3327C34.716 33.7135 35.8327 32.5969 35.8327 31.2135V27.8802C35.8327 26.4969 34.716 25.3802 33.3327 25.3802H32.866C32.8993 25.0969 32.916 24.8302 32.916 24.5469C32.916 20.0302 30.7994 15.8302 27.3827 13.2969H31.666C31.7493 13.2969 31.816 13.2635 31.8993 13.2469Z" fill="#F58436"/>
</svg>
