<svg width="40" height="41" viewBox="0 0 40 41" fill="none" xmlns="http://www.w3.org/2000/svg">
<path d="M30 3.71875H10C7.23333 3.71875 5 5.93542 5 8.66875V26.8521C5 29.5854 7.23333 31.8021 10 31.8021H11.2667C12.6 31.8021 13.8667 32.3188 14.8 33.2521L17.65 36.0688C18.95 37.3521 21.0667 37.3521 22.3667 36.0688L25.2167 33.2521C26.15 32.3188 27.4333 31.8021 28.75 31.8021H30C32.7667 31.8021 35 29.5854 35 26.8521V8.66875C35 5.93542 32.7667 3.71875 30 3.71875ZM17.3 22.0688C17.9833 22.0688 18.55 22.6354 18.55 23.3188C18.55 24.0021 17.9833 24.5688 17.3 24.5688H12.8333C12.1 24.5688 11.4167 24.2188 10.9833 23.6187C10.5667 23.0521 10.4667 22.3521 10.6667 21.6854C11.25 19.9021 12.6833 18.9354 13.95 18.0688C15.2833 17.1687 16.0333 16.6021 16.0333 15.6354C16.0333 14.7688 15.3333 14.0688 14.4667 14.0688C13.6 14.0688 12.9167 14.7854 12.9167 15.6521C12.9167 16.3354 12.35 16.9021 11.6667 16.9021C10.9833 16.9021 10.4167 16.3354 10.4167 15.6521C10.4167 13.4187 12.2333 11.5854 14.4833 11.5854C16.7333 11.5854 18.55 13.4021 18.55 15.6521C18.55 18.0021 16.7833 19.2021 15.3667 20.1688C14.4833 20.7688 13.65 21.3354 13.2333 22.0854H17.3V22.0688ZM28.3333 22.1854H27.9833V23.3354C27.9833 24.0188 27.4167 24.5854 26.7333 24.5854C26.05 24.5854 25.4833 24.0188 25.4833 23.3354V22.1854H22.2167C22.2167 22.1854 22.2167 22.1854 22.2 22.1854C21.3833 22.1854 20.6333 21.7521 20.2167 21.0521C19.8 20.3354 19.8 19.4521 20.2167 18.7521C21.35 16.8021 22.6667 14.5854 23.8667 12.6521C24.4 11.8021 25.4167 11.4188 26.3667 11.6854C27.3167 11.9688 27.9833 12.8354 27.9667 13.8354V19.7021H28.3333C29.0167 19.7021 29.5833 20.2688 29.5833 20.9521C29.5833 21.6354 29.0167 22.1854 28.3333 22.1854Z" fill="#F58436"/>
<path d="M25.4831 19.6812V14.7812C24.4997 16.3812 23.4831 18.0979 22.5664 19.6646H25.4831V19.6812Z" fill="#F58436"/>
</svg>
