<svg width="40" height="40" viewBox="0 0 40 40" fill="none" xmlns="http://www.w3.org/2000/svg">
<path d="M26.6667 3.33203H13.3333C7.5 3.33203 5 6.66536 5 11.6654V28.332C5 33.332 7.5 36.6654 13.3333 36.6654H26.6667C32.5 36.6654 35 33.332 35 28.332V11.6654C35 6.66536 32.5 3.33203 26.6667 3.33203ZM13.3333 20.4154H20C20.6833 20.4154 21.25 20.982 21.25 21.6654C21.25 22.3487 20.6833 22.9154 20 22.9154H13.3333C12.65 22.9154 12.0833 22.3487 12.0833 21.6654C12.0833 20.982 12.65 20.4154 13.3333 20.4154ZM26.6667 29.582H13.3333C12.65 29.582 12.0833 29.0154 12.0833 28.332C12.0833 27.6487 12.65 27.082 13.3333 27.082H26.6667C27.35 27.082 27.9167 27.6487 27.9167 28.332C27.9167 29.0154 27.35 29.582 26.6667 29.582ZM30.8333 15.4154H27.5C24.9667 15.4154 22.9167 13.3654 22.9167 10.832V7.4987C22.9167 6.81536 23.4833 6.2487 24.1667 6.2487C24.85 6.2487 25.4167 6.81536 25.4167 7.4987V10.832C25.4167 11.982 26.35 12.9154 27.5 12.9154H30.8333C31.5167 12.9154 32.0833 13.482 32.0833 14.1654C32.0833 14.8487 31.5167 15.4154 30.8333 15.4154Z" fill="#F58436"/>
</svg>
