<svg width="40" height="40" viewBox="0 0 40 40" fill="none" xmlns="http://www.w3.org/2000/svg">
<path d="M35.9335 17.899L33.6668 15.2656C33.2335 14.7656 32.8835 13.8323 32.8835 13.1656V10.3323C32.8835 8.56563 31.4335 7.11562 29.6668 7.11562H26.8335C26.1835 7.11562 25.2335 6.76562 24.7335 6.33229L22.1001 4.06563C20.9501 3.08229 19.0668 3.08229 17.9001 4.06563L15.2835 6.34896C14.7835 6.76562 13.8335 7.11562 13.1835 7.11562H10.3001C8.53346 7.11562 7.08346 8.56563 7.08346 10.3323V13.1823C7.08346 13.8323 6.73346 14.7656 6.3168 15.2656L4.0668 17.9156C3.10013 19.0656 3.10013 20.9323 4.0668 22.0823L6.3168 24.7323C6.73346 25.2323 7.08346 26.1656 7.08346 26.8156V29.6656C7.08346 31.4323 8.53346 32.8823 10.3001 32.8823H13.1835C13.8335 32.8823 14.7835 33.2323 15.2835 33.6656L17.9168 35.9323C19.0668 36.9156 20.9501 36.9156 22.1168 35.9323L24.7501 33.6656C25.2501 33.2323 26.1835 32.8823 26.8501 32.8823H29.6835C31.4501 32.8823 32.9001 31.4323 32.9001 29.6656V26.8323C32.9001 26.1823 33.2501 25.2323 33.6835 24.7323L35.9501 22.099C36.9168 20.949 36.9168 19.049 35.9335 17.899ZM26.9335 16.849L18.8835 24.899C18.6501 25.1323 18.3335 25.2656 18.0001 25.2656C17.6668 25.2656 17.3501 25.1323 17.1168 24.899L13.0835 20.8656C12.6001 20.3823 12.6001 19.5823 13.0835 19.099C13.5668 18.6156 14.3668 18.6156 14.8501 19.099L18.0001 22.249L25.1668 15.0823C25.6501 14.599 26.4501 14.599 26.9335 15.0823C27.4168 15.5656 27.4168 16.3656 26.9335 16.849Z" fill="#F58436"/>
</svg>
