<svg width="40" height="41" viewBox="0 0 40 41" fill="none" xmlns="http://www.w3.org/2000/svg">
<path d="M25.984 21.0495V27.8328C25.984 28.4328 25.9173 28.9995 25.7673 29.5161C25.1507 31.9661 23.1173 33.4995 20.3173 33.4995H15.784L10.7507 36.8495C10.0007 37.3661 9.00065 36.8161 9.00065 35.9161V33.4995C7.30065 33.4995 5.88398 32.9328 4.90065 31.9495C3.90065 30.9495 3.33398 29.5328 3.33398 27.8328V21.0495C3.33398 17.8828 5.30065 15.6995 8.33398 15.4161C8.55065 15.3995 8.76732 15.3828 9.00065 15.3828H20.3173C23.7173 15.3828 25.984 17.6495 25.984 21.0495Z" fill="#F58436"/>
<path d="M29.584 26.3854C31.7007 26.3854 33.484 25.6854 34.7173 24.4354C35.9673 23.2021 36.6673 21.4188 36.6673 19.3021V10.8021C36.6673 6.88542 33.5007 3.71875 29.584 3.71875H15.4173C11.5007 3.71875 8.33398 6.88542 8.33398 10.8021V12.0521C8.33398 12.5188 8.70065 12.8854 9.16732 12.8854H20.3173C24.834 12.8854 28.484 16.5354 28.484 21.0521V25.5521C28.484 26.0188 28.8507 26.3854 29.3173 26.3854H29.584Z" fill="#F58436"/>
</svg>
