<svg width="40" height="41" viewBox="0 0 40 41" fill="none" xmlns="http://www.w3.org/2000/svg">
<path d="M19.1673 3.71875C10.434 3.71875 3.33398 10.8188 3.33398 19.5521C3.33398 28.2854 10.434 35.3854 19.1673 35.3854C27.9007 35.3854 35.0007 28.2854 35.0007 19.5521C35.0007 10.8188 27.9007 3.71875 19.1673 3.71875ZM19.1673 23.3021H14.1673C13.484 23.3021 12.9173 22.7354 12.9173 22.0521C12.9173 21.3687 13.484 20.8021 14.1673 20.8021H19.1673C19.8507 20.8021 20.4173 21.3687 20.4173 22.0521C20.4173 22.7354 19.8507 23.3021 19.1673 23.3021ZM24.1673 18.3021H14.1673C13.484 18.3021 12.9173 17.7354 12.9173 17.0521C12.9173 16.3687 13.484 15.8021 14.1673 15.8021H24.1673C24.8507 15.8021 25.4173 16.3687 25.4173 17.0521C25.4173 17.7354 24.8507 18.3021 24.1673 18.3021Z" fill="#F58436"/>
<path d="M35.5003 37.0458C35.2003 37.0458 34.9003 36.9292 34.6836 36.7125L31.5836 33.6125C31.1336 33.1625 31.1336 32.4292 31.5836 31.9625C32.0336 31.5125 32.7669 31.5125 33.2336 31.9625L36.3336 35.0625C36.7836 35.5125 36.7836 36.2458 36.3336 36.7125C36.1003 36.9292 35.8003 37.0458 35.5003 37.0458Z" fill="#F58436"/>
</svg>
