<svg width="40" height="41" viewBox="0 0 40 41" fill="none" xmlns="http://www.w3.org/2000/svg">
<path d="M20.0007 3.71875C10.8007 3.71875 3.33398 11.1854 3.33398 20.3854C3.33398 29.5854 10.8007 37.0521 20.0007 37.0521C29.2007 37.0521 36.6673 29.5854 36.6673 20.3854C36.6673 11.1854 29.2007 3.71875 20.0007 3.71875ZM14.2173 22.8354C14.7007 23.3188 14.7007 24.1187 14.2173 24.6021C13.9673 24.8521 13.6507 24.9688 13.334 24.9688C13.0173 24.9688 12.7007 24.8521 12.4507 24.6021L9.11732 21.2687C8.63398 20.7854 8.63398 19.9854 9.11732 19.5021L12.4507 16.1687C12.934 15.6854 13.734 15.6854 14.2173 16.1687C14.7007 16.6521 14.7007 17.4521 14.2173 17.9354L11.7673 20.3854L14.2173 22.8354ZM22.8173 16.9854L19.484 24.7687C19.284 25.2354 18.8173 25.5187 18.334 25.5187C18.1673 25.5187 18.0007 25.4854 17.8507 25.4188C17.2173 25.1521 16.9173 24.4187 17.2007 23.7687L20.534 15.9854C20.8006 15.3521 21.534 15.0521 22.1673 15.3354C22.8007 15.6188 23.084 16.3521 22.8173 16.9854ZM30.884 21.2687L27.5507 24.6021C27.3007 24.8521 26.984 24.9688 26.6673 24.9688C26.3507 24.9688 26.034 24.8521 25.784 24.6021C25.3007 24.1187 25.3007 23.3188 25.784 22.8354L28.234 20.3854L25.784 17.9354C25.3007 17.4521 25.3007 16.6521 25.784 16.1687C26.2673 15.6854 27.0673 15.6854 27.5507 16.1687L30.884 19.5021C31.3673 19.9854 31.3673 20.7854 30.884 21.2687Z" fill="#F58436"/>
</svg>
