<svg width="40" height="41" viewBox="0 0 40 41" fill="none" xmlns="http://www.w3.org/2000/svg">
<path d="M30.8993 7.25052L21.7327 3.81719C20.7827 3.46719 19.2327 3.46719 18.2827 3.81719L9.11602 7.25052C7.34935 7.91719 5.91602 9.98385 5.91602 11.8672V25.3672C5.91602 26.7172 6.79935 28.5005 7.88268 29.3005L17.0493 36.1505C18.666 37.3672 21.316 37.3672 22.9327 36.1505L32.0993 29.3005C33.1827 28.4839 34.066 26.7172 34.066 25.3672V11.8672C34.0827 9.98385 32.6493 7.91719 30.8993 7.25052ZM25.7993 16.5839L18.6327 23.7505C18.3827 24.0005 18.066 24.1172 17.7493 24.1172C17.4327 24.1172 17.116 24.0005 16.866 23.7505L14.1993 21.0505C13.716 20.5672 13.716 19.7672 14.1993 19.2839C14.6827 18.8005 15.4827 18.8005 15.966 19.2839L17.766 21.0839L24.0493 14.8005C24.5327 14.3172 25.3327 14.3172 25.816 14.8005C26.2993 15.2839 26.2993 16.1005 25.7993 16.5839Z" fill="#F58436"/>
</svg>
