<svg width="40" height="40" viewBox="0 0 40 40" fill="none" xmlns="http://www.w3.org/2000/svg">
<path d="M18.334 26.918V31.418C18.334 35.168 16.834 36.668 13.084 36.668H8.58398C4.83398 36.668 3.33398 35.168 3.33398 31.418V26.918C3.33398 23.168 4.83398 21.668 8.58398 21.668H13.084C16.834 21.668 18.334 23.168 18.334 26.918Z" fill="#F58436"/>
<path d="M29.166 18.332C33.3082 18.332 36.666 14.9742 36.666 10.832C36.666 6.6899 33.3082 3.33203 29.166 3.33203C25.0239 3.33203 21.666 6.6899 21.666 10.832C21.666 14.9742 25.0239 18.332 29.166 18.332Z" fill="#F58436"/>
<path d="M24.6325 36.6672C24.1825 36.6672 23.7658 36.4172 23.5491 36.0339C23.3325 35.6339 23.3325 35.1672 23.5658 34.7672L25.1825 32.0672C25.5325 31.4672 26.2991 31.2839 26.8991 31.6339C27.4991 31.9839 27.6825 32.7505 27.3325 33.3505L27.0325 33.8505C31.1491 32.7839 34.1825 29.0505 34.1825 24.6172C34.1825 23.9339 34.7491 23.3672 35.4325 23.3672C36.1158 23.3672 36.6658 23.9339 36.6658 24.6339C36.6658 31.2672 31.2658 36.6672 24.6325 36.6672Z" fill="#F58436"/>
<path d="M4.58398 16.6154C3.90065 16.6154 3.33398 16.0654 3.33398 15.3654C3.33398 8.73203 8.73398 3.33203 15.3673 3.33203C15.834 3.33203 16.234 3.58203 16.4673 3.96536C16.684 4.36536 16.684 4.83203 16.4507 5.23203L14.834 7.91536C14.4673 8.51536 13.7007 8.71536 13.1173 8.3487C12.5173 7.9987 12.334 7.23203 12.684 6.63203L12.984 6.13203C8.88398 7.1987 5.83398 10.932 5.83398 15.3654C5.83398 16.0654 5.26732 16.6154 4.58398 16.6154Z" fill="#F58436"/>
</svg>
