<svg width="205" height="205" viewBox="0 0 205 205" fill="none" xmlns="http://www.w3.org/2000/svg">
<path d="M37.9239 83.6939H32.7657V78.1294H27.2012V72.9712H32.7657V67.4062H37.9239V72.9712H43.4888V78.1294H37.9239V83.6939ZM33.4996 82.96H37.1896V77.3955H42.7545V73.7055H37.1896V68.1406H33.4996V73.7055H27.9351V77.3955H33.4996V82.96Z" fill="#263238"/>
<path d="M174.021 52.0117H170.521V48.2364H166.746V44.7366H170.521V40.9609H174.021V44.7366H177.797V48.2364H174.021V52.0117ZM171.02 51.5139H173.523V47.7386H177.299V45.2352H173.523V41.4595H171.02V45.2352H167.244V47.7386H171.02V51.5139Z" fill="#263238"/>
<path d="M154.051 165.154H183.004V121.722H154.051V165.154Z" fill="#BED66B"/>
<path d="M150.553 121.725H186.5V110.063H150.553V121.725Z" fill="#455A64"/>
<path d="M184.333 119.919H184.897C185.023 119.919 185.125 119.817 185.125 119.691V111.882C185.125 111.756 185.023 111.654 184.897 111.654H184.333C184.207 111.654 184.105 111.756 184.105 111.882V119.691C184.105 119.817 184.207 119.919 184.333 119.919Z" fill="#263238"/>
<path d="M182.438 119.919H183.003C183.129 119.919 183.23 119.817 183.23 119.691V111.882C183.23 111.756 183.128 111.654 183.003 111.654H182.438C182.313 111.654 182.211 111.756 182.211 111.882V119.691C182.211 119.817 182.313 119.919 182.438 119.919Z" fill="#263238"/>
<path d="M180.548 119.919H181.112C181.237 119.919 181.34 119.817 181.34 119.691V111.882C181.34 111.756 181.237 111.654 181.112 111.654H180.548C180.422 111.654 180.32 111.756 180.32 111.882V119.691C180.32 119.817 180.422 119.919 180.548 119.919Z" fill="#263238"/>
<path d="M178.657 119.919H179.221C179.347 119.919 179.449 119.817 179.449 119.691V111.882C179.449 111.756 179.347 111.654 179.221 111.654H178.657C178.531 111.654 178.43 111.756 178.43 111.882V119.691C178.43 119.817 178.531 119.919 178.657 119.919Z" fill="#263238"/>
<path d="M176.765 119.919H177.329C177.454 119.919 177.556 119.817 177.556 119.691V111.882C177.556 111.756 177.454 111.654 177.329 111.654H176.765C176.639 111.654 176.537 111.756 176.537 111.882V119.691C176.537 119.817 176.639 119.919 176.765 119.919Z" fill="#263238"/>
<path d="M174.868 119.919H175.432C175.558 119.919 175.66 119.817 175.66 119.691V111.882C175.66 111.756 175.558 111.654 175.432 111.654H174.868C174.743 111.654 174.641 111.756 174.641 111.882V119.691C174.641 119.817 174.743 119.919 174.868 119.919Z" fill="#263238"/>
<path d="M172.978 119.919H173.542C173.668 119.919 173.769 119.817 173.769 119.691V111.882C173.769 111.756 173.667 111.654 173.542 111.654H172.978C172.852 111.654 172.75 111.756 172.75 111.882V119.691C172.75 119.817 172.852 119.919 172.978 119.919Z" fill="#263238"/>
<path d="M171.085 119.919H171.649C171.775 119.919 171.877 119.817 171.877 119.691V111.882C171.877 111.756 171.775 111.654 171.649 111.654H171.085C170.96 111.654 170.857 111.756 170.857 111.882V119.691C170.857 119.817 170.96 119.919 171.085 119.919Z" fill="#263238"/>
<path d="M169.192 119.919H169.757C169.882 119.919 169.984 119.817 169.984 119.691V111.882C169.984 111.756 169.882 111.654 169.757 111.654H169.192C169.067 111.654 168.965 111.756 168.965 111.882V119.691C168.965 119.817 169.067 119.919 169.192 119.919Z" fill="#263238"/>
<path d="M167.3 119.919H167.864C167.989 119.919 168.092 119.817 168.092 119.691V111.882C168.092 111.756 167.989 111.654 167.864 111.654H167.3C167.174 111.654 167.072 111.756 167.072 111.882V119.691C167.072 119.817 167.174 119.919 167.3 119.919Z" fill="#263238"/>
<path d="M165.407 119.919H165.971C166.097 119.919 166.199 119.817 166.199 119.691V111.882C166.199 111.756 166.097 111.654 165.971 111.654H165.407C165.281 111.654 165.18 111.756 165.18 111.882V119.691C165.179 119.817 165.281 119.919 165.407 119.919Z" fill="#263238"/>
<path d="M163.517 119.919H164.081C164.207 119.919 164.308 119.817 164.308 119.691V111.882C164.308 111.756 164.206 111.654 164.081 111.654H163.517C163.391 111.654 163.289 111.756 163.289 111.882V119.691C163.289 119.817 163.391 119.919 163.517 119.919Z" fill="#263238"/>
<path d="M161.62 119.919H162.184C162.31 119.919 162.412 119.817 162.412 119.691V111.882C162.412 111.756 162.31 111.654 162.184 111.654H161.62C161.494 111.654 161.393 111.756 161.393 111.882V119.691C161.393 119.817 161.494 119.919 161.62 119.919Z" fill="#263238"/>
<path d="M159.728 119.919H160.292C160.418 119.919 160.519 119.817 160.519 119.691V111.882C160.519 111.756 160.417 111.654 160.292 111.654H159.728C159.602 111.654 159.5 111.756 159.5 111.882V119.691C159.5 119.817 159.602 119.919 159.728 119.919Z" fill="#263238"/>
<path d="M157.837 119.919H158.401C158.527 119.919 158.629 119.817 158.629 119.691V111.882C158.629 111.756 158.527 111.654 158.401 111.654H157.837C157.711 111.654 157.609 111.756 157.609 111.882V119.691C157.609 119.817 157.711 119.919 157.837 119.919Z" fill="#263238"/>
<path d="M155.944 119.919H156.509C156.634 119.919 156.736 119.817 156.736 119.691V111.882C156.736 111.756 156.634 111.654 156.509 111.654H155.944C155.818 111.654 155.717 111.756 155.717 111.882V119.691C155.717 119.817 155.819 119.919 155.944 119.919Z" fill="#263238"/>
<path d="M154.048 119.919H154.612C154.738 119.919 154.84 119.817 154.84 119.691V111.882C154.84 111.756 154.737 111.654 154.612 111.654H154.048C153.922 111.654 153.82 111.756 153.82 111.882V119.691C153.82 119.817 153.922 119.919 154.048 119.919Z" fill="#263238"/>
<path d="M152.157 119.919H152.721C152.847 119.919 152.949 119.817 152.949 119.691V111.882C152.949 111.756 152.847 111.654 152.721 111.654H152.157C152.031 111.654 151.93 111.756 151.93 111.882V119.691C151.93 119.817 152.031 119.919 152.157 119.919Z" fill="#263238"/>
<path d="M158.89 153.496H178.166V134.22H158.89V153.496Z" fill="white"/>
<path d="M187.567 169.984V169.974C187.567 167.963 185.931 166.338 183.92 166.338H176.7C174.689 166.338 173.053 167.963 173.053 169.974V169.984C173.053 171.995 174.689 173.631 176.7 173.631H183.92C185.931 173.631 187.567 171.995 187.567 169.984Z" fill="#455A64"/>
<path d="M187.569 169.984V169.974C187.569 167.963 185.933 166.338 183.922 166.338H180.307V173.631H183.922C185.933 173.631 187.569 171.995 187.569 169.984Z" fill="#BED66B"/>
<path d="M142.432 164.158V164.169C142.432 166.18 144.068 167.805 146.079 167.805H153.299C155.31 167.805 156.946 166.18 156.946 164.169V164.158C156.946 162.147 155.31 160.512 153.299 160.512H146.079C144.068 160.511 142.432 162.147 142.432 164.158Z" fill="#455A64"/>
<path d="M142.432 164.158V164.169C142.432 166.18 144.068 167.805 146.079 167.805H149.694V160.512H146.079C144.068 160.511 142.432 162.147 142.432 164.158Z" fill="#BED66B"/>
<path d="M134.24 165.642L134.248 165.649C135.67 167.071 137.976 167.064 139.398 165.642L144.503 160.536C145.925 159.114 145.933 156.808 144.511 155.386L144.503 155.379C143.081 153.957 140.768 153.957 139.346 155.379L134.24 160.485C132.818 161.907 132.818 164.22 134.24 165.642Z" fill="#455A64"/>
<path d="M134.24 165.642L134.248 165.649C135.67 167.071 137.976 167.064 139.398 165.642L141.954 163.085L136.797 157.928L134.24 160.484C132.818 161.907 132.818 164.22 134.24 165.642Z" fill="#BED66B"/>
<path d="M167.264 171.451V171.441C167.264 169.43 165.629 167.805 163.617 167.805H156.397C154.386 167.805 152.75 169.43 152.75 171.441V171.451C152.75 173.462 154.386 175.098 156.397 175.098H163.617C165.629 175.098 167.264 173.462 167.264 171.451Z" fill="#455A64"/>
<path d="M167.266 171.451V171.441C167.266 169.43 165.63 167.805 163.619 167.805H160.004V175.098H163.619C165.63 175.098 167.266 173.462 167.266 171.451Z" fill="#BED66B"/>
<path d="M18.7349 164.97H49.7666C50.4853 164.97 51.0679 164.388 51.0679 163.669V111.147C51.0679 109.227 49.5124 107.672 47.5932 107.672H20.9083C18.9891 107.672 17.4336 109.227 17.4336 111.147V163.669C17.4336 164.388 18.0162 164.97 18.7349 164.97Z" fill="#BED66B"/>
<path d="M24.513 109.324H43.9863V100.401H24.513V109.324Z" fill="#BED66B"/>
<path d="M17.4325 149.014H51.0664V126.337H17.4325V149.014Z" fill="white"/>
<path d="M17.4325 146.426H51.0664V144.373H17.4325V146.426Z" fill="#455A64"/>
<path d="M17.4325 130.973H51.0664V128.92H17.4325V130.973Z" fill="#455A64"/>
<path d="M23.1558 102.418H45.3438V94.1552H23.1558V102.418Z" fill="#455A64"/>
<path d="M21.9934 104.863H46.5098V102.416H21.9934V104.863Z" fill="#263238"/>
<path d="M43.4307 101.261H43.9948C44.1207 101.261 44.2224 101.16 44.2224 101.034V95.5342C44.2224 95.4083 44.1207 95.3066 43.9948 95.3066H43.4307C43.3048 95.3066 43.2031 95.4087 43.2031 95.5342V101.034C43.2031 101.16 43.3048 101.261 43.4307 101.261Z" fill="#263238"/>
<path d="M41.5361 101.261H42.1003C42.2262 101.261 42.3279 101.16 42.3279 101.034V95.5342C42.3279 95.4083 42.2262 95.3066 42.1003 95.3066H41.5361C41.4103 95.3066 41.3086 95.4087 41.3086 95.5342V101.034C41.3086 101.16 41.4103 101.261 41.5361 101.261Z" fill="#263238"/>
<path d="M39.6416 101.261H40.2058C40.3312 101.261 40.4333 101.16 40.4333 101.034V95.5342C40.4333 95.4083 40.3312 95.3066 40.2058 95.3066H39.6416C39.5157 95.3066 39.4141 95.4087 39.4141 95.5342V101.034C39.4141 101.16 39.5162 101.261 39.6416 101.261Z" fill="#263238"/>
<path d="M37.751 101.261H38.3151C38.441 101.261 38.5427 101.16 38.5427 101.034V95.5342C38.5427 95.4083 38.4406 95.3066 38.3151 95.3066H37.751C37.6251 95.3066 37.5234 95.4087 37.5234 95.5342V101.034C37.5234 101.16 37.6251 101.261 37.751 101.261Z" fill="#263238"/>
<path d="M35.8584 101.261H36.4226C36.5484 101.261 36.6501 101.16 36.6501 101.034V95.5342C36.6501 95.4083 36.5484 95.3066 36.4226 95.3066H35.8584C35.7325 95.3066 35.6309 95.4087 35.6309 95.5342V101.034C35.6309 101.16 35.7325 101.261 35.8584 101.261Z" fill="#263238"/>
<path d="M33.9658 101.261H34.53C34.6559 101.261 34.7575 101.16 34.7575 101.034V95.5342C34.7575 95.4083 34.6555 95.3066 34.53 95.3066H33.9658C33.84 95.3066 33.7383 95.4087 33.7383 95.5342V101.034C33.7383 101.16 33.8404 101.261 33.9658 101.261Z" fill="#263238"/>
<path d="M32.0713 101.261H32.6355C32.7613 101.261 32.863 101.16 32.863 101.034V95.5342C32.863 95.4083 32.7609 95.3066 32.6355 95.3066H32.0713C31.9454 95.3066 31.8438 95.4087 31.8438 95.5342V101.034C31.8438 101.16 31.9454 101.261 32.0713 101.261Z" fill="#263238"/>
<path d="M30.1787 101.261H30.7429C30.8688 101.261 30.9704 101.16 30.9704 101.034V95.5342C30.9704 95.4083 30.8683 95.3066 30.7429 95.3066H30.1787C30.0529 95.3066 29.9512 95.4087 29.9512 95.5342V101.034C29.9512 101.16 30.0529 101.261 30.1787 101.261Z" fill="#263238"/>
<path d="M28.2881 101.261H28.8523C28.9781 101.261 29.0798 101.16 29.0798 101.034V95.5342C29.0798 95.4083 28.9781 95.3066 28.8523 95.3066H28.2881C28.1622 95.3066 28.0605 95.4087 28.0605 95.5342V101.034C28.0605 101.16 28.1626 101.261 28.2881 101.261Z" fill="#263238"/>
<path d="M26.3955 101.261H26.9597C27.0856 101.261 27.1872 101.16 27.1872 101.034V95.5342C27.1872 95.4083 27.0856 95.3066 26.9597 95.3066H26.3955C26.2697 95.3066 26.168 95.4087 26.168 95.5342V101.034C26.168 101.16 26.2697 101.261 26.3955 101.261Z" fill="#263238"/>
<path d="M24.5029 101.261H25.0671C25.193 101.261 25.2947 101.16 25.2947 101.034V95.5342C25.2947 95.4083 25.1926 95.3066 25.0671 95.3066H24.5029C24.3775 95.3066 24.2754 95.4087 24.2754 95.5342V101.034C24.2754 101.16 24.3771 101.261 24.5029 101.261Z" fill="#263238"/>
<path d="M14.9512 165.015L36.8378 164.915L58.7248 164.879L102.499 164.811L146.273 164.879L168.16 164.915L190.047 165.015L168.16 165.116L146.273 165.152L102.499 165.22L58.7248 165.151L36.8378 165.115L14.9512 165.015Z" fill="#263238"/>
<path d="M155.919 34.3516H46.0957V180.226H155.919V34.3516Z" fill="#9FB063"/>
<g opacity="0.1">
<path d="M155.919 34.3516H46.0957V180.226H155.919V34.3516Z" fill="black"/>
</g>
<path d="M158.903 34.3516H49.0801V180.226H158.903V34.3516Z" fill="#9FB063"/>
<path d="M151.625 40.1789L54.6836 41.4102L56.3527 172.821L153.294 171.59L151.625 40.1789Z" fill="#EBEBEB"/>
<path d="M55.4599 39.7563L52.6211 171.154L149.553 173.248L152.392 41.8505L55.4599 39.7563Z" fill="#DBDBDB"/>
<path d="M150.977 40.7891H54.0254V172.213H150.977V40.7891Z" fill="white"/>
<path d="M73.3277 116.488H65.0957V124.72H73.3277V116.488Z" fill="#EBEBEB"/>
<path d="M104.443 116.488H77.7715V117.695H104.443V116.488Z" fill="#455A64"/>
<path d="M139.905 118.832H77.7715V120.039H139.905V118.832Z" fill="#EBEBEB"/>
<path d="M139.905 121.174H77.7715V122.38H139.905V121.174Z" fill="#EBEBEB"/>
<path d="M139.905 123.518H77.7715V124.724H139.905V123.518Z" fill="#EBEBEB"/>
<path d="M65.7012 120.181C66.005 120.434 66.294 120.698 66.5806 120.965C66.8693 121.23 67.1423 121.507 67.4244 121.778C67.9783 122.327 68.513 122.89 69.0394 123.461L68.0952 123.521C68.841 121.957 69.7077 120.465 70.6585 119.025C71.1357 118.306 71.6408 117.603 72.1804 116.922C72.7228 116.242 73.2915 115.578 73.9373 114.961C73.6913 115.82 73.369 116.633 73.0197 117.429C72.6679 118.224 72.2813 118.997 71.8672 119.755C71.0349 121.267 70.1185 122.728 69.0812 124.116L68.565 124.808L68.137 124.177C67.7012 123.534 67.2735 122.886 66.8652 122.222C66.6659 121.886 66.4576 121.557 66.2653 121.215C66.0706 120.876 65.8787 120.534 65.7012 120.181Z" fill="#9FB063"/>
<path d="M73.3277 130.111H65.0957V138.343H73.3277V130.111Z" fill="#EBEBEB"/>
<path d="M104.444 130.111H77.7715V131.318H104.444V130.111Z" fill="#455A64"/>
<path d="M139.905 132.453H77.7715V133.659H139.905V132.453Z" fill="#EBEBEB"/>
<path d="M139.905 134.795H77.7715V136.002H139.905V134.795Z" fill="#EBEBEB"/>
<path d="M139.905 137.137H77.7715V138.343H139.905V137.137Z" fill="#EBEBEB"/>
<path d="M73.3277 143.732H65.0957V151.964H73.3277V143.732Z" fill="#EBEBEB"/>
<path d="M104.443 143.732H77.7715V144.939H104.443V143.732Z" fill="#455A64"/>
<path d="M139.905 146.076H77.7715V147.282H139.905V146.076Z" fill="#EBEBEB"/>
<path d="M139.905 148.418H77.7715V149.624H139.905V148.418Z" fill="#EBEBEB"/>
<path d="M139.905 150.758H77.7715V151.964H139.905V150.758Z" fill="#EBEBEB"/>
<path d="M139.905 159.938H98.2715V161.144H139.905V159.938Z" fill="#EBEBEB"/>
<path d="M113.464 73.793H90.8926V74.9996H113.464V73.793Z" fill="#455A64"/>
<path d="M139.906 76.1367H90.8926V77.3433H139.906V76.1367Z" fill="#EBEBEB"/>
<path d="M139.906 78.4766H90.8926V79.6832H139.906V78.4766Z" fill="#EBEBEB"/>
<path d="M139.906 83.1602H90.8926V84.3668H139.906V83.1602Z" fill="#EBEBEB"/>
<path d="M112.207 85.502H90.8926V86.7086H112.207V85.502Z" fill="#EBEBEB"/>
<path d="M139.907 53.3652H65.0957V64.8247H139.907V53.3652Z" fill="#9FB063"/>
<path d="M70.25 62.6426V55.9473H71.5513V62.6426H70.25Z" fill="white"/>
<path d="M75.6607 58.3519V62.6426H74.3594V55.9473H75.3684L78.8575 60.3416V55.9567H80.1588V62.6426H79.1031L75.6607 58.3519Z" fill="white"/>
<path d="M86.9582 57.7019C86.9143 57.6581 86.8339 57.5982 86.7179 57.5228C86.6015 57.4473 86.46 57.3735 86.2936 57.3014C86.1271 57.2292 85.9459 57.1677 85.7515 57.1173C85.5564 57.0668 85.3584 57.0418 85.1575 57.0418C84.7991 57.0418 84.5318 57.1078 84.3559 57.2399C84.1796 57.3719 84.0919 57.5572 84.0919 57.7962C84.0919 57.9344 84.1247 58.0492 84.1907 58.1402C84.2567 58.2312 84.3526 58.3116 84.4781 58.3805C84.604 58.4498 84.7622 58.5125 84.9545 58.5691C85.146 58.6257 85.3678 58.6855 85.6191 58.7483C85.9459 58.8364 86.2427 58.9307 86.5105 59.0312C86.7774 59.132 87.0037 59.2575 87.189 59.4084C87.3743 59.5592 87.5178 59.74 87.6183 59.9508C87.7187 60.1615 87.7692 60.4206 87.7692 60.7286C87.7692 61.0869 87.7015 61.3936 87.5662 61.6482C87.4313 61.9028 87.2489 62.1086 87.0193 62.2656C86.7897 62.4227 86.526 62.5375 86.2271 62.6096C85.9283 62.6818 85.6158 62.7183 85.2891 62.7183C84.786 62.7183 84.2895 62.6428 83.7987 62.492C83.3088 62.3411 82.8688 62.1275 82.4785 61.8507L83.0537 60.7286C83.1103 60.7851 83.2124 60.8589 83.36 60.9504C83.5076 61.0414 83.6823 61.1328 83.8832 61.2238C84.0845 61.3149 84.3075 61.3919 84.5531 61.4547C84.7983 61.5174 85.0496 61.549 85.3075 61.549C86.0242 61.549 86.3825 61.3194 86.3825 60.8606C86.3825 60.7158 86.3411 60.5937 86.2595 60.4928C86.1779 60.3924 86.0619 60.3042 85.9106 60.2288C85.7597 60.1533 85.5773 60.084 85.3637 60.0213C85.1501 59.9586 84.911 59.8893 84.647 59.8138C84.3264 59.7257 84.0484 59.6298 83.8127 59.526C83.5769 59.4223 83.3801 59.2997 83.2231 59.1583C83.0656 59.0168 82.948 58.8532 82.8697 58.6679C82.7909 58.4826 82.7516 58.2608 82.7516 58.0029C82.7516 57.6634 82.8143 57.3616 82.9402 57.0976C83.066 56.8335 83.2403 56.6134 83.4633 56.4375C83.6864 56.2616 83.9459 56.1279 84.2415 56.0369C84.5371 55.9459 84.8545 55.9004 85.1939 55.9004C85.6654 55.9004 86.0992 55.9742 86.4953 56.1218C86.8913 56.2694 87.237 56.4441 87.5326 56.645L86.9582 57.7019Z" fill="white"/>
<path d="M92.9921 61.5388C93.3004 61.5388 93.5595 61.4761 93.7698 61.3502C93.9806 61.2244 94.1503 61.0612 94.2791 60.8599C94.4078 60.659 94.4992 60.4277 94.5525 60.167C94.6062 59.9062 94.6325 59.6373 94.6325 59.3609V55.9473H95.9244V59.3609C95.9244 59.8197 95.869 60.2506 95.7596 60.6528C95.6497 61.055 95.4767 61.4072 95.2409 61.709C95.0052 62.0108 94.7018 62.2498 94.3307 62.4257C93.9597 62.6016 93.5165 62.6897 93.0011 62.6897C92.4664 62.6897 92.0126 62.5971 91.6387 62.4113C91.2643 62.226 90.9613 61.9808 90.7285 61.6758C90.496 61.3707 90.3275 61.0173 90.2242 60.6151C90.1204 60.2125 90.0684 59.7947 90.0684 59.3609V55.9473H91.3701V59.3609C91.3701 59.6438 91.3963 59.9161 91.4501 60.1764C91.5034 60.4376 91.5944 60.6684 91.7235 60.8693C91.8519 61.0706 92.0208 61.2326 92.2278 61.3552C92.4357 61.4778 92.6907 61.5388 92.9921 61.5388Z" fill="white"/>
<path d="M98.6523 62.6426V55.9473H101.613C101.921 55.9473 102.206 56.012 102.467 56.1408C102.728 56.2695 102.953 56.4397 103.141 56.65C103.33 56.8607 103.477 57.0998 103.585 57.3667C103.691 57.634 103.745 57.903 103.745 58.1732C103.745 58.6069 103.636 59.0014 103.419 59.3564C103.203 59.7119 102.909 59.9681 102.538 60.1248L104.066 62.6426H102.604L101.236 60.3982H99.9537V62.6426H98.6523ZM99.9537 59.2572H101.585C101.704 59.2572 101.816 59.2289 101.92 59.1723C102.023 59.1158 102.113 59.0387 102.188 58.9411C102.264 58.8435 102.323 58.7287 102.367 58.5967C102.411 58.4647 102.433 58.3232 102.433 58.1723C102.433 58.0153 102.408 57.8706 102.358 57.7386C102.307 57.6065 102.239 57.4917 102.155 57.3946C102.07 57.297 101.973 57.2216 101.862 57.1683C101.752 57.115 101.641 57.0883 101.528 57.0883H99.9529V59.2572H99.9537Z" fill="white"/>
<path d="M108.14 55.9473H109.29L111.836 62.6426H110.497L109.875 60.9735H107.536L106.923 62.6426H105.584L108.14 55.9473ZM109.639 60.0587L108.715 57.4278L107.753 60.0587H109.639Z" fill="white"/>
<path d="M115.288 58.3519V62.6426H113.986V55.9473H114.995L118.484 60.3416V55.9567H119.786V62.6426H118.73L115.288 58.3519Z" fill="white"/>
<path d="M122.189 59.2488C122.189 58.84 122.263 58.4362 122.411 58.0368C122.558 57.6375 122.774 57.2808 123.057 56.9663C123.34 56.6523 123.686 56.3976 124.094 56.2025C124.503 56.0077 124.968 55.9102 125.49 55.9102C126.106 55.9102 126.639 56.0455 127.088 56.3156C127.537 56.5862 127.872 56.938 128.092 57.3718L127.093 58.0602C127.004 57.8716 126.897 57.7129 126.772 57.5842C126.646 57.4554 126.511 57.3534 126.367 57.2779C126.222 57.2025 126.071 57.1475 125.914 57.1131C125.757 57.0787 125.603 57.061 125.452 57.061C125.125 57.061 124.841 57.127 124.599 57.2591C124.357 57.3911 124.156 57.5625 123.995 57.7728C123.835 57.9835 123.713 58.2221 123.632 58.4895C123.55 58.7568 123.509 59.0221 123.509 59.2861C123.509 59.5817 123.556 59.8662 123.651 60.1393C123.745 60.4128 123.879 60.6534 124.052 60.8605C124.224 61.068 124.432 61.2348 124.674 61.3603C124.916 61.4862 125.182 61.5489 125.471 61.5489C125.622 61.5489 125.779 61.53 125.942 61.4923C126.105 61.4546 126.261 61.3951 126.409 61.3131C126.556 61.2315 126.693 61.1262 126.819 60.997C126.945 60.8683 127.045 60.7129 127.121 60.5304L128.187 61.1434C128.08 61.3951 127.927 61.6165 127.729 61.808C127.531 61.9999 127.308 62.1618 127.06 62.2939C126.811 62.4259 126.546 62.5263 126.263 62.5956C125.98 62.6649 125.704 62.6993 125.433 62.6993C124.955 62.6993 124.518 62.5989 124.122 62.3976C123.726 62.1967 123.385 61.9343 123.099 61.6104C122.813 61.2865 122.59 60.9187 122.43 60.5071C122.27 60.0963 122.189 59.6764 122.189 59.2488Z" fill="white"/>
<path d="M135.128 61.5015V62.6426H130.479V55.9473H135.043V57.0883H131.78V58.7008H134.599V59.757H131.78V61.5015H135.128Z" fill="white"/>
<path d="M140.11 110.496H64.8887V94.4043H140.11V110.496ZM65.2987 110.086H139.7V94.8143H65.2987V110.086Z" fill="#EBEBEB"/>
<path d="M139.907 103.889H65.0957V104.299H139.907V103.889Z" fill="#EBEBEB"/>
<path d="M139.907 97.7031H65.0957V98.1131H139.907V97.7031Z" fill="#EBEBEB"/>
<path d="M89.7186 94.6094H89.3086V110.291H89.7186V94.6094Z" fill="#EBEBEB"/>
<path d="M115.693 94.6094H115.283V110.291H115.693V94.6094Z" fill="#EBEBEB"/>
<path d="M69.3652 96.2909C70.6883 96.2065 72.0114 96.1667 73.334 96.1339C74.6571 96.0962 75.9798 96.0913 77.3028 96.0859C78.6259 96.0904 79.949 96.0958 81.2716 96.1331L83.256 96.1901C83.9174 96.2241 84.5791 96.2442 85.2404 96.2905C84.5791 96.3369 83.9174 96.3569 83.256 96.391L81.2716 96.448C79.9486 96.4853 78.6255 96.4906 77.3028 96.4951C75.9798 96.4898 74.6571 96.4849 73.334 96.4471C72.011 96.4152 70.6879 96.3754 69.3652 96.2909Z" fill="#455A64"/>
<path d="M94.5625 96.2909C95.8856 96.2065 97.2082 96.1667 98.5313 96.1339C99.8544 96.0962 101.177 96.0913 102.5 96.0859C103.823 96.0904 105.146 96.0958 106.469 96.1331L108.453 96.1901C109.115 96.2241 109.776 96.2442 110.438 96.2905C109.776 96.3369 109.115 96.3569 108.453 96.391L106.469 96.448C105.146 96.4853 103.823 96.4906 102.5 96.4951C101.177 96.4898 99.854 96.4849 98.5313 96.4471C97.2082 96.4152 95.8852 96.3754 94.5625 96.2909Z" fill="#455A64"/>
<path d="M119.914 96.2909C121.237 96.2065 122.56 96.1667 123.883 96.1339C125.206 96.0962 126.529 96.0913 127.852 96.0859C129.175 96.0904 130.497 96.0958 131.82 96.1331L133.805 96.1901C134.466 96.2241 135.128 96.2442 135.789 96.2905C135.128 96.3369 134.466 96.3569 133.805 96.391L131.82 96.448C130.497 96.4853 129.174 96.4906 127.852 96.4951C126.529 96.4898 125.206 96.4849 123.883 96.4471C122.56 96.4152 121.237 96.3754 119.914 96.2909Z" fill="#455A64"/>
<path d="M69.3652 100.246C70.6883 100.162 72.0114 100.122 73.334 100.089C74.6571 100.052 75.9798 100.046 77.3028 100.041C78.6259 100.046 79.949 100.051 81.2716 100.088L83.256 100.145C83.9174 100.179 84.5791 100.199 85.2404 100.246C84.5791 100.292 83.9174 100.312 83.256 100.346L81.2716 100.403C79.9486 100.441 78.6255 100.446 77.3028 100.451C75.9798 100.445 74.6571 100.44 73.334 100.403C72.011 100.37 70.6879 100.33 69.3652 100.246Z" fill="#EBEBEB"/>
<path d="M94.5625 100.246C95.8856 100.162 97.2082 100.122 98.5313 100.089C99.8544 100.052 101.177 100.046 102.5 100.041C103.823 100.046 105.146 100.051 106.469 100.088L108.453 100.145C109.115 100.179 109.776 100.199 110.438 100.246C109.776 100.292 109.115 100.312 108.453 100.346L106.469 100.403C105.146 100.441 103.823 100.446 102.5 100.451C101.177 100.445 99.854 100.44 98.5313 100.403C97.2082 100.37 95.8852 100.33 94.5625 100.246Z" fill="#EBEBEB"/>
<path d="M119.914 100.246C121.237 100.162 122.56 100.122 123.883 100.089C125.206 100.052 126.529 100.046 127.852 100.041C129.175 100.046 130.497 100.051 131.82 100.088L133.805 100.145C134.466 100.179 135.128 100.199 135.789 100.246C135.128 100.292 134.466 100.312 133.805 100.346L131.82 100.403C130.497 100.441 129.174 100.446 127.852 100.451C126.529 100.445 125.206 100.44 123.883 100.403C122.56 100.37 121.237 100.33 119.914 100.246Z" fill="#EBEBEB"/>
<path d="M69.3652 101.838C70.6883 101.753 72.0114 101.714 73.334 101.681C74.6571 101.643 75.9798 101.638 77.3028 101.633C78.6259 101.637 79.949 101.643 81.2716 101.68L83.256 101.737C83.9174 101.771 84.5791 101.791 85.2404 101.837C84.5791 101.884 83.9174 101.904 83.256 101.938L81.2716 101.995C79.9486 102.032 78.6255 102.037 77.3028 102.042C75.9798 102.037 74.6571 102.032 73.334 101.994C72.011 101.962 70.6879 101.922 69.3652 101.838Z" fill="#EBEBEB"/>
<path d="M94.5625 101.838C95.8856 101.753 97.2082 101.714 98.5313 101.681C99.8544 101.643 101.177 101.638 102.5 101.633C103.823 101.637 105.146 101.643 106.469 101.68L108.453 101.737C109.115 101.771 109.776 101.791 110.438 101.837C109.776 101.884 109.115 101.904 108.453 101.938L106.469 101.995C105.146 102.032 103.823 102.037 102.5 102.042C101.177 102.037 99.854 102.032 98.5313 101.994C97.2082 101.962 95.8852 101.922 94.5625 101.838Z" fill="#EBEBEB"/>
<path d="M119.914 101.838C121.237 101.753 122.56 101.714 123.883 101.681C125.206 101.643 126.529 101.638 127.852 101.633C129.175 101.637 130.497 101.643 131.82 101.68L133.805 101.737C134.466 101.771 135.128 101.791 135.789 101.837C135.128 101.884 134.466 101.904 133.805 101.938L131.82 101.995C130.497 102.032 129.174 102.037 127.852 102.042C126.529 102.037 125.206 102.032 123.883 101.994C122.56 101.962 121.237 101.922 119.914 101.838Z" fill="#EBEBEB"/>
<path d="M69.3652 106.084C70.6883 105.999 72.0114 105.96 73.334 105.927C74.6571 105.89 75.9798 105.884 77.3028 105.879C78.6259 105.883 79.949 105.889 81.2716 105.926L83.256 105.983C83.9174 106.017 84.5791 106.038 85.2404 106.084C84.5791 106.13 83.9174 106.15 83.256 106.184L81.2716 106.241C79.9486 106.279 78.6255 106.284 77.3028 106.288C75.9798 106.283 74.6571 106.278 73.334 106.241C72.011 106.208 70.6879 106.168 69.3652 106.084Z" fill="#EBEBEB"/>
<path d="M94.5625 106.084C95.8856 105.999 97.2082 105.96 98.5313 105.927C99.8544 105.89 101.177 105.884 102.5 105.879C103.823 105.883 105.146 105.889 106.469 105.926L108.453 105.983C109.115 106.017 109.776 106.038 110.438 106.084C109.776 106.13 109.115 106.15 108.453 106.184L106.469 106.241C105.146 106.279 103.823 106.284 102.5 106.288C101.177 106.283 99.854 106.278 98.5313 106.241C97.2082 106.208 95.8852 106.168 94.5625 106.084Z" fill="#EBEBEB"/>
<path d="M119.914 106.084C121.237 105.999 122.56 105.96 123.883 105.927C125.206 105.89 126.529 105.884 127.852 105.879C129.175 105.883 130.497 105.889 131.82 105.926L133.805 105.983C134.466 106.017 135.128 106.038 135.789 106.084C135.128 106.13 134.466 106.15 133.805 106.184L131.82 106.241C130.497 106.279 129.174 106.284 127.852 106.288C126.529 106.283 125.206 106.278 123.883 106.241C122.56 106.208 121.237 106.168 119.914 106.084Z" fill="#EBEBEB"/>
<path d="M69.3652 107.676C70.6883 107.591 72.0114 107.551 73.334 107.519C74.6571 107.481 75.9798 107.476 77.3028 107.471C78.6259 107.475 79.949 107.481 81.2716 107.518L83.256 107.575C83.9174 107.609 84.5791 107.629 85.2404 107.676C84.5791 107.722 83.9174 107.742 83.256 107.776L81.2716 107.834C79.9486 107.871 78.6255 107.876 77.3028 107.881C75.9798 107.875 74.6571 107.87 73.334 107.833C72.011 107.8 70.6879 107.76 69.3652 107.676Z" fill="#EBEBEB"/>
<path d="M94.5625 107.676C95.8856 107.591 97.2082 107.551 98.5313 107.519C99.8544 107.481 101.177 107.476 102.5 107.471C103.823 107.475 105.146 107.481 106.469 107.518L108.453 107.575C109.115 107.609 109.776 107.629 110.438 107.676C109.776 107.722 109.115 107.742 108.453 107.776L106.469 107.834C105.146 107.871 103.823 107.876 102.5 107.881C101.177 107.875 99.854 107.87 98.5313 107.833C97.2082 107.8 95.8852 107.76 94.5625 107.676Z" fill="#EBEBEB"/>
<path d="M119.914 107.676C121.237 107.591 122.56 107.551 123.883 107.519C125.206 107.481 126.529 107.476 127.852 107.471C129.175 107.475 130.497 107.481 131.82 107.518L133.805 107.575C134.466 107.609 135.128 107.629 135.789 107.676C135.128 107.722 134.466 107.742 133.805 107.776L131.82 107.834C130.497 107.871 129.174 107.876 127.852 107.881C126.529 107.875 125.206 107.87 123.883 107.833C122.56 107.8 121.237 107.76 119.914 107.676Z" fill="#EBEBEB"/>
<path d="M83.0365 82.2819C79.4137 87.0757 75.0866 89.1798 75.0866 89.1798C75.0866 89.1798 70.7627 87.0757 67.14 82.2819C64.3417 78.5788 64.4795 72.7806 68.4831 71.5264C72.9103 70.1394 75.0866 76.8023 75.0866 76.8023C75.0866 76.8023 77.294 70.0955 81.6933 71.5264C85.6826 72.8237 85.8347 78.5784 83.0365 82.2819Z" fill="#9FB063"/>
<path d="M71.9644 86.253L70.7578 81.2281L69.9702 82.9997H65.0957V82.4322H69.6016L70.9185 79.4696L71.8595 83.3871L73.1899 75.2695L74.3638 81.6914L75.2924 79.01L76.7561 83.399L77.0804 82.4294H85.0873V82.9968H77.4888L76.7557 85.1895L75.2822 80.7721L74.194 83.916L73.2203 78.5901L71.9644 86.253Z" fill="white"/>
<path d="M126.308 31.6895H78.6875V46.208H126.308V31.6895Z" fill="#263238"/>
<path d="M117.06 23.7539H87.5072L86.1973 31.6911H118.807L117.06 23.7539ZM102.5 29.4644C101.539 29.4644 100.758 28.6874 100.758 27.7223C100.758 26.7617 101.539 25.9802 102.5 25.9802C103.464 25.9802 104.242 26.7617 104.242 27.7223C104.242 28.6874 103.464 29.4644 102.5 29.4644Z" fill="#263238"/>
<path d="M118.807 31.691H86.1973L86.4896 29.9141H118.413L118.807 31.691Z" fill="#A6A6A6"/>
<path d="M31.8694 139.81C31.5808 141.037 31.2762 142.243 31.2167 143.502C31.2499 143.564 31.2438 143.792 31.2065 143.73C31.1991 143.933 30.8904 143.896 30.8904 143.696C30.8936 143.566 30.8965 143.435 30.9031 143.308C30.1819 142.413 29.1343 141.845 28.2877 141.067C27.603 140.437 27.1134 139.686 26.8543 138.786C26.152 136.366 26.8105 133.801 25.9654 131.386C25.2373 129.305 23.9314 127.496 22.8261 125.61C21.6596 123.615 20.799 121.519 20.7125 119.184C20.6436 117.395 20.8573 115.012 22.2193 113.672C23.6633 112.25 25.4534 113.315 26.5599 114.583C29.7657 118.263 31.2491 122.912 31.8485 127.667C32.179 130.298 32.5226 132.945 32.4434 135.601C32.3983 137.028 32.1933 138.424 31.8694 139.81Z" fill="#9FB063"/>
<path d="M31.2296 144.469C31.3957 141.982 31.385 139.492 31.1415 137.015C31.1456 137.006 31.1534 137 31.1538 136.988C31.1944 134.973 31.3543 132.966 31.2751 130.949C31.1895 128.757 30.868 126.609 30.3879 124.471C30.3822 124.447 30.344 124.452 30.349 124.477C30.7442 126.563 30.9738 128.691 31.0501 130.812C31.0911 131.951 31.0829 133.09 31.023 134.227C31.0033 134.597 30.9693 134.97 30.9443 135.343C30.9443 135.342 30.9439 135.341 30.9439 135.34C30.1312 129.669 28.0382 124.29 24.9488 119.475C24.907 119.41 24.7906 119.48 24.832 119.547C27.0567 123.18 28.6971 127.17 29.7114 131.31C28.1698 128.454 25.8414 126.105 24.1137 123.361C24.1042 123.346 24.0796 123.361 24.0874 123.377C25.6393 126.432 28.2034 128.841 29.8377 131.852C30.1214 133.078 30.3535 134.317 30.5261 135.563C30.7635 137.274 30.8746 138.995 30.8979 140.719C29.959 138.964 28.9841 137.285 28.2161 135.428C28.1956 135.379 28.1247 135.413 28.1415 135.462C28.7951 137.39 29.6737 139.467 30.9033 141.112C30.9098 142.332 30.8738 143.553 30.802 144.772C30.6101 148.027 30.0546 151.237 29.7975 154.481C29.7897 154.579 29.9271 154.59 29.9463 154.497C30.6216 151.223 31.0074 147.803 31.2296 144.469Z" fill="#263238"/>
<path d="M27.7757 119.369C27.7659 119.345 27.731 119.362 27.7396 119.385C28.3341 121.029 28.6699 122.694 29.0992 124.379C29.1189 124.456 29.23 124.44 29.2218 124.359C29.0475 122.65 28.437 120.945 27.7757 119.369Z" fill="#263238"/>
<path d="M42.8705 126.259C42.4855 127.225 42.0071 128.159 41.5036 129.068C40.4331 131.012 39.3167 132.793 39.1145 135.056C39.0243 136.067 38.9919 137.082 38.684 138.055C38.4179 138.898 37.9858 139.676 37.4885 140.403C36.3282 142.094 34.8784 143.55 33.8034 145.303C32.6849 147.126 31.86 149.131 31.3549 151.208C31.3282 151.321 31.1491 151.291 31.1757 151.177C31.1798 151.168 31.181 151.161 31.1827 151.152C31.1786 151.146 31.1724 151.14 31.172 151.128C31.0019 146.275 31.3889 141.384 32.8694 136.734C33.5168 134.702 34.3151 132.679 35.2212 130.747C36.0141 129.061 37.0026 127.441 38.3946 126.181C39.2978 125.368 41.2568 123.826 42.5425 124.641C43.1596 125.034 43.1137 125.654 42.8705 126.259Z" fill="#9FB063"/>
<path d="M37.993 137.26C37.1607 138.683 36.1738 140.007 35.1726 141.314C34.7027 141.928 34.2263 142.536 33.7572 143.15C33.5354 143.441 33.2874 143.73 33.0836 144.041C33.2119 143.531 33.337 143.02 33.467 142.51C34.093 140.058 34.6949 137.585 35.6277 135.227C36.5395 132.922 37.7519 130.758 38.9975 128.621C39.0303 128.565 38.9396 128.524 38.9064 128.578C37.881 130.265 36.84 131.949 35.9782 133.727C35.4965 134.72 35.0914 135.742 34.7351 136.782C35.1545 134.553 35.6568 132.413 36.3899 130.255C36.3964 130.235 36.3689 130.221 36.3607 130.241C35.4665 132.357 34.8228 134.737 34.6437 137.031C34.6433 137.035 34.6453 137.039 34.6469 137.042C34.4366 137.672 34.2435 138.308 34.0627 138.95C33.298 141.665 32.6269 144.408 32.0045 147.161C32.0152 145.343 32.1295 143.558 32.4727 141.764C32.4805 141.723 32.419 141.713 32.4092 141.754C31.9582 143.601 31.7544 145.545 31.9405 147.443C31.7052 148.489 31.4764 149.538 31.2526 150.586C30.7753 152.823 30.1894 155.1 29.9106 157.372C29.9032 157.431 29.9852 157.443 30.0004 157.387C30.3333 156.163 30.5342 154.893 30.8065 153.653C31.0795 152.41 31.3608 151.168 31.6503 149.929C32.0717 148.123 32.5133 146.322 32.9631 144.524C33.2636 143.864 33.845 143.278 34.2804 142.725C34.7581 142.118 35.2361 141.511 35.7011 140.894C36.567 139.745 37.3611 138.552 38.0364 137.28C38.0508 137.253 38.0081 137.235 37.993 137.26Z" fill="#263238"/>
<path d="M38.1991 135.187C37.1466 136.537 36.1914 138.033 35.4394 139.572C35.4296 139.592 35.4603 139.612 35.4726 139.593C36.4017 138.137 37.3148 136.671 38.2418 135.214C38.2578 135.189 38.2167 135.164 38.1991 135.187Z" fill="#263238"/>
<path d="M17.5412 130.862C18.1701 131.945 18.888 133.246 18.6178 134.547C18.4464 135.37 17.8442 136.038 17.7355 136.878C17.492 138.732 19.339 139.957 20.676 140.833C24.0085 143.019 28.5788 144.968 29.1848 149.434C29.2077 149.592 29.4812 149.552 29.4615 149.398C29.4615 149.388 29.4582 149.378 29.4549 149.368C29.4615 149.358 29.4713 149.355 29.4713 149.342C29.9027 147.08 29.8928 144.775 29.4086 142.522C28.9113 140.221 27.9072 138.153 26.7219 136.131C24.7166 132.709 22.5928 129.206 19.56 126.585C18.7203 125.86 17.0016 124.557 16.3329 126.193C15.6843 127.783 16.7708 129.541 17.5412 130.862Z" fill="#9FB063"/>
<path d="M20.5899 138.116C22.7994 140.508 26.3119 141.849 28.2139 144.528C27.0868 140.422 25.2217 136.73 22.3546 133.522C22.2808 133.44 22.396 133.323 22.4764 133.4C24.5756 135.418 26.1303 137.776 27.2643 140.335C26.7543 138.508 26.0409 136.78 25.2024 135.062C25.1709 134.997 25.2627 134.942 25.3 135.005C26.3681 136.826 27.0778 138.871 27.5222 140.933C30.0281 146.999 30.2602 154.114 29.735 160.508C29.7276 160.599 29.5882 160.602 29.5911 160.508C29.735 155.469 29.6534 150.342 28.446 145.421C28.4209 145.318 28.3927 145.217 28.3668 145.115C26.298 142.231 22.8003 140.894 20.5514 138.155C20.5301 138.128 20.5662 138.09 20.5899 138.116Z" fill="#263238"/>
<path d="M20.0778 136.061C21.2377 137.125 22.3795 138.214 23.5411 139.277C23.5529 139.288 23.5374 139.308 23.5238 139.299C22.2594 138.443 20.9753 137.313 20.0085 136.13C19.9695 136.082 20.0306 136.018 20.0778 136.061Z" fill="#263238"/>
<path d="M19.8962 131.451C20.9495 133.139 22.054 134.723 23.3664 136.224C23.3837 136.244 23.3566 136.272 23.3373 136.253C21.929 134.897 20.6777 133.256 19.8343 131.488C19.8142 131.446 19.8712 131.411 19.8962 131.451Z" fill="#263238"/>
<path d="M25.1172 165.014H35.2766L33.9076 151.346H26.6822L25.1172 165.014Z" fill="#455A64"/>
<path d="M26.4277 153.567H34.1316L33.9086 151.346H26.6819L26.4277 153.567Z" fill="#263238"/>
<path d="M25.4359 152.016H34.959V149.833H25.4359V152.016Z" fill="#455A64"/>
<path d="M70.4583 153.679C70.4583 153.679 68.0024 173.344 63.9655 177.768C59.1197 183.077 55.6027 182.3 53.6462 185.037C53.6421 185.037 53.6421 185.041 53.6421 185.041C51.6856 182.3 48.1686 183.081 43.3187 177.768C39.2819 173.344 36.8301 153.679 36.8301 153.679C47.4671 148.515 53.6421 142.729 53.6421 142.729C53.6421 142.729 53.6421 142.729 53.6462 142.733C53.8356 142.91 59.9861 148.598 70.4583 153.679Z" fill="#37474F"/>
<path d="M53.6443 142.732V185.037C53.6402 185.037 53.6402 185.041 53.6402 185.041C51.6837 182.3 48.1667 183.081 43.3168 177.768C39.2799 173.344 36.8281 153.679 36.8281 153.679C47.4652 148.515 53.6402 142.729 53.6402 142.729C53.6402 142.729 53.6402 142.728 53.6443 142.732Z" fill="#263238"/>
<path d="M67.848 155.261C67.848 155.261 65.7738 171.873 62.3639 175.613C58.2668 180.103 55.2942 179.444 53.6407 181.756C51.9876 179.444 49.0147 180.103 44.9176 175.613C41.508 171.873 39.4375 155.261 39.4375 155.261C48.4227 150.898 53.6407 146.01 53.6407 146.01C53.6407 146.01 58.8629 150.898 67.848 155.261Z" fill="#455A64"/>
<path d="M39.4414 155.263C39.4414 155.263 41.5156 171.873 44.9264 175.614C49.0198 180.101 51.9895 179.445 53.6446 181.752V146.016C53.4851 146.165 48.2876 150.967 39.4414 155.263Z" fill="#37474F"/>
<path d="M53.6437 170.471C57.2816 170.471 60.2308 167.522 60.2308 163.884C60.2308 160.246 57.2816 157.297 53.6437 157.297C50.0058 157.297 47.0566 160.246 47.0566 163.884C47.0566 167.522 50.0058 170.471 53.6437 170.471Z" fill="#9FB063"/>
<path d="M52.8929 168.164L49.959 165.113L51.0475 164.067L52.665 165.748L56.1512 160.4L57.4161 161.225L52.8929 168.164Z" fill="white"/>
<path d="M48.5529 52.6838C40.1966 52.6838 33.3984 45.8856 33.3984 37.5294C33.3984 29.1732 40.1966 22.375 48.5529 22.375C56.9091 22.375 63.7073 29.1732 63.7073 37.5294C63.7073 45.8856 56.9091 52.6838 48.5529 52.6838ZM48.5529 23.049C40.5685 23.049 34.0729 29.5447 34.0729 37.529C34.0729 45.5133 40.5685 52.0094 48.5529 52.0094C56.5372 52.0094 63.0328 45.5138 63.0328 37.529C63.0328 29.5451 56.5372 23.049 48.5529 23.049Z" fill="#37474F"/>
<path d="M47.7914 54.8302C47.5605 54.8204 47.3309 54.806 47.1022 54.7868L47.1583 54.1148C47.3781 54.1332 47.5991 54.1468 47.8205 54.1566L47.7914 54.8302ZM50.2042 54.7687L50.1411 54.0971C50.3617 54.0762 50.5814 54.0512 50.8 54.0217L50.8902 54.69C50.663 54.7208 50.4338 54.747 50.2042 54.7687ZM44.7164 54.4202C44.4913 54.3694 44.2682 54.314 44.046 54.2546L44.2211 53.6031C44.4343 53.6605 44.6487 53.7134 44.8652 53.7622L44.7164 54.4202ZM53.2546 54.2005L53.0714 53.5514C53.2846 53.4912 53.4965 53.4268 53.706 53.3587L53.9147 54C53.697 54.0709 53.4764 54.1377 53.2546 54.2005ZM41.7623 53.4645C41.5499 53.3739 41.3396 53.2792 41.1313 53.18L41.4204 52.5707C41.6205 52.6658 41.8226 52.7569 42.0268 52.8438L41.7623 53.4645ZM56.1529 53.0931L55.8573 52.4867C56.0557 52.3899 56.2521 52.2891 56.4457 52.1841L56.7663 52.7774C56.5641 52.8868 56.36 52.9922 56.1529 53.0931ZM39.0276 51.9938C38.8353 51.8667 38.6455 51.7364 38.4585 51.6019L38.8517 51.0541C39.0313 51.1833 39.2138 51.3087 39.3991 51.4309L39.0276 51.9938ZM58.804 51.4863L58.405 50.9426C58.583 50.8118 58.7585 50.6773 58.9311 50.5396L59.3517 51.0668C59.1717 51.2099 58.9893 51.3497 58.804 51.4863ZM36.6004 50.0603C36.434 49.9012 36.2708 49.7393 36.1105 49.574L36.5951 49.105C36.7488 49.2641 36.9059 49.4199 37.0658 49.5724L36.6004 50.0603ZM61.1283 49.4326L60.6391 48.9685C60.7912 48.8077 60.9401 48.6441 61.0856 48.4777L61.5932 48.9217C61.4419 49.0951 61.2869 49.2657 61.1283 49.4326ZM34.5562 47.7274C34.4209 47.5417 34.2888 47.3535 34.1605 47.1628L34.7202 46.7868C34.8436 46.9705 34.9703 47.1517 35.1006 47.3301L34.5562 47.7274ZM63.0528 46.9976L62.4882 46.6286C62.6096 46.4437 62.7269 46.2555 62.8408 46.0657L63.4189 46.4125C63.3009 46.6097 63.1787 46.8049 63.0528 46.9976ZM32.9596 45.0694C32.8596 44.8627 32.7632 44.654 32.6714 44.4433L33.2897 44.1743C33.3774 44.3769 33.4701 44.577 33.566 44.775L32.9596 45.0694ZM64.512 44.258L63.8908 43.9952C63.9769 43.7914 64.0589 43.5856 64.1368 43.3777L64.7682 43.6147C64.6871 43.8312 64.6018 44.0456 64.512 44.258ZM31.8645 42.1678C31.8034 41.9468 31.746 41.7238 31.6931 41.4987L32.3495 41.3445C32.4004 41.5606 32.4549 41.7746 32.5144 41.987L31.8645 42.1678ZM65.4558 41.2986L64.7978 41.1514C64.8457 40.9366 64.8892 40.7201 64.9286 40.5015L65.5923 40.6213C65.5513 40.8484 65.5058 41.0743 65.4558 41.2986ZM31.3086 39.1157C31.2881 38.8874 31.2717 38.6578 31.2598 38.4269L31.9334 38.3929C31.9445 38.6143 31.96 38.8353 31.9801 39.0547L31.3086 39.1157ZM65.8535 38.2215L65.1799 38.1949C65.1885 37.9747 65.1926 37.7537 65.1926 37.5315L65.1922 37.4622H65.8666L65.867 37.5266C65.867 37.7627 65.8629 37.9928 65.8535 38.2215ZM31.9744 36.0723L31.3028 36.0133C31.3229 35.7837 31.3471 35.5545 31.3762 35.3273L32.0453 35.4122C32.0174 35.6312 31.9937 35.8509 31.9744 36.0723ZM65.0237 35.1494C64.9921 34.9301 64.9564 34.7115 64.9163 34.4946L65.5792 34.372C65.6206 34.5975 65.6584 34.8247 65.6912 35.0531L65.0237 35.1494ZM32.4976 33.1371L31.8469 32.9592C31.908 32.7366 31.9728 32.5156 32.0425 32.2966L32.6853 32.5008C32.6185 32.7111 32.5562 32.9231 32.4976 33.1371ZM64.3373 32.2482C64.2668 32.0383 64.1926 31.83 64.1139 31.6234L64.7441 31.384C64.8256 31.5988 64.9035 31.8153 64.9765 32.0342L64.3373 32.2482ZM33.5402 30.3422L32.9317 30.0506C33.0318 29.8424 33.1355 29.6361 33.2438 29.4328L33.8391 29.7497C33.7353 29.9445 33.6357 30.1425 33.5402 30.3422ZM63.1401 29.5193C63.0335 29.3258 62.9232 29.1343 62.8093 28.9457L63.387 28.5972C63.5054 28.7936 63.6202 28.9928 63.7309 29.1942L63.1401 29.5193ZM35.0666 27.7797L34.5205 27.3836C34.6558 27.197 34.7944 27.0134 34.9366 26.8326L35.4668 27.2499C35.3302 27.4234 35.197 27.6001 35.0666 27.7797ZM61.4764 27.0482C61.3365 26.8764 61.1939 26.7075 61.0475 26.5415L61.5538 26.0962C61.7051 26.2684 61.854 26.4439 61.9991 26.6222L61.4764 27.0482ZM37.0252 25.5296L36.5582 25.0433C36.7242 24.8838 36.8932 24.7276 37.0654 24.5751L37.5127 25.0798C37.347 25.2262 37.1847 25.3762 37.0252 25.5296ZM59.3972 24.9097C59.2296 24.7653 59.0586 24.6247 58.8856 24.4869L59.3046 23.9589C59.485 24.102 59.6625 24.2483 59.8372 24.3984L59.3972 24.9097ZM39.3511 23.6637L38.9776 23.1024C39.1687 22.9753 39.3626 22.8519 39.5594 22.7321L39.9095 23.3082C39.7209 23.423 39.5348 23.5415 39.3511 23.6637ZM56.9709 23.1741C56.7806 23.0622 56.5871 22.954 56.3915 22.8494L56.7097 22.2545C56.9131 22.3631 57.1144 22.4763 57.3128 22.5927L56.9709 23.1741ZM41.9702 22.2434L41.7029 21.6239C41.9132 21.5333 42.1256 21.4468 42.3404 21.364L42.5827 21.9933C42.3765 22.0729 42.1719 22.1561 41.9702 22.2434ZM54.2731 21.9003C54.0652 21.8244 53.8557 21.7522 53.6437 21.6842L53.8499 21.0421C54.0701 21.1126 54.2886 21.1877 54.5047 21.2672L54.2731 21.9003ZM44.8008 21.3152L44.6495 20.658C44.873 20.6063 45.0985 20.5591 45.3256 20.5165L45.4503 21.1795C45.2326 21.2205 45.0161 21.2656 44.8008 21.3152ZM51.3908 21.1315C51.1739 21.0942 50.9549 21.0614 50.7348 21.0323L50.8225 20.3636C51.0517 20.3939 51.2792 20.4279 51.5047 20.4669L51.3908 21.1315ZM47.7549 20.9093L47.7233 20.2357C47.9521 20.225 48.1821 20.2184 48.4133 20.2168L48.4187 20.8912C48.1965 20.8929 47.9755 20.899 47.7549 20.9093Z" fill="#37474F"/>
<path d="M46.2254 46.9013H50.8962V39.8575H57.9404V35.1868H50.8962V28.1426H46.2254V35.1868H39.1816V39.8575H46.2254V46.9013Z" fill="#37474F"/>
<path d="M133.01 185.695C133.821 185.957 156.923 185.657 157.795 185.087C158.13 184.875 158.282 181.506 158.35 177.431C158.35 177.388 158.732 162.375 158.732 162.375L143.946 162.53L143.453 177.583C143.453 177.583 134.661 181.653 133.768 182.381C132.883 183.107 132.2 185.437 133.01 185.695Z" fill="#FFBE93"/>
<path d="M158.292 180.001C158.202 182.842 158.054 184.921 157.796 185.085C156.923 185.655 133.819 185.954 133.012 185.696C132.2 185.437 132.88 183.104 133.766 182.379C134.237 181.997 136.907 180.681 139.321 179.529C136.669 181.296 133.819 183.896 158.292 180.001Z" fill="#263238"/>
<path d="M140.363 179.164C140.424 179.147 140.455 179.129 140.459 179.111C140.459 179.111 140.423 179.129 140.363 179.164Z" fill="#9FB063"/>
<path d="M163.474 95.8262C163.474 95.8262 159.708 134.955 159.142 137.934C159.012 138.613 158.791 176.207 158.791 176.207L143.02 175.966C143.02 175.966 143.735 143.628 144.455 137.677C145.177 131.722 149.375 95.8262 149.375 95.8262H163.474Z" fill="#37474F"/>
<path d="M158.304 172.918C157.839 172.838 157.352 172.836 156.881 172.814C156.407 172.792 155.932 172.768 155.457 172.749C154.523 172.713 153.591 172.672 152.658 172.639C150.757 172.573 148.857 172.51 146.957 172.44C145.887 172.401 144.817 172.4 143.747 172.409C143.706 172.41 143.704 172.469 143.745 172.473C147.524 172.855 151.343 172.935 155.14 173.027C155.683 173.04 156.227 173.048 156.77 173.055C157.281 173.061 157.806 173.09 158.315 173.032C158.386 173.024 158.362 172.928 158.304 172.918Z" fill="#263238"/>
<path d="M161.347 97.55C160.197 107.091 159.047 116.634 158.094 126.198C157.622 130.94 157.179 135.69 156.884 140.447C156.587 145.243 156.469 150.044 156.403 154.848C156.328 160.277 156.2 165.711 156.287 171.14C156.288 171.193 156.364 171.189 156.367 171.138C156.839 161.542 156.704 151.926 157.213 142.33C157.722 132.725 158.764 123.171 159.82 113.614C160.411 108.268 160.966 102.919 161.518 97.5689C161.527 97.4725 161.358 97.4533 161.347 97.55Z" fill="#263238"/>
<path d="M165.055 187.397C165.904 187.459 188.275 181.685 188.987 180.924C189.262 180.639 188.611 177.331 187.709 173.355C187.699 173.314 183.005 159.119 183.005 159.119L168.678 162.778L173.274 177.038C173.274 177.038 165.7 183.078 165.005 183.998C164.316 184.913 164.206 187.339 165.055 187.397Z" fill="#FFBE93"/>
<path d="M188.264 175.865C188.851 178.647 189.201 180.701 188.989 180.922C188.276 181.683 165.903 187.456 165.057 187.397C164.207 187.339 164.315 184.911 165.003 183.996C165.37 183.514 167.651 181.602 169.723 179.909C167.566 182.255 165.415 185.457 188.264 175.865Z" fill="#263238"/>
<path d="M172.326 175.811L188.389 171.345C188.389 171.345 176.342 140.834 175.666 138.744C175.176 137.227 171.211 118.717 169.819 110.63C169.819 110.63 171.9 104.728 167.238 95.8125H149.375C149.375 95.8125 150.045 105.056 152.19 110.436C152.19 110.436 153.247 110.452 155.681 111.113C155.681 111.113 161.211 140.523 162.053 143.162C163.873 148.873 172.326 175.811 172.326 175.811Z" fill="#37474F"/>
<path d="M158.939 127.07C158.296 123.66 157.659 120.248 157.02 116.837C156.84 115.874 156.638 114.916 156.438 113.956C156.24 113.005 156.067 112.029 155.792 111.097C155.774 111.037 155.678 111.051 155.682 111.115C155.733 111.985 155.894 112.853 156.009 113.718C156.121 114.559 156.249 115.4 156.392 116.236C156.686 117.955 157.006 119.67 157.332 121.383C157.982 124.802 158.631 128.233 159.426 131.622C159.873 133.53 160.291 135.445 160.765 137.347C160.775 137.388 160.833 137.368 160.826 137.328C160.229 133.903 159.584 130.486 158.939 127.07Z" fill="#263238"/>
<path d="M155.174 107.318C155.415 106.722 155.224 106.035 155.115 105.432C154.977 104.665 154.842 103.897 154.701 103.131C154.382 101.401 154.031 99.6771 153.659 97.958C153.655 97.9404 153.625 97.9449 153.628 97.9629C153.796 99.3385 153.982 100.712 154.182 102.083C154.383 103.461 154.648 104.835 154.818 106.217C154.873 106.665 154.835 107.546 154.187 107.55C153.641 107.553 153.309 106.734 153.133 106.33C152.613 105.133 152.4 103.812 152.135 102.542C151.818 101.02 151.56 99.4869 151.294 97.956C151.285 97.9043 151.2 97.9191 151.203 97.9707C151.295 99.4931 151.493 101 151.739 102.505C151.973 103.935 152.197 105.439 152.799 106.768C153.025 107.267 153.341 107.882 153.917 108.038C154.002 108.061 154.085 108.068 154.166 108.068C154.216 108.525 154.285 108.978 154.379 109.428C154.477 109.893 154.575 110.373 154.742 110.819C154.765 110.88 154.851 110.857 154.848 110.801C154.849 110.801 154.85 110.802 154.851 110.802C154.829 110.334 154.731 109.864 154.642 109.405C154.554 108.95 154.438 108.503 154.303 108.06C154.694 108.001 155.021 107.698 155.174 107.318Z" fill="#263238"/>
<path d="M158.17 111.782C157.281 111.368 156.295 111.061 155.337 110.842C154.367 110.62 153.468 110.531 152.484 110.451C152.448 110.448 152.441 110.509 152.477 110.514C153.431 110.662 157.208 111.591 158.153 111.826C158.179 111.832 158.196 111.793 158.17 111.782Z" fill="#263238"/>
<path d="M181.467 160.627C180.613 158.356 179.758 156.086 178.901 153.816C177.201 149.315 175.452 144.833 173.761 140.328C172.091 135.88 171.377 131.149 170.464 126.497C169.999 124.126 169.54 121.753 169.071 119.383C168.606 117.035 168.045 114.681 167.77 112.3C167.502 109.971 167.851 107.64 167.646 105.311C167.463 103.23 166.902 101.195 166.004 99.3165C165.775 98.8384 165.523 98.3743 165.25 97.9213C165.217 97.868 165.139 97.9176 165.169 97.9721C166.21 99.9188 166.916 102.026 167.232 104.221C167.388 105.309 167.434 106.402 167.405 107.499C167.374 108.675 167.291 109.85 167.347 111.026C167.458 113.376 168.005 115.691 168.454 117.992C168.913 120.34 169.38 122.687 169.842 125.035C170.309 127.406 170.779 129.776 171.242 132.147C171.693 134.456 172.156 136.759 172.904 138.991C173.654 141.231 174.532 143.43 175.369 145.636C176.23 147.905 177.087 150.175 177.955 152.441C179.683 156.953 181.375 161.482 183.181 165.962C183.391 166.484 183.605 167.002 183.833 167.517C183.864 167.585 183.972 167.533 183.95 167.463C183.215 165.154 182.319 162.894 181.467 160.627Z" fill="#263238"/>
<path d="M186.467 168.616C185.999 168.674 185.533 168.813 185.076 168.929C184.615 169.046 184.153 169.16 183.693 169.281C182.79 169.517 181.885 169.749 180.983 169.988C179.146 170.477 177.309 170.968 175.47 171.453C174.436 171.726 173.411 172.036 172.39 172.356C172.351 172.368 172.366 172.426 172.407 172.418C176.134 171.685 179.812 170.653 183.472 169.638C183.995 169.493 184.517 169.343 185.039 169.192C185.53 169.05 186.042 168.925 186.511 168.721C186.576 168.693 186.526 168.608 186.467 168.616Z" fill="#263238"/>
<path d="M143.529 84.4074C143.725 84.4549 144.644 84.6808 145.987 85.0142C146.65 84.2585 147.543 82.8588 147.782 80.6501C147.819 80.284 148.209 82.5214 147.235 85.3233C149.831 85.9646 153.362 86.8346 156.453 87.5656C156.782 86.368 157.141 85.2729 157.141 85.2729C157.053 86.1691 157.066 86.9978 157.125 87.7271C157.547 87.8305 157.963 87.9235 158.36 88.0166C158.686 86.1167 159.733 82.9125 159.733 82.9125C159.508 85.2528 159.833 87.2335 160.12 88.4221C162.087 88.8653 163.39 89.1216 163.327 89.0096C161.106 84.9342 163.723 83.4512 163.543 80.2557C163.325 76.4263 160.346 75.1652 161.038 72.4788C161.595 70.2919 162.756 66.3567 160.163 64.886C160.163 64.886 158.449 61.9058 154.593 62.4822C149.823 63.1911 150.057 70.369 149.451 71.6838C148.586 73.5629 147.493 74.0499 146.292 76.145C145.071 78.2639 145.774 80.006 145.549 81.5767C145.318 83.1454 143.035 84.293 143.529 84.4074Z" fill="#263238"/>
<path d="M163.521 88.5411C163.259 87.8433 163.048 87.1221 162.993 86.4009C162.917 85.6797 163.167 85.0139 163.459 84.3345C163.751 83.6588 164.072 82.9733 164.304 82.239C164.527 81.5059 164.674 80.7159 164.59 79.9233C164.52 79.1324 164.243 78.367 163.838 77.7069C163.441 77.039 162.943 76.4621 162.466 75.8959C161.994 75.3252 161.524 74.7606 161.222 74.1005C160.91 73.4478 160.797 72.7024 160.87 71.957C160.679 72.6795 160.706 73.4773 160.97 74.203C161.229 74.9324 161.672 75.5712 162.118 76.1698C162.564 76.7721 163.018 77.3522 163.366 77.9787C163.712 78.6044 163.95 79.2776 164.002 79.9758C164.057 80.6728 163.96 81.3817 163.754 82.0734C163.557 82.7691 163.269 83.4485 163.012 84.1582C162.886 84.5145 162.764 84.8786 162.692 85.2644C162.617 85.6506 162.628 86.061 162.693 86.4386C162.837 87.1971 163.134 87.9003 163.521 88.5411Z" fill="#263238"/>
<path d="M151.546 64.459C151.019 65.2179 150.691 66.0949 150.365 66.9542C150.055 67.823 149.788 68.7041 149.532 69.5844L149.14 70.8964C149.009 71.3347 148.86 71.7406 148.657 72.126C148.256 72.9025 147.635 73.5192 146.951 74.135C146.616 74.4503 146.274 74.7795 145.972 75.1518C145.669 75.5228 145.403 75.9283 145.191 76.3588C144.99 76.7975 144.824 77.2338 144.693 77.6897C144.56 78.1444 144.48 78.622 144.461 79.0976C144.439 79.5745 144.472 80.0374 144.486 80.4867C144.502 80.9357 144.475 81.3867 144.405 81.8245C144.281 82.6958 143.638 83.451 142.82 83.8577C143.691 83.572 144.447 82.8299 144.684 81.8848C144.799 81.4252 144.853 80.9578 144.873 80.4904C144.894 80.0234 144.877 79.5683 144.923 79.13C145.004 78.2584 145.308 77.3982 145.696 76.6118C145.903 76.2264 146.14 75.8603 146.422 75.5249C146.701 75.187 147.024 74.8812 147.36 74.572C147.692 74.2592 148.037 73.939 148.35 73.5774C148.662 73.2162 148.946 72.8177 149.161 72.3843C149.373 71.9513 149.525 71.488 149.643 71.044C149.769 70.5975 149.876 70.1506 149.983 69.7045C150.2 68.8136 150.404 67.9223 150.645 67.0412C150.875 66.1576 151.138 65.2827 151.546 64.459Z" fill="#263238"/>
<path d="M155.972 80.8209C153.32 84.4691 147.455 93.8207 142.958 94.1561C139.328 94.4267 131.634 87.0303 129.627 85.0394C128.318 83.7413 134.707 75.7205 136.122 77.021C137.949 78.6987 142.442 84.6753 143.404 84.6753C143.94 84.6753 147.152 82.7376 153.385 78.5601C155.806 76.9378 157.556 78.643 155.972 80.8209Z" fill="#FFBE93"/>
<path d="M124.769 81.406C126.051 83.1883 130.099 85.8077 131.319 86.064C132.539 86.3202 137.221 79.586 136.837 78.3663C136.453 77.1461 131.671 71.4795 129.513 70.8776C127.355 70.2757 123.44 79.5594 124.769 81.406Z" fill="#FFBE93"/>
<path d="M125.319 92.8788L126.746 93.3086L143.526 37.5806L142.098 37.1508L125.319 92.8788Z" fill="#A6A6A6"/>
<path d="M142.664 34.0768L144.735 34.7004L145.991 29.0215L144.753 28.6484L142.664 34.0768Z" fill="#DBDBDB"/>
<path d="M118.86 99.5379C122.689 100.691 125.59 98.3157 126.475 95.3735L127.611 91.6011L125.53 90.9746L124.394 94.7466C123.965 96.1726 122.448 98.3477 119.486 97.4559C116.864 96.6662 116.801 93.8012 117.182 92.5371L118.255 88.9726L116.173 88.3457L115.1 91.9102C114.807 92.8832 114.681 94.4703 115.204 96.0066C115.807 97.7786 117.071 98.9996 118.86 99.5379Z" fill="#263238"/>
<path d="M107.34 42.9209C107.34 42.9209 112.656 42.2173 115.535 43.1685C118.405 44.1251 123.092 47.6638 123.092 47.6638C123.092 47.6638 128.45 47.2337 131.44 48.0496C134.433 48.8585 138.322 52.2492 138.322 52.2492C138.322 52.2492 143.437 51.5694 146.379 52.5473C149.323 53.5182 153.546 56.8326 153.546 56.8326C153.546 56.8326 159.408 56.4702 162.336 57.2594C165.261 58.0556 169.305 61.5775 169.305 61.5775C167.38 50.5211 158.894 37.4125 144.128 32.9665C129.362 28.5205 115.043 34.7631 107.34 42.9209Z" fill="#455A64"/>
<path d="M107.34 42.9218C108.717 42.0304 110.107 41.16 111.518 40.3256C112.923 39.4827 114.343 38.6647 115.785 37.8886C118.666 36.3413 121.603 34.8665 124.692 33.8169C126.231 33.2843 127.808 32.8554 129.425 32.7222C131.051 32.5561 132.686 32.4992 134.322 32.4594C135.957 32.4282 137.595 32.4598 139.23 32.5479C140.866 32.6234 142.5 32.7616 144.128 32.9674C140.897 32.3848 137.607 32.1445 134.319 32.1228C132.675 32.1088 131.029 32.1818 129.389 32.327C127.732 32.4512 126.11 32.8751 124.552 33.4069C122.992 33.9493 121.477 34.6008 119.993 35.3109C118.509 36.0223 117.047 36.7771 115.624 37.5987C112.769 39.226 109.996 40.9935 107.34 42.9218Z" fill="#37474F"/>
<path d="M123.098 47.6677C123.688 46.7218 124.304 45.7948 124.962 44.8981C125.608 43.9941 126.285 43.1117 126.998 42.2626C128.431 40.5808 129.957 38.9285 131.758 37.6809C133.573 36.4353 135.638 35.5755 137.72 34.8211C138.763 34.4431 139.824 34.1106 140.894 33.8068C141.961 33.4919 143.04 33.2184 144.127 32.9688C141.92 33.2951 139.743 33.8232 137.613 34.5067C135.489 35.2 133.401 36.0724 131.514 37.3221C131.05 37.6411 130.593 37.99 130.183 38.3721C129.759 38.7411 129.357 39.1335 128.959 39.5296C128.177 40.334 127.425 41.1667 126.738 42.0511C125.364 43.8169 124.121 45.6845 123.098 47.6677Z" fill="#37474F"/>
<path d="M138.324 52.2519C138.894 50.6709 139.418 49.076 139.935 47.4791C140.453 45.8825 140.934 44.2745 141.435 42.673C141.902 41.0613 142.388 39.455 142.838 37.8379L143.506 35.4099C143.713 34.596 143.935 33.7863 144.129 32.9688C143.84 33.758 143.578 34.5555 143.302 35.3484L142.518 37.7412C142.001 39.3381 141.519 40.9453 141.018 42.5476C140.552 44.1597 140.065 45.7657 139.615 47.3827C139.166 49.0002 138.722 50.6188 138.324 52.2519Z" fill="#37474F"/>
<path d="M169.306 61.5802C168.156 58.506 166.82 55.5015 165.338 52.5684C164.605 51.0977 163.803 49.6611 162.959 48.2486C162.113 46.8374 161.209 45.4574 160.208 44.1437C159.202 42.8403 158.084 41.5915 156.771 40.5726C155.484 39.5464 154.152 38.5767 152.773 37.6801C150.02 35.883 147.145 34.2668 144.129 32.9688C145.6 33.6957 147.038 34.4829 148.444 35.3234C149.856 36.1528 151.239 37.0306 152.586 37.9597C153.927 38.8953 155.259 39.8461 156.523 40.8822C157.798 41.8863 158.876 43.1146 159.865 44.4082C161.861 46.9887 163.495 49.8403 165.043 52.7213C165.817 54.1645 166.549 55.6303 167.256 57.1091C167.972 58.5835 168.65 60.0763 169.306 61.5802Z" fill="#37474F"/>
<path d="M153.547 56.8348C153.789 54.6163 153.784 52.3732 153.613 50.142C153.529 49.0256 153.362 47.9161 153.154 46.8136C153.041 46.2638 152.922 45.7152 152.772 45.1728C152.641 44.6275 152.453 44.0847 152.242 43.5627C151.358 41.4787 150.099 39.5984 148.711 37.8477C147.313 36.102 145.789 34.4595 144.129 32.9688C144.897 33.7769 145.646 34.6005 146.361 35.4525C147.086 36.2963 147.787 37.1594 148.448 38.0507C149.767 39.8289 151.014 41.6862 151.84 43.7271C152.653 45.7616 153.013 47.9817 153.278 50.1748C153.405 51.2769 153.481 52.3859 153.521 53.4966C153.576 54.6073 153.578 55.7205 153.547 56.8348Z" fill="#37474F"/>
<path d="M131.439 72.0808C131.818 73.1809 130.305 72.998 130.305 72.998C130.305 72.998 132.42 73.786 132.372 75.071C132.323 76.3096 130.503 76.0242 130.372 76.0058C130.484 76.0484 132.408 76.8233 132.228 78.1095C132.039 79.4465 130.26 78.8466 130.146 78.8073C130.238 78.8807 131.447 79.8708 131.087 80.8171C130.469 82.4428 127.308 79.9955 125.92 80.2316C125.92 80.2316 126.052 82.6301 126.041 82.7006C126.041 82.7006 122.987 80.4342 122.773 78.5437C122.66 77.5474 123.567 77.2452 123.567 77.2452C123.567 77.2452 122.501 76.6232 122.612 75.606C122.669 75.0841 123.556 74.7122 123.556 74.7122C123.556 74.7122 122.724 74.1788 122.878 73.2797C122.999 72.5618 123.87 72.301 123.87 72.301C123.87 72.301 123.309 71.4179 123.671 70.725C124.397 69.3256 130.625 69.7266 131.439 72.0808Z" fill="#FFBE93"/>
<path d="M124.002 72.2396C123.982 72.24 123.977 72.2109 123.998 72.2072C126.079 71.8394 128.477 72.0727 130.389 73.0005C130.452 73.0309 130.43 73.1461 130.354 73.1256C128.2 72.5459 126.243 72.2035 124.002 72.2396Z" fill="#263238"/>
<path d="M123.528 74.6951C123.504 74.6955 123.503 74.6554 123.529 74.6509C125.674 74.2831 128.368 74.6205 130.446 75.9493C130.518 75.9948 130.536 76.1072 130.45 76.0613C129.001 75.2823 125.545 74.6521 123.528 74.6951Z" fill="#263238"/>
<path d="M130.258 78.95C128.216 77.7528 125.996 77.3305 123.654 77.2243C123.623 77.2231 123.628 77.1801 123.654 77.1743C124.814 76.914 126.3 77.137 127.442 77.4088C128.536 77.6692 129.47 78.1235 130.3 78.8787C130.332 78.9078 130.301 78.9755 130.258 78.95Z" fill="#263238"/>
<path d="M130.304 72.9961C130.696 73.1876 131.074 73.4081 131.42 73.6652C131.759 73.9223 132.086 74.2306 132.235 74.6041C132.307 74.7886 132.319 74.9866 132.252 75.1658C132.182 75.347 132.072 75.52 131.924 75.6402C131.631 75.8878 131.189 75.9387 130.816 75.8751L129.876 75.7152L130.703 76.1924C131.065 76.4007 131.417 76.6717 131.689 76.9846C131.961 77.2962 132.15 77.6787 132.097 78.0502C132.05 78.4393 131.799 78.7328 131.416 78.7869C131.04 78.8562 130.598 78.7693 130.218 78.6307L129.155 78.2445L130.029 78.9538C130.265 79.1461 130.494 79.3814 130.675 79.6307C130.854 79.8808 130.994 80.1637 130.999 80.44C131.006 80.7111 130.863 80.9886 130.629 81.1006C130.385 81.2219 130.054 81.2092 129.743 81.1662C129.108 81.0706 128.485 80.8378 127.856 80.6377C127.541 80.5348 127.226 80.431 126.905 80.3429C126.587 80.2609 126.25 80.1711 125.92 80.2293C126.252 80.2059 126.568 80.3289 126.878 80.4302C127.187 80.5417 127.492 80.668 127.798 80.7947C128.409 81.0477 129.027 81.2957 129.697 81.4351C130.03 81.4925 130.394 81.543 130.762 81.39C131.141 81.2293 131.352 80.8205 131.346 80.4364C131.341 80.0444 131.167 79.7082 130.971 79.4212C130.767 79.133 130.535 78.8857 130.262 78.6566L130.074 78.9796C130.521 79.1465 130.981 79.2551 131.488 79.1781C131.737 79.1387 131.998 79.0145 132.176 78.8066C132.357 78.5987 132.446 78.3495 132.477 78.0948C132.539 77.5655 132.27 77.0879 131.96 76.7455C131.641 76.3938 131.274 76.1207 130.863 75.8911L130.75 76.2084C131.228 76.2732 131.733 76.181 132.105 75.8456C132.286 75.6787 132.406 75.4659 132.481 75.2376C132.557 75.0022 132.526 74.7374 132.429 74.5225C132.224 74.0879 131.85 73.8103 131.486 73.5697C131.114 73.3327 130.716 73.1433 130.304 72.9961Z" fill="#263238"/>
<path d="M136.565 77.936C136.565 77.936 131.838 67.5318 129.405 70.7749C128.681 71.7384 126.862 76.5592 127.823 76.9434C129.064 77.4395 130.199 75.569 130.725 74.2816C130.725 74.2816 131.767 77.3074 134.09 77.2103C135.546 77.1496 136.565 77.936 136.565 77.936Z" fill="#FFBE93"/>
<path d="M129.625 70.5195C129.283 70.8496 129.036 71.2653 128.805 71.6786C128.575 72.0952 128.384 72.5322 128.213 72.975C127.879 73.8672 127.575 74.7593 127.397 75.713C127.356 75.9528 127.324 76.1989 127.353 76.469C127.368 76.6027 127.404 76.7503 127.484 76.8815C127.523 76.9475 127.564 77.0008 127.637 77.0656C127.703 77.1181 127.77 77.1595 127.84 77.1853C128.12 77.3017 128.416 77.2747 128.671 77.1927C128.926 77.1013 129.145 76.9574 129.34 76.7958C129.728 76.467 130.014 76.0623 130.256 75.6445C130.504 75.2276 130.697 74.788 130.878 74.3461L130.569 74.3334C130.702 74.6843 130.867 75.0012 131.057 75.3116C131.247 75.6199 131.466 75.9106 131.714 76.1742C131.965 76.4358 132.253 76.6626 132.568 76.8389C132.881 77.0176 133.227 77.1337 133.579 77.1804C133.237 77.0861 132.915 76.9385 132.628 76.7409C132.34 76.5449 132.092 76.2985 131.87 76.0344C131.647 75.7696 131.454 75.4805 131.29 75.1759C131.126 74.8733 130.983 74.549 130.883 74.2317L130.756 73.8278L130.574 74.219C130.378 74.6404 130.183 75.0636 129.936 75.4502C129.694 75.8372 129.426 76.2157 129.087 76.4928C128.761 76.7655 128.328 76.9594 127.991 76.8204C127.685 76.7241 127.7 76.2062 127.767 75.77C127.833 75.3174 127.948 74.8627 128.063 74.4092C128.179 73.9549 128.301 73.5023 128.446 73.057C128.751 72.1784 129.056 71.276 129.625 70.5195Z" fill="#263238"/>
<path d="M137.015 77.4707L130.613 86.9126C130.613 86.9126 139.578 94.6567 143.225 94.6288C146.871 94.6009 152.252 86.3747 154.999 82.8302C157.906 79.0795 157.214 75.8688 152.502 78.7323C147.783 81.6002 143.712 84.1861 143.527 84.2201C143.342 84.2537 137.015 77.4707 137.015 77.4707Z" fill="#9FB063"/>
<path d="M154.945 77.9325C154.945 78.0842 154.822 78.2031 154.67 78.2031C154.522 78.2031 154.399 78.0842 154.399 77.9325C154.399 77.8915 154.408 77.8505 154.428 77.8136C154.563 77.7685 154.695 77.7357 154.822 77.707C154.896 77.7562 154.945 77.8423 154.945 77.9325ZM133.64 83.7525C133.49 83.7525 133.369 83.8743 133.369 84.0243C133.369 84.1744 133.49 84.2957 133.64 84.2957C133.79 84.2957 133.912 84.174 133.912 84.0243C133.912 83.8743 133.79 83.7525 133.64 83.7525ZM137.847 83.7525C137.696 83.7525 137.575 83.8743 137.575 84.0243C137.575 84.1744 137.696 84.2957 137.847 84.2957C137.997 84.2957 138.118 84.174 138.118 84.0243C138.118 83.8743 137.997 83.7525 137.847 83.7525ZM142.053 83.7525C141.903 83.7525 141.781 83.8743 141.781 84.0243C141.781 84.1744 141.903 84.2957 142.053 84.2957C142.203 84.2957 142.325 84.174 142.325 84.0243C142.325 83.8743 142.203 83.7525 142.053 83.7525ZM146.259 83.7525C146.109 83.7525 145.987 83.8743 145.987 84.0243C145.987 84.1744 146.109 84.2957 146.259 84.2957C146.409 84.2957 146.53 84.174 146.53 84.0243C146.53 83.8743 146.409 83.7525 146.259 83.7525ZM150.465 83.7525C150.315 83.7525 150.193 83.8743 150.193 84.0243C150.193 84.1744 150.315 84.2957 150.465 84.2957C150.615 84.2957 150.737 84.174 150.737 84.0243C150.737 83.8743 150.615 83.7525 150.465 83.7525ZM135.744 80.607C135.594 80.607 135.472 80.7287 135.472 80.8788C135.472 81.0289 135.594 81.1502 135.744 81.1502C135.894 81.1502 136.015 81.0284 136.015 80.8788C136.015 80.7283 135.894 80.607 135.744 80.607ZM139.967 80.6057H139.951C139.799 80.6057 139.676 80.7287 139.676 80.8804C139.676 81.028 139.799 81.151 139.951 81.151C140.099 81.151 140.222 81.028 140.222 80.8804V80.8763C140.136 80.7861 140.049 80.6959 139.967 80.6057ZM152.568 80.607C152.418 80.607 152.296 80.7287 152.296 80.8788C152.296 81.0289 152.418 81.1502 152.568 81.1502C152.718 81.1502 152.84 81.0284 152.84 80.8788C152.84 80.7283 152.718 80.607 152.568 80.607ZM131.537 86.6979C131.387 86.6979 131.266 86.8197 131.266 86.9693C131.266 87.1194 131.387 87.2412 131.537 87.2412C131.688 87.2412 131.809 87.1194 131.809 86.9693C131.809 86.8197 131.688 86.6979 131.537 86.6979ZM137.847 89.8439C137.696 89.8439 137.575 89.9656 137.575 90.1153C137.575 90.2653 137.696 90.3871 137.847 90.3871C137.997 90.3871 138.118 90.2653 138.118 90.1153C138.118 89.9656 137.997 89.8439 137.847 89.8439ZM142.053 89.8439C141.903 89.8439 141.781 89.9656 141.781 90.1153C141.781 90.2653 141.903 90.3871 142.053 90.3871C142.203 90.3871 142.325 90.2653 142.325 90.1153C142.325 89.9656 142.203 89.8439 142.053 89.8439ZM146.259 89.8439C146.109 89.8439 145.987 89.9656 145.987 90.1153C145.987 90.2653 146.109 90.3871 146.259 90.3871C146.409 90.3871 146.53 90.2653 146.53 90.1153C146.53 89.9656 146.409 89.8439 146.259 89.8439ZM135.744 86.6979C135.594 86.6979 135.472 86.8197 135.472 86.9693C135.472 87.1194 135.594 87.2412 135.744 87.2412C135.894 87.2412 136.015 87.1194 136.015 86.9693C136.015 86.8197 135.894 86.6979 135.744 86.6979ZM139.95 86.6979C139.8 86.6979 139.678 86.8197 139.678 86.9693C139.678 87.1194 139.8 87.2412 139.95 87.2412C140.1 87.2412 140.222 87.1194 140.222 86.9693C140.221 86.8197 140.099 86.6979 139.95 86.6979ZM144.156 86.6979C144.006 86.6979 143.884 86.8197 143.884 86.9693C143.884 87.1194 144.006 87.2412 144.156 87.2412C144.305 87.2412 144.427 87.1194 144.427 86.9693C144.427 86.8197 144.306 86.6979 144.156 86.6979ZM148.362 86.6979C148.212 86.6979 148.09 86.8197 148.09 86.9693C148.09 87.1194 148.212 87.2412 148.362 87.2412C148.512 87.2412 148.633 87.1194 148.633 86.9693C148.634 86.8197 148.512 86.6979 148.362 86.6979ZM139.95 92.7893C139.8 92.7893 139.678 92.9111 139.678 93.0611C139.678 93.2112 139.8 93.3325 139.95 93.3325C140.1 93.3325 140.222 93.2108 140.222 93.0611C140.221 92.9107 140.099 92.7893 139.95 92.7893ZM144.156 92.7893C144.006 92.7893 143.884 92.9111 143.884 93.0611C143.884 93.2112 144.006 93.3325 144.156 93.3325C144.305 93.3325 144.427 93.2108 144.427 93.0611C144.427 92.9107 144.306 92.7893 144.156 92.7893Z" fill="white"/>
<path d="M136.034 84.0788C136.522 83.3757 138.423 80.5475 138.814 79.7997C138.825 79.7775 138.787 79.7595 138.773 79.7759C138.205 80.4102 136.22 83.2043 135.735 83.9091C134.765 85.317 133.766 86.7196 132.926 88.2145C132.908 88.2453 132.954 88.2809 132.977 88.253C134.085 86.9345 135.052 85.4933 136.034 84.0788Z" fill="#263238"/>
<path opacity="0.1" d="M155 82.8349C152.253 86.3773 146.869 94.606 143.224 94.6306C142.462 94.6347 141.47 94.3026 140.375 93.7737L154.782 77.7181C157.349 77.1318 157.345 79.805 155 82.8349Z" fill="black"/>
<path d="M148.454 99.5173L169.622 100.257C169.622 100.257 164.371 82.5818 159.961 77.8701C157.955 75.7262 155.993 76.0538 154.331 77.433C153.917 77.7779 148.775 84.303 148.34 86.5773C147.955 88.5871 149.589 90.8179 149.589 90.8179L148.454 99.5173Z" fill="#9FB063"/>
<path d="M155.835 90.6871C154.937 90.6174 154.03 90.5776 153.129 90.6416C152.682 90.6736 152.238 90.726 151.794 90.7879C151.572 90.8187 151.351 90.8421 151.128 90.8646C150.9 90.8876 150.656 90.9032 150.428 90.8691C150.408 90.8663 150.403 90.8966 150.423 90.9007C150.642 90.947 150.853 90.9905 151.077 91.0073C151.29 91.0233 151.506 91.0163 151.72 91.0032C152.174 90.9753 152.628 90.9261 153.081 90.8933C153.998 90.8273 154.914 90.7617 155.833 90.7621C155.876 90.7621 155.878 90.6904 155.835 90.6871Z" fill="#263238"/>
<path d="M157.882 91.869C157.17 91.6631 156.437 91.4885 155.706 91.3647C155.338 91.3023 154.97 91.2617 154.598 91.231C154.421 91.2162 154.243 91.2048 154.065 91.1953C153.87 91.1847 153.673 91.2007 153.477 91.1875C153.457 91.1863 153.451 91.2171 153.472 91.2191C153.656 91.2371 153.837 91.2855 154.02 91.3142C154.203 91.3429 154.387 91.3704 154.57 91.3991C154.937 91.4565 155.304 91.518 155.671 91.5721C156.408 91.6804 157.14 91.7956 157.871 91.9292C157.912 91.9366 157.919 91.8796 157.882 91.869Z" fill="#263238"/>
<path d="M154.942 77.9316C154.942 78.0816 154.82 78.2034 154.67 78.2034C154.52 78.2034 154.398 78.0816 154.398 77.9316C154.398 77.7815 154.52 77.6602 154.67 77.6602C154.82 77.6602 154.942 77.7819 154.942 77.9316ZM158.876 77.6602C158.726 77.6602 158.604 77.7819 158.604 77.9316C158.604 78.0816 158.726 78.2034 158.876 78.2034C159.026 78.2034 159.148 78.0816 159.148 77.9316C159.148 77.7819 159.026 77.6602 158.876 77.6602ZM150.464 83.7511C150.314 83.7511 150.192 83.8729 150.192 84.0229C150.192 84.173 150.314 84.2944 150.464 84.2944C150.614 84.2944 150.736 84.1726 150.736 84.0229C150.735 83.8729 150.614 83.7511 150.464 83.7511ZM154.67 83.7511C154.52 83.7511 154.398 83.8729 154.398 84.0229C154.398 84.173 154.52 84.2944 154.67 84.2944C154.82 84.2944 154.942 84.1726 154.942 84.0229C154.942 83.8729 154.82 83.7511 154.67 83.7511ZM158.876 83.7511C158.726 83.7511 158.604 83.8729 158.604 84.0229C158.604 84.173 158.726 84.2944 158.876 84.2944C159.026 84.2944 159.148 84.1726 159.148 84.0229C159.148 83.8729 159.026 83.7511 158.876 83.7511ZM163.082 83.7511C162.932 83.7511 162.811 83.8729 162.811 84.0229C162.811 84.173 162.932 84.2944 163.082 84.2944C163.233 84.2944 163.354 84.1726 163.354 84.0229C163.354 83.8729 163.232 83.7511 163.082 83.7511ZM152.567 80.6056C152.417 80.6056 152.295 80.7274 152.295 80.8774C152.295 81.0275 152.417 81.1488 152.567 81.1488C152.717 81.1488 152.839 81.0271 152.839 80.8774C152.839 80.727 152.717 80.6056 152.567 80.6056ZM156.773 80.6056C156.623 80.6056 156.501 80.7274 156.501 80.8774C156.501 81.0275 156.623 81.1488 156.773 81.1488C156.923 81.1488 157.045 81.0271 157.045 80.8774C157.045 80.727 156.923 80.6056 156.773 80.6056ZM160.979 80.6056C160.829 80.6056 160.707 80.7274 160.707 80.8774C160.707 81.0275 160.829 81.1488 160.979 81.1488C161.129 81.1488 161.251 81.0271 161.251 80.8774C161.251 80.727 161.129 80.6056 160.979 80.6056ZM150.464 89.8425C150.314 89.8425 150.192 89.9643 150.192 90.1139C150.192 90.264 150.314 90.3857 150.464 90.3857C150.614 90.3857 150.736 90.264 150.736 90.1139C150.735 89.9643 150.614 89.8425 150.464 89.8425ZM154.67 89.8425C154.52 89.8425 154.398 89.9643 154.398 90.1139C154.398 90.264 154.52 90.3857 154.67 90.3857C154.82 90.3857 154.942 90.264 154.942 90.1139C154.942 89.9643 154.82 89.8425 154.67 89.8425ZM158.876 89.8425C158.726 89.8425 158.604 89.9643 158.604 90.1139C158.604 90.264 158.726 90.3857 158.876 90.3857C159.026 90.3857 159.148 90.264 159.148 90.1139C159.148 89.9643 159.026 89.8425 158.876 89.8425ZM163.082 89.8425C162.932 89.8425 162.811 89.9643 162.811 90.1139C162.811 90.264 162.932 90.3857 163.082 90.3857C163.233 90.3857 163.354 90.264 163.354 90.1139C163.354 89.9643 163.232 89.8425 163.082 89.8425ZM148.359 86.697C148.347 86.697 148.334 86.697 148.322 86.7011C148.293 86.8774 148.285 87.0537 148.285 87.2259C148.306 87.2341 148.334 87.2382 148.359 87.2382C148.511 87.2382 148.634 87.1193 148.634 86.9676C148.634 86.82 148.511 86.697 148.359 86.697ZM152.567 86.6966C152.417 86.6966 152.295 86.8183 152.295 86.968C152.295 87.118 152.417 87.2398 152.567 87.2398C152.717 87.2398 152.839 87.118 152.839 86.968C152.839 86.8183 152.717 86.6966 152.567 86.6966ZM156.773 86.6966C156.623 86.6966 156.501 86.8183 156.501 86.968C156.501 87.118 156.623 87.2398 156.773 87.2398C156.923 87.2398 157.045 87.118 157.045 86.968C157.045 86.8183 156.923 86.6966 156.773 86.6966ZM160.979 86.6966C160.829 86.6966 160.707 86.8183 160.707 86.968C160.707 87.118 160.829 87.2398 160.979 87.2398C161.129 87.2398 161.251 87.118 161.251 86.968C161.251 86.8183 161.129 86.6966 160.979 86.6966ZM164.919 86.9225C164.915 86.9348 164.915 86.9512 164.915 86.9676C164.915 87.0619 164.96 87.1398 165.03 87.189C164.989 87.1029 164.956 87.0127 164.919 86.9225ZM150.464 95.9334C150.314 95.9334 150.192 96.0552 150.192 96.2053C150.192 96.3553 150.314 96.4771 150.464 96.4771C150.614 96.4771 150.736 96.3553 150.736 96.2053C150.736 96.0552 150.614 95.9334 150.464 95.9334ZM154.67 95.9334C154.52 95.9334 154.398 96.0552 154.398 96.2053C154.398 96.3553 154.52 96.4771 154.67 96.4771C154.82 96.4771 154.942 96.3553 154.942 96.2053C154.942 96.0552 154.82 95.9334 154.67 95.9334ZM158.876 95.9334C158.726 95.9334 158.604 96.0552 158.604 96.2053C158.604 96.3553 158.726 96.4771 158.876 96.4771C159.026 96.4771 159.148 96.3553 159.148 96.2053C159.148 96.0552 159.026 95.9334 158.876 95.9334ZM163.082 95.9334C162.932 95.9334 162.811 96.0552 162.811 96.2053C162.811 96.3553 162.932 96.4771 163.082 96.4771C163.233 96.4771 163.354 96.3553 163.354 96.2053C163.354 96.0552 163.232 95.9334 163.082 95.9334ZM167.289 95.9334C167.139 95.9334 167.017 96.0552 167.017 96.2053C167.017 96.3553 167.139 96.4771 167.289 96.4771C167.439 96.4771 167.56 96.3553 167.56 96.2053C167.56 96.0552 167.438 95.9334 167.289 95.9334ZM152.567 92.7879C152.417 92.7879 152.295 92.9097 152.295 93.0598C152.295 93.2098 152.417 93.3312 152.567 93.3312C152.717 93.3312 152.839 93.2094 152.839 93.0598C152.839 92.9093 152.717 92.7879 152.567 92.7879ZM156.773 92.7879C156.623 92.7879 156.501 92.9097 156.501 93.0598C156.501 93.2098 156.623 93.3312 156.773 93.3312C156.923 93.3312 157.045 93.2094 157.045 93.0598C157.045 92.9093 156.923 92.7879 156.773 92.7879ZM160.979 92.7879C160.829 92.7879 160.707 92.9097 160.707 93.0598C160.707 93.2098 160.829 93.3312 160.979 93.3312C161.129 93.3312 161.251 93.2094 161.251 93.0598C161.251 92.9093 161.129 92.7879 160.979 92.7879ZM165.185 92.7879C165.035 92.7879 164.914 92.9097 164.914 93.0598C164.914 93.2098 165.035 93.3312 165.185 93.3312C165.335 93.3312 165.457 93.2094 165.457 93.0598C165.457 92.9093 165.335 92.7879 165.185 92.7879ZM148.531 98.9396L148.474 99.3988C148.568 99.3537 148.634 99.2594 148.634 99.1487C148.634 99.0626 148.593 98.9888 148.531 98.9396ZM152.567 98.8789C152.417 98.8789 152.295 99.0007 152.295 99.1507C152.295 99.3008 152.417 99.4225 152.567 99.4225C152.717 99.4225 152.839 99.3008 152.839 99.1507C152.839 99.0007 152.717 98.8789 152.567 98.8789ZM156.773 98.8789C156.623 98.8789 156.501 99.0007 156.501 99.1507C156.501 99.3008 156.623 99.4225 156.773 99.4225C156.923 99.4225 157.045 99.3008 157.045 99.1507C157.045 99.0007 156.923 98.8789 156.773 98.8789ZM160.979 98.8789C160.829 98.8789 160.707 99.0007 160.707 99.1507C160.707 99.3008 160.829 99.4225 160.979 99.4225C161.129 99.4225 161.251 99.3008 161.251 99.1507C161.251 99.0007 161.129 98.8789 160.979 98.8789ZM165.185 98.8789C165.035 98.8789 164.914 99.0007 164.914 99.1507C164.914 99.3008 165.035 99.4225 165.185 99.4225C165.335 99.4225 165.457 99.3008 165.457 99.1507C165.457 99.0007 165.335 98.8789 165.185 98.8789ZM169.22 98.9396C169.158 98.9888 169.121 99.0667 169.121 99.1487C169.121 99.2922 169.228 99.4111 169.371 99.4234C169.326 99.2799 169.277 99.1159 169.22 98.9396Z" fill="white"/>
<path d="M151.02 81.7687C150.567 82.3751 150.159 83.0053 149.772 83.6523C149.93 83.2861 150.078 82.9167 150.208 82.5375C150.213 82.5219 150.188 82.5124 150.181 82.5272C150.046 82.7953 149.909 83.0627 149.796 83.3411C149.695 83.5907 149.597 83.8404 149.504 84.093C149.501 84.0975 149.498 84.102 149.495 84.1065C149.061 84.8704 148.553 85.6424 148.335 86.5034C148.141 87.2717 148.176 88.0958 148.384 88.8572C148.493 89.2541 148.653 89.6337 148.842 89.9986C149.005 90.3135 149.189 90.6448 149.444 90.8978C149.302 91.7034 149.209 92.5214 149.104 93.3324C149.001 94.1183 148.859 94.9244 148.856 95.7185C148.856 95.769 148.928 95.7739 148.941 95.728C148.957 95.671 148.975 95.6144 148.994 95.5578C148.997 95.5468 148.992 95.5377 148.986 95.5308C149.159 94.7997 149.234 94.0339 149.335 93.2926C149.439 92.5222 149.634 90.9142 149.635 90.9052C149.638 90.8683 149.268 90.2315 149.123 89.9253C148.946 89.5526 148.805 89.1606 148.698 88.7621C148.495 88.0048 148.44 87.2143 148.652 86.4526C148.877 85.6403 149.329 84.863 149.738 84.1311C150.173 83.3517 150.622 82.5776 151.071 81.8064C151.089 81.7757 151.042 81.7392 151.02 81.7687Z" fill="#263238"/>
<path d="M154.058 89.9011L142.371 96.9824L151.589 112.196L163.276 105.114L154.058 89.9011Z" fill="#263238"/>
<path d="M145.959 96.0502L151.494 92.6875L150.475 91.0102L144.94 94.3729L145.959 96.0502Z" fill="#A6A6A6"/>
<path d="M146.188 93.6068L146.87 93.1927L146.4 92.419L148.056 91.4129L148.526 92.1861L149.208 91.7724L148.351 90.3633L145.322 92.2034L146.188 93.6068Z" fill="#A6A6A6"/>
<path d="M160.268 78.0877C165.008 82.0094 174.599 91.6948 172.945 94.7612C170.227 99.8029 162.137 105.578 159.513 106.944C158.369 107.54 152.124 99.7607 153.102 98.7878C154.275 97.6201 163.175 92.2872 162.945 91.4742C162.814 91.0134 160.847 87.3648 158.781 82.5682C156.385 77.0041 158.009 76.2181 160.268 78.0877Z" fill="#FFBE93"/>
<path d="M143.857 103.301C143.952 104.395 145.061 104.641 145.061 104.641C145.061 104.641 144.64 105.41 144.866 106.221C145.124 107.15 146.693 107.153 146.693 107.153C146.693 107.153 146.429 108.019 146.753 108.852C147.089 109.716 148.673 109.945 148.673 109.945C148.673 109.945 148.869 110.888 149.666 111.406C151.028 112.293 153.28 111.248 154.718 110.597C156.155 109.947 159.625 106.756 160.348 106.214L156.254 96.9492C156.254 96.9492 148.976 98.0308 147.394 99.0353C146.061 99.8815 143.751 102.074 143.857 103.301Z" fill="#FFBE93"/>
<path d="M145.06 104.462C146.261 103.223 147.763 102.405 149.217 101.505C149.249 101.485 149.28 101.535 149.248 101.555C147.792 102.434 146.529 103.591 145.112 104.526C145.073 104.552 145.028 104.496 145.06 104.462Z" fill="#263238"/>
<path d="M146.669 107.016C146.949 106.744 147.318 106.565 147.657 106.378C148.022 106.176 148.391 105.981 148.762 105.791C149.506 105.411 150.258 105.048 151.021 104.708C151.054 104.693 151.086 104.741 151.052 104.759C150.311 105.139 149.576 105.529 148.852 105.94C148.49 106.145 148.13 106.354 147.77 106.565C147.436 106.761 147.1 106.996 146.729 107.114C146.673 107.132 146.626 107.057 146.669 107.016Z" fill="#263238"/>
<path d="M148.702 109.927C148.936 109.68 149.321 109.546 149.623 109.399C149.965 109.233 150.307 109.065 150.647 108.896C151.328 108.556 152.009 108.217 152.678 107.853C152.711 107.835 152.743 107.885 152.709 107.904C152.031 108.276 151.359 108.657 150.678 109.024C150.344 109.204 150.008 109.382 149.672 109.557C149.385 109.707 149.045 109.927 148.718 109.961C148.7 109.964 148.691 109.939 148.702 109.927Z" fill="#263238"/>
<path d="M155.959 96.5209L162.664 105.632C162.664 105.632 172.42 98.1248 173.384 94.2806C174.249 90.8288 163.393 80.3242 160.989 78.3476C158.585 76.371 156.688 76.4026 157.891 80.4062C159.094 84.4099 162.596 91.3467 162.625 91.4623C162.653 91.5783 155.959 96.5209 155.959 96.5209Z" fill="#9FB063"/>
<path d="M159.147 77.9316C159.147 78.0816 159.025 78.2034 158.875 78.2034C158.725 78.2034 158.604 78.0816 158.604 77.9316C158.604 77.7815 158.725 77.6602 158.875 77.6602C159.025 77.6602 159.147 77.7819 159.147 77.9316ZM163.082 83.7511C162.932 83.7511 162.81 83.8729 162.81 84.0229C162.81 84.173 162.932 84.2944 163.082 84.2944C163.232 84.2944 163.354 84.1726 163.354 84.0229C163.353 83.8729 163.232 83.7511 163.082 83.7511ZM160.979 80.6056C160.829 80.6056 160.707 80.7274 160.707 80.8774C160.707 81.0275 160.829 81.1488 160.979 81.1488C161.129 81.1488 161.25 81.0271 161.25 80.8774C161.25 80.727 161.129 80.6056 160.979 80.6056ZM163.082 89.8425C162.932 89.8425 162.81 89.9643 162.81 90.1139C162.81 90.264 162.932 90.3857 163.082 90.3857C163.232 90.3857 163.354 90.264 163.354 90.1139C163.353 89.9643 163.232 89.8425 163.082 89.8425ZM167.288 89.8425C167.138 89.8425 167.016 89.9643 167.016 90.1139C167.016 90.264 167.138 90.3857 167.288 90.3857C167.438 90.3857 167.56 90.264 167.56 90.1139C167.56 89.9643 167.438 89.8425 167.288 89.8425ZM171.494 89.8425C171.344 89.8425 171.222 89.9643 171.222 90.1139C171.222 90.264 171.344 90.3857 171.494 90.3857C171.644 90.3857 171.766 90.264 171.766 90.1139C171.766 89.9643 171.644 89.8425 171.494 89.8425ZM160.979 86.6966C160.829 86.6966 160.707 86.8183 160.707 86.968C160.707 87.118 160.829 87.2398 160.979 87.2398C161.129 87.2398 161.25 87.118 161.25 86.968C161.25 86.8183 161.129 86.6966 160.979 86.6966ZM165.185 86.6966C165.035 86.6966 164.913 86.8183 164.913 86.968C164.913 87.118 165.035 87.2398 165.185 87.2398C165.335 87.2398 165.457 87.118 165.457 86.968C165.457 86.8183 165.335 86.6966 165.185 86.6966ZM169.596 87.1439C169.547 87.2013 169.473 87.2382 169.391 87.2382C169.24 87.2382 169.121 87.1193 169.121 86.9676C169.121 86.8692 169.174 86.779 169.256 86.7339L169.596 87.1439ZM158.876 95.9334C158.726 95.9334 158.604 96.0552 158.604 96.2053C158.604 96.3553 158.726 96.4771 158.876 96.4771C159.026 96.4771 159.148 96.3553 159.148 96.2053C159.148 96.0552 159.026 95.9334 158.876 95.9334ZM163.082 95.9334C162.932 95.9334 162.81 96.0552 162.81 96.2053C162.81 96.3553 162.932 96.4771 163.082 96.4771C163.232 96.4771 163.354 96.3553 163.354 96.2053C163.354 96.0552 163.232 95.9334 163.082 95.9334ZM167.288 95.9334C167.138 95.9334 167.016 96.0552 167.016 96.2053C167.016 96.3553 167.138 96.4771 167.288 96.4771C167.438 96.4771 167.56 96.3553 167.56 96.2053C167.56 96.0552 167.438 95.9334 167.288 95.9334ZM171.494 95.9334C171.344 95.9334 171.222 96.0552 171.222 96.2053C171.222 96.3553 171.344 96.4771 171.494 96.4771C171.644 96.4771 171.766 96.3553 171.766 96.2053C171.766 96.0552 171.644 95.9334 171.494 95.9334ZM160.979 92.7879C160.829 92.7879 160.707 92.9097 160.707 93.0598C160.707 93.2098 160.829 93.3312 160.979 93.3312C161.129 93.3312 161.25 93.2094 161.25 93.0598C161.25 92.9093 161.129 92.7879 160.979 92.7879ZM165.185 92.7879C165.035 92.7879 164.913 92.9097 164.913 93.0598C164.913 93.2098 165.035 93.3312 165.185 93.3312C165.335 93.3312 165.457 93.2094 165.457 93.0598C165.457 92.9093 165.335 92.7879 165.185 92.7879ZM169.391 92.7879C169.241 92.7879 169.119 92.9097 169.119 93.0598C169.119 93.2098 169.241 93.3312 169.391 93.3312C169.541 93.3312 169.663 93.2094 169.663 93.0598C169.662 92.9093 169.541 92.7879 169.391 92.7879ZM163.082 102.025C162.932 102.025 162.81 102.147 162.81 102.297C162.81 102.447 162.932 102.568 163.082 102.568C163.232 102.568 163.354 102.447 163.354 102.297C163.353 102.147 163.232 102.025 163.082 102.025ZM160.979 98.8789C160.829 98.8789 160.707 99.0007 160.707 99.1507C160.707 99.3008 160.829 99.4225 160.979 99.4225C161.129 99.4225 161.25 99.3008 161.25 99.1507C161.25 99.0007 161.129 98.8789 160.979 98.8789ZM165.185 98.8789C165.035 98.8789 164.913 99.0007 164.913 99.1507C164.913 99.3008 165.035 99.4225 165.185 99.4225C165.335 99.4225 165.457 99.3008 165.457 99.1507C165.457 99.0007 165.335 98.8789 165.185 98.8789ZM169.391 98.8789C169.241 98.8789 169.119 99.0007 169.119 99.1507C169.119 99.3008 169.241 99.4225 169.391 99.4225C169.541 99.4225 169.663 99.3008 169.663 99.1507C169.663 99.0007 169.541 98.8789 169.391 98.8789Z" fill="white"/>
<path d="M161.49 99.2013C160.995 98.5027 158.98 95.7524 158.41 95.1308C158.393 95.1124 158.363 95.1419 158.373 95.1612C158.777 95.9107 160.732 98.7282 161.229 99.4244C162.224 100.816 163.205 102.232 164.325 103.531C164.348 103.558 164.397 103.528 164.379 103.496C163.515 102.006 162.488 100.606 161.49 99.2013Z" fill="#263238"/>
<path d="M160.708 87.1584C160.033 85.6894 159.39 84.2052 158.742 82.7243C158.73 82.6964 158.683 82.7165 158.693 82.7456C158.983 83.6029 159.302 84.4471 159.64 85.2835C159.387 84.871 159.146 84.4512 158.912 84.0281C158.894 83.9965 158.851 84.0248 158.865 84.056C159.116 84.6316 159.444 85.1675 159.803 85.6808C160.013 86.1875 160.228 86.6927 160.452 87.1945C160.779 87.9268 162.3 91.1285 162.496 91.4802C161.309 92.2465 160.3 93.0809 159.159 93.9152C158.601 94.3236 158.047 94.736 157.498 95.1563C156.956 95.5708 156.276 95.9763 155.812 96.4425C155.783 96.4716 155.938 96.6036 155.997 96.6745C156.023 96.7057 156.083 96.686 156.061 96.6507C156.061 96.6507 156.015 96.5765 156.002 96.5474C156.288 96.39 157.389 95.5642 157.675 95.3564C158.234 94.9496 158.79 94.5405 159.347 94.1317C160.478 93.3019 162.826 91.5786 162.819 91.5594C162.697 91.2096 161.049 87.903 160.708 87.1584Z" fill="#263238"/>
<path d="M158.149 77.3087C158.065 77.6867 156.294 80.1536 154.57 80.0921C154.009 80.0712 153.987 77.002 153.987 77.002L153.933 76.7757L153.188 73.6088L156.89 71.1742L157.426 70.8516C157.426 70.8516 157.572 71.7314 157.744 72.829C157.752 72.8798 157.761 72.9307 157.769 72.9852C157.78 73.0471 157.792 73.1053 157.8 73.1636C157.827 73.3271 157.855 73.4944 157.879 73.6613C157.898 73.7884 157.917 73.9118 157.932 74.0459C157.95 74.1799 157.966 74.3107 157.984 74.4448C158.136 75.7724 158.183 77.1483 158.149 77.3087Z" fill="#FFBE93"/>
<path d="M157.744 72.8286C156.863 75.3657 154.856 76.4181 153.933 76.7756L153.188 73.6088L156.89 71.1742L157.426 70.8516C157.425 70.8512 157.572 71.731 157.744 72.8286Z" fill="#263238"/>
<path d="M148.487 67.7464C146.859 73.2191 149.953 74.8123 151.133 75.1621C152.205 75.4794 155.894 76.4244 158.079 71.1494C160.264 65.8739 158.234 63.3869 155.821 62.5312C153.409 61.6751 150.115 62.2733 148.487 67.7464Z" fill="#FFBE93"/>
<path d="M149.538 67.0312C149.671 67.0517 149.798 67.048 149.932 67.0546C150.083 67.0619 150.202 67.0833 150.338 67.0017C150.41 66.9578 150.438 66.8368 150.403 66.7626C150.319 66.5892 150.137 66.5343 149.955 66.5179C149.758 66.5002 149.602 66.5371 149.438 66.6478C149.279 66.7548 149.362 67.0041 149.538 67.0312Z" fill="#263238"/>
<path d="M153.317 68.0528C153.192 68.0023 153.085 67.9351 152.966 67.8724C152.832 67.8019 152.719 67.7592 152.643 67.6202C152.603 67.5456 152.641 67.4271 152.709 67.3812C152.869 67.2742 153.055 67.3201 153.22 67.3984C153.398 67.4837 153.514 67.5948 153.598 67.7736C153.68 67.947 153.482 68.1192 153.317 68.0528Z" fill="#263238"/>
<path d="M152.076 69.1649C152.083 69.1513 152.1 69.1911 152.095 69.2063C151.972 69.5753 151.893 70.0185 152.193 70.2428C152.202 70.2497 152.195 70.2682 152.183 70.2629C151.789 70.082 151.9 69.4945 152.076 69.1649Z" fill="#263238"/>
<path d="M152.522 68.8765C153.135 69.0101 152.823 70.2258 152.255 70.102C151.697 69.9798 152.009 68.7641 152.522 68.8765Z" fill="#263238"/>
<path d="M152.746 69.0016C152.835 69.0975 152.908 69.2459 153.032 69.2914C153.177 69.3443 153.321 69.2455 153.449 69.1479C153.463 69.1377 153.47 69.1512 153.466 69.1672C153.41 69.4009 153.259 69.617 153.001 69.5875C152.765 69.5608 152.654 69.3124 152.656 69.0635C152.656 69.0172 152.71 68.9626 152.746 69.0016Z" fill="#263238"/>
<path d="M150.002 68.5495C150.002 68.5344 149.968 68.5602 149.964 68.5758C149.882 68.9558 149.725 69.3777 149.352 69.4179C149.341 69.4191 149.337 69.4384 149.35 69.4396C149.781 69.4847 149.985 68.923 150.002 68.5495Z" fill="#263238"/>
<path d="M149.764 68.0705C149.168 67.8737 148.818 69.0787 149.37 69.2611C149.912 69.4407 150.263 68.2353 149.764 68.0705Z" fill="#263238"/>
<path d="M149.489 68.0773C149.375 68.1134 149.247 68.2024 149.131 68.1765C148.997 68.147 148.937 67.9883 148.889 67.8387C148.884 67.8231 148.872 67.8305 148.867 67.8465C148.793 68.0748 148.8 68.3372 149.008 68.4455C149.198 68.5443 149.404 68.3897 149.526 68.1765C149.549 68.1368 149.535 68.0625 149.489 68.0773Z" fill="#263238"/>
<path d="M151.326 72.2673C151.217 72.3374 151.1 72.4411 150.96 72.4239C150.825 72.4075 150.682 72.3153 150.57 72.2427C150.559 72.2353 150.545 72.2456 150.55 72.2587C150.618 72.4256 150.807 72.5605 150.99 72.5662C151.169 72.5719 151.285 72.4411 151.36 72.2923C151.37 72.2714 151.342 72.2571 151.326 72.2673Z" fill="#263238"/>
<path d="M150.037 71.2634C150.037 71.2634 150.175 71.6914 150.481 71.9325C150.593 72.0219 150.726 72.0862 150.883 72.0965C151.206 72.1186 151.306 71.8484 151.33 71.5971C151.35 71.3905 151.317 71.1953 151.317 71.1953C151.317 71.1953 150.747 71.4548 150.037 71.2634Z" fill="#263238"/>
<path d="M150.482 71.9341C150.595 72.0235 150.727 72.0879 150.884 72.0981C151.208 72.1203 151.307 71.8501 151.331 71.5988C151.002 71.5241 150.614 71.634 150.482 71.9341Z" fill="#FF97B8"/>
<path d="M150.121 70.4887C150.121 70.4887 149.892 71.0287 149.821 71.2931C149.814 71.3177 149.875 71.3469 149.964 71.3764C149.968 71.3788 149.969 71.3813 149.974 71.3797C150.421 71.5785 150.935 71.5437 151.322 71.239C151.347 71.2181 151.321 71.1816 151.292 71.1919C150.874 71.3538 150.471 71.3161 150.055 71.2116C150.057 71.1333 150.478 70.3001 150.437 70.2858C150.296 70.2345 149.984 70.2559 149.8 70.26C150.243 69.1218 150.865 68.064 151.29 66.9238C151.304 66.8828 151.248 66.8541 151.226 66.8881C150.495 67.9504 149.956 69.2493 149.467 70.4129C149.405 70.5572 150.003 70.5051 150.121 70.4887Z" fill="#263238"/>
<path d="M157.734 71.0181C156.422 70.7491 156.875 68.6856 156.875 68.6856C156.875 68.6856 155.417 68.2325 155.822 65.8106C155.822 65.8106 154.797 67.105 152.72 66.9685C152.28 66.9394 153.946 66.1407 153.946 66.1407C153.946 66.1407 151.901 67.3239 148.849 66.0542C148.633 65.9644 149.83 62.7143 152.569 62.1051C155.307 61.4958 157.416 62.6266 158.622 64.5298C158.622 64.5298 160.269 65.7635 160.103 67.538C159.937 69.3129 158.244 71.1226 157.734 71.0181Z" fill="#263238"/>
<path d="M157.486 73.1696C157.386 73.1856 157.297 73.1893 157.214 73.1831C157.114 73.1807 157.027 73.1626 156.948 73.136C156.825 73.0982 156.726 73.0363 156.647 72.9654C156.574 72.9031 156.515 72.8293 156.47 72.7592C156.353 72.5751 156.322 72.4017 156.322 72.4017L156.939 70.9712C156.939 70.9712 158.52 69.4767 159.221 70.0749C159.925 70.6731 158.488 73.0154 157.486 73.1696Z" fill="#FFBE93"/>
<path d="M158.794 70.7352C158.809 70.7369 158.808 70.7586 158.794 70.7611C158.087 70.8914 157.62 71.4252 157.25 72.0029C157.494 71.8016 157.785 71.7233 158.061 72.021C158.075 72.0366 158.054 72.0599 158.036 72.0521C157.781 71.9398 157.579 71.9468 157.354 72.1235C157.195 72.2485 157.069 72.4224 156.941 72.5782C156.899 72.6302 156.8 72.5773 156.836 72.5146C156.839 72.5101 156.842 72.5052 156.845 72.5007C156.999 71.6663 157.884 70.6356 158.794 70.7352Z" fill="#263238"/>
<path d="M157.457 72.9187C157.4 73.0532 157.245 73.1159 157.11 73.0589C156.976 73.0019 156.913 72.8465 156.971 72.712C157.027 72.5776 157.183 72.5148 157.317 72.5718C157.452 72.6292 157.515 72.7842 157.457 72.9187Z" fill="white"/>
<path d="M158.072 72.6389C158.031 72.734 157.922 72.7783 157.827 72.7381C157.732 72.6975 157.687 72.5881 157.728 72.493C157.768 72.3978 157.878 72.3536 157.973 72.3937C158.068 72.4343 158.113 72.5438 158.072 72.6389Z" fill="white"/>
<path d="M154.005 77.6768L152.145 80.8477L154.439 80.0527L156.254 81.9387L158.148 77.3086L154.465 79.9695L154.005 77.6768Z" fill="white"/>
</svg>
