<svg width="99" height="105" viewBox="0 0 99 105" fill="none" xmlns="http://www.w3.org/2000/svg">
<g opacity="0.3">
<path d="M101.627 45.7413C101.019 46.2131 90.2833 52.2625 90.2833 65.714C90.2833 81.2728 103.944 86.7771 104.353 86.9134C104.29 87.2489 102.183 94.4517 97.1506 101.791C92.6633 108.249 87.9768 114.697 80.8474 114.697C73.718 114.697 71.8832 110.556 63.653 110.556C55.6324 110.556 52.7807 114.833 46.2594 114.833C39.7381 114.833 35.1879 108.857 29.9562 101.518C23.8962 92.9 19 79.5115 19 66.8044C19 46.4227 32.2523 35.6133 45.2948 35.6133C52.225 35.6133 58.0019 40.1636 62.3529 40.1636C66.4943 40.1636 72.9526 35.3407 80.8369 35.3407C83.8249 35.3407 94.5609 35.6133 101.627 45.7413ZM77.094 26.7121C80.3546 22.8434 82.6612 17.4754 82.6612 12.1074C82.6612 11.363 82.5983 10.6081 82.462 10C77.1569 10.1992 70.8453 13.5332 67.0394 17.9472C64.0514 21.3441 61.2625 26.7121 61.2625 32.1535C61.2625 32.9713 61.3988 33.7891 61.4617 34.0512C61.7972 34.1141 62.3424 34.1875 62.8876 34.1875C67.6475 34.1875 73.6341 31.0002 77.094 26.7121Z" fill="white"/>
</g>
</svg>
