<svg width="78" height="79" viewBox="0 0 78 79" fill="none" xmlns="http://www.w3.org/2000/svg">
<path d="M76 2.5H2V76.5H76V2.5Z" fill="#F7DF1E"/>
<path d="M51.7093 60.3129C53.1998 62.7467 55.1391 64.5356 58.5689 64.5356C61.4502 64.5356 63.2908 63.0955 63.2908 61.1057C63.2908 58.7213 61.3997 57.8767 58.2283 56.4895L56.4899 55.7437C51.472 53.6059 48.1385 50.9278 48.1385 45.2662C48.1385 40.051 52.1122 36.0808 58.3223 36.0808C62.7435 36.0808 65.922 37.6195 68.2124 41.6484L62.7975 45.1253C61.6053 42.9875 60.3191 42.1453 58.3223 42.1453C56.2855 42.1453 54.9946 43.4374 54.9946 45.1253C54.9946 47.2114 56.2867 48.0559 59.2702 49.348L61.0086 50.0926C66.9169 52.6263 70.2527 55.2092 70.2527 61.0165C70.2527 67.2771 65.3347 70.7069 58.7299 70.7069C52.2719 70.7069 48.0997 67.6295 46.0582 63.5959L51.7093 60.3129ZM27.1448 60.9154C28.2372 62.8535 29.2309 64.4921 31.62 64.4921C33.9046 64.4921 35.3459 63.5982 35.3459 60.1226V36.4778H42.2995V60.2166C42.2995 67.4169 38.078 70.694 31.916 70.694C26.3484 70.694 23.1241 67.8127 21.4844 64.3423L27.1448 60.9154Z" fill="black"/>
</svg>
