<svg width="40" height="40" viewBox="0 0 40 40" fill="none" xmlns="http://www.w3.org/2000/svg">
<path fill-rule="evenodd" clip-rule="evenodd" d="M37.3507 10.1441C37.3637 10.1921 37.3703 10.2416 37.3704 10.2913V18.0186C37.3705 18.1178 37.3443 18.2152 37.2946 18.3011C37.2449 18.3869 37.1734 18.4581 37.0873 18.5074L30.6017 22.2415V29.6427C30.6017 29.8441 30.4946 30.03 30.32 30.1315L16.7817 37.925C16.7507 37.9426 16.7169 37.9538 16.6831 37.9658C16.6704 37.97 16.6584 37.9778 16.6451 37.9813C16.5504 38.0062 16.4509 38.0062 16.3563 37.9813C16.3408 37.9771 16.3267 37.9686 16.3119 37.963C16.2809 37.9517 16.2485 37.9419 16.219 37.925L2.68351 30.1315C2.59752 30.0821 2.52608 30.0109 2.47637 29.9251C2.42667 29.8393 2.40046 29.7419 2.40039 29.6427V6.46079C2.40039 6.41008 2.40743 6.36078 2.42011 6.31289C2.42434 6.29669 2.4342 6.2819 2.43983 6.2657C2.45039 6.23612 2.46025 6.20584 2.47575 6.17837C2.48631 6.16006 2.50181 6.14527 2.51448 6.12837C2.53068 6.10583 2.54547 6.08259 2.56449 6.06287C2.58068 6.04667 2.60181 6.0347 2.62012 6.02061C2.64055 6.00371 2.65886 5.9854 2.6821 5.97202L9.45089 2.07527C9.53658 2.02595 9.63372 2 9.7326 2C9.83147 2 9.92861 2.02595 10.0143 2.07527L16.7824 5.97202H16.7838C16.8063 5.9861 16.8253 6.00371 16.8458 6.01991C16.8641 6.034 16.8845 6.04667 16.9007 6.06217C16.9204 6.08259 16.9345 6.10583 16.9514 6.12837C16.9634 6.14527 16.9796 6.16006 16.9894 6.17837C17.0056 6.20654 17.0148 6.23612 17.0261 6.2657C17.0317 6.2819 17.0416 6.29669 17.0458 6.31359C17.0588 6.36159 17.0654 6.41107 17.0655 6.46079V20.94L22.7053 17.6926V10.2906C22.7053 10.2413 22.7124 10.1913 22.7251 10.1441C22.73 10.1272 22.7391 10.1125 22.7448 10.0963C22.756 10.0667 22.7659 10.0364 22.7814 10.0089C22.792 9.99061 22.8075 9.97582 22.8194 9.95892C22.8363 9.93638 22.8504 9.91314 22.8701 9.89342C22.8863 9.87722 22.9068 9.86525 22.9251 9.85116C22.9462 9.83426 22.9645 9.81595 22.987 9.80257L29.7565 5.90582C29.8422 5.85644 29.9394 5.83044 30.0382 5.83044C30.1371 5.83044 30.2343 5.85644 30.32 5.90582L37.088 9.80257C37.112 9.81666 37.1303 9.83426 37.1514 9.85046C37.169 9.86455 37.1894 9.87722 37.2057 9.89272C37.2254 9.91314 37.2395 9.93638 37.2564 9.95892C37.269 9.97582 37.2845 9.99061 37.2944 10.0089C37.3106 10.0364 37.3197 10.0667 37.331 10.0963C37.3373 10.1125 37.3465 10.1272 37.3507 10.1441ZM36.2422 17.6926V11.2668L33.8737 12.6302L30.6017 14.5142V20.94L36.2429 17.6926H36.2422ZM29.4741 29.3166V22.8866L26.2556 24.7247L17.0648 29.9702V36.4608L29.4741 29.3166ZM3.52864 7.43621V29.3166L15.9366 36.4601V29.9709L9.45441 26.3023L9.45229 26.3009L9.44948 26.2995C9.42764 26.2868 9.40933 26.2685 9.38891 26.253C9.3713 26.2389 9.35088 26.2277 9.33538 26.2122L9.33398 26.2101C9.31566 26.1925 9.30299 26.1706 9.28749 26.1509C9.27341 26.1319 9.25651 26.1157 9.24524 26.096L9.24453 26.0939C9.23186 26.0727 9.22411 26.0474 9.21495 26.0234C9.2058 26.0023 9.19382 25.9826 9.18819 25.96C9.18115 25.9333 9.17974 25.9044 9.17692 25.8769C9.17411 25.8558 9.16847 25.8347 9.16847 25.8136V25.8121V10.6836L5.89711 8.79898L3.52864 7.43621ZM9.7333 3.21478L4.09417 6.46079L9.73189 9.70679L15.3703 6.46008L9.73189 3.21478H9.7333ZM12.6659 23.4725L15.9373 21.5893V7.43621L13.5688 8.79968L10.2967 10.6836V24.8367L12.6659 23.4725ZM30.0382 7.04533L24.3998 10.2913L30.0382 13.5373L35.676 10.2906L30.0382 7.04533ZM29.4741 14.5142L26.2021 12.6302L23.8336 11.2668V17.6926L27.1049 19.5758L29.4741 20.94V14.5142ZM16.5 28.9948L24.7703 24.2733L28.9044 21.914L23.2702 18.6701L16.7831 22.4049L10.8707 25.8086L16.5 28.9948Z" fill="#FF2D20"/>
</svg>
