<svg width="41" height="40" viewBox="0 0 41 40" fill="none" xmlns="http://www.w3.org/2000/svg">
<path d="M37.1654 19.9993V28.3327C37.1654 33.3327 33.832 36.666 28.832 36.666H12.1654C7.16536 36.666 3.83203 33.3327 3.83203 28.3327V19.9993C3.83203 15.466 6.56536 12.2993 10.8154 11.766C11.2487 11.6993 11.6987 11.666 12.1654 11.666H28.832C29.2654 11.666 29.682 11.6827 30.082 11.7493C34.382 12.2493 37.1654 15.4327 37.1654 19.9993Z" stroke="#292D32" stroke-width="2" stroke-linecap="round" stroke-linejoin="round"/>
<path d="M30.087 11.7506C29.687 11.684 29.2703 11.6673 28.837 11.6673H12.1703C11.7036 11.6673 11.2536 11.7007 10.8203 11.7673C11.0536 11.3007 11.387 10.8673 11.787 10.4673L17.2036 5.03398C19.487 2.76732 23.187 2.76732 25.4703 5.03398L28.387 7.98402C29.4536 9.03402 30.0203 10.3673 30.087 11.7506Z" stroke="#292D32" stroke-width="2" stroke-linecap="round" stroke-linejoin="round"/>
<path d="M37.1654 20.834H32.1654C30.332 20.834 28.832 22.334 28.832 24.1673C28.832 26.0007 30.332 27.5007 32.1654 27.5007H37.1654" stroke="#292D32" stroke-width="2" stroke-linecap="round" stroke-linejoin="round"/>
</svg>
