<svg width="44" height="44" viewBox="0 0 44 44" fill="none" xmlns="http://www.w3.org/2000/svg">
<path d="M21.9997 0.332031C10.0613 0.332031 0.333008 10.0604 0.333008 21.9987C0.333008 33.937 10.0613 43.6654 21.9997 43.6654C33.938 43.6654 43.6663 33.937 43.6663 21.9987C43.6663 10.0604 33.938 0.332031 21.9997 0.332031ZM28.0447 23.147L20.3963 30.7954C20.0713 31.1204 19.6597 31.272 19.248 31.272C18.8363 31.272 18.4247 31.1204 18.0997 30.7954C17.4713 30.167 17.4713 29.127 18.0997 28.4987L24.5997 21.9987L18.0997 15.4987C17.4713 14.8704 17.4713 13.8304 18.0997 13.202C18.728 12.5737 19.768 12.5737 20.3963 13.202L28.0447 20.8504C28.6947 21.4787 28.6947 22.5187 28.0447 23.147Z" fill="#222222"/>
</svg>
