<svg width="102" height="102" viewBox="0 0 102 102" fill="none" xmlns="http://www.w3.org/2000/svg">
<g opacity="0.3">
<path d="M73.5078 45.957H92.0158V49.3731H84.6739V67.3448H81.0027V49.3731H73.5078V45.957Z" fill="white"/>
<path d="M43.0685 45.957V49.3731H28.2331V54.8686H40.1637V58.2847H28.2331V63.9287H43.0685V67.3448H24.5621V49.3731H24.5605V45.957H43.0685Z" fill="white"/>
<path d="M52.3101 45.9648H47.5059L64.7135 67.3526H69.5317L60.9268 56.6661L69.5179 45.9812L64.7135 45.9886L58.5215 53.6788L52.3101 45.9648Z" fill="white"/>
<path d="M57.24 61.2452L54.8341 58.2539L47.4922 67.3719H52.3101L57.24 61.2452Z" fill="white"/>
<path fill-rule="evenodd" clip-rule="evenodd" d="M24.6906 67.3459L7.45983 45.9492H2.87109V67.3369H6.54209V50.5208L20.0789 67.3459H24.6906Z" fill="white"/>
<path d="M92.8419 67.2155C92.5731 67.2155 92.3444 67.1224 92.1529 66.9361C91.9614 66.7498 91.8668 66.5243 91.8692 66.2572C91.8668 65.9973 91.9614 65.7743 92.1529 65.588C92.3444 65.4017 92.5731 65.3086 92.8419 65.3086C93.1006 65.3086 93.3268 65.4017 93.5183 65.588C93.7125 65.7743 93.8093 65.9973 93.812 66.2572C93.8093 66.4336 93.7645 66.5954 93.675 66.74C93.583 66.8871 93.4663 67.0023 93.3193 67.0856C93.175 67.1714 93.0159 67.2155 92.8419 67.2155Z" fill="white"/>
<path d="M99.1066 58.2031H100.733V64.4704C100.731 65.0464 100.606 65.5391 100.363 65.9533C100.117 66.3676 99.7757 66.6837 99.338 66.9068C98.9027 67.1273 98.3927 67.2401 97.8132 67.2401C97.2832 67.2401 96.8083 67.1445 96.3854 66.9582C95.9626 66.772 95.6268 66.4926 95.3806 66.1249C95.1317 65.7572 95.0098 65.2989 95.0098 64.7499H96.6392C96.6416 64.9901 96.6964 65.1984 96.8008 65.3724C96.9051 65.5464 97.0494 65.6788 97.2336 65.7719C97.42 65.8651 97.6341 65.9117 97.8752 65.9117C98.1365 65.9117 98.3604 65.8577 98.5419 65.7474C98.7233 65.6396 98.8628 65.4778 98.9599 65.2621C99.0543 65.0489 99.1041 64.7842 99.1066 64.4704V58.2031Z" fill="white"/>
</g>
</svg>
