<svg width="73" height="124" viewBox="0 0 73 124" fill="none" xmlns="http://www.w3.org/2000/svg">
<g opacity="0.3" clip-path="url(#clip0_5536_79428)">
<path d="M41.5 61.9987C41.5 50.585 50.7881 41.332 62.2458 41.332C73.7033 41.332 82.9917 50.585 82.9917 61.9987C82.9917 73.4127 73.7033 82.6654 62.2458 82.6654C50.7881 82.6654 41.5 73.4127 41.5 61.9987Z" fill="#1ABCFE"/>
<path d="M0.0078125 103.335C0.0078125 91.9209 9.29595 82.668 20.7537 82.668H41.4995V103.335C41.4995 114.749 32.2114 124.001 20.7537 124.001C9.29595 124.001 0.0078125 114.749 0.0078125 103.335Z" fill="#0ACF83"/>
<path d="M41.5 0V41.333H62.2458C73.7036 41.333 82.9917 32.0804 82.9917 20.6664C82.9917 9.2524 73.7036 0 62.2458 0H41.5Z" fill="#FF7262"/>
<path d="M0.0078125 20.6667C0.0078125 32.0806 9.29595 41.3333 20.7537 41.3333H41.4995V0H20.7537C9.29595 0 0.0078125 9.25298 0.0078125 20.6667Z" fill="#F24E1E"/>
<path d="M0.0078125 61.9987C0.0078125 73.4127 9.29595 82.6654 20.7537 82.6654H41.4995V41.332H20.7537C9.29595 41.332 0.0078125 50.585 0.0078125 61.9987Z" fill="#A259FF"/>
</g>
<defs>
<clipPath id="clip0_5536_79428">
<rect width="83" height="124" fill="white"/>
</clipPath>
</defs>
</svg>
