<svg width="102" height="102" viewBox="0 0 102 102" fill="none" xmlns="http://www.w3.org/2000/svg">
<g opacity="0.3">
<path d="M7.96094 56.0003C7.96094 75.0157 19.0119 91.4487 35.0367 99.2361L12.1203 36.4492C9.45464 42.4239 7.96094 49.0357 7.96094 56.0003Z" fill="#21759B"/>
<path d="M88.4348 53.5713C88.4348 47.6342 86.3021 43.5225 84.4729 40.3222C82.0376 36.365 79.755 33.0138 79.755 29.0566C79.755 24.6405 83.1044 20.5298 87.8223 20.5298C88.0353 20.5298 88.2373 20.5563 88.4448 20.5681C79.8976 12.7378 68.5102 7.95703 56.003 7.95703C39.2195 7.95703 24.4534 16.568 15.8633 29.6106C16.9904 29.6444 18.0526 29.6682 18.9549 29.6682C23.9799 29.6682 31.7583 29.0584 31.7583 29.0584C34.348 28.9058 34.6534 32.7094 32.0664 33.0156C32.0664 33.0156 29.4638 33.3219 26.5678 33.4736L44.0626 85.5096L54.576 53.979L47.0911 33.4718C44.5041 33.32 42.0533 33.0138 42.0533 33.0138C39.4645 32.8621 39.768 28.904 42.3568 29.0566C42.3568 29.0566 50.2906 29.6663 55.0112 29.6663C60.0353 29.6663 67.8146 29.0566 67.8146 29.0566C70.4062 28.904 70.7106 32.7076 68.1226 33.0138C68.1226 33.0138 65.5146 33.32 62.6241 33.4718L79.9854 85.1137L84.7773 69.1012C86.8542 62.4565 88.4348 57.6839 88.4348 53.5713Z" fill="#21759B"/>
<path d="M56.8457 60.2031L42.4316 102.087C46.7354 103.352 51.2869 104.044 56.0029 104.044C61.5974 104.044 66.9625 103.077 71.9564 101.321C71.8275 101.115 71.7105 100.897 71.6145 100.659L56.8457 60.2031Z" fill="#21759B"/>
<path d="M98.1543 32.9492C98.3609 34.4794 98.4779 36.1221 98.4779 37.8891C98.4779 42.7641 97.5674 48.2442 94.825 55.0964L80.1504 97.5231C94.4329 89.1946 104.04 73.7214 104.04 55.9986C104.04 47.6463 101.907 39.7923 98.1543 32.9492Z" fill="#21759B"/>
<path d="M56.0018 0C25.1232 0 0 25.1208 0 55.9986C0 86.8801 25.1232 112 56.0018 112C86.8795 112 112.006 86.8801 112.006 55.9986C112.005 25.1208 86.8795 0 56.0018 0ZM56.0018 109.433C26.5392 109.433 2.56781 85.4623 2.56781 55.9986C2.56781 26.5367 26.5383 2.56775 56.0018 2.56775C85.4635 2.56775 109.433 26.5367 109.433 55.9986C109.433 85.4623 85.4635 109.433 56.0018 109.433Z" fill="#21759B"/>
</g>
</svg>
