<svg width="118" height="111" viewBox="0 0 118 111" fill="none" xmlns="http://www.w3.org/2000/svg">
<g opacity="0.3">
<path d="M63.2897 74.1106C68.8744 74.1106 73.4016 69.5833 73.4016 63.9987C73.4016 58.414 68.8744 53.8867 63.2897 53.8867C57.705 53.8867 53.1777 58.414 53.1777 63.9987C53.1777 69.5833 57.705 74.1106 63.2897 74.1106Z" fill="#61DAFB"/>
<path fill-rule="evenodd" clip-rule="evenodd" d="M14.9474 57.7666C12.5066 59.9699 11.4971 62.0805 11.4971 63.9999C11.4971 65.9193 12.5066 68.0299 14.9474 70.2332C17.3879 72.4363 21.0578 74.5334 25.8027 76.3451C35.2755 79.9619 48.5285 82.2507 63.29 82.2507C78.0515 82.2507 91.3046 79.9619 100.777 76.3451C105.522 74.5334 109.192 72.4363 111.633 70.2332C114.073 68.0299 115.083 65.9193 115.083 63.9999C115.083 62.0805 114.073 59.9699 111.633 57.7666C109.192 55.5635 105.522 53.4664 100.777 51.6547C91.3046 48.0379 78.0515 45.7491 63.29 45.7491C48.5285 45.7491 35.2755 48.0379 25.8027 51.6547C21.0578 53.4664 17.3879 55.5635 14.9474 57.7666ZM24.0432 47.0466C34.2084 43.1653 48.085 40.8164 63.29 40.8164C78.4951 40.8164 92.3716 43.1653 102.537 47.0466C107.611 48.984 111.887 51.3511 114.938 54.1051C117.989 56.8589 120.016 60.1985 120.016 63.9999C120.016 67.8013 117.989 71.1409 114.938 73.8947C111.887 76.6487 107.611 79.0158 102.537 80.9532C92.3716 84.8345 78.4951 87.1834 63.29 87.1834C48.085 87.1834 34.2084 84.8345 24.0432 80.9532C18.9691 79.0158 14.6929 76.6487 11.6421 73.8947C8.59154 71.1409 6.56445 67.8013 6.56445 63.9999C6.56445 60.1985 8.59154 56.8589 11.6421 54.1051C14.6929 51.3511 18.9691 48.984 24.0432 47.0466Z" fill="#61DAFB"/>
<path fill-rule="evenodd" clip-rule="evenodd" d="M44.5161 19.0162C41.3876 18.0041 39.055 18.1851 37.3927 19.1448C35.7304 20.1045 34.4074 22.0341 33.7197 25.2495C33.032 28.4646 33.0508 32.6914 33.8543 37.7064C35.4584 47.7185 40.1028 60.3404 47.4835 73.1242C54.8643 85.908 63.473 96.2411 71.3416 102.636C75.283 105.84 78.9341 107.969 82.0623 108.981C85.1908 109.994 87.5234 109.812 89.1857 108.853C90.8479 107.893 92.171 105.964 92.8587 102.748C93.5464 99.533 93.5276 95.3062 92.7241 90.2912C91.12 80.2791 86.4756 67.6572 79.0949 54.8734C71.7141 42.0895 63.1054 31.7564 55.2367 25.3612C51.2954 22.1579 47.6443 20.0282 44.5161 19.0162ZM58.3478 21.5334C66.7917 28.3961 75.7642 39.2391 83.3667 52.407C90.9692 65.575 95.8733 78.7669 97.5946 89.5109C98.4539 94.8739 98.542 99.7607 97.6823 103.78C96.8227 107.799 94.9441 111.224 91.652 113.125C88.3598 115.025 84.4542 114.94 80.544 113.675C76.6335 112.41 72.4455 109.89 68.2306 106.464C59.7867 99.6015 50.8142 88.7585 43.2117 75.5905C35.6092 62.4226 30.7051 49.2307 28.9838 38.4867C28.1245 33.1237 28.0364 28.2369 28.8961 24.2178C29.7557 20.199 31.6343 16.7737 34.9264 14.873C38.2186 12.9723 42.1242 13.058 46.0344 14.323C49.9449 15.5881 54.1329 18.1077 58.3478 21.5334Z" fill="#61DAFB"/>
<path fill-rule="evenodd" clip-rule="evenodd" d="M92.8597 25.2496C92.172 22.0342 90.8489 20.1046 89.1866 19.1449C87.5244 18.1852 85.1918 18.0042 82.0633 19.0163C78.9351 20.0282 75.284 22.158 71.3426 25.3613C63.4739 31.7565 54.8652 42.0896 47.4845 54.8735C40.1037 67.6573 35.4594 80.2792 33.8553 90.2913C33.0518 95.3063 33.033 99.5331 33.7206 102.748C34.4084 105.964 35.7314 107.893 37.3937 108.853C39.056 109.813 41.3886 109.994 44.5171 108.982C47.6453 107.97 51.2963 105.84 55.2377 102.636C63.1064 96.2412 71.7151 85.9081 79.0959 73.1243C86.4766 60.3405 91.121 47.7186 92.7251 37.7065C93.5285 32.6915 93.5474 28.4647 92.8597 25.2496ZM97.5956 38.4868C95.8743 49.2308 90.9702 62.4227 83.3677 75.5906C75.7651 88.7586 66.7927 99.6016 58.3488 106.464C54.1339 109.89 49.9458 112.41 46.0354 113.675C42.1252 114.94 38.2195 115.025 34.9274 113.125C31.6352 111.224 29.7567 107.799 28.8971 103.78C28.0374 99.7608 28.1255 94.874 28.9847 89.511C30.7061 78.767 35.6101 65.5751 43.2127 52.4071C50.8152 39.2392 59.7877 28.3962 68.2316 21.5335C72.4465 18.1078 76.6345 15.5882 80.545 14.3231C84.4552 13.0581 88.3608 12.9724 91.653 14.8731C94.9451 16.7738 96.8237 20.1991 97.6833 24.2179C98.5429 28.237 98.4548 33.1238 97.5956 38.4868Z" fill="#61DAFB"/>
</g>
</svg>
