<svg width="102" height="102" viewBox="0 0 102 102" fill="none" xmlns="http://www.w3.org/2000/svg">
<g opacity="0.3">
<path fill-rule="evenodd" clip-rule="evenodd" d="M107.551 26.9091C107.589 27.0507 107.609 27.1968 107.609 27.3435V50.1512C107.609 50.4439 107.532 50.7315 107.385 50.9848C107.238 51.2381 107.027 51.4482 106.773 51.5938L87.6305 62.6151V84.4604C87.6305 85.0549 87.3146 85.6036 86.7991 85.903L46.8399 108.906C46.7485 108.958 46.6487 108.991 46.5489 109.027C46.5115 109.039 46.4762 109.062 46.4367 109.072C46.1573 109.146 45.8637 109.146 45.5844 109.072C45.5387 109.06 45.4971 109.035 45.4534 109.018C45.362 108.985 45.2663 108.956 45.179 108.906L5.22822 85.903C4.97443 85.7572 4.76355 85.5471 4.61684 85.2938C4.47013 85.0405 4.39278 84.753 4.39258 84.4604V16.0374C4.39258 15.8877 4.41337 15.7422 4.45078 15.6009C4.46325 15.5531 4.49236 15.5094 4.50899 15.4616C4.54017 15.3743 4.56927 15.2849 4.615 15.2038C4.64618 15.1498 4.69191 15.1061 4.72933 15.0562C4.77714 14.9897 4.82079 14.9211 4.87692 14.8629C4.92473 14.8151 4.98709 14.7798 5.04114 14.7382C5.10142 14.6883 5.15547 14.6343 5.22406 14.5948L25.2026 3.09325C25.4555 2.9477 25.7422 2.87109 26.0341 2.87109C26.3259 2.87109 26.6126 2.9477 26.8656 3.09325L46.842 14.5948H46.8462C46.9127 14.6363 46.9688 14.6883 47.0291 14.7361C47.0831 14.7777 47.1434 14.8151 47.1912 14.8608C47.2494 14.9211 47.291 14.9897 47.3409 15.0562C47.3762 15.1061 47.424 15.1498 47.4531 15.2038C47.501 15.287 47.528 15.3743 47.5612 15.4616C47.5779 15.5094 47.607 15.5531 47.6194 15.603C47.6577 15.7446 47.6773 15.8907 47.6776 16.0374V58.7737L64.324 49.1887V27.3414C64.324 27.1959 64.3448 27.0484 64.3822 26.9091C64.3967 26.8592 64.4238 26.8155 64.4404 26.7677C64.4737 26.6804 64.5028 26.591 64.5485 26.51C64.5797 26.4559 64.6254 26.4123 64.6607 26.3624C64.7106 26.2959 64.7522 26.2273 64.8104 26.1691C64.8582 26.1212 64.9185 26.0859 64.9725 26.0443C65.0349 25.9944 65.089 25.9404 65.1555 25.9009L85.1361 14.3994C85.3889 14.2536 85.6757 14.1769 85.9676 14.1769C86.2594 14.1769 86.5462 14.2536 86.7991 14.3994L106.775 25.9009C106.846 25.9425 106.9 25.9944 106.963 26.0423C107.015 26.0838 107.075 26.1212 107.123 26.167C107.181 26.2273 107.222 26.2959 107.272 26.3624C107.31 26.4123 107.355 26.4559 107.385 26.51C107.432 26.591 107.459 26.6804 107.493 26.7677C107.511 26.8155 107.538 26.8592 107.551 26.9091ZM104.279 49.1887V30.2225L97.2882 34.2469L87.6305 39.8075V58.7737L104.281 49.1887H104.279ZM84.3025 83.4979V64.5192L74.8028 69.9447L47.6756 85.427V104.584L84.3025 83.4979ZM7.72268 18.9164V83.4979L44.3455 104.582V85.429L25.213 74.601L25.2067 74.5969L25.1984 74.5927C25.134 74.5553 25.0799 74.5012 25.0197 74.4555C24.9677 74.4139 24.9074 74.3807 24.8617 74.3349L24.8575 74.3287C24.8035 74.2767 24.7661 74.2123 24.7203 74.1541C24.6788 74.098 24.6289 74.0502 24.5956 73.992L24.5935 73.9857C24.5561 73.9233 24.5332 73.8485 24.5062 73.7778C24.4792 73.7155 24.4439 73.6573 24.4272 73.5908C24.4064 73.5118 24.4023 73.4265 24.394 73.3455C24.3857 73.2831 24.369 73.2207 24.369 73.1584V73.1542V28.5014L14.7134 22.9387L7.72268 18.9164ZM26.0362 6.45661L9.39189 16.0374L26.032 25.6182L42.6742 16.0353L26.032 6.45661H26.0362ZM34.6919 66.2487L44.3475 60.6903V18.9164L37.3568 22.9408L27.6991 28.5014V70.2752L34.6919 66.2487ZM85.9676 17.7627L69.3254 27.3435L85.9676 36.9243L102.608 27.3414L85.9676 17.7627ZM84.3025 39.8075L74.6448 34.2469L67.6541 30.2225V49.1887L77.3097 54.7472L84.3025 58.7737V39.8075ZM46.0084 82.5479L70.4188 68.6122L82.6208 61.6485L65.9911 52.074L46.8441 63.0974L29.3933 73.1438L46.0084 82.5479Z" fill="#FF2D20"/>
</g>
</svg>
