<svg width="32" height="32" viewBox="0 0 32 32" fill="none" xmlns="http://www.w3.org/2000/svg">
<rect x="0.791667" y="0.791667" width="30.4167" height="30.4167" rx="5.54167" stroke="#4E4E4E" stroke-width="1.58333"/>
<path d="M7.16676 10.2597C6.72193 9.84074 6.5 9.32244 6.5 8.70573C6.5 8.08902 6.72193 7.54733 7.16676 7.1284C7.61159 6.70947 8.18419 6.5 8.88651 6.5C9.58882 6.5 10.1384 6.70947 10.5823 7.1284C11.0271 7.54733 11.249 8.07344 11.249 8.70573C11.249 9.33802 11.0271 9.84074 10.5823 10.2597C10.1374 10.6786 9.57249 10.8881 8.88651 10.8881C8.20052 10.8881 7.61159 10.6786 7.16676 10.2597ZM10.8743 12.6622V25.5H6.87469V12.6622H10.8743Z" fill="#4E4E4E"/>
<path d="M24.1924 13.9302C25.0638 14.8898 25.5 16.208 25.5 17.8857V25.2745H21.7002V18.4069C21.7002 17.5613 21.484 16.9036 21.0517 16.435C20.6194 15.9664 20.0381 15.7326 19.3079 15.7326C18.5778 15.7326 17.9965 15.9674 17.5641 16.435C17.1318 16.9036 16.9156 17.5613 16.9156 18.4069V25.2745H13.0938V12.6276H16.9156V14.3053C17.3028 13.7461 17.8245 13.3047 18.4807 12.9793C19.1359 12.6549 19.8738 12.4922 20.6933 12.4922C22.1537 12.4922 23.32 12.9725 24.1914 13.9312L24.1924 13.9302Z" fill="#4E4E4E"/>
</svg>
