<svg width="24" height="24" viewBox="0 0 24 24" fill="none" xmlns="http://www.w3.org/2000/svg">
<rect x="0.5" y="0.5" width="23" height="23" rx="3.5" stroke="#222222"/>
<path d="M6.42111 8.37453C6.14017 8.10994 6 7.78259 6 7.39309C6 7.00359 6.14017 6.66147 6.42111 6.39688C6.70206 6.13229 7.0637 6 7.50727 6C7.95083 6 8.29793 6.13229 8.57827 6.39688C8.85921 6.66147 8.99938 6.99375 8.99938 7.39309C8.99938 7.79244 8.85921 8.10994 8.57827 8.37453C8.29732 8.63912 7.94052 8.77141 7.50727 8.77141C7.07402 8.77141 6.70206 8.63912 6.42111 8.37453ZM8.76272 9.89191V18H6.23664V9.89191H8.76272Z" fill="#222222"/>
<path d="M17.1737 10.6934C17.7241 11.2995 17.9996 12.132 17.9996 13.1916V17.8582H15.5997V13.5208C15.5997 12.9867 15.4632 12.5713 15.1901 12.2754C14.9171 11.9794 14.55 11.8317 14.0888 11.8317C13.6277 11.8317 13.2605 11.98 12.9875 12.2754C12.7144 12.5713 12.5779 12.9867 12.5779 13.5208V17.8582H10.1641V9.87069H12.5779V10.9303C12.8224 10.5771 13.1519 10.2983 13.5663 10.0928C13.9802 9.88791 14.4462 9.78516 14.9638 9.78516C15.8861 9.78516 16.6228 10.0885 17.1731 10.694L17.1737 10.6934Z" fill="#222222"/>
</svg>
