<svg width="41" height="40" viewBox="0 0 41 40" fill="none" xmlns="http://www.w3.org/2000/svg">
<path d="M10.5 16.6654V13.332C10.5 7.81536 12.1667 3.33203 20.5 3.33203C28.8333 3.33203 30.5 7.81536 30.5 13.332V16.6654" stroke="#292D32" stroke-width="2" stroke-linecap="round" stroke-linejoin="round"/>
<path d="M20.4997 30.8333C22.8009 30.8333 24.6663 28.9679 24.6663 26.6667C24.6663 24.3655 22.8009 22.5 20.4997 22.5C18.1985 22.5 16.333 24.3655 16.333 26.6667C16.333 28.9679 18.1985 30.8333 20.4997 30.8333Z" stroke="#292D32" stroke-width="2" stroke-linecap="round" stroke-linejoin="round"/>
<path d="M28.833 36.668H12.1663C5.49967 36.668 3.83301 35.0013 3.83301 28.3346V25.0013C3.83301 18.3346 5.49967 16.668 12.1663 16.668H28.833C35.4997 16.668 37.1663 18.3346 37.1663 25.0013V28.3346C37.1663 35.0013 35.4997 36.668 28.833 36.668Z" stroke="#292D32" stroke-width="2" stroke-linecap="round" stroke-linejoin="round"/>
</svg>
