<svg width="218" height="56" viewBox="0 0 218 56" fill="none" xmlns="http://www.w3.org/2000/svg">
<g clip-path="url(#clip0_2153_33953)">
<path d="M66.6243 22.365C69.1184 22.365 71.1401 20.253 71.1401 17.6481C71.1401 15.0427 69.1184 12.9312 66.6243 12.9312C64.1301 12.9312 62.1084 15.0427 62.1084 17.6481C62.1084 20.253 64.1301 22.365 66.6243 22.365ZM215.659 38.481C214.972 37.9765 214.442 37.893 214.002 38.8725C206.417 56.0263 193.636 47.4663 194.905 48.2196C197.74 46.8654 205.197 40.621 204.07 31.9987C203.385 26.7294 199.054 24.3921 194.457 25.229C186.433 26.6899 183.481 35.7281 184.983 43.7299C185.246 45.1041 185.716 46.2374 186.186 47.3476C177.118 55.0481 173.516 40.4543 173.108 38.7103C173.092 38.617 180.11 32.5085 182.062 17.9525C184.107 2.69697 179.447 -0.0808101 174.681 0.00585652C165.862 0.166301 163.479 19.4067 166.681 35.4423C166.413 35.5152 165.165 36.237 163.16 36.3179C161.717 31.577 155.552 27.4214 153.938 29.0227C149.9 33.0285 154.918 40.8601 158.448 41.4743C156.327 55.1147 143.064 51.7365 145.533 34.6472C149.852 26.2716 153.137 13.8179 152.551 6.29963C152.343 3.63786 150.458 0.0716343 146.196 0.248523C137.998 0.58719 137.107 19.833 138.068 33.4925C138.021 33.1561 137.564 35.1521 134.205 36.1445C133.41 31.5387 126.308 26.9156 124.637 29.1383C121.507 33.2983 126.931 40.7156 129.5 41.233C127.379 54.873 114.116 51.4947 116.585 34.4054C120.904 26.0303 124.188 13.5765 123.602 6.0583C123.395 3.39608 121.51 -0.170143 117.248 0.00630096C109.05 0.345412 108.159 19.5912 109.12 33.2507C109.072 32.909 108.605 34.9707 105.108 35.9467C104.991 29.9712 97.8634 27.2312 96.1512 29.1379C93.0995 32.5365 96.85 39.5099 100.32 41.233C98.1988 54.873 84.9357 51.4947 87.4047 34.4054C91.7239 26.0303 95.0088 13.5765 94.4223 6.0583C94.215 3.39608 92.3304 -0.170143 88.0678 0.00630096C79.8704 0.345412 79.2107 20.5587 80.1717 34.2179C77.4716 46.2983 68.4165 61.3845 69.5929 31.1636C69.7091 29.0436 69.836 28.2387 68.8239 27.445C68.0654 26.8281 66.3408 27.125 65.398 27.1494C64.2523 27.1974 63.965 27.8974 63.7117 28.9556C63.1218 31.6881 63.0159 34.337 62.9316 37.9512C62.8763 39.6419 62.7464 40.4307 62.1229 42.7361C61.5002 45.041 57.9476 49.2539 56.0025 48.5494C53.3041 47.5805 54.1894 39.6259 54.695 34.1605C55.1164 29.8414 53.7672 27.9019 50.3103 27.1965C48.2865 26.7561 47.0569 26.8236 44.9492 26.1299C42.956 25.4739 42.5053 21.537 38.2542 22.849C35.929 23.5672 37.4238 28.7116 36.865 32.5245C34.1176 51.2805 28.4011 51.7956 25.7491 42.6845C37.6932 12.1374 29.2043 0.0947454 24.2352 0.0947454C19.0596 0.0947454 13.1435 3.81741 15.6487 27.6361C14.4306 27.265 14.0561 27.065 12.7226 27.065C5.18104 27.065 0.0429688 33.4312 0.0429688 41.2845C0.0429688 49.1379 5.18147 55.5045 12.723 55.5045C17.175 55.5045 20.3007 53.3903 22.668 50.1196C24.2126 52.4294 26.0934 55.5401 29.5328 55.4001C39.7847 54.9832 42.7662 33.0236 43.1182 31.7987C44.2141 31.9752 45.2509 32.309 46.2631 32.4854C47.9494 32.7499 48.0719 33.4467 48.0336 35.2179C47.5867 50.153 50.226 55.3823 56.2128 55.3823C59.5483 55.3823 62.5213 51.9601 64.5694 49.513C66.099 52.8099 68.5366 55.2814 71.8066 55.3819C79.7303 55.5876 82.7642 42.3996 82.4875 44.1352C82.2704 45.497 85.0582 55.3076 93.2157 55.3432C103.32 55.3876 105.199 43.7841 105.422 41.8405C105.451 41.4539 105.463 41.4939 105.422 41.8405L105.415 41.9583C108.623 41.3352 110.278 39.5392 110.278 39.5392C110.278 39.5392 112.854 55.5236 122.395 55.3436C132.304 55.1561 134.172 44.6672 134.417 42.6219C134.45 42.1365 134.469 42.1934 134.417 42.6219C134.416 42.6418 134.415 42.6618 134.413 42.6819C138.224 41.2343 139.226 39.7814 139.226 39.7814C139.226 39.7814 141.274 55.4481 151.344 55.585C160.317 55.7076 163.643 46.1116 163.663 42.0952C165.176 42.1121 167.976 41.1574 167.911 41.1032C167.911 41.1032 171.198 54.801 180.377 55.5045C184.687 55.8347 187.92 52.9721 189.763 51.6663C194.094 55.329 208.516 60.0072 217.622 43.885C218.908 41.5712 216.144 38.8379 215.659 38.481ZM12.3591 50.1863C7.95906 50.1863 5.13763 45.9379 5.13763 41.357C5.13763 36.7765 7.72752 32.5281 12.1276 32.5281C14.1075 32.5281 15.2091 32.7556 16.7511 34.1561C17.0307 35.3067 17.8232 37.961 18.2088 39.1663C18.7255 40.7792 19.3401 42.1521 19.9598 43.6463C19.0745 47.4787 16.1722 50.1863 12.3591 50.1863ZM23.0813 34.2907C22.8983 33.9863 22.9366 34.1734 22.7319 33.8859C21.9253 31.5947 20.371 26.481 20.1909 20.6725C19.9875 14.1019 21.0362 6.40008 24.1279 6.40008C26.2228 6.40008 28.4492 22.009 23.0809 34.2907H23.0813ZM85.0348 27.4445C84.5386 23.5454 84.5126 6.16319 88.5087 6.64186C90.7151 7.57519 87.1097 23.9774 85.0348 27.4445ZM114.215 27.4445C113.719 23.5454 113.693 6.16319 117.689 6.64186C119.895 7.57519 116.29 23.9774 114.215 27.4445ZM143.163 27.6867C142.667 23.7872 142.641 6.40497 146.637 6.88363C148.843 7.81697 145.238 24.2196 143.163 27.6867ZM175.122 5.62452C178.776 5.22897 178.625 21.8894 171.292 32.4076C170.346 28.6059 168.896 6.92986 175.122 5.62408V5.62452ZM190.479 41.4743C189.305 35.2845 192.337 31.2192 195.463 30.7734C196.556 30.5912 198.139 31.3303 198.455 32.7121C198.974 35.3161 198.379 39.1787 191.383 44.0796C191.394 44.1214 190.74 42.853 190.479 41.4743H190.479Z" fill="#BD4378"/>
</g>
<defs>
<clipPath id="clip0_2153_33953">
<rect width="218" height="56" fill="white"/>
</clipPath>
</defs>
</svg>
