<svg width="218" height="56" viewBox="0 0 218 56" fill="none" xmlns="http://www.w3.org/2000/svg">
<g clip-path="url(#clip0_2153_33966)">
<path d="M209.735 47.373H201.553V34.475C201.553 31.3993 201.498 27.44 197.297 27.44C193.036 27.44 192.384 30.791 192.384 34.251V47.3722H184.202V20.8485H192.056V24.4733H192.166C192.952 23.1203 194.088 22.0074 195.453 21.2529C196.818 20.4984 198.36 20.1306 199.916 20.1888C208.209 20.1888 209.738 25.6795 209.738 32.8226L209.735 47.373ZM174.97 17.2229C174.031 17.2231 173.113 16.9429 172.332 16.4179C171.551 15.8929 170.942 15.1465 170.582 14.2732C170.223 13.4 170.129 12.439 170.312 11.5118C170.495 10.5847 170.947 9.73295 171.611 9.06441C172.275 8.39586 173.121 7.9405 174.042 7.75592C174.963 7.57133 175.917 7.66581 176.785 8.0274C177.653 8.389 178.394 9.00146 178.916 9.78736C179.438 10.5732 179.717 11.4973 179.717 12.4426C179.717 13.0702 179.594 13.6917 179.356 14.2717C179.117 14.8516 178.768 15.3785 178.327 15.8224C177.886 16.2663 177.363 16.6185 176.787 16.8588C176.211 17.0991 175.593 17.2228 174.97 17.2229ZM179.061 47.373H170.87V20.8485H179.061V47.373ZM213.814 0.0155044H166.759C165.691 0.00337216 164.662 0.418553 163.898 1.16981C163.133 1.92108 162.697 2.94695 162.684 4.02202V51.5846C162.697 52.6602 163.133 53.6867 163.897 54.4388C164.661 55.1908 165.69 55.6068 166.759 55.5954H213.814C214.884 55.6089 215.916 55.1941 216.684 54.4421C217.451 53.69 217.89 52.6623 217.905 51.5846V4.01859C217.889 2.94139 217.45 1.91435 216.683 1.1631C215.916 0.411862 214.884 -0.00213424 213.814 0.0120727M140.414 27.2504C136.324 27.2504 133.869 30 133.869 34.0065C133.869 38.013 136.323 40.7653 140.414 40.7653C144.506 40.7653 146.966 38.0199 146.966 34.0065C146.966 29.9931 144.511 27.2504 140.414 27.2504ZM154.499 47.3576H146.966V43.8401H146.854C145.909 45.1195 144.684 46.1621 143.273 46.8865C141.862 47.6109 140.304 47.9976 138.72 48.0165C130.859 48.0165 125.68 42.3052 125.68 34.2287C125.68 26.8111 130.263 20 137.796 20C141.182 20 144.345 20.9326 146.201 23.5175H146.308V8.22843H154.498L154.499 47.3576ZM115.175 31.0158C115.19 30.3476 115.071 29.6832 114.824 29.0627C114.577 28.4423 114.208 27.8788 113.738 27.4063C113.268 26.9339 112.708 26.5623 112.092 26.3142C111.475 26.066 110.815 25.9464 110.151 25.9626C108.722 25.8731 107.315 26.3526 106.233 27.2979C105.151 28.2432 104.482 29.5784 104.37 31.0158H115.175ZM122.106 42.7694C120.746 44.429 119.037 45.7635 117.102 46.6762C115.166 47.5889 113.054 48.057 110.917 48.0465C102.735 48.0465 96.1841 42.5489 96.1841 34.0357C96.1841 25.5225 102.734 20.0275 110.917 20.0275C118.564 20.0275 123.36 25.5182 123.36 34.0357V36.6181H104.37C104.606 38.0826 105.36 39.4118 106.493 40.3607C107.627 41.3096 109.062 41.8144 110.536 41.7819C111.7 41.7746 112.845 41.4743 113.865 40.9082C114.884 40.3421 115.747 39.5282 116.375 38.5407L122.106 42.7694ZM40.7684 20.8417H48.6256V24.4664H48.7373C49.5221 23.1129 50.6573 21.9994 52.0218 21.2448C53.3863 20.4902 54.9288 20.1228 56.4846 20.1819C64.7816 20.1819 66.3089 25.6769 66.3089 32.8157V47.361H58.1269V34.4655C58.1269 31.3873 58.0707 27.4305 53.8655 27.4305C49.6126 27.4305 48.9563 30.7824 48.9563 34.2416V47.3576H40.7743L40.7684 20.8417ZM70.4578 8.231H78.6398V31.6224L87.9127 20.8271H97.9441L87.2053 33.1066L97.7183 47.3739H87.4345L78.7489 34.263H78.6415V47.3722H70.4595L70.4578 8.231ZM28.0497 20.8391H36.2316V47.3627H28.0497V20.8391ZM32.1406 7.65276C33.0794 7.65293 33.9969 7.93329 34.7774 8.45838C35.5578 8.98347 36.166 9.72972 36.5251 10.6028C36.8842 11.4758 36.9781 12.4364 36.7949 13.3632C36.6116 14.2899 36.1595 15.1412 35.4957 15.8093C34.8319 16.4774 33.9861 16.9323 33.0655 17.1166C32.1448 17.3009 31.1905 17.2062 30.3232 16.8446C29.456 16.4829 28.7148 15.8705 28.1933 15.0849C27.6717 14.2992 27.3934 13.3755 27.3934 12.4306C27.3934 11.8031 27.5162 11.1817 27.7548 10.602C27.9934 10.0222 28.3431 9.49551 28.7839 9.05184C29.2247 8.60817 29.7481 8.25626 30.324 8.0162C30.9 7.77615 31.5173 7.65265 32.1406 7.65276ZM0 8.23701H8.51692V39.4655H24.2843V47.3773H0V8.23701Z" fill="#0A66C2"/>
</g>
<defs>
<clipPath id="clip0_2153_33966">
<rect width="218" height="56" fill="white"/>
</clipPath>
</defs>
</svg>
