<svg width="197" height="56" viewBox="0 0 197 56" fill="none" xmlns="http://www.w3.org/2000/svg">
<g clip-path="url(#clip0_2153_34026)">
<path d="M10.1675 0.194635C6.13654 1.88723 1.70508 6.663 0.305502 12.6622C-1.46701 20.2609 5.90913 23.4744 6.51411 22.4224C7.22617 21.184 5.19243 20.7653 4.77375 16.8226C4.23275 11.7302 6.59466 6.03998 9.56753 3.54328C10.1201 3.07943 10.0936 3.72504 10.0936 4.91923C10.0936 7.05508 9.97594 26.2252 9.97594 30.2265C9.97594 35.6402 9.75284 37.3498 9.35206 39.0387C8.94597 40.7506 8.29359 41.9072 8.78785 42.3531C9.34046 42.8515 11.6994 41.666 13.0652 39.7554C14.7028 37.4641 15.2759 34.7122 15.379 31.7237C15.5033 28.1212 15.498 22.4048 15.5033 19.1442C15.5083 16.1537 15.5534 7.39699 15.4509 2.13278C15.4261 0.84157 11.8535 -0.513107 10.1675 0.194635ZM196.087 28.6352C195.502 28.6352 195.235 29.2393 195.015 30.2564C194.249 33.7928 193.444 34.5909 192.406 34.5909C191.247 34.5909 190.204 32.8398 189.937 29.335C189.726 26.5791 189.76 21.505 190.029 16.4581C190.084 15.4211 189.799 14.395 187.024 13.3846C185.83 12.9496 184.094 12.31 183.23 14.401C180.788 20.3085 179.833 24.9988 179.608 26.9034C179.596 27.0021 179.476 27.022 179.454 26.7918C179.311 25.266 178.991 22.4928 178.951 16.6671C178.944 15.5304 178.703 14.5628 177.452 13.7707C176.639 13.2563 174.173 12.3475 173.285 13.4291C172.516 14.3136 171.625 16.694 170.699 19.5157C169.946 21.8087 169.422 23.3601 169.422 23.3601C169.422 23.3601 169.432 17.1721 169.441 14.825C169.445 13.9394 168.839 13.6441 168.656 13.5909C167.834 13.3517 166.214 12.9519 165.526 12.9519C164.677 12.9519 164.469 13.4274 164.469 14.1202C164.469 14.2109 164.335 22.2672 164.335 27.9006C164.335 28.1451 164.336 28.4123 164.337 28.696C163.867 31.2851 162.345 34.7999 160.689 34.7999C159.032 34.7999 158.25 33.3306 158.25 26.6147C158.25 22.6972 158.368 20.9933 158.425 18.16C158.459 16.5279 158.523 15.2742 158.519 14.9901C158.507 14.1179 157.003 13.6783 156.302 13.5155C155.599 13.352 154.988 13.2882 154.51 13.3154C153.835 13.3537 153.357 13.7979 153.357 14.4089C153.357 14.7366 153.361 15.3593 153.361 15.3593C152.491 13.9886 151.091 13.0347 150.16 12.7582C147.652 12.0119 145.034 12.6735 143.06 15.442C141.491 17.642 140.546 20.134 140.173 23.7139C139.901 26.3309 139.99 28.9851 140.474 31.2296C139.889 33.7622 138.804 34.7999 137.616 34.7999C135.891 34.7999 134.641 31.9782 134.786 27.0978C134.882 23.8877 135.523 21.6352 136.223 18.3763C136.522 16.9867 136.279 16.2597 135.671 15.5626C135.112 14.923 133.923 14.5967 132.213 14.9984C130.995 15.2845 129.254 15.5928 127.661 15.8294C127.661 15.8294 127.757 15.445 127.836 14.7671C128.25 11.2125 124.396 11.5009 123.167 12.6363C122.433 13.3141 121.933 14.1136 121.744 15.551C121.443 17.8317 123.299 18.9079 123.299 18.9079C122.69 21.7023 121.197 25.352 119.656 27.9909C118.831 29.4048 118.199 30.4524 117.384 31.5662C117.381 31.1522 117.379 30.7382 117.378 30.3242C117.359 24.4499 117.437 19.8267 117.471 18.1603C117.505 16.5282 117.57 15.3081 117.566 15.024C117.557 14.386 117.186 14.1448 116.413 13.8401C115.729 13.5703 114.921 13.3836 114.083 13.3184C113.025 13.236 112.387 13.7982 112.404 14.4634C112.407 14.589 112.407 15.3602 112.407 15.3602C111.537 13.9896 110.137 13.0357 109.206 12.7592C106.698 12.0129 104.081 12.6745 102.107 15.443C100.538 17.643 99.511 20.7301 99.2199 23.6873C98.9488 26.4436 98.9988 28.7857 99.3684 30.7588C98.9696 32.7345 97.823 34.8006 96.5265 34.8006C94.869 34.8006 93.9259 33.3312 93.9259 26.6153C93.9259 22.6978 94.0433 20.9943 94.1006 18.1606C94.1344 16.5285 94.1991 15.2749 94.1951 14.9908C94.1828 14.1185 92.6782 13.6789 91.978 13.5161C91.2454 13.346 90.6129 13.2839 90.1273 13.3198C89.4862 13.3676 89.036 13.9424 89.036 14.3714V15.3602C88.1658 13.9896 86.7659 13.0357 85.8351 12.7592C83.327 12.0129 80.7244 12.6851 78.7357 15.443C77.4389 17.2412 76.3891 19.2349 75.8487 23.6481C75.6926 24.9234 75.6236 26.1179 75.6326 27.234C75.1154 30.4039 72.8318 34.0573 70.9631 34.0573C69.8698 34.0573 68.8286 31.932 68.8286 27.4022C68.8286 21.3681 69.2015 12.7772 69.2642 11.9491C69.2642 11.9491 71.6248 11.9089 72.0819 11.9036C73.2597 11.8907 74.3261 11.9186 75.8941 11.8382C76.6808 11.7979 77.4386 8.96831 76.6267 8.61809C76.2591 8.4596 73.6582 8.32071 72.6276 8.29878C71.7607 8.27917 69.3471 8.10008 69.3471 8.10008C69.3471 8.10008 69.5635 2.39761 69.6143 1.79519C69.657 1.2928 69.0089 1.03462 68.6373 0.877456C67.7333 0.494677 66.9251 0.31093 65.9668 0.112895C64.6428 -0.160898 64.0418 0.106914 63.9248 1.22734C63.7481 2.92692 63.6566 7.90636 63.6566 7.90636C62.6846 7.90636 59.366 7.71597 58.3941 7.71597C57.4907 7.71597 56.5165 11.6086 57.7649 11.6564C59.2013 11.7122 61.7044 11.7604 63.3639 11.8106C63.3639 11.8106 63.2899 20.5434 63.2899 23.2394C63.2899 23.5262 63.2909 23.8023 63.2929 24.0705C62.3797 28.8419 59.1625 31.4193 59.1625 31.4193C59.8533 28.2627 58.4421 25.8923 55.9005 23.8857C54.9637 23.1461 53.1153 21.7465 51.0468 20.2124C51.0468 20.2124 52.2448 19.0289 53.3072 16.6475C54.0601 14.9609 54.0926 13.0307 52.2445 12.605C49.1917 11.9016 46.674 14.1488 45.9231 16.5481C45.3414 18.4072 45.6517 19.7861 46.7913 21.2192C46.8745 21.3239 46.9647 21.4305 47.0579 21.5382C46.3687 22.8696 45.4219 24.6622 44.62 26.0525C42.394 29.9121 40.713 32.9651 39.4421 32.9651C38.4263 32.9651 38.4403 29.8656 38.4403 26.9636C38.4403 24.4619 38.6246 20.7005 38.7718 16.8063C38.8205 15.5184 38.1777 14.7847 37.1007 14.1202C36.4463 13.7165 35.0497 12.9227 34.2412 12.9227C33.0306 12.9227 29.5376 13.0878 26.2372 22.657C25.8212 23.8631 25.004 26.0608 25.004 26.0608L25.0743 14.5535C25.0743 14.2837 24.9308 14.0225 24.6026 13.8441C24.0463 13.5417 22.5609 12.9227 21.2402 12.9227C20.611 12.9227 20.2968 13.2161 20.2968 13.8009L20.1814 31.8044C20.1814 33.1724 20.2169 34.7683 20.3521 35.4661C20.4864 36.1652 20.7042 36.7334 20.974 37.0716C21.2432 37.4092 21.5548 37.6667 22.0686 37.7731C22.5466 37.8718 25.1645 38.2087 25.3007 37.2059C25.4638 36.004 25.4698 34.7042 26.8445 29.8563C28.9846 22.3087 31.7749 18.6262 33.0869 17.3183C33.316 17.0897 33.5779 17.0761 33.5653 17.4502C33.5096 19.1046 33.3127 23.2398 33.1797 26.7526C32.8244 36.1532 34.5306 37.8957 36.9688 37.8957C38.8341 37.8957 41.4635 36.0376 44.2822 31.3353C46.0392 28.4046 47.7454 25.5311 48.9716 23.4601C49.8259 24.2529 50.7842 25.1058 51.7426 26.0172C53.9689 28.1352 54.6999 30.1477 54.2149 32.057C53.8439 33.5166 52.447 35.0209 49.9608 33.5588C49.2361 33.1325 48.9265 32.8029 48.1982 32.3218C47.8067 32.0636 47.2094 31.9862 46.851 32.257C45.9198 32.9604 45.3874 33.8556 45.0835 34.9634C44.7878 36.0413 45.8648 36.6111 46.9813 37.1095C47.9426 37.5385 50.0089 37.9272 51.3266 37.9714C56.4604 38.1436 60.5737 35.4867 63.4365 28.6332C63.9493 34.552 66.1302 37.9013 69.9202 37.9013C72.4539 37.9013 74.9941 34.6188 76.105 31.3894C76.4239 32.7059 76.8959 33.8503 77.5055 34.8185C80.4257 39.456 86.0906 38.4579 88.9362 34.5201C89.8157 33.3033 89.9499 32.8657 89.9499 32.8657C90.365 36.5842 93.3524 37.8837 95.063 37.8837C96.9787 37.8837 98.9567 36.9759 100.343 33.8476C100.502 34.1814 100.68 34.5057 100.876 34.8188C103.797 39.4564 109.462 38.4582 112.307 34.5204C112.441 34.3354 112.558 34.1679 112.659 34.0174L112.743 36.4603L110.123 38.8686C105.732 42.9027 102.396 45.9626 102.15 49.5259C101.838 54.0694 105.512 55.758 108.296 55.9793C111.247 56.2142 113.779 54.5788 115.333 52.2898C116.7 50.2755 117.595 45.9397 117.53 41.657C117.503 39.9422 117.46 37.7618 117.426 35.4246C118.968 33.6303 120.705 31.3622 122.303 28.708C124.046 25.8149 125.914 21.9303 126.87 18.9069C126.87 18.9069 128.493 18.9209 130.225 18.8072C130.778 18.771 130.937 18.884 130.835 19.2914C130.711 19.7828 128.647 27.7637 130.531 33.08C131.821 36.7194 134.728 37.8904 136.451 37.8904C138.469 37.8904 140.398 36.3632 141.432 34.0955C141.557 34.3483 141.688 34.5929 141.83 34.8188C144.75 39.4564 150.395 38.4526 153.26 34.5204C153.907 33.6333 154.274 32.8661 154.274 32.8661C154.889 36.7144 157.875 37.9033 159.585 37.9033C161.366 37.9033 163.057 37.1713 164.428 33.918C164.486 35.3508 164.576 36.5217 164.718 36.8909C164.805 37.1168 165.311 37.4003 165.68 37.5372C167.309 38.1426 168.972 37.8565 169.586 37.7319C170.012 37.6455 170.345 37.3029 170.39 36.4184C170.509 34.0958 170.436 30.1936 171.139 27.2932C172.318 22.426 173.418 20.5377 173.939 19.6034C174.231 19.0797 174.561 18.9933 174.573 19.5476C174.597 20.669 174.653 23.9621 175.11 28.3867C175.445 31.6406 175.893 33.5642 176.238 34.1729C177.221 35.9133 178.434 35.9957 179.423 35.9957C180.052 35.9957 181.367 35.822 181.249 34.7142C181.192 34.1742 181.292 30.8372 182.455 26.0422C183.214 22.9108 184.48 20.0819 184.936 19.0472C185.105 18.6657 185.183 18.9664 185.18 19.0249C185.084 21.1813 184.868 28.2348 185.745 32.0925C186.933 37.3189 190.369 37.9033 191.567 37.9033C194.124 37.9033 196.215 35.9539 196.919 30.8242C197.091 29.5885 196.84 28.6352 196.087 28.6352ZM88.9836 25.464C88.8371 28.1787 88.3087 30.4481 87.4607 32.0965C85.9266 35.08 82.891 36.026 81.5528 31.7151C80.5878 28.6066 80.9163 24.3678 81.3178 22.0785C81.9135 18.6803 83.4052 16.2713 85.734 16.4996C88.126 16.7342 89.2889 19.8154 88.9836 25.464ZM112.354 25.5032C112.218 28.0667 111.555 30.6418 110.832 32.0968C109.339 35.1009 106.217 36.0399 104.924 31.7154C104.039 28.7605 104.251 24.9364 104.689 22.527C105.256 19.4004 106.633 16.4999 109.105 16.4999C111.508 16.4996 112.693 19.1425 112.354 25.5032ZM112.964 42.9924C112.932 47.6688 112.198 51.7691 110.623 52.9599C108.39 54.6486 105.388 53.3819 106.01 49.9695C106.56 46.9498 109.161 43.866 112.971 40.098C112.971 40.098 112.979 40.9572 112.964 42.9924ZM153.308 25.5305C153.178 28.3448 152.557 30.5448 151.785 32.0965C150.292 35.1006 147.193 36.0333 145.877 31.7151C145.16 29.3612 145.127 25.4298 145.642 22.1449C146.167 18.7989 147.632 16.2713 150.059 16.4996C152.452 16.7246 153.572 19.8154 153.308 25.5305Z" fill="#111111"/>
</g>
<defs>
<clipPath id="clip0_2153_34026">
<rect width="197" height="56" fill="white"/>
</clipPath>
</defs>
</svg>
