<svg width="143" height="56" viewBox="0 0 143 56" fill="none" xmlns="http://www.w3.org/2000/svg">
<g clip-path="url(#clip0_2153_34008)">
<path d="M0 0.0117188H143V55.9865H0V0.0117188Z" fill="#005CFF"/>
<path d="M16.8906 17.6621H21.5073V37.8376H16.8906V17.6621Z" fill="white"/>
<path d="M21.3359 17.6621H27.3685V21.2479H21.3359V17.6621ZM21.3359 34.2529H27.3685V37.8387H21.3359V34.2529ZM21.3359 25.7508H27.3685V28.8605H21.3359V25.7508Z" fill="white"/>
<path d="M27.3683 37.8387C27.3683 37.8387 33.7646 38.0406 33.7646 31.883C33.7646 31.883 34.0435 26.8731 29.9943 26.8731C29.9943 26.8731 33.0667 26.6446 33.0667 23.0344C33.0667 19.4242 30.5532 17.6621 27.3693 17.6621C24.1855 17.6621 24.3531 19.455 24.3531 19.455L26.6153 21.2479H27.3693C27.3693 21.2479 28.7937 21.2479 28.7937 23.3468C28.7937 25.4458 27.9558 25.7498 27.0066 25.7498C26.0574 25.7498 25.6936 27.3046 25.6936 27.3046L27.3693 28.8594C27.3693 28.8594 29.4916 28.8318 29.4916 31.63C29.4916 34.4283 27.2569 34.2508 26.6991 34.2508C26.1412 34.2508 26.3077 35.6887 26.3077 35.6887L27.3683 37.8387ZM42.2948 22.7953C34.5515 22.7953 34.559 30.5471 34.559 30.5471C34.559 30.5471 34.0276 38.2596 42.2948 38.2596C42.2948 38.2596 49.1842 38.6538 49.1842 32.8947H45.6409C45.6409 32.8947 45.7586 35.0638 42.4125 35.0638C42.4125 35.0638 38.8691 35.3008 38.8691 31.5535H49.302C49.303 31.5535 50.4442 22.7953 42.2948 22.7953ZM38.8299 28.8605C38.8299 28.8605 39.2626 25.7508 42.3732 25.7508C45.4839 25.7508 45.4436 28.8605 45.4436 28.8605H38.8299ZM119.046 22.7953C111.303 22.7953 111.31 30.5471 111.31 30.5471C111.31 30.5471 110.779 38.2596 119.047 38.2596C119.047 38.2596 125.937 38.6538 125.937 32.8947H122.393C122.393 32.8947 122.511 35.0638 119.165 35.0638C119.165 35.0638 115.622 35.3008 115.622 31.5535H126.055C126.053 31.5535 127.195 22.7953 119.046 22.7953ZM115.581 28.8605C115.581 28.8605 116.014 25.7508 119.125 25.7508C122.234 25.7508 122.195 28.8605 122.195 28.8605H115.581ZM37.9634 18.8503H46.2708V21.335H37.9634V18.8503ZM50.8769 17.6621H54.9707V37.8281H50.8769V17.6621ZM64.3801 27.5692H60.3648V37.8281H64.3801V27.5692Z" fill="white"/>
<path d="M60.3132 27.5689C60.3132 27.5689 60.3132 26.03 57.7657 26.03C55.4038 26.03 54.9711 27.8845 54.9711 29.6593C54.9711 31.4341 54.6953 25.7537 54.6953 25.7537C54.6953 25.7537 55.9945 22.7949 59.4594 22.7949C62.9243 22.7949 64.3805 25.3041 64.3805 27.7687C64.3805 30.2332 62.9879 29.0429 62.9879 29.0429L60.3142 28.4074V27.5678L60.3132 27.5689ZM81.3199 23.0107H85.4137V37.8277H81.3199V23.0107ZM94.8242 27.5689H90.8088V37.8277H94.8242V27.5689Z" fill="white"/>
<path d="M90.7578 27.5689C90.7578 27.5689 90.7578 26.03 88.2104 26.03C85.8485 26.03 85.4157 27.8845 85.4157 29.6593C85.4157 31.4341 85.14 25.7537 85.14 25.7537C85.14 25.7537 86.4392 22.7949 89.9041 22.7949C93.3679 22.7949 94.8251 25.3041 94.8251 27.7687C94.8251 30.2332 93.4326 29.0429 93.4326 29.0429L90.7578 28.4074V27.5689ZM79.9506 37.8277C79.9506 37.8277 79.1891 37.4356 79.1891 35.0401V26.3998C79.1891 26.3998 79.6738 22.796 73.1937 22.796C66.7147 22.796 66.2989 26.0502 66.2639 27.994H70.5953C70.5953 27.994 70.4224 25.4231 73.1598 25.4231C73.1598 25.4231 75.4814 25.2382 75.4814 27.5699C75.4814 27.5699 75.4814 29.1024 73.3676 29.2417C71.2539 29.3809 65.8832 29.3469 65.8832 33.7212C65.8832 33.7212 65.7443 38.3389 70.6823 38.3389C70.6823 38.3389 74.0613 38.408 75.4814 36.325V37.8277H79.9506ZM75.4464 33.2695C75.4464 33.2695 75.0996 35.4918 72.1544 35.4918C72.1544 35.4918 69.7288 35.597 69.7288 33.5129C69.7288 33.5129 69.521 31.9156 72.9169 31.3948C74.2681 31.2907 74.8917 31.1971 75.4464 30.5669V33.2695ZM110.669 32.1175H106.431C106.431 32.1175 106.535 35.106 103.763 35.106C100.989 35.106 100.257 32.1281 100.257 30.4203C100.257 28.7103 100.832 25.827 103.815 25.827C106.797 25.827 106.692 28.3957 106.692 28.3957H110.407C110.407 28.3957 110.668 22.796 103.868 22.796C97.0661 22.796 96.3343 28.3149 96.3343 30.5308C96.3343 32.7467 97.485 38.3389 103.764 38.3389C110.041 38.3379 110.669 33.2706 110.669 32.1175Z" fill="white"/>
</g>
<defs>
<clipPath id="clip0_2153_34008">
<rect width="143" height="56" fill="white"/>
</clipPath>
</defs>
</svg>
