<svg width="20" height="20" viewBox="0 0 20 20" fill="none" xmlns="http://www.w3.org/2000/svg">
<path d="M15.8327 7.49935C15.8327 8.70768 15.4743 9.81603 14.8577 10.741C13.9577 12.0744 12.5327 13.016 10.8743 13.2577C10.591 13.3077 10.2993 13.3327 9.99935 13.3327C9.69935 13.3327 9.40768 13.3077 9.12435 13.2577C7.46602 13.016 6.04102 12.0744 5.14102 10.741C4.52435 9.81603 4.16602 8.70768 4.16602 7.49935C4.16602 4.27435 6.77435 1.66602 9.99935 1.66602C13.2243 1.66602 15.8327 4.27435 15.8327 7.49935Z" stroke="#03B0EF" stroke-linecap="round" stroke-linejoin="round"/>
<path d="M17.7092 15.3917L16.3342 15.7167C16.0259 15.7917 15.7842 16.025 15.7175 16.3333L15.4259 17.5583C15.2675 18.225 14.4175 18.425 13.9759 17.9L10.0009 13.3333L6.02588 17.9083C5.58421 18.4333 4.73421 18.2333 4.57588 17.5667L4.28421 16.3417C4.20921 16.0333 3.96755 15.7917 3.66755 15.725L2.29255 15.4C1.65921 15.25 1.43421 14.4583 1.89255 14L5.14255 10.75C6.04255 12.0833 7.46755 13.025 9.12588 13.2667C9.40921 13.3167 9.70088 13.3417 10.0009 13.3417C10.3009 13.3417 10.5925 13.3167 10.8759 13.2667C12.5342 13.025 13.9592 12.0833 14.8592 10.75L18.1092 14C18.5675 14.45 18.3425 15.2417 17.7092 15.3917Z" stroke="#03B0EF" stroke-linecap="round" stroke-linejoin="round"/>
<path d="M10.4836 4.98398L10.9753 5.96731C11.042 6.10064 11.217 6.23398 11.3753 6.25898L12.267 6.40898C12.8336 6.50064 12.967 6.91732 12.5586 7.32565L11.867 8.0173C11.7503 8.13397 11.6836 8.35898 11.7253 8.52565L11.9253 9.38398C12.0836 10.059 11.7253 10.3256 11.1253 9.9673L10.292 9.47564C10.142 9.38397 9.89197 9.38397 9.74197 9.47564L8.90864 9.9673C8.30864 10.3173 7.9503 10.059 8.10864 9.38398L8.30864 8.52565C8.34197 8.36732 8.28364 8.13397 8.16697 8.0173L7.4753 7.32565C7.06697 6.91732 7.2003 6.50898 7.76697 6.40898L8.65864 6.25898C8.80864 6.23398 8.98364 6.10064 9.0503 5.96731L9.54197 4.98398C9.78364 4.45065 10.217 4.45065 10.4836 4.98398Z" stroke="#03B0EF" stroke-linecap="round" stroke-linejoin="round"/>
</svg>
