<svg width="40" height="40" viewBox="0 0 40 40" fill="none" xmlns="http://www.w3.org/2000/svg">
<path d="M35.4171 30.7848L32.6671 31.4348C32.0504 31.5848 31.5671 32.0515 31.4337 32.6682L30.8504 35.1182C30.5337 36.4515 28.8337 36.8682 27.9504 35.8182L22.9671 30.0848C22.5671 29.6182 22.7837 28.8848 23.3837 28.7348C26.3337 28.0182 28.9837 26.3682 30.9337 24.0182C31.2504 23.6348 31.8171 23.5848 32.1671 23.9348L35.8671 27.6348C37.1337 28.9015 36.6837 30.4848 35.4171 30.7848Z" fill="#9B9B9B"/>
<path d="M4.49929 30.7848L7.24929 31.4348C7.86596 31.5848 8.3493 32.0515 8.48263 32.6682L9.06596 35.1182C9.38263 36.4515 11.0826 36.8682 11.966 35.8182L16.9493 30.0848C17.3493 29.6182 17.1326 28.8848 16.5326 28.7348C13.5826 28.0182 10.9326 26.3682 8.98263 24.0182C8.66596 23.6348 8.09929 23.5848 7.74929 23.9348L4.04929 27.6348C2.78263 28.9015 3.23263 30.4848 4.49929 30.7848Z" fill="#9B9B9B"/>
<path d="M20.0007 3.33203C13.5507 3.33203 8.33398 8.5487 8.33398 14.9987C8.33398 17.4154 9.05065 19.632 10.284 21.482C12.084 24.1487 14.934 26.032 18.2507 26.5154C18.8173 26.6154 19.4007 26.6654 20.0007 26.6654C20.6007 26.6654 21.184 26.6154 21.7507 26.5154C25.0673 26.032 27.9173 24.1487 29.7173 21.482C30.9507 19.632 31.6673 17.4154 31.6673 14.9987C31.6673 8.5487 26.4507 3.33203 20.0007 3.33203ZM25.1007 14.632L23.7173 16.0154C23.484 16.2487 23.3507 16.6987 23.434 17.032L23.834 18.7487C24.1507 20.0987 23.434 20.632 22.234 19.9154L20.5673 18.932C20.2673 18.7487 19.7673 18.7487 19.4673 18.932L17.8007 19.9154C16.6007 20.6154 15.884 20.0987 16.2007 18.7487L16.6007 17.032C16.6673 16.7154 16.5507 16.2487 16.3173 16.0154L14.9007 14.632C14.084 13.8154 14.3507 12.9987 15.484 12.8154L17.2673 12.5154C17.5673 12.4654 17.9173 12.1987 18.0507 11.932L19.034 9.96536C19.5673 8.8987 20.434 8.8987 20.9673 9.96536L21.9507 11.932C22.084 12.1987 22.434 12.4654 22.7507 12.5154L24.534 12.8154C25.6507 12.9987 25.9173 13.8154 25.1007 14.632Z" fill="#9B9B9B"/>
</svg>
