<svg width="41" height="40" viewBox="0 0 41 40" fill="none" xmlns="http://www.w3.org/2000/svg">
<path d="M3.83301 23.3333C3.83301 17.0479 3.83301 13.9052 5.78563 11.9526C7.73825 10 10.8809 10 17.1663 10H23.833C30.1184 10 33.2611 10 35.2137 11.9526C37.1663 13.9052 37.1663 17.0479 37.1663 23.3333C37.1663 29.6187 37.1663 32.7614 35.2137 34.714C33.2611 36.6667 30.1184 36.6667 23.833 36.6667H17.1663C10.8809 36.6667 7.73825 36.6667 5.78563 34.714C3.83301 32.7614 3.83301 29.6187 3.83301 23.3333Z" stroke="#1C274C" stroke-width="2"/>
<path d="M27.1663 9.9987C27.1663 6.856 27.1663 5.28465 26.19 4.30834C25.2137 3.33203 23.6424 3.33203 20.4997 3.33203C17.357 3.33203 15.7856 3.33203 14.8093 4.30834C13.833 5.28465 13.833 6.856 13.833 9.9987" stroke="#1C274C" stroke-width="2"/>
<path d="M23 23.332H18M20.5 20.832V25.832" stroke="#1C274C" stroke-width="2" stroke-linecap="round"/>
<circle cx="20.4997" cy="23.3346" r="6.66667" stroke="#1C274C" stroke-width="2"/>
</svg>
