<svg width="500" height="500" viewBox="0 0 500 500" fill="none" xmlns="http://www.w3.org/2000/svg">
<path d="M87.6483 80.1781C38.2323 95.7691 60.3213 166.064 109.818 150.447C159.231 134.856 137.143 64.5621 87.6483 80.1781Z" fill="#EBEBEB"/>
<path d="M130.86 112.419C132.038 125.34 125.323 138.988 107.928 144.477C66.8553 157.436 48.5173 99.0931 89.5263 86.1541C89.7943 86.0691 90.0633 85.9851 90.3363 85.9141C51.9653 98.7981 69.5803 153.971 108.743 141.614C124.717 136.575 131.319 124.328 130.86 112.419Z" fill="#DBDBDB"/>
<path d="M92.2522 93.7448C92.9462 93.5258 93.7052 93.8788 93.9052 94.5138L94.5222 96.4708C98.4642 95.5498 101.614 95.8478 105.118 96.8918C105.706 97.0838 106.067 97.2928 106.221 97.7818C106.437 98.4658 105.965 99.2058 105.216 99.4418C104.895 99.5428 104.612 99.5798 104.145 99.4038C100.925 98.3228 98.0502 98.1538 95.1232 98.7548L99.4442 112.45C108.064 111.452 112.365 113.161 113.878 117.955C115.514 123.14 111.913 128.31 105.293 130.614L106.497 134.429C106.698 135.066 106.279 135.789 105.584 136.008C104.888 136.227 104.131 135.875 103.931 135.239L102.712 131.375C97.9532 132.5 93.6642 132.132 89.1862 130.425C88.7202 130.25 88.4132 130.024 88.2742 129.584C88.0732 128.947 88.5302 128.158 89.2252 127.939C89.7062 127.787 90.0892 127.882 90.2962 127.977C94.0932 129.577 97.8312 130.064 102.126 129.14L97.7272 115.198C89.1982 116.115 85.0352 114.469 83.4922 109.578C81.9332 104.638 85.4492 99.3858 91.9262 97.1818L91.3392 95.3218C91.1392 94.6878 91.5562 93.9638 92.2522 93.7448ZM96.9412 112.704L92.7282 99.3498C87.5732 101.084 85.0472 105 86.1582 108.522C87.2072 111.849 89.5662 113.364 96.9412 112.704ZM100.234 114.946L104.494 128.447C109.81 126.662 112.39 122.728 111.217 119.011C110.151 115.636 107.631 114.172 100.234 114.946Z" fill="#DBDBDB"/>
<path d="M417.602 251.946C370.945 260.318 383.267 329.435 430.002 321.05C476.656 312.678 464.333 243.56 417.602 251.946Z" fill="#DBDBDB"/>
<path d="M421.982 251.158C377.516 259.137 389.842 328.254 434.382 320.262C478.845 312.283 466.519 243.166 421.982 251.158Z" fill="#EBEBEB"/>
<path d="M456.383 287.332C456.144 299.646 448.975 311.577 433.322 314.385C396.363 321.017 386.129 263.651 423.03 257.03C423.271 256.987 423.513 256.943 423.757 256.914C389.153 263.842 399.07 318.127 434.31 311.804C448.685 309.225 455.619 298.598 456.383 287.332Z" fill="#DBDBDB"/>
<path d="M430.857 264.515C431.488 264.589 431.959 265.186 431.885 265.817L431.657 267.759C435.117 268.461 437.504 269.924 439.897 272.173C440.293 272.565 440.502 272.884 440.445 273.37C440.365 274.049 439.719 274.514 439.04 274.434C438.749 274.4 438.511 274.324 438.206 273.991C436.051 271.819 433.835 270.574 431.296 269.981L429.698 283.571C436.893 285.992 439.675 289.124 439.115 293.881C438.51 299.026 433.762 302.158 427.672 301.639L427.227 305.425C427.153 306.057 426.556 306.527 425.925 306.453C425.293 306.379 424.823 305.783 424.897 305.151L425.348 301.316C421.165 300.48 417.902 298.521 414.98 295.323C414.675 294.992 414.514 294.678 414.566 294.241C414.64 293.609 415.292 293.096 415.922 293.17C416.359 293.221 416.627 293.45 416.756 293.612C419.177 296.456 421.961 298.309 425.702 299.143L427.329 285.309C420.236 282.852 417.541 279.827 418.111 274.974C418.688 270.072 423.399 266.836 429.338 267.388L429.555 265.543C429.629 264.912 430.225 264.441 430.857 264.515ZM427.62 282.835L429.179 269.584C424.459 269.128 421.021 271.577 420.611 275.072C420.222 278.372 421.535 280.594 427.62 282.835ZM429.407 286.046L427.831 299.443C432.697 299.917 436.183 297.472 436.617 293.784C437.011 290.435 435.552 288.196 429.407 286.046Z" fill="#DBDBDB"/>
<path d="M442.801 88.5836C412.544 92.3736 390.705 48.6216 360.449 52.4106C367.199 43.5986 373.69 36.2506 380.012 29.8516C402.66 37.9446 421.689 66.4836 446.176 64.1946C445.05 72.3286 443.925 80.4586 442.801 88.5836Z" fill="#EBEBEB"/>
<path d="M416.899 68.1499C415.238 72.2369 409.078 72.1629 403.211 67.5849C397.339 63.0479 394.495 56.8099 396.903 53.3979C399.316 49.9499 405.397 50.4439 410.522 54.3109C415.649 58.1679 418.552 64.1029 416.899 68.1499Z" fill="#DBDBDB"/>
<path d="M390.535 48.3554C389.918 49.1254 388.187 48.9604 386.654 48.0704C385.121 47.1794 384.412 45.8874 385.086 45.0924C385.76 44.3004 387.513 44.3394 388.988 45.2564C390.464 46.1694 391.152 47.5884 390.535 48.3554Z" fill="#DBDBDB"/>
<path d="M429.462 74.1128C429.185 75.1338 427.672 75.4948 426.104 74.7888C424.536 74.0848 423.543 72.6228 423.866 71.6438C424.189 70.6598 425.668 70.4928 427.19 71.1558C428.711 71.8218 429.738 73.0888 429.462 74.1128Z" fill="#DBDBDB"/>
<path d="M382.056 30.6426C375.935 36.8496 369.668 43.8786 363.173 52.1936C362.272 52.2236 361.363 52.2946 360.447 52.4096C367.196 43.5986 373.686 36.2506 380.009 29.8516C380.694 30.0976 381.377 30.3616 382.056 30.6426Z" fill="#DBDBDB"/>
<path d="M442.801 88.5853C441.883 88.7003 440.973 88.7713 440.071 88.8013C441.368 80.6413 442.665 72.4813 443.962 64.3203C444.695 64.3063 445.433 64.2653 446.176 64.1953C445.05 72.3303 443.925 80.4603 442.801 88.5853Z" fill="#DBDBDB"/>
<path d="M443.012 87.0514C442.941 87.5634 442.87 88.0744 442.799 88.5854C412.543 92.3734 390.704 48.6214 360.447 52.4124C360.872 51.8574 361.296 51.3084 361.719 50.7654C391.44 48.0454 413.121 90.7344 443.012 87.0514Z" fill="#DBDBDB"/>
<path d="M446.174 64.1946C446.104 64.7066 446.033 65.2186 445.962 65.7306C421.115 68.1026 401.891 38.7096 378.816 31.0716C379.215 30.6606 379.613 30.2546 380.011 29.8516C402.659 37.9436 421.688 66.4826 446.174 64.1946Z" fill="#DBDBDB"/>
<path d="M370.177 51.1765C368.281 50.8255 366.356 50.6375 364.398 50.6415C365.297 49.5075 366.192 48.3985 367.084 47.3125C370.2 47.5515 371.542 49.5325 370.177 51.1765Z" fill="#DBDBDB"/>
<path d="M440.86 83.8594C440.679 84.9944 440.498 86.1304 440.317 87.2654C438.347 87.3294 436.411 87.1984 434.506 86.8984C434.89 85.0144 437.678 83.9624 440.86 83.8594Z" fill="#DBDBDB"/>
<path d="M438.854 65.5703C440.454 65.7923 442.074 65.8943 443.718 65.8613C443.538 66.9953 443.359 68.1303 443.179 69.2643C440.369 69.3283 438.475 67.4343 438.854 65.5703Z" fill="#DBDBDB"/>
<path d="M378.33 34.5141C379.19 33.6011 380.047 32.7061 380.9 31.8281C382.428 32.4241 383.941 33.1091 385.44 33.8691C384.127 35.2351 380.972 35.3741 378.33 34.5141Z" fill="#DBDBDB"/>
<path d="M409.735 56.0226C409.982 56.2076 410.123 56.4916 410.041 56.6406C409.958 56.7946 409.875 56.9486 409.792 57.1026C411.136 58.2056 411.994 59.2206 412.805 60.4506C412.939 60.6606 413.002 60.8016 412.944 60.9216C412.863 61.0896 412.565 61.0526 412.291 60.8546C412.174 60.7696 412.082 60.6866 411.981 60.5166C411.259 59.3616 410.452 58.4406 409.467 57.6046C408.885 58.6806 408.302 59.7546 407.72 60.8286C410.562 63.4946 411.526 65.0896 410.963 66.2686C410.354 67.5406 408.065 67.0766 405.441 65.1346C405.279 65.4336 405.117 65.7326 404.955 66.0306C404.874 66.1796 404.574 66.1296 404.3 65.9196C404.027 65.7106 403.865 65.4086 403.948 65.2606C404.115 64.9606 404.282 64.6606 404.449 64.3606C402.686 62.8966 401.427 61.4086 400.44 59.7156C400.336 59.5396 400.297 59.4116 400.358 59.3126C400.448 59.1696 400.776 59.2256 401.042 59.4286C401.226 59.5686 401.321 59.7066 401.363 59.7876C402.162 61.2426 403.215 62.5556 404.776 63.8806C405.378 62.7976 405.981 61.7156 406.583 60.6316C403.803 57.9746 402.946 56.4166 403.63 55.3186C404.322 54.2046 406.529 54.6576 408.885 56.3886C408.965 56.2436 409.046 56.0996 409.126 55.9546C409.208 55.8046 409.487 55.8366 409.735 56.0226ZM406.907 60.0486C407.484 59.0106 408.061 57.9706 408.638 56.9306C406.757 55.5416 405.138 55.2366 404.654 56.0366C404.197 56.7896 404.547 57.7466 406.907 60.0486ZM407.402 61.4146C406.828 62.4726 406.254 63.5296 405.681 64.5866C407.763 66.1426 409.452 66.4526 409.897 65.5506C410.301 64.7286 409.837 63.7256 407.402 61.4146Z" fill="#EBEBEB"/>
<path d="M318.605 121.195C295.458 110.785 272.312 140.002 249.165 129.593C250.965 124.105 252.765 118.378 254.565 112.448C273.4 116.279 292.236 97.9516 311.071 100.172C313.582 106.781 316.094 113.754 318.605 121.195Z" fill="#EBEBEB"/>
<path d="M292.197 112.927C292.736 116.268 288.937 120.493 283.713 122.654C278.49 124.821 274.372 123.395 274.511 119.787C274.65 116.215 278.445 112.001 282.989 110.121C287.534 108.239 291.658 109.551 292.197 112.927Z" fill="#DBDBDB"/>
<path d="M268.684 121.103C268.6 121.936 267.46 122.879 266.137 123.119C264.814 123.361 263.844 122.808 263.969 121.981C264.095 121.153 265.235 120.352 266.516 120.102C267.797 119.856 268.768 120.267 268.684 121.103Z" fill="#DBDBDB"/>
<path d="M302.702 109.679C302.92 110.463 302.022 111.244 300.698 111.516C299.374 111.786 298.158 111.451 297.982 110.684C297.806 109.919 298.703 109.006 299.986 108.719C301.268 108.43 302.484 108.896 302.702 109.679Z" fill="#DBDBDB"/>
<path d="M256.275 112.741C254.606 118.813 252.937 124.72 251.268 130.434C250.567 130.189 249.866 129.91 249.165 129.595C250.965 124.108 252.765 118.381 254.564 112.453C255.134 112.569 255.704 112.665 256.275 112.741Z" fill="#DBDBDB"/>
<path d="M318.605 121.192C317.903 120.876 317.201 120.597 316.499 120.352C314.118 113.211 311.738 106.463 309.357 100.023C309.928 100.054 310.499 100.102 311.071 100.169C313.582 106.778 316.094 113.751 318.605 121.192Z" fill="#DBDBDB"/>
<path d="M318.13 119.798C318.288 120.262 318.446 120.729 318.603 121.197C295.457 110.789 272.31 140.006 249.164 129.595C249.278 129.25 249.391 128.904 249.505 128.556C272.38 138.462 295.255 110.043 318.13 119.798Z" fill="#DBDBDB"/>
<path d="M311.07 100.171C311.228 100.587 311.386 101.004 311.545 101.423C292.438 98.8195 273.332 117.724 254.225 113.565C254.338 113.193 254.451 112.821 254.564 112.448C273.399 116.279 292.235 97.9525 311.07 100.171Z" fill="#DBDBDB"/>
<path d="M256.179 130.425C254.647 130.213 253.115 129.861 251.583 129.349C251.815 128.551 252.048 127.75 252.28 126.945C254.752 127.686 256.498 128.998 256.179 130.425Z" fill="#DBDBDB"/>
<path d="M315.059 116.071C315.39 117.043 315.72 118.022 316.051 119.009C314.518 118.506 312.986 118.163 311.454 117.959C310.973 116.466 312.584 115.383 315.059 116.071Z" fill="#DBDBDB"/>
<path d="M305.962 101.229C307.244 101.151 308.525 101.15 309.807 101.24C310.138 102.141 310.47 103.047 310.801 103.96C308.612 103.711 306.445 102.65 305.962 101.229Z" fill="#DBDBDB"/>
<path d="M255.265 116.399C255.497 115.564 255.729 114.725 255.96 113.883C257.238 114.071 258.516 114.161 259.794 114.167C259.477 115.618 257.451 116.791 255.265 116.399Z" fill="#DBDBDB"/>
<path d="M283.175 111.617C283.394 111.528 283.587 111.571 283.596 111.711C283.605 111.855 283.615 111.998 283.624 112.142C284.852 111.709 285.759 111.606 286.722 111.661C286.885 111.674 286.977 111.703 286.988 111.809C287.003 111.957 286.809 112.157 286.567 112.254C286.464 112.296 286.376 112.32 286.25 112.304C285.371 112.227 284.532 112.347 283.622 112.651C283.686 113.657 283.75 114.663 283.813 115.67C286.533 114.916 287.734 115.074 287.846 116.113C287.967 117.237 286.41 118.682 284.104 119.666C284.122 119.946 284.14 120.227 284.158 120.507C284.167 120.647 283.969 120.849 283.726 120.948C283.483 121.047 283.272 121.011 283.264 120.871C283.249 120.586 283.233 120.301 283.218 120.016C281.608 120.592 280.29 120.769 279.053 120.61C278.924 120.594 278.851 120.556 278.85 120.457C278.849 120.314 279.066 120.096 279.302 120.005C279.465 119.941 279.575 119.942 279.63 119.953C280.663 120.122 281.792 120.011 283.228 119.515C283.172 118.487 283.116 117.459 283.061 116.431C280.387 117.153 279.282 116.97 279.269 115.871C279.254 114.76 280.738 113.329 282.809 112.452C282.802 112.315 282.794 112.178 282.787 112.041C282.777 111.9 282.956 111.706 283.175 111.617ZM283.029 115.879C282.975 114.894 282.921 113.91 282.868 112.925C281.212 113.62 280.134 114.689 280.152 115.477C280.168 116.221 280.742 116.465 283.029 115.879ZM283.848 116.221C283.911 117.213 283.973 118.205 284.036 119.197C285.872 118.427 287.006 117.333 286.928 116.524C286.856 115.79 286.188 115.589 283.848 116.221Z" fill="#EBEBEB"/>
<path d="M117.994 244.477C92.6602 242.95 81.3772 278.476 56.0442 276.951C55.7812 271.182 55.4332 265.188 55.0142 259.006C73.9842 255.91 85.0972 232.095 103.496 227.492C108.186 232.78 113.007 238.411 117.994 244.477Z" fill="#EBEBEB"/>
<path d="M90.3692 246.114C92.0572 249.046 90.0032 254.344 85.8852 258.217C81.7702 262.095 77.4132 262.222 76.2652 258.799C75.1292 255.41 77.1832 250.124 80.7652 246.755C84.3462 243.384 88.6672 243.149 90.3692 246.114Z" fill="#DBDBDB"/>
<path d="M71.2834 262.092C71.5004 262.901 70.7684 264.187 69.6164 264.881C68.4654 265.577 67.3614 265.403 67.1864 264.586C67.0104 263.767 67.7924 262.614 68.9014 261.926C70.0124 261.241 71.0654 261.281 71.2834 262.092Z" fill="#DBDBDB"/>
<path d="M99.0403 239.352C99.5223 240.008 98.9593 241.057 97.8183 241.781C96.6763 242.503 95.4203 242.621 94.9843 241.966C94.5493 241.313 95.0633 240.142 96.1613 239.419C97.2573 238.693 98.5593 238.697 99.0403 239.352Z" fill="#DBDBDB"/>
<path d="M56.7142 258.672C57.3062 264.941 57.8402 271.056 58.3052 276.991C57.5632 277.011 56.8082 276.999 56.0412 276.952C55.7782 271.183 55.4312 265.191 55.0122 259.009C55.5872 258.915 56.1542 258.803 56.7142 258.672Z" fill="#DBDBDB"/>
<path d="M117.994 244.478C117.226 244.432 116.471 244.419 115.727 244.439C110.969 238.606 106.35 233.14 101.841 227.963C102.386 227.789 102.937 227.632 103.495 227.492C108.186 232.781 113.007 238.412 117.994 244.478Z" fill="#DBDBDB"/>
<path d="M117.053 243.342C117.365 243.72 117.678 244.1 117.992 244.482C92.6592 242.957 81.3762 278.483 56.0422 276.956C56.0262 276.593 56.0092 276.229 55.9922 275.864C80.8932 277.015 92.2052 242.332 117.053 243.342Z" fill="#DBDBDB"/>
<path d="M103.494 227.492C103.789 227.825 104.085 228.159 104.382 228.494C85.5932 232.833 74.4322 257.285 55.0922 260.171C55.0662 259.784 55.0402 259.395 55.0132 259.006C73.9822 255.911 85.0952 232.096 103.494 227.492Z" fill="#DBDBDB"/>
<path d="M62.8961 275.247C61.3881 275.591 59.8311 275.806 58.2171 275.87C58.1521 275.042 58.0851 274.21 58.0171 273.375C60.5911 273.192 62.6891 273.799 62.8961 275.247Z" fill="#DBDBDB"/>
<path d="M112.863 240.945C113.517 241.736 114.173 242.535 114.832 243.34C113.22 243.413 111.666 243.636 110.161 243.988C109.181 242.762 110.305 241.179 112.863 240.945Z" fill="#DBDBDB"/>
<path d="M99.0942 230.298C100.265 229.771 101.463 229.316 102.693 228.945C103.322 229.67 103.953 230.4 104.587 231.136C102.451 231.68 100.05 231.456 99.0942 230.298Z" fill="#DBDBDB"/>
<path d="M57.0682 262.45C56.9882 261.587 56.9082 260.72 56.8262 259.851C58.0872 259.573 59.3142 259.205 60.5112 258.758C60.7292 260.226 59.2512 262.042 57.0682 262.45Z" fill="#DBDBDB"/>
<path d="M81.468 248.084C81.641 247.923 81.837 247.895 81.895 248.023C81.955 248.154 82.014 248.285 82.074 248.416C83.068 247.576 83.88 247.157 84.8 246.868C84.956 246.822 85.053 246.817 85.101 246.913C85.168 247.046 85.057 247.302 84.865 247.478C84.783 247.554 84.71 247.607 84.586 247.638C83.737 247.877 82.995 248.287 82.252 248.894C82.669 249.812 83.085 250.73 83.501 251.649C85.776 249.98 86.955 249.702 87.429 250.634C87.941 251.642 86.997 253.545 85.19 255.283C85.306 255.539 85.422 255.795 85.538 256.05C85.596 256.178 85.483 256.437 85.29 256.616C85.098 256.795 84.887 256.836 84.83 256.708C84.715 256.447 84.599 256.186 84.484 255.925C83.183 257.035 82.014 257.667 80.8 257.957C80.674 257.988 80.592 257.978 80.556 257.886C80.504 257.753 80.63 257.472 80.818 257.303C80.948 257.185 81.051 257.147 81.107 257.138C82.132 256.93 83.148 256.425 84.316 255.453C83.899 254.512 83.483 253.57 83.066 252.629C80.822 254.252 79.724 254.473 79.322 253.45C78.915 252.417 79.794 250.552 81.42 248.998C81.365 248.872 81.309 248.747 81.253 248.622C81.197 248.49 81.295 248.245 81.468 248.084ZM82.843 252.12C82.444 251.219 82.044 250.317 81.645 249.415C80.344 250.652 79.714 252.033 80.011 252.765C80.29 253.455 80.912 253.479 82.843 252.12ZM83.73 252.15C84.14 253.055 84.551 253.961 84.961 254.866C86.405 253.495 87.078 252.07 86.717 251.342C86.39 250.68 85.694 250.729 83.73 252.15Z" fill="#EBEBEB"/>
<path d="M147.536 219.507C120.925 208.516 94.3151 232.56 67.7041 221.57C70.4521 215.565 73.1991 209.186 75.9471 202.511C97.6031 206.159 119.258 191.396 140.914 195.988C143.122 203.614 145.329 211.44 147.536 219.507Z" fill="#EBEBEB"/>
<path d="M118.17 207.653C118.408 211.608 113.73 215.816 107.725 217.328C101.721 218.836 97.2941 216.492 97.8371 212.355C98.3781 208.25 103.051 203.963 108.275 202.649C113.5 201.336 117.931 203.666 118.17 207.653Z" fill="#DBDBDB"/>
<path d="M91.1822 213.035C90.9982 213.982 89.6162 214.918 88.0952 215.05C86.5742 215.183 85.5292 214.471 85.7612 213.54C85.9932 212.608 87.3752 211.79 88.8482 211.64C90.3212 211.491 91.3662 212.086 91.1822 213.035Z" fill="#DBDBDB"/>
<path d="M130.292 205.65C130.454 206.57 129.352 207.342 127.829 207.459C126.307 207.575 124.98 206.995 124.866 206.085C124.752 205.178 125.854 204.282 127.329 204.156C128.803 204.026 130.129 204.731 130.292 205.65Z" fill="#DBDBDB"/>
<path d="M77.9121 202.798C75.3151 209.628 72.7171 216.209 70.1201 222.476C69.3141 222.205 68.5081 221.905 67.7021 221.572C70.4501 215.568 73.1971 209.19 75.9451 202.516C76.6011 202.627 77.2571 202.72 77.9121 202.798Z" fill="#DBDBDB"/>
<path d="M147.536 219.509C146.729 219.176 145.922 218.875 145.115 218.604C143.058 210.759 141.001 203.11 138.944 195.625C139.601 195.73 140.258 195.851 140.915 195.99C143.122 203.616 145.329 211.442 147.536 219.509Z" fill="#DBDBDB"/>
<path d="M147.118 217.986C147.257 218.492 147.395 218.998 147.534 219.506C120.924 208.516 94.3131 232.561 67.7031 221.569C67.8761 221.191 68.0491 220.812 68.2231 220.431C94.5211 230.845 120.819 207.485 147.118 217.986Z" fill="#DBDBDB"/>
<path d="M140.913 195.988C141.052 196.468 141.192 196.948 141.331 197.43C119.364 192.518 97.3962 207.77 75.4292 203.768C75.6022 203.35 75.7742 202.931 75.9472 202.511C97.6022 206.16 119.257 191.398 140.913 195.988Z" fill="#DBDBDB"/>
<path d="M75.8953 222.575C74.1343 222.275 72.3733 221.853 70.6123 221.288C70.9743 220.412 71.3353 219.529 71.6973 218.641C74.5373 219.446 76.4183 220.996 75.8953 222.575Z" fill="#DBDBDB"/>
<path d="M143.871 213.874C144.157 214.955 144.442 216.039 144.728 217.127C142.966 216.557 141.204 216.129 139.442 215.824C139.046 214.126 141.026 213.036 143.871 213.874Z" fill="#DBDBDB"/>
<path d="M134.912 196.531C136.386 196.622 137.859 196.787 139.333 197.037C139.62 198.08 139.906 199.126 140.192 200.176C137.675 199.681 135.311 198.203 134.912 196.531Z" fill="#DBDBDB"/>
<path d="M76.3403 206.901C76.7013 205.965 77.0623 205.024 77.4233 204.078C78.8923 204.27 80.3613 204.381 81.8313 204.424C81.3093 206.057 78.8533 207.31 76.3403 206.901Z" fill="#DBDBDB"/>
<path d="M108.319 204.418C108.571 204.356 108.779 204.443 108.774 204.607C108.769 204.776 108.764 204.944 108.758 205.113C110.162 204.843 111.177 204.899 112.236 205.149C112.414 205.194 112.513 205.247 112.514 205.372C112.515 205.547 112.278 205.741 112.001 205.807C111.882 205.836 111.783 205.846 111.645 205.804C110.681 205.546 109.74 205.524 108.701 205.704C108.663 206.883 108.625 208.063 108.587 209.242C111.676 208.885 112.988 209.3 113.001 210.525C113.014 211.85 111.134 213.23 108.478 213.934C108.468 214.263 108.457 214.591 108.447 214.92C108.442 215.084 108.201 215.281 107.921 215.35C107.642 215.419 107.411 215.337 107.418 215.173C107.432 214.839 107.445 214.507 107.459 214.173C105.617 214.538 104.14 214.496 102.786 214.087C102.645 214.046 102.568 213.988 102.578 213.873C102.592 213.707 102.857 213.494 103.128 213.43C103.316 213.385 103.437 213.407 103.497 213.43C104.623 213.814 105.883 213.896 107.525 213.592C107.574 212.389 107.623 211.186 107.672 209.982C104.638 210.315 103.433 209.911 103.536 208.632C103.64 207.342 105.438 205.944 107.822 205.318C107.828 205.158 107.835 204.997 107.842 204.837C107.849 204.672 108.067 204.48 108.319 204.418ZM107.698 209.335C107.745 208.183 107.791 207.03 107.838 205.877C105.932 206.372 104.623 207.416 104.558 208.334C104.497 209.202 105.105 209.584 107.698 209.335ZM108.567 209.887C108.529 211.05 108.492 212.213 108.454 213.375C110.567 212.83 111.941 211.779 111.94 210.826C111.941 209.962 111.223 209.6 108.567 209.887Z" fill="#EBEBEB"/>
<path d="M59.312 481.195C181.478 480.583 318.522 480.578 440.687 481.195C318.521 481.812 181.478 481.808 59.312 481.195Z" fill="#263238"/>
<path d="M440.688 104.86V241.61H392.328V104.86C392.328 91.5097 403.148 80.6797 416.498 80.6797C429.857 80.6797 440.688 91.5097 440.688 104.86Z" fill="#03B0EF"/>
<g opacity="0.3">
<path d="M440.688 104.86V241.61H392.328V104.86C392.328 91.5097 403.148 80.6797 416.498 80.6797C429.857 80.6797 440.688 91.5097 440.688 104.86Z" fill="white"/>
</g>
<path d="M288.97 104.613V434.893H343.924V435.212C343.924 448.391 354.423 459.08 367.506 459.368H368.335C369.165 459.368 369.994 459.336 370.792 459.24L375.291 458.315C376.408 457.964 377.493 457.517 378.546 457.007C379.056 456.783 379.599 456.496 380.077 456.209C380.332 456.081 380.587 455.922 380.843 455.731C381.545 455.316 382.215 454.869 382.853 454.359C382.949 454.295 383.077 454.2 383.172 454.104C383.651 453.753 384.098 453.37 384.512 452.955C384.735 452.764 384.959 452.54 385.182 452.316C387.926 449.604 390 446.253 391.149 442.456C391.181 442.36 391.213 442.296 391.245 442.232C391.405 441.658 391.564 441.051 391.692 440.445C391.884 439.679 392.011 438.913 392.075 438.115C392.139 437.764 392.139 437.413 392.171 437.062C392.203 436.934 392.203 436.839 392.203 436.711C392.203 436.264 392.299 435.849 392.299 435.403V104.868C392.299 98.1027 397.022 80.6797 417.923 80.6797H312.902C299.692 80.6807 288.97 91.4017 288.97 104.613Z" fill="#03B0EF"/>
<path opacity="0.8" d="M288.97 104.613V434.893H343.924V435.212C343.924 448.391 354.423 459.08 367.506 459.368H368.335C369.165 459.368 369.994 459.336 370.792 459.24L375.291 458.315C376.408 457.964 377.493 457.517 378.546 457.007C379.056 456.783 379.599 456.496 380.077 456.209C380.332 456.081 380.587 455.922 380.843 455.731C381.545 455.316 382.215 454.869 382.853 454.359C382.949 454.295 383.077 454.2 383.172 454.104C383.651 453.753 384.098 453.37 384.512 452.955C384.735 452.764 384.959 452.54 385.182 452.316C387.926 449.604 390 446.253 391.149 442.456C391.181 442.36 391.213 442.296 391.245 442.232C391.405 441.658 391.564 441.051 391.692 440.445C391.884 439.679 392.011 438.913 392.075 438.115C392.139 437.764 392.139 437.413 392.171 437.062C392.203 436.934 392.203 436.839 392.203 436.711C392.203 436.264 392.299 435.849 392.299 435.403V104.868C392.299 98.1027 397.022 80.6797 417.923 80.6797H312.902C299.692 80.6807 288.97 91.4017 288.97 104.613Z" fill="white"/>
<path d="M374.665 99.6328V103.773H359.585C359.885 102.463 360.305 101.063 360.885 99.6328H374.665Z" fill="#03B0EF"/>
<path d="M383.145 88.9844V93.1344H364.645C365.865 91.6244 367.305 90.2144 369.025 88.9844H383.145Z" fill="#03B0EF"/>
<path d="M374.665 111.273H358.985V115.423H374.665V111.273Z" fill="#03B0EF"/>
<path d="M374.665 122.922H358.985V127.072H374.665V122.922Z" fill="#03B0EF"/>
<path d="M374.665 134.578H358.985V138.718H374.665V134.578Z" fill="#03B0EF"/>
<path d="M374.665 146.211H358.985V150.361H374.665V146.211Z" fill="#03B0EF"/>
<path d="M374.665 157.867H358.985V162.017H374.665V157.867Z" fill="#03B0EF"/>
<path d="M374.665 169.516H358.985V173.656H374.665V169.516Z" fill="#03B0EF"/>
<path d="M374.665 181.156H358.985V185.306H374.665V181.156Z" fill="#03B0EF"/>
<path d="M374.665 192.805H358.985V196.955H374.665V192.805Z" fill="#03B0EF"/>
<path d="M374.665 204.453H358.985V208.593H374.665V204.453Z" fill="#03B0EF"/>
<path d="M374.665 216.094H358.985V220.244H374.665V216.094Z" fill="#03B0EF"/>
<path d="M374.665 227.742H358.985V231.892H374.665V227.742Z" fill="#03B0EF"/>
<path d="M374.665 239.391H358.985V243.531H374.665V239.391Z" fill="#03B0EF"/>
<path d="M374.665 251.031H358.985V255.181H374.665V251.031Z" fill="#03B0EF"/>
<path d="M374.665 262.688H358.985V266.837H374.665V262.688Z" fill="#03B0EF"/>
<path d="M374.665 274.336H358.985V278.476H374.665V274.336Z" fill="#03B0EF"/>
<path d="M374.665 285.977H358.985V290.127H374.665V285.977Z" fill="#03B0EF"/>
<path d="M374.665 297.625H358.985V301.775H374.665V297.625Z" fill="#03B0EF"/>
<path opacity="0.5" d="M305.635 99.6328H354.055C353.475 101.063 353.055 102.463 352.755 103.773H305.635V99.6328Z" fill="#03B0EF"/>
<path opacity="0.5" d="M362.205 88.9844C360.485 90.2144 359.035 91.6244 357.815 93.1344H314.115V88.9844H362.205Z" fill="#03B0EF"/>
<path opacity="0.5" d="M352.155 111.273H305.635V115.423H352.155V111.273Z" fill="#03B0EF"/>
<path opacity="0.5" d="M352.155 122.922H305.635V127.072H352.155V122.922Z" fill="#03B0EF"/>
<path opacity="0.5" d="M352.155 134.578H305.635V138.718H352.155V134.578Z" fill="#03B0EF"/>
<path opacity="0.5" d="M352.155 146.211H305.635V150.361H352.155V146.211Z" fill="#03B0EF"/>
<path opacity="0.5" d="M352.155 157.867H305.635V162.017H352.155V157.867Z" fill="#03B0EF"/>
<path opacity="0.5" d="M352.155 169.516H305.635V173.656H352.155V169.516Z" fill="#03B0EF"/>
<path opacity="0.5" d="M352.155 181.156H305.635V185.306H352.155V181.156Z" fill="#03B0EF"/>
<path opacity="0.5" d="M352.155 192.805H305.635V196.955H352.155V192.805Z" fill="#03B0EF"/>
<path opacity="0.5" d="M352.155 204.453H305.635V208.593H352.155V204.453Z" fill="#03B0EF"/>
<path opacity="0.5" d="M352.155 216.094H305.635V220.244H352.155V216.094Z" fill="#03B0EF"/>
<path opacity="0.5" d="M352.155 227.742H305.635V231.892H352.155V227.742Z" fill="#03B0EF"/>
<path opacity="0.5" d="M352.155 239.391H305.635V243.531H352.155V239.391Z" fill="#03B0EF"/>
<path opacity="0.5" d="M352.155 251.031H305.635V255.181H352.155V251.031Z" fill="#03B0EF"/>
<path opacity="0.5" d="M352.155 262.688H305.635V266.837H352.155V262.688Z" fill="#03B0EF"/>
<path opacity="0.5" d="M352.155 274.336H305.635V278.476H352.155V274.336Z" fill="#03B0EF"/>
<path opacity="0.5" d="M352.155 285.977H305.635V290.127H352.155V285.977Z" fill="#03B0EF"/>
<path opacity="0.5" d="M352.155 297.625H305.635V301.775H352.155V297.625Z" fill="#03B0EF"/>
<path d="M374.665 309.266H358.985V313.416H374.665V309.266Z" fill="#03B0EF"/>
<path opacity="0.5" d="M352.155 309.266H305.635V313.416H352.155V309.266Z" fill="#03B0EF"/>
<path d="M374.665 320.914H358.985V325.064H374.665V320.914Z" fill="#03B0EF"/>
<path opacity="0.5" d="M352.155 320.914H305.635V325.064H352.155V320.914Z" fill="#03B0EF"/>
<path d="M374.665 332.562H358.985V336.712H374.665V332.562Z" fill="#03B0EF"/>
<path opacity="0.5" d="M352.155 332.562H305.635V336.712H352.155V332.562Z" fill="#03B0EF"/>
<path d="M374.665 344.203H358.985V348.353H374.665V344.203Z" fill="#03B0EF"/>
<path opacity="0.5" d="M352.155 344.203H305.635V348.353H352.155V344.203Z" fill="#03B0EF"/>
<path d="M374.665 355.852H358.985V360.002H374.665V355.852Z" fill="#03B0EF"/>
<path opacity="0.5" d="M352.155 355.852H305.635V360.002H352.155V355.852Z" fill="#03B0EF"/>
<path d="M374.665 367.492H358.985V371.642H374.665V367.492Z" fill="#03B0EF"/>
<path opacity="0.5" d="M352.155 367.492H305.635V371.642H352.155V367.492Z" fill="#03B0EF"/>
<path d="M374.665 379.141H358.985V383.291H374.665V379.141Z" fill="#03B0EF"/>
<path opacity="0.5" d="M352.155 379.141H305.635V383.291H352.155V379.141Z" fill="#03B0EF"/>
<path d="M374.665 390.781H358.985V394.931H374.665V390.781Z" fill="#03B0EF"/>
<path opacity="0.5" d="M352.155 390.781H305.635V394.931H352.155V390.781Z" fill="#03B0EF"/>
<path d="M374.665 402.43H358.985V406.58H374.665V402.43Z" fill="#03B0EF"/>
<path opacity="0.5" d="M352.155 402.43H305.635V406.58H352.155V402.43Z" fill="#03B0EF"/>
<path d="M374.665 414.078H358.985V418.228H374.665V414.078Z" fill="#03B0EF"/>
<path opacity="0.5" d="M352.155 414.078H305.635V418.228H352.155V414.078Z" fill="#03B0EF"/>
<path d="M374.665 425.719H358.985V429.869H374.665V425.719Z" fill="#03B0EF"/>
<path opacity="0.5" d="M352.155 425.719H305.635V429.869H352.155V425.719Z" fill="#03B0EF"/>
<path d="M373.665 437.367H357.985V441.517H373.665V437.367Z" fill="#03B0EF"/>
<path opacity="0.5" d="M351.155 437.367H304.635V441.517H351.155V437.367Z" fill="#03B0EF"/>
<path d="M368.665 449.008H352.985V453.158H368.665V449.008Z" fill="#03B0EF"/>
<path opacity="0.5" d="M346.155 449.008H299.635V453.158H346.155V449.008Z" fill="#03B0EF"/>
<path opacity="0.1" d="M366.474 459.333C353.878 458.519 343.926 448.048 343.926 435.22V434.903H288.973V191.82C298.735 191.82 310.136 191.831 323.43 191.831C338.691 191.831 351.065 203.465 351.065 217.795V436.044C351.064 446.25 357.347 455.092 366.474 459.333Z" fill="black"/>
<path d="M367.201 459.377H262.745L295.559 221.997C295.559 208.65 306.389 197.82 319.736 197.82C333.094 197.82 343.924 208.65 343.924 221.997V435.2C343.924 448.24 354.257 458.88 367.181 459.356L367.201 459.377Z" fill="#03B0EF"/>
<g opacity="0.3">
<path d="M367.201 459.377H262.745L295.559 221.997C295.559 208.65 306.389 197.82 319.736 197.82C333.094 197.82 343.924 208.65 343.924 221.997V435.2C343.924 448.24 354.257 458.88 367.181 459.356L367.201 459.377Z" fill="white"/>
</g>
<path d="M192.299 221.752V455.722H247.253V456.041C247.253 469.22 257.752 479.909 270.835 480.197H271.664C272.494 480.197 273.323 480.165 274.121 480.069L278.62 479.144C279.737 478.793 280.822 478.346 281.875 477.836C282.385 477.612 282.928 477.325 283.406 477.038C283.661 476.91 283.916 476.751 284.172 476.56C284.874 476.145 285.544 475.698 286.182 475.188C286.278 475.124 286.406 475.029 286.501 474.933C286.98 474.582 287.427 474.199 287.841 473.784C288.064 473.592 288.288 473.369 288.511 473.145C291.255 470.433 293.329 467.082 294.478 463.285C294.51 463.189 294.542 463.125 294.574 463.061C294.734 462.487 294.893 461.88 295.021 461.274C295.213 460.508 295.34 459.742 295.404 458.944C295.468 458.593 295.468 458.242 295.5 457.891C295.532 457.763 295.532 457.668 295.532 457.54C295.532 457.093 295.628 456.679 295.628 456.232V222.008C295.628 215.243 300.351 197.82 321.252 197.82H216.231C203.021 197.82 192.299 208.542 192.299 221.752Z" fill="#03B0EF"/>
<path opacity="0.8" d="M192.299 221.752V455.722H247.253V456.041C247.253 469.22 257.752 479.909 270.835 480.197H271.664C272.494 480.197 273.323 480.165 274.121 480.069L278.62 479.144C279.737 478.793 280.822 478.346 281.875 477.836C282.385 477.612 282.928 477.325 283.406 477.038C283.661 476.91 283.916 476.751 284.172 476.56C284.874 476.145 285.544 475.698 286.182 475.188C286.278 475.124 286.406 475.029 286.501 474.933C286.98 474.582 287.427 474.199 287.841 473.784C288.064 473.592 288.288 473.369 288.511 473.145C291.255 470.433 293.329 467.082 294.478 463.285C294.51 463.189 294.542 463.125 294.574 463.061C294.734 462.487 294.893 461.88 295.021 461.274C295.213 460.508 295.34 459.742 295.404 458.944C295.468 458.593 295.468 458.242 295.5 457.891C295.532 457.763 295.532 457.668 295.532 457.54C295.532 457.093 295.628 456.679 295.628 456.232V222.008C295.628 215.243 300.351 197.82 321.252 197.82H216.231C203.021 197.82 192.299 208.542 192.299 221.752Z" fill="white"/>
<path d="M277.957 212.977V217.117H262.877C263.177 215.807 263.597 214.407 264.177 212.977H277.957Z" fill="#03B0EF"/>
<path d="M286.438 202.328V206.478H267.938C269.158 204.968 270.598 203.558 272.318 202.328H286.438Z" fill="#03B0EF"/>
<path d="M277.957 224.617H262.277V228.767H277.957V224.617Z" fill="#03B0EF"/>
<path d="M277.957 236.266H262.277V240.416H277.957V236.266Z" fill="#03B0EF"/>
<path d="M277.957 247.922H262.277V252.062H277.957V247.922Z" fill="#03B0EF"/>
<path d="M277.957 259.555H262.277V263.705H277.957V259.555Z" fill="#03B0EF"/>
<path d="M277.957 271.211H262.277V275.361H277.957V271.211Z" fill="#03B0EF"/>
<path d="M277.957 282.859H262.277V286.999H277.957V282.859Z" fill="#03B0EF"/>
<path d="M277.957 294.5H262.277V298.65H277.957V294.5Z" fill="#03B0EF"/>
<path d="M277.957 306.148H262.277V310.298H277.957V306.148Z" fill="#03B0EF"/>
<path d="M277.957 317.797H262.277V321.937H277.957V317.797Z" fill="#03B0EF"/>
<path d="M277.957 329.438H262.277V333.587H277.957V329.438Z" fill="#03B0EF"/>
<path d="M277.957 341.086H262.277V345.236H277.957V341.086Z" fill="#03B0EF"/>
<path d="M277.957 352.734H262.277V356.874H277.957V352.734Z" fill="#03B0EF"/>
<path d="M277.957 364.375H262.277V368.525H277.957V364.375Z" fill="#03B0EF"/>
<path d="M277.957 376.031H262.277V380.181H277.957V376.031Z" fill="#03B0EF"/>
<path d="M277.957 387.68H262.277V391.82H277.957V387.68Z" fill="#03B0EF"/>
<path d="M277.957 399.32H262.277V403.47H277.957V399.32Z" fill="#03B0EF"/>
<path d="M277.957 410.969H262.277V415.119H277.957V410.969Z" fill="#03B0EF"/>
<path opacity="0.5" d="M208.927 212.977H257.347C256.767 214.407 256.347 215.807 256.047 217.117H208.927V212.977Z" fill="#03B0EF"/>
<path opacity="0.5" d="M265.497 202.328C263.777 203.558 262.327 204.968 261.107 206.478H217.407V202.328H265.497Z" fill="#03B0EF"/>
<path opacity="0.5" d="M255.447 224.617H208.927V228.767H255.447V224.617Z" fill="#03B0EF"/>
<path opacity="0.5" d="M255.447 236.266H208.927V240.416H255.447V236.266Z" fill="#03B0EF"/>
<path opacity="0.5" d="M255.447 247.922H208.927V252.062H255.447V247.922Z" fill="#03B0EF"/>
<path opacity="0.5" d="M255.447 259.555H208.927V263.705H255.447V259.555Z" fill="#03B0EF"/>
<path opacity="0.5" d="M255.447 271.211H208.927V275.361H255.447V271.211Z" fill="#03B0EF"/>
<path opacity="0.5" d="M255.447 282.859H208.927V286.999H255.447V282.859Z" fill="#03B0EF"/>
<path opacity="0.5" d="M255.447 294.5H208.927V298.65H255.447V294.5Z" fill="#03B0EF"/>
<path opacity="0.5" d="M255.447 306.148H208.927V310.298H255.447V306.148Z" fill="#03B0EF"/>
<path opacity="0.5" d="M255.447 317.797H208.927V321.937H255.447V317.797Z" fill="#03B0EF"/>
<path opacity="0.5" d="M255.447 329.438H208.927V333.587H255.447V329.438Z" fill="#03B0EF"/>
<path opacity="0.5" d="M255.447 341.086H208.927V345.236H255.447V341.086Z" fill="#03B0EF"/>
<path opacity="0.5" d="M255.447 352.734H208.927V356.874H255.447V352.734Z" fill="#03B0EF"/>
<path opacity="0.5" d="M255.447 364.375H208.927V368.525H255.447V364.375Z" fill="#03B0EF"/>
<path opacity="0.5" d="M255.447 376.031H208.927V380.181H255.447V376.031Z" fill="#03B0EF"/>
<path opacity="0.5" d="M255.447 387.68H208.927V391.82H255.447V387.68Z" fill="#03B0EF"/>
<path opacity="0.5" d="M255.447 399.32H208.927V403.47H255.447V399.32Z" fill="#03B0EF"/>
<path opacity="0.5" d="M255.447 410.969H208.927V415.119H255.447V410.969Z" fill="#03B0EF"/>
<path opacity="0.5" d="M255.447 422.617H208.927V426.757H255.447V422.617Z" fill="#03B0EF"/>
<path d="M277.957 422.617H262.277V426.757H277.957V422.617Z" fill="#03B0EF"/>
<path d="M157.039 455.727V456.046C157.039 469.225 167.537 479.914 180.62 480.202H270.835C257.752 479.915 247.253 469.225 247.253 456.046V455.727H157.039Z" fill="#03B0EF"/>
<g opacity="0.3">
<path d="M157.039 455.727V456.046C157.039 469.225 167.537 479.914 180.62 480.202H270.835C257.752 479.915 247.253 469.225 247.253 456.046V455.727H157.039Z" fill="white"/>
</g>
<path d="M213.577 438.406H212.044V443.554C212.044 443.852 211.812 444.084 211.513 444.084C211.224 444.084 210.983 443.853 210.983 443.554V438.406H209.46C209.161 438.406 208.929 438.156 208.929 437.867C208.929 437.568 209.161 437.336 209.46 437.336H213.576C213.865 437.336 214.106 437.568 214.106 437.867C214.107 438.156 213.866 438.406 213.577 438.406Z" fill="#03B0EF"/>
<path d="M220.492 438.173C221.089 438.809 221.465 439.657 221.465 440.612C221.465 441.567 221.089 442.424 220.492 443.051C219.923 443.677 219.074 444.082 218.187 444.082C217.262 444.082 216.414 443.677 215.825 443.051C215.228 442.425 214.871 441.567 214.871 440.612C214.871 439.658 215.227 438.809 215.825 438.173C216.414 437.536 217.261 437.141 218.187 437.141C219.074 437.141 219.923 437.536 220.492 438.173ZM220.366 440.611C220.366 439.955 220.105 439.348 219.71 438.924C219.305 438.49 218.765 438.239 218.187 438.239C217.57 438.239 217.031 438.489 216.626 438.924C216.221 439.348 215.971 439.955 215.971 440.611C215.971 441.266 216.221 441.874 216.626 442.288C217.031 442.721 217.57 442.982 218.187 442.982C218.765 442.982 219.305 442.721 219.71 442.288C220.106 441.874 220.366 441.267 220.366 440.611Z" fill="#03B0EF"/>
<path d="M226.964 438.406H225.431V443.554C225.431 443.852 225.199 444.084 224.9 444.084C224.611 444.084 224.37 443.853 224.37 443.554V438.406H222.847C222.548 438.406 222.316 438.156 222.316 437.867C222.316 437.568 222.547 437.336 222.847 437.336H226.963C227.252 437.336 227.493 437.568 227.493 437.867C227.494 438.156 227.253 438.406 226.964 438.406Z" fill="#03B0EF"/>
<path d="M231.613 442.492H229.27L228.798 443.745C228.711 443.957 228.508 444.083 228.296 444.083C228.229 444.083 228.17 444.074 228.113 444.054C227.833 443.948 227.698 443.64 227.794 443.36L229.924 437.682C230.011 437.47 230.223 437.335 230.435 437.344C230.657 437.335 230.86 437.47 230.946 437.682L233.076 443.36C233.173 443.639 233.038 443.948 232.758 444.054C232.71 444.074 232.643 444.083 232.575 444.083C232.363 444.083 232.161 443.957 232.083 443.745L231.613 442.492ZM231.218 441.432L230.437 439.359L229.657 441.432H231.218Z" fill="#03B0EF"/>
<path d="M234.402 443.555V437.867C234.402 437.577 234.634 437.336 234.933 437.336C235.231 437.336 235.472 437.577 235.472 437.867V443.015H238.085C238.364 443.015 238.615 443.256 238.615 443.555C238.615 443.844 238.365 444.085 238.085 444.085H234.962C234.943 444.085 234.943 444.085 234.943 444.085C234.933 444.085 234.933 444.085 234.933 444.085C234.634 444.085 234.402 443.844 234.402 443.555Z" fill="#03B0EF"/>
<path d="M240.382 438.875C240.778 438.875 241.105 439.203 241.105 439.598C241.105 439.994 240.778 440.311 240.382 440.311C239.987 440.311 239.669 439.993 239.669 439.598C239.668 439.203 239.987 438.875 240.382 438.875ZM240.382 442.712C240.778 442.712 241.105 443.04 241.105 443.435C241.105 443.831 240.778 444.149 240.382 444.149C239.987 444.149 239.669 443.831 239.669 443.435C239.668 443.04 239.987 442.712 240.382 442.712Z" fill="#03B0EF"/>
<path d="M277.957 438.828H262.277V443.663H277.957V438.828Z" fill="#03B0EF"/>
<path d="M250.128 435.289C250.429 435.289 250.666 435.527 250.666 435.827V436.103C251.404 436.191 252.031 436.428 252.606 436.791C252.807 436.904 252.982 437.092 252.982 437.392C252.982 437.779 252.669 438.08 252.281 438.08C252.156 438.08 252.031 438.042 251.906 437.968C251.468 437.705 251.042 437.516 250.616 437.416V439.82C252.519 440.296 253.333 441.06 253.333 442.399C253.333 443.776 252.257 444.691 250.666 444.84V445.591C250.666 445.892 250.429 446.129 250.128 446.129C249.827 446.129 249.577 445.891 249.577 445.591V444.814C248.638 444.714 247.775 444.377 247.011 443.837C246.798 443.699 246.673 443.5 246.673 443.237C246.673 442.849 246.974 442.549 247.362 442.549C247.512 442.549 247.662 442.599 247.775 442.687C248.363 443.112 248.939 443.4 249.628 443.525V441.059C247.799 440.583 246.948 439.895 246.948 438.48C246.948 437.141 248.012 436.214 249.577 436.089V435.826C249.577 435.527 249.828 435.289 250.128 435.289ZM249.628 439.558V437.343C248.827 437.417 248.426 437.843 248.426 438.394C248.426 438.92 248.664 439.245 249.628 439.558ZM250.616 441.298V443.577C251.417 443.489 251.856 443.089 251.856 442.487C251.856 441.937 251.58 441.598 250.616 441.298Z" fill="#03B0EF"/>
<path d="M411.532 382.247C410.526 379.584 408.736 365.644 408.256 357.311C407.776 348.978 412.384 338.45 416.433 333.037C420.482 327.623 422.59 326.65 423.837 321.529C425.083 316.408 428.406 309.758 434.323 303.187C440.24 296.617 443.578 294.228 447.051 294.749C450.524 295.271 450.498 303.371 451.017 304.98C451.536 306.589 456.924 310.771 455.874 317.029C454.824 323.286 453.011 325.604 453.023 327.71C453.036 329.816 455.475 332.888 453.673 338.042C451.871 343.195 442.758 347.785 440.721 350.558C438.684 353.331 435.318 360.935 431.545 364.89C427.773 368.845 421.266 372.006 418.515 374.919C415.765 377.83 411.532 382.247 411.532 382.247Z" fill="#03B0EF"/>
<path opacity="0.1" d="M411.532 382.247C410.526 379.584 408.736 365.644 408.256 357.311C407.776 348.978 412.384 338.45 416.433 333.037C420.482 327.623 422.59 326.65 423.837 321.529C425.083 316.408 428.406 309.758 434.323 303.187C440.24 296.617 443.578 294.228 447.051 294.749C450.524 295.271 450.498 303.371 451.017 304.98C451.536 306.589 456.924 310.771 455.874 317.029C454.824 323.286 453.011 325.604 453.023 327.71C453.036 329.816 455.475 332.888 453.673 338.042C451.871 343.195 442.758 347.785 440.721 350.558C438.684 353.331 435.318 360.935 431.545 364.89C427.773 368.845 421.266 372.006 418.515 374.919C415.765 377.83 411.532 382.247 411.532 382.247Z" fill="black"/>
<g opacity="0.2">
<path d="M412.068 378.707C415.887 365.195 420.752 351.943 427.424 339.57C431.737 330.026 434.477 319.776 438.096 309.928C439.371 306.673 440.516 303.27 442.602 300.43L441.914 301.55C438.994 307.433 437.433 313.889 435.403 320.12C433.307 326.813 431.207 333.528 428.331 339.986C421.579 352.299 416.646 365.453 412.068 378.707Z" fill="black"/>
<path d="M414.687 342.492C413.601 350.434 413.55 358.429 414.628 366.374C414.732 367.517 414.887 368.651 415.011 369.797C412.394 360.947 411.996 351.369 414.687 342.492Z" fill="black"/>
<path d="M437.576 348.812C434.149 353.425 430.638 358.049 426.185 361.736C423.243 363.633 419.883 364.677 416.527 365.504C417.58 365.046 418.639 364.618 419.673 364.132C421.717 363.226 423.825 362.259 425.63 360.969C429.889 357.254 433.491 352.747 437.576 348.812Z" fill="black"/>
<path d="M426.099 325.031C425.542 331.88 424.769 338.609 424.924 345.478C423.379 338.749 424.191 331.603 426.099 325.031Z" fill="black"/>
<path d="M450.741 314.961C446.068 322.104 439.493 328.696 431.231 331.401C432.169 330.854 433.145 330.421 434.03 329.81C440.411 325.884 445.703 320.453 450.741 314.961Z" fill="black"/>
<path d="M447.083 310.422C444.314 315.684 440.063 321.055 434.142 322.785C439.349 319.851 443.196 314.852 447.083 310.422Z" fill="black"/>
</g>
<path d="M394.54 436.93H392.016C392.016 436.93 395.564 423.624 399.771 411.147C404.829 396.146 410.711 385.063 410.892 379.648L413.294 380.404C413.294 380.404 404.845 399.85 401.889 410.584C398.933 421.318 394.54 436.93 394.54 436.93Z" fill="#03B0EF"/>
<path opacity="0.1" d="M394.54 436.93H392.016C392.016 436.93 395.564 423.624 399.771 411.147C404.829 396.146 410.711 385.063 410.892 379.648L413.294 380.404C413.294 380.404 404.845 399.85 401.889 410.584C398.933 421.318 394.54 436.93 394.54 436.93Z" fill="black"/>
<path d="M380.127 376.595C380.127 376.595 380.931 364.348 383.079 353.235C383.996 348.492 382.108 332.457 379.931 324.961C377.754 317.465 368.492 295.151 363.7 291.38C358.908 287.609 336.42 274.366 326.465 274.328C316.51 274.29 318.289 283.282 320.707 289.555C323.125 295.828 331.007 305.571 333.678 311.081C336.349 316.591 342.951 341.024 346.358 347.95C349.765 354.876 355.03 366.033 359.622 369.28C364.216 372.528 376.809 373.807 380.127 376.595Z" fill="#03B0EF"/>
<path opacity="0.1" d="M380.127 376.595C380.127 376.595 380.931 364.348 383.079 353.235C383.996 348.492 382.108 332.457 379.931 324.961C377.754 317.465 368.492 295.151 363.7 291.38C358.908 287.609 336.42 274.366 326.465 274.328C316.51 274.29 318.289 283.282 320.707 289.555C323.125 295.828 331.007 305.571 333.678 311.081C336.349 316.591 342.951 341.024 346.358 347.95C349.765 354.876 355.03 366.033 359.622 369.28C364.216 372.528 376.809 373.807 380.127 376.595Z" fill="black"/>
<g opacity="0.2">
<path d="M325.093 277.539C329.325 279.794 333.028 282.916 336.749 285.913C342.219 290.584 347.713 295.309 352.255 300.931C356.32 306.926 359.251 313.519 362.438 319.988C364.409 324.362 366.54 328.688 367.973 333.282C370.394 341.289 373.687 352.719 376.052 360.853L379.614 374.77L375.583 360.994C373.029 352.85 369.538 341.606 367.111 333.571C365.668 329.036 363.512 324.741 361.534 320.411C358.433 314.01 355.512 307.357 351.566 301.449C347.12 295.87 341.775 291.009 336.433 286.283C332.819 283.172 329.209 279.98 325.093 277.539Z" fill="black"/>
<path d="M328.223 294.281C332.342 297.54 336.509 301.074 341.29 303.255C346.356 304.898 351.455 306.502 356.317 308.717C355.021 308.375 353.744 307.982 352.455 307.626C350.542 307.049 346.698 305.915 344.781 305.359C338.056 303.94 332.816 299.09 328.223 294.281Z" fill="black"/>
<path d="M360.337 293.438C362.204 297.956 363.174 302.775 364.223 307.533C364.607 309.949 365.385 312.411 365.112 314.875C364.773 317.368 363.868 319.672 362.752 321.843C363.125 320.68 363.489 319.521 363.754 318.34C364.183 316.607 364.524 314.837 364.272 313.076C364.096 311.889 363.478 308.953 363.243 307.73C362.373 303.619 361.319 297.47 360.337 293.438Z" fill="black"/>
<path d="M347.208 328.961C350.86 332.156 355.516 336.691 359.41 339.459C362.257 341.109 365.597 343.004 368.419 344.737C369.492 345.422 370.581 346.077 371.638 346.788C370.47 346.275 369.335 345.705 368.182 345.166C365.197 343.655 361.74 341.964 358.868 340.285C354.422 337.116 350.727 333.087 347.208 328.961Z" fill="black"/>
<path d="M344.028 337.898C348.824 342.228 353.401 347.31 359.43 349.881C362.671 350.94 366.592 352.351 369.818 353.529C371.188 354.064 372.569 354.566 373.932 355.13C372.502 354.782 371.09 354.372 369.668 353.995C366.351 353.035 362.366 351.867 359.11 350.803C352.928 348.292 348.248 342.858 344.028 337.898Z" fill="black"/>
</g>
<path d="M378.563 374.985C379.648 376.769 382.354 388.48 383.869 401.159C385.896 418.128 386.638 436.931 386.638 436.931H390.679C390.679 436.931 388.087 410.664 386.314 399.214C384.542 387.764 379.985 373.984 379.985 373.984L378.563 374.985Z" fill="#03B0EF"/>
<path opacity="0.1" d="M378.563 374.985C379.648 376.769 382.354 388.48 383.869 401.159C385.896 418.128 386.638 436.931 386.638 436.931H390.679C390.679 436.931 388.087 410.664 386.314 399.214C384.542 387.764 379.985 373.984 379.985 373.984L378.563 374.985Z" fill="black"/>
<path d="M381.318 410.362C385.93 419.586 387.364 436.929 387.364 436.929H390.541C390.541 436.929 387.284 420.979 385.929 416.54C384.404 411.543 383.858 409.031 383.858 409.031L381.318 410.362Z" fill="#03B0EF"/>
<path d="M383.171 411.157C384.054 408.333 385.293 404.729 387.055 400.776C388.164 398.288 390.232 391.515 389.703 387.92C389.173 384.325 380.7 376.734 379.023 375.322C377.346 373.91 371.609 372.409 369.932 368.173C368.255 363.936 368.873 359.17 365.784 356.081C362.695 352.992 352.015 350.697 348.661 349.02C345.307 347.343 341.07 344.254 336.657 344.077C332.244 343.901 323.417 343.283 319.093 345.224C314.768 347.166 307.707 352.373 308.325 355.021C308.943 357.669 311.855 357.845 313.532 360.228C315.209 362.611 322.623 374.791 330.655 384.589C338.687 394.386 347.69 399.927 351.485 400.775C355.28 401.624 359.076 401.535 361.988 403.036C364.901 404.537 365.783 406.567 370.108 408.155C374.433 409.744 378.67 409.744 380.435 410.097C382.2 410.451 383.171 411.157 383.171 411.157Z" fill="#03B0EF"/>
<path d="M383.165 411.146C383.045 411.066 382.09 410.429 380.434 410.095C378.666 409.745 374.43 409.745 370.107 408.152C365.783 406.567 364.899 404.537 361.985 403.04C359.079 401.535 355.281 401.623 351.482 400.779C347.692 399.927 338.686 394.385 330.652 384.591C323.852 376.286 317.49 366.277 314.687 361.961C317.8 366.476 330.413 381.398 333.742 383.619C337.19 385.912 351.666 390.594 355.544 392.091C359.43 393.588 364.199 400.826 367.552 403.74C370.903 406.655 381.294 408.853 383.165 411.146Z" fill="#03B0EF"/>
<path opacity="0.2" d="M383.165 411.146C383.045 411.066 382.09 410.429 380.434 410.095C378.666 409.745 374.43 409.745 370.107 408.152C365.783 406.567 364.899 404.537 361.985 403.04C359.079 401.535 355.281 401.623 351.482 400.779C347.692 399.927 338.686 394.385 330.652 384.591C323.852 376.286 317.49 366.277 314.687 361.961C317.8 366.476 330.413 381.398 333.742 383.619C337.19 385.912 351.666 390.594 355.544 392.091C359.43 393.588 364.199 400.826 367.552 403.74C370.903 406.655 381.294 408.853 383.165 411.146Z" fill="black"/>
<g opacity="0.2">
<path d="M310.707 353.125C318.853 353.981 326.655 356.911 334.336 359.635C341.956 362.629 349.752 365.632 356.251 370.771C364.017 377.5 370.712 385.427 376.275 394.052C379.081 399.549 381.052 405.372 383.165 411.147C380.786 405.528 378.611 399.743 375.73 394.372C370.011 386.018 363.309 378.101 355.617 371.543C352.52 368.947 348.93 367.021 345.273 365.23C337.915 361.726 330.299 358.717 322.552 356.173C318.672 354.918 314.764 353.657 310.707 353.125Z" fill="black"/>
<path d="M334.097 378.141C345.754 382.631 358.539 383.025 370.477 386.549L365.845 385.846C358.173 384.604 350.279 383.813 342.833 381.533C339.861 380.603 336.732 379.85 334.097 378.141Z" fill="black"/>
<path d="M349.037 354.578C353.396 357.476 356.629 361.764 359.75 365.897C363.045 370.073 364.297 375.34 365.355 380.437L364.029 376.771C362.784 373.102 361.357 369.528 358.937 366.477C355.86 362.357 352.878 358.036 349.037 354.578Z" fill="black"/>
<path d="M377.522 382.352C379.074 385.406 379.368 388.918 379.724 392.274C379.978 395.657 380.054 399.051 379.732 402.44C378.716 395.857 378.875 388.868 377.522 382.352Z" fill="black"/>
<path d="M340.364 349.547C344.748 353.542 348.638 358.042 352.266 362.726C354.412 365.592 355.77 368.961 357.196 372.219C356.554 371.22 355.964 370.195 355.336 369.191C353.628 366.091 351.615 363.229 349.288 360.563C347.05 357.834 342.569 352.303 340.364 349.547Z" fill="black"/>
<path d="M326.154 361.961C330.654 363.383 335.263 364.622 339.932 365.308C342.69 365.601 345.717 365.889 348.454 366.308C340.735 366.857 332.987 365.816 326.154 361.961Z" fill="black"/>
</g>
<path d="M402.604 421.039C403.531 417.597 403.928 415.678 403.398 411.143C402.868 406.608 400.458 401.842 403.119 398.002C405.781 394.163 411.474 391.647 412.533 389.132C413.592 386.616 416.77 379.864 422.992 375.231C429.215 370.597 436.761 367.42 440.733 364.375C444.705 361.33 449.603 355.769 452.251 357.755C454.899 359.741 449.868 377.537 447.485 379.628C445.102 381.719 441.262 397.077 437.291 399.592C433.32 402.107 429.743 402.372 428.817 403.431C427.89 404.49 425.773 408.065 422.463 409.256C419.153 410.448 411.607 414.022 408.032 416.273C404.458 418.524 402.604 421.039 402.604 421.039Z" fill="#03B0EF"/>
<g opacity="0.2">
<path d="M402.604 421.04C409.01 409.768 416.35 398.993 424.754 389.106C433.324 379.371 441.92 369.724 449.868 359.477C440.843 372.969 429.452 384.602 419.351 397.234C413.415 404.91 407.868 412.885 402.604 421.04Z" fill="black"/>
<path d="M410.807 408.044C418.37 404.173 426.789 399.949 434.511 396.414C427.173 401.274 419.172 405.292 410.807 408.044Z" fill="black"/>
<path d="M417.167 382.344C416.148 389.054 415.228 395.663 414.865 402.432C413.838 395.711 414.812 388.697 417.167 382.344Z" fill="black"/>
<path d="M425.508 374.32C424.422 380.364 423.113 386.249 422.659 392.371C421.714 386.267 423.106 379.939 425.508 374.32Z" fill="black"/>
<path d="M449.075 373.031C444.013 377.325 437.934 380.498 431.498 382.134C437.462 379.19 443.224 376.194 449.075 373.031Z" fill="black"/>
</g>
<path d="M403.328 417.992C399.719 425.451 396.381 436.925 396.381 436.925H398.168C398.168 436.925 401.368 423.534 404.501 418.993L403.328 417.992Z" fill="#03B0EF"/>
<path d="M395.71 390.461C395.048 386.092 393.062 381.061 389.09 376.824C385.118 372.587 378.234 365.968 376.115 352.993C373.997 340.018 378.411 327.854 379.292 324.793C380.173 321.732 382.205 317.511 383.661 317.246C385.117 316.981 388.295 318.702 390.943 318.967C393.591 319.232 398.887 319.232 403.52 325.587C408.154 331.942 414.244 336.179 417.686 345.579C421.128 354.979 420.334 371.396 414.111 376.427C407.888 381.458 401.931 382.914 399.283 385.43C396.637 387.946 395.71 390.461 395.71 390.461Z" fill="#03B0EF"/>
<g opacity="0.2">
<path d="M385.384 318.836C389.774 322.988 391.915 328.925 394.184 334.393C397.464 342.796 399.812 351.622 399.933 360.693C400.072 366.676 400.595 372.773 399.208 378.664C398.43 381.572 397.424 384.401 396.24 387.152C397.212 384.323 398.122 381.467 398.73 378.552C399.436 375.658 399.354 372.677 399.332 369.688C399.224 363.727 399.009 357.732 398.183 351.851C397.315 345.987 395.371 340.271 393.465 334.658C391.365 329.144 389.435 323.261 385.384 318.836Z" fill="black"/>
<path d="M378.275 338.961C381.2 342.006 384.544 344.534 387.932 347.023C390.427 348.928 393.057 350.621 395.968 351.833C396.918 352.289 397.891 352.693 398.859 353.128C394.685 352.232 390.712 350.481 387.344 347.831C383.96 345.305 380.619 342.514 378.275 338.961Z" fill="black"/>
<path d="M402.464 326.383C402.955 332.616 402.26 339.808 396.875 343.846C398.698 341.346 400.371 338.688 400.961 335.64C401.608 332.596 401.929 329.469 402.464 326.383Z" fill="black"/>
<path d="M415.702 347.43C414.009 353.701 412.084 360.01 408.795 365.658C406.456 368.888 403.065 371.102 399.669 373.031C400.699 372.239 401.728 371.455 402.705 370.609C405.736 368.211 408.338 365.387 409.737 361.752C411.867 357.05 413.692 352.199 415.702 347.43Z" fill="black"/>
<path d="M382.342 359.484C384.875 362.765 387.379 366.33 389.88 369.624C392.41 372.898 395.036 376.356 398.859 378.152C391.491 376.059 385.889 365.859 382.342 359.484Z" fill="black"/>
<path d="M409.877 352.992C409.035 355.937 407.857 358.752 406.447 361.47C405.137 364.333 402.873 366.643 399.719 367.511C401.611 366.261 403.414 365.02 404.483 362.972C406.352 359.686 407.92 356.274 409.877 352.992Z" fill="black"/>
</g>
<path d="M389.753 436.929H387.282C387.282 436.929 396.369 400.23 395.089 387.555L396.648 388.655C396.648 388.655 396.647 409.921 389.753 436.929Z" fill="#03B0EF"/>
<path d="M407.729 480.9H369.405L365.133 436.93H412.001L407.729 480.9Z" fill="#37474F"/>
<path opacity="0.9" d="M365.13 436.93L366.248 448.46H410.879L411.998 436.93H365.13Z" fill="white"/>
<path d="M366.248 448.461L367.367 459.991H409.76L410.879 448.461H366.248Z" fill="#03B0EF"/>
<path opacity="0.1" d="M407.729 480.9L379.962 470.346L369.623 436.93H365.133L369.405 480.9H407.729Z" fill="black"/>
<path d="M117.368 410.399L89.0142 376.983C89.0142 376.983 108.175 341.496 132.813 313.656C141.275 304.094 151.25 296.327 151.25 292.467C151.25 290.216 147.763 278.223 140.734 235.491C140.734 235.491 134.216 217.013 131.317 206.596C129.992 201.837 131.081 184.329 131.081 184.329L186.559 183.906C190.882 204.6 210.2 288.448 206.739 305.533C202.876 324.603 117.368 410.399 117.368 410.399Z" fill="#FFBE93"/>
<path d="M98.0038 480C96.8798 479.861 88.5408 472.133 79.6158 463.703C75.7778 460.078 62.7049 401.056 63.0889 397.794C63.4689 394.565 77.3428 392.273 78.4358 391.903L101.311 359.633L134.429 389.175L106.139 424.364C106.139 424.364 100.413 447.779 100.445 452.681C100.476 457.475 102.509 465.521 104.031 468.456C105.599 471.482 101.248 480.402 98.0038 480Z" fill="#FFBE93"/>
<path d="M63.0883 397.797C62.7063 401.055 75.7803 460.079 79.6173 463.703C88.5413 472.132 96.8773 479.861 98.0063 479.996C101.247 480.397 105.603 471.482 104.03 468.456C102.865 466.214 101.411 460.986 100.773 456.506L100.767 456.5C100.391 463.226 94.7193 473.415 84.9893 435.315C78.3983 409.454 77.9763 397.145 78.3933 391.914C77.0093 392.33 63.4673 394.604 63.0883 397.797Z" fill="#263238"/>
<path d="M63.559 396.883C61.756 398.43 56.916 404.117 55.865 406.087C54.814 408.057 53.196 413.167 51.215 415.325C49.235 417.483 40.019 427.526 40.019 427.526L44.065 431.239C44.065 431.239 52.462 422.088 55.01 419.312C57.558 416.536 64.166 410.486 67.182 419.326L63.559 396.883Z" fill="#263238"/>
<path opacity="0.1" d="M206.743 305.534C204.12 318.469 163.955 362.096 138.361 388.826L120.944 328.101C124.703 323.205 128.675 318.331 132.806 313.658C141.27 304.1 151.253 296.326 151.253 292.471C151.253 290.219 147.759 278.23 140.729 235.495C140.729 235.495 134.219 217.016 131.32 206.598C129.993 201.84 131.076 184.328 131.076 184.328L186.554 183.914C190.877 204.603 210.206 288.457 206.743 305.534Z" fill="black"/>
<path d="M191.476 419.396L150.567 417.791C150.567 417.791 128.949 366.311 137.128 318.835C137.44 317.024 124.341 266.834 125.112 233.676C125.112 233.676 122.755 221.854 123.824 211.861C125.04 200.503 132.088 184.329 132.088 184.329L180.965 183.93C180.998 199.243 174.942 222.685 174.942 222.685C174.942 222.685 183.424 314.463 182.618 323.05C181.528 334.658 191.476 419.396 191.476 419.396Z" fill="#FFBE93"/>
<path d="M226.408 480.729C225.478 481.375 214.111 481.184 201.838 480.861C196.56 480.722 147.439 445.485 145.549 442.8C143.677 440.141 152.481 429.176 153.049 428.171L141.809 386.297L184.122 387.047L194.432 432.005C194.432 432.005 206.703 455.122 209.997 458.752C213.219 462.303 220.103 466.938 223.194 468.109C226.382 469.316 229.093 478.863 226.408 480.729Z" fill="#FFBE93"/>
<path d="M145.552 442.805C147.441 445.487 196.565 480.724 201.841 480.862C214.112 481.184 225.478 481.379 226.409 480.727C229.091 478.863 226.385 469.316 223.195 468.112C220.831 467.22 216.26 464.296 212.796 461.385H212.787C216.995 466.646 219.57 478.02 186.899 456.135C164.733 441.272 156.205 432.386 153.025 428.211C152.272 429.443 143.704 440.173 145.552 442.805Z" fill="#263238"/>
<path d="M145.291 441.805C144.98 444.16 145.17 451.626 145.702 453.794C146.234 455.963 148.438 460.848 148.403 463.777C148.368 466.706 148.206 481.123 148.206 481.123L153.697 481.188C153.697 481.188 153.845 467.981 153.89 464.213C153.935 460.445 154.82 451.529 162.965 456.101L145.291 441.805Z" fill="#263238"/>
<path d="M129.685 184.28C129.685 184.28 123.336 200.389 122.807 211.864C122.277 223.339 124.209 234.491 124.209 234.491C124.209 234.491 125.309 267.459 131.093 301.466L208.119 300.705C208.119 300.705 199.852 219.282 196.792 208.115C192.897 193.905 188.775 182.235 188.78 183.91L129.685 184.28Z" fill="#263238"/>
<g opacity="0.2">
<path d="M174.073 257.663C175.309 249.238 176.871 240.839 178.685 232.519C179.253 229.755 180.38 227.039 181.328 224.369C182.481 221.249 184.126 216.799 185.374 213.758C184.867 215.585 184.299 217.391 183.763 219.21C182.537 223.513 180.573 228.389 179.618 232.724C178.023 240.333 175.969 250.175 174.073 257.663Z" fill="black"/>
<path d="M187.051 224.422C185.019 229.812 182.229 234.807 179.218 239.692C180.981 234.222 183.813 229.16 187.051 224.422Z" fill="black"/>
</g>
<path d="M238.845 177.032L243.842 172.362C244.064 172.233 244.296 172.098 244.516 171.985C252.27 167.943 262.533 172.433 258.042 176.812C254.63 180.149 246.733 178.33 243.733 182.254L243.726 182.245L238.845 177.032Z" fill="#FFBE93"/>
<path opacity="0.1" d="M238.845 177.032L243.842 172.362C244.064 172.233 244.296 172.098 244.516 171.985C252.27 167.943 262.533 172.433 258.042 176.812C254.63 180.149 246.733 178.33 243.733 182.254L243.726 182.245L238.845 177.032Z" fill="#020100"/>
<path d="M190.341 78.3513C182.47 87.6873 188.23 95.8343 184.789 98.8403C175.803 106.69 181.878 109.658 179.495 112.537C177.539 114.902 169.902 116.708 172.487 125.35L207.339 125.835C208.468 120.122 202.749 116.968 202.451 112.915C202.153 108.863 207.018 104.9 199.466 96.1523C194.564 90.4783 194.117 73.8723 190.341 78.3513Z" fill="#263238"/>
<path d="M172.966 127.47C173.773 153.79 177.556 180.384 181.379 184.904C187.302 191.908 222.982 204.671 234.745 206.497C238.596 207.095 244.705 181.268 241.876 178.209C239.047 175.15 200.438 164.229 198.406 162.687C197.323 161.865 189.848 140.893 183.887 126.751C178.346 113.608 172.721 119.479 172.966 127.47Z" fill="#FFBE93"/>
<path d="M221.485 204.375L229.645 171.82C229.645 171.82 202.453 162.612 199.207 161.205C197.834 160.61 188.456 134.694 183.806 123.522C180.748 116.174 173.213 113.108 171.974 128.433C171.248 137.406 174.044 180.216 180.41 186.75C185.473 191.949 221.485 204.375 221.485 204.375Z" fill="#03B0EF"/>
<path d="M215.919 200.698C216.135 198.282 218.669 188.586 219.326 186.177C219.97 183.818 222.948 174.199 223.631 171.727C223.668 171.592 223.871 171.605 223.836 171.743C223.201 174.201 220.983 184.016 220.349 186.43C219.713 188.851 217.071 198.489 216.046 200.727C216.011 200.804 215.912 200.775 215.919 200.698Z" fill="#263238"/>
<path opacity="0.1" d="M172.262 125.912C172.208 126.286 172.149 126.681 172.109 127.092C172.053 127.522 172.014 127.979 171.975 128.435C171.851 129.974 171.822 132.513 171.912 135.704C171.923 136.286 171.942 136.881 171.966 137.501C171.979 137.879 171.99 138.268 172.012 138.66C172.045 139.486 172.084 140.336 172.128 141.21C172.138 141.36 172.148 141.51 172.156 141.671C172.204 142.626 172.255 143.615 172.326 144.62C172.371 145.347 172.413 146.084 172.475 146.837C172.526 147.588 172.576 148.338 172.646 149.105C172.67 149.486 172.705 149.869 172.737 150.263C173.08 154.503 173.536 158.94 174.097 163.219C174.245 164.379 174.405 165.53 174.582 166.663C174.689 167.416 174.807 168.17 174.93 168.904C175.042 169.635 175.165 170.368 175.293 171.08C176.615 178.55 178.327 184.601 180.412 186.751C183.833 190.272 201.451 197.111 212.465 201.157L179.296 117.943C179.145 117.862 178.98 117.789 178.824 117.73C177.812 117.344 176.796 117.366 175.857 117.929C175.474 118.157 175.089 118.487 174.738 118.916C174.498 119.212 174.272 119.545 174.06 119.915C173.835 120.294 173.634 120.713 173.444 121.179C172.952 122.404 172.549 123.969 172.262 125.912Z" fill="#020100"/>
<path d="M190.892 168.265L189.552 188.015L129.034 182.75C129.034 182.75 138.003 138.58 155.362 120.346C164.378 110.876 173.754 112.669 179.757 119.499C181.277 121.227 194.599 144.64 196.07 154.471C197.348 163.144 190.892 168.265 190.892 168.265Z" fill="#03B0EF"/>
<path d="M182.352 165.258C179.73 165.479 177.097 165.789 174.532 166.396C173.256 166.698 172.003 167.057 170.751 167.444C170.126 167.637 169.5 167.808 168.869 167.976C168.221 168.149 167.527 168.309 166.854 168.317C166.793 168.318 166.793 168.408 166.854 168.411C167.508 168.441 168.134 168.468 168.789 168.411C169.411 168.357 170.031 168.236 170.639 168.098C171.936 167.804 173.218 167.45 174.512 167.143C177.122 166.524 179.731 165.905 182.38 165.475C182.503 165.456 182.476 165.248 182.352 165.258Z" fill="#263238"/>
<path d="M188.799 167.708C186.651 167.449 184.457 167.288 182.292 167.274C181.203 167.267 180.122 167.323 179.037 167.408C178.519 167.448 178.001 167.498 177.485 167.554C176.916 167.616 176.355 167.754 175.786 167.807C175.727 167.813 175.725 167.905 175.786 167.901C176.324 167.867 176.87 167.922 177.41 167.919C177.952 167.916 178.494 167.909 179.036 167.906C180.121 167.9 181.206 167.905 182.291 167.889C184.464 167.856 186.627 167.845 188.799 167.887C188.916 167.889 188.91 167.721 188.799 167.708Z" fill="#263238"/>
<path d="M191.247 193.8L124.334 188.026L127.854 180.484L189.71 185.822L191.247 193.8Z" fill="#03B0EF"/>
<path opacity="0.3" d="M191.247 193.8L124.334 188.026L127.854 180.484L189.71 185.822L191.247 193.8Z" fill="black"/>
<path d="M181.2 194.103L164.348 192.649L165.221 182.539L182.074 183.993L181.2 194.103ZM166.512 190.829L179.379 191.939L179.907 185.813L167.04 184.703L166.512 190.829Z" fill="#DBDBDB"/>
<path d="M150.398 126.96C138.899 145.279 125.241 176.838 128.085 183.084C135.208 198.73 153.317 215.761 161.872 221.517C166.865 224.877 185.89 199.399 181.603 196.195C174.841 191.141 157.3 174.089 155.205 171.81C154.087 170.594 159.178 147.996 161.151 132.944C163.294 116.582 156.003 118.03 150.398 126.96Z" fill="#FFBE93"/>
<path d="M193.631 212.195C192.645 210.373 193.595 209.843 196.975 211.305C200.399 212.777 212.496 221.425 215.158 216.936C217.838 212.435 200.517 200.478 194.701 198.474C188.888 196.456 178.774 195.266 178.774 195.266C181.676 198.269 188.016 206.228 193.631 212.195Z" fill="#FFBE93"/>
<path d="M248.61 166.217L240.562 159.977L198.734 213.921L206.782 220.161L248.61 166.217Z" fill="#C7C7C7"/>
<path d="M192.507 242.81L180.338 233.374L205.767 200.578L217.936 210.014L192.507 242.81Z" fill="#263238"/>
<g opacity="0.2">
<path d="M292.693 166.933C322.25 158.819 339.681 128.161 331.568 98.6146C327.636 84.3226 318.361 72.4026 305.44 65.0446C292.52 57.6976 277.532 55.8086 263.239 59.7406C248.946 63.6616 237.027 72.9476 229.669 85.8686C222.322 98.7886 220.444 113.776 224.366 128.069C228.298 142.362 237.573 154.281 250.493 161.628C263.413 168.977 278.401 170.866 292.693 166.933Z" fill="white"/>
</g>
<path d="M215.311 130.555C205.82 96.0125 226.201 60.1875 260.742 50.6965C295.284 41.2045 331.108 61.5855 340.6 96.1275C350.091 130.67 329.711 166.495 295.169 175.986C260.628 185.478 224.803 165.097 215.311 130.555ZM333.419 98.1015C325.016 67.5195 293.299 49.4745 262.716 57.8785C232.134 66.2825 214.09 97.9995 222.493 128.582C230.896 159.164 262.614 177.208 293.196 168.805C323.779 160.402 341.822 128.684 333.419 98.1015Z" fill="#37474F"/>
<path d="M220.633 129.087C229.311 160.705 262.093 179.348 293.71 170.67C301.352 168.561 308.366 165.031 314.447 160.301C320.527 155.56 325.675 149.631 329.604 142.724C337.463 128.91 339.487 112.877 335.281 97.5821C331.086 82.2971 321.161 69.5461 307.336 61.6871C293.522 53.8271 277.49 51.8151 262.205 56.0101C246.92 60.2161 234.169 70.1301 226.299 83.9561C222.813 90.0961 220.472 96.6751 219.323 103.422C217.876 111.872 218.295 120.595 220.633 129.087ZM229.666 85.8671C237.013 72.9471 248.932 63.6721 263.225 59.7401C277.518 55.8181 292.505 57.6971 305.426 65.0441C318.347 72.4021 327.633 84.32 331.554 98.614C335.486 112.906 333.597 127.894 326.25 140.815C318.892 153.736 306.972 163.011 292.68 166.943C263.134 175.056 232.477 157.625 224.362 128.069C220.429 113.775 222.319 98.7871 229.666 85.8671ZM220.633 129.087C229.311 160.705 262.093 179.348 293.71 170.67C301.352 168.561 308.366 165.031 314.447 160.301C320.527 155.56 325.675 149.631 329.604 142.724C337.463 128.91 339.487 112.877 335.281 97.5821C331.086 82.2971 321.161 69.5461 307.336 61.6871C293.522 53.8271 277.49 51.8151 262.205 56.0101C246.92 60.2161 234.169 70.1301 226.299 83.9561C222.813 90.0961 220.472 96.6751 219.323 103.422C217.876 111.872 218.295 120.595 220.633 129.087ZM229.666 85.8671C237.013 72.9471 248.932 63.6721 263.225 59.7401C277.518 55.8181 292.505 57.6971 305.426 65.0441C318.347 72.4021 327.633 84.32 331.554 98.614C335.486 112.906 333.597 127.894 326.25 140.815C318.892 153.736 306.972 163.011 292.68 166.943C263.134 175.056 232.477 157.625 224.362 128.069C220.429 113.775 222.319 98.7871 229.666 85.8671ZM213.449 131.062C218.174 148.266 229.34 162.616 244.896 171.459C260.44 180.303 278.482 182.58 295.685 177.844C312.889 173.119 327.228 161.953 336.083 146.408C344.927 130.853 347.193 112.823 342.467 95.6081C332.687 60.0451 295.806 39.0571 260.231 48.8261C243.028 53.5621 228.678 64.7281 219.834 80.2721C215.904 87.1791 213.268 94.581 211.981 102.183C210.355 111.691 210.821 121.501 213.449 131.062ZM215.81 102.837C219.794 79.431 236.895 59.2531 261.251 52.5551C294.765 43.3491 329.532 63.125 338.739 96.639C341.215 105.644 341.65 114.889 340.118 123.844C338.899 131.008 336.42 137.986 332.717 144.487C324.386 159.148 310.867 169.664 294.655 174.116C278.455 178.578 261.458 176.436 246.807 168.104C232.156 159.761 221.629 146.243 217.178 130.042C214.657 120.884 214.31 111.634 215.81 102.837ZM219.323 103.422C217.876 111.871 218.295 120.594 220.633 129.087C229.311 160.705 262.093 179.348 293.71 170.67C301.352 168.561 308.366 165.031 314.447 160.301C320.527 155.56 325.675 149.631 329.604 142.724C337.463 128.91 339.487 112.877 335.281 97.5821C331.086 82.2971 321.161 69.5461 307.336 61.6871C293.522 53.8271 277.49 51.8151 262.205 56.0101C246.92 60.2161 234.169 70.1301 226.299 83.9561C222.814 90.097 220.473 96.6751 219.323 103.422ZM229.666 85.8671C237.013 72.9471 248.932 63.6721 263.225 59.7401C277.518 55.8181 292.505 57.6971 305.426 65.0441C318.347 72.4021 327.633 84.32 331.554 98.614C335.486 112.906 333.597 127.894 326.25 140.815C318.892 153.736 306.972 163.011 292.68 166.943C263.134 175.056 232.477 157.625 224.362 128.069C220.429 113.775 222.319 98.7871 229.666 85.8671Z" fill="#37474F"/>
<path d="M319.055 133.906C321.88 128.76 323.376 122.881 323.872 116.907C324.142 113.911 324.025 110.872 323.694 107.846C323.323 104.822 322.618 101.826 321.674 98.902C319.676 93.081 316.438 87.654 312.264 83.16C308.093 78.664 303.138 74.992 297.745 72.375C302.282 76.307 306.47 80.449 309.993 85.028C311.683 87.364 313.365 89.696 314.649 92.245C315.997 94.749 317.205 97.331 318.054 100.032C319.899 105.384 320.779 111.037 320.899 116.738C320.968 122.441 320.382 128.198 319.055 133.906Z" fill="white"/>
<path d="M234.309 107.109C232.997 112.831 233.164 118.895 234.319 124.778C234.877 127.734 235.821 130.626 236.966 133.446C238.149 136.254 239.645 138.943 241.353 141.498C244.865 146.552 249.463 150.887 254.705 154.07C259.946 157.255 265.715 159.434 271.618 160.478C266.179 157.935 261.019 155.095 256.379 151.653C254.115 149.868 251.86 148.084 249.929 145.982C247.948 143.942 246.081 141.788 244.526 139.421C241.289 134.776 238.898 129.579 237.225 124.128C235.6 118.66 234.591 112.962 234.309 107.109Z" fill="white"/>
<path d="M159.126 218.922C167.606 227.085 177.666 237.765 190.583 240.85C193.117 241.455 194.877 240.533 194.877 240.533C200.642 242.019 203.074 239.742 203.074 239.742C208.868 239.481 211.035 236.811 211.035 236.811C211.035 236.811 217.822 238.481 219.513 234.546C221.422 230.139 211.516 228.656 206.568 224.509C195.23 215.008 181.77 198.331 178.773 195.266L159.126 218.922Z" fill="#FFBE93"/>
<path d="M187.689 222.9C191.082 225.63 194.343 228.4 198.087 230.656C202.196 233.131 206.564 234.824 210.969 236.658C211.107 236.715 211.041 236.912 210.897 236.877C202.398 234.819 193.554 229.398 187.563 223.052C187.418 222.899 187.519 222.763 187.689 222.9Z" fill="#263238"/>
<path d="M180.96 228.913C184.408 231.386 190.497 235.693 203.119 239.607C203.16 239.62 203.151 239.694 203.104 239.686C194.571 238.235 187.374 234.646 180.843 229.077C180.64 228.905 180.73 228.749 180.96 228.913Z" fill="#263238"/>
<path d="M177.404 232.206C183.427 236.188 187.729 237.936 194.86 240.49C194.901 240.504 194.886 240.579 194.84 240.567C186.431 238.515 183.614 236.818 177.238 232.394C177.019 232.242 177.169 232.05 177.404 232.206Z" fill="#263238"/>
<path d="M154.999 222.531L179.887 192.19L156.731 171.463C159.037 159.192 163.641 134.654 163.961 125.929C164.336 115.694 157.254 114.765 151.147 123.226C137.178 142.578 122.523 178.355 123.092 184.294C123.907 192.804 154.999 222.531 154.999 222.531Z" fill="#03B0EF"/>
<path d="M153.128 214.726C154.313 212.572 160.615 204.604 162.207 202.636C163.766 200.709 170.449 192.994 172.091 190.978C172.18 190.868 172.363 190.963 172.274 191.076C170.683 193.098 164.625 201.306 163.053 203.287C161.476 205.275 155.097 213.144 153.235 214.804C153.17 214.861 153.09 214.794 153.128 214.726Z" fill="#263238"/>
<path d="M161.732 142.117C160.795 151.365 158.805 161.097 157.368 170.291C157.306 170.696 157.246 171.073 157.215 171.442C157.218 171.427 157.21 171.344 157.184 171.307C157.185 171.301 157.188 171.313 157.203 171.333C162.383 176.602 168.806 181.923 174.301 186.982L179.938 192.091L179.974 192.124L179.944 192.159L179.252 192.959L179.867 192.099L179.874 192.166L173.978 187.356C168.208 182.409 161.724 177.312 156.421 171.899C156.331 171.786 156.222 171.556 156.253 171.409C156.332 170.324 156.52 169.318 156.691 168.262C158.11 159.941 160.156 150.389 161.732 142.117Z" fill="#263238"/>
<path d="M162.402 143.867C162.086 145.269 161.678 146.708 160.811 147.873C161.374 146.571 161.77 145.144 162.402 143.867Z" fill="#263238"/>
<path d="M211.896 199.476C211.638 195.446 216.535 197.45 216.535 197.45C216.535 197.45 210.181 192.867 211.523 188.609C212.827 184.509 218.657 187.138 219.078 187.321C218.744 187.076 213.016 182.712 214.805 178.572C216.668 174.271 222.067 177.916 222.415 178.153C222.173 177.822 219.038 173.396 221.112 170.56C224.679 165.689 234.698 177.583 239.562 178.069L243.001 172.987C242.645 174.71 243.292 176.332 244.98 179.467C246.583 182.444 247.293 183.749 246.849 185.819C246.114 189.222 242.998 189.434 242.998 189.434C242.998 189.434 245.992 192.497 244.687 195.8C244.012 197.494 240.702 197.922 240.702 197.922C240.702 197.922 242.997 200.474 241.652 203.34C240.586 205.631 237.432 205.704 237.432 205.704C237.432 205.704 238.499 209.177 236.65 211.163C232.93 215.179 212.454 208.105 211.896 199.476Z" fill="#FFBE93"/>
<path d="M236.936 205.794C237.006 205.812 236.994 205.914 236.92 205.907C229.618 205.224 221.805 202.236 216.26 197.371C216.078 197.211 216.258 196.846 216.492 196.984C223.167 200.905 229.403 203.853 236.936 205.794Z" fill="#263238"/>
<path d="M240.79 197.998C240.872 198.018 240.838 198.155 240.748 198.145C233.228 197.401 224.521 193.793 218.789 187.433C218.592 187.215 218.635 186.822 218.88 187.056C223.012 190.997 234 196.285 240.79 197.998Z" fill="#263238"/>
<path d="M222.167 177.572C227.899 183.458 234.941 186.915 242.685 189.425C242.786 189.458 242.729 189.597 242.638 189.593C238.515 189.397 233.746 187.282 230.174 185.323C226.753 183.446 224.043 181.066 221.961 177.773C221.881 177.644 222.045 177.446 222.167 177.572Z" fill="#263238"/>
<path d="M165.892 116.276C165.982 117.544 170.541 126.408 176.166 127.041C177.999 127.244 179.554 117.292 179.554 117.292L179.837 116.583L183.788 106.663L172.946 96.9701L171.364 95.6641C171.364 95.6641 170.462 98.4491 169.374 101.929C169.323 102.09 169.271 102.252 169.219 102.425C169.152 102.62 169.087 102.804 169.033 102.988C168.863 103.506 168.693 104.035 168.534 104.566C168.411 104.969 168.29 105.361 168.177 105.789C168.052 106.216 167.94 106.633 167.815 107.06C166.676 111.295 165.861 115.739 165.892 116.276Z" fill="#FFBE93"/>
<path d="M169.374 101.928C171.008 110.59 177.015 114.977 179.838 116.583L183.789 106.663L172.947 96.9701L171.365 95.6641C171.365 95.6641 170.462 98.4491 169.374 101.928Z" fill="#263238"/>
<path d="M179.69 117.265L175.373 125.189L166.276 113.453L162.951 116.485C162.951 116.485 171.095 134.389 171.247 133.641L175.517 126.876L179.878 132.444L180.947 119.877L179.69 117.265Z" fill="#03B0EF"/>
<path d="M180.758 126.265C180.865 124.184 181.031 122.092 181.042 120.008C181.043 119.934 180.932 119.888 180.904 119.972C180.256 121.917 179.889 129.877 179.658 131.768C179.652 131.76 179.644 131.752 179.639 131.744C179.458 131.504 175.569 126.817 175.518 126.879C174.641 127.93 171.513 132.854 171.285 133.309C169.999 130.466 165.006 120.093 163.409 117.36C163.363 117.282 163.244 117.328 163.277 117.417C164.36 120.387 170.94 134.338 171.069 134.316C171.146 134.392 175.027 128.33 175.543 127.159C176.177 128.155 180.044 133.382 180.095 133.077C180.439 131.017 180.651 128.348 180.758 126.265Z" fill="#263238"/>
<path d="M194.796 76.2891C194.796 76.2891 199.731 78.5981 200.576 82.1621C201.954 87.9771 199.158 96.9881 199.158 96.9881L194.796 76.2891Z" fill="#263238"/>
<path d="M199.133 90.3926C200.852 109.054 189.87 112.191 185.845 112.557C182.192 112.89 169.712 113.558 166.073 95.1736C162.435 76.7906 170.567 70.0916 178.882 68.8896C187.197 67.6876 197.414 71.7316 199.133 90.3926Z" fill="#FFBE93"/>
<path d="M195.944 87.9227C195.503 87.8707 195.105 87.7487 194.676 87.6517C194.19 87.5427 193.792 87.5057 193.435 87.1287C193.243 86.9267 193.26 86.5177 193.439 86.3127C193.856 85.8357 194.483 85.8227 195.073 85.9297C195.713 86.0477 196.176 86.3007 196.598 86.7947C197.006 87.2737 196.525 87.9917 195.944 87.9227Z" fill="#263238"/>
<path d="M183.626 89.6383C184.053 89.5173 184.426 89.3343 184.836 89.1713C185.298 88.9873 185.686 88.8883 185.98 88.4603C186.138 88.2313 186.057 87.8293 185.849 87.6553C185.363 87.2493 184.741 87.3343 184.175 87.5333C183.561 87.7493 183.143 88.0723 182.804 88.6263C182.475 89.1633 183.063 89.7963 183.626 89.6383Z" fill="#263238"/>
<path d="M193.415 91.9578C193.425 91.9088 193.516 92.0168 193.515 92.0698C193.488 93.3488 193.672 94.8178 194.833 95.2308C194.869 95.2438 194.866 95.3078 194.823 95.3018C193.41 95.1178 193.185 93.1648 193.415 91.9578Z" fill="#263238"/>
<path d="M194.543 90.6072C196.598 90.4292 196.802 94.5522 194.899 94.7172C193.025 94.8782 192.821 90.7562 194.543 90.6072Z" fill="#263238"/>
<path d="M195.418 90.8366C195.754 91.0386 196.096 91.4196 196.487 91.4266C196.939 91.4336 197.251 90.9716 197.518 90.5296C197.546 90.4836 197.58 90.5166 197.584 90.5716C197.645 91.3586 197.425 92.1916 196.675 92.3806C195.991 92.5526 195.45 91.9016 195.224 91.1266C195.182 90.9826 195.282 90.7556 195.418 90.8366Z" fill="#263238"/>
<path d="M186.233 92.5349C186.22 92.4869 186.137 92.6019 186.142 92.6539C186.267 93.9269 186.196 95.4059 185.071 95.9059C185.036 95.9209 185.044 95.9849 185.086 95.9759C186.482 95.6849 186.556 93.7209 186.233 92.5349Z" fill="#263238"/>
<path d="M185.005 91.2813C182.943 91.2623 183.056 95.3883 184.966 95.4063C186.847 95.4233 186.734 91.2973 185.005 91.2813Z" fill="#263238"/>
<path d="M184.152 91.5787C183.832 91.8057 183.52 92.2127 183.131 92.2487C182.681 92.2907 182.335 91.8537 182.035 91.4337C182.004 91.3897 181.972 91.4257 181.972 91.4807C181.972 92.2697 182.255 93.0837 183.017 93.2147C183.712 93.3337 184.201 92.6427 184.367 91.8527C184.399 91.7057 184.281 91.4867 184.152 91.5787Z" fill="#263238"/>
<path d="M185.941 102.775C186.227 103.093 186.506 103.524 186.966 103.593C187.408 103.659 187.941 103.492 188.358 103.36C188.399 103.347 188.437 103.392 188.409 103.429C188.046 103.897 187.33 104.159 186.745 104.018C186.174 103.88 185.92 103.362 185.814 102.825C185.8 102.749 185.899 102.728 185.941 102.775Z" fill="#263238"/>
<path d="M191.319 98.1932C191.319 98.1932 191.569 100.104 191.563 101.006C191.562 101.09 191.344 101.129 191.038 101.144C191.023 101.149 191.015 101.154 191.003 101.145C189.411 101.382 187.813 100.822 186.855 99.5172C186.793 99.4292 186.908 99.3362 186.99 99.3932C188.172 100.274 189.483 100.507 190.893 100.54C190.958 100.291 190.354 97.2812 190.497 97.2712C190.99 97.2322 191.957 97.5742 192.539 97.7492C192.132 93.7522 191.088 89.8532 190.743 85.8672C190.733 85.7242 190.938 85.6832 190.979 85.8112C192.363 89.8202 192.932 94.4092 193.458 98.5262C193.528 99.0382 191.678 98.3492 191.319 98.1932Z" fill="#263238"/>
<path d="M164.399 94.0304C166.567 94.3014 171.638 94.8964 174.971 92.4154C176.809 91.0474 178.485 88.6444 179.651 84.2404C181.688 76.5454 187.225 71.7264 195.284 76.7044C195.284 76.7044 197.4 69.5804 192.673 66.4794C187.946 63.3794 182.768 67.9324 182.768 67.9324C182.768 67.9324 172.058 66.2954 165.874 74.1384C159.691 81.9834 164.399 94.0304 164.399 94.0304Z" fill="#263238"/>
<path d="M182.588 68.1917C173.579 67.4317 166.062 69.2457 162.361 73.6357C154.647 82.7857 158.772 98.6557 155.399 101.602C146.591 109.295 152.545 112.204 150.21 115.027C148.293 117.345 140.808 119.114 143.341 127.585L177.499 128.061C178.606 122.462 173.001 119.371 172.708 115.399C172.416 111.427 177.184 107.544 169.782 98.9697C164.979 93.4067 182.588 68.1917 182.588 68.1917Z" fill="#263238"/>
<path d="M170.7 95.273C170.7 95.273 166.579 89.446 163.932 90.918C161.286 92.391 164.406 100.853 167.528 101.997C170.65 103.14 171.765 100.271 171.765 100.271L170.7 95.273Z" fill="#FFBE93"/>
<path d="M164.888 93.3205C164.838 93.3165 164.828 93.3865 164.872 93.4035C167.062 94.2775 168.222 96.2965 169.039 98.3935C168.385 97.5885 167.498 97.1505 166.419 97.9285C166.363 97.9695 166.417 98.0585 166.479 98.0455C167.373 97.8485 168.02 98.0005 168.628 98.7145C169.059 99.2195 169.355 99.8595 169.665 100.444C169.768 100.639 170.121 100.532 170.045 100.308C170.039 100.292 170.033 100.274 170.027 100.258C170.066 97.4725 167.88 93.5855 164.888 93.3205Z" fill="#263238"/>
<path d="M85.6527 64.7459C87.4927 82.3339 103.251 95.1079 120.84 93.2689C127.948 92.5249 134.267 89.5079 139.16 85.0019L155.182 87.3539L147.166 73.5029C149.111 68.7709 149.93 63.5049 149.363 58.0819C147.524 40.4929 131.765 27.7199 114.177 29.5589C96.5877 31.3989 83.8137 47.1569 85.6527 64.7459Z" fill="white"/>
<path d="M95.2389 38.2987C98.7169 34.9057 102.961 32.2847 107.589 30.7257C112.223 29.1857 117.218 28.7437 122.071 29.3877C126.919 30.0437 131.655 31.7667 135.738 34.5157C139.824 37.2567 143.286 40.9317 145.768 45.1967C150.748 53.7137 151.623 64.5997 147.741 73.7397L147.704 73.1917L155.673 87.0697L156.261 88.0937L155.099 87.9157L139.093 85.4587L139.472 85.3417C135.039 89.3597 129.489 92.1037 123.628 93.1647C122.164 93.4337 120.683 93.5917 119.196 93.6257C117.712 93.7557 116.228 93.6207 114.746 93.5407C111.808 93.1877 108.862 92.6367 106.124 91.4847C103.373 90.4017 100.741 88.9877 98.399 87.1837C97.17 86.3547 96.1319 85.2917 95.0189 84.3217C94.0379 83.2187 92.9559 82.1997 92.1159 80.9797C88.4589 76.3237 86.322 70.5927 85.652 64.7457C84.613 55.1037 88.1679 45.0197 95.2389 38.2987ZM92.2129 80.9067C93.0579 82.1167 94.143 83.1237 95.1259 84.2147C96.242 85.1717 97.28 86.2227 98.508 87.0387C100.842 88.8297 103.492 90.1757 106.233 91.2017C108.963 92.2957 111.886 92.7867 114.786 93.0847C116.249 93.1377 117.709 93.2457 119.168 93.0917C120.629 93.0337 122.081 92.8517 123.513 92.5637C129.244 91.4217 134.609 88.6437 138.848 84.6647L139.006 84.5167L139.227 84.5477L155.264 86.7937L154.691 87.6387L146.628 73.8157L146.475 73.5537L146.591 73.2667C148.37 68.8617 149.145 64.0597 148.845 59.3157C148.465 54.5867 147.207 49.8757 144.781 45.7647C142.401 41.6447 139.105 38.0567 135.199 35.3127C131.283 32.5757 126.703 30.8137 121.973 30.0877C117.239 29.3747 112.324 29.7177 107.729 31.1557C103.142 32.6127 98.8909 35.1257 95.3789 38.4417C88.3059 45.0727 84.6819 55.0947 85.6549 64.7457C86.3629 70.5897 88.5379 76.2927 92.2129 80.9067Z" fill="#263238"/>
<path d="M117.865 93.9292C117.072 93.9292 116.278 93.8811 115.501 93.8342L114.734 93.7892C112.265 93.4932 109.061 92.9901 106.028 91.7141C103.106 90.5641 100.487 89.1061 98.2478 87.3801C97.3668 86.7861 96.5658 86.0551 95.7908 85.3491C95.4818 85.0661 95.1718 84.7841 94.8568 84.5091C94.5458 84.1631 94.2498 83.8471 93.9538 83.5311C93.2468 82.7771 92.5158 81.9971 91.9118 81.1201C88.3658 76.6051 86.1128 70.9481 85.4058 64.7731C84.3518 54.9971 88.0528 44.7841 95.0668 38.1171C98.5888 34.6811 102.892 32.0421 107.511 30.4871C112.134 28.9511 117.182 28.4861 122.105 29.1381C127.097 29.8141 131.86 31.6011 135.879 34.3071C140.003 37.0731 143.498 40.7952 145.986 45.0692C150.987 53.6231 151.799 64.4531 148.137 73.4401L156.479 87.9681C156.527 88.0511 156.523 88.1552 156.468 88.2341C156.414 88.3131 156.317 88.3551 156.224 88.3401L139.386 85.7551C134.931 89.7091 129.506 92.3541 123.674 93.4101C122.173 93.6852 120.669 93.8422 119.204 93.8752C118.759 93.9142 118.312 93.9292 117.865 93.9292ZM117.187 93.4182C117.851 93.4361 118.516 93.4332 119.174 93.3762C120.63 93.3422 122.107 93.1892 123.583 92.9182C129.241 91.8932 134.511 89.3501 138.86 85.5501C138.851 85.5271 138.845 85.5021 138.843 85.4751C138.835 85.3591 138.907 85.2521 139.019 85.2181L139.398 85.1011C139.51 85.0651 139.631 85.1141 139.689 85.2161C139.704 85.2421 139.714 85.2711 139.718 85.3001L154.348 87.5461L153.948 86.8601L139.089 84.7791L139.019 84.8451C134.7 88.8992 129.355 91.6531 123.562 92.8071C122.092 93.1031 120.617 93.2831 119.178 93.3401C118.52 93.4111 117.855 93.4262 117.187 93.4182ZM85.9018 64.7231C86.6388 70.7881 88.8888 76.3312 92.4078 80.7501C92.4108 80.7542 92.4148 80.7581 92.4178 80.7631C93.0028 81.6002 93.7228 82.3591 94.4198 83.0921C94.7198 83.4081 95.0198 83.7241 95.3108 84.0471C95.6088 84.3001 95.9228 84.5831 96.2368 84.8651C96.9978 85.5501 97.7838 86.2571 98.6458 86.8302C100.789 88.4732 103.366 89.8611 106.32 90.9671C109.281 92.1541 112.413 92.5891 114.811 92.8361L115.564 92.8661C116.74 92.9162 117.955 92.9681 119.142 92.8431C120.57 92.7851 122.018 92.6101 123.464 92.3181C129.166 91.1821 134.426 88.4721 138.677 84.4821L138.835 84.3341C138.89 84.2822 138.967 84.2581 139.041 84.2691L153.627 86.3121L146.258 73.6801C146.219 73.6131 146.213 73.5321 146.242 73.4601L146.358 73.1731C148.118 68.8161 148.891 64.0291 148.594 59.3311C148.185 54.2521 146.829 49.7291 144.564 45.8921C142.213 41.8241 138.925 38.2371 135.054 35.5181C131.254 32.8621 126.717 31.0701 121.933 30.3361C117.186 29.6201 112.3 29.9871 107.802 31.3961C103.271 32.8351 99.0338 35.3352 95.5488 38.6252C88.6298 45.1122 84.9338 55.1111 85.9018 64.7211V64.7231ZM154.988 87.6451L155.786 87.7681L155.382 87.0651L154.988 87.6451ZM154.579 86.9481L154.707 87.1681L154.832 86.9841L154.579 86.9481ZM154.258 86.3992L155.065 86.5121L147.858 73.9601C147.811 73.9851 147.755 73.9951 147.7 73.9851C147.586 73.9651 147.5 73.8711 147.492 73.7551L147.455 73.2071C147.447 73.0911 147.521 72.9851 147.632 72.9511C147.686 72.9341 147.74 72.9371 147.791 72.9562C151.259 64.1682 150.422 53.6502 145.553 45.3211C143.103 41.1111 139.661 37.4472 135.599 34.7222C131.643 32.0582 126.953 30.2991 122.037 29.6341C118.099 29.1131 114.082 29.3161 110.274 30.2211C114.088 29.3851 118.095 29.2501 122.008 29.8401C126.868 30.5861 131.478 32.4071 135.34 35.1071C139.271 37.8681 142.61 41.5092 144.995 45.6392C147.298 49.5401 148.677 54.1351 149.092 59.2951C149.394 64.0721 148.609 68.9342 146.821 73.3601L146.751 73.5331L154.258 86.3992Z" fill="#263238"/>
<path d="M114.412 77.7719L102.198 65.4079L106.302 61.3539L113.437 68.5759L128.261 45.3359L133.125 48.4379L114.412 77.7719Z" fill="#03B0EF"/>
</svg>
