<svg width="40" height="40" viewBox="0 0 40 40" fill="none" xmlns="http://www.w3.org/2000/svg">
<path d="M21.984 10H11.3173C10.884 10 10.4673 10.0167 10.0673 10.0667C5.58398 10.45 3.33398 13.1 3.33398 17.9833V24.65C3.33398 31.3167 6.00065 32.6333 11.3173 32.6333H11.984C12.3507 32.6333 12.834 32.8833 13.0507 33.1667L15.0507 35.8333C15.934 37.0167 17.3673 37.0167 18.2507 35.8333L20.2507 33.1667C20.5007 32.8333 20.9007 32.6333 21.3173 32.6333H21.984C26.8673 32.6333 29.5173 30.4 29.9007 25.9C29.9507 25.5 29.9673 25.0833 29.9673 24.65V17.9833C29.9673 12.6667 27.3007 10 21.984 10ZM10.834 23.3333C9.90065 23.3333 9.16732 22.5833 9.16732 21.6667C9.16732 20.75 9.91732 20 10.834 20C11.7507 20 12.5007 20.75 12.5007 21.6667C12.5007 22.5833 11.7507 23.3333 10.834 23.3333ZM16.6507 23.3333C15.7173 23.3333 14.984 22.5833 14.984 21.6667C14.984 20.75 15.734 20 16.6507 20C17.5673 20 18.3173 20.75 18.3173 21.6667C18.3173 22.5833 17.584 23.3333 16.6507 23.3333ZM22.484 23.3333C21.5507 23.3333 20.8173 22.5833 20.8173 21.6667C20.8173 20.75 21.5673 20 22.484 20C23.4007 20 24.1507 20.75 24.1507 21.6667C24.1507 22.5833 23.4007 23.3333 22.484 23.3333Z" fill="#9B9B9B"/>
<path d="M36.6324 11.3154V17.982C36.6324 21.3154 35.5991 23.582 33.5324 24.832C33.0324 25.132 32.4491 24.732 32.4491 24.1487L32.4658 17.982C32.4658 11.3154 28.6491 7.4987 21.9824 7.4987L11.8324 7.51537C11.2491 7.51537 10.8491 6.93203 11.1491 6.43203C12.3991 4.36536 14.6658 3.33203 17.9824 3.33203H28.6491C33.9658 3.33203 36.6324 5.9987 36.6324 11.3154Z" fill="#9B9B9B"/>
</svg>
