<svg width="794" height="794" viewBox="0 0 794 794" fill="none" xmlns="http://www.w3.org/2000/svg">
<path d="M281.21 628.585H264.668C132.335 628.585 66.168 595.501 66.168 430.085V264.668C66.168 132.335 132.335 66.168 264.668 66.168H529.335C661.668 66.168 727.835 132.335 727.835 264.668V430.085C727.835 562.418 661.668 628.585 529.335 628.585H512.793C502.537 628.585 492.612 633.547 486.326 641.818L436.701 707.985C414.866 737.098 379.136 737.098 357.301 707.985L307.676 641.818C302.383 634.54 290.142 628.585 281.21 628.585Z" stroke="#292D32" stroke-width="4.5" stroke-miterlimit="10" stroke-linecap="round" stroke-linejoin="round"/>
<path d="M548.516 363.917H548.813" stroke="#292D32" stroke-width="52" stroke-linecap="round" stroke-linejoin="round"/>
<path d="M396.501 363.917H396.798" stroke="#292D32" stroke-width="52" stroke-linecap="round" stroke-linejoin="round"/>
<path d="M244.485 363.917H244.782" stroke="#292D32" stroke-width="52" stroke-linecap="round" stroke-linejoin="round"/>
</svg>
