<svg width="116" height="79" viewBox="0 0 116 79" fill="none" xmlns="http://www.w3.org/2000/svg">
<path d="M12.7776 51.5471C12.7776 32.7618 22.1904 13.1597 33.2402 13.1597C39.379 13.1597 44.29 16.8351 52.0658 27.8613C44.6993 39.2958 40.1975 46.2382 40.1975 46.2382C30.3754 61.7565 27.1014 65.0236 21.7811 65.0236C16.4609 65.4319 12.7776 60.5314 12.7776 51.5471ZM77.0303 44.6047L70.073 33.1702C68.4359 30.3115 66.3897 27.4529 64.7527 25.0026C70.8915 15.6099 75.8025 10.7094 81.9413 10.7094C94.2189 10.7094 104.041 29.0864 104.041 51.9555C104.041 60.5314 101.176 65.4319 95.4466 65.4319C89.7171 65.4319 87.6708 61.7565 77.0303 44.6047ZM59.4324 16.8351C50.4288 4.99215 42.653 0.5 33.6495 0.5C14.8238 0.5 0.5 25.411 0.5 51.5471C0.5 67.8822 8.2758 78.0916 21.3719 78.0916C30.7847 78.0916 37.3327 73.5995 49.6103 52.3639C49.6103 52.3639 54.5214 43.3796 58.2046 37.2539C59.4324 39.2958 60.6601 41.3377 61.8879 43.788L67.6174 53.589C78.6673 72.3743 84.806 78.5 95.8559 78.5C108.543 78.5 115.5 67.8822 115.5 51.1387C115.091 23.3691 100.358 0.5 82.7598 0.5C73.347 0.5 65.9804 7.85078 59.4324 16.8351Z" fill="url(#paint0_linear_4210_78660)"/>
<defs>
<linearGradient id="paint0_linear_4210_78660" x1="17.6068" y1="13.9764" x2="131.025" y2="74.6999" gradientUnits="userSpaceOnUse">
<stop stop-color="#0163DF"/>
<stop offset="1" stop-color="#0281FA"/>
</linearGradient>
</defs>
</svg>
