<svg width="40" height="40" viewBox="0 0 40 40" fill="none" xmlns="http://www.w3.org/2000/svg">
<path d="M38.9741 1.02563H1.02539V38.9743H38.9741V1.02563Z" fill="#512BD4"/>
<path d="M7.79019 25.2708C7.52187 25.2708 7.29379 25.1814 7.10596 25.0026C6.91813 24.8192 6.82422 24.6014 6.82422 24.3492C6.82422 24.0924 6.91813 23.8724 7.10596 23.6889C7.29379 23.5055 7.52187 23.4138 7.79019 23.4138C8.06299 23.4138 8.2933 23.5055 8.48113 23.6889C8.67343 23.8724 8.76958 24.0924 8.76958 24.3492C8.76958 24.6014 8.67343 24.8192 8.48113 25.0026C8.2933 25.1814 8.06299 25.2708 7.79019 25.2708Z" fill="white"/>
<path d="M18.5165 25.1193H16.7724L12.1773 17.87C12.0611 17.6866 11.9649 17.4962 11.8889 17.2991H11.8486C11.8844 17.5101 11.9023 17.9617 11.9023 18.654V25.1193H10.3594V15.2563H12.2175L16.6584 22.3337C16.8462 22.6272 16.9669 22.8289 17.0206 22.939H17.0474C17.0027 22.6777 16.9803 22.2352 16.9803 21.6115V15.2563H18.5165V25.1193Z" fill="white"/>
<path d="M26.0289 25.1193H20.6289V15.2563H25.8143V16.6457H22.2255V19.4381H25.5326V20.8206H22.2255V23.7368H26.0289V25.1193Z" fill="white"/>
<path d="M33.7033 16.6457H30.9396V25.1193H29.343V16.6457H26.5859V15.2563H33.7033V16.6457Z" fill="white"/>
</svg>
