<svg width="150" height="36" viewBox="0 0 150 36" fill="none" xmlns="http://www.w3.org/2000/svg">
<path d="M33.5861 0.939453V9.50323L17.0607 26.6977L0 9.50323V0.939453L17.0607 17.7325L33.5861 0.939453Z" fill="#221F20"/>
<path d="M0 18V35.0606L8.22926 26.8314C8.22926 26.7645 0 17.7324 0 18Z" fill="#221F20"/>
<path d="M33.5852 34.9938V18L25.2891 26.2293C25.2891 26.2293 33.5852 35.2614 33.5852 34.9938Z" fill="#221F20"/>
<path d="M25.2892 0.939453H8.22852L16.9261 9.63704C16.993 9.63704 25.5568 0.939453 25.2892 0.939453Z" fill="#264845"/>
<path d="M8.29685 34.9949H25.3575L17.0613 26.7656C17.0613 26.7656 8.02923 34.9949 8.29685 34.9949Z" fill="#264845"/>
<path d="M45.4108 23.9609V12.4409H47.1468L51.1308 20.6009L55.1148 12.4409H56.8508V23.9609H55.0508V16.5769L51.5148 23.9609H50.7468L47.2188 16.5769V23.9609H45.4108ZM59.8983 23.9609V12.4409H61.8263V23.9609H59.8983ZM69.1266 24.2009C68.284 24.2009 67.524 24.0543 66.8466 23.7609C66.1746 23.4676 65.62 23.0489 65.1826 22.5049C64.7506 21.9556 64.476 21.3049 64.3586 20.5529L66.3586 20.2489C66.5293 20.9316 66.8786 21.4596 67.4066 21.8329C67.94 22.2063 68.5533 22.3929 69.2466 22.3929C69.6573 22.3929 70.044 22.3289 70.4066 22.2009C70.7693 22.0729 71.0626 21.8863 71.2866 21.6409C71.516 21.3956 71.6306 21.0943 71.6306 20.7369C71.6306 20.5769 71.604 20.4303 71.5506 20.2969C71.4973 20.1583 71.4173 20.0356 71.3106 19.9289C71.2093 19.8223 71.076 19.7263 70.9106 19.6409C70.7506 19.5503 70.564 19.4729 70.3506 19.4089L67.3746 18.5289C67.1186 18.4543 66.8413 18.3556 66.5426 18.2329C66.2493 18.1049 65.9693 17.9316 65.7026 17.7129C65.4413 17.4889 65.2253 17.2063 65.0546 16.8649C64.8893 16.5183 64.8066 16.0916 64.8066 15.5849C64.8066 14.8436 64.9933 14.2223 65.3666 13.7209C65.7453 13.2143 66.252 12.8356 66.8866 12.5849C67.5266 12.3343 68.236 12.2116 69.0146 12.2169C69.804 12.2223 70.508 12.3583 71.1266 12.6249C71.7453 12.8863 72.2626 13.2676 72.6786 13.7689C73.0946 14.2703 73.388 14.8756 73.5586 15.5849L71.4866 15.9449C71.4013 15.5396 71.236 15.1956 70.9906 14.9129C70.7506 14.6249 70.4546 14.4063 70.1026 14.2569C69.756 14.1076 69.3853 14.0276 68.9906 14.0169C68.6066 14.0116 68.2493 14.0703 67.9186 14.1929C67.5933 14.3103 67.3293 14.4809 67.1266 14.7049C66.9293 14.9289 66.8306 15.1903 66.8306 15.4889C66.8306 15.7716 66.916 16.0036 67.0866 16.1849C67.2573 16.3609 67.468 16.5023 67.7186 16.6089C67.9746 16.7103 68.2333 16.7956 68.4946 16.8649L70.5586 17.4409C70.8413 17.5156 71.1586 17.6169 71.5106 17.7449C71.8626 17.8729 72.2013 18.0516 72.5266 18.2809C72.852 18.5103 73.1186 18.8116 73.3266 19.1849C73.54 19.5583 73.6466 20.0329 73.6466 20.6089C73.6466 21.2063 73.5213 21.7316 73.2706 22.1849C73.0253 22.6329 72.692 23.0063 72.2706 23.3049C71.8493 23.6036 71.3666 23.8276 70.8226 23.9769C70.284 24.1263 69.7186 24.2009 69.1266 24.2009ZM80.5166 24.2009C79.674 24.2009 78.914 24.0543 78.2366 23.7609C77.5646 23.4676 77.01 23.0489 76.5726 22.5049C76.1406 21.9556 75.866 21.3049 75.7486 20.5529L77.7486 20.2489C77.9193 20.9316 78.2686 21.4596 78.7966 21.8329C79.33 22.2063 79.9433 22.3929 80.6366 22.3929C81.0473 22.3929 81.434 22.3289 81.7966 22.2009C82.1593 22.0729 82.4526 21.8863 82.6766 21.6409C82.906 21.3956 83.0206 21.0943 83.0206 20.7369C83.0206 20.5769 82.994 20.4303 82.9406 20.2969C82.8873 20.1583 82.8073 20.0356 82.7006 19.9289C82.5993 19.8223 82.466 19.7263 82.3006 19.6409C82.1406 19.5503 81.954 19.4729 81.7406 19.4089L78.7646 18.5289C78.5086 18.4543 78.2313 18.3556 77.9326 18.2329C77.6393 18.1049 77.3593 17.9316 77.0926 17.7129C76.8313 17.4889 76.6153 17.2063 76.4446 16.8649C76.2793 16.5183 76.1966 16.0916 76.1966 15.5849C76.1966 14.8436 76.3833 14.2223 76.7566 13.7209C77.1353 13.2143 77.642 12.8356 78.2766 12.5849C78.9166 12.3343 79.626 12.2116 80.4046 12.2169C81.194 12.2223 81.898 12.3583 82.5166 12.6249C83.1353 12.8863 83.6526 13.2676 84.0686 13.7689C84.4846 14.2703 84.778 14.8756 84.9486 15.5849L82.8766 15.9449C82.7913 15.5396 82.626 15.1956 82.3806 14.9129C82.1406 14.6249 81.8446 14.4063 81.4926 14.2569C81.146 14.1076 80.7753 14.0276 80.3806 14.0169C79.9966 14.0116 79.6393 14.0703 79.3086 14.1929C78.9833 14.3103 78.7193 14.4809 78.5166 14.7049C78.3193 14.9289 78.2206 15.1903 78.2206 15.4889C78.2206 15.7716 78.306 16.0036 78.4766 16.1849C78.6473 16.3609 78.858 16.5023 79.1086 16.6089C79.3646 16.7103 79.6233 16.7956 79.8846 16.8649L81.9486 17.4409C82.2313 17.5156 82.5486 17.6169 82.9006 17.7449C83.2526 17.8729 83.5913 18.0516 83.9166 18.2809C84.242 18.5103 84.5086 18.8116 84.7166 19.1849C84.93 19.5583 85.0366 20.0329 85.0366 20.6089C85.0366 21.2063 84.9113 21.7316 84.6606 22.1849C84.4153 22.6329 84.082 23.0063 83.6606 23.3049C83.2393 23.6036 82.7566 23.8276 82.2126 23.9769C81.674 24.1263 81.1086 24.2009 80.5166 24.2009ZM91.2514 23.9609V12.4409H92.9874L96.9714 20.6009L100.955 12.4409H102.691V23.9609H100.891V16.5769L97.3554 23.9609H96.5874L93.0594 16.5769V23.9609H91.2514ZM104.779 23.9609L108.411 12.4409H111.235L114.867 23.9609H112.883L109.587 13.6249H110.019L106.763 23.9609H104.779ZM106.803 21.4649V19.6649H112.851V21.4649H106.803ZM118.768 23.9609V14.2489H115.04V12.4409H124.424V14.2489H120.696V23.9609H118.768ZM131.215 24.2009C130.063 24.2009 129.077 23.9503 128.255 23.4489C127.434 22.9423 126.802 22.2383 126.359 21.3369C125.922 20.4356 125.703 19.3903 125.703 18.2009C125.703 17.0116 125.922 15.9663 126.359 15.0649C126.802 14.1636 127.434 13.4623 128.255 12.9609C129.077 12.4543 130.063 12.2009 131.215 12.2009C132.543 12.2009 133.65 12.5343 134.535 13.2009C135.421 13.8623 136.042 14.7556 136.399 15.8809L134.455 16.4169C134.231 15.6649 133.85 15.0783 133.311 14.6569C132.773 14.2303 132.074 14.0169 131.215 14.0169C130.442 14.0169 129.797 14.1903 129.279 14.5369C128.767 14.8836 128.381 15.3716 128.119 16.0009C127.863 16.6249 127.733 17.3583 127.727 18.2009C127.727 19.0436 127.855 19.7796 128.111 20.4089C128.373 21.0329 128.762 21.5183 129.279 21.8649C129.797 22.2116 130.442 22.3849 131.215 22.3849C132.074 22.3849 132.773 22.1716 133.311 21.7449C133.85 21.3183 134.231 20.7316 134.455 19.9849L136.399 20.5209C136.042 21.6463 135.421 22.5423 134.535 23.2089C133.65 23.8703 132.543 24.2009 131.215 24.2009ZM138.796 23.9609V12.4409H140.724V17.2889H146.18V12.4409H148.1V23.9609H146.18V19.0969H140.724V23.9609H138.796Z" fill="#221F20"/>
</svg>
