<svg width="40" height="41" viewBox="0 0 40 41" fill="none" xmlns="http://www.w3.org/2000/svg">
<path d="M27.066 3.71875H12.9327C8.33268 3.71875 6.66602 5.38542 6.66602 10.0687V30.7021C6.66602 35.3854 8.33268 37.0521 12.9327 37.0521H27.0493C31.666 37.0521 33.3327 35.3854 33.3327 30.7021V10.0687C33.3327 5.38542 31.666 3.71875 27.066 3.71875ZM19.9993 32.5521C18.3993 32.5521 17.0827 31.2354 17.0827 29.6354C17.0827 28.0354 18.3993 26.7188 19.9993 26.7188C21.5993 26.7188 22.916 28.0354 22.916 29.6354C22.916 31.2354 21.5993 32.5521 19.9993 32.5521ZM23.3327 10.8021H16.666C15.9827 10.8021 15.416 10.2354 15.416 9.55208C15.416 8.86875 15.9827 8.30208 16.666 8.30208H23.3327C24.016 8.30208 24.5827 8.86875 24.5827 9.55208C24.5827 10.2354 24.016 10.8021 23.3327 10.8021Z" fill="#9B9B9B"/>
</svg>
