<svg width="41" height="40" viewBox="0 0 41 40" fill="none" xmlns="http://www.w3.org/2000/svg">
<path d="M21.3352 36.6659H7.30182C5.36849 36.6659 3.78516 35.1159 3.78516 33.2159V8.48261C3.78516 4.11595 7.03516 2.13261 11.0185 4.08261L18.4185 7.71595C20.0185 8.49928 21.3352 10.5826 21.3352 12.3493V36.6659Z" stroke="#292D32" stroke-width="2" stroke-linecap="round" stroke-linejoin="round"/>
<path d="M37.1154 25.1005V31.4005C37.1154 35.0005 35.4487 36.6672 31.8487 36.6672H21.332V17.3672L22.1154 17.5339L29.6154 19.2172L32.9987 19.9672C35.1987 20.4505 36.9987 21.5839 37.0987 24.7839C37.1154 24.8839 37.1154 24.9839 37.1154 25.1005Z" stroke="#292D32" stroke-width="2" stroke-linecap="round" stroke-linejoin="round"/>
<path d="M9.66797 15H15.4513" stroke="#292D32" stroke-width="2" stroke-linecap="round" stroke-linejoin="round"/>
<path d="M9.66797 21.666H15.4513" stroke="#292D32" stroke-width="2" stroke-linecap="round" stroke-linejoin="round"/>
<path d="M29.6172 19.2165V24.5832C29.6172 26.6499 27.9339 28.3332 25.8672 28.3332C23.8005 28.3332 22.1172 26.6499 22.1172 24.5832V17.5332L29.6172 19.2165Z" stroke="#292D32" stroke-width="2" stroke-linecap="round" stroke-linejoin="round"/>
<path d="M37.1005 24.7835C37.0005 26.7501 35.3672 28.3335 33.3672 28.3335C31.3005 28.3335 29.6172 26.6501 29.6172 24.5835V19.2168L33.0005 19.9668C35.2005 20.4501 37.0005 21.5835 37.1005 24.7835Z" stroke="#292D32" stroke-width="2" stroke-linecap="round" stroke-linejoin="round"/>
</svg>
