<svg width="78" height="79" viewBox="0 0 78 79" fill="none" xmlns="http://www.w3.org/2000/svg">
<path d="M54.6239 31.9487C50.7254 14.7506 42.6 10.1722 40.5272 6.93577C39.6725 5.51005 38.9154 4.02806 38.261 2.5C38.1515 4.02782 37.9503 4.99035 36.6517 6.14895C34.0442 8.47378 22.97 17.4981 22.038 37.0389C21.1697 55.2582 35.4319 66.4928 37.3163 67.6539C38.7651 68.3669 40.5298 67.6692 41.3904 67.0148C48.2656 62.2964 57.6592 49.7173 54.6316 31.9487" fill="#10AA50"/>
<path d="M38.852 57.9523C38.493 62.4619 38.2358 65.0821 37.3242 67.659C37.3242 67.659 37.9226 71.9522 38.3428 76.5H39.8298C40.1846 73.2975 40.7262 70.1185 41.4519 66.9791C39.5268 66.0319 38.9259 61.9093 38.852 57.9523Z" fill="#B8C4C2"/>
<path d="M41.4489 66.9817C39.5035 66.0829 38.9407 61.8737 38.8541 57.9523C39.3352 51.4837 39.4755 44.9942 39.2743 38.5108C39.1724 35.1088 39.3227 7.00202 38.4365 2.88708C39.0427 4.28077 39.7411 5.63249 40.5271 6.93326C42.5998 10.1722 50.7278 14.7506 54.6238 31.9488C57.6591 49.6868 48.3164 62.2327 41.4489 66.9817Z" fill="#12924F"/>
</svg>
