<svg width="99" height="105" viewBox="0 0 99 105" fill="none" xmlns="http://www.w3.org/2000/svg">
<g opacity="0.3">
<path d="M57.0669 16.1211L59.7542 21.1684C60.3584 22.0998 61.0129 22.9243 61.7839 23.6921C64.0441 25.9241 66.1509 28.3064 68.0899 30.8225C72.6432 36.8013 75.7144 43.4409 77.9076 50.6217C79.2229 55.0082 79.9372 59.508 79.9907 64.0581C80.211 77.6614 75.5476 89.342 66.1452 99.0496C64.6158 100.589 62.9636 102.001 61.2049 103.272C60.2734 103.272 59.8329 102.558 59.449 101.9C58.7499 100.681 58.2846 99.3417 58.077 97.9514C57.7466 96.3056 57.5295 94.6599 57.6365 92.9607V92.1929C57.561 92.0293 56.7397 16.5081 57.0669 16.1211Z" fill="#599636"/>
<path d="M57.0666 15.9559C56.9565 15.7356 56.8464 15.9024 56.7362 16.0094C56.7897 17.1108 56.4058 18.0925 55.8048 19.0303C55.144 19.9617 54.2692 20.676 53.3913 21.4438C48.5139 25.6667 44.6749 30.7675 41.6005 36.4725C37.5098 44.1505 35.4015 52.3791 34.8036 61.042C34.5299 64.1667 35.7917 75.1928 36.7766 78.3741C39.4639 86.8199 44.291 93.8969 50.5435 100.039C52.0791 101.518 53.7217 102.89 55.4209 104.209C55.9149 104.209 55.9684 103.768 56.0817 103.441C56.2983 102.741 56.4634 102.025 56.5757 101.301L57.6771 93.0756L57.0666 15.9559Z" fill="#6CAC48"/>
<path d="M59.7529 106.614C59.8631 105.356 60.4673 104.311 61.1249 103.269C60.4641 102.995 59.9732 102.451 59.5893 101.844C59.2583 101.269 58.9843 100.663 58.7712 100.034C58.0034 97.731 57.8397 95.3144 57.6195 92.9606V91.5352C57.3457 91.7554 57.2891 93.6183 57.2891 93.8952C57.1289 96.3829 56.7988 98.8568 56.301 101.299C56.1374 102.287 56.0272 103.272 55.4199 104.15C55.4199 104.26 55.4199 104.371 55.4734 104.534C56.4615 107.442 56.7321 110.403 56.8989 113.421V114.522C56.8989 115.837 56.8454 115.56 57.9373 116.001C58.3778 116.164 58.8687 116.221 59.3093 116.548C59.6397 116.548 59.6932 116.275 59.6932 116.054L59.5295 114.245V109.198C59.476 108.317 59.6397 107.442 59.7498 106.617L59.7529 106.614Z" fill="#C2BFBF"/>
</g>
</svg>
