<svg width="40" height="41" viewBox="0 0 40 41" fill="none" xmlns="http://www.w3.org/2000/svg">
<path d="M34.9833 16.5688C34.4167 16.3354 33.6667 16.2188 32.7333 16.2188H23.9333C21.0333 16.2188 20 17.2521 20 20.1854V33.0854C20 34.0521 20.1167 34.8021 20.3667 35.3854C20.8833 36.5854 21.9833 37.0521 23.9333 37.0521H32.7333C35.6333 37.0521 36.6667 36.0021 36.6667 33.0854V20.1854C36.6667 18.2021 36.2 17.0854 34.9833 16.5688ZM30 33.3021H26.6667C26.6333 33.3021 26.5833 33.3021 26.55 33.2854C26.3 33.2687 26.0833 33.1854 25.9 33.0187C25.6 32.8021 25.4167 32.4521 25.4167 32.0521C25.4167 31.3687 25.9833 30.8021 26.6667 30.8021H30C30.6833 30.8021 31.25 31.3687 31.25 32.0521C31.25 32.7354 30.6833 33.3021 30 33.3021Z" fill="#9B9B9B"/>
<path d="M34.9829 10.7021V12.0521C34.9829 12.9688 34.2329 13.7188 33.3163 13.7188H23.9329C19.6663 13.7188 17.4996 15.9021 17.4996 20.1854V35.3854C17.4996 36.3021 16.7496 37.0521 15.8329 37.0521H12.5829C11.9163 37.0521 11.3829 36.5188 11.3829 35.8688C11.3829 35.2021 11.9163 34.6854 12.5829 34.6854H15.8329V28.3021H9.99961C6.29961 28.1188 3.34961 25.0688 3.34961 21.3188V10.7021C3.34961 6.85208 6.48294 3.71875 10.3496 3.71875H27.9996C31.8496 3.71875 34.9829 6.85208 34.9829 10.7021Z" fill="#9B9B9B"/>
</svg>
