<svg width="40" height="41" viewBox="0 0 40 41" fill="none" xmlns="http://www.w3.org/2000/svg">
<path d="M29.2666 3.91406H10.6833C6.63325 3.91406 3.33325 7.21406 3.33325 11.2641V22.0974V22.4307C3.33325 26.4974 6.63325 29.7807 10.6833 29.7807H17.0833C17.9999 29.7807 18.7499 30.5307 18.7499 31.4474V33.0641C18.7499 33.9807 17.9999 34.7307 17.0833 34.7307H13.0499C12.3666 34.7307 11.7999 35.2974 11.7999 35.9807C11.7999 36.6641 12.3499 37.2474 13.0499 37.2474H26.9666C27.6499 37.2474 28.2166 36.6807 28.2166 35.9974C28.2166 35.3141 27.6499 34.7474 26.9666 34.7474H22.9333C22.0166 34.7474 21.2666 33.9974 21.2666 33.0807V31.4641C21.2666 30.5474 22.0166 29.7974 22.9333 29.7974H29.2833C33.3499 29.7974 36.6333 26.4974 36.6333 22.4474V22.1141V11.2807C36.6166 7.21406 33.3166 3.91406 29.2666 3.91406Z" fill="#9B9B9B"/>
</svg>
