<svg width="99" height="102" viewBox="0 0 99 102" fill="none" xmlns="http://www.w3.org/2000/svg">
<g opacity="0.3">
<path d="M71.5667 57.8516L46.7392 65.9837L25.1152 75.5327L19.0778 77.1345C17.5376 78.613 15.9358 80.0916 14.1492 81.5702C12.2394 83.2336 10.4528 84.7121 9.09748 85.821C7.55731 87.0532 5.33946 89.271 4.16894 90.688C2.44395 92.8442 1.08859 95.1237 0.534129 96.8487C-0.513186 99.9906 -0.0203261 103.194 2.0127 106.151C4.53858 109.909 9.65194 113.729 15.5662 116.316C18.5849 117.672 23.6983 119.335 27.5179 120.321C33.8634 121.923 46.1847 123.709 52.9615 123.956C54.3168 124.017 56.1651 124.017 56.2267 123.956C56.3499 123.832 57.4588 121.861 58.6293 119.335C62.8186 110.833 65.7757 102.825 67.4391 96.0478C68.4248 91.9201 69.1641 86.4371 69.7185 79.9068C69.8418 78.0586 69.9034 71.9595 69.7802 69.9265C69.5953 66.5381 69.2873 63.8274 68.8561 61.1167C68.7944 60.7471 68.7328 60.3774 68.7944 60.3774C68.8561 60.3158 69.1025 60.2542 72.1828 59.3917L71.5667 57.8516ZM65.8989 61.1783C66.1453 61.1783 66.6998 66.9694 66.8846 70.6042C66.9462 71.3435 66.8846 71.8979 66.8846 71.8979C66.7614 71.8979 63.7427 70.1113 61.5249 68.756C59.6767 67.5854 56.1034 65.1828 55.549 64.7515C55.3642 64.6283 55.3642 64.6283 56.9043 64.0739C59.4918 63.1497 65.6525 61.1783 65.8989 61.1783ZM53.2079 65.3676C53.3928 65.3676 53.824 65.614 54.8713 66.2301C58.7525 68.6328 63.9891 71.5899 66.2686 72.5756C66.9462 72.8836 67.0079 72.7604 65.4677 73.8693C62.0793 76.2104 57.7668 78.4898 52.5919 80.7693C51.6678 81.2005 50.9285 81.5086 50.8669 81.5086C50.8053 81.5086 50.9285 81.0157 51.1133 80.4613C52.3454 75.7791 53.0847 71.0354 53.1463 67.2774C53.0231 65.3676 53.0231 65.3676 53.2079 65.3676ZM50.6204 66.3533C50.7437 66.4765 50.682 70.6658 50.4972 71.8363C50.1892 74.547 49.6347 77.1345 48.7722 80.03C48.5874 80.7077 48.4026 81.3237 48.341 81.3237C48.2794 81.447 45.6919 78.9211 44.8294 77.9354C43.3508 76.272 42.2419 74.547 41.3794 72.8836C40.9482 72.0211 40.2705 70.3577 40.3321 70.3577C40.6401 70.1113 50.5588 66.2917 50.6204 66.3533ZM38.3607 71.1586C38.4839 71.2202 38.6071 71.5283 38.6687 71.8363C39.2848 73.4997 40.6402 75.9024 41.8107 77.3809C43.1044 79.0443 44.7678 80.8925 46.1232 82.063C46.5544 82.4327 46.9857 82.8023 47.0473 82.8639C47.1705 82.9871 47.1705 82.9871 44.1517 84.0961C40.5785 85.4514 36.7589 86.8067 32.3232 88.2237C31.2759 88.5933 30.2286 88.9014 29.1813 89.271C28.9965 89.3326 29.0581 89.2094 29.5509 88.4701C31.7688 85.0202 35.0955 78.305 36.9437 73.4997C37.2518 72.6988 37.5598 71.8363 37.6214 71.6515C37.683 71.4051 37.8062 71.2818 38.0527 71.1586C38.1759 71.2202 38.2991 71.1586 38.3607 71.1586ZM34.6027 72.6988C34.6643 72.7604 33.6786 74.7318 32.7545 76.58C30.9063 80.1532 28.9349 83.6032 26.2858 87.8541C25.8545 88.5934 25.4233 89.271 25.3617 89.3326C25.2385 89.4558 25.2385 89.4558 24.9304 88.8398C24.3144 87.6076 23.7599 85.9443 23.5135 84.4657C23.2054 82.9871 23.267 80.4613 23.6367 78.8595C23.8831 77.6889 23.8831 77.6889 24.4376 77.4425C26.717 76.272 34.4795 72.6372 34.6027 72.6988ZM66.9462 74.0541V74.855C66.9462 79.0443 66.515 84.7737 65.8373 88.963C65.7141 89.7023 65.6525 90.3183 65.5909 90.3183C65.5909 90.3183 65.0364 90.1951 64.4204 90.0103C61.5864 89.1478 58.5677 87.8541 55.7954 86.3139C53.9472 85.3282 51.2981 83.6648 51.4213 83.6032C51.4213 83.6032 52.2222 83.1719 53.1463 82.6791C56.8427 80.7693 60.3543 78.6747 63.4346 76.6416C64.6052 75.9023 66.3302 74.6086 66.6998 74.3006L66.9462 74.0541ZM20.4331 79.5988C20.4947 79.5988 20.4947 79.722 20.3715 80.3996C20.3099 80.8925 20.1867 81.8166 20.1867 82.4327C20.0635 85.1434 20.4947 87.1764 21.8501 89.9487C22.2197 90.688 22.5277 91.3657 22.5277 91.3657C22.4045 91.4889 9.95997 95.1237 6.07874 96.171C4.90821 96.479 3.9225 96.7871 3.79929 96.7871C3.67608 96.8487 3.67608 96.7871 3.67608 96.479C4.10733 93.7067 6.20195 90.1335 9.15908 87.0532C11.1305 85.0202 12.6707 83.8496 15.3198 82.3095C17.2296 81.3238 20.1251 79.6604 20.4331 79.5988C20.3715 79.5988 20.3715 79.5988 20.4331 79.5988ZM49.6963 84.8353C49.6963 84.8353 50.1892 85.0818 50.6821 85.3898C54.6865 87.7309 60.2927 89.8871 65.0364 90.996L65.4677 91.1192L64.8516 91.4273C62.3257 92.8442 54.132 96.2326 45.7535 99.3745C44.5214 99.8058 43.3508 100.299 43.1044 100.36C42.858 100.483 42.6732 100.483 42.6732 100.483C42.6732 100.483 42.9812 99.8058 43.4124 99.0049C45.7535 94.6308 48.0946 89.271 49.3267 85.5746C49.5731 85.1434 49.6963 84.8353 49.6963 84.8353ZM46.7392 85.821C46.7392 85.821 46.616 86.2523 46.4312 86.6835C44.7678 90.6264 42.6732 94.9388 39.9009 99.8058C39.2232 101.038 38.6071 102.024 38.6071 102.024C38.6071 102.024 38.0527 101.716 37.375 101.284C33.3705 98.8201 29.859 95.8629 27.5795 92.9058L27.2715 92.4746L28.9965 91.9817C35.0955 90.3183 40.3321 88.5317 45.5071 86.3139C46.0616 86.0675 46.6776 85.821 46.7392 85.821ZM65.2829 92.2898C65.2829 92.721 64.3588 96.6022 63.5579 99.3745C62.8802 101.716 62.3257 103.564 61.2784 106.829C60.8472 108.246 60.4159 109.416 60.4159 109.416C60.4159 109.416 60.2927 109.416 60.1695 109.355C54.6249 108.369 49.5731 106.952 44.891 105.042C43.5973 104.488 41.6875 103.687 41.5642 103.564C41.5026 103.502 42.6732 103.009 44.0901 102.393C52.6535 98.6353 61.4632 94.446 64.5436 92.5978C64.9132 92.413 65.2212 92.2898 65.2829 92.2898ZM22.4661 93.7683C22.5278 93.8299 20.1251 97.2183 16.7983 101.9C15.6278 103.564 14.2724 105.474 13.7796 106.151C13.2867 106.891 12.4858 107.999 12.0546 108.677L11.2537 109.909L10.3912 109.17C9.40551 108.369 7.68052 106.583 6.87963 105.597C5.27785 103.564 4.16893 101.469 3.73768 99.5594C3.55286 98.6353 3.55286 98.204 3.73768 98.1424C4.04571 98.0808 9.03587 96.9103 13.718 95.8013C16.3055 95.1853 19.3242 94.5076 20.4331 94.1996C21.542 93.9531 22.4045 93.7683 22.4661 93.7683ZM24.8688 94.6924L25.4849 95.3701C28.1956 98.3888 30.9679 100.607 34.2946 102.578C34.9107 102.886 35.342 103.194 35.2804 103.256C35.1571 103.379 23.6983 107.445 18.3385 109.232C15.3814 110.279 12.9171 111.141 12.8555 111.141L12.4859 110.895L12.1778 110.649L12.7323 109.848C14.5189 107.322 16.7367 104.488 21.542 98.6969L24.8688 94.6924ZM39.8393 105.412C39.8393 105.412 40.7018 105.72 41.6875 106.09C44.1517 107.014 46.0615 107.568 48.649 108.246C51.8526 109.047 56.4731 109.848 59.1838 110.094C59.615 110.156 59.7998 110.156 59.7382 110.217C59.615 110.279 56.8427 111.203 54.8097 111.881C51.6061 112.866 41.7491 115.824 33.6786 118.103C32.2 118.534 30.9063 118.904 30.8447 118.904C30.6598 118.965 30.0438 118.781 30.0438 118.719C30.0438 118.657 30.475 118.103 31.0295 117.487C33.7402 114.283 36.3893 110.649 38.6687 107.26C39.2848 106.151 39.8393 105.412 39.8393 105.412ZM36.5125 105.474C36.5125 105.474 35.2187 107.63 32.8777 111.326C31.892 112.866 30.7831 114.653 30.3518 115.269C29.9822 115.885 29.4277 116.809 29.1197 117.364L28.5652 118.349L28.2572 118.288C27.5795 118.103 22.8358 116.44 21.6036 115.947C20.0635 115.331 18.4617 114.591 17.2296 113.914C15.751 113.113 13.8412 111.881 14.026 111.881C14.0876 111.881 16.6135 111.141 19.7554 110.341C27.9491 108.123 32.508 106.829 35.5268 105.843C36.0196 105.597 36.5125 105.474 36.5125 105.474ZM59.8615 110.957C59.9847 111.141 56.9043 119.582 55.7954 122.231C55.549 122.847 55.4874 122.97 55.3026 122.97C54.9945 122.97 50.5588 122.354 47.9098 121.923C43.2276 121.183 35.4036 119.828 33.4322 119.397L33.0009 119.274L35.7732 118.657C41.8107 117.302 44.6446 116.563 47.6017 115.7C51.2981 114.591 54.9329 113.174 58.6293 111.449C59.2454 111.203 59.7383 110.957 59.8615 110.957Z" fill="url(#paint0_linear_5551_79723)"/>
<path d="M45.939 0.00116134C45.5078 -0.0604454 38.8542 2.34222 34.5418 4.06721C28.7507 6.40827 24.2534 8.68772 21.4811 10.6591C20.4338 11.3984 19.1401 12.6922 18.9553 13.185C18.8936 13.3698 18.832 13.6163 18.832 13.8011L21.3579 16.2037L27.3338 18.1136L41.5649 20.6394L57.8291 23.4117L58.0139 21.9948H57.8907L55.7345 21.6867L55.3032 20.9475C53.0854 17.0662 50.6211 12.1993 49.2042 8.93414C48.0953 6.40827 47.0479 3.45114 46.4935 1.35651C46.1854 0.0627664 46.1238 0.00116134 45.939 0.00116134ZM45.631 0.925263C45.6926 0.925263 45.7542 1.47973 45.8158 2.09579C46.1238 4.74488 46.7399 7.27076 47.664 9.98146C48.3417 12.0761 48.3417 11.9529 47.5408 11.7064C45.631 11.152 37.0676 9.67343 30.8454 8.81093C29.8596 8.68772 28.9971 8.56451 28.9971 8.5029C28.9355 8.44129 33.4944 6.03863 35.4659 5.11453C38.0533 3.944 45.1381 1.04848 45.631 0.925263ZM27.5186 9.36539L28.2579 9.61182C32.2623 10.9672 42.2426 12.877 47.7872 13.3082C48.4033 13.3698 48.9577 13.4314 48.9577 13.4314C48.9577 13.4314 48.4649 13.7395 47.7872 14.0475C45.1381 15.4029 42.181 17.0046 40.148 18.2984C39.5319 18.668 38.9774 18.976 38.9158 18.976C38.8542 18.976 38.423 18.9144 38.0534 18.8528L37.3141 18.7296L35.4659 16.8814C32.1391 13.6779 29.5516 11.2136 28.5659 10.2279L27.5186 9.36539ZM26.7793 9.91985L29.4284 13.2466C30.8454 15.0948 32.3239 16.8198 32.632 17.2511C32.94 17.6207 33.1864 17.9903 33.1864 17.9903C33.1248 18.0519 29.3668 17.3127 27.3954 16.8814C25.3624 16.3886 24.4999 16.2037 23.2677 15.7725L22.2204 15.4645V15.218C22.2204 13.9859 23.8222 12.0761 26.5329 10.1663L26.7793 9.91985ZM49.2658 14.4171C49.3274 14.4171 49.4506 14.602 49.6354 15.0948C50.2515 16.5118 52.2845 20.2698 52.7774 21.0091C52.9006 21.2555 53.2086 21.2555 50.5595 20.8243C44.214 19.7769 42.181 19.4689 42.181 19.4073C42.181 19.4073 42.3658 19.2841 42.6122 19.0993C44.5837 17.9903 46.5551 16.635 48.3417 15.1564C48.7729 14.7868 49.1426 14.4788 49.2658 14.4171Z" fill="url(#paint1_linear_5551_79723)"/>
<path d="M19.0787 12.875C19.0787 12.875 18.6474 13.5527 19.0787 14.5384C19.3251 15.1544 20.0644 15.8937 20.8653 16.633C20.8653 16.633 29.2438 24.7651 30.2295 25.9356C34.85 31.2954 36.883 36.532 37.0679 43.74C37.1911 48.4221 36.3286 52.4882 34.1107 57.2319C30.2295 65.7336 21.9742 75.1594 9.2832 85.571L11.1314 84.9549C12.3019 84.0308 13.9653 83.1067 17.7849 81.0121C26.6563 76.1452 36.575 71.7095 48.7732 67.1506C66.3311 60.5586 95.2247 52.7962 111.674 50.2703L113.399 50.0239L113.152 49.5926C111.674 47.2516 110.626 45.8346 109.394 44.2945C105.821 39.7972 101.447 36.224 96.0872 33.2052C88.7559 29.0776 79.2069 25.874 67.132 23.4714C64.8525 23.0401 59.8624 22.1776 55.7963 21.5616C47.1714 20.2062 41.6268 19.2821 35.5277 18.2348C33.3099 17.8652 30.0447 17.3107 27.8885 16.8178C26.7795 16.5714 24.6233 16.0786 22.8983 15.4625C21.4197 15.0312 19.5099 14.4768 19.0787 12.875ZM23.9456 17.6187C23.9456 17.6187 24.2536 17.7419 24.6849 17.8651C25.4242 18.1116 26.3483 18.4196 27.3956 18.666C28.1965 18.9125 29.059 19.0973 29.8599 19.3437C30.9688 19.6517 31.9545 19.8982 31.9545 19.8982C32.0777 20.0214 33.9875 26.1205 34.6036 28.3999C34.85 29.2624 35.0348 30.0633 35.0348 30.0633C35.0348 30.0633 34.7884 29.7553 34.542 29.324C32.3241 25.4428 28.8742 21.5616 24.8697 18.358C24.3153 17.9268 23.9456 17.6187 23.9456 17.6187ZM33.1866 20.1446C33.3098 20.1446 33.6795 20.2062 34.1723 20.3294C37.3759 21.0687 43.1053 22.116 46.7401 22.7321C47.3562 22.8553 47.849 22.9169 47.849 22.9785C47.849 23.0401 47.6026 23.1633 47.3562 23.2865C46.7401 23.5946 44.2142 25.0731 43.4134 25.6276C41.3187 27.0446 39.4705 28.5231 38.1152 29.8785L37.1295 30.8642C37.1295 30.8642 37.0062 30.5561 36.9446 30.1249C36.267 27.5374 34.85 23.6562 33.5563 20.9455C33.3099 20.5758 33.125 20.1446 33.1866 20.1446C33.125 20.1446 33.125 20.1446 33.1866 20.1446ZM49.3892 23.2249C49.5124 23.2865 49.6973 23.9026 50.0669 25.3196C50.7446 28.0303 51.0526 31.1106 50.991 33.9445C50.9294 34.7454 50.9294 35.4847 50.8678 35.5463L50.8062 35.7311L49.8205 35.4231C47.7874 34.807 44.5223 33.8213 41.75 33.0204C40.1482 32.5892 38.8545 32.2195 38.8545 32.1579C38.8545 32.0347 41.1955 29.6937 42.1812 28.8312C44.091 27.1678 49.266 23.1633 49.3892 23.2249ZM50.683 23.4098C50.7446 23.3482 58.4454 24.7035 61.957 25.3812C64.5445 25.874 68.3641 26.6749 68.6105 26.7981C68.7338 26.8597 68.3025 27.0446 67.0704 27.599C62.1418 29.8169 58.4454 31.8499 54.749 34.2526C53.7633 34.8686 52.9624 35.4231 52.9624 35.4231C52.9624 35.4231 52.9008 34.8686 52.9008 34.2526C52.9008 30.6794 52.1615 27.1062 50.8678 24.0258C50.8062 23.7178 50.683 23.4714 50.683 23.4098ZM70.6436 27.3526C70.7052 27.4142 70.4587 28.9544 70.2123 29.8169C69.5346 32.5892 67.6864 36.7784 65.4686 40.6597C65.0989 41.3373 64.7293 41.8918 64.6677 41.9534C64.6061 41.9534 64.1132 41.707 63.5588 41.3373C61.4025 40.0436 58.8767 38.8731 56.2276 37.7641C55.4883 37.4561 54.8106 37.2097 54.8106 37.1481C54.6874 37.0249 60.7249 33.0204 63.9284 31.1106C66.4543 29.5704 70.582 27.291 70.6436 27.3526ZM72.0605 27.599C72.2453 27.599 75.6337 28.5231 77.4203 29.0776C81.856 30.3713 86.9078 32.2195 90.1729 33.7597L91.5283 34.3758L90.5425 34.6222C82.4721 36.4704 75.5721 38.6266 68.9186 41.3373C68.3641 41.5838 67.8713 41.7686 67.8713 41.7686C67.8096 41.7686 67.9945 41.3373 68.2409 40.7829C70.2739 36.532 71.5677 32.0963 71.8757 28.2767C71.9989 27.907 72.0605 27.599 72.0605 27.599ZM38.0536 35.4231C38.1152 35.3615 40.7027 35.9775 42.1196 36.4088C44.2759 37.0249 48.7732 38.5034 48.7732 38.6266C48.7732 38.6266 48.2803 39.0579 47.6642 39.6123C45.2 41.6454 42.8589 43.8016 40.025 46.5739C39.1625 47.3748 38.4848 48.0525 38.4232 48.0525C38.3616 48.0525 38.3616 47.9293 38.3616 47.806C38.7929 44.6641 38.6696 40.598 38.1152 36.4704C38.1152 35.8543 38.0536 35.4231 38.0536 35.4231ZM92.8836 35.4847C92.9452 35.5463 91.6515 37.4561 90.9122 38.565C89.8033 40.1668 88.1399 42.323 84.3819 47.0052C82.4104 49.4694 80.1926 52.3033 79.4533 53.2274C78.714 54.1515 78.098 54.9524 78.0364 54.9524C78.0364 54.9524 77.7899 54.6444 77.4819 54.2131C75.3873 51.0712 72.8614 48.2989 69.9043 45.8346C69.3498 45.3418 68.7337 44.8489 68.4873 44.7257C68.3025 44.6025 68.1177 44.4177 68.1177 44.4177C68.1177 44.3561 71.3212 43.0007 73.7239 42.015C77.9748 40.29 83.7658 38.1954 88.0783 36.9016C90.4193 36.1007 92.8836 35.4231 92.8836 35.4847ZM94.3622 35.8543C94.4238 35.8543 94.9166 36.0392 95.4095 36.4088C99.9684 38.9963 104.466 42.3846 107.977 45.8346C108.963 46.8203 111.427 49.3462 111.366 49.4078C111.366 49.4078 110.503 49.4694 109.517 49.531C101.632 50.1471 91.5283 51.8105 81.7944 54.1515C81.1167 54.2747 80.5622 54.4596 80.5006 54.4596C80.439 54.4596 81.1783 53.7203 82.1024 52.8578C87.8318 47.3748 90.4193 43.8632 93.4997 37.7025C93.9309 36.6552 94.3006 35.9159 94.3622 35.8543C94.3006 35.8543 94.3006 35.8543 94.3622 35.8543ZM52.5312 40.1052C52.7776 40.1668 55.2419 41.3373 57.0901 42.1998C58.7534 43.0623 61.3409 44.4177 61.4641 44.4793C61.4641 44.4793 60.6016 44.9721 59.4927 45.5266C55.9811 47.3132 52.9624 48.9766 49.7589 50.8864C48.8348 51.4408 48.0955 51.8721 48.0955 51.8721C48.0339 51.8721 48.0339 51.8105 48.5267 50.8864C50.1901 47.806 51.5454 44.1096 52.3463 40.5364C52.4079 40.29 52.4696 40.1052 52.5312 40.1052ZM50.1285 40.598C50.1901 40.6597 49.574 42.9391 49.1428 44.2329C48.4035 46.6355 47.0482 49.5926 45.816 51.8721C45.508 52.4265 45.0767 53.1658 44.8303 53.5971L44.3375 54.3364L43.2901 53.3507C42.058 52.1801 41.0723 51.4408 39.7786 50.7632C39.2857 50.5167 38.8545 50.2703 38.8545 50.2087C38.8545 50.0855 42.058 47.1284 44.5223 45.0337C46.3089 43.4936 50.0669 40.5364 50.1285 40.598ZM65.0373 46.6971L65.9614 47.3132C68.0561 48.6685 70.5203 50.5167 72.4301 52.1185C73.4775 52.981 75.5721 54.8292 76.0034 55.3221L76.2498 55.5685L74.7096 55.9997C66.0847 58.4024 59.4927 60.497 51.7303 63.331C50.8678 63.639 50.1285 63.8854 50.0669 63.8854C49.9437 63.8854 49.8821 64.0086 51.7919 62.222C56.7204 57.6631 61.1561 52.6114 64.4213 47.7444L65.0373 46.6971ZM61.0945 47.6828C61.1561 47.7444 58.5686 51.3176 57.0285 53.4123C55.1803 55.8765 51.9151 59.9426 49.6973 62.5917C48.7732 63.7006 47.9723 64.6247 47.9107 64.6247C47.8491 64.6247 47.849 64.3783 47.849 63.947C47.849 61.6676 47.2946 59.2649 46.2473 57.1703C45.816 56.3078 45.7544 56.123 45.816 55.9997C46.1857 55.6917 51.6071 52.5498 55.1186 50.7016C57.3981 49.4694 61.0329 47.6212 61.0945 47.6828ZM37.3759 53.4739C37.4375 53.4739 37.8688 53.7203 38.3616 53.9667C39.5321 54.6444 40.641 55.3837 41.5652 56.123C41.6268 56.1846 41.1339 56.5542 40.4562 57.0471C38.6696 58.3408 35.9589 60.3738 34.4188 61.606C32.7554 62.8997 32.6938 62.9613 32.8786 62.6533C34.1107 60.7435 34.7268 59.6961 35.4045 58.3408C35.9589 57.1087 36.575 55.6917 37.0063 54.398C37.1295 53.9051 37.3143 53.4739 37.3759 53.4739ZM43.7214 58.464C43.8446 58.464 43.9062 58.5872 44.4607 59.3881C45.508 60.9899 46.3705 63.1461 46.5553 64.8711L46.6169 65.2408L44.0294 66.2265C39.4089 68.0131 35.1581 69.7997 32.3241 71.0934C31.5233 71.463 30.1063 72.1407 29.1822 72.572C28.2581 73.0648 27.5188 73.3729 27.5188 73.3729C27.5188 73.3729 28.0733 72.9416 28.8126 72.3871C34.4188 68.3211 39.2857 63.8238 42.9205 59.3881C43.2901 58.8953 43.6598 58.464 43.7214 58.464ZM40.8259 59.1417C40.8875 59.2033 38.7312 61.6676 37.3143 63.1461C33.6795 66.8425 30.1063 69.7381 25.6706 72.572C25.1161 72.9416 24.6233 73.2496 24.5617 73.3112C24.4385 73.3729 24.6233 73.188 26.5331 71.0934C27.7652 69.738 28.6893 68.6291 29.7983 67.2738C30.5375 66.3497 30.6608 66.2265 31.6465 65.4872C34.3572 63.3926 40.7027 59.0801 40.8259 59.1417Z" fill="url(#paint2_radial_5551_79723)"/>
</g>
<defs>
<linearGradient id="paint0_linear_5551_79723" x1="18.7034" y1="111.692" x2="27.682" y2="106.387" gradientUnits="userSpaceOnUse">
<stop stop-color="#909CA9"/>
<stop offset="1" stop-color="#EDEDEE"/>
</linearGradient>
<linearGradient id="paint1_linear_5551_79723" x1="18.9051" y1="11.7292" x2="26.1295" y2="11.7292" gradientUnits="userSpaceOnUse">
<stop stop-color="#939FAB"/>
<stop offset="1" stop-color="#DCDEE1"/>
</linearGradient>
<radialGradient id="paint2_radial_5551_79723" cx="0" cy="0" r="1" gradientTransform="matrix(-9.21095 -1.38358 -2.79826 18.4219 55.3268 44.8159)" gradientUnits="userSpaceOnUse">
<stop stop-color="#EE352C"/>
<stop offset="1" stop-color="#A91D22"/>
</radialGradient>
</defs>
</svg>
