<svg width="32" height="31" viewBox="0 0 32 31" fill="none" xmlns="http://www.w3.org/2000/svg">
<path d="M3.65402 6.69534C4.36706 6.33203 5.30048 6.33203 7.16732 6.33203H7.70065C7.97848 6.33203 8.1174 6.33203 8.21541 6.28784C8.31167 6.24444 8.36938 6.19523 8.42746 6.10705C8.48659 6.01726 8.51233 5.85656 8.5638 5.53517L8.56381 5.53516C8.94541 3.15249 11.0104 1.33203 13.5007 1.33203C15.9909 1.33203 18.0559 3.15249 18.4375 5.53516C18.489 5.85656 18.5147 6.01726 18.5738 6.10705C18.6319 6.19523 18.6896 6.24444 18.7859 6.28784C18.8839 6.33203 19.0228 6.33203 19.3007 6.33203H19.834C21.7008 6.33203 22.6342 6.33203 23.3473 6.69534C23.9745 7.01492 24.4844 7.52486 24.804 8.15206C25.1673 8.8651 25.1673 9.79852 25.1673 11.6654V12.1987C25.1673 12.4765 25.1673 12.6154 25.2115 12.7135C25.2549 12.8097 25.3041 12.8674 25.3923 12.9255C25.4821 12.9846 25.6428 13.0104 25.9642 13.0619C28.3469 13.4435 30.1673 15.5085 30.1673 17.9987C30.1673 20.4889 28.3469 22.5539 25.9642 22.9355C25.6428 22.987 25.4821 23.0128 25.3923 23.0719C25.3041 23.13 25.2549 23.1877 25.2115 23.2839C25.1673 23.382 25.1673 23.5209 25.1673 23.7987V24.332C25.1673 26.1989 25.1673 27.1323 24.804 27.8453C24.4844 28.4725 23.9745 28.9825 23.3473 29.3021C22.6342 29.6654 21.7008 29.6654 19.834 29.6654H19.3007C19.0228 29.6654 18.8839 29.6654 18.7859 29.6212C18.6896 29.5778 18.6319 29.5286 18.5738 29.4404C18.5147 29.3506 18.489 29.1899 18.4375 28.8685C18.0559 26.4858 15.9909 24.6654 13.5007 24.6654C11.0104 24.6654 8.94541 26.4858 8.56381 28.8685C8.51233 29.1899 8.48659 29.3506 8.42746 29.4404C8.36938 29.5286 8.31167 29.5778 8.21541 29.6212C8.1174 29.6654 7.97848 29.6654 7.70065 29.6654H7.16732C5.30048 29.6654 4.36706 29.6654 3.65402 29.3021C3.02681 28.9825 2.51687 28.4725 2.1973 27.8453C1.83398 27.1323 1.83398 26.1989 1.83398 24.332V23.7987C1.83398 23.5209 1.83398 23.382 1.87818 23.2839C1.92158 23.1877 1.97079 23.13 2.05897 23.0719C2.14875 23.0128 2.30945 22.987 2.63085 22.9355C5.01353 22.5539 6.83398 20.4889 6.83398 17.9987C6.83398 15.5085 5.01353 13.4435 2.63085 13.0619L2.63084 13.0618C2.30945 13.0104 2.14875 12.9846 2.05897 12.9255C1.97079 12.8674 1.92158 12.8097 1.87818 12.7135C1.83398 12.6154 1.83398 12.4765 1.83398 12.1987V11.6654C1.83398 9.79852 1.83398 8.8651 2.1973 8.15206C2.51687 7.52486 3.02681 7.01492 3.65402 6.69534Z" stroke="#222222" stroke-width="2"/>
</svg>
