<svg width="164" height="91" viewBox="0 0 164 91" fill="none" xmlns="http://www.w3.org/2000/svg">
<g opacity="0.4">
<path d="M21.4609 71.3562H26.1746V52.7426L33.4716 68.9692C34.3328 70.933 35.5114 71.6282 37.8227 71.6282C40.1344 71.6282 41.2675 70.9333 42.129 68.9692L49.426 52.7426V71.3558H54.1397V52.773C54.1397 50.9598 53.4144 50.0836 51.919 49.6307C48.3384 48.5126 45.936 49.4795 44.8481 51.8969L37.6869 67.9114L30.7525 51.8969C29.7101 49.4795 27.2626 48.5126 23.682 49.6307C22.1862 50.0836 21.4609 50.9602 21.4609 52.7727V71.3562ZM58.0591 56.2057H62.7713V66.4604C62.7272 67.0176 62.9501 68.3251 65.5323 68.3654C66.8496 68.3864 75.6996 68.3654 75.7822 68.3654V56.1558H80.5055C80.5271 56.1558 80.5007 72.8068 80.5011 72.8776C80.5268 76.9842 75.4056 77.8762 73.0451 77.9452H58.1611V74.7738C58.1875 74.7738 73.0341 74.7771 73.0715 74.7735C76.1052 74.453 75.747 72.9452 75.7466 72.4375V71.2013H65.7275C61.066 71.1584 58.098 69.1238 58.0613 66.7838C58.0576 66.5669 58.1618 56.3081 58.0587 56.2053L58.0591 56.2057Z" fill="#00618A"/>
<path d="M84.139 71.3575H97.6906C99.277 71.3575 100.818 71.0254 102.042 70.4509C104.081 69.5146 105.079 68.2457 105.079 66.5833V63.1388C105.079 61.7789 103.946 60.5096 101.725 59.664C100.546 59.2103 99.0957 58.9688 97.6906 58.9688H91.9793C90.0765 58.9688 89.1699 58.3947 88.9434 57.1258C88.8979 56.9746 88.8979 56.8534 88.8979 56.7026V54.5575C88.8979 54.4364 88.8979 54.3153 88.9434 54.1644C89.1699 53.1976 89.6687 52.9252 91.3454 52.7744C91.4812 52.7744 91.6625 52.7439 91.7987 52.7439H105.26V49.6019H92.0252C90.1216 49.6019 89.1244 49.7227 88.2181 49.9943C85.4079 50.8708 84.1842 52.2609 84.1842 54.6779V57.4279C84.1842 59.5432 86.5865 61.3561 90.6201 61.7789C91.0738 61.809 91.5267 61.8391 91.9797 61.8391H96.8747C97.0564 61.8391 97.2377 61.8391 97.3735 61.8696C98.8692 61.9907 99.5035 62.2623 99.9572 62.8063C100.229 63.0779 100.319 63.3503 100.319 63.6524V66.4016C100.319 66.7345 100.093 67.1577 99.6401 67.52C99.2319 67.8826 98.5521 68.1245 97.6455 68.1851C97.4642 68.1851 97.3284 68.2152 97.147 68.2152H84.1387V71.3572L84.139 71.3575ZM134.484 65.8884C134.484 69.1214 136.886 70.9347 141.736 71.2973C142.189 71.3274 142.643 71.3575 143.095 71.3575H155.379V68.2152H143.005C140.24 68.2152 139.198 67.52 139.198 65.8583V49.6016H134.484V65.8884ZM108.087 66.0532V54.8497C108.087 52.0036 110.086 50.2773 114.037 49.7322C114.458 49.6721 114.883 49.6418 115.308 49.6416H124.256C124.71 49.6416 125.119 49.672 125.573 49.7322C129.524 50.2773 131.523 52.0036 131.523 54.8497V66.0529C131.523 68.3616 130.674 69.5979 128.718 70.4032L133.361 74.5942H127.888L124.132 71.2034L120.35 71.4431H115.308C114.446 71.4431 113.537 71.3216 112.538 71.0492C109.541 70.2318 108.087 68.6571 108.087 66.0529V66.0532ZM113.174 65.7809C113.174 65.9325 113.22 66.0837 113.265 66.2654C113.538 67.5673 114.764 68.2941 116.626 68.2941H120.909L116.975 64.7429H122.448L125.879 67.8401C126.511 67.5031 126.927 66.9878 127.073 66.326C127.118 66.1747 127.118 66.0231 127.118 65.8719V55.1228C127.118 55.0016 127.118 54.8501 127.073 54.6985C126.8 53.4872 125.573 52.7913 123.757 52.7913H116.626C114.537 52.7913 113.175 53.6997 113.175 55.1228V65.7809H113.174Z" fill="#E48E00"/>
<path d="M159.526 44.3865C156.628 44.308 154.415 44.5774 152.523 45.3754C151.985 45.6022 151.128 45.6081 151.04 46.282C151.335 46.5918 151.381 47.0543 151.616 47.4353C152.068 48.1664 152.831 49.1461 153.511 49.66C154.255 50.2216 155.021 50.8217 155.819 51.308C157.237 52.1725 158.82 52.6661 160.185 53.5324C160.99 54.043 161.789 54.686 162.574 55.2623C162.962 55.5471 163.223 55.9902 163.728 56.1689V56.0863C163.463 55.749 163.394 55.2851 163.151 54.9327L162.08 53.8616C161.033 52.4716 159.703 51.2508 158.29 50.2366C157.163 49.4276 154.641 48.3353 154.171 47.0234L154.088 46.9408C154.887 46.8509 155.823 46.5617 156.56 46.3646C157.799 46.032 158.906 46.1179 160.185 45.7876C160.761 45.6228 161.338 45.4576 161.915 45.2931V44.9635C161.269 44.2999 160.808 43.4219 160.102 42.8214C158.258 41.2504 156.244 39.6809 154.171 38.3724C153.021 37.6463 151.599 37.1747 150.381 36.5595C149.971 36.3528 149.25 36.2453 148.98 35.9003C148.34 35.0843 147.991 34.0496 147.497 33.0989C146.463 31.1076 145.447 28.9325 144.531 26.837C143.906 25.4084 143.498 23.9997 142.719 22.7175C138.978 16.5668 134.951 12.8548 128.713 9.20559C127.385 8.42964 125.787 8.12278 124.098 7.72269L121.38 7.55752C120.826 7.32627 120.251 6.6498 119.731 6.32165C117.665 5.01641 112.365 2.17652 110.834 5.90982C109.868 8.2663 112.278 10.5659 113.141 11.7599C113.746 12.5975 114.521 13.5364 114.953 14.4787C115.238 15.0979 115.287 15.7186 115.53 16.3738C116.129 17.9877 116.65 19.7433 117.425 21.2347C117.817 21.9893 118.248 22.7843 118.743 23.459C119.047 23.8734 119.567 24.0558 119.649 24.6952C119.141 25.4073 119.112 26.5121 118.826 27.414C117.538 31.4743 118.024 36.5206 119.897 39.5256C120.471 40.448 121.825 42.4265 123.686 41.6678C125.315 41.0045 124.951 38.9494 125.417 37.1365C125.522 36.7254 125.457 36.4229 125.664 36.1476V36.2302L127.147 39.196C128.244 40.9634 130.192 42.8108 131.843 44.0573C132.699 44.7037 133.373 45.8213 134.48 46.1994V46.1168H134.397C134.183 45.7828 133.847 45.644 133.573 45.3754C132.929 44.7433 132.212 43.9574 131.678 43.2332C130.177 41.195 128.85 38.9644 127.641 36.6421C127.064 35.5336 126.562 34.3098 126.076 33.1815C125.888 32.7465 125.89 32.0888 125.499 31.863C124.966 32.69 124.181 33.3588 123.769 34.3351C123.11 35.8959 123.025 37.799 122.781 39.7727C122.636 39.8244 122.7 39.7888 122.615 39.8549C121.468 39.5781 121.065 38.397 120.638 37.3835C119.559 34.8208 119.359 30.694 120.308 27.744C120.554 26.9805 121.664 24.5763 121.215 23.8716C121 23.1679 120.293 22.7609 119.897 22.2235C119.407 21.5588 118.917 20.6837 118.578 19.9162C117.695 17.918 117.283 15.6749 116.354 13.655C115.91 12.6893 115.158 11.7122 114.541 10.8537C113.858 9.90299 113.093 9.20192 112.564 8.05194C112.376 7.64341 112.12 6.98932 112.399 6.56904C112.488 6.28568 112.613 6.16712 112.894 6.07462C113.372 5.70647 114.702 6.19722 115.2 6.40424C116.522 6.95298 117.624 7.47567 118.743 8.21675C119.281 8.57315 119.824 9.26211 120.473 9.45298H121.215C122.375 9.71946 123.674 9.53557 124.758 9.86481C126.673 10.447 128.389 11.3521 129.948 12.3365C134.697 15.335 138.58 19.6035 141.236 24.6952C141.663 25.5149 141.848 26.2974 142.224 27.167C142.984 28.9207 143.94 30.7252 144.695 32.44C145.449 34.1505 146.184 35.8775 147.25 37.3013C147.81 38.0497 149.974 38.4513 150.957 38.8664C151.647 39.1579 152.776 39.4614 153.429 39.8549C154.676 40.6073 155.885 41.503 157.055 42.327C157.639 42.7388 159.436 43.6421 159.526 44.3865Z" fill="#00618A"/>
<path fill-rule="evenodd" clip-rule="evenodd" d="M122.698 12.9971C122.094 12.9861 121.667 13.0632 121.215 13.1616V13.2442H121.297C121.586 13.8362 122.094 14.2172 122.451 14.7271C122.725 15.3039 123 15.8807 123.275 16.4574L123.357 16.3751C123.867 16.0154 124.101 15.4402 124.098 14.5626C123.894 14.3475 123.864 14.0774 123.687 13.8208C123.451 13.4787 122.995 13.2849 122.698 12.9971Z" fill="#00618A"/>
<path fill-rule="evenodd" clip-rule="evenodd" d="M157.59 68.1258C157.59 70.2011 159.23 71.5996 161.064 71.5996C162.898 71.5996 164.538 70.2011 164.538 68.1258C164.538 66.0508 162.898 64.6523 161.064 64.6523C159.23 64.6523 157.59 66.0508 157.59 68.1258H157.59ZM163.76 68.1258C163.76 69.7004 162.556 70.8772 161.064 70.8772C159.554 70.8772 158.368 69.7004 158.368 68.1258C158.368 66.5511 159.554 65.3743 161.064 65.3743C162.556 65.3743 163.76 66.5511 163.76 68.1258ZM162 70.1079H162.778L161.639 68.3669C162.25 68.302 162.713 68.0054 162.713 67.283C162.713 66.477 162.204 66.1437 161.222 66.1437H159.675V70.1079H160.342V68.3945H160.962L162 70.1079ZM160.342 67.8387V66.6994H161.11C161.509 66.6994 161.99 66.7735 161.99 67.2368C161.99 67.7921 161.555 67.8387 161.054 67.8387H160.342Z" fill="#E48E00"/>
</g>
</svg>
