<svg width="114" height="102" viewBox="0 0 114 102" fill="none" xmlns="http://www.w3.org/2000/svg">
<g opacity="0.3" clip-path="url(#clip0_5536_79627)">
<path d="M62 124C96.2417 124 124 96.2417 124 62C124 27.7583 96.2417 0 62 0C27.7583 0 0 27.7583 0 62C0 96.2417 27.7583 124 62 124Z" fill="#5C2D91"/>
<path opacity="0.1" d="M19.0255 17.4375C12.7227 23.054 7.63337 29.8984 4.06937 37.5513C0.505372 45.2043 -1.45818 53.5044 -1.70092 61.943C-1.94367 70.3816 -0.4605 78.781 2.65768 86.6261C5.77586 94.4712 10.4633 101.597 16.4328 107.566C22.4023 113.536 29.528 118.223 37.3731 121.342C45.2183 124.46 53.6176 125.943 62.0562 125.7C70.4948 125.457 78.795 123.494 86.4479 119.93C94.1008 116.366 100.945 111.277 106.562 104.974L19.0255 17.4375Z" fill="white"/>
<path d="M14.3376 72.1705C13.9759 72.1762 13.617 72.1068 13.2835 71.9668C12.95 71.8267 12.6492 71.619 12.4001 71.3568C12.1441 71.1039 11.9418 70.8019 11.8053 70.469C11.6688 70.1361 11.6009 69.779 11.6057 69.4193C11.6031 69.0598 11.672 68.7034 11.8084 68.3708C11.9448 68.0381 12.1459 67.736 12.4001 67.4818C12.6468 67.2151 12.9467 67.0031 13.2804 66.8596C13.6142 66.7161 13.9743 66.6442 14.3376 66.6486C14.7003 66.6477 15.0594 66.7212 15.3926 66.8645C15.7259 67.0078 16.0262 67.2179 16.2751 67.4818C16.5337 67.7337 16.7389 68.035 16.8787 68.3679C17.0185 68.7007 17.09 69.0583 17.0888 69.4193C17.0922 69.7806 17.0218 70.1388 16.8819 70.472C16.7419 70.8051 16.5355 71.1062 16.2751 71.3568C16.0238 71.6162 15.7226 71.8221 15.3896 71.962C15.0566 72.1018 14.6987 72.1728 14.3376 72.1705Z" fill="white"/>
<path d="M52.8351 71.6878H47.7588L29.6045 43.5166C29.1522 42.8225 28.7755 42.082 28.4807 41.3078H28.3257C28.4982 42.9163 28.563 44.5345 28.5195 46.1516V71.6878H24.3926V36.3672H29.7595L47.4295 64.0347C48.1657 65.1843 48.6436 65.9722 48.8632 66.3984H48.9601C48.7556 64.6756 48.6715 62.9405 48.7082 61.2059V36.3672H52.8351V71.6878Z" fill="white"/>
<path d="M80.7744 71.6878H62V36.3672H79.9025V40.1066H66.2238V51.8478H78.9725V55.5678H66.2238V67.8128H80.7938L80.7744 71.6878Z" fill="white"/>
<path d="M108.499 40.1066H98.2305V71.6878H94.1037V40.1066H83.9512V36.3672H108.499V40.1066Z" fill="white"/>
<path d="M50.6081 95.714C49.2093 96.3914 47.6663 96.7173 46.1131 96.6634C45.0809 96.7099 44.0508 96.5351 43.0917 96.1508C42.1327 95.7665 41.2669 95.1816 40.5524 94.4353C39.1288 92.8417 38.3787 90.7581 38.4599 88.6228C38.4078 87.4666 38.5885 86.3117 38.9912 85.2267C39.3939 84.1417 40.0105 83.1487 40.8043 82.3065C41.5779 81.514 42.508 80.8911 43.5353 80.4775C44.5627 80.0639 45.6649 79.8686 46.7718 79.904C48.0965 79.8587 49.4162 80.0897 50.6468 80.5821V82.5196C49.462 81.8637 48.1259 81.5297 46.7718 81.5509C45.9181 81.5268 45.0693 81.6875 44.2835 82.0219C43.4976 82.3563 42.7933 82.8566 42.2187 83.4884C41.0104 84.865 40.385 86.6577 40.4749 88.4871C40.3845 90.2202 40.9676 91.9211 42.1024 93.234C42.6468 93.8193 43.3113 94.28 44.0504 94.5843C44.7895 94.8886 45.5857 95.0295 46.3843 94.9971C47.872 95.0361 49.3411 94.6604 50.6274 93.9121L50.6081 95.714Z" fill="#F2F2F2"/>
<path d="M58.5314 96.6624C57.7601 96.6873 56.9925 96.5463 56.2805 96.2488C55.5685 95.9513 54.9287 95.5043 54.4045 94.938C53.3451 93.7557 52.795 92.203 52.8739 90.6174C52.8255 89.7867 52.9428 88.9546 53.2188 88.1697C53.4949 87.3847 53.9243 86.6624 54.482 86.0449C55.0512 85.4894 55.7284 85.0566 56.4715 84.7733C57.2147 84.49 58.0081 84.3623 58.8027 84.398C59.5537 84.358 60.3045 84.481 61.0034 84.7586C61.7024 85.0362 62.3331 85.4618 62.852 86.0061C63.8818 87.2471 64.4013 88.8332 64.3051 90.443C64.3864 92.0767 63.8229 93.677 62.7358 94.8992C62.2017 95.4765 61.55 95.9326 60.8248 96.2367C60.0995 96.5409 59.3175 96.686 58.5314 96.6624ZM58.667 86.0642C58.1341 86.0418 57.6029 86.1399 57.1131 86.3513C56.6234 86.5626 56.1876 86.8817 55.8383 87.2849C55.0928 88.2448 54.721 89.4427 54.792 90.6561C54.7244 91.8334 55.0973 92.9937 55.8383 93.9111C56.1912 94.3086 56.6281 94.6225 57.1174 94.8303C57.6066 95.0381 58.136 95.1344 58.667 95.1124C59.187 95.1431 59.707 95.0542 60.1873 94.8527C60.6675 94.6512 61.0953 94.3424 61.4376 93.9499C62.142 92.9873 62.485 91.8075 62.4064 90.6174C62.483 89.4214 62.1404 88.2362 61.4376 87.2655C61.1 86.8648 60.6742 86.5478 60.1935 86.3394C59.7127 86.131 59.1903 86.0368 58.667 86.0642Z" fill="#F2F2F2"/>
<path d="M73.3533 86.6465C72.9348 86.3724 72.4379 86.243 71.9389 86.2784C71.5486 86.2926 71.1678 86.4025 70.8299 86.5984C70.4921 86.7944 70.2075 87.0704 70.0014 87.4021C69.4247 88.3151 69.1471 89.3852 69.207 90.4634V96.3921H67.2695V84.7671H69.207V87.189C69.42 86.4396 69.8437 85.7672 70.4277 85.2515C70.9329 84.813 71.5799 84.5721 72.2489 84.5734C72.6234 84.5565 72.9979 84.6091 73.3533 84.7284V86.6465Z" fill="#F2F2F2"/>
<path d="M84.7073 91.0631H76.5117C76.4567 92.1462 76.8092 93.2107 77.4998 94.0469C77.8589 94.4051 78.2896 94.6834 78.7637 94.8637C79.2378 95.044 79.7446 95.1222 80.251 95.0931C81.5644 95.08 82.8347 94.6224 83.8548 93.795V95.5387C82.6569 96.3283 81.2383 96.7152 79.8054 96.6431C79.0824 96.6796 78.3603 96.5561 77.6905 96.2815C77.0207 96.0069 76.4197 95.5879 75.9304 95.0544C74.9218 93.7962 74.4176 92.2076 74.516 90.5981C74.4464 88.9846 74.9937 87.4051 76.0467 86.1806C76.5259 85.627 77.1221 85.1869 77.7923 84.892C78.4625 84.5972 79.1898 84.4549 79.9217 84.4756C80.5825 84.4386 81.2431 84.5518 81.8539 84.8069C82.4646 85.0619 83.0096 85.4521 83.4479 85.9481C84.34 87.1245 84.78 88.5821 84.6879 90.0556L84.7073 91.0631ZM82.7698 89.4937C82.8091 88.5959 82.5351 87.7124 81.9948 86.9944C81.7297 86.6948 81.4003 86.4591 81.0312 86.3047C80.6621 86.1504 80.263 86.0815 79.8635 86.1031C79.4466 86.098 79.0331 86.1798 78.6495 86.3432C78.2659 86.5067 77.9205 86.7482 77.6354 87.0525C76.9977 87.7271 76.5965 88.5907 76.4923 89.5131L82.7698 89.4937Z" fill="#F2F2F2"/>
</g>
<defs>
<clipPath id="clip0_5536_79627">
<rect width="124" height="124" fill="white"/>
</clipPath>
</defs>
</svg>
