<svg width="120" height="102" viewBox="0 0 120 102" fill="none" xmlns="http://www.w3.org/2000/svg">
<g opacity="0.3" clip-path="url(#clip0_5536_79680)">
<path d="M106.625 72.115C106.625 71.9211 106.571 71.7826 106.463 71.6924C106.341 71.595 106.132 71.5431 105.841 71.5431H105.423V72.6942H105.927C106.394 72.6942 106.624 72.5002 106.624 72.115H106.625ZM107.277 74.5146H106.702L106.335 73.705C106.149 73.299 105.95 73.096 105.732 73.096H105.423V74.5146H104.948V71.139H105.898C106.32 71.139 106.637 71.2305 106.855 71.4213C107.039 71.5855 107.131 71.7957 107.131 72.0573C107.131 72.29 107.056 72.4858 106.905 72.6482C106.757 72.8119 106.545 72.9228 106.274 72.9801V72.9946C106.462 73.0388 106.65 73.2453 106.833 73.6179L107.277 74.5164V74.5146ZM108.327 72.8602C108.327 72.1958 108.101 71.6351 107.649 71.1904C107.196 70.7461 106.643 70.5229 105.991 70.5229C105.317 70.5229 104.757 70.7461 104.313 71.1945C103.869 71.6446 103.647 72.2016 103.647 72.8602C103.647 73.5336 103.878 74.096 104.335 74.5443C104.787 74.9922 105.34 75.2137 105.99 75.2137C106.637 75.2137 107.19 74.9904 107.646 74.5367C108.101 74.0901 108.328 73.5295 108.328 72.8602H108.327ZM108.646 72.8453C108.646 73.5908 108.39 74.2164 107.876 74.7193C107.362 75.2268 106.731 75.4793 105.978 75.4793C105.218 75.4793 104.587 75.2304 104.086 74.7414C103.585 74.2453 103.336 73.622 103.336 72.8656C103.336 72.1259 103.59 71.5043 104.099 70.9937C104.608 70.4841 105.242 70.2301 106 70.2301C106.742 70.2301 107.365 70.4737 107.87 70.9586C108.389 71.4565 108.646 72.0835 108.646 72.8453ZM36.549 82.2585H34.9137V72.8949C34.9137 72.1552 34.9624 71.2554 35.0489 70.1932H35.0129C34.8596 70.8142 34.7194 71.2644 34.5959 71.5431L29.8438 82.2585H29.0474L24.2858 71.6207C24.1519 71.3235 24.0113 70.8458 23.8693 70.1927H23.8342C23.8838 70.752 23.9122 71.6577 23.9122 72.9134V82.2585H22.3359V68.3146H24.4927L28.7675 78.0372C29.0902 78.7697 29.2984 79.3272 29.3999 79.707H29.4675C29.746 78.9447 29.9669 78.3732 30.1346 77.9966L34.5017 68.3146H36.5481V82.258L36.549 82.2585ZM41.5778 82.258H39.989V72.3009H41.5778V82.258ZM41.8528 68.7313C41.8528 69.0245 41.7491 69.2699 41.5449 69.471C41.3439 69.6722 41.0951 69.7732 40.8039 69.7732C40.5199 69.7732 40.2729 69.6763 40.0701 69.4823C39.8673 69.2866 39.7681 69.0376 39.7681 68.7313C39.7681 68.4436 39.8682 68.1982 40.0701 67.9993C40.1663 67.9032 40.2808 67.8274 40.4069 67.7767C40.533 67.7259 40.668 67.7011 40.8039 67.7039C41.0951 67.7039 41.3439 67.7999 41.5449 67.9993C41.7496 68.1982 41.8528 68.4436 41.8528 68.7313ZM51.508 81.7971C50.7449 82.2657 49.8339 82.498 48.7815 82.498C47.3549 82.498 46.2064 82.0244 45.3288 81.0777C44.477 80.1593 44.0479 78.9731 44.0479 77.5194C44.0479 75.8889 44.5144 74.5682 45.4541 73.5647C46.389 72.5593 47.6461 72.0578 49.2277 72.0578C50.0922 72.0578 50.8594 72.2273 51.5301 72.5629V74.1993C50.7872 73.6774 50.0021 73.419 49.1592 73.419C48.1455 73.419 47.3215 73.7731 46.6819 74.4798C46.0167 75.2029 45.6791 76.1694 45.6791 77.3755C45.6791 78.5343 45.9869 79.4508 46.599 80.1278C47.2129 80.8012 48.0296 81.1386 49.06 81.1386C49.9299 81.1386 50.7449 80.8526 51.5075 80.2829L51.508 81.7971ZM59.1083 73.9165C58.8279 73.7004 58.4241 73.5953 57.8913 73.5953C57.2445 73.5953 56.7004 73.8849 56.2601 74.4695C55.7607 75.1226 55.5119 76.0265 55.5119 77.1811V82.2576H53.919V72.3004H55.5119V74.3535H55.5502C55.7845 73.6265 56.1456 73.0676 56.6283 72.6712C57.08 72.3094 57.5906 72.1268 58.1527 72.1268C58.5769 72.1268 58.8919 72.1728 59.1078 72.2625V73.9156L59.1083 73.9165ZM67.9846 77.2975C67.9846 76.0229 67.697 75.0491 67.1219 74.3811C66.5634 73.7392 65.7832 73.4181 64.779 73.4181C63.7892 73.4181 62.9945 73.7428 62.4009 74.3923C61.7726 75.0856 61.4589 76.0653 61.4589 77.3363C61.4589 78.5279 61.7577 79.4629 62.3603 80.1305C62.9598 80.8021 63.7666 81.1377 64.779 81.1377C65.826 81.1377 66.6279 80.7967 67.1769 80.1178C67.7155 79.4539 67.9846 78.5149 67.9846 77.2975ZM69.6176 77.2411C69.6176 78.8279 69.17 80.1025 68.2776 81.0578C67.382 82.0172 66.1762 82.4966 64.6609 82.4966C63.168 82.4966 61.979 82.0172 61.1073 81.0578C60.2536 80.1336 59.824 78.9127 59.824 77.3945C59.824 75.6625 60.309 74.3269 61.2822 73.3789C62.1818 72.4993 63.3853 72.0564 64.8935 72.0564C66.3773 72.0564 67.5366 72.5192 68.3718 73.4361C69.1993 74.3581 69.6176 75.6273 69.6176 77.2411ZM77.5163 79.5942C77.5163 80.4092 77.212 81.0844 76.6017 81.623C75.9365 82.2057 75.0224 82.4975 73.8721 82.4975C72.9301 82.4975 72.1043 82.3 71.4039 81.8977V80.1842C72.1836 80.8188 73.0446 81.1381 73.9902 81.1381C75.2509 81.1381 75.8833 80.6735 75.8833 79.7471C75.8833 79.3578 75.7445 79.0349 75.4646 78.7864C75.1846 78.5315 74.6406 78.2271 73.8315 77.8708C72.9981 77.5059 72.4045 77.1315 72.0547 76.7423C71.6342 76.2808 71.4224 75.6819 71.4224 74.944C71.4224 74.1172 71.7523 73.4294 72.405 72.8814C73.059 72.332 73.8996 72.0569 74.9318 72.0569C75.7228 72.0569 76.4305 72.212 77.0592 72.5237V74.1285C76.403 73.6544 75.653 73.4181 74.8011 73.4181C74.2737 73.4181 73.85 73.5498 73.5345 73.806C73.2158 74.0676 73.0554 74.4014 73.0554 74.8091C73.0554 75.2502 73.1897 75.593 73.4556 75.8384C73.6914 76.0653 74.1926 76.3422 74.9485 76.6647C75.7981 77.021 76.412 77.39 76.7861 77.7679C77.2711 78.246 77.5163 78.8545 77.5163 79.5942ZM87.2499 77.2975C87.2499 76.0229 86.9624 75.0491 86.3854 74.3811C85.8288 73.7392 85.0467 73.4181 84.0443 73.4181C83.0545 73.4181 82.2598 73.7428 81.6626 74.3923C81.0361 75.0856 80.7242 76.0653 80.7242 77.3363C80.7242 78.5279 81.023 79.4629 81.6202 80.1305C82.2265 80.8021 83.0342 81.1377 84.0443 81.1377C85.0932 81.1377 85.8932 80.7967 86.4422 80.1178C86.9804 79.4539 87.2499 78.5149 87.2499 77.2975ZM88.8865 77.2411C88.8865 78.8279 88.4349 80.1025 87.5411 81.0578C86.6486 82.0172 85.4434 82.4966 83.928 82.4966C82.4329 82.4966 81.2439 82.0172 80.3722 81.0578C79.5189 80.1336 79.0894 78.9127 79.0894 77.3945C79.0894 75.6625 79.5775 74.3269 80.5452 73.3789C81.4449 72.4993 82.6506 72.0564 84.1601 72.0564C85.6444 72.0564 86.8014 72.5192 87.6353 73.4361C88.4647 74.3581 88.8865 75.6273 88.8865 77.2411ZM95.9045 68.9176C95.5912 68.744 95.2433 68.6556 94.8466 68.6556C93.7315 68.6556 93.1784 69.3583 93.1784 70.766V72.3004H95.5101V73.6508H93.1784V82.2576H91.5837V73.6504H89.8917V72.3H91.5837V70.6861C91.5837 69.5901 91.9195 68.7304 92.6015 68.1107C93.1857 67.5722 93.901 67.3047 94.7506 67.3047C95.2433 67.3047 95.6264 67.3638 95.9045 67.4783V68.9176ZM102.191 82.1575C101.815 82.3735 101.313 82.4804 100.694 82.4804C98.9578 82.4804 98.0897 81.5007 98.0897 79.5419V73.6522H96.3827V72.3H98.0897V69.8707C98.5981 69.7101 99.1272 69.5351 99.6857 69.3542V72.3H102.191V73.6522H99.6857V79.2708C99.6857 79.9383 99.7948 80.4164 100.023 80.6929C100.254 80.9789 100.63 81.1192 101.161 81.1192C101.557 81.1192 101.9 81.0127 102.191 80.798V82.1575Z" fill="white"/>
<path d="M16.0912 121.122C16.0912 121.902 15.8131 122.577 15.2511 123.147C14.6903 123.715 14.0102 124.001 13.2119 124.001C12.4322 124.001 11.7687 123.715 11.2251 123.147C10.681 122.577 10.4102 121.902 10.4102 121.122C10.4102 120.319 10.681 119.643 11.2251 119.082C11.7687 118.519 12.4322 118.241 13.2119 118.241C14.0102 118.241 14.6903 118.523 15.2511 119.093C15.8131 119.663 16.0912 120.34 16.0912 121.122ZM51.752 123.415H46.5578L27.7022 94.276C27.2486 93.5494 26.8658 92.7809 26.5591 91.9811H26.404C26.5384 92.7614 26.6069 94.4361 26.6069 97.0021V123.415H22.3249V86.8568H27.8825L46.1742 115.537C46.9026 116.675 47.4002 117.49 47.6526 117.981H47.7545C47.5845 116.929 47.4962 115.136 47.4962 112.605V86.8568H51.7525L51.752 123.415ZM79.2041 123.415H59.8414V86.8568H78.3634V90.7308H64.1202V102.892H77.3186V106.768H64.1198V119.539H79.2036L79.2041 123.415ZM108.574 90.7313H98.0502V123.415H93.7696V90.7313H83.2264V86.8555H108.574L108.574 90.7313Z" fill="white"/>
<path d="M50.3012 23.7091C54.4318 36.35 55.9967 58.9002 68.0764 58.9002C68.9959 58.9002 69.9253 58.81 70.8579 58.6323C59.8771 56.0704 58.5754 33.7655 51.8752 22.2148C51.3407 22.7026 50.8163 23.2008 50.3012 23.7091Z" fill="url(#paint0_linear_5536_79680)"/>
<path d="M51.875 22.2181C58.5756 33.7688 59.8769 56.0737 70.8577 58.6356C71.7204 58.4773 72.5849 58.2373 73.4512 57.9347C63.595 53.1027 60.8708 31.4428 53.261 21.0156C52.7913 21.4076 52.3292 21.8087 51.875 22.2186" fill="url(#paint1_linear_5536_79680)"/>
<path d="M61.5281 15.3477C60.6104 15.3477 59.6792 15.4379 58.7448 15.6156C56.3005 16.0766 53.8178 17.1298 51.3145 18.7233C51.9982 19.3985 52.6486 20.1711 53.2607 21.0146C55.8065 18.9006 58.336 17.3386 60.8556 16.3995C61.7753 16.0552 62.7232 15.7915 63.6885 15.6116C62.9822 15.4338 62.2564 15.3451 61.5281 15.3477Z" fill="#14559A"/>
<path d="M81.144 53.4801C82.1941 52.6406 83.2054 51.7537 84.1748 50.8221C79.9775 38.2399 78.4752 15.3672 66.3108 15.3672C65.4409 15.3672 64.5633 15.4484 63.6875 15.6107C74.7679 18.3684 76.1873 42.4919 81.1445 53.4801" fill="url(#paint2_linear_5536_79680)"/>
<path d="M63.6897 15.6111C62.9833 15.4336 62.2576 15.3451 61.5293 15.3477L66.3129 15.3653C65.443 15.3653 64.5654 15.4469 63.6897 15.6111Z" fill="#3092C4"/>
<path d="M80.9329 56.151C80.4574 55.6972 80.0058 55.1993 79.5613 54.668C77.515 56.1176 75.4768 57.2173 73.4512 57.9326C74.1742 58.288 74.9398 58.549 75.7292 58.7093C76.3682 58.8388 77.0186 58.9031 77.6705 58.9014C79.9431 58.9014 81.7406 58.6322 83.2704 57.8979C82.428 57.4423 81.6555 56.8515 80.9329 56.151Z" fill="#1969BC"/>
<path d="M60.8555 16.4005C70.7798 21.5947 71.6425 45.1174 79.5614 54.6686C80.1003 54.2876 80.6279 53.8908 81.1435 53.4788C76.1863 42.4905 74.7688 18.3652 63.6906 15.6094C62.7246 15.7913 61.7761 16.056 60.8555 16.4005Z" fill="url(#paint3_linear_5536_79680)"/>
<path d="M53.2598 21.0121C60.8691 31.4393 63.5938 53.0987 73.45 57.9312C75.476 57.2158 77.5147 56.1162 79.5606 54.6665C71.6416 45.1153 70.7789 21.5926 60.8547 16.3984C58.335 17.3357 55.8055 18.8977 53.2598 21.0117" fill="url(#paint4_linear_5536_79680)"/>
<path d="M45.4309 23.4071C44.2382 26.1057 43.0199 29.6526 41.5469 34.2826C44.4762 30.1528 47.3961 26.5941 50.2997 23.712C49.8999 22.4815 49.4704 21.3472 49.0074 20.3359C47.761 21.2946 46.5672 22.3199 45.4313 23.4075" fill="url(#paint5_linear_5536_79680)"/>
<path d="M50.0663 19.5547C49.7099 19.8085 49.3577 20.068 49.0098 20.3332C49.4727 21.344 49.9004 22.4783 50.3002 23.7088C50.816 23.2014 51.3408 22.7032 51.8742 22.2145C51.3121 21.2479 50.7149 20.3553 50.0663 19.5547Z" fill="#2B74B1"/>
<path d="M51.3139 18.7231C50.8914 18.9918 50.4748 19.2697 50.0645 19.5566C50.7135 20.3572 51.3107 21.2498 51.8746 22.2182C52.328 21.8068 52.7902 21.4053 53.2611 21.0139C52.649 20.1709 51.9981 19.3979 51.3139 18.7227" fill="#125A9E"/>
<path d="M119.009 14.3839C113.396 36.0451 101.672 53.4431 91.8432 57.8295H91.8252C91.6463 57.9107 91.4691 57.9846 91.2942 58.0563C91.2699 58.0712 91.2478 58.073 91.2293 58.0816C91.1779 58.1023 91.1302 58.1186 91.0783 58.1393C91.054 58.1538 91.0324 58.1587 91.0103 58.1673C90.9273 58.1971 90.8462 58.2219 90.7651 58.2543C90.7299 58.2692 90.697 58.2783 90.6637 58.29C90.6238 58.3053 90.5832 58.3186 90.542 58.3297C90.505 58.3441 90.4662 58.3549 90.4239 58.3712C90.3887 58.3856 90.3517 58.3919 90.3188 58.4063C90.2467 58.4271 90.1809 58.4447 90.1088 58.4695C90.079 58.4695 90.0516 58.4857 90.0205 58.4939C89.9758 58.5083 89.9258 58.5187 89.878 58.5322C89.8451 58.5466 89.8176 58.5516 89.7825 58.5588C89.7329 58.5732 89.6774 58.5868 89.6274 58.5985L89.4395 58.64C89.8896 58.8061 90.366 58.8898 90.8457 58.8872C100.166 58.8872 109.563 42.1734 125.112 14.3789H119.007L119.009 14.3839Z" fill="url(#paint6_linear_5536_79680)"/>
<path d="M39.5239 16.224C39.5298 16.224 39.5374 16.2096 39.5406 16.2096C39.5482 16.2096 39.5595 16.2096 39.5631 16.1952H39.5748C39.6262 16.1771 39.674 16.1568 39.7258 16.1374C39.7393 16.1374 39.7461 16.1374 39.7556 16.123C39.7686 16.123 39.7813 16.1081 39.7943 16.1063C39.8493 16.0887 39.9048 16.068 39.9566 16.049H39.9652C40.0887 16.012 40.2031 15.966 40.3226 15.9232C40.3397 15.9232 40.3559 15.9088 40.3762 15.9088C40.4258 15.8925 40.4776 15.8749 40.5295 15.8632C40.5534 15.8483 40.5773 15.8483 40.5993 15.8407C40.6525 15.8249 40.7044 15.8068 40.7539 15.7951C40.7765 15.7951 40.7963 15.7802 40.813 15.7789C40.9843 15.7315 41.1542 15.6873 41.3255 15.6463C41.3494 15.6463 41.3696 15.6314 41.3953 15.63C41.4449 15.6156 41.4914 15.6075 41.545 15.6002C41.5671 15.5858 41.5928 15.5858 41.6185 15.5781C41.668 15.5637 41.7163 15.5619 41.7699 15.5502H41.8046C41.9083 15.529 42.0133 15.5118 42.1165 15.4924H42.1792C42.2288 15.478 42.2729 15.4762 42.323 15.4672C42.35 15.4672 42.3779 15.4528 42.4041 15.4528C42.4501 15.4528 42.496 15.4379 42.542 15.432C42.5664 15.432 42.5898 15.432 42.6177 15.4171C42.7264 15.4027 42.8386 15.3968 42.9531 15.3878C42.6236 15.3547 42.2926 15.3373 41.9615 15.3359C31.4656 15.3359 17.0043 34.8241 10.4902 60.0616H11.7455C13.8302 56.3414 15.703 52.8219 17.4158 49.5181C21.9777 31.642 31.27 19.4512 39.5243 16.2213" fill="url(#paint7_linear_5536_79680)"/>
<path d="M45.4316 23.4063C46.5675 22.3187 47.7613 21.2933 49.0078 20.3347C48.7542 19.7704 48.4698 19.2205 48.1559 18.6875C47.1958 19.8534 46.3182 21.3919 45.4316 23.4063Z" fill="#0D82CA"/>
<path d="M46.2951 16.3728C46.9806 16.9483 47.5945 17.7394 48.1566 18.688C48.3338 18.4701 48.5127 18.269 48.6988 18.0809C47.9191 17.3525 47.0762 16.7548 46.1621 16.3047C46.1991 16.325 46.236 16.3417 46.2743 16.3579C46.2743 16.3579 46.2888 16.3728 46.2951 16.3728Z" fill="#0D82CA"/>
<path d="M17.4141 49.5198C26.985 31.0646 31.5194 19.3845 39.5231 16.2227C31.2706 19.4548 21.9764 31.6455 17.4145 49.5198" fill="url(#paint8_linear_5536_79680)"/>
<path d="M48.698 18.082C48.5119 18.2719 48.3352 18.4713 48.1562 18.6891C48.4703 19.2222 48.7553 19.7719 49.0099 20.3359C49.3578 20.0709 49.7098 19.8115 50.066 19.5578C49.645 19.0345 49.1879 18.5414 48.698 18.082Z" fill="#127BCA"/>
<path d="M21.7593 59.9814C21.7003 59.9963 21.6412 59.9963 21.5858 60.0022H21.5529C21.5029 60.0022 21.451 60.017 21.4051 60.017H21.3812C21.2613 60.0315 21.1432 60.0315 21.0291 60.0405H20.9922C30.6789 59.7694 35.1065 54.9162 37.3043 47.8773C38.9743 42.541 40.3454 38.0455 41.5475 34.2734C37.49 39.9881 33.4144 46.8002 29.3168 54.4314C27.3408 58.1091 24.3362 59.6454 21.7589 59.9746" fill="url(#paint9_linear_5536_79680)"/>
<path d="M21.7602 59.979C24.3371 59.6507 27.3417 58.1162 29.3177 54.4358C33.4153 46.8068 37.4931 39.993 41.5461 34.2783C43.0209 29.6461 44.2379 26.1009 45.4324 23.4023C37.353 31.098 29.242 43.894 21.7598 59.9754" fill="url(#paint10_linear_5536_79680)"/>
<path d="M17.4144 49.5234C15.7016 52.8269 13.8288 56.3463 11.7441 60.067H15.3955C15.8567 56.5157 16.5308 52.9955 17.4144 49.5252" fill="#05A1E6"/>
<path d="M42.6176 15.4292C42.5878 15.4292 42.5658 15.4437 42.5401 15.4437C42.4959 15.4586 42.4499 15.4586 42.4035 15.4631C42.3764 15.4631 42.3503 15.4631 42.3224 15.478C42.2728 15.4924 42.2268 15.4937 42.1786 15.5032C42.1565 15.5032 42.1344 15.5032 42.1159 15.5176C42.0109 15.5352 41.9077 15.5546 41.8049 15.5722H41.7698C41.7161 15.5871 41.6679 15.5948 41.6183 15.602C41.5926 15.6164 41.5669 15.6164 41.5426 15.6223C41.493 15.6372 41.4434 15.643 41.3952 15.6521C41.3695 15.6665 41.3492 15.6665 41.3253 15.6678C41.154 15.7093 40.9841 15.7535 40.8128 15.8009C40.7948 15.8009 40.7759 15.8153 40.7538 15.8185C40.7024 15.8329 40.6524 15.8478 40.5987 15.864C40.5767 15.8789 40.551 15.8789 40.5289 15.8848C40.4775 15.899 40.4264 15.9142 40.3756 15.9304C40.3558 15.9304 40.3391 15.9448 40.3206 15.9448C40.2025 15.989 40.0863 16.0336 39.9646 16.0702C39.9132 16.0864 39.8577 16.1072 39.8023 16.1266C39.7802 16.141 39.7604 16.1446 39.7347 16.1545C39.6828 16.1708 39.631 16.1915 39.5832 16.2104C39.5652 16.2253 39.5463 16.2267 39.5337 16.2344C31.5299 19.3961 26.9951 31.0758 17.4246 49.5311C16.5403 53.0013 15.8663 56.5217 15.4062 60.0733H15.9187C17.362 60.0733 17.7695 60.0584 19.43 60.0584H21.0395C21.1536 60.0439 21.2717 60.0439 21.3911 60.0345H21.4136C21.4632 60.0345 21.5128 60.02 21.561 60.02H21.5962C21.6494 60.02 21.7102 60.0056 21.7693 59.9993C29.2515 43.9179 37.362 31.1219 45.4419 23.4262C46.3298 21.4123 47.2056 19.8738 48.1643 18.7097C47.6036 17.7616 46.9897 16.9686 46.3041 16.3931C45.6186 15.8176 46.2857 16.3931 46.2843 16.3782C46.2451 16.3624 46.2086 16.3431 46.1698 16.3241C46.1311 16.3029 46.0977 16.2867 46.0571 16.2664C46.0195 16.2505 45.9826 16.2327 45.9467 16.2132C45.8989 16.1983 45.8602 16.1775 45.8178 16.1586C45.7826 16.1437 45.7515 16.1288 45.7164 16.1144C45.645 16.0866 45.5744 16.057 45.5045 16.0255C45.473 16.0111 45.4437 16.003 45.4144 15.9917C45.3608 15.9722 45.3077 15.9511 45.2553 15.9285C45.2296 15.9137 45.2003 15.9105 45.1705 15.9001C45.0953 15.8749 45.0214 15.8483 44.9515 15.8248H44.933C44.8483 15.7968 44.7653 15.7761 44.6788 15.7526C44.6585 15.7378 44.6418 15.7378 44.6216 15.7346C44.5458 15.7143 44.4796 15.694 44.4079 15.6746C44.3899 15.6746 44.3727 15.6597 44.3583 15.6597C44.182 15.6145 44.0042 15.5757 43.8251 15.5434C43.8071 15.5434 43.7886 15.5285 43.7701 15.5285C43.6938 15.5133 43.617 15.501 43.5398 15.4915C43.5209 15.4771 43.51 15.4771 43.4938 15.4771C43.403 15.4631 43.312 15.4513 43.2207 15.4414H43.1729C43.099 15.427 43.0309 15.4256 42.9628 15.418C42.8466 15.4324 42.7361 15.4387 42.6271 15.4491" fill="url(#paint11_linear_5536_79680)"/>
<path d="M97.0835 26.3762C95.2423 32.279 93.7508 37.1484 92.4531 41.155C97.5059 34.1973 102.483 25.4444 107.222 15.3438C101.694 17.0812 98.7445 21.0584 97.0835 26.3762Z" fill="url(#paint12_linear_5536_79680)"/>
<path d="M92.6145 57.4595C92.3567 57.5912 92.0984 57.7161 91.8438 57.8284C101.673 53.442 113.397 36.044 119.01 14.3828H117.872C104.976 37.4346 100.829 52.8665 92.6145 57.4595Z" fill="url(#paint13_linear_5536_79680)"/>
<path d="M86.1957 55.526C88.334 52.914 90.0761 48.4739 92.4541 41.1562C89.711 44.927 86.9498 48.1677 84.1863 50.8112C84.1863 50.8257 84.1863 50.8257 84.1719 50.8347C84.775 52.6425 85.4366 54.2378 86.1903 55.5255" fill="#079AE1"/>
<path d="M86.1966 55.5234C85.4687 56.412 84.6979 57.0895 83.8411 57.591C83.6527 57.7002 83.4629 57.803 83.2695 57.8977C84.1996 58.4017 85.2175 58.7228 86.2683 58.8435C86.4305 58.8598 86.591 58.8747 86.7587 58.8864H86.7884C86.8637 58.8864 86.9435 58.8864 87.0246 58.9008H87.8242C87.8535 58.9008 87.8842 58.9008 87.9139 58.8864C87.9712 58.8864 88.032 58.8864 88.0906 58.8715H88.178C88.2384 58.8715 88.3047 58.8571 88.3696 58.8508H88.3845C88.4034 58.8508 88.4241 58.8363 88.4431 58.8363C88.5107 58.8214 88.5819 58.8156 88.6482 58.8052H88.7086C88.7834 58.7908 88.8614 58.7813 88.9384 58.7669H88.9758C89.1304 58.7371 89.2814 58.7082 89.4347 58.6694C88.1663 58.2049 87.1044 57.1088 86.1903 55.5482" fill="#1969BC"/>
<path d="M68.0762 58.902C68.9961 58.902 69.9251 58.8118 70.8581 58.6327C71.7208 58.4762 72.5853 58.2358 73.4516 57.9336C74.1741 58.2886 74.9391 58.5497 75.7279 58.7103C76.3674 58.8396 77.0185 58.9038 77.671 58.902H68.0762Z" fill="#1E5CB3"/>
<path d="M77.6704 58.902C79.9416 58.902 81.7405 58.6327 83.2685 57.8984C84.1987 58.4027 85.2167 58.7241 86.2677 58.8452C86.43 58.861 86.5904 58.8758 86.7581 58.8876H86.7878C86.8631 58.8876 86.9429 58.8876 87.024 58.9025H87.2994H77.6641L77.6704 58.902Z" fill="#1E5CB3"/>
<path d="M87.3047 58.9003H87.8302C87.8618 58.9003 87.8906 58.9003 87.9204 58.8858C87.9776 58.8858 88.0385 58.8858 88.0993 58.8709H88.1863C88.2467 58.8709 88.313 58.8565 88.3761 58.8506H88.3923C88.4117 58.8506 88.4306 58.8362 88.45 58.8362C88.5176 58.8213 88.5884 58.8155 88.6546 58.8046C88.6767 58.8046 88.6943 58.8046 88.7177 58.7902C88.793 58.7758 88.871 58.7681 88.9485 58.7537H88.9855C89.1401 58.7239 89.2911 58.6946 89.4443 58.6562C89.8945 58.8223 90.3708 58.906 90.8506 58.9034L87.3078 58.9179L87.3047 58.9003Z" fill="#1D60B5"/>
<path d="M84.1782 50.8352V50.8203C83.209 51.7519 82.1978 52.6388 81.1479 53.4783C80.6315 53.8899 80.1034 54.2866 79.5645 54.6681C80.0084 55.1995 80.4605 55.6974 80.936 56.1516C81.6586 56.8521 82.4307 57.4425 83.2731 57.898C83.4651 57.8033 83.6567 57.7005 83.8428 57.5918C84.7019 57.0902 85.4722 56.4132 86.2002 55.5242C85.4465 54.2365 84.7849 52.6412 84.1818 50.8334" fill="#175FAB"/>
<path d="M114.27 14.3828H108.545C108.236 14.3977 107.935 14.4081 107.639 14.427C107.498 14.7279 107.355 15.0287 107.216 15.3314C102.477 25.432 97.5002 34.1849 92.4475 41.1426C90.0712 48.4598 88.3277 52.8999 86.1895 55.5119C87.1035 57.0725 88.1673 58.1698 89.4316 58.6349C89.4685 58.62 89.4983 58.62 89.5312 58.6123H89.5519C89.574 58.6123 89.5979 58.5979 89.6218 58.5979C89.6732 58.583 89.7286 58.574 89.7805 58.5582C89.8134 58.5433 89.8409 58.542 89.8742 58.5311C89.9224 58.5167 89.972 58.5063 90.0162 58.4946C90.0459 58.4797 90.0752 58.4752 90.1045 58.4693C90.1785 58.4454 90.2447 58.4278 90.315 58.4057C90.3479 58.3913 90.3831 58.3787 90.4201 58.3701C90.4606 58.3557 90.5012 58.3453 90.5381 58.3277C90.5805 58.3128 90.6229 58.3052 90.6598 58.2894C90.6927 58.2745 90.7275 58.2655 90.759 58.2524C90.8419 58.2226 90.9231 58.1978 91.006 58.1653C91.0285 58.1653 91.0506 58.1446 91.0745 58.1401C91.1241 58.1193 91.1759 58.1031 91.2255 58.081C91.2435 58.0661 91.2661 58.0648 91.29 58.0571C91.4635 57.9849 91.642 57.9109 91.8209 57.8302H91.8394C92.0992 57.7145 92.3556 57.5915 92.6084 57.4613C100.824 52.8683 104.972 37.4364 117.868 14.3846H114.266L114.27 14.3828Z" fill="url(#paint14_linear_5536_79680)"/>
<path d="M42.9536 15.395C42.9739 15.395 42.9919 15.395 43.0122 15.4094C43.0618 15.4094 43.1113 15.4094 43.1614 15.4257H43.2109C43.3015 15.4401 43.3921 15.4482 43.4841 15.4613C43.5008 15.4613 43.5156 15.4613 43.5301 15.4757C43.6058 15.4902 43.6833 15.5028 43.7604 15.5141C43.7775 15.5141 43.7992 15.5289 43.8176 15.5289C43.9948 15.5641 44.1755 15.6011 44.3486 15.6467C44.3653 15.6467 44.382 15.6616 44.3964 15.6616C44.4703 15.6791 44.5366 15.7012 44.6105 15.722C44.633 15.722 44.6492 15.7364 44.6691 15.74C44.7561 15.7621 44.8372 15.7842 44.9219 15.8122C44.9255 15.8122 44.9309 15.8122 44.9404 15.8266C45.0125 15.8487 45.086 15.8767 45.1617 15.902C45.1915 15.9164 45.219 15.9227 45.2465 15.9299C45.2983 15.9525 45.3555 15.9741 45.4051 15.9949C45.4349 15.9949 45.4637 16.0156 45.4953 16.0264C45.5633 16.0571 45.635 16.0851 45.7053 16.1144C45.7423 16.1293 45.7734 16.146 45.809 16.1591C45.8495 16.1798 45.8915 16.1987 45.9356 16.2132C45.9726 16.2312 46.0132 16.2502 46.0483 16.2664C46.0871 16.2876 46.1236 16.3034 46.161 16.3241C47.0751 16.7743 47.9175 17.3737 48.6973 18.1008C48.9765 17.8066 49.2771 17.5334 49.5965 17.2835C47.8914 16.0729 45.96 15.3828 43.7311 15.3828C43.4733 15.3828 43.215 15.3977 42.9531 15.4171" fill="#7DCBEC"/>
<path d="M48.6977 18.0795C49.1876 18.5388 49.6447 19.032 50.0657 19.5553C50.4756 19.2674 50.8922 18.9891 51.3151 18.7208C50.7845 18.1862 50.2091 17.6981 49.5951 17.2617C49.2757 17.5111 48.9756 17.7844 48.6973 18.079" fill="#5EC5ED"/>
<path d="M42.953 15.3983C43.2144 15.3762 43.4727 15.3667 43.731 15.3667C45.9594 15.3667 47.8913 16.0568 49.5964 17.2656C51.3957 15.8448 53.5705 15.3487 56.5918 15.3487H41.9609C42.299 15.3487 42.6285 15.369 42.953 15.3983Z" fill="url(#paint15_linear_5536_79680)"/>
<path d="M56.5911 15.3471C53.5698 15.3471 51.395 15.8432 49.5957 17.264C50.2087 17.7007 50.7835 18.1886 51.3139 18.7227C53.8186 17.1291 56.2999 16.0737 58.7465 15.6127C59.6633 15.4383 60.5943 15.3493 61.5276 15.3471H56.5911Z" fill="url(#paint16_linear_5536_79680)"/>
<path d="M92.4531 41.1563C93.7526 37.1465 95.2404 32.2784 97.0853 26.3738C98.7485 21.0538 101.692 17.077 107.22 15.3414C107.366 15.0441 107.504 14.7379 107.646 14.4375C98.634 14.9778 94.4219 19.5654 92.3021 26.359C88.5952 38.2195 86.3497 45.908 84.1875 50.8072C86.9492 48.1659 89.7104 44.9229 92.4531 41.1563Z" fill="url(#paint17_linear_5536_79680)"/>
<path d="M105.676 55.7417H104.655V58.9184H104.238V55.7417H103.213V55.3637H105.676L105.676 55.7417ZM109.858 58.9175H109.443V56.5306C109.443 56.3425 109.457 56.112 109.477 55.8405C109.434 56.0029 109.399 56.1156 109.366 56.1878L108.157 58.9175H107.954L106.742 56.2081C106.706 56.1328 106.67 56.0105 106.632 55.8409H106.618C106.632 55.9839 106.637 56.2153 106.637 56.5364V58.9179H106.239V55.3633H106.789L107.878 57.844C107.96 58.0303 108.012 58.1742 108.038 58.2702H108.054C108.126 58.0745 108.185 57.9288 108.226 57.8327L109.337 55.3633H109.86V58.9175H109.858Z" fill="white"/>
</g>
<defs>
<linearGradient id="paint0_linear_5536_79680" x1="2775.07" y1="-1946.08" x2="2775.07" y2="13095.6" gradientUnits="userSpaceOnUse">
<stop stop-color="#0994DC"/>
<stop offset="0.35" stop-color="#66CEF5"/>
<stop offset="0.846" stop-color="#127BCA"/>
<stop offset="1" stop-color="#127BCA"/>
</linearGradient>
<linearGradient id="paint1_linear_5536_79680" x1="2911.95" y1="-1997.42" x2="2911.95" y2="13427.3" gradientUnits="userSpaceOnUse">
<stop stop-color="#0E76BC"/>
<stop offset="0.36" stop-color="#36AEE8"/>
<stop offset="0.846" stop-color="#00ADEF"/>
<stop offset="1" stop-color="#00ADEF"/>
</linearGradient>
<linearGradient id="paint2_linear_5536_79680" x1="2779.3" y1="11637.8" x2="2779.3" y2="-635.736" gradientUnits="userSpaceOnUse">
<stop stop-color="#1C63B7"/>
<stop offset="0.5" stop-color="#33BDF2"/>
<stop offset="1" stop-color="#33BDF2" stop-opacity="0.42"/>
</linearGradient>
<linearGradient id="paint3_linear_5536_79680" x1="2750.17" y1="-2079.94" x2="2750.17" y2="13935.2" gradientUnits="userSpaceOnUse">
<stop stop-color="#166AB8"/>
<stop offset="0.4" stop-color="#36AEE8"/>
<stop offset="0.846" stop-color="#0798DD"/>
<stop offset="1" stop-color="#0798DD"/>
</linearGradient>
<linearGradient id="paint4_linear_5536_79680" x1="3539.47" y1="-2212.54" x2="3539.47" y2="14817.4" gradientUnits="userSpaceOnUse">
<stop stop-color="#124379"/>
<stop offset="0.39" stop-color="#1487CB"/>
<stop offset="0.78" stop-color="#165197"/>
<stop offset="1" stop-color="#165197"/>
</linearGradient>
<linearGradient id="paint5_linear_5536_79680" x1="41.5469" y1="1937.48" x2="50.2997" y2="1937.48" gradientUnits="userSpaceOnUse">
<stop stop-color="#33BDF2" stop-opacity="0.698"/>
<stop offset="1" stop-color="#1DACD8"/>
</linearGradient>
<linearGradient id="paint6_linear_5536_79680" x1="4818.92" y1="11600.4" x2="4818.92" y2="-355.767" gradientUnits="userSpaceOnUse">
<stop stop-color="#136AB4"/>
<stop offset="0.6" stop-color="#59CAF5" stop-opacity="0.549"/>
<stop offset="1" stop-color="#59CAF5" stop-opacity="0.235"/>
</linearGradient>
<linearGradient id="paint7_linear_5536_79680" x1="10.4042" y1="6163.32" x2="8616.56" y2="6163.32" gradientUnits="userSpaceOnUse">
<stop stop-color="#05A1E6" stop-opacity="0.247"/>
<stop offset="1" stop-color="#05A1E6"/>
</linearGradient>
<linearGradient id="paint8_linear_5536_79680" x1="2947.93" y1="11396" x2="2947.93" y2="-846.181" gradientUnits="userSpaceOnUse">
<stop stop-color="#318ED5"/>
<stop offset="1" stop-color="#38A7E4"/>
</linearGradient>
<linearGradient id="paint9_linear_5536_79680" x1="2745.63" y1="6494.76" x2="2745.63" y2="-5405.08" gradientUnits="userSpaceOnUse">
<stop stop-color="#05A1E6"/>
<stop offset="1" stop-color="#05A1E6" stop-opacity="0.549"/>
</linearGradient>
<linearGradient id="paint10_linear_5536_79680" x1="3159.66" y1="10080.1" x2="3159.66" y2="24.4081" gradientUnits="userSpaceOnUse">
<stop stop-color="#1959A6"/>
<stop offset="0.5" stop-color="#05A1E6"/>
<stop offset="0.918" stop-color="#7EC5EA"/>
<stop offset="1" stop-color="#7EC5EA"/>
</linearGradient>
<linearGradient id="paint11_linear_5536_79680" x1="5209.04" y1="11625.2" x2="1910.48" y2="1178.49" gradientUnits="userSpaceOnUse">
<stop stop-color="#165096"/>
<stop offset="1" stop-color="#0D82CA"/>
</linearGradient>
<linearGradient id="paint12_linear_5536_79680" x1="2049.98" y1="5479.14" x2="2049.98" y2="-218.754" gradientUnits="userSpaceOnUse">
<stop stop-color="#05A1E6"/>
<stop offset="0.874" stop-color="#0495D6"/>
<stop offset="1" stop-color="#0495D6"/>
</linearGradient>
<linearGradient id="paint13_linear_5536_79680" x1="4792" y1="-482.609" x2="-365.732" y2="11385.2" gradientUnits="userSpaceOnUse">
<stop stop-color="#38A7E4" stop-opacity="0.329"/>
<stop offset="0.962" stop-color="#0E88D3"/>
<stop offset="1" stop-color="#0E88D3"/>
</linearGradient>
<linearGradient id="paint14_linear_5536_79680" x1="4286.68" y1="-21.6279" x2="4286.68" y2="12409.1" gradientUnits="userSpaceOnUse">
<stop stop-color="#168CD4"/>
<stop offset="0.5" stop-color="#1C87CC"/>
<stop offset="1" stop-color="#154B8D"/>
</linearGradient>
<linearGradient id="paint15_linear_5536_79680" x1="688.705" y1="-1066.06" x2="740.376" y2="229.769" gradientUnits="userSpaceOnUse">
<stop stop-color="#97D6EE"/>
<stop offset="0.703" stop-color="#55C1EA"/>
<stop offset="1" stop-color="#55C1EA"/>
</linearGradient>
<linearGradient id="paint16_linear_5536_79680" x1="267.542" y1="-39.7424" x2="498.356" y2="-1396.42" gradientUnits="userSpaceOnUse">
<stop stop-color="#7ACCEC"/>
<stop offset="1" stop-color="#3FB7ED"/>
</linearGradient>
<linearGradient id="paint17_linear_5536_79680" x1="3193.52" y1="650.657" x2="3193.52" y2="12808.9" gradientUnits="userSpaceOnUse">
<stop stop-color="#1DA7E7"/>
<stop offset="1" stop-color="#37ABE7" stop-opacity="0"/>
</linearGradient>
<clipPath id="clip0_5536_79680">
<rect width="130" height="124" fill="white"/>
</clipPath>
</defs>
</svg>
