<svg width="114" height="102" viewBox="0 0 114 102" fill="none" xmlns="http://www.w3.org/2000/svg">
<g opacity="0.3" clip-path="url(#clip0_5536_79775)">
<path d="M57.9436 0.0958379C57.6772 0.120054 56.8296 0.204812 56.0668 0.265353C38.4736 1.85153 21.9943 11.3443 11.5571 25.9347C5.74515 34.0472 2.02793 43.2494 0.623383 52.9965C0.126947 56.3989 0.0664062 57.4039 0.0664062 62.0171C0.0664062 66.6304 0.126947 67.6353 0.623383 71.0377C3.98946 94.2976 20.5414 113.84 42.9899 121.081C47.0099 122.376 51.2477 123.26 56.0668 123.793C57.9436 123.999 66.0561 123.999 67.9328 123.793C76.2512 122.873 83.2981 120.815 90.2482 117.267C91.3137 116.722 91.5196 116.577 91.3743 116.456C91.2774 116.383 86.7368 110.293 81.2882 102.931L71.3837 89.5512L58.9728 71.183C52.1437 61.0848 46.5255 52.827 46.4771 52.827C46.4287 52.8149 46.3802 60.9758 46.356 70.9409C46.3197 88.3888 46.3076 89.0911 46.0896 89.5027C45.7748 90.096 45.5327 90.3382 45.0241 90.6046C44.6367 90.7983 44.2976 90.8346 42.4693 90.8346H40.3746L39.8176 90.4835C39.4544 90.2534 39.188 89.9507 39.0064 89.5996L38.7521 89.0547L38.7763 64.7778L38.8126 40.4888L39.188 40.0165C39.3817 39.7623 39.7934 39.4354 40.084 39.278C40.5804 39.0358 40.7741 39.0116 42.8689 39.0116C45.3389 39.0116 45.7506 39.1084 46.3923 39.8107C46.574 40.0044 53.294 50.1269 61.3339 62.3198C69.3737 74.5128 80.3679 91.1616 85.7682 99.3346L95.5758 114.191L96.0723 113.864C100.468 111.007 105.117 106.939 108.798 102.701C116.632 93.7043 121.681 82.7343 123.376 71.0377C123.873 67.6353 123.933 66.6304 123.933 62.0171C123.933 57.4039 123.873 56.3989 123.376 52.9965C120.01 29.7367 103.458 10.1941 81.0097 2.95337C77.0503 1.6699 72.8366 0.786005 68.1144 0.253244C66.9521 0.132162 58.9485 -0.00102764 57.9436 0.0958379ZM83.2981 37.5586C83.8793 37.8492 84.3515 38.4062 84.521 38.9874C84.6179 39.3022 84.6421 46.0343 84.6179 61.2059L84.5816 82.9764L80.7433 77.0918L76.8929 71.2073V55.3818C76.8929 45.1504 76.9413 39.399 77.014 39.1205C77.2077 38.4425 77.6315 37.9097 78.2127 37.5949C78.7091 37.3406 78.8907 37.3164 80.7917 37.3164C82.5837 37.3164 82.8986 37.3406 83.2981 37.5586Z" fill="white"/>
</g>
<defs>
<clipPath id="clip0_5536_79775">
<rect width="124" height="124" fill="white"/>
</clipPath>
</defs>
</svg>
