<svg width="103" height="124" viewBox="0 0 103 124" fill="none" xmlns="http://www.w3.org/2000/svg">
<g opacity="0.3" clip-path="url(#clip0_5536_79760)">
<path d="M51.4138 1.57498C54.4862 -0.177285 58.488 -0.1852 61.5578 1.57498C77.0014 10.2699 92.4499 18.9513 107.891 27.6515C110.795 29.2815 112.738 32.502 112.708 35.8364V88.1485C112.73 91.621 110.595 94.9184 107.531 96.5115C92.1383 105.159 76.7534 113.816 61.3631 122.463C58.2272 124.25 54.1451 124.112 51.1071 122.179C46.4923 119.513 41.8696 116.861 37.2544 114.198C36.3113 113.638 35.2482 113.192 34.5822 112.281C35.171 111.49 36.2235 111.392 37.0787 111.047C39.0051 110.436 40.7743 109.457 42.5439 108.506C42.9914 108.201 43.5377 108.318 43.9667 108.591C47.9129 110.845 51.8242 113.165 55.7836 115.398C56.6283 115.884 57.4836 115.239 58.2056 114.838C73.3107 106.332 88.4344 97.8575 103.537 89.3485C104.096 89.0803 104.406 88.4884 104.36 87.8777C104.371 70.621 104.363 53.3613 104.366 36.1046C104.43 35.4116 104.027 34.7744 103.398 34.4908C88.0588 25.8834 72.7273 17.2627 57.3905 8.6531C57.1247 8.47108 56.81 8.37341 56.4875 8.37294C56.1651 8.37247 55.85 8.46922 55.5837 8.65046C40.2469 17.2627 24.918 25.8913 9.58117 34.4983C8.95451 34.7824 8.53394 35.409 8.60852 36.1046C8.61117 53.3613 8.60852 70.621 8.60852 87.8803C8.58193 88.1783 8.64762 88.4773 8.79674 88.737C8.94587 88.9966 9.17127 89.2045 9.4426 89.3327C13.5353 91.6452 17.6333 93.9414 21.7287 96.2459C24.0358 97.4833 26.8686 98.2185 29.4105 97.2705C31.6537 96.4688 33.2261 94.188 33.1833 91.8149C33.2045 74.6589 33.1727 57.5003 33.1992 40.347C33.1431 39.5854 33.8682 38.9562 34.6114 39.0278C36.5779 39.0146 38.547 39.0014 40.5135 39.0331C41.3343 39.0146 41.8992 39.8347 41.7977 40.602C41.7897 57.8666 41.8188 75.1316 41.7844 92.3962C41.7897 96.9974 39.8925 102.004 35.6211 104.255C30.3589 106.971 23.8549 106.395 18.6563 103.791C14.1558 101.553 9.86096 98.9115 5.44036 96.5137C2.3684 94.9294 0.244381 91.6188 0.266005 88.149V35.8364C0.233789 32.433 2.25366 29.154 5.24839 27.5477C20.6386 18.8937 36.0262 10.233 51.4138 1.57498Z" fill="#8CC84B"/>
<path d="M64.8411 37.8111C71.5534 37.3807 78.7392 37.5561 84.7794 40.8509C89.456 43.3757 92.0487 48.6748 92.1312 53.8516C92.0006 54.5498 91.268 54.935 90.599 54.8871C88.6515 54.8844 86.7035 54.9135 84.756 54.8739C83.9299 54.9056 83.4498 54.1466 83.3461 53.4189C82.7865 50.9419 81.4308 48.4888 79.0909 47.2941C75.4991 45.5022 71.3345 45.5924 67.4179 45.6297C64.5586 45.781 61.484 46.0277 59.0617 47.703C57.202 48.972 56.6371 51.5338 57.3008 53.597C57.9266 55.0784 59.6429 55.5563 61.0471 55.9969C69.1363 58.1049 77.7083 57.8952 85.6431 60.6694C88.9282 61.8003 92.1418 63.9989 93.2663 67.426C94.7371 72.0193 94.0924 77.5096 90.8126 81.1971C88.1528 84.2316 84.279 85.8831 80.4153 86.7801C75.2754 87.9221 69.9413 87.9511 64.7215 87.4441C59.8132 86.8866 54.7055 85.6017 50.9164 82.2695C47.6763 79.4663 46.0938 75.0986 46.2509 70.8831C46.2884 70.1712 46.9998 69.6747 47.6843 69.7332C49.6454 69.7174 51.6066 69.7121 53.5678 69.7359C54.3511 69.68 54.9319 70.3545 54.972 71.0902C55.3339 73.4501 56.224 75.9271 58.2894 77.3262C62.2753 79.8885 67.2766 79.713 71.8407 79.7847C75.6218 79.6176 79.8663 79.567 82.952 77.0769C84.58 75.6566 85.0623 73.2804 84.6223 71.2362C84.1457 69.5103 82.3337 68.706 80.7776 68.1801C72.7921 65.6632 64.1244 66.5765 56.2161 63.7302C53.0056 62.5997 49.901 60.4622 48.6675 57.1758C46.9464 52.5245 47.735 46.7712 51.3586 43.2082C54.8917 39.6641 59.9919 38.2997 64.8411 37.8111Z" fill="#8CC84B"/>
</g>
<defs>
<clipPath id="clip0_5536_79760">
<rect width="113" height="124" fill="white"/>
</clipPath>
</defs>
</svg>
