<svg width="40" height="40" viewBox="0 0 40 40" fill="none" xmlns="http://www.w3.org/2000/svg">
<path d="M19.9141 38.9746C19.4059 38.9746 18.9012 38.8413 18.4557 38.5847L13.8133 35.8363C13.12 35.4486 13.4583 35.3114 13.687 35.2324C14.6115 34.9087 14.7991 34.8356 15.7859 34.2752C15.8896 34.216 16.0254 34.2369 16.1316 34.2996L19.698 36.4159C19.8268 36.4855 20.0095 36.4855 20.1289 36.4159L34.0346 28.3892C34.1634 28.3161 34.2469 28.1664 34.2469 28.0133V11.9669C34.2469 11.8067 34.1634 11.664 34.0318 11.584L20.1317 3.56424C20.0029 3.48766 19.8323 3.48766 19.7035 3.56424L5.80615 11.584C5.67145 11.6605 5.58582 11.8102 5.58582 11.9634V28.0098C5.58582 28.1629 5.66936 28.3091 5.80163 28.3822L9.60961 30.5821C11.6772 31.6159 12.9407 30.3976 12.9407 29.1724V13.3348C12.9407 13.1085 13.1182 12.9345 13.3445 12.9345H15.1058C15.3251 12.9345 15.5061 13.1085 15.5061 13.3348V29.1793C15.5061 31.9361 14.0024 33.5199 11.3883 33.5199C10.5842 33.5199 9.95072 33.5199 8.18248 32.6497L4.53462 30.5473C3.6331 30.0252 3.07617 29.0505 3.07617 28.0098V11.9634C3.07617 10.9191 3.6331 9.94451 4.53462 9.42936L18.4543 1.39919C19.3349 0.901441 20.5045 0.901441 21.3781 1.39919L35.2804 9.43284C36.1784 9.95148 36.7388 10.9226 36.7388 11.9669V28.0133C36.7388 29.054 36.1784 30.0252 35.2804 30.5473L21.3781 38.5774C20.9326 38.835 20.4279 38.9673 19.9127 38.9673" fill="#689F63"/>
<path d="M24.2097 27.9171C18.1253 27.9171 16.8496 25.1241 16.8496 22.7816C16.8496 22.5588 17.0292 22.3813 17.2523 22.3813H19.0484C19.2468 22.3813 19.4139 22.5257 19.4452 22.7217C19.7167 24.5519 20.5243 25.475 24.2035 25.475C27.1343 25.475 28.3804 24.813 28.3804 23.2588C28.3804 22.3642 28.0254 21.6994 23.4725 21.2539C19.6645 20.8779 17.3115 20.0391 17.3115 16.9934C17.3115 14.1879 19.6784 12.5171 23.6431 12.5171C28.095 12.5171 30.3018 14.0626 30.5803 17.3832C30.5907 17.4981 30.5489 17.6095 30.4724 17.693C30.3958 17.7731 30.2879 17.8218 30.1765 17.8218H28.37C28.182 17.8218 28.0184 17.6895 27.9801 17.5085C27.545 15.5837 26.4938 14.9676 23.6361 14.9676C20.4373 14.9676 20.0648 16.0814 20.0648 16.9168C20.0648 17.9297 20.5034 18.2256 24.8196 18.7964C29.094 19.3638 31.1233 20.1644 31.1233 23.1683C31.1233 26.1966 28.5962 27.9335 24.1895 27.9335" fill="#689F63"/>
</svg>
