<svg width="40" height="40" viewBox="0 0 40 40" fill="none" xmlns="http://www.w3.org/2000/svg">
<path d="M21.1296 33.2596C21.5875 33.3662 21.6294 33.9659 21.1834 34.1146L18.5501 34.9812C11.9334 37.1146 8.45008 35.3312 6.30008 28.7146L4.16675 22.1312C2.03341 15.5146 3.80008 12.0146 10.4167 9.88125L11.9674 9.36772C12.3703 9.2343 12.7554 9.63565 12.6275 10.0403C12.4574 10.5783 12.3007 11.1586 12.1501 11.7812L10.5167 18.7646C8.68341 26.6146 11.3667 30.9479 19.2167 32.8146L21.1296 33.2596Z" fill="#9B9B9B"/>
<path d="M28.6166 5.35278L25.8333 4.70278C20.2666 3.38611 16.95 4.46945 15 8.50278C14.5 9.51945 14.1 10.7528 13.7666 12.1694L12.1333 19.1528C10.5 26.1194 12.65 29.5528 19.6 31.2028L22.4 31.8694C23.3666 32.1028 24.2666 32.2528 25.1 32.3194C30.3 32.8194 33.0666 30.3861 34.4666 24.3694L36.1 17.4028C37.7333 10.4361 35.6 6.98611 28.6166 5.35278ZM25.4833 22.2194C25.3333 22.7861 24.8333 23.1528 24.2666 23.1528C24.1666 23.1528 24.0666 23.1361 23.95 23.1194L19.1 21.8861C18.4333 21.7194 18.0333 21.0361 18.2 20.3694C18.3666 19.7028 19.05 19.3028 19.7166 19.4694L24.5666 20.7028C25.25 20.8694 25.65 21.5528 25.4833 22.2194ZM30.3666 16.5861C30.2166 17.1528 29.7166 17.5194 29.15 17.5194C29.05 17.5194 28.95 17.5028 28.8333 17.4861L20.75 15.4361C20.0833 15.2694 19.6833 14.5861 19.85 13.9194C20.0166 13.2528 20.7 12.8528 21.3666 13.0194L29.45 15.0694C30.1333 15.2194 30.5333 15.9028 30.3666 16.5861Z" fill="#9B9B9B"/>
</svg>
