<svg width="40" height="40" viewBox="0 0 40 40" fill="none" xmlns="http://www.w3.org/2000/svg">
<path d="M26.6663 7.08203C26.6663 9.1487 24.983 10.832 22.9163 10.832H17.083C16.0497 10.832 15.1163 10.4154 14.433 9.73203C13.7497 9.0487 13.333 8.11536 13.333 7.08203C13.333 5.01536 15.0163 3.33203 17.083 3.33203H22.9163C23.9497 3.33203 24.883 3.7487 25.5663 4.43203C26.2497 5.11536 26.6663 6.0487 26.6663 7.08203Z" fill="#9B9B9B"/>
<path d="M31.3837 8.38254C31.0003 8.06587 30.567 7.81587 30.1003 7.63254C29.617 7.44921 29.1337 7.83254 29.0337 8.33254C28.467 11.1825 25.9503 13.3325 22.917 13.3325H17.0837C15.417 13.3325 13.8503 12.6825 12.667 11.4992C11.8003 10.6325 11.2003 9.53254 10.967 8.34921C10.867 7.84921 10.367 7.44921 9.88366 7.64921C7.95033 8.43254 6.66699 10.1992 6.66699 13.7492V29.9992C6.66699 34.9992 9.65033 36.6659 13.3337 36.6659H26.667C30.3503 36.6659 33.3337 34.9992 33.3337 29.9992V13.7492C33.3337 11.0325 32.5837 9.36587 31.3837 8.38254ZM13.3337 20.4159H20.0003C20.6837 20.4159 21.2503 20.9825 21.2503 21.6659C21.2503 22.3492 20.6837 22.9159 20.0003 22.9159H13.3337C12.6503 22.9159 12.0837 22.3492 12.0837 21.6659C12.0837 20.9825 12.6503 20.4159 13.3337 20.4159ZM26.667 29.5825H13.3337C12.6503 29.5825 12.0837 29.0159 12.0837 28.3325C12.0837 27.6492 12.6503 27.0825 13.3337 27.0825H26.667C27.3503 27.0825 27.917 27.6492 27.917 28.3325C27.917 29.0159 27.3503 29.5825 26.667 29.5825Z" fill="#9B9B9B"/>
</svg>
