<svg width="78" height="79" viewBox="0 0 78 79" fill="none" xmlns="http://www.w3.org/2000/svg">
<path d="M72.4225 32.425C73.2974 29.7991 73.601 27.0167 73.3129 24.264C73.0248 21.5113 72.1517 18.8519 70.752 16.4639C66.4942 9.05373 57.9346 5.2414 49.575 7.03544C47.7371 4.96555 45.4782 3.31179 42.9494 2.18478C40.4206 1.05777 37.6802 0.483497 34.9115 0.500361C26.3666 0.480861 18.7849 5.97998 16.156 14.1068C13.4426 14.6621 10.8791 15.7902 8.63704 17.4158C6.39502 19.0414 4.52623 21.1269 3.15571 23.5328C-1.13383 30.9234 -0.155942 40.2398 5.57483 46.5774C4.69994 49.2033 4.39637 51.9857 4.68446 54.7384C4.97255 57.4911 5.84565 60.1504 7.24529 62.5385C11.5031 69.9487 20.0627 73.761 28.4223 71.9669C30.2598 74.0371 32.5187 75.6909 35.0476 76.8176C37.5765 77.9442 40.3171 78.5177 43.0858 78.4996C51.6356 78.5215 59.2198 73.0175 61.8486 64.8834C64.5621 64.3281 67.1256 63.2 69.3676 61.5744C71.6096 59.9488 73.4784 57.8633 74.8489 55.4574C79.1336 48.0667 78.1533 38.7577 72.4249 32.4201L72.4225 32.425ZM43.0907 73.4027C39.6695 73.4081 36.3555 72.2104 33.7288 70.0193C33.8483 69.956 34.0556 69.8414 34.1897 69.7585L49.7286 60.7883C50.1189 60.5665 50.4431 60.2448 50.6677 59.8562C50.8923 59.4676 51.0092 59.0262 51.0065 58.5775V36.6809L57.5737 40.4713C57.6444 40.5055 57.6907 40.5737 57.7005 40.6517V58.7847C57.6907 66.8481 51.1577 73.3856 43.0907 73.4027ZM11.6714 59.9888C9.95741 57.0301 9.34012 53.5628 9.92778 50.1947C10.0424 50.263 10.2448 50.3873 10.3887 50.4702L25.9276 59.4404C26.7153 59.9011 27.6907 59.9011 28.4809 59.4404L47.4509 48.4909V56.0717C47.4558 56.1497 47.4192 56.2252 47.3583 56.274L31.6511 65.3392C24.6547 69.3661 15.7195 66.9724 11.6738 59.9888H11.6714ZM7.58182 26.0849C9.28886 23.1208 11.9835 20.8539 15.1928 19.6766C15.1928 19.8106 15.1855 20.0471 15.1855 20.2128V38.1557C15.1806 39.0673 15.6683 39.9131 16.4609 40.3641L35.431 51.3111L28.8637 55.1015C28.7979 55.1454 28.715 55.1527 28.6418 55.121L12.9322 46.0485C5.95038 42.007 3.55565 33.0782 7.57939 26.0873L7.58182 26.0849ZM61.5389 38.6359L42.5688 27.6864L49.136 23.8984C49.2019 23.8545 49.2848 23.8472 49.358 23.8789L65.0676 32.9442C72.0616 36.9832 74.4587 45.9266 70.4179 52.9175C68.7091 55.8763 66.0169 58.1429 62.8094 59.3234V40.8443C62.8167 39.9326 62.3315 39.0892 61.5413 38.6359H61.5389ZM68.0744 28.8028C67.9598 28.7321 67.7574 28.6102 67.6135 28.5273L52.0746 19.5571C51.6872 19.3309 51.2466 19.2116 50.798 19.2116C50.3493 19.2116 49.9087 19.3309 49.5213 19.5571L30.5513 30.5066V22.9258C30.5464 22.8478 30.583 22.7723 30.6439 22.7235L46.3511 13.6656C53.3475 9.63143 62.2924 12.0324 66.3259 19.0282C68.0306 21.9831 68.6475 25.441 68.0695 28.8028H68.0744ZM26.9811 42.3141L20.4114 38.5237C20.3769 38.5067 20.3472 38.4813 20.325 38.4497C20.3028 38.4182 20.289 38.3816 20.2846 38.3434V20.2104C20.2895 12.1372 26.8421 5.59484 34.9188 5.59972C38.3354 5.59972 41.6421 6.79899 44.2685 8.98304C44.149 9.04642 43.9442 9.16098 43.8076 9.24386L28.2687 18.214C27.8785 18.4353 27.5543 18.7566 27.3297 19.1448C27.1051 19.533 26.9881 19.974 26.9909 20.4225L26.9811 42.3092V42.3141ZM30.5488 34.6261L38.9987 29.7485L47.4485 34.6236V44.3763L38.9987 49.2514L30.5488 44.3763V34.6261Z" fill="black"/>
</svg>
