<svg width="101" height="91" viewBox="0 0 101 91" fill="none" xmlns="http://www.w3.org/2000/svg">
<g opacity="0.3" clip-path="url(#clip0_5551_79953)">
<path d="M120.066 58.9633C121.413 61.9606 122.267 65.1646 122.617 68.4332C122.954 71.7018 122.785 75.0091 122.086 78.2261C121.4 81.443 120.208 84.5307 118.551 87.373C117.463 89.2721 116.181 91.055 114.705 92.6957C113.241 94.3236 111.61 95.7964 109.835 97.0883C108.048 98.3803 106.145 99.4655 104.125 100.357C102.117 101.235 100.019 101.907 97.8698 102.346C96.8597 105.473 95.3575 108.432 93.415 111.093C91.4855 113.754 89.1416 116.093 86.4739 118.018C83.8063 119.956 80.8537 121.454 77.7198 122.462C74.586 123.483 71.3096 123.986 68.0074 123.986C65.8189 123.999 63.6174 123.767 61.4678 123.328C59.331 122.875 57.2332 122.191 55.2259 121.299C53.2187 120.408 51.3151 119.297 49.541 118.005C47.7798 116.713 46.1481 115.227 44.6977 113.586C41.4603 114.284 38.1451 114.452 34.8688 114.116C31.5925 113.767 28.3809 112.915 25.3636 111.571C22.3592 110.24 19.575 108.432 17.1275 106.222C14.68 104.013 12.595 101.429 10.9504 98.587C9.84967 96.6878 8.94318 94.6853 8.25684 92.6053C7.5705 90.5253 7.11725 88.3807 6.88416 86.1973C6.65106 84.0268 6.66401 81.8306 6.89711 79.6472C7.1302 77.4767 7.60935 75.3321 8.29569 73.2521C6.09422 70.8103 4.28124 68.0327 2.93445 65.0354C1.60062 62.0252 0.732979 58.8341 0.396283 55.5655C0.0466372 52.2969 0.227935 48.9896 0.914277 45.7726C1.60062 42.5557 2.792 39.468 4.44959 36.6257C5.53737 34.7266 6.81941 32.9308 8.28274 31.3029C9.74607 29.6751 11.3907 28.2023 13.1648 26.9104C14.939 25.6184 16.8555 24.5203 18.8628 23.6418C20.8829 22.7503 22.9808 22.0914 25.1305 21.6522C26.1406 18.5128 27.6428 15.5672 29.5723 12.9058C31.5148 10.2444 33.8587 7.90598 36.5264 5.96808C39.194 4.0431 42.1466 2.54445 45.2805 1.52382C48.4143 0.516112 51.6906 -0.000662303 54.9928 0.0122571C57.1814 -0.000662303 59.3828 0.218967 61.5325 0.671144C63.6822 1.12332 65.7801 1.79513 67.7873 2.68656C69.7945 3.59092 71.6981 4.68906 73.4723 5.981C75.2464 7.28586 76.8781 8.75866 78.3285 10.3994C81.553 9.7147 84.8681 9.54674 88.1444 9.88265C91.4208 10.2186 94.6194 11.0841 97.6367 12.4148C100.641 13.7585 103.425 15.5542 105.873 17.7635C108.32 19.9597 110.405 22.5307 112.05 25.3859C113.151 27.2721 114.057 29.2746 114.743 31.3675C115.43 33.4476 115.896 35.5922 116.116 37.7755C116.349 39.9589 116.349 42.1552 116.103 44.3386C115.87 46.522 115.391 48.6666 114.705 50.7466C116.919 53.1883 118.719 55.9531 120.066 58.9633ZM76.9169 114.116C79.74 112.953 82.3041 111.235 84.4667 109.077C86.6293 106.92 88.3517 104.362 89.5171 101.533C90.6826 98.7162 91.2913 95.693 91.2913 92.6441V63.8339C91.2826 63.8081 91.274 63.7779 91.2654 63.7435C91.2567 63.7176 91.2438 63.6918 91.2265 63.6659C91.2092 63.6401 91.1877 63.6186 91.1618 63.6013C91.1359 63.5755 91.11 63.5583 91.0841 63.5497L80.6335 57.5292V92.334C80.6335 92.6828 80.5817 93.0446 80.4911 93.3805C80.4004 93.7293 80.2709 94.0523 80.0896 94.3623C79.9083 94.6724 79.7011 94.9566 79.4422 95.2021C79.1904 95.4524 78.9075 95.6695 78.6004 95.8481L53.8533 110.098C53.6461 110.227 53.2964 110.408 53.1151 110.512C54.1382 111.377 55.2518 112.139 56.4173 112.811C57.5958 113.483 58.813 114.051 60.0821 114.517C61.3512 114.969 62.6592 115.318 63.98 115.55C65.3139 115.783 66.6607 115.899 68.0074 115.899C71.0636 115.899 74.0939 115.292 76.9169 114.116ZM17.9822 94.5561C19.5232 97.2046 21.5563 99.5042 23.978 101.365C26.4125 103.225 29.1708 104.582 32.1234 105.37C35.076 106.158 38.158 106.364 41.1883 105.964C44.2186 105.563 47.1323 104.582 49.787 103.057L74.8061 88.652L74.8709 88.5874C74.8881 88.5702 74.9011 88.5443 74.9097 88.5099C74.927 88.484 74.9399 88.4582 74.9486 88.4324V76.2882L44.7495 93.7164C44.4387 93.8972 44.115 94.0264 43.7783 94.1298C43.4286 94.2202 43.079 94.259 42.7164 94.259C42.3667 94.259 42.0171 94.2202 41.6674 94.1298C41.3308 94.0264 40.9941 93.8972 40.6833 93.7164L15.9361 79.4534C15.716 79.3242 15.3922 79.1304 15.2109 79.0141C14.9778 80.3448 14.8613 81.6884 14.8613 83.0321C14.8613 84.3757 14.9908 85.7193 15.2239 87.05C15.457 88.3678 15.8196 89.6726 16.2728 90.9387C16.739 92.2048 17.3088 93.4192 17.9822 94.582V94.5561ZM11.4814 40.6824C9.95327 43.3309 8.96908 46.2506 8.56764 49.2738C8.16619 52.2969 8.37339 55.3588 9.16333 58.3173C9.95327 61.2629 11.313 64.0148 13.1778 66.4436C15.0426 68.8595 17.3606 70.8879 20.0024 72.4123L45.0085 86.8303C45.0344 86.839 45.0646 86.8476 45.0992 86.8562H45.1898C45.2243 86.8562 45.2546 86.8476 45.2805 86.8303C45.3064 86.8217 45.3323 86.8088 45.3582 86.7916L55.8475 80.7453L25.6485 63.3559C25.3506 63.175 25.0657 62.9554 24.8067 62.7099C24.5558 62.4588 24.3382 62.1765 24.1593 61.8701C23.9909 61.5601 23.8485 61.2371 23.7578 60.8883C23.6672 60.5524 23.6154 60.2036 23.6283 59.8418V30.5019C22.3592 30.967 21.129 31.5355 19.9635 32.2073C18.798 32.892 17.6973 33.6672 16.6613 34.5328C15.6383 35.3984 14.68 36.3544 13.8123 37.388C12.9447 38.4086 12.1806 39.5197 11.5073 40.6824H11.4814ZM97.3777 60.6299C97.6885 60.8108 97.9734 61.0175 98.2324 61.2759C98.4784 61.5213 98.6986 61.8056 98.8799 62.1156C99.0482 62.4257 99.1907 62.7616 99.2813 63.0975C99.359 63.4463 99.4108 63.7951 99.3979 64.1569V93.4967C103.555 91.9723 107.181 89.298 109.861 85.7839C112.555 82.2698 114.174 78.071 114.549 73.6784C114.925 69.2859 114.044 64.8674 111.998 60.9529C109.952 57.0383 106.831 53.7826 102.998 51.5863L77.9918 37.1683C77.9659 37.1597 77.9357 37.1511 77.9011 37.1425H77.8105C77.7846 37.1511 77.7544 37.1597 77.7198 37.1683C77.6939 37.1769 77.668 37.1899 77.6421 37.2071L67.2045 43.2275L97.4036 60.6299H97.3777ZM107.802 44.9975H107.789V45.0104L107.802 44.9975ZM107.789 44.9845C108.54 40.6436 108.035 36.1735 106.326 32.1039C104.63 28.0343 101.794 24.5332 98.1676 22.001C94.5417 19.4817 90.2682 18.0348 85.8523 17.841C81.4235 17.6601 77.0464 18.7324 73.2133 20.9287L48.2071 35.3338C48.1812 35.351 48.1596 35.3725 48.1424 35.3984L48.0906 35.4759C48.0819 35.5017 48.0733 35.5319 48.0647 35.5663C48.056 35.5922 48.0517 35.6223 48.0517 35.6568V47.6976L78.2508 30.2952C78.5616 30.1144 78.8983 29.9852 79.235 29.8818C79.5846 29.7914 79.9342 29.7526 80.2839 29.7526C80.6465 29.7526 80.9961 29.7914 81.3458 29.8818C81.6825 29.9852 82.0062 30.1144 82.317 30.2952L107.064 44.5582C107.284 44.6874 107.608 44.8683 107.789 44.9845ZM42.3538 31.6518C42.3538 31.3029 42.4056 30.9541 42.4962 30.6053C42.5869 30.2694 42.7164 29.9335 42.8977 29.6234C43.079 29.3263 43.2862 29.0421 43.5452 28.7837C43.7912 28.5382 44.0761 28.3186 44.3869 28.1506L69.1341 13.9006C69.3672 13.7585 69.6909 13.5776 69.8722 13.4871C66.4794 10.6578 62.3354 8.8491 57.9454 8.29357C53.5554 7.72511 49.1007 8.42276 45.0992 10.2961C41.0847 12.1694 37.6918 15.1537 35.322 18.8745C32.9522 22.6082 31.6961 26.9233 31.6961 31.3417V60.1519C31.7047 60.1863 31.7133 60.2165 31.722 60.2423C31.7306 60.2682 31.7435 60.294 31.7608 60.3198C31.7781 60.3457 31.7997 60.3715 31.8256 60.3973C31.8428 60.4146 31.8687 60.4318 31.9033 60.449L42.3538 66.4694V31.6518ZM48.0258 69.7251L61.4807 77.4767L74.9356 69.7251V54.2348L61.4937 46.4832L48.0388 54.2348L48.0258 69.7251Z" fill="white"/>
</g>
<defs>
<clipPath id="clip0_5551_79953">
<rect width="123" height="124" fill="white"/>
</clipPath>
</defs>
</svg>
