<svg width="84" height="79" viewBox="0 0 84 79" fill="none" xmlns="http://www.w3.org/2000/svg">
<path d="M31.9751 37.1234C24.2822 32.6819 20.5316 23.6271 22.8307 15.0467C25.1298 6.46638 32.9053 0.5 41.7883 0.5C50.6714 0.5 58.4469 6.46638 60.746 15.0467C63.0451 23.6271 59.2945 32.6819 51.6015 37.1234L45.6923 26.8883C48.7528 25.1213 50.2449 21.5191 49.3303 18.1056C48.4156 14.692 45.3223 12.3184 41.7883 12.3184C38.2544 12.3184 35.1611 14.692 34.2464 18.1056C33.3318 21.5191 34.8239 25.1213 37.8844 26.8883L31.9751 37.1234Z" fill="#FF0101"/>
<path d="M74.0034 41.8748C81.6963 46.3164 85.4469 55.3712 83.1478 63.9515C80.8487 72.5319 73.0732 78.4982 64.1902 78.4982C55.3071 78.4982 47.5316 72.5319 45.2325 63.9515C42.9334 55.3712 46.684 46.3164 54.377 41.8748L60.2862 52.1099C57.2257 53.8769 55.7336 57.4792 56.6483 60.8927C57.5629 64.3062 60.6562 66.6798 64.1902 66.6798C67.7241 66.6798 70.8174 64.3062 71.7321 60.8927C72.6467 57.4792 71.1546 53.8769 68.0942 52.1099L74.0034 41.8748Z" fill="#0101FF"/>
<path d="M39.4349 58.8718C39.4349 67.7548 33.4685 75.5304 24.8882 77.8295C16.3079 80.1286 7.25305 76.3779 2.81154 68.685C-1.62997 60.9921 -0.350705 51.2751 5.93054 44.9938C12.2118 38.7126 21.9288 37.4333 29.6217 41.8748L23.7125 52.1099C20.652 50.3429 16.7863 50.8519 14.2874 53.3507C11.7886 55.8496 11.2796 59.7153 13.0466 62.7758C14.8136 65.8363 18.4158 67.3284 21.8294 66.4137C25.2429 65.4991 27.6165 62.4057 27.6165 58.8718H39.4349Z" fill="#01FF01"/>
</svg>
