<svg width="628" height="276" viewBox="0 0 628 276" fill="none" xmlns="http://www.w3.org/2000/svg">
<path d="M40.6807 88.96H85.877L108.475 127.993L85.877 167.026H40.6807L18.083 127.993L40.6807 88.96Z" stroke="#535353" stroke-width="0.80102"/>
<path d="M23 128.034L43.0255 93.443H83.0765L103.102 128.034L83.0765 162.625H43.0255L23 128.034Z" fill="white"/>
<path d="M80.3714 114.215L77.3312 148.198L63.6652 151.978L50.037 148.203L47 114.215H80.3714Z" fill="#264DE4"/>
<path d="M74.7263 146.032L77.3244 116.992H63.6836V149.087L74.7263 146.032Z" fill="#2965F1"/>
<path d="M53.9609 129.598L54.3354 133.766H63.6844V129.598H53.9609Z" fill="#EBEBEB"/>
<path d="M63.6867 121.16H63.6723H53.2109L53.5907 125.329H63.6867V121.16Z" fill="#EBEBEB"/>
<path d="M63.6858 144.762V140.425L63.6675 140.43L59.0147 139.176L58.7172 135.852H56.4564H54.5234L55.1087 142.397L63.6666 144.767L63.6858 144.762Z" fill="#EBEBEB"/>
<path d="M54.8555 104.977H59.9154V107.088H56.9714V109.199H59.9154V111.311H54.8555V104.977Z" fill="black"/>
<path d="M60.9258 104.977H65.9857V106.813H63.0417V107.18H65.9857V111.402H60.9258V109.475H63.8698V109.107H60.9258V104.977Z" fill="black"/>
<path d="M66.9961 104.977H72.056V106.813H69.112V107.18H72.056V111.402H66.9961V109.475H69.9401V109.107H66.9961V104.977Z" fill="black"/>
<path d="M68.8163 133.766L68.3314 139.172L63.6719 140.427V144.764L72.2365 142.396L72.2993 141.691L73.2811 130.717L73.383 129.597L74.1372 121.16H63.6719V125.329H69.5588L69.1786 129.597H63.6719V133.766H68.8163Z" fill="white"/>
<path d="M113.575 133.694H158.771L181.369 172.728L158.771 211.761H113.575L90.9775 172.728L113.575 133.694Z" stroke="#535353" stroke-width="0.80102"/>
<path d="M96 173.034L116.026 138.443H156.077L176.102 173.034L156.077 207.625H116.026L96 173.034Z" fill="white"/>
<path d="M136.396 196.722C135.773 196.722 135.155 196.558 134.609 196.244L128.923 192.877C128.073 192.402 128.488 192.234 128.768 192.137C129.9 191.741 130.13 191.651 131.339 190.965C131.466 190.892 131.632 190.918 131.762 190.995L136.131 193.587C136.289 193.672 136.513 193.672 136.659 193.587L153.694 183.754C153.851 183.665 153.954 183.482 153.954 183.294V163.637C153.954 163.441 153.851 163.266 153.69 163.168L136.663 153.344C136.505 153.25 136.296 153.25 136.138 153.344L119.114 163.168C118.949 163.262 118.844 163.445 118.844 163.633V183.29C118.844 183.477 118.946 183.656 119.108 183.746L123.773 186.441C126.306 187.707 127.854 186.215 127.854 184.714V165.313C127.854 165.036 128.071 164.822 128.348 164.822H130.506C130.774 164.822 130.996 165.036 130.996 165.313V184.722C130.996 188.099 129.154 190.04 125.952 190.04C124.967 190.04 124.191 190.04 122.025 188.974L117.556 186.398C116.452 185.758 115.77 184.565 115.77 183.29V163.633C115.77 162.354 116.452 161.16 117.556 160.529L134.608 150.692C135.686 150.082 137.119 150.082 138.189 150.692L155.22 160.533C156.32 161.168 157.006 162.358 157.006 163.637V183.294C157.006 184.569 156.32 185.758 155.22 186.398L138.189 196.235C137.644 196.551 137.025 196.713 136.394 196.713" fill="#689F63"/>
<path d="M141.657 183.174C134.203 183.174 132.641 179.752 132.641 176.883C132.641 176.61 132.861 176.392 133.134 176.392H135.334C135.577 176.392 135.782 176.569 135.82 176.809C136.153 179.051 137.142 180.182 141.649 180.182C145.239 180.182 146.766 179.371 146.766 177.467C146.766 176.371 146.331 175.557 140.754 175.011C136.089 174.551 133.206 173.523 133.206 169.792C133.206 166.355 136.106 164.309 140.963 164.309C146.416 164.309 149.12 166.202 149.461 170.27C149.473 170.41 149.422 170.547 149.328 170.649C149.235 170.747 149.102 170.807 148.966 170.807H146.753C146.523 170.807 146.322 170.645 146.275 170.423C145.742 168.065 144.455 167.31 140.954 167.31C137.035 167.31 136.579 168.675 136.579 169.698C136.579 170.939 137.117 171.301 142.404 172.001C147.64 172.696 150.126 173.677 150.126 177.356C150.126 181.066 147.03 183.194 141.632 183.194" fill="#689F63"/>
<path d="M7.27734 220.656L31.2754 179.091H79.2714L103.269 220.656L79.2714 262.222H31.2754L7.27734 220.656Z" fill="white"/>
<path d="M27.8281 173.182H82.5615L109.928 220.582L82.5615 267.982H27.8281L0.461914 220.582L27.8281 173.182Z" stroke="#535353" stroke-width="0.80102"/>
<path d="M7 220.981L30.998 179.415H78.994L102.992 220.981L78.994 262.546H30.998L7 220.981Z" fill="white"/>
<path d="M78.7171 197.258H31.2812V244.694H78.7171V197.258Z" fill="#512BD4"/>
<path d="M39.7348 227.563C39.3994 227.563 39.1143 227.452 38.8795 227.228C38.6447 226.999 38.5273 226.727 38.5273 226.411C38.5273 226.09 38.6447 225.815 38.8795 225.586C39.1143 225.357 39.3994 225.242 39.7348 225.242C40.0758 225.242 40.3637 225.357 40.5985 225.586C40.8389 225.815 40.959 226.09 40.959 226.411C40.959 226.727 40.8389 226.999 40.5985 227.228C40.3637 227.452 40.0758 227.563 39.7348 227.563Z" fill="white"/>
<path d="M53.1456 227.376H50.9655L45.2217 218.314C45.0763 218.085 44.9561 217.847 44.8611 217.6H44.8108C44.8555 217.864 44.8779 218.429 44.8779 219.294V227.376H42.9492V215.047H45.2719L50.823 223.894C51.0577 224.26 51.2087 224.513 51.2758 224.65H51.3093C51.2534 224.324 51.2254 223.77 51.2254 222.991V215.047H53.1456V227.376Z" fill="white"/>
<path d="M62.5352 227.376H55.7852V215.047H62.2669V216.784H57.7809V220.274H61.9148V222.002H57.7809V225.647H62.5352V227.376Z" fill="white"/>
<path d="M72.1311 216.784H68.6764V227.376H66.6807V216.784H63.2344V215.047H72.1311V216.784Z" fill="white"/>
<path d="M167 121.981L190.998 80.4148H238.994L262.992 121.981L238.994 163.546H190.998L167 121.981Z" fill="white"/>
<path d="M215.354 92.5664L187.973 102.331L192.149 138.535L215.354 151.387L238.558 138.535L242.735 102.331L215.354 92.5664Z" fill="#DD0031"/>
<path d="M215.355 92.5664V99.0955V99.0661V128.859V151.387L238.56 138.535L242.736 102.331L215.355 92.5664Z" fill="#C3002F"/>
<path d="M215.355 99.0664L198.238 137.447H204.62L208.061 128.859H222.59L226.031 137.447H232.413L215.355 99.0664ZM220.355 123.565H210.355L215.355 111.536L220.355 123.565Z" fill="white"/>
<path d="M187.379 74.2754H242.112L269.479 121.676L242.112 169.076H187.379L160.013 121.676L187.379 74.2754Z" stroke="#535353" stroke-width="0.80102"/>
<path d="M587.319 88.96H542.123L519.525 127.993L542.123 167.026H587.319L609.917 127.993L587.319 88.96Z" stroke="#535353" stroke-width="0.80102"/>
<path d="M605 128.058L584.974 93.4664H544.923L524.898 128.058L544.923 162.649H584.974L605 128.058Z" fill="white"/>
<path fill-rule="evenodd" clip-rule="evenodd" d="M586.712 138.719L586.508 139.247C583.034 146.01 576.88 150.161 568.101 150.344C563.997 150.429 560.087 149.376 557.532 148.23C552.019 145.754 547.383 141.16 544.85 136.252C541.218 129.217 540.563 119.431 548.116 112.121C548.232 112.121 547.2 113.706 547.316 113.706L547.108 114.382C541.666 131.423 558.434 146.025 574.735 144.355C578.652 143.954 583.648 141.808 586.712 138.719Z" fill="#21609B"/>
<path fill-rule="evenodd" clip-rule="evenodd" d="M576.849 131.672C580.95 131.7 585.233 129.783 587.77 127.092C585.551 132.726 579.125 136.347 570.508 135.195C563.293 134.23 556.42 126.969 555.712 119.694C555.194 114.399 557.04 111.24 560.08 107.406C559.023 109.411 558.628 110.957 558.53 111.943C557.375 123.397 567.679 131.612 576.849 131.672Z" fill="#21609B"/>
<path fill-rule="evenodd" clip-rule="evenodd" d="M587.356 117.448C586.719 118.91 583.048 121.672 581.427 122.017C575.008 123.384 570.898 120.341 568.745 116.877C568.425 116.359 567.833 114.947 567.727 114.587C566.892 111.748 567.276 107.454 569.767 105.23C569.016 107.344 568.907 109.799 569.302 111.396C569.541 112.361 570.27 114.045 571 115.105C572.328 117.036 573.17 117.505 574.875 118.53C575.643 118.991 576.467 119.361 576.823 119.463C578.44 119.939 581.854 121.193 587.356 117.448Z" fill="#21609B"/>
<path d="M514.425 133.694H469.229L446.631 172.728L469.229 211.761H514.425L537.022 172.728L514.425 133.694Z" stroke="#535353" stroke-width="0.80102"/>
<path d="M532 173.034L511.974 138.443H471.923L451.898 173.034L471.923 207.625H511.974L532 173.034Z" fill="white"/>
<path d="M500.441 168.133H509.365V169.78H505.825V178.445H504.055V169.78H500.441V168.133Z" fill="black"/>
<path d="M485.767 168.133V169.78H478.614V172.429H484.367V174.076H478.614V176.798H485.767V178.445H476.844V169.78H476.844V168.133H485.767Z" fill="black"/>
<path d="M490.223 168.141H487.906L496.203 178.453H498.526L494.377 173.3L498.519 168.148L496.203 168.152L493.217 171.86L490.223 168.141Z" fill="black"/>
<path d="M492.598 175.505L491.438 174.062L487.898 178.459H490.221L492.598 175.505Z" fill="black"/>
<path fill-rule="evenodd" clip-rule="evenodd" d="M476.903 178.445L468.595 168.129H466.383V178.441H468.153V170.333L474.679 178.445H476.903Z" fill="black"/>
<path d="M509.762 178.384C509.632 178.384 509.522 178.339 509.43 178.25C509.337 178.16 509.292 178.051 509.293 177.922C509.292 177.797 509.337 177.689 509.43 177.6C509.522 177.51 509.632 177.465 509.762 177.465C509.887 177.465 509.996 177.51 510.088 177.6C510.182 177.689 510.228 177.797 510.23 177.922C510.228 178.007 510.207 178.085 510.164 178.155C510.119 178.226 510.063 178.281 509.992 178.322C509.923 178.363 509.846 178.384 509.762 178.384Z" fill="black"/>
<path d="M512.784 174.039H513.568V177.061C513.567 177.339 513.507 177.576 513.39 177.776C513.271 177.975 513.106 178.128 512.895 178.235C512.686 178.342 512.44 178.396 512.16 178.396C511.905 178.396 511.676 178.35 511.472 178.26C511.268 178.17 511.106 178.036 510.987 177.858C510.867 177.681 510.809 177.46 510.809 177.196H511.594C511.595 177.311 511.622 177.412 511.672 177.496C511.722 177.58 511.792 177.643 511.881 177.688C511.971 177.733 512.074 177.756 512.19 177.756C512.316 177.756 512.424 177.73 512.512 177.676C512.599 177.624 512.666 177.546 512.713 177.443C512.759 177.34 512.783 177.212 512.784 177.061V174.039Z" fill="black"/>
<path d="M516.796 175.22C516.777 175.037 516.693 174.894 516.547 174.792C516.399 174.69 516.209 174.639 515.975 174.639C515.811 174.639 515.669 174.664 515.552 174.712C515.434 174.762 515.343 174.828 515.28 174.912C515.218 174.996 515.187 175.091 515.185 175.199C515.185 175.289 515.206 175.367 515.248 175.432C515.29 175.498 515.346 175.553 515.42 175.598C515.492 175.644 515.572 175.682 515.66 175.713C515.748 175.744 515.837 175.77 515.926 175.791L516.335 175.891C516.499 175.929 516.659 175.98 516.811 176.045C516.963 176.109 517.101 176.19 517.222 176.288C517.343 176.387 517.439 176.505 517.51 176.643C517.581 176.781 517.617 176.943 517.617 177.13C517.617 177.382 517.552 177.603 517.421 177.794C517.29 177.984 517.102 178.133 516.855 178.241C516.609 178.347 516.312 178.401 515.962 178.401C515.624 178.401 515.328 178.349 515.08 178.245C514.831 178.143 514.636 177.991 514.496 177.793C514.356 177.594 514.28 177.352 514.27 177.067H515.047C515.057 177.216 515.105 177.34 515.187 177.441C515.27 177.54 515.378 177.613 515.51 177.663C515.643 177.711 515.791 177.736 515.956 177.736C516.127 177.736 516.278 177.71 516.409 177.659C516.539 177.608 516.64 177.538 516.714 177.445C516.788 177.354 516.825 177.247 516.826 177.124C516.825 177.012 516.792 176.918 516.727 176.845C516.661 176.772 516.57 176.71 516.453 176.661C516.336 176.611 516.199 176.566 516.043 176.527L515.547 176.402C515.188 176.311 514.904 176.173 514.696 175.987C514.488 175.802 514.385 175.556 514.385 175.247C514.385 174.994 514.454 174.772 514.595 174.582C514.734 174.392 514.924 174.244 515.165 174.139C515.408 174.032 515.681 173.98 515.986 173.98C516.295 173.98 516.566 174.032 516.8 174.139C517.034 174.244 517.217 174.391 517.35 174.577C517.484 174.764 517.553 174.978 517.557 175.22H516.796Z" fill="black"/>
<path d="M620.723 220.656L596.725 179.091H548.729L524.731 220.656L548.729 262.222H596.725L620.723 220.656Z" fill="white"/>
<path d="M600.172 173.182H545.438L518.072 220.582L545.438 267.982H600.172L627.538 220.582L600.172 173.182Z" stroke="#535353" stroke-width="0.80102"/>
<path d="M621 220.981L597.002 179.415H549.006L525.008 220.981L549.006 262.546H597.002L621 220.981Z" fill="white"/>
<path d="M548.121 220.976C548.121 230.823 553.844 239.333 562.142 243.366L550.275 210.852C548.895 213.946 548.121 217.37 548.121 220.976Z" fill="#21759B"/>
<path d="M589.796 219.719C589.796 216.645 588.692 214.515 587.745 212.858C586.484 210.809 585.302 209.073 585.302 207.024C585.302 204.737 587.036 202.609 589.479 202.609C589.59 202.609 589.694 202.622 589.802 202.628C585.375 198.573 579.478 196.098 573.001 196.098C564.31 196.098 556.663 200.557 552.215 207.311C552.799 207.329 553.349 207.341 553.816 207.341C556.418 207.341 560.446 207.025 560.446 207.025C561.787 206.946 561.945 208.916 560.606 209.074C560.606 209.074 559.258 209.233 557.758 209.312L566.818 236.259L572.263 219.93L568.386 209.311C567.047 209.232 565.778 209.073 565.778 209.073C564.437 208.995 564.594 206.945 565.935 207.024C565.935 207.024 570.043 207.34 572.488 207.34C575.09 207.34 579.118 207.024 579.118 207.024C580.46 206.945 580.618 208.915 579.278 209.073C579.278 209.073 577.927 209.232 576.43 209.311L585.421 236.054L587.902 227.762C588.978 224.321 589.796 221.849 589.796 219.719Z" fill="#21759B"/>
<path d="M573.437 223.152L565.973 244.842C568.201 245.497 570.558 245.856 573.001 245.856C575.898 245.856 578.676 245.355 581.262 244.445C581.196 244.339 581.135 244.226 581.085 244.103L573.437 223.152Z" fill="#21759B"/>
<path d="M594.831 209.039C594.938 209.832 594.999 210.682 594.999 211.597C594.999 214.122 594.527 216.96 593.107 220.508L585.508 242.479C592.904 238.166 597.879 230.153 597.879 220.975C597.879 216.65 596.775 212.583 594.831 209.039Z" fill="#21759B"/>
<path d="M573.001 191.977C557.01 191.977 544 204.986 544 220.976C544 236.968 557.01 249.977 573.001 249.977C588.991 249.977 602.003 236.968 602.003 220.976C602.003 204.986 588.991 191.977 573.001 191.977ZM573.001 248.647C557.744 248.647 545.33 236.234 545.33 220.976C545.33 205.719 557.743 193.306 573.001 193.306C588.258 193.306 600.671 205.719 600.671 220.976C600.671 236.234 588.258 248.647 573.001 248.647Z" fill="#21759B"/>
<path d="M461 122.004L437.002 80.4382H389.006L365.008 122.004L389.006 163.57H437.002L461 122.004Z" fill="white"/>
<path d="M436.615 135.019C436.99 134.366 437.223 133.63 437.223 132.969V110.03C437.223 109.369 436.991 108.634 436.615 107.98L413.305 121.5L436.615 135.019Z" fill="#00599C"/>
<path d="M415.374 148.043L435.15 136.573C435.719 136.243 436.237 135.673 436.612 135.019L413.302 121.5L389.992 135.019C390.368 135.673 390.885 136.243 391.455 136.573L411.231 148.043C412.37 148.704 414.235 148.704 415.374 148.043Z" fill="#004482"/>
<path d="M436.612 107.98C436.236 107.327 435.718 106.756 435.149 106.426L415.373 94.9566C414.234 94.2957 412.369 94.2957 411.23 94.9566L391.454 106.426C390.315 107.087 389.383 108.709 389.383 110.03V132.969C389.383 133.63 389.616 134.366 389.991 135.019L413.302 121.5L436.612 107.98Z" fill="#659AD2"/>
<path d="M413.305 137.517C404.513 137.517 397.359 130.331 397.359 121.499C397.359 112.666 404.513 105.48 413.305 105.48C418.979 105.48 424.27 108.547 427.114 113.485L420.213 117.496C418.79 115.025 416.143 113.49 413.305 113.49C408.909 113.49 405.332 117.082 405.332 121.499C405.332 125.915 408.909 129.508 413.305 129.508C416.143 129.508 418.79 127.973 420.214 125.501L427.115 129.512C424.271 134.45 418.979 137.517 413.305 137.517Z" fill="white"/>
<path d="M429.249 120.612H427.477V118.832H425.705V120.612H423.934V122.392H425.705V124.171H427.477V122.392H429.249V120.612Z" fill="white"/>
<path d="M435.893 120.612H434.122V118.832H432.35V120.612H430.578V122.392H432.35V124.171H434.122V122.392H435.893V120.612Z" fill="white"/>
<path d="M440.621 74.2754H385.888L358.521 121.676L385.888 169.076H440.621L467.987 121.676L440.621 74.2754Z" stroke="#535353" stroke-width="0.80102"/>
<path d="M282.633 9.35645H345.365L376.731 63.6846L345.365 118.012H282.633L251.267 63.6846L282.633 9.35645Z" stroke="#535353" stroke-width="0.80102"/>
<path d="M258 63.0046L285.998 14.5112H341.993L369.991 63.0046L341.993 111.498H285.998L258 63.0046Z" fill="white"/>
<path d="M313.511 69.9547C317.35 69.9547 320.463 66.8422 320.463 63.0027C320.463 59.1633 317.35 56.0508 313.511 56.0508C309.671 56.0508 306.559 59.1633 306.559 63.0027C306.559 66.8422 309.671 69.9547 313.511 69.9547Z" fill="#61DAFB"/>
<path fill-rule="evenodd" clip-rule="evenodd" d="M280.275 58.7157C278.597 60.2305 277.903 61.6815 277.903 63.0012C277.903 64.3208 278.597 65.7718 280.275 67.2866C281.953 68.8012 284.476 70.2429 287.738 71.4885C294.251 73.9751 303.362 75.5486 313.511 75.5486C323.659 75.5486 332.771 73.9751 339.283 71.4885C342.545 70.2429 345.068 68.8012 346.746 67.2866C348.424 65.7718 349.118 64.3208 349.118 63.0012C349.118 61.6815 348.424 60.2305 346.746 58.7157C345.068 57.2011 342.545 55.7594 339.283 54.5139C332.771 52.0273 323.659 50.4537 313.511 50.4537C303.362 50.4537 294.251 52.0273 287.738 54.5139C284.476 55.7594 281.953 57.2011 280.275 58.7157ZM286.528 51.3457C293.517 48.6774 303.057 47.0625 313.511 47.0625C323.964 47.0625 333.504 48.6774 340.493 51.3457C343.981 52.6777 346.921 54.3051 349.019 56.1985C351.116 58.0917 352.509 60.3877 352.509 63.0012C352.509 65.6146 351.116 67.9106 349.019 69.8038C346.921 71.6972 343.981 73.3246 340.493 74.6566C333.504 77.3249 323.964 78.9398 313.511 78.9398C303.057 78.9398 293.517 77.3249 286.528 74.6566C283.04 73.3246 280.1 71.6972 278.003 69.8038C275.905 67.9106 274.512 65.6146 274.512 63.0012C274.512 60.3877 275.905 58.0917 278.003 56.1985C280.1 54.3051 283.04 52.6777 286.528 51.3457Z" fill="#61DAFB"/>
<path fill-rule="evenodd" clip-rule="evenodd" d="M300.606 32.0756C298.455 31.3797 296.852 31.5042 295.709 32.164C294.566 32.8238 293.656 34.1504 293.183 36.361C292.711 38.5713 292.724 41.4773 293.276 44.9251C294.379 51.8084 297.572 60.486 302.646 69.2748C307.72 78.0637 313.639 85.1677 319.049 89.5644C321.758 91.7667 324.268 93.2309 326.419 93.9267C328.57 94.6225 330.174 94.498 331.316 93.8382C332.459 93.1784 333.369 91.8519 333.842 89.6413C334.314 87.4309 334.301 84.525 333.749 81.0771C332.646 74.1938 329.453 65.5163 324.379 56.7274C319.305 47.9385 313.386 40.8345 307.976 36.4378C305.267 34.2355 302.757 32.7713 300.606 32.0756ZM310.115 33.8061C315.921 38.5243 322.089 45.9788 327.316 55.0318C332.543 64.0848 335.914 73.1542 337.098 80.5407C337.688 84.2278 337.749 87.5874 337.158 90.3506C336.567 93.1135 335.275 95.4684 333.012 96.7751C330.749 98.0818 328.063 98.0229 325.375 97.1532C322.687 96.2835 319.807 94.5512 316.91 92.1961C311.105 87.478 304.936 80.0234 299.709 70.9704C294.483 61.9175 291.111 52.848 289.928 45.4616C289.337 41.7745 289.276 38.4148 289.867 35.6517C290.458 32.8888 291.75 30.5339 294.013 29.2271C296.276 27.9204 298.962 27.9793 301.65 28.849C304.338 29.7187 307.218 31.451 310.115 33.8061Z" fill="#61DAFB"/>
<path fill-rule="evenodd" clip-rule="evenodd" d="M333.839 36.3598C333.366 34.1492 332.456 32.8227 331.314 32.1629C330.171 31.503 328.567 31.3786 326.416 32.0744C324.266 32.7702 321.756 34.2343 319.046 36.4366C313.636 40.8334 307.718 47.9374 302.643 56.7262C297.569 65.5151 294.376 74.1927 293.273 81.076C292.721 84.5238 292.708 87.4297 293.181 89.6401C293.654 91.8507 294.563 93.1773 295.706 93.8371C296.849 94.4969 298.452 94.6213 300.603 93.9255C302.754 93.2298 305.264 91.7656 307.974 89.5633C313.383 85.1666 319.302 78.0626 324.376 69.2737C329.45 60.4848 332.643 51.8072 333.746 44.9239C334.299 41.4761 334.312 38.5702 333.839 36.3598ZM337.095 45.4604C335.911 52.8469 332.54 61.9163 327.313 70.9693C322.086 80.0223 315.918 87.4768 310.113 92.1949C307.215 94.5501 304.336 96.2823 301.647 97.1521C298.959 98.0217 296.274 98.0807 294.01 96.7739C291.747 95.4672 290.456 93.1123 289.865 90.3494C289.274 87.5863 289.334 84.2266 289.925 80.5395C291.108 73.153 294.48 64.0836 299.707 55.0306C304.933 45.9777 311.102 38.5231 316.907 33.805C319.805 31.4499 322.684 29.7176 325.372 28.8478C328.061 27.9782 330.746 27.9192 333.009 29.226C335.273 30.5327 336.564 32.8876 337.155 35.6505C337.746 38.4137 337.686 41.7733 337.095 45.4604Z" fill="#61DAFB"/>
<path d="M276.632 128.06H351.363L388.729 192.779L351.363 257.498H276.632L239.267 192.779L276.632 128.06Z" stroke="#535353" stroke-width="0.80102"/>
<path d="M246 192.939L279.997 134.054H347.992L381.989 192.939L347.992 251.824H279.997L246 192.939Z" fill="white"/>
<path d="M313.108 155.977C310.094 155.991 307.216 156.249 304.684 156.697C297.224 158.017 295.87 160.78 295.87 165.874V172.602H313.498V174.845H295.87H289.254C284.13 174.845 279.644 177.929 278.241 183.796C276.622 190.52 276.551 194.716 278.241 201.738C279.494 206.964 282.487 210.688 287.61 210.688H293.671V202.623C293.671 196.796 298.705 191.656 304.684 191.656H322.292C327.193 191.656 331.106 187.614 331.106 182.685V165.874C331.106 161.09 327.076 157.496 322.292 156.697C319.263 156.192 316.121 155.963 313.108 155.977ZM303.574 161.389C305.395 161.389 306.882 162.902 306.882 164.763C306.882 166.617 305.395 168.117 303.574 168.117C301.747 168.117 300.266 166.617 300.266 164.763C300.266 162.902 301.747 161.389 303.574 161.389Z" fill="url(#paint0_linear_3947_78559)"/>
<path d="M333.306 174.844V182.683C333.306 188.761 328.161 193.876 322.293 193.876H304.685C299.862 193.876 295.871 198.01 295.871 202.847V219.658C295.871 224.442 300.025 227.256 304.685 228.629C310.266 230.272 315.617 230.569 322.293 228.629C326.731 227.342 331.108 224.752 331.108 219.658V212.93H313.5V210.687H331.108H339.922C345.045 210.687 346.954 207.108 348.736 201.736C350.577 196.206 350.498 190.888 348.736 183.794C347.47 178.687 345.052 174.844 339.922 174.844H333.306ZM323.403 217.415C325.23 217.415 326.711 218.915 326.711 220.769C326.711 222.63 325.23 224.143 323.403 224.143C321.582 224.143 320.095 222.63 320.095 220.769C320.095 218.915 321.582 217.415 323.403 217.415Z" fill="url(#paint1_linear_3947_78559)"/>
<line x1="31.9922" y1="172.5" x2="78.9922" y2="172.5" stroke="white"/>
<line x1="30.9922" y1="268.5" x2="77.9922" y2="268.5" stroke="white"/>
<line x1="85.5541" y1="264.935" x2="108.216" y2="223.759" stroke="white"/>
<line x1="3.55415" y1="216.935" x2="26.2164" y2="175.759" stroke="white"/>
<line y1="-0.5" x2="47" y2="-0.5" transform="matrix(-0.482175 -0.876075 -0.876075 0.482175 24.6562 266.176)" stroke="white"/>
<line y1="-0.5" x2="47" y2="-0.5" transform="matrix(-0.482175 -0.876075 -0.876075 0.482175 107.656 217.176)" stroke="white"/>
<line y1="-0.5" x2="47" y2="-0.5" transform="matrix(-1 0 0 1 596.66 173)" stroke="white"/>
<line y1="-0.5" x2="47" y2="-0.5" transform="matrix(-1 0 0 1 597.66 269)" stroke="white"/>
<line y1="-0.5" x2="47" y2="-0.5" transform="matrix(-0.482175 -0.876075 -0.876075 0.482175 542.66 265.176)" stroke="white"/>
<line y1="-0.5" x2="47" y2="-0.5" transform="matrix(-0.482175 -0.876075 -0.876075 0.482175 624.66 217.176)" stroke="white"/>
<line x1="603.558" y1="265.935" x2="626.22" y2="224.759" stroke="white"/>
<line x1="520.558" y1="216.935" x2="543.22" y2="175.759" stroke="white"/>
<line x1="190.977" y1="73.5" x2="237.977" y2="73.5" stroke="white"/>
<line x1="189.977" y1="169.5" x2="236.977" y2="169.5" stroke="white"/>
<line x1="244.539" y1="165.935" x2="267.201" y2="124.759" stroke="white"/>
<line x1="162.539" y1="117.935" x2="185.201" y2="76.7592" stroke="white"/>
<line y1="-0.5" x2="47" y2="-0.5" transform="matrix(-0.482175 -0.876075 -0.876075 0.482175 184.645 166.176)" stroke="white"/>
<line y1="-0.5" x2="47" y2="-0.5" transform="matrix(-0.482175 -0.876075 -0.876075 0.482175 266.641 118.176)" stroke="white"/>
<line x1="288.219" y1="9.5" x2="342.073" y2="9.5" stroke="white"/>
<line x1="287.07" y1="117.5" x2="340.924" y2="117.5" stroke="white"/>
<line x1="348.564" y1="112.749" x2="375.625" y2="66.1857" stroke="white"/>
<line x1="254.568" y1="57.7485" x2="281.668" y2="11.1854" stroke="white"/>
<line x1="279.565" y1="113.246" x2="253.565" y2="67.246" stroke="white"/>
<line x1="374.566" y1="59.2491" x2="347.566" y2="12.2491" stroke="white"/>
<line x1="280.82" y1="128.5" x2="346.642" y2="128.5" stroke="white"/>
<line x1="280.41" y1="257.5" x2="346.232" y2="257.5" stroke="white"/>
<line x1="354.669" y1="252.635" x2="387.744" y2="195.725" stroke="white"/>
<line x1="241.783" y1="188.416" x2="274.905" y2="131.506" stroke="white"/>
<line x1="273.338" y1="253.133" x2="241.56" y2="196.911" stroke="white"/>
<line x1="386.453" y1="189.136" x2="353.453" y2="131.691" stroke="white"/>
<line y1="-0.5" x2="47" y2="-0.5" transform="matrix(-1 0 0 1 437.668 74)" stroke="white"/>
<line y1="-0.5" x2="47" y2="-0.5" transform="matrix(-1 0 0 1 438.668 170)" stroke="white"/>
<line y1="-0.5" x2="47" y2="-0.5" transform="matrix(-0.482175 -0.876075 -0.876075 0.482175 383.668 166.176)" stroke="white"/>
<line y1="-0.5" x2="47" y2="-0.5" transform="matrix(-0.482175 -0.876075 -0.876075 0.482175 465.668 118.176)" stroke="white"/>
<line x1="443.566" y1="165.935" x2="466.228" y2="124.759" stroke="white"/>
<line x1="361.566" y1="117.935" x2="384.228" y2="76.7592" stroke="white"/>
<line x1="119.219" y1="134.188" x2="157.712" y2="134.188" stroke="white"/>
<line x1="116.391" y1="211.812" x2="154.884" y2="211.812" stroke="white"/>
<line x1="160.999" y1="208.939" x2="179.56" y2="175.216" stroke="white"/>
<line x1="92.8471" y1="170.626" x2="111.408" y2="136.903" stroke="white"/>
<line y1="-0.5" x2="38.4932" y2="-0.5" transform="matrix(-0.482175 -0.876075 -0.876075 0.482175 111.211 209)" stroke="white"/>
<line y1="-0.5" x2="38.4932" y2="-0.5" transform="matrix(-0.482175 -0.876075 -0.876075 0.482175 178.184 169.867)" stroke="white"/>
<line y1="-0.5" x2="38.4932" y2="-0.5" transform="matrix(-1 0 0 1 509.402 134.688)" stroke="white"/>
<line y1="-0.5" x2="38.4932" y2="-0.5" transform="matrix(-1 0 0 1 512.23 212.312)" stroke="white"/>
<line y1="-0.5" x2="38.4932" y2="-0.5" transform="matrix(-0.482175 -0.876075 -0.876075 0.482175 467.184 209.18)" stroke="white"/>
<line y1="-0.5" x2="38.4932" y2="-0.5" transform="matrix(-0.482175 -0.876075 -0.876075 0.482175 535.336 170.867)" stroke="white"/>
<line x1="516.972" y1="208.759" x2="535.533" y2="175.036" stroke="white"/>
<line x1="449.999" y1="169.626" x2="468.56" y2="135.903" stroke="white"/>
<line x1="45.5703" y1="88.5" x2="84.0635" y2="88.5" stroke="white"/>
<line x1="42.7422" y1="166.125" x2="81.2354" y2="166.125" stroke="white"/>
<line x1="87.3548" y1="163.238" x2="106.566" y2="130.746" stroke="white"/>
<line x1="19.5596" y1="125.756" x2="38.5557" y2="91.7561" stroke="white"/>
<line x1="37.5676" y1="162.251" x2="19.5676" y2="131.251" stroke="white"/>
<line x1="106.563" y1="125.249" x2="87.5628" y2="92.2495" stroke="white"/>
<line y1="-0.5" x2="38.4932" y2="-0.5" transform="matrix(-1 0 0 1 583.066 89)" stroke="white"/>
<line y1="-0.5" x2="38.4932" y2="-0.5" transform="matrix(-1 0 0 1 585.895 166.625)" stroke="white"/>
<line y1="-0.5" x2="37.7466" y2="-0.5" transform="matrix(-0.508945 -0.860799 -0.860799 0.508945 540.852 163.492)" stroke="white"/>
<line y1="-0.5" x2="38.9468" y2="-0.5" transform="matrix(-0.487745 -0.872986 -0.872986 0.487745 608.641 126)" stroke="white"/>
<line y1="-0.5" x2="35.8469" y2="-0.5" transform="matrix(0.502136 -0.864789 -0.864789 -0.502136 590.637 162)" stroke="white"/>
<line y1="-0.5" x2="38.0789" y2="-0.5" transform="matrix(0.498964 -0.866622 -0.866622 -0.498964 521.641 125)" stroke="white"/>
<defs>
<linearGradient id="paint0_linear_3947_78559" x1="277" y1="155.977" x2="317.699" y2="190.607" gradientUnits="userSpaceOnUse">
<stop stop-color="#5A9FD4"/>
<stop offset="1" stop-color="#306998"/>
</linearGradient>
<linearGradient id="paint1_linear_3947_78559" x1="322.979" y1="220.203" x2="308.368" y2="199.758" gradientUnits="userSpaceOnUse">
<stop stop-color="#FFD43B"/>
<stop offset="1" stop-color="#FFE873"/>
</linearGradient>
</defs>
</svg>
