<svg width="391" height="241" viewBox="0 0 391 241" fill="none" xmlns="http://www.w3.org/2000/svg">
<path d="M53 65.5C26.4639 61.8988 4 86 4 86V201H388V16C388 16 375.52 21.4779 355.785 17.593C320.213 10.5905 322.749 50 291.5 50C268.547 50 260.604 32.4116 230 29.5C199.396 26.5884 188.336 82.8269 139 82C102.041 81.3805 73.1046 68.2284 53 65.5Z" fill="url(#paint0_linear_3948_79275)"/>
<rect x="205" y="27" width="50" height="174" rx="4" fill="#3B1A3D"/>
<g filter="url(#filter0_d_3948_79275)">
<path d="M4.64062 84.828C4.64062 84.828 28.7438 57.9675 54.8961 64.2466C77.2804 69.621 99.0415 79.2474 136 80C185.336 81.0046 197.6 33.7812 228.857 29.8372C260.114 25.8931 267.047 49 290 49C321.249 49 320.213 10.0744 355.784 18.5817C375.519 23.3017 386.5 15 386.5 15" stroke="white" stroke-width="3.19999" stroke-linecap="round"/>
</g>
<rect width="37.0399" height="22.88" transform="translate(211.355 0.5)" fill="#3B1A3D"/>
<rect x="211.355" y="0.5" width="37.0399" height="18.4" rx="9.19999" fill="#7F5481"/>
<path d="M225.217 9.66563C225.617 9.78851 225.927 9.89859 226.147 9.99587C226.367 10.0931 226.559 10.2467 226.723 10.4567C226.887 10.6615 226.968 10.9405 226.968 11.2938C226.968 11.5498 226.904 11.7879 226.776 12.008C226.654 12.2282 226.462 12.4074 226.2 12.5456C225.939 12.6839 225.619 12.753 225.24 12.753H225.217V13.3674H224.979V12.7376C224.493 12.6915 224.096 12.5328 223.789 12.2615C223.482 11.985 223.31 11.6445 223.274 11.24H224.019C224.04 11.4551 224.132 11.6573 224.296 11.8467C224.465 12.0311 224.693 12.1463 224.979 12.1923V10.2263C224.585 10.1085 224.278 10.0035 224.058 9.91139C223.843 9.81411 223.653 9.66307 223.489 9.45827C223.331 9.25347 223.251 8.97955 223.251 8.63651C223.251 8.35491 223.323 8.10659 223.466 7.89155C223.61 7.67651 223.812 7.51011 224.073 7.39236C224.334 7.2746 224.636 7.21572 224.979 7.21572V6.55524H225.217V7.2234C225.694 7.25924 226.072 7.40516 226.354 7.66115C226.636 7.91715 226.802 8.22691 226.853 8.59043H226.101C226.065 8.39587 225.973 8.22179 225.824 8.06819C225.676 7.91459 225.473 7.81731 225.217 7.77635V9.66563ZM224.004 8.60579C224.004 8.86691 224.086 9.06915 224.25 9.21251C224.419 9.35587 224.662 9.48131 224.979 9.58883V7.76099C224.682 7.76099 224.444 7.83523 224.265 7.98371C224.091 8.12707 224.004 8.33443 224.004 8.60579ZM225.225 12.2077C225.543 12.2077 225.788 12.1232 225.962 11.9543C226.136 11.7853 226.223 11.5703 226.223 11.3091C226.223 11.0378 226.136 10.8279 225.962 10.6794C225.788 10.5309 225.54 10.4055 225.217 10.3031V12.2077H225.225ZM231.431 7.83779H228.651V9.65027C228.779 9.47619 228.963 9.33795 229.204 9.23555C229.444 9.13315 229.708 9.08195 229.995 9.08195C230.379 9.08195 230.696 9.16387 230.947 9.32771C231.203 9.48643 231.39 9.69891 231.508 9.96515C231.63 10.2263 231.692 10.5181 231.692 10.8407C231.692 11.3987 231.536 11.8544 231.223 12.2077C230.911 12.561 230.453 12.7376 229.849 12.7376C229.306 12.7376 228.863 12.5917 228.52 12.2999C228.177 12.0029 227.985 11.6061 227.944 11.1095H228.635C228.692 11.4269 228.822 11.6752 229.027 11.8544C229.237 12.0285 229.5 12.1155 229.818 12.1155C230.212 12.1155 230.509 11.9978 230.709 11.7623C230.908 11.5267 231.008 11.217 231.008 10.833C231.008 10.4592 230.906 10.1674 230.701 9.95747C230.496 9.74755 230.207 9.64259 229.833 9.64259C229.567 9.64259 229.334 9.70147 229.134 9.81923C228.935 9.93187 228.784 10.0855 228.681 10.28H228.005V7.21572H231.431V7.83779ZM232.945 11.9927C232.659 11.5063 232.515 10.8279 232.515 9.95747C232.515 9.09219 232.659 8.41891 232.945 7.93763C233.232 7.45123 233.729 7.20804 234.435 7.20804C235.142 7.20804 235.638 7.45123 235.925 7.93763C236.217 8.42403 236.363 9.09731 236.363 9.95747C236.363 10.8279 236.217 11.5063 235.925 11.9927C235.638 12.4791 235.142 12.7223 234.435 12.7223C233.729 12.7223 233.232 12.4791 232.945 11.9927ZM235.572 11.0787C235.638 10.7767 235.672 10.4029 235.672 9.95747C235.672 9.51715 235.638 9.14851 235.572 8.85155C235.51 8.55459 235.39 8.31907 235.211 8.14499C235.032 7.96579 234.773 7.87619 234.435 7.87619C234.102 7.87619 233.846 7.96579 233.667 8.14499C233.488 8.31907 233.365 8.55459 233.299 8.85155C233.237 9.14851 233.206 9.51715 233.206 9.95747C233.206 10.4029 233.237 10.7767 233.299 11.0787C233.365 11.3757 233.488 11.6138 233.667 11.793C233.846 11.9722 234.102 12.0618 234.435 12.0618C234.773 12.0618 235.032 11.9722 235.211 11.793C235.39 11.6138 235.51 11.3757 235.572 11.0787Z" fill="white"/>
<path d="M230.453 22.1539C230.222 22.6427 229.526 22.6427 229.295 22.1539L227.811 19.0123C227.611 18.5877 227.92 18.0989 228.39 18.0989L231.358 18.0989C231.827 18.0989 232.137 18.5877 231.937 19.0123L230.453 22.1539Z" fill="#3B1A3D"/>
<path d="M230 23.3604C233.667 23.3604 236.64 26.3328 236.64 30C236.64 33.6672 233.667 36.6396 230 36.6396C226.333 36.6396 223.36 33.6672 223.36 30C223.36 26.3328 226.333 23.3604 230 23.3604Z" fill="#7F5481" stroke="white" stroke-width="1.28"/>
<defs>
<filter id="filter0_d_3948_79275" x="0.47907" y="13.3984" width="390.182" height="78.1512" filterUnits="userSpaceOnUse" color-interpolation-filters="sRGB">
<feFlood flood-opacity="0" result="BackgroundImageFix"/>
<feColorMatrix in="SourceAlpha" type="matrix" values="0 0 0 0 0 0 0 0 0 0 0 0 0 0 0 0 0 0 127 0" result="hardAlpha"/>
<feOffset dy="2.55999"/>
<feGaussianBlur stdDeviation="1.28"/>
<feComposite in2="hardAlpha" operator="out"/>
<feColorMatrix type="matrix" values="0 0 0 0 0 0 0 0 0 0 0 0 0 0 0 0 0 0 0.25 0"/>
<feBlend mode="normal" in2="BackgroundImageFix" result="effect1_dropShadow_3948_79275"/>
<feBlend mode="normal" in="SourceGraphic" in2="effect1_dropShadow_3948_79275" result="shape"/>
</filter>
<linearGradient id="paint0_linear_3948_79275" x1="196" y1="16.9341" x2="196" y2="174.179" gradientUnits="userSpaceOnUse">
<stop offset="0.208594" stop-color="#4B274D"/>
<stop offset="1" stop-color="#3B1A3D"/>
</linearGradient>
</defs>
</svg>
