<svg width="340" height="286" viewBox="0 0 340 286" fill="none" xmlns="http://www.w3.org/2000/svg">
<path d="M152.361 175.482C94.32 226.963 34.9466 236.496 34.9466 236.496C34.9466 236.496 63.4001 184.449 133.756 148.487C147.979 141.217 162.323 138.575 167.057 145.444C171.792 152.314 164.323 164.871 152.361 175.482Z" fill="#FF6200"/>
<path d="M159.593 162.232C119.027 196.951 79.5577 205.667 79.5577 205.667C79.5577 205.667 100.706 171.988 148.635 146.333C158.326 141.147 167.876 138.829 170.665 142.875C173.454 146.921 167.954 155.076 159.593 162.232Z" fill="#FFB340"/>
<path d="M155.073 163.734C144.584 170.963 131.403 170.032 131.403 170.032C131.403 170.032 135.225 157.383 145.713 150.154C156.201 142.926 167.001 140.4 169.383 143.856C171.764 147.312 165.561 156.506 155.073 163.734Z" fill="#FFEB87"/>
<path d="M244.305 137.306C244.305 137.306 236.902 170.319 209.511 189.198C182.119 208.076 158.949 205.893 158.949 205.893C158.949 205.893 180.745 179.745 171.716 166.645C171.716 166.645 242.218 121.958 244.305 137.306Z" fill="#F15F60"/>
<path d="M209.537 189.183C182.145 208.062 158.975 205.879 158.975 205.879C158.975 205.879 160.524 204.014 162.624 201.045C168.496 201.12 188.487 200.084 211.432 184.27C228.074 172.8 237.335 156.112 242.039 144.789C238.176 155.649 228.798 175.908 209.537 189.183Z" fill="#D6D6D6"/>
<path d="M171.716 166.645C174.063 170.05 174.316 174.338 173.422 178.816C188.333 174.398 209.945 166.508 228.044 154.034C233.381 150.356 238.251 146.606 242.695 142.832C243.834 139.4 244.305 137.305 244.305 137.305C242.218 121.958 171.716 166.645 171.716 166.645Z" fill="#D6D6D6"/>
<path d="M201.984 75.9008C201.984 75.9008 168.498 71.0689 141.106 89.9474C113.715 108.826 107.508 131.256 107.508 131.256C107.508 131.256 139.701 120.193 148.73 133.294C148.73 133.294 215.584 83.3143 201.984 75.9008Z" fill="#F15F60"/>
<path d="M196.929 91.0454C200.066 86.3537 200.92 82.7323 197.958 81.1197C197.958 81.1197 164.468 76.2822 137.076 95.1607C128.375 101.158 121.81 107.521 116.902 113.398C122.044 106.212 129.753 97.772 141.107 89.947C168.499 71.0684 201.983 75.898 201.983 75.898C205.965 78.0726 203.056 83.8949 196.929 91.0454Z" fill="#F15F60"/>
<path d="M305.135 50.1025C305.135 50.1025 259.364 36.3657 202 75.9012C170.896 97.338 148.746 133.294 148.746 133.294L160.237 149.967L171.728 166.641C171.728 166.641 213.214 158.738 244.317 137.302C301.681 97.766 305.135 50.1025 305.135 50.1025Z" fill="#DBDBDB"/>
<path d="M160.245 149.966L148.754 133.293L141.316 143.104L150.618 156.601L159.921 170.098L171.737 166.639L160.245 149.966Z" fill="#5D3C47"/>
<path d="M271.277 48.5405L294.541 82.2958C304.155 63.6495 305.14 50.096 305.14 50.096C305.14 50.096 292.123 46.1932 271.277 48.5405Z" fill="#F15F60"/>
<path d="M298.435 73.9845C298.446 73.9581 298.456 73.9323 298.467 73.9059C298.674 73.4156 298.874 72.9311 299.067 72.4523C299.089 72.3987 299.111 72.3452 299.132 72.2908C299.313 71.8416 299.489 71.3957 299.66 70.9571C299.688 70.8866 299.713 70.8172 299.741 70.748C299.903 70.3272 300.061 69.9112 300.214 69.4999C300.243 69.4213 300.272 69.3441 300.301 69.2669C300.45 68.8645 300.594 68.4675 300.734 68.0751C300.761 67.9976 300.788 67.9215 300.815 67.8446C300.954 67.4527 301.087 67.0669 301.218 66.6853C301.242 66.6148 301.266 66.543 301.29 66.4726C301.422 66.0843 301.548 65.7021 301.67 65.3252C301.689 65.2676 301.708 65.2101 301.726 65.1531C301.851 64.765 301.972 64.3838 302.089 64.0086C302.102 63.964 302.117 63.9189 302.13 63.8748C302.25 63.4838 302.366 63.0995 302.478 62.7222C302.486 62.6972 302.493 62.6709 302.502 62.6454C303.343 59.7878 303.923 57.3363 304.318 55.379C304.318 55.375 304.319 55.371 304.321 55.3664C304.375 55.0984 304.425 54.84 304.473 54.5916C304.479 54.5594 304.484 54.5285 304.491 54.4972C304.532 54.2767 304.572 54.0629 304.609 53.8574C304.616 53.8172 304.623 53.7783 304.629 53.7378C304.663 53.5458 304.695 53.3597 304.725 53.1821C304.732 53.1398 304.738 53.0993 304.746 53.0577C304.774 52.8888 304.8 52.7265 304.824 52.5716C304.832 52.5279 304.838 52.4852 304.845 52.4429C304.866 52.2978 304.888 52.1589 304.907 52.0273C304.914 51.9842 304.92 51.9423 304.926 51.9011C304.944 51.7761 304.96 51.6585 304.975 51.5462C304.981 51.507 304.985 51.4676 304.99 51.4304C305.004 51.3234 305.017 51.2245 305.028 51.131C305.033 51.0964 305.037 51.0619 305.041 51.0286C305.052 50.9378 305.062 50.8563 305.07 50.7789C305.074 50.7532 305.077 50.7253 305.079 50.7015C305.087 50.6219 305.095 50.5533 305.101 50.4893C305.103 50.4756 305.104 50.4593 305.106 50.4464C305.112 50.3872 305.117 50.3382 305.121 50.2946C305.122 50.2809 305.123 50.2659 305.125 50.2544C305.127 50.2222 305.129 50.2019 305.131 50.1799C305.135 50.1363 305.137 50.1055 305.137 50.1055C305.137 50.1055 305.127 50.1251 305.113 50.1545C305.106 50.1685 305.1 50.1825 305.09 50.2036C305.085 50.2111 305.081 50.2213 305.076 50.2302C305.062 50.2588 305.046 50.2912 305.026 50.3305C305.022 50.3394 305.016 50.3502 305.012 50.3591C304.991 50.4017 304.967 50.4472 304.94 50.4998C304.931 50.5163 304.923 50.5341 304.914 50.5518C304.887 50.6031 304.859 50.6575 304.827 50.7182C304.815 50.7403 304.803 50.7638 304.791 50.7864C304.758 50.849 304.723 50.9153 304.685 50.9873C304.672 51.0127 304.657 51.0391 304.643 51.065C304.603 51.14 304.56 51.2196 304.514 51.3032C304.498 51.3315 304.482 51.3599 304.467 51.3882C304.418 51.4769 304.367 51.5708 304.311 51.6688C304.295 51.6976 304.279 51.726 304.262 51.7562C304.204 51.8611 304.141 51.9709 304.076 52.0859C304.061 52.1142 304.045 52.1418 304.028 52.1706C303.959 52.2918 303.886 52.4183 303.81 52.5492C303.794 52.5768 303.779 52.6032 303.763 52.6308C303.682 52.7711 303.595 52.9174 303.506 53.068C303.493 53.0899 303.481 53.1099 303.468 53.1331C303.366 53.3037 303.26 53.481 303.148 53.6657C303.147 53.6682 303.145 53.6714 303.143 53.6744C302.326 55.0217 301.235 56.7295 299.825 58.7613C299.812 58.7791 299.799 58.7975 299.786 58.8159C299.6 59.0847 299.408 59.3578 299.21 59.6382C299.187 59.6701 299.165 59.702 299.142 59.7339C298.952 60.0025 298.757 60.2759 298.557 60.5545C298.528 60.5956 298.497 60.6364 298.467 60.6781C298.271 60.9491 298.071 61.2243 297.866 61.5048C297.828 61.5554 297.791 61.6068 297.753 61.6587C297.551 61.9341 297.343 62.2142 297.131 62.4988C297.089 62.5543 297.047 62.6103 297.006 62.6658C296.792 62.951 296.573 63.24 296.35 63.5337C296.307 63.5903 296.264 63.6468 296.22 63.7039C295.991 64.0036 295.756 64.3092 295.516 64.6178C295.476 64.6687 295.437 64.7199 295.397 64.7713C295.146 65.094 294.889 65.4224 294.627 65.7541C294.596 65.7942 294.564 65.8335 294.533 65.8727C294.252 66.2266 293.965 66.5857 293.673 66.9492C293.657 66.9684 293.642 66.9879 293.626 67.0072C283.217 79.9193 264.558 99.1538 233.012 120.895C201.908 142.332 165.59 157.732 165.59 157.732L154.944 162.888L159.915 170.1L171.73 166.641C171.73 166.641 213.216 158.739 244.319 137.302C275.864 115.561 291.104 91.3635 298.435 73.9845Z" fill="#D6D6D6"/>
<path d="M280.434 47.8649C280.462 47.864 280.49 47.8635 280.519 47.8626C281.05 47.8439 281.574 47.8294 282.091 47.819C282.148 47.8179 282.206 47.8167 282.264 47.8163C282.749 47.807 283.228 47.8009 283.699 47.7974C283.775 47.7967 283.849 47.7972 283.923 47.7963C284.374 47.7947 284.819 47.7948 285.258 47.7979C285.342 47.7988 285.424 47.7993 285.506 47.7999C285.936 47.804 286.358 47.8103 286.774 47.8197C286.856 47.8216 286.937 47.8233 287.019 47.8258C287.434 47.8357 287.842 47.8484 288.245 47.8622C288.32 47.8648 288.395 47.8677 288.47 47.8703C288.879 47.8853 289.282 47.9032 289.677 47.9233C289.738 47.9261 289.798 47.9289 289.858 47.9323C290.265 47.9538 290.665 47.976 291.057 48.001C291.103 48.004 291.151 48.0065 291.196 48.01C291.605 48.0366 292.005 48.0652 292.398 48.0945C292.424 48.0965 292.451 48.0987 292.478 48.1002C295.447 48.3312 297.945 48.6617 299.914 48.9894C299.919 48.9902 299.923 48.9909 299.927 48.9911C300.197 49.0359 300.456 49.0808 300.706 49.1246C300.738 49.1305 300.769 49.1362 300.8 49.1413C301.021 49.1812 301.235 49.2199 301.44 49.259C301.48 49.2664 301.519 49.2736 301.559 49.2823C301.751 49.3189 301.936 49.3551 302.113 49.3904C302.155 49.3988 302.195 49.4076 302.236 49.4152C302.404 49.4495 302.565 49.4826 302.718 49.515C302.762 49.5237 302.804 49.5335 302.846 49.5419C302.989 49.5732 303.127 49.6026 303.257 49.6314C303.299 49.6406 303.341 49.6496 303.381 49.6591C303.504 49.6866 303.62 49.7135 303.73 49.7393C303.769 49.7478 303.807 49.7576 303.844 49.7664C303.949 49.7913 304.046 49.8147 304.137 49.8371C304.171 49.8454 304.205 49.8537 304.237 49.8617C304.326 49.8836 304.406 49.9038 304.481 49.9232C304.507 49.9293 304.534 49.9363 304.557 49.9427C304.634 49.9631 304.701 49.9803 304.763 49.9973C304.776 50.0011 304.792 50.0054 304.805 50.0084C304.862 50.0238 304.91 50.0367 304.952 50.0486C304.965 50.0524 304.979 50.0565 304.991 50.0593C305.022 50.0684 305.042 50.0735 305.063 50.0801C305.105 50.092 305.134 50.1009 305.134 50.1009C305.134 50.1009 305.11 50.0992 305.073 50.096C305.056 50.0949 305.039 50.0938 305.013 50.0918C305.004 50.0914 304.991 50.0905 304.98 50.0899C304.945 50.0875 304.904 50.0849 304.856 50.0822C304.845 50.0816 304.831 50.0813 304.82 50.0798C304.768 50.0772 304.71 50.0735 304.645 50.0705C304.624 50.0695 304.602 50.0682 304.581 50.0677C304.517 50.065 304.449 50.0615 304.373 50.0586C304.346 50.0577 304.317 50.0566 304.288 50.0554C304.209 50.0521 304.127 50.0493 304.038 50.0475C304.007 50.0467 303.973 50.0461 303.941 50.045C303.847 50.0422 303.748 50.0399 303.642 50.0378C303.607 50.0376 303.571 50.0365 303.535 50.0355C303.424 50.0337 303.306 50.0315 303.183 50.031C303.146 50.0305 303.111 50.0303 303.074 50.0303C302.942 50.0297 302.803 50.0291 302.659 50.0289C302.624 50.0287 302.589 50.0292 302.553 50.0295C302.401 50.03 302.242 50.0311 302.077 50.0334C302.042 50.0339 302.009 50.0342 301.975 50.0347C301.798 50.0369 301.613 50.0403 301.423 50.0448C301.395 50.0453 301.37 50.0454 301.341 50.0472C301.126 50.0526 300.902 50.0585 300.669 50.0669C300.665 50.067 300.662 50.067 300.658 50.0676C298.953 50.1255 296.779 50.2637 294.168 50.5535C294.146 50.5563 294.122 50.5588 294.098 50.5613C293.753 50.5998 293.401 50.6411 293.04 50.6857C292.999 50.6906 292.958 50.6955 292.917 50.7004C292.571 50.7435 292.219 50.7882 291.86 50.8366C291.807 50.8436 291.754 50.8511 291.7 50.8578C291.349 50.9049 290.994 50.9546 290.632 51.0072C290.566 51.0165 290.5 51.0266 290.433 51.0365C290.077 51.0888 289.714 51.1442 289.345 51.2017C289.273 51.2127 289.2 51.2243 289.128 51.2353C288.759 51.2942 288.383 51.3554 288.001 51.4196C287.928 51.4317 287.854 51.4446 287.78 51.4573C287.39 51.5235 286.993 51.5933 286.59 51.6661C286.523 51.6781 286.457 51.6895 286.39 51.7021C285.97 51.7787 285.542 51.8594 285.108 51.9426C285.056 51.9524 285.005 51.9623 284.953 51.9722C284.49 52.0618 284.021 52.1557 283.545 52.2532C283.519 52.2581 283.494 52.2633 283.468 52.2683C266.561 55.7513 240.683 64.5119 209.137 86.2534C178.034 107.69 152.622 138.915 152.622 138.915L144.446 147.655L141.309 143.104L148.747 133.293C148.747 133.293 170.898 97.3369 202.002 75.9001C233.546 54.1592 261.584 48.5294 280.434 47.8649Z" fill="#4F4F4F"/>
<path d="M267.658 93.8785C267.291 90.6946 266.168 87.5512 264.222 84.7279C257.875 75.5195 245.266 73.1995 236.057 79.546C226.849 85.8925 224.529 98.5021 230.875 107.711C233.413 111.393 236.96 113.953 240.884 115.318C251.315 107.756 260.172 100.553 267.658 93.8785Z" fill="#D6D6D6"/>
<path d="M229.246 102.402C235.593 111.61 248.203 113.93 257.411 107.584C266.619 101.237 268.939 88.6277 262.593 79.4193C256.246 70.2109 243.637 67.8909 234.428 74.2374C225.22 80.5839 222.9 93.1936 229.246 102.402Z" fill="#5D3C47"/>
<path d="M252.444 104.534C259.964 100.921 263.131 91.8954 259.518 84.3752C255.904 76.855 246.879 73.6879 239.359 77.3012C231.838 80.9146 228.671 89.9401 232.285 97.4602C235.898 104.98 244.924 108.147 252.444 104.534Z" fill="#4392B1"/>
<path d="M258.356 82.3439C258.218 82.1438 258.063 81.9627 257.917 81.7716L231.319 87.0747C230.8 89.0481 230.688 91.1155 230.991 93.1535L260.56 87.2573C260.133 85.548 259.415 83.881 258.356 82.3439Z" fill="#719499"/>
<path d="M232.643 83.715C232.237 84.468 231.9 85.2505 231.628 86.0539L257.267 80.9416C256.698 80.2914 256.082 79.7017 255.428 79.171L232.643 83.715Z" fill="#719499"/>
</svg>
