<svg width="794" height="794" viewBox="0 0 794 794" fill="none" xmlns="http://www.w3.org/2000/svg">
<path d="M628.585 297.751C628.585 345.722 614.359 389.723 589.877 426.446C554.147 479.379 497.575 516.763 431.739 526.357C420.49 528.342 408.911 529.335 397.001 529.335C385.091 529.335 373.512 528.342 362.264 526.357C296.428 516.763 239.855 479.379 204.125 426.446C179.644 389.723 165.418 345.722 165.418 297.751C165.418 169.719 268.969 66.168 397.001 66.168C525.034 66.168 628.585 169.719 628.585 297.751Z" stroke="#292D32" stroke-width="4.5" stroke-linecap="round" stroke-linejoin="round"/>
<path d="M703.02 611.048L648.432 623.95C636.191 626.927 626.597 636.191 623.95 648.432L612.371 697.065C606.085 723.531 572.34 731.471 554.806 710.629L396.999 529.332L239.191 710.959C221.657 731.802 187.912 723.862 181.626 697.395L170.047 648.762C167.07 636.521 157.475 626.928 145.565 624.281L90.9779 611.379C65.8346 605.424 56.9021 573.994 75.0979 555.798L204.123 426.773C239.853 479.707 296.425 517.092 362.261 526.686C373.51 528.671 385.089 529.663 396.999 529.663C408.909 529.663 420.488 528.671 431.736 526.686C497.572 517.092 554.145 479.707 589.875 426.773L718.9 555.798C737.095 573.663 728.163 605.093 703.02 611.048Z" stroke="#292D32" stroke-width="4.5" stroke-linecap="round" stroke-linejoin="round"/>
<path d="M416.188 197.837L435.707 236.875C438.354 242.168 445.302 247.462 451.587 248.454L486.987 254.409C509.483 258.048 514.777 274.59 498.566 290.801L471.107 318.26C466.475 322.892 463.828 331.825 465.482 338.441L473.422 372.517C479.708 399.314 465.482 409.901 441.662 395.675L408.579 376.156C402.624 372.516 392.699 372.516 386.744 376.156L353.661 395.675C329.841 409.57 315.615 399.314 321.901 372.517L329.841 338.441C331.164 332.155 328.848 322.892 324.217 318.26L296.757 290.801C280.547 274.59 285.84 258.379 308.337 254.409L343.736 248.454C349.691 247.462 356.638 242.168 359.285 236.875L378.804 197.837C388.398 176.664 405.602 176.664 416.188 197.837Z" stroke="#292D32" stroke-width="4.5" stroke-linecap="round" stroke-linejoin="round"/>
</svg>
