<svg width="794" height="794" viewBox="0 0 794 794" fill="none" xmlns="http://www.w3.org/2000/svg">
<path d="M661.667 463.165C698.21 463.165 727.833 433.542 727.833 396.999C727.833 360.456 698.21 330.832 661.667 330.832C625.124 330.832 595.5 360.456 595.5 396.999C595.5 433.542 625.124 463.165 661.667 463.165Z" stroke="#292D32" stroke-width="4.5" stroke-linecap="round" stroke-linejoin="round"/>
<path d="M661.667 198.501C698.21 198.501 727.833 168.877 727.833 132.335C727.833 95.7918 698.21 66.168 661.667 66.168C625.124 66.168 595.5 95.7918 595.5 132.335C595.5 168.877 625.124 198.501 661.667 198.501Z" stroke="#292D32" stroke-width="4.5" stroke-linecap="round" stroke-linejoin="round"/>
<path d="M661.667 727.833C698.21 727.833 727.833 698.21 727.833 661.667C727.833 625.124 698.21 595.5 661.667 595.5C625.124 595.5 595.5 625.124 595.5 661.667C595.5 698.21 625.124 727.833 661.667 727.833Z" stroke="#292D32" stroke-width="4.5" stroke-linecap="round" stroke-linejoin="round"/>
<path d="M132.335 463.165C168.877 463.165 198.501 433.542 198.501 396.999C198.501 360.456 168.877 330.832 132.335 330.832C95.7918 330.832 66.168 360.456 66.168 396.999C66.168 433.542 95.7918 463.165 132.335 463.165Z" stroke="#292D32" stroke-width="4.5" stroke-linecap="round" stroke-linejoin="round"/>
<path d="M198.5 397H595.5" stroke="#292D32" stroke-width="4.5" stroke-linecap="round" stroke-linejoin="round"/>
<path d="M595.501 132.332H463.168C397.001 132.332 363.918 165.415 363.918 231.582V562.415C363.918 628.582 397.001 661.665 463.168 661.665H595.501" stroke="#292D32" stroke-width="4.5" stroke-linecap="round" stroke-linejoin="round"/>
</svg>
