<svg width="1920" height="1988" viewBox="0 0 1920 1988" fill="none" xmlns="http://www.w3.org/2000/svg">
<g opacity="0.3">
<path d="M-90.5 684.293C16.2421 684.293 102.75 766.22 102.75 867.253C102.75 968.286 16.242 1050.21 -90.5 1050.21C-197.242 1050.21 -283.75 968.286 -283.75 867.253C-283.75 766.22 -197.242 684.293 -90.5 684.293Z" stroke="#585858" stroke-width="0.5"/>
<path d="M-90.5 689.898C12.9733 689.899 96.8311 769.317 96.8311 867.255C96.8308 965.193 12.9731 1044.61 -90.5 1044.61C-193.973 1044.61 -277.832 965.193 -277.832 867.255C-277.832 769.317 -193.973 689.898 -90.5 689.898Z" stroke="#585858" stroke-width="0.5"/>
<path d="M-90.4971 695.5C9.7076 695.5 90.9158 772.409 90.916 867.252C90.916 962.095 9.70776 1039 -90.4971 1039C-190.702 1039 -271.91 962.095 -271.91 867.252C-271.91 772.409 -190.702 695.5 -90.4971 695.5Z" stroke="#585858" stroke-width="0.5"/>
<path d="M-90.501 701.102C6.43503 701.102 84.994 775.501 84.9941 867.25C84.9941 958.999 6.43513 1033.4 -90.501 1033.4C-187.437 1033.4 -265.996 958.999 -265.996 867.25C-265.996 775.501 -187.437 701.102 -90.501 701.102Z" stroke="#585858" stroke-width="0.5"/>
<path d="M-90.502 706.707C3.16557 706.707 79.0751 778.598 79.0752 867.252C79.0752 955.906 3.16561 1027.8 -90.502 1027.8C-184.169 1027.8 -260.078 955.906 -260.078 867.252C-260.078 778.598 -184.169 706.707 -90.502 706.707Z" stroke="#585858" stroke-width="0.5"/>
<path d="M-90.498 712.312C-0.0991649 712.313 73.1601 781.695 73.1602 867.254C73.1602 952.813 -0.0991487 1022.2 -90.498 1022.2C-180.897 1022.2 -254.156 952.813 -254.156 867.254C-254.156 781.695 -180.897 712.312 -90.498 712.312Z" stroke="#585858" stroke-width="0.5"/>
<path d="M-90.502 717.914C-3.37189 717.914 67.2373 784.788 67.2373 867.252C67.2372 949.716 -3.37194 1016.59 -90.502 1016.59C-177.632 1016.59 -248.242 949.716 -248.242 867.252C-248.242 784.788 -177.632 717.914 -90.502 717.914Z" stroke="#585858" stroke-width="0.5"/>
<path d="M-90.499 723.52C-6.63735 723.52 61.3223 787.884 61.3223 867.254C61.3222 946.623 -6.63742 1010.99 -90.499 1010.99C-174.361 1010.99 -242.32 946.623 -242.32 867.254C-242.32 787.884 -174.361 723.52 -90.499 723.52Z" stroke="#585858" stroke-width="0.5"/>
<path d="M-90.499 729.125C-9.90593 729.125 55.4043 790.981 55.4043 867.256C55.4042 943.531 -9.90598 1005.39 -90.499 1005.39C-171.092 1005.39 -236.402 943.531 -236.402 867.256C-236.402 790.981 -171.092 729.125 -90.499 729.125Z" stroke="#585858" stroke-width="0.5"/>
<path d="M-90.5 734.727C-13.1755 734.727 49.4854 794.074 49.4854 867.254C49.4852 940.434 -13.1755 999.781 -90.5 999.781C-167.824 999.781 -230.484 940.434 -230.484 867.254C-230.484 794.074 -167.824 734.727 -90.5 734.727Z" stroke="#585858" stroke-width="0.5"/>
<path d="M-90.5 740.328C-16.4441 740.328 43.5664 797.167 43.5664 867.252C43.5662 937.337 -16.4442 994.175 -90.5 994.175C-164.556 994.175 -224.566 937.337 -224.566 867.252C-224.566 797.167 -164.556 740.328 -90.5 740.328Z" stroke="#585858" stroke-width="0.5"/>
<path d="M-90.5 745.934C-19.7131 745.934 37.6472 800.263 37.6475 867.253C37.6475 934.243 -19.7129 988.573 -90.5 988.573C-161.287 988.573 -218.648 934.243 -218.648 867.253C-218.648 800.263 -161.287 745.934 -90.5 745.934Z" stroke="#585858" stroke-width="0.5"/>
<path d="M-90.5049 751.535C-22.9864 751.535 31.7244 803.356 31.7246 867.251C31.7246 931.147 -22.9863 982.968 -90.5049 982.968C-158.023 982.968 -212.734 931.146 -212.734 867.251C-212.734 803.356 -158.023 751.535 -90.5049 751.535Z" stroke="#585858" stroke-width="0.5"/>
<path d="M-90.501 757.141C-26.2512 757.141 25.8104 806.452 25.8105 867.253C25.8105 928.054 -26.2511 977.365 -90.501 977.365C-154.751 977.365 -206.812 928.054 -206.812 867.253C-206.812 806.452 -154.751 757.141 -90.501 757.141Z" stroke="#585858" stroke-width="0.5"/>
<path d="M-90.502 762.742C-29.5206 762.742 19.8915 809.545 19.8916 867.251C19.8916 924.957 -29.5206 971.76 -90.502 971.76C-151.483 971.76 -200.895 924.957 -200.895 867.251C-200.894 809.545 -151.483 762.742 -90.502 762.742Z" stroke="#585858" stroke-width="0.5"/>
<path d="M-90.502 768.348C-32.7892 768.348 13.9727 812.642 13.9727 867.253C13.9727 921.864 -32.7892 966.158 -90.502 966.158C-148.215 966.158 -194.977 921.864 -194.977 867.253C-194.977 812.642 -148.215 768.348 -90.502 768.348Z" stroke="#585858" stroke-width="0.5"/>
<path d="M-90.498 773.953C-36.0541 773.953 8.05762 815.739 8.05762 867.255C8.05755 918.771 -36.0542 960.556 -90.498 960.557C-144.942 960.557 -189.055 918.771 -189.055 867.255C-189.055 815.739 -144.942 773.953 -90.498 773.953Z" stroke="#585858" stroke-width="0.5"/>
<path d="M-90.5029 779.555C-39.3274 779.555 2.13477 818.831 2.13477 867.253C2.1346 915.674 -39.3275 954.95 -90.5029 954.95C-141.678 954.95 -183.14 915.674 -183.141 867.253C-183.141 818.831 -141.678 779.555 -90.5029 779.555Z" stroke="#585858" stroke-width="0.5"/>
<path d="M1570 1057.02C1657.9 948.955 1816.64 916.749 1954.48 944.617C2092.32 972.485 2213.77 1050.32 2328.04 1131.08C2442.31 1211.84 2555.23 1298.26 2686.67 1347.66C2791.66 1387.12 2906.31 1401.45 3017.99 1389.09C3178.2 1371.36 3366.23 1263.47 3435.04 1114.25" stroke="#202020" stroke-width="2" stroke-miterlimit="10"/>
<path d="M1596.44 1039.5C1665.13 1019.81 1744.1 1029.24 1815.04 1044.78C1908.23 1065.2 1998.62 1096.67 2064.44 1146.1C2179.46 1232.47 2213.32 1424.78 2021.02 1473.83C1923.45 1498.71 1834.96 1484.68 1744.2 1454.49C1709.5 1442.95 1675.5 1430.1 1638.73 1422.08C1601.96 1414.06 1561.44 1411.16 1525 1419.85" stroke="#202020" stroke-width="2" stroke-miterlimit="10"/>
<path d="M2.87268 1293.87H-13.9141" stroke="#5A5A5A" stroke-width="2" stroke-miterlimit="10"/>
<path d="M32.5586 1285.92V1301.82" stroke="#5A5A5A" stroke-width="2" stroke-miterlimit="10"/>
<path d="M40.9541 1293.87H24.1641" stroke="#5A5A5A" stroke-width="2" stroke-miterlimit="10"/>
<path d="M70.6484 1285.92V1301.82" stroke="#5A5A5A" stroke-width="2" stroke-miterlimit="10"/>
<path d="M79.0401 1293.87H62.25" stroke="#5A5A5A" stroke-width="2" stroke-miterlimit="10"/>
<path d="M2.87268 1326.8H-13.9141" stroke="#5A5A5A" stroke-width="2" stroke-miterlimit="10"/>
<path d="M32.5586 1318.85V1334.74" stroke="#5A5A5A" stroke-width="2" stroke-miterlimit="10"/>
<path d="M40.9541 1326.8H24.1641" stroke="#5A5A5A" stroke-width="2" stroke-miterlimit="10"/>
<path d="M70.6484 1318.85V1334.74" stroke="#5A5A5A" stroke-width="2" stroke-miterlimit="10"/>
<path d="M79.0401 1326.8H62.25" stroke="#5A5A5A" stroke-width="2" stroke-miterlimit="10"/>
<path d="M2.87268 1359.72H-13.9141" stroke="#5A5A5A" stroke-width="2" stroke-miterlimit="10"/>
<path d="M32.5586 1351.77V1367.67" stroke="#5A5A5A" stroke-width="2" stroke-miterlimit="10"/>
<path d="M40.9541 1359.72H24.1641" stroke="#5A5A5A" stroke-width="2" stroke-miterlimit="10"/>
<path d="M70.6484 1351.77V1367.67" stroke="#5A5A5A" stroke-width="2" stroke-miterlimit="10"/>
<path d="M79.0401 1359.72H62.25" stroke="#5A5A5A" stroke-width="2" stroke-miterlimit="10"/>
<path d="M2.87268 1392.65H-13.9141" stroke="#5A5A5A" stroke-width="2" stroke-miterlimit="10"/>
<path d="M32.5586 1384.7V1400.6" stroke="#5A5A5A" stroke-width="2" stroke-miterlimit="10"/>
<path d="M40.9541 1392.65H24.1641" stroke="#5A5A5A" stroke-width="2" stroke-miterlimit="10"/>
<path d="M70.6484 1384.7V1400.6" stroke="#5A5A5A" stroke-width="2" stroke-miterlimit="10"/>
<path d="M79.0401 1392.65H62.25" stroke="#5A5A5A" stroke-width="2" stroke-miterlimit="10"/>
<path d="M1636.78 616.231C1639.43 616.231 1641.57 614.203 1641.57 611.702C1641.57 609.2 1639.43 607.172 1636.78 607.172C1634.14 607.172 1632 609.2 1632 611.702C1632 614.203 1634.14 616.231 1636.78 616.231Z" stroke="#3A3A3A" stroke-width="3" stroke-miterlimit="10"/>
<path d="M1667.32 616.231C1669.96 616.231 1672.1 614.203 1672.1 611.702C1672.1 609.2 1669.96 607.172 1667.32 607.172C1664.67 607.172 1662.53 609.2 1662.53 611.702C1662.53 614.203 1664.67 616.231 1667.32 616.231Z" stroke="#3A3A3A" stroke-width="3" stroke-miterlimit="10"/>
<path d="M1697.84 616.231C1700.48 616.231 1702.62 614.203 1702.62 611.702C1702.62 609.2 1700.48 607.172 1697.84 607.172C1695.2 607.172 1693.05 609.2 1693.05 611.702C1693.05 614.203 1695.2 616.231 1697.84 616.231Z" stroke="#3A3A3A" stroke-width="3" stroke-miterlimit="10"/>
<path d="M1728.37 616.231C1731.01 616.231 1733.15 614.203 1733.15 611.702C1733.15 609.2 1731.01 607.172 1728.37 607.172C1725.73 607.172 1723.59 609.2 1723.59 611.702C1723.59 614.203 1725.73 616.231 1728.37 616.231Z" stroke="#3A3A3A" stroke-width="3" stroke-miterlimit="10"/>
<path d="M1758.9 616.231C1761.54 616.231 1763.68 614.203 1763.68 611.702C1763.68 609.2 1761.54 607.172 1758.9 607.172C1756.26 607.172 1754.11 609.2 1754.11 611.702C1754.11 614.203 1756.26 616.231 1758.9 616.231Z" stroke="#3A3A3A" stroke-width="3" stroke-miterlimit="10"/>
<path d="M1636.78 644.474C1639.43 644.474 1641.57 642.446 1641.57 639.944C1641.57 637.442 1639.43 635.414 1636.78 635.414C1634.14 635.414 1632 637.442 1632 639.944C1632 642.446 1634.14 644.474 1636.78 644.474Z" stroke="#3A3A3A" stroke-width="3" stroke-miterlimit="10"/>
<path d="M1667.32 644.474C1669.96 644.474 1672.1 642.446 1672.1 639.944C1672.1 637.442 1669.96 635.414 1667.32 635.414C1664.67 635.414 1662.53 637.442 1662.53 639.944C1662.53 642.446 1664.67 644.474 1667.32 644.474Z" stroke="#3A3A3A" stroke-width="3" stroke-miterlimit="10"/>
<path d="M1697.84 644.474C1700.48 644.474 1702.62 642.446 1702.62 639.944C1702.62 637.442 1700.48 635.414 1697.84 635.414C1695.2 635.414 1693.05 637.442 1693.05 639.944C1693.05 642.446 1695.2 644.474 1697.84 644.474Z" stroke="#3A3A3A" stroke-width="3" stroke-miterlimit="10"/>
<path d="M1728.37 644.474C1731.01 644.474 1733.15 642.446 1733.15 639.944C1733.15 637.442 1731.01 635.414 1728.37 635.414C1725.73 635.414 1723.59 637.442 1723.59 639.944C1723.59 642.446 1725.73 644.474 1728.37 644.474Z" stroke="#3A3A3A" stroke-width="3" stroke-miterlimit="10"/>
<path d="M1758.9 644.474C1761.54 644.474 1763.68 642.446 1763.68 639.944C1763.68 637.442 1761.54 635.414 1758.9 635.414C1756.26 635.414 1754.11 637.442 1754.11 639.944C1754.11 642.446 1756.26 644.474 1758.9 644.474Z" stroke="#3A3A3A" stroke-width="3" stroke-miterlimit="10"/>
<path d="M1636.78 672.708C1639.43 672.708 1641.57 670.68 1641.57 668.178C1641.57 665.676 1639.43 663.648 1636.78 663.648C1634.14 663.648 1632 665.676 1632 668.178C1632 670.68 1634.14 672.708 1636.78 672.708Z" stroke="#3A3A3A" stroke-width="3" stroke-miterlimit="10"/>
<path d="M1667.32 672.708C1669.96 672.708 1672.1 670.68 1672.1 668.178C1672.1 665.676 1669.96 663.648 1667.32 663.648C1664.67 663.648 1662.53 665.676 1662.53 668.178C1662.53 670.68 1664.67 672.708 1667.32 672.708Z" stroke="#3A3A3A" stroke-width="3" stroke-miterlimit="10"/>
<path d="M1697.84 672.708C1700.48 672.708 1702.62 670.68 1702.62 668.178C1702.62 665.676 1700.48 663.648 1697.84 663.648C1695.2 663.648 1693.05 665.676 1693.05 668.178C1693.05 670.68 1695.2 672.708 1697.84 672.708Z" stroke="#3A3A3A" stroke-width="3" stroke-miterlimit="10"/>
<path d="M1728.37 672.708C1731.01 672.708 1733.15 670.68 1733.15 668.178C1733.15 665.676 1731.01 663.648 1728.37 663.648C1725.73 663.648 1723.59 665.676 1723.59 668.178C1723.59 670.68 1725.73 672.708 1728.37 672.708Z" stroke="#3A3A3A" stroke-width="3" stroke-miterlimit="10"/>
<path d="M1758.9 672.708C1761.54 672.708 1763.68 670.68 1763.68 668.178C1763.68 665.676 1761.54 663.648 1758.9 663.648C1756.26 663.648 1754.11 665.676 1754.11 668.178C1754.11 670.68 1756.26 672.708 1758.9 672.708Z" stroke="#3A3A3A" stroke-width="3" stroke-miterlimit="10"/>
<path d="M1636.78 700.95C1639.43 700.95 1641.57 698.922 1641.57 696.42C1641.57 693.919 1639.43 691.891 1636.78 691.891C1634.14 691.891 1632 693.919 1632 696.42C1632 698.922 1634.14 700.95 1636.78 700.95Z" stroke="#3A3A3A" stroke-width="3" stroke-miterlimit="10"/>
<path d="M1667.32 700.95C1669.96 700.95 1672.1 698.922 1672.1 696.42C1672.1 693.919 1669.96 691.891 1667.32 691.891C1664.67 691.891 1662.53 693.919 1662.53 696.42C1662.53 698.922 1664.67 700.95 1667.32 700.95Z" stroke="#3A3A3A" stroke-width="3" stroke-miterlimit="10"/>
<path d="M1697.84 700.95C1700.48 700.95 1702.62 698.922 1702.62 696.42C1702.62 693.919 1700.48 691.891 1697.84 691.891C1695.2 691.891 1693.05 693.919 1693.05 696.42C1693.05 698.922 1695.2 700.95 1697.84 700.95Z" stroke="#3A3A3A" stroke-width="3" stroke-miterlimit="10"/>
<path d="M1728.37 700.95C1731.01 700.95 1733.15 698.922 1733.15 696.42C1733.15 693.919 1731.01 691.891 1728.37 691.891C1725.73 691.891 1723.59 693.919 1723.59 696.42C1723.59 698.922 1725.73 700.95 1728.37 700.95Z" stroke="#3A3A3A" stroke-width="3" stroke-miterlimit="10"/>
<path d="M1758.9 700.95C1761.54 700.95 1763.68 698.922 1763.68 696.42C1763.68 693.919 1761.54 691.891 1758.9 691.891C1756.26 691.891 1754.11 693.919 1754.11 696.42C1754.11 698.922 1756.26 700.95 1758.9 700.95Z" stroke="#3A3A3A" stroke-width="3" stroke-miterlimit="10"/>
<path d="M1822 1086.16C1950.56 1086.16 2054.75 1184.84 2054.75 1306.52C2054.75 1428.21 1950.56 1526.88 1822 1526.88C1693.44 1526.88 1589.25 1428.21 1589.25 1306.52C1589.25 1184.84 1693.44 1086.16 1822 1086.16Z" stroke="#585858" stroke-width="0.5"/>
<path d="M1822 1092.91C1946.62 1092.91 2047.63 1188.56 2047.63 1306.52C2047.63 1424.48 1946.62 1520.13 1822 1520.13C1697.38 1520.13 1596.38 1424.48 1596.38 1306.52C1596.38 1188.56 1697.38 1092.91 1822 1092.91Z" stroke="#585858" stroke-width="0.5"/>
<path d="M1822 1099.66C1942.69 1099.66 2040.5 1192.29 2040.5 1306.53C2040.5 1420.76 1942.69 1513.39 1822 1513.39C1701.32 1513.39 1603.51 1420.76 1603.51 1306.53C1603.51 1192.29 1701.32 1099.66 1822 1099.66Z" stroke="#585858" stroke-width="0.5"/>
<path d="M1822 1106.41C1938.75 1106.41 2033.37 1196.01 2033.37 1306.52C2033.37 1417.03 1938.75 1506.64 1822 1506.64C1705.25 1506.64 1610.63 1417.03 1610.63 1306.52C1610.63 1196.01 1705.25 1106.41 1822 1106.41Z" stroke="#585858" stroke-width="0.5"/>
<path d="M1822 1113.16C1934.82 1113.16 2026.25 1199.74 2026.25 1306.53C2026.25 1413.31 1934.82 1499.89 1822 1499.89C1709.19 1499.89 1617.76 1413.31 1617.76 1306.53C1617.76 1199.74 1709.19 1113.16 1822 1113.16Z" stroke="#585858" stroke-width="0.5"/>
<path d="M1822 1119.9C1930.88 1119.9 2019.12 1203.47 2019.12 1306.52C2019.12 1409.58 1930.88 1493.14 1822 1493.14C1713.12 1493.14 1624.88 1409.58 1624.88 1306.52C1624.88 1203.47 1713.12 1119.9 1822 1119.9Z" stroke="#585858" stroke-width="0.5"/>
<path d="M1822 1126.65C1926.94 1126.65 2011.99 1207.19 2011.99 1306.52C2011.99 1405.85 1926.94 1486.4 1822 1486.4C1717.06 1486.4 1632.01 1405.85 1632.01 1306.52C1632.01 1207.19 1717.06 1126.65 1822 1126.65Z" stroke="#585858" stroke-width="0.5"/>
<path d="M1822 1133.4C1923 1133.4 2004.86 1210.92 2004.86 1306.52C2004.86 1402.13 1923 1479.65 1822 1479.65C1720.99 1479.65 1639.13 1402.13 1639.13 1306.52C1639.13 1210.92 1720.99 1133.4 1822 1133.4Z" stroke="#585858" stroke-width="0.5"/>
<path d="M1822 1140.14C1919.07 1140.14 1997.74 1214.65 1997.74 1306.52C1997.74 1398.4 1919.07 1472.9 1822 1472.9C1724.93 1472.9 1646.27 1398.4 1646.27 1306.52C1646.27 1214.65 1724.93 1140.14 1822 1140.14Z" stroke="#585858" stroke-width="0.5"/>
<path d="M1822 1146.89C1915.13 1146.89 1990.61 1218.37 1990.61 1306.52C1990.61 1394.67 1915.13 1466.15 1822 1466.15C1728.86 1466.15 1653.39 1394.67 1653.39 1306.52C1653.39 1218.37 1728.86 1146.89 1822 1146.89Z" stroke="#585858" stroke-width="0.5"/>
<path d="M1822 1153.64C1911.2 1153.64 1983.49 1222.1 1983.49 1306.52C1983.49 1390.95 1911.2 1459.41 1822 1459.41C1732.8 1459.41 1660.52 1390.95 1660.52 1306.52C1660.52 1222.1 1732.8 1153.64 1822 1153.64Z" stroke="#585858" stroke-width="0.5"/>
<path d="M1822 1160.39C1907.26 1160.39 1976.36 1225.83 1976.36 1306.52C1976.36 1387.22 1907.26 1452.66 1822 1452.66C1736.74 1452.66 1667.64 1387.22 1667.64 1306.52C1667.64 1225.83 1736.74 1160.39 1822 1160.39Z" stroke="#585858" stroke-width="0.5"/>
<path d="M1822 1167.13C1903.32 1167.13 1969.23 1229.55 1969.23 1306.52C1969.23 1383.49 1903.32 1445.91 1822 1445.91C1740.67 1445.91 1674.77 1383.49 1674.77 1306.52C1674.77 1229.55 1740.67 1167.13 1822 1167.13Z" stroke="#585858" stroke-width="0.5"/>
<path d="M1822 1173.88C1899.39 1173.88 1962.1 1233.28 1962.1 1306.52C1962.1 1379.77 1899.39 1439.17 1822 1439.17C1744.61 1439.17 1681.89 1379.77 1681.89 1306.52C1681.89 1233.28 1744.6 1173.88 1822 1173.88Z" stroke="#585858" stroke-width="0.5"/>
<path d="M1822 1180.63C1895.45 1180.63 1954.98 1237.01 1954.98 1306.52C1954.98 1376.04 1895.45 1432.42 1822 1432.42C1748.54 1432.42 1689.02 1376.04 1689.02 1306.52C1689.02 1237.01 1748.54 1180.63 1822 1180.63Z" stroke="#585858" stroke-width="0.5"/>
<path d="M1822 1187.38C1891.52 1187.38 1947.85 1240.73 1947.85 1306.52C1947.85 1372.31 1891.52 1425.67 1822 1425.67C1752.48 1425.67 1696.15 1372.31 1696.15 1306.52C1696.15 1240.73 1752.48 1187.38 1822 1187.38Z" stroke="#585858" stroke-width="0.5"/>
<path d="M1822 1194.12C1887.58 1194.12 1940.73 1244.46 1940.73 1306.52C1940.73 1368.59 1887.58 1418.92 1822 1418.92C1756.42 1418.92 1703.27 1368.59 1703.27 1306.52C1703.27 1244.46 1756.42 1194.13 1822 1194.12Z" stroke="#585858" stroke-width="0.5"/>
<path d="M1822 1200.87C1883.65 1200.87 1933.6 1248.19 1933.6 1306.52C1933.6 1364.86 1883.65 1412.17 1822 1412.17C1760.35 1412.17 1710.4 1364.86 1710.4 1306.52C1710.4 1248.19 1760.35 1200.87 1822 1200.87Z" stroke="#585858" stroke-width="0.5"/>
<path d="M1822 1207.62C1879.71 1207.62 1926.47 1251.91 1926.47 1306.52C1926.47 1361.13 1879.71 1405.43 1822 1405.43C1764.29 1405.43 1717.53 1361.13 1717.53 1306.52C1717.53 1251.91 1764.29 1207.62 1822 1207.62Z" stroke="#585858" stroke-width="0.5"/>
<path d="M1822 1214.37C1875.78 1214.37 1919.35 1255.64 1919.35 1306.52C1919.35 1357.41 1875.78 1398.68 1822 1398.68C1768.23 1398.68 1724.66 1357.41 1724.66 1306.52C1724.66 1255.64 1768.23 1214.37 1822 1214.37Z" stroke="#585858" stroke-width="0.5"/>
<path d="M1822 1221.11C1871.84 1221.11 1912.22 1259.36 1912.22 1306.52C1912.22 1353.68 1871.84 1391.93 1822 1391.93C1772.16 1391.93 1731.78 1353.68 1731.78 1306.52C1731.78 1259.36 1772.16 1221.11 1822 1221.11Z" stroke="#585858" stroke-width="0.5"/>
<path d="M1822 1227.86C1867.9 1227.86 1905.09 1263.09 1905.09 1306.52C1905.09 1349.95 1867.9 1385.18 1822 1385.18C1776.1 1385.18 1738.91 1349.95 1738.91 1306.52C1738.91 1263.09 1776.1 1227.86 1822 1227.86Z" stroke="#585858" stroke-width="0.5"/>
<path d="M1822 1234.61C1863.97 1234.61 1897.96 1266.82 1897.96 1306.52C1897.96 1346.23 1863.97 1378.44 1822 1378.44C1780.03 1378.44 1746.03 1346.23 1746.03 1306.52C1746.03 1266.82 1780.03 1234.61 1822 1234.61Z" stroke="#585858" stroke-width="0.5"/>
<path d="M1822 1241.36C1860.03 1241.36 1890.84 1270.54 1890.84 1306.52C1890.84 1342.5 1860.03 1371.69 1822 1371.69C1783.97 1371.69 1753.16 1342.5 1753.16 1306.52C1753.16 1270.54 1783.97 1241.36 1822 1241.36Z" stroke="#585858" stroke-width="0.5"/>
<path d="M1778.36 1265.21C1802.46 1242.39 1841.53 1242.4 1865.63 1265.21C1889.73 1288.03 1889.73 1325.02 1865.63 1347.84C1841.53 1370.65 1802.46 1370.65 1778.36 1347.84C1754.27 1325.02 1754.27 1288.03 1778.36 1265.21Z" stroke="#585858" stroke-width="0.5"/>
<path d="M1783.4 1269.98C1804.72 1249.8 1839.28 1249.8 1860.59 1269.98C1881.9 1290.16 1881.9 1322.88 1860.59 1343.06C1839.28 1363.25 1804.72 1363.25 1783.4 1343.07C1762.09 1322.88 1762.09 1290.16 1783.4 1269.98Z" stroke="#585858" stroke-width="0.5"/>
<path d="M1788.44 1274.75C1806.97 1257.21 1837.01 1257.21 1855.55 1274.75C1874.08 1292.3 1874.08 1320.75 1855.55 1338.29C1837.01 1355.84 1806.97 1355.84 1788.44 1338.29C1769.91 1320.75 1769.91 1292.3 1788.44 1274.75Z" stroke="#585858" stroke-width="0.5"/>
<path d="M1793.48 1279.52C1809.23 1264.61 1834.76 1264.61 1850.51 1279.52C1866.26 1294.44 1866.26 1318.61 1850.51 1333.52C1834.76 1348.43 1809.23 1348.43 1793.48 1333.52C1777.73 1318.61 1777.73 1294.44 1793.48 1279.52Z" stroke="#585858" stroke-width="0.5"/>
<path d="M1798.52 1284.3C1811.48 1272.02 1832.51 1272.02 1845.47 1284.29C1858.44 1296.57 1858.44 1316.48 1845.47 1328.75C1832.51 1341.03 1811.48 1341.03 1798.52 1328.75C1785.55 1316.48 1785.55 1296.57 1798.52 1284.3Z" stroke="#585858" stroke-width="0.5"/>
<path d="M1803.55 1289.07C1813.74 1279.43 1830.25 1279.43 1840.43 1289.07C1850.61 1298.71 1850.61 1314.34 1840.43 1323.98C1830.25 1333.62 1813.74 1333.62 1803.55 1323.98C1793.37 1314.34 1793.37 1298.71 1803.55 1289.07Z" stroke="#585858" stroke-width="0.5"/>
<path d="M1808.59 1293.84C1815.99 1286.83 1827.99 1286.83 1835.39 1293.84C1842.79 1300.84 1842.79 1312.2 1835.39 1319.21C1827.99 1326.22 1815.99 1326.22 1808.59 1319.21C1801.19 1312.2 1801.19 1300.84 1808.59 1293.84Z" stroke="#585858" stroke-width="0.5"/>
<path d="M1810.34 1304.73C1811.38 1298.64 1817.45 1294.49 1823.91 1295.48C1830.37 1296.47 1834.73 1302.23 1833.69 1308.32C1832.65 1314.4 1826.58 1318.56 1820.12 1317.57C1813.66 1316.57 1809.3 1310.82 1810.34 1304.73Z" stroke="#585858" stroke-width="0.5"/>
</g>
<g filter="url(#filter0_f_4008_78285)">
<circle cx="2018" cy="994" r="240" fill="#03B0EF"/>
</g>
<defs>
<filter id="filter0_f_4008_78285" x="1024" y="0" width="1988" height="1988" filterUnits="userSpaceOnUse" color-interpolation-filters="sRGB">
<feFlood flood-opacity="0" result="BackgroundImageFix"/>
<feBlend mode="normal" in="SourceGraphic" in2="BackgroundImageFix" result="shape"/>
<feGaussianBlur stdDeviation="377" result="effect1_foregroundBlur_4008_78285"/>
</filter>
</defs>
</svg>
