<svg width="276" height="250" viewBox="0 0 276 250" fill="none" xmlns="http://www.w3.org/2000/svg">
<circle cx="140" cy="125" r="124.5" stroke="#C4CDE4"/>
<circle cx="140.409" cy="125.409" r="93.0458" stroke="#C4CDE4"/>
<circle cx="140.275" cy="125.275" r="60.7745" stroke="#C4CDE4"/>
<path fill-rule="evenodd" clip-rule="evenodd" d="M140.318 109.137C113.082 109.137 106 119.29 106 124.729C106 130.168 112.174 134.157 112.174 134.157C112.174 134.157 115.805 136.332 113.626 133.25C113.626 133.25 101.279 122.191 128.334 117.296C128.334 117.296 130.331 116.57 130.15 119.471V133.975C130.15 133.975 131.784 141.046 140.5 141.046C149.216 141.046 150.668 133.975 150.668 133.975V119.471C150.668 119.471 150.124 116.57 152.666 116.933C155.208 117.296 177.36 122.191 166.466 133.613C166.466 133.613 164.468 136.332 168.281 134.338C168.281 134.338 175 130.349 175 124.91C175 119.471 167.555 109.137 140.318 109.137H140.318Z" fill="#F58436"/>
<path fill-rule="evenodd" clip-rule="evenodd" d="M163.56 129.802C163.015 129.802 162.107 129.984 162.47 131.253C162.834 132.16 163.015 132.885 162.47 131.434V131.253C162.289 130.528 161.926 129.802 161.563 129.802C161.563 129.802 161.926 129.077 162.107 128.171C162.289 127.264 162.289 129.621 163.56 129.802C164.105 129.802 163.923 129.802 163.56 129.802ZM162.47 138.324C162.47 138.324 162.289 136.873 161.744 136.692C161.744 136.692 162.47 136.692 162.834 135.967C162.834 135.786 163.015 135.604 163.015 135.604C163.015 135.786 163.015 135.786 162.834 135.967C162.834 136.148 163.015 136.511 163.56 136.692C163.56 136.692 162.652 136.511 162.471 138.324H162.47ZM161.199 144.669C161.199 144.669 161.018 143.582 160.291 143.4C160.291 143.4 161.199 143.219 161.381 142.131C161.381 142.131 161.381 142.856 162.107 143.038C162.107 142.856 161.381 143.038 161.199 144.669H161.199ZM158.113 131.797C158.113 131.797 157.749 129.077 155.752 129.259C155.752 129.259 158.113 128.352 158.113 126.358C158.113 124.363 158.113 128.896 160.11 129.077C160.11 129.077 158.294 129.44 158.113 131.797ZM157.749 140.318C157.749 140.318 157.749 138.324 155.752 138.142C155.752 138.142 158.113 137.78 158.476 135.06C158.476 135.06 157.931 137.78 160.11 137.78C160.11 137.599 157.931 138.324 157.749 140.318ZM156.842 147.389C156.842 147.389 156.115 145.576 155.026 145.576C155.026 145.576 157.023 145.032 157.023 143.038C157.023 143.038 157.023 144.307 158.657 144.669C158.657 144.669 157.205 145.213 156.842 147.389V147.389ZM154.663 151.559C154.663 151.559 154.299 150.834 153.573 150.834C153.573 150.834 154.481 150.471 155.207 149.202C155.207 149.202 154.663 150.108 156.115 149.927C155.934 150.108 154.844 150.29 154.663 151.559V151.559ZM151.939 130.528V127.446C151.939 127.446 152.302 129.077 153.936 129.077C153.936 128.896 151.939 129.259 151.939 130.528ZM156.115 120.012C156.115 120.919 158.476 122.007 158.476 122.007C157.023 121.825 156.842 123.276 156.842 123.276C156.842 121.463 154.481 121.1 154.481 121.1C155.57 121.1 156.115 120.012 156.115 120.012L156.115 120.012ZM161.381 122.913C161.381 122.732 161.563 122.732 161.563 122.732C161.381 122.732 161.381 122.732 161.381 122.913C161.381 123.094 161.381 123.276 161.926 123.638C161.926 123.638 161.018 123.82 161.199 124.908C161.199 124.908 161.018 123.457 160.291 123.276C160.291 123.276 161.018 123.276 161.381 122.913H161.381ZM149.215 149.565C149.215 149.565 148.307 147.208 146.855 147.57C146.855 147.57 149.578 145.939 149.76 143.944C149.76 143.944 150.123 146.664 151.757 146.664C151.939 146.664 149.76 147.389 149.215 149.565L149.215 149.565ZM148.307 153.735C148.307 153.735 147.763 152.647 146.855 152.647C146.855 152.647 148.67 152.103 148.852 150.834C148.852 150.834 148.852 152.103 150.305 152.103C150.486 152.284 148.67 152.284 148.307 153.735V153.735ZM140.318 150.108C140.318 150.108 139.955 147.57 137.049 147.57C137.049 147.57 139.955 146.845 139.955 144.851C139.955 144.851 141.044 147.57 143.405 147.57C143.586 147.57 140.5 148.477 140.318 150.108ZM140.5 154.279C140.5 154.279 139.41 153.191 138.502 153.191C138.502 153.191 139.773 153.191 140.318 151.922C140.318 151.922 141.044 153.372 142.678 153.553C142.678 153.372 140.5 153.191 140.5 154.279V154.279ZM132.328 154.097C132.328 154.097 131.965 152.647 130.694 152.284C130.694 152.284 132.51 151.921 132.51 151.196C132.51 151.196 132.692 152.647 134.871 152.828C134.871 152.647 132.147 152.284 132.328 154.097ZM130.694 144.307C131.42 146.301 134.144 147.208 134.144 147.208C131.965 147.208 131.42 149.202 131.42 149.202C131.42 147.752 128.515 146.664 128.515 146.664C130.331 146.482 130.694 144.307 130.694 144.307V144.307ZM125.973 151.74C125.973 151.74 125.065 150.471 124.339 150.108C124.339 150.108 125.428 150.29 125.428 149.021C125.428 149.021 125.428 150.108 127.063 150.652C127.244 150.652 125.792 150.652 125.973 151.74ZM123.976 147.57C123.976 147.57 123.068 145.395 121.978 144.851C121.978 144.851 123.25 144.488 123.431 143.219C123.431 143.219 123.976 145.395 125.973 145.395C125.792 145.576 123.431 145.576 123.976 147.57V147.57ZM120.526 137.78C120.526 137.78 122.523 136.873 122.523 134.879C122.523 132.885 122.342 137.961 124.884 138.142C124.884 138.142 122.705 138.142 122.886 140.681C122.886 140.681 121.797 137.78 120.526 137.78ZM119.436 145.213C119.436 145.213 119.073 144.126 118.347 143.582C117.439 143.219 119.255 143.582 119.255 142.494C119.255 142.494 119.436 143.944 120.889 144.126C120.707 143.944 119.073 144.126 119.436 145.213L119.436 145.213ZM116.894 137.417C117.984 137.055 118.165 136.511 118.165 136.148C118.347 136.873 119.073 137.236 119.073 137.236C118.347 137.236 118.165 138.324 118.165 138.324C117.984 137.055 116.894 137.417 116.894 137.417ZM118.347 128.534C118.528 127.989 118.528 128.171 118.347 128.534C118.347 129.077 118.347 129.984 119.073 130.165C119.073 130.165 117.802 129.802 117.62 131.072C117.62 132.341 117.62 129.621 116.713 129.44C116.894 129.621 118.165 129.44 118.347 128.533L118.347 128.534ZM119.618 122.732C119.255 123.638 120.344 123.82 120.344 123.82C120.344 123.82 119.618 124.182 119.255 125.089C119.255 123.82 118.528 124.001 118.528 124.001L119.618 122.732ZM123.068 126.358C123.068 126.358 123.068 128.896 125.065 129.259C125.065 129.259 122.705 129.44 122.342 131.978C122.342 131.978 121.797 129.44 120.526 129.077C120.526 129.077 121.978 129.44 123.068 126.358H123.068ZM123.976 120.375C123.976 120.375 123.794 121.1 125.61 121.281C127.426 121.463 123.794 121.825 123.613 124.182C123.068 123.457 123.431 121.825 122.16 122.188C122.16 122.188 123.431 122.007 123.976 120.375ZM161.2 120.737C157.023 118.562 151.757 118.562 151.757 118.562V133.973C151.757 134.698 151.576 135.423 151.394 136.148C151.576 137.417 153.392 138.686 153.392 138.686C151.031 138.686 150.486 144.669 150.486 142.494C150.486 140.318 148.67 139.956 148.67 139.956C150.305 138.687 151.031 137.417 151.213 136.692C149.578 140.137 144.857 142.675 140.318 142.675C137.231 142.675 134.326 141.406 132.147 139.593C130.876 139.593 130.331 142.313 130.331 142.313C129.786 138.687 125.428 138.868 126.881 138.505C128.334 138.143 129.423 136.33 129.423 136.33C129.605 136.874 129.968 137.417 130.331 137.78C129.605 136.33 129.06 135.06 129.06 133.791V130.165C129.06 130.165 128.152 128.352 127.062 128.534C127.062 128.534 129.06 127.99 129.06 126.902V118.199C129.06 118.199 122.705 118.562 119.436 120.919C116.713 123.82 115.441 127.264 115.441 133.247C115.441 143.219 121.797 151.74 130.876 155.366C131.239 155.366 131.784 155.366 131.965 154.823C131.965 154.823 131.965 155.366 132.692 155.91C134.689 156.454 136.686 156.817 138.865 156.998C138.865 156.817 138.865 156.454 138.684 156.454C138.684 156.454 139.41 156.635 139.773 155.729C139.773 155.729 140.136 156.998 141.226 156.817L140.681 156.998C142.497 156.998 144.313 156.635 145.947 156.273C146.128 156.091 147.036 155.547 147.218 154.822C147.218 154.822 147.399 155.729 148.126 155.729C157.749 152.465 164.831 143.582 164.831 133.247C164.649 127.264 163.197 122.732 161.199 120.737L161.2 120.737Z" fill="#03B0EF"/>
<path fill-rule="evenodd" clip-rule="evenodd" d="M140.502 93C144.112 93 147.039 95.8411 147.039 99.3457C147.039 102.85 144.112 105.691 140.502 105.691C136.892 105.691 133.965 102.85 133.965 99.3457C133.965 95.841 136.892 93 140.502 93Z" fill="#F58436"/>
<circle cx="184" cy="43" r="14.75" fill="#2A3853" stroke="white" stroke-width="0.5"/>
<path d="M187.168 34.8421C186.826 34.5004 186.234 34.7337 186.234 35.2087V38.1171C186.234 39.3337 187.268 40.3421 188.526 40.3421C189.318 40.3504 190.418 40.3504 191.359 40.3504C191.834 40.3504 192.084 39.7921 191.751 39.4587C190.551 38.2504 188.401 36.0754 187.168 34.8421Z" fill="white"/>
<path d="M191.082 41.493H188.674C186.699 41.493 185.09 39.8846 185.09 37.9096V35.5013C185.09 35.043 184.715 34.668 184.257 34.668H180.724C178.157 34.668 176.082 36.3346 176.082 39.3096V46.693C176.082 49.668 178.157 51.3346 180.724 51.3346H187.274C189.84 51.3346 191.915 49.668 191.915 46.693V42.3263C191.915 41.868 191.54 41.493 191.082 41.493ZM183.582 47.793H180.249C179.907 47.793 179.624 47.5096 179.624 47.168C179.624 46.8263 179.907 46.543 180.249 46.543H183.582C183.924 46.543 184.207 46.8263 184.207 47.168C184.207 47.5096 183.924 47.793 183.582 47.793ZM185.249 44.4596H180.249C179.907 44.4596 179.624 44.1763 179.624 43.8346C179.624 43.493 179.907 43.2096 180.249 43.2096H185.249C185.59 43.2096 185.874 43.493 185.874 43.8346C185.874 44.1763 185.59 44.4596 185.249 44.4596Z" fill="white"/>
<circle cx="112" cy="211" r="14.75" fill="#2A3853" stroke="white" stroke-width="0.5"/>
<path d="M116.609 207.476C116.551 207.468 116.492 207.468 116.434 207.476C115.142 207.435 114.117 206.376 114.117 205.076C114.117 203.751 115.192 202.668 116.526 202.668C117.851 202.668 118.934 203.743 118.934 205.076C118.926 206.376 117.901 207.435 116.609 207.476Z" fill="white"/>
<path d="M119.324 213.25C118.39 213.875 117.082 214.109 115.874 213.95C116.19 213.267 116.357 212.509 116.365 211.709C116.365 210.875 116.182 210.084 115.832 209.392C117.065 209.225 118.374 209.459 119.315 210.084C120.632 210.95 120.632 212.375 119.324 213.25Z" fill="white"/>
<path d="M107.367 207.476C107.426 207.468 107.484 207.468 107.542 207.476C108.834 207.435 109.859 206.376 109.859 205.076C109.859 203.743 108.784 202.668 107.451 202.668C106.126 202.668 105.051 203.743 105.051 205.076C105.051 206.376 106.076 207.435 107.367 207.476Z" fill="white"/>
<path d="M107.46 211.709C107.46 212.517 107.635 213.284 107.952 213.975C106.777 214.1 105.552 213.85 104.652 213.259C103.335 212.384 103.335 210.959 104.652 210.084C105.543 209.484 106.802 209.242 107.985 209.375C107.643 210.075 107.46 210.867 107.46 211.709Z" fill="white"/>
<path d="M112.1 214.225C112.033 214.217 111.958 214.217 111.883 214.225C110.35 214.175 109.125 212.917 109.125 211.367C109.133 209.783 110.408 208.5 112 208.5C113.583 208.5 114.867 209.783 114.867 211.367C114.858 212.917 113.642 214.175 112.1 214.225Z" fill="white"/>
<path d="M109.393 215.949C108.135 216.791 108.135 218.174 109.393 219.008C110.826 219.966 113.176 219.966 114.61 219.008C115.868 218.166 115.868 216.783 114.61 215.949C113.185 214.991 110.835 214.991 109.393 215.949Z" fill="white"/>
<circle cx="15" cy="134" r="14.75" fill="#2A3853" stroke="white" stroke-width="0.5"/>
<path d="M22.7095 139.39L21.3345 139.715C21.0262 139.79 20.7845 140.024 20.7178 140.332L20.4262 141.557C20.2678 142.224 19.4178 142.432 18.9762 141.907L16.4845 139.04C16.2845 138.807 16.3928 138.44 16.6928 138.365C18.1678 138.007 19.4928 137.182 20.4678 136.007C20.6262 135.815 20.9095 135.79 21.0845 135.965L22.9345 137.815C23.5678 138.449 23.3428 139.24 22.7095 139.39Z" fill="white"/>
<path d="M7.25062 139.39L8.62562 139.715C8.93396 139.79 9.17562 140.024 9.24229 140.332L9.53396 141.557C9.69229 142.224 10.5423 142.432 10.984 141.907L13.4756 139.04C13.6756 138.807 13.5673 138.44 13.2673 138.365C11.7923 138.007 10.4673 137.182 9.49229 136.007C9.33396 135.815 9.05062 135.79 8.87562 135.965L7.02562 137.815C6.39229 138.449 6.61729 139.24 7.25062 139.39Z" fill="white"/>
<path d="M15.0013 125.668C11.7763 125.668 9.16797 128.276 9.16797 131.501C9.16797 132.71 9.5263 133.818 10.143 134.743C11.043 136.076 12.468 137.018 14.1263 137.26C14.4096 137.31 14.7013 137.335 15.0013 137.335C15.3013 137.335 15.593 137.31 15.8763 137.26C17.5346 137.018 18.9596 136.076 19.8596 134.743C20.4763 133.818 20.8346 132.71 20.8346 131.501C20.8346 128.276 18.2263 125.668 15.0013 125.668ZM17.5513 131.318L16.8596 132.01C16.743 132.126 16.6763 132.351 16.718 132.518L16.918 133.376C17.0763 134.051 16.718 134.318 16.118 133.96L15.2846 133.468C15.1346 133.376 14.8846 133.376 14.7346 133.468L13.9013 133.96C13.3013 134.31 12.943 134.051 13.1013 133.376L13.3013 132.518C13.3346 132.36 13.2763 132.126 13.1596 132.01L12.4513 131.318C12.043 130.91 12.1763 130.501 12.743 130.41L13.6346 130.26C13.7846 130.235 13.9596 130.101 14.0263 129.968L14.518 128.985C14.7846 128.451 15.218 128.451 15.4846 128.985L15.9763 129.968C16.043 130.101 16.218 130.235 16.3763 130.26L17.268 130.41C17.8263 130.501 17.9596 130.91 17.5513 131.318Z" fill="white"/>
<circle cx="197" cy="154" r="14.75" fill="#2A3853" stroke="white" stroke-width="0.5"/>
<path d="M195.332 160.25H198.665M195.888 162.333H198.11" stroke="white" stroke-width="1.5" stroke-linecap="round"/>
<path d="M193.177 155.402L194.097 156.268C194.355 156.511 194.501 156.849 194.501 157.204C194.501 157.736 194.933 158.168 195.465 158.168H198.537C199.07 158.168 199.501 157.736 199.501 157.204C199.501 156.849 199.648 156.511 199.906 156.268L200.826 155.402C202.11 154.184 202.827 152.583 202.835 150.92L202.835 150.85C202.835 148.007 200.223 145.668 197.001 145.668C193.78 145.668 191.168 148.007 191.168 150.85L191.168 150.92C191.175 152.583 191.892 154.184 193.177 155.402Z" fill="white"/>
<circle cx="71" cy="20" r="14.75" fill="#2A3853" stroke="white" stroke-width="0.5"/>
<path d="M77.9656 20.6096C77.6573 20.6096 77.3989 20.3763 77.3656 20.0679C77.1656 18.2346 76.1823 16.5846 74.6656 15.5346C74.3906 15.3429 74.3239 14.9679 74.5156 14.6929C74.7073 14.4179 75.0823 14.3513 75.3573 14.5429C77.1656 15.8013 78.3323 17.7679 78.5739 19.9429C78.6073 20.2763 78.3656 20.5763 78.0323 20.6096C78.0073 20.6096 77.9906 20.6096 77.9656 20.6096Z" fill="white"/>
<path d="M64.1148 20.6497C64.0981 20.6497 64.0731 20.6497 64.0565 20.6497C63.7231 20.6163 63.4815 20.3163 63.5148 19.983C63.7398 17.808 64.8898 15.8413 66.6815 14.5747C66.9481 14.383 67.3315 14.4497 67.5231 14.7163C67.7148 14.9913 67.6481 15.3663 67.3815 15.558C65.8815 16.6247 64.9065 18.2747 64.7231 20.0997C64.6898 20.4163 64.4231 20.6497 64.1148 20.6497Z" fill="white"/>
<path d="M74.3239 27.5849C73.2989 28.0766 72.1989 28.3266 71.0489 28.3266C69.8489 28.3266 68.7072 28.0599 67.6405 27.5182C67.3405 27.3766 67.2239 27.0099 67.3739 26.7099C67.5155 26.4099 67.8822 26.2932 68.1822 26.4349C68.7072 26.7016 69.2655 26.8849 69.8322 26.9932C70.5989 27.1432 71.3822 27.1516 72.1489 27.0182C72.7155 26.9182 73.2739 26.7432 73.7905 26.4932C74.0989 26.3516 74.4655 26.4682 74.5989 26.7766C74.7489 27.0766 74.6322 27.4432 74.3239 27.5849Z" fill="white"/>
<path d="M71.0414 11.6758C69.7497 11.6758 68.6914 12.7258 68.6914 14.0258C68.6914 15.3258 69.7414 16.3758 71.0414 16.3758C72.3414 16.3758 73.3914 15.3258 73.3914 14.0258C73.3914 12.7258 72.3414 11.6758 71.0414 11.6758Z" fill="white"/>
<path d="M65.2094 21.5586C63.9177 21.5586 62.8594 22.6086 62.8594 23.9086C62.8594 25.2086 63.9094 26.2586 65.2094 26.2586C66.5094 26.2586 67.5594 25.2086 67.5594 23.9086C67.5594 22.6086 66.501 21.5586 65.2094 21.5586Z" fill="white"/>
<path d="M76.7914 21.5586C75.4997 21.5586 74.4414 22.6086 74.4414 23.9086C74.4414 25.2086 75.4914 26.2586 76.7914 26.2586C78.0914 26.2586 79.1414 25.2086 79.1414 23.9086C79.1414 22.6086 78.0914 21.5586 76.7914 21.5586Z" fill="white"/>
<circle cx="225" cy="218" r="14.75" fill="#2A3853" stroke="white" stroke-width="0.5"/>
<path d="M229.493 221.058L226.126 218H223.868L220.501 221.058C219.559 221.908 219.251 223.217 219.709 224.4C220.168 225.575 221.284 226.333 222.543 226.333H227.451C228.718 226.333 229.826 225.575 230.284 224.4C230.743 223.217 230.434 221.908 229.493 221.058ZM226.518 223.117H223.484C223.168 223.117 222.918 222.858 222.918 222.55C222.918 222.242 223.176 221.983 223.484 221.983H226.518C226.834 221.983 227.084 222.242 227.084 222.55C227.084 222.858 226.826 223.117 226.518 223.117Z" fill="white"/>
<path d="M230.291 211.601C229.833 210.426 228.716 209.668 227.458 209.668H222.541C221.283 209.668 220.166 210.426 219.708 211.601C219.258 212.785 219.566 214.093 220.508 214.943L223.874 218.001H226.133L229.499 214.943C230.433 214.093 230.741 212.785 230.291 211.601ZM226.516 214.026H223.483C223.166 214.026 222.916 213.768 222.916 213.46C222.916 213.151 223.174 212.893 223.483 212.893H226.516C226.833 212.893 227.083 213.151 227.083 213.46C227.083 213.768 226.824 214.026 226.516 214.026Z" fill="white"/>
<circle cx="261" cy="87" r="14.75" fill="#2A3853" stroke="white" stroke-width="0.5"/>
<path d="M268.5 95.957H253.5C253.158 95.957 252.875 95.6737 252.875 95.332C252.875 94.9904 253.158 94.707 253.5 94.707H268.5C268.842 94.707 269.125 94.9904 269.125 95.332C269.125 95.6737 268.842 95.957 268.5 95.957Z" fill="white"/>
<path d="M255.667 83.9844H254.333C253.875 83.9844 253.5 84.3594 253.5 84.8177V92.001C253.5 92.4594 253.875 92.8344 254.333 92.8344H255.667C256.125 92.8344 256.5 92.4594 256.5 92.001V84.8177C256.5 84.351 256.125 83.9844 255.667 83.9844Z" fill="white"/>
<path d="M261.667 81.3242H260.333C259.875 81.3242 259.5 81.6992 259.5 82.1576V91.9992C259.5 92.4576 259.875 92.8326 260.333 92.8326H261.667C262.125 92.8326 262.5 92.4576 262.5 91.9992V82.1576C262.5 81.6992 262.125 81.3242 261.667 81.3242Z" fill="white"/>
<path d="M267.667 78.668H266.333C265.875 78.668 265.5 79.043 265.5 79.5013V92.0013C265.5 92.4596 265.875 92.8346 266.333 92.8346H267.667C268.125 92.8346 268.5 92.4596 268.5 92.0013V79.5013C268.5 79.043 268.125 78.668 267.667 78.668Z" fill="white"/>
<circle cx="101" cy="79" r="14.75" fill="#2A3853" stroke="white" stroke-width="0.5"/>
<path d="M101.625 82.2656H102.167C102.708 82.2656 103.158 81.7823 103.158 81.199C103.158 80.474 102.9 80.3323 102.475 80.1823L101.633 79.8906V82.2656H101.625Z" fill="white"/>
<path d="M100.976 70.582C96.3764 70.5987 92.6514 74.3404 92.668 78.9404C92.6847 83.5404 96.4264 87.2654 101.026 87.2487C105.626 87.232 109.351 83.4904 109.335 78.8904C109.318 74.2904 105.576 70.5737 100.976 70.582ZM102.885 78.9987C103.535 79.2237 104.41 79.707 104.41 81.1987C104.41 82.482 103.401 83.5154 102.168 83.5154H101.626V83.9987C101.626 84.3404 101.343 84.6237 101.001 84.6237C100.66 84.6237 100.376 84.3404 100.376 83.9987V83.5154H100.076C98.7097 83.5154 97.6014 82.3654 97.6014 80.9487C97.6014 80.607 97.8847 80.3237 98.2264 80.3237C98.568 80.3237 98.8514 80.607 98.8514 80.9487C98.8514 81.6737 99.4014 82.2654 100.076 82.2654H100.376V79.4487L99.118 78.9987C98.468 78.7737 97.593 78.2904 97.593 76.7987C97.593 75.5154 98.6014 74.482 99.8347 74.482H100.376V73.9987C100.376 73.657 100.66 73.3737 101.001 73.3737C101.343 73.3737 101.626 73.657 101.626 73.9987V74.482H101.926C103.293 74.482 104.401 75.632 104.401 77.0487C104.401 77.3904 104.118 77.6737 103.776 77.6737C103.435 77.6737 103.151 77.3904 103.151 77.0487C103.151 76.3237 102.601 75.732 101.926 75.732H101.626V78.5487L102.885 78.9987Z" fill="white"/>
<path d="M98.8516 76.8094C98.8516 77.5344 99.1099 77.676 99.5349 77.826L100.377 78.1177V75.7344H99.8349C99.2932 75.7344 98.8516 76.2177 98.8516 76.8094Z" fill="white"/>
</svg>
