<svg width="40" height="40" viewBox="0 0 40 40" fill="none" xmlns="http://www.w3.org/2000/svg">
<path d="M33.3665 17.834L29.8331 20.0674C29.1665 20.484 28.3165 20.384 27.7665 19.834L20.2165 12.284C19.6665 11.734 19.5665 10.884 19.9831 10.2174L22.2165 6.68402C23.5831 4.53402 26.3165 4.43402 28.3331 6.43402L33.6331 11.734C35.4998 13.6174 35.3831 16.5507 33.3665 17.834Z" fill="#9B9B9B"/>
<path d="M24.5166 33.2509L9.98325 34.9509C9.52206 35.0124 9.08213 35.0101 8.66837 34.9537C7.98833 34.8612 7.8383 34.0458 8.3236 33.5605L13.2999 28.5842C13.8333 28.0676 13.8333 27.2509 13.2999 26.7342C12.7999 26.2176 11.9833 26.2176 11.4499 26.7342L6.4736 31.7105C5.9883 32.1958 5.17495 32.0449 5.08568 31.3644C5.03232 30.9576 5.02991 30.5248 5.08326 30.0676L6.79992 15.5342C7.23325 11.9009 8.56659 10.7009 12.3999 10.9342L14.8999 11.0842C15.7166 11.1342 16.4833 11.4842 17.0666 12.0676L27.9833 22.9842C28.5666 23.5676 28.9166 24.3342 28.9499 25.1509L29.0999 27.6509C29.4833 31.5009 28.1666 32.8342 24.5166 33.2509Z" fill="#9B9B9B"/>
</svg>
