<svg width="1060" height="275" viewBox="0 0 1060 275" fill="none" xmlns="http://www.w3.org/2000/svg">
<path d="M356.308 269.639C356.317 269.639 356.326 269.639 356.335 269.639C356.637 269.624 356.87 269.369 356.855 269.066C356.844 268.856 355.821 248.023 355.164 239.756C355.14 239.455 354.878 239.23 354.575 239.254C354.274 239.278 354.049 239.541 354.073 239.843C354.729 248.092 355.75 268.91 355.761 269.119C355.777 269.412 356.02 269.639 356.308 269.639Z" fill="black"/>
<path d="M352.448 267.656C350.516 267.97 348.458 268.339 347.222 270.032C346.602 270.88 346.421 272 346.89 272.939C347.618 274.397 349.309 274.498 350.775 274.444C352.998 274.363 355.053 274.239 357.196 273.643C358.511 273.277 359.243 272.453 359.208 269.377C359.195 268.271 358.279 267.385 357.172 267.405C355.565 267.434 353.393 267.501 352.448 267.656Z" fill="#FF5233"/>
<path d="M350.258 275C350.439 275 350.618 274.997 350.796 274.99C352.979 274.91 355.121 274.788 357.343 274.169C359.136 273.671 359.789 272.37 359.755 269.372C359.748 268.691 359.473 268.053 358.983 267.579C358.493 267.102 357.842 266.845 357.161 266.859C355.508 266.89 353.332 266.959 352.359 267.117C350.495 267.42 348.177 267.797 346.78 269.709C346.006 270.77 345.86 272.101 346.4 273.183C347.163 274.708 348.723 275 350.258 275ZM357.21 267.952C357.59 267.952 357.949 268.097 358.223 268.363C358.502 268.633 358.659 268.997 358.663 269.383C358.697 272.415 357.985 272.855 357.052 273.115C354.944 273.703 352.872 273.82 350.757 273.897C349.342 273.95 347.953 273.839 347.381 272.695C347.024 271.981 347.133 271.084 347.666 270.355C348.798 268.805 350.784 268.481 352.537 268.197C353.245 268.081 354.896 267.994 357.183 267.953C357.191 267.952 357.201 267.952 357.21 267.952Z" fill="black"/>
<path d="M428.932 255.618C429.087 255.618 429.242 255.552 429.35 255.425C429.546 255.194 429.517 254.85 429.287 254.654C423.48 249.72 417.576 243.614 411.865 237.71C410.653 236.457 409.446 235.209 408.244 233.976C408.032 233.759 407.686 233.755 407.47 233.967C407.254 234.177 407.25 234.523 407.46 234.74C408.661 235.972 409.867 237.219 411.079 238.47C416.808 244.394 422.732 250.519 428.579 255.488C428.681 255.575 428.807 255.618 428.932 255.618Z" fill="black"/>
<path d="M429.4 250.221C430.506 248.606 431.716 246.901 433.772 246.503C434.803 246.303 435.894 246.614 436.544 247.438C437.553 248.718 436.926 250.291 436.253 251.596C435.234 253.572 434.248 255.38 432.796 257.066C431.905 258.101 430.849 258.412 428.081 257.072C427.085 256.59 426.672 255.384 427.162 254.391C427.873 252.949 428.859 251.011 429.4 250.221Z" fill="#FF5233"/>
<path d="M430.999 258.513C431.894 258.513 432.584 258.151 433.212 257.423C434.717 255.675 435.74 253.788 436.74 251.847C437.517 250.339 438.154 248.596 436.973 247.101C436.225 246.152 434.958 245.717 433.668 245.967C431.342 246.418 430.015 248.356 428.948 249.913C428.391 250.725 427.403 252.665 426.671 254.15C426.369 254.763 426.326 255.458 426.547 256.105C426.769 256.75 427.229 257.269 427.842 257.566C429.148 258.196 430.162 258.513 430.999 258.513ZM434.386 246.99C435.082 246.99 435.717 247.272 436.115 247.777C436.908 248.783 436.417 250.085 435.767 251.344C434.797 253.226 433.809 255.05 432.382 256.709C431.749 257.443 431.048 257.901 428.319 256.58C427.97 256.411 427.708 256.116 427.582 255.748C427.454 255.378 427.48 254.982 427.651 254.632C428.663 252.579 429.444 251.123 429.85 250.53C430.854 249.065 431.99 247.405 433.876 247.04C434.048 247.007 434.218 246.99 434.386 246.99Z" fill="black"/>
<path d="M286.229 174.804C286.441 174.804 286.644 174.689 286.75 174.489C292.253 164.041 300.137 158.74 313.111 156.762C313.432 156.713 313.652 156.412 313.603 156.092C313.554 155.771 313.254 155.552 312.933 155.599C299.55 157.639 291.408 163.125 285.71 173.94C285.559 174.228 285.669 174.583 285.956 174.734C286.044 174.782 286.136 174.804 286.229 174.804Z" fill="black"/>
<path d="M281.415 176.173C281.57 178.884 283.893 180.959 286.604 180.804C289.315 180.65 291.39 178.326 291.235 175.615C291.081 172.902 288.757 170.829 286.046 170.984C283.334 171.137 281.26 173.46 281.415 176.173Z" fill="#FF5233"/>
<path d="M286.318 181.358C286.424 181.358 286.529 181.355 286.635 181.349C288.093 181.267 289.43 180.621 290.403 179.532C291.375 178.444 291.864 177.04 291.782 175.583C291.61 172.574 289.027 170.271 286.015 170.436C283.006 170.607 280.698 173.195 280.87 176.203C280.952 177.66 281.598 178.998 282.687 179.971C283.696 180.873 284.975 181.358 286.318 181.358ZM286.331 171.522C287.404 171.522 288.428 171.912 289.237 172.632C290.108 173.409 290.625 174.48 290.69 175.645C290.757 176.811 290.366 177.932 289.587 178.803C288.81 179.674 287.739 180.19 286.573 180.257C285.408 180.324 284.286 179.932 283.415 179.154C282.544 178.377 282.027 177.306 281.961 176.139C281.825 173.734 283.671 171.664 286.077 171.528C286.162 171.525 286.246 171.522 286.331 171.522Z" fill="black"/>
<path d="M468.277 159.455C468.671 159.455 469.07 159.404 469.474 159.295C470.493 159.016 471.465 158.362 472.359 157.349C474.111 155.367 475.06 152.617 475.811 150.196C477.591 144.463 478.908 138.478 479.726 132.41C479.766 132.111 479.556 131.836 479.257 131.796C478.958 131.757 478.682 131.966 478.642 132.265C477.832 138.272 476.528 144.196 474.766 149.872C474.048 152.185 473.147 154.805 471.539 156.625C470.798 157.464 469.984 158.022 469.186 158.239C467.456 158.711 465.487 157.822 462.991 155.441C460.77 153.322 458.725 150.912 456.912 148.281C456.741 148.032 456.401 147.97 456.152 148.14C455.903 148.312 455.84 148.652 456.011 148.901C457.866 151.594 459.961 154.059 462.235 156.23C463.744 157.672 465.918 159.455 468.277 159.455Z" fill="black"/>
<path d="M475.7 119.237C474.119 115.309 475.356 110.425 478.618 107.726C479.397 107.08 480.513 106.544 481.382 107.063C482.168 107.532 482.304 108.594 482.357 109.508C482.475 111.553 482.591 113.598 482.708 115.643C482.972 120.263 486.954 119.47 489.977 121.77C491.644 123.038 492.934 125.632 493.245 127.668C495.178 140.357 488.221 142.039 480.19 140.86C477.338 140.441 473.664 139.25 472.595 137.15C470.635 133.305 471.407 120.687 475.7 119.237Z" fill="#FF5233"/>
<path d="M484.058 141.717C487.436 141.717 489.919 140.883 491.594 139.199C493.906 136.876 494.622 133.077 493.786 127.586C493.477 125.559 492.184 122.76 490.309 121.335C489.228 120.513 488.03 120.062 486.973 119.663C484.905 118.885 483.41 118.322 483.255 115.612L482.905 109.477C482.864 108.758 482.779 107.259 481.664 106.594C480.741 106.044 479.473 106.309 478.271 107.306C474.946 110.058 473.623 114.876 475.011 118.946C473.999 119.492 473.148 120.599 472.477 122.246C470.697 126.616 470.511 134.262 472.11 137.399C473.258 139.651 476.998 140.944 480.114 141.401C481.543 141.611 482.857 141.717 484.058 141.717ZM480.603 107.404C480.783 107.404 480.953 107.443 481.102 107.532C481.643 107.856 481.763 108.687 481.812 109.539L482.163 115.674C482.359 119.095 484.508 119.904 486.588 120.687C487.624 121.077 488.695 121.479 489.647 122.205C491.273 123.442 492.436 125.984 492.705 127.75C493.474 132.802 492.84 136.395 490.82 138.427C488.811 140.448 485.358 141.066 480.271 140.319C477.556 139.919 474.043 138.785 473.083 136.901C471.538 133.869 472.002 126.306 473.489 122.657C474.137 121.067 474.963 120.063 475.877 119.755C476.02 119.707 476.136 119.602 476.199 119.465C476.262 119.328 476.266 119.171 476.209 119.032C474.729 115.354 475.914 110.675 478.968 108.146C479.446 107.75 480.07 107.404 480.603 107.404Z" fill="black"/>
<path d="M477.759 122.732C477.905 122.732 478.051 122.674 478.159 122.56C478.365 122.339 478.355 121.993 478.133 121.786C477.247 120.956 476.734 120.103 476.192 118.997C476.06 118.725 475.732 118.613 475.461 118.745C475.189 118.878 475.077 119.205 475.209 119.477C475.805 120.695 476.377 121.639 477.384 122.584C477.491 122.683 477.625 122.732 477.759 122.732Z" fill="black"/>
<path d="M484.571 140.942C483.467 140.37 482.663 139.837 482.159 139.343C481.656 138.85 481.289 137.97 481.337 137.132C481.391 136.172 482.232 135.171 483.763 134.876C485.089 134.619 486.396 134.999 488.633 135.249C486.971 135.091 483.645 134.474 482.274 133.52C481.664 133.096 481.065 132.533 480.972 131.796C480.915 131.349 481.06 130.895 481.274 130.498C481.893 129.35 483.08 128.592 484.33 128.216C485.58 127.84 488.894 127.551 490.2 127.525C488.873 127.511 485.567 127.512 484.25 127.347C482.726 127.157 480.94 126.636 480.489 125.167C480.115 123.951 480.938 122.643 482.029 121.987C483.69 120.988 485.415 121.108 486.684 121.01C488.921 120.839 491.646 120.983 493.294 121.404C494.313 121.666 495.254 122.3 495.858 123.161C496.463 124.023 496.597 125.279 495.943 126.105C495.407 126.782 494.504 127.023 493.664 127.225C494.934 127.375 496.285 128.543 496.828 129.702C497.372 130.859 497.276 132.294 496.581 133.368C495.463 135.096 493.124 135.624 491.08 135.372C491.925 135.851 493.076 136.338 493.613 137.147C494.151 137.957 494.396 139 494.089 139.923C493.767 140.891 492.888 141.593 491.929 141.941C490.972 142.29 489.857 142.243 488.845 142.109C487.629 141.948 485.829 141.594 484.571 140.942Z" fill="#FF5233"/>
<path d="M490.195 142.756C490.82 142.756 491.491 142.684 492.116 142.456C493.331 142.014 494.263 141.131 494.607 140.096C494.946 139.078 494.745 137.863 494.068 136.845C493.822 136.475 493.485 136.171 493.112 135.908C494.63 135.707 496.142 135.051 497.039 133.665C497.832 132.438 497.944 130.791 497.322 129.469C496.952 128.683 496.213 127.825 495.31 127.265C495.704 127.075 496.077 126.816 496.37 126.445C497.225 125.365 496.984 123.817 496.304 122.847C495.633 121.889 494.584 121.17 493.427 120.874C491.755 120.446 489.027 120.28 486.639 120.464C486.424 120.481 486.195 120.491 485.955 120.501C484.744 120.554 483.235 120.621 481.744 121.518C480.506 122.262 479.497 123.809 479.963 125.327C480.369 126.646 481.645 127.487 483.759 127.83C482.413 128.325 481.368 129.169 480.79 130.239C480.485 130.805 480.362 131.353 480.427 131.864C480.524 132.63 481.025 133.318 481.959 133.969C482.241 134.165 482.596 134.348 482.998 134.515C481.551 135.02 480.844 136.127 480.789 137.101C480.735 138.046 481.132 139.104 481.774 139.734C482.322 140.273 483.155 140.827 484.317 141.429C485.746 142.168 487.722 142.512 488.771 142.65C489.177 142.704 489.669 142.756 490.195 142.756ZM491.079 134.824C490.845 134.824 490.634 134.974 490.559 135.199C490.477 135.447 490.581 135.717 490.809 135.846C490.977 135.942 491.155 136.036 491.339 136.134C492.023 136.498 492.8 136.911 493.157 137.449C493.648 138.189 493.803 139.048 493.57 139.75C493.33 140.47 492.647 141.097 491.742 141.426C490.816 141.762 489.687 141.667 488.918 141.565C488.129 141.461 486.152 141.144 484.822 140.456C483.773 139.913 483.005 139.407 482.543 138.952C482.119 138.536 481.847 137.8 481.883 137.162C481.922 136.474 482.551 135.666 483.868 135.411C484.713 135.247 485.588 135.376 486.799 135.554C486.965 135.578 487.139 135.604 487.32 135.63C487.788 135.703 488.218 135.757 488.583 135.792C488.88 135.821 489.147 135.603 489.178 135.304C489.209 135.005 488.994 134.737 488.695 134.705C488.223 134.652 487.789 134.592 487.391 134.534C485.654 134.257 483.539 133.732 482.587 133.069C481.922 132.605 481.57 132.167 481.515 131.725C481.478 131.443 481.56 131.117 481.755 130.756C482.424 129.514 483.755 128.959 484.489 128.738C485.648 128.389 488.894 128.097 490.211 128.071C490.51 128.066 490.749 127.821 490.747 127.522C490.746 127.223 490.505 126.981 490.206 126.978L489.534 126.973C487.994 126.961 485.418 126.942 484.319 126.804C482.418 126.566 481.306 125.961 481.012 125.005C480.714 124.035 481.459 122.968 482.311 122.455C483.563 121.702 484.862 121.644 486.007 121.594C486.259 121.583 486.5 121.572 486.726 121.555C488.969 121.384 491.615 121.539 493.157 121.934C494.066 122.166 494.887 122.728 495.41 123.476C495.847 124.098 496.031 125.112 495.514 125.765C495.104 126.282 494.376 126.491 493.536 126.693C493.278 126.755 493.102 126.993 493.117 127.258C493.133 127.522 493.336 127.737 493.599 127.768C494.6 127.886 495.827 128.857 496.334 129.934C496.799 130.922 496.715 132.153 496.122 133.071C495.072 134.693 492.787 135.032 491.148 134.828C491.124 134.826 491.101 134.824 491.079 134.824Z" fill="black"/>
<path d="M337.853 47.4561L339.092 69.2582C329.203 72.7955 318.135 77.9487 313.241 87.2423C309.82 93.7382 309.303 101.329 309.067 108.668C308.62 122.575 312.351 180.215 314.761 215.367C315.817 230.773 329.069 242.459 344.486 241.582L434.895 236.441C450.312 235.565 462.154 222.451 461.457 207.026C459.867 171.826 457.04 114.136 455.019 100.369C453.952 93.1055 452.579 85.6212 448.443 79.5543C442.527 70.8768 430.948 67.0096 420.721 64.6166L419.482 42.8145" fill="white"/>
<path d="M342.852 242.18C343.407 242.18 343.961 242.165 344.519 242.133L434.927 236.992C442.53 236.559 449.527 233.21 454.63 227.558C459.733 221.908 462.354 214.606 462.011 207C460.48 173.113 457.609 114.189 455.568 100.288C454.501 93.0224 453.108 85.4118 448.902 79.2419C442.804 70.2963 430.99 66.4794 421.251 64.1727L420.034 42.7829C420.016 42.4775 419.751 42.2391 419.451 42.2623C419.145 42.2791 418.912 42.5406 418.93 42.8461L420.17 64.6482C420.184 64.8931 420.358 65.0993 420.596 65.1547C430.214 67.4059 442.021 71.112 447.987 79.8643C452.06 85.8396 453.425 93.3097 454.473 100.447C456.506 114.301 459.376 173.184 460.906 207.049C461.235 214.363 458.715 221.383 453.809 226.816C448.902 232.249 442.174 235.47 434.865 235.887L344.457 241.027C337.145 241.442 330.098 239.004 324.607 234.162C319.116 229.32 315.816 222.631 315.315 215.327C312.995 181.505 309.172 122.677 309.623 108.683C309.855 101.472 310.364 93.8961 313.733 87.4968C318.669 78.1246 329.979 73.1042 339.28 69.777C339.511 69.6945 339.661 69.4702 339.646 69.2241L338.407 47.422C338.39 47.1166 338.124 46.8794 337.823 46.9013C337.518 46.9181 337.284 47.1797 337.302 47.4851L338.519 68.8736C329.104 72.2691 317.799 77.4017 312.754 86.98C309.275 93.5868 308.753 101.306 308.516 108.646C308.064 122.688 311.889 181.558 314.21 215.4C314.731 222.997 318.164 229.954 323.874 234.99C329.166 239.661 335.851 242.18 342.852 242.18Z" fill="black"/>
<path d="M338.604 60.6567L337.854 47.4561L419.482 42.8145L420.233 56.0151C413.468 57.2109 344.248 60.4763 338.604 60.6567Z" fill="black"/>
<path d="M325.232 226.475C328.819 229.856 336.491 234.667 348.979 233.785C353.145 233.492 406.305 230.517 414.153 230.079C425.181 229.463 438.883 229.368 446.405 227.494C451.326 226.269 458.263 221.393 461.332 211.258C459.921 224.782 448.878 235.646 434.894 236.441L344.485 241.582C329.068 242.458 315.816 230.771 314.759 215.367C314.509 211.729 314.246 207.849 313.975 203.802C315.953 209.602 319.888 221.437 325.232 226.475Z" fill="black"/>
<path d="M330.071 55.8771L429.157 50.2432C431.403 50.1157 433.121 48.1905 432.993 45.9444L430.636 4.48559C430.509 2.23952 428.584 0.520513 426.338 0.649375L327.252 6.28322C325.006 6.41079 323.288 8.33599 323.415 10.5821L325.772 52.0409C325.9 54.2869 327.825 56.0046 330.071 55.8771Z" fill="#000427"/>
<path d="M329.332 56.3362C329.421 56.3362 329.511 56.3336 329.6 56.3285L428.686 50.6947C431.23 50.549 433.182 48.3622 433.038 45.8185L430.681 4.3597C430.611 3.12778 430.065 1.99637 429.144 1.17423C428.222 0.352091 427.041 -0.0641322 425.805 0.00803052L326.719 5.64187C324.175 5.7862 322.223 7.97429 322.367 10.518L324.724 51.9768C324.795 53.21 325.34 54.3414 326.261 55.1623C327.116 55.9251 328.197 56.3362 329.332 56.3362ZM426.072 1.09434C426.939 1.09434 427.764 1.40875 428.416 1.98992C429.119 2.61748 429.535 3.48087 429.588 4.42156L431.945 45.8803C432.056 47.8223 430.565 49.4924 428.623 49.6032L329.537 55.237C328.595 55.2912 327.691 54.9741 326.988 54.3466C326.285 53.719 325.868 52.8557 325.814 51.915L323.457 10.4562C323.347 8.51422 324.838 6.84416 326.779 6.73333L425.865 1.09949C425.935 1.09563 426.003 1.09434 426.072 1.09434Z" fill="black"/>
<path d="M334.922 218.115L441.739 212.042C445.675 211.818 448.686 208.445 448.463 204.507L442.389 97.6897C442.165 93.753 438.792 90.7428 434.855 90.9657L328.037 97.039C324.1 97.2632 321.09 100.637 321.313 104.574L327.386 211.391C327.611 215.329 330.984 218.339 334.922 218.115Z" fill="#23A6A6"/>
<path d="M334.511 218.716C334.658 218.716 334.806 218.712 334.955 218.703L441.772 212.63C443.833 212.513 445.726 211.6 447.099 210.059C448.474 208.519 449.166 206.536 449.049 204.476L442.976 97.6579C442.734 93.4042 439.08 90.1465 434.821 90.381L328.004 96.4543C325.943 96.5716 324.05 97.4839 322.677 99.0251C321.302 100.565 320.61 102.548 320.727 104.61L326.8 211.428C327.033 215.532 330.45 218.716 334.511 218.716ZM435.265 91.5434C438.709 91.5434 441.605 94.2431 441.803 97.7249L447.876 204.543C447.976 206.29 447.388 207.972 446.223 209.277C445.058 210.582 443.454 211.357 441.706 211.456L334.889 217.529C331.274 217.738 328.18 214.966 327.974 211.359L321.901 104.542C321.802 102.794 322.388 101.113 323.554 99.8061C324.719 98.5007 326.323 97.7262 328.071 97.627L434.888 91.5537C435.013 91.546 435.14 91.5434 435.265 91.5434Z" fill="black"/>
<path d="M385.984 158.865C386.136 158.865 386.285 158.807 386.399 158.694L393.812 151.296C394.042 151.066 394.043 150.694 393.814 150.465C393.584 150.235 393.212 150.234 392.982 150.463L385.904 157.526L376.337 151.373C376.064 151.198 375.701 151.277 375.525 151.55C375.35 151.823 375.429 152.186 375.702 152.362L385.667 158.771C385.764 158.834 385.874 158.865 385.984 158.865Z" fill="black"/>
<path d="M408.084 145.702C408.242 148.477 410.62 150.6 413.395 150.443C416.171 150.285 418.294 147.907 418.136 145.131C417.978 142.355 415.6 140.233 412.825 140.39C410.049 140.547 407.927 142.925 408.084 145.702Z" fill="#FF5233"/>
<path d="M404.351 137.677C404.209 135.194 402.879 134.029 401.325 134.118C399.771 134.206 398.582 135.514 398.722 137.997C398.862 140.48 400.194 141.645 401.748 141.556C403.302 141.468 404.491 140.16 404.351 137.677Z" fill="black"/>
<path d="M363.155 142.724C363.197 142.724 363.241 142.719 363.285 142.71L375.79 139.884C375.993 139.837 376.157 139.688 376.22 139.489C376.283 139.291 376.238 139.074 376.099 138.918L367.3 129.049C367.084 128.807 366.713 128.786 366.47 129.001C366.228 129.218 366.206 129.589 366.423 129.831L374.558 138.956L363.027 141.563C362.71 141.634 362.512 141.949 362.584 142.265C362.643 142.538 362.885 142.724 363.155 142.724Z" fill="black"/>
<path d="M375.66 139.898C375.916 139.898 376.151 139.73 376.224 139.472C376.313 139.16 376.132 138.834 375.821 138.745L361.449 134.631C361.135 134.54 360.811 134.722 360.722 135.034C360.632 135.346 360.813 135.672 361.125 135.761L375.496 139.875C375.551 139.891 375.605 139.898 375.66 139.898Z" fill="black"/>
<path d="M350.776 149.063C350.559 146.29 352.631 143.868 355.403 143.651C358.175 143.434 360.598 145.506 360.815 148.278C361.031 151.051 358.96 153.473 356.187 153.69C353.415 153.907 350.992 151.835 350.776 149.063Z" fill="#FF5233"/>
<path d="M438.759 187.028C438.802 187.028 438.843 187.027 438.886 187.024C440.092 186.956 441.015 185.923 440.945 184.717L439.989 167.91C439.92 166.704 438.886 165.784 437.681 165.851C436.475 165.919 435.552 166.953 435.622 168.159L436.576 184.965C436.644 186.129 437.609 187.028 438.759 187.028Z" fill="#56D4D4"/>
<path d="M440.176 198.444C440.218 198.444 440.259 198.443 440.302 198.44C441.508 198.372 442.431 197.339 442.361 196.132L442.145 192.313C442.076 191.107 441.043 190.185 439.837 190.252C438.631 190.321 437.708 191.354 437.777 192.56L437.995 196.38C438.06 197.545 439.024 198.444 440.176 198.444Z" fill="#56D4D4"/>
<path d="M347.418 35.2631L351.606 30.2991C351.9 29.9412 352.135 29.6266 352.311 29.3553C352.497 29.0721 352.628 28.8093 352.703 28.5669C352.778 28.3133 352.807 28.0625 352.792 27.8145C352.761 27.3184 352.573 26.9398 352.228 26.6784C351.895 26.4163 351.475 26.3011 350.968 26.3328C350.449 26.3652 349.995 26.5294 349.606 26.8253C349.229 27.1205 348.884 27.5721 348.571 28.1802L346.915 26.9426C347.338 26.1127 347.887 25.4729 348.56 25.0234C349.244 24.5619 350.043 24.3026 350.956 24.2456C351.734 24.1969 352.42 24.3068 353.014 24.5753C353.619 24.843 354.096 25.2375 354.446 25.7589C354.795 26.2803 354.992 26.9017 355.037 27.6231C355.068 28.1079 355.033 28.5514 354.934 28.9537C354.846 29.3553 354.673 29.7622 354.416 30.1743C354.17 30.5745 353.819 31.0321 353.365 31.5472L350.309 35.0823L347.418 35.2631ZM347.5 36.582L347.418 35.2631L349.337 34.4641L355.695 34.0666L355.82 36.0619L347.5 36.582ZM360.628 35.9311C359.828 35.9811 359.086 35.886 358.403 35.6458C357.72 35.3942 357.136 35.012 356.651 34.4991L358.079 32.8991C358.325 33.2232 358.664 33.4736 359.093 33.6505C359.523 33.8273 359.98 33.9006 360.465 33.8703C360.916 33.8421 361.3 33.7389 361.617 33.5606C361.933 33.3711 362.173 33.1241 362.335 32.8197C362.507 32.5034 362.581 32.148 362.557 31.7534C362.531 31.3363 362.413 30.9872 362.203 30.7061C362.004 30.4243 361.725 30.2154 361.366 30.0794C361.006 29.9434 360.584 29.8906 360.099 29.9209C359.885 29.9343 359.667 29.9649 359.443 30.0128C359.219 30.0495 359.03 30.1009 358.876 30.1672L359.81 28.8186C360.086 28.7108 360.358 28.6203 360.625 28.547C360.902 28.4618 361.159 28.4117 361.396 28.3969C362.005 28.3589 362.561 28.4712 363.064 28.734C363.577 28.9849 363.992 29.3664 364.307 29.8786C364.632 30.3788 364.817 30.984 364.862 31.6942C364.911 32.4833 364.768 33.1882 364.434 33.8089C364.098 34.4184 363.603 34.9133 362.948 35.2938C362.303 35.6623 361.53 35.8747 360.628 35.9311ZM358.876 30.1672L358.793 28.8482L361.616 25.1239L364.252 24.9252L361.332 28.7235L358.876 30.1672ZM356.786 26.0709L356.662 24.0756L364.169 23.6063L364.252 24.9252L362.417 25.7189L356.786 26.0709ZM366.042 35.4229L370.084 23.2365L371.961 23.1192L377.473 34.7083L375.021 34.8616L370.725 25.3354L371.57 25.2825L368.443 35.2728L366.042 35.4229ZM368.44 33.0492L368.319 31.1216L374.711 30.722L374.832 32.6496L368.44 33.0492ZM382.604 34.5573C381.792 34.608 381.048 34.4735 380.372 34.1536C379.706 33.8218 379.162 33.3578 378.74 32.7618C378.329 32.1538 378.099 31.4665 378.051 30.6999C377.986 29.6515 378.28 28.575 378.936 27.4702L381.935 22.4957L384.573 22.3308L381.286 27.5949L380.455 27.8845C380.563 27.6175 380.696 27.3828 380.853 27.1806C381.021 26.9777 381.243 26.8167 381.519 26.6977C381.794 26.5786 382.146 26.5057 382.574 26.4789C383.285 26.4345 383.938 26.5634 384.534 26.8657C385.129 27.1566 385.62 27.5843 386.006 28.1486C386.391 28.7017 386.608 29.3559 386.655 30.1111C386.703 30.889 386.556 31.6055 386.212 32.2607C385.868 32.916 385.381 33.45 384.75 33.8629C384.12 34.2758 383.404 34.5072 382.604 34.5573ZM382.475 32.4943C382.87 32.4697 383.213 32.3577 383.507 32.1583C383.799 31.9476 384.025 31.6788 384.186 31.3519C384.346 31.0137 384.413 30.6417 384.388 30.2359C384.363 29.8301 384.25 29.475 384.05 29.1706C383.849 28.855 383.591 28.6165 383.275 28.4551C382.959 28.2938 382.604 28.2255 382.21 28.2501C381.815 28.2748 381.466 28.3928 381.162 28.6042C380.869 28.8036 380.642 29.0667 380.482 29.3936C380.332 29.7198 380.27 30.0859 380.296 30.4917C380.321 30.8975 380.429 31.2586 380.618 31.5749C380.818 31.8793 381.077 32.1178 381.393 32.2904C381.72 32.451 382.081 32.519 382.475 32.4943ZM387.74 34.0665L391.782 21.8801L393.659 21.7628L399.171 33.3519L396.719 33.5052L392.423 23.979L393.268 23.9261L390.141 33.9164L387.74 34.0665ZM390.138 31.6928L390.017 29.7651L396.409 29.3656L396.53 31.2932L390.138 31.6928ZM404.302 33.2009C403.49 33.2516 402.746 33.117 402.07 32.7972C401.404 32.4653 400.86 32.0014 400.438 31.4054C400.027 30.7973 399.797 30.1101 399.749 29.3435C399.684 28.2951 399.978 27.2186 400.634 26.1138L403.633 21.1393L406.271 20.9744L402.984 26.2385L402.153 26.5281C402.261 26.261 402.394 26.0264 402.551 25.8242C402.719 25.6213 402.941 25.4603 403.217 25.3412C403.492 25.2222 403.844 25.1492 404.272 25.1225C404.983 25.0781 405.636 25.207 406.232 25.5092C406.827 25.8002 407.318 26.2279 407.704 26.7922C408.089 27.3453 408.306 27.9995 408.353 28.7547C408.401 29.5326 408.254 30.2491 407.91 30.9043C407.566 31.5596 407.079 32.0936 406.448 32.5065C405.818 32.9194 405.102 33.1508 404.302 33.2009ZM404.173 31.1379C404.568 31.1133 404.911 31.0012 405.205 30.8018C405.497 30.5912 405.723 30.3224 405.884 29.9955C406.044 29.6573 406.111 29.2853 406.086 28.8795C406.061 28.4736 405.948 28.1186 405.748 27.8142C405.547 27.4985 405.289 27.2601 404.973 27.0987C404.657 26.9374 404.302 26.869 403.908 26.8937C403.513 26.9184 403.164 27.0364 402.86 27.2478C402.567 27.4472 402.34 27.7103 402.18 28.0372C402.03 28.3634 401.968 28.7295 401.994 29.1353C402.019 29.5411 402.127 29.9022 402.316 30.2185C402.516 30.5229 402.775 30.7614 403.091 30.934C403.418 31.0946 403.779 31.1626 404.173 31.1379Z" fill="white"/>
<path d="M918.03 269.639C918.039 269.639 918.048 269.639 918.057 269.639C918.359 269.624 918.592 269.369 918.576 269.066C918.566 268.856 917.543 248.023 916.886 239.756C916.861 239.455 916.6 239.23 916.297 239.254C915.995 239.278 915.771 239.541 915.794 239.843C916.45 248.092 917.472 268.91 917.482 269.119C917.499 269.412 917.741 269.639 918.03 269.639Z" fill="black"/>
<path d="M914.169 267.656C912.238 267.97 910.18 268.339 908.944 270.032C908.324 270.88 908.142 272 908.612 272.939C909.34 274.397 911.03 274.498 912.497 274.444C914.72 274.363 916.775 274.239 918.918 273.643C920.232 273.277 920.964 272.453 920.929 269.377C920.917 268.271 920 267.385 918.893 267.405C917.287 267.434 915.115 267.501 914.169 267.656Z" fill="#FF5233"/>
<path d="M911.98 275C912.16 275 912.339 274.997 912.517 274.99C914.7 274.91 916.843 274.788 919.065 274.169C920.857 273.671 921.51 272.37 921.477 269.372C921.469 268.691 921.195 268.053 920.705 267.579C920.214 267.102 919.563 266.845 918.883 266.859C917.23 266.89 915.053 266.959 914.08 267.117C912.217 267.42 909.899 267.797 908.502 269.709C907.727 270.77 907.582 272.101 908.122 273.183C908.885 274.708 910.445 275 911.98 275ZM918.932 267.952C919.312 267.952 919.67 268.097 919.945 268.363C920.223 268.633 920.38 268.997 920.384 269.383C920.419 272.415 919.706 272.855 918.773 273.115C916.665 273.703 914.593 273.82 912.478 273.897C911.064 273.95 909.674 273.839 909.102 272.695C908.745 271.981 908.855 271.084 909.387 270.355C910.52 268.805 912.506 268.481 914.258 268.197C914.967 268.081 916.618 267.994 918.905 267.953C918.913 267.952 918.923 267.952 918.932 267.952Z" fill="black"/>
<path d="M990.654 255.618C990.809 255.618 990.963 255.552 991.072 255.425C991.267 255.194 991.239 254.85 991.008 254.654C985.202 249.72 979.297 243.614 973.586 237.71C972.375 236.457 971.168 235.209 969.965 233.976C969.754 233.759 969.407 233.755 969.192 233.967C968.976 234.177 968.972 234.523 969.182 234.74C970.383 235.972 971.589 237.219 972.8 238.47C978.529 244.394 984.453 250.519 990.301 255.488C990.403 255.575 990.529 255.618 990.654 255.618Z" fill="black"/>
<path d="M991.122 250.221C992.228 248.606 993.438 246.901 995.494 246.503C996.525 246.303 997.615 246.614 998.266 247.438C999.275 248.718 998.647 250.291 997.975 251.596C996.956 253.572 995.97 255.38 994.517 257.066C993.627 258.101 992.57 258.412 989.802 257.072C988.806 256.59 988.394 255.384 988.884 254.391C989.595 252.949 990.581 251.011 991.122 250.221Z" fill="#FF5233"/>
<path d="M992.721 258.513C993.615 258.513 994.306 258.151 994.934 257.423C996.439 255.675 997.462 253.788 998.462 251.847C999.239 250.339 999.875 248.596 998.695 247.101C997.946 246.152 996.68 245.717 995.39 245.967C993.064 246.418 991.737 248.356 990.67 249.913C990.113 250.725 989.124 252.665 988.393 254.15C988.091 254.763 988.047 255.458 988.269 256.105C988.49 256.75 988.951 257.269 989.564 257.566C990.869 258.196 991.883 258.513 992.721 258.513ZM996.108 246.99C996.803 246.99 997.439 247.272 997.837 247.777C998.629 248.783 998.138 250.085 997.489 251.344C996.519 253.226 995.53 255.05 994.104 256.709C993.471 257.443 992.77 257.901 990.041 256.58C989.691 256.411 989.43 256.116 989.304 255.748C989.176 255.378 989.202 254.982 989.373 254.632C990.385 252.579 991.166 251.123 991.572 250.53C992.575 249.065 993.712 247.405 995.597 247.04C995.77 247.007 995.94 246.99 996.108 246.99Z" fill="black"/>
<path d="M847.951 174.804C848.162 174.804 848.366 174.689 848.472 174.489C853.975 164.041 861.859 158.74 874.833 156.762C875.154 156.713 875.374 156.412 875.325 156.092C875.276 155.771 874.976 155.552 874.655 155.599C861.271 157.639 853.13 163.125 847.432 173.94C847.281 174.228 847.39 174.583 847.678 174.734C847.765 174.782 847.858 174.804 847.951 174.804Z" fill="black"/>
<path d="M843.136 176.173C843.291 178.884 845.614 180.959 848.326 180.804C851.037 180.65 853.112 178.326 852.957 175.615C852.802 172.902 850.479 170.829 847.768 170.984C845.055 171.137 842.982 173.46 843.136 176.173Z" fill="#FF5233"/>
<path d="M848.04 181.358C848.145 181.358 848.251 181.355 848.357 181.349C849.814 181.267 851.152 180.621 852.125 179.532C853.096 178.444 853.586 177.04 853.504 175.583C853.332 172.574 850.748 170.271 847.737 170.436C844.728 170.607 842.42 173.195 842.591 176.203C842.674 177.66 843.32 178.998 844.408 179.971C845.417 180.873 846.697 181.358 848.04 181.358ZM848.053 171.522C849.126 171.522 850.149 171.912 850.958 172.632C851.83 173.409 852.346 174.48 852.412 175.645C852.479 176.811 852.087 177.932 851.309 178.803C850.532 179.674 849.461 180.19 848.295 180.257C847.13 180.324 846.008 179.932 845.136 179.154C844.265 178.377 843.749 177.306 843.683 176.139C843.546 173.734 845.393 171.664 847.799 171.528C847.884 171.525 847.968 171.522 848.053 171.522Z" fill="black"/>
<path d="M1030 159.455C1030.39 159.455 1030.79 159.404 1031.2 159.295C1032.21 159.016 1033.19 158.362 1034.08 157.349C1035.83 155.367 1036.78 152.617 1037.53 150.196C1039.31 144.463 1040.63 138.478 1041.45 132.41C1041.49 132.111 1041.28 131.836 1040.98 131.796C1040.68 131.757 1040.4 131.966 1040.36 132.265C1039.55 138.272 1038.25 144.196 1036.49 149.872C1035.77 152.185 1034.87 154.805 1033.26 156.625C1032.52 157.464 1031.71 158.022 1030.91 158.239C1029.18 158.711 1027.21 157.822 1024.71 155.441C1022.49 153.322 1020.45 150.912 1018.63 148.281C1018.46 148.032 1018.12 147.97 1017.87 148.14C1017.62 148.312 1017.56 148.652 1017.73 148.901C1019.59 151.594 1021.68 154.059 1023.96 156.23C1025.47 157.672 1027.64 159.455 1030 159.455Z" fill="black"/>
<path d="M1037.42 119.237C1035.84 115.309 1037.08 110.425 1040.34 107.726C1041.12 107.08 1042.23 106.544 1043.1 107.063C1043.89 107.532 1044.03 108.594 1044.08 109.508C1044.2 111.553 1044.31 113.598 1044.43 115.643C1044.69 120.263 1048.68 119.47 1051.7 121.77C1053.37 123.038 1054.66 125.632 1054.97 127.668C1056.9 140.357 1049.94 142.039 1041.91 140.86C1039.06 140.441 1035.39 139.25 1034.32 137.15C1032.36 133.305 1033.13 120.687 1037.42 119.237Z" fill="#FF5233"/>
<path d="M1045.78 141.717C1049.16 141.717 1051.64 140.883 1053.32 139.199C1055.63 136.876 1056.34 133.077 1055.51 127.586C1055.2 125.559 1053.91 122.76 1052.03 121.335C1050.95 120.513 1049.75 120.062 1048.69 119.663C1046.63 118.885 1045.13 118.322 1044.98 115.612L1044.63 109.477C1044.59 108.758 1044.5 107.259 1043.39 106.594C1042.46 106.044 1041.2 106.309 1039.99 107.306C1036.67 110.058 1035.34 114.876 1036.73 118.946C1035.72 119.492 1034.87 120.599 1034.2 122.246C1032.42 126.616 1032.23 134.262 1033.83 137.399C1034.98 139.651 1038.72 140.944 1041.84 141.401C1043.26 141.611 1044.58 141.717 1045.78 141.717ZM1042.33 107.404C1042.5 107.404 1042.67 107.443 1042.82 107.532C1043.37 107.856 1043.48 108.687 1043.53 109.539L1043.88 115.674C1044.08 119.095 1046.23 119.904 1048.31 120.687C1049.35 121.077 1050.42 121.479 1051.37 122.205C1052.99 123.442 1054.16 125.984 1054.43 127.75C1055.2 132.802 1054.56 136.395 1052.54 138.427C1050.53 140.448 1047.08 141.066 1041.99 140.319C1039.28 139.919 1035.76 138.785 1034.8 136.901C1033.26 133.869 1033.72 126.306 1035.21 122.657C1035.86 121.067 1036.68 120.063 1037.6 119.755C1037.74 119.707 1037.86 119.602 1037.92 119.465C1037.98 119.328 1037.99 119.171 1037.93 119.032C1036.45 115.354 1037.64 110.675 1040.69 108.146C1041.17 107.75 1041.79 107.404 1042.33 107.404Z" fill="black"/>
<path d="M1039.48 122.732C1039.63 122.732 1039.77 122.674 1039.88 122.56C1040.09 122.339 1040.08 121.993 1039.85 121.786C1038.97 120.956 1038.46 120.103 1037.91 118.997C1037.78 118.725 1037.45 118.613 1037.18 118.745C1036.91 118.878 1036.8 119.205 1036.93 119.477C1037.53 120.695 1038.1 121.639 1039.11 122.584C1039.21 122.683 1039.35 122.732 1039.48 122.732Z" fill="black"/>
<path d="M1046.29 140.942C1045.19 140.37 1044.38 139.837 1043.88 139.343C1043.38 138.85 1043.01 137.97 1043.06 137.132C1043.11 136.172 1043.95 135.171 1045.48 134.876C1046.81 134.619 1048.12 134.999 1050.35 135.249C1048.69 135.091 1045.37 134.474 1044 133.52C1043.39 133.096 1042.79 132.533 1042.69 131.796C1042.64 131.349 1042.78 130.895 1043 130.498C1043.62 129.35 1044.8 128.592 1046.05 128.216C1047.3 127.84 1050.62 127.551 1051.92 127.525C1050.59 127.511 1047.29 127.512 1045.97 127.347C1044.45 127.157 1042.66 126.636 1042.21 125.167C1041.84 123.951 1042.66 122.643 1043.75 121.987C1045.41 120.988 1047.14 121.108 1048.41 121.01C1050.64 120.839 1053.37 120.983 1055.02 121.404C1056.03 121.666 1056.98 122.3 1057.58 123.161C1058.18 124.023 1058.32 125.279 1057.66 126.105C1057.13 126.782 1056.23 127.023 1055.39 127.225C1056.66 127.375 1058.01 128.543 1058.55 129.702C1059.09 130.859 1059 132.294 1058.3 133.368C1057.18 135.096 1054.85 135.624 1052.8 135.372C1053.65 135.851 1054.8 136.338 1055.34 137.147C1055.87 137.957 1056.12 139 1055.81 139.923C1055.49 140.891 1054.61 141.593 1053.65 141.941C1052.69 142.29 1051.58 142.243 1050.57 142.109C1049.35 141.948 1047.55 141.594 1046.29 140.942Z" fill="#FF5233"/>
<path d="M1051.92 142.756C1052.54 142.756 1053.21 142.684 1053.84 142.456C1055.05 142.014 1055.98 141.131 1056.33 140.096C1056.67 139.078 1056.47 137.863 1055.79 136.845C1055.54 136.475 1055.21 136.171 1054.83 135.908C1056.35 135.707 1057.86 135.051 1058.76 133.665C1059.55 132.438 1059.67 130.791 1059.04 129.469C1058.67 128.683 1057.93 127.825 1057.03 127.265C1057.43 127.075 1057.8 126.816 1058.09 126.445C1058.95 125.365 1058.71 123.817 1058.03 122.847C1057.35 121.889 1056.31 121.17 1055.15 120.874C1053.48 120.446 1050.75 120.28 1048.36 120.464C1048.15 120.481 1047.92 120.491 1047.68 120.501C1046.47 120.554 1044.96 120.621 1043.47 121.518C1042.23 122.262 1041.22 123.809 1041.68 125.327C1042.09 126.646 1043.37 127.487 1045.48 127.83C1044.13 128.325 1043.09 129.169 1042.51 130.239C1042.21 130.805 1042.08 131.353 1042.15 131.864C1042.25 132.63 1042.75 133.318 1043.68 133.969C1043.96 134.165 1044.32 134.348 1044.72 134.515C1043.27 135.02 1042.57 136.127 1042.51 137.101C1042.46 138.046 1042.85 139.104 1043.5 139.734C1044.04 140.273 1044.88 140.827 1046.04 141.429C1047.47 142.168 1049.44 142.512 1050.49 142.65C1050.9 142.704 1051.39 142.756 1051.92 142.756ZM1052.8 134.824C1052.57 134.824 1052.36 134.974 1052.28 135.199C1052.2 135.447 1052.3 135.717 1052.53 135.846C1052.7 135.942 1052.88 136.036 1053.06 136.134C1053.75 136.498 1054.52 136.911 1054.88 137.449C1055.37 138.189 1055.52 139.048 1055.29 139.75C1055.05 140.47 1054.37 141.097 1053.46 141.426C1052.54 141.762 1051.41 141.667 1050.64 141.565C1049.85 141.461 1047.87 141.144 1046.54 140.456C1045.5 139.913 1044.73 139.407 1044.26 138.952C1043.84 138.536 1043.57 137.8 1043.6 137.162C1043.64 136.474 1044.27 135.666 1045.59 135.411C1046.43 135.247 1047.31 135.376 1048.52 135.554C1048.69 135.578 1048.86 135.604 1049.04 135.63C1049.51 135.703 1049.94 135.757 1050.3 135.792C1050.6 135.821 1050.87 135.603 1050.9 135.304C1050.93 135.005 1050.72 134.737 1050.42 134.705C1049.94 134.652 1049.51 134.592 1049.11 134.534C1047.38 134.257 1045.26 133.732 1044.31 133.069C1043.64 132.605 1043.29 132.167 1043.24 131.725C1043.2 131.443 1043.28 131.117 1043.48 130.756C1044.15 129.514 1045.48 128.959 1046.21 128.738C1047.37 128.389 1050.62 128.097 1051.93 128.071C1052.23 128.066 1052.47 127.821 1052.47 127.522C1052.47 127.223 1052.23 126.981 1051.93 126.978L1051.26 126.973C1049.72 126.961 1047.14 126.942 1046.04 126.804C1044.14 126.566 1043.03 125.961 1042.73 125.005C1042.44 124.035 1043.18 122.968 1044.03 122.455C1045.29 121.702 1046.58 121.644 1047.73 121.594C1047.98 121.583 1048.22 121.572 1048.45 121.555C1050.69 121.384 1053.34 121.539 1054.88 121.934C1055.79 122.166 1056.61 122.728 1057.13 123.476C1057.57 124.098 1057.75 125.112 1057.24 125.765C1056.83 126.282 1056.1 126.491 1055.26 126.693C1055 126.755 1054.82 126.993 1054.84 127.258C1054.85 127.522 1055.06 127.737 1055.32 127.768C1056.32 127.886 1057.55 128.857 1058.06 129.934C1058.52 130.922 1058.44 132.153 1057.84 133.071C1056.79 134.693 1054.51 135.032 1052.87 134.828C1052.85 134.826 1052.82 134.824 1052.8 134.824Z" fill="black"/>
<path d="M899.574 47.4561L900.814 69.2582C890.925 72.7955 879.857 77.9487 874.963 87.2423C871.542 93.7382 871.025 101.329 870.789 108.668C870.342 122.575 874.073 180.215 876.482 215.367C877.539 230.773 890.791 242.459 906.208 241.582L996.617 236.441C1012.03 235.565 1023.88 222.451 1023.18 207.026C1021.59 171.826 1018.76 114.136 1016.74 100.369C1015.67 93.1055 1014.3 85.6212 1010.17 79.5543C1004.25 70.8768 992.669 67.0096 982.443 64.6166L981.203 42.8145" fill="white"/>
<path d="M904.574 242.18C905.128 242.18 905.682 242.165 906.24 242.133L996.649 236.992C1004.25 236.559 1011.25 233.21 1016.35 227.558C1021.45 221.908 1024.08 214.606 1023.73 207C1022.2 173.113 1019.33 114.189 1017.29 100.288C1016.22 93.0224 1014.83 85.4118 1010.62 79.2419C1004.53 70.2963 992.712 66.4794 982.973 64.1727L981.756 42.7829C981.738 42.4775 981.473 42.2391 981.172 42.2623C980.867 42.2791 980.634 42.5406 980.652 42.8461L981.891 64.6482C981.906 64.8931 982.08 65.0993 982.318 65.1547C991.936 67.4059 1003.74 71.112 1009.71 79.8643C1013.78 85.8396 1015.15 93.3097 1016.19 100.447C1018.23 114.301 1021.1 173.184 1022.63 207.049C1022.96 214.363 1020.44 221.383 1015.53 226.816C1010.62 232.249 1003.9 235.47 996.587 235.887L906.179 241.027C898.867 241.442 891.819 239.004 886.329 234.162C880.838 229.32 877.538 222.631 877.036 215.327C874.717 181.505 870.894 122.677 871.345 108.683C871.577 101.472 872.086 93.8961 875.455 87.4968C880.391 78.1246 891.701 73.1042 901.002 69.777C901.233 69.6945 901.382 69.4702 901.368 69.2241L900.128 47.422C900.112 47.1166 899.846 46.8794 899.545 46.9013C899.239 46.9181 899.006 47.1797 899.024 47.4851L900.241 68.8736C890.826 72.2691 879.521 77.4017 874.476 86.98C870.997 93.5868 870.475 101.306 870.238 108.646C869.785 122.688 873.611 181.558 875.932 215.4C876.453 222.997 879.886 229.954 885.595 234.99C890.888 239.661 897.573 242.18 904.574 242.18Z" fill="black"/>
<path d="M900.326 60.6567L899.576 47.4561L981.203 42.8145L981.955 56.0151C975.189 57.2109 905.97 60.4763 900.326 60.6567Z" fill="black"/>
<path d="M886.954 226.475C890.541 229.856 898.212 234.667 910.7 233.785C914.867 233.492 968.027 230.517 975.875 230.079C986.903 229.463 1000.6 229.368 1008.13 227.494C1013.05 226.269 1019.98 221.393 1023.05 211.258C1021.64 224.782 1010.6 235.646 996.615 236.441L906.207 241.582C890.79 242.458 877.538 230.771 876.481 215.367C876.231 211.729 875.968 207.849 875.696 203.802C877.674 209.602 881.61 221.437 886.954 226.475Z" fill="black"/>
<path d="M891.071 55.8771L990.157 50.2432C992.403 50.1157 994.121 48.1905 993.993 45.9444L991.636 4.48559C991.509 2.23952 989.584 0.520513 987.338 0.649375L888.252 6.28322C886.006 6.41079 884.288 8.33599 884.415 10.5821L886.772 52.0409C886.9 54.2869 888.825 56.0046 891.071 55.8771Z" fill="#000427"/>
<path d="M915.685 36.4276C914.749 36.4861 913.888 36.2853 913.101 35.8253C912.314 35.3652 911.666 34.6871 911.158 33.7909C910.66 32.894 910.373 31.8312 910.296 30.6024C910.219 29.3737 910.372 28.289 910.755 27.3485C911.137 26.4079 911.685 25.6607 912.397 25.1069C913.121 24.5524 913.945 24.2463 914.869 24.1885C915.816 24.1293 916.677 24.3301 917.453 24.7908C918.24 25.2509 918.882 25.9294 919.38 26.8263C919.876 27.7119 920.163 28.7747 920.241 30.0147C920.318 31.2435 920.165 32.3337 919.783 33.2856C919.401 34.2262 918.853 34.9734 918.141 35.5272C917.428 36.0697 916.609 36.3698 915.685 36.4276ZM915.521 34.3499C916.062 34.3161 916.521 34.1346 916.896 33.8056C917.272 33.4766 917.548 33.0066 917.725 32.3958C917.913 31.7842 917.979 31.0332 917.923 30.1426C917.868 29.2521 917.708 28.5151 917.446 27.9317C917.194 27.3477 916.856 26.9218 916.432 26.654C916.019 26.3743 915.541 26.2514 915 26.2852C914.47 26.3184 914.018 26.4994 913.642 26.8285C913.266 27.1462 912.984 27.6109 912.796 28.2224C912.618 28.822 912.557 29.5671 912.613 30.4576C912.669 31.3595 912.823 32.1024 913.075 32.6865C913.337 33.2698 913.676 33.7014 914.089 33.9811C914.503 34.2608 914.98 34.3837 915.521 34.3499ZM922.441 35.8355L921.698 23.9483L923.997 23.8046L924.741 35.6918L922.441 35.8355ZM923.827 30.86L923.699 28.8139L929.685 28.4397L929.813 30.4858L923.827 30.86ZM923.516 25.8717L923.389 23.8426L929.662 23.4505L929.789 25.4796L923.516 25.8717ZM935.22 35.2064C934.42 35.2564 933.678 35.1613 932.995 34.9211C932.312 34.6696 931.728 34.2874 931.243 33.7745L932.671 32.1744C932.918 32.4985 933.256 32.749 933.685 32.9258C934.115 33.1026 934.573 33.1759 935.057 33.1456C935.508 33.1174 935.892 33.0142 936.209 32.8359C936.526 32.6464 936.765 32.3995 936.927 32.0951C937.099 31.7787 937.173 31.4233 937.149 31.0287C937.123 30.6117 937.005 30.2625 936.795 29.9814C936.596 29.6996 936.317 29.4907 935.958 29.3547C935.598 29.2188 935.176 29.1659 934.692 29.1962C934.477 29.2096 934.259 29.2403 934.035 29.2882C933.811 29.3248 933.622 29.3763 933.468 29.4425L934.402 28.094C934.678 27.9862 934.95 27.8956 935.217 27.8224C935.494 27.7371 935.752 27.6871 935.988 27.6723C936.597 27.6342 937.153 27.7466 937.656 28.0094C938.17 28.2602 938.584 28.6417 938.899 29.1539C939.224 29.6541 939.409 30.2593 939.454 30.9695C939.503 31.7586 939.36 32.4635 939.026 33.0843C938.69 33.6937 938.195 34.1886 937.54 34.5691C936.895 34.9376 936.122 35.15 935.22 35.2064ZM933.468 29.4425L933.385 28.1236L936.208 24.3993L938.844 24.2006L935.924 27.9988L933.468 29.4425ZM931.378 25.3463L931.254 23.351L938.761 22.8816L938.844 24.2006L937.009 24.9943L931.378 25.3463ZM943.018 34.5492L942.275 22.662L944.541 22.5203L945.284 34.4075L943.018 34.5492ZM940.066 24.8031L939.942 22.8078L944.372 22.5309L944.497 24.5262L940.066 24.8031ZM946.665 30.1113L950.243 22.1639L952.779 22.0053L949.1 29.9591L946.665 30.1113ZM946.75 31.464L946.665 30.1113L947.47 29.399L955.992 28.8662L956.118 30.8784L946.75 31.464ZM952.541 33.9539L952.068 26.3785L954.334 26.2369L954.807 33.8122L952.541 33.9539ZM962.334 33.5114C961.398 33.5699 960.537 33.3691 959.75 32.9091C958.963 32.449 958.315 31.7709 957.807 30.8747C957.309 29.9778 957.022 28.915 956.945 27.6863C956.868 26.4575 957.021 25.3729 957.404 24.4323C957.786 23.4917 958.334 22.7445 959.046 22.1907C959.77 21.6362 960.594 21.3301 961.518 21.2723C962.465 21.2131 963.326 21.4139 964.102 21.8747C964.889 22.3347 965.531 23.0132 966.029 23.9101C966.525 24.7957 966.813 25.8585 966.89 27.0985C966.967 28.3273 966.814 29.4176 966.432 30.3694C966.05 31.31 965.502 32.0572 964.79 32.611C964.077 33.1535 963.259 33.4536 962.334 33.5114ZM962.17 31.4337C962.711 31.3999 963.17 31.2184 963.545 30.8894C963.921 30.5604 964.197 30.0904 964.374 29.4796C964.562 28.868 964.628 28.117 964.572 27.2264C964.517 26.3359 964.358 25.5989 964.095 25.0156C963.843 24.4315 963.505 24.0056 963.081 23.7379C962.668 23.4582 962.19 23.3352 961.649 23.369C961.119 23.4022 960.667 23.5832 960.291 23.9123C959.915 24.23 959.633 24.6947 959.445 25.3062C959.267 25.9058 959.206 26.6509 959.262 27.5414C959.318 28.4433 959.472 29.1862 959.724 29.7703C959.987 30.3536 960.325 30.7852 960.738 31.0649C961.152 31.3446 961.629 31.4675 962.17 31.4337Z" fill="white"/>
<path d="M891.054 56.3362C891.143 56.3362 891.233 56.3336 891.322 56.3285L990.408 50.6947C992.952 50.549 994.904 48.3622 994.76 45.8185L992.403 4.3597C992.333 3.12778 991.787 1.99637 990.865 1.17423C989.944 0.352091 988.762 -0.0641322 987.527 0.00803052L888.441 5.64187C885.897 5.7862 883.945 7.97429 884.089 10.518L886.446 51.9768C886.517 53.21 887.062 54.3414 887.983 55.1623C888.838 55.9251 889.919 56.3362 891.054 56.3362ZM987.793 1.09434C988.661 1.09434 989.485 1.40875 990.137 1.98992C990.841 2.61748 991.257 3.48087 991.31 4.42156L993.667 45.8803C993.778 47.8223 992.287 49.4924 990.345 49.6032L891.259 55.237C890.317 55.2912 889.412 54.9741 888.71 54.3466C888.006 53.719 887.59 52.8557 887.536 51.915L885.179 10.4562C885.068 8.51422 886.559 6.84416 888.501 6.73333L987.587 1.09949C987.657 1.09563 987.725 1.09434 987.793 1.09434Z" fill="black"/>
<path d="M896.644 218.115L1003.46 212.042C1007.4 211.818 1010.41 208.445 1010.18 204.507L1004.11 97.6897C1003.89 93.753 1000.51 90.7428 996.577 90.9657L889.759 97.039C885.822 97.2632 882.812 100.637 883.035 104.574L889.108 211.391C889.332 215.329 892.706 218.339 896.644 218.115Z" fill="#0F3140"/>
<path d="M896.233 218.716C896.38 218.716 896.528 218.712 896.676 218.703L1003.49 212.63C1005.55 212.513 1007.45 211.6 1008.82 210.059C1010.2 208.519 1010.89 206.536 1010.77 204.476L1004.7 97.6579C1004.46 93.4042 1000.8 90.1465 996.543 90.381L889.725 96.4543C887.665 96.5716 885.772 97.4839 884.398 99.0251C883.023 100.565 882.331 102.548 882.449 104.61L888.522 211.428C888.755 215.532 892.171 218.716 896.233 218.716ZM996.986 91.5434C1000.43 91.5434 1003.33 94.2431 1003.52 97.7249L1009.6 204.543C1009.7 206.29 1009.11 207.972 1007.94 209.277C1006.78 210.582 1005.18 211.357 1003.43 211.456L896.61 217.529C892.996 217.738 889.902 214.966 889.696 211.359L883.622 104.542C883.523 102.794 884.11 101.113 885.276 99.8061C886.441 98.5007 888.045 97.7262 889.792 97.627L996.61 91.5537C996.735 91.546 996.861 91.5434 996.986 91.5434Z" fill="black"/>
<path d="M947.706 158.865C947.858 158.865 948.007 158.807 948.121 158.694L955.534 151.296C955.763 151.066 955.765 150.694 955.535 150.465C955.306 150.235 954.933 150.234 954.704 150.463L947.626 157.526L938.059 151.373C937.786 151.198 937.422 151.277 937.247 151.55C937.072 151.823 937.151 152.186 937.424 152.362L947.389 158.771C947.485 158.834 947.596 158.865 947.706 158.865Z" fill="white"/>
<path d="M969.805 145.702C969.964 148.477 972.341 150.6 975.117 150.443C977.893 150.285 980.015 147.907 979.858 145.131C979.7 142.355 977.322 140.233 974.546 140.39C971.771 140.547 969.648 142.925 969.805 145.702Z" fill="#FF5233"/>
<path d="M966.072 137.677C965.931 135.194 964.601 134.029 963.047 134.118C961.493 134.206 960.303 135.514 960.444 137.997C960.584 140.48 961.915 141.645 963.469 141.556C965.023 141.468 966.213 140.16 966.072 137.677Z" fill="white"/>
<path d="M924.877 142.724C924.919 142.724 924.963 142.719 925.007 142.71L937.511 139.884C937.715 139.837 937.879 139.688 937.942 139.489C938.005 139.291 937.96 139.074 937.821 138.918L929.022 129.049C928.806 128.807 928.434 128.786 928.192 129.001C927.95 129.218 927.928 129.589 928.144 129.831L936.28 138.956L924.749 141.563C924.432 141.634 924.234 141.949 924.306 142.265C924.365 142.538 924.607 142.724 924.877 142.724Z" fill="white"/>
<path d="M937.381 139.898C937.638 139.898 937.872 139.73 937.946 139.472C938.035 139.16 937.854 138.834 937.542 138.745L923.17 134.631C922.857 134.54 922.533 134.722 922.444 135.034C922.353 135.346 922.535 135.672 922.847 135.761L937.218 139.875C937.273 139.891 937.327 139.898 937.381 139.898Z" fill="white"/>
<path d="M912.497 149.063C912.281 146.29 914.353 143.868 917.125 143.651C919.897 143.434 922.32 145.506 922.537 148.278C922.753 151.051 920.681 153.473 917.909 153.69C915.137 153.907 912.714 151.835 912.497 149.063Z" fill="#FF5233"/>
<path d="M1000.48 187.028C1000.52 187.028 1000.56 187.027 1000.61 187.024C1001.81 186.956 1002.74 185.923 1002.67 184.717L1001.71 167.91C1001.64 166.704 1000.61 165.784 999.403 165.851C998.196 165.919 997.274 166.953 997.343 168.159L998.298 184.965C998.365 186.129 999.33 187.028 1000.48 187.028Z" fill="#2C7899"/>
<path d="M1001.9 198.444C1001.94 198.444 1001.98 198.443 1002.02 198.44C1003.23 198.372 1004.15 197.339 1004.08 196.132L1003.87 192.313C1003.8 191.107 1002.76 190.185 1001.56 190.252C1000.35 190.321 999.43 191.354 999.499 192.56L999.717 196.38C999.781 197.545 1000.75 198.444 1001.9 198.444Z" fill="#2C7899"/>
<path d="M141.413 269.639C141.404 269.639 141.395 269.639 141.386 269.639C141.085 269.624 140.852 269.369 140.867 269.066C140.877 268.856 141.901 248.023 142.558 239.756C142.582 239.455 142.844 239.23 143.147 239.254C143.448 239.278 143.672 239.541 143.649 239.843C142.993 248.092 141.971 268.91 141.961 269.119C141.944 269.412 141.702 269.639 141.413 269.639Z" fill="black"/>
<path d="M145.274 267.656C147.206 267.97 149.264 268.339 150.5 270.032C151.119 270.88 151.301 272 150.832 272.939C150.104 274.397 148.413 274.498 146.947 274.444C144.724 274.363 142.669 274.239 140.526 273.643C139.211 273.277 138.479 272.453 138.514 269.377C138.527 268.271 139.443 267.385 140.55 267.405C142.157 267.434 144.328 267.501 145.274 267.656Z" fill="#FF5233"/>
<path d="M147.464 275C147.283 275 147.104 274.997 146.926 274.99C144.743 274.91 142.6 274.788 140.379 274.169C138.586 273.671 137.933 272.37 137.966 269.372C137.974 268.691 138.249 268.053 138.738 267.579C139.229 267.102 139.88 266.845 140.56 266.859C142.214 266.89 144.39 266.959 145.363 267.117C147.226 267.42 149.545 267.797 150.942 269.709C151.716 270.77 151.862 272.101 151.322 273.183C150.559 274.708 148.998 275 147.464 275ZM140.511 267.952C140.131 267.952 139.773 268.097 139.499 268.363C139.22 268.633 139.063 268.997 139.059 269.383C139.024 272.415 139.737 272.855 140.67 273.115C142.778 273.703 144.85 273.82 146.965 273.897C148.38 273.95 149.769 273.839 150.341 272.695C150.698 271.981 150.588 271.084 150.056 270.355C148.924 268.805 146.938 268.481 145.185 268.197C144.477 268.081 142.826 267.994 140.539 267.953C140.531 267.952 140.52 267.952 140.511 267.952Z" fill="black"/>
<path d="M68.7893 255.618C68.6347 255.618 68.4801 255.552 68.3718 255.425C68.176 255.194 68.2043 254.85 68.435 254.654C74.2415 249.72 80.146 243.614 85.8571 237.71C87.0684 236.457 88.2759 235.209 89.4781 233.976C89.6895 233.759 90.0361 233.755 90.2513 233.967C90.4678 234.177 90.4717 234.523 90.2616 234.74C89.0606 235.972 87.8545 237.219 86.6432 238.47C80.914 244.394 74.9902 250.519 69.1424 255.488C69.0406 255.575 68.9143 255.618 68.7893 255.618Z" fill="black"/>
<path d="M68.3216 250.221C67.216 248.606 66.006 246.901 63.9493 246.503C62.9184 246.303 61.8283 246.614 61.1775 247.438C60.1685 248.718 60.7961 250.291 61.4687 251.596C62.488 253.572 63.4738 255.38 64.9261 257.066C65.8165 258.101 66.8732 258.412 69.6412 257.072C70.6373 256.59 71.0496 255.384 70.56 254.391C69.8486 252.949 68.8628 251.011 68.3216 250.221Z" fill="#FF5233"/>
<path d="M66.7224 258.513C65.8281 258.513 65.1374 258.151 64.5098 257.423C63.0047 255.675 61.9816 253.788 60.9816 251.847C60.2046 250.339 59.568 248.596 60.7484 247.101C61.4971 246.152 62.7638 245.717 64.0537 245.967C66.3796 246.418 67.7069 248.356 68.7739 249.913C69.3306 250.725 70.3189 252.665 71.0509 254.15C71.3524 254.763 71.3962 255.458 71.1746 256.105C70.9529 256.75 70.4929 257.269 69.8795 257.566C68.5742 258.196 67.56 258.513 66.7224 258.513ZM63.3359 246.99C62.6401 246.99 62.0048 247.272 61.6066 247.777C60.8141 248.783 61.305 250.085 61.9545 251.344C62.9248 253.226 63.9132 255.05 65.3397 256.709C65.9724 257.443 66.6734 257.901 69.4027 256.58C69.752 256.411 70.0135 256.116 70.1398 255.748C70.2674 255.378 70.2416 254.982 70.0702 254.632C69.0587 252.579 68.2778 251.123 67.8719 250.53C66.868 249.065 65.7315 247.405 63.8462 247.04C63.6735 247.007 63.5034 246.99 63.3359 246.99Z" fill="black"/>
<path d="M211.492 174.804C211.281 174.804 211.078 174.689 210.972 174.489C205.468 164.041 197.584 158.74 184.611 156.762C184.29 156.713 184.069 156.412 184.118 156.092C184.167 155.771 184.468 155.552 184.788 155.599C198.172 157.639 206.314 163.125 212.012 173.94C212.163 174.228 212.053 174.583 211.766 174.734C211.678 174.782 211.585 174.804 211.492 174.804Z" fill="black"/>
<path d="M216.307 176.173C216.152 178.884 213.829 180.959 211.117 180.804C208.406 180.65 206.332 178.326 206.486 175.615C206.641 172.902 208.964 170.829 211.675 170.984C214.388 171.137 216.461 173.46 216.307 176.173Z" fill="#FF5233"/>
<path d="M211.404 181.358C211.298 181.358 211.192 181.355 211.087 181.349C209.629 181.267 208.292 180.621 207.319 179.532C206.347 178.444 205.857 177.04 205.94 175.583C206.111 172.574 208.695 170.271 211.706 170.436C214.715 170.607 217.023 173.195 216.852 176.203C216.769 177.66 216.124 178.998 215.035 179.971C214.026 180.873 212.746 181.358 211.404 181.358ZM211.391 171.522C210.317 171.522 209.294 171.912 208.485 172.632C207.614 173.409 207.097 174.48 207.031 175.645C206.964 176.811 207.356 177.932 208.134 178.803C208.911 179.674 209.982 180.19 211.148 180.257C212.313 180.324 213.436 179.932 214.307 179.154C215.178 178.377 215.695 177.306 215.76 176.139C215.897 173.734 214.05 171.664 211.645 171.528C211.56 171.525 211.476 171.522 211.391 171.522Z" fill="black"/>
<path d="M29.4452 159.455C29.0509 159.455 28.6514 159.404 28.248 159.295C27.2287 159.016 26.2571 158.362 25.3628 157.349C23.6103 155.367 22.6619 152.617 21.9106 150.196C20.131 144.463 18.8141 138.478 17.9958 132.41C17.9558 132.111 18.1659 131.836 18.4648 131.796C18.7638 131.757 19.0396 131.966 19.0795 132.265C19.8901 138.272 21.1941 144.196 22.9557 149.872C23.6734 152.185 24.5742 154.805 26.1824 156.625C26.9233 157.464 27.7378 158.022 28.5354 158.239C30.266 158.711 32.235 157.822 34.7311 155.441C36.9514 153.322 38.9964 150.912 40.8095 148.281C40.9809 148.032 41.3211 147.97 41.5698 148.14C41.8185 148.312 41.8817 148.652 41.7103 148.901C39.8559 151.594 37.7606 154.059 35.4862 156.23C33.9773 157.672 31.8033 159.455 29.4452 159.455Z" fill="black"/>
<path d="M22.0214 119.237C23.6026 115.309 22.3655 110.425 19.104 107.726C18.3244 107.08 17.2084 106.544 16.3399 107.063C15.5538 107.532 15.4172 108.594 15.3644 109.508C15.2471 111.553 15.1312 113.598 15.0139 115.643C14.7497 120.263 10.7679 119.47 7.7448 121.77C6.07732 123.038 4.78741 125.632 4.47686 127.668C2.54392 140.357 9.50119 142.039 17.5319 140.86C20.3836 140.441 24.0574 139.25 25.127 137.15C27.087 133.305 26.3151 120.687 22.0214 119.237Z" fill="#FF5233"/>
<path d="M13.6634 141.717C10.286 141.717 7.80278 140.883 6.12757 139.199C3.81579 136.876 3.09931 133.077 3.93563 127.586C4.2449 125.559 5.53738 122.76 7.41233 121.335C8.49348 120.513 9.6919 120.062 10.7486 119.663C12.8168 118.885 14.3116 118.322 14.4662 115.612L14.8167 109.477C14.858 108.758 14.943 107.259 16.0577 106.594C16.9803 106.044 18.2483 106.309 19.4506 107.306C22.7753 110.058 24.0987 114.876 22.7108 118.946C23.7224 119.492 24.5742 120.599 25.2443 122.246C27.0251 126.616 27.2107 134.262 25.6115 137.399C24.4634 139.651 20.7238 140.944 17.6079 141.401C16.1788 141.611 14.8644 141.717 13.6634 141.717ZM17.1182 107.404C16.9391 107.404 16.769 107.443 16.6195 107.532C16.0783 107.856 15.9585 108.687 15.9095 109.539L15.559 115.674C15.3631 119.095 13.2137 119.904 11.1339 120.687C10.0978 121.077 9.02697 121.479 8.07468 122.205C6.44844 123.442 5.2861 125.984 5.01678 127.75C4.24747 132.802 4.88148 136.395 6.90203 138.427C8.91099 140.448 12.3632 141.066 17.4507 140.319C20.1658 139.919 23.6786 138.785 24.6386 136.901C26.1837 133.869 25.7198 126.306 24.2327 122.657C23.5845 121.067 22.7585 120.063 21.8449 119.755C21.7018 119.707 21.5859 119.602 21.5227 119.465C21.4596 119.328 21.4557 119.171 21.5124 119.032C22.993 115.354 21.8075 110.675 18.7535 108.146C18.2754 107.75 17.6517 107.404 17.1182 107.404Z" fill="black"/>
<path d="M19.9622 122.732C19.8166 122.732 19.671 122.674 19.5627 122.56C19.3566 122.339 19.3669 121.993 19.5885 121.786C20.4751 120.956 20.988 120.103 21.5292 118.997C21.6619 118.725 21.9892 118.613 22.2611 118.745C22.533 118.878 22.6451 119.205 22.5124 119.477C21.9171 120.695 21.3449 121.639 20.3372 122.584C20.2303 122.683 20.0962 122.732 19.9622 122.732Z" fill="black"/>
<path d="M13.1506 140.942C14.2549 140.37 15.059 139.837 15.5629 139.343C16.0655 138.85 16.4327 137.97 16.385 137.132C16.3309 136.172 15.4894 135.171 13.9586 134.876C12.6326 134.619 11.3259 134.999 9.08886 135.249C10.7512 135.091 14.0771 134.474 15.4482 133.52C16.0577 133.096 16.6569 132.533 16.7497 131.796C16.8064 131.349 16.6621 130.895 16.4482 130.498C15.8283 129.35 14.6415 128.592 13.3916 128.216C12.1416 127.84 8.82727 127.551 7.5219 127.525C8.84918 127.511 12.1545 127.512 13.4715 127.347C14.9959 127.157 16.7819 126.636 17.2329 125.167C17.6066 123.951 16.7832 122.643 15.693 121.987C14.032 120.988 12.3065 121.108 11.0373 121.01C8.80021 120.839 6.07607 120.983 4.42792 121.404C3.40862 121.666 2.46793 122.3 1.86357 123.161C1.25921 124.023 1.12519 125.279 1.77852 126.105C2.31459 126.782 3.21791 127.023 4.05809 127.225C2.78751 127.375 1.43703 128.543 0.893237 129.702C0.349439 130.859 0.446085 132.294 1.14065 133.368C2.25917 135.096 4.59802 135.624 6.64177 135.372C5.79644 135.851 4.6457 136.338 4.10834 137.147C3.57099 137.957 3.32615 139 3.63284 139.923C3.955 140.891 4.83384 141.593 5.79257 141.941C6.75002 142.29 7.86467 142.243 8.87624 142.109C10.0927 141.948 11.8929 141.594 13.1506 140.942Z" fill="#FF5233"/>
<path d="M7.52703 142.756C6.90205 142.756 6.23068 142.684 5.6057 142.456C4.39053 142.014 3.45885 141.131 3.11479 140.096C2.77588 139.078 2.97691 137.863 3.65344 136.845C3.89956 136.475 4.23718 136.171 4.60959 135.908C3.0916 135.707 1.58004 135.051 0.683164 133.665C-0.110626 132.438 -0.222737 130.791 0.399666 129.469C0.7695 128.683 1.50917 127.825 2.4112 127.265C2.01818 127.075 1.64447 126.816 1.35196 126.445C0.496313 125.365 0.737286 123.817 1.41768 122.847C2.08905 121.889 3.13799 121.17 4.29517 120.874C5.96651 120.446 8.69452 120.28 11.0823 120.464C11.2975 120.481 11.5269 120.491 11.7666 120.501C12.9779 120.554 14.4869 120.621 15.9778 121.518C17.2162 122.262 18.2252 123.809 17.7587 125.327C17.3528 126.646 16.077 127.487 13.9624 127.83C15.309 128.325 16.3541 129.169 16.9314 130.239C17.2368 130.805 17.3592 131.353 17.2948 131.864C17.1981 132.63 16.6969 133.318 15.7626 133.969C15.4804 134.165 15.126 134.348 14.724 134.515C16.1711 135.02 16.8773 136.127 16.9327 137.101C16.9868 138.046 16.5899 139.104 15.9482 139.734C15.3992 140.273 14.5668 140.827 13.4044 141.429C11.9753 142.168 9.99989 142.512 8.95096 142.65C8.54504 142.704 8.05278 142.756 7.52703 142.756ZM6.64304 134.824C6.87628 134.824 7.08761 134.974 7.16235 135.199C7.24482 135.447 7.14044 135.717 6.91236 135.846C6.74484 135.942 6.56701 136.036 6.38273 136.134C5.69848 136.498 4.92144 136.911 4.56449 137.449C4.07352 138.189 3.91889 139.048 4.15213 139.75C4.39181 140.47 5.07478 141.097 5.97939 141.426C6.90591 141.762 8.03475 141.667 8.80405 141.565C9.59269 141.461 11.5694 141.144 12.8993 140.456C13.9482 139.913 14.7162 139.407 15.1789 138.952C15.6028 138.536 15.8747 137.8 15.8386 137.162C15.8 136.474 15.1711 135.666 13.8542 135.411C13.0088 135.247 12.1338 135.376 10.9225 135.554C10.7563 135.578 10.5823 135.604 10.4019 135.63C9.93417 135.703 9.50377 135.757 9.13909 135.792C8.84142 135.821 8.57468 135.603 8.54375 135.304C8.51283 135.005 8.72802 134.737 9.02698 134.705C9.49862 134.652 9.93288 134.592 10.3311 134.534C12.0681 134.257 14.1828 133.732 15.135 133.069C15.8 132.605 16.1518 132.167 16.2072 131.725C16.2433 131.443 16.1621 131.117 15.9662 130.756C15.2974 129.514 13.9663 128.959 13.233 128.738C12.0733 128.389 8.82725 128.097 7.51028 128.071C7.21132 128.066 6.97292 127.821 6.97421 127.522C6.9755 127.223 7.21647 126.981 7.51543 126.978L8.18809 126.973C9.72799 126.961 12.3039 126.942 13.4031 126.804C15.3039 126.566 16.4159 125.961 16.7097 125.005C17.0074 124.035 16.2626 122.968 15.4108 122.455C14.1583 121.702 12.8593 121.644 11.715 121.594C11.4625 121.583 11.2215 121.572 10.996 121.555C8.75251 121.384 6.10697 121.539 4.56449 121.934C3.65601 122.166 2.83516 122.728 2.31198 123.476C1.87514 124.098 1.69086 125.112 2.2076 125.765C2.61738 126.282 3.34546 126.491 4.18564 126.693C4.44336 126.755 4.6199 126.993 4.60444 127.258C4.58897 127.522 4.38537 127.737 4.12249 127.768C3.12123 127.886 1.89447 128.857 1.38804 129.934C0.922847 130.922 1.00661 132.153 1.59937 133.071C2.6496 134.693 4.93432 135.032 6.57345 134.828C6.59793 134.826 6.62113 134.824 6.64304 134.824Z" fill="black"/>
<path d="M159.869 47.4561L158.629 69.2582C168.518 72.7955 179.586 77.9487 184.48 87.2423C187.902 93.7382 188.418 101.329 188.654 108.668C189.101 122.575 185.371 180.215 182.961 215.367C181.904 230.773 168.652 242.459 153.235 241.582L62.8269 236.441C47.4098 235.565 35.5674 222.451 36.2645 207.026C37.8547 171.826 40.6819 114.136 42.7025 100.369C43.7694 93.1055 45.1431 85.6212 49.2783 79.5543C55.1944 70.8768 66.7739 67.0096 77.0004 64.6166L78.2401 42.8145" fill="white"/>
<path d="M154.869 242.18C154.315 242.18 153.761 242.165 153.203 242.133L62.7947 236.992C55.1918 236.559 48.1946 233.21 43.0917 227.558C37.9887 221.908 35.3677 214.606 35.7105 207C37.2413 173.113 40.1124 114.189 42.1536 100.288C43.2205 93.0224 44.6135 85.4118 48.8196 79.2419C54.9173 70.2963 66.7314 66.4794 76.4708 64.1727L77.6873 42.7829C77.7053 42.4775 77.9708 42.2391 78.271 42.2623C78.5764 42.2791 78.8097 42.5406 78.7916 42.8461L77.552 64.6482C77.5378 64.8931 77.3638 65.0993 77.1254 65.1547C67.5072 67.4059 55.7008 71.112 49.7345 79.8643C45.6612 85.8396 44.2965 93.3097 43.2489 100.447C41.2154 114.301 38.3457 173.184 36.8161 207.049C36.4862 214.363 39.0067 221.383 43.9125 226.816C48.8196 232.249 55.5475 235.47 62.8565 235.887L153.265 241.027C160.577 241.442 167.624 239.004 173.115 234.162C178.606 229.32 181.906 222.631 182.407 215.327C184.727 181.505 188.55 122.677 188.099 108.683C187.867 101.472 187.358 93.8961 183.988 87.4968C179.053 78.1246 167.743 73.1042 158.441 69.777C158.211 69.6945 158.061 69.4702 158.075 69.2241L159.315 47.422C159.332 47.1166 159.597 46.8794 159.899 46.9013C160.204 46.9181 160.437 47.1797 160.419 47.4851L159.203 68.8736C168.618 72.2691 179.923 77.4017 184.968 86.98C188.447 93.5868 188.969 101.306 189.206 108.646C189.658 122.688 185.832 181.558 183.511 215.4C182.991 222.997 179.558 229.954 173.848 234.99C168.556 239.661 161.87 242.18 154.869 242.18Z" fill="black"/>
<path d="M159.118 60.6567L159.868 47.4561L78.2401 42.8145L77.4888 56.0151C84.2541 57.2109 153.474 60.4763 159.118 60.6567Z" fill="black"/>
<path d="M172.49 226.475C168.902 229.856 161.231 234.667 148.743 233.785C144.577 233.492 91.4162 230.517 83.5685 230.079C72.5405 229.463 58.8386 229.368 51.3169 227.494C46.3957 226.269 39.4591 221.393 36.3896 211.258C37.8006 224.782 48.8441 235.646 62.8282 236.441L153.237 241.582C168.654 242.458 181.906 230.771 182.962 215.367C183.212 211.729 183.475 207.849 183.747 203.802C181.769 209.602 177.834 221.437 172.49 226.475Z" fill="black"/>
<path d="M167.929 55.8771L68.8429 50.2432C66.5968 50.1157 64.8791 48.1905 65.0067 45.9444L67.3636 4.48559C67.4911 2.23952 69.4163 0.520513 71.6624 0.649375L170.748 6.28322C172.994 6.41079 174.712 8.33599 174.585 10.5821L172.228 52.0409C172.1 54.2869 170.175 56.0046 167.929 55.8771Z" fill="#000427"/>
<path d="M168.389 56.3362C168.3 56.3362 168.21 56.3336 168.121 56.3285L69.0354 50.6947C66.4917 50.549 64.5394 48.3622 64.6838 45.8185L67.0406 4.3597C67.1102 3.12778 67.6566 1.99637 68.578 1.17423C69.4993 0.352091 70.681 -0.0641322 71.9168 0.00803052L171.003 5.64187C173.546 5.7862 175.499 7.97429 175.354 10.518L172.997 51.9768C172.927 53.21 172.382 54.3414 171.46 55.1623C170.606 55.9251 169.525 56.3362 168.389 56.3362ZM71.65 1.09434C70.7828 1.09434 69.9581 1.40875 69.306 1.98992C68.6024 2.61748 68.1862 3.48087 68.1334 4.42156L65.7765 45.8803C65.6657 47.8223 67.1566 49.4924 69.0986 49.6032L168.184 55.237C169.126 55.2912 170.031 54.9741 170.733 54.3466C171.437 53.719 171.853 52.8557 171.907 51.915L174.264 10.4562C174.375 8.51422 172.884 6.84416 170.942 6.73333L71.8562 1.09949C71.7866 1.09563 71.7183 1.09434 71.65 1.09434Z" fill="black"/>
<path d="M162.799 218.115L55.9831 212.042C52.0463 211.818 49.0361 208.445 49.2591 204.507L55.3323 97.6897C55.5565 93.753 58.9302 90.7428 62.8669 90.9657L169.685 97.039C173.621 97.2632 176.631 100.637 176.409 104.574L170.335 211.391C170.111 215.329 166.737 218.339 162.799 218.115Z" fill="#B5D77E"/>
<path d="M163.21 218.716C163.064 218.716 162.915 218.712 162.767 218.703L55.9495 212.63C53.889 212.513 51.9961 211.6 50.6224 210.059C49.2474 208.519 48.5554 206.536 48.6727 204.476L54.746 97.6579C54.9882 93.4042 58.6415 90.1465 62.9004 90.381L169.718 96.4543C171.779 96.5716 173.671 97.4839 175.045 99.0251C176.42 100.565 177.112 102.548 176.995 104.61L170.922 211.428C170.688 215.532 167.272 218.716 163.21 218.716ZM62.4571 91.5434C59.0126 91.5434 56.1171 94.2431 55.9186 97.7249L49.8453 204.543C49.7461 206.29 50.3337 207.972 51.4987 209.277C52.6636 210.582 54.2679 211.357 56.0153 211.456L162.833 217.529C166.447 217.738 169.541 214.966 169.748 211.359L175.821 104.542C175.92 102.794 175.334 101.113 174.168 99.8061C173.003 98.5007 171.398 97.7262 169.651 97.627L62.8334 91.5537C62.7084 91.546 62.5821 91.5434 62.4571 91.5434Z" fill="black"/>
<path d="M111.738 158.865C111.586 158.865 111.436 158.807 111.323 158.694L103.909 151.296C103.68 151.066 103.679 150.694 103.908 150.465C104.137 150.235 104.51 150.234 104.739 150.463L111.818 157.526L121.384 151.373C121.658 151.198 122.021 151.277 122.196 151.55C122.371 151.823 122.293 152.186 122.02 152.362L112.055 158.771C111.958 158.834 111.847 158.865 111.738 158.865Z" fill="black"/>
<path d="M89.6379 145.702C89.4794 148.477 87.1019 150.6 84.3262 150.443C81.5506 150.285 79.4282 147.907 79.5854 145.131C79.7439 142.355 82.1214 140.233 84.8971 140.39C87.6728 140.547 89.7952 142.925 89.6379 145.702Z" fill="#FF5233"/>
<path d="M93.3711 137.677C93.5128 135.194 94.8427 134.029 96.3968 134.118C97.9508 134.206 99.1402 135.514 98.9998 137.997C98.8593 140.48 97.5282 141.645 95.9741 141.556C94.42 141.468 93.2306 140.16 93.3711 137.677Z" fill="black"/>
<path d="M134.567 142.724C134.524 142.724 134.481 142.719 134.437 142.71L121.932 139.884C121.728 139.837 121.565 139.688 121.502 139.489C121.439 139.291 121.484 139.074 121.623 138.918L130.422 129.049C130.638 128.807 131.009 128.786 131.251 129.001C131.494 129.218 131.516 129.589 131.299 129.831L123.164 138.956L134.695 141.563C135.012 141.634 135.21 141.949 135.138 142.265C135.079 142.538 134.836 142.724 134.567 142.724Z" fill="black"/>
<path d="M122.062 139.898C121.806 139.898 121.571 139.73 121.498 139.472C121.409 139.16 121.589 138.834 121.901 138.745L136.273 134.631C136.586 134.54 136.911 134.722 137 135.034C137.09 135.346 136.908 135.672 136.597 135.761L122.226 139.875C122.17 139.891 122.116 139.898 122.062 139.898Z" fill="black"/>
<path d="M146.946 149.063C147.163 146.29 145.091 143.868 142.319 143.651C139.547 143.434 137.124 145.506 136.907 148.278C136.69 151.051 138.762 153.473 141.534 153.69C144.307 153.907 146.729 151.835 146.946 149.063Z" fill="#FF5233"/>
<path d="M58.9624 187.028C58.9198 187.028 58.8786 187.027 58.8361 187.024C57.6299 186.956 56.7073 185.923 56.7769 184.717L57.733 167.91C57.8013 166.704 58.8361 165.784 60.0409 165.851C61.2471 165.919 62.1697 166.953 62.1001 168.159L61.1453 184.965C61.0783 186.129 60.1131 187.028 58.9624 187.028Z" fill="#DFFDAF"/>
<path d="M57.5461 198.444C57.5036 198.444 57.4623 198.443 57.4198 198.44C56.2137 198.372 55.291 197.339 55.3606 196.132L55.5771 192.313C55.6454 191.107 56.6789 190.185 57.885 190.252C59.0912 190.321 60.0138 191.354 59.9442 192.56L59.7264 196.38C59.662 197.545 58.6981 198.444 57.5461 198.444Z" fill="#DFFDAF"/>
<path d="M92.1964 33.7501L92.2755 31.8712L95.3732 32.0016C95.9262 32.0249 96.3621 31.8737 96.681 31.5479C97.0113 31.2227 97.1861 30.8287 97.2056 30.3661C97.2189 30.0501 97.1633 29.7595 97.0388 29.4942C96.9143 29.229 96.7198 29.0173 96.4551 28.8592C96.2022 28.6903 95.8896 28.598 95.5172 28.5823L92.4195 28.4519L92.4979 26.5899L95.3416 26.7096C95.8156 26.7296 96.1986 26.627 96.4907 26.4019C96.7941 26.1773 96.9558 25.828 96.9757 25.354C96.9962 24.8687 96.8647 24.5015 96.5812 24.2521C96.3091 24.0033 95.936 23.8689 95.4621 23.8489L92.6183 23.7292L92.6974 21.8502L95.812 21.9814C96.602 22.0146 97.2559 22.1891 97.774 22.5049C98.3038 22.8098 98.6941 23.2049 98.945 23.6903C99.1963 24.1644 99.3104 24.6779 99.2871 25.2309C99.2586 25.9079 99.0251 26.486 98.5867 26.9649C98.16 27.4331 97.5467 27.769 96.7468 27.9727L96.8797 27.2322C97.7495 27.5175 98.4092 27.9579 98.8589 28.5534C99.3204 29.1381 99.5343 29.831 99.5006 30.6323C99.474 31.2642 99.2918 31.8331 98.9539 32.3389C98.6279 32.8339 98.1591 33.2268 97.5477 33.5176C96.9481 33.7975 96.2251 33.9197 95.3787 33.8841L92.1964 33.7501ZM90.5037 33.6788L91.0047 21.779L93.2899 21.8752L92.7889 33.7751L90.5037 33.6788ZM104.188 34.4246C103.365 34.3899 102.62 34.2172 101.955 33.9066C101.29 33.5847 100.743 33.1434 100.315 32.5827L101.902 31.1403C102.113 31.4884 102.423 31.7727 102.832 31.9934C103.253 32.2146 103.717 32.3359 104.224 32.3573C104.687 32.3768 105.091 32.309 105.437 32.154C105.794 31.9994 106.075 31.7739 106.279 31.4772C106.496 31.1698 106.613 30.8073 106.63 30.3898C106.649 29.9497 106.563 29.573 106.373 29.2598C106.194 28.947 105.944 28.7047 105.623 28.533C105.303 28.3612 104.939 28.2668 104.533 28.2497C104.104 28.2316 103.713 28.2716 103.358 28.3698C103.015 28.4571 102.681 28.6126 102.355 28.8363L102.552 27.3862C102.775 27.1695 103.009 26.9985 103.251 26.873C103.495 26.7363 103.764 26.6403 104.061 26.5849C104.369 26.5188 104.726 26.4942 105.132 26.5113C106.001 26.5479 106.715 26.7589 107.276 27.1442C107.848 27.5188 108.274 28.0115 108.553 28.6224C108.833 29.222 108.958 29.8773 108.928 30.5883C108.896 31.3669 108.674 32.0529 108.265 32.6461C107.856 33.2393 107.3 33.6964 106.596 34.0172C105.905 34.3273 105.102 34.463 104.188 34.4246ZM102.355 28.8363L101.3 27.7066L102.073 22.245L104.155 22.3326L103.311 27.876L102.355 28.8363ZM102.344 24.2573L102.073 22.245L108.607 22.52L108.523 24.5175L102.344 24.2573ZM112.113 34.5886L112.199 32.5404L115.229 32.668C115.996 32.7003 116.675 32.5706 117.263 32.2788C117.853 31.9758 118.318 31.5375 118.658 30.964C119.01 30.391 119.203 29.7039 119.237 28.9026C119.27 28.124 119.135 27.44 118.832 26.8507C118.529 26.2501 118.097 25.7797 117.534 25.4395C116.973 25.088 116.314 24.8963 115.558 24.8645L112.477 24.7348L112.563 22.6866L115.678 22.8177C116.558 22.8548 117.364 23.0357 118.097 23.3605C118.84 23.6857 119.477 24.1308 120.008 24.6958C120.549 25.2499 120.958 25.8945 121.232 26.6296C121.517 27.3651 121.642 28.1617 121.606 29.0193C121.57 29.877 121.378 30.6659 121.032 31.3861C120.696 32.0955 120.241 32.7094 119.665 33.2278C119.09 33.7349 118.418 34.1193 117.65 34.3808C116.893 34.6429 116.08 34.7556 115.211 34.719L112.113 34.5886ZM110.539 34.5223L111.04 22.6225L113.342 22.7194L112.841 34.6193L110.539 34.5223ZM123.997 35.0889L128.623 24.7024L130.891 24.7979L126.384 35.1894L123.997 35.0889ZM122.772 25.1174L122.856 23.12L130.947 23.4606L130.891 24.7979L130 25.4217L122.772 25.1174ZM132.692 35.455L137.318 25.0684L139.586 25.1639L135.079 35.5555L132.692 35.455ZM131.467 25.4834L131.551 23.486L139.642 23.8267L139.586 25.1639L138.695 25.7878L131.467 25.4834ZM140.773 35.7952L141.274 23.8954L143.576 23.9923L143.075 35.8922L140.773 35.7952ZM142.466 35.8665L142.551 33.8352L149.136 34.1125L149.05 36.1437L142.466 35.8665ZM142.68 30.7714L142.763 28.8078L148.755 29.0601L148.672 31.0237L142.68 30.7714ZM142.881 25.9979L142.967 23.9666L149.467 24.2403L149.381 26.2716L142.881 25.9979Z" fill="white"/>
<path d="M703.135 269.639C703.126 269.639 703.117 269.639 703.108 269.639C702.807 269.624 702.573 269.369 702.589 269.066C702.599 268.856 703.622 248.023 704.279 239.756C704.304 239.455 704.565 239.23 704.868 239.254C705.17 239.278 705.394 239.541 705.371 239.843C704.715 248.092 703.693 268.91 703.683 269.119C703.666 269.412 703.424 269.639 703.135 269.639Z" fill="black"/>
<path d="M706.996 267.656C708.928 267.97 710.985 268.339 712.221 270.032C712.841 270.88 713.023 272 712.554 272.939C711.826 274.397 710.135 274.498 708.669 274.444C706.446 274.363 704.39 274.239 702.247 273.643C700.933 273.277 700.201 272.453 700.236 269.377C700.249 268.271 701.165 267.385 702.272 267.405C703.879 267.434 706.05 267.501 706.996 267.656Z" fill="#FF5233"/>
<path d="M709.185 275C709.005 275 708.826 274.997 708.648 274.99C706.465 274.91 704.322 274.788 702.1 274.169C700.308 273.671 699.655 272.37 699.688 269.372C699.696 268.691 699.97 268.053 700.46 267.579C700.951 267.102 701.602 266.845 702.282 266.859C703.935 266.89 706.112 266.959 707.085 267.117C708.948 267.42 711.266 267.797 712.663 269.709C713.438 270.77 713.583 272.101 713.043 273.183C712.281 274.708 710.72 275 709.185 275ZM702.233 267.952C701.853 267.952 701.495 268.097 701.22 268.363C700.942 268.633 700.785 268.997 700.781 269.383C700.746 272.415 701.459 272.855 702.392 273.115C704.5 273.703 706.572 273.82 708.687 273.897C710.101 273.95 711.491 273.839 712.063 272.695C712.42 271.981 712.31 271.084 711.778 270.355C710.645 268.805 708.659 268.481 706.907 268.197C706.198 268.081 704.548 267.994 702.26 267.953C702.252 267.952 702.242 267.952 702.233 267.952Z" fill="black"/>
<path d="M630.511 255.618C630.356 255.618 630.202 255.552 630.093 255.425C629.898 255.194 629.926 254.85 630.157 254.654C635.963 249.72 641.868 243.614 647.579 237.71C648.79 236.457 649.998 235.209 651.2 233.976C651.411 233.759 651.758 233.755 651.973 233.967C652.189 234.177 652.193 234.523 651.983 234.74C650.782 235.972 649.576 237.219 648.365 238.47C642.636 244.394 636.712 250.519 630.864 255.488C630.762 255.575 630.636 255.618 630.511 255.618Z" fill="black"/>
<path d="M630.043 250.221C628.938 248.606 627.728 246.901 625.671 246.503C624.64 246.303 623.55 246.614 622.899 247.438C621.89 248.718 622.518 250.291 623.19 251.596C624.21 253.572 625.196 255.38 626.648 257.066C627.538 258.101 628.595 258.412 631.363 257.072C632.359 256.59 632.771 255.384 632.282 254.391C631.57 252.949 630.585 251.011 630.043 250.221Z" fill="#FF5233"/>
<path d="M628.444 258.513C627.55 258.513 626.859 258.151 626.231 257.423C624.726 255.675 623.703 253.788 622.703 251.847C621.926 250.339 621.29 248.596 622.47 247.101C623.219 246.152 624.485 245.717 625.775 245.967C628.101 246.418 629.429 248.356 630.496 249.913C631.052 250.725 632.041 252.665 632.773 254.15C633.074 254.763 633.118 255.458 632.896 256.105C632.675 256.75 632.215 257.269 631.601 257.566C630.296 258.196 629.282 258.513 628.444 258.513ZM625.058 246.99C624.362 246.99 623.726 247.272 623.328 247.777C622.536 248.783 623.027 250.085 623.676 251.344C624.646 253.226 625.635 255.05 627.061 256.709C627.694 257.443 628.395 257.901 631.124 256.58C631.474 256.411 631.735 256.116 631.861 255.748C631.989 255.378 631.963 254.982 631.792 254.632C630.78 252.579 629.999 251.123 629.593 250.53C628.59 249.065 627.453 247.405 625.568 247.04C625.395 247.007 625.225 246.99 625.058 246.99Z" fill="black"/>
<path d="M773.214 174.804C773.003 174.804 772.799 174.689 772.694 174.489C767.19 164.041 759.306 158.74 746.332 156.762C746.011 156.713 745.791 156.412 745.84 156.092C745.889 155.771 746.189 155.552 746.51 155.599C759.894 157.639 768.035 163.125 773.733 173.94C773.884 174.228 773.775 174.583 773.487 174.734C773.4 174.782 773.307 174.804 773.214 174.804Z" fill="black"/>
<path d="M778.029 176.173C777.874 178.884 775.55 180.959 772.839 180.804C770.128 180.65 768.053 178.326 768.208 175.615C768.363 172.902 770.686 170.829 773.397 170.984C776.11 171.137 778.183 173.46 778.029 176.173Z" fill="#FF5233"/>
<path d="M773.125 181.358C773.02 181.358 772.914 181.355 772.808 181.349C771.351 181.267 770.013 180.621 769.04 179.532C768.069 178.444 767.579 177.04 767.662 175.583C767.833 172.574 770.417 170.271 773.428 170.436C776.437 170.607 778.745 173.195 778.574 176.203C778.491 177.66 777.846 178.998 776.757 179.971C775.748 180.873 774.468 181.358 773.125 181.358ZM773.112 171.522C772.039 171.522 771.016 171.912 770.207 172.632C769.335 173.409 768.819 174.48 768.753 175.645C768.686 176.811 769.078 177.932 769.856 178.803C770.633 179.674 771.704 180.19 772.87 180.257C774.035 180.324 775.157 179.932 776.029 179.154C776.9 178.377 777.416 177.306 777.482 176.139C777.619 173.734 775.772 171.664 773.366 171.528C773.281 171.525 773.197 171.522 773.112 171.522Z" fill="black"/>
<path d="M591.167 159.455C590.773 159.455 590.373 159.404 589.97 159.295C588.95 159.016 587.979 158.362 587.085 157.349C585.332 155.367 584.384 152.617 583.632 150.196C581.853 144.463 580.536 138.478 579.717 132.41C579.678 132.111 579.888 131.836 580.187 131.796C580.485 131.757 580.761 131.966 580.801 132.265C581.612 138.272 582.916 144.196 584.677 149.872C585.395 152.185 586.296 154.805 587.904 156.625C588.645 157.464 589.459 158.022 590.257 158.239C591.988 158.711 593.957 157.822 596.453 155.441C598.673 153.322 600.718 150.912 602.531 148.281C602.703 148.032 603.043 147.97 603.291 148.14C603.54 148.312 603.603 148.652 603.432 148.901C601.578 151.594 599.482 154.059 597.208 156.23C595.699 157.672 593.525 159.455 591.167 159.455Z" fill="black"/>
<path d="M583.743 119.237C585.324 115.309 584.087 110.425 580.826 107.726C580.046 107.08 578.93 106.544 578.062 107.063C577.275 107.532 577.139 108.594 577.086 109.508C576.969 111.553 576.853 113.598 576.736 115.643C576.471 120.263 572.49 119.47 569.466 121.77C567.799 123.038 566.509 125.632 566.198 127.668C564.266 140.357 571.223 142.039 579.253 140.86C582.105 140.441 585.779 139.25 586.849 137.15C588.809 133.305 588.037 120.687 583.743 119.237Z" fill="#FF5233"/>
<path d="M575.385 141.717C572.008 141.717 569.524 140.883 567.849 139.199C565.537 136.876 564.821 133.077 565.657 127.586C565.967 125.559 567.259 122.76 569.134 121.335C570.215 120.513 571.414 120.062 572.47 119.663C574.538 118.885 576.033 118.322 576.188 115.612L576.538 109.477C576.58 108.758 576.665 107.259 577.779 106.594C578.702 106.044 579.97 106.309 581.172 107.306C584.497 110.058 585.82 114.876 584.433 118.946C585.444 119.492 586.296 120.599 586.966 122.246C588.747 126.616 588.932 134.262 587.333 137.399C586.185 139.651 582.445 140.944 579.33 141.401C577.9 141.611 576.586 141.717 575.385 141.717ZM578.84 107.404C578.661 107.404 578.491 107.443 578.341 107.532C577.8 107.856 577.68 108.687 577.631 109.539L577.281 115.674C577.085 119.095 574.935 119.904 572.856 120.687C571.819 121.077 570.749 121.479 569.796 122.205C568.17 123.442 567.008 125.984 566.738 127.75C565.969 132.802 566.603 136.395 568.624 138.427C570.633 140.448 574.085 141.066 579.172 140.319C581.887 139.919 585.4 138.785 586.36 136.901C587.905 133.869 587.441 126.306 585.954 122.657C585.306 121.067 584.48 120.063 583.567 119.755C583.424 119.707 583.308 119.602 583.244 119.465C583.181 119.328 583.177 119.171 583.234 119.032C584.715 115.354 583.529 110.675 580.475 108.146C579.997 107.75 579.373 107.404 578.84 107.404Z" fill="black"/>
<path d="M581.684 122.732C581.538 122.732 581.393 122.674 581.284 122.56C581.078 122.339 581.089 121.993 581.31 121.786C582.197 120.956 582.71 120.103 583.251 118.997C583.384 118.725 583.711 118.613 583.983 118.745C584.255 118.878 584.367 119.205 584.234 119.477C583.639 120.695 583.067 121.639 582.059 122.584C581.952 122.683 581.818 122.732 581.684 122.732Z" fill="black"/>
<path d="M574.872 140.942C575.977 140.37 576.781 139.837 577.285 139.343C577.787 138.85 578.154 137.97 578.107 137.132C578.053 136.172 577.211 135.171 575.68 134.876C574.354 134.619 573.048 134.999 570.811 135.249C572.473 135.091 575.799 134.474 577.17 133.52C577.779 133.096 578.379 132.533 578.471 131.796C578.528 131.349 578.384 130.895 578.17 130.498C577.55 129.35 576.363 128.592 575.113 128.216C573.863 127.84 570.549 127.551 569.244 127.525C570.571 127.511 573.876 127.512 575.193 127.347C576.718 127.157 578.504 126.636 578.955 125.167C579.328 123.951 578.505 122.643 577.415 121.987C575.754 120.988 574.028 121.108 572.759 121.01C570.522 120.839 567.798 120.983 566.15 121.404C565.13 121.666 564.19 122.3 563.585 123.161C562.981 124.023 562.847 125.279 563.5 126.105C564.036 126.782 564.94 127.023 565.78 127.225C564.509 127.375 563.159 128.543 562.615 129.702C562.071 130.859 562.168 132.294 562.862 133.368C563.981 135.096 566.32 135.624 568.363 135.372C567.518 135.851 566.367 136.338 565.83 137.147C565.293 137.957 565.048 139 565.354 139.923C565.677 140.891 566.555 141.593 567.514 141.941C568.472 142.29 569.586 142.243 570.598 142.109C571.814 141.948 573.615 141.594 574.872 140.942Z" fill="#FF5233"/>
<path d="M569.249 142.756C568.624 142.756 567.952 142.684 567.327 142.456C566.112 142.014 565.181 141.131 564.836 140.096C564.498 139.078 564.699 137.863 565.375 136.845C565.621 136.475 565.959 136.171 566.331 135.908C564.813 135.707 563.302 135.051 562.405 133.665C561.611 132.438 561.499 130.791 562.121 129.469C562.491 128.683 563.231 127.825 564.133 127.265C563.74 127.075 563.366 126.816 563.074 126.445C562.218 125.365 562.459 123.817 563.139 122.847C563.811 121.889 564.86 121.17 566.017 120.874C567.688 120.446 570.416 120.28 572.804 120.464C573.019 120.481 573.249 120.491 573.488 120.501C574.7 120.554 576.209 120.621 577.699 121.518C578.938 122.262 579.947 123.809 579.48 125.327C579.074 126.646 577.799 127.487 575.684 127.83C577.031 128.325 578.076 129.169 578.653 130.239C578.958 130.805 579.081 131.353 579.016 131.864C578.92 132.63 578.419 133.318 577.484 133.969C577.202 134.165 576.848 134.348 576.446 134.515C577.893 135.02 578.599 136.127 578.654 137.101C578.708 138.046 578.312 139.104 577.67 139.734C577.121 140.273 576.288 140.827 575.126 141.429C573.697 142.168 571.722 142.512 570.673 142.65C570.267 142.704 569.774 142.756 569.249 142.756ZM568.365 134.824C568.598 134.824 568.809 134.974 568.884 135.199C568.967 135.447 568.862 135.717 568.634 135.846C568.467 135.942 568.289 136.036 568.104 136.134C567.42 136.498 566.643 136.911 566.286 137.449C565.795 138.189 565.641 139.048 565.874 139.75C566.113 140.47 566.796 141.097 567.701 141.426C568.628 141.762 569.756 141.667 570.526 141.565C571.314 141.461 573.291 141.144 574.621 140.456C575.67 139.913 576.438 139.407 576.901 138.952C577.324 138.536 577.596 137.8 577.56 137.162C577.522 136.474 576.893 135.666 575.576 135.411C574.73 135.247 573.856 135.376 572.644 135.554C572.478 135.578 572.304 135.604 572.124 135.63C571.656 135.703 571.225 135.757 570.861 135.792C570.563 135.821 570.296 135.603 570.265 135.304C570.235 135.005 570.45 134.737 570.749 134.705C571.22 134.652 571.655 134.592 572.053 134.534C573.79 134.257 575.904 133.732 576.857 133.069C577.522 132.605 577.873 132.167 577.929 131.725C577.965 131.443 577.884 131.117 577.688 130.756C577.019 129.514 575.688 128.959 574.955 128.738C573.795 128.389 570.549 128.097 569.232 128.071C568.933 128.066 568.695 127.821 568.696 127.522C568.697 127.223 568.938 126.981 569.237 126.978L569.91 126.973C571.45 126.961 574.026 126.942 575.125 126.804C577.026 126.566 578.138 125.961 578.431 125.005C578.729 124.035 577.984 122.968 577.132 122.455C575.88 121.702 574.581 121.644 573.437 121.594C573.184 121.583 572.943 121.572 572.718 121.555C570.474 121.384 567.829 121.539 566.286 121.934C565.378 122.166 564.557 122.728 564.034 123.476C563.597 124.098 563.413 125.112 563.929 125.765C564.339 126.282 565.067 126.491 565.907 126.693C566.165 126.755 566.342 126.993 566.326 127.258C566.311 127.522 566.107 127.737 565.844 127.768C564.843 127.886 563.616 128.857 563.11 129.934C562.645 130.922 562.728 132.153 563.321 133.071C564.371 134.693 566.656 135.032 568.295 134.828C568.32 134.826 568.343 134.824 568.365 134.824Z" fill="black"/>
<path d="M721.591 47.4561L720.351 69.2582C730.24 72.7955 741.308 77.9487 746.202 87.2423C749.623 93.7382 750.14 101.329 750.376 108.668C750.823 122.575 747.093 180.215 744.683 215.367C743.626 230.773 730.374 242.459 714.957 241.582L624.549 236.441C609.132 235.565 597.289 222.451 597.986 207.026C599.576 171.826 602.404 114.136 604.424 100.369C605.491 93.1055 606.865 85.6212 611 79.5543C616.916 70.8768 628.496 67.0096 638.722 64.6166L639.962 42.8145" fill="white"/>
<path d="M716.591 242.18C716.037 242.18 715.483 242.165 714.925 242.133L624.516 236.992C616.914 236.559 609.916 233.21 604.813 227.558C599.71 221.908 597.089 214.606 597.432 207C598.963 173.113 601.834 114.189 603.875 100.288C604.942 93.0224 606.335 85.4118 610.541 79.2419C616.639 70.2963 628.453 66.4794 638.193 64.1727L639.409 42.7829C639.427 42.4775 639.692 42.2391 639.993 42.2623C640.298 42.2791 640.531 42.5406 640.513 42.8461L639.274 64.6482C639.26 64.8931 639.086 65.0993 638.847 65.1547C629.229 67.4059 617.423 71.112 611.456 79.8643C607.383 85.8396 606.018 93.3097 604.971 100.447C602.937 114.301 600.067 173.184 598.538 207.049C598.208 214.363 600.728 221.383 605.634 226.816C610.541 232.249 617.269 235.47 624.578 235.887L714.987 241.027C722.298 241.442 729.346 239.004 734.837 234.162C740.327 229.32 743.627 222.631 744.129 215.327C746.448 181.505 750.272 122.677 749.821 108.683C749.589 101.472 749.08 93.8961 745.71 87.4968C740.774 78.1246 729.464 73.1042 720.163 69.777C719.932 69.6945 719.783 69.4702 719.797 69.2241L721.037 47.422C721.053 47.1166 721.319 46.8794 721.62 46.9013C721.926 46.9181 722.159 47.1797 722.141 47.4851L720.925 68.8736C730.339 72.2691 741.644 77.4017 746.689 86.98C750.169 93.5868 750.69 101.306 750.928 108.646C751.38 122.688 747.554 181.558 745.233 215.4C744.712 222.997 741.28 229.954 735.57 234.99C730.277 239.661 723.592 242.18 716.591 242.18Z" fill="black"/>
<path d="M720.839 60.6567L721.589 47.4561L639.962 42.8145L639.21 56.0151C645.976 57.2109 715.195 60.4763 720.839 60.6567Z" fill="black"/>
<path d="M734.211 226.475C730.624 229.856 722.953 234.667 710.465 233.785C706.299 233.492 653.138 230.517 645.29 230.079C634.262 229.463 620.56 229.368 613.039 227.494C608.117 226.269 601.181 221.393 598.111 211.258C599.522 224.782 610.566 235.646 624.55 236.441L714.958 241.582C730.375 242.458 743.627 230.771 744.684 215.367C744.934 211.729 745.197 207.849 745.469 203.802C743.491 209.602 739.555 221.437 734.211 226.475Z" fill="black"/>
<path d="M729.929 55.8771L630.843 50.2432C628.597 50.1157 626.879 48.1905 627.007 45.9444L629.364 4.48559C629.491 2.23952 631.416 0.520513 633.662 0.649375L732.748 6.28322C734.994 6.41079 736.712 8.33599 736.585 10.5821L734.228 52.0409C734.1 54.2869 732.175 56.0046 729.929 55.8771Z" fill="#000427"/>
<path d="M656.01 33.7423L656.511 21.8424L658.779 21.9379L658.278 33.8378L656.01 33.7423ZM654.091 23.7415L654.175 21.7441L658.61 21.9308L658.526 23.9282L654.091 23.7415ZM659.839 33.9035L665.13 22.2053L667.009 22.2844L671.282 34.3852L668.827 34.2819L665.548 24.3595L666.395 24.3951L662.243 34.0047L659.839 33.9035ZM662.471 31.7929L662.553 29.8632L668.951 30.1326L668.87 32.0623L662.471 31.7929ZM673.683 34.4863L677.518 29.5945L678.358 29.3755C678.211 29.6294 678.044 29.854 677.855 30.0496C677.677 30.2343 677.451 30.3717 677.176 30.4619C676.901 30.552 676.543 30.5879 676.103 30.5693C675.403 30.5399 674.767 30.3492 674.194 29.9972C673.633 29.6344 673.189 29.1523 672.864 28.5507C672.539 27.9492 672.393 27.2704 672.424 26.5143C672.457 25.7469 672.678 25.0553 673.088 24.4395C673.499 23.8125 674.04 23.3265 674.71 22.9816C675.38 22.6368 676.116 22.4812 676.917 22.515C677.729 22.5492 678.449 22.766 679.077 23.1655C679.716 23.5655 680.208 24.0836 680.555 24.72C680.912 25.3568 681.075 26.0589 681.043 26.8262C680.998 27.8757 680.587 28.9211 679.808 29.9622L676.307 34.5968L673.683 34.4863ZM676.651 28.8288C677.046 28.8455 677.4 28.7699 677.712 28.6022C678.024 28.4345 678.272 28.1962 678.454 27.8873C678.649 27.5677 678.754 27.2104 678.771 26.8154C678.788 26.3978 678.713 26.0273 678.546 25.7037C678.39 25.3806 678.164 25.1224 677.867 24.929C677.57 24.7243 677.224 24.6137 676.829 24.597C676.434 24.5804 676.075 24.6614 675.751 24.8399C675.438 25.0076 675.185 25.2457 674.991 25.5541C674.809 25.8629 674.709 26.2261 674.691 26.6436C674.674 27.0499 674.744 27.4146 674.9 27.7377C675.067 28.0612 675.305 28.32 675.613 28.5138C675.921 28.7077 676.267 28.8127 676.651 28.8288ZM685.625 35.1587C684.812 35.1244 684.087 34.913 683.447 34.5243C682.82 34.1249 682.327 33.6067 681.97 32.9699C681.624 32.3223 681.467 31.6148 681.499 30.8474C681.544 29.7979 681.949 28.758 682.716 27.7276L686.218 23.0931L688.858 23.2043L685.041 28.0968L684.184 28.2981C684.319 28.0438 684.475 27.8243 684.653 27.6396C684.841 27.4553 685.079 27.3184 685.365 27.2287C685.652 27.139 686.009 27.1032 686.438 27.1212C687.149 27.1512 687.785 27.3475 688.346 27.7103C688.908 28.0618 689.352 28.5383 689.677 29.1398C690.002 29.7301 690.149 30.4033 690.117 31.1594C690.085 31.938 689.863 32.6352 689.453 33.251C689.043 33.8668 688.502 34.3471 687.832 34.692C687.162 35.0368 686.426 35.1924 685.625 35.1587ZM685.712 33.0935C686.107 33.1102 686.461 33.0346 686.773 32.8669C687.086 32.6879 687.339 32.4442 687.533 32.1358C687.727 31.8161 687.833 31.4532 687.85 31.0469C687.867 30.6407 687.792 30.2758 687.625 29.9522C687.458 29.6173 687.226 29.3532 686.929 29.1598C686.632 28.9664 686.286 28.8614 685.891 28.8448C685.496 28.8282 685.136 28.9091 684.812 29.0877C684.5 29.2554 684.247 29.4934 684.053 29.8018C683.87 30.1107 683.771 30.4682 683.754 30.8745C683.736 31.2807 683.806 31.651 683.961 31.9854C684.128 32.309 684.36 32.5731 684.657 32.7778C684.965 32.9717 685.317 33.0769 685.712 33.0935ZM694.67 35.5395C693.846 35.5048 693.102 35.3321 692.437 35.0215C691.772 34.6996 691.225 34.2583 690.797 33.6976L692.384 32.2552C692.595 32.6033 692.905 32.8877 693.314 33.1084C693.735 33.3295 694.199 33.4508 694.706 33.4722C695.169 33.4917 695.573 33.4239 695.919 33.2689C696.276 33.1144 696.557 32.8888 696.761 32.5922C696.978 32.2847 697.095 31.9223 697.112 31.5047C697.131 31.0646 697.045 30.6879 696.855 30.3747C696.676 30.0619 696.426 29.8197 696.105 29.6479C695.785 29.4761 695.421 29.3817 695.015 29.3646C694.586 29.3465 694.194 29.3866 693.84 29.4847C693.497 29.572 693.163 29.7275 692.837 29.9512L693.033 28.5011C693.257 28.2845 693.491 28.1134 693.733 27.988C693.976 27.8512 694.246 27.7552 694.542 27.6998C694.85 27.6337 695.208 27.6091 695.614 27.6262C696.483 27.6628 697.197 27.8738 697.758 28.2591C698.33 28.6337 698.756 29.1264 699.035 29.7373C699.315 30.337 699.44 30.9923 699.41 31.7032C699.377 32.4819 699.156 33.1678 698.747 33.761C698.338 34.3542 697.781 34.8113 697.078 35.1321C696.387 35.4422 695.584 35.578 694.67 35.5395ZM692.837 29.9512L691.782 28.8215L692.555 23.3599L694.637 23.4475L693.793 28.9909L692.837 29.9512ZM692.826 25.3723L692.555 23.3599L699.089 23.635L699.004 25.6324L692.826 25.3723ZM701.387 35.6527L706.012 25.2661L708.281 25.3616L703.773 35.7532L701.387 35.6527ZM700.162 25.6811L700.246 23.6837L708.337 24.0243L708.281 25.3616L707.39 25.9854L700.162 25.6811Z" fill="white"/>
<path d="M730.111 56.3362C730.022 56.3362 729.932 56.3336 729.843 56.3285L630.757 50.6947C628.213 50.549 626.261 48.3622 626.405 45.8185L628.762 4.3597C628.832 3.12778 629.378 1.99637 630.3 1.17423C631.221 0.352091 632.403 -0.0641322 633.638 0.00803052L732.724 5.64187C735.268 5.7862 737.22 7.97429 737.076 10.518L734.719 51.9768C734.648 53.21 734.103 54.3414 733.182 55.1623C732.328 55.9251 731.246 56.3362 730.111 56.3362ZM633.372 1.09434C632.505 1.09434 631.68 1.40875 631.028 1.98992C630.324 2.61748 629.908 3.48087 629.855 4.42156L627.498 45.8803C627.387 47.8223 628.878 49.4924 630.82 49.6032L729.906 55.237C730.848 55.2912 731.753 54.9741 732.455 54.3466C733.159 53.719 733.575 52.8557 733.629 51.915L735.986 10.4562C736.097 8.51422 734.606 6.84416 732.664 6.73333L633.578 1.09949C633.508 1.09563 633.44 1.09434 633.372 1.09434Z" fill="black"/>
<path d="M724.521 218.115L617.705 212.042C613.768 211.818 610.758 208.445 610.981 204.507L617.054 97.6897C617.278 93.753 620.652 90.7428 624.589 90.9657L731.406 97.039C735.343 97.2632 738.353 100.637 738.13 104.574L732.057 211.391C731.833 215.329 728.459 218.339 724.521 218.115Z" fill="#1A9657"/>
<path d="M724.932 218.716C724.785 218.716 724.637 218.712 724.489 218.703L617.671 212.63C615.611 212.513 613.718 211.6 612.344 210.059C610.969 208.519 610.277 206.536 610.394 204.476L616.468 97.6579C616.71 93.4042 620.363 90.1465 624.622 90.381L731.44 96.4543C733.5 96.5716 735.393 97.4839 736.767 99.0251C738.142 100.565 738.834 102.548 738.717 104.61L732.643 211.428C732.41 215.532 728.994 218.716 724.932 218.716ZM624.179 91.5434C620.734 91.5434 617.839 94.2431 617.64 97.7249L611.567 204.543C611.468 206.29 612.055 207.972 613.22 209.277C614.385 210.582 615.99 211.357 617.737 211.456L724.555 217.529C728.169 217.738 731.263 214.966 731.469 211.359L737.543 104.542C737.642 102.794 737.055 101.113 735.889 99.8061C734.724 98.5007 733.12 97.7262 731.373 97.627L624.555 91.5537C624.43 91.546 624.304 91.5434 624.179 91.5434Z" fill="black"/>
<path d="M673.46 158.865C673.307 158.865 673.158 158.807 673.045 158.694L665.631 151.296C665.402 151.066 665.401 150.694 665.63 150.465C665.859 150.235 666.232 150.234 666.461 150.463L673.539 157.526L683.106 151.373C683.379 151.198 683.743 151.277 683.918 151.55C684.093 151.823 684.015 152.186 683.741 152.362L673.777 158.771C673.68 158.834 673.569 158.865 673.46 158.865Z" fill="black"/>
<path d="M651.36 145.702C651.201 148.477 648.824 150.6 646.048 150.443C643.272 150.285 641.15 147.907 641.307 145.131C641.466 142.355 643.843 140.233 646.619 140.39C649.394 140.547 651.517 142.925 651.36 145.702Z" fill="#FF5233"/>
<path d="M655.093 137.677C655.234 135.194 656.564 134.029 658.118 134.118C659.672 134.206 660.862 135.514 660.721 137.997C660.581 140.48 659.25 141.645 657.696 141.556C656.142 141.468 654.952 140.16 655.093 137.677Z" fill="black"/>
<path d="M696.289 142.724C696.246 142.724 696.202 142.719 696.158 142.71L683.654 139.884C683.45 139.837 683.286 139.688 683.223 139.489C683.16 139.291 683.205 139.074 683.344 138.918L692.143 129.049C692.36 128.807 692.731 128.786 692.973 129.001C693.215 129.218 693.237 129.589 693.021 129.831L684.885 138.956L696.416 141.563C696.733 141.634 696.932 141.949 696.859 142.265C696.8 142.538 696.558 142.724 696.289 142.724Z" fill="black"/>
<path d="M683.784 139.898C683.527 139.898 683.293 139.73 683.219 139.472C683.131 139.16 683.311 138.834 683.623 138.745L697.995 134.631C698.308 134.54 698.633 134.722 698.722 135.034C698.812 135.346 698.63 135.672 698.318 135.761L683.948 139.875C683.892 139.891 683.838 139.898 683.784 139.898Z" fill="black"/>
<path d="M708.668 149.063C708.884 146.29 706.813 143.868 704.04 143.651C701.268 143.434 698.845 145.506 698.629 148.278C698.412 151.051 700.484 153.473 703.256 153.69C706.028 153.907 708.451 151.835 708.668 149.063Z" fill="#FF5233"/>
<path d="M620.684 187.028C620.641 187.028 620.6 187.027 620.558 187.024C619.352 186.956 618.429 185.923 618.498 184.717L619.455 167.91C619.523 166.704 620.558 165.784 621.763 165.851C622.969 165.919 623.891 166.953 623.822 168.159L622.867 184.965C622.8 186.129 621.835 187.028 620.684 187.028Z" fill="#36BC78"/>
<path d="M619.268 198.444C619.225 198.444 619.184 198.443 619.142 198.44C617.935 198.372 617.013 197.339 617.082 196.132L617.299 192.313C617.367 191.107 618.401 190.185 619.607 190.252C620.813 190.321 621.736 191.354 621.666 192.56L621.448 196.38C621.384 197.545 620.42 198.444 619.268 198.444Z" fill="#36BC78"/>
</svg>
