<svg width="41" height="40" viewBox="0 0 41 40" fill="none" xmlns="http://www.w3.org/2000/svg">
<path d="M18.4159 37.5H22.6159C24.2159 37.5 25.2492 36.3667 24.9492 34.9834L24.2659 31.9668H16.7659L16.0826 34.9834C15.7826 36.2834 16.9159 37.5 18.4159 37.5Z" stroke="#222222" stroke-width="2" stroke-linecap="round" stroke-linejoin="round"/>
<path d="M24.2663 31.9503L27.1496 29.3836C28.7663 27.9502 28.8329 26.9502 27.5496 25.3335L22.4663 18.8836C21.3996 17.5336 19.6496 17.5336 18.5829 18.8836L13.4996 25.3335C12.2163 26.9502 12.2163 28.0002 13.8996 29.3836L16.7829 31.9503" stroke="#222222" stroke-width="2" stroke-linecap="round" stroke-linejoin="round"/>
<path d="M20.5156 18.5332V22.7499" stroke="#222222" stroke-width="2" stroke-linecap="round" stroke-linejoin="round"/>
<path d="M21.3665 8.33203H19.6999C18.7832 8.33203 18.0332 7.58203 18.0332 6.66536V4.9987C18.0332 4.08203 18.7832 3.33203 19.6999 3.33203H21.3665C22.2832 3.33203 23.0332 4.08203 23.0332 4.9987V6.66536C23.0332 7.58203 22.2832 8.33203 21.3665 8.33203Z" stroke="#222222" stroke-width="2" stroke-linecap="round" stroke-linejoin="round"/>
<path d="M5.94987 23.6153H7.61654C8.5332 23.6153 9.2832 22.8653 9.2832 21.9487V20.282C9.2832 19.3653 8.5332 18.6152 7.61654 18.6152H5.94987C5.0332 18.6152 4.2832 19.3653 4.2832 20.282V21.9487C4.2832 22.8653 5.0332 23.6153 5.94987 23.6153Z" stroke="#222222" stroke-width="2" stroke-linecap="round" stroke-linejoin="round"/>
<path d="M35.0501 23.6153H33.3835C32.4668 23.6153 31.7168 22.8653 31.7168 21.9487V20.282C31.7168 19.3653 32.4668 18.6152 33.3835 18.6152H35.0501C35.9668 18.6152 36.7168 19.3653 36.7168 20.282V21.9487C36.7168 22.8653 35.9668 23.6153 35.0501 23.6153Z" stroke="#222222" stroke-width="2" stroke-linecap="round" stroke-linejoin="round"/>
<path d="M18.0333 5.93164C11.6833 6.68164 6.75 12.0649 6.75 18.6149" stroke="#222222" stroke-width="2" stroke-linecap="round" stroke-linejoin="round"/>
<path d="M34.2499 18.6149C34.2499 12.0816 29.3499 6.71497 23.0332 5.93164" stroke="#222222" stroke-width="2" stroke-linecap="round" stroke-linejoin="round"/>
</svg>
