<svg width="40" height="41" viewBox="0 0 40 41" fill="none" xmlns="http://www.w3.org/2000/svg">
<path d="M34.9666 18.4154C34.5999 11.9154 29.7833 6.4987 23.35 5.3987C23.25 4.11536 22.1833 3.08203 20.8666 3.08203H19.2C17.8833 3.08203 16.8333 4.0987 16.7166 5.38203C10.25 6.4487 5.39995 11.882 5.03328 18.4154C3.84995 18.6154 2.94995 19.632 2.94995 20.8654V22.532C2.94995 23.9154 4.06662 25.032 5.44995 25.032H7.11662C8.49995 25.032 9.61662 23.9154 9.61662 22.532V20.8654C9.61662 19.632 8.71662 18.6154 7.53328 18.4154C7.88328 13.2154 11.7 8.8987 16.7999 7.8987C17.0833 8.96536 18.05 9.7487 19.2 9.7487H20.8666C22.0166 9.7487 22.9666 8.96536 23.2666 7.91536C28.3333 8.93203 32.1166 13.2487 32.4666 18.4154C31.2833 18.6154 30.3833 19.632 30.3833 20.8654V22.532C30.3833 23.9154 31.4999 25.032 32.8833 25.032H34.5499C35.9333 25.032 37.0499 23.9154 37.0499 22.532V20.8654C37.0499 19.632 36.1499 18.5987 34.9666 18.4154Z" fill="#9B9B9B"/>
<path d="M26.2833 28.1654L23.55 30.582H16.4666L13.7333 28.1654C12.15 26.8654 12.15 25.8654 13.35 24.332L18.1666 18.232C18.5 17.8154 18.8833 17.532 19.3166 17.382C19.7666 17.232 20.25 17.232 20.7166 17.382C21.1333 17.532 21.5166 17.8154 21.8666 18.232L26.6666 24.3154C27.8833 25.8487 27.8166 26.7987 26.2833 28.1654Z" fill="#9B9B9B"/>
<path d="M22.2 37.2497H17.8833C16.35 37.2497 15.2 35.9997 15.5 34.6664L16.0166 32.3497C16.1166 31.8831 16.5333 31.5664 17 31.5664H23.0833C23.55 31.5664 23.95 31.8831 24.0666 32.3497L24.5833 34.6664C24.9 36.0831 23.8333 37.2497 22.2 37.2497Z" fill="#9B9B9B"/>
</svg>
