<svg width="500" height="500" viewBox="0 0 500 500" fill="none" xmlns="http://www.w3.org/2000/svg">
<path d="M444.088 265.156H417.607V276.346H444.088V265.156Z" fill="#EBEBEB"/>
<path d="M444.088 36.7656H417.607V47.9556H444.088V36.7656Z" fill="#EBEBEB"/>
<path d="M458.86 50.875H432.379V62.065H458.86V50.875Z" fill="#EBEBEB"/>
<path d="M67.622 36.7812H41.141V47.9712H67.622V36.7812Z" fill="#EBEBEB"/>
<path d="M194.589 170.648H221.07V159.458H194.589V170.648Z" fill="#EBEBEB"/>
<path d="M209.361 156.531H235.841V145.341H209.361V156.531Z" fill="#EBEBEB"/>
<path d="M317.69 106.018C323.796 93.1738 318.333 77.8118 305.489 71.7061C292.645 65.6004 277.283 71.0631 271.177 83.9074C265.071 96.7517 270.534 112.114 283.378 118.219C296.223 124.325 311.585 118.862 317.69 106.018Z" fill="#EBEBEB"/>
<path d="M304.888 118.293C317.457 113.176 323.499 98.8396 318.383 86.2704C313.267 73.7011 298.93 67.6593 286.361 72.7754C273.791 77.8916 267.75 92.2284 272.866 104.798C277.982 117.367 292.319 123.409 304.888 118.293Z" fill="#DBDBDB"/>
<path d="M304.329 116.841C316.103 112.042 321.759 98.608 316.96 86.834C312.162 75.0599 298.728 69.4048 286.954 74.2029C275.18 79.001 269.525 92.4354 274.323 104.209C279.121 115.984 292.555 121.639 304.329 116.841Z" fill="white"/>
<path opacity="0.5" d="M318.127 90.6414C307.644 96.9934 290.415 107.412 280.786 113.123C278.085 110.843 275.917 107.953 274.496 104.665L306.344 75.1484C312.274 78.2714 316.673 83.9094 318.127 90.6414Z" fill="#EBEBEB"/>
<path opacity="0.5" d="M318.632 96.3281C318.544 98.9581 318.012 101.475 317.111 103.808L288.399 117.387C287.139 116.97 285.927 116.448 284.773 115.829C293.446 110.817 309.295 101.698 318.632 96.3281Z" fill="#EBEBEB"/>
<path d="M295.851 74.1797H295.406V77.6687H295.851V74.1797Z" fill="#C7C7C7"/>
<path d="M285.136 76.9181L284.751 77.1406L286.495 80.1621L286.881 79.9396L285.136 76.9181Z" fill="#C7C7C7"/>
<path d="M277.26 84.6615L277.038 85.0469L280.059 86.7917L280.282 86.4064L277.26 84.6615Z" fill="#C7C7C7"/>
<path d="M277.768 95.3047H274.279V95.7497H277.768V95.3047Z" fill="#C7C7C7"/>
<path d="M280.042 104.263L277.021 106.008L277.243 106.393L280.265 104.649L280.042 104.263Z" fill="#C7C7C7"/>
<path d="M286.498 110.884L284.756 113.906L285.141 114.129L286.884 111.106L286.498 110.884Z" fill="#C7C7C7"/>
<path d="M295.851 113.391H295.406V116.88H295.851V113.391Z" fill="#C7C7C7"/>
<path d="M304.743 110.887L304.358 111.109L306.102 114.131L306.488 113.908L304.743 110.887Z" fill="#C7C7C7"/>
<path d="M311.221 104.271L310.999 104.656L314.02 106.401L314.243 106.016L311.221 104.271Z" fill="#C7C7C7"/>
<path d="M316.978 95.3047H313.489V95.7497H316.978V95.3047Z" fill="#C7C7C7"/>
<path d="M313.999 84.6617L310.978 86.4062L311.2 86.7916L314.222 85.0471L313.999 84.6617Z" fill="#C7C7C7"/>
<path d="M306.114 76.915L304.371 79.9375L304.756 80.1598L306.499 77.1373L306.114 76.915Z" fill="#C7C7C7"/>
<path d="M295.963 75.757L296.72 97.08L294.536 97.053L295.37 75.75L295.963 75.757Z" fill="#C7C7C7"/>
<path d="M309.245 88.0913L294.899 97.2483L293.856 95.3293L308.962 87.5703L309.245 88.0913Z" fill="#A6A6A6"/>
<path d="M296.373 95.5263C296.373 95.9383 296.039 96.2712 295.628 96.2712C295.216 96.2712 294.883 95.9373 294.883 95.5263C294.883 95.1143 295.217 94.7812 295.628 94.7812C296.04 94.7812 296.373 95.1153 296.373 95.5263Z" fill="#C7C7C7"/>
<path d="M457.17 89.2266H345.769V228.229H457.17V89.2266Z" fill="#EBEBEB"/>
<path d="M452.394 94.1328H350.545V223.404H452.394V94.1328Z" fill="white"/>
<path d="M389.052 129.45C380.678 128.572 374.442 139.052 369.06 155.449C363.678 171.846 364.216 181.114 364.934 183.805C365.652 186.496 368.582 192.176 374.382 192.834C380.182 193.492 384.487 189.067 387.597 186.555C390.706 184.044 397.045 182.907 398.36 177.167C399.676 171.427 397.403 152.112 396.985 148.644C396.567 145.177 396.467 130.228 389.052 129.45Z" fill="#DBDBDB"/>
<path d="M395.689 178.624C394.175 182.054 388.195 182.372 386.361 184.446C384.529 186.517 379.267 190.823 375.201 191.062C371.135 191.301 368.104 186.678 367.069 184.286C366.313 182.542 365.981 176.69 367.557 167.899C368.141 164.632 368.99 160.958 370.178 156.94C371.156 153.632 372.228 150.614 373.347 147.904C377.243 138.47 381.716 132.797 384.847 131.745C395.292 128.238 393.936 143.704 395.053 150.322C395.421 152.511 395.783 155.976 396.046 159.756C396.194 161.894 396.312 164.133 396.381 166.3C396.557 171.877 396.421 176.971 395.689 178.624Z" fill="#EBEBEB"/>
<path d="M375.248 150.138C375.192 149.528 374.691 149.189 374.109 149.43C373.494 149.684 373.179 150.472 373.034 151.08C372.906 151.617 372.995 152.505 373.741 152.418C374.202 152.364 374.494 151.886 374.713 151.527C374.968 151.108 375.295 150.648 375.248 150.138Z" fill="#DBDBDB"/>
<path d="M376.118 144.663C375.497 145.002 375.271 145.705 375.079 146.344C374.923 146.86 374.685 147.803 375.474 147.908C376.097 147.991 376.412 147.29 376.612 146.826C376.822 146.34 377.063 145.8 377.088 145.266C377.11 144.769 376.553 144.426 376.118 144.663Z" fill="#DBDBDB"/>
<path d="M377.81 148.618C377.74 148.268 377.315 148.092 377.01 148.259C376.32 148.636 375.773 149.673 376.037 150.466C376.151 150.808 376.554 151.083 376.911 150.858C377.611 150.415 377.969 149.408 377.81 148.618Z" fill="#DBDBDB"/>
<path d="M380.432 142.76C380.493 142.24 379.908 141.748 379.432 142.108C378.773 142.606 378.078 143.741 378.395 144.586C378.492 144.844 378.778 144.98 379.04 144.891C379.802 144.633 380.343 143.514 380.432 142.76Z" fill="#DBDBDB"/>
<path d="M377.786 140.779C377.401 140.973 377.127 141.319 376.942 141.7C376.748 142.099 376.671 142.446 376.79 142.879C376.849 143.095 377.066 143.177 377.263 143.091C377.964 142.786 378.451 142.013 378.577 141.27C378.649 140.846 378.109 140.616 377.786 140.779Z" fill="#DBDBDB"/>
<path d="M380.383 137.831C379.721 138.152 378.992 138.978 379.064 139.763C379.102 140.182 379.512 140.565 379.944 140.31C380.564 139.944 380.958 139.113 381.108 138.43C381.202 137.999 380.801 137.628 380.383 137.831Z" fill="#DBDBDB"/>
<path d="M382.794 135.403C382.75 135.124 382.42 134.949 382.16 135.013C381.799 135.103 381.631 135.392 381.436 135.68C381.271 135.924 381.112 136.24 381.195 136.543C381.244 136.722 381.382 136.817 381.558 136.841C381.894 136.886 382.204 136.622 382.402 136.383C382.495 136.271 382.599 136.159 382.678 136.036C382.81 135.838 382.83 135.63 382.794 135.403Z" fill="#DBDBDB"/>
<path d="M382.407 140.364C382.366 140.073 382.015 139.893 381.749 139.959C381.328 140.062 381.131 140.401 380.96 140.768C380.802 141.109 380.708 141.76 381.204 141.878C381.613 141.976 381.904 141.67 382.104 141.352C382.173 141.243 382.251 141.134 382.313 141.021C382.43 140.812 382.44 140.594 382.407 140.364Z" fill="#DBDBDB"/>
<path d="M380.248 146.239C380.214 145.799 379.785 145.422 379.341 145.675C378.753 146.01 378.295 146.983 378.545 147.653C378.658 147.955 378.987 148.191 379.313 147.998C379.595 147.83 379.807 147.554 379.948 147.26C380.108 146.927 380.278 146.621 380.248 146.239Z" fill="#DBDBDB"/>
<path d="M375.054 152.692C374.652 153.075 374.447 153.692 374.424 154.24C374.41 154.58 374.535 155.518 375.111 155.307C375.502 155.164 375.657 154.81 375.821 154.448C375.999 154.055 376.184 153.661 376.234 153.229C376.305 152.613 375.473 152.294 375.054 152.692Z" fill="#DBDBDB"/>
<path d="M372.331 154.335C371.766 154.79 371.616 155.669 371.746 156.353C371.832 156.805 372.445 156.86 372.682 156.509C373.007 156.029 373.343 155.39 373.36 154.805C373.378 154.247 372.735 154.01 372.331 154.335Z" fill="#DBDBDB"/>
<path d="M373.995 159.061C373.922 158.694 373.419 158.428 373.087 158.654C372.837 158.825 372.636 158.988 372.523 159.279C372.435 159.506 372.379 159.774 372.383 160.017C372.391 160.527 372.736 161.167 373.331 160.928C373.642 160.803 373.819 160.414 373.912 160.116C374.026 159.752 374.07 159.439 373.995 159.061Z" fill="#DBDBDB"/>
<path d="M371.092 162.203C371.08 161.737 370.529 161.439 370.164 161.78C369.827 162.094 369.525 162.778 369.691 163.238C369.83 163.623 370.28 163.826 370.617 163.518C370.922 163.238 371.103 162.611 371.092 162.203Z" fill="#DBDBDB"/>
<path d="M371.632 164.559C371.414 164.501 371.107 164.567 370.999 164.791C370.924 164.947 370.881 165.08 370.91 165.256C370.929 165.372 370.988 165.482 371.071 165.565C371.21 165.704 371.415 165.791 371.604 165.695C371.66 165.666 371.707 165.644 371.759 165.606C371.93 165.483 371.991 165.31 372.018 165.107C372.049 164.878 371.849 164.617 371.632 164.559Z" fill="#DBDBDB"/>
<path d="M385.027 133.192C384.809 133.134 384.502 133.2 384.394 133.424C384.319 133.58 384.276 133.713 384.305 133.889C384.324 134.005 384.383 134.115 384.466 134.199C384.605 134.338 384.81 134.425 384.999 134.328C385.055 134.3 385.102 134.277 385.155 134.239C385.326 134.116 385.387 133.943 385.414 133.74C385.444 133.511 385.244 133.25 385.027 133.192Z" fill="#DBDBDB"/>
<path d="M413.887 129.45C422.261 128.572 428.497 139.052 433.879 155.449C439.261 171.846 438.723 181.114 438.005 183.805C437.288 186.496 434.357 192.176 428.557 192.834C422.757 193.492 418.452 189.067 415.342 186.555C412.233 184.044 405.894 182.907 404.579 177.167C403.263 171.427 405.536 152.112 405.954 148.644C406.373 145.177 406.473 130.228 413.887 129.45Z" fill="#DBDBDB"/>
<path d="M407.251 178.624C408.765 182.054 414.745 182.372 416.579 184.446C418.411 186.517 423.673 190.823 427.739 191.062C431.805 191.301 434.836 186.678 435.871 184.286C436.627 182.542 436.959 176.69 435.383 167.899C434.799 164.632 433.95 160.958 432.762 156.94C431.784 153.632 430.712 150.614 429.593 147.904C425.697 138.47 421.224 132.797 418.093 131.745C407.648 128.238 409.004 143.704 407.887 150.322C407.519 152.511 407.158 155.976 406.894 159.756C406.746 161.894 406.628 164.133 406.559 166.3C406.382 171.877 406.519 176.971 407.251 178.624Z" fill="#EBEBEB"/>
<path d="M409.764 153.396C409.547 153.172 409.167 153.125 408.929 153.352C408.337 153.917 407.966 156.136 409.21 156.202C410.459 156.268 410.355 154.008 409.764 153.396Z" fill="#DBDBDB"/>
<path d="M411.988 155.982C411.833 155.822 411.533 155.769 411.365 155.949C410.826 156.525 410.666 157.547 410.993 158.265C411.288 158.915 412.159 158.719 412.402 158.156C412.681 157.508 412.477 156.484 411.988 155.982Z" fill="#DBDBDB"/>
<path d="M408.949 158.55C408.086 158.897 408.046 160.464 408.434 161.143C408.782 161.751 409.656 161.682 409.907 161.029C410.132 160.442 410.081 158.095 408.949 158.55Z" fill="#DBDBDB"/>
<path d="M411.645 162.567C411.375 162.129 410.822 162.1 410.507 162.507C410.182 162.927 410.117 163.605 410.349 164.076C410.595 164.574 411.338 164.615 411.636 164.145C411.918 163.7 411.924 163.02 411.645 162.567Z" fill="#DBDBDB"/>
<path d="M409.004 165.387C408.808 165.122 408.337 165.117 408.112 165.34C407.686 165.764 407.64 166.658 408.195 167.004C408.426 167.148 408.769 167.146 408.972 166.945C409.385 166.539 409.329 165.828 409.004 165.387Z" fill="#DBDBDB"/>
<path d="M410.02 168.562C410.015 168.558 410.011 168.555 410.006 168.552C409.873 168.444 409.614 168.43 409.47 168.524C409.465 168.527 409.46 168.53 409.455 168.533C409.244 168.67 409.106 168.89 409.164 169.153C409.215 169.385 409.438 169.591 409.682 169.593C409.909 169.595 410.112 169.481 410.212 169.276C410.343 169.006 410.241 168.741 410.02 168.562Z" fill="#DBDBDB"/>
<path d="M412.338 149.944C412.175 149.701 411.81 149.549 411.567 149.803C410.895 150.503 410.868 151.565 410.97 152.482C411.016 152.898 411.49 153.178 411.872 153.141C412.309 153.099 412.603 152.776 412.655 152.344C412.745 151.58 412.783 150.607 412.338 149.944Z" fill="#DBDBDB"/>
<path d="M410.354 147.335C410.213 147.127 409.991 147.028 409.747 147.141C409.096 147.444 408.864 148.202 408.764 148.857C408.672 149.459 408.648 150.473 409.398 150.673C410.2 150.886 410.464 149.947 410.546 149.35C410.634 148.715 410.736 147.894 410.354 147.335Z" fill="#DBDBDB"/>
<path d="M412.959 146.186C412.955 145.779 412.855 145.405 412.583 145.093C412.374 144.853 411.975 144.831 411.741 145.048C411.438 145.329 411.299 145.691 411.252 146.095C411.208 146.471 411.157 146.883 411.268 147.25C411.503 148.026 412.504 148.08 412.82 147.332C412.97 146.98 412.963 146.565 412.959 146.186Z" fill="#DBDBDB"/>
<path d="M411.122 141.739C411.011 141.42 410.656 141.258 410.374 141.499C409.79 141.997 409.517 142.793 409.827 143.523C410.032 144.005 410.741 143.992 411.007 143.586C411.366 143.032 411.327 142.333 411.122 141.739Z" fill="#DBDBDB"/>
<path d="M413.962 160.51C413.954 160.414 413.937 160.32 413.91 160.227C413.887 160.123 413.839 160.033 413.774 159.951C413.77 159.945 413.767 159.94 413.761 159.931C413.759 159.929 413.757 159.927 413.756 159.924C413.754 159.921 413.753 159.918 413.75 159.916C413.752 159.919 413.753 159.92 413.755 159.923C413.601 159.696 413.302 159.537 413.033 159.698C412.792 159.843 412.577 160.05 412.497 160.332C412.404 160.659 412.435 160.989 412.554 161.302C412.655 161.568 413.001 161.707 413.258 161.686C413.545 161.663 413.792 161.473 413.888 161.199C413.962 160.987 413.98 160.734 413.962 160.51Z" fill="#DBDBDB"/>
<path d="M414.924 154.09C414.813 153.716 414.528 153.125 414.034 153.344C413.22 153.706 413.143 155.177 413.477 155.866C413.789 156.509 414.633 156.325 414.887 155.757C415.092 155.301 415.064 154.56 414.924 154.09Z" fill="#DBDBDB"/>
<path d="M414.787 148.924C414.693 148.571 414.311 148.184 413.923 148.353C413.809 148.403 413.711 148.459 413.627 148.552C413.471 148.725 413.421 148.868 413.387 149.096C413.342 149.391 413.384 149.633 413.575 149.877C413.79 150.153 414.293 150.179 414.535 149.928C414.695 149.763 414.799 149.584 414.81 149.345C414.816 149.228 414.814 149.028 414.787 148.924Z" fill="#DBDBDB"/>
<path d="M414.363 141.442C414.325 141.046 414.027 140.277 413.507 140.366C412.992 140.455 412.683 141.088 412.614 141.541C412.525 142.129 412.57 142.741 413.077 143.121C413.244 143.246 413.553 143.274 413.731 143.155C414.289 142.781 414.424 142.084 414.363 141.442Z" fill="#DBDBDB"/>
<path d="M412.596 137.039C412.473 136.865 412.213 136.862 412.039 136.937C411.412 137.206 411.137 138.052 411.18 138.679C411.209 139.093 411.417 139.458 411.859 139.535C412.229 139.599 412.715 139.398 412.804 138.987C412.944 138.336 412.999 137.609 412.596 137.039Z" fill="#DBDBDB"/>
<path d="M413.102 134.096C413.019 133.843 412.792 133.583 412.492 133.652C412.339 133.687 412.217 133.754 412.105 133.864C411.912 134.052 411.854 134.233 411.819 134.491C411.776 134.811 412.054 135.103 412.348 135.158C412.679 135.22 412.958 135.033 413.085 134.731C413.172 134.522 413.172 134.308 413.102 134.096Z" fill="#DBDBDB"/>
<path d="M411.037 158.03C410.583 158.135 409.367 157.626 408.033 156.813C407.846 156.698 407.658 156.579 407.469 156.454C406.696 155.949 405.914 155.358 405.237 154.742C405.206 154.713 405.172 154.682 405.139 154.651C404.914 154.436 404.675 154.18 404.431 153.895C403.948 153.331 403.436 152.651 402.941 151.953C402.831 151.797 402.723 151.642 402.616 151.489C402.329 151.073 402.047 150.657 401.784 150.26C401.633 150.033 401.485 149.81 401.346 149.6C400.576 148.433 400.014 147.567 399.916 147.608C399.847 147.637 399.521 148.051 399.072 148.622C398.897 148.84 398.706 149.084 398.503 149.335C398.383 149.483 398.259 149.634 398.132 149.785C397.931 150.029 397.723 150.273 397.515 150.51C397.247 150.814 396.977 151.103 396.719 151.354C396.343 151.72 395.992 152.009 395.702 152.146C395.563 152.213 395.439 152.244 395.334 152.232C394.217 152.112 392.921 149.721 392.98 148.644C392.99 148.479 393.095 148.256 393.269 147.996C393.436 147.742 393.668 147.451 393.939 147.14C394.24 146.793 394.587 146.42 394.946 146.042C395.094 145.887 395.245 145.729 395.396 145.571C395.609 145.346 395.822 145.124 396.027 144.906C396.147 144.777 396.266 144.648 396.381 144.523C396.962 143.884 397.417 143.329 397.524 142.983C397.534 142.954 397.531 142.844 397.517 142.665C397.505 142.514 397.488 142.311 397.462 142.065C397.417 141.608 397.35 141.003 397.273 140.305C397.249 140.085 397.223 139.853 397.196 139.614C397.127 139.016 397.055 138.373 396.981 137.705C396.955 137.454 396.926 137.198 396.9 136.94C396.807 136.093 396.718 135.23 396.637 134.405C396.62 134.214 396.601 134.025 396.584 133.838C396.539 133.324 396.495 132.831 396.462 132.372C396.429 131.929 396.402 131.52 396.383 131.152C396.345 130.253 396.354 129.612 396.45 129.401C396.725 128.789 399.44 128.191 401.793 127.913C403.556 127.703 405.118 127.674 405.297 127.956C405.386 128.095 405.402 128.824 405.374 129.893C405.364 130.218 405.352 130.575 405.336 130.955V130.957C405.31 131.622 405.271 132.359 405.228 133.136C405.214 133.397 405.199 133.662 405.183 133.93C405.138 134.679 405.09 135.451 405.042 136.212C405.016 136.578 404.992 136.942 404.968 137.3C404.927 137.919 404.887 138.522 404.848 139.089C404.822 139.489 404.798 139.871 404.774 140.228C404.745 140.666 404.719 141.068 404.697 141.419C404.678 141.763 404.659 142.06 404.649 142.299C404.63 142.701 404.625 142.945 404.639 142.983C405.05 144.083 405.665 145.105 406.385 146.045C406.583 146.303 406.789 146.557 407.002 146.803C407.275 147.124 407.559 147.432 407.846 147.729C408.035 147.923 408.226 148.114 408.418 148.298C408.791 148.659 409.167 149.004 409.54 149.329C409.868 149.618 410.188 149.891 410.502 150.154C410.885 150.475 411.255 150.776 411.6 151.058C411.839 151.252 412.066 151.438 412.277 151.615C412.485 151.787 412.676 151.95 412.849 152.103C413.334 152.538 413.674 152.899 413.789 153.189C414.386 154.682 411.815 157.851 411.037 158.03Z" fill="#A6A6A6"/>
<path d="M405.373 129.891C405.363 130.216 405.351 130.573 405.335 130.953V130.955C403.843 131.295 402.281 131.479 400.81 131.699C399.662 131.871 398.514 132.053 397.366 132.23C397.065 132.276 396.763 132.33 396.462 132.369C396.429 131.926 396.402 131.517 396.383 131.149C396.747 131.053 397.12 130.982 397.481 130.905C398.538 130.68 399.607 130.501 400.677 130.343C402.187 130.121 403.797 129.903 405.373 129.891Z" fill="#C7C7C7"/>
<path d="M405.227 133.133C405.213 133.394 405.198 133.659 405.182 133.927C404.075 134.03 402.96 134.078 401.862 134.152C400.14 134.267 398.375 134.451 396.636 134.401C396.619 134.21 396.6 134.021 396.583 133.834C398.166 133.573 399.798 133.509 401.388 133.399C402.656 133.31 403.943 133.181 405.227 133.133Z" fill="#C7C7C7"/>
<path d="M405.041 136.211C405.015 136.577 404.991 136.941 404.967 137.299C402.432 137.591 398.923 137.835 396.981 137.703C396.955 137.452 396.926 137.196 396.9 136.938C398.824 136.513 402.462 136.247 405.041 136.211Z" fill="#C7C7C7"/>
<path d="M404.847 139.086C404.821 139.486 404.797 139.868 404.773 140.225C402.223 140.419 398.977 140.462 397.272 140.302C397.248 140.082 397.222 139.85 397.195 139.611C398.887 139.306 402.242 139.086 404.847 139.086Z" fill="#C7C7C7"/>
<path d="M404.696 141.414C404.677 141.758 404.658 142.055 404.648 142.294C403.698 142.38 402.744 142.43 401.802 142.493C400.374 142.586 398.944 142.716 397.516 142.66C397.504 142.509 397.487 142.306 397.461 142.06C398.736 141.849 400.03 141.782 401.326 141.682C402.441 141.596 403.57 141.479 404.696 141.414Z" fill="#C7C7C7"/>
<path d="M396.717 151.355C396.341 151.721 395.99 152.01 395.7 152.147C395.143 151.501 394.671 150.748 394.274 150.095C393.867 149.425 393.525 148.727 393.267 147.997C393.434 147.743 393.666 147.452 393.937 147.141C394.372 147.937 394.805 148.734 395.291 149.502C395.703 150.15 396.229 150.743 396.717 151.355Z" fill="#C7C7C7"/>
<path d="M398.131 149.784C397.93 150.028 397.722 150.272 397.514 150.509C396.624 149.184 395.625 147.426 394.945 146.041C395.093 145.886 395.244 145.728 395.395 145.57C396.177 146.797 397.263 148.437 398.131 149.784Z" fill="#C7C7C7"/>
<path d="M399.071 148.623C398.896 148.841 398.705 149.085 398.502 149.336C398.126 148.745 397.789 148.119 397.452 147.547C396.94 146.684 396.474 145.801 396.026 144.906C396.146 144.777 396.265 144.648 396.38 144.523C396.94 145.413 397.511 146.295 398.081 147.178C398.389 147.661 398.736 148.137 399.071 148.623Z" fill="#C7C7C7"/>
<path d="M407.002 146.797C405.562 148 403.177 149.598 401.783 150.256C401.632 150.029 401.484 149.806 401.345 149.596C402.5 148.658 404.799 147.027 406.385 146.039C406.584 146.297 406.789 146.551 407.002 146.797Z" fill="#C7C7C7"/>
<path d="M408.418 148.296C406.93 149.475 404.562 151.052 402.941 151.953C402.831 151.797 402.723 151.642 402.616 151.489C404.063 150.432 406.295 148.82 407.847 147.727C408.035 147.921 408.227 148.112 408.418 148.296Z" fill="#C7C7C7"/>
<path d="M410.501 150.153C409.032 151.713 406.708 153.676 405.138 154.652C404.913 154.437 404.674 154.181 404.43 153.896C405.678 152.612 407.879 150.648 409.539 149.328C409.868 149.617 410.188 149.89 410.501 150.153Z" fill="#C7C7C7"/>
<path d="M412.848 152.105C411.523 153.88 409.834 155.554 408.033 156.817C407.846 156.702 407.658 156.583 407.469 156.458C408.328 155.604 409.225 154.796 410.081 153.937C410.832 153.184 411.547 152.392 412.277 151.617C412.484 151.789 412.676 151.952 412.848 152.105Z" fill="#C7C7C7"/>
<path d="M426.298 100.195H376.642V103.966H426.298V100.195Z" fill="#C7C7C7"/>
<path d="M415.497 106.859H387.442V110.63H415.497V106.859Z" fill="#C7C7C7"/>
<path d="M250 459.794C365.791 459.794 459.659 451.389 459.659 441.022C459.659 430.655 365.791 422.25 250 422.25C134.208 422.25 40.3409 430.655 40.3409 441.022C40.3409 451.389 134.208 459.794 250 459.794Z" fill="#EBEBEB"/>
<path d="M37.326 378.914H230.802L230.802 69.2031H37.326L37.326 378.914Z" fill="#C7C7C7"/>
<path d="M47.1828 155.312L220.944 155.312V80.3215L47.1828 80.3215V155.312Z" fill="#A6A6A6"/>
<path d="M47.1828 243.805L220.944 243.805V168.814H47.1828V243.805Z" fill="#A6A6A6"/>
<path d="M47.1828 332.297H220.944V257.306H47.1828V332.297Z" fill="#A6A6A6"/>
<path d="M109.394 174.414H91.592V243.806H109.394V174.414Z" fill="white"/>
<path d="M109.394 197.312H91.592V211.312H109.394V197.312Z" fill="#03B0EF"/>
<path d="M109.394 217.164H91.592V225.302H109.394V217.164Z" fill="#03B0EF"/>
<path d="M89.183 174.414H71.381V243.806H89.183V174.414Z" fill="white"/>
<path d="M89.183 197.312H71.381V211.312H89.183V197.312Z" fill="#455A64"/>
<path d="M89.183 217.164H71.381V225.302H89.183V217.164Z" fill="#455A64"/>
<path d="M68.973 174.414H51.171V243.806H68.973V174.414Z" fill="white"/>
<path d="M68.973 197.312H51.171V211.312H68.973V197.312Z" fill="#03B0EF"/>
<path d="M68.973 217.164H51.171V225.302H68.973V217.164Z" fill="#03B0EF"/>
<path d="M50.5167 155.312H66.5527V128.617H50.5167V155.312Z" fill="white"/>
<path d="M48.3166 128.617H68.7526V124.076H48.3166V128.617Z" fill="#03B0EF"/>
<path d="M52.5746 150.953H64.4956V134.491H52.5746V150.953Z" fill="#455A64"/>
<path d="M50.5167 123.031H66.5527V96.3363H50.5167V123.031Z" fill="white"/>
<path d="M48.3166 96.3359H68.7526V91.7949H48.3166V96.3359Z" fill="#03B0EF"/>
<path d="M52.5746 118.672H64.4956V102.21H52.5746V118.672Z" fill="#455A64"/>
<path d="M72.2653 155.312H88.3013V128.617H72.2653V155.312Z" fill="white"/>
<path d="M70.0641 128.617H90.5001V124.076H70.0641V128.617Z" fill="#03B0EF"/>
<path d="M74.3222 150.953H86.2432V134.491H74.3222V150.953Z" fill="#455A64"/>
<path d="M72.2653 123.031H88.3013V96.3363H72.2653V123.031Z" fill="white"/>
<path d="M70.0641 96.3359H90.5001V91.7949H70.0641V96.3359Z" fill="#03B0EF"/>
<path d="M74.3222 118.672H86.2432V102.21H74.3222V118.672Z" fill="#455A64"/>
<path d="M94.0126 155.312H110.049V128.617H94.0126V155.312Z" fill="white"/>
<path d="M91.8124 128.617H112.248V124.076H91.8124V128.617Z" fill="#03B0EF"/>
<path d="M96.0697 150.953H107.991V134.491H96.0697V150.953Z" fill="#455A64"/>
<path d="M94.0126 123.031H110.049V96.3363H94.0126V123.031Z" fill="white"/>
<path d="M91.8124 96.3359H112.248V91.7949H91.8124V96.3359Z" fill="#03B0EF"/>
<path d="M96.0697 118.672H107.991V102.21H96.0697V118.672Z" fill="#455A64"/>
<path d="M115.76 155.312H131.796V128.617H115.76V155.312Z" fill="white"/>
<path d="M113.56 128.617H133.996V124.076H113.56V128.617Z" fill="#03B0EF"/>
<path d="M117.817 150.953H129.738V134.491H117.817V150.953Z" fill="#455A64"/>
<path d="M115.76 123.031H131.796V96.3363H115.76V123.031Z" fill="white"/>
<path d="M113.56 96.3359H133.996V91.7949H113.56V96.3359Z" fill="#03B0EF"/>
<path d="M117.817 118.672H129.738V102.21H117.817V118.672Z" fill="#455A64"/>
<path d="M198.979 243.807H217.477V224.035C217.477 221.103 215.101 218.727 212.169 218.727H204.287C201.355 218.727 198.979 221.103 198.979 224.035V243.807Z" fill="white"/>
<path d="M202.867 218.797H213.589V216.24H202.867V218.797Z" fill="white"/>
<path d="M200.137 216.242H216.319V213.511H200.137V216.242Z" fill="#03B0EF"/>
<path d="M201.944 238.336H217.477V224.797H201.944V238.336Z" fill="#455A64"/>
<path d="M178.891 243.807H197.389V224.035C197.389 221.103 195.013 218.727 192.081 218.727H184.199C181.267 218.727 178.891 221.103 178.891 224.035V243.807Z" fill="white"/>
<path d="M182.778 218.797H193.5V216.24H182.778V218.797Z" fill="white"/>
<path d="M180.048 216.242H196.23V213.511H180.048V216.242Z" fill="#03B0EF"/>
<path d="M181.855 238.336H197.388V224.797H181.855V238.336Z" fill="#455A64"/>
<path d="M158.802 243.807H177.3V224.035C177.3 221.103 174.924 218.727 171.992 218.727H164.11C161.178 218.727 158.802 221.103 158.802 224.035V243.807Z" fill="white"/>
<path d="M162.691 218.797H173.413V216.24H162.691V218.797Z" fill="white"/>
<path d="M159.961 216.242H176.143V213.511H159.961V216.242Z" fill="#03B0EF"/>
<path d="M161.768 238.336H177.301V224.797H161.768V238.336Z" fill="#455A64"/>
<path d="M138.714 243.807H157.212V224.035C157.212 221.103 154.836 218.727 151.904 218.727H144.022C141.09 218.727 138.714 221.103 138.714 224.035V243.807Z" fill="white"/>
<path d="M142.602 218.797H153.324V216.24H142.602V218.797Z" fill="white"/>
<path d="M139.872 216.242H156.054V213.511H139.872V216.242Z" fill="#03B0EF"/>
<path d="M141.679 238.336H157.212V224.797H141.679V238.336Z" fill="#455A64"/>
<path d="M118.626 243.807H137.124V224.035C137.124 221.103 134.748 218.727 131.816 218.727H123.934C121.003 218.727 118.626 221.103 118.626 224.035V243.807Z" fill="white"/>
<path d="M122.514 218.797H133.236V216.24H122.514V218.797Z" fill="white"/>
<path d="M119.784 216.242H135.966V213.511H119.784V216.242Z" fill="#03B0EF"/>
<path d="M121.591 238.336H137.124V224.797H121.591V238.336Z" fill="#455A64"/>
<path d="M198.979 212.456H217.477V192.683C217.477 189.751 215.101 187.375 212.169 187.375H204.287C201.355 187.375 198.979 189.751 198.979 192.683V212.456Z" fill="white"/>
<path d="M202.867 187.453H213.589V184.896H202.867V187.453Z" fill="white"/>
<path d="M200.137 184.898H216.319V182.167H200.137V184.898Z" fill="#03B0EF"/>
<path d="M201.944 206.992H217.477V193.453H201.944V206.992Z" fill="#455A64"/>
<path d="M178.891 212.456H197.389V192.683C197.389 189.751 195.013 187.375 192.081 187.375H184.199C181.267 187.375 178.891 189.751 178.891 192.683V212.456Z" fill="white"/>
<path d="M182.778 187.453H193.5V184.896H182.778V187.453Z" fill="white"/>
<path d="M180.048 184.898H196.23V182.167H180.048V184.898Z" fill="#03B0EF"/>
<path d="M181.855 206.992H197.388V193.453H181.855V206.992Z" fill="#455A64"/>
<path d="M158.802 212.456H177.3V192.683C177.3 189.751 174.924 187.375 171.992 187.375H164.11C161.178 187.375 158.802 189.751 158.802 192.683V212.456Z" fill="white"/>
<path d="M162.691 187.453H173.413V184.896H162.691V187.453Z" fill="white"/>
<path d="M159.961 184.898H176.143V182.167H159.961V184.898Z" fill="#03B0EF"/>
<path d="M161.768 206.992H177.301V193.453H161.768V206.992Z" fill="#455A64"/>
<path d="M138.714 212.456H157.212V192.683C157.212 189.751 154.836 187.375 151.904 187.375H144.022C141.09 187.375 138.714 189.751 138.714 192.683V212.456Z" fill="white"/>
<path d="M142.602 187.453H153.324V184.896H142.602V187.453Z" fill="white"/>
<path d="M139.872 184.898H156.054V182.167H139.872V184.898Z" fill="#03B0EF"/>
<path d="M141.679 206.992H157.212V193.453H141.679V206.992Z" fill="#455A64"/>
<path d="M118.626 212.456H137.124V192.683C137.124 189.751 134.748 187.375 131.816 187.375H123.934C121.003 187.375 118.626 189.751 118.626 192.683V212.456Z" fill="white"/>
<path d="M122.514 187.453H133.236V184.896H122.514V187.453Z" fill="white"/>
<path d="M119.784 184.898H135.966V182.167H119.784V184.898Z" fill="#03B0EF"/>
<path d="M121.591 206.992H137.124V193.453H121.591V206.992Z" fill="#455A64"/>
<path d="M135.058 332.159H175.496V298.727C175.496 295.689 173.033 293.227 169.996 293.227H140.559C137.521 293.227 135.059 295.69 135.059 298.727V332.159H135.058Z" fill="white"/>
<path d="M135.057 293.227H175.495V286.482H135.057V293.227Z" fill="#263238"/>
<path d="M152.704 288.1H157.848C159.075 288.1 160.07 287.105 160.07 285.878V284.214C160.07 282.987 159.075 281.992 157.848 281.992H152.703C151.476 281.992 150.481 282.987 150.481 284.214V285.878C150.482 287.105 151.477 288.1 152.704 288.1Z" fill="#263238"/>
<path d="M137.253 323.617H173.299V305.594H137.253V323.617Z" fill="#455A64"/>
<path d="M92.713 332.159H133.151V298.727C133.151 295.689 130.688 293.227 127.651 293.227H98.213C95.175 293.227 92.713 295.689 92.713 298.727V332.159Z" fill="white"/>
<path d="M92.712 293.227H133.15V286.482H92.712V293.227Z" fill="#263238"/>
<path d="M110.359 288.1H115.504C116.731 288.1 117.726 287.105 117.726 285.878V284.214C117.726 282.987 116.731 281.992 115.504 281.992H110.359C109.132 281.992 108.137 282.987 108.137 284.214V285.878C108.137 287.105 109.132 288.1 110.359 288.1Z" fill="#263238"/>
<path d="M94.909 323.617H130.955V305.594H94.909V323.617Z" fill="#455A64"/>
<path d="M177.323 332.159H217.76V298.727C217.76 295.689 215.298 293.227 212.26 293.227H182.823C179.785 293.227 177.323 295.69 177.323 298.727V332.159Z" fill="white"/>
<path d="M177.322 293.227H217.76V286.482H177.322V293.227Z" fill="#263238"/>
<path d="M194.969 288.1H200.113C201.34 288.1 202.335 287.105 202.335 285.878V284.214C202.335 282.987 201.34 281.992 200.113 281.992H194.968C193.741 281.992 192.746 282.987 192.746 284.214V285.878C192.747 287.105 193.742 288.1 194.969 288.1Z" fill="#263238"/>
<path d="M179.518 323.617H215.564V305.594H179.518V323.617Z" fill="#455A64"/>
<path d="M50.3671 332.159H90.8051V298.727C90.8051 295.689 88.3421 293.227 85.3051 293.227H55.8681C52.8301 293.227 50.3681 295.69 50.3681 298.727L50.3671 332.159Z" fill="white"/>
<path d="M50.3677 293.227H90.8057V286.482H50.3677V293.227Z" fill="#263238"/>
<path d="M68.0141 288.1H73.1591C74.3861 288.1 75.3811 287.105 75.3811 285.878V284.214C75.3811 282.987 74.3861 281.992 73.1591 281.992H68.0141C66.7871 281.992 65.7921 282.987 65.7921 284.214V285.878C65.7921 287.105 66.7871 288.1 68.0141 288.1Z" fill="#263238"/>
<path d="M52.5637 323.617H88.6097V305.594H52.5637V323.617Z" fill="#455A64"/>
<path d="M137.855 155.305H161.036V125.319H137.855V155.305Z" fill="white"/>
<path d="M137.855 125.318H161.036L156.588 119.203H142.302L137.855 125.318Z" fill="white"/>
<path d="M139.654 119.203H159.237V113.254H139.654V119.203Z" fill="#455A64"/>
<path d="M141.164 145.469H161.036V131.989H141.164V145.469Z" fill="#03B0EF"/>
<path d="M164.336 155.305H187.517V125.319H164.336V155.305Z" fill="white"/>
<path d="M164.335 125.318H187.516L183.069 119.203H168.783L164.335 125.318Z" fill="white"/>
<path d="M166.135 119.203H185.718V113.254H166.135V119.203Z" fill="#455A64"/>
<path d="M167.644 145.469H187.516V131.989H167.644V145.469Z" fill="#03B0EF"/>
<path d="M190.816 155.305H213.997V125.319H190.816V155.305Z" fill="white"/>
<path d="M190.816 125.318H213.997L209.549 119.203H195.263L190.816 125.318Z" fill="white"/>
<path d="M192.615 119.203H212.198V113.254H192.615V119.203Z" fill="#455A64"/>
<path d="M194.125 145.469H213.997V131.989H194.125V145.469Z" fill="#03B0EF"/>
<path d="M34 378.913L88 378.67L142 378.581L250 378.414L358 378.58L412 378.668L465.999 378.913L412 379.158L358 379.245L250 379.412L142 379.244L88 379.156L34 378.913Z" fill="#263238"/>
<path d="M255.617 369.062C255.617 369.062 260.774 406.993 260.773 407.02C260.866 414.274 261.078 420.632 261.494 423.911C261.494 423.93 261.493 423.947 261.502 423.965C261.658 425.202 261.842 425.99 262.066 426.198C262.083 426.216 262.092 426.235 262.109 426.243C264.287 427.679 322.282 428.622 324.315 427.974C326.357 427.335 324.662 421.479 322.441 419.647C320.202 417.814 298.168 407.523 298.168 407.523L292.651 369.616L255.617 369.062Z" fill="#FFBE93"/>
<path d="M260.854 411.688C260.969 416.946 261.171 421.361 261.497 423.915C261.497 423.933 261.497 423.949 261.506 423.967C261.656 425.2 261.841 425.994 262.07 426.197C262.088 426.215 262.088 426.232 262.105 426.241C264.29 427.677 322.282 428.62 324.317 427.977C326.361 427.334 324.661 421.484 322.441 419.652C321.375 418.78 315.772 415.969 310.222 413.273C311.975 414.656 313.746 416.357 312.944 417.044C311.517 418.251 276.35 416.982 260.854 411.688Z" fill="#263238"/>
<path d="M306.952 411.688C306.952 411.688 296.689 407.014 279.091 415.463L306.952 411.688Z" fill="#263238"/>
<path d="M259.162 395.208L296.261 394.397L272.059 204.766H233.799L259.162 395.208Z" fill="#FFBE93"/>
<path d="M237.751 369.623C237.751 369.623 232.894 405.783 232.894 405.809C232.847 413.064 232.677 419.423 232.282 422.705C232.283 422.723 232.283 422.74 232.275 422.758C232.127 423.996 231.948 424.786 231.725 424.995C231.708 425.013 231.7 425.031 231.682 425.04C229.513 426.489 177.732 427.806 175.695 427.171C173.649 426.545 175.306 420.678 177.516 418.832C179.743 416.985 195.504 406.552 195.504 406.552L201.592 368.664L237.751 369.623Z" fill="#FFBE93"/>
<path d="M175.694 427.18C177.729 427.814 229.511 426.493 231.687 425.048C231.705 425.039 231.705 425.013 231.722 424.995C231.951 424.792 232.127 423.999 232.277 422.757C232.286 422.739 232.286 422.722 232.286 422.704C232.638 419.691 232.77 417.747 232.832 411.228C224.37 416.587 202.478 418.975 195.519 417.452C189.352 416.095 190.706 411.129 192.001 408.891C187.226 412.071 179.077 417.542 177.518 418.837C175.306 420.678 173.65 426.545 175.694 427.18Z" fill="#263238"/>
<path d="M192 408.886C192 408.886 209.427 406.049 221.343 415.463L192 408.886Z" fill="#263238"/>
<path d="M268.578 204.734C268.578 204.734 268.578 204.743 268.569 204.769C268.419 205.474 266.023 216.591 263.539 226.141C261.733 233.118 259.874 239.249 258.808 239.884C257.601 240.598 256.808 241.015 254.835 241.834L234.386 394.685L197.544 393.859L217.069 229.163L221.685 204.735H268.578V204.734Z" fill="#FFBE93"/>
<path d="M219.817 204.844H273.027L288.726 321.357C288.726 321.357 263.287 327.827 247.657 327.661C232.028 327.495 204.216 319.015 204.216 319.015L219.817 204.844Z" fill="#263238"/>
<path d="M274.475 154.287C274.452 154.503 274.287 154.703 274.075 154.7C273.592 154.661 273.014 154.604 272.365 154.544C271.457 150.059 270.305 146.425 270.545 147.809C270.892 149.813 270.956 152.626 270.685 154.382C269.932 154.306 268.189 154.114 267.316 154.017C267.072 146.339 266.179 140.53 266.039 142.255C265.473 149.213 264.775 151.366 263.989 153.659C255.861 152.754 245.219 151.442 237.544 150.317C237.252 146.047 237.12 141.455 236.941 141.746C235.562 143.91 234.792 147.246 234.395 149.847C231.954 149.47 230.01 149.121 228.835 148.844C228.835 148.844 228.764 145.282 228.846 144.128C229.041 141.186 229.769 138.256 230.95 135.574C232.176 132.813 233.944 130.485 235.649 128.082C235.662 128.062 235.676 128.042 235.69 128.03C235.689 128.021 235.697 128.02 235.703 128.01C236.872 126.346 237.794 124.72 238.513 122.957C238.52 122.947 238.527 122.937 238.532 122.918C239.034 121.665 239.435 120.351 239.756 118.886C240.844 113.847 244.151 109.872 248.807 109.248C257.856 103.517 267.065 109.3 268.407 116.267L268.41 116.293C268.851 119.377 269.075 123.325 269.365 126.394C269.358 126.404 269.367 126.411 269.367 126.411C269.36 126.421 269.361 126.43 269.371 126.446L269.372 126.455C269.521 127.918 269.677 129.168 269.883 130.029C271.249 135.689 275.682 139.496 274.475 154.287Z" fill="#263238"/>
<path d="M246.662 110.341C243.498 111.506 241.358 113.609 240.37 117.256C239.794 119.381 239.356 121.476 238.286 123.397C237.182 125.38 235.666 126.907 234.114 128.427C231.649 130.842 229.812 133.346 228.966 136.945C228.107 140.6 227.645 145.001 228.313 148.648C228.317 148.669 228.346 148.664 228.343 148.642C227.901 144.983 228.574 140.123 229.684 136.543C230.903 132.611 233.397 130.415 236.016 127.699C238.096 125.541 239.586 123.026 240.401 119.98C240.883 118.177 241.132 116.26 242.071 114.639C243.191 112.704 245.021 111.654 246.816 110.75C247.059 110.627 246.902 110.253 246.662 110.341Z" fill="#263238"/>
<path d="M273.973 136.519C272.321 133.296 270.523 130.487 269.827 126.706C269.193 123.262 269.058 119.708 268.404 116.264C268.393 116.208 268.317 116.218 268.326 116.277C269.224 122.35 268.72 128.25 271.507 133.685C273.021 136.638 274.563 139.397 275.356 142.774C276.19 146.322 276.256 149.886 275.814 153.568C275.798 153.697 275.953 153.714 275.981 153.593C277.354 147.739 276.567 141.579 273.973 136.519Z" fill="#263238"/>
<path d="M254.066 163.995C257.087 173.763 269.672 205.559 279.426 208.539C285.827 210.494 312.377 210.134 317.43 204.279C319.632 201.728 317.864 182.518 314.29 182.978C310.716 183.438 289.367 184.474 286.836 183.505C284.32 182.541 266.727 158.541 259.928 152.381C248.204 141.759 252.44 158.735 254.066 163.995Z" fill="#FFBE93"/>
<path d="M306.434 180.949L304.629 209.441C304.629 209.441 283.439 211.513 274.8 207.324C264.309 202.237 252.346 166.439 250.819 160.607C248.313 151.034 249.971 145.616 254.909 147.579C256.83 148.325 259.25 150.198 262.107 153.393C265.1 156.722 282.023 178.035 287.652 182.352C290.8 184.766 306.434 180.949 306.434 180.949Z" fill="#EBEBEB"/>
<path d="M299.442 207.801C299.583 203.583 300.788 186.341 301.301 182.633C301.336 182.376 301.508 182.336 301.506 182.608C301.389 195.259 299.959 203.671 299.61 207.801C299.6 207.905 299.439 207.909 299.442 207.801Z" fill="#263238"/>
<path d="M295.689 209.927C288.841 210.071 279.753 209.727 274.797 207.325C264.309 202.237 252.347 166.441 250.82 160.608C248.311 151.032 249.968 145.617 254.908 147.579C255.061 147.636 255.215 147.703 255.369 147.779L295.689 209.927Z" fill="#263238"/>
<path d="M271.562 189.299L275.749 218.09C275.749 218.09 228.83 218.782 217.183 217.961C217.183 217.961 226.683 164.139 239.207 150.541C245.471 143.74 252.826 144.248 257.513 149.003C258.699 150.206 272.851 168.909 274.342 176.054C275.641 182.36 271.562 189.299 271.562 189.299Z" fill="#03B0EF"/>
<path d="M244.401 146.555C244.401 146.555 253.219 166.618 253.748 182.889C255.166 226.524 249.075 298.565 246.961 303.756C244.059 310.882 200.449 317.955 200.449 317.955C200.449 317.955 213.246 210.534 224.856 177.935C235.619 147.711 244.401 146.555 244.401 146.555Z" fill="#EBEBEB"/>
<path d="M214.978 248.328C214.777 254.743 215.073 262.002 216.438 263.336C218.995 265.835 225.803 265.623 227.936 265.606C230.054 265.589 237.701 265.581 239.489 261.651C240.278 259.917 240.487 250.962 240.466 247.791C240.457 246.505 240.167 240.172 240.072 239.463C240.05 239.296 239.595 239.315 239.579 239.425C239.471 240.15 239.541 242.779 239.503 243.278C227.228 244.855 219.63 243.537 215.691 242.777C215.694 241.594 215.692 240.672 215.671 239.488C217.359 239.912 223.04 240.589 227.297 240.589C231.554 240.589 237.96 239.952 240.047 239.683C240.145 239.67 240.073 239.199 239.925 239.201C238.327 239.223 232.78 239.766 227.197 239.766C221.795 239.766 215.279 238.835 215.259 238.836C215.077 238.893 215.075 245.254 214.978 248.328ZM217.183 262.603C215.828 261.047 215.662 256.565 215.663 253.891C215.665 250.2 215.678 247.252 215.69 243.562C225.14 245.759 235.54 244.678 239.484 243.879C239.473 244.037 239.556 251.823 239.484 254.303C239.392 257.47 239.289 260.335 238.074 261.981C237.031 263.392 234.09 264.809 227.327 264.801C222.436 264.795 218.316 263.906 217.183 262.603Z" fill="#A6A6A6"/>
<path d="M273.156 304.427C275.573 310.139 290.002 314.013 290.002 314.013L271.817 188.777C271.817 188.777 275.577 183.211 274.356 176.18C273.135 169.149 258.427 148.781 256.051 147.727C256.051 147.727 259.411 160.883 261.153 179.669C265.234 223.688 270.521 298.199 273.156 304.427Z" fill="#EBEBEB"/>
<path d="M269.721 166.669C268.413 164.581 267.067 162.516 265.781 160.414C265.745 160.355 265.837 160.285 265.88 160.341C267.192 162.062 268.471 163.81 269.74 165.563C269.32 164.624 268.912 163.68 268.533 162.722C268.49 162.614 268.644 162.522 268.696 162.632C269.278 163.865 269.806 165.121 270.323 166.382C271.438 167.96 272.474 169.599 273.32 171.337C275.108 175.009 275.877 179.027 274.91 183.046C274.643 184.157 274.253 185.227 273.741 186.247C273.392 186.943 272.266 188.447 272.273 188.49C273.006 192.595 273.558 196.746 274.137 200.875C274.723 205.053 275.317 209.231 275.803 213.423C276.078 215.796 276.256 218.188 276.601 220.551C276.614 220.638 276.48 220.672 276.467 220.584C276.167 218.525 275.72 216.486 275.355 214.436C274.99 212.384 274.643 210.329 274.312 208.271C273.643 204.113 273.048 199.942 272.447 195.773C272.107 193.415 271.734 191.058 271.465 188.691C271.436 188.432 272.502 186.749 272.816 186.104C273.239 185.237 273.581 184.32 273.846 183.393C274.383 181.512 274.564 179.51 274.342 177.565C273.885 173.571 271.817 170.015 269.721 166.669Z" fill="#263238"/>
<path d="M256.164 148.188C257.131 149.477 258.111 150.759 259.11 152.029C260.116 153.294 261.098 154.573 262.123 155.826L262.144 155.526L259.683 157.798L259.479 157.986L259.695 158.171C260.731 159.055 261.785 159.921 262.836 160.792L262.748 160.566C262.367 162.92 261.958 165.27 261.619 167.63C261.258 169.987 260.92 172.347 260.624 174.712C261.133 172.375 261.599 170.032 262.043 167.686C262.509 165.343 262.905 162.991 263.328 160.643L263.352 160.511L263.24 160.417C262.2 159.537 261.163 158.652 260.107 157.786L260.119 158.158L262.534 155.848L262.685 155.703L262.556 155.548C261.522 154.301 260.446 153.08 259.393 151.845C258.335 150.616 257.257 149.398 256.164 148.188Z" fill="#DBDBDB"/>
<path d="M245.348 146.671C245.598 147.585 248.334 153.819 252.531 154.263C255.171 154.543 255.485 145.428 255.485 145.428L255.589 144.869L257.036 137.042L247.7 131.53L246.353 130.805C246.353 130.805 246.098 132.973 245.808 135.675C245.794 135.8 245.78 135.926 245.766 136.06C245.746 136.212 245.724 136.356 245.712 136.499C245.663 136.902 245.616 137.314 245.577 137.725C245.546 138.038 245.514 138.342 245.494 138.671C245.465 139.001 245.444 139.322 245.414 139.653C245.198 142.915 245.248 146.283 245.348 146.671Z" fill="#FFBE93"/>
<path d="M245.809 135.675C248.263 141.77 253.292 144.105 255.59 144.869L257.037 137.042L247.701 131.53L246.354 130.805C246.354 130.805 246.099 132.972 245.809 135.675Z" fill="#263238"/>
<path d="M267.945 127.695C266.417 141.581 257.928 142.234 254.934 141.901C252.216 141.599 243 140.225 243.085 126.256C243.17 112.286 250.109 108.607 256.362 108.969C262.614 109.331 269.473 113.809 267.945 127.695Z" fill="#FFBE93"/>
<path d="M265.396 124.335C265.079 124.243 264.802 124.106 264.498 123.983C264.155 123.844 263.867 123.769 263.65 123.449C263.534 123.278 263.595 122.979 263.751 122.851C264.114 122.551 264.577 122.617 264.997 122.767C265.453 122.93 265.762 123.172 266.013 123.585C266.253 123.987 265.814 124.456 265.396 124.335Z" fill="#263238"/>
<path d="M255.938 122.774C256.268 122.79 256.574 122.75 256.902 122.733C257.272 122.713 257.568 122.735 257.877 122.504C258.043 122.38 258.082 122.078 257.976 121.906C257.73 121.505 257.271 121.416 256.825 121.422C256.341 121.428 255.97 121.557 255.599 121.867C255.24 122.166 255.503 122.752 255.938 122.774Z" fill="#263238"/>
<path d="M257.328 126.581C257.326 126.544 257.248 126.615 257.244 126.654C257.14 127.6 256.86 128.665 255.964 128.857C255.936 128.863 255.932 128.911 255.964 128.911C257.024 128.912 257.38 127.493 257.328 126.581Z" fill="#263238"/>
<path d="M256.628 125.478C255.13 125.147 254.578 128.167 255.966 128.474C257.331 128.776 257.883 125.756 256.628 125.478Z" fill="#263238"/>
<path d="M256.005 125.532C255.71 125.654 255.396 125.909 255.073 125.882C254.698 125.851 254.478 125.484 254.293 125.136C254.274 125.1 254.243 125.121 254.235 125.161C254.12 125.738 254.235 126.373 254.839 126.572C255.391 126.754 255.891 126.316 256.142 125.761C256.189 125.659 256.124 125.483 256.005 125.532Z" fill="#263238"/>
<path d="M263.006 127.468C263.02 127.434 263.071 127.526 263.062 127.564C262.854 128.492 262.772 129.591 263.558 130.063C263.583 130.077 263.571 130.124 263.54 130.114C262.537 129.772 262.66 128.314 263.006 127.468Z" fill="#263238"/>
<path d="M264.027 126.653C265.552 126.826 265.094 129.862 263.682 129.702C262.291 129.545 262.749 126.508 264.027 126.653Z" fill="#263238"/>
<path d="M264.63 126.952C264.846 127.149 265.039 127.477 265.323 127.539C265.652 127.611 265.947 127.32 266.207 127.037C266.234 127.008 266.254 127.037 266.249 127.077C266.177 127.66 265.895 128.235 265.32 128.263C264.796 128.288 264.498 127.734 264.447 127.135C264.436 127.024 264.543 126.873 264.63 126.952Z" fill="#263238"/>
<path d="M256.563 134.151C256.735 134.419 256.888 134.769 257.218 134.875C257.534 134.976 257.946 134.918 258.268 134.871C258.3 134.866 258.322 134.904 258.297 134.928C257.974 135.228 257.417 135.335 257.004 135.161C256.601 134.991 256.477 134.581 256.464 134.173C256.462 134.115 256.538 134.112 256.563 134.151Z" fill="#263238"/>
<path d="M261.062 131.43C261.062 131.43 261.016 132.863 260.904 133.524C260.893 133.586 260.728 133.588 260.502 133.562C260.491 133.564 260.484 133.567 260.476 133.558C259.278 133.541 258.173 132.938 257.627 131.864C257.592 131.792 257.688 131.738 257.741 131.789C258.503 132.577 259.437 132.906 260.468 133.1C260.546 132.925 260.464 130.643 260.57 130.653C260.936 130.684 261.606 131.051 262.012 131.249C262.193 128.266 261.895 125.278 262.121 122.31C262.131 122.204 262.286 122.199 262.301 122.297C262.835 125.406 262.701 128.844 262.593 131.929C262.582 132.316 261.307 131.588 261.062 131.43Z" fill="#263238"/>
<path d="M260.12 133.133C260.12 133.133 259.446 133.836 258.622 134.015C258.318 134.082 258 134.083 257.684 133.954C257.034 133.691 257.096 133.071 257.287 132.559C257.443 132.137 257.692 131.789 257.692 131.789C257.692 131.789 258.557 132.834 260.12 133.133Z" fill="#263238"/>
<path d="M258.622 134.019C258.318 134.086 258 134.087 257.684 133.958C257.034 133.695 257.096 133.075 257.287 132.562C257.999 132.728 258.65 133.31 258.622 134.019Z" fill="#FF9CBD"/>
<path d="M268.133 122.711C266.416 122.901 261.428 118.173 260.181 112.583C260.181 112.583 258.986 116.809 254.55 119.498C250.114 122.187 246.526 121.716 246.526 121.716C246.526 121.716 244.15 127.656 243.105 127.579C242.06 127.502 239.984 105.095 257.968 108.54C257.968 108.54 263.323 109.092 265.972 112.826C268.622 116.56 268.133 122.711 268.133 122.711Z" fill="#263238"/>
<path d="M254.27 131.237C252.335 130.662 250.954 128.829 251.037 126.722C251.136 124.229 253.243 122.281 255.736 122.379C258.229 122.477 260.177 124.584 260.079 127.077C259.981 129.569 257.873 131.517 255.38 131.42C254.995 131.405 254.623 131.342 254.27 131.237ZM256.673 123.142C256.367 123.051 256.045 122.996 255.712 122.983C253.553 122.898 251.727 124.586 251.641 126.745C251.557 128.904 253.245 130.733 255.403 130.815C257.563 130.9 259.388 129.212 259.474 127.053C259.546 125.228 258.35 123.64 256.673 123.142Z" fill="#37474F"/>
<path d="M264.509 132.956C262.849 132.463 261.849 130.316 262.252 127.991C262.455 126.817 262.982 125.768 263.735 125.038C264.512 124.282 265.44 123.952 266.344 124.109C267.253 124.265 268.011 124.889 268.489 125.862C268.951 126.804 269.093 127.969 268.89 129.142C268.463 131.6 266.628 133.341 264.799 133.024C264.7 133.006 264.604 132.984 264.509 132.956ZM266.464 124.757C266.391 124.735 266.316 124.718 266.24 124.705C265.531 124.582 264.791 124.854 264.155 125.471C263.494 126.114 263.03 127.045 262.847 128.094C262.478 130.223 263.394 132.168 264.9 132.428C266.401 132.688 267.923 131.168 268.293 129.039C268.475 127.99 268.351 126.957 267.945 126.129C267.597 125.418 267.077 124.939 266.464 124.757Z" fill="#37474F"/>
<path d="M259.839 127.565L259.535 127.042C260.309 126.592 262.005 126.099 262.892 127.453L262.386 127.784C261.594 126.571 259.911 127.525 259.839 127.565Z" fill="#37474F"/>
<path d="M239.779 125.272L239.297 124.907C239.468 124.682 241.002 122.712 242.37 122.727C243.648 122.744 251.507 124.879 251.84 124.97L251.681 125.554C249.429 124.94 243.351 123.343 242.363 123.333C241.46 123.321 240.192 124.729 239.779 125.272Z" fill="#37474F"/>
<path d="M245.45 126.224C245.45 126.224 243.309 121.353 241.157 122.034C239.005 122.715 240.022 129.361 242.131 130.662C244.241 131.963 245.483 130.033 245.483 130.033L245.45 126.224Z" fill="#FFBE93"/>
<path d="M241.495 123.931C241.459 123.92 241.442 123.97 241.471 123.99C242.94 124.955 243.487 126.603 243.77 128.256C243.412 127.57 242.83 127.118 241.926 127.526C241.879 127.547 241.905 127.62 241.952 127.62C242.634 127.61 243.084 127.817 243.422 128.429C243.661 128.862 243.782 129.374 243.921 129.847C243.967 130.005 244.24 129.98 244.219 129.804C244.217 129.791 244.215 129.778 244.213 129.765C244.658 127.736 243.642 124.571 241.495 123.931Z" fill="#263238"/>
<path d="M253.869 165.955C253.869 165.955 250.491 161.502 253.714 159.446C256.937 157.389 259.552 162.329 259.552 162.329L253.869 165.955Z" fill="#455A64"/>
<path d="M280.575 195.269L280.576 195.274L281.045 200.723L281.211 202.52L279.636 201.626L274.89 198.901L274.885 198.902L274.883 198.893L253.748 165.768L259.434 162.141L280.57 195.271C280.575 195.269 280.575 195.269 280.575 195.269Z" fill="#455A64"/>
<path d="M281.047 200.719L281.209 202.517L279.634 201.621L281.047 200.719Z" fill="#37474F"/>
<path d="M259.795 161.664L253.158 165.898L253.998 167.215L260.635 162.98L259.795 161.664Z" fill="#263238"/>
<path d="M260.724 163.124L254.087 167.359L254.927 168.676L261.564 164.441L260.724 163.124Z" fill="#263238"/>
<path d="M254.929 168.671L257.07 167.305L263.537 180.043L262.719 180.501L254.929 168.671Z" fill="#263238"/>
<path d="M232.544 156.002C215.998 173.515 197.132 203.235 204.797 209.829C211.796 215.851 237.931 210.812 254.419 204.762C257.558 203.61 245.514 175.805 242.304 177.378C236.673 180.137 232.275 181.713 231.854 181.818C230.952 182.044 235.587 171.427 241.277 158.556C247.623 144.203 242.002 145.992 232.544 156.002Z" fill="#FFBE93"/>
<path d="M282.093 176.165C282.042 179.366 274.16 178.571 274.16 178.571C274.16 178.571 276.019 179.769 276.495 181.84C277.041 184.211 273.562 186.107 273.562 186.107C273.562 186.107 275.192 187.709 275.476 189.947C275.77 192.269 272.532 194.683 272.532 194.683C272.532 194.683 273.231 197.01 272.088 199.12C270.135 202.727 263.823 202.67 259.909 203.406C255.716 204.194 249.579 206.161 247.041 207.208L240.404 178.299C240.404 178.299 257.519 168.621 262.237 168.945C266.213 169.217 282.171 171.272 282.093 176.165Z" fill="#FFBE93"/>
<path d="M274.096 178.477C269.939 177.173 265.478 176.866 261.17 176.617C261.074 176.612 261.067 176.762 261.163 176.766C265.45 176.964 269.788 178.313 274.058 178.681C274.176 178.691 274.208 178.512 274.096 178.477Z" fill="#263238"/>
<path d="M273.454 185.777C272.505 185.51 271.47 185.557 270.493 185.55C269.44 185.542 268.388 185.552 267.336 185.579C265.229 185.632 263.124 185.733 261.023 185.896C260.93 185.903 260.918 186.048 261.016 186.045C263.116 185.996 265.216 185.978 267.315 186.018C268.366 186.038 269.417 186.066 270.467 186.102C271.444 186.135 272.472 186.252 273.439 186.066C273.582 186.037 273.597 185.817 273.454 185.777Z" fill="#263238"/>
<path d="M272.444 194.679C271.628 194.414 270.612 194.578 269.767 194.617C268.808 194.661 267.848 194.7 266.888 194.733C264.969 194.8 263.05 194.866 261.129 194.866C261.033 194.866 261.025 195.015 261.122 195.015C263.073 195.025 265.024 195.062 266.975 195.054C267.933 195.051 268.891 195.042 269.849 195.028C270.663 195.016 271.683 195.094 272.45 194.776C272.494 194.758 272.485 194.692 272.444 194.679Z" fill="#263238"/>
<path d="M240.665 148.306C228.822 155.098 197.589 196.303 202.713 208.083C207.837 219.863 245.707 208.294 245.707 208.294L243.408 176.684C243.408 176.684 233.38 181.907 233.066 181.398C232.751 180.889 238.958 166.686 241.486 160.909C244.014 155.131 246.97 144.69 240.665 148.306Z" fill="#EBEBEB"/>
<path d="M241.019 206.358C240.46 202.174 238.795 184.971 238.687 181.23C238.679 180.971 238.842 180.903 238.885 181.172C240.863 193.668 240.845 202.199 241.184 206.33C241.192 206.433 241.033 206.464 241.019 206.358Z" fill="#263238"/>
<path d="M243.176 176.705C242.074 177.019 241.003 177.578 239.964 178.058C239.024 178.493 238.082 178.926 237.148 179.374C235.117 180.348 233.109 181.366 231.109 182.401C229.111 183.435 227.123 184.489 225.152 185.573C223.182 186.656 221.276 187.851 219.308 188.937C219.218 188.987 219.304 189.119 219.394 189.072C221.393 188.02 223.463 187.102 225.487 186.098C227.471 185.115 229.453 184.128 231.437 183.147C233.419 182.167 235.407 181.197 237.387 180.211C238.356 179.728 239.321 179.235 240.289 178.75C241.314 178.236 242.419 177.755 243.362 177.101C243.565 176.958 243.42 176.636 243.176 176.705Z" fill="#263238"/>
<path d="M240.162 167.553C239.533 168.307 238.913 169.064 238.323 169.849C238.214 169.994 238.115 170.146 238.008 170.293C238.175 169.885 238.342 169.478 238.51 169.07C239.095 167.648 239.787 166.223 240.211 164.745C240.231 164.676 240.13 164.645 240.095 164.702C239.26 166.077 238.66 167.614 237.983 169.068C237.318 170.498 236.645 171.926 236.01 173.369C235.374 174.814 234.719 176.253 234.111 177.709C233.516 179.132 232.849 180.575 232.471 182.07C232.449 182.158 232.57 182.194 232.616 182.123C233.494 180.773 234.124 179.248 234.788 177.789C235.442 176.352 236.055 174.896 236.686 173.449C236.95 172.843 237.205 172.233 237.458 171.622C237.563 171.485 237.668 171.347 237.774 171.214C238.07 170.84 238.347 170.45 238.617 170.058C239.173 169.248 239.693 168.421 240.207 167.585C240.223 167.558 240.182 167.528 240.162 167.553Z" fill="#263238"/>
<path d="M245.798 207.603C245.784 207.392 245.677 207.345 245.633 207.57C245.609 207.693 245.587 207.918 245.564 208.041C244.274 208.341 239.566 209.617 238.417 209.917C236.004 210.548 233.575 211.096 231.123 211.556C228.663 212.017 226.198 212.4 223.715 212.709C221.249 213.016 218.744 213.338 216.26 213.417C216.159 213.42 216.163 213.575 216.264 213.573C218.801 213.525 221.317 213.532 223.849 213.323C226.323 213.118 228.798 212.787 231.243 212.355C233.734 211.915 236.214 211.36 238.656 210.702C239.878 210.373 241.092 210.009 242.298 209.626C243.436 209.265 244.664 208.961 245.71 208.375C245.788 208.331 245.842 208.232 245.836 208.143C245.822 207.963 245.81 207.783 245.798 207.603Z" fill="#263238"/>
<path d="M250.962 172.811C250.681 172.949 250.4 173.082 250.119 173.22L243.345 164.041L243.197 163.844L243.301 163.627L245.786 158.258L238.751 157.918L238.401 157.898L238.534 157.587C239.969 154.151 241.369 150.71 242.833 147.289C241.615 150.681 240.343 154.058 239.101 157.439L246.313 157.612L246.806 157.622L246.604 158.085L244.149 163.739L250.962 172.811Z" fill="#DBDBDB"/>
<path d="M238.765 157.43L239.1 157.44C239.061 157.549 239.021 157.652 238.982 157.76L238.765 157.43Z" fill="#DBDBDB"/>
<path d="M244.006 163.547L244.149 163.739L244.055 163.961L244.006 163.547Z" fill="#DBDBDB"/>
<path d="M245.992 157.812L246.288 158.286L245.785 158.26L245.992 157.812Z" fill="#DBDBDB"/>
<path d="M297.921 211.806L264.787 209.764L282.878 168.211L316.012 170.253L297.921 211.806Z" fill="white"/>
<path d="M300.189 211.947L267.055 209.905L285.146 168.352L318.28 170.394L300.189 211.947Z" fill="#455A64"/>
<path d="M288.666 168.573C288.429 169.229 287.883 169.884 287.139 170.216C286.813 170.366 286.754 169.947 287.076 169.806C287.547 169.59 287.906 169.187 288.105 168.774C288.137 168.7 288.173 168.618 288.196 168.544C288.297 168.267 288.342 167.987 288.296 167.738C288.273 167.614 288.219 167.516 288.128 167.435C288.128 167.435 288.113 167.425 288.108 167.415C288.093 167.405 288.074 167.403 288.069 167.394C288.05 167.393 288.007 167.381 288.007 167.381C287.93 167.357 287.86 167.363 287.773 167.386C287.635 167.415 287.501 167.501 287.377 167.607C287.219 167.748 287.129 167.866 287.019 168.029C286.959 168.101 286.913 168.183 286.859 168.265L286.835 168.32C286.814 168.347 286.802 168.375 286.79 168.402C286.782 168.42 286.765 168.438 286.766 168.457L286.296 168.428C286.412 168.161 286.589 167.889 286.795 167.637C287.148 167.224 287.62 166.895 288.118 166.907C288.564 166.925 288.776 167.259 288.817 167.63C288.852 167.924 288.796 168.251 288.666 168.573Z" fill="#03B0EF"/>
<path d="M291.259 168.729C291.022 169.385 290.476 170.04 289.732 170.372C289.406 170.522 289.347 170.103 289.669 169.962C290.14 169.746 290.499 169.343 290.698 168.93C290.73 168.856 290.766 168.774 290.789 168.7C290.89 168.423 290.935 168.143 290.889 167.894C290.866 167.77 290.812 167.672 290.722 167.591C290.722 167.591 290.707 167.581 290.702 167.571C290.687 167.561 290.668 167.559 290.663 167.55C290.644 167.549 290.601 167.537 290.601 167.537C290.524 167.513 290.455 167.519 290.367 167.542C290.229 167.571 290.095 167.657 289.971 167.763C289.813 167.904 289.723 168.022 289.614 168.185C289.554 168.257 289.508 168.339 289.453 168.421L289.429 168.476C289.408 168.503 289.396 168.531 289.383 168.558C289.375 168.576 289.358 168.594 289.359 168.613L288.889 168.584C289.005 168.317 289.182 168.045 289.388 167.793C289.741 167.38 290.213 167.051 290.71 167.063C291.156 167.081 291.368 167.415 291.409 167.786C291.445 168.079 291.39 168.406 291.259 168.729Z" fill="#03B0EF"/>
<path d="M293.852 168.894C293.615 169.55 293.069 170.205 292.325 170.537C291.999 170.687 291.94 170.268 292.262 170.127C292.733 169.91 293.092 169.508 293.291 169.095C293.323 169.021 293.359 168.939 293.382 168.865C293.483 168.588 293.528 168.307 293.482 168.059C293.459 167.935 293.405 167.837 293.314 167.756C293.314 167.756 293.299 167.746 293.294 167.736C293.279 167.726 293.26 167.724 293.255 167.715C293.236 167.714 293.193 167.702 293.193 167.702C293.116 167.678 293.046 167.684 292.959 167.707C292.821 167.736 292.687 167.822 292.563 167.928C292.405 168.069 292.315 168.186 292.206 168.35C292.146 168.422 292.1 168.504 292.046 168.586L292.022 168.641C292 168.668 291.988 168.696 291.976 168.723C291.968 168.741 291.951 168.759 291.952 168.778L291.482 168.749C291.598 168.482 291.775 168.21 291.981 167.958C292.334 167.545 292.806 167.216 293.303 167.227C293.749 167.245 293.961 167.579 294.002 167.95C294.039 168.244 293.983 168.571 293.852 168.894Z" fill="#03B0EF"/>
<path d="M296.446 169.049C296.209 169.705 295.663 170.36 294.919 170.692C294.593 170.842 294.534 170.423 294.856 170.282C295.327 170.066 295.686 169.663 295.885 169.25C295.917 169.176 295.953 169.094 295.976 169.02C296.077 168.743 296.122 168.463 296.076 168.214C296.053 168.09 295.999 167.992 295.908 167.911C295.908 167.911 295.893 167.901 295.888 167.891C295.873 167.881 295.854 167.879 295.849 167.87C295.83 167.869 295.787 167.857 295.787 167.857C295.71 167.833 295.641 167.839 295.553 167.862C295.415 167.891 295.281 167.977 295.157 168.083C294.999 168.224 294.909 168.341 294.8 168.505C294.74 168.577 294.694 168.659 294.639 168.741L294.615 168.796C294.593 168.823 294.582 168.851 294.57 168.878C294.562 168.896 294.545 168.914 294.546 168.933L294.076 168.904C294.192 168.637 294.369 168.365 294.575 168.113C294.928 167.7 295.4 167.371 295.898 167.383C296.344 167.401 296.556 167.735 296.597 168.106C296.632 168.399 296.576 168.726 296.446 169.049Z" fill="#03B0EF"/>
<path d="M299.039 169.213C298.802 169.869 298.256 170.524 297.512 170.856C297.186 171.006 297.127 170.587 297.449 170.446C297.92 170.229 298.279 169.827 298.478 169.414C298.51 169.34 298.546 169.258 298.569 169.184C298.67 168.907 298.715 168.627 298.669 168.378C298.646 168.254 298.592 168.156 298.501 168.075C298.501 168.075 298.486 168.065 298.481 168.055C298.466 168.045 298.447 168.043 298.442 168.034C298.423 168.033 298.38 168.021 298.38 168.021C298.303 167.997 298.233 168.003 298.146 168.026C298.008 168.055 297.874 168.141 297.751 168.247C297.593 168.388 297.503 168.506 297.393 168.669C297.333 168.741 297.287 168.823 297.233 168.905L297.209 168.96C297.188 168.987 297.176 169.015 297.164 169.042C297.156 169.06 297.139 169.078 297.14 169.097L296.67 169.068C296.786 168.801 296.963 168.529 297.169 168.277C297.522 167.864 297.995 167.535 298.491 167.547C298.937 167.565 299.149 167.899 299.19 168.27C299.225 168.564 299.17 168.891 299.039 169.213Z" fill="#03B0EF"/>
<path d="M301.633 169.369C301.396 170.025 300.849 170.68 300.106 171.012C299.78 171.162 299.721 170.743 300.043 170.602C300.514 170.386 300.873 169.983 301.072 169.57C301.104 169.496 301.14 169.414 301.163 169.34C301.264 169.063 301.309 168.783 301.263 168.534C301.24 168.41 301.186 168.312 301.096 168.231C301.096 168.231 301.081 168.221 301.076 168.211C301.061 168.201 301.042 168.199 301.037 168.19C301.018 168.189 300.975 168.177 300.975 168.177C300.898 168.154 300.829 168.159 300.741 168.182C300.603 168.211 300.469 168.297 300.345 168.403C300.187 168.544 300.097 168.661 299.987 168.825C299.927 168.897 299.881 168.979 299.827 169.061L299.803 169.116C299.782 169.143 299.769 169.171 299.757 169.198C299.749 169.216 299.732 169.234 299.733 169.253L299.263 169.224C299.379 168.957 299.556 168.685 299.762 168.433C300.115 168.02 300.588 167.691 301.085 167.703C301.531 167.721 301.743 168.055 301.784 168.426C301.819 168.72 301.763 169.047 301.633 169.369Z" fill="#03B0EF"/>
<path d="M304.226 169.534C303.989 170.19 303.443 170.846 302.699 171.178C302.373 171.328 302.314 170.908 302.636 170.767C303.107 170.55 303.466 170.149 303.665 169.736C303.697 169.662 303.733 169.58 303.756 169.506C303.857 169.229 303.902 168.948 303.856 168.7C303.833 168.576 303.779 168.477 303.688 168.396C303.688 168.396 303.673 168.387 303.668 168.377C303.653 168.367 303.635 168.364 303.629 168.355C303.61 168.354 303.567 168.342 303.567 168.342C303.49 168.318 303.421 168.324 303.333 168.347C303.195 168.376 303.061 168.462 302.937 168.568C302.779 168.709 302.689 168.826 302.58 168.989C302.52 169.061 302.474 169.144 302.419 169.226L302.395 169.281C302.374 169.308 302.362 169.336 302.35 169.363C302.342 169.381 302.325 169.399 302.326 169.418L301.856 169.389C301.972 169.122 302.149 168.85 302.355 168.598C302.708 168.185 303.18 167.856 303.677 167.868C304.123 167.886 304.335 168.219 304.376 168.59C304.412 168.885 304.357 169.212 304.226 169.534Z" fill="#03B0EF"/>
<path d="M306.819 169.691C306.582 170.347 306.036 171.002 305.292 171.334C304.966 171.484 304.907 171.065 305.229 170.924C305.7 170.708 306.059 170.305 306.258 169.892C306.29 169.818 306.326 169.736 306.349 169.662C306.45 169.385 306.495 169.104 306.449 168.856C306.426 168.732 306.372 168.634 306.282 168.553C306.282 168.553 306.267 168.543 306.262 168.533C306.247 168.523 306.228 168.522 306.223 168.512C306.204 168.511 306.161 168.499 306.161 168.499C306.084 168.476 306.014 168.481 305.927 168.504C305.789 168.533 305.655 168.619 305.531 168.725C305.373 168.866 305.283 168.983 305.174 169.147C305.114 169.219 305.068 169.301 305.013 169.382L304.989 169.437C304.968 169.464 304.956 169.492 304.943 169.519C304.935 169.538 304.918 169.555 304.919 169.574L304.449 169.545C304.565 169.278 304.742 169.006 304.948 168.754C305.301 168.341 305.773 168.012 306.271 168.024C306.717 168.042 306.929 168.376 306.97 168.747C307.005 169.041 306.95 169.368 306.819 169.691Z" fill="#03B0EF"/>
<path d="M309.413 169.855C309.176 170.511 308.629 171.166 307.886 171.498C307.56 171.648 307.501 171.229 307.823 171.088C308.294 170.872 308.653 170.469 308.852 170.056C308.884 169.982 308.92 169.9 308.943 169.826C309.044 169.549 309.089 169.269 309.043 169.02C309.02 168.896 308.966 168.798 308.875 168.717C308.875 168.717 308.86 168.707 308.855 168.697C308.84 168.687 308.821 168.685 308.816 168.676C308.797 168.675 308.754 168.663 308.754 168.663C308.677 168.639 308.608 168.645 308.52 168.667C308.382 168.696 308.248 168.783 308.124 168.888C307.966 169.029 307.876 169.147 307.767 169.31C307.707 169.382 307.661 169.464 307.606 169.546L307.582 169.601C307.56 169.628 307.548 169.656 307.536 169.683C307.528 169.701 307.511 169.719 307.512 169.738L307.042 169.709C307.158 169.442 307.335 169.17 307.541 168.918C307.895 168.506 308.366 168.176 308.864 168.188C309.31 168.206 309.522 168.54 309.563 168.911C309.599 169.205 309.543 169.532 309.413 169.855Z" fill="#03B0EF"/>
<path d="M312.006 170.011C311.769 170.667 311.223 171.322 310.479 171.654C310.153 171.804 310.094 171.385 310.416 171.244C310.887 171.027 311.246 170.625 311.445 170.212C311.477 170.138 311.513 170.056 311.536 169.982C311.637 169.705 311.682 169.424 311.636 169.176C311.613 169.052 311.559 168.954 311.468 168.873C311.468 168.873 311.453 168.863 311.448 168.853C311.433 168.843 311.414 168.841 311.409 168.832C311.39 168.831 311.347 168.819 311.347 168.819C311.27 168.795 311.2 168.801 311.113 168.823C310.975 168.852 310.841 168.938 310.717 169.044C310.559 169.185 310.469 169.303 310.36 169.466C310.3 169.538 310.254 169.62 310.2 169.702L310.176 169.757C310.155 169.784 310.143 169.812 310.131 169.839C310.123 169.857 310.106 169.875 310.107 169.894L309.637 169.865C309.753 169.598 309.93 169.326 310.136 169.074C310.489 168.661 310.961 168.332 311.458 168.344C311.904 168.362 312.116 168.696 312.157 169.067C312.192 169.362 312.137 169.689 312.006 170.011Z" fill="#03B0EF"/>
<path d="M314.599 170.174C314.362 170.83 313.816 171.485 313.072 171.817C312.746 171.967 312.687 171.548 313.009 171.407C313.48 171.19 313.839 170.788 314.038 170.375C314.07 170.301 314.106 170.219 314.129 170.145C314.23 169.868 314.275 169.587 314.229 169.339C314.206 169.215 314.152 169.117 314.061 169.036C314.061 169.036 314.046 169.026 314.041 169.016C314.026 169.006 314.007 169.004 314.002 168.995C313.983 168.994 313.94 168.982 313.94 168.982C313.863 168.959 313.793 168.964 313.706 168.987C313.568 169.016 313.434 169.103 313.31 169.208C313.152 169.349 313.062 169.466 312.952 169.63C312.892 169.702 312.846 169.784 312.792 169.866L312.768 169.921C312.747 169.948 312.735 169.976 312.723 170.003C312.715 170.021 312.698 170.039 312.699 170.058L312.229 170.029C312.345 169.762 312.522 169.49 312.728 169.238C313.081 168.825 313.554 168.496 314.051 168.508C314.497 168.526 314.709 168.86 314.75 169.231C314.785 169.525 314.73 169.852 314.599 170.174Z" fill="#03B0EF"/>
<path d="M317.193 170.33C316.956 170.986 316.409 171.641 315.666 171.973C315.34 172.123 315.281 171.704 315.603 171.563C316.074 171.346 316.433 170.944 316.632 170.531C316.664 170.457 316.7 170.375 316.723 170.301C316.824 170.024 316.869 169.743 316.823 169.495C316.8 169.371 316.746 169.273 316.656 169.192C316.656 169.192 316.641 169.182 316.636 169.172C316.621 169.162 316.603 169.16 316.597 169.151C316.578 169.15 316.535 169.138 316.535 169.138C316.458 169.114 316.389 169.12 316.301 169.143C316.163 169.172 316.029 169.258 315.905 169.364C315.747 169.505 315.657 169.623 315.548 169.786C315.488 169.858 315.442 169.94 315.387 170.022L315.363 170.077C315.342 170.104 315.329 170.132 315.317 170.159C315.309 170.178 315.292 170.195 315.293 170.214L314.823 170.185C314.939 169.918 315.116 169.646 315.322 169.394C315.675 168.981 316.147 168.652 316.645 168.664C317.091 168.682 317.303 169.016 317.344 169.387C317.379 169.681 317.323 170.008 317.193 170.33Z" fill="#03B0EF"/>
<path d="M315.356 179.891C316.614 183.677 320.344 188.646 320.335 191.612C320.327 194.29 318.022 194.948 318.022 194.948C318.022 194.948 320.759 196.761 320.307 199.451C320.075 200.835 317.659 201.68 317.659 201.68C317.659 201.68 319.789 203.229 319.24 205.596C318.802 207.482 316.448 208.046 316.448 208.046C316.448 208.046 317.799 210.484 316.737 212.262C314.583 215.869 298.088 213.84 296.287 207.45C295.448 204.472 299.45 205.186 299.45 205.186C299.45 205.186 293.943 202.769 294.274 199.357C294.605 195.946 299.749 197.188 299.749 197.188C299.749 197.188 294.433 194.799 295.133 191.297C295.862 187.651 300.795 189.774 300.795 189.774C300.795 189.774 297.433 186.836 298.583 184.278C300.482 180.053 306.748 186.43 310.479 186.016L313.215 180.284L315.356 179.891Z" fill="#FFBE93"/>
<path d="M318.023 185.497C317.145 181.808 322.05 177.99 321.717 174.341C321.267 169.406 315.277 173.452 313.215 180.286L312.547 185.872L318.023 185.497Z" fill="#FFBE93"/>
<path d="M316.088 208.188C316.143 208.191 316.151 208.268 316.094 208.275C310.505 208.93 304.165 207.936 299.226 205.172C299.064 205.082 299.141 204.779 299.339 204.845C304.974 206.72 310.125 207.936 316.088 208.188Z" fill="#263238"/>
<path d="M317.734 201.719C317.799 201.722 317.795 201.829 317.726 201.837C311.964 202.48 304.853 201.165 299.535 197.308C299.353 197.176 299.321 196.874 299.543 197.011C303.274 199.307 312.365 201.519 317.734 201.719Z" fill="#263238"/>
<path d="M300.495 189.37C305.737 192.871 311.574 194.339 317.786 194.986C317.867 194.994 317.847 195.108 317.777 195.119C314.652 195.631 310.735 194.806 307.742 193.907C304.875 193.045 302.461 191.692 300.372 189.554C300.291 189.47 300.382 189.295 300.495 189.37Z" fill="#263238"/>
<path d="M441.664 250H58.335V277.453H441.664V250Z" fill="#37474F"/>
<path d="M434.116 277.453H65.8829V436.777H434.116V277.453Z" fill="#37474F"/>
<path d="M434.116 277.453H65.8829V294.28H434.116V277.453Z" fill="#263238"/>
<path d="M164.05 359.556C164.05 359.166 164.38 358.836 164.77 358.836H164.86H170.71C174.01 358.836 176.68 361.536 176.68 364.836C176.68 368.136 174.01 370.806 170.71 370.806L165.52 370.866V379.116C165.52 379.506 165.19 379.836 164.77 379.836C164.38 379.836 164.05 379.506 164.05 379.116V359.556ZM170.709 369.396C173.199 369.366 175.239 367.326 175.239 364.836C175.239 362.346 173.199 360.306 170.709 360.306H165.519V369.396H170.709Z" fill="white"/>
<path d="M196.809 370.056H186.01V379.116C186.01 379.506 185.68 379.836 185.26 379.836C184.87 379.836 184.54 379.506 184.54 379.116V359.556C184.54 359.166 184.87 358.836 185.26 358.836C185.68 358.836 186.01 359.166 186.01 359.556V368.616H196.809V359.556C196.809 359.166 197.139 358.836 197.529 358.836C197.949 358.836 198.279 359.166 198.279 359.556V379.116C198.279 379.506 197.949 379.836 197.529 379.836C197.139 379.836 196.809 379.506 196.809 379.116V370.056Z" fill="white"/>
<path d="M218.349 374.41H208.779L206.919 379.359C206.799 379.66 206.529 379.839 206.229 379.839C206.169 379.839 206.049 379.809 205.959 379.809C205.599 379.66 205.389 379.209 205.539 378.849L212.829 359.38C212.949 359.109 213.249 358.93 213.549 358.93C213.879 358.93 214.179 359.11 214.269 359.38L221.559 378.849C221.709 379.209 221.529 379.659 221.169 379.809C221.049 379.809 220.989 379.839 220.899 379.839C220.629 379.839 220.329 379.659 220.209 379.359L218.349 374.41ZM209.319 372.941H217.809L213.579 361.661L209.319 372.941Z" fill="white"/>
<path d="M239.679 375.096C239.679 373.567 238.899 372.607 237.969 371.916C237.039 371.256 235.929 370.927 235.539 370.866C235.449 370.836 235.419 370.806 235.389 370.806H230.289V379.116C230.289 379.506 229.959 379.836 229.539 379.836C229.149 379.836 228.819 379.506 228.819 379.116V359.556C228.819 359.197 229.119 358.867 229.479 358.836H229.539H229.629H235.479C238.779 358.836 241.449 361.506 241.449 364.836C241.449 367.235 240.039 369.306 237.999 370.266C238.089 370.326 238.179 370.356 238.299 370.415C239.679 371.195 241.119 372.726 241.119 375.095C241.119 376.325 241.239 377.075 241.389 377.526C241.509 377.885 241.659 378.005 241.689 378.036C242.019 378.006 242.379 378.185 242.499 378.515C242.589 378.906 242.409 379.326 242.019 379.475C241.989 379.475 241.839 379.505 241.659 379.505H241.599C241.209 379.505 240.579 379.205 240.249 378.545C239.889 377.856 239.679 376.866 239.679 375.096ZM235.479 360.307H230.289V369.367H235.328H235.598C238.028 369.307 240.008 367.298 240.008 364.838C240.009 362.317 237.969 360.307 235.479 360.307Z" fill="white"/>
<path d="M267.189 361.835L260.468 371.164C260.319 371.404 260.078 371.494 259.868 371.494H259.808C259.538 371.494 259.329 371.404 259.179 371.164L252.458 361.864V379.114C252.458 379.504 252.128 379.834 251.738 379.834C251.318 379.834 250.988 379.504 250.988 379.114V359.674C250.988 359.434 251.108 359.224 251.288 359.104C251.288 359.075 251.318 359.075 251.349 359.044C251.679 358.834 252.128 358.894 252.369 359.224L259.84 369.574L267.28 359.224C267.489 358.894 267.969 358.834 268.3 359.044C268.39 359.134 268.45 359.194 268.51 359.284C268.57 359.404 268.63 359.554 268.63 359.674V379.114C268.63 379.504 268.3 379.834 267.909 379.834C267.489 379.834 267.19 379.504 267.19 379.114V361.835H267.189Z" fill="white"/>
<path d="M288.85 374.41H279.28L277.421 379.359C277.301 379.66 277.03 379.839 276.731 379.839C276.671 379.839 276.551 379.809 276.461 379.809C276.102 379.66 275.892 379.209 276.041 378.849L283.332 359.38C283.451 359.109 283.752 358.93 284.051 358.93C284.381 358.93 284.682 359.11 284.772 359.38L292.061 378.849C292.211 379.209 292.032 379.659 291.671 379.809C291.551 379.809 291.491 379.839 291.4 379.839C291.13 379.839 290.831 379.659 290.711 379.359L288.85 374.41ZM279.819 372.941H288.308L284.079 361.661L279.819 372.941Z" fill="white"/>
<path d="M308.529 358.539C311.109 358.539 313.478 359.438 315.308 360.849C315.638 361.119 315.699 361.629 315.429 361.899C315.189 362.259 314.708 362.29 314.408 362.049C312.788 360.789 310.749 360.009 308.528 360.009C303.278 360.009 299.079 364.118 299.079 369.248C299.079 374.258 303.278 378.368 308.528 378.368C310.749 378.368 312.788 377.648 314.348 376.328C314.707 376.088 315.188 376.148 315.397 376.508C315.698 376.779 315.637 377.319 315.307 377.558C313.477 378.968 311.108 379.838 308.528 379.838C302.499 379.838 297.608 375.098 297.608 369.248C297.609 363.278 302.5 358.569 308.529 358.539Z" fill="white"/>
<path d="M329.83 369.758L322.78 360.129C322.57 359.799 322.63 359.319 322.929 359.108C323.259 358.839 323.74 358.898 323.95 359.228L330.519 368.258L337.119 359.228C337.329 358.898 337.81 358.838 338.14 359.108C338.47 359.318 338.53 359.798 338.29 360.129L331.27 369.698V379.118C331.27 379.508 330.97 379.838 330.55 379.838C330.16 379.838 329.83 379.508 329.83 379.118V369.758Z" fill="white"/>
<path d="M65.8829 350.109H434.116" stroke="white" stroke-miterlimit="10"/>
<path d="M65.8829 347.219H434.116" stroke="white" stroke-miterlimit="10"/>
<path d="M65.8829 391.406H434.116" stroke="white" stroke-miterlimit="10"/>
<path d="M65.8829 388.516H434.116" stroke="white" stroke-miterlimit="10"/>
<path d="M253.062 308.266H246.938V334.442H253.062V308.266Z" fill="#EBEBEB"/>
<path d="M263.089 324.413V318.289H236.913V324.413H263.089Z" fill="#EBEBEB"/>
<path d="M427.817 378.347C427.817 378.347 443.71 374.744 452.422 366.718C461.134 358.692 466 344.312 466 344.312C466 344.312 456.645 346.026 448.175 348.994C446.754 350.516 444.045 353.651 442.783 356.619C442.783 356.619 442.515 353.484 442.741 351.168C440.475 352.213 438.502 353.367 437.081 354.604C429.857 360.924 427.817 378.347 427.817 378.347Z" fill="#03B0EF"/>
<path d="M456.075 351.299C458.242 349.799 460.447 348.354 462.605 346.841C462.735 346.75 462.613 346.546 462.474 346.629C458.378 349.075 454.341 351.69 450.435 354.428C449.073 355.383 447.736 356.376 446.414 357.389C446.506 357.232 446.598 357.075 446.691 356.918C447.168 356.12 447.671 355.336 448.173 354.554C449.183 352.982 450.288 351.434 451.547 350.05C451.594 349.998 451.514 349.923 451.469 349.975C450.233 351.402 448.997 352.814 447.866 354.328C447.328 355.048 446.832 355.793 446.356 356.555C446.109 356.95 445.87 357.349 445.642 357.755C445.566 357.89 445.482 358.027 445.404 358.165C443.349 359.779 441.348 361.461 439.438 363.241C438.26 364.339 437.123 365.478 436.025 366.652C436.639 364.729 437.176 362.784 437.889 360.889C437.913 360.824 437.807 360.797 437.784 360.863C437.092 362.849 436.335 364.846 435.8 366.886C434.582 368.201 433.418 369.564 432.321 370.983C432.34 370.897 432.358 370.809 432.378 370.724C432.558 369.975 432.746 369.228 432.946 368.483C433.333 367.045 433.755 365.617 434.24 364.208C435.235 361.32 436.525 358.493 438.51 356.144C438.555 356.091 438.477 356.016 438.432 356.069C435.328 359.744 433.507 364.151 432.345 368.779C432.175 369.456 432.015 370.136 431.86 370.816C431.778 371.176 431.683 371.544 431.622 371.915C431.142 372.564 430.67 373.22 430.219 373.892C427.46 377.999 425.308 382.486 423.494 387.08C421.451 392.254 419.863 397.597 418.4 402.959C418.371 403.064 418.529 403.101 418.563 402.999C421.671 393.699 424.846 384.266 430.167 375.953C431.291 374.198 432.506 372.507 433.796 370.875C436.411 370.728 439.049 370.161 441.525 369.336C444.263 368.423 446.847 367.159 449.271 365.595C450.67 364.692 451.946 363.638 453.241 362.596C453.301 362.547 453.234 362.462 453.173 362.513C451.024 364.331 448.44 365.754 445.888 366.921C443.324 368.092 440.626 369.01 437.87 369.611C436.696 369.867 435.507 370.056 434.316 370.217C435.785 368.407 437.351 366.676 439.003 365.025C439.539 364.489 440.095 363.977 440.646 363.459C442.471 362.126 444.494 361.074 446.521 360.094C449.125 358.836 451.688 357.502 454.266 356.191C455.72 355.451 457.165 354.694 458.631 353.978C458.694 353.947 458.636 353.856 458.574 353.886C455.962 355.148 453.309 356.327 450.672 357.535C448.19 358.672 445.68 359.812 443.298 361.151C443.195 361.209 443.099 361.271 442.998 361.33C445.15 359.456 447.378 357.669 449.659 355.947C451.766 354.359 453.904 352.802 456.075 351.299Z" fill="#263238"/>
<path d="M455.172 359.497C453.879 360.064 452.563 360.566 451.284 361.164C449.968 361.779 448.721 362.499 447.472 363.239C447.417 363.272 447.468 363.348 447.523 363.322C448.79 362.716 450.074 362.148 451.329 361.517C452.614 360.87 453.885 360.179 455.203 359.602C455.266 359.573 455.236 359.468 455.172 359.497Z" fill="#263238"/>
<path d="M376.186 298.25C376.186 298.25 380.648 303.36 380.936 311.45C380.988 312.876 380.763 314.861 380.598 317.197C386.524 320.361 390.969 326.061 390.969 326.061C387.602 324.039 382.981 323.222 380.488 323.552C380.573 325.089 380.755 326.684 381.095 328.302C382.196 328.239 384.321 328.386 387.836 329.635C387.836 329.635 384.387 329.547 381.758 330.843C384.591 339.856 393.012 349.116 416.267 353.048C416.267 353.048 420.753 337.26 412.148 320.324C405.181 306.619 376.186 298.25 376.186 298.25Z" fill="#03B0EF"/>
<path d="M424.317 391.616C423.913 387.765 423.406 383.925 422.811 380.099C421.621 372.444 420.079 364.832 418.121 357.335C417.198 353.799 416.091 350.337 414.764 346.962C414.85 346.35 414.837 345.713 414.85 345.1C414.866 344.355 414.87 343.611 414.861 342.866C414.844 341.376 414.774 339.889 414.647 338.405C414.397 335.474 413.95 332.538 413.218 329.686C412.793 328.03 412.299 326.398 411.813 324.759C411.793 324.692 411.69 324.723 411.709 324.79C412.532 327.625 413.005 330.575 413.426 333.493C413.844 336.384 414.101 339.302 414.207 342.22C414.236 343.019 414.251 343.819 414.252 344.618C414.252 344.956 414.238 345.3 414.225 345.645C413.08 342.877 411.789 340.168 410.307 337.534C407.963 333.368 405.27 329.408 402.347 325.626C402.374 325.195 402.243 324.74 402.156 324.325C402.047 323.805 401.934 323.287 401.818 322.769C401.58 321.706 401.313 320.65 401.025 319.6C400.447 317.493 399.684 315.456 399.025 313.376C399.004 313.31 398.901 313.34 398.921 313.407C399.535 315.467 399.943 317.6 400.415 319.697C400.648 320.734 400.875 321.772 401.104 322.81C401.218 323.329 401.329 323.848 401.436 324.368C401.444 324.405 401.45 324.446 401.457 324.484C400.517 323.298 399.559 322.128 398.578 320.978C394.137 315.771 389.268 310.967 384.368 306.197C383.765 305.611 383.148 305.039 382.537 304.461C382.486 304.413 382.414 304.489 382.462 304.539C387.145 309.424 391.756 314.366 396.123 319.539C397.161 320.768 398.183 322.012 399.186 323.272C398.658 322.914 398.124 322.566 397.599 322.221C396.246 321.335 394.876 320.474 393.465 319.683C392.054 318.892 390.632 318.12 389.182 317.401C387.691 316.662 386.097 316.06 384.658 315.223C384.596 315.187 384.543 315.292 384.606 315.318C386.089 315.926 387.474 316.853 388.849 317.668C390.265 318.507 391.677 319.353 393.067 320.234C394.434 321.101 395.808 321.956 397.165 322.838C398.297 323.573 399.41 324.376 400.583 325.055C403.265 328.53 405.786 332.129 408.033 335.898C409.449 338.274 410.729 340.71 411.884 343.201C411.605 343.08 411.325 342.962 411.05 342.839C410.34 342.524 409.631 342.209 408.921 341.894C407.553 341.287 406.179 340.695 404.807 340.098C402.2 338.964 399.55 337.922 396.992 336.677C395.558 335.979 394.146 335.244 392.817 334.358C392.759 334.319 392.708 334.414 392.765 334.453C397.533 337.74 402.879 340.056 408.156 342.391L410.444 343.404C411.072 343.682 411.702 343.993 412.35 344.236C413.907 347.723 415.223 351.314 416.283 355.013C418.4 362.399 420.014 369.945 421.342 377.51C422.676 385.106 423.576 392.752 424.275 400.43C424.362 401.389 424.448 402.346 424.557 403.303C424.6 403.685 425.167 403.685 425.163 403.288C425.123 399.395 424.723 395.49 424.317 391.616Z" fill="#263238"/>
<path d="M410.169 327.395C409.743 325.031 409.113 322.719 408.476 320.405C408.457 320.338 408.355 320.369 408.372 320.436C408.96 322.708 409.381 325.023 409.808 327.33C410.243 329.68 410.628 332.041 410.959 334.408C410.965 334.448 411.027 334.449 411.024 334.406C410.871 332.053 410.588 329.717 410.169 327.395Z" fill="#263238"/>
<path d="M400.147 333.803C398.571 332.687 396.801 331.842 395.09 330.957C394.243 330.519 393.384 330.103 392.526 329.687C391.641 329.259 390.721 328.9 389.843 328.459C389.781 328.428 389.728 328.522 389.791 328.554C390.641 328.981 391.448 329.497 392.284 329.953C393.145 330.423 394.002 330.901 394.866 331.365C396.566 332.278 398.238 333.291 400.023 334.031C400.177 334.095 400.284 333.9 400.147 333.803Z" fill="#263238"/>
<path opacity="0.1" d="M428.106 350.814C428.106 350.814 442.813 347.301 449.566 337.435C456.015 328.013 458.099 311.952 458.264 310.539C457.999 311.834 454.964 325.872 444.951 332.41C437.287 337.421 429.879 341.538 428.106 350.814Z" fill="#263238"/>
<path d="M441.68 325.397C439.092 327.889 437.151 330.82 436.258 334.328C436.25 334.358 436.294 334.374 436.304 334.344C437.409 331.078 439.232 327.86 441.752 325.478C441.802 325.43 441.73 325.349 441.68 325.397Z" fill="#263238"/>
<path d="M428.106 350.812C428.106 350.812 442.813 347.299 449.566 337.433C456.015 328.011 458.099 311.949 458.264 310.536C458.278 310.47 458.281 310.438 458.281 310.438C458.281 310.438 451.229 320.465 443.815 323.021C436.4 325.578 425.98 334.423 428.106 350.812Z" fill="#03B0EF"/>
<path d="M455.675 315.971C454.311 318.646 452.881 321.3 451.129 323.745C449.423 326.126 447.367 328.152 445.079 329.97C443.082 331.557 440.969 332.995 438.947 334.55C438.962 334.526 438.977 334.5 438.992 334.477C439.372 333.913 439.778 333.366 440.197 332.831C441.039 331.755 441.96 330.739 442.885 329.735C444.713 327.752 446.578 325.807 448.216 323.661C449.123 322.472 449.92 321.208 450.574 319.862C450.604 319.8 450.502 319.765 450.472 319.827C448.087 324.797 443.322 327.978 439.923 332.176C439.439 332.773 438.982 333.39 438.564 334.035C438.269 334.49 437.909 334.997 437.718 335.53C435.869 337.046 434.159 338.697 432.701 340.602C432.824 339.637 433.034 338.674 433.291 337.747C433.657 336.43 434.135 335.192 434.85 334.023C434.886 333.964 434.795 333.903 434.76 333.963C434.072 335.123 433.445 336.373 433.045 337.664C432.72 338.712 432.568 339.763 432.51 340.84C432.508 340.843 432.505 340.846 432.502 340.85C431.768 341.835 431.116 342.873 430.515 343.94C430.576 343.626 430.636 343.312 430.698 342.998C430.99 341.533 431.313 340.071 431.693 338.626C432.465 335.696 433.506 332.854 435.231 330.34C435.27 330.282 435.18 330.223 435.141 330.28C433.439 332.76 432.149 335.529 431.222 338.386C430.753 339.829 430.378 341.297 430.048 342.777C429.887 343.501 429.741 344.227 429.602 344.955C429.53 345.331 429.449 345.717 429.388 346.104C427.885 349.281 426.829 352.688 425.996 356.074C424.496 362.169 423.561 368.437 422.86 374.67C422.124 381.214 421.739 387.829 421.846 394.415C421.859 395.242 421.908 396.068 421.954 396.894C421.966 397.107 422.284 397.138 422.294 396.914C422.438 393.651 422.523 390.385 422.716 387.124C422.909 383.859 423.193 380.604 423.543 377.353C424.229 370.974 425.219 364.604 426.608 358.339C427.8 352.962 429.347 347.55 432.285 342.839C433.758 340.477 435.52 338.388 437.591 336.529C439.653 334.678 441.908 333.056 444.082 331.342C446.244 329.637 448.323 327.78 450.038 325.617C451.888 323.282 453.345 320.663 454.716 318.026C455.063 317.359 455.419 316.697 455.77 316.033C455.797 315.969 455.706 315.909 455.675 315.971Z" fill="#263238"/>
<path d="M453.136 318.127C452.193 320.117 451.058 322.01 449.86 323.856C449.831 323.9 449.898 323.943 449.928 323.901C451.209 322.094 452.276 320.154 453.239 318.162C453.269 318.099 453.166 318.064 453.136 318.127Z" fill="#263238"/>
<path d="M374.136 344.312C374.136 344.312 373.903 365.212 386.4 371.245C398.896 377.286 405.597 372.254 414.088 374.275C414.088 374.275 414.08 374.273 414.073 374.263C413.744 373.765 407.683 365.053 398.044 362.655C388.129 360.184 377.142 353.021 374.136 344.312Z" fill="#03B0EF"/>
<path opacity="0.1" d="M374.136 344.312C374.136 344.312 373.903 365.212 386.4 371.245C398.896 377.286 405.597 372.254 414.088 374.275C414.088 374.275 414.08 374.273 414.073 374.263C413.721 374.092 407.521 370.991 399.865 370.073C391.986 369.125 376.932 363.99 374.136 344.312Z" fill="black"/>
<path d="M414.911 374.65C413.42 373.307 411.752 372.152 409.94 371.284C409.672 371.156 409.396 371.051 409.124 370.936C408.992 370.769 408.852 370.61 408.705 370.456C408.33 370.065 407.94 369.691 407.529 369.339C406.744 368.666 405.907 368.05 405.015 367.525C402.945 366.308 400.676 365.456 398.559 364.325C398.498 364.292 398.445 364.388 398.507 364.42C399.553 364.963 400.566 365.563 401.584 366.157C402.574 366.735 403.587 367.286 404.551 367.908C405.416 368.467 406.249 369.084 407.024 369.762C407.244 369.954 407.455 370.163 407.666 370.376C406.288 369.904 404.871 369.543 403.443 369.254C401.155 368.792 398.841 368.464 396.559 367.977C395.436 367.738 394.33 367.439 393.243 367.082C392.206 366.247 391.171 365.417 390.189 364.512C389.003 363.419 387.914 362.23 386.959 360.93C386.918 360.874 386.824 360.932 386.867 360.987C388.409 362.977 390.063 364.983 391.99 366.64C391.452 366.435 390.918 366.217 390.392 365.977C386.146 364.048 382.368 360.984 379.743 357.118C379.704 357.061 379.611 357.117 379.651 357.175C381.939 360.487 384.842 363.322 388.266 365.445C389.982 366.509 391.793 367.381 393.709 368.021C395.912 368.757 398.195 369.193 400.473 369.62C402.703 370.038 404.943 370.464 407.096 371.196C409.089 371.873 410.965 372.855 412.651 374.118C415.867 376.527 418.355 379.824 420.139 383.404C422.504 388.149 423.635 393.453 424.263 398.685C424.29 398.909 424.636 398.909 424.62 398.676C424.031 389.892 421.683 380.751 414.911 374.65Z" fill="#263238"/>
<path d="M400.408 367.833C399.784 366.836 398.848 366.087 397.839 365.504C396.659 364.822 395.6 364.087 394.783 362.976C394.742 362.92 394.649 362.978 394.691 363.033C395.446 364.003 396.35 364.798 397.389 365.449C398.48 366.133 399.58 366.803 400.329 367.881C400.364 367.929 400.44 367.883 400.408 367.833Z" fill="#263238"/>
<path d="M407.038 390.07L407.607 401.564L409.35 436.677H435.566L437.309 401.564L437.878 390.07H407.038Z" fill="#455A64"/>
<path d="M407.038 390.07L407.607 401.564H437.309L437.878 390.07H407.038Z" fill="#263238"/>
<path d="M405.201 396.234H439.715V385.27H405.201V396.234Z" fill="#455A64"/>
<path d="M326.36 250H278.63V246.293L326.36 244.75V250Z" fill="#455A64"/>
<path d="M363.87 249.937C363.87 249.937 335.072 249.937 332.384 249.937C329.696 249.937 333.585 242.286 343.391 239.35C353.198 236.415 366.963 247.067 363.87 249.937Z" fill="#37474F"/>
<path d="M351.515 249.935C351.417 249.051 351.53 248.159 351.747 247.299C351.962 246.435 352.321 245.606 352.775 244.83C353.235 244.057 353.833 243.359 354.53 242.788C355.208 242.194 356.047 241.801 356.889 241.562C356.239 242.174 355.598 242.701 355.072 243.35C354.541 243.982 354.037 244.63 353.631 245.347C352.771 246.755 352.136 248.291 351.515 249.935Z" fill="#263238"/>
<path d="M355.245 242.656C356.225 242.84 357.159 243.176 358.062 243.579C358.968 243.979 359.827 244.482 360.648 245.051C361.461 245.628 362.223 246.309 362.841 247.123C363.45 247.92 363.951 248.92 363.87 249.936C363.53 248.996 362.915 248.289 362.254 247.637C361.578 246.998 360.852 246.4 360.068 245.865C358.526 244.756 356.879 243.777 355.245 242.656Z" fill="#263238"/>
<path d="M386.466 235.125H309.922L322.095 178.141H398.639L386.466 235.125Z" fill="#455A64"/>
<path d="M389.297 235.125H312.754L324.926 178.141H401.47L389.297 235.125Z" fill="#37474F"/>
<path d="M348.013 214.69H346.219L348.944 201.906H350.739L348.013 214.69Z" fill="#263238"/>
<path d="M351.555 214.69H349.761L352.486 201.906H354.28L351.555 214.69Z" fill="#263238"/>
<path d="M355.097 214.69H353.302L356.028 201.906H357.822L355.097 214.69Z" fill="#263238"/>
<path d="M358.639 214.69H356.844L359.57 201.906H361.365L358.639 214.69Z" fill="#263238"/>
<path d="M362.181 214.69H360.386L363.111 201.906H364.906L362.181 214.69Z" fill="#263238"/>
<path d="M365.723 214.69H363.928L366.653 201.906H368.448L365.723 214.69Z" fill="#263238"/>
<path d="M369.265 214.69H367.47L370.195 201.906H371.99L369.265 214.69Z" fill="#263238"/>
<path d="M367.649 250.008H330.003V247.084L367.649 245.867V250.008Z" fill="#455A64"/>
<path d="M377.884 250.001H357.672L345.499 218.07H365.711L377.884 250.001Z" fill="#455A64"/>
<path d="M381.211 250.001H360.998L348.826 218.07H369.038L381.211 250.001Z" fill="#263238"/>
</svg>
