<svg width="139" height="75" viewBox="0 0 139 75" fill="none" xmlns="http://www.w3.org/2000/svg">
<g opacity="0.3">
<path fill-rule="evenodd" clip-rule="evenodd" d="M98.0857 59.092L103.246 32.5308C104.411 26.536 103.443 22.0647 100.369 19.239C97.3912 16.5051 92.3361 15.1753 84.9158 15.1753H75.9782L78.5347 2.01548C78.5826 1.77056 78.5757 1.51806 78.5145 1.27612C78.4533 1.03418 78.3393 0.808785 78.1806 0.616119C78.022 0.423453 77.8227 0.268294 77.597 0.16177C77.3713 0.0552452 77.1248 7.74293e-07 76.8753 0H64.5395C63.7293 0 63.0336 0.57495 62.8788 1.37007L57.3973 29.568C56.8991 26.3951 55.6712 23.6675 53.706 21.4167C50.0877 17.275 44.3646 15.1753 36.6939 15.1753H12.7848C11.9746 15.1753 11.2789 15.7502 11.1241 16.5441L0.0314215 73.6218C-0.0654527 74.1188 0.0641293 74.6296 0.386204 75.0196C0.707021 75.4109 1.1851 75.6361 1.69212 75.6361H14.1247C14.9349 75.6361 15.6307 75.0611 15.7854 74.2647L18.469 60.4595H27.7236C32.5799 60.4595 36.6612 59.9336 39.8467 58.897C43.1039 57.8376 46.102 56.0411 48.744 53.5676C50.879 51.6062 52.6429 49.4096 54.0004 47.0406L51.7849 58.444C51.688 58.941 51.8176 59.4543 52.1396 59.8418C52.4605 60.2331 52.9398 60.4583 53.4456 60.4583H65.7813C66.5915 60.4583 67.2872 59.8833 67.442 59.0894L73.53 27.7588H81.9945C85.6015 27.7588 86.6583 28.4772 86.9464 28.7855C87.2068 29.0673 87.7478 30.0599 87.1402 33.1888L82.2335 58.4428C82.1865 58.6876 82.1941 58.9399 82.2558 59.1814C82.3174 59.423 82.4316 59.648 82.5903 59.8404C82.7489 60.0328 82.948 60.1878 83.1734 60.2944C83.3988 60.401 83.6449 60.4565 83.8942 60.457H96.4262C96.8184 60.4578 97.1985 60.3219 97.5014 60.0728C97.8042 59.8237 98.0108 59.4769 98.0857 59.092ZM40.8947 37.1456C40.1197 41.1275 38.6603 43.967 36.5542 45.5862C34.4155 47.2356 30.9947 48.071 26.3862 48.071H20.8757L24.8601 27.5663H31.9848C37.2185 27.5663 39.3271 28.6848 40.1738 29.6221C41.3476 30.923 41.5967 33.526 40.8947 37.1456ZM150.047 21.4167C146.43 17.275 140.707 15.1753 133.036 15.1753H109.127C108.315 15.1753 107.621 15.7502 107.466 16.5441L96.3747 73.6218C96.2765 74.1188 96.4061 74.6296 96.7282 75.0196C97.0503 75.4096 97.5296 75.6361 98.0328 75.6361H110.467C111.278 75.6361 111.973 75.0611 112.127 74.2647L114.811 60.4595H124.067C128.924 60.4595 133.002 59.9336 136.189 58.897C139.447 57.8376 142.445 56.0411 145.086 53.5676C147.29 51.5433 149.103 49.2674 150.477 46.8103C151.851 44.3533 152.836 41.6131 153.411 38.6641C154.824 31.391 153.693 25.5886 150.047 21.4167ZM137.942 37.1456C137.166 41.1275 135.707 43.967 133.603 45.5862C131.463 47.2356 128.042 48.071 123.435 48.071H117.924L121.907 27.5663H129.033C134.266 27.5663 136.375 28.6848 137.223 29.6221C138.394 30.923 138.645 33.526 137.942 37.1456Z" fill="white"/>
<path fill-rule="evenodd" clip-rule="evenodd" d="M31.9834 25.8735C36.7063 25.8735 39.8553 26.7453 41.4292 28.4891C43.0019 30.2328 43.3768 33.2271 42.554 37.4682C41.6934 41.8854 40.0378 45.0382 37.5845 46.9279C35.1312 48.8175 31.3971 49.7611 26.3848 49.7611H18.8211L23.4635 25.8735H31.9834ZM1.68945 73.9432H14.1221L17.0723 58.7691H27.7222C32.4212 58.7691 36.2874 58.2747 39.3219 57.2871C42.3565 56.2995 45.1155 54.6451 47.5977 52.3214C49.6811 50.4078 51.367 48.2942 52.6578 45.9843C53.9474 43.6744 54.8633 41.1267 55.4055 38.34C56.7215 31.5739 55.7289 26.3037 52.4301 22.5294C49.1326 18.7538 43.8851 16.8667 36.6925 16.8667H12.7834L1.68945 73.9432ZM64.5369 1.69141H76.8726L73.9236 16.8667H84.9144C91.8264 16.8667 96.5984 18.0719 99.2228 20.4837C101.847 22.8955 102.634 26.8045 101.584 32.208L96.4235 58.7691H83.8915L88.7982 33.5139C89.3555 30.6404 89.1517 28.6815 88.1817 27.6361C87.2117 26.5918 85.1471 26.0685 81.9918 26.0685H72.1333L65.7786 58.7691H53.4429L64.5369 1.69141ZM129.031 25.8735C133.754 25.8735 136.902 26.7453 138.477 28.4891C140.05 30.2328 140.423 33.2271 139.6 37.4682C138.742 41.8854 137.087 45.0382 134.632 46.9279C132.18 48.8175 128.445 49.7611 123.435 49.7611H115.871L120.512 25.8735H129.031ZM98.7347 73.9432H111.169L114.118 58.7691H124.767C129.468 58.7691 133.334 58.2747 136.368 57.2871C139.403 56.2995 142.162 54.6451 144.644 52.3214C146.728 50.4078 148.413 48.2942 149.703 45.9843C150.993 43.6744 151.91 41.1267 152.453 38.34C153.768 31.5739 152.775 26.3037 149.478 22.5294C146.178 18.7538 140.932 16.8667 133.739 16.8667H109.83L98.7347 73.9432Z" fill="black"/>
</g>
</svg>
