<svg width="32" height="32" viewBox="0 0 32 32" fill="none" xmlns="http://www.w3.org/2000/svg">
<rect x="0.666667" y="0.666667" width="30.6667" height="30.6667" rx="4.66667" stroke="#4E4E4E" stroke-width="1.33333"/>
<path fill-rule="evenodd" clip-rule="evenodd" d="M14.9104 18.6219C14.8961 18.6715 14.8825 18.713 14.8716 18.7545C14.2391 21.2323 14.169 21.7825 13.5188 22.9334C13.2086 23.4802 12.8597 23.9985 12.4734 24.4943C12.4298 24.5501 12.389 24.6229 12.302 24.6052C12.2067 24.5848 12.1993 24.4991 12.1891 24.4229C12.085 23.67 12.0279 22.915 12.0523 22.1546C12.085 21.1643 12.2074 20.8242 13.4841 15.4565C13.5025 15.3748 13.4821 15.3068 13.4542 15.2327C13.1488 14.4083 13.0882 13.5718 13.3549 12.7243C13.933 10.8933 16.0082 10.7532 16.3714 12.2638C16.5952 13.1984 16.0034 14.4206 15.5491 16.2284C15.173 17.72 16.9285 18.7797 18.4289 17.6914C19.8124 16.6882 20.3497 14.2818 20.2477 12.5767C20.0464 9.17663 16.3184 8.44206 13.9527 9.53711C11.2409 10.7906 10.6247 14.1519 11.849 15.6877C12.0041 15.8829 12.2965 16.0026 12.2455 16.2005C12.1666 16.508 12.0972 16.8181 12.0122 17.1242C11.949 17.352 11.5857 17.4343 11.3559 17.3412C10.9042 17.1589 10.5288 16.8712 10.2234 16.493C9.18338 15.2055 8.88615 12.659 10.2608 10.5029C11.7837 8.11423 14.6166 7.14842 17.2033 7.44156C20.2926 7.7932 22.2454 9.90371 22.6106 12.2978C22.7773 13.3888 22.6576 16.0788 21.1258 17.9791C19.3642 20.1638 16.5088 20.3087 15.1913 18.9674C15.09 18.8647 15.0084 18.7443 14.9091 18.6212L14.9104 18.6219Z" fill="#4E4E4E"/>
</svg>
