<svg width="366" height="366" viewBox="0 0 366 366" fill="none" xmlns="http://www.w3.org/2000/svg">
<path d="M39.7821 217.237L34.6991 225.432L37.2088 226.987C37.9468 227.444 38.3469 228.279 38.2731 229.143C38.2323 229.621 38.2169 230.102 38.2279 230.585C38.2469 231.451 37.7943 232.256 37.0314 232.665L34.4304 234.06L38.9893 242.561L41.5903 241.166C42.3531 240.757 43.2751 240.826 43.9854 241.32C44.3811 241.596 44.7906 241.849 45.2118 242.079C45.9732 242.496 46.4469 243.291 46.4199 244.159L46.3265 247.11L55.9647 247.409L56.0537 244.448C56.08 243.579 56.6122 242.824 57.3977 242.453C57.6108 242.352 57.8225 242.246 58.032 242.133C58.2416 242.021 58.4474 241.904 58.6489 241.782C59.3891 241.335 60.3082 241.309 61.0433 241.765L63.5713 243.331L68.6536 235.136L66.1394 233.576C65.4014 233.118 65.0021 232.282 65.0773 231.417C65.1189 230.941 65.1342 230.461 65.1247 229.981C65.1065 229.117 65.5591 228.312 66.3212 227.903L68.9229 226.508L64.3641 218.008L61.7624 219.403C61.0002 219.811 60.0797 219.743 59.3694 219.249C58.9745 218.976 58.5664 218.723 58.1474 218.495C57.3853 218.078 56.91 217.283 56.937 216.415L57.0283 213.457L47.3908 213.158L47.2989 216.117C47.2719 216.983 46.7411 217.735 45.9586 218.105C45.7447 218.206 45.5315 218.313 45.3198 218.427C45.1103 218.539 44.9045 218.656 44.703 218.778C43.9591 219.227 43.0357 219.253 42.2969 218.795L39.7821 217.237ZM47.942 223.323C51.7862 221.262 56.5691 222.706 58.6306 226.549C60.6922 230.393 59.2519 235.183 55.4077 237.245C51.5635 239.306 46.7703 237.859 44.7088 234.015C42.6473 230.172 44.0978 225.384 47.942 223.323Z" fill="#EBEBEB"/>
<path d="M310.12 178.184L313.139 183.416L314.741 182.491C315.212 182.219 315.791 182.245 316.247 182.542C316.499 182.707 316.76 182.858 317.029 182.994C317.513 183.24 317.824 183.728 317.824 184.271V186.12H323.867V184.271C323.867 183.729 324.178 183.24 324.662 182.994C324.931 182.857 325.192 182.707 325.444 182.542C325.9 182.245 326.479 182.219 326.95 182.491L328.552 183.416L331.571 178.184L329.962 177.257C329.491 176.986 329.231 176.468 329.259 175.924C329.266 175.777 329.27 175.629 329.27 175.48C329.27 175.331 329.266 175.182 329.259 175.035C329.231 174.494 329.489 173.979 329.958 173.708L331.572 172.776L328.552 167.543L326.947 168.469C326.476 168.741 325.896 168.714 325.441 168.417C325.189 168.253 324.93 168.102 324.662 167.966C324.179 167.72 323.869 167.231 323.869 166.69V164.84H317.825V166.69C317.825 167.231 317.515 167.72 317.032 167.966C316.764 168.102 316.503 168.253 316.253 168.417C315.797 168.715 315.218 168.741 314.746 168.469L313.14 167.543L310.121 172.776L311.727 173.703C312.198 173.974 312.456 174.49 312.428 175.031C312.421 175.18 312.417 175.329 312.417 175.48C312.417 175.629 312.42 175.777 312.428 175.924C312.456 176.468 312.197 176.986 311.725 177.258L310.12 178.184ZM315.896 175.48C315.896 172.746 318.11 170.533 320.843 170.533C323.576 170.533 325.795 172.746 325.795 175.48C325.795 178.213 323.576 180.431 320.843 180.431C318.11 180.431 315.896 178.213 315.896 175.48Z" fill="#EBEBEB"/>
<path d="M106.66 56.0429L109.68 61.2755L111.281 60.3506C111.752 60.0783 112.332 60.1046 112.787 60.4017C113.039 60.566 113.3 60.7171 113.57 60.8536C114.053 61.0996 114.364 61.588 114.364 62.1304V63.9802H120.408V62.1304C120.408 61.588 120.719 61.0996 121.202 60.8536C121.471 60.7164 121.733 60.566 121.984 60.4017C122.44 60.1046 123.019 60.0783 123.49 60.3506L125.092 61.2755L128.111 56.0429L126.502 55.1165C126.031 54.845 125.771 54.3274 125.799 53.7835C125.806 53.6361 125.81 53.4879 125.81 53.339C125.81 53.1901 125.806 53.0419 125.799 52.8944C125.771 52.3535 126.029 51.8381 126.498 51.5673L128.111 50.6351L125.092 45.4024L123.486 46.3288C123.014 46.6003 122.436 46.5733 121.98 46.2762C121.729 46.1127 121.469 45.9616 121.201 45.8251C120.719 45.5791 120.408 45.0907 120.408 44.549V42.6992H114.364V44.549C114.364 45.0907 114.054 45.5791 113.57 45.8251C113.303 45.9616 113.042 46.1127 112.792 46.2762C112.336 46.5741 111.756 46.6003 111.285 46.3288L109.679 45.4024L106.66 50.6351L108.266 51.5621C108.736 51.833 108.995 52.3491 108.967 52.8907C108.96 53.0389 108.956 53.1886 108.956 53.339C108.956 53.4879 108.96 53.6361 108.967 53.7835C108.995 54.3274 108.736 54.845 108.264 55.1173L106.66 56.0429ZM112.437 53.339C112.437 50.6059 114.65 48.3925 117.383 48.3925C120.116 48.3925 122.335 50.6059 122.335 53.339C122.335 56.0721 120.116 58.2906 117.383 58.2906C114.65 58.2906 112.437 56.0721 112.437 53.339Z" fill="#EBEBEB"/>
<path d="M288.49 248.6C304.864 248.6 318.131 235.333 318.131 218.959C318.131 202.593 304.864 189.318 288.49 189.318C272.123 189.318 258.849 202.593 258.849 218.959C258.849 235.333 272.123 248.6 288.49 248.6ZM288.49 205.121C296.137 205.121 302.336 211.313 302.336 218.96C302.336 226.607 296.137 232.806 288.49 232.806C280.843 232.806 274.644 226.607 274.644 218.96C274.644 211.313 280.843 205.121 288.49 205.121Z" fill="#EBEBEB"/>
<path d="M282.792 247.373H294.19L293.56 255.442H283.422L282.792 247.373Z" fill="#EBEBEB"/>
<path d="M304.487 243.531L312.547 235.471L317.807 241.622L310.638 248.791L304.487 243.531Z" fill="#EBEBEB"/>
<path d="M317.113 225.474V214.076L325.181 214.706V224.844L317.113 225.474Z" fill="#EBEBEB"/>
<path d="M313.272 203.779L305.212 195.719L311.363 190.459L318.532 197.628L313.272 203.779Z" fill="#EBEBEB"/>
<path d="M295.216 191.155H283.817L284.447 183.086H294.586L295.216 191.155Z" fill="#EBEBEB"/>
<path d="M273.52 194.995L265.459 203.055L260.2 196.904L267.368 189.734L273.52 194.995Z" fill="#EBEBEB"/>
<path d="M260.894 213.051V224.45L252.825 223.819V213.681L260.894 213.051Z" fill="#EBEBEB"/>
<path d="M264.734 234.748L272.794 242.808L266.643 248.068L259.475 240.899L264.734 234.748Z" fill="#EBEBEB"/>
<path d="M138.91 65.7525H217.538V20.6582H138.91V65.7518V65.7525Z" fill="#EBEBEB"/>
<path d="M230.838 65.7531H217.538V51.9043L230.838 65.7531Z" fill="#EBEBEB"/>
<path d="M209.313 28.4551H147.136V29.3121H209.313V28.4551Z" fill="white"/>
<path d="M182.92 33.082H147.136V33.9391H182.92V33.082Z" fill="white"/>
<path d="M198.858 42.3359H147.136V43.193H198.858V42.3359Z" fill="white"/>
<path d="M209.313 46.9629H147.136V47.8199H209.313V46.9629Z" fill="white"/>
<path d="M209.313 51.5918H147.136V52.4488H209.313V51.5918Z" fill="white"/>
<path d="M174.094 56.2188H147.136V57.0758H174.094V56.2188Z" fill="white"/>
<path d="M310.694 157.098C311.141 157.002 311.568 156.713 311.814 156.339C312.05 155.981 312.168 155.451 312.052 155.035C311.801 154.129 310.899 153.511 309.921 153.721C309.473 153.816 309.046 154.106 308.8 154.48C308.564 154.838 308.447 155.367 308.562 155.784C308.814 156.69 309.716 157.308 310.694 157.098Z" fill="#03B0EF"/>
<path d="M205.61 120.679C206.322 120.526 206.865 119.774 206.67 119.069C206.473 118.363 205.77 117.88 205.007 118.044C204.295 118.196 203.751 118.949 203.947 119.653C204.144 120.361 204.847 120.842 205.61 120.679Z" fill="#03B0EF"/>
<path d="M225.453 56.2327C226.154 56.0823 226.689 55.3421 226.496 54.6486C226.303 53.9529 225.611 53.4777 224.86 53.639C224.159 53.7894 223.624 54.5296 223.817 55.2231C224.009 55.9188 224.702 56.3933 225.453 56.2327Z" fill="#03B0EF"/>
<path d="M267.003 28.6023C267.39 28.5191 267.759 28.2695 267.971 27.9461C268.175 27.6366 268.276 27.1796 268.176 26.8197C267.959 26.0371 267.18 25.5028 266.335 25.6838C265.948 25.767 265.579 26.0167 265.366 26.3401C265.162 26.6496 265.061 27.1066 265.161 27.4665C265.379 28.249 266.158 28.7834 267.003 28.6023Z" fill="#03B0EF"/>
<path d="M237.673 156.3C237.703 156.305 237.733 156.308 237.763 156.313C238.836 156.459 239.66 155.323 239.445 154.386C239.23 153.447 237.987 152.758 237.08 153.328C237.054 153.344 237.029 153.36 237.004 153.376C236.427 153.739 235.995 154.389 236.189 155.085C236.385 155.79 236.942 156.201 237.673 156.3Z" fill="#03B0EF"/>
<path d="M207.438 131.014C208.321 133.58 209.498 136.033 210.79 138.427C212.118 140.888 213.564 143.282 215.189 145.571C216.524 147.448 218.056 149.837 220.245 150.825C220.891 151.116 221.475 150.395 221.372 149.83C220.962 147.589 219.014 145.419 217.793 143.514C217.49 143.041 217.192 142.566 216.894 142.089C216.553 141.365 216.225 140.624 216.428 139.857C216.744 138.663 218.063 138.174 219.112 138.667C220.018 140.066 220.964 141.44 221.959 142.78C223.633 145.032 228.469 150.932 233.225 152.876C234.613 153.443 235.879 151.641 234.444 150.617C233.112 149.666 231.598 148.473 230.281 147.239C229.603 146.124 229.096 144.903 229.762 143.929C230.73 142.517 232.203 143.811 233.508 144.474C242.024 152.466 253.05 157.987 266.196 159.372C267.108 159.792 268.132 160.266 267.838 161.326C267.511 162.5 266.27 162.386 265.246 162.537C264.365 162.39 263.488 162.221 262.612 162.031C260.785 161.634 258.835 160.776 256.951 161.046C256.192 161.155 256.11 162.075 256.511 162.548C257.751 164.007 260.229 164.519 262.044 164.973C264.16 165.503 266.363 165.816 268.539 165.999C270.797 166.189 273.074 166.17 275.332 165.973C277.251 165.806 279.375 165.672 280.884 164.403C281.41 163.96 281.114 163.144 280.511 162.953C279.206 162.542 277.78 162.703 276.391 162.868C276.367 162.853 276.34 162.84 276.311 162.835C275.69 162.729 274.734 162.789 274.3 162.31C273.805 161.764 273.97 160.95 274.41 160.442C274.769 160.027 275.25 159.787 275.769 159.65C279.642 159.473 283.665 158.959 287.835 158.065C307.321 153.885 320.349 143.533 327.74 130.571C328.353 129.575 329.057 128.531 330.264 128.29C331.757 127.992 331.878 129.101 331.913 130.203C331.852 130.371 331.795 130.544 331.742 130.721C331.07 132.07 330.353 133.398 329.573 134.695C327.704 137.806 325.547 140.771 323.038 143.431C321.771 144.775 320.413 146.041 319.06 147.302C317.827 148.451 316.165 149.532 315.284 150.96C314.799 151.744 315.502 152.655 316.405 152.51C318.226 152.219 319.958 150.806 321.397 149.745C322.973 148.583 324.37 147.229 325.696 145.808C326.817 144.606 327.878 143.356 328.881 142.062C329.583 141.51 330.272 140.792 331.104 141.085C332.093 141.433 331.723 142.716 331.46 143.653C331.378 143.776 331.294 143.9 331.212 144.024C331.092 144.202 330.965 144.382 330.859 144.568C330.609 144.897 330.359 145.225 330.11 145.553C329.14 146.833 327.882 148.133 327.351 149.651C327.177 150.149 327.73 150.732 328.261 150.553C331.361 149.509 333.841 146.022 335.628 143.506C336.684 142.019 337.669 140.488 338.505 138.874C339.254 137.427 340.199 135.729 340.05 134.073C339.982 133.32 339.212 133.035 338.612 133.48C337.534 134.28 335.881 137.016 335.723 137.191C335.241 137.725 334.844 138.102 334.12 137.693C333.484 137.334 333.433 136.987 333.456 136.27C333.508 134.695 336.615 129.037 337.796 125.906C338.529 123.963 339.15 121.974 339.619 119.956C340.043 118.133 340.584 115.974 339.676 114.225C339.377 113.65 338.563 113.676 338.206 114.168C337.107 115.685 336.832 117.81 336.244 119.554C336.17 119.773 336.093 119.99 336.015 120.208C335.839 120.457 335.671 120.71 335.475 120.955C335.442 120.997 335.406 121.034 335.369 121.072C334.877 121.53 334.302 121.89 333.739 121.729C333.211 121.578 333.043 120.969 332.957 120.503C332.911 120.248 332.89 120.028 332.853 119.823C332.89 118.546 333.371 117.248 333.511 115.972C335.385 108.266 335.713 100.172 334.629 92.2362C334.872 91.8785 335.121 91.5405 335.637 91.4135C336.247 91.2638 336.892 91.4215 337.476 91.6982C337.525 91.78 337.571 91.861 337.61 91.9376C337.686 92.0887 337.733 92.2479 337.775 92.4078C337.926 95.0022 337.632 97.7842 338.254 100.26C338.574 101.533 340.356 101.558 340.819 100.375C341.855 97.7258 341.415 94.197 341.162 91.431C340.893 88.4993 340.388 85.591 339.635 82.7389C338.899 79.9459 337.933 77.2077 336.745 74.5636C335.55 71.9021 334.14 68.7068 331.874 66.7315C331.036 66.0007 329.33 66.557 329.722 67.8228C329.948 68.5543 330.24 69.2675 330.567 69.9712C330.485 70.6954 330.198 71.3808 329.44 71.6852C329.038 71.8473 328.706 71.7926 328.396 71.6597C321.939 58.4496 311.1 47.4303 296.649 41.9728C295.869 41.5246 295.129 41.0647 295.044 40.166C294.983 39.5251 295.116 38.8937 295.664 38.5199C295.96 38.3177 296.346 38.2607 296.749 38.2629C298.744 38.9893 300.729 39.7383 302.766 40.3274C303.467 40.5303 304.06 39.6864 303.539 39.1528C298.045 33.523 288.361 32.0163 280.692 31.6156C276.15 31.3783 271.587 31.6535 267.084 32.2404C265.659 32.4258 264.178 32.6149 262.699 32.869C261.658 32.7806 260.474 32.2514 260.563 31.0622C260.608 30.4673 261.071 30.1344 261.596 29.8709C262.299 29.6592 262.92 29.3365 263.355 28.6496C263.529 28.3751 263.528 27.94 263.267 27.7064C261.377 26.0157 257.631 27.464 255.453 28.0261C252.477 28.7934 249.571 29.8227 246.707 30.9104C243.886 31.982 241.062 33.0931 238.315 34.3341C236.189 35.2947 232.94 36.4956 232.033 38.7484C231.779 39.3806 232.347 40.1836 233.052 40.1748C233.98 40.1631 234.685 39.8543 235.419 39.4528C235.951 39.4485 236.438 39.6404 236.789 40.2442C237.273 41.08 236.703 41.7538 236.316 42.475C235.782 42.7948 235.253 43.1225 234.734 43.4649C231.98 45.2819 227.898 48.0062 227.393 51.465C227.281 52.2271 228.221 52.7585 228.883 52.4257C230.393 51.6672 231.517 50.2357 232.733 49.1115C232.739 49.1056 232.747 49.0998 232.753 49.0939C233.489 48.7435 234.203 48.1201 234.977 48.0113C236.09 47.8559 236.897 48.5406 236.47 49.621C236.315 50.0137 236.065 50.3977 235.805 50.77C217.084 64.4699 210.727 87.0678 214.37 108.146C214.169 109.078 213.724 110.074 212.732 110.171C211.586 110.283 211.341 109.16 210.843 108.378C210.422 106.335 210.076 104.279 209.792 102.212C209.444 99.6822 209.588 96.9294 208.96 94.4576C208.758 93.6597 207.516 93.6203 207.291 94.4269C206.54 97.1097 206.881 100.369 207.029 103.118C207.176 105.871 207.508 108.643 208.001 111.359C209.025 116.999 210.868 122.481 213.195 127.737C213.674 128.819 214.18 129.889 214.708 130.948C214.715 131.926 214.606 133.356 213.402 133.373C212.356 133.388 211.866 132.438 211.252 131.751C210.913 131.061 210.573 130.371 210.226 129.684C209.123 127.496 208.341 124.961 206.816 123.012C206.458 122.555 205.694 122.902 205.664 123.417C205.519 125.943 206.624 128.649 207.438 131.014ZM330.591 76.4565C330.997 75.4864 332.271 75.071 333.295 75.3039C333.334 75.3893 333.376 75.4747 333.414 75.5601C334.559 78.1209 335.496 80.7708 336.216 83.4726C336.452 84.3588 336.656 85.2523 336.845 86.148C336.706 86.8984 336.467 87.7241 335.574 87.9124C334.859 88.0628 334.339 87.6781 333.792 87.3919C333.011 83.6981 331.927 80.0642 330.543 76.5478C330.559 76.5164 330.578 76.4901 330.591 76.4565ZM270.426 35.9094C270.539 35.7525 270.672 35.6094 270.834 35.4933C271.088 35.3108 271.375 35.1794 271.653 35.0334C274.602 34.7991 277.564 34.7305 280.519 34.875C282.739 34.9838 284.947 35.2196 287.132 35.5941C287.507 35.8211 287.879 36.0496 288.097 36.446C288.452 37.092 288.346 38.0198 287.797 38.5411C286.91 39.3835 285.631 38.8929 284.464 38.8812C280.686 38.3513 276.725 38.1709 272.591 38.3753C271.23 38.0717 269.988 37.1081 270.426 35.9094ZM239.099 37.9819C239.611 37.503 240.209 37.1176 240.834 36.792C241.128 36.6387 241.427 36.519 241.696 36.3649C243.647 35.5364 245.627 34.7611 247.604 34.0019C249.112 33.423 250.632 32.8799 252.167 32.3748C253.241 32.1996 254.269 31.701 255.37 31.7915C256.422 31.8784 257.094 32.6208 256.757 33.6384C256.61 34.0837 256.117 34.5443 255.74 34.9473C255.126 35.2524 254.531 35.5926 253.968 35.9817C252.85 36.7555 253.96 38.4695 255.166 38.1943C257.105 37.7527 258.997 37.2504 260.897 36.7825C261.373 36.8044 261.85 36.7715 262.313 36.9132C263.112 37.1577 263.772 37.768 263.266 38.5849C262.961 39.0762 262.488 39.4587 261.96 39.7134C261.573 39.7901 261.189 39.8609 260.799 39.9449C254.323 41.334 248.56 43.4051 243.48 46.0265C242.284 46.098 241.006 45.8593 241.398 44.3767C241.804 42.8415 243.33 42.6612 244.491 41.9305C244.517 41.9137 244.535 41.8925 244.557 41.8742C245.61 41.3749 246.613 40.7938 247.305 39.904C247.807 39.2587 247.251 38.3629 246.489 38.2929C244.479 38.1074 242.375 39.3557 240.62 40.1777C240.609 40.1828 240.598 40.1887 240.587 40.1945C240.173 40.3026 239.761 40.3646 239.331 40.1624C238.284 39.6704 238.363 38.6703 239.099 37.9819ZM213.113 115.355C213.85 113.825 215.048 114.356 216.003 115.265C218.164 122.831 221.631 130.033 226.301 136.351C226.487 137.317 226.491 138.318 225.672 138.933C224.87 139.534 224.467 139.142 223.663 139.068C220.628 134.706 218.044 130.041 215.966 125.183C214.743 122.322 213.723 119.386 212.849 116.41C212.874 116.052 212.948 115.698 213.113 115.355Z" fill="#03B0EF"/>
<path d="M309.522 45.2057C310.64 46.0313 312.466 47.8191 314.023 47.3818C314.385 47.2796 314.569 47.0373 314.628 46.6905C314.898 45.1079 312.784 43.7822 311.67 42.9967C310.817 42.3959 308.242 40.7001 307.297 41.8995C306.342 43.1091 308.724 44.6166 309.522 45.2057Z" fill="#03B0EF"/>
<path d="M317.132 50.1865C317.774 50.0485 318.265 49.3696 318.088 48.7338C317.911 48.0957 317.276 47.6607 316.587 47.8081C315.945 47.9461 315.454 48.625 315.631 49.2608C315.808 49.8981 316.443 50.3339 317.132 50.1865Z" fill="#03B0EF"/>
<path d="M340.024 106.528C340.457 106.436 340.871 106.155 341.109 105.793C341.337 105.446 341.452 104.934 341.339 104.531C341.095 103.654 340.223 103.055 339.276 103.259C338.843 103.351 338.429 103.632 338.191 103.994C337.963 104.34 337.848 104.853 337.961 105.256C338.205 106.133 339.078 106.731 340.024 106.528Z" fill="#03B0EF"/>
<path d="M341.369 129.232C342.019 129.632 342.932 129.444 343.343 128.808C343.963 127.85 344.469 126.711 344.752 125.614C344.957 124.818 345.124 122.754 343.624 123.084C342.672 123.294 342.379 124.27 342.039 125.044C341.698 125.821 341.314 126.562 340.932 127.32C340.593 127.992 340.665 128.798 341.369 129.232Z" fill="#03B0EF"/>
<path d="M207.475 89.1128C207.967 90.0005 209.298 89.8406 209.641 88.9274C210.229 87.3622 210.201 85.4321 210.519 83.7816C210.763 82.5129 211.207 80.8229 210.213 79.7746C210.025 79.5768 209.685 79.5126 209.44 79.6476C208.043 80.4141 207.731 82.5384 207.427 83.9356C207.066 85.5876 206.61 87.5542 207.475 89.1128Z" fill="#03B0EF"/>
<path d="M275.105 158.604C308.303 158.172 334.866 130.909 334.435 97.7107C334.003 64.512 306.74 37.949 273.542 38.3806C240.343 38.8122 213.78 66.075 214.211 99.2738C214.643 132.473 241.906 159.036 275.105 158.604Z" fill="#03B0EF"/>
<g opacity="0.1">
<path d="M325.166 83.1211C326.636 87.988 327.426 93.1498 327.426 98.4964C327.426 110.449 323.476 121.48 316.811 130.355C307.123 143.253 291.699 151.597 274.327 151.597C254.343 151.597 236.937 140.557 227.876 124.245" stroke="black" stroke-width="2.19" stroke-miterlimit="10"/>
<path d="M261.355 46.9923C265.506 45.9498 269.852 45.3965 274.326 45.3965C293.483 45.3965 310.27 55.5413 319.609 70.7508" stroke="black" stroke-width="2.19" stroke-miterlimit="10"/>
<path d="M224.519 116.948C222.389 111.201 221.226 104.985 221.226 98.4965C221.226 79.2851 231.428 62.4564 246.711 53.1328" stroke="black" stroke-width="2.19" stroke-miterlimit="10"/>
</g>
<path d="M276.571 36.9431C277.989 37.084 284.125 36.2021 288.384 41.6859C292.414 46.874 294.219 62.9435 295.146 66.4293C296.072 69.9143 300.69 70.318 301.886 74.3629C302.914 77.8413 300.398 79.1991 300.206 81.7775C300.057 83.777 302.146 86.713 300.408 89.7133C298.828 92.4413 295.9 91.9537 294.166 92.8421C292.432 93.7305 291.447 97.8295 288.224 99.0164C285.002 100.203 282.043 97.3148 280.319 97.3798C278.596 97.4455 276.691 102.796 271.046 102.488C265.4 102.178 263.643 97.4557 261.291 96.5804C258.939 95.7044 253.146 97.4849 250.401 94.6532C247.656 91.8216 247.091 87.9526 245.852 86.5568C244.612 85.161 242.109 85.4582 240.525 82.1936C238.941 78.9298 241.958 76.7463 242.313 73.8672C242.56 71.8619 240.735 70.0756 241.899 66.9899C243.499 62.7471 248.658 63.5041 250.497 59.1431C251.94 55.7231 254.713 40.945 263.491 37.0847C269.555 34.4173 276.571 36.9431 276.571 36.9431Z" fill="#263238"/>
<path d="M294.953 65.5918C295.243 66.3619 295.91 66.9102 296.509 67.4387L298.386 68.9732C299.628 69.9776 300.884 71.0142 301.723 72.3114C302.582 73.5663 302.862 75.176 302.384 76.5732C302.15 77.2769 301.728 77.9193 301.259 78.5588C300.801 79.2048 300.244 79.8363 299.926 80.7349C299.629 81.7102 299.966 82.6315 300.228 83.3768C300.511 84.152 300.821 84.8864 301.062 85.6325C301.559 87.1071 301.715 88.6897 301.037 90.0504C300.717 90.7177 300.21 91.2739 299.537 91.6075C298.869 91.9492 298.088 92.0879 297.302 92.155C296.513 92.2331 295.706 92.2295 294.894 92.2645C294.1 92.3061 293.217 92.3565 292.562 92.8631C293.269 92.447 294.105 92.4938 294.895 92.5091C295.697 92.5434 296.503 92.6171 297.326 92.6069C298.144 92.5857 298.993 92.4843 299.787 92.1339C300.586 91.7937 301.257 91.1396 301.67 90.3724C302.575 88.8343 302.353 86.9253 301.864 85.3806C301.624 84.5864 301.317 83.8279 301.061 83.0833C300.804 82.3336 300.601 81.6087 300.807 81.0116C301.255 79.7136 302.675 78.5237 303.181 76.8367C303.721 75.1679 303.363 73.2451 302.307 71.9085C301.306 70.5368 299.968 69.555 298.658 68.6111L296.661 67.2452C296.027 66.7671 295.332 66.3123 294.953 65.5918Z" fill="#263238"/>
<path d="M255.509 45.5938C254.041 48.1064 253.162 50.8914 252.025 53.5318C251.456 54.8523 250.931 56.1926 250.272 57.4475C249.936 58.06 249.596 58.6973 249.164 59.1842C249.064 59.3214 248.954 59.4338 248.839 59.5105C248.731 59.601 248.628 59.6973 248.459 59.7755C248.161 59.9441 247.843 60.0959 247.521 60.2449C246.242 60.8588 244.878 61.4136 243.608 62.1947C242.348 62.9605 241.131 64.0248 240.523 65.4585C240.223 66.1622 240.05 66.9514 240.134 67.7303C240.21 68.5106 240.52 69.2173 240.852 69.8619C241.561 71.1262 242.231 72.3972 242.313 73.8659C242.451 72.3994 241.825 70.9707 241.262 69.6699C240.978 69.0151 240.738 68.3537 240.716 67.685C240.684 67.0185 240.868 66.3644 241.167 65.7578C241.794 64.5555 242.827 63.608 244.042 62.9145C245.249 62.202 246.583 61.6903 247.917 61.0785C248.247 60.9179 248.579 60.7522 248.905 60.5595C249.209 60.3872 249.632 60.0529 249.834 59.7565C250.348 59.1455 250.674 58.4848 251.02 57.83C251.667 56.5065 252.214 55.1597 252.686 53.7865L254.068 49.6723C254.504 48.294 254.917 46.9129 255.509 45.5938Z" fill="#263238"/>
<path d="M244.447 85.6113C245.087 86.4238 245.196 87.5006 245.457 88.4875C245.702 89.4905 245.947 90.5016 246.244 91.5053C246.532 92.512 246.905 93.5041 247.409 94.4545C247.921 95.3926 248.58 96.3153 249.543 96.9563C251.547 98.1622 253.878 97.9491 255.888 97.5249C256.913 97.3074 257.911 97.0366 258.914 96.8438C259.91 96.6292 260.935 96.5044 261.945 96.773C261.001 96.3 259.883 96.3255 258.849 96.3956C257.805 96.5022 256.783 96.6964 255.769 96.8241C253.778 97.0928 251.644 97.1833 250.042 96.1795C249.264 95.6839 248.667 94.8845 248.172 94.0304C247.66 93.177 247.29 92.2266 246.913 91.2769C246.542 90.3227 246.224 89.3416 245.888 88.3598C245.708 87.8721 245.523 87.3845 245.317 86.9034C245.091 86.4428 244.896 85.9128 244.447 85.6113Z" fill="#263238"/>
<path d="M254.794 94.2547C238.253 112.991 218.275 151.581 222.806 158.928C227.851 167.113 250.875 140.857 250.701 139.408C250.569 138.313 257.897 115.139 263.495 98.2689C269.088 81.4154 258.884 89.6221 254.794 94.2547Z" fill="#FFBE93"/>
<path d="M250.866 139.428C251.477 136.96 261.501 106.381 264.316 96.7308C267.132 87.081 263.874 84.3223 254.815 93.5203C245.757 102.718 226.46 132.838 222.541 148.473C218.766 163.535 226.389 163.113 236.07 155.73C243.995 149.686 250.866 139.428 250.866 139.428Z" fill="#455A64"/>
<path opacity="0.1" d="M239.926 113.493L240.125 152.222C246.202 146.394 250.869 139.426 250.869 139.426C251.474 136.961 261.498 106.376 264.32 96.7295C267.134 87.0825 263.871 84.3187 254.816 93.516C251.025 97.3638 245.425 104.895 239.926 113.493Z" fill="black"/>
<path d="M311.3 157.666L242.483 158.344L245.842 134.857C245.842 134.857 242.876 129.127 242.876 123.976C242.876 116.655 260.92 89.2599 262.288 88.0408C267.79 83.1542 277.804 82.7731 280.738 87.5626C294.148 109.452 298.431 122.986 301.831 138.322C301.83 138.321 307.751 145.901 311.3 157.666Z" fill="#455A64"/>
<path d="M267.24 131.544C263.875 131.52 260.481 131.627 257.124 132.18C255.455 132.455 253.804 132.817 252.15 133.221C251.325 133.422 250.502 133.592 249.672 133.756C248.822 133.925 247.914 134.068 247.058 133.991C246.98 133.985 246.966 134.117 247.041 134.13C247.867 134.261 248.658 134.385 249.498 134.387C250.296 134.39 251.103 134.294 251.899 134.171C253.594 133.911 255.281 133.56 256.975 133.28C260.391 132.714 263.806 132.149 267.241 131.868C267.398 131.855 267.399 131.545 267.24 131.544Z" fill="#263238"/>
<path d="M275.014 136.008C272.331 135.34 269.573 134.812 266.827 134.503C265.446 134.348 264.065 134.286 262.673 134.267C262.009 134.257 261.343 134.262 260.678 134.276C259.946 134.291 259.211 134.421 258.48 134.424C258.404 134.424 258.386 134.559 258.464 134.562C259.153 134.583 259.837 134.737 260.522 134.805C261.21 134.872 261.899 134.935 262.588 135.002C263.967 135.137 265.342 135.29 266.722 135.41C269.485 135.65 272.233 135.921 274.984 136.273C275.133 136.291 275.153 136.043 275.014 136.008Z" fill="#263238"/>
<path d="M264.838 104.043C264.838 104.043 278.036 92.9718 285.97 93.8544L291.174 101.322C291.174 101.322 291.356 106.582 292.15 105.23C294.111 101.886 298.16 88.1888 291.351 82.1817C285.115 76.6811 271.453 76.6621 262.23 78.3521C253.373 79.9756 248.198 84.7206 250.428 90.5869C252.658 96.4546 264.838 104.043 264.838 104.043Z" fill="#455A64"/>
<path d="M264.172 101.316C264.172 101.316 254.758 93.4453 254.052 89.1448C253.347 84.8444 262.096 81.4674 267.668 80.306C276.292 78.5095 281.996 79.4906 286.379 84.356C290.762 89.2215 264.172 101.316 264.172 101.316Z" fill="#37474F"/>
<path d="M275.821 91.1485C275.422 92.4326 268.585 100.467 262.636 99.7625C260.698 99.5297 261.497 88.8987 261.497 88.8987L261.376 88.1001L259.698 76.9245L273.211 69.5522L275.156 68.5879C275.156 68.5879 275.413 71.6758 275.695 75.5244C275.709 75.7025 275.723 75.8813 275.736 76.0726C275.758 76.2901 275.781 76.4945 275.791 76.6982C275.841 77.2727 275.889 77.8589 275.925 78.4444C275.953 78.8897 275.984 79.3225 275.997 79.7912C276.022 80.2613 276.038 80.7176 276.063 81.1877C276.215 85.8254 275.982 90.6025 275.821 91.1485Z" fill="#FFBE93"/>
<path d="M275.696 75.5236C271.921 84.0551 264.673 87.127 261.377 88.1001L259.699 76.9245L273.211 69.5522L275.157 68.5879C275.157 68.5879 275.414 71.6751 275.696 75.5236Z" fill="#263238"/>
<path d="M247.286 56.8185C241.483 75.7839 252.187 81.402 256.277 82.6488C259.991 83.7811 272.781 87.1639 280.513 68.8993C288.246 50.6347 281.262 41.9411 272.905 38.9028C264.548 35.8631 253.09 37.8524 247.286 56.8185Z" fill="#FFBE93"/>
<path d="M250.84 55.6405C251.306 55.7486 251.755 55.7705 252.228 55.8289C252.76 55.896 253.179 56.0033 253.68 55.7515C253.948 55.6164 254.081 55.1952 253.975 54.9215C253.726 54.2849 253.093 54.0411 252.455 53.9345C251.762 53.8192 251.198 53.9075 250.589 54.255C249.999 54.5922 250.224 55.4974 250.84 55.6405Z" fill="#263238"/>
<path d="M264.367 57.4019C263.957 57.1529 263.621 56.8558 263.241 56.5675C262.812 56.2426 262.438 56.028 262.255 55.498C262.158 55.2141 262.356 54.8191 262.624 54.6979C263.247 54.4154 263.87 54.6833 264.402 55.0527C264.978 55.4542 265.32 55.9112 265.513 56.5857C265.701 57.2391 264.907 57.7296 264.367 57.4019Z" fill="#263238"/>
<path d="M260.396 61.6236C260.419 61.5747 260.485 61.7127 260.471 61.7674C260.101 63.0982 259.901 64.6852 261.006 65.4269C261.04 65.4503 261.02 65.516 260.977 65.4992C259.546 64.929 259.832 62.8252 260.396 61.6236Z" fill="#263238"/>
<path d="M261.936 60.5151C264.134 60.8787 263.246 65.247 261.209 64.9105C259.206 64.5798 260.094 60.2114 261.936 60.5151Z" fill="#263238"/>
<path d="M262.747 60.9208C263.078 61.2456 263.364 61.7574 263.814 61.8961C264.336 62.0574 264.831 61.6814 265.268 61.3121C265.313 61.2741 265.343 61.3194 265.332 61.3778C265.175 62.2173 264.678 63.0108 263.756 62.9531C262.913 62.9005 262.477 62.0399 262.439 61.1558C262.431 60.9923 262.613 60.7901 262.747 60.9208Z" fill="#263238"/>
<path d="M252.827 59.4087C252.828 59.3546 252.707 59.4495 252.697 59.505C252.448 60.8635 251.934 62.3783 250.616 62.563C250.575 62.5681 250.564 62.6374 250.611 62.6404C252.146 62.7535 252.809 60.7358 252.827 59.4087Z" fill="#263238"/>
<path d="M251.927 57.7373C249.791 57.1029 248.68 61.4201 250.658 62.0078C252.605 62.5859 253.717 58.2687 251.927 57.7373Z" fill="#263238"/>
<path d="M250.953 57.7889C250.553 57.9298 250.108 58.259 249.694 58.1809C249.213 58.0904 248.985 57.5334 248.798 57.0078C248.778 56.9538 248.735 56.9808 248.719 57.0377C248.484 57.8568 248.536 58.7868 249.288 59.1496C249.973 59.4803 250.687 58.9087 251.095 58.1378C251.171 57.9948 251.114 57.7327 250.953 57.7889Z" fill="#263238"/>
<path d="M259.469 73.9697C259.095 74.2413 258.703 74.6333 258.201 74.6019C257.719 74.572 257.194 74.2741 256.783 74.0413C256.743 74.0179 256.692 74.0573 256.714 74.1026C256.991 74.6793 257.689 75.118 258.338 75.1005C258.973 75.0837 259.357 74.5946 259.591 74.0508C259.625 73.9748 259.524 73.9303 259.469 73.9697Z" fill="#263238"/>
<path d="M257.528 70.5601C256.584 69.9987 254.712 69.6001 253.306 69.3767C253.16 69.311 252.85 69.1037 252.866 68.9533L252.869 68.9439C252.884 68.8964 253.757 66.1874 253.757 66.1874C253.338 66.2648 251.23 66.5648 251.411 66.0501C252.92 61.795 254.598 57.0624 256.999 53.1459C257.071 53.0123 257.28 53.1087 257.226 53.2474C255.938 57.3945 253.928 61.2876 252.568 65.4333C253.228 65.3793 254.32 65.2406 254.841 65.4026C254.971 65.4851 253.92 68.1095 253.839 68.5723C253.839 68.5723 256.459 68.6504 257.916 70.4922C258.346 71.0375 258.177 70.9462 257.528 70.5601Z" fill="#263238"/>
<path d="M255.433 68.9502C256.516 69.1539 258.679 70.6344 259.019 72.4732C259.317 74.0858 256.632 72.0454 256.071 72.079C255.603 72.1068 254.35 68.7473 255.433 68.9502Z" fill="#263238"/>
<path d="M258.637 73.0887C258.562 73.0872 258.484 73.0778 258.395 73.0493C257.682 72.8755 256.573 72.1594 256.149 72.085C256.122 72.0762 256.093 72.0747 256.07 72.0747C256.01 72.0777 255.937 72.0251 255.854 71.9317C256.156 71.2141 257.031 70.6177 258.368 71.0338C258.467 71.1695 258.557 71.3097 258.638 71.455C258.673 71.5104 258.706 71.5732 258.735 71.6426C258.789 71.7338 258.83 71.8368 258.859 71.9353C258.896 72.0068 258.917 72.0806 258.938 72.1543C258.972 72.2616 258.998 72.3675 259.017 72.4704C259.107 72.9464 258.938 73.1018 258.637 73.0887Z" fill="#FF9ABB"/>
<path d="M265.387 39.714C265.387 39.714 263.774 42.4355 264.177 44.8481C265.004 49.807 270.572 50.1538 271.868 52.3912C273.083 54.4892 271.537 57.6764 272.593 59.7299C274.055 62.5733 277.166 62.52 277.082 64.1296C276.997 65.7378 276.619 70.8296 278.359 71.9874C280.099 73.1451 298.04 43.6896 272.716 37.5489C272.716 37.5489 269.683 35.1596 263.583 36.3349C256.849 37.6321 251.508 46.6206 251.508 46.6206C251.508 46.6206 251.671 46.5242 252.745 46.0103C254.26 45.2847 255.01 44.4277 256.094 43.9867C257.797 43.2947 258.443 43.9247 260.192 43.2764C262.857 42.2888 265.387 39.714 265.387 39.714Z" fill="#263238"/>
<path d="M266.166 38.4316C265.419 39.5748 264.794 40.7976 264.334 42.0692C263.867 43.3234 263.549 44.6877 263.797 45.9609C264.06 47.2048 264.983 48.2647 266.027 49.0254C267.092 49.8058 268.369 50.3058 269.503 51.1862C270.05 51.6432 270.563 52.1973 270.818 52.9316C271.067 53.6543 271.041 54.3902 271.002 55.0742C270.898 56.4393 270.804 57.7883 271.393 58.9519C271.967 60.1112 273.048 61.0186 274.343 61.3252C275.604 61.6873 277.1 61.7296 278.172 62.6377C277.029 61.8194 275.613 61.9055 274.267 61.631C272.885 61.3726 271.642 60.4411 270.955 59.1834C270.214 57.8993 270.346 56.3677 270.417 55.0464C270.449 54.3748 270.449 53.7105 270.239 53.1397C270.041 52.579 269.595 52.0892 269.098 51.6906C268.092 50.8767 266.805 50.3423 265.681 49.5014C265.117 49.0838 264.596 48.5867 264.177 48.0107C263.764 47.4486 263.393 46.7785 263.307 46.0521C263.098 44.6096 263.506 43.2161 264.039 41.9524C264.61 40.691 265.333 39.5157 266.166 38.4316Z" fill="#263238"/>
<path d="M265.359 39.4414C264.775 40.5729 264.026 41.6139 263.154 42.5622C262.291 43.5126 261.15 44.3003 259.849 44.6171C259.196 44.7835 258.511 44.7682 257.924 44.7989C257.36 44.8354 256.726 45.0033 256.312 45.323C255.854 45.6946 255.379 46.191 254.798 46.4969C254.217 46.8013 253.574 46.9597 252.943 46.9743C253.554 46.8144 254.146 46.5976 254.633 46.2268C255.146 45.8858 255.515 45.4165 255.99 44.9449C256.542 44.4346 257.205 44.2937 257.874 44.1959C258.54 44.1368 259.127 44.1536 259.699 43.9951C260.86 43.7046 261.889 43.0381 262.793 42.1913C263.711 41.3584 264.542 40.4101 265.359 39.4414Z" fill="#263238"/>
<path d="M276.102 68.1648C276.102 68.1648 281.628 63.0147 284.053 65.1112C286.478 67.2078 281.42 75.3042 277.939 75.816C274.457 76.3277 273.92 73.1142 273.92 73.1142L276.102 68.1648Z" fill="#FFBE93"/>
<path d="M282.546 67.3959C282.599 67.4025 282.593 67.4777 282.544 67.4857C280.087 67.9193 278.45 69.7611 277.151 71.7577C278.002 71.0642 279.016 70.8014 279.967 71.8416C280.016 71.8964 279.941 71.9767 279.88 71.9497C278.996 71.5533 278.293 71.5715 277.509 72.1796C276.953 72.6103 276.509 73.2096 276.062 73.7484C275.913 73.9279 275.571 73.7418 275.698 73.525C275.707 73.5097 275.718 73.4929 275.728 73.4768C276.285 70.5809 279.388 67.0251 282.546 67.3959Z" fill="#263238"/>
<path d="M264.172 101.315C264.172 101.315 275.292 85.4059 287.712 84.6992L285.971 93.8556C285.971 93.8556 278.635 93.3118 264.839 104.044L264.172 101.315Z" fill="#455A64"/>
<path d="M289.272 94.2785C287.043 93.8266 284.769 94.1537 282.606 94.6581C280.429 95.1706 278.347 96.021 276.347 97.0138C274.332 97.9803 272.428 99.168 270.554 100.394L267.819 102.354L265.172 104.44L264.875 104.674L264.577 104.492C262.358 103.133 260.26 101.63 258.256 99.99C257.259 99.1666 256.274 98.3263 255.381 97.3868C254.483 96.4568 253.619 95.4852 252.92 94.4011C254.601 96.3554 256.626 97.9292 258.675 99.4469C259.704 100.201 260.768 100.909 261.844 101.597C262.918 102.282 264 102.972 265.097 103.597L264.503 103.649L267.159 101.489C268.072 100.804 269.004 100.14 269.937 99.4805C270.908 98.8746 271.867 98.2482 272.859 97.6781C273.873 97.1423 274.868 96.5714 275.929 96.1283C278.006 95.1545 280.217 94.4559 282.475 94.0412C283.037 93.9274 283.612 93.8741 284.18 93.8047C284.754 93.777 285.326 93.7346 285.9 93.7522C287.044 93.7617 288.203 93.8872 289.272 94.2785Z" fill="#263238"/>
<path d="M291.39 102.596C290.326 101.283 289.421 99.8764 288.552 98.4471C287.704 97.0053 286.894 95.5417 286.243 93.9824C287.308 95.2942 288.213 96.7017 289.081 98.1317C289.927 99.5735 290.737 101.037 291.39 102.596Z" fill="#263238"/>
<path d="M269.653 97.7621C269.653 97.7621 270.745 102.517 270.988 109.415C271.084 112.145 270.17 121.957 267.13 121.646C264.089 121.335 268.945 114.943 269.74 109.763C270.547 104.506 269.101 100.82 268.874 97.7285L269.653 97.7621Z" fill="#263238"/>
<path d="M258.547 97.2832C258.547 97.2832 257.189 101.495 256.433 107.708C256.134 110.168 256.195 119.104 258.966 119.059C261.738 119.015 257.848 112.861 257.532 108.119C257.212 103.306 258.805 100.089 259.251 97.3131L258.547 97.2832Z" fill="#263238"/>
<path d="M224.296 158.756C230.157 162.79 238.22 162.162 266.049 157.548C269.9 156.91 275.726 129.021 271.589 128.458C266.084 127.712 245.014 131.503 243.572 131.941C231.415 135.626 220.321 156.019 224.296 158.756Z" fill="#FFBE93"/>
<path d="M268.041 128.464C268.041 128.464 280.416 128.17 286.965 130.028C295.735 132.516 302.283 138.275 304.881 140.853C310.304 146.236 319.695 163.001 315.338 166.548C311.394 169.759 302.661 152.137 302.661 152.137C302.661 152.137 314.53 168.635 309.07 171.628C303.611 174.621 294.637 153.589 294.637 153.589C294.637 153.589 306.452 170.813 300.333 173.009C295.709 174.668 286.508 156.076 286.508 156.076C286.508 156.076 296.561 170.951 291.88 172.862C286.706 174.975 277.137 158.346 277.137 158.346C264.419 161.202 257.195 157.359 252.382 154.014C251.216 153.204 268.041 128.464 268.041 128.464Z" fill="#FFBE93"/>
<path d="M298.921 146.17C300.386 148.058 301.881 149.958 303.172 151.969C304.463 153.98 305.686 156.038 306.785 158.16C309.479 163.366 310.352 167.047 310.273 166.825C308.413 161.587 303.901 154.316 302.608 152.304C301.32 150.297 300.132 148.225 298.843 146.216C298.81 146.166 298.886 146.125 298.921 146.17Z" fill="#263238"/>
<path d="M291.574 150.702C293.34 153.192 295.183 155.601 296.839 158.171C298.487 160.728 299.826 163.299 301.294 165.962C301.408 166.167 301.26 166.161 301.138 165.959C299.566 163.356 297.911 161.071 296.308 158.486C294.71 155.911 293.201 153.254 291.511 150.739C291.485 150.7 291.547 150.664 291.574 150.702Z" fill="#263238"/>
<path d="M284.569 153.459C287.462 157.128 289.675 161.326 291.748 165.496C291.85 165.704 291.661 165.674 291.543 165.467C289.233 161.421 287.449 158.23 284.442 153.56C284.394 153.486 284.508 153.382 284.569 153.459Z" fill="#263238"/>
<path d="M267.197 126.994L253.783 161.173C253.783 161.173 228.838 164.486 223.25 159.859C219.572 156.813 231.035 134.688 244.778 131.638L267.197 126.994Z" fill="#455A64"/>
<path d="M245.987 159.258C247.246 155.464 248.707 151.741 250.178 148.023C251.65 144.302 253.114 140.576 254.679 136.892C255.563 134.81 256.435 132.722 257.391 130.671C257.416 130.617 257.513 130.646 257.493 130.705C256.237 134.493 254.79 138.226 253.346 141.948C251.9 145.679 250.412 149.399 248.891 153.101C248.031 155.193 247.133 157.27 246.178 159.322C246.131 159.423 245.95 159.37 245.987 159.258Z" fill="#263238"/>
<path d="M266.815 127.967L267.489 126.862L267.568 126.732C264.308 127.081 261.058 127.518 257.826 128.07C252.274 129.088 246.612 130.058 241.365 132.215C237.711 133.979 234.451 136.678 232.027 139.899C234.801 137.007 238.079 134.627 241.709 133.007C243.923 132.125 246.253 131.545 248.575 130.971C253.995 129.641 261.893 128.076 267.433 126.903L267.352 126.79L266.815 127.967Z" fill="#263238"/>
<path d="M289.951 116.566C289.951 116.566 288.486 95.7059 288.203 84.6902C287.919 73.6752 293.431 72.097 299.755 81.0898C306.079 90.082 316.46 100.182 317.61 120.883C320.589 174.499 289.951 116.566 289.951 116.566Z" fill="#DBDBDB"/>
<path d="M274.613 52.5981L262.852 81.7842C262.407 82.6266 262.754 83.4085 263.626 83.5282L276.742 88.3746C277.613 88.4936 278.682 87.906 279.126 87.0636L290.887 57.8774C291.332 57.0328 290.985 56.2525 290.114 56.1335L276.998 51.287C276.126 51.1673 275.058 51.7535 274.613 52.5981Z" fill="#A6A6A6"/>
<path d="M275.748 52.9496L263.987 82.1358C263.542 82.9782 263.889 83.7607 264.761 83.8797L277.877 88.7255C278.748 88.8452 279.816 88.2568 280.261 87.4144L292.022 58.2283C292.467 57.3837 292.12 56.6033 291.249 56.4843L278.133 51.6386C277.261 51.5188 276.193 52.105 275.748 52.9496Z" fill="#DBDBDB"/>
<path d="M279.836 54.9163C279.72 55.6455 279.034 56.1427 278.305 56.0266C277.575 55.9098 277.077 55.2243 277.194 54.4943C277.31 53.7651 277.997 53.2679 278.727 53.384C279.455 53.5008 279.952 54.187 279.836 54.9163Z" fill="#263238"/>
<path d="M299.421 143.452C304.803 151.619 316.608 145.637 317.926 139.447C321.019 124.92 316.245 101.651 312.493 88.7574C311.286 84.6081 282.964 91.3314 283.54 95.9158C284.231 101.418 288.871 127.44 299.421 143.452Z" fill="#FFBE93"/>
<path d="M310.996 98.1462C310.996 98.1462 313.813 89.5286 312.231 79.9021C311.137 73.2452 307.141 59.0277 288.368 51.7445C283.915 50.0166 276.345 50.713 282.593 56.1756C287.03 60.0563 291.018 61.1761 293.188 63.9027C293.188 63.9027 283.664 65.9313 282.107 70.4595C281.412 72.4831 279.643 78.0515 278.883 82.5826C278.883 82.5826 279.825 83.0133 281.098 83.3893C281.098 83.3893 280.295 89.9038 283.539 95.9146L310.996 98.1462Z" fill="#FFBE93"/>
<path d="M310.172 73.715C307.445 71.4636 301.586 66.7895 295.464 64.6323C288.663 62.2364 274.917 59.4544 273.2 64.4929C271.942 68.1874 277.096 69.7109 277.096 69.7109C277.096 69.7109 271.173 69.7584 270.765 73.3449C270.394 76.6123 274.452 77.5526 274.452 77.5526C274.452 77.5526 270.864 78.1994 271.113 81.4157C271.412 85.2847 278.884 83.2948 282.573 86.9513C283.401 87.7718 310.172 73.715 310.172 73.715Z" fill="#FFBE93"/>
<path d="M294.13 72.2411C291.219 70.5446 283.618 68.3874 277.207 69.6116C277.062 69.6394 277.005 69.7642 277.143 69.7671C284.488 69.9182 291.269 71.4731 294.108 72.3053C294.146 72.3163 294.163 72.2601 294.13 72.2411Z" fill="#263238"/>
<path d="M291.512 79.0356C288.85 77.8296 280.917 75.9564 274.463 77.4201C274.319 77.4529 274.27 77.5814 274.408 77.5785C282.088 77.4201 288.611 78.4392 291.494 79.1005C291.532 79.11 291.547 79.0516 291.512 79.0356Z" fill="#263238"/>
<path d="M299.18 145.564C304.97 153.537 317.323 147.436 318.839 141.151C322.398 126.399 317.804 102.962 314.088 89.9961L282.358 98.9408C282.982 104.492 288.18 130.419 299.18 145.564Z" fill="#455A64"/>
<path d="M283.926 98.498L282.371 98.982L282.402 98.9324C283.412 104.011 284.637 109.044 286.031 114.021C288.865 123.712 294.383 142.155 302.871 147.817C305.007 149.205 307.64 149.559 310.12 148.889C307.712 150.04 304.758 149.941 302.388 148.673C292.797 143.498 288 124.303 285.292 114.214C284.091 109.151 283.042 104.053 282.309 98.9054L282.347 98.8959L283.926 98.498Z" fill="#263238"/>
<path d="M299.929 103.416C297.597 104.12 288.36 107.082 286.173 108.1C286.108 108.13 286.164 108.255 286.225 108.246C288.619 107.878 297.988 105.177 300.317 104.463C304.969 103.039 309.678 101.687 314.185 99.7746C314.277 99.7352 314.237 99.5527 314.134 99.5717C309.322 100.486 304.62 102 299.929 103.416Z" fill="#263238"/>
<path d="M148.331 210.326C180.456 240.69 209.956 273.869 211.476 290.646C213.581 313.875 202.372 320.657 195.874 320.643C178.178 320.604 146.316 249.191 136.638 222.138C127.24 195.87 141.276 203.659 148.331 210.326Z" fill="#03B0EF"/>
<path opacity="0.1" d="M190.126 318.58C171.98 306.649 145.339 246.46 136.643 222.142C133.757 214.076 133.077 209.213 133.735 206.561L190.126 318.58Z" fill="black"/>
<path d="M49.6108 341.003H171.74C173.457 339.185 151.389 230.41 144.083 209.764C139.369 196.445 117.715 193.32 107.733 203.488C68.8857 243.058 48.5851 339.747 49.6108 341.003Z" fill="#03B0EF"/>
<path d="M186.854 316.775C177.045 309.341 181.918 286.187 187.445 248.107C188.414 241.425 233.427 224.883 234.358 232.043C235.53 241.061 228.401 283.565 224.314 293.935C216.257 314.379 198.307 325.457 186.854 316.775Z" fill="#FFBE93"/>
<path d="M226.661 268.326C235.372 259.103 246.815 245.356 246.865 239.554C246.917 233.465 246.241 212.052 244.48 207.127C242.718 202.202 233.239 189.484 228.878 187.794C225.385 186.442 223.495 190.763 227.532 198.635C232.045 207.438 230.644 210.977 230.841 213.791C231.047 216.713 226.115 229.104 222.007 230.142C219.586 230.753 214.567 230.705 213.443 226.341C212.32 221.975 213.483 218.028 211.818 210.413C210.523 204.492 205.59 200.795 203.547 201.821C201.505 202.848 203.179 206.398 201.803 215.26C200.944 220.787 200.112 224.752 193.487 232.808C187.689 239.859 187.295 249.652 187.295 249.652L226.661 268.326Z" fill="#FFBE93"/>
<path d="M247.32 225.913C247.093 222.575 249.409 212.475 248.64 208.064C247.872 203.653 242.761 187.422 237.833 186.081C231.641 184.396 233.433 197.587 234.732 203.244C236.031 208.901 232.369 219.082 232.369 219.082L240.89 222.741L247.32 225.913Z" fill="#FFBE93"/>
<path d="M231.122 221.398C232.653 216.276 234.564 211.072 234.653 205.684C234.405 201.828 233.648 198.027 233.483 194.134C233.444 191.83 233.309 189.306 234.494 187.227C234.901 186.542 235.624 186.045 236.4 185.965C235.635 186.129 235.007 186.655 234.661 187.325C233.685 189.421 233.908 191.841 234.043 194.099C234.294 197.172 234.788 200.225 235.173 203.315C235.946 209.581 233.383 215.69 231.122 221.398Z" fill="#263238"/>
<path d="M247.02 228.814C247.728 225.567 252.723 216.611 253.213 212.183C253.703 207.755 253.335 190.801 249.023 188.093C243.603 184.69 241.657 197.785 241.327 203.553C240.996 209.322 234.699 217.965 234.699 217.965L241.786 223.925L247.02 228.814Z" fill="#FFBE93"/>
<path d="M232.871 219.813C235.75 215.365 239.016 210.945 240.579 205.837C241.404 202.097 241.738 198.27 242.656 194.52C243.256 192.316 243.821 189.874 245.526 188.225C246.103 187.684 246.935 187.42 247.693 187.568C246.92 187.503 246.172 187.823 245.659 188.366C244.151 190.09 243.699 192.457 243.204 194.644C242.595 197.638 242.221 200.68 241.734 203.728C240.747 209.908 236.614 215.014 232.871 219.813Z" fill="#263238"/>
<path d="M234.004 227.646C231.03 230.204 227.067 231.316 223.285 232.073C221.995 232.305 220.678 232.397 219.398 232.475C215.546 232.679 211.747 233.467 208.314 235.246C207.146 235.79 206.057 236.482 204.95 237.153C208.97 233.822 214.141 231.961 219.346 231.754C224.414 231.409 229.679 230.437 234.004 227.646Z" fill="#263238"/>
<path d="M245.552 243.585C246.945 240.649 251.692 229.099 251.981 224.2C252.269 219.301 250.874 200.623 245.912 197.793C239.674 194.238 238.268 208.745 238.235 215.117C238.203 221.489 232.493 228.22 232.493 228.22L241.583 236.325L245.552 243.585Z" fill="#FFBE93"/>
<path d="M239.09 205.131C239.196 207.233 239.075 209.389 238.97 211.486C238.87 213.474 238.918 215.55 238.52 217.501C238.119 219.459 237.265 221.249 236.253 222.955C235.755 223.795 235.21 224.593 234.638 225.384C234.015 226.246 233.304 227.054 232.698 227.926C232.634 228.018 232.479 227.928 232.543 227.833C233.609 226.235 234.491 224.434 235.334 222.71C236.211 220.915 236.884 218.975 237.288 217.012C238.097 213.086 238.045 209.023 238.817 205.09C238.847 204.93 239.082 204.982 239.09 205.131Z" fill="#263238"/>
<path d="M238.52 217.5C238.538 211.416 237.784 204.866 240.551 199.221C242.208 196.122 245.586 196.262 247.4 199.145C250.25 203.679 250.943 209.174 251.488 214.377C250.619 209.887 249.149 200.303 245.068 197.883C238.226 195.635 238.972 213.457 238.52 217.5Z" fill="#263238"/>
<path d="M234.101 262.727L181.969 269.239C181.969 269.239 174.083 312.668 189.566 318.654C205.048 324.64 217.845 311.477 224.314 293.936C230.783 276.395 234.101 262.727 234.101 262.727Z" fill="#03B0EF"/>
<path d="M180.182 298.382C179.984 293.505 180.022 288.625 180.189 283.748C180.461 278.888 180.514 273.917 181.879 269.208L181.897 269.155L181.949 269.145L184.659 268.652L181.99 269.332L182.06 269.269C180.989 273.998 181.006 278.935 180.719 283.768C180.58 287.405 180.31 294.745 180.182 298.382Z" fill="#263238"/>
<path d="M185.316 281.316C192.604 279.997 212.48 277.038 225.666 276.941C225.744 276.941 225.788 277.266 225.711 277.279C214.787 279.145 192.759 281.169 185.38 281.799C185.241 281.811 185.178 281.342 185.316 281.316Z" fill="#263238"/>
<path d="M92.0194 291.308C92.9772 287.036 109.057 234.002 113.533 217.279C117.551 202.269 114.373 196.483 102.936 206.485C81.876 224.898 41.5844 279.442 35.4386 306.512C29.5183 332.589 50.7883 333.029 67.1717 319.946C80.5854 309.234 92.0194 291.308 92.0194 291.308Z" fill="#03B0EF"/>
<path d="M89.9731 298.163C94.8452 278.018 100.68 258.109 107.476 238.529C102.612 258.676 96.7621 278.581 89.9731 298.163Z" fill="#263238"/>
<path d="M104.293 250.127C105.186 247.507 106.554 245.174 108.176 242.943C107.47 245.602 106.046 248.013 104.293 250.127Z" fill="#263238"/>
<path d="M43.2802 323.937C51.8927 332.11 70.4106 330.223 117.483 329.848C123.996 329.796 135.996 283.73 129.038 283.427C120.273 283.047 86.1765 283.47 83.6864 283.815C62.6894 286.732 37.4387 318.393 43.2802 323.937Z" fill="#FFBE93"/>
<path d="M121.844 285.445C121.844 285.445 139.245 279.274 149.392 278.862C162.978 278.31 174.934 283.428 179.816 285.875C190.005 290.983 211.109 310.377 206.584 317.43C202.487 323.814 181.916 302.9 181.916 302.9C181.916 302.9 206.409 320.763 200.063 327.543C193.717 334.323 171.219 308.686 171.219 308.686C171.219 308.686 195.972 327.604 188.322 333.561C182.541 338.063 160.855 315.992 160.855 315.992C160.855 315.992 182.02 332.399 176.273 337.285C169.923 342.684 148.629 323.566 148.629 323.566C131.932 333.526 119.908 331.439 111.531 328.936C109.502 328.331 121.844 285.445 121.844 285.445Z" fill="#FFBE93"/>
<path d="M173.841 296.179C176.794 298.173 179.797 300.171 182.562 302.421C185.328 304.671 188.017 307.02 190.561 309.516C196.799 315.641 199.748 320.452 199.534 320.175C194.461 313.616 184.686 305.408 181.918 303.158C179.158 300.913 176.511 298.528 173.751 296.281C173.682 296.225 173.771 296.132 173.841 296.179Z" fill="#263238"/>
<path d="M165.536 306.017C169.196 308.727 172.93 311.282 176.472 314.154C179.996 317.012 183.09 320.032 186.408 323.125C186.664 323.363 186.451 323.423 186.186 323.194C182.747 320.236 179.338 317.766 175.865 314.848C172.403 311.942 169.029 308.877 165.465 306.099C165.408 306.056 165.48 305.977 165.536 306.017Z" fill="#263238"/>
<path d="M156.889 313.179C162.696 317.033 167.784 321.954 172.659 326.901C172.901 327.147 172.619 327.193 172.357 326.956C167.201 322.295 163.189 318.603 156.754 313.38C156.654 313.299 156.767 313.098 156.889 313.179Z" fill="#263238"/>
<path d="M120.34 278.398L90.4812 340.629C90.4812 340.629 43.578 333.551 37.3482 324.307C32.8952 317.699 59.6709 287.604 82.8228 283.622L120.34 278.398Z" fill="#03B0EF"/>
<path d="M57.205 298.001C59.9512 294.269 69.4982 286.076 82.8426 283.58C82.9601 283.558 83.0214 283.74 82.9046 283.773C73.1452 286.595 60.2907 294.766 57.3415 298.133C57.2634 298.222 57.1363 298.095 57.205 298.001Z" fill="#263238"/>
<path d="M82.6827 329.844C85.0866 323.622 87.8197 317.534 90.5696 311.454C93.3217 305.37 96.0621 299.278 98.9661 293.262C100.606 289.864 102.228 286.454 103.986 283.112C104.032 283.025 104.19 283.079 104.153 283.176C101.755 289.389 99.0442 295.495 96.3395 301.583C93.6276 307.686 90.8499 313.765 88.0168 319.814C86.4159 323.232 84.7537 326.621 82.9959 329.964C82.909 330.13 82.6119 330.027 82.6827 329.844Z" fill="#263238"/>
<path d="M120.232 277.82C117.629 277.793 115.061 278.164 112.48 278.486C109.901 278.808 107.328 279.175 104.759 279.564C99.6501 280.34 88.7344 281.4 79.7678 284.296C79.6685 284.328 80.3306 284.647 80.4277 284.609C84.6267 283.012 117.197 279.307 119.769 278.683C119.723 278.878 119.68 279.074 119.662 279.28C119.65 279.421 119.825 279.542 119.929 279.41C120.177 279.097 120.316 278.761 120.538 278.433C120.721 278.164 120.568 277.823 120.232 277.82Z" fill="#263238"/>
<path d="M95.7489 330.115C94.1662 333.843 92.4894 337.525 90.7842 341.197C86.9889 340.608 83.2133 339.934 79.4473 339.199C68.6593 336.978 57.521 334.607 47.3221 330.394C50.8802 331.428 54.4783 332.262 58.0772 333.093C65.2933 334.795 83.0775 338.506 90.5732 340.126L90.0235 340.401C91.8828 336.946 93.775 333.508 95.7489 330.115Z" fill="#263238"/>
<path d="M135.649 224.274C129.422 223.864 115.971 213.012 114.381 203.444C114.276 202.787 117.148 197.279 120.321 190.419C122.231 186.249 124.259 181.561 125.801 177.15C126.113 176.242 151.12 193.54 151.12 193.54C151.12 193.54 145.168 201.838 142.528 209.546C142.315 210.192 142.169 210.812 142.086 211.422C142.066 211.509 142.055 211.617 142.021 211.736C141.38 215.37 142.311 224.713 135.649 224.274Z" fill="#FFBE93"/>
<path d="M142.094 211.424C142.067 211.514 142.051 211.627 142.017 211.734C141.112 211.549 140.157 211.271 139.134 210.892C122.974 204.842 125.8 182.956 126.777 177.5C131.447 179.922 151.122 193.54 151.122 193.54C151.122 193.54 145.166 201.845 142.522 209.552C142.321 210.197 142.166 210.817 142.094 211.424Z" fill="#263238"/>
<path d="M153.558 168.52C153.163 176.021 158.178 182.383 164.758 182.729C171.339 183.075 176.994 177.275 177.389 169.774C177.783 162.273 172.768 155.912 166.188 155.565C159.607 155.219 153.953 161.019 153.558 168.52Z" fill="#455A64"/>
<path d="M149.671 168.791C149.232 177.136 154.81 184.213 162.132 184.598C169.453 184.983 175.743 178.531 176.183 170.186C176.622 161.842 171.043 154.765 163.722 154.38C156.401 153.994 150.111 160.446 149.671 168.791Z" fill="#C7C7C7"/>
<path d="M164.932 140.355C164.932 140.355 173.81 145.743 173.825 155.151C173.84 164.559 169.794 173.719 168.861 174.039C167.93 174.358 164.932 140.355 164.932 140.355Z" fill="#263238"/>
<path d="M124.437 144.295C119.481 153.965 119.583 184.484 125.677 192.378C134.512 203.821 151.617 207.831 162.005 196.608C172.076 185.729 171.24 145.957 164.186 138.512C153.799 127.547 131.758 130.012 124.437 144.295Z" fill="#FFBE93"/>
<path d="M150.627 168.334C150.611 168.256 150.466 168.431 150.469 168.516C150.531 170.571 150.256 172.937 148.394 173.616C148.337 173.637 148.343 173.74 148.412 173.731C150.682 173.415 151.016 170.272 150.627 168.334Z" fill="#263238"/>
<path d="M148.795 166.185C145.489 165.929 145.22 172.559 148.283 172.797C151.297 173.03 151.566 166.4 148.795 166.185Z" fill="#263238"/>
<path d="M161.969 168.738C161.988 168.66 162.126 168.841 162.12 168.925C161.972 170.977 162.147 173.351 163.977 174.108C164.034 174.132 164.024 174.235 163.956 174.222C161.701 173.811 161.5 170.657 161.969 168.738Z" fill="#263238"/>
<path d="M163.89 166.668C167.204 166.551 167.193 173.187 164.124 173.294C161.102 173.401 161.112 166.764 163.89 166.668Z" fill="#263238"/>
<path d="M146.302 163.046C147.213 162.855 148.024 162.528 148.906 162.246C149.902 161.928 150.727 161.778 151.407 160.923C151.771 160.465 151.662 159.612 151.25 159.217C150.292 158.296 148.975 158.382 147.76 158.716C146.442 159.079 145.519 159.695 144.728 160.806C143.96 161.883 145.098 163.298 146.302 163.046Z" fill="#263238"/>
<path d="M166.59 163.433C165.676 163.245 164.865 162.921 163.982 162.642C162.985 162.328 162.159 162.181 161.477 161.329C161.11 160.872 161.217 160.019 161.627 159.622C162.583 158.697 163.9 158.78 165.115 159.109C166.434 159.466 167.36 160.079 168.156 161.188C168.927 162.261 167.794 163.679 166.59 163.433Z" fill="#263238"/>
<path d="M147.326 187.584C147.799 188.085 148.263 188.767 149.005 188.859C149.718 188.949 150.568 188.66 151.234 188.432C151.3 188.41 151.363 188.482 151.319 188.542C150.754 189.308 149.611 189.757 148.667 189.552C147.743 189.351 147.316 188.53 147.126 187.67C147.099 187.548 147.258 187.511 147.326 187.584Z" fill="#263238"/>
<path d="M149.828 180.844C150.906 182.673 152.555 183.716 154.369 184.145C155.179 184.342 156.036 184.405 156.881 184.363C157.046 184.365 157.213 184.354 157.364 184.327C157.514 184.315 157.651 184.303 157.816 184.276C158.058 184.251 158.198 184.059 158.247 183.833L158.248 183.818C158.249 183.743 158.251 183.682 158.237 183.607C158.237 183.607 158.237 183.607 158.238 183.592L158.241 183.411C158.348 181.832 158.292 179.42 158.292 179.42C158.858 179.733 161.75 181.178 161.737 180.35C161.607 173.494 161.461 165.869 159.883 159.074C159.843 158.848 159.495 158.886 159.506 159.111C159.371 165.706 160.396 172.279 160.366 178.905C159.44 178.51 157.933 177.786 157.105 177.769C156.878 177.825 157.296 182.427 157.192 183.133C157.192 183.133 157.191 183.163 157.175 183.208C154.504 183.44 152.533 182.556 150.027 180.667C149.88 180.544 149.711 180.675 149.828 180.844Z" fill="#263238"/>
<path d="M155.791 183.419C155.791 183.419 154.42 185.15 152.6 185.732C151.929 185.949 151.212 186.021 150.47 185.797C148.946 185.342 148.952 183.931 149.273 182.733C149.534 181.746 150.022 180.906 150.022 180.906C150.022 180.906 152.199 183.08 155.791 183.419Z" fill="#263238"/>
<path d="M152.6 185.732C151.929 185.949 151.212 186.02 150.47 185.796C148.946 185.342 148.952 183.93 149.273 182.732C150.916 182.954 152.512 184.125 152.6 185.732Z" fill="#FF9ABB"/>
<path d="M121.649 173.34C125.241 174.377 129.178 163.561 130.272 159.409C131.237 155.75 132.229 144.177 132.39 143.386C132.551 142.596 148.141 153.354 157.108 150.572C166.075 147.791 171.963 139.606 172.025 135.831C172.087 132.056 160.743 122.659 151.055 122.329C141.367 121.998 128.467 134.516 128.467 134.516C128.467 134.516 132.83 129.128 132.672 128.694C132.514 128.261 126.301 130.862 125.224 135.337C125.224 135.337 126.369 129.724 125.894 129.627C125.421 129.53 120.638 134.401 121.795 138.013C121.795 138.013 116.253 142.975 115.821 148.321C115.387 153.668 117.429 172.121 121.649 173.34Z" fill="#263238"/>
<path d="M163.479 148.585C160.761 149.89 158.039 151.321 155.018 151.771C151.752 152.257 148.343 151.49 145.278 150.374C142.143 149.231 139.283 147.547 136.676 145.472C134.392 143.654 132.356 141.449 129.924 139.835C129.316 139.432 128.633 140.31 129.011 140.858C132.756 146.279 139.294 150.749 145.558 152.623C152.147 154.593 158.284 153.029 163.514 148.656C163.546 148.63 163.524 148.564 163.479 148.585Z" fill="#263238"/>
<path d="M127.533 170.052C127.533 170.052 122.35 159.4 117.62 161.1C112.889 162.8 115.725 177.499 120.531 180.211C125.337 182.923 127.935 178.523 127.935 178.523L127.533 170.052Z" fill="#FFBE93"/>
<path d="M118.537 165.293C118.456 165.273 118.422 165.385 118.489 165.426C121.841 167.446 123.199 171.066 123.973 174.719C123.118 173.223 121.783 172.268 119.806 173.253C119.703 173.305 119.769 173.466 119.873 173.46C121.39 173.379 122.408 173.801 123.212 175.133C123.782 176.076 124.095 177.205 124.445 178.245C124.562 178.592 125.168 178.512 125.104 178.124C125.099 178.095 125.093 178.066 125.088 178.036C125.902 173.485 123.367 166.53 118.537 165.293Z" fill="#263238"/>
<path d="M121.106 159.875C121.106 159.875 121.032 143.339 125.46 134.104C127.633 129.572 132.368 127.668 137.82 127.164C137.82 127.164 134.919 128.655 131.482 135.231C127.952 141.983 126.578 160.354 126.578 160.354L121.106 159.875Z" fill="#C7C7C7"/>
<path d="M136.403 168.279C136.425 176.636 130.499 183.425 123.169 183.444C115.838 183.463 109.877 176.704 109.856 168.348C109.834 159.992 115.76 153.203 123.09 153.184C130.421 153.165 136.382 159.923 136.403 168.279Z" fill="#C7C7C7"/>
<path d="M132.535 167.814C132.554 175.326 127.228 181.429 120.638 181.445C114.049 181.462 108.691 175.387 108.671 167.875C108.652 160.364 113.979 154.262 120.568 154.244C127.158 154.227 132.516 160.303 132.535 167.814Z" fill="#455A64"/>
<path d="M126.04 167.967C126.051 172.583 122.778 176.334 118.729 176.344C114.679 176.354 111.387 172.621 111.375 168.005C111.363 163.389 114.636 159.639 118.686 159.629C122.736 159.619 126.028 163.352 126.04 167.967Z" fill="#37474F"/>
<path d="M145.189 192.522L135.636 189.776L127.203 181.643L128.457 180.342L136.568 188.164L145.688 190.784L145.189 192.522Z" fill="#C7C7C7"/>
<path d="M144.037 191.202C144.585 188.455 152.1 188.482 151.27 192.645C150.437 196.819 143.487 193.959 144.037 191.202Z" fill="#37474F"/>
<path d="M142.37 210.434L138.282 223.344L117.728 195.451L110.014 203.321L133.499 236.814L138.736 226.163L145.047 233.052L145.278 216.955L142.37 210.434Z" fill="#EBEBEB"/>
<path d="M110.014 203.32C118.172 214.858 125.154 226.483 133.645 237.776L133.935 236.973L139.125 226.305L138.431 226.442L144.814 233.263L145.356 233.843C145.396 228.215 145.325 222.584 145.277 216.955C145.077 222.319 144.855 227.682 144.731 233.047L145.278 232.839L139.042 225.883L138.587 225.377L138.347 226.02L133.064 236.654L133.87 236.535C125.572 225.455 118.629 214.159 110.014 203.32Z" fill="#263238"/>
<path d="M88.634 174.193C91.5526 156.46 79.5432 139.719 61.8102 136.8C44.0773 133.882 27.3358 145.891 24.4171 163.624C21.4985 181.357 33.5079 198.098 51.2409 201.017C68.9738 203.936 85.7153 191.926 88.634 174.193Z" fill="#03B0EF"/>
<g opacity="0.1">
<path d="M64.348 194.762C61.8733 195.51 59.2489 195.911 56.5304 195.911C50.4532 195.911 44.8446 193.903 40.3325 190.515C33.7749 185.589 29.5328 177.747 29.5328 168.914C29.5328 158.754 35.1451 149.905 43.4393 145.297" stroke="black" stroke-width="2.19" stroke-miterlimit="10"/>
<path d="M82.717 162.318C83.247 164.429 83.528 166.638 83.528 168.913C83.528 178.653 78.3706 187.188 70.637 191.937" stroke="black" stroke-width="2.19" stroke-miterlimit="10"/>
<path d="M47.1492 143.591C50.0714 142.508 53.2315 141.916 56.5304 141.916C66.2978 141.916 74.8541 147.103 79.594 154.873" stroke="black" stroke-width="2.19" stroke-miterlimit="10"/>
</g>
<path d="M62.9873 189.343C62.4486 189.878 61.7836 190.17 61.0667 190.35C60.6112 190.465 60.144 190.528 59.6812 190.614H58.0978C57.4488 190.514 56.7955 190.435 56.1516 190.308C53.7455 189.83 51.5753 188.79 49.5539 187.439C44.2789 183.917 39.9464 179.474 36.6351 174.059C35.5452 172.277 34.7728 170.357 34.4042 168.289C34.3086 167.752 34.2363 167.21 34.1523 166.67V165.086C34.283 164.478 34.3881 163.863 34.5524 163.264C34.705 162.71 34.9904 162.214 35.4182 161.779C35.4934 161.846 35.5664 161.906 35.6335 161.972C38.152 164.488 40.6683 167.007 43.1919 169.518C43.3722 169.698 43.4044 169.844 43.3394 170.09C42.9853 171.434 43.2219 172.655 44.1548 173.716C46.3061 176.161 48.5998 178.463 51.0453 180.614C52.1162 181.555 53.3492 181.781 54.7048 181.422C54.8851 181.375 55.0165 181.344 55.1734 181.502C57.7474 184.087 60.3287 186.665 62.9078 189.246C62.9311 189.268 62.9494 189.296 62.9873 189.343Z" fill="white"/>
<path d="M67.9279 183.687V184.215C67.6834 184.531 67.4644 184.872 67.1884 185.158C66.4103 185.964 65.608 186.748 64.8145 187.539C64.7298 187.624 64.6422 187.703 64.5729 187.769C61.9711 185.169 59.3855 182.585 56.802 180.003C57.8182 179 58.8343 177.97 59.8833 176.973C60.3644 176.515 61.044 176.573 61.5441 177.06C62.1274 177.627 62.6968 178.207 63.272 178.783C64.624 180.135 65.9818 181.481 67.322 182.844C67.5615 183.088 67.7279 183.404 67.9279 183.687Z" fill="white"/>
<path d="M47.5676 165.125C46.6047 166.053 45.6236 166.963 44.6702 167.864C42.1816 165.376 39.5967 162.793 36.9592 160.158C37.1308 160.004 37.325 159.845 37.5031 159.669C38.2119 158.965 38.9076 158.245 39.6281 157.553C39.907 157.286 40.2413 157.076 40.5508 156.84H41.0786C41.3604 157.041 41.6758 157.206 41.9181 157.446C43.8074 159.317 45.682 161.202 47.5617 163.081C48.2742 163.792 48.2866 164.43 47.5676 165.125Z" fill="white"/>
<path d="M56.4553 171.093C56.4553 171.477 56.1575 171.775 55.7728 171.775H51.3818C51.3818 171.775 51.3818 171.775 51.3694 171.775H51.357C51.1708 171.775 50.9723 171.7 50.8489 171.552C50.5883 171.266 50.6131 170.845 50.8862 170.584L54.5573 167.261C54.9172 166.938 55.0785 166.516 55.0785 166.07C55.0785 165.673 54.942 165.301 54.6697 164.991C54.3471 164.631 53.9127 164.47 53.4791 164.47C53.0944 164.47 52.7097 164.606 52.4002 164.879L52.0155 165.227C51.73 165.487 51.3088 165.463 51.0482 165.177C50.8 164.892 50.8124 164.47 51.0978 164.21L51.4818 163.862C52.0403 163.341 52.7717 163.094 53.4791 163.094C54.285 163.094 55.1041 163.429 55.6866 164.073C56.2078 164.632 56.456 165.363 56.456 166.071C56.456 166.877 56.121 167.695 55.4764 168.278L53.1324 170.4H55.7742C56.1575 170.399 56.4553 170.708 56.4553 171.093Z" fill="white"/>
<path d="M64.4335 169.468C64.4335 169.852 64.1232 170.15 63.7393 170.15H63.6152V171.093C63.6152 171.477 63.3173 171.774 62.9326 171.774C62.5486 171.774 62.2508 171.477 62.2508 171.093V170.15H58.3686H58.3562H58.3438C58.1949 170.15 58.046 170.113 57.9219 170.001C57.6116 169.765 57.5744 169.344 57.8102 169.046L62.3997 163.34C62.4121 163.34 62.4121 163.328 62.4245 163.315C62.4369 163.303 62.4493 163.29 62.4618 163.266C62.499 163.253 62.5114 163.241 62.5238 163.228C62.5362 163.216 62.561 163.204 62.5734 163.191C62.5983 163.179 62.6107 163.166 62.6479 163.166C62.6603 163.141 62.6727 163.129 62.6975 163.129C62.71 163.117 62.7348 163.117 62.772 163.104C62.7844 163.104 62.8092 163.104 62.8216 163.092C62.8465 163.092 62.8837 163.092 62.9085 163.092C62.9085 163.092 62.9209 163.092 62.9333 163.092C62.9457 163.092 62.9457 163.092 62.9589 163.092C62.983 163.092 63.0209 163.092 63.0326 163.092C63.0574 163.104 63.0698 163.104 63.0947 163.104C63.1071 163.117 63.1443 163.117 63.1691 163.129C63.1815 163.129 63.2064 163.141 63.2188 163.141C63.2436 163.166 63.2684 163.179 63.2808 163.191C63.3056 163.203 63.318 163.216 63.3429 163.228C63.3429 163.228 63.3553 163.228 63.3553 163.241C63.3677 163.241 63.3925 163.253 63.3925 163.266C63.4173 163.29 63.4297 163.303 63.4421 163.315C63.4546 163.328 63.467 163.352 63.4794 163.365C63.4918 163.377 63.5049 163.39 63.529 163.427C63.529 163.439 63.5414 163.464 63.5546 163.477C63.567 163.501 63.567 163.514 63.5794 163.551C63.5794 163.563 63.5918 163.588 63.5918 163.601C63.6042 163.625 63.6042 163.638 63.6042 163.675C63.6042 163.701 63.6166 163.712 63.6166 163.737C63.6166 163.75 63.6166 163.762 63.6166 163.774V168.785H63.7407C64.1232 168.785 64.4335 169.095 64.4335 169.468ZM62.2501 165.722L59.7819 168.786H62.2501V165.722Z" fill="white"/>
<path d="M66.0366 170.832L69.0749 163.601C69.2238 163.253 69.6209 163.092 69.9801 163.241C70.3151 163.378 70.4765 163.787 70.3275 164.121L67.2885 171.365C67.1769 171.626 66.9162 171.775 66.6556 171.775C66.5812 171.775 66.4826 171.762 66.4074 171.725C66.0483 171.589 65.8877 171.179 66.0366 170.832Z" fill="white"/>
<path d="M76.4574 164.036L73.3563 171.366C73.257 171.627 73.0088 171.776 72.7241 171.776C72.6497 171.776 72.5504 171.763 72.4635 171.726C72.116 171.565 71.9554 171.168 72.092 170.833L74.7711 164.47H71.5707C71.1992 164.47 70.8889 164.148 70.8889 163.776C70.8889 163.392 71.1992 163.094 71.5707 163.094H75.8252C75.8624 163.094 75.8996 163.094 75.9493 163.106C76.0362 163.119 76.123 163.168 76.2099 163.205C76.2223 163.218 76.2347 163.23 76.2471 163.243C76.2719 163.255 76.2843 163.267 76.2968 163.292C76.3092 163.317 76.334 163.33 76.3464 163.342C76.3588 163.367 76.3712 163.379 76.3836 163.392C76.396 163.404 76.4092 163.441 76.4092 163.454C76.4216 163.478 76.434 163.491 76.4588 163.516C76.4588 163.528 76.4712 163.565 76.4712 163.578C76.4836 163.603 76.4836 163.615 76.496 163.64C76.5085 163.727 76.5085 163.826 76.496 163.913C76.4814 163.962 76.469 163.999 76.4574 164.036Z" fill="white"/>
<path d="M90.3878 133.469C108.36 133.469 122.929 118.9 122.929 100.928C122.929 82.9559 108.36 68.3867 90.3878 68.3867C72.4158 68.3867 57.8466 82.9559 57.8466 100.928C57.8466 118.9 72.4158 133.469 90.3878 133.469Z" fill="#03B0EF"/>
<g opacity="0.1">
<path d="M82.5709 75.0787C85.0456 74.3312 87.67 73.9297 90.3885 73.9297C96.4657 73.9297 102.074 75.9379 106.586 79.3266C113.144 84.2519 117.386 92.0943 117.386 100.927C117.386 111.087 111.774 119.936 103.48 124.544" stroke="black" stroke-width="2.19" stroke-miterlimit="10"/>
<path d="M64.2019 107.523C63.6719 105.412 63.3909 103.203 63.3909 100.928C63.3909 91.1881 68.5483 82.6529 76.2819 77.9043" stroke="black" stroke-width="2.19" stroke-miterlimit="10"/>
<path d="M99.7689 126.251C96.8468 127.333 93.6866 127.926 90.3877 127.926C80.6203 127.926 72.064 122.738 67.3241 114.969" stroke="black" stroke-width="2.19" stroke-miterlimit="10"/>
</g>
<path d="M109.712 107.704L107.899 104.561L106.937 105.116C106.654 105.28 106.306 105.264 106.032 105.085C105.881 104.987 105.724 104.896 105.562 104.814C105.272 104.666 105.085 104.373 105.085 104.047V102.936H101.455V104.047C101.455 104.372 101.268 104.666 100.977 104.814C100.815 104.896 100.658 104.987 100.507 105.085C100.233 105.264 99.8851 105.28 99.6026 105.116L98.6405 104.561L96.8264 107.704L97.7929 108.26C98.0762 108.424 98.2324 108.734 98.2156 109.061C98.2112 109.149 98.209 109.238 98.209 109.328C98.209 109.417 98.2112 109.507 98.2156 109.595C98.2324 109.92 98.0776 110.23 97.7959 110.392L96.8272 110.952L98.6412 114.096L99.6063 113.54C99.8895 113.376 100.238 113.392 100.511 113.571C100.662 113.669 100.818 113.76 100.979 113.842C101.269 113.989 101.456 114.283 101.456 114.608V115.719H105.086V114.608C105.086 114.283 105.273 113.989 105.563 113.842C105.724 113.759 105.881 113.669 106.031 113.571C106.305 113.392 106.653 113.376 106.936 113.54L107.901 114.096L109.715 110.952L108.75 110.395C108.467 110.233 108.312 109.922 108.328 109.597C108.333 109.508 108.335 109.418 108.335 109.327C108.335 109.238 108.333 109.149 108.328 109.06C108.312 108.734 108.467 108.423 108.751 108.259L109.712 107.704ZM106.243 109.328C106.243 110.97 104.913 112.299 103.271 112.299C101.629 112.299 100.296 110.969 100.296 109.328C100.296 107.686 101.629 106.354 103.271 106.354C104.913 106.354 106.243 107.686 106.243 109.328Z" fill="white"/>
<path d="M83.7609 87.2812C77.1602 87.2812 71.8115 92.63 71.8115 99.2306C71.8115 105.828 77.1602 111.18 83.7609 111.18C90.3594 111.18 95.7103 105.828 95.7103 99.2306C95.7103 92.6292 90.3586 87.2812 83.7609 87.2812ZM83.7609 104.809C80.6781 104.809 78.1793 102.313 78.1793 99.2299C78.1793 96.1471 80.6788 93.6483 83.7609 93.6483C86.8437 93.6483 89.3432 96.1478 89.3432 99.2299C89.3425 102.313 86.8437 104.809 83.7609 104.809Z" fill="white"/>
<path d="M86.0581 87.7763H81.4628L81.7168 84.5234H85.8041L86.0581 87.7763Z" fill="white"/>
<path d="M77.3113 89.3257L74.0621 92.575L71.9421 90.0951L74.8322 87.2051L77.3113 89.3257Z" fill="white"/>
<path d="M72.2218 96.6055V101.201L68.9689 100.947V96.8595L72.2218 96.6055Z" fill="white"/>
<path d="M73.7701 105.352L77.0193 108.601L74.5395 110.721L71.6494 107.831L73.7701 105.352Z" fill="white"/>
<path d="M81.0497 110.441H85.645L85.391 113.694H81.3037L81.0497 110.441Z" fill="white"/>
<path d="M89.7958 108.894L93.0457 105.645L95.1657 108.124L92.2756 111.014L89.7958 108.894Z" fill="white"/>
<path d="M94.8861 101.613V97.0176L98.139 97.2716V101.359L94.8861 101.613Z" fill="white"/>
<path d="M93.3377 92.866L90.0885 89.6167L92.5683 87.4961L95.4584 90.3862L93.3377 92.866Z" fill="white"/>
<path d="M196.933 93.2659C201.142 75.7935 190.39 58.2172 172.918 54.0082C155.445 49.7991 137.869 60.5512 133.66 78.0236C129.451 95.496 140.203 113.072 157.675 117.281C175.148 121.49 192.724 110.738 196.933 93.2659Z" fill="#03B0EF"/>
<g opacity="0.1">
<path d="M139.449 93.4655C138.701 90.9908 138.3 88.3665 138.3 85.648C138.3 79.5707 140.308 73.9621 143.697 69.45C148.622 62.8924 156.465 58.6504 165.298 58.6504C175.458 58.6504 184.307 64.2626 188.914 72.5569" stroke="black" stroke-width="2.19" stroke-miterlimit="10"/>
<path d="M171.892 111.834C169.782 112.364 167.573 112.645 165.298 112.645C155.558 112.645 147.023 107.488 142.274 99.7539" stroke="black" stroke-width="2.19" stroke-miterlimit="10"/>
<path d="M190.621 76.2676C191.703 79.1898 192.295 82.3499 192.295 85.6488C192.295 95.4162 187.108 103.973 179.338 108.712" stroke="black" stroke-width="2.19" stroke-miterlimit="10"/>
</g>
<path d="M158.449 77.0344C158.449 80.8165 161.515 83.8825 165.298 83.8825C169.08 83.8825 172.146 80.8165 172.146 77.0337C172.146 73.2515 169.08 70.1855 165.298 70.1855C161.515 70.1863 158.449 73.2523 158.449 77.0344Z" fill="white"/>
<path d="M153.464 95.9246V98.7497C155.419 99.9644 157.592 100.893 159.954 101.466C166.059 102.957 172.184 101.812 177.132 98.7395V95.9239C177.132 89.4042 171.838 84.0898 165.298 84.0898C158.758 84.0906 153.464 89.405 153.464 95.9246Z" fill="white"/>
<path d="M49.0493 340.86C134.867 340.413 231.135 340.409 316.951 340.86C231.134 341.31 134.866 341.307 49.0493 340.86Z" fill="#263238"/>
<path d="M183.578 333.707H176.485V338.338H183.578V333.707Z" fill="#455A64"/>
<path d="M192.777 333.402H185.683V338.033H192.777V333.402Z" fill="#455A64"/>
<path d="M201.976 333.096H194.882V337.727H201.976V333.096Z" fill="#455A64"/>
<path d="M211.174 332.789H204.08V337.42H211.174V332.789Z" fill="#455A64"/>
<path d="M220.372 332.484H213.279V337.116H220.372V332.484Z" fill="#455A64"/>
<path d="M229.57 332.178H222.477V336.809H229.57V332.178Z" fill="#455A64"/>
<path d="M238.769 331.871H231.676V336.502H238.769V331.871Z" fill="#455A64"/>
<path d="M247.968 331.566H240.874V336.198H247.968V331.566Z" fill="#455A64"/>
<path d="M257.166 331.26H250.072V335.891H257.166V331.26Z" fill="#455A64"/>
<path d="M258.902 341.003H174.749V335.368L258.902 333.021V341.003Z" fill="#37474F"/>
<path d="M307.953 318.322H191.3L209.852 231.477H326.505L307.953 318.322Z" fill="#455A64"/>
<path d="M312.268 318.322H195.615L214.167 231.477H330.82L312.268 318.322Z" fill="#37474F"/>
<path d="M273.298 269.869C272.667 273.852 268.927 277.081 264.943 277.081C260.96 277.081 258.242 273.852 258.873 269.869C259.504 265.885 263.244 262.656 267.228 262.656C271.212 262.656 273.929 265.885 273.298 269.869Z" fill="#263238"/>
<path d="M279.276 341.003H221.902V336.548L279.276 334.693V341.003Z" fill="#455A64"/>
<path d="M294.875 340.998H264.071L245.519 292.334H276.323L294.875 340.998Z" fill="#455A64"/>
<path d="M299.945 340.998H269.141L250.589 292.334H281.393L299.945 340.998Z" fill="#263238"/>
<path d="M197.558 341.003C197.558 341.003 147.821 341.003 143.179 341.003C138.537 341.003 145.253 327.789 162.19 322.719C179.127 317.65 202.901 336.046 197.558 341.003Z" fill="#37474F"/>
<path d="M176.219 341.002C176.083 339.48 176.293 337.949 176.678 336.47C177.06 334.986 177.68 333.561 178.464 332.226C179.254 330.895 180.28 329.693 181.47 328.703C182.629 327.673 184.062 326.984 185.502 326.541C184.363 327.566 183.241 328.467 182.32 329.583C181.39 330.67 180.512 331.793 179.805 333.036C178.317 335.481 177.229 338.154 176.219 341.002Z" fill="#263238"/>
<path d="M182.663 328.43C184.342 328.779 185.946 329.374 187.498 330.079C189.054 330.78 190.534 331.65 191.948 332.631C193.349 333.624 194.663 334.793 195.734 336.184C196.79 337.549 197.664 339.253 197.558 341.002C197.005 339.372 195.952 338.128 194.814 336.99C193.651 335.871 192.394 334.833 191.037 333.905C188.367 331.989 185.509 330.308 182.663 328.43Z" fill="#263238"/>
<path d="M264.091 144.127H186.254V173.718L173.492 184.525H186.254V189.053H264.091V144.127Z" fill="white"/>
<path d="M264.091 144.127C244.679 144.239 205.655 144.336 186.253 144.366L186.492 144.127L186.561 173.718V173.861L186.451 173.953L173.714 184.788L173.491 184.181L186.252 184.167L186.611 184.166L186.611 184.525L186.601 189.053C184.508 188.11 264.502 189.082 264.09 188.787C264.09 188.788 263.824 189.053 263.824 189.053C263.824 177.86 264 155.321 264.091 144.127ZM264.091 144.127C264.176 155.325 264.35 177.855 264.356 189.053L264.358 189.319C263.639 189.316 186.609 189.404 185.905 189.402L185.905 189.053L185.895 184.525L186.254 184.884L173.492 184.869L172.552 184.868L173.271 184.263L186.055 173.483L185.946 173.718L186.015 144.127L186.016 143.887L186.255 143.887C205.648 143.921 244.703 144.018 264.091 144.127Z" fill="#263238"/>
<path d="M250.934 168.412H193.995V169.382H250.934V168.412Z" fill="#263238"/>
<path d="M241.577 173.65H193.995V174.621H241.577V173.65Z" fill="#263238"/>
<path d="M244.305 157.936H193.995V158.906H244.305V157.936Z" fill="#263238"/>
<path d="M256.188 152.697H193.995V153.667H256.188V152.697Z" fill="#263238"/>
<path d="M245.326 178.889H193.995V179.859H245.326V178.889Z" fill="#263238"/>
</svg>
