<svg width="40" height="40" viewBox="0 0 40 40" fill="none" xmlns="http://www.w3.org/2000/svg">
<path d="M36.6663 4.58594H3.33301C2.64967 4.58594 2.08301 4.01927 2.08301 3.33594C2.08301 2.6526 2.64967 2.08594 3.33301 2.08594H36.6663C37.3497 2.08594 37.9163 2.6526 37.9163 3.33594C37.9163 4.01927 37.3497 4.58594 36.6663 4.58594Z" fill="#9B9B9B"/>
<path d="M27.7838 37.2359C27.5671 37.6693 27.1171 37.9193 26.6671 37.9193C26.4838 37.9193 26.2838 37.8693 26.1171 37.7859L20.0004 34.7359L13.8838 37.7859C13.7171 37.8693 13.5171 37.9193 13.3338 37.9193C12.8838 37.9193 12.4338 37.6693 12.2171 37.2359C11.9004 36.6026 12.1504 35.8526 12.7838 35.5526L18.7504 32.5693V28.3359H21.2504V32.5693L27.2171 35.5526C27.8504 35.8526 28.1004 36.6026 27.7838 37.2359Z" fill="#9B9B9B"/>
<path d="M5 3.33594V23.5026C5 26.6693 6.66667 28.3359 9.83333 28.3359H30.1667C33.3333 28.3359 35 26.6693 35 23.5026V3.33594H5ZM28.3 14.3026L23.05 18.6859C22.5667 19.0859 21.95 19.2526 21.3667 19.1526C20.7667 19.0526 20.25 18.6859 19.9333 18.1526L18.1833 15.2359L13.3 19.3026C13.0667 19.5026 12.7833 19.5859 12.5 19.5859C12.15 19.5859 11.7833 19.4359 11.5333 19.1359C11.0833 18.6026 11.1667 17.8193 11.7 17.3693L16.95 12.9859C17.4333 12.5859 18.05 12.4193 18.6333 12.5193C19.2333 12.6193 19.75 12.9859 20.0667 13.5193L21.8167 16.4359L26.7 12.3693C27.2333 11.9193 28.0167 12.0026 28.4667 12.5359C28.9 13.0693 28.8333 13.8526 28.3 14.3026Z" fill="#9B9B9B"/>
</svg>
