<svg width="40" height="41" viewBox="0 0 40 41" fill="none" xmlns="http://www.w3.org/2000/svg">
<path d="M5.24827 10.2073C6.12909 9.7585 7.28214 9.7585 9.58824 9.7585H10.4353C10.7142 9.7585 10.8537 9.7585 10.9535 9.71241C11.0493 9.66813 11.1109 9.61395 11.1671 9.52455C11.2256 9.43149 11.2459 9.27441 11.2864 8.96025C11.6779 5.92616 14.2711 3.58203 17.4118 3.58203C20.5524 3.58203 23.1456 5.92616 23.5371 8.96025C23.5777 9.27441 23.5979 9.43149 23.6564 9.52455C23.7126 9.61395 23.7742 9.66813 23.8701 9.71241C23.9699 9.7585 24.1093 9.7585 24.3882 9.7585H25.2353C27.5414 9.7585 28.6944 9.7585 29.5753 10.2073C30.35 10.6021 30.98 11.232 31.3747 12.0068C31.8235 12.8876 31.8235 14.0406 31.8235 16.3467V17.1938C31.8235 17.4727 31.8235 17.6122 31.8696 17.712C31.9139 17.8078 31.9681 17.8694 32.0575 17.9256C32.1505 17.9841 32.3076 18.0044 32.6218 18.0449C35.6559 18.4364 38 21.0296 38 24.1703C38 27.3109 35.6559 29.9041 32.6218 30.2956C32.3076 30.3362 32.1505 30.3564 32.0575 30.4149C31.9681 30.4711 31.9139 30.5327 31.8696 30.6286C31.8235 30.7284 31.8235 30.8678 31.8235 31.1467V31.9938C31.8235 34.2999 31.8235 35.4529 31.3747 36.3338C30.98 37.1085 30.35 37.7385 29.5753 38.1332C28.6944 38.582 27.5414 38.582 25.2353 38.582H24.3882C24.1093 38.582 23.9699 38.582 23.8701 38.5359C23.7742 38.4917 23.7126 38.4375 23.6564 38.3481C23.5979 38.255 23.5777 38.0979 23.5371 37.7838C23.1456 34.7497 20.5524 32.4056 17.4118 32.4056C14.2711 32.4056 11.6779 34.7497 11.2864 37.7838C11.2459 38.0979 11.2256 38.255 11.1671 38.3481C11.1109 38.4375 11.0493 38.4917 10.9535 38.5359C10.8537 38.582 10.7142 38.582 10.4353 38.582H9.58824C7.28214 38.582 6.12909 38.582 5.24827 38.1332C4.47349 37.7385 3.84357 37.1085 3.4488 36.3338C3 35.4529 3 34.2999 3 31.9938V31.1467C3 30.8678 3 30.7284 3.04609 30.6286C3.09037 30.5327 3.14455 30.4711 3.23395 30.4149C3.32701 30.3564 3.48409 30.3362 3.79825 30.2956C6.83234 29.9041 9.17647 27.3109 9.17647 24.1703C9.17647 21.0296 6.83234 18.4364 3.79825 18.0449C3.48409 18.0044 3.32701 17.9841 3.23395 17.9256C3.14455 17.8694 3.09037 17.8078 3.04609 17.712C3 17.6122 3 17.4727 3 17.1938V16.3467C3 14.0406 3 12.8876 3.4488 12.0068C3.84357 11.232 4.47349 10.6021 5.24827 10.2073Z" fill="#9B9B9B"/>
</svg>
