<svg width="156" height="63" viewBox="0 0 156 63" fill="none" xmlns="http://www.w3.org/2000/svg">
<g opacity="0.3">
<path d="M123.484 51.716L128.318 39.4922H142.276L135.652 20.9494L143.936 0L167.664 62.9994H150.165L146.111 51.716H123.484Z" fill="white"/>
<path d="M108.557 62.9995L133.958 0L117.118 8.3713e-05L99.742 40.7118L87.386 0.000167425H74.4418L61.1748 40.7118L51.8186 22.1603L43.3516 48.2455L51.9481 62.9995H68.5209L80.5097 26.4899L91.9404 62.9995H108.557Z" fill="#5A0FC8"/>
<path d="M16.3211 41.3728H26.6937C29.8357 41.3728 32.6336 41.0221 35.0873 40.3207L37.7698 32.0565L45.267 8.95922C44.6958 8.05379 44.0436 7.19771 43.3105 6.39109C39.4611 2.13031 33.8292 0 26.4145 0H0.335938V62.9995H16.3211V41.3728ZM30.0508 14.4937C31.5544 16.0069 32.3061 18.0319 32.3061 20.5688C32.3061 23.1252 31.6449 25.1527 30.3226 26.6513C28.8731 28.3164 26.204 29.1489 22.3154 29.1489H16.3211V12.2237H22.3595C25.9836 12.2237 28.5473 12.9803 30.0508 14.4937Z" fill="white"/>
</g>
</svg>
