<svg width="78" height="79" viewBox="0 0 78 79" fill="none" xmlns="http://www.w3.org/2000/svg">
<g clip-path="url(#clip0_4684_80833)">
<path d="M57.4062 48.9062L59.6595 43.2081H66.1657L63.078 34.5644L66.9397 24.7988L78.0003 54.166H69.8435L67.9534 48.9062H57.4062Z" fill="#3D3D3D"/>
<path d="M50.4479 54.1661L62.2885 24.7989L54.4386 24.7989L46.3389 43.7767L40.5792 24.799H34.5453L28.361 43.7767L23.9996 35.1289L20.0527 47.2885L24.06 54.1661H31.7853L37.3738 37.1472L42.7022 54.1661H50.4479Z" fill="#5A0FC8"/>
<path d="M7.4514 44.0848H12.2866C13.7512 44.0848 15.0554 43.9213 16.1992 43.5943L17.4497 39.742L20.9444 28.9752C20.6782 28.5531 20.3741 28.154 20.0324 27.778C18.2381 25.7919 15.6127 24.7988 12.1564 24.7988H0V54.166H7.4514V44.0848ZM13.8515 31.555C14.5524 32.2604 14.9028 33.2044 14.9028 34.387C14.9028 35.5786 14.5946 36.5237 13.9782 37.2223C13.3025 37.9985 12.0583 38.3866 10.2457 38.3866H7.4514V30.4969H10.2662C11.9555 30.4969 13.1506 30.8496 13.8515 31.555Z" fill="#3D3D3D"/>
</g>
<defs>
<clipPath id="clip0_4684_80833">
<rect width="78" height="78" fill="white" transform="translate(0 0.5)"/>
</clipPath>
</defs>
</svg>
