<svg width="114" height="102" viewBox="0 0 114 102" fill="none" xmlns="http://www.w3.org/2000/svg">
<g opacity="0.3" clip-path="url(#clip0_5536_79739)">
<path d="M61.4692 0.0351562C30.0692 0.0351562 32.0298 13.7068 32.0298 13.7068L32.0646 27.871H62.0291V32.1234H20.1632C20.1632 32.1234 0.0703125 29.8355 0.0703125 61.6452C0.0703125 93.4558 17.6079 92.3276 17.6079 92.3276H28.0742V77.5663C28.0742 77.5663 27.51 59.9583 45.3319 59.9583H75.0513C75.0513 59.9583 91.7485 60.2291 91.7485 43.7561V16.5189C91.7485 16.5189 94.2845 0.0351562 61.4692 0.0351562ZM44.9468 9.5603C45.6549 9.55966 46.3562 9.69922 47.0105 9.97098C47.6648 10.2427 48.2593 10.6414 48.76 11.1441C49.2607 11.6468 49.6577 12.2437 49.9284 12.9006C50.199 13.5575 50.338 14.2616 50.3374 14.9725C50.338 15.6835 50.199 16.3875 49.9284 17.0445C49.6577 17.7014 49.2607 18.2983 48.76 18.801C48.2593 19.3037 47.6648 19.7023 47.0105 19.9741C46.3562 20.2459 45.6549 20.3854 44.9468 20.3848C44.2387 20.3854 43.5375 20.2459 42.8832 19.9741C42.2289 19.7023 41.6344 19.3037 41.1337 18.801C40.633 18.2983 40.236 17.7014 39.9653 17.0445C39.6946 16.3875 39.5556 15.6835 39.5562 14.9725C39.5556 14.2616 39.6946 13.5575 39.9653 12.9006C40.236 12.2437 40.633 11.6468 41.1337 11.1441C41.6344 10.6414 42.2289 10.2427 42.8832 9.97098C43.5375 9.69922 44.2387 9.55966 44.9468 9.5603Z" fill="url(#paint0_linear_5536_79739)"/>
<path d="M62.3604 123.575C93.7604 123.575 91.7999 109.903 91.7999 109.903L91.765 95.7394H61.8V91.487H103.666C103.666 91.487 123.759 93.7749 123.759 61.9643C123.759 30.1541 106.221 31.2823 106.221 31.2823H95.7549V46.0432C95.7549 46.0432 96.3191 63.6512 78.4973 63.6512H48.7778C48.7778 63.6512 32.0806 63.3803 32.0806 79.8538V107.092C32.0806 107.092 29.5451 123.575 62.3599 123.575H62.3604ZM78.8828 114.051C78.1747 114.051 77.4734 113.912 76.8191 113.64C76.1648 113.368 75.5703 112.97 75.0696 112.467C74.569 111.964 74.1719 111.367 73.9012 110.71C73.6306 110.053 73.4916 109.349 73.4922 108.638C73.4915 107.927 73.6304 107.223 73.9011 106.566C74.1717 105.909 74.5688 105.312 75.0695 104.81C75.5702 104.307 76.1647 103.908 76.819 103.636C77.4734 103.365 78.1747 103.225 78.8828 103.226C79.5909 103.225 80.2921 103.365 80.9464 103.636C81.6007 103.908 82.1952 104.307 82.6959 104.809C83.1966 105.312 83.5937 105.909 83.8643 106.566C84.135 107.223 84.274 107.927 84.2734 108.638C84.274 109.349 84.135 110.053 83.8643 110.71C83.5937 111.367 83.1966 111.964 82.6959 112.466C82.1952 112.969 81.6007 113.368 80.9464 113.639C80.2921 113.911 79.5909 114.051 78.8828 114.051Z" fill="url(#paint1_linear_5536_79739)"/>
</g>
<defs>
<linearGradient id="paint0_linear_5536_79739" x1="1188.72" y1="1111.2" x2="7342.69" y2="7179.41" gradientUnits="userSpaceOnUse">
<stop stop-color="#387EB8"/>
<stop offset="1" stop-color="#366994"/>
</linearGradient>
<linearGradient id="paint1_linear_5536_79739" x1="1786.53" y1="1930.67" x2="8393.96" y2="8151.9" gradientUnits="userSpaceOnUse">
<stop stop-color="#FFE052"/>
<stop offset="1" stop-color="#FFC331"/>
</linearGradient>
<clipPath id="clip0_5536_79739">
<rect width="124" height="124" fill="white"/>
</clipPath>
</defs>
</svg>
