<svg width="22" height="40" viewBox="0 0 22 40" fill="none" xmlns="http://www.w3.org/2000/svg">
<g clip-path="url(#clip0_708_19122)">
<path d="M16.5803 12.4474C16.5702 12.8334 16.4098 13.2001 16.1333 13.4696C15.8567 13.739 15.4858 13.8898 15.0997 13.8898C14.7136 13.8898 14.3428 13.739 14.0662 13.4696C13.7897 13.2001 13.6292 12.8334 13.6191 12.4474C13.6191 12.0547 13.7751 11.6781 14.0528 11.4005C14.3305 11.1228 14.7071 10.9668 15.0997 10.9668C15.4924 10.9668 15.869 11.1228 16.1467 11.4005C16.4244 11.6781 16.5803 12.0547 16.5803 12.4474Z" fill="#EE4C2C"/>
<path d="M18.9846 14.4838L17.0432 16.4282C20.2791 19.6631 20.2791 24.9377 17.0432 28.1726C13.8042 31.4126 8.53366 31.4126 5.29367 28.1726C2.05976 24.9387 2.05976 19.6631 5.29367 16.4282L10.474 11.2478L11.1228 10.5078V6.62305L3.25904 14.4838C2.22644 15.5068 1.40677 16.7243 0.84739 18.066C0.288009 19.4076 0 20.8468 0 22.3004C0 23.754 0.288009 25.1932 0.84739 26.5348C1.40677 27.8765 2.22644 29.094 3.25904 30.117C4.28212 31.1498 5.49969 31.9696 6.84143 32.5291C8.18317 33.0885 9.62247 33.3766 11.0762 33.3766C12.5299 33.3766 13.9692 33.0885 15.3109 32.5291C16.6527 31.9696 17.8702 31.1498 18.8933 30.117C23.3326 25.769 23.3326 18.7406 18.9846 14.4838Z" fill="#EE4C2C"/>
</g>
<defs>
<clipPath id="clip0_708_19122">
<rect width="22" height="40" fill="white"/>
</clipPath>
</defs>
</svg>
