<svg width="40" height="40" viewBox="0 0 40 40" fill="none" xmlns="http://www.w3.org/2000/svg">
<path d="M12.8185 0.000565261C12.6163 0.00680379 12.3985 0.0815438 12.1514 0.276406C11.5466 0.0431341 10.9596 -0.0379669 10.435 0.437018C9.62484 0.331941 9.3616 0.548822 9.16209 0.802033C8.98423 0.798363 7.83132 0.619159 7.30252 1.4079C5.97383 1.25072 5.55389 2.18943 6.02973 3.06491C5.7583 3.48497 5.47707 3.90001 6.11169 4.70099C5.88723 5.14699 6.02643 5.6309 6.55524 6.21647C6.41579 6.84362 6.69004 7.28595 7.18215 7.63078C7.09004 8.48888 7.96906 8.98784 8.23145 9.16558C8.33224 9.66552 8.54227 10.1374 9.54619 10.3982C9.71181 11.1434 10.3151 11.2721 10.8995 11.4285C8.96833 12.551 7.3123 14.0278 7.32355 17.6517L7.04062 18.1563C4.82631 19.5028 2.83414 23.8309 5.94949 27.3487C6.15291 28.4499 6.4942 29.2408 6.79805 30.1162C7.25248 33.6435 10.2185 35.2952 11.0009 35.4906C12.1472 36.3637 13.3681 37.1922 15.0204 37.7727C16.5777 39.3789 18.2651 39.9911 19.9616 39.9902C19.9866 39.9902 23.4206 39.379 24.9781 37.7727C26.6302 37.1922 27.8511 36.3637 28.9977 35.4906C29.7798 35.2952 32.7458 33.6435 33.2003 30.1162C33.5041 29.2408 33.8454 28.4499 34.0489 27.3487C37.164 23.8305 35.172 19.5023 32.9578 18.1558L32.6744 17.6512C32.6856 14.0277 31.0296 12.5508 29.0985 11.428C29.6827 11.2716 30.2862 11.143 30.4516 10.3978C31.4555 10.1368 31.6657 9.66503 31.7664 9.16509C32.0289 8.98735 32.9078 8.48839 32.8159 7.63029C33.3078 7.28546 33.5821 6.84301 33.4426 6.21598C33.9715 5.63041 34.1106 5.1465 33.8861 4.70038C34.521 3.89989 34.2393 3.48485 33.9682 3.06479C34.4438 2.18931 34.0241 1.25047 32.6949 1.40778C32.1665 0.619036 31.0137 0.798119 30.8354 0.801788C30.636 0.5487 30.3727 0.331819 29.5626 0.436896C29.0379 -0.0380892 28.4513 0.0428894 27.8461 0.276284C27.1276 -0.290689 26.6522 0.163746 26.1091 0.335611C25.2392 0.0513298 25.0401 0.440688 24.6127 0.599342C23.664 0.398853 23.3757 0.835305 22.921 1.29598L22.3918 1.28546C20.9609 2.12876 20.2499 3.84595 19.9979 4.72876C19.7459 3.84583 19.0366 2.12864 17.6059 1.28546L17.0768 1.29598C16.6214 0.835305 16.3332 0.398853 15.3845 0.599342C14.9569 0.440688 14.7588 0.0513298 13.8881 0.335611C13.5316 0.222828 13.2038 -0.0115448 12.8179 0.000442937L2.99609 17.2477" fill="black"/>
<path d="M9.97108 3.71068C13.7675 5.66798 15.9746 7.25135 17.1838 8.59985C16.5646 11.0817 13.3343 11.195 12.1531 11.1254C12.3949 11.0128 12.5968 10.8779 12.6683 10.6708C12.3719 10.4602 11.3211 10.6485 10.5874 10.2364C10.8692 10.178 11.0011 10.1211 11.1328 9.91312C10.4397 9.69208 9.69304 9.5015 9.25389 9.13526C9.49084 9.1382 9.71212 9.18835 10.0216 8.97367C9.40081 8.63912 8.7383 8.37392 8.22356 7.86248C8.54454 7.85465 8.89059 7.8593 8.99126 7.74126C8.42307 7.38921 7.94356 6.99777 7.54674 6.56951C7.99591 6.6237 8.18564 6.5771 8.29426 6.49881C7.86466 6.05881 7.32105 5.68731 7.06185 5.14517C7.3953 5.26016 7.7005 5.30419 7.92044 5.13514C7.77451 4.80584 7.14918 4.61159 6.78906 3.84205C7.14026 3.87618 7.51261 3.91863 7.58711 3.84205C7.42417 3.17808 7.14454 2.80474 6.87029 2.41795C7.62172 2.40682 8.76032 2.42089 8.70882 2.3574L8.24411 1.88266C8.97818 1.68499 9.72925 1.91434 10.2746 2.08462C10.5193 1.89147 10.2702 1.64719 9.97145 1.39777C10.5953 1.48107 11.159 1.62444 11.6686 1.82199C11.9407 1.57624 11.4918 1.33037 11.2746 1.08462C12.2384 1.26737 12.6467 1.52438 13.0524 1.78162C13.3469 1.49942 13.0693 1.25954 12.8707 1.01392C13.5974 1.28303 13.9717 1.63055 14.3657 1.97355C14.4993 1.79324 14.7051 1.66101 14.4566 1.22603C14.9725 1.5234 15.3612 1.87386 15.6486 2.26652C15.9679 2.06321 15.8388 1.78529 15.8406 1.52902C16.3768 1.96523 16.7171 2.42945 17.1336 2.88266C17.2176 2.8215 17.291 2.61441 17.3559 2.2867C18.6351 3.52768 20.4426 6.65367 17.8205 7.89306C15.5889 6.05257 12.9237 4.71471 9.97022 3.71116L9.97108 3.71068ZM30.1152 3.71068C26.3192 5.66823 24.1121 7.2511 22.9031 8.59985C23.5223 11.0817 26.7525 11.195 27.9337 11.1254C27.6918 11.0128 27.49 10.8779 27.4185 10.6708C27.7149 10.4602 28.7658 10.6485 29.4994 10.2364C29.2176 10.178 29.0858 10.1211 28.954 9.91312C29.6472 9.69208 30.3938 9.5015 30.8329 9.13526C30.5959 9.1382 30.3746 9.18835 30.0651 8.97367C30.6861 8.63912 31.3486 8.37392 31.8633 7.86248C31.5422 7.85465 31.1962 7.8593 31.0956 7.74126C31.6638 7.38921 32.1433 6.99777 32.5401 6.56951C32.0908 6.6237 31.9012 6.5771 31.7926 6.49881C32.2221 6.05881 32.7658 5.68731 33.025 5.14517C32.6914 5.26016 32.3862 5.30419 32.1663 5.13514C32.3122 4.80584 32.9377 4.61159 33.2977 3.84205C32.9466 3.87618 32.5741 3.91863 32.4996 3.84205C32.6629 3.17783 32.9426 2.8045 33.2168 2.41771C32.4654 2.40658 31.3268 2.42064 31.3783 2.35716L31.843 1.8823C31.1089 1.68474 30.3579 1.9141 29.8125 2.08438C29.5678 1.89123 29.8168 1.64694 30.1155 1.39753C29.4918 1.48071 28.928 1.62419 28.4185 1.82175C28.1462 1.576 28.5953 1.33012 28.8125 1.08438C27.8488 1.26713 27.4404 1.52413 27.0346 1.78138C26.7401 1.49918 27.0178 1.2593 27.2165 1.01367C26.4897 1.28279 26.1154 1.63031 25.7214 1.9733C25.5877 1.793 25.382 1.66077 25.6304 1.22578C25.1146 1.52315 24.7259 1.87361 24.4385 2.26627C24.1192 2.06297 24.2483 1.78493 24.2466 1.52878C23.7103 1.96499 23.37 2.42908 22.9535 2.88242C22.8696 2.82126 22.7962 2.61416 22.7312 2.28633C21.4521 3.52743 19.6445 6.65343 22.2666 7.89282C24.497 6.05184 27.162 4.71422 30.1157 3.71068H30.1152Z" fill="#75A928"/>
<path d="M24.6393 28.9828C24.6525 31.2987 22.6272 33.1861 20.1157 33.1982C17.6042 33.2104 15.5575 31.3429 15.5442 29.0269C15.5441 29.0122 15.5441 28.9975 15.5442 28.9828C15.531 26.6669 17.5562 24.7796 20.0678 24.7673C22.5794 24.7551 24.626 26.6226 24.6393 28.9386V28.9828ZM17.4605 17.0037C19.3447 18.2383 19.6844 21.0366 18.2191 23.2538C16.7538 25.4712 14.0384 26.268 12.1542 25.0335C10.2699 23.7989 9.9303 21.0006 11.3955 18.7834C12.8608 16.566 15.5762 15.7692 17.4605 17.0037ZM22.5462 16.7802C20.662 18.0147 20.3223 20.8131 21.7875 23.0303C23.2529 25.2477 25.9682 26.0445 27.8525 24.8099C29.7368 23.5754 30.0765 20.7771 28.6112 18.5598C27.146 16.3425 24.4306 15.5457 22.5462 16.7802ZM8.04296 19.022C10.0773 18.4767 8.72981 27.4383 7.07452 26.703C5.25373 25.2385 4.6673 20.9497 8.04296 19.022ZM31.5531 18.9103C29.5184 18.3651 30.8662 27.3271 32.5215 26.5918C34.3423 25.1272 34.9287 20.8379 31.5531 18.9103ZM24.6409 12.2367C28.1517 11.6439 31.0731 13.7298 30.9551 17.5368C30.8397 18.9963 23.3474 12.4541 24.6409 12.2367ZM14.9406 12.125C11.4295 11.5321 8.50841 13.6185 8.62633 17.4252C8.7418 18.8847 16.2342 12.3424 14.9406 12.125ZM19.9838 11.2372C17.8883 11.1826 15.8773 12.7923 15.8724 13.726C15.8667 14.8604 17.5292 16.022 19.9981 16.0515C22.5192 16.0695 24.128 15.1217 24.136 13.951C24.1453 12.6245 21.8431 11.2168 19.9838 11.2372ZM20.1117 34.5008C21.9386 34.421 24.39 35.0892 24.3949 35.9757C24.4252 36.8363 22.1716 38.781 19.9906 38.7435C17.7318 38.841 15.5168 36.8932 15.5458 36.2181C15.512 35.2283 18.2962 34.4554 20.1117 34.5008ZM13.3638 29.2476C14.6645 30.8146 15.2575 33.5676 14.172 34.3792C13.1451 34.9988 10.6513 34.7436 8.8788 32.1972C7.68333 30.0604 7.83733 27.8861 8.67672 27.2473C9.93189 26.4828 11.8712 27.5156 13.3639 29.2476H13.3638ZM26.5993 28.7508C25.192 30.3991 24.4083 33.4056 25.4349 34.374C26.4165 35.1262 29.0516 35.021 30.9981 32.3203C32.4114 30.5063 31.9379 27.4769 31.1305 26.6725C29.9313 25.745 28.2096 26.9321 26.5993 28.7503V28.7508Z" fill="#BC1142"/>
</svg>
