<svg width="36" height="38" viewBox="0 0 36 38" fill="none" xmlns="http://www.w3.org/2000/svg">
<path d="M17.7772 22.1601C19.5224 22.1601 20.9372 20.7453 20.9372 19.0001C20.9372 17.2549 19.5224 15.8401 17.7772 15.8401C16.032 15.8401 14.6172 17.2549 14.6172 19.0001C14.6172 20.7453 16.032 22.1601 17.7772 22.1601Z" fill="#61DAFB"/>
<path fill-rule="evenodd" clip-rule="evenodd" d="M2.67045 17.0523C1.90771 17.7408 1.59224 18.4004 1.59224 19.0002C1.59224 19.6 1.90771 20.2596 2.67045 20.9481C3.4331 21.6366 4.57996 22.2919 6.06273 22.8581C9.02297 23.9883 13.1646 24.7036 17.7775 24.7036C22.3905 24.7036 26.5321 23.9883 29.4923 22.8581C30.9751 22.2919 32.1219 21.6366 32.8846 20.9481C33.6473 20.2596 33.9628 19.6 33.9628 19.0002C33.9628 18.4004 33.6473 17.7408 32.8846 17.0523C32.1219 16.3638 30.9751 15.7085 29.4923 15.1424C26.5321 14.0121 22.3905 13.2968 17.7775 13.2968C13.1646 13.2968 9.02297 14.0121 6.06273 15.1424C4.57996 15.7085 3.4331 16.3638 2.67045 17.0523ZM5.51289 13.7023C8.68952 12.4894 13.0259 11.7554 17.7775 11.7554C22.5291 11.7554 26.8655 12.4894 30.0422 13.7023C31.6278 14.3077 32.9641 15.0475 33.9175 15.9081C34.8708 16.7687 35.5043 17.8123 35.5043 19.0002C35.5043 20.1882 34.8708 21.2318 33.9175 22.0923C32.9641 22.953 31.6278 23.6927 30.0422 24.2981C26.8655 25.511 22.5291 26.2451 17.7775 26.2451C13.0259 26.2451 8.68952 25.511 5.51289 24.2981C3.92723 23.6927 2.59093 22.953 1.63755 22.0923C0.684246 21.2318 0.0507812 20.1882 0.0507812 19.0002C0.0507812 17.8123 0.684246 16.7687 1.63755 15.9081C2.59093 15.0475 3.92723 14.3077 5.51289 13.7023Z" fill="#61DAFB"/>
<path fill-rule="evenodd" clip-rule="evenodd" d="M11.912 4.94279C10.9343 4.62651 10.2054 4.68308 9.68596 4.983C9.1665 5.28291 8.75305 5.88589 8.53812 6.89071C8.32322 7.89542 8.32912 9.2163 8.5802 10.7835C9.08148 13.9123 10.5328 17.8566 12.8393 21.8516C15.1458 25.8465 17.836 29.0756 20.295 31.0741C21.5267 32.0751 22.6676 32.7407 23.6452 33.0569C24.6229 33.3732 25.3518 33.3167 25.8713 33.0167C26.3907 32.7168 26.8042 32.1138 27.0191 31.109C27.234 30.1043 27.2281 28.7834 26.977 27.2162C26.4757 24.0875 25.0244 20.1431 22.7179 16.1482C20.4114 12.1532 17.7212 8.92413 15.2622 6.92563C14.0305 5.92458 12.8896 5.25904 11.912 4.94279ZM16.2344 5.72942C18.8731 7.87402 21.677 11.2625 24.0528 15.3774C26.4286 19.4924 27.9611 23.6149 28.4991 26.9724C28.7676 28.6483 28.7951 30.1755 28.5265 31.4314C28.2578 32.6873 27.6708 33.7577 26.642 34.3517C25.6132 34.9457 24.3927 34.9189 23.1707 34.5236C21.9487 34.1282 20.6399 33.3408 19.3228 32.2703C16.6841 30.1257 13.8802 26.7373 11.5044 22.6223C9.1286 18.5073 7.59608 14.3848 7.05816 11.0273C6.78965 9.3514 6.76212 7.82427 7.03076 6.5683C7.29938 5.31243 7.88644 4.24203 8.91524 3.64806C9.94403 3.05408 11.1646 3.08087 12.3865 3.47618C13.6085 3.87151 14.9173 4.65891 16.2344 5.72942Z" fill="#61DAFB"/>
<path fill-rule="evenodd" clip-rule="evenodd" d="M27.0189 6.89098C26.804 5.88616 26.3905 5.28318 25.8711 4.98327C25.3516 4.68336 24.6227 4.62679 23.645 4.94307C22.6675 5.25932 21.5265 5.92486 20.2948 6.9259C17.8359 8.92441 15.1456 12.1535 12.8391 16.1484C10.5327 20.1434 9.0813 24.0877 8.58002 27.2165C8.32893 28.7837 8.32304 30.1046 8.53794 31.1093C8.75287 32.1141 9.16632 32.7171 9.68578 33.017C10.2052 33.3169 10.9342 33.3735 11.9118 33.0572C12.8894 32.741 14.0304 32.0754 15.262 31.0744C17.721 29.0759 20.4112 25.8468 22.7177 21.8518C25.0242 17.8569 26.4756 13.9125 26.9768 10.7838C27.2279 9.21657 27.2338 7.8957 27.0189 6.89098ZM28.4989 11.0276C27.961 14.3851 26.4284 18.5076 24.0526 22.6226C21.6769 26.7376 18.873 30.126 16.2342 32.2706C14.9171 33.3411 13.6083 34.1285 12.3863 34.5238C11.1644 34.9191 9.94385 34.9459 8.91505 34.352C7.88626 33.758 7.2992 32.6876 7.03058 31.4317C6.76194 30.1757 6.78947 28.6486 7.05798 26.9727C7.59589 23.6152 9.12842 19.4927 11.5042 15.3777C13.88 11.2627 16.6839 7.87429 19.3226 5.7297C20.6398 4.65919 21.9485 3.87179 23.1706 3.47645C24.3925 3.08115 25.613 3.05435 26.6418 3.64833C27.6706 4.24231 28.2576 5.3127 28.5263 6.56857C28.7949 7.82455 28.7674 9.35167 28.4989 11.0276Z" fill="#61DAFB"/>
</svg>
