<svg width="36" height="39" viewBox="0 0 36 39" fill="none" xmlns="http://www.w3.org/2000/svg">
<path d="M17.778 22.5426C19.5232 22.5426 20.938 21.1279 20.938 19.3826C20.938 17.6374 19.5232 16.2227 17.778 16.2227C16.0328 16.2227 14.618 17.6374 14.618 19.3826C14.618 21.1279 16.0328 22.5426 17.778 22.5426Z" fill="#9B9B9B"/>
<path fill-rule="evenodd" clip-rule="evenodd" d="M2.67093 17.4336C1.90819 18.1222 1.59273 18.7817 1.59273 19.3816C1.59273 19.9814 1.90819 20.6409 2.67093 21.3295C3.43359 22.0179 4.58045 22.6733 6.06322 23.2394C9.02346 24.3697 13.165 25.0849 17.778 25.0849C22.391 25.0849 26.5326 24.3697 29.4928 23.2394C30.9756 22.6733 32.1224 22.0179 32.8851 21.3295C33.6478 20.6409 33.9633 19.9814 33.9633 19.3816C33.9633 18.7817 33.6478 18.1222 32.8851 17.4336C32.1224 16.7452 30.9756 16.0898 29.4928 15.5237C26.5326 14.3934 22.391 13.6782 17.778 13.6782C13.165 13.6782 9.02346 14.3934 6.06322 15.5237C4.58045 16.0898 3.43359 16.7452 2.67093 17.4336ZM5.51338 14.0836C8.69001 12.8707 13.0264 12.1367 17.778 12.1367C22.5296 12.1367 26.866 12.8707 30.0426 14.0836C31.6283 14.6891 32.9646 15.4288 33.918 16.2894C34.8713 17.15 35.5048 18.1936 35.5048 19.3816C35.5048 20.5695 34.8713 21.6131 33.918 22.4737C32.9646 23.3343 31.6283 24.074 30.0426 24.6795C26.866 25.8924 22.5296 26.6264 17.778 26.6264C13.0264 26.6264 8.69001 25.8924 5.51338 24.6795C3.92771 24.074 2.59142 23.3343 1.63804 22.4737C0.684734 21.6131 0.0512695 20.5695 0.0512695 19.3816C0.0512695 18.1936 0.684734 17.15 1.63804 16.2894C2.59142 15.4288 3.92771 14.6891 5.51338 14.0836Z" fill="#9B9B9B"/>
<path fill-rule="evenodd" clip-rule="evenodd" d="M11.9113 5.32341C10.9337 5.00713 10.2048 5.0637 9.68529 5.36361C9.16583 5.66352 8.75238 6.2665 8.53745 7.27132C8.32255 8.27604 8.32845 9.59691 8.57953 11.1641C9.08081 14.2929 10.5322 18.2372 12.8387 22.2322C15.1451 26.2271 17.8354 29.4562 20.2943 31.4547C21.526 32.4558 22.667 33.1213 23.6445 33.4376C24.6222 33.7538 25.3511 33.6973 25.8706 33.3974C26.39 33.0974 26.8035 32.4945 27.0184 31.4896C27.2333 30.4849 27.2274 29.1641 26.9763 27.5969C26.4751 24.4681 25.0237 20.5237 22.7172 16.5288C20.4107 12.5338 17.7205 9.30475 15.2615 7.30624C14.0299 6.3052 12.8889 5.63966 11.9113 5.32341ZM16.2338 6.11004C18.8725 8.25463 21.6764 11.6431 24.0522 15.7581C26.4279 19.8731 27.9605 23.9955 28.4984 27.353C28.7669 29.029 28.7944 30.5561 28.5258 31.8121C28.2572 33.0679 27.6701 34.1383 26.6413 34.7323C25.6125 35.3263 24.392 35.2995 23.1701 34.9042C21.948 34.5088 20.6393 33.7214 19.3221 32.6509C16.6834 30.5063 13.8795 27.1179 11.5037 23.0029C9.12793 18.8879 7.5954 14.7654 7.05749 11.408C6.78898 9.73201 6.76145 8.20489 7.03009 6.94891C7.29871 5.69305 7.88577 4.62265 8.91456 4.02867C9.94336 3.4347 11.1639 3.46149 12.3858 3.85679C13.6078 4.25213 14.9166 5.03953 16.2338 6.11004Z" fill="#9B9B9B"/>
<path fill-rule="evenodd" clip-rule="evenodd" d="M27.0185 7.27258C26.8036 6.26775 26.3901 5.66478 25.8706 5.36486C25.3512 5.06495 24.6223 5.00838 23.6446 5.32466C22.667 5.64091 21.5261 6.30645 20.2944 7.30749C17.8354 9.306 15.1452 12.5351 12.8387 16.53C10.5322 20.525 9.08087 24.4693 8.57959 27.5981C8.32851 29.1653 8.32262 30.4862 8.53752 31.4909C8.75244 32.4957 9.16589 33.0987 9.68535 33.3986C10.2048 33.6985 10.9337 33.7551 11.9114 33.4388C12.889 33.1226 14.0299 32.457 15.2616 31.456C17.7206 29.4575 20.4108 26.2284 22.7173 22.2334C25.0238 18.2385 26.4751 14.2941 26.9764 11.1654C27.2275 9.59816 27.2334 8.27729 27.0185 7.27258ZM28.4984 11.4092C27.9605 14.7667 26.428 18.8892 24.0522 23.0042C21.6764 27.1191 18.8725 30.5076 16.2338 32.6522C14.9167 33.7227 13.6079 34.5101 12.3859 34.9054C11.1639 35.3007 9.94342 35.3275 8.91463 34.7335C7.88583 34.1396 7.29877 33.0692 7.03015 31.8133C6.76151 30.5573 6.78904 29.0302 7.05755 27.3543C7.59547 23.9968 9.12799 19.8743 11.5038 15.7593C13.8796 11.6443 16.6835 8.25588 19.3222 6.11129C20.6393 5.04078 21.9481 4.25338 23.1701 3.85804C24.3921 3.46274 25.6126 3.43595 26.6414 4.02992C27.6702 4.6239 28.2572 5.6943 28.5258 6.95016C28.7945 8.20614 28.767 9.73326 28.4984 11.4092Z" fill="#9B9B9B"/>
</svg>
