<svg width="40" height="40" viewBox="0 0 40 40" fill="none" xmlns="http://www.w3.org/2000/svg">
<path d="M11.6668 3.33594H10.0002C5.00016 3.33594 3.3335 6.31927 3.3335 10.0026V11.6693V35.0026C3.3335 36.3859 4.90016 37.1693 6.00016 36.3359L8.85016 34.2026C9.51683 33.7026 10.4502 33.7693 11.0502 34.3693L13.8168 37.1526C14.4668 37.8026 15.5335 37.8026 16.1835 37.1526L18.9835 34.3526C19.5668 33.7693 20.5002 33.7026 21.1502 34.2026L24.0002 36.3359C25.1002 37.1526 26.6668 36.3693 26.6668 35.0026V6.66927C26.6668 4.83594 28.1668 3.33594 30.0002 3.33594H11.6668ZM19.5835 17.9193H10.4168C9.7335 17.9193 9.16683 17.3526 9.16683 16.6693C9.16683 15.9859 9.7335 15.4193 10.4168 15.4193H19.5835C20.2668 15.4193 20.8335 15.9859 20.8335 16.6693C20.8335 17.3526 20.2668 17.9193 19.5835 17.9193Z" fill="#9B9B9B"/>
<path d="M30.0165 3.33594V5.83594C31.1165 5.83594 32.1665 6.28594 32.9332 7.03594C33.7332 7.8526 34.1665 8.9026 34.1665 10.0026V14.0359C34.1665 15.2693 33.6165 15.8359 32.3665 15.8359H29.1665V6.68594C29.1665 6.21927 29.5498 5.83594 30.0165 5.83594V3.33594ZM30.0165 3.33594C28.1665 3.33594 26.6665 4.83594 26.6665 6.68594V18.3359H32.3665C34.9998 18.3359 36.6665 16.6693 36.6665 14.0359V10.0026C36.6665 8.16927 35.9165 6.5026 34.7165 5.28594C33.4998 4.08594 31.8498 3.3526 30.0165 3.33594C30.0332 3.33594 30.0165 3.33594 30.0165 3.33594Z" fill="#9B9B9B"/>
</svg>
