<svg width="40" height="40" viewBox="0 0 40 40" fill="none" xmlns="http://www.w3.org/2000/svg">
<path d="M26.3002 3.33594H13.7002C7.40016 3.33594 5.8335 5.01927 5.8335 11.7359V30.5026C5.8335 34.9359 8.26683 35.9859 11.2168 32.8193L11.2335 32.8026C12.6002 31.3526 14.6835 31.4693 15.8668 33.0526L17.5502 35.3026C18.9002 37.0859 21.0835 37.0859 22.4335 35.3026L24.1168 33.0526C25.3168 31.4526 27.4002 31.3359 28.7668 32.8026C31.7335 35.9693 34.1502 34.9193 34.1502 30.4859V11.7359C34.1668 5.01927 32.6002 3.33594 26.3002 3.33594ZM12.9668 20.0026C12.0502 20.0026 11.3002 19.2526 11.3002 18.3359C11.3002 17.4193 12.0502 16.6693 12.9668 16.6693C13.8835 16.6693 14.6335 17.4193 14.6335 18.3359C14.6335 19.2526 13.8835 20.0026 12.9668 20.0026ZM12.9668 13.3359C12.0502 13.3359 11.3002 12.5859 11.3002 11.6693C11.3002 10.7526 12.0502 10.0026 12.9668 10.0026C13.8835 10.0026 14.6335 10.7526 14.6335 11.6693C14.6335 12.5859 13.8835 13.3359 12.9668 13.3359ZM27.0502 19.5859H17.8835C17.2002 19.5859 16.6335 19.0193 16.6335 18.3359C16.6335 17.6526 17.2002 17.0859 17.8835 17.0859H27.0502C27.7335 17.0859 28.3002 17.6526 28.3002 18.3359C28.3002 19.0193 27.7335 19.5859 27.0502 19.5859ZM27.0502 12.9193H17.8835C17.2002 12.9193 16.6335 12.3526 16.6335 11.6693C16.6335 10.9859 17.2002 10.4193 17.8835 10.4193H27.0502C27.7335 10.4193 28.3002 10.9859 28.3002 11.6693C28.3002 12.3526 27.7335 12.9193 27.0502 12.9193Z" fill="#9B9B9B"/>
</svg>
