<svg width="44" height="44" viewBox="0 0 44 44" fill="none" xmlns="http://www.w3.org/2000/svg">
<path d="M22.0002 0.332031C10.0618 0.332031 0.333496 10.0604 0.333496 21.9987C0.333496 33.937 10.0618 43.6654 22.0002 43.6654C33.9385 43.6654 43.6668 33.937 43.6668 21.9987C43.6668 10.0604 33.9385 0.332031 22.0002 0.332031ZM25.8785 28.4987C26.5068 29.127 26.5068 30.167 25.8785 30.7954C25.5535 31.1204 25.1418 31.272 24.7302 31.272C24.3185 31.272 23.9068 31.1204 23.5818 30.7954L15.9335 23.147C15.3052 22.5187 15.3052 21.4787 15.9335 20.8504L23.5818 13.202C24.2102 12.5737 25.2502 12.5737 25.8785 13.202C26.5068 13.8304 26.5068 14.8704 25.8785 15.4987L19.3785 21.9987L25.8785 28.4987Z" fill="#222222"/>
</svg>
