<svg width="1060" height="276" viewBox="0 0 1060 276" fill="none" xmlns="http://www.w3.org/2000/svg">
<path d="M356.308 270.049C356.317 270.049 356.326 270.049 356.335 270.049C356.637 270.034 356.87 269.779 356.855 269.476C356.844 269.266 355.821 248.433 355.164 240.166C355.14 239.865 354.878 239.641 354.575 239.664C354.274 239.688 354.049 239.951 354.073 240.253C354.729 248.502 355.75 269.32 355.761 269.529C355.777 269.823 356.02 270.049 356.308 270.049Z" fill="black"/>
<path d="M352.447 268.066C350.516 268.38 348.458 268.749 347.222 270.442C346.602 271.29 346.42 272.41 346.889 273.349C347.617 274.807 349.308 274.909 350.775 274.854C352.997 274.773 355.053 274.65 357.196 274.053C358.51 273.687 359.242 272.864 359.207 269.788C359.194 268.681 358.278 267.795 357.171 267.815C355.564 267.844 353.393 267.911 352.447 268.066Z" fill="#FF5233"/>
<path d="M350.258 275.41C350.438 275.41 350.618 275.406 350.795 275.399C352.978 275.319 355.121 275.197 357.343 274.578C359.135 274.08 359.789 272.78 359.755 269.781C359.747 269.101 359.473 268.463 358.983 267.988C358.492 267.512 357.842 267.254 357.161 267.268C355.508 267.299 353.331 267.369 352.358 267.526C350.495 267.829 348.177 268.206 346.78 270.119C346.006 271.179 345.86 272.51 346.4 273.593C347.163 275.117 348.723 275.41 350.258 275.41ZM357.21 268.361C357.59 268.361 357.948 268.506 358.223 268.772C358.501 269.043 358.659 269.406 358.662 269.793C358.697 272.825 357.985 273.264 357.052 273.524C354.943 274.112 352.871 274.229 350.757 274.307C349.342 274.359 347.953 274.249 347.381 273.104C347.024 272.39 347.133 271.494 347.665 270.764C348.798 269.214 350.784 268.89 352.536 268.606C353.245 268.49 354.896 268.403 357.183 268.362C357.191 268.361 357.201 268.361 357.21 268.361Z" fill="black"/>
<path d="M428.932 256.028C429.087 256.028 429.242 255.962 429.35 255.835C429.546 255.604 429.517 255.26 429.287 255.064C423.48 250.13 417.576 244.025 411.864 238.12C410.653 236.868 409.446 235.619 408.243 234.386C408.032 234.169 407.685 234.165 407.47 234.377C407.254 234.587 407.25 234.933 407.46 235.15C408.661 236.382 409.867 237.629 411.078 238.88C416.808 244.804 422.731 250.929 428.579 255.898C428.681 255.986 428.807 256.028 428.932 256.028Z" fill="black"/>
<path d="M429.4 250.632C430.506 249.017 431.716 247.312 433.772 246.914C434.803 246.714 435.893 247.025 436.544 247.85C437.553 249.129 436.926 250.703 436.253 252.007C435.234 253.983 434.248 255.791 432.796 257.477C431.905 258.512 430.848 258.824 428.08 257.483C427.084 257.001 426.672 255.795 427.162 254.802C427.873 253.36 428.859 251.422 429.4 250.632Z" fill="#FF5233"/>
<path d="M430.999 258.924C431.894 258.924 432.584 258.562 433.212 257.834C434.717 256.087 435.74 254.199 436.74 252.258C437.517 250.75 438.154 249.007 436.973 247.512C436.225 246.564 434.958 246.128 433.668 246.378C431.342 246.829 430.015 248.767 428.948 250.324C428.391 251.136 427.403 253.076 426.671 254.561C426.369 255.174 426.326 255.869 426.547 256.516C426.769 257.161 427.229 257.681 427.842 257.977C429.148 258.607 430.162 258.924 430.999 258.924ZM434.386 247.401C435.082 247.401 435.717 247.683 436.115 248.189C436.908 249.194 436.417 250.496 435.767 251.755C434.797 253.637 433.809 255.462 432.382 257.12C431.749 257.855 431.048 258.312 428.319 256.991C427.97 256.822 427.708 256.527 427.582 256.159C427.454 255.789 427.48 255.393 427.651 255.043C428.663 252.99 429.444 251.534 429.85 250.941C430.854 249.476 431.99 247.816 433.876 247.451C434.048 247.418 434.218 247.401 434.386 247.401Z" fill="black"/>
<path d="M286.229 175.215C286.441 175.215 286.644 175.1 286.75 174.9C292.254 164.452 300.137 159.151 313.111 157.173C313.432 157.124 313.653 156.824 313.604 156.503C313.555 156.182 313.254 155.963 312.933 156.01C299.55 158.05 291.408 163.536 285.71 174.351C285.559 174.639 285.669 174.994 285.956 175.145C286.044 175.193 286.137 175.215 286.229 175.215Z" fill="black"/>
<path d="M281.415 176.584C281.57 179.295 283.893 181.37 286.604 181.215C289.316 181.061 291.39 178.737 291.236 176.026C291.081 173.314 288.758 171.24 286.046 171.395C283.334 171.548 281.26 173.872 281.415 176.584Z" fill="#FF5233"/>
<path d="M286.318 181.769C286.424 181.769 286.53 181.765 286.635 181.76C288.093 181.677 289.43 181.031 290.403 179.943C291.375 178.854 291.865 177.45 291.782 175.993C291.611 172.984 289.027 170.681 286.015 170.846C283.007 171.018 280.699 173.605 280.87 176.613C280.953 178.07 281.598 179.408 282.687 180.381C283.696 181.283 284.976 181.769 286.318 181.769ZM286.331 171.933C287.405 171.933 288.428 172.322 289.237 173.042C290.108 173.819 290.625 174.89 290.691 176.055C290.758 177.221 290.366 178.342 289.588 179.213C288.811 180.084 287.74 180.6 286.573 180.667C285.409 180.734 284.286 180.342 283.415 179.564C282.544 178.787 282.027 177.716 281.962 176.55C281.825 174.144 283.672 172.074 286.077 171.938C286.162 171.935 286.246 171.933 286.331 171.933Z" fill="black"/>
<path d="M468.276 159.865C468.671 159.865 469.07 159.814 469.474 159.705C470.493 159.427 471.464 158.772 472.359 157.759C474.111 155.777 475.06 153.027 475.811 150.606C477.591 144.873 478.908 138.889 479.726 132.82C479.766 132.521 479.556 132.246 479.257 132.206C478.958 132.167 478.682 132.376 478.642 132.675C477.832 138.682 476.527 144.606 474.766 150.283C474.048 152.596 473.147 155.215 471.539 157.035C470.798 157.874 469.984 158.432 469.186 158.65C467.456 159.121 465.487 158.232 462.991 155.851C460.77 153.732 458.725 151.322 456.912 148.691C456.741 148.442 456.401 148.381 456.152 148.551C455.903 148.722 455.84 149.062 456.011 149.311C457.866 152.004 459.961 154.469 462.235 156.641C463.744 158.083 465.918 159.865 468.276 159.865Z" fill="black"/>
<path d="M475.7 119.648C474.119 115.72 475.356 110.836 478.618 108.137C479.397 107.491 480.513 106.955 481.382 107.474C482.168 107.943 482.304 109.005 482.357 109.919C482.474 111.964 482.59 114.009 482.708 116.054C482.972 120.674 486.954 119.881 489.977 122.181C491.644 123.449 492.934 126.043 493.245 128.079C495.178 140.768 488.22 142.45 480.19 141.271C477.338 140.852 473.664 139.662 472.595 137.561C470.635 133.716 471.407 121.098 475.7 119.648Z" fill="#FF5233"/>
<path d="M484.058 142.127C487.436 142.127 489.919 141.293 491.594 139.609C493.906 137.286 494.622 133.487 493.786 127.996C493.477 125.969 492.184 123.17 490.309 121.745C489.228 120.923 488.03 120.472 486.973 120.074C484.905 119.295 483.41 118.732 483.255 116.022L482.905 109.887C482.864 109.168 482.779 107.669 481.664 107.004C480.741 106.454 479.473 106.72 478.271 107.716C474.946 110.468 473.623 115.286 475.011 119.356C473.999 119.902 473.148 121.009 472.477 122.656C470.697 127.026 470.511 134.672 472.11 137.809C473.258 140.061 476.998 141.354 480.114 141.811C481.543 142.021 482.857 142.127 484.058 142.127ZM480.603 107.814C480.783 107.814 480.953 107.854 481.102 107.942C481.643 108.266 481.763 109.097 481.812 109.949L482.163 116.084C482.359 119.505 484.508 120.315 486.588 121.097C487.624 121.487 488.695 121.889 489.647 122.615C491.273 123.852 492.436 126.394 492.705 128.16C493.474 133.212 492.84 136.805 490.82 138.837C488.811 140.858 485.358 141.476 480.271 140.729C477.556 140.329 474.043 139.195 473.083 137.311C471.538 134.279 472.002 126.716 473.489 123.067C474.137 121.477 474.963 120.473 475.877 120.165C476.02 120.117 476.136 120.012 476.199 119.875C476.262 119.739 476.266 119.581 476.209 119.442C474.729 115.764 475.914 111.085 478.968 108.556C479.446 108.16 480.07 107.814 480.603 107.814Z" fill="black"/>
<path d="M477.759 123.142C477.905 123.142 478.051 123.084 478.159 122.97C478.365 122.749 478.355 122.403 478.133 122.197C477.246 121.367 476.734 120.514 476.192 119.407C476.06 119.135 475.732 119.023 475.46 119.155C475.189 119.288 475.076 119.615 475.209 119.887C475.804 121.105 476.377 122.05 477.384 122.994C477.491 123.093 477.625 123.142 477.759 123.142Z" fill="black"/>
<path d="M484.571 141.353C483.467 140.78 482.663 140.247 482.159 139.753C481.656 139.26 481.289 138.38 481.337 137.542C481.391 136.582 482.232 135.581 483.763 135.286C485.089 135.029 486.396 135.409 488.633 135.659C486.971 135.501 483.645 134.884 482.274 133.93C481.664 133.506 481.065 132.943 480.972 132.206C480.915 131.759 481.06 131.305 481.274 130.908C481.893 129.76 483.08 129.002 484.33 128.626C485.58 128.25 488.895 127.961 490.2 127.935C488.873 127.921 485.567 127.923 484.25 127.758C482.726 127.567 480.94 127.046 480.489 125.577C480.115 124.361 480.939 123.053 482.029 122.397C483.69 121.398 485.415 121.518 486.685 121.42C488.922 121.249 491.646 121.393 493.294 121.814C494.313 122.076 495.254 122.71 495.858 123.571C496.463 124.433 496.597 125.689 495.943 126.515C495.407 127.192 494.504 127.433 493.664 127.635C494.934 127.785 496.285 128.953 496.829 130.112C497.372 131.269 497.276 132.705 496.581 133.778C495.463 135.506 493.124 136.034 491.08 135.782C491.925 136.261 493.076 136.748 493.613 137.558C494.151 138.367 494.396 139.411 494.089 140.333C493.767 141.301 492.888 142.003 491.929 142.351C490.972 142.7 489.857 142.653 488.846 142.519C487.629 142.358 485.829 142.005 484.571 141.353Z" fill="#FF5233"/>
<path d="M490.195 143.167C490.82 143.167 491.491 143.095 492.116 142.867C493.331 142.425 494.263 141.542 494.607 140.507C494.946 139.489 494.745 138.274 494.068 137.256C493.822 136.886 493.485 136.582 493.112 136.319C494.63 136.118 496.142 135.462 497.039 134.076C497.832 132.849 497.944 131.202 497.322 129.88C496.952 129.094 496.213 128.236 495.31 127.676C495.704 127.486 496.077 127.227 496.37 126.856C497.225 125.776 496.984 124.228 496.304 123.258C495.633 122.3 494.584 121.581 493.427 121.285C491.755 120.857 489.027 120.691 486.639 120.875C486.424 120.892 486.195 120.902 485.955 120.913C484.744 120.965 483.235 121.032 481.744 121.929C480.506 122.673 479.497 124.22 479.963 125.738C480.369 127.057 481.645 127.898 483.759 128.241C482.413 128.736 481.368 129.58 480.79 130.651C480.485 131.216 480.362 131.764 480.427 132.276C480.524 133.041 481.025 133.729 481.959 134.38C482.241 134.576 482.596 134.759 482.998 134.926C481.551 135.431 480.844 136.538 480.789 137.513C480.735 138.457 481.132 139.515 481.774 140.145C482.322 140.684 483.155 141.238 484.317 141.84C485.746 142.579 487.722 142.923 488.771 143.061C489.177 143.115 489.669 143.167 490.195 143.167ZM491.079 135.236C490.845 135.236 490.634 135.385 490.559 135.611C490.477 135.858 490.581 136.129 490.809 136.257C490.977 136.353 491.155 136.447 491.339 136.545C492.023 136.909 492.8 137.322 493.157 137.86C493.648 138.6 493.803 139.46 493.57 140.161C493.33 140.881 492.647 141.509 491.742 141.837C490.816 142.173 489.687 142.078 488.918 141.976C488.129 141.872 486.152 141.555 484.822 140.867C483.773 140.324 483.005 139.818 482.543 139.363C482.119 138.947 481.847 138.211 481.883 137.573C481.922 136.885 482.551 136.077 483.868 135.822C484.713 135.658 485.588 135.787 486.799 135.965C486.965 135.989 487.139 136.015 487.32 136.041C487.788 136.114 488.218 136.169 488.583 136.203C488.88 136.232 489.147 136.014 489.178 135.715C489.209 135.416 488.994 135.148 488.695 135.116C488.223 135.063 487.789 135.004 487.391 134.946C485.654 134.669 483.539 134.143 482.587 133.48C481.922 133.017 481.57 132.578 481.515 132.136C481.478 131.854 481.56 131.528 481.755 131.167C482.424 129.925 483.755 129.37 484.489 129.149C485.648 128.8 488.894 128.508 490.211 128.482C490.51 128.477 490.749 128.232 490.747 127.933C490.746 127.634 490.505 127.392 490.206 127.389L489.534 127.384C487.994 127.372 485.418 127.353 484.319 127.215C482.418 126.977 481.306 126.372 481.012 125.416C480.714 124.446 481.459 123.379 482.311 122.866C483.563 122.114 484.862 122.056 486.007 122.005C486.259 121.994 486.5 121.983 486.726 121.967C488.969 121.795 491.615 121.95 493.157 122.345C494.066 122.577 494.887 123.139 495.41 123.887C495.847 124.509 496.031 125.523 495.514 126.177C495.104 126.693 494.376 126.902 493.536 127.104C493.278 127.166 493.102 127.405 493.117 127.669C493.133 127.933 493.336 128.148 493.599 128.179C494.6 128.298 495.827 129.268 496.334 130.345C496.799 131.334 496.715 132.564 496.122 133.482C495.072 135.104 492.787 135.443 491.148 135.239C491.124 135.237 491.101 135.236 491.079 135.236Z" fill="black"/>
<path d="M337.853 47.8662L339.092 69.6684C329.203 73.2057 318.135 78.3589 313.241 87.6524C309.82 94.1483 309.303 101.74 309.067 109.078C308.62 122.985 312.351 180.625 314.76 215.777C315.817 231.183 329.069 242.869 344.486 241.992L434.895 236.851C450.312 235.975 462.154 222.861 461.457 207.436C459.867 172.236 457.04 114.546 455.019 100.78C453.952 93.5156 452.578 86.0313 448.443 79.9645C442.527 71.2869 430.948 67.4198 420.721 65.0268L419.482 43.2246" fill="white"/>
<path d="M342.852 242.591C343.407 242.591 343.961 242.576 344.519 242.544L434.927 237.403C442.53 236.97 449.527 233.621 454.63 227.969C459.733 222.319 462.354 215.017 462.011 207.411C460.48 173.524 457.609 114.6 455.568 100.699C454.501 93.4335 453.108 85.8229 448.902 79.653C442.804 70.7074 430.99 66.8905 421.251 64.5839L420.034 43.1941C420.016 42.8887 419.751 42.6502 419.451 42.6734C419.145 42.6902 418.912 42.9518 418.93 43.2572L420.17 65.0594C420.184 65.3042 420.358 65.5104 420.596 65.5658C430.214 67.817 442.021 71.5231 447.987 80.2754C452.06 86.2508 453.425 93.7209 454.473 100.859C456.506 114.713 459.376 173.595 460.906 207.46C461.235 214.774 458.715 221.794 453.809 227.227C448.902 232.66 442.174 235.882 434.865 236.298L344.457 241.438C337.145 241.853 330.098 239.415 324.607 234.574C319.116 229.731 315.816 223.042 315.315 215.738C312.995 181.917 309.172 123.089 309.623 109.094C309.855 101.883 310.364 94.3072 313.733 87.9079C318.669 78.5358 329.979 73.5153 339.28 70.1881C339.511 70.1056 339.661 69.8814 339.646 69.6353L338.407 47.8331C338.39 47.5277 338.124 47.2906 337.823 47.3125C337.518 47.3292 337.284 47.5908 337.302 47.8962L338.519 69.2847C329.104 72.6803 317.799 77.8129 312.754 87.3912C309.275 93.9979 308.753 101.717 308.516 109.057C308.064 123.099 311.889 181.969 314.21 215.811C314.731 223.408 318.164 230.365 323.874 235.401C329.166 240.072 335.851 242.591 342.852 242.591Z" fill="black"/>
<path d="M338.604 61.0669L337.854 47.8662L419.482 43.2246L420.233 56.4253C413.468 57.6211 344.248 60.8865 338.604 61.0669Z" fill="black"/>
<path d="M325.232 226.886C328.819 230.268 336.49 235.078 348.978 234.197C353.145 233.903 406.305 230.929 414.153 230.49C425.181 229.874 438.883 229.779 446.405 227.905C451.326 226.68 458.263 221.804 461.332 211.669C459.921 225.193 448.878 236.057 434.893 236.852L344.485 241.993C329.068 242.869 315.816 231.182 314.759 215.778C314.509 212.14 314.246 208.26 313.974 204.213C315.952 210.013 319.888 221.848 325.232 226.886Z" fill="black"/>
<path d="M329.569 56.1925L428.655 50.5587C430.901 50.4311 432.619 48.5059 432.492 46.2598L430.135 4.80102C430.007 2.55495 428.082 0.835942 425.836 0.964805L326.75 6.59865C324.504 6.72622 322.786 8.65142 322.914 10.8975L325.271 52.3563C325.398 54.6024 327.323 56.3201 329.569 56.1925Z" fill="#000427"/>
<path d="M329.332 56.7464C329.421 56.7464 329.511 56.7438 329.6 56.7386L428.686 51.1048C431.23 50.9592 433.182 48.7724 433.038 46.2286L430.681 4.76986C430.611 3.53794 430.065 2.40653 429.144 1.58439C428.222 0.762247 427.041 0.346024 425.805 0.418187L326.719 6.05203C324.175 6.19635 322.223 8.38445 322.367 10.9282L324.724 52.387C324.795 53.6202 325.34 54.7516 326.261 55.5724C327.116 56.3353 328.197 56.7464 329.332 56.7464ZM426.072 1.5045C426.939 1.5045 427.764 1.81891 428.416 2.40008C429.119 3.02764 429.535 3.89102 429.588 4.83172L431.945 46.2905C432.056 48.2324 430.565 49.9025 428.623 50.0133L329.537 55.6472C328.595 55.7013 327.691 55.3843 326.988 54.7567C326.285 54.1292 325.868 53.2658 325.814 52.3251L323.457 10.8663C323.347 8.92437 324.838 7.25431 326.78 7.14349L425.865 1.50965C425.935 1.50578 426.003 1.5045 426.072 1.5045Z" fill="black"/>
<path d="M334.922 218.526L441.739 212.453C445.675 212.229 448.686 208.857 448.463 204.919L442.389 98.1009C442.165 94.1641 438.792 91.1539 434.855 91.3769L328.037 97.4501C324.101 97.6744 321.09 101.048 321.313 104.985L327.387 211.802C327.611 215.74 330.984 218.751 334.922 218.526Z" fill="#0096FF"/>
<path d="M334.511 219.126C334.658 219.126 334.806 219.122 334.954 219.113L441.772 213.04C443.833 212.923 445.726 212.01 447.099 210.469C448.474 208.929 449.166 206.946 449.049 204.886L442.976 98.0681C442.733 93.8143 439.08 90.5567 434.821 90.7912L328.004 96.8645C325.943 96.9818 324.05 97.8941 322.677 99.4353C321.302 100.975 320.61 102.958 320.727 105.02L326.8 211.838C327.033 215.942 330.449 219.126 334.511 219.126ZM435.265 91.9536C438.709 91.9536 441.605 94.6532 441.803 98.1351L447.876 204.953C447.976 206.7 447.388 208.382 446.223 209.687C445.058 210.992 443.454 211.767 441.706 211.866L334.889 217.939C331.274 218.148 328.18 215.376 327.974 211.77L321.901 104.952C321.802 103.205 322.388 101.523 323.554 100.216C324.719 98.9108 326.323 98.1364 328.071 98.0371L434.888 91.9639C435.013 91.9561 435.14 91.9536 435.265 91.9536Z" fill="black"/>
<path d="M385.984 159.276C386.136 159.276 386.285 159.218 386.399 159.105L393.812 151.707C394.042 151.478 394.043 151.105 393.813 150.876C393.584 150.646 393.212 150.645 392.982 150.875L385.904 157.937L376.337 151.784C376.064 151.609 375.701 151.688 375.525 151.961C375.35 152.234 375.429 152.597 375.702 152.773L385.667 159.182C385.763 159.245 385.874 159.276 385.984 159.276Z" fill="black"/>
<path d="M408.084 146.113C408.242 148.889 410.62 151.011 413.395 150.854C416.171 150.696 418.294 148.318 418.136 145.542C417.978 142.766 415.6 140.644 412.825 140.801C410.049 140.958 407.927 143.336 408.084 146.113Z" fill="#FF5233"/>
<path d="M404.351 138.087C404.209 135.604 402.879 134.439 401.325 134.528C399.771 134.616 398.581 135.924 398.722 138.407C398.862 140.89 400.193 142.055 401.748 141.966C403.302 141.878 404.491 140.57 404.351 138.087Z" fill="black"/>
<path d="M363.155 143.135C363.197 143.135 363.241 143.13 363.285 143.121L375.79 140.295C375.993 140.248 376.157 140.099 376.22 139.9C376.283 139.702 376.238 139.485 376.099 139.33L367.3 129.46C367.084 129.218 366.713 129.197 366.47 129.412C366.228 129.629 366.206 130 366.423 130.242L374.558 139.367L363.027 141.974C362.71 142.045 362.512 142.36 362.584 142.676C362.643 142.949 362.885 143.135 363.155 143.135Z" fill="black"/>
<path d="M375.659 140.309C375.916 140.309 376.15 140.14 376.224 139.882C376.313 139.57 376.132 139.244 375.821 139.155L361.449 135.041C361.135 134.951 360.811 135.132 360.722 135.444C360.632 135.756 360.813 136.082 361.125 136.171L375.496 140.285C375.551 140.301 375.605 140.309 375.659 140.309Z" fill="black"/>
<path d="M350.776 149.474C350.559 146.702 352.631 144.279 355.403 144.062C358.175 143.846 360.598 145.917 360.815 148.689C361.031 151.462 358.96 153.885 356.187 154.101C353.415 154.318 350.992 152.246 350.776 149.474Z" fill="#FF5233"/>
<path d="M438.76 187.438C438.802 187.438 438.843 187.437 438.886 187.435C440.092 187.366 441.015 186.333 440.945 185.127L439.989 168.32C439.921 167.114 438.886 166.194 437.681 166.261C436.475 166.33 435.552 167.363 435.622 168.569L436.577 185.375C436.644 186.539 437.609 187.438 438.76 187.438Z" fill="#00BFFF"/>
<path d="M440.176 198.855C440.218 198.855 440.259 198.854 440.302 198.851C441.508 198.783 442.431 197.75 442.361 196.544L442.145 192.724C442.076 191.518 441.043 190.597 439.837 190.664C438.63 190.732 437.708 191.765 437.777 192.971L437.995 196.791C438.06 197.956 439.024 198.855 440.176 198.855Z" fill="#00BFFF"/>
<path d="M352.589 35.8319C351.654 35.8904 350.792 35.6896 350.005 35.2295C349.218 34.7695 348.571 34.0914 348.062 33.1952C347.564 32.2983 347.277 31.2355 347.201 30.0067C347.124 28.778 347.277 27.6933 347.659 26.7528C348.042 25.8122 348.589 25.065 349.301 24.5112C350.025 23.9567 350.849 23.6506 351.773 23.5928C352.72 23.5336 353.582 23.7344 354.357 24.1951C355.144 24.6552 355.787 25.3337 356.284 26.2306C356.781 27.1162 357.068 28.179 357.145 29.419C357.222 30.6477 357.07 31.738 356.688 32.6899C356.305 33.6305 355.758 34.3777 355.045 34.9315C354.332 35.474 353.514 35.7741 352.589 35.8319ZM352.426 33.7542C352.967 33.7204 353.425 33.5389 353.8 33.2099C354.176 32.8809 354.452 32.4109 354.629 31.8001C354.817 31.1885 354.883 30.4375 354.828 29.5469C354.772 28.6564 354.613 27.9194 354.35 27.336C354.098 26.752 353.761 26.3261 353.336 26.0583C352.923 25.7786 352.446 25.6557 351.904 25.6895C351.375 25.7227 350.922 25.9037 350.546 26.2328C350.17 26.5505 349.888 27.0152 349.7 27.6267C349.522 28.2263 349.461 28.9714 349.517 29.8619C349.573 30.7637 349.727 31.5067 349.979 32.0908C350.242 32.6741 350.58 33.1057 350.994 33.3854C351.407 33.6651 351.884 33.788 352.426 33.7542ZM363.752 35.1341C362.816 35.1926 361.955 34.9918 361.168 34.5317C360.381 34.0717 359.733 33.3935 359.225 32.4974C358.727 31.6005 358.44 30.5377 358.363 29.3089C358.286 28.0802 358.439 26.9955 358.822 26.0549C359.204 25.1144 359.752 24.3672 360.464 23.8134C361.188 23.2589 362.012 22.9527 362.936 22.895C363.883 22.8358 364.744 23.0366 365.52 23.4973C366.307 23.9574 366.949 24.6359 367.447 25.5327C367.943 26.4184 368.231 27.4812 368.308 28.7212C368.385 29.9499 368.232 31.0402 367.85 31.9921C367.468 32.9327 366.92 33.6798 366.208 34.2336C365.495 34.7761 364.677 35.0763 363.752 35.1341ZM363.588 33.0564C364.129 33.0225 364.588 32.8411 364.963 32.5121C365.339 32.183 365.615 31.7131 365.792 31.1023C365.98 30.4907 366.046 29.7396 365.99 28.8491C365.935 27.9585 365.776 27.2216 365.513 26.6382C365.261 26.0541 364.923 25.6282 364.499 25.3605C364.086 25.0808 363.608 24.9579 363.067 24.9917C362.537 25.0248 362.085 25.2059 361.709 25.5349C361.333 25.8527 361.051 26.3174 360.863 26.9289C360.685 27.5285 360.624 28.2735 360.68 29.1641C360.736 30.0659 360.89 30.8089 361.142 31.3929C361.405 31.9763 361.743 32.4078 362.156 32.6875C362.57 32.9672 363.047 33.0902 363.588 33.0564ZM371.37 34.4881L374.674 29.2229L375.487 28.9175C375.367 29.1852 375.224 29.4262 375.056 29.6404C374.899 29.8426 374.689 30.0029 374.424 30.1212C374.16 30.2396 373.808 30.3125 373.369 30.34C372.67 30.3837 372.017 30.2604 371.41 29.9702C370.814 29.6679 370.323 29.2346 369.937 28.6703C369.551 28.1059 369.334 27.4461 369.287 26.6908C369.239 25.9243 369.387 25.2134 369.731 24.5582C370.074 23.8916 370.561 23.352 371.192 22.9391C371.822 22.5262 372.538 22.2947 373.338 22.2447C374.15 22.194 374.888 22.3345 375.554 22.6664C376.231 22.9975 376.775 23.4614 377.186 24.0582C377.608 24.6542 377.843 25.3355 377.891 26.1021C377.956 27.1504 377.656 28.233 376.99 29.3497L373.991 34.3243L371.37 34.4881ZM373.732 28.5519C374.127 28.5272 374.471 28.4152 374.764 28.2158C375.057 28.0164 375.278 27.7536 375.427 27.4274C375.587 27.0892 375.655 26.7228 375.63 26.3283C375.604 25.9112 375.491 25.5504 375.291 25.2461C375.102 24.941 374.85 24.7078 374.534 24.5465C374.218 24.3739 373.862 24.2999 373.468 24.3245C373.073 24.3492 372.724 24.4672 372.421 24.6786C372.128 24.878 371.901 25.1411 371.74 25.4681C371.591 25.7943 371.529 26.1659 371.555 26.583C371.58 26.9888 371.688 27.3443 371.876 27.6494C372.077 27.9537 372.34 28.1862 372.667 28.3468C372.994 28.5075 373.349 28.5758 373.732 28.5519ZM383.317 33.911C382.506 33.9617 381.762 33.8272 381.085 33.5073C380.42 33.1755 379.876 32.7115 379.454 32.1155C379.042 31.5075 378.813 30.8202 378.765 30.0536C378.699 29.0053 378.994 27.9287 379.649 26.8239L382.648 21.8494L385.286 21.6845L381.999 26.9486L381.169 27.2382C381.277 26.9712 381.409 26.7366 381.566 26.5344C381.735 26.3314 381.957 26.1704 382.232 26.0514C382.507 25.9323 382.859 25.8594 383.288 25.8326C383.998 25.7882 384.651 25.9171 385.247 26.2194C385.842 26.5103 386.333 26.938 386.719 27.5023C387.105 28.0554 387.321 28.7096 387.368 29.4649C387.417 30.2427 387.269 30.9592 386.925 31.6145C386.582 32.2697 386.094 32.8038 385.464 33.2166C384.833 33.6295 384.118 33.861 383.317 33.911ZM383.188 31.8481C383.583 31.8234 383.927 31.7114 384.22 31.512C384.512 31.3013 384.739 31.0325 384.899 30.7056C385.059 30.3674 385.127 29.9954 385.101 29.5896C385.076 29.1838 384.963 28.8287 384.763 28.5243C384.562 28.2087 384.304 27.9702 383.988 27.8089C383.673 27.6475 383.318 27.5792 382.923 27.6038C382.529 27.6285 382.18 27.7465 381.876 27.9579C381.583 28.1573 381.356 28.4204 381.195 28.7474C381.046 29.0736 380.984 29.4396 381.009 29.8454C381.035 30.2512 381.142 30.6123 381.332 30.9286C381.532 31.233 381.79 31.4715 382.106 31.6441C382.433 31.8047 382.794 31.8727 383.188 31.8481ZM389.333 33.3652L388.59 21.478L390.889 21.3343L391.632 33.2214L389.333 33.3652ZM390.719 28.3896L390.591 26.3436L396.577 25.9694L396.705 28.0154L390.719 28.3896ZM390.407 23.4014L390.28 21.3723L396.554 20.9801L396.681 23.0092L390.407 23.4014ZM399.108 32.7541L398.365 20.8669L400.665 20.7231L401.408 32.6103L399.108 32.7541ZM400.495 27.7785L400.367 25.7325L406.353 25.3583L406.481 27.4043L400.495 27.7785ZM400.183 22.7903L400.056 20.7612L406.329 20.369L406.456 22.3981L400.183 22.7903Z" fill="white"/>
<path d="M918.03 270.049C918.039 270.049 918.048 270.049 918.057 270.049C918.359 270.034 918.592 269.779 918.576 269.476C918.566 269.266 917.543 248.433 916.886 240.166C916.861 239.865 916.6 239.641 916.297 239.664C915.995 239.688 915.771 239.951 915.794 240.253C916.45 248.502 917.472 269.32 917.482 269.529C917.499 269.823 917.741 270.049 918.03 270.049Z" fill="black"/>
<path d="M914.169 268.066C912.238 268.38 910.18 268.749 908.944 270.442C908.324 271.29 908.142 272.41 908.612 273.349C909.34 274.807 911.03 274.909 912.497 274.854C914.72 274.773 916.775 274.65 918.918 274.053C920.232 273.687 920.964 272.864 920.929 269.788C920.917 268.681 920 267.795 918.893 267.815C917.287 267.844 915.115 267.911 914.169 268.066Z" fill="#FF5233"/>
<path d="M911.98 275.41C912.16 275.41 912.339 275.406 912.517 275.399C914.7 275.319 916.843 275.197 919.065 274.578C920.857 274.08 921.51 272.78 921.477 269.781C921.469 269.101 921.195 268.463 920.705 267.988C920.214 267.512 919.563 267.254 918.883 267.268C917.23 267.299 915.053 267.369 914.08 267.526C912.217 267.829 909.899 268.206 908.502 270.119C907.727 271.179 907.582 272.51 908.122 273.593C908.884 275.117 910.445 275.41 911.98 275.41ZM918.932 268.361C919.312 268.361 919.67 268.506 919.945 268.772C920.223 269.043 920.38 269.406 920.384 269.793C920.419 272.825 919.706 273.264 918.773 273.524C916.665 274.112 914.593 274.229 912.478 274.307C911.063 274.359 909.674 274.249 909.102 273.104C908.745 272.39 908.855 271.494 909.387 270.764C910.52 269.214 912.505 268.89 914.258 268.606C914.967 268.49 916.617 268.403 918.905 268.362C918.912 268.361 918.923 268.361 918.932 268.361Z" fill="black"/>
<path d="M990.654 256.028C990.809 256.028 990.963 255.962 991.071 255.835C991.267 255.604 991.239 255.26 991.008 255.064C985.202 250.13 979.297 244.025 973.586 238.12C972.375 236.868 971.167 235.619 969.965 234.386C969.754 234.169 969.407 234.165 969.192 234.377C968.975 234.587 968.972 234.933 969.182 235.15C970.383 236.382 971.589 237.629 972.8 238.88C978.529 244.804 984.453 250.929 990.301 255.898C990.403 255.986 990.529 256.028 990.654 256.028Z" fill="black"/>
<path d="M991.122 250.632C992.227 249.017 993.437 247.312 995.494 246.914C996.525 246.714 997.615 247.025 998.266 247.85C999.275 249.129 998.647 250.703 997.975 252.007C996.955 253.983 995.969 255.791 994.517 257.477C993.627 258.512 992.57 258.824 989.802 257.483C988.806 257.001 988.394 255.795 988.883 254.802C989.595 253.36 990.58 251.422 991.122 250.632Z" fill="#FF5233"/>
<path d="M992.721 258.924C993.615 258.924 994.306 258.562 994.934 257.834C996.439 256.087 997.462 254.199 998.462 252.258C999.239 250.75 999.875 249.007 998.695 247.512C997.946 246.564 996.68 246.128 995.39 246.378C993.064 246.829 991.737 248.767 990.67 250.324C990.113 251.136 989.124 253.076 988.393 254.561C988.091 255.174 988.047 255.869 988.269 256.516C988.49 257.161 988.951 257.681 989.564 257.977C990.869 258.607 991.883 258.924 992.721 258.924ZM996.108 247.401C996.803 247.401 997.439 247.683 997.837 248.189C998.629 249.194 998.138 250.496 997.489 251.755C996.519 253.637 995.53 255.462 994.104 257.12C993.471 257.855 992.77 258.312 990.041 256.991C989.691 256.822 989.43 256.527 989.304 256.159C989.176 255.789 989.202 255.393 989.373 255.043C990.385 252.99 991.166 251.534 991.572 250.941C992.575 249.476 993.712 247.816 995.597 247.451C995.77 247.418 995.94 247.401 996.108 247.401Z" fill="black"/>
<path d="M847.951 175.215C848.162 175.215 848.365 175.1 848.471 174.9C853.975 164.452 861.859 159.151 874.832 157.173C875.153 157.124 875.374 156.824 875.325 156.503C875.276 156.182 874.976 155.963 874.655 156.01C861.271 158.05 853.13 163.536 847.431 174.351C847.28 174.639 847.39 174.994 847.677 175.145C847.765 175.193 847.858 175.215 847.951 175.215Z" fill="black"/>
<path d="M843.136 176.584C843.291 179.295 845.614 181.37 848.325 181.215C851.037 181.061 853.111 178.737 852.957 176.026C852.802 173.314 850.479 171.24 847.767 171.395C845.055 171.548 842.982 173.872 843.136 176.584Z" fill="#FF5233"/>
<path d="M848.04 181.769C848.145 181.769 848.251 181.765 848.357 181.76C849.814 181.677 851.152 181.031 852.124 179.943C853.096 178.854 853.586 177.45 853.503 175.993C853.332 172.984 850.748 170.681 847.737 170.846C844.728 171.018 842.42 173.605 842.591 176.613C842.674 178.07 843.319 179.408 844.408 180.381C845.417 181.283 846.697 181.769 848.04 181.769ZM848.052 171.933C849.126 171.933 850.149 172.322 850.958 173.042C851.829 173.819 852.346 174.89 852.412 176.055C852.479 177.221 852.087 178.342 851.309 179.213C850.532 180.084 849.461 180.6 848.295 180.667C847.13 180.734 846.007 180.342 845.136 179.564C844.265 178.787 843.748 177.716 843.683 176.55C843.546 174.144 845.393 172.074 847.799 171.938C847.884 171.935 847.967 171.933 848.052 171.933Z" fill="black"/>
<path d="M1030 159.865C1030.39 159.865 1030.79 159.814 1031.2 159.705C1032.21 159.427 1033.19 158.772 1034.08 157.759C1035.83 155.777 1036.78 153.027 1037.53 150.606C1039.31 144.873 1040.63 138.889 1041.45 132.82C1041.49 132.521 1041.28 132.246 1040.98 132.206C1040.68 132.167 1040.4 132.376 1040.36 132.675C1039.55 138.682 1038.25 144.606 1036.49 150.283C1035.77 152.596 1034.87 155.215 1033.26 157.035C1032.52 157.874 1031.71 158.432 1030.91 158.65C1029.18 159.121 1027.21 158.232 1024.71 155.851C1022.49 153.732 1020.45 151.322 1018.63 148.691C1018.46 148.442 1018.12 148.381 1017.87 148.551C1017.63 148.722 1017.56 149.062 1017.73 149.311C1019.59 152.004 1021.68 154.469 1023.96 156.641C1025.47 158.083 1027.64 159.865 1030 159.865Z" fill="black"/>
<path d="M1037.42 119.648C1035.84 115.72 1037.08 110.836 1040.34 108.137C1041.12 107.491 1042.23 106.955 1043.1 107.474C1043.89 107.943 1044.03 109.005 1044.08 109.919C1044.2 111.964 1044.31 114.009 1044.43 116.054C1044.69 120.674 1048.68 119.881 1051.7 122.181C1053.37 123.449 1054.66 126.043 1054.97 128.079C1056.9 140.768 1049.94 142.45 1041.91 141.271C1039.06 140.852 1035.39 139.662 1034.32 137.561C1032.36 133.716 1033.13 121.098 1037.42 119.648Z" fill="#FF5233"/>
<path d="M1045.78 142.127C1049.16 142.127 1051.64 141.293 1053.32 139.609C1055.63 137.286 1056.34 133.487 1055.51 127.996C1055.2 125.969 1053.91 123.17 1052.03 121.745C1050.95 120.923 1049.75 120.472 1048.69 120.074C1046.63 119.295 1045.13 118.732 1044.98 116.022L1044.63 109.887C1044.59 109.168 1044.5 107.669 1043.39 107.004C1042.46 106.454 1041.2 106.72 1039.99 107.716C1036.67 110.468 1035.34 115.286 1036.73 119.356C1035.72 119.902 1034.87 121.009 1034.2 122.656C1032.42 127.026 1032.23 134.672 1033.83 137.809C1034.98 140.061 1038.72 141.354 1041.84 141.811C1043.26 142.021 1044.58 142.127 1045.78 142.127ZM1042.33 107.814C1042.5 107.814 1042.67 107.854 1042.82 107.942C1043.37 108.266 1043.48 109.097 1043.53 109.949L1043.88 116.084C1044.08 119.505 1046.23 120.315 1048.31 121.097C1049.35 121.487 1050.42 121.889 1051.37 122.615C1052.99 123.852 1054.16 126.394 1054.43 128.16C1055.2 133.212 1054.56 136.805 1052.54 138.837C1050.53 140.858 1047.08 141.476 1041.99 140.729C1039.28 140.329 1035.76 139.195 1034.8 137.311C1033.26 134.279 1033.72 126.716 1035.21 123.067C1035.86 121.477 1036.68 120.473 1037.6 120.165C1037.74 120.117 1037.86 120.012 1037.92 119.875C1037.98 119.739 1037.99 119.581 1037.93 119.442C1036.45 115.764 1037.64 111.085 1040.69 108.556C1041.17 108.16 1041.79 107.814 1042.33 107.814Z" fill="black"/>
<path d="M1039.48 123.142C1039.63 123.142 1039.77 123.084 1039.88 122.97C1040.09 122.749 1040.08 122.403 1039.85 122.197C1038.97 121.367 1038.46 120.514 1037.91 119.407C1037.78 119.135 1037.45 119.023 1037.18 119.155C1036.91 119.288 1036.8 119.615 1036.93 119.887C1037.53 121.105 1038.1 122.05 1039.11 122.994C1039.21 123.093 1039.35 123.142 1039.48 123.142Z" fill="black"/>
<path d="M1046.29 141.353C1045.19 140.78 1044.38 140.247 1043.88 139.753C1043.38 139.26 1043.01 138.38 1043.06 137.542C1043.11 136.582 1043.95 135.581 1045.48 135.286C1046.81 135.029 1048.12 135.409 1050.35 135.659C1048.69 135.501 1045.37 134.884 1044 133.93C1043.39 133.506 1042.79 132.943 1042.69 132.206C1042.64 131.759 1042.78 131.305 1043 130.908C1043.62 129.76 1044.8 129.002 1046.05 128.626C1047.3 128.25 1050.62 127.961 1051.92 127.935C1050.59 127.921 1047.29 127.923 1045.97 127.758C1044.45 127.567 1042.66 127.046 1042.21 125.577C1041.84 124.361 1042.66 123.053 1043.75 122.397C1045.41 121.398 1047.14 121.518 1048.41 121.42C1050.64 121.249 1053.37 121.393 1055.02 121.814C1056.03 122.076 1056.98 122.71 1057.58 123.571C1058.18 124.433 1058.32 125.689 1057.66 126.515C1057.13 127.192 1056.23 127.433 1055.39 127.635C1056.66 127.785 1058.01 128.953 1058.55 130.112C1059.09 131.269 1059 132.705 1058.3 133.778C1057.18 135.506 1054.85 136.034 1052.8 135.782C1053.65 136.261 1054.8 136.748 1055.34 137.558C1055.87 138.367 1056.12 139.411 1055.81 140.333C1055.49 141.301 1054.61 142.003 1053.65 142.351C1052.69 142.7 1051.58 142.653 1050.57 142.519C1049.35 142.358 1047.55 142.005 1046.29 141.353Z" fill="#FF5233"/>
<path d="M1051.92 143.167C1052.54 143.167 1053.21 143.095 1053.84 142.867C1055.05 142.425 1055.98 141.542 1056.33 140.507C1056.67 139.489 1056.47 138.274 1055.79 137.256C1055.54 136.886 1055.21 136.582 1054.83 136.319C1056.35 136.118 1057.86 135.462 1058.76 134.076C1059.55 132.849 1059.67 131.202 1059.04 129.88C1058.67 129.094 1057.93 128.236 1057.03 127.676C1057.43 127.486 1057.8 127.227 1058.09 126.856C1058.95 125.776 1058.71 124.228 1058.03 123.258C1057.35 122.3 1056.31 121.581 1055.15 121.285C1053.48 120.857 1050.75 120.691 1048.36 120.875C1048.15 120.892 1047.92 120.902 1047.68 120.913C1046.47 120.965 1044.96 121.032 1043.47 121.929C1042.23 122.673 1041.22 124.22 1041.68 125.738C1042.09 127.057 1043.37 127.898 1045.48 128.241C1044.13 128.736 1043.09 129.58 1042.51 130.651C1042.21 131.216 1042.08 131.764 1042.15 132.276C1042.25 133.041 1042.75 133.729 1043.68 134.38C1043.96 134.576 1044.32 134.759 1044.72 134.926C1043.27 135.431 1042.57 136.538 1042.51 137.513C1042.46 138.457 1042.85 139.515 1043.5 140.145C1044.04 140.684 1044.88 141.238 1046.04 141.84C1047.47 142.579 1049.44 142.923 1050.49 143.061C1050.9 143.115 1051.39 143.167 1051.92 143.167ZM1052.8 135.236C1052.57 135.236 1052.36 135.385 1052.28 135.611C1052.2 135.858 1052.3 136.129 1052.53 136.257C1052.7 136.353 1052.88 136.447 1053.06 136.545C1053.74 136.909 1054.52 137.322 1054.88 137.86C1055.37 138.6 1055.52 139.46 1055.29 140.161C1055.05 140.881 1054.37 141.509 1053.46 141.837C1052.54 142.173 1051.41 142.078 1050.64 141.976C1049.85 141.872 1047.87 141.555 1046.54 140.867C1045.5 140.324 1044.73 139.818 1044.26 139.363C1043.84 138.947 1043.57 138.211 1043.6 137.573C1043.64 136.885 1044.27 136.077 1045.59 135.822C1046.43 135.658 1047.31 135.787 1048.52 135.965C1048.69 135.989 1048.86 136.015 1049.04 136.041C1049.51 136.114 1049.94 136.169 1050.3 136.203C1050.6 136.232 1050.87 136.014 1050.9 135.715C1050.93 135.416 1050.72 135.148 1050.42 135.116C1049.94 135.063 1049.51 135.004 1049.11 134.946C1047.38 134.669 1045.26 134.143 1044.31 133.48C1043.64 133.017 1043.29 132.578 1043.24 132.136C1043.2 131.854 1043.28 131.528 1043.48 131.167C1044.15 129.925 1045.48 129.37 1046.21 129.149C1047.37 128.8 1050.62 128.508 1051.93 128.482C1052.23 128.477 1052.47 128.232 1052.47 127.933C1052.47 127.634 1052.23 127.392 1051.93 127.389L1051.26 127.384C1049.72 127.372 1047.14 127.353 1046.04 127.215C1044.14 126.977 1043.03 126.372 1042.73 125.416C1042.44 124.446 1043.18 123.379 1044.03 122.866C1045.29 122.114 1046.58 122.056 1047.73 122.005C1047.98 121.994 1048.22 121.983 1048.45 121.967C1050.69 121.795 1053.34 121.95 1054.88 122.345C1055.79 122.577 1056.61 123.139 1057.13 123.887C1057.57 124.509 1057.75 125.523 1057.24 126.177C1056.83 126.693 1056.1 126.902 1055.26 127.104C1055 127.166 1054.82 127.405 1054.84 127.669C1054.85 127.933 1055.06 128.148 1055.32 128.179C1056.32 128.298 1057.55 129.268 1058.06 130.345C1058.52 131.334 1058.44 132.564 1057.84 133.482C1056.79 135.104 1054.51 135.443 1052.87 135.239C1052.85 135.237 1052.82 135.236 1052.8 135.236Z" fill="black"/>
<path d="M899.574 47.8662L900.814 69.6684C890.925 73.2057 879.857 78.3589 874.963 87.6524C871.542 94.1483 871.025 101.74 870.789 109.078C870.342 122.985 874.072 180.625 876.482 215.777C877.539 231.183 890.791 242.869 906.208 241.992L996.616 236.851C1012.03 235.975 1023.88 222.861 1023.18 207.436C1021.59 172.236 1018.76 114.546 1016.74 100.78C1015.67 93.5156 1014.3 86.0313 1010.16 79.9645C1004.25 71.2869 992.669 67.4198 982.443 65.0268L981.203 43.2246" fill="white"/>
<path d="M904.574 242.591C905.128 242.591 905.682 242.576 906.24 242.544L996.649 237.403C1004.25 236.97 1011.25 233.621 1016.35 227.969C1021.45 222.319 1024.08 215.017 1023.73 207.411C1022.2 173.524 1019.33 114.6 1017.29 100.699C1016.22 93.4335 1014.83 85.8229 1010.62 79.653C1004.53 70.7074 992.712 66.8905 982.973 64.5839L981.756 43.1941C981.738 42.8887 981.473 42.6502 981.172 42.6734C980.867 42.6902 980.634 42.9518 980.652 43.2572L981.891 65.0594C981.906 65.3042 982.079 65.5104 982.318 65.5658C991.936 67.817 1003.74 71.5231 1009.71 80.2754C1013.78 86.2508 1015.15 93.7209 1016.19 100.859C1018.23 114.713 1021.1 173.595 1022.63 207.46C1022.96 214.774 1020.44 221.794 1015.53 227.227C1010.62 232.66 1003.9 235.882 996.587 236.298L906.178 241.438C898.867 241.853 891.819 239.415 886.329 234.574C880.838 229.731 877.538 223.042 877.036 215.738C874.717 181.917 870.893 123.089 871.344 109.094C871.576 101.883 872.085 94.3072 875.455 87.9079C880.391 78.5358 891.701 73.5153 901.002 70.1881C901.233 70.1056 901.382 69.8814 901.368 69.6353L900.128 47.8331C900.112 47.5277 899.846 47.2906 899.545 47.3125C899.239 47.3292 899.006 47.5908 899.024 47.8962L900.24 69.2847C890.826 72.6803 879.521 77.8129 874.476 87.3912C870.997 93.9979 870.475 101.717 870.238 109.057C869.785 123.099 873.611 181.969 875.932 215.811C876.453 223.408 879.885 230.365 885.595 235.401C890.888 240.072 897.573 242.591 904.574 242.591Z" fill="black"/>
<path d="M900.326 61.0669L899.576 47.8662L981.203 43.2246L981.955 56.4253C975.189 57.6211 905.97 60.8865 900.326 61.0669Z" fill="black"/>
<path d="M886.953 226.886C890.541 230.268 898.212 235.078 910.7 234.197C914.866 233.903 968.027 230.929 975.875 230.49C986.903 229.874 1000.6 229.779 1008.13 227.905C1013.05 226.68 1019.98 221.804 1023.05 211.669C1021.64 225.193 1010.6 236.057 996.615 236.852L906.207 241.993C890.79 242.869 877.538 231.182 876.481 215.778C876.231 212.14 875.968 208.26 875.696 204.213C877.674 210.013 881.61 221.848 886.953 226.886Z" fill="black"/>
<path d="M891.291 56.1925L990.377 50.5587C992.623 50.4311 994.341 48.5059 994.213 46.2598L991.856 4.80102C991.729 2.55495 989.803 0.835942 987.557 0.964805L888.471 6.59865C886.225 6.72622 884.508 8.65142 884.635 10.8975L886.992 52.3563C887.12 54.6024 889.045 56.3201 891.291 56.1925Z" fill="#000427"/>
<path d="M912.324 36.687L912.196 34.641L915.223 34.4518C915.989 34.4038 916.65 34.2041 917.205 33.8525C917.76 33.4897 918.176 33.0053 918.455 32.3994C918.746 31.7927 918.866 31.0892 918.816 30.2889C918.767 29.511 918.561 28.8449 918.199 28.2904C917.835 27.7247 917.356 27.3019 916.761 27.0222C916.166 26.7313 915.491 26.6094 914.735 26.6566L911.658 26.849L911.53 24.803L914.641 24.6085C915.521 24.5535 916.341 24.6493 917.104 24.8959C917.877 25.1418 918.557 25.518 919.143 26.0246C919.74 26.5191 920.213 27.1177 920.563 27.8201C920.923 28.5218 921.131 29.3011 921.184 30.1578C921.238 31.0145 921.13 31.8191 920.86 32.5716C920.601 33.3121 920.212 33.9701 919.693 34.5458C919.174 35.1101 918.546 35.5624 917.809 35.9028C917.083 36.2424 916.286 36.4393 915.418 36.4936L912.324 36.687ZM910.751 36.7853L910.008 24.8981L912.308 24.7543L913.051 36.6415L910.751 36.7853ZM924.246 35.9417L927.55 30.6765L928.362 30.3711C928.243 30.6388 928.1 30.8798 927.932 31.094C927.775 31.2962 927.564 31.4565 927.3 31.5748C927.036 31.6932 926.684 31.7661 926.244 31.7936C925.546 31.8373 924.893 31.714 924.286 31.4238C923.69 31.1215 923.199 30.6882 922.813 30.1239C922.427 29.5595 922.21 28.8997 922.163 28.1444C922.115 27.3779 922.263 26.667 922.607 26.0118C922.95 25.3452 923.437 24.8056 924.067 24.3927C924.698 23.9798 925.413 23.7483 926.214 23.6983C927.025 23.6476 927.764 23.7881 928.43 24.12C929.107 24.4511 929.651 24.915 930.062 25.5118C930.484 26.1078 930.719 26.7891 930.767 27.5557C930.832 28.6041 930.532 29.6866 929.866 30.8033L926.867 35.7779L924.246 35.9417ZM926.608 30.0055C927.003 29.9808 927.346 29.8688 927.639 29.6694C927.933 29.47 928.154 29.2072 928.303 28.881C928.463 28.5428 928.531 28.1764 928.506 27.7819C928.48 27.3648 928.367 27.004 928.167 26.6997C927.978 26.3946 927.726 26.1614 927.41 26.0001C927.094 25.8275 926.738 25.7535 926.344 25.7782C925.949 25.8028 925.6 25.9208 925.296 26.1322C925.003 26.3316 924.776 26.5947 924.616 26.9217C924.466 27.2479 924.405 27.6195 924.431 28.0366C924.456 28.4424 924.563 28.7979 924.752 29.103C924.952 29.4073 925.216 29.6398 925.543 29.8005C925.87 29.9611 926.225 30.0294 926.608 30.0055ZM932.994 35.3948L932.251 23.5076L934.551 23.3639L935.294 35.2511L932.994 35.3948ZM934.685 35.2891L934.558 33.26L941.136 32.8488L941.263 34.8779L934.685 35.2891ZM934.367 30.1994L934.244 28.238L940.23 27.8638L940.353 29.8252L934.367 30.1994ZM934.069 25.431L933.942 23.4019L940.435 22.996L940.562 25.0251L934.069 25.431ZM948.474 34.5969C947.606 34.6511 946.791 34.5493 946.028 34.2915C945.264 34.0223 944.583 33.6292 943.985 33.1121C943.397 32.583 942.928 31.9559 942.577 31.2309C942.238 30.5052 942.041 29.714 941.988 28.8573C941.934 28.0006 942.031 27.191 942.277 26.4287C942.535 25.6657 942.923 24.9907 943.441 24.4038C943.97 23.8162 944.591 23.3417 945.304 22.9802C946.028 22.6181 946.83 22.4095 947.709 22.3546C948.656 22.2954 949.5 22.401 950.241 22.6716C950.982 22.9308 951.645 23.3138 952.231 23.8203L950.773 25.4732C950.423 25.1329 950.006 24.8761 949.52 24.7028C949.033 24.5295 948.475 24.4626 947.843 24.502C947.291 24.5366 946.79 24.6641 946.34 24.8846C945.9 25.0932 945.522 25.3884 945.207 25.7703C944.89 26.1409 944.657 26.5798 944.508 27.0871C944.358 27.5831 944.301 28.1242 944.338 28.7104C944.375 29.3078 944.499 29.8433 944.71 30.3167C944.921 30.7902 945.206 31.1967 945.567 31.5363C945.927 31.8646 946.339 32.1105 946.801 32.274C947.276 32.4367 947.789 32.5008 948.341 32.4663C949.006 32.4247 949.569 32.2877 950.03 32.0552C950.502 31.8219 950.89 31.5091 951.194 31.1167L952.847 32.5751C952.329 33.162 951.713 33.6305 950.999 33.9807C950.286 34.3309 949.444 34.5362 948.474 34.5969ZM954.544 34.0477L953.8 22.1605L956.1 22.0167L956.843 33.9039L954.544 34.0477ZM955.93 29.0721L955.802 27.0261L961.788 26.6519L961.916 28.6979L955.93 29.0721ZM955.618 24.0839L955.491 22.0548L961.765 21.6626L961.892 23.6917L955.618 24.0839ZM964.319 33.4366L963.576 21.5494L965.876 21.4056L966.619 33.2928L964.319 33.4366ZM965.706 28.461L965.578 26.415L971.564 26.0408L971.692 28.0868L965.706 28.461ZM965.394 23.4728L965.267 21.4437L971.54 21.0515L971.667 23.0806L965.394 23.4728Z" fill="white"/>
<path d="M891.054 56.7464C891.143 56.7464 891.233 56.7438 891.322 56.7386L990.408 51.1048C992.952 50.9592 994.904 48.7724 994.76 46.2286L992.403 4.76986C992.333 3.53794 991.787 2.40653 990.865 1.58439C989.944 0.762247 988.762 0.346024 987.527 0.418187L888.441 6.05203C885.897 6.19635 883.945 8.38445 884.089 10.9282L886.446 52.387C886.517 53.6202 887.062 54.7516 887.983 55.5724C888.838 56.3353 889.919 56.7464 891.054 56.7464ZM987.793 1.5045C988.661 1.5045 989.485 1.81891 990.137 2.40008C990.841 3.02764 991.257 3.89102 991.31 4.83172L993.667 46.2905C993.778 48.2324 992.287 49.9025 990.345 50.0133L891.259 55.6472C890.317 55.7013 889.412 55.3843 888.71 54.7567C888.006 54.1292 887.59 53.2658 887.536 52.3251L885.179 10.8663C885.068 8.92437 886.559 7.25431 888.501 7.14349L987.587 1.50965C987.657 1.50578 987.725 1.5045 987.793 1.5045Z" fill="black"/>
<path d="M896.644 218.526L1003.46 212.453C1007.4 212.229 1010.41 208.857 1010.18 204.919L1004.11 98.1009C1003.89 94.1641 1000.51 91.1539 996.576 91.3769L889.759 97.4501C885.822 97.6744 882.812 101.048 883.035 104.985L889.108 211.802C889.332 215.74 892.706 218.751 896.644 218.526Z" fill="#D9ECFF"/>
<path d="M896.233 219.126C896.38 219.126 896.528 219.122 896.676 219.113L1003.49 213.04C1005.55 212.923 1007.45 212.01 1008.82 210.469C1010.2 208.929 1010.89 206.946 1010.77 204.886L1004.7 98.0681C1004.45 93.8143 1000.8 90.5567 996.543 90.7912L889.725 96.8645C887.665 96.9818 885.772 97.8941 884.398 99.4353C883.023 100.975 882.331 102.958 882.448 105.02L888.522 211.838C888.755 215.942 892.171 219.126 896.233 219.126ZM996.986 91.9536C1000.43 91.9536 1003.33 94.6532 1003.52 98.1351L1009.6 204.953C1009.7 206.7 1009.11 208.382 1007.94 209.687C1006.78 210.992 1005.18 211.767 1003.43 211.866L896.61 217.939C892.996 218.148 889.902 215.376 889.695 211.77L883.622 104.952C883.523 103.205 884.109 101.523 885.276 100.216C886.44 98.9108 888.045 98.1364 889.792 98.0371L996.61 91.9639C996.735 91.9561 996.861 91.9536 996.986 91.9536Z" fill="black"/>
<path d="M947.705 159.276C947.858 159.276 948.007 159.218 948.12 159.105L955.534 151.707C955.763 151.478 955.765 151.105 955.535 150.876C955.306 150.646 954.933 150.645 954.704 150.875L947.626 157.937L938.059 151.784C937.786 151.609 937.422 151.688 937.247 151.961C937.072 152.234 937.15 152.597 937.424 152.773L947.388 159.182C947.485 159.245 947.596 159.276 947.705 159.276Z" fill="black"/>
<path d="M969.805 146.113C969.964 148.889 972.341 151.011 975.117 150.854C977.893 150.696 980.015 148.318 979.858 145.542C979.7 142.766 977.322 140.644 974.546 140.801C971.771 140.958 969.648 143.336 969.805 146.113Z" fill="#FF5233"/>
<path d="M966.072 138.087C965.93 135.604 964.601 134.439 963.047 134.528C961.492 134.616 960.303 135.924 960.444 138.407C960.584 140.89 961.915 142.055 963.469 141.966C965.023 141.878 966.213 140.57 966.072 138.087Z" fill="black"/>
<path d="M924.876 143.135C924.919 143.135 924.963 143.13 925.007 143.121L937.511 140.295C937.715 140.248 937.879 140.099 937.942 139.9C938.005 139.702 937.96 139.485 937.821 139.33L929.022 129.46C928.805 129.218 928.434 129.197 928.192 129.412C927.95 129.629 927.928 130 928.144 130.242L936.279 139.367L924.749 141.974C924.432 142.045 924.233 142.36 924.306 142.676C924.365 142.949 924.607 143.135 924.876 143.135Z" fill="black"/>
<path d="M937.381 140.309C937.638 140.309 937.872 140.14 937.946 139.882C938.034 139.57 937.854 139.244 937.542 139.155L923.17 135.041C922.857 134.951 922.532 135.132 922.443 135.444C922.353 135.756 922.535 136.082 922.847 136.171L937.218 140.285C937.273 140.301 937.327 140.309 937.381 140.309Z" fill="black"/>
<path d="M912.497 149.474C912.281 146.702 914.353 144.279 917.125 144.062C919.897 143.846 922.32 145.917 922.537 148.689C922.753 151.462 920.681 153.885 917.909 154.101C915.137 154.318 912.714 152.246 912.497 149.474Z" fill="#FF5233"/>
<path d="M1000.48 187.438C1000.52 187.438 1000.56 187.437 1000.61 187.435C1001.81 187.366 1002.74 186.333 1002.67 185.127L1001.71 168.32C1001.64 167.114 1000.61 166.194 999.403 166.261C998.196 166.33 997.274 167.363 997.343 168.569L998.298 185.375C998.365 186.539 999.33 187.438 1000.48 187.438Z" fill="#B9DCFF"/>
<path d="M1001.9 198.855C1001.94 198.855 1001.98 198.854 1002.02 198.851C1003.23 198.783 1004.15 197.75 1004.08 196.544L1003.87 192.724C1003.8 191.518 1002.76 190.597 1001.56 190.664C1000.35 190.732 999.43 191.765 999.499 192.971L999.717 196.791C999.781 197.956 1000.75 198.855 1001.9 198.855Z" fill="#B9DCFF"/>
<path d="M141.413 270.049C141.404 270.049 141.395 270.049 141.386 270.049C141.085 270.034 140.851 269.779 140.867 269.476C140.877 269.266 141.9 248.433 142.558 240.166C142.582 239.865 142.844 239.641 143.147 239.664C143.448 239.688 143.672 239.951 143.649 240.253C142.993 248.502 141.971 269.32 141.961 269.529C141.944 269.823 141.702 270.049 141.413 270.049Z" fill="black"/>
<path d="M145.274 268.066C147.206 268.38 149.264 268.749 150.5 270.442C151.12 271.29 151.301 272.41 150.832 273.349C150.104 274.807 148.414 274.909 146.947 274.854C144.724 274.773 142.669 274.65 140.526 274.053C139.212 273.687 138.48 272.864 138.514 269.788C138.527 268.681 139.443 267.795 140.55 267.815C142.157 267.844 144.329 267.911 145.274 268.066Z" fill="#FF5233"/>
<path d="M147.464 275.41C147.283 275.41 147.104 275.406 146.926 275.399C144.743 275.319 142.6 275.197 140.379 274.578C138.586 274.08 137.933 272.78 137.967 269.781C137.974 269.101 138.249 268.463 138.738 267.988C139.229 267.512 139.88 267.254 140.561 267.268C142.214 267.299 144.39 267.369 145.363 267.526C147.227 267.829 149.545 268.206 150.942 270.119C151.716 271.179 151.862 272.51 151.322 273.593C150.559 275.117 148.998 275.41 147.464 275.41ZM140.512 268.361C140.131 268.361 139.773 268.506 139.499 268.772C139.22 269.043 139.063 269.406 139.059 269.793C139.025 272.825 139.737 273.264 140.67 273.524C142.778 274.112 144.85 274.229 146.965 274.307C148.38 274.359 149.769 274.249 150.341 273.104C150.698 272.39 150.589 271.494 150.056 270.764C148.924 269.214 146.938 268.89 145.185 268.606C144.477 268.49 142.826 268.403 140.539 268.362C140.531 268.361 140.521 268.361 140.512 268.361Z" fill="black"/>
<path d="M68.7894 256.028C68.6348 256.028 68.4802 255.962 68.3719 255.835C68.176 255.604 68.2044 255.26 68.4351 255.064C74.2416 250.13 80.146 244.025 85.8572 238.12C87.0685 236.868 88.2759 235.619 89.4782 234.386C89.6896 234.169 90.0362 234.165 90.2514 234.377C90.4679 234.587 90.4718 234.933 90.2617 235.15C89.0607 236.382 87.8546 237.629 86.6433 238.88C80.9141 244.804 74.9903 250.929 69.1425 255.898C69.0407 255.986 68.9144 256.028 68.7894 256.028Z" fill="black"/>
<path d="M68.3217 250.632C67.216 249.017 66.006 247.312 63.9494 246.914C62.9185 246.714 61.8283 247.025 61.1776 247.85C60.1686 249.129 60.7961 250.703 61.4688 252.007C62.4881 253.983 63.4739 255.791 64.9262 257.477C65.8166 258.512 66.8733 258.824 69.6412 257.483C70.6373 257.001 71.0497 255.795 70.56 254.802C69.8487 253.36 68.8629 251.422 68.3217 250.632Z" fill="#FF5233"/>
<path d="M66.7224 258.924C65.828 258.924 65.1373 258.562 64.5098 257.834C63.0047 256.087 61.9815 254.199 60.9815 252.258C60.2045 250.75 59.5679 249.007 60.7483 247.512C61.497 246.564 62.7637 246.128 64.0536 246.378C66.3796 246.829 67.7069 248.767 68.7738 250.324C69.3305 251.136 70.3189 253.076 71.0508 254.561C71.3524 255.174 71.3962 255.869 71.1745 256.516C70.9529 257.161 70.4929 257.681 69.8795 257.977C68.5741 258.607 67.56 258.924 66.7224 258.924ZM63.3358 247.401C62.64 247.401 62.0047 247.683 61.6065 248.189C60.814 249.194 61.305 250.496 61.9545 251.755C62.9248 253.637 63.9132 255.462 65.3397 257.12C65.9724 257.855 66.6734 258.312 69.4027 256.991C69.7519 256.822 70.0135 256.527 70.1398 256.159C70.2673 255.789 70.2416 255.393 70.0702 255.043C69.0586 252.99 68.2777 251.534 67.8718 250.941C66.868 249.476 65.7314 247.816 63.8461 247.451C63.6735 247.418 63.5034 247.401 63.3358 247.401Z" fill="black"/>
<path d="M211.492 175.215C211.281 175.215 211.077 175.1 210.972 174.9C205.468 164.452 197.584 159.151 184.61 157.173C184.29 157.124 184.069 156.824 184.118 156.503C184.167 156.182 184.467 155.963 184.788 156.01C198.172 158.05 206.313 163.536 212.012 174.351C212.162 174.639 212.053 174.994 211.765 175.145C211.678 175.193 211.585 175.215 211.492 175.215Z" fill="black"/>
<path d="M216.307 176.584C216.152 179.295 213.829 181.37 211.117 181.215C208.406 181.061 206.332 178.737 206.486 176.026C206.641 173.314 208.964 171.24 211.675 171.395C214.388 171.548 216.461 173.872 216.307 176.584Z" fill="#FF5233"/>
<path d="M211.403 181.769C211.298 181.769 211.192 181.765 211.086 181.76C209.629 181.677 208.291 181.031 207.318 179.943C206.347 178.854 205.857 177.45 205.94 175.993C206.111 172.984 208.695 170.681 211.706 170.846C214.715 171.018 217.023 173.605 216.852 176.613C216.769 178.07 216.124 179.408 215.035 180.381C214.026 181.283 212.746 181.769 211.403 181.769ZM211.39 171.933C210.317 171.933 209.294 172.322 208.485 173.042C207.614 173.819 207.097 174.89 207.031 176.055C206.964 177.221 207.356 178.342 208.134 179.213C208.911 180.084 209.982 180.6 211.148 180.667C212.313 180.734 213.436 180.342 214.307 179.564C215.178 178.787 215.694 177.716 215.76 176.55C215.897 174.144 214.05 172.074 211.644 171.938C211.559 171.935 211.476 171.933 211.39 171.933Z" fill="black"/>
<path d="M29.4452 159.865C29.0509 159.865 28.6514 159.814 28.2481 159.705C27.2288 159.427 26.2572 158.772 25.3629 157.759C23.6104 155.777 22.6619 153.027 21.9107 150.606C20.1311 144.873 18.8141 138.889 17.9958 132.82C17.9559 132.521 18.1659 132.246 18.4649 132.206C18.7639 132.167 19.0396 132.376 19.0796 132.675C19.8901 138.682 21.1942 144.606 22.9557 150.283C23.6735 152.596 24.5742 155.215 26.1824 157.035C26.9234 157.874 27.7378 158.432 28.5355 158.65C30.2661 159.121 32.2351 158.232 34.7312 155.851C36.9515 153.732 38.9965 151.322 40.8096 148.691C40.981 148.442 41.3212 148.381 41.5699 148.551C41.8186 148.722 41.8817 149.062 41.7103 149.311C39.856 152.004 37.7607 154.469 35.4863 156.641C33.9773 158.083 31.8034 159.865 29.4452 159.865Z" fill="black"/>
<path d="M22.0215 119.648C23.6026 115.72 22.3655 110.836 19.104 108.137C18.3244 107.491 17.2085 106.955 16.34 107.474C15.5539 107.943 15.4173 109.005 15.3645 109.919C15.2472 111.964 15.1312 114.009 15.014 116.054C14.7498 120.674 10.768 119.881 7.74486 122.181C6.07738 123.449 4.78747 126.043 4.47692 128.079C2.54399 140.768 9.50125 142.45 17.5319 141.271C20.3836 140.852 24.0575 139.662 25.1271 137.561C27.0871 133.716 26.3152 121.098 22.0215 119.648Z" fill="#FF5233"/>
<path d="M13.6634 142.127C10.286 142.127 7.80278 141.293 6.12757 139.609C3.81579 137.286 3.09931 133.487 3.93563 127.996C4.2449 125.969 5.53738 123.17 7.41233 121.745C8.49348 120.923 9.6919 120.472 10.7486 120.074C12.8168 119.295 14.3116 118.732 14.4662 116.022L14.8167 109.887C14.858 109.168 14.943 107.669 16.0577 107.004C16.9803 106.454 18.2483 106.72 19.4506 107.716C22.7753 110.468 24.0987 115.286 22.7108 119.356C23.7224 119.902 24.5742 121.009 25.2443 122.656C27.0251 127.026 27.2107 134.672 25.6115 137.809C24.4634 140.061 20.7238 141.354 17.6079 141.811C16.1788 142.021 14.8644 142.127 13.6634 142.127ZM17.1182 107.814C16.9391 107.814 16.769 107.854 16.6195 107.942C16.0783 108.266 15.9585 109.097 15.9095 109.949L15.559 116.084C15.3631 119.505 13.2137 120.315 11.1339 121.097C10.0978 121.487 9.02697 121.889 8.07468 122.615C6.44844 123.852 5.2861 126.394 5.01678 128.16C4.24747 133.212 4.88148 136.805 6.90203 138.837C8.91099 140.858 12.3632 141.476 17.4507 140.729C20.1658 140.329 23.6786 139.195 24.6386 137.311C26.1837 134.279 25.7198 126.716 24.2327 123.067C23.5845 121.477 22.7585 120.473 21.8449 120.165C21.7018 120.117 21.5859 120.012 21.5227 119.875C21.4596 119.739 21.4557 119.581 21.5124 119.442C22.993 115.764 21.8075 111.085 18.7535 108.556C18.2754 108.16 17.6517 107.814 17.1182 107.814Z" fill="black"/>
<path d="M19.9623 123.142C19.8167 123.142 19.6711 123.084 19.5629 122.97C19.3567 122.749 19.367 122.403 19.5886 122.197C20.4752 121.367 20.9881 120.514 21.5293 119.407C21.662 119.135 21.9893 119.023 22.2612 119.155C22.5331 119.288 22.6453 119.615 22.5125 119.887C21.9172 121.105 21.345 122.05 20.3373 122.994C20.2304 123.093 20.0964 123.142 19.9623 123.142Z" fill="black"/>
<path d="M13.1504 141.353C14.2548 140.78 15.0589 140.247 15.5627 139.753C16.0653 139.26 16.4326 138.38 16.3849 137.542C16.3308 136.582 15.4893 135.581 13.9584 135.286C12.6324 135.029 11.3258 135.409 9.08871 135.659C10.751 135.501 14.077 134.884 15.4481 133.93C16.0576 133.506 16.6568 132.943 16.7496 132.206C16.8063 131.759 16.6619 131.305 16.448 130.908C15.8282 129.76 14.6414 129.002 13.3914 128.626C12.1415 128.25 8.82712 127.961 7.52175 127.935C8.84903 127.921 12.1543 127.923 13.4713 127.758C14.9957 127.567 16.7818 127.046 17.2328 125.577C17.6065 124.361 16.7831 123.053 15.6929 122.397C14.0319 121.398 12.3064 121.518 11.0371 121.42C8.80006 121.249 6.07592 121.393 4.42777 121.814C3.40847 122.076 2.46778 122.71 1.86342 123.571C1.25905 124.433 1.12504 125.689 1.77837 126.515C2.31443 127.192 3.21775 127.433 4.05794 127.635C2.78736 127.785 1.43688 128.953 0.893084 130.112C0.349286 131.269 0.445932 132.705 1.1405 133.778C2.25902 135.506 4.59787 136.034 6.64162 135.782C5.79628 136.261 4.64555 136.748 4.10819 137.558C3.57084 138.367 3.326 139.411 3.63269 140.333C3.95485 141.301 4.83369 142.003 5.79242 142.351C6.74987 142.7 7.86452 142.653 8.87609 142.519C10.0925 142.358 11.8927 142.005 13.1504 141.353Z" fill="#FF5233"/>
<path d="M7.52703 143.167C6.90205 143.167 6.23068 143.095 5.6057 142.867C4.39053 142.425 3.45885 141.542 3.11479 140.507C2.77588 139.489 2.97691 138.274 3.65344 137.256C3.89956 136.886 4.23718 136.582 4.60959 136.319C3.0916 136.118 1.58004 135.462 0.683164 134.076C-0.110626 132.849 -0.222737 131.202 0.399666 129.88C0.7695 129.094 1.50917 128.236 2.4112 127.676C2.01818 127.486 1.64447 127.227 1.35196 126.856C0.496313 125.776 0.737286 124.228 1.41768 123.258C2.08905 122.3 3.13799 121.581 4.29517 121.285C5.96651 120.857 8.69452 120.691 11.0823 120.875C11.2975 120.892 11.5269 120.902 11.7666 120.913C12.9779 120.965 14.4869 121.032 15.9778 121.929C17.2162 122.673 18.2252 124.22 17.7587 125.738C17.3528 127.057 16.077 127.898 13.9624 128.241C15.309 128.736 16.3541 129.58 16.9314 130.651C17.2368 131.216 17.3592 131.764 17.2948 132.276C17.1981 133.041 16.6969 133.729 15.7626 134.38C15.4804 134.576 15.126 134.759 14.724 134.926C16.1711 135.431 16.8773 136.538 16.9327 137.513C16.9868 138.457 16.5899 139.515 15.9482 140.145C15.3992 140.684 14.5668 141.238 13.4044 141.84C11.9753 142.579 9.99989 142.923 8.95096 143.061C8.54504 143.115 8.05278 143.167 7.52703 143.167ZM6.64304 135.236C6.87628 135.236 7.08761 135.385 7.16235 135.611C7.24482 135.858 7.14044 136.129 6.91236 136.257C6.74484 136.353 6.56701 136.447 6.38273 136.545C5.69848 136.909 4.92144 137.322 4.56449 137.86C4.07352 138.6 3.91889 139.46 4.15213 140.161C4.39181 140.881 5.07478 141.509 5.97939 141.837C6.90591 142.173 8.03475 142.078 8.80405 141.976C9.59269 141.872 11.5694 141.555 12.8993 140.867C13.9482 140.324 14.7162 139.818 15.1789 139.363C15.6028 138.947 15.8747 138.211 15.8386 137.573C15.8 136.885 15.1711 136.077 13.8542 135.822C13.0088 135.658 12.1338 135.787 10.9225 135.965C10.7563 135.989 10.5823 136.015 10.4019 136.041C9.93417 136.114 9.50377 136.169 9.13909 136.203C8.84142 136.232 8.57468 136.014 8.54375 135.715C8.51283 135.416 8.72802 135.148 9.02698 135.116C9.49862 135.063 9.93288 135.004 10.3311 134.946C12.0681 134.669 14.1828 134.143 15.135 133.48C15.8 133.017 16.1518 132.578 16.2072 132.136C16.2433 131.854 16.1621 131.528 15.9662 131.167C15.2974 129.925 13.9663 129.37 13.233 129.149C12.0733 128.8 8.82725 128.508 7.51028 128.482C7.21132 128.477 6.97292 128.232 6.97421 127.933C6.9755 127.634 7.21647 127.392 7.51543 127.389L8.18809 127.384C9.72799 127.372 12.3039 127.353 13.4031 127.215C15.3039 126.977 16.4159 126.372 16.7097 125.416C17.0074 124.446 16.2626 123.379 15.4108 122.866C14.1583 122.114 12.8593 122.056 11.715 122.005C11.4625 121.994 11.2215 121.983 10.996 121.967C8.75251 121.795 6.10697 121.95 4.56449 122.345C3.65601 122.577 2.83516 123.139 2.31198 123.887C1.87514 124.509 1.69086 125.523 2.2076 126.177C2.61738 126.693 3.34546 126.902 4.18564 127.104C4.44336 127.166 4.6199 127.405 4.60444 127.669C4.58897 127.933 4.38537 128.148 4.12249 128.179C3.12123 128.298 1.89447 129.268 1.38804 130.345C0.922847 131.334 1.00661 132.564 1.59937 133.482C2.6496 135.104 4.93432 135.443 6.57345 135.239C6.59793 135.237 6.62113 135.236 6.64304 135.236Z" fill="black"/>
<path d="M159.869 47.8662L158.629 69.6684C168.518 73.2057 179.586 78.3589 184.48 87.6524C187.902 94.1483 188.419 101.74 188.654 109.078C189.101 122.985 185.371 180.625 182.961 215.777C181.905 231.183 168.652 242.869 153.235 241.992L62.827 236.851C47.4099 235.975 35.5675 222.861 36.2646 207.436C37.8548 172.236 40.682 114.546 42.7026 100.78C43.7695 93.5156 45.1432 86.0313 49.2784 79.9645C55.1945 71.2869 66.774 67.4198 77.0005 65.0268L78.2401 43.2246" fill="white"/>
<path d="M154.869 242.591C154.315 242.591 153.761 242.576 153.203 242.544L62.7947 237.403C55.1919 236.97 48.1946 233.621 43.0917 227.969C37.9888 222.319 35.3677 215.017 35.7105 207.411C37.2414 173.524 40.1124 114.6 42.1536 100.699C43.2206 93.4335 44.6136 85.8229 48.8196 79.653C54.9174 70.7074 66.7315 66.8905 76.4708 64.5839L77.6873 43.1941C77.7053 42.8887 77.9708 42.6502 78.2711 42.6734C78.5765 42.6902 78.8097 42.9518 78.7917 43.2572L77.552 65.0594C77.5378 65.3042 77.3639 65.5104 77.1255 65.5658C67.5072 67.817 55.7009 71.5231 49.7345 80.2754C45.6612 86.2508 44.2966 93.7209 43.2489 100.859C41.2155 114.713 38.3457 173.595 36.8161 207.46C36.4862 214.774 39.0068 221.794 43.9126 227.227C48.8196 232.66 55.5475 235.882 62.8566 236.298L153.265 241.438C160.577 241.853 167.624 239.415 173.115 234.574C178.606 229.731 181.906 223.042 182.407 215.738C184.727 181.917 188.55 123.089 188.099 109.094C187.867 101.883 187.358 94.3072 183.988 87.9079C179.053 78.5358 167.743 73.5153 158.441 70.1881C158.211 70.1056 158.061 69.8814 158.075 69.6353L159.315 47.8331C159.332 47.5277 159.597 47.2906 159.899 47.3125C160.204 47.3292 160.437 47.5908 160.419 47.8962L159.203 69.2847C168.618 72.6803 179.923 77.8129 184.968 87.3912C188.447 93.9979 188.969 101.717 189.206 109.057C189.658 123.099 185.832 181.969 183.511 215.811C182.991 223.408 179.558 230.365 173.848 235.401C168.556 240.072 161.87 242.591 154.869 242.591Z" fill="black"/>
<path d="M159.118 61.0669L159.868 47.8662L78.24 43.2246L77.4888 56.4253C84.254 57.6211 153.474 60.8865 159.118 61.0669Z" fill="black"/>
<path d="M172.49 226.886C168.902 230.268 161.231 235.078 148.743 234.197C144.577 233.903 91.4163 230.929 83.5686 230.49C72.5406 229.874 58.8387 229.779 51.317 227.905C46.3958 226.68 39.4591 221.804 36.3896 211.669C37.8007 225.193 48.8442 236.057 62.8283 236.852L153.237 241.993C168.654 242.869 181.906 231.182 182.962 215.778C183.212 212.14 183.475 208.26 183.747 204.213C181.769 210.013 177.834 221.848 172.49 226.886Z" fill="black"/>
<path d="M168.157 56.1925L69.0707 50.5587C66.8246 50.4311 65.1069 48.5059 65.2345 46.2598L67.5913 4.80102C67.7189 2.55495 69.6441 0.835942 71.8902 0.964805L170.976 6.59865C173.222 6.72622 174.94 8.65142 174.812 10.8975L172.455 52.3563C172.328 54.6024 170.403 56.3201 168.157 56.1925Z" fill="#000427"/>
<path d="M168.389 56.7464C168.3 56.7464 168.21 56.7438 168.121 56.7386L69.0355 51.1048C66.4917 50.9592 64.5395 48.7724 64.6838 46.2286L67.0407 4.76986C67.1102 3.53794 67.6566 2.40653 68.578 1.58439C69.4994 0.762247 70.681 0.346024 71.9168 0.418187L171.003 6.05203C173.546 6.19635 175.499 8.38445 175.354 10.9282L172.997 52.387C172.927 53.6202 172.382 54.7516 171.46 55.5724C170.606 56.3353 169.525 56.7464 168.389 56.7464ZM71.6501 1.5045C70.7828 1.5045 69.9581 1.81891 69.3061 2.40008C68.6025 3.02764 68.1862 3.89102 68.1334 4.83172L65.7765 46.2905C65.6657 48.2324 67.1566 49.9025 69.0986 50.0133L168.185 55.6472C169.126 55.7013 170.031 55.3843 170.733 54.7567C171.437 54.1292 171.853 53.2658 171.907 52.3251L174.264 10.8663C174.375 8.92437 172.884 7.25431 170.942 7.14349L71.8562 1.50965C71.7867 1.50578 71.7184 1.5045 71.6501 1.5045Z" fill="black"/>
<path d="M162.799 218.526L55.983 212.453C52.0462 212.229 49.036 208.857 49.2589 204.919L55.3322 98.1009C55.5564 94.1641 58.93 91.1539 62.8668 91.3769L169.684 97.4501C173.621 97.6744 176.631 101.048 176.408 104.985L170.335 211.802C170.111 215.74 166.737 218.751 162.799 218.526Z" fill="#55CA15"/>
<path d="M163.21 219.126C163.064 219.126 162.915 219.122 162.767 219.113L55.9495 213.04C53.889 212.923 51.9961 212.01 50.6224 210.469C49.2474 208.929 48.5554 206.946 48.6727 204.886L54.746 98.0681C54.9882 93.8143 58.6415 90.5567 62.9004 90.7912L169.718 96.8645C171.779 96.9818 173.671 97.8941 175.045 99.4353C176.42 100.975 177.112 102.958 176.995 105.02L170.922 211.838C170.688 215.942 167.272 219.126 163.21 219.126ZM62.4571 91.9536C59.0126 91.9536 56.1171 94.6532 55.9186 98.1351L49.8453 204.953C49.7461 206.7 50.3337 208.382 51.4987 209.687C52.6636 210.992 54.2679 211.767 56.0153 211.866L162.833 217.939C166.447 218.148 169.541 215.376 169.748 211.77L175.821 104.952C175.92 103.205 175.334 101.523 174.168 100.216C173.003 98.9108 171.398 98.1364 169.651 98.0371L62.8334 91.9639C62.7084 91.9561 62.5821 91.9536 62.4571 91.9536Z" fill="black"/>
<path d="M111.738 159.276C111.586 159.276 111.436 159.218 111.323 159.105L103.909 151.707C103.68 151.478 103.679 151.105 103.908 150.876C104.138 150.646 104.51 150.645 104.739 150.875L111.818 157.937L121.384 151.784C121.658 151.609 122.021 151.688 122.196 151.961C122.372 152.234 122.293 152.597 122.02 152.773L112.055 159.182C111.958 159.245 111.847 159.276 111.738 159.276Z" fill="black"/>
<path d="M89.6379 146.113C89.4794 148.889 87.1019 151.011 84.3262 150.854C81.5505 150.696 79.4281 148.318 79.5853 145.542C79.7438 142.766 82.1214 140.644 84.897 140.801C87.6727 140.958 89.7951 143.336 89.6379 146.113Z" fill="#FF5233"/>
<path d="M93.3711 138.087C93.5129 135.604 94.8427 134.439 96.3968 134.528C97.9509 134.616 99.1403 135.924 98.9998 138.407C98.8594 140.89 97.5282 142.055 95.9741 141.966C94.4201 141.878 93.2307 140.57 93.3711 138.087Z" fill="black"/>
<path d="M134.567 143.135C134.524 143.135 134.481 143.13 134.437 143.121L121.932 140.295C121.728 140.248 121.565 140.099 121.502 139.9C121.438 139.702 121.484 139.485 121.623 139.33L130.421 129.46C130.638 129.218 131.009 129.197 131.251 129.412C131.494 129.629 131.515 130 131.299 130.242L123.164 139.367L134.695 141.974C135.012 142.045 135.21 142.36 135.138 142.676C135.079 142.949 134.836 143.135 134.567 143.135Z" fill="black"/>
<path d="M122.062 140.309C121.806 140.309 121.571 140.14 121.498 139.882C121.409 139.57 121.589 139.244 121.901 139.155L136.273 135.041C136.586 134.951 136.911 135.132 137 135.444C137.09 135.756 136.908 136.082 136.597 136.171L122.226 140.285C122.17 140.301 122.116 140.309 122.062 140.309Z" fill="black"/>
<path d="M146.946 149.474C147.163 146.702 145.091 144.279 142.319 144.062C139.547 143.846 137.124 145.917 136.907 148.689C136.69 151.462 138.762 153.885 141.534 154.101C144.307 154.318 146.73 152.246 146.946 149.474Z" fill="#FF5233"/>
<path d="M58.9621 187.438C58.9196 187.438 58.8784 187.437 58.8359 187.435C57.6297 187.366 56.7071 186.333 56.7766 185.127L57.7328 168.32C57.8011 167.114 58.8359 166.194 60.0407 166.261C61.2469 166.33 62.1695 167.363 62.0999 168.569L61.1451 185.375C61.0781 186.539 60.1129 187.438 58.9621 187.438Z" fill="#68E125"/>
<path d="M57.5461 198.855C57.5036 198.855 57.4624 198.854 57.4198 198.851C56.2137 198.783 55.291 197.75 55.3606 196.544L55.5771 192.724C55.6454 191.518 56.6789 190.597 57.885 190.664C59.0912 190.732 60.0138 191.765 59.9443 192.971L59.7265 196.791C59.662 197.956 58.6982 198.855 57.5461 198.855Z" fill="#68E125"/>
<path d="M94.9979 32.9906C94.1741 32.9559 93.4296 32.7833 92.7644 32.4726C92.0996 32.1507 91.553 31.7094 91.1244 31.1487L92.7113 29.7064C92.9227 30.0544 93.2329 30.3388 93.6419 30.5595C94.0622 30.7807 94.5262 30.902 95.034 30.9233C95.4967 30.9428 95.9009 30.875 96.2466 30.72C96.6035 30.5655 96.8843 30.3399 97.089 30.0433C97.3054 29.7359 97.4224 29.3734 97.44 28.9558C97.4586 28.5157 97.3727 28.1391 97.1824 27.8258C97.0034 27.513 96.7535 27.2708 96.4329 27.099C96.1123 26.9272 95.7489 26.8328 95.3426 26.8157C94.9138 26.7977 94.5221 26.8377 94.1675 26.9358C93.8247 27.0231 93.4903 27.1786 93.1644 27.4023L93.3611 25.9522C93.585 25.7356 93.8183 25.5645 94.061 25.4391C94.3041 25.3024 94.5738 25.2063 94.8701 25.151C95.1781 25.0848 95.5352 25.0603 95.9415 25.0774C96.8104 25.1139 97.5251 25.3249 98.0854 25.7103C98.6575 26.0848 99.0833 26.5775 99.3628 27.1884C99.6428 27.7881 99.7678 28.4434 99.7379 29.1543C99.7051 29.933 99.484 30.6189 99.0747 31.2121C98.6653 31.8054 98.1091 32.2624 97.406 32.5833C96.7147 32.8933 95.912 33.0291 94.9979 32.9906ZM93.1644 27.4023L92.1097 26.2726L92.8823 20.811L94.9643 20.8987L94.1205 26.4421L93.1644 27.4023ZM93.1537 22.8234L92.8823 20.811L99.4162 21.0861L99.3321 23.0835L93.1537 22.8234ZM104.354 33.3845C103.53 33.3498 102.786 33.1772 102.121 32.8665C101.456 32.5446 100.909 32.1033 100.481 31.5427L102.068 30.1003C102.279 30.4483 102.589 30.7327 102.998 30.9534C103.418 31.1746 103.883 31.2959 104.39 31.3172C104.853 31.3367 105.257 31.2689 105.603 31.1139C105.96 30.9594 106.241 30.7338 106.445 30.4372C106.662 30.1298 106.779 29.7673 106.796 29.3497C106.815 28.9096 106.729 28.533 106.539 28.2197C106.36 27.907 106.11 27.6647 105.789 27.4929C105.469 27.3212 105.105 27.2267 104.699 27.2096C104.27 27.1916 103.878 27.2316 103.524 27.3297C103.181 27.417 102.847 27.5725 102.521 27.7962L102.717 26.3462C102.941 26.1295 103.175 25.9584 103.417 25.833C103.66 25.6963 103.93 25.6002 104.226 25.5449C104.534 25.4787 104.892 25.4542 105.298 25.4713C106.167 25.5079 106.881 25.7188 107.442 26.1042C108.014 26.4787 108.44 26.9714 108.719 27.5824C108.999 28.182 109.124 28.8373 109.094 29.5482C109.061 30.3269 108.84 31.0128 108.431 31.6061C108.022 32.1993 107.465 32.6563 106.762 32.9772C106.071 33.2872 105.268 33.423 104.354 33.3845ZM102.521 27.7962L101.466 26.6665L102.239 21.2049L104.321 21.2926L103.477 26.836L102.521 27.7962ZM102.51 23.2173L102.239 21.2049L108.772 21.48L108.688 23.4774L102.51 23.2173ZM116.216 33.8839C115.347 33.8473 114.546 33.661 113.814 33.3249C113.083 32.9776 112.447 32.5156 111.906 31.9389C111.376 31.3514 110.975 30.6788 110.702 29.9211C110.44 29.164 110.327 28.3566 110.363 27.4989C110.399 26.6413 110.579 25.8463 110.904 25.1138C111.24 24.3818 111.696 23.751 112.273 23.2213C112.86 22.6921 113.527 22.285 114.274 21.9999C115.032 21.7153 115.851 21.5915 116.732 21.6286C117.68 21.6685 118.508 21.8616 119.217 22.208C119.926 22.5431 120.546 22.9931 121.076 23.5581L119.453 25.0498C119.141 24.6749 118.753 24.3759 118.287 24.1528C117.822 23.9298 117.273 23.8049 116.641 23.7783C116.088 23.755 115.576 23.8296 115.106 24.0019C114.647 24.1635 114.24 24.4177 113.886 24.7646C113.533 25.1001 113.256 25.5124 113.054 26.0013C112.853 26.479 112.741 27.0112 112.716 27.598C112.691 28.1961 112.758 28.7416 112.918 29.2344C113.078 29.7273 113.32 30.1614 113.643 30.5368C113.967 30.9008 114.351 31.1883 114.794 31.3991C115.249 31.6105 115.753 31.7278 116.305 31.7511C116.971 31.7791 117.545 31.7015 118.028 31.5183C118.522 31.3356 118.94 31.065 119.283 30.7064L120.775 32.3292C120.199 32.8589 119.537 33.2607 118.791 33.5345C118.045 33.8083 117.186 33.9247 116.216 33.8839ZM121.131 33.9213L126.423 22.2231L128.302 22.3022L132.574 34.403L130.12 34.2997L126.841 24.3773L127.687 24.4129L123.535 34.0225L121.131 33.9213ZM123.764 31.8107L123.845 29.881L130.243 30.1504L130.162 32.0801L123.764 31.8107ZM135.618 34.5312L136.119 22.6313L138.388 22.7268L137.887 34.6267L135.618 34.5312ZM133.699 24.5304L133.783 22.533L138.218 22.7197L138.134 24.7171L133.699 24.5304ZM143.333 35.0256C142.509 34.9909 141.765 34.8182 141.1 34.5076C140.435 34.1857 139.888 33.7444 139.46 33.1837L141.047 31.7413C141.258 32.0894 141.568 32.3737 141.977 32.5945C142.397 32.8156 142.861 32.9369 143.369 32.9583C143.832 32.9778 144.236 32.91 144.582 32.755C144.939 32.6004 145.22 32.3749 145.424 32.0782C145.641 31.7708 145.758 31.4083 145.775 30.9908C145.794 30.5507 145.708 30.174 145.518 29.8608C145.339 29.548 145.089 29.3057 144.768 29.134C144.448 28.9622 144.084 28.8678 143.678 28.8507C143.249 28.8326 142.857 28.8727 142.503 28.9708C142.16 29.0581 141.826 29.2136 141.5 29.4373L141.696 27.9872C141.92 27.7705 142.154 27.5995 142.396 27.474C142.639 27.3373 142.909 27.2413 143.205 27.1859C143.513 27.1198 143.87 27.0952 144.277 27.1123C145.146 27.1489 145.86 27.3599 146.421 27.7452C146.993 28.1198 147.419 28.6125 147.698 29.2234C147.978 29.8231 148.103 30.4783 148.073 31.1893C148.04 31.9679 147.819 32.6539 147.41 33.2471C147.001 33.8403 146.444 34.2974 145.741 34.6182C145.05 34.9283 144.247 35.064 143.333 35.0256ZM141.5 29.4373L140.445 28.3076L141.218 22.846L143.3 22.9336L142.456 28.477L141.5 29.4373ZM141.489 24.8583L141.218 22.846L147.751 23.121L147.667 25.1185L141.489 24.8583Z" fill="white"/>
<path d="M703.135 270.049C703.126 270.049 703.117 270.049 703.108 270.049C702.806 270.034 702.573 269.779 702.589 269.476C702.599 269.266 703.622 248.433 704.279 240.166C704.304 239.865 704.565 239.641 704.868 239.664C705.17 239.688 705.394 239.951 705.371 240.253C704.715 248.502 703.693 269.32 703.683 269.529C703.666 269.823 703.424 270.049 703.135 270.049Z" fill="black"/>
<path d="M706.996 268.066C708.928 268.38 710.986 268.749 712.222 270.442C712.841 271.29 713.023 272.41 712.554 273.349C711.826 274.807 710.135 274.909 708.669 274.854C706.446 274.773 704.391 274.65 702.248 274.053C700.933 273.687 700.201 272.864 700.236 269.788C700.249 268.681 701.165 267.795 702.272 267.815C703.879 267.844 706.05 267.911 706.996 268.066Z" fill="#FF5233"/>
<path d="M709.185 275.41C709.005 275.41 708.826 275.406 708.648 275.399C706.465 275.319 704.322 275.197 702.101 274.578C700.308 274.08 699.655 272.78 699.688 269.781C699.696 269.101 699.97 268.463 700.46 267.988C700.951 267.512 701.602 267.254 702.282 267.268C703.936 267.299 706.112 267.369 707.085 267.526C708.948 267.829 711.266 268.206 712.663 270.119C713.438 271.179 713.583 272.51 713.043 273.593C712.281 275.117 710.72 275.41 709.185 275.41ZM702.233 268.361C701.853 268.361 701.495 268.506 701.22 268.772C700.942 269.043 700.785 269.406 700.781 269.793C700.746 272.825 701.459 273.264 702.392 273.524C704.5 274.112 706.572 274.229 708.687 274.307C710.102 274.359 711.491 274.249 712.063 273.104C712.42 272.39 712.31 271.494 711.778 270.764C710.645 269.214 708.66 268.89 706.907 268.606C706.198 268.49 704.548 268.403 702.26 268.362C702.253 268.361 702.242 268.361 702.233 268.361Z" fill="black"/>
<path d="M630.511 256.028C630.356 256.028 630.202 255.962 630.094 255.835C629.898 255.604 629.926 255.26 630.157 255.064C635.963 250.13 641.868 244.025 647.579 238.12C648.79 236.868 649.998 235.619 651.2 234.386C651.411 234.169 651.758 234.165 651.973 234.377C652.19 234.587 652.193 234.933 651.983 235.15C650.782 236.382 649.576 237.629 648.365 238.88C642.636 244.804 636.712 250.929 630.864 255.898C630.762 255.986 630.636 256.028 630.511 256.028Z" fill="black"/>
<path d="M630.043 250.632C628.938 249.017 627.728 247.312 625.671 246.914C624.64 246.714 623.55 247.025 622.899 247.85C621.89 249.129 622.518 250.703 623.19 252.007C624.21 253.983 625.196 255.791 626.648 257.477C627.538 258.512 628.595 258.824 631.363 257.483C632.359 257.001 632.771 255.795 632.282 254.802C631.57 253.36 630.585 251.422 630.043 250.632Z" fill="#FF5233"/>
<path d="M628.444 258.924C627.55 258.924 626.859 258.562 626.231 257.834C624.726 256.087 623.703 254.199 622.703 252.258C621.926 250.75 621.29 249.007 622.47 247.512C623.219 246.564 624.485 246.128 625.775 246.378C628.101 246.829 629.429 248.767 630.496 250.324C631.052 251.136 632.041 253.076 632.773 254.561C633.074 255.174 633.118 255.869 632.896 256.516C632.675 257.161 632.215 257.681 631.601 257.977C630.296 258.607 629.282 258.924 628.444 258.924ZM625.058 247.401C624.362 247.401 623.726 247.683 623.328 248.189C622.536 249.194 623.027 250.496 623.676 251.755C624.646 253.637 625.635 255.462 627.061 257.12C627.694 257.855 628.395 258.312 631.124 256.991C631.474 256.822 631.735 256.527 631.861 256.159C631.989 255.789 631.963 255.393 631.792 255.043C630.78 252.99 629.999 251.534 629.593 250.941C628.59 249.476 627.453 247.816 625.568 247.451C625.395 247.418 625.225 247.401 625.058 247.401Z" fill="black"/>
<path d="M773.214 175.215C773.003 175.215 772.799 175.1 772.693 174.9C767.19 164.452 759.306 159.151 746.332 157.173C746.011 157.124 745.791 156.824 745.84 156.503C745.889 156.182 746.189 155.963 746.51 156.01C759.894 158.05 768.035 163.536 773.733 174.351C773.884 174.639 773.775 174.994 773.487 175.145C773.4 175.193 773.307 175.215 773.214 175.215Z" fill="black"/>
<path d="M778.029 176.584C777.874 179.295 775.551 181.37 772.84 181.215C770.128 181.061 768.054 178.737 768.208 176.026C768.363 173.314 770.686 171.24 773.398 171.395C776.11 171.548 778.184 173.872 778.029 176.584Z" fill="#FF5233"/>
<path d="M773.126 181.769C773.02 181.769 772.914 181.765 772.809 181.76C771.351 181.677 770.014 181.031 769.041 179.943C768.069 178.854 767.579 177.45 767.662 175.993C767.833 172.984 770.417 170.681 773.428 170.846C776.437 171.018 778.745 173.605 778.574 176.613C778.491 178.07 777.846 179.408 776.757 180.381C775.748 181.283 774.468 181.769 773.126 181.769ZM773.113 171.933C772.039 171.933 771.016 172.322 770.207 173.042C769.336 173.819 768.819 174.89 768.753 176.055C768.686 177.221 769.078 178.342 769.856 179.213C770.633 180.084 771.704 180.6 772.87 180.667C774.035 180.734 775.158 180.342 776.029 179.564C776.9 178.787 777.417 177.716 777.482 176.55C777.619 174.144 775.772 172.074 773.366 171.938C773.281 171.935 773.198 171.933 773.113 171.933Z" fill="black"/>
<path d="M591.167 159.865C590.773 159.865 590.373 159.814 589.97 159.705C588.95 159.427 587.979 158.772 587.085 157.759C585.332 155.777 584.384 153.027 583.632 150.606C581.853 144.873 580.536 138.889 579.718 132.82C579.678 132.521 579.888 132.246 580.187 132.206C580.486 132.167 580.761 132.376 580.801 132.675C581.612 138.682 582.916 144.606 584.677 150.283C585.395 152.596 586.296 155.215 587.904 157.035C588.645 157.874 589.459 158.432 590.257 158.65C591.988 159.121 593.957 158.232 596.453 155.851C598.673 153.732 600.718 151.322 602.531 148.691C602.703 148.442 603.043 148.381 603.292 148.551C603.54 148.722 603.603 149.062 603.432 149.311C601.578 152.004 599.482 154.469 597.208 156.641C595.699 158.083 593.525 159.865 591.167 159.865Z" fill="black"/>
<path d="M583.743 119.648C585.324 115.72 584.087 110.836 580.826 108.137C580.046 107.491 578.93 106.955 578.062 107.474C577.276 107.943 577.139 109.005 577.086 109.919C576.969 111.964 576.853 114.009 576.736 116.054C576.471 120.674 572.49 119.881 569.467 122.181C567.799 123.449 566.509 126.043 566.199 128.079C564.266 140.768 571.223 142.45 579.254 141.271C582.105 140.852 585.779 139.662 586.849 137.561C588.809 133.716 588.037 121.098 583.743 119.648Z" fill="#FF5233"/>
<path d="M575.385 142.127C572.008 142.127 569.524 141.293 567.849 139.609C565.537 137.286 564.821 133.487 565.657 127.996C565.967 125.969 567.259 123.17 569.134 121.745C570.215 120.923 571.414 120.472 572.47 120.074C574.538 119.295 576.033 118.732 576.188 116.022L576.538 109.887C576.58 109.168 576.665 107.669 577.779 107.004C578.702 106.454 579.97 106.72 581.172 107.716C584.497 110.468 585.82 115.286 584.433 119.356C585.444 119.902 586.296 121.009 586.966 122.656C588.747 127.026 588.932 134.672 587.333 137.809C586.185 140.061 582.445 141.354 579.33 141.811C577.9 142.021 576.586 142.127 575.385 142.127ZM578.84 107.814C578.661 107.814 578.491 107.854 578.341 107.942C577.8 108.266 577.68 109.097 577.631 109.949L577.281 116.084C577.085 119.505 574.935 120.315 572.856 121.097C571.819 121.487 570.749 121.889 569.796 122.615C568.17 123.852 567.008 126.394 566.738 128.16C565.969 133.212 566.603 136.805 568.624 138.837C570.633 140.858 574.085 141.476 579.172 140.729C581.887 140.329 585.4 139.195 586.36 137.311C587.905 134.279 587.441 126.716 585.954 123.067C585.306 121.477 584.48 120.473 583.567 120.165C583.424 120.117 583.308 120.012 583.244 119.875C583.181 119.739 583.177 119.581 583.234 119.442C584.715 115.764 583.529 111.085 580.475 108.556C579.997 108.16 579.373 107.814 578.84 107.814Z" fill="black"/>
<path d="M581.684 123.142C581.538 123.142 581.393 123.084 581.285 122.97C581.078 122.749 581.089 122.403 581.31 122.197C582.197 121.367 582.71 120.514 583.251 119.407C583.384 119.135 583.711 119.023 583.983 119.155C584.255 119.288 584.367 119.615 584.234 119.887C583.639 121.105 583.067 122.05 582.059 122.994C581.952 123.093 581.818 123.142 581.684 123.142Z" fill="black"/>
<path d="M574.872 141.353C575.976 140.78 576.781 140.247 577.284 139.753C577.787 139.26 578.154 138.38 578.107 137.542C578.052 136.582 577.211 135.581 575.68 135.286C574.354 135.029 573.047 135.409 570.81 135.659C572.473 135.501 575.799 134.884 577.17 133.93C577.779 133.506 578.378 132.943 578.471 132.206C578.528 131.759 578.384 131.305 578.17 130.908C577.55 129.76 576.363 129.002 575.113 128.626C573.863 128.25 570.549 127.961 569.243 127.935C570.571 127.921 573.876 127.923 575.193 127.758C576.717 127.567 578.503 127.046 578.954 125.577C579.328 124.361 578.505 123.053 577.415 122.397C575.754 121.398 574.028 121.518 572.759 121.42C570.522 121.249 567.798 121.393 566.149 121.814C565.13 122.076 564.189 122.71 563.585 123.571C562.981 124.433 562.847 125.689 563.5 126.515C564.036 127.192 564.939 127.433 565.78 127.635C564.509 127.785 563.159 128.953 562.615 130.112C562.071 131.269 562.168 132.705 562.862 133.778C563.981 135.506 566.32 136.034 568.363 135.782C567.518 136.261 566.367 136.748 565.83 137.558C565.293 138.367 565.048 139.411 565.354 140.333C565.677 141.301 566.555 142.003 567.514 142.351C568.472 142.7 569.586 142.653 570.598 142.519C571.814 142.358 573.614 142.005 574.872 141.353Z" fill="#FF5233"/>
<path d="M569.249 143.167C568.624 143.167 567.952 143.095 567.327 142.867C566.112 142.425 565.181 141.542 564.836 140.507C564.498 139.489 564.699 138.274 565.375 137.256C565.621 136.886 565.959 136.582 566.331 136.319C564.813 136.118 563.302 135.462 562.405 134.076C561.611 132.849 561.499 131.202 562.121 129.88C562.491 129.094 563.231 128.236 564.133 127.676C563.74 127.486 563.366 127.227 563.074 126.856C562.218 125.776 562.459 124.228 563.139 123.258C563.811 122.3 564.86 121.581 566.017 121.285C567.688 120.857 570.416 120.691 572.804 120.875C573.019 120.892 573.249 120.902 573.488 120.913C574.7 120.965 576.209 121.032 577.699 121.929C578.938 122.673 579.947 124.22 579.48 125.738C579.074 127.057 577.799 127.898 575.684 128.241C577.031 128.736 578.076 129.58 578.653 130.651C578.958 131.216 579.081 131.764 579.016 132.276C578.92 133.041 578.419 133.729 577.484 134.38C577.202 134.576 576.848 134.759 576.446 134.926C577.893 135.431 578.599 136.538 578.654 137.513C578.708 138.457 578.312 139.515 577.67 140.145C577.121 140.684 576.288 141.238 575.126 141.84C573.697 142.579 571.722 142.923 570.673 143.061C570.267 143.115 569.774 143.167 569.249 143.167ZM568.365 135.236C568.598 135.236 568.809 135.385 568.884 135.611C568.967 135.858 568.862 136.129 568.634 136.257C568.467 136.353 568.289 136.447 568.104 136.545C567.42 136.909 566.643 137.322 566.286 137.86C565.795 138.6 565.641 139.46 565.874 140.161C566.113 140.881 566.796 141.509 567.701 141.837C568.628 142.173 569.756 142.078 570.526 141.976C571.314 141.872 573.291 141.555 574.621 140.867C575.67 140.324 576.438 139.818 576.901 139.363C577.324 138.947 577.596 138.211 577.56 137.573C577.522 136.885 576.893 136.077 575.576 135.822C574.73 135.658 573.856 135.787 572.644 135.965C572.478 135.989 572.304 136.015 572.124 136.041C571.656 136.114 571.225 136.169 570.861 136.203C570.563 136.232 570.296 136.014 570.265 135.715C570.235 135.416 570.45 135.148 570.749 135.116C571.22 135.063 571.655 135.004 572.053 134.946C573.79 134.669 575.904 134.143 576.857 133.48C577.522 133.017 577.873 132.578 577.929 132.136C577.965 131.854 577.884 131.528 577.688 131.167C577.019 129.925 575.688 129.37 574.955 129.149C573.795 128.8 570.549 128.508 569.232 128.482C568.933 128.477 568.695 128.232 568.696 127.933C568.697 127.634 568.938 127.392 569.237 127.389L569.91 127.384C571.45 127.372 574.026 127.353 575.125 127.215C577.026 126.977 578.138 126.372 578.431 125.416C578.729 124.446 577.984 123.379 577.132 122.866C575.88 122.114 574.581 122.056 573.437 122.005C573.184 121.994 572.943 121.983 572.718 121.967C570.474 121.795 567.829 121.95 566.286 122.345C565.378 122.577 564.557 123.139 564.034 123.887C563.597 124.509 563.413 125.523 563.929 126.177C564.339 126.693 565.067 126.902 565.907 127.104C566.165 127.166 566.342 127.405 566.326 127.669C566.311 127.933 566.107 128.148 565.844 128.179C564.843 128.298 563.616 129.268 563.11 130.345C562.645 131.334 562.728 132.564 563.321 133.482C564.371 135.104 566.656 135.443 568.295 135.239C568.32 135.237 568.343 135.236 568.365 135.236Z" fill="black"/>
<path d="M721.591 47.8662L720.351 69.6684C730.24 73.2057 741.308 78.3589 746.202 87.6524C749.623 94.1483 750.14 101.74 750.376 109.078C750.823 122.985 747.093 180.625 744.683 215.777C743.626 231.183 730.374 242.869 714.957 241.992L624.549 236.851C609.132 235.975 597.289 222.861 597.986 207.436C599.576 172.236 602.404 114.546 604.424 100.78C605.491 93.5156 606.865 86.0313 611 79.9645C616.916 71.2869 628.496 67.4198 638.722 65.0268L639.962 43.2246" fill="white"/>
<path d="M716.591 242.591C716.037 242.591 715.483 242.576 714.925 242.544L624.516 237.403C616.914 236.97 609.916 233.621 604.813 227.969C599.71 222.319 597.089 215.017 597.432 207.411C598.963 173.524 601.834 114.6 603.875 100.699C604.942 93.4335 606.335 85.8229 610.541 79.653C616.639 70.7074 628.453 66.8905 638.193 64.5839L639.409 43.1941C639.427 42.8887 639.692 42.6502 639.993 42.6734C640.298 42.6902 640.531 42.9518 640.513 43.2572L639.274 65.0594C639.26 65.3042 639.086 65.5104 638.847 65.5658C629.229 67.817 617.423 71.5231 611.456 80.2754C607.383 86.2508 606.018 93.7209 604.971 100.859C602.937 114.713 600.067 173.595 598.538 207.46C598.208 214.774 600.728 221.794 605.634 227.227C610.541 232.66 617.269 235.882 624.578 236.298L714.987 241.438C722.298 241.853 729.346 239.415 734.837 234.574C740.327 229.731 743.627 223.042 744.129 215.738C746.448 181.917 750.272 123.089 749.821 109.094C749.589 101.883 749.08 94.3072 745.71 87.9079C740.774 78.5358 729.464 73.5153 720.163 70.1881C719.932 70.1056 719.783 69.8814 719.797 69.6353L721.037 47.8331C721.053 47.5277 721.319 47.2906 721.62 47.3125C721.926 47.3292 722.159 47.5908 722.141 47.8962L720.925 69.2847C730.339 72.6803 741.644 77.8129 746.689 87.3912C750.169 93.9979 750.69 101.717 750.928 109.057C751.38 123.099 747.554 181.969 745.233 215.811C744.712 223.408 741.28 230.365 735.57 235.401C730.277 240.072 723.592 242.591 716.591 242.591Z" fill="black"/>
<path d="M720.839 61.0669L721.589 47.8662L639.962 43.2246L639.21 56.4253C645.976 57.6211 715.195 60.8865 720.839 61.0669Z" fill="black"/>
<path d="M734.212 226.886C730.624 230.268 722.953 235.078 710.465 234.197C706.299 233.903 653.138 230.929 645.29 230.49C634.262 229.874 620.56 229.779 613.039 227.905C608.117 226.68 601.181 221.804 598.111 211.669C599.522 225.193 610.566 236.057 624.55 236.852L714.958 241.993C730.375 242.869 743.628 231.182 744.684 215.778C744.934 212.14 745.197 208.26 745.469 204.213C743.491 210.013 739.555 221.848 734.212 226.886Z" fill="black"/>
<path d="M729.878 56.1925L630.792 50.5587C628.546 50.4311 626.828 48.5059 626.956 46.2598L629.313 4.80102C629.44 2.55495 631.366 0.835942 633.612 0.964805L732.698 6.59865C734.944 6.72622 736.661 8.65142 736.534 10.8975L734.177 52.3563C734.049 54.6024 732.124 56.3201 729.878 56.1925Z" fill="#000427"/>
<path d="M656.413 33.049C655.477 33.0096 654.641 32.7201 653.906 32.1804C653.172 31.6408 652.598 30.8988 652.186 29.9544C651.784 29.0105 651.61 27.9235 651.661 26.6935C651.713 25.4634 651.978 24.4006 652.457 23.5051C652.936 22.6096 653.558 21.9236 654.324 21.4471C655.102 20.9711 655.953 20.7526 656.878 20.7916C657.826 20.8315 658.662 21.121 659.385 21.6602C660.12 22.1998 660.688 22.9416 661.089 23.8855C661.491 24.8181 661.666 25.9051 661.613 27.1464C661.562 28.3764 661.296 29.4449 660.817 30.3517C660.338 31.2472 659.716 31.9332 658.95 32.4097C658.184 32.8749 657.339 33.088 656.413 33.049ZM656.467 30.9656C657.009 30.9884 657.483 30.8557 657.891 30.5677C658.299 30.2796 658.623 29.841 658.862 29.252C659.113 28.6634 659.257 27.9233 659.295 27.0318C659.333 26.1403 659.251 25.3908 659.05 24.7832C658.861 24.1761 658.57 23.7172 658.176 23.4067C657.794 23.0854 657.332 22.9133 656.79 22.8905C656.26 22.8682 655.791 23.0011 655.383 23.2891C654.975 23.5659 654.646 23.9986 654.395 24.5872C654.156 25.165 654.018 25.8996 653.981 26.7911C653.943 27.6939 654.018 28.4489 654.207 29.056C654.408 29.6636 654.699 30.128 655.081 30.4494C655.463 30.7707 655.925 30.9427 656.467 30.9656ZM667.588 33.5195C666.651 33.4801 665.816 33.1905 665.081 32.6509C664.346 32.1112 663.773 31.3692 663.36 30.4249C662.959 29.481 662.784 28.394 662.836 27.164C662.888 25.9339 663.153 24.8711 663.632 23.9756C664.11 23.08 664.733 22.394 665.499 21.9176C666.276 21.4416 667.128 21.2231 668.053 21.262C669.001 21.3019 669.837 21.5915 670.56 22.1306C671.295 22.6703 671.863 23.4121 672.264 24.356C672.666 25.2886 672.84 26.3755 672.788 27.6169C672.736 28.8469 672.471 29.9153 671.992 30.8222C671.513 31.7177 670.891 32.4037 670.124 32.8802C669.359 33.3453 668.513 33.5585 667.588 33.5195ZM667.642 31.436C668.183 31.4588 668.658 31.3262 669.066 31.0381C669.474 30.7501 669.797 30.3115 670.037 29.7224C670.288 29.1338 670.432 28.3938 670.47 27.5023C670.507 26.6108 670.426 25.8612 670.225 25.2536C670.036 24.6465 669.744 24.1877 669.35 23.8772C668.968 23.5559 668.506 23.3838 667.965 23.361C667.434 23.3387 666.965 23.4715 666.557 23.7596C666.15 24.0364 665.821 24.4691 665.57 25.0577C665.331 25.6354 665.193 26.3701 665.155 27.2616C665.117 28.1644 665.193 28.9193 665.382 29.5265C665.583 30.1341 665.874 30.5985 666.256 30.9198C666.638 31.2412 667.1 31.4132 667.642 31.436ZM678.763 33.99C677.826 33.9505 676.99 33.661 676.256 33.1213C675.521 32.5817 674.947 31.8397 674.535 30.8953C674.134 29.9514 673.959 28.8645 674.011 27.6344C674.063 26.4044 674.328 25.3416 674.806 24.446C675.285 23.5505 675.907 22.8645 676.673 22.388C677.451 21.912 678.302 21.6935 679.228 21.7325C680.176 21.7724 681.011 22.0619 681.735 22.6011C682.469 23.1408 683.037 23.8825 683.439 24.8264C683.84 25.759 684.015 26.846 683.963 28.0873C683.911 29.3174 683.645 30.3858 683.166 31.2926C682.688 32.1882 682.065 32.8742 681.299 33.3506C680.533 33.8158 679.688 34.0289 678.763 33.99ZM678.816 31.9065C679.358 31.9293 679.833 31.7967 680.241 31.5086C680.648 31.2205 680.972 30.782 681.212 30.1929C681.462 29.6043 681.607 28.8643 681.644 27.9728C681.682 27.0813 681.6 26.3317 681.4 25.7241C681.211 25.117 680.919 24.6582 680.525 24.3477C680.143 24.0263 679.681 23.8543 679.139 23.8315C678.609 23.8091 678.14 23.942 677.732 24.2301C677.325 24.5068 676.996 24.9395 676.745 25.5281C676.506 26.1059 676.367 26.8406 676.33 27.7321C676.292 28.6348 676.367 29.3898 676.557 29.9969C676.757 30.6045 677.048 31.069 677.431 31.3903C677.813 31.7116 678.275 31.8837 678.816 31.9065ZM684.924 29.8744L689.311 22.3435L691.85 22.4504L687.362 29.977L684.924 29.8744ZM684.867 31.2286L684.924 29.8744L685.799 29.2499L694.33 29.6091L694.245 31.6234L684.867 31.2286ZM690.367 34.309L690.687 26.7256L692.955 26.8211L692.636 34.4045L690.367 34.309ZM694.854 33.1752L699.537 28.6752C699.868 28.35 700.134 28.0616 700.337 27.8101C700.551 27.5478 700.709 27.3001 700.809 27.0669C700.91 26.8225 700.965 26.5761 700.976 26.3278C700.997 25.8313 700.849 25.4351 700.534 25.1392C700.23 24.8438 699.824 24.6854 699.316 24.664C698.797 24.6421 698.329 24.7581 697.911 25.0118C697.505 25.266 697.114 25.6791 696.74 26.2512L695.222 24.8477C695.729 24.0664 696.342 23.4874 697.058 23.1106C697.787 22.723 698.608 22.5484 699.522 22.5869C700.301 22.6197 700.972 22.8005 701.534 23.1295C702.108 23.4589 702.542 23.901 702.835 24.456C703.128 25.011 703.26 25.6496 703.229 26.3718C703.209 26.8571 703.128 27.2946 702.987 27.6843C702.858 28.0745 702.644 28.4612 702.345 28.8443C702.058 29.2166 701.662 29.6351 701.156 30.0999L697.749 33.2971L694.854 33.1752ZM694.799 34.4955L694.854 33.1752L696.846 32.5808L703.211 32.8487L703.127 34.8461L694.799 34.4955ZM705.448 34.9439L710.074 24.5573L712.342 24.6528L707.835 35.0444L705.448 34.9439ZM704.223 24.9723L704.308 22.9749L712.399 23.3156L712.342 24.6528L711.451 25.2766L704.223 24.9723Z" fill="white"/>
<path d="M730.111 56.7464C730.022 56.7464 729.932 56.7438 729.843 56.7386L630.757 51.1048C628.213 50.9592 626.261 48.7724 626.405 46.2286L628.762 4.76986C628.832 3.53794 629.378 2.40653 630.3 1.58439C631.221 0.762247 632.403 0.346024 633.638 0.418187L732.724 6.05203C735.268 6.19635 737.22 8.38445 737.076 10.9282L734.719 52.387C734.648 53.6202 734.103 54.7516 733.182 55.5724C732.328 56.3353 731.246 56.7464 730.111 56.7464ZM633.372 1.5045C632.505 1.5045 631.68 1.81891 631.028 2.40008C630.324 3.02764 629.908 3.89102 629.855 4.83172L627.498 46.2905C627.387 48.2324 628.878 49.9025 630.82 50.0133L729.906 55.6472C730.848 55.7013 731.753 55.3843 732.455 54.7567C733.159 54.1292 733.575 53.2658 733.629 52.3251L735.986 10.8663C736.097 8.92437 734.606 7.25431 732.664 7.14349L633.578 1.50965C633.508 1.50578 633.44 1.5045 633.372 1.5045Z" fill="black"/>
<path d="M724.521 218.526L617.705 212.453C613.768 212.229 610.758 208.857 610.981 204.919L617.054 98.1009C617.278 94.1641 620.652 91.1539 624.588 91.3769L731.406 97.4501C735.343 97.6744 738.353 101.048 738.13 104.985L732.057 211.802C731.833 215.74 728.459 218.751 724.521 218.526Z" fill="#000427"/>
<path d="M724.932 219.126C724.785 219.126 724.637 219.122 724.489 219.113L617.671 213.04C615.611 212.923 613.718 212.01 612.344 210.469C610.969 208.929 610.277 206.946 610.394 204.886L616.468 98.0681C616.71 93.8143 620.363 90.5567 624.622 90.7912L731.44 96.8645C733.5 96.9818 735.393 97.8941 736.767 99.4353C738.142 100.975 738.834 102.958 738.717 105.02L732.643 211.838C732.41 215.942 728.994 219.126 724.932 219.126ZM624.179 91.9536C620.734 91.9536 617.839 94.6532 617.64 98.1351L611.567 204.953C611.468 206.7 612.055 208.382 613.22 209.687C614.385 210.992 615.99 211.767 617.737 211.866L724.555 217.939C728.169 218.148 731.263 215.376 731.469 211.77L737.543 104.952C737.642 103.205 737.055 101.523 735.889 100.216C734.724 98.9108 733.12 98.1364 731.373 98.0371L624.555 91.9639C624.43 91.9561 624.304 91.9536 624.179 91.9536Z" fill="black"/>
<path d="M673.46 159.276C673.307 159.276 673.158 159.218 673.045 159.105L665.631 151.707C665.402 151.478 665.401 151.105 665.63 150.876C665.859 150.646 666.232 150.645 666.461 150.875L673.539 157.937L683.106 151.784C683.379 151.609 683.743 151.688 683.918 151.961C684.093 152.234 684.015 152.597 683.741 152.773L673.777 159.182C673.68 159.245 673.569 159.276 673.46 159.276Z" fill="white"/>
<path d="M651.36 146.113C651.201 148.889 648.824 151.011 646.048 150.854C643.272 150.696 641.15 148.318 641.307 145.542C641.466 142.766 643.843 140.644 646.619 140.801C649.394 140.958 651.517 143.336 651.36 146.113Z" fill="#FF5233"/>
<path d="M655.093 138.087C655.235 135.604 656.564 134.439 658.118 134.528C659.673 134.616 660.862 135.924 660.722 138.407C660.581 140.89 659.25 142.055 657.696 141.966C656.142 141.878 654.952 140.57 655.093 138.087Z" fill="white"/>
<path d="M696.289 143.135C696.246 143.135 696.202 143.13 696.158 143.121L683.654 140.295C683.45 140.248 683.286 140.099 683.223 139.9C683.16 139.702 683.205 139.485 683.344 139.33L692.143 129.46C692.36 129.218 692.731 129.197 692.973 129.412C693.215 129.629 693.237 130 693.021 130.242L684.886 139.367L696.416 141.974C696.733 142.045 696.932 142.36 696.859 142.676C696.8 142.949 696.558 143.135 696.289 143.135Z" fill="white"/>
<path d="M683.784 140.309C683.527 140.309 683.293 140.14 683.219 139.882C683.131 139.57 683.311 139.244 683.623 139.155L697.995 135.041C698.308 134.951 698.633 135.132 698.722 135.444C698.812 135.756 698.63 136.082 698.318 136.171L683.948 140.285C683.892 140.301 683.838 140.309 683.784 140.309Z" fill="white"/>
<path d="M708.668 149.474C708.884 146.702 706.812 144.279 704.04 144.062C701.268 143.846 698.845 145.917 698.629 148.689C698.412 151.462 700.484 153.885 703.256 154.101C706.028 154.318 708.451 152.246 708.668 149.474Z" fill="#FF5233"/>
<path d="M620.684 187.438C620.641 187.438 620.6 187.437 620.558 187.435C619.351 187.366 618.429 186.333 618.498 185.127L619.454 168.32C619.523 167.114 620.558 166.194 621.762 166.261C622.969 166.33 623.891 167.363 623.822 168.569L622.867 185.375C622.8 186.539 621.835 187.438 620.684 187.438Z" fill="#1D256D"/>
<path d="M619.268 198.855C619.225 198.855 619.184 198.854 619.142 198.851C617.935 198.783 617.013 197.75 617.082 196.544L617.299 192.724C617.367 191.518 618.401 190.597 619.607 190.664C620.813 190.732 621.736 191.765 621.666 192.971L621.448 196.791C621.384 197.956 620.42 198.855 619.268 198.855Z" fill="#1D256D"/>
</svg>
