<svg width="144" height="33" viewBox="0 0 144 33" fill="none" xmlns="http://www.w3.org/2000/svg">
<path d="M89.0006 24.6487V24.7743C89.0006 24.9419 88.9166 25.0676 88.7066 25.0676H85.0108V27.9578H88.2026C88.4126 27.9578 88.4966 28.0835 88.4966 28.251V28.3767C88.4966 28.5861 88.3706 28.6699 88.2026 28.6699H85.0108V31.8534C85.0108 32.0628 84.8849 32.1466 84.7169 32.1466H84.4229C84.2129 32.1466 84.1289 32.0209 84.1289 31.8534V24.6487C84.1289 24.4392 84.2549 24.3555 84.4229 24.3555H88.7066C88.8746 24.3555 89.0006 24.4392 89.0006 24.6487Z" fill="#000427"/>
<path d="M89.5039 29.4243C89.5039 27.7907 90.7638 26.4922 92.4857 26.4922C93.8716 26.4922 95.1315 27.2881 95.2995 29.0892C95.3415 29.2987 95.2155 29.3824 95.0055 29.3824H90.3858C90.3019 30.6391 91.2678 31.5606 92.6537 31.5606C93.2416 31.5606 93.8296 31.3931 94.3336 31.0161C94.4595 30.9323 94.6275 30.9323 94.7535 31.058L94.8375 31.1417C94.9635 31.2674 94.9635 31.4349 94.7535 31.6025C94.0816 32.147 93.3256 32.3146 92.6117 32.3146C90.7218 32.3146 89.5039 30.9742 89.5039 29.4243ZM94.4175 28.7122C94.1656 27.5394 93.2836 27.2043 92.5277 27.2043C91.6457 27.2043 90.7638 27.665 90.4698 28.7122H94.4175Z" fill="#000427"/>
<path d="M96.0137 29.4243C96.0137 27.7907 97.2736 26.4922 98.9955 26.4922C100.381 26.4922 101.641 27.2881 101.809 29.0892C101.851 29.2987 101.725 29.3824 101.515 29.3824H96.8956C96.8116 30.6391 97.7775 31.5606 99.1634 31.5606C99.7514 31.5606 100.339 31.3931 100.843 31.0161C100.969 30.9323 101.137 30.9323 101.263 31.058L101.347 31.1417C101.473 31.2674 101.473 31.4349 101.263 31.6025C100.591 32.147 99.8354 32.3146 99.1214 32.3146C97.2316 32.3146 96.0137 30.9742 96.0137 29.4243ZM100.969 28.7122C100.717 27.5394 99.8354 27.2043 99.0794 27.2043C98.1975 27.2043 97.3156 27.665 97.0216 28.7122H100.969Z" fill="#000427"/>
<path d="M102.944 31.8946V24.3967C102.944 24.1873 103.07 24.1035 103.238 24.1035H103.49C103.658 24.1035 103.784 24.2292 103.784 24.3967V31.8946C103.784 32.1041 103.658 32.1878 103.49 32.1878H103.238C103.07 32.1878 102.944 32.0622 102.944 31.8946Z" fill="#000427"/>
<path d="M108.99 31.0988V31.8946C108.99 32.1041 108.864 32.1878 108.696 32.1878H108.444C108.276 32.1878 108.15 32.0622 108.15 31.8946V24.3967C108.15 24.1873 108.276 24.1035 108.444 24.1035H108.696C108.906 24.1035 108.99 24.2292 108.99 24.3967V27.7059C109.494 26.8681 110.292 26.4911 111.174 26.4911C112.896 26.4911 113.988 27.7896 113.988 29.4233C113.988 31.015 112.896 32.3135 111.174 32.3135C110.292 32.3135 109.494 31.9365 108.99 31.0988ZM113.106 29.3814C113.106 28.2085 112.35 27.2032 111.09 27.2032C109.872 27.2032 108.99 28.0829 108.99 29.3814C108.99 30.638 109.872 31.5176 111.09 31.5176C112.35 31.5595 113.106 30.5542 113.106 29.3814Z" fill="#000427"/>
<path d="M114.787 29.4243C114.787 27.7907 116.047 26.4922 117.769 26.4922C119.155 26.4922 120.415 27.2881 120.583 29.0892C120.625 29.2987 120.499 29.3824 120.289 29.3824H115.669C115.585 30.6391 116.551 31.5606 117.937 31.5606C118.525 31.5606 119.113 31.3931 119.617 31.0161C119.743 30.9323 119.911 30.9323 120.037 31.058L120.121 31.1417C120.247 31.2674 120.247 31.4349 120.037 31.6025C119.407 32.147 118.609 32.3146 117.895 32.3146C116.005 32.3146 114.787 30.9742 114.787 29.4243ZM119.701 28.7122C119.449 27.5394 118.567 27.2043 117.811 27.2043C116.929 27.2043 116.047 27.665 115.753 28.7122H119.701Z" fill="#000427"/>
<path d="M121.801 30.4287V27.2871H121.045C120.919 27.2871 120.877 27.2452 120.877 27.1196V26.7845C120.877 26.6588 120.919 26.6169 121.045 26.6169H121.801L121.969 25.1927C122.011 25.0252 122.095 24.9414 122.263 24.9414H122.389C122.557 24.9414 122.641 25.0252 122.641 25.1927V26.6169H124.279C124.405 26.6169 124.447 26.7007 124.447 26.7845V27.0777C124.447 27.2033 124.363 27.2452 124.279 27.2452H122.641V30.4706C122.641 31.3083 123.019 31.5178 123.439 31.5178C123.859 31.5178 124.237 31.2665 124.237 30.7638C124.237 30.7219 124.237 30.6381 124.195 30.5544C124.195 30.4287 124.237 30.3449 124.363 30.3449H124.741C124.825 30.3449 124.909 30.3868 124.951 30.4706C124.993 30.6381 124.993 30.8476 124.993 30.8476C124.993 31.6016 124.447 32.2299 123.439 32.2299C122.641 32.3137 121.801 31.8948 121.801 30.4287Z" fill="#000427"/>
<path d="M126.168 30.4287V27.2871H125.412C125.286 27.2871 125.244 27.2452 125.244 27.1196V26.7845C125.244 26.6588 125.286 26.6169 125.412 26.6169H126.168L126.336 25.1927C126.378 25.0252 126.462 24.9414 126.63 24.9414H126.756C126.924 24.9414 127.008 25.0252 127.008 25.1927V26.6169H128.646C128.772 26.6169 128.814 26.7007 128.814 26.7845V27.0777C128.814 27.2033 128.73 27.2452 128.646 27.2452H127.008V30.4706C127.008 31.3083 127.386 31.5178 127.806 31.5178C128.226 31.5178 128.604 31.2665 128.604 30.7638C128.604 30.7219 128.604 30.6381 128.562 30.5544C128.562 30.4287 128.604 30.3449 128.73 30.3449H129.108C129.192 30.3449 129.276 30.3868 129.318 30.4706C129.36 30.6381 129.36 30.8476 129.36 30.8476C129.36 31.6016 128.814 32.2299 127.806 32.2299C127.008 32.3137 126.168 31.8948 126.168 30.4287Z" fill="#000427"/>
<path d="M129.906 29.4243C129.906 27.7907 131.166 26.4922 132.888 26.4922C134.274 26.4922 135.534 27.2881 135.702 29.0892C135.744 29.2987 135.618 29.3824 135.408 29.3824H130.788C130.704 30.6391 131.67 31.5606 133.056 31.5606C133.644 31.5606 134.232 31.3931 134.736 31.0161C134.862 30.9323 135.03 30.9323 135.156 31.058L135.24 31.1417C135.366 31.2674 135.366 31.4349 135.156 31.6025C134.526 32.147 133.728 32.3146 133.056 32.3146C131.124 32.3146 129.906 30.9742 129.906 29.4243ZM134.862 28.7122C134.61 27.5394 133.728 27.2043 132.972 27.2043C132.09 27.2043 131.208 27.665 130.914 28.7122H134.862Z" fill="#000427"/>
<path d="M136.834 31.8957V26.9111C136.834 26.7435 136.96 26.6179 137.128 26.6179H137.38C137.59 26.6179 137.674 26.7435 137.674 26.9111V27.9583C137.884 27.0367 138.514 26.4922 139.312 26.4922C139.396 26.4922 139.522 26.4922 139.564 26.5341C139.732 26.576 139.774 26.7016 139.774 26.8692V27.0786C139.774 27.2881 139.69 27.3718 139.564 27.3299C139.48 27.3299 139.354 27.2881 139.27 27.2881C138.556 27.2881 137.716 27.9164 137.674 30.0526V31.8957C137.674 32.1051 137.548 32.1889 137.38 32.1889H137.128C136.918 32.1889 136.834 32.0633 136.834 31.8957Z" fill="#000427"/>
<path d="M139.732 31.6429C139.732 31.2659 140.026 30.9727 140.404 30.9727C140.782 30.9727 141.076 31.2659 141.076 31.6429C141.076 32.0198 140.782 32.3131 140.404 32.3131C140.026 32.3131 139.732 32.0198 139.732 31.6429Z" fill="#000427"/>
<path d="M141.203 23.8533C141.203 23.9371 141.161 23.979 141.119 23.979H140.615V25.445C140.615 25.4869 140.573 25.5288 140.531 25.5288H140.447C140.405 25.5288 140.363 25.4869 140.363 25.445V23.979H139.86C139.818 23.979 139.776 23.9371 139.776 23.8952V23.8533C139.776 23.8114 139.818 23.7695 139.86 23.7695H141.119C141.161 23.7695 141.203 23.8114 141.203 23.8533Z" fill="#000427"/>
<path d="M141.371 25.445L141.539 23.8533C141.539 23.8114 141.581 23.7695 141.623 23.7695H141.749C141.791 23.7695 141.833 23.7695 141.833 23.8533L142.379 25.1518L142.925 23.8533C142.967 23.8114 142.967 23.7695 143.051 23.7695H143.177C143.219 23.7695 143.261 23.8114 143.261 23.8533L143.429 25.445C143.429 25.5288 143.387 25.5288 143.345 25.5288H143.261C143.219 25.5288 143.177 25.4869 143.177 25.445L143.051 24.1884L142.505 25.445C142.505 25.4869 142.463 25.5288 142.379 25.5288H142.337C142.295 25.5288 142.253 25.4869 142.253 25.445L141.707 24.1884L141.581 25.445C141.581 25.4869 141.539 25.5288 141.497 25.5288H141.413C141.413 25.5288 141.371 25.4869 141.371 25.445Z" fill="#000427"/>
<path d="M41.8805 16.6468C41.8805 18.0291 41.9645 18.071 44.3163 18.2386V19.0344H36.5469V18.2386C38.9407 18.071 38.9827 18.0291 38.9827 16.6468V4.28995C38.9827 2.90765 38.9407 2.86576 36.5469 2.7401V1.90234H45.0303C49.7759 1.90234 51.1198 3.78729 51.1198 6.13301C51.1198 8.47872 49.2719 9.9029 46.6681 10.3637V10.4056C49.5659 11.0339 50.4059 12.835 50.7418 15.0132C50.9938 16.7306 51.4558 17.9872 53.5556 18.2386V19.0344H51.2458C49.5659 19.0344 48.474 18.4899 48.054 16.8982C47.7601 15.7253 47.4241 13.8404 47.2561 13.1283C46.7521 11.3271 45.4082 10.8663 43.6864 10.8663H41.9225V16.6468H41.8805ZM41.8805 9.9029H43.9383C46.6261 9.9029 47.928 8.8976 47.928 6.34245C47.928 3.0752 45.6602 2.78199 43.6444 2.78199C41.8805 2.78199 41.8805 2.94954 41.8805 3.99673V9.9029Z" fill="#000427"/>
<path d="M59.4343 5.83876V6.67652L58.5104 6.76029C58.0484 6.80218 58.0064 7.01162 58.2584 7.34672C59.0144 8.39392 60.3163 10.0275 60.8202 10.6977H60.8622C61.9542 9.39922 62.7521 8.4358 63.4241 7.38861C63.718 6.96973 63.634 6.80218 63.1301 6.76029L61.9962 6.63463V5.79688H67.4978V6.63463C66.0699 6.76029 65.6499 6.84407 64.8519 7.68182C63.592 8.93846 62.4581 10.237 61.4082 11.4936C62.8361 13.3786 64.264 15.2216 65.5239 16.7715C66.4058 17.8605 66.6998 18.0281 68.2957 18.1119V18.9496H61.1142V18.1119L62.3321 17.9862C62.7941 17.9443 63.0041 17.693 62.7101 17.3579C61.9122 16.2688 60.6103 14.5095 59.8543 13.5461H59.7703C58.8044 14.8027 57.6285 16.1432 56.8725 17.4417C56.7465 17.693 56.7465 17.9862 57.2085 18.0281L58.5104 18.1119V18.9496H52.7988V18.1119C54.4787 18.0281 54.7727 17.8187 55.8226 16.6458C56.8305 15.5567 58.0064 14.1325 59.1824 12.6246C57.8805 10.9491 56.5366 9.27356 55.4026 7.80749C54.6047 6.76029 54.1847 6.71841 52.9668 6.67652V5.83876H59.4343Z" fill="#000427"/>
<path d="M78.3339 1.86328V2.70104L76.906 2.8267C76.276 2.86859 76.15 3.07803 76.402 3.70634C78.0399 7.81134 79.9717 12.2933 81.6096 16.2727L81.6516 16.3564C83.2475 12.3771 85.2213 7.43435 86.6072 3.58068C86.7332 3.11991 86.7332 2.86859 85.9773 2.8267L84.5074 2.70104V1.86328H90.513V2.70104C89.0431 2.78481 88.6651 2.8267 88.1191 3.99956C86.2713 8.27211 83.7514 14.0945 81.7356 19.0373H79.5938C77.6199 14.0107 75.4781 8.94231 73.4202 4.12522C72.8322 2.8267 72.4123 2.74292 70.9004 2.70104V1.86328H78.3339ZM89.379 14.3877C88.9591 15.393 88.4971 16.4821 88.2871 17.278C88.1611 17.7387 88.2031 18.0738 88.7911 18.0738L90.135 18.1995V19.0373H84.7174V18.1995C86.1873 18.1157 86.5232 17.9482 86.9012 17.0266C87.9931 14.5134 90.219 8.90042 91.4369 5.84262H93.7047C95.0066 8.90042 97.3165 14.4715 98.4504 17.2361C98.8283 18.1157 99.2903 18.1576 100.592 18.1995V19.0373H93.8727V18.1995L95.0486 18.1157C95.5946 18.032 95.5946 17.7806 95.4686 17.3617C95.1746 16.6078 94.5867 15.2255 94.2507 14.3458L89.379 14.3877ZM91.7309 7.85323H91.6889C91.1009 9.36119 90.261 11.9163 89.673 13.3824H93.9147C93.3267 11.9582 92.2768 9.23553 91.7309 7.85323ZM100.97 19.0373V18.1995C102.944 18.0738 103.112 18.0738 103.112 16.7334V8.18833C103.112 6.84792 102.944 6.84792 100.97 6.76415V5.92639H108.152V6.76415C106.01 6.88981 105.884 6.88981 105.884 8.18833V16.3564C105.884 18.1576 106.01 18.0738 108.95 18.0738C110.042 18.0738 110.797 17.9063 111.301 17.4874C111.763 17.1104 112.309 15.77 112.561 14.9741H113.485L112.939 19.0373H100.97ZM125.748 5.92639V9.36119H124.908C124.572 7.22491 123.565 6.84792 121.465 6.84792H119.407C118.945 6.84792 118.777 7.05736 118.777 7.51813V11.7907H121.549C123.355 11.7907 123.691 11.4556 123.901 10.0314H124.782V14.639H123.901C123.733 13.2567 123.355 12.7122 121.549 12.7122H118.777V16.3983C118.777 17.9063 119.113 18.1576 121.843 18.1576C123.397 18.1576 124.236 18.032 124.74 17.5712C125.16 17.1942 125.664 16.0213 125.832 15.2255H126.714L126.252 19.0791H113.947V18.2414C115.921 18.1576 116.089 18.1157 116.089 16.7753V8.18833C116.089 6.84792 115.921 6.84792 113.947 6.76415V5.92639H125.748ZM135.954 16.7334C135.954 18.0738 136.206 18.0738 138.473 18.1995V19.0373H130.62V18.1995C132.972 18.0738 133.182 18.0738 133.182 16.7334V6.84792H131.754C129.57 6.84792 128.982 7.72757 128.73 9.73818H127.848V5.92639H141.287V9.73818H140.363C140.111 7.72757 139.565 6.84792 137.34 6.84792H135.912L135.954 16.7334Z" fill="#000427"/>
<path d="M1.47985 5.08718L8.19936 12.0405C8.19936 12.0405 9.79525 11.6217 15.1709 12.1662L6.77147 2.23881C6.77147 2.23881 4.37764 -0.944661 1.77383 0.8984C-0.745983 2.65769 1.47985 5.08718 1.47985 5.08718Z" fill="#55CA15"/>
<path d="M2.73935 11.6641C2.73935 11.6641 2.44537 25.9059 11.6007 30.5554C11.6007 30.5554 24.6197 37.2156 32.0112 23.5602C32.0112 23.5602 23.0239 34.7442 12.6086 28.5448C12.6086 28.5448 5.59514 24.8587 5.17517 14.4287C5.17517 14.4287 18.7402 15.811 21.722 12.7113C21.764 12.7113 10.2988 14.68 2.73935 11.6641Z" fill="#0096FF"/>
<path d="M8.32617 22.0527C8.32617 22.0527 9.62808 27.7076 18.0695 29.2993C18.0695 29.2993 11.8959 27.4981 8.32617 22.0527Z" fill="#0096FF"/>
<path d="M10.4258 22.8477C10.4258 22.8477 11.6857 26.5338 17.0613 27.7066C17.0193 27.7485 12.9036 26.2825 10.4258 22.8477Z" fill="#0096FF"/>
</svg>
