<svg width="40" height="40" viewBox="0 0 40 40" fill="none" xmlns="http://www.w3.org/2000/svg">
<path d="M18.3331 3.31641C10.0497 3.31641 3.31641 10.0497 3.31641 18.3331C3.31641 26.6164 10.0497 33.3497 18.3331 33.3497C26.6164 33.3497 33.3497 26.6164 33.3497 18.3331C33.3497 10.0497 26.6164 3.31641 18.3331 3.31641ZM18.3331 22.0831H13.3331C12.6497 22.0831 12.0831 21.5164 12.0831 20.8331C12.0831 20.1497 12.6497 19.5831 13.3331 19.5831H18.3331C19.0164 19.5831 19.5831 20.1497 19.5831 20.8331C19.5831 21.5164 19.0164 22.0831 18.3331 22.0831ZM23.3331 17.0831H13.3331C12.6497 17.0831 12.0831 16.5164 12.0831 15.8331C12.0831 15.1497 12.6497 14.5831 13.3331 14.5831H23.3331C24.0164 14.5831 24.5831 15.1497 24.5831 15.8331C24.5831 16.5164 24.0164 17.0831 23.3331 17.0831Z" fill="#9B9B9B"/>
<path d="M36.6504 31.5833C36.1004 30.5667 34.9337 30 33.3671 30C32.1837 30 31.1671 30.4833 30.5671 31.3167C29.9671 32.15 29.8337 33.2667 30.2004 34.3833C30.9171 36.55 32.1671 37.0333 32.8504 37.1167C32.9504 37.1333 33.0504 37.1333 33.1671 37.1333C33.9004 37.1333 35.0337 36.8167 36.1337 35.1667C37.0171 33.8833 37.1837 32.6 36.6504 31.5833Z" fill="#9B9B9B"/>
</svg>
