<svg width="40" height="41" viewBox="0 0 40 41" fill="none" xmlns="http://www.w3.org/2000/svg">
<path d="M33.4999 15.9497C30.4833 15.9497 29.2499 13.8164 30.7499 11.1997C31.6166 9.68306 31.0999 7.74973 29.5833 6.88306L26.6999 5.23306C25.3833 4.44973 23.6833 4.9164 22.8999 6.23306L22.7166 6.54973C21.2166 9.1664 18.7499 9.1664 17.2333 6.54973L17.0499 6.23306C16.2999 4.9164 14.5999 4.44973 13.2833 5.23306L10.3999 6.88306C8.88325 7.74973 8.36659 9.69973 9.23325 11.2164C10.7499 13.8164 9.51659 15.9497 6.49992 15.9497C4.76659 15.9497 3.33325 17.3664 3.33325 19.1164V22.0497C3.33325 23.7831 4.74992 25.2164 6.49992 25.2164C9.51659 25.2164 10.7499 27.3497 9.23325 29.9664C8.36659 31.4831 8.88325 33.4164 10.3999 34.2831L13.2833 35.9331C14.5999 36.7164 16.2999 36.2497 17.0833 34.9331L17.2666 34.6164C18.7666 31.9997 21.2333 31.9997 22.7499 34.6164L22.9333 34.9331C23.7166 36.2497 25.4166 36.7164 26.7333 35.9331L29.6166 34.2831C31.1333 33.4164 31.6499 31.4664 30.7833 29.9664C29.2666 27.3497 30.4999 25.2164 33.5166 25.2164C35.2499 25.2164 36.6833 23.7997 36.6833 22.0497V19.1164C36.6666 17.3831 35.2499 15.9497 33.4999 15.9497ZM19.9999 25.9997C17.0166 25.9997 14.5833 23.5664 14.5833 20.5831C14.5833 17.5997 17.0166 15.1664 19.9999 15.1664C22.9833 15.1664 25.4166 17.5997 25.4166 20.5831C25.4166 23.5664 22.9833 25.9997 19.9999 25.9997Z" fill="#9B9B9B"/>
</svg>
