<svg width="41" height="40" viewBox="0 0 41 40" fill="none" xmlns="http://www.w3.org/2000/svg">
<path d="M20.5 25C23.2614 25 25.5 22.7614 25.5 20C25.5 17.2386 23.2614 15 20.5 15C17.7386 15 15.5 17.2386 15.5 20C15.5 22.7614 17.7386 25 20.5 25Z" stroke="#292D32" stroke-width="2" stroke-miterlimit="10" stroke-linecap="round" stroke-linejoin="round"/>
<path d="M3.83301 21.4677V18.5344C3.83301 16.801 5.24967 15.3677 6.99967 15.3677C10.0163 15.3677 11.2497 13.2344 9.73301 10.6177C8.86634 9.1177 9.38301 7.1677 10.8997 6.30103L13.783 4.65103C15.0997 3.8677 16.7997 4.33437 17.583 5.65103L17.7663 5.9677C19.2663 8.58437 21.733 8.58437 23.2497 5.9677L23.433 5.65103C24.2163 4.33437 25.9163 3.8677 27.233 4.65103L30.1163 6.30103C31.633 7.1677 32.1497 9.1177 31.283 10.6177C29.7663 13.2344 30.9997 15.3677 34.0163 15.3677C35.7497 15.3677 37.183 16.7844 37.183 18.5344V21.4677C37.183 23.201 35.7663 24.6344 34.0163 24.6344C30.9997 24.6344 29.7663 26.7677 31.283 29.3844C32.1497 30.901 31.633 32.8344 30.1163 33.701L27.233 35.351C25.9163 36.1344 24.2163 35.6677 23.433 34.351L23.2497 34.0344C21.7497 31.4177 19.283 31.4177 17.7663 34.0344L17.583 34.351C16.7997 35.6677 15.0997 36.1344 13.783 35.351L10.8997 33.701C9.38301 32.8344 8.86634 30.8844 9.73301 29.3844C11.2497 26.7677 10.0163 24.6344 6.99967 24.6344C5.24967 24.6344 3.83301 23.201 3.83301 21.4677Z" stroke="#292D32" stroke-width="2" stroke-miterlimit="10" stroke-linecap="round" stroke-linejoin="round"/>
</svg>
