<svg width="40" height="40" viewBox="0 0 40 40" fill="none" xmlns="http://www.w3.org/2000/svg">
<path d="M30.9003 6.86771L21.7337 3.43437C20.7837 3.08438 19.2337 3.08438 18.2837 3.43437L9.11699 6.86771C7.35033 7.53437 5.91699 9.60104 5.91699 11.4844V24.9844C5.91699 26.3344 6.80033 28.1177 7.88366 28.9177L17.0503 35.7677C18.667 36.9844 21.317 36.9844 22.9337 35.7677L32.1003 28.9177C33.1837 28.101 34.067 26.3344 34.067 24.9844V11.4844C34.0837 9.60104 32.6503 7.53437 30.9003 6.86771ZM25.8003 16.201L18.6337 23.3677C18.3837 23.6177 18.067 23.7344 17.7503 23.7344C17.4337 23.7344 17.117 23.6177 16.867 23.3677L14.2003 20.6677C13.717 20.1844 13.717 19.3844 14.2003 18.901C14.6837 18.4177 15.4837 18.4177 15.967 18.901L17.767 20.701L24.0503 14.4177C24.5337 13.9344 25.3337 13.9344 25.817 14.4177C26.3003 14.901 26.3003 15.7177 25.8003 16.201Z" fill="#9B9B9B"/>
</svg>
