<svg width="40" height="40" viewBox="0 0 40 40" fill="none" xmlns="http://www.w3.org/2000/svg">
<path d="M30.8993 6.94974L21.7327 3.51641C20.7827 3.16641 19.2327 3.16641 18.2827 3.51641L9.11602 6.94974C7.34935 7.61641 5.91602 9.68307 5.91602 11.5664V25.0664C5.91602 26.4164 6.79935 28.1997 7.88268 28.9997L17.0493 35.8497C18.666 37.0664 21.316 37.0664 22.9327 35.8497L32.0993 28.9997C33.1827 28.1831 34.066 26.4164 34.066 25.0664V11.5664C34.0827 9.68307 32.6493 7.61641 30.8993 6.94974ZM21.2493 21.4497V25.8331C21.2493 26.5164 20.6827 27.0831 19.9993 27.0831C19.316 27.0831 18.7493 26.5164 18.7493 25.8331V21.4497C17.066 20.9164 15.8327 19.3497 15.8327 17.4997C15.8327 15.1997 17.6993 13.3331 19.9993 13.3331C22.2993 13.3331 24.166 15.1997 24.166 17.4997C24.166 19.3664 22.9327 20.9164 21.2493 21.4497Z" fill="#9B9B9B"/>
</svg>
