<svg width="40" height="40" viewBox="0 0 40 40" fill="none" xmlns="http://www.w3.org/2000/svg">
<path d="M28.333 5.83203H11.6663C6.66634 5.83203 3.33301 8.33203 3.33301 14.1654V25.832C3.33301 31.6654 6.66634 34.1654 11.6663 34.1654H28.333C33.333 34.1654 36.6663 31.6654 36.6663 25.832V14.1654C36.6663 8.33203 33.333 5.83203 28.333 5.83203ZM29.1163 15.982L23.8997 20.1487C22.7997 21.032 21.3997 21.4654 19.9997 21.4654C18.5997 21.4654 17.183 21.032 16.0997 20.1487L10.883 15.982C10.3497 15.5487 10.2663 14.7487 10.683 14.2154C11.1163 13.682 11.8997 13.582 12.433 14.0154L17.6497 18.182C18.9163 19.1987 21.0663 19.1987 22.333 18.182L27.5497 14.0154C28.083 13.582 28.883 13.6654 29.2997 14.2154C29.733 14.7487 29.6497 15.5487 29.1163 15.982Z" fill="#9B9B9B"/>
</svg>
