<svg width="40" height="40" viewBox="0 0 40 40" fill="none" xmlns="http://www.w3.org/2000/svg">
<path d="M26.983 3.33203H13.0163C6.94967 3.33203 3.33301 6.9487 3.33301 13.0154V26.9654C3.33301 33.0487 6.94967 36.6654 13.0163 36.6654H26.9663C33.033 36.6654 36.6497 33.0487 36.6497 26.982V13.0154C36.6663 6.9487 33.0497 3.33203 26.983 3.33203ZM12.7163 30.2487C12.7163 30.932 12.1497 31.4987 11.4663 31.4987C10.783 31.4987 10.2163 30.932 10.2163 30.2487V26.7987C10.2163 26.1154 10.783 25.5487 11.4663 25.5487C12.1497 25.5487 12.7163 26.1154 12.7163 26.7987V30.2487ZM21.2497 30.2487C21.2497 30.932 20.683 31.4987 19.9997 31.4987C19.3163 31.4987 18.7497 30.932 18.7497 30.2487V23.332C18.7497 22.6487 19.3163 22.082 19.9997 22.082C20.683 22.082 21.2497 22.6487 21.2497 23.332V30.2487ZM29.783 30.2487C29.783 30.932 29.2163 31.4987 28.533 31.4987C27.8497 31.4987 27.283 30.932 27.283 30.2487V19.882C27.283 19.1987 27.8497 18.632 28.533 18.632C29.2163 18.632 29.783 19.1987 29.783 19.882V30.2487ZM29.783 14.6154C29.783 15.2987 29.2163 15.8654 28.533 15.8654C27.8497 15.8654 27.283 15.2987 27.283 14.6154V12.9987C23.033 17.3654 17.7163 20.4487 11.7663 21.932C11.6663 21.9654 11.5663 21.9654 11.4663 21.9654C10.8997 21.9654 10.3997 21.582 10.2497 21.0154C10.083 20.3487 10.483 19.6654 11.1663 19.4987C16.783 18.0987 21.783 15.1487 25.7497 10.982H23.6663C22.983 10.982 22.4163 10.4154 22.4163 9.73203C22.4163 9.0487 22.983 8.48203 23.6663 8.48203H28.5497C28.6163 8.48203 28.6663 8.51536 28.733 8.51536C28.8163 8.53203 28.8997 8.53203 28.983 8.56536C29.0663 8.5987 29.133 8.6487 29.2163 8.6987C29.2663 8.73203 29.3163 8.7487 29.3663 8.78203C29.383 8.7987 29.383 8.81536 29.3997 8.81536C29.4663 8.88203 29.5163 8.9487 29.5663 9.01536C29.6163 9.08203 29.6663 9.13203 29.683 9.1987C29.7163 9.26536 29.7163 9.33203 29.733 9.41536C29.7497 9.4987 29.783 9.58203 29.783 9.68203C29.783 9.6987 29.7997 9.71536 29.7997 9.73203V14.6154H29.783Z" fill="#9B9B9B"/>
</svg>
