<svg width="41" height="40" viewBox="0 0 41 40" fill="none" xmlns="http://www.w3.org/2000/svg">
<path d="M15.5 23.7246V28.3325C15.5 32.9348 19.231 36.6658 23.8333 36.6658H25.3039C28.4485 36.6658 31.0991 34.5508 31.9109 31.6658" stroke="#1C274C" stroke-width="2"/>
<path d="M9.54729 5H9.3945C8.87308 5 8.61237 5 8.39258 5.01944C5.97905 5.23286 4.06587 7.14605 3.85244 9.55957C3.83301 9.77936 3.83301 10.0401 3.83301 10.5615V12.0588C3.83301 18.5021 9.05635 23.7255 15.4997 23.7255C21.68 23.7255 26.6902 18.7153 26.6902 12.535V10.5615C26.6902 10.0401 26.6902 9.77936 26.6707 9.55957C26.4573 7.14605 24.5441 5.23286 22.1306 5.01944C21.9108 5 21.6501 5 21.1287 5H20.9759" stroke="#1C274C" stroke-width="2" stroke-linecap="round"/>
<circle cx="32.167" cy="26.668" r="5" stroke="#1C274C" stroke-width="2"/>
<path d="M20.5 3.33203V6.66536" stroke="#1C274C" stroke-width="1.5" stroke-linecap="round"/>
<path d="M10.5 3.33203V6.66536" stroke="#1C274C" stroke-width="1.5" stroke-linecap="round"/>
</svg>
