<svg width="114" height="102" viewBox="0 0 114 102" fill="none" xmlns="http://www.w3.org/2000/svg">
<g opacity="0.3" clip-path="url(#clip0_5536_80016)">
<path d="M27.56 0H96.2444C99.5866 0 102.832 0.532813 105.98 1.64688C110.533 3.29375 114.651 6.2 117.751 9.97813C120.899 13.7563 122.982 18.4062 123.708 23.25C123.999 25.0422 124.048 26.8344 124.048 28.6266V95.6156C124.048 97.7469 123.951 99.9266 123.515 102.009C122.546 106.805 120.269 111.309 116.976 114.942C113.73 118.575 109.468 121.287 104.866 122.741C102.057 123.612 99.1506 124 96.1959 124C94.8881 124 27.3663 124 26.3491 123.952C21.4084 123.709 16.5163 122.111 12.3991 119.35C8.37876 116.637 5.08501 112.859 2.95376 108.5C1.11313 104.77 0.192819 100.605 0.192819 96.4391V27.5609C0.0959436 23.4438 0.967818 19.375 2.76001 15.6938C4.84282 11.3344 8.08813 7.50781 12.1084 4.79531C16.2256 1.98594 21.0694 0.339063 26.01 0.096875C26.4944 0 27.0272 0 27.56 0Z" fill="url(#paint0_linear_5536_80016)"/>
<path d="M104.625 101.428C104.189 100.75 103.705 100.072 103.172 99.4422C101.961 97.9891 100.556 96.7297 99.0063 95.6641C97.0688 94.3562 94.7922 93.5328 92.4672 93.4359C90.8203 93.3391 89.1734 93.6297 87.6234 94.2109C86.0734 94.7438 84.5719 95.5188 83.1188 96.2938C81.4234 97.1656 79.7281 98.0375 77.9359 98.7641C75.8047 99.6359 73.5766 100.314 71.3 100.798C68.4422 101.331 65.5359 101.525 62.6781 101.477C57.4953 101.38 52.3125 100.605 47.3719 99.1516C43.0125 97.8438 38.8469 96.0516 34.9234 93.775C31.4844 91.7891 28.2875 89.5125 25.2844 86.9453C22.8141 84.8141 20.5375 82.5375 18.4063 80.1156C16.9531 78.4203 15.5484 76.6281 14.2406 74.7875C13.7078 74.0609 13.2234 73.2859 12.7875 72.5109L0 58.7062V27.4641C0 12.3031 12.2547 0 27.4156 0H51.8766L69.9922 18.4062C110.873 46.2094 97.65 76.8703 97.65 76.8703C97.65 76.8703 109.275 89.9484 104.625 101.428Z" fill="url(#paint1_linear_5536_80016)"/>
<path d="M70.0887 18.4062C110.97 46.2094 97.7465 76.8703 97.7465 76.8703C97.7465 76.8703 109.371 89.9969 104.673 101.477C104.673 101.477 99.8777 93.4359 91.8371 93.4359C84.0871 93.4359 79.534 101.477 63.9371 101.477C29.2074 101.477 12.7871 72.4625 12.7871 72.4625C44.0777 93.0484 65.4387 78.4688 65.4387 78.4688C51.3434 70.2828 21.3605 31.1453 21.3605 31.1453C47.4684 53.3781 58.7543 59.2391 58.7543 59.2391C52.0215 53.6688 33.1309 26.4469 33.1309 26.4469C48.2434 41.7531 78.2746 63.1141 78.2746 63.1141C86.7996 39.4766 70.0887 18.4062 70.0887 18.4062Z" fill="white"/>
</g>
<defs>
<linearGradient id="paint0_linear_5536_80016" x1="73.765" y1="-4.42476" x2="50.3373" y2="128.44" gradientUnits="userSpaceOnUse">
<stop stop-color="#FAAE42"/>
<stop offset="1" stop-color="#EF3E31"/>
</linearGradient>
<linearGradient id="paint1_linear_5536_80016" x1="63.2652" y1="2.00338" x2="46.1188" y2="99.245" gradientUnits="userSpaceOnUse">
<stop stop-color="#E39F3A"/>
<stop offset="1" stop-color="#D33929"/>
</linearGradient>
<clipPath id="clip0_5536_80016">
<rect width="124" height="124" fill="white"/>
</clipPath>
</defs>
</svg>
