<svg width="78" height="79" viewBox="0 0 78 79" fill="none" xmlns="http://www.w3.org/2000/svg">
<g clip-path="url(#clip0_4683_80269)">
<path d="M17.3366 0.5H60.5413C62.6436 0.5 64.685 0.835156 66.6655 1.53594C69.5296 2.57188 72.1194 4.4 74.0694 6.77656C76.0499 9.15312 77.36 12.0781 77.8171 15.125C77.9999 16.2523 78.0303 17.3797 78.0303 18.507V60.6453C78.0303 61.9859 77.9694 63.357 77.6952 64.6672C77.0858 67.6836 75.6538 70.5172 73.5819 72.8023C71.5405 75.0875 68.8593 76.7937 65.9647 77.7078C64.1975 78.2562 62.3694 78.5 60.5108 78.5C59.6882 78.5 17.2147 78.5 16.5749 78.4695C13.4671 78.3172 10.3897 77.3117 7.79989 75.575C5.27098 73.8688 3.19911 71.4922 1.85848 68.75C0.700668 66.4039 0.121762 63.7836 0.121762 61.1633V17.8367C0.0608241 15.2469 0.609262 12.6875 1.73661 10.3719C3.04676 7.62969 5.08817 5.22266 7.61707 3.51641C10.2069 1.74922 13.2538 0.713281 16.3616 0.560938C16.6663 0.5 17.0014 0.5 17.3366 0.5Z" fill="url(#paint0_linear_4683_80269)"/>
<path d="M65.8125 64.3016C65.5383 63.875 65.2336 63.4484 64.8984 63.0523C64.1367 62.1383 63.2531 61.3461 62.2781 60.6758C61.0594 59.8531 59.6273 59.3352 58.1648 59.2742C57.1289 59.2133 56.093 59.3961 55.118 59.7617C54.143 60.0969 53.1984 60.5844 52.2844 61.0719C51.218 61.6203 50.1516 62.1687 49.0242 62.6258C47.6836 63.1742 46.282 63.6008 44.85 63.9055C43.0523 64.2406 41.2242 64.3625 39.4266 64.332C36.1664 64.2711 32.9063 63.7836 29.7984 62.8695C27.0563 62.0469 24.4359 60.9195 21.968 59.4875C19.8047 58.2383 17.7938 56.8063 15.9047 55.1914C14.3508 53.8508 12.9188 52.4187 11.5781 50.8953C10.6641 49.8289 9.78047 48.7016 8.95781 47.5437C8.62266 47.0867 8.31797 46.5992 8.04375 46.1117L0 37.4281V17.7758C0 8.23906 7.70859 0.5 17.2453 0.5H32.632L44.0273 12.0781C69.743 29.5672 61.425 48.8539 61.425 48.8539C61.425 48.8539 68.7375 57.0805 65.8125 64.3016Z" fill="url(#paint1_linear_4683_80269)"/>
<path d="M44.0885 12.0781C69.8041 29.5672 61.4861 48.8539 61.4861 48.8539C61.4861 48.8539 68.7986 57.1109 65.8432 64.332C65.8432 64.332 62.8268 59.2742 57.7689 59.2742C52.8939 59.2742 50.0299 64.332 40.2189 64.332C18.3729 64.332 8.04395 46.0813 8.04395 46.0813C27.7268 59.0305 41.1635 49.8594 41.1635 49.8594C32.2971 44.7102 13.4369 20.0914 13.4369 20.0914C29.8596 34.0766 36.9588 37.7633 36.9588 37.7633C32.7236 34.2594 20.8408 17.1359 20.8408 17.1359C30.3471 26.7641 49.2377 40.2008 49.2377 40.2008C54.6002 25.332 44.0885 12.0781 44.0885 12.0781Z" fill="white"/>
</g>
<defs>
<linearGradient id="paint0_linear_4683_80269" x1="46.4011" y1="-2.28332" x2="31.6642" y2="81.2928" gradientUnits="userSpaceOnUse">
<stop stop-color="#FAAE42"/>
<stop offset="1" stop-color="#EF3E31"/>
</linearGradient>
<linearGradient id="paint1_linear_4683_80269" x1="39.7959" y1="1.76019" x2="29.0102" y2="62.9283" gradientUnits="userSpaceOnUse">
<stop stop-color="#E39F3A"/>
<stop offset="1" stop-color="#D33929"/>
</linearGradient>
<clipPath id="clip0_4683_80269">
<rect width="78" height="78" fill="white" transform="translate(0 0.5)"/>
</clipPath>
</defs>
</svg>
