<svg width="568" height="568" viewBox="0 0 568 568" fill="none" xmlns="http://www.w3.org/2000/svg">
<path d="M38.5456 109.63C52.6994 102.418 71.2278 102.418 108.285 102.418H133.951C134.231 102.418 134.372 102.418 134.478 102.364C134.572 102.316 134.648 102.241 134.696 102.147C134.751 102.041 134.752 101.899 134.755 101.614C135.186 47.1699 179.455 3.16797 234.001 3.16797C288.547 3.16797 332.816 47.1699 333.248 101.614C333.25 101.899 333.252 102.041 333.306 102.147C333.355 102.241 333.43 102.316 333.525 102.364C333.631 102.418 333.771 102.418 334.051 102.418H359.718C396.775 102.418 415.303 102.418 429.457 109.63C441.907 115.973 452.029 126.096 458.373 138.546C465.585 152.699 465.585 171.228 465.585 208.285V233.951C465.585 234.231 465.585 234.371 465.639 234.478C465.686 234.572 465.761 234.648 465.855 234.696C465.961 234.751 466.104 234.752 466.389 234.755C520.833 235.186 564.835 279.455 564.835 334.001C564.835 388.547 520.833 432.816 466.389 433.248C466.104 433.25 465.961 433.252 465.855 433.306C465.761 433.355 465.686 433.43 465.639 433.525C465.585 433.631 465.585 433.771 465.585 434.051V459.718C465.585 496.775 465.585 515.303 458.373 529.457C452.029 541.907 441.907 552.029 429.457 558.373C415.303 565.585 396.775 565.585 359.718 565.585H334.051C333.771 565.585 333.631 565.585 333.525 565.531C333.43 565.483 333.355 565.408 333.306 565.314C333.252 565.208 333.25 565.066 333.248 564.781C332.816 510.337 288.547 466.335 234.001 466.335C179.455 466.335 135.186 510.337 134.755 564.781C134.752 565.066 134.751 565.208 134.696 565.314C134.648 565.408 134.572 565.483 134.478 565.531C134.372 565.585 134.231 565.585 133.951 565.585H108.285C71.2278 565.585 52.6994 565.585 38.5456 558.373C26.0955 552.029 15.9733 541.907 9.62971 529.457C2.41798 515.303 2.41798 496.775 2.41798 459.718V434.051C2.41798 433.771 2.41798 433.631 2.47194 433.525C2.51965 433.43 2.5947 433.355 2.68851 433.306C2.7946 433.252 2.93703 433.25 3.2219 433.248C57.6661 432.816 101.668 388.547 101.668 334.001C101.668 279.455 57.6661 235.186 3.2219 234.755C2.93703 234.752 2.7946 234.751 2.68851 234.696C2.5947 234.648 2.51965 234.572 2.47194 234.478C2.41798 234.371 2.41798 234.231 2.41798 233.951V208.285C2.41798 171.228 2.41798 152.699 9.62971 138.546C15.9733 126.096 26.0955 115.973 38.5456 109.63Z" stroke="black" stroke-width="4.5"/>
</svg>
