<svg width="794" height="794" viewBox="0 0 794 794" fill="none" xmlns="http://www.w3.org/2000/svg">
<path d="M201.546 172.63C215.699 165.418 234.228 165.418 271.285 165.418H296.951C297.231 165.418 297.372 165.418 297.478 165.364C297.572 165.316 297.648 165.241 297.696 165.147C297.751 165.041 297.752 164.899 297.755 164.614C298.186 110.17 342.455 66.168 397.001 66.168C451.547 66.168 495.816 110.17 496.248 164.614C496.25 164.899 496.252 165.041 496.306 165.147C496.355 165.241 496.43 165.316 496.525 165.364C496.631 165.418 496.771 165.418 497.051 165.418H522.718C559.775 165.418 578.303 165.418 592.457 172.63C604.907 178.973 615.029 189.096 621.373 201.546C628.585 215.699 628.585 234.228 628.585 271.285V296.951C628.585 297.231 628.585 297.371 628.639 297.478C628.686 297.572 628.761 297.648 628.855 297.696C628.961 297.751 629.104 297.752 629.389 297.755C683.833 298.186 727.835 342.455 727.835 397.001C727.835 451.547 683.833 495.816 629.389 496.248C629.104 496.25 628.961 496.252 628.855 496.306C628.761 496.355 628.686 496.43 628.639 496.525C628.585 496.631 628.585 496.771 628.585 497.051V522.718C628.585 559.775 628.585 578.303 621.373 592.457C615.029 604.907 604.907 615.029 592.457 621.373C578.303 628.585 559.775 628.585 522.718 628.585H497.051C496.771 628.585 496.631 628.585 496.525 628.531C496.43 628.483 496.355 628.408 496.306 628.314C496.252 628.208 496.25 628.066 496.248 627.781C495.816 573.337 451.547 529.335 397.001 529.335C342.455 529.335 298.186 573.337 297.755 627.781C297.752 628.066 297.751 628.208 297.696 628.314C297.648 628.408 297.572 628.483 297.478 628.531C297.372 628.585 297.231 628.585 296.951 628.585H271.285C234.228 628.585 215.699 628.585 201.546 621.373C189.096 615.029 178.973 604.907 172.63 592.457C165.418 578.303 165.418 559.775 165.418 522.718V497.051C165.418 496.771 165.418 496.631 165.472 496.525C165.52 496.43 165.595 496.355 165.689 496.306C165.795 496.252 165.937 496.25 166.222 496.248C220.666 495.816 264.668 451.547 264.668 397.001C264.668 342.455 220.666 298.186 166.222 297.755C165.937 297.752 165.795 297.751 165.689 297.696C165.595 297.648 165.52 297.572 165.472 297.478C165.418 297.371 165.418 297.231 165.418 296.951V271.285C165.418 234.228 165.418 215.699 172.63 201.546C178.973 189.096 189.096 178.973 201.546 172.63Z" stroke="black" stroke-width="4.5"/>
</svg>
