<svg width="40" height="40" viewBox="0 0 40 40" fill="none" xmlns="http://www.w3.org/2000/svg">
<path d="M26.983 3.33203H13.0163C6.94967 3.33203 3.33301 6.9487 3.33301 13.0154V26.9654C3.33301 33.0487 6.94967 36.6654 13.0163 36.6654H26.9663C33.033 36.6654 36.6497 33.0487 36.6497 26.982V13.0154C36.6663 6.9487 33.0497 3.33203 26.983 3.33203ZM28.133 19.2154C28.133 19.8654 27.6163 20.382 26.9663 20.382C26.3163 20.382 25.7997 19.8654 25.7997 19.2154V18.9154L21.2663 23.4487C21.0163 23.6987 20.683 23.8154 20.333 23.782C19.983 23.7487 19.6663 23.5654 19.483 23.2654L17.783 20.732L13.8163 24.6987C13.583 24.932 13.2997 25.032 12.9997 25.032C12.6997 25.032 12.3997 24.9154 12.183 24.6987C11.733 24.2487 11.733 23.5154 12.183 23.0487L17.1497 18.082C17.3997 17.832 17.733 17.7154 18.083 17.7487C18.433 17.782 18.7497 17.9654 18.933 18.2654L20.633 20.7987L24.1497 17.282H23.8497C23.1997 17.282 22.683 16.7654 22.683 16.1154C22.683 15.4654 23.1997 14.9487 23.8497 14.9487H26.9497C27.0997 14.9487 27.2497 14.982 27.3997 15.032C27.683 15.1487 27.9163 15.382 28.033 15.6654C28.0997 15.8154 28.1163 15.9654 28.1163 16.1154V19.2154H28.133Z" fill="#9B9B9B"/>
</svg>
