<svg width="272" height="44" viewBox="0 0 272 44" fill="none" xmlns="http://www.w3.org/2000/svg">
<path d="M77.0605 29.0853H73.9531V27.5938H81.9079V29.0853H78.8006V36.7915H77.0605V29.0853Z" fill="#777777"/>
<path d="M89.3663 30.4529C89.8635 30.9501 90.2364 31.6958 90.2364 32.6902V36.6676H88.4963V32.9388C88.4963 32.3173 88.372 31.8201 87.9991 31.5715C87.7505 31.3229 87.2533 31.0743 86.7562 31.0743C86.1347 31.0743 85.6375 31.1986 85.2646 31.5715C84.8918 31.9444 84.7675 32.4416 84.7675 33.1873V36.6676H83.0273V26.9727H84.7675V30.4529C85.016 30.2043 85.3889 29.9557 85.7618 29.8314C86.1347 29.7071 86.6319 29.5828 87.129 29.5828C87.9991 29.7071 88.7449 29.9557 89.3663 30.4529Z" fill="#777777"/>
<path d="M92.3482 28.3397C92.0996 28.0911 92.0996 27.9668 92.0996 27.594C92.0996 27.2211 92.2239 27.0968 92.3482 26.8482C92.5968 26.5996 92.8454 26.5996 93.094 26.5996C93.3425 26.5996 93.7154 26.7239 93.8397 26.8482C94.0883 26.9725 94.0883 27.2211 94.0883 27.4697C94.0883 27.7183 93.964 27.9668 93.8397 28.2154C93.5911 28.464 93.3425 28.464 93.094 28.464C92.8454 28.5883 92.5968 28.5883 92.3482 28.3397ZM92.2239 29.8312H93.964V36.7917H92.2239V29.8312Z" fill="#777777"/>
<path d="M102.417 30.4531C102.914 30.9502 103.287 31.696 103.287 32.6904V36.6678H101.547V32.9389C101.547 32.3175 101.423 31.8203 101.05 31.5717C100.801 31.3231 100.304 31.0745 99.8069 31.0745C99.1855 31.0745 98.6883 31.1988 98.3154 31.5717C98.0668 32.0689 97.8182 32.5661 97.8182 33.1875V36.6678H96.0781V29.7073H97.8182V30.5774C98.0668 30.2045 98.4397 29.9559 98.8126 29.8316C99.1855 29.7073 99.6826 29.583 100.18 29.583C101.174 29.7073 101.92 29.9559 102.417 30.4531Z" fill="#777777"/>
<path d="M108.383 33.8085L107.141 34.9272V36.7916H105.4V27.0967H107.141V32.9385L110.621 29.8311H112.609L109.626 32.8142L112.858 36.9159H110.869L108.383 33.8085Z" fill="#777777"/>
<path d="M128.022 32.0689H129.637V35.6734C129.14 36.0463 128.643 36.2949 127.897 36.5434C127.276 36.792 126.53 36.792 125.909 36.792C124.914 36.792 124.044 36.5434 123.298 36.1706C122.553 35.7977 121.931 35.1762 121.434 34.4304C120.937 33.6847 120.812 32.9389 120.812 32.0689C120.812 31.1988 121.061 30.3288 121.434 29.7073C121.931 28.9615 122.428 28.4643 123.298 27.9672C124.168 27.47 124.914 27.3457 125.909 27.3457C126.654 27.3457 127.4 27.47 128.022 27.7186C128.643 27.9672 129.264 28.3401 129.637 28.8372L128.519 29.8316C127.773 29.0858 126.903 28.8372 125.909 28.8372C125.287 28.8372 124.666 28.9615 124.168 29.2101C123.671 29.4587 123.298 29.8316 122.925 30.3288C122.677 30.8259 122.428 31.3231 122.428 31.9446C122.428 32.566 122.553 33.0632 122.925 33.5604C123.174 34.0576 123.671 34.4305 124.168 34.679C124.666 34.9276 125.287 35.0519 125.909 35.0519C126.654 35.0519 127.276 34.9276 127.897 34.5547L128.022 32.0689Z" fill="#777777"/>
<path d="M131.875 27.0967H133.615V36.7916H131.875V27.0967Z" fill="#777777"/>
<path d="M136.97 36.4189C136.349 36.1703 135.976 35.6731 135.603 35.176C135.23 34.6788 135.106 34.0573 135.106 33.3115C135.106 32.5658 135.23 32.0686 135.603 31.4471C135.976 30.95 136.349 30.4528 136.97 30.2042C137.592 29.9556 138.213 29.707 138.959 29.707C139.705 29.707 140.326 29.8313 140.947 30.2042C141.569 30.4528 141.942 30.95 142.315 31.4471C142.688 31.9443 142.812 32.5658 142.812 33.3115C142.812 34.0573 142.688 34.5545 142.315 35.176C141.942 35.6731 141.569 36.1703 140.947 36.4189C140.326 36.6675 139.705 36.9161 138.959 36.9161C138.213 36.9161 137.592 36.6675 136.97 36.4189ZM140.575 34.8031C140.947 34.4302 141.196 33.933 141.196 33.1873C141.196 32.5658 140.947 32.0686 140.575 31.5714C140.202 31.1986 139.705 30.95 139.083 30.95C138.462 30.95 137.964 31.1986 137.592 31.5714C137.219 31.9443 136.97 32.4415 136.97 33.1873C136.97 33.8087 137.219 34.3059 137.592 34.8031C137.964 35.176 138.462 35.4245 139.083 35.4245C139.58 35.4245 140.077 35.3003 140.575 34.8031Z" fill="#777777"/>
<path d="M150.27 30.204C150.767 30.4526 151.264 30.9498 151.512 31.447C151.885 31.9441 152.01 32.5656 152.01 33.3114C152.01 34.0571 151.885 34.6786 151.512 35.1758C151.14 35.673 150.767 36.1701 150.27 36.4187C149.772 36.6673 149.151 36.9159 148.405 36.9159C147.908 36.9159 147.411 36.7916 147.038 36.6673C146.665 36.543 146.292 36.2944 146.044 35.9215V36.7916H144.428V27.0967H146.168V30.7012C146.416 30.4526 146.789 30.204 147.162 29.9554C147.535 29.8311 148.032 29.7069 148.405 29.7069C149.151 29.7069 149.772 29.8311 150.27 30.204ZM149.772 34.8029C150.145 34.43 150.394 33.9328 150.394 33.1871C150.394 32.5656 150.145 32.0684 149.772 31.5713C149.399 31.1984 148.902 30.9498 148.281 30.9498C147.908 30.9498 147.535 31.0741 147.162 31.1984C146.789 31.3227 146.541 31.5713 146.416 31.9441C146.168 32.317 146.168 32.6899 146.168 33.0628C146.168 33.56 146.292 33.9328 146.416 34.1814C146.665 34.5543 146.914 34.8029 147.162 34.9272C147.535 35.0515 147.908 35.1758 148.281 35.1758C148.902 35.4244 149.399 35.3001 149.772 34.8029Z" fill="#777777"/>
<path d="M158.721 30.4531C159.343 30.9502 159.592 31.696 159.592 32.6904V36.7921H157.976V35.922C157.727 36.1706 157.479 36.4192 157.106 36.6678C156.733 36.792 156.236 36.9163 155.738 36.9163C155.241 36.9163 154.744 36.792 154.371 36.6678C153.998 36.5435 153.625 36.2949 153.377 35.922C153.128 35.5491 153.004 35.3005 153.004 34.8033C153.004 34.1819 153.253 33.6847 153.75 33.3118C154.247 32.9389 154.993 32.6904 155.987 32.6904H157.851V32.5661C157.851 32.0689 157.727 31.696 157.354 31.4474C157.106 31.1988 156.608 31.0745 155.987 31.0745C155.614 31.0745 155.241 31.0745 154.744 31.1988C154.371 31.3231 153.998 31.4474 153.75 31.696L153.128 30.4531C153.501 30.2045 153.998 29.9559 154.496 29.8316C154.993 29.7073 155.614 29.583 156.236 29.583C157.354 29.7073 158.224 29.9559 158.721 30.4531ZM157.23 35.4248C157.603 35.1762 157.851 34.9276 157.976 34.6791V33.809H156.236C155.241 33.809 154.744 34.0576 154.744 34.6791C154.744 34.9276 154.868 35.1762 155.117 35.4248C155.366 35.5491 155.738 35.6734 156.111 35.6734C156.484 35.6734 156.857 35.5491 157.23 35.4248Z" fill="#777777"/>
<path d="M161.828 27.0967H163.568V36.7916H161.828V27.0967Z" fill="#777777"/>
<path d="M169.162 36.5428C168.914 36.2943 168.789 36.0457 168.789 35.7971C168.789 35.4242 168.914 35.1756 169.162 35.0513C169.411 34.8027 169.659 34.8027 169.908 34.8027C170.157 34.8027 170.529 34.927 170.654 35.0513C170.902 35.2999 171.027 35.5485 171.027 35.7971C171.027 36.17 170.902 36.4186 170.654 36.5428C170.405 36.7914 170.157 36.7914 169.908 36.7914C169.659 36.9157 169.411 36.7914 169.162 36.5428Z" fill="#777777"/>
<path d="M182.213 29.0853H179.106V27.5938H187.06V29.0853H183.953V36.7915H182.213V29.0853Z" fill="#777777"/>
<path d="M194.519 30.4529C195.016 30.9501 195.389 31.6958 195.389 32.6902V36.6676H193.649V32.9388C193.649 32.3173 193.524 31.8201 193.151 31.5715C192.903 31.3229 192.406 31.0743 191.909 31.0743C191.287 31.0743 190.79 31.1986 190.417 31.5715C190.044 31.9444 189.92 32.4416 189.92 33.1873V36.6676H188.18V26.9727H189.92V30.4529C190.168 30.2043 190.541 29.9557 190.914 29.8314C191.287 29.7071 191.784 29.5828 192.281 29.5828C193.276 29.7071 194.022 29.9557 194.519 30.4529Z" fill="#777777"/>
<path d="M197.625 28.3397C197.377 28.0911 197.377 27.9668 197.377 27.594C197.377 27.2211 197.501 27.0968 197.625 26.8482C197.874 26.5996 198.123 26.5996 198.371 26.5996C198.62 26.5996 198.993 26.7239 199.117 26.8482C199.366 26.9725 199.366 27.2211 199.366 27.4697C199.366 27.7183 199.241 27.9668 199.117 28.2154C198.868 28.464 198.62 28.464 198.371 28.464C197.998 28.5883 197.75 28.5883 197.625 28.3397ZM197.501 29.8312H199.241V36.7917H197.501V29.8312Z" fill="#777777"/>
<path d="M207.694 30.4531C208.192 30.9502 208.565 31.696 208.565 32.6904V36.6678H206.824V32.9389C206.824 32.3175 206.7 31.8203 206.327 31.5717C206.079 31.3231 205.581 31.0745 205.084 31.0745C204.463 31.0745 203.966 31.1988 203.593 31.5717C203.22 31.9446 203.096 32.4418 203.096 33.1875V36.6678H201.355V29.7073H202.971V30.5774C203.22 30.2045 203.593 29.9559 203.966 29.8316C204.339 29.7073 204.836 29.583 205.333 29.583C206.327 29.7073 207.073 29.9559 207.694 30.4531Z" fill="#777777"/>
<path d="M213.536 33.8085L212.293 34.9272V36.7916H210.553V27.0967H212.293V32.9385L215.773 29.8311H217.762L214.779 32.8142L218.01 36.9159H216.022L213.536 33.8085Z" fill="#777777"/>
<path d="M227.83 35.7971C227.084 35.0514 226.711 34.057 226.711 32.6898V27.5938H228.451V32.6898C228.451 34.4299 229.197 35.4243 230.813 35.4243C232.428 35.4243 233.174 34.5542 233.174 32.6898V27.5938H234.914V32.8141C234.914 34.1813 234.541 35.1757 233.796 35.9214C233.05 36.6672 232.056 37.0401 230.813 37.0401C229.57 37.0401 228.575 36.5429 227.83 35.7971Z" fill="#777777"/>
<path d="M238.268 36.5434C237.647 36.2949 237.025 36.0463 236.652 35.7977L237.274 34.4304C237.647 34.679 238.144 34.9276 238.641 35.1762C239.263 35.4248 239.76 35.4248 240.381 35.4248C241.127 35.4248 241.624 35.3005 241.997 35.0519C242.37 34.8033 242.494 34.5547 242.494 34.1819C242.494 33.9333 242.37 33.6847 242.246 33.5604C241.997 33.4361 241.748 33.3118 241.5 33.1875C241.251 33.0632 240.754 32.9389 240.257 32.8146C239.511 32.6903 239.014 32.4417 238.517 32.3175C238.02 32.1932 237.647 31.9446 237.398 31.5717C237.025 31.1988 236.901 30.7016 236.901 30.0802C236.901 29.583 237.025 29.0858 237.274 28.7129C237.522 28.3401 238.02 27.9672 238.517 27.7186C239.138 27.47 239.76 27.3457 240.63 27.3457C241.251 27.3457 241.748 27.47 242.37 27.5943C242.867 27.7186 243.364 27.9672 243.861 28.2158L243.364 29.583C242.991 29.3344 242.494 29.2101 242.121 29.0858C241.624 28.9615 241.251 28.9615 240.754 28.9615C240.008 28.9615 239.511 29.0858 239.263 29.3344C238.89 29.583 238.765 29.8316 238.765 30.2045C238.765 30.453 238.89 30.7016 239.014 30.8259C239.263 30.9502 239.511 31.0745 239.76 31.1988C240.008 31.3231 240.505 31.4474 241.003 31.5717C241.748 31.696 242.246 31.9446 242.743 32.0689C243.24 32.1932 243.613 32.4418 243.861 32.8146C244.234 33.1875 244.359 33.6847 244.359 34.1819C244.359 34.679 244.234 35.1762 243.986 35.5491C243.737 35.922 243.24 36.2949 242.743 36.5434C242.121 36.792 241.5 36.9163 240.63 36.9163C239.635 36.9163 238.89 36.792 238.268 36.5434Z" fill="#777777"/>
<path d="M246.721 36.5434C246.1 36.2949 245.479 36.0463 245.106 35.7977L245.727 34.4304C246.1 34.679 246.597 34.9276 247.094 35.1762C247.716 35.4248 248.213 35.4248 248.834 35.4248C249.58 35.4248 250.077 35.3005 250.45 35.0519C250.823 34.8033 250.947 34.5547 250.947 34.1819C250.947 33.9333 250.823 33.6847 250.699 33.5604C250.45 33.4361 250.202 33.3118 249.953 33.1875C249.705 33.0632 249.207 32.9389 248.71 32.8146C247.964 32.6903 247.467 32.4417 246.97 32.3175C246.473 32.1932 246.1 31.9446 245.851 31.5717C245.479 31.1988 245.354 30.7016 245.354 30.0802C245.354 29.583 245.479 29.0858 245.727 28.7129C245.976 28.3401 246.473 27.9672 246.97 27.7186C247.592 27.47 248.213 27.3457 249.083 27.3457C249.705 27.3457 250.202 27.47 250.823 27.5943C251.32 27.7186 251.818 27.9672 252.315 28.2158L251.818 29.583C251.445 29.3344 250.947 29.2101 250.575 29.0858C250.077 28.9615 249.705 28.9615 249.207 28.9615C248.462 28.9615 247.964 29.0858 247.716 29.3344C247.343 29.583 247.219 29.8316 247.219 30.2045C247.219 30.453 247.343 30.7016 247.467 30.8259C247.716 30.9502 247.964 31.0745 248.213 31.1988C248.462 31.3231 248.959 31.4474 249.456 31.5717C250.202 31.696 250.699 31.9446 251.196 32.0689C251.693 32.1932 252.066 32.4418 252.315 32.8146C252.688 33.1875 252.812 33.6847 252.812 34.1819C252.812 34.679 252.688 35.1762 252.439 35.5491C252.19 35.922 251.693 36.2949 251.196 36.5434C250.575 36.792 249.953 36.9163 249.083 36.9163C248.089 36.9163 247.467 36.792 246.721 36.5434Z" fill="#777777"/>
<path d="M254.303 36.5428C254.054 36.2943 253.93 36.0457 253.93 35.7971C253.93 35.4242 254.054 35.1756 254.303 35.0513C254.551 34.8027 254.8 34.8027 255.048 34.8027C255.297 34.8027 255.67 34.927 255.794 35.0513C256.043 35.2999 256.167 35.5485 256.167 35.7971C256.167 36.17 256.043 36.4186 255.794 36.5428C255.546 36.7914 255.297 36.7914 255.048 36.7914C254.8 36.9157 254.427 36.7914 254.303 36.5428Z" fill="#777777"/>
<path d="M60.9031 15.7857C60.033 14.9157 59.6602 13.797 59.6602 12.1812V6.09082H61.7731V12.0569C61.7731 14.1699 62.7675 15.2886 64.6319 15.2886C66.4963 15.2886 67.4907 14.1699 67.4907 12.0569V6.09082H69.4794V12.1812C69.4794 13.797 69.1065 14.9157 68.2364 15.7857C67.3664 16.6558 66.1234 17.0287 64.6319 17.0287C63.1404 17.0287 61.7732 16.6558 60.9031 15.7857Z" fill="#03B0EF"/>
<path d="M79.5462 9.44676C80.1677 10.0682 80.5406 10.9383 80.5406 12.1812V16.9044H78.5519V12.4298C78.5519 11.684 78.4276 11.1869 78.0547 10.814C77.6818 10.4411 77.1846 10.1925 76.5632 10.1925C75.8174 10.1925 75.1959 10.4411 74.8231 10.814C74.3259 11.3112 74.2016 11.9326 74.2016 12.6784V16.9044H72.2129V8.701H74.0773V9.81964C74.4502 9.44676 74.8231 9.19817 75.3202 8.94958C75.8174 8.701 76.4389 8.701 77.0603 8.701C78.0547 8.5767 78.9248 8.82529 79.5462 9.44676Z" fill="#03B0EF"/>
<path d="M83.2752 6.96065C83.0266 6.71206 82.9023 6.46348 82.9023 6.0906C82.9023 5.71771 83.0266 5.46913 83.2752 5.22054C83.5238 4.97195 83.7724 4.84766 84.1453 4.84766C84.5182 4.84766 84.7667 4.97195 85.0153 5.22054C85.2639 5.46913 85.3882 5.71771 85.3882 5.9663C85.3882 6.33918 85.2639 6.58777 85.0153 6.83636C84.7667 7.08494 84.5182 7.20924 84.1453 7.20924C83.7724 7.20924 83.3995 7.20924 83.2752 6.96065ZM83.1509 8.57647H85.1396V16.7799H83.1509V8.57647Z" fill="#03B0EF"/>
<path d="M95.7048 8.57617L92.1003 16.7796H89.9873L86.3828 8.57617H88.4958L91.106 14.6666L93.8404 8.57617H95.7048Z" fill="#03B0EF"/>
<path d="M104.654 13.4241H97.9418C98.0661 14.0455 98.3147 14.5427 98.8119 14.9156C99.3091 15.2885 99.9305 15.4128 100.676 15.4128C101.671 15.4128 102.416 15.1642 103.038 14.5427L104.157 15.7856C103.784 16.2828 103.286 16.5314 102.665 16.78C102.044 17.0286 101.422 17.1529 100.676 17.1529C99.6819 17.1529 98.9362 17.0286 98.1904 16.6557C97.4447 16.2828 96.9475 15.7856 96.5746 15.1642C96.2017 14.5427 95.9531 13.7969 95.9531 12.9269C95.9531 12.1811 96.2017 11.4354 96.5746 10.8139C96.9475 10.1924 97.4447 9.69525 98.1904 9.32237C98.8119 8.94949 99.5576 8.8252 100.428 8.8252C101.298 8.8252 102.044 8.94949 102.665 9.32237C103.286 9.69525 103.784 10.1924 104.157 10.8139C104.529 11.4354 104.654 12.1811 104.654 13.0512C104.778 12.9269 104.778 13.1755 104.654 13.4241ZM98.8119 10.5653C98.3147 10.9382 98.0661 11.4354 98.0661 12.0568H102.914C102.789 11.4354 102.541 10.9382 102.168 10.5653C101.671 10.1924 101.173 10.0681 100.552 10.0681C99.8062 10.0681 99.3091 10.3167 98.8119 10.5653Z" fill="#03B0EF"/>
<path d="M111.616 8.57617V10.4406C111.492 10.4406 111.243 10.4406 111.119 10.4406C110.373 10.4406 109.752 10.6892 109.255 11.062C108.758 11.5592 108.633 12.1807 108.633 12.9265V16.9039H106.645V8.70046H108.509V9.9434C109.13 8.94905 110.125 8.57617 111.616 8.57617Z" fill="#03B0EF"/>
<path d="M113.975 16.6555C113.354 16.5312 112.732 16.2827 112.359 16.0341L113.105 14.5425C113.478 14.7911 113.975 15.0397 114.472 15.164C114.97 15.2883 115.591 15.4126 116.088 15.4126C117.331 15.4126 117.828 15.164 117.828 14.5425C117.828 14.294 117.704 14.0454 117.331 13.9211C117.083 13.7968 116.585 13.6725 115.84 13.5482C115.094 13.4239 114.597 13.2996 114.099 13.1753C113.602 13.051 113.229 12.8024 112.981 12.4295C112.732 12.0567 112.484 11.6838 112.484 11.0623C112.484 10.3166 112.857 9.69509 113.478 9.19791C114.099 8.70074 115.094 8.45215 116.212 8.45215C116.834 8.45215 117.331 8.57644 117.953 8.70073C118.574 8.82503 119.071 8.94932 119.444 9.19791L118.698 10.6894C117.953 10.3166 117.207 10.068 116.212 10.068C115.591 10.068 115.218 10.1923 114.845 10.3166C114.597 10.4408 114.348 10.6894 114.348 10.938C114.348 11.1866 114.472 11.4352 114.845 11.5595C115.218 11.6838 115.715 11.8081 116.337 11.9324C116.958 12.0567 117.58 12.181 117.953 12.3053C118.325 12.4295 118.823 12.6781 119.071 12.9267C119.32 13.1753 119.568 13.6725 119.568 14.294C119.568 15.0397 119.196 15.6612 118.574 16.1584C117.828 16.6555 116.958 16.9041 115.715 16.9041C115.218 17.0284 114.597 16.9041 113.975 16.6555Z" fill="#03B0EF"/>
<path d="M127.65 9.44676C128.272 10.0682 128.644 10.9383 128.644 12.0569V16.9044H126.78V15.91C126.531 16.2829 126.159 16.5315 125.786 16.7801C125.288 17.0287 124.791 17.0287 124.17 17.0287C123.548 17.0287 122.927 16.9044 122.554 16.6558C122.057 16.4072 121.684 16.1586 121.435 15.7857C121.187 15.4129 121.062 15.04 121.062 14.5428C121.062 13.797 121.311 13.1756 121.933 12.8027C122.554 12.3055 123.424 12.1812 124.667 12.1812H126.904V12.0569C126.904 11.4355 126.78 11.0626 126.407 10.6897C126.034 10.4411 125.537 10.1925 124.791 10.1925C124.294 10.1925 123.797 10.3168 123.424 10.4411C122.927 10.5654 122.554 10.814 122.305 11.0626L121.56 9.69535C122.057 9.32247 122.554 9.07388 123.175 8.94958C123.797 8.82529 124.418 8.701 125.164 8.701C126.034 8.5767 127.029 8.82529 127.65 9.44676ZM125.91 15.2886C126.283 15.04 126.531 14.7914 126.78 14.2942V13.2999H124.667C123.548 13.2999 122.927 13.6727 122.927 14.4185C122.927 14.7914 123.051 15.04 123.3 15.2886C123.548 15.5372 124.046 15.5372 124.543 15.5372C125.04 15.5372 125.537 15.4129 125.91 15.2886Z" fill="#03B0EF"/>
<path d="M131.254 5.46875H133.243V16.9038H131.254V5.46875Z" fill="#03B0EF"/>
<path d="M141.446 16.6561C140.701 16.4075 139.955 16.1589 139.582 15.6617L140.328 14.0459C140.825 14.4188 141.322 14.6674 142.068 14.9159C142.689 15.1645 143.435 15.2888 144.057 15.2888C144.927 15.2888 145.548 15.1645 145.921 14.9159C146.294 14.6674 146.542 14.2945 146.542 13.9216C146.542 13.673 146.418 13.3001 146.17 13.1758C145.921 12.9272 145.672 12.803 145.3 12.6787C144.927 12.5544 144.429 12.4301 143.808 12.3058C142.938 12.0572 142.316 11.9329 141.695 11.6843C141.198 11.4357 140.701 11.1871 140.328 10.8143C139.955 10.4414 139.706 9.8199 139.706 9.07414C139.706 8.45267 139.831 7.9555 140.204 7.45832C140.576 6.96115 141.074 6.58826 141.695 6.33968C142.316 6.09109 143.187 5.9668 144.181 5.9668C144.802 5.9668 145.548 6.09109 146.17 6.21538C146.791 6.33968 147.413 6.58826 147.91 6.96115L147.288 8.57697C146.791 8.32838 146.294 8.07979 145.797 7.9555C145.3 7.8312 144.802 7.70691 144.305 7.70691C143.435 7.70691 142.938 7.8312 142.441 8.07979C142.068 8.32838 141.819 8.70126 141.819 9.19844C141.819 9.44702 141.944 9.8199 142.192 9.9442C142.441 10.0685 142.689 10.3171 143.062 10.4414C143.435 10.5657 143.932 10.69 144.554 10.8143C145.424 10.9385 146.045 11.1871 146.542 11.4357C147.04 11.6843 147.537 11.9329 147.91 12.3058C148.283 12.6787 148.531 13.3001 148.531 13.9216C148.531 14.5431 148.407 15.0402 148.034 15.5374C147.661 16.0346 147.164 16.4075 146.542 16.6561C145.921 16.9046 145.051 17.0289 144.057 17.0289C143.062 17.0289 142.192 16.9046 141.446 16.6561Z" fill="#F58436"/>
<path d="M155.492 16.4066C155.243 16.5309 154.995 16.7794 154.622 16.7794C154.249 16.9037 153.876 16.9037 153.503 16.9037C152.509 16.9037 151.888 16.6551 151.39 16.158C150.893 15.6608 150.645 15.0393 150.645 14.045V10.1919H149.277V8.70034H150.645V6.83594H152.633V8.70034H154.871V10.1919H152.633V14.1693C152.633 14.5422 152.758 14.915 152.882 15.0393C153.13 15.2879 153.379 15.4122 153.752 15.4122C154.249 15.4122 154.622 15.2879 154.871 15.0393L155.492 16.4066Z" fill="#F58436"/>
<path d="M162.079 8.57617V10.4406C161.955 10.4406 161.706 10.4406 161.582 10.4406C160.836 10.4406 160.215 10.6892 159.718 11.062C159.22 11.5592 159.096 12.1807 159.096 12.9265V16.9039H157.107V8.70046H158.972V9.9434C159.593 8.94905 160.588 8.57617 162.079 8.57617Z" fill="#F58436"/>
<path d="M171.65 13.4241H164.938C165.062 14.0455 165.311 14.5427 165.808 14.9156C166.305 15.2885 166.927 15.4128 167.672 15.4128C168.667 15.4128 169.413 15.1642 170.034 14.5427L171.153 15.7856C170.78 16.2828 170.283 16.5314 169.661 16.78C169.04 17.0286 168.418 17.1529 167.672 17.1529C166.678 17.1529 165.932 17.0286 165.187 16.6557C164.441 16.2828 163.944 15.7856 163.571 15.1642C163.198 14.5427 162.949 13.7969 162.949 12.9269C162.949 12.1811 163.198 11.4354 163.571 10.8139C163.944 10.1924 164.441 9.69525 165.187 9.32237C165.808 8.94949 166.554 8.8252 167.424 8.8252C168.294 8.8252 169.04 8.94949 169.661 9.32237C170.283 9.69525 170.78 10.1924 171.153 10.8139C171.525 11.4354 171.65 12.1811 171.65 13.0512C171.65 12.9269 171.65 13.1755 171.65 13.4241ZM165.684 10.5653C165.187 10.9382 164.938 11.4354 164.938 12.0568H169.785C169.661 11.4354 169.413 10.9382 169.04 10.5653C168.542 10.1924 168.045 10.0681 167.424 10.0681C166.678 10.0681 166.181 10.3167 165.684 10.5653Z" fill="#F58436"/>
<path d="M179.48 9.44676C180.102 10.0682 180.475 10.9383 180.475 12.0569V16.9044H178.61V15.91C178.362 16.2829 177.989 16.5315 177.616 16.7801C177.119 17.0287 176.621 17.0287 176 17.0287C175.378 17.0287 174.757 16.9044 174.384 16.6558C173.887 16.4072 173.514 16.1586 173.265 15.7857C173.017 15.4129 172.893 15.04 172.893 14.5428C172.893 13.797 173.141 13.1756 173.763 12.8027C174.384 12.3055 175.254 12.1812 176.497 12.1812H178.734V12.0569C178.734 11.4355 178.61 11.0626 178.237 10.6897C177.864 10.4411 177.367 10.1925 176.621 10.1925C176.124 10.1925 175.627 10.3168 175.254 10.4411C174.757 10.5654 174.384 10.814 174.136 11.0626L173.39 9.69535C173.887 9.32247 174.384 9.07388 175.006 8.94958C175.627 8.82529 176.249 8.701 176.994 8.701C177.864 8.5767 178.859 8.82529 179.48 9.44676ZM177.616 15.2886C177.989 15.04 178.237 14.7914 178.486 14.2942V13.2999H176.373C175.254 13.2999 174.633 13.6727 174.633 14.4185C174.633 14.7914 174.757 15.04 175.006 15.2886C175.254 15.5372 175.751 15.5372 176.249 15.5372C176.87 15.5372 177.243 15.4129 177.616 15.2886Z" fill="#F58436"/>
<path d="M196.384 9.44622C197.006 10.0677 197.378 10.9377 197.378 12.1807V16.9038H195.39V12.4293C195.39 11.6835 195.265 11.1863 194.893 10.8135C194.52 10.4406 194.147 10.3163 193.525 10.3163C192.904 10.3163 192.282 10.5649 191.91 10.9377C191.537 11.3106 191.288 11.9321 191.288 12.8022V17.0281H189.299V12.5536C189.299 11.8078 189.175 11.3106 188.802 10.9377C188.429 10.5649 188.056 10.4406 187.435 10.4406C186.814 10.4406 186.192 10.6892 185.819 11.062C185.446 11.4349 185.198 12.0564 185.198 12.9264V17.1524H183.209V8.94905H185.073V9.9434C185.446 9.57051 185.819 9.32193 186.316 9.07334C186.814 8.82475 187.311 8.82475 187.932 8.82475C188.554 8.82475 189.175 8.94905 189.672 9.19763C190.169 9.44622 190.542 9.8191 190.791 10.192C191.164 9.8191 191.537 9.44622 192.158 9.19763C192.655 8.94905 193.277 8.82475 194.023 8.82475C194.893 8.57616 195.763 8.82475 196.384 9.44622Z" fill="#F58436"/>
<path d="M205.458 16.6561C204.712 16.4075 203.967 16.1589 203.594 15.6617L204.34 14.0459C204.837 14.4188 205.334 14.6674 206.08 14.9159C206.701 15.1645 207.447 15.2888 208.068 15.2888C208.938 15.2888 209.56 15.1645 209.933 14.9159C210.306 14.6674 210.554 14.2945 210.554 13.9216C210.554 13.673 210.43 13.3001 210.181 13.1758C209.933 12.9272 209.684 12.803 209.311 12.6787C208.938 12.5544 208.441 12.4301 207.82 12.3058C206.95 12.0572 206.328 11.9329 205.707 11.6843C205.21 11.4357 204.712 11.1871 204.34 10.8143C203.967 10.4414 203.718 9.8199 203.718 9.07414C203.718 8.45267 203.842 7.9555 204.215 7.45832C204.588 6.96115 205.085 6.58826 205.707 6.33968C206.328 6.09109 207.198 5.9668 208.193 5.9668C208.814 5.9668 209.56 6.09109 210.181 6.21538C210.803 6.33968 211.424 6.58826 211.921 6.96115L211.3 8.57697C210.803 8.32838 210.306 8.07979 209.808 7.9555C209.311 7.8312 208.814 7.70691 208.317 7.70691C207.447 7.70691 206.95 7.8312 206.452 8.07979C206.08 8.32838 205.831 8.70126 205.831 9.19844C205.831 9.44702 205.955 9.8199 206.204 9.9442C206.452 10.1928 206.701 10.3171 207.074 10.4414C207.447 10.5657 207.944 10.69 208.566 10.8143C209.436 10.9385 210.057 11.1871 210.554 11.4357C211.051 11.6843 211.549 11.9329 211.921 12.3058C212.294 12.6787 212.543 13.3001 212.543 13.9216C212.543 14.5431 212.419 15.0402 212.046 15.5374C211.673 16.0346 211.176 16.4075 210.554 16.6561C209.933 16.9046 209.063 17.0289 208.068 17.0289C207.074 17.0289 206.204 16.9046 205.458 16.6561Z" fill="#03B0EF"/>
<path d="M215.772 16.407C215.027 16.0341 214.53 15.5369 214.157 14.9154C213.784 14.294 213.535 13.5482 213.535 12.6781C213.535 11.8081 213.784 11.1866 214.157 10.4408C214.53 9.81938 215.027 9.3222 215.772 8.94932C216.518 8.57644 217.264 8.45215 218.134 8.45215C219.004 8.45215 219.75 8.57644 220.496 8.94932C221.241 9.3222 221.739 9.81938 222.111 10.4408C222.484 11.0623 222.733 11.8081 222.733 12.6781C222.733 13.5482 222.484 14.1697 222.111 14.9154C221.739 15.5369 221.241 16.0341 220.496 16.407C219.75 16.7798 219.004 16.9041 218.134 16.9041C217.264 17.0284 216.518 16.7798 215.772 16.407ZM219.998 14.6668C220.496 14.1697 220.744 13.5482 220.744 12.8024C220.744 12.0567 220.496 11.4352 219.998 10.938C219.501 10.4408 218.88 10.1923 218.134 10.1923C217.388 10.1923 216.767 10.4408 216.27 10.938C215.772 11.4352 215.524 12.0567 215.524 12.8024C215.524 13.5482 215.772 14.1697 216.27 14.6668C216.767 15.164 217.388 15.4126 218.134 15.4126C218.88 15.2883 219.501 15.0397 219.998 14.6668Z" fill="#03B0EF"/>
<path d="M224.598 5.46875H226.586V16.9038H224.598V5.46875Z" fill="#03B0EF"/>
<path d="M237.525 8.57644V16.7798H235.661V15.7855C235.288 16.1584 234.915 16.4069 234.418 16.6555C233.92 16.9041 233.423 16.9041 232.926 16.9041C231.807 16.9041 230.937 16.6555 230.192 16.0341C229.57 15.4126 229.197 14.5425 229.197 13.2996V8.57644H231.186V13.051C231.186 13.7968 231.31 14.294 231.683 14.6668C232.056 15.0397 232.553 15.164 233.175 15.164C233.92 15.164 234.418 14.9154 234.915 14.5425C235.288 14.1697 235.536 13.5482 235.536 12.6781V8.45215L237.525 8.57644Z" fill="#03B0EF"/>
<path d="M245.23 16.4066C244.982 16.5309 244.733 16.7794 244.36 16.7794C243.987 16.9037 243.614 16.9037 243.242 16.9037C242.247 16.9037 241.626 16.6551 241.129 16.158C240.631 15.6608 240.383 15.0393 240.383 14.045V10.1919H239.016V8.70034H240.383V6.83594H242.372V8.70034H244.609V10.1919H242.372V14.1693C242.372 14.5422 242.496 14.915 242.62 15.0393C242.744 15.1636 243.117 15.4122 243.49 15.4122C243.987 15.4122 244.36 15.2879 244.609 15.0393L245.23 16.4066Z" fill="#03B0EF"/>
<path d="M246.971 6.96065C246.722 6.71206 246.598 6.46348 246.598 6.0906C246.598 5.71771 246.722 5.46913 246.971 5.22054C247.219 4.97195 247.468 4.84766 247.841 4.84766C248.213 4.84766 248.462 4.97195 248.711 5.22054C248.959 5.46913 249.084 5.71771 249.084 5.9663C249.084 6.33918 248.959 6.58777 248.711 6.83636C248.462 7.08494 248.213 7.20924 247.841 7.20924C247.468 7.20924 247.219 7.20924 246.971 6.96065ZM246.846 8.57647H248.835V16.7799H246.846V8.57647Z" fill="#03B0EF"/>
<path d="M253.061 16.407C252.315 16.0341 251.818 15.5369 251.445 14.9154C251.073 14.294 250.824 13.5482 250.824 12.6781C250.824 11.8081 251.073 11.1866 251.445 10.4408C251.818 9.81938 252.315 9.3222 253.061 8.94932C253.807 8.57644 254.553 8.45215 255.423 8.45215C256.293 8.45215 257.039 8.57644 257.784 8.94932C258.53 9.3222 259.027 9.81938 259.4 10.4408C259.773 11.0623 260.022 11.8081 260.022 12.6781C260.022 13.5482 259.773 14.1697 259.4 14.9154C259.027 15.5369 258.53 16.0341 257.784 16.407C257.039 16.7798 256.293 16.9041 255.423 16.9041C254.429 17.0284 253.683 16.7798 253.061 16.407ZM257.163 14.6668C257.66 14.1697 257.909 13.5482 257.909 12.8024C257.909 12.0567 257.66 11.4352 257.163 10.938C256.666 10.4408 256.044 10.1923 255.299 10.1923C254.553 10.1923 253.931 10.4408 253.434 10.938C252.937 11.4352 252.688 12.0567 252.688 12.8024C252.688 13.5482 252.937 14.1697 253.434 14.6668C253.931 15.164 254.553 15.4126 255.299 15.4126C256.044 15.2883 256.666 15.0397 257.163 14.6668Z" fill="#03B0EF"/>
<path d="M269.22 9.44622C269.842 10.0677 270.214 10.9377 270.214 12.1807V16.9038H268.226V12.4293C268.226 11.6835 268.101 11.1863 267.729 10.8135C267.356 10.4406 266.858 10.3163 266.237 10.3163C265.491 10.3163 264.87 10.5649 264.497 10.9377C264.124 11.3106 263.875 11.9321 263.875 12.8022V17.0281H261.887V8.82475H263.751V9.9434C264.124 9.57051 264.497 9.32193 264.994 9.07334C265.491 8.82475 266.113 8.82475 266.734 8.82475C267.729 8.57616 268.599 8.82475 269.22 9.44622Z" fill="#03B0EF"/>
<path fill-rule="evenodd" clip-rule="evenodd" d="M23.4915 11.0625C4.84746 11.0625 0 18.0229 0 21.7518C0 25.4806 4.22599 28.215 4.22599 28.215C4.22599 28.215 6.71186 29.7066 5.22034 27.5936C5.22034 27.5936 -3.23164 20.0117 15.2881 16.6557C15.2881 16.6557 16.6554 16.1585 16.5311 18.1472V28.0907C16.5311 28.0907 17.6497 32.9382 23.6158 32.9382C29.5819 32.9382 30.5763 28.0907 30.5763 28.0907V18.1472C30.5763 18.1472 30.2034 16.1585 31.9435 16.4071C33.6836 16.6557 48.8475 20.0117 41.3898 27.8422C41.3898 27.8422 40.0226 29.7066 42.6328 28.3393C42.6328 28.3393 47.2316 25.6049 47.2316 21.8761C47.2316 18.1472 42.1356 11.0625 23.4915 11.0625Z" fill="#F58436"/>
<path fill-rule="evenodd" clip-rule="evenodd" d="M37.7849 19.0175C34.9262 17.5259 31.3216 17.5259 31.3216 17.5259C31.3216 17.5259 31.3216 27.9666 31.3216 28.0909C31.3216 28.5881 31.1973 29.0852 31.0731 29.5824C31.1973 30.4525 32.4403 31.3225 32.4403 31.3225C30.8245 31.3225 30.4516 35.4242 30.4516 33.9327C30.4516 32.4412 29.2086 32.1926 29.2086 32.1926C30.3273 31.3225 30.8245 30.4525 30.9488 29.9553C29.8301 32.3169 26.5985 34.057 23.4911 34.057C21.3781 34.057 19.3894 33.1869 17.8979 31.944C17.0279 31.944 16.655 33.8084 16.655 33.8084C16.2821 31.3225 13.299 31.4468 14.2934 31.1982C15.2877 30.9497 16.0335 29.7067 16.0335 29.7067C16.1578 30.0796 16.4064 30.4525 16.655 30.7011C16.1578 29.7067 15.7849 28.8367 15.7849 27.9666C15.7849 27.9666 15.7849 26.9723 15.7849 25.4807C15.7849 25.4807 15.1635 24.2378 14.4177 24.3621C14.4177 24.3621 15.7849 23.9892 15.7849 23.2434C15.7849 20.3847 15.7849 17.2773 15.7849 17.2773C15.7849 17.2773 11.4346 17.5259 9.19735 19.1418C7.33295 21.1305 6.46289 23.492 6.46289 27.5937C6.46289 34.4299 10.8132 40.2717 17.0279 42.7576C17.2764 42.7576 17.6493 42.7576 17.7736 42.3847C17.7736 42.3847 17.7736 42.7576 18.2708 43.1304C19.638 43.5033 21.0053 43.7519 22.4968 43.8762C22.4968 43.7519 22.4968 43.5033 22.3725 43.5033C22.3725 43.5033 22.8697 43.6276 23.1183 43.0062C23.1183 43.0062 23.3668 43.8762 24.1126 43.7519L23.7397 43.8762C24.9827 43.8762 26.2256 43.6276 27.3442 43.379C27.4685 43.2547 28.09 42.8819 28.2143 42.3847C28.2143 42.3847 28.3386 43.0062 28.8358 43.0062C35.4233 40.7689 40.2708 34.6785 40.2708 27.5937C40.1465 23.492 39.1522 20.3847 37.7849 19.0175ZM12.3047 18.7689C12.3047 18.7689 12.1804 19.266 13.4233 19.3903C14.6663 19.5146 12.1804 19.7632 12.0561 21.379C11.6832 20.8819 11.9318 19.7632 11.0618 20.0118C11.0618 20.0118 11.9318 19.8875 12.3047 18.7689ZM11.6832 22.8706C11.6832 22.8706 11.6832 24.6107 13.0505 24.8593C13.0505 24.8593 11.4346 24.9836 11.1861 26.7237C11.1861 26.7237 10.8132 24.9836 9.94312 24.735C9.94312 24.735 10.9375 24.9836 11.6832 22.8706ZM9.32165 20.3847C9.07306 21.0062 9.81882 21.1304 9.81882 21.1304C9.81882 21.1304 9.32165 21.379 9.07306 22.0005C9.07306 21.1305 8.57589 21.2547 8.57589 21.2547L9.32165 20.3847ZM8.45159 24.3621C8.57589 23.9892 8.57589 24.1135 8.45159 24.3621C8.45159 24.735 8.45159 25.3564 8.94877 25.4807C8.94877 25.4807 8.07871 25.2321 7.95442 26.1022C7.95442 26.9723 7.95442 25.1079 7.33295 24.9836C7.45724 25.1079 8.3273 24.9836 8.45159 24.3621ZM7.45724 30.4525C8.203 30.2039 8.3273 29.831 8.3273 29.5824C8.3273 29.4581 8.3273 29.4581 8.3273 29.3338C8.3273 29.3338 8.3273 29.4581 8.3273 29.5824C8.45159 30.0796 8.94877 30.3282 8.94877 30.3282C8.45159 30.3282 8.3273 31.074 8.3273 31.074C8.203 30.2039 7.45724 30.4525 7.45724 30.4525ZM9.19735 35.7971C9.19735 35.7971 8.94877 35.0514 8.45159 34.6785C7.83012 34.4299 9.07306 34.6785 9.07306 33.9327C9.07306 33.9327 9.19735 34.9271 10.1917 35.0514C10.0674 34.9271 8.94877 35.0514 9.19735 35.7971ZM9.94312 30.7011C9.94312 30.7011 11.3103 30.0796 11.3103 28.7124C11.3103 27.3451 11.1861 30.8254 12.9262 30.9497C12.9262 30.9497 11.4346 30.9497 11.5589 32.6898C11.5589 32.6898 10.8132 30.7011 9.94312 30.7011ZM12.3047 37.4129C12.3047 37.4129 11.6832 35.9214 10.9375 35.5485C10.9375 35.5485 11.8075 35.2999 11.9318 34.4299C11.9318 34.4299 12.3047 35.9214 13.6719 35.9214C13.5476 36.0457 11.9318 36.0457 12.3047 37.4129ZM13.6719 40.2717C13.6719 40.2717 13.0505 39.4016 12.5533 39.153C12.5533 39.153 13.299 39.2773 13.299 38.4073C13.299 38.4073 13.299 39.153 14.4177 39.5259C14.542 39.5259 13.5476 39.5259 13.6719 40.2717ZM16.9036 35.1756C17.4007 36.5429 19.2651 37.1643 19.2651 37.1643C17.7736 37.1643 17.4007 38.5316 17.4007 38.5316C17.4007 37.5372 15.412 36.7915 15.412 36.7915C16.655 36.6672 16.9036 35.1756 16.9036 35.1756ZM18.0222 41.8875C18.0222 41.8875 17.7736 40.8932 16.9036 40.6446C16.9036 40.6446 18.1465 40.396 18.1465 39.8988C18.1465 39.8988 18.2708 40.8932 19.7623 41.0175C19.7623 40.8932 17.8979 40.6446 18.0222 41.8875ZM23.6154 42.0118C23.6154 42.0118 22.8697 41.266 22.2482 41.266C22.2482 41.266 23.1183 41.266 23.4911 40.396C23.4911 40.396 23.9883 41.3903 25.107 41.5146C25.107 41.3903 23.6154 41.266 23.6154 42.0118ZM23.4911 39.153C23.4911 39.153 23.2426 37.4129 21.2539 37.4129C21.2539 37.4129 23.2425 36.9158 23.2425 35.5485C23.2425 35.5485 23.9883 37.4129 25.6041 37.4129C25.7284 37.4129 23.6154 38.0344 23.4911 39.153ZM28.9601 41.6389C28.9601 41.6389 28.5872 40.8932 27.9657 40.8932C27.9657 40.8932 29.2087 40.5203 29.3329 39.6502C29.3329 39.6502 29.3329 40.5203 30.3273 40.5203C30.4516 40.6446 29.2086 40.6446 28.9601 41.6389ZM29.5815 38.7802C29.5815 38.7802 28.9601 37.1643 27.9657 37.4129C27.9657 37.4129 29.8301 36.2943 29.9544 34.9271C29.9544 34.9271 30.203 36.7915 31.3216 36.7915C31.4459 36.7915 29.9544 37.2886 29.5815 38.7802ZM37.9092 20.509C37.9092 20.3847 38.0335 20.3847 38.0335 20.3847C37.9092 20.3847 37.9092 20.3847 37.9092 20.509C37.9092 20.6333 37.9092 20.7576 38.2821 21.0062C38.2821 21.0062 37.6606 21.1304 37.7849 21.8762C37.7849 21.8762 37.6606 20.8819 37.1635 20.7576C37.1635 20.7576 37.6606 20.7576 37.9092 20.509ZM34.3047 18.5203C34.3047 19.1418 35.9205 19.8875 35.9205 19.8875C34.9262 19.7632 34.8019 20.7576 34.8019 20.7576C34.8019 19.5146 33.1861 19.266 33.1861 19.266C33.9318 19.266 34.3047 18.5203 34.3047 18.5203ZM31.4459 25.7293C31.4459 25.2321 31.4459 23.6163 31.4459 23.6163C31.4459 23.6163 31.6945 24.735 32.8132 24.735C32.8132 24.6107 31.4459 24.8593 31.4459 25.7293ZM33.3103 40.1474C33.3103 40.1474 33.0618 39.6502 32.5646 39.6502C32.5646 39.6502 33.1861 39.4016 33.6832 38.5316C33.6832 38.5316 33.3103 39.153 34.3047 39.0288C34.1804 39.153 33.4346 39.2773 33.3103 40.1474ZM34.8019 37.2886C34.8019 37.2886 34.3047 36.0457 33.5589 36.0457C33.5589 36.0457 34.9262 35.6728 34.9262 34.3056C34.9262 34.3056 34.9262 35.1756 36.0448 35.4242C36.0448 35.4242 35.0505 35.7971 34.8019 37.2886ZM35.4233 32.4412C35.4233 32.4412 35.4233 31.074 34.0561 30.9497C34.0561 30.9497 35.6719 30.7011 35.9205 28.8367C35.9205 28.8367 35.5476 30.7011 37.0392 30.7011C37.0392 30.5768 35.5476 31.074 35.4233 32.4412ZM35.6719 26.5994C35.6719 26.5994 35.4233 24.735 34.0561 24.8593C34.0561 24.8593 35.6719 24.2378 35.6719 22.8706C35.6719 21.5033 35.6719 24.6107 37.0392 24.735C37.0392 24.735 35.7962 24.9836 35.6719 26.5994ZM37.7849 35.4242C37.7849 35.4242 37.6606 34.6785 37.1635 34.5542C37.1635 34.5542 37.7849 34.4299 37.9092 33.6841C37.9092 33.6841 37.9092 34.1813 38.4064 34.3056C38.4064 34.1813 37.9092 34.3056 37.7849 35.4242ZM38.655 31.074C38.655 31.074 38.5307 30.0796 38.1578 29.9553C38.1578 29.9553 38.655 29.9553 38.9036 29.4581C38.9036 29.3338 39.0279 29.2095 39.0279 29.2095C39.0279 29.3338 39.0279 29.3338 38.9036 29.4581C38.9036 29.5824 39.0279 29.831 39.4007 29.9553C39.4007 29.9553 38.7793 29.831 38.655 31.074ZM39.4007 25.2321C39.0279 25.2321 38.4064 25.3564 38.655 26.2265C38.9036 26.848 39.0279 27.3451 38.655 26.3508C38.655 26.2265 38.655 26.2265 38.655 26.2265C38.5307 25.7293 38.2821 25.2321 38.0335 25.2321C38.0335 25.2321 38.2821 24.735 38.4064 24.1135C38.5307 23.492 38.5307 25.1078 39.4007 25.2321C39.7736 25.2321 39.6493 25.2321 39.4007 25.2321ZM18.2708 43.2547C18.1465 43.2547 17.8979 43.1304 17.7736 43.1304C18.0222 43.1304 18.2708 43.2547 18.2708 43.2547Z" fill="#03B0EF"/>
<path d="M23.6152 8.70057C26.0864 8.70057 28.0898 6.75288 28.0898 4.35028C28.0898 1.94769 26.0864 0 23.6152 0C21.144 0 19.1406 1.94769 19.1406 4.35028C19.1406 6.75288 21.144 8.70057 23.6152 8.70057Z" fill="#F58436"/>
</svg>
