<svg width="262" height="44" viewBox="0 0 262 44" fill="none" xmlns="http://www.w3.org/2000/svg">
<path fill-rule="evenodd" clip-rule="evenodd" d="M23.5601 11.0934C4.86163 11.0934 0 18.0736 0 21.813C0 25.5523 4.23832 28.2946 4.23832 28.2946C4.23832 28.2946 6.73142 29.7903 5.23553 27.6714C5.23553 27.6714 -3.2411 20.0679 15.3327 16.7026C15.3327 16.7026 16.7039 16.204 16.5793 18.1983V28.17C16.5793 28.17 17.7011 33.0311 23.6846 33.0311C29.6682 33.0311 30.6655 28.17 30.6655 28.17V18.1983C30.6655 18.1983 30.2915 16.204 32.0366 16.4533C33.7818 16.7026 48.9899 20.0679 41.5105 27.9207C41.5105 27.9207 40.1394 29.7903 42.7571 28.4192C42.7571 28.4192 47.3694 25.6771 47.3694 21.9377C47.3694 18.1983 42.2584 11.0934 23.56 11.0934H23.5601Z" fill="#F58436"/>
<path fill-rule="evenodd" clip-rule="evenodd" d="M39.5164 25.303C39.1425 25.303 38.5192 25.4277 38.7685 26.3002C39.0178 26.9235 39.1425 27.4221 38.7685 26.4249V26.3002C38.6439 25.8016 38.3946 25.303 38.1452 25.303C38.1452 25.303 38.3946 24.8044 38.5192 24.1813C38.6439 23.558 38.6439 25.1784 39.5164 25.303C39.8904 25.303 39.7657 25.303 39.5164 25.303ZM38.7685 31.1614C38.7685 31.1614 38.6439 30.1643 38.2698 30.0396C38.2698 30.0396 38.7685 30.0396 39.0178 29.541C39.0178 29.4164 39.1425 29.2917 39.1425 29.2917C39.1425 29.4164 39.1425 29.4164 39.0178 29.541C39.0178 29.6657 39.1425 29.915 39.5164 30.0396C39.5164 30.0396 38.8932 29.915 38.7685 31.1614H38.7685ZM37.896 35.524C37.896 35.524 37.7712 34.7761 37.2726 34.6515C37.2726 34.6515 37.896 34.5268 38.0205 33.7789C38.0205 33.7789 38.0205 34.2775 38.5191 34.4022C38.5191 34.2775 38.0205 34.4022 37.8959 35.524H37.896ZM35.7767 26.6742C35.7767 26.6742 35.5274 24.8045 34.1563 24.9292C34.1563 24.9292 35.7767 24.3059 35.7767 22.9348C35.7767 21.5637 35.7767 24.6799 37.148 24.8045C37.148 24.8045 35.9015 25.0538 35.7767 26.6742ZM35.5274 32.5325C35.5274 32.5325 35.5274 31.1615 34.1563 31.0368C34.1563 31.0368 35.7767 30.7875 36.026 28.9178C36.026 28.9178 35.6521 30.7875 37.148 30.7875C37.148 30.6629 35.6521 31.1615 35.5274 32.5325ZM34.9042 37.3937C34.9042 37.3937 34.4056 36.1473 33.6577 36.1473C33.6577 36.1473 35.0288 35.7733 35.0288 34.4023C35.0288 34.4023 35.0288 35.2747 36.1508 35.524C36.1508 35.524 35.1535 35.898 34.9042 37.3938V37.3937ZM33.4083 40.2605C33.4083 40.2605 33.159 39.7619 32.6604 39.7619C32.6604 39.7619 33.2836 39.5126 33.7822 38.6402C33.7822 38.6402 33.4083 39.2634 34.4056 39.1388C34.2809 39.2634 33.5329 39.3881 33.4083 40.2605V40.2605ZM31.5384 25.8016V23.6827C31.5384 23.6827 31.7877 24.8045 32.9097 24.8045C32.9097 24.6799 31.5384 24.9292 31.5384 25.8016ZM34.4056 18.5722C34.4056 19.1955 36.026 19.9433 36.026 19.9433C35.0288 19.8187 34.9042 20.8158 34.9042 20.8158C34.9042 19.5693 33.2836 19.32 33.2836 19.32C34.0316 19.32 34.4056 18.5722 34.4056 18.5722L34.4056 18.5722ZM38.0206 20.5665C38.0206 20.4419 38.1452 20.4419 38.1452 20.4419C38.0206 20.4419 38.0206 20.4419 38.0206 20.5665C38.0206 20.6912 38.0206 20.8158 38.3946 21.0651C38.3946 21.0651 37.7712 21.1898 37.896 21.9377C37.896 21.9377 37.7712 20.9405 37.2726 20.8158C37.2726 20.8158 37.7712 20.8158 38.0205 20.5665H38.0206ZM29.6686 38.8895C29.6686 38.8895 29.0453 37.269 28.048 37.5183C28.048 37.5183 29.9179 36.3966 30.0425 35.0254C30.0425 35.0254 30.2918 36.8952 31.4138 36.8952C31.5384 36.8952 30.0425 37.3938 29.6686 38.8895L29.6686 38.8895ZM29.0453 41.7563C29.0453 41.7563 28.6714 41.0084 28.0481 41.0084C28.0481 41.0084 29.2946 40.6345 29.4194 39.762C29.4194 39.762 29.4194 40.6346 30.4166 40.6346C30.5412 40.7592 29.2946 40.7592 29.0453 41.7563V41.7563ZM23.5605 39.2634C23.5605 39.2634 23.3111 37.5183 21.3166 37.5183C21.3166 37.5183 23.3111 37.0198 23.3111 35.6487C23.3111 35.6487 24.0591 37.5183 25.6797 37.5183C25.8043 37.5183 23.6852 38.1417 23.5605 39.2634ZM23.6852 42.1303C23.6852 42.1303 22.9372 41.3824 22.3139 41.3824C22.3139 41.3824 23.1866 41.3824 23.5605 40.5099C23.5605 40.5099 24.0591 41.507 25.181 41.6318C25.181 41.507 23.6852 41.3824 23.6852 42.1303V42.1303ZM18.0756 42.0056C18.0756 42.0056 17.8263 41.0084 16.9536 40.7591C16.9536 40.7591 18.2002 40.5098 18.2002 40.0112C18.2002 40.0112 18.3249 41.0084 19.8208 41.1331C19.8208 41.0084 17.951 40.7591 18.0756 42.0056ZM16.9536 35.2747C17.4522 36.6458 19.3221 37.269 19.3221 37.269C17.8263 37.269 17.4522 38.6402 17.4522 38.6402C17.4522 37.6431 15.4577 36.8952 15.4577 36.8952C16.7043 36.7705 16.9536 35.2748 16.9536 35.2748V35.2747ZM13.7125 40.3853C13.7125 40.3853 13.0893 39.5127 12.5907 39.2634C12.5907 39.2634 13.3387 39.3881 13.3387 38.5155C13.3387 38.5155 13.3387 39.2634 14.4605 39.6374C14.5852 39.6374 13.5879 39.6374 13.7125 40.3853ZM12.3414 37.5183C12.3414 37.5183 11.7181 36.0226 10.9702 35.6487C10.9702 35.6487 11.8428 35.3994 11.9674 34.5268C11.9674 34.5268 12.3414 36.0225 13.7125 36.0225C13.5879 36.1473 11.9674 36.1473 12.3414 37.5183V37.5183ZM9.9729 30.7875C9.9729 30.7875 11.3441 30.1643 11.3441 28.7932C11.3441 27.4221 11.2195 30.9122 12.9646 31.0368C12.9646 31.0368 11.4687 31.0368 11.5935 32.7818C11.5935 32.7818 10.8456 30.7875 9.9729 30.7875ZM9.22494 35.898C9.22494 35.898 8.97561 35.1501 8.47702 34.7761C7.85379 34.5268 9.10038 34.7761 9.10038 34.0283C9.10038 34.0283 9.22498 35.0254 10.2222 35.1502C10.0976 35.0255 8.97565 35.1502 9.22498 35.898L9.22494 35.898ZM7.47976 30.5382C8.22768 30.2889 8.35242 29.915 8.35242 29.6657C8.47702 30.1643 8.97561 30.4136 8.97561 30.4136C8.47698 30.4136 8.35242 31.1614 8.35242 31.1614C8.22773 30.2889 7.47976 30.5382 7.47976 30.5382ZM8.47698 24.4306C8.60171 24.0566 8.60171 24.1813 8.47698 24.4306C8.47698 24.8045 8.47698 25.4277 8.97561 25.5523C8.97561 25.5523 8.10312 25.303 7.97839 26.1756C7.97839 27.048 7.97839 25.1784 7.35516 25.0537C7.47976 25.1784 8.35242 25.0537 8.47702 24.4306L8.47698 24.4306ZM9.34963 20.4419C9.10034 21.0651 9.84826 21.1898 9.84826 21.1898C9.84826 21.1898 9.34963 21.4391 9.10034 22.0622C9.10034 21.1898 8.60171 21.3144 8.60171 21.3144L9.34963 20.4419ZM11.718 22.9348C11.718 22.9348 11.718 24.6799 13.0893 24.9292C13.0893 24.9292 11.4687 25.0538 11.2195 26.7988C11.2195 26.7988 10.8455 25.0538 9.9729 24.8045C9.9729 24.8045 10.9701 25.0538 11.7181 22.9348H11.718ZM12.3414 18.8215C12.3414 18.8215 12.2167 19.3201 13.4632 19.4448C14.7098 19.5694 12.2167 19.8187 12.0921 21.4391C11.718 20.9405 11.9673 19.8187 11.0948 20.0679C11.0948 20.0679 11.9673 19.9433 12.3414 18.8215ZM37.896 19.0708C35.0288 17.575 31.4138 17.575 31.4138 17.575V28.17C31.4138 28.6686 31.2891 29.1671 31.1645 29.6657C31.2891 30.5382 32.5357 31.4108 32.5357 31.4108C30.9152 31.4108 30.5412 35.524 30.5412 34.0283C30.5412 32.5325 29.2946 32.2833 29.2946 32.2833C30.4166 31.4108 30.9152 30.5382 31.0398 30.0396C29.9179 32.4079 26.6769 34.153 23.5605 34.153C21.4414 34.153 19.4468 33.2804 17.951 32.0339C17.0783 32.0339 16.7043 33.9037 16.7043 33.9037C16.3304 31.4108 13.3387 31.5354 14.3359 31.2861C15.3331 31.0368 16.081 29.7904 16.081 29.7904C16.2056 30.1644 16.455 30.5382 16.7042 30.7875C16.2056 29.7904 15.8318 28.9179 15.8318 28.0453V25.5524C15.8318 25.5524 15.2084 24.3059 14.4604 24.4306C14.4604 24.4306 15.8318 24.0566 15.8318 23.3088V17.3258C15.8318 17.3258 11.4687 17.575 9.2249 19.1955C7.35512 21.1898 6.48242 23.558 6.48242 27.6714C6.48242 34.5268 10.8455 40.3853 17.0783 42.8782C17.3276 42.8782 17.7015 42.8782 17.8262 42.5043C17.8262 42.5043 17.8262 42.8782 18.3248 43.2521C19.6961 43.6261 21.0673 43.8753 22.5632 44C22.5632 43.8753 22.5632 43.626 22.4386 43.626C22.4386 43.626 22.9372 43.7506 23.1865 43.1274C23.1865 43.1274 23.4359 44 24.1837 43.8753L23.8097 43.9999C25.0563 43.9999 26.3029 43.7506 27.4248 43.5013C27.5494 43.3767 28.1728 43.0027 28.2973 42.5042C28.2973 42.5042 28.422 43.1274 28.9207 43.1274C35.5274 40.8838 40.389 34.7761 40.389 27.6714C40.2644 23.558 39.2671 20.4419 37.896 19.0708L37.896 19.0708Z" fill="#03B0EF"/>
<path fill-rule="evenodd" clip-rule="evenodd" d="M23.6849 0C26.1633 0 28.1725 1.95323 28.1725 4.36263C28.1725 6.77196 26.1633 8.72518 23.6849 8.72518C21.2065 8.72518 19.1973 6.77196 19.1973 4.36263C19.1973 1.95318 21.2065 0 23.6849 0Z" fill="#F58436"/>
<path d="M220.424 35.5968C219.907 35.5968 219.496 35.2046 219.496 34.6593C219.496 34.1045 219.907 33.741 220.424 33.741C220.941 33.741 221.352 34.1045 221.352 34.6593C221.352 35.2046 220.941 35.5968 220.424 35.5968Z" fill="#777777"/>
<path d="M215.879 35.635C214.817 35.635 213.745 35.3194 213.152 34.8602L213.679 33.6932C214.243 34.1045 215.085 34.3915 215.888 34.3915C216.807 34.3915 217.18 34.0854 217.18 33.674C217.18 32.4209 213.286 33.2818 213.286 30.7947C213.286 29.6564 214.205 28.7094 216.108 28.7094C216.95 28.7094 217.811 28.9102 218.433 29.3024L217.955 30.479C217.333 30.1251 216.692 29.9529 216.099 29.9529C215.18 29.9529 214.827 30.2973 214.827 30.7182C214.827 31.9522 218.72 31.1008 218.72 33.5593C218.72 34.6785 217.792 35.635 215.879 35.635Z" fill="#777777"/>
<path d="M209.777 35.635C208.715 35.635 207.644 35.3194 207.051 34.8602L207.577 33.6932C208.141 34.1045 208.983 34.3915 209.787 34.3915C210.705 34.3915 211.078 34.0854 211.078 33.674C211.078 32.4209 207.185 33.2818 207.185 30.7947C207.185 29.6564 208.103 28.7094 210.007 28.7094C210.849 28.7094 211.71 28.9102 212.332 29.3024L211.853 30.479C211.231 30.1251 210.59 29.9529 209.997 29.9529C209.079 29.9529 208.725 30.2973 208.725 30.7182C208.725 31.9522 212.619 31.1008 212.619 33.5593C212.619 34.6785 211.691 35.635 209.777 35.635Z" fill="#777777"/>
<path d="M203.013 35.635C201.109 35.635 199.98 34.5445 199.98 32.574V28.8242H201.53V32.5166C201.53 33.7888 202.085 34.315 203.023 34.315C203.97 34.315 204.515 33.7888 204.515 32.5166V28.8242H206.046V32.574C206.046 34.5445 204.917 35.635 203.013 35.635Z" fill="#777777"/>
<path d="M194.744 35.5202L193.118 33.5018L192.401 34.2097V35.5202H190.908V28.4224H192.401V32.44L194.582 30.3738H196.361L194.218 32.5548L196.553 35.5202H194.744Z" fill="#777777"/>
<path d="M187.421 30.2973C188.636 30.2973 189.555 31.0052 189.555 32.574V35.5202H188.062V32.8035C188.062 31.9713 187.68 31.5887 187.019 31.5887C186.302 31.5887 185.785 32.0287 185.785 32.9757V35.5202H184.293V30.3738H185.718V30.9765C186.12 30.5364 186.723 30.2973 187.421 30.2973Z" fill="#777777"/>
<path d="M182.162 29.6564C181.607 29.6564 181.234 29.2929 181.234 28.8242C181.234 28.3554 181.607 27.9919 182.162 27.9919C182.717 27.9919 183.09 28.3363 183.09 28.7955C183.09 29.2929 182.717 29.6564 182.162 29.6564ZM181.416 35.5203V30.3738H182.909V35.5203H181.416Z" fill="#777777"/>
<path d="M177.931 30.2973C179.146 30.2973 180.064 31.0052 180.064 32.574V35.5202H178.572V32.8035C178.572 31.9713 178.189 31.5887 177.529 31.5887C176.812 31.5887 176.295 32.0287 176.295 32.9757V35.5202H174.803V28.4224H176.295V30.9095C176.697 30.5077 177.271 30.2973 177.931 30.2973Z" fill="#777777"/>
<path d="M170.381 35.5203V30.0869H168.238V28.8242H174.074V30.0869H171.931V35.5203H170.381Z" fill="#777777"/>
<path d="M161.53 35.5968C161.013 35.5968 160.602 35.2046 160.602 34.6593C160.602 34.1045 161.013 33.741 161.53 33.741C162.046 33.741 162.457 34.1045 162.457 34.6593C162.457 35.2046 162.046 35.5968 161.53 35.5968Z" fill="#777777"/>
<path d="M158.088 35.5202V28.4224H159.58V35.5202H158.088Z" fill="#777777"/>
<path d="M154.26 30.2973C155.829 30.2973 156.738 31.0243 156.738 32.5835V35.5202H155.341V34.8793C155.064 35.3481 154.528 35.5968 153.773 35.5968C152.567 35.5968 151.85 34.9272 151.85 34.0375C151.85 33.1288 152.491 32.4974 154.06 32.4974H155.246C155.246 31.8565 154.863 31.4835 154.06 31.4835C153.514 31.4835 152.95 31.6652 152.577 31.9617L152.041 30.9191C152.605 30.5173 153.438 30.2973 154.26 30.2973ZM154.146 34.5924C154.643 34.5924 155.074 34.3628 155.246 33.894V33.3679H154.222C153.524 33.3679 153.304 33.6262 153.304 33.9706C153.304 34.3436 153.619 34.5924 154.146 34.5924Z" fill="#777777"/>
<path d="M148.704 30.2973C150.149 30.2973 151.268 31.3304 151.268 32.947C151.268 34.5637 150.149 35.5968 148.704 35.5968C148.016 35.5968 147.461 35.3768 147.088 34.9272V35.5202H145.662V28.4224H147.155V30.9191C147.537 30.4982 148.063 30.2973 148.704 30.2973ZM148.446 34.3723C149.192 34.3723 149.757 33.8367 149.757 32.947C149.757 32.0574 149.192 31.5217 148.446 31.5217C147.7 31.5217 147.135 32.0574 147.135 32.947C147.135 33.8367 147.7 34.3723 148.446 34.3723Z" fill="#777777"/>
<path d="M141.843 35.5968C140.208 35.5968 139.012 34.4967 139.012 32.947C139.012 31.3974 140.208 30.2973 141.843 30.2973C143.479 30.2973 144.666 31.3974 144.666 32.947C144.666 34.4967 143.479 35.5968 141.843 35.5968ZM141.843 34.3723C142.59 34.3723 143.154 33.8367 143.154 32.947C143.154 32.0574 142.59 31.5217 141.843 31.5217C141.097 31.5217 140.523 32.0574 140.523 32.947C140.523 33.8367 141.097 34.3723 141.843 34.3723Z" fill="#777777"/>
<path d="M136.516 35.5202V28.4224H138.008V35.5202H136.516Z" fill="#777777"/>
<path d="M133.766 34.028V32.067H135.182V34.7837C134.446 35.3385 133.431 35.635 132.475 35.635C130.37 35.635 128.82 34.1906 128.82 32.1722C128.82 30.1538 130.37 28.7094 132.503 28.7094C133.68 28.7094 134.656 29.1111 135.307 29.8668L134.312 30.7852C133.824 30.2686 133.259 30.0295 132.58 30.0295C131.279 30.0295 130.389 30.8999 130.389 32.1722C130.389 33.4253 131.279 34.315 132.561 34.315C132.982 34.315 133.374 34.2384 133.766 34.028Z" fill="#777777"/>
<path d="M123.948 35.5202L122.321 33.5018L121.604 34.2097V35.5202H120.111V28.4224H121.604V32.44L123.785 30.3738H125.564L123.421 32.5548L125.756 35.5202H123.948Z" fill="#777777"/>
<path d="M116.624 30.2973C117.839 30.2973 118.758 31.0052 118.758 32.574V35.5202H117.265V32.8035C117.265 31.9713 116.883 31.5887 116.223 31.5887C115.505 31.5887 114.988 32.0287 114.988 32.9757V35.5202H113.496V30.3738H114.922V30.9765C115.323 30.5364 115.926 30.2973 116.624 30.2973Z" fill="#777777"/>
<path d="M111.365 29.6564C110.811 29.6564 110.438 29.2929 110.438 28.8242C110.438 28.3554 110.811 27.9919 111.365 27.9919C111.92 27.9919 112.293 28.3363 112.293 28.7955C112.293 29.2929 111.92 29.6564 111.365 29.6564ZM110.619 35.5203V30.3738H112.112V35.5203H110.619Z" fill="#777777"/>
<path d="M107.132 30.2973C108.347 30.2973 109.266 31.0052 109.266 32.574V35.5202H107.773V32.8035C107.773 31.9713 107.391 31.5887 106.73 31.5887C106.013 31.5887 105.496 32.0287 105.496 32.9757V35.5202H104.004V28.4224H105.496V30.9095C105.898 30.5077 106.472 30.2973 107.132 30.2973Z" fill="#777777"/>
<path d="M99.5843 35.5203V30.0869H97.4414V28.8242H103.277V30.0869H101.134V35.5203H99.5843Z" fill="#777777"/>
<path d="M257.582 12.4198C259.498 12.4198 260.946 13.5362 260.946 16.0102V20.6566H258.593V16.3723C258.593 15.0598 257.989 14.4564 256.948 14.4564C255.817 14.4564 255.002 15.1504 255.002 16.6438V20.6566H252.648V12.5405H254.896V13.4909C255.53 12.797 256.481 12.4198 257.582 12.4198Z" fill="#03B0EF"/>
<path d="M246.626 20.7773C244.046 20.7773 242.16 19.0425 242.16 16.5986C242.16 14.1547 244.046 12.4198 246.626 12.4198C249.206 12.4198 251.077 14.1547 251.077 16.5986C251.077 19.0425 249.206 20.7773 246.626 20.7773ZM246.626 18.8463C247.803 18.8463 248.693 18.0015 248.693 16.5986C248.693 15.1956 247.803 14.3508 246.626 14.3508C245.449 14.3508 244.544 15.1956 244.544 16.5986C244.544 18.0015 245.449 18.8463 246.626 18.8463Z" fill="#03B0EF"/>
<path d="M239.403 11.4091C238.528 11.4091 237.939 10.8358 237.939 10.0966C237.939 9.35745 238.528 8.78419 239.403 8.78419C240.278 8.78419 240.866 9.32728 240.866 10.0514C240.866 10.8358 240.278 11.4091 239.403 11.4091ZM238.226 20.6566V12.5405H240.58V20.6566H238.226Z" fill="#03B0EF"/>
<path d="M236.27 18.605L236.904 20.2644C236.421 20.6114 235.712 20.7773 234.988 20.7773C233.072 20.7773 231.955 19.7967 231.955 17.8658V14.5318H230.703V12.7216H231.955V10.7453H234.309V12.7216H236.331V14.5318H234.309V17.8356C234.309 18.5295 234.686 18.9067 235.32 18.9067C235.667 18.9067 236.014 18.8011 236.27 18.605Z" fill="#03B0EF"/>
<path d="M227.134 12.5405H229.488V20.6566H227.255V19.6911C226.637 20.4002 225.731 20.7773 224.736 20.7773C222.699 20.7773 221.266 19.6308 221.266 17.1266V12.5405H223.619V16.7796C223.619 18.1373 224.223 18.7407 225.264 18.7407C226.35 18.7407 227.134 18.0468 227.134 16.5533V12.5405Z" fill="#03B0EF"/>
<path d="M216.773 20.6566V9.46304H219.127V20.6566H216.773Z" fill="#03B0EF"/>
<path d="M210.749 20.7773C208.169 20.7773 206.283 19.0425 206.283 16.5986C206.283 14.1547 208.169 12.4198 210.749 12.4198C213.329 12.4198 215.2 14.1547 215.2 16.5986C215.2 19.0425 213.329 20.7773 210.749 20.7773ZM210.749 18.8463C211.926 18.8463 212.816 18.0015 212.816 16.5986C212.816 15.1956 211.926 14.3508 210.749 14.3508C209.572 14.3508 208.667 15.1956 208.667 16.5986C208.667 18.0015 209.572 18.8463 210.749 18.8463Z" fill="#03B0EF"/>
<path d="M200.903 20.8376C199.229 20.8376 197.539 20.3398 196.604 19.6157L197.433 17.7753C198.323 18.4239 199.651 18.8765 200.918 18.8765C202.367 18.8765 202.955 18.3938 202.955 17.7451C202.955 15.7689 196.815 17.1266 196.815 13.2043C196.815 11.4091 198.263 9.91562 201.265 9.91562C202.593 9.91562 203.951 10.2324 204.932 10.8509L204.177 12.7065C203.197 12.1483 202.186 11.8768 201.25 11.8768C199.802 11.8768 199.244 12.4198 199.244 13.0836C199.244 15.0297 205.384 13.687 205.384 17.5641C205.384 19.3291 203.921 20.8376 200.903 20.8376Z" fill="#03B0EF"/>
<path d="M187.565 12.4198C189.496 12.4198 190.884 13.5362 190.884 16.0102V20.6566H188.53V16.3723C188.53 15.0598 187.942 14.4564 186.992 14.4564C185.935 14.4564 185.196 15.1353 185.196 16.5835V20.6566H182.843V16.3723C182.843 15.0598 182.284 14.4564 181.304 14.4564C180.263 14.4564 179.523 15.1353 179.523 16.5835V20.6566H177.17V12.5405H179.418V13.4758C180.021 12.7819 180.927 12.4198 181.968 12.4198C183.099 12.4198 184.065 12.8573 184.638 13.7474C185.287 12.9177 186.343 12.4198 187.565 12.4198Z" fill="#F58436"/>
<path d="M171.132 12.4198C173.606 12.4198 175.04 13.5664 175.04 16.0253V20.6566H172.837V19.6459C172.399 20.3851 171.554 20.7773 170.363 20.7773C168.462 20.7773 167.33 19.7213 167.33 18.3183C167.33 16.8852 168.341 15.8895 170.815 15.8895H172.686C172.686 14.8788 172.082 14.2905 170.815 14.2905C169.955 14.2905 169.065 14.5771 168.477 15.0448L167.632 13.4004C168.522 12.7668 169.835 12.4198 171.132 12.4198ZM170.951 19.1933C171.735 19.1933 172.414 18.8313 172.686 18.0921V17.2623H171.072C169.97 17.2623 169.623 17.6697 169.623 18.2127C169.623 18.8011 170.121 19.1933 170.951 19.1933Z" fill="#F58436"/>
<path d="M166.513 16.6287C166.513 16.8098 166.483 17.0662 166.468 17.2623H160.328C160.554 18.2731 161.414 18.8916 162.651 18.8916C163.511 18.8916 164.13 18.6351 164.688 18.1071L165.94 19.4649C165.186 20.3247 164.054 20.7773 162.591 20.7773C159.784 20.7773 157.959 19.0123 157.959 16.5986C157.959 14.1698 159.815 12.4198 162.289 12.4198C164.673 12.4198 166.513 14.0189 166.513 16.6287ZM162.304 14.2C161.233 14.2 160.463 14.8486 160.297 15.8895H164.296C164.13 14.8637 163.36 14.2 162.304 14.2Z" fill="#F58436"/>
<path d="M154.445 13.6116C155.019 12.8272 155.984 12.4198 157.236 12.4198V14.5922C157.04 14.5771 156.889 14.562 156.708 14.562C155.411 14.562 154.551 15.271 154.551 16.8249V20.6566H152.197V12.5405H154.445V13.6116Z" fill="#F58436"/>
<path d="M150.243 18.605L150.877 20.2644C150.394 20.6114 149.685 20.7773 148.96 20.7773C147.044 20.7773 145.928 19.7967 145.928 17.8658V14.5318H144.676V12.7216H145.928V10.7453H148.282V12.7216H150.303V14.5318H148.282V17.8356C148.282 18.5295 148.659 18.9067 149.292 18.9067C149.639 18.9067 149.986 18.8011 150.243 18.605Z" fill="#F58436"/>
<path d="M139.655 20.8376C137.981 20.8376 136.291 20.3398 135.355 19.6157L136.185 17.7753C137.075 18.4239 138.403 18.8765 139.67 18.8765C141.119 18.8765 141.707 18.3938 141.707 17.7451C141.707 15.7689 135.567 17.1266 135.567 13.2043C135.567 11.4091 137.015 9.91562 140.017 9.91562C141.345 9.91562 142.703 10.2324 143.683 10.8509L142.929 12.7065C141.948 12.1483 140.938 11.8768 140.002 11.8768C138.554 11.8768 137.996 12.4198 137.996 13.0836C137.996 15.0297 144.136 13.687 144.136 17.5641C144.136 19.3291 142.673 20.8376 139.655 20.8376Z" fill="#F58436"/>
<path d="M127.209 20.6566V9.46304H129.563V20.6566H127.209Z" fill="#03B0EF"/>
<path d="M121.171 12.4198C123.645 12.4198 125.079 13.5664 125.079 16.0253V20.6566H122.876V19.6459C122.438 20.3851 121.593 20.7773 120.402 20.7773C118.501 20.7773 117.369 19.7213 117.369 18.3183C117.369 16.8852 118.38 15.8895 120.854 15.8895H122.725C122.725 14.8788 122.122 14.2905 120.854 14.2905C119.994 14.2905 119.104 14.5771 118.516 15.0448L117.671 13.4004C118.561 12.7668 119.874 12.4198 121.171 12.4198ZM120.99 19.1933C121.775 19.1933 122.453 18.8313 122.725 18.0921V17.2623H121.111C120.009 17.2623 119.662 17.6697 119.662 18.2127C119.662 18.8011 120.16 19.1933 120.99 19.1933Z" fill="#03B0EF"/>
<path d="M112.613 20.7773C111.24 20.7773 109.852 20.4002 109.098 19.9023L109.882 18.2127C110.606 18.6804 111.708 18.9972 112.703 18.9972C113.79 18.9972 114.197 18.7106 114.197 18.258C114.197 16.9305 109.294 18.2882 109.294 15.0448C109.294 13.506 110.682 12.4198 113.05 12.4198C114.167 12.4198 115.404 12.6763 116.173 13.1289L115.389 14.8034C114.589 14.3508 113.79 14.2 113.05 14.2C111.994 14.2 111.542 14.5318 111.542 14.9542C111.542 16.3421 116.445 14.9995 116.445 18.1977C116.445 19.7062 115.042 20.7773 112.613 20.7773Z" fill="#03B0EF"/>
<path d="M105.662 13.6116C106.235 12.8272 107.201 12.4198 108.453 12.4198V14.5922C108.257 14.5771 108.106 14.562 107.925 14.562C106.628 14.562 105.768 15.271 105.768 16.8249V20.6566H103.414V12.5405H105.662V13.6116Z" fill="#03B0EF"/>
<path d="M101.847 16.6287C101.847 16.8098 101.817 17.0662 101.802 17.2623H95.6616C95.8879 18.2731 96.7479 18.8916 97.985 18.8916C98.845 18.8916 99.4635 18.6351 100.022 18.1071L101.274 19.4649C100.52 20.3247 99.3881 20.7773 97.9247 20.7773C95.1185 20.7773 93.293 19.0123 93.293 16.5986C93.293 14.1698 95.1487 12.4198 97.6229 12.4198C100.007 12.4198 101.847 14.0189 101.847 16.6287ZM97.638 14.2C96.5668 14.2 95.7974 14.8486 95.6314 15.8895H99.6295C99.4635 14.8637 98.6941 14.2 97.638 14.2Z" fill="#03B0EF"/>
<path d="M90.8949 12.5405H93.1579L89.7332 20.6566H87.3042L83.8945 12.5405H86.3235L88.5715 18.0619L90.8949 12.5405Z" fill="#03B0EF"/>
<path d="M81.7408 11.4091C80.8657 11.4091 80.2773 10.8358 80.2773 10.0966C80.2773 9.35745 80.8657 8.78419 81.7408 8.78419C82.6158 8.78419 83.2042 9.32728 83.2042 10.0514C83.2042 10.8358 82.6158 11.4091 81.7408 11.4091ZM80.564 20.6566V12.5405H82.9176V20.6566H80.564Z" fill="#03B0EF"/>
<path d="M75.0662 12.4198C76.9823 12.4198 78.4306 13.5362 78.4306 16.0102V20.6566H76.0771V16.3723C76.0771 15.0598 75.4736 14.4564 74.4326 14.4564C73.3011 14.4564 72.4864 15.1504 72.4864 16.6438V20.6566H70.1328V12.5405H72.3808V13.4909C73.0144 12.797 73.9649 12.4198 75.0662 12.4198Z" fill="#03B0EF"/>
<path d="M63.1009 20.8377C60.0986 20.8377 58.3184 19.1179 58.3184 16.0102V10.0966H60.7624V15.9197C60.7624 17.9261 61.6375 18.7558 63.116 18.7558C64.6096 18.7558 65.4696 17.9261 65.4696 15.9197V10.0966H67.8835V16.0102C67.8835 19.1179 66.1032 20.8377 63.1009 20.8377Z" fill="#03B0EF"/>
</svg>
