<svg width="274" height="111" viewBox="0 0 274 111" fill="none" xmlns="http://www.w3.org/2000/svg">
<path fill-rule="evenodd" clip-rule="evenodd" d="M136.844 14.8359C111.834 14.8359 105.332 24.1728 105.332 29.1746C105.332 34.1764 111.001 37.8445 111.001 37.8445C111.001 37.8445 114.335 39.8452 112.335 37.0109C112.335 37.0109 100.997 26.8404 125.84 22.3388C125.84 22.3388 127.674 21.6719 127.507 24.3395V37.6778C127.507 37.6778 129.007 44.1802 137.01 44.1802C145.013 44.1802 146.347 37.6778 146.347 37.6778V24.3395C146.347 24.3395 145.847 21.6719 148.181 22.0054C150.515 22.3388 170.856 26.8404 160.852 37.3443C160.852 37.3443 159.019 39.8452 162.52 38.0112C162.52 38.0112 168.689 34.3432 168.689 29.3414C168.689 24.3395 161.853 14.8359 136.844 14.8359H136.844Z" fill="#F58436"/>
<path fill-rule="evenodd" clip-rule="evenodd" d="M158.187 33.8463C157.687 33.8463 156.853 34.0131 157.187 35.1802C157.52 36.0139 157.687 36.6808 157.187 35.3469V35.1802C157.02 34.5132 156.687 33.8463 156.353 33.8463C156.353 33.8463 156.687 33.1794 156.853 32.3458C157.02 31.5121 157.02 33.6796 158.187 33.8463C158.687 33.8463 158.52 33.8463 158.187 33.8463ZM157.187 41.6826C157.187 41.6826 157.02 40.3488 156.52 40.182C156.52 40.182 157.187 40.182 157.52 39.515C157.52 39.3484 157.687 39.1816 157.687 39.1816C157.687 39.3484 157.687 39.3484 157.52 39.515C157.52 39.6819 157.687 40.0153 158.187 40.182C158.187 40.182 157.353 40.0153 157.187 41.6826H157.187ZM156.02 47.518C156.02 47.518 155.853 46.5177 155.186 46.351C155.186 46.351 156.02 46.1842 156.186 45.1838C156.186 45.1838 156.186 45.8507 156.853 46.0175C156.853 45.8507 156.186 46.0175 156.02 47.518H156.02ZM153.185 35.6804C153.185 35.6804 152.852 33.1794 151.018 33.3462C151.018 33.3462 153.185 32.5125 153.185 30.6786C153.185 28.8445 153.185 33.0128 155.019 33.1794C155.019 33.1794 153.352 33.5129 153.185 35.6804ZM152.852 43.5165C152.852 43.5165 152.852 41.6826 151.018 41.5158C151.018 41.5158 153.185 41.1824 153.519 38.6815C153.519 38.6815 153.018 41.1824 155.019 41.1824C155.019 41.0157 153.019 41.6826 152.852 43.5165ZM152.018 50.019C152.018 50.019 151.351 48.3518 150.351 48.3518C150.351 48.3518 152.185 47.8515 152.185 46.0176C152.185 46.0176 152.185 47.1846 153.685 47.5181C153.685 47.5181 152.352 48.0184 152.018 50.0191V50.019ZM150.017 53.8537C150.017 53.8537 149.684 53.1867 149.017 53.1867C149.017 53.1867 149.851 52.8533 150.517 51.6863C150.517 51.6863 150.017 52.5199 151.351 52.3532C151.184 52.5199 150.184 52.6867 150.017 53.8537V53.8537ZM147.516 34.5133V31.6789C147.516 31.6789 147.85 33.1794 149.35 33.1794C149.35 33.0128 147.516 33.3462 147.516 34.5133ZM151.351 24.843C151.351 25.6767 153.519 26.6771 153.519 26.6771C152.185 26.5103 152.018 27.8441 152.018 27.8441C152.018 26.1768 149.851 25.8433 149.851 25.8433C150.851 25.8433 151.351 24.843 151.351 24.843L151.351 24.843ZM156.186 27.5107C156.186 27.344 156.353 27.344 156.353 27.344C156.186 27.344 156.186 27.344 156.186 27.5107C156.186 27.6775 156.186 27.8441 156.687 28.1776C156.687 28.1776 155.853 28.3444 156.02 29.3448C156.02 29.3448 155.853 28.0109 155.186 27.8441C155.186 27.8441 155.853 27.8441 156.186 27.5107H156.186ZM145.016 52.0198C145.016 52.0198 144.182 49.8522 142.848 50.1857C142.848 50.1857 145.349 48.6853 145.516 46.8511C145.516 46.8511 145.849 49.3521 147.35 49.3521C147.516 49.3521 145.516 50.0191 145.016 52.0197L145.016 52.0198ZM144.182 55.8545C144.182 55.8545 143.682 54.8541 142.848 54.8541C142.848 54.8541 144.515 54.354 144.682 53.1868C144.682 53.1868 144.682 54.354 146.016 54.354C146.183 54.5207 144.515 54.5207 144.182 55.8545V55.8545ZM136.846 52.5199C136.846 52.5199 136.512 50.1857 133.845 50.1857C133.845 50.1857 136.512 49.5188 136.512 47.6849C136.512 47.6849 137.513 50.1857 139.68 50.1857C139.847 50.1857 137.013 51.0195 136.846 52.5199ZM137.013 56.3547C137.013 56.3547 136.012 55.3544 135.179 55.3544C135.179 55.3544 136.346 55.3544 136.846 54.1872C136.846 54.1872 137.513 55.521 139.013 55.6879C139.013 55.521 137.013 55.3544 137.013 56.3548V56.3547ZM129.51 56.1879C129.51 56.1879 129.176 54.8541 128.009 54.5206C128.009 54.5206 129.676 54.1871 129.676 53.5202C129.676 53.5202 129.843 54.854 131.844 55.0209C131.844 54.8541 129.343 54.5206 129.51 56.1879ZM128.009 47.1846C128.676 49.0186 131.177 49.8522 131.177 49.8522C129.176 49.8522 128.676 51.6864 128.676 51.6864C128.676 50.3526 126.008 49.3522 126.008 49.3522C127.676 49.1854 128.009 47.1847 128.009 47.1847V47.1846ZM123.674 54.0205C123.674 54.0205 122.841 52.8534 122.174 52.5199C122.174 52.5199 123.174 52.6867 123.174 51.5195C123.174 51.5195 123.174 52.5199 124.675 53.0201C124.841 53.0201 123.508 53.0201 123.674 54.0205ZM121.84 50.1857C121.84 50.1857 121.007 48.185 120.006 47.6849C120.006 47.6849 121.173 47.3514 121.34 46.1842C121.34 46.1842 121.84 48.1849 123.674 48.1849C123.508 48.3517 121.34 48.3517 121.84 50.1856V50.1857ZM118.672 41.1824C118.672 41.1824 120.506 40.3488 120.506 38.5148C120.506 36.6808 120.34 41.3492 122.674 41.5158C122.674 41.5158 120.673 41.5158 120.84 43.85C120.84 43.85 119.84 41.1824 118.672 41.1824ZM117.672 48.0183C117.672 48.0183 117.339 47.018 116.672 46.5177C115.838 46.1842 117.505 46.5177 117.505 45.5173C117.505 45.5173 117.672 46.8511 119.006 47.018C118.839 46.8512 117.339 47.018 117.672 48.0184L117.672 48.0183ZM115.338 40.8489C116.338 40.5155 116.505 40.0154 116.505 39.6819C116.672 40.3488 117.339 40.6823 117.339 40.6823C116.672 40.6823 116.505 41.6826 116.505 41.6826C116.338 40.5154 115.338 40.8489 115.338 40.8489ZM116.672 32.6793C116.838 32.179 116.838 32.3458 116.672 32.6793C116.672 33.1794 116.672 34.0131 117.339 34.1798C117.339 34.1798 116.172 33.8463 116.005 35.0135C116.005 36.1805 116.005 33.6796 115.171 33.5128C115.338 33.6796 116.505 33.5128 116.672 32.6793L116.672 32.6793ZM117.839 27.344C117.505 28.1776 118.506 28.3443 118.506 28.3443C118.506 28.3443 117.839 28.6778 117.505 29.5113C117.505 28.3443 116.838 28.511 116.838 28.511L117.839 27.344ZM121.007 30.6786C121.007 30.6786 121.007 33.0128 122.841 33.3462C122.841 33.3462 120.673 33.5129 120.34 35.8471C120.34 35.8471 119.84 33.5129 118.672 33.1794C118.672 33.1794 120.006 33.5129 121.007 30.6786H121.007ZM121.84 25.1765C121.84 25.1765 121.673 25.8434 123.341 26.0102C125.008 26.1769 121.673 26.5104 121.507 28.6779C121.007 28.0109 121.34 26.5104 120.173 26.8437C120.173 26.8437 121.34 26.6771 121.84 25.1765ZM156.02 25.51C152.185 23.5092 147.35 23.5092 147.35 23.5092V37.6812C147.35 38.3482 147.183 39.015 147.016 39.6819C147.183 40.8489 148.85 42.0161 148.85 42.0161C146.683 42.0161 146.183 47.518 146.183 45.5173C146.183 43.5166 144.515 43.1832 144.515 43.1832C146.016 42.0162 146.683 40.849 146.849 40.182C145.349 43.3499 141.014 45.6841 136.846 45.6841C134.012 45.6841 131.344 44.5169 129.343 42.8497C128.176 42.8497 127.676 45.3507 127.676 45.3507C127.176 42.0162 123.174 42.1828 124.508 41.8493C125.842 41.5159 126.842 39.8486 126.842 39.8486C127.009 40.3489 127.342 40.849 127.676 41.1824C127.009 39.8486 126.509 38.6816 126.509 37.5144V34.1798C126.509 34.1798 125.675 32.5126 124.675 32.6794C124.675 32.6794 126.509 32.1791 126.509 31.1787V23.1758C126.509 23.1758 120.673 23.5092 117.672 25.6767C115.171 28.3444 114.004 31.5122 114.004 37.0143C114.004 46.1842 119.839 54.0206 128.176 57.3551C128.509 57.3551 129.009 57.3551 129.176 56.855C129.176 56.855 129.176 57.3551 129.843 57.8553C131.677 58.3555 133.511 58.6889 135.512 58.8557C135.512 58.6889 135.512 58.3554 135.345 58.3554C135.345 58.3554 136.012 58.5221 136.346 57.6884C136.346 57.6884 136.679 58.8557 137.679 58.6888L137.179 58.8555C138.847 58.8555 140.514 58.5221 142.014 58.1886C142.181 58.0219 143.015 57.5217 143.181 56.8548C143.181 56.8548 143.348 57.6885 144.015 57.6885C152.852 54.6874 159.354 46.5177 159.354 37.0142C159.187 31.5121 157.853 27.344 156.02 25.5099L156.02 25.51Z" fill="#03B0EF"/>
<path fill-rule="evenodd" clip-rule="evenodd" d="M137.01 0C140.325 0 143.012 2.61267 143.012 5.83553C143.012 9.05829 140.325 11.671 137.01 11.671C133.695 11.671 131.008 9.05829 131.008 5.83553C131.008 2.61261 133.695 0 137.01 0Z" fill="#F58436"/>
<path d="M56.5893 108.512V101.244H53.7231V99.5547H61.5285V101.244H58.6622V108.512H56.5893ZM66.6873 101.525C68.3123 101.525 69.5407 102.472 69.5407 104.571V108.512H67.5446V104.878C67.5446 103.764 67.0327 103.253 66.1498 103.253C65.1902 103.253 64.4992 103.841 64.4992 105.108V108.512H62.503V99.0173H64.4992V102.344C65.0366 101.807 65.8043 101.525 66.6873 101.525ZM72.3482 100.668C71.606 100.668 71.107 100.182 71.107 99.5547C71.107 98.9277 71.606 98.4415 72.3482 98.4415C73.0903 98.4415 73.5894 98.9021 73.5894 99.5163C73.5894 100.182 73.0903 100.668 72.3482 100.668ZM71.3501 108.512V101.628H73.3462V108.512H71.3501ZM79.383 101.525C81.0081 101.525 82.2365 102.472 82.2365 104.571V108.512H80.2404V104.878C80.2404 103.764 79.7285 103.253 78.8456 103.253C77.8859 103.253 77.195 103.841 77.195 105.108V108.512H75.1988V101.628H77.1054V102.434C77.6428 101.845 78.4489 101.525 79.383 101.525ZM89.177 108.512L87.0017 105.812L86.042 106.759V108.512H84.0459V99.0173H86.042V104.391L88.9595 101.628H91.3395L88.4732 104.545L91.5954 108.512H89.177ZM102.31 106.516V103.892H104.204V107.526C103.219 108.269 101.862 108.665 100.583 108.665C97.7675 108.665 95.6946 106.733 95.6946 104.033C95.6946 101.333 97.7675 99.4011 100.621 99.4011C102.195 99.4011 103.5 99.9386 104.37 100.949L103.039 102.178C102.387 101.487 101.632 101.167 100.723 101.167C98.9831 101.167 97.7931 102.331 97.7931 104.033C97.7931 105.709 98.9831 106.899 100.698 106.899C101.261 106.899 101.785 106.797 102.31 106.516ZM105.989 108.512V99.0173H107.985V108.512H105.989ZM113.113 108.614C110.925 108.614 109.325 107.143 109.325 105.07C109.325 102.997 110.925 101.525 113.113 101.525C115.301 101.525 116.888 102.997 116.888 105.07C116.888 107.143 115.301 108.614 113.113 108.614ZM113.113 106.976C114.111 106.976 114.866 106.26 114.866 105.07C114.866 103.88 114.111 103.163 113.113 103.163C112.115 103.163 111.347 103.88 111.347 105.07C111.347 106.26 112.115 106.976 113.113 106.976ZM122.291 101.525C124.223 101.525 125.72 102.907 125.72 105.07C125.72 107.232 124.223 108.614 122.291 108.614C121.37 108.614 120.628 108.32 120.129 107.718V108.512H118.222V99.0173H120.218V102.357C120.73 101.794 121.434 101.525 122.291 101.525ZM121.946 106.976C122.944 106.976 123.699 106.26 123.699 105.07C123.699 103.88 122.944 103.163 121.946 103.163C120.948 103.163 120.193 103.88 120.193 105.07C120.193 106.26 120.948 106.976 121.946 106.976ZM129.721 101.525C131.819 101.525 133.035 102.498 133.035 104.583V108.512H131.167V107.654C130.796 108.281 130.079 108.614 129.068 108.614C127.456 108.614 126.496 107.718 126.496 106.528C126.496 105.313 127.354 104.468 129.452 104.468H131.039C131.039 103.611 130.527 103.112 129.452 103.112C128.723 103.112 127.968 103.355 127.469 103.752L126.752 102.357C127.507 101.82 128.62 101.525 129.721 101.525ZM129.567 107.271C130.233 107.271 130.808 106.963 131.039 106.336V105.633H129.67C128.736 105.633 128.441 105.978 128.441 106.439C128.441 106.938 128.864 107.271 129.567 107.271ZM134.842 108.512V99.0173H136.838V108.512H134.842ZM139.445 108.614C138.754 108.614 138.204 108.089 138.204 107.36C138.204 106.618 138.754 106.132 139.445 106.132C140.136 106.132 140.686 106.618 140.686 107.36C140.686 108.089 140.136 108.614 139.445 108.614ZM151.283 108.512V101.244H148.417V99.5547H156.222V101.244H153.356V108.512H151.283ZM161.381 101.525C163.006 101.525 164.234 102.472 164.234 104.571V108.512H162.238V104.878C162.238 103.764 161.726 103.253 160.843 103.253C159.884 103.253 159.193 103.841 159.193 105.108V108.512H157.197V99.0173H159.193V102.344C159.73 101.807 160.498 101.525 161.381 101.525ZM167.042 100.668C166.3 100.668 165.801 100.182 165.801 99.5547C165.801 98.9277 166.3 98.4415 167.042 98.4415C167.784 98.4415 168.283 98.9021 168.283 99.5163C168.283 100.182 167.784 100.668 167.042 100.668ZM166.044 108.512V101.628H168.04V108.512H166.044ZM174.077 101.525C175.702 101.525 176.93 102.472 176.93 104.571V108.512H174.934V104.878C174.934 103.764 174.422 103.253 173.539 103.253C172.579 103.253 171.889 103.841 171.889 105.108V108.512H169.892V101.628H171.799V102.434C172.336 101.845 173.143 101.525 174.077 101.525ZM183.871 108.512L181.695 105.812L180.736 106.759V108.512H178.739V99.0173H180.736V104.391L183.653 101.628H186.033L183.167 104.545L186.289 108.512H183.871ZM194.931 108.665C192.384 108.665 190.874 107.207 190.874 104.571V99.5547H192.947V104.494C192.947 106.196 193.689 106.899 194.943 106.899C196.21 106.899 196.94 106.196 196.94 104.494V99.5547H198.987V104.571C198.987 107.207 197.477 108.665 194.931 108.665ZM203.978 108.665C202.558 108.665 201.125 108.243 200.332 107.629L201.035 106.068C201.79 106.618 202.916 107.002 203.991 107.002C205.22 107.002 205.719 106.592 205.719 106.042C205.719 104.366 200.511 105.518 200.511 102.191C200.511 100.668 201.739 99.4011 204.285 99.4011C205.411 99.4011 206.563 99.6699 207.395 100.194L206.755 101.768C205.923 101.295 205.066 101.065 204.273 101.065C203.044 101.065 202.571 101.525 202.571 102.088C202.571 103.739 207.779 102.6 207.779 105.889C207.779 107.386 206.538 108.665 203.978 108.665ZM212.138 108.665C210.718 108.665 209.285 108.243 208.491 107.629L209.195 106.068C209.95 106.618 211.076 107.002 212.151 107.002C213.379 107.002 213.878 106.592 213.878 106.042C213.878 104.366 208.671 105.518 208.671 102.191C208.671 100.668 209.899 99.4011 212.445 99.4011C213.571 99.4011 214.723 99.6699 215.555 100.194L214.915 101.768C214.083 101.295 213.226 101.065 212.432 101.065C211.204 101.065 210.731 101.525 210.731 102.088C210.731 103.739 215.938 102.6 215.938 105.889C215.938 107.386 214.697 108.665 212.138 108.665ZM218.219 108.614C217.528 108.614 216.978 108.089 216.978 107.36C216.978 106.618 217.528 106.132 218.219 106.132C218.91 106.132 219.46 106.618 219.46 107.36C219.46 108.089 218.91 108.614 218.219 108.614Z" fill="#777777"/>
<path d="M7.95066 88.625C3.93497 88.625 1.55381 86.3245 1.55381 82.1676V74.2573H4.82286V82.0465C4.82286 84.7304 5.99326 85.8402 7.97084 85.8402C9.96859 85.8402 11.1188 84.7304 11.1188 82.0465V74.2573H14.3475V82.1676C14.3475 86.3245 11.9663 88.625 7.95066 88.625ZM23.9546 77.3649C26.5174 77.3649 28.4546 78.8582 28.4546 82.1676V88.3828H25.3066V82.6519C25.3066 80.8963 24.4994 80.0891 23.1071 80.0891C21.5936 80.0891 20.5039 81.0174 20.5039 83.0151V88.3828H17.356V77.5263H20.3627V78.7976C21.2102 77.8694 22.4815 77.3649 23.9546 77.3649ZM32.8821 76.0129C31.7117 76.0129 30.9247 75.2461 30.9247 74.2573C30.9247 73.2685 31.7117 72.5017 32.8821 72.5017C34.0525 72.5017 34.8395 73.2281 34.8395 74.1967C34.8395 75.2461 34.0525 76.0129 32.8821 76.0129ZM31.3081 88.3828V77.5263H34.456V88.3828H31.3081ZM45.1265 77.5263H48.1534L43.5727 88.3828H40.3238L35.7633 77.5263H39.0122L42.0189 84.912L45.1265 77.5263ZM59.7769 82.9949C59.7769 83.2371 59.7365 83.5801 59.7163 83.8425H51.5033C51.806 85.1945 52.9562 86.0218 54.6109 86.0218C55.7612 86.0218 56.5885 85.6788 57.3352 84.9725L59.01 86.7886C58.0011 87.9389 56.4876 88.5442 54.5302 88.5442C50.7769 88.5442 48.3352 86.1833 48.3352 82.9546C48.3352 79.7057 50.8172 77.3649 54.1266 77.3649C57.315 77.3649 59.7769 79.5039 59.7769 82.9949ZM54.1468 79.7461C52.7141 79.7461 51.6849 80.6138 51.463 82.0061H56.8105C56.5885 80.6339 55.5594 79.7461 54.1468 79.7461ZM64.8794 78.9591C65.6462 77.9097 66.9377 77.3649 68.6126 77.3649V80.2707C68.3502 80.2505 68.1484 80.2304 67.9063 80.2304C66.1709 80.2304 65.0206 81.1788 65.0206 83.2573V88.3828H61.8727V77.5263H64.8794V78.9591ZM74.1762 88.5442C72.3399 88.5442 70.4834 88.0398 69.4744 87.3738L70.5238 85.1138C71.4924 85.7393 72.9655 86.1631 74.2973 86.1631C75.7502 86.1631 76.2951 85.7797 76.2951 85.1743C76.2951 83.3985 69.7368 85.2147 69.7368 80.8761C69.7368 78.8178 71.5933 77.3649 74.7614 77.3649C76.2547 77.3649 77.9094 77.7079 78.9385 78.3133L77.8892 80.5532C76.8197 79.9479 75.7502 79.7461 74.7614 79.7461C73.3489 79.7461 72.7435 80.19 72.7435 80.755C72.7435 82.6115 79.3018 80.8156 79.3018 85.0936C79.3018 87.1115 77.4251 88.5442 74.1762 88.5442ZM85.6229 77.3649C88.9324 77.3649 90.8494 78.8985 90.8494 82.1878V88.3828H87.9032V87.0308C87.318 88.0196 86.188 88.5442 84.5938 88.5442C82.0512 88.5442 80.5378 87.1317 80.5378 85.255C80.5378 83.338 81.8898 82.0061 85.1992 82.0061H87.7014C87.7014 80.6541 86.8942 79.8671 85.1992 79.8671C84.049 79.8671 82.8584 80.2505 82.0714 80.8761L80.9413 78.6766C82.1319 77.829 83.8875 77.3649 85.6229 77.3649ZM85.3808 86.4254C86.4301 86.4254 87.3382 85.9411 87.7014 84.9523V83.8425H85.5422C84.0691 83.8425 83.605 84.3873 83.605 85.1138C83.605 85.9008 84.2709 86.4254 85.3808 86.4254ZM93.6985 88.3828V73.4097H96.8464V88.3828H93.6985ZM192.266 88.625C190.026 88.625 187.766 87.959 186.514 86.9904L187.624 84.5286C188.815 85.3963 190.591 86.0017 192.286 86.0017C194.223 86.0017 195.01 85.3559 195.01 84.4882C195.01 81.8447 186.797 83.6608 186.797 78.4142C186.797 76.0129 188.734 74.0151 192.75 74.0151C194.526 74.0151 196.342 74.4389 197.653 75.2662L196.644 77.7483C195.333 77.0017 193.981 76.6384 192.73 76.6384C190.792 76.6384 190.046 77.3649 190.046 78.2528C190.046 80.8559 198.259 79.06 198.259 84.246C198.259 86.607 196.301 88.625 192.266 88.625ZM205.436 88.5442C201.986 88.5442 199.463 86.2236 199.463 82.9546C199.463 79.6855 201.986 77.3649 205.436 77.3649C208.887 77.3649 211.389 79.6855 211.389 82.9546C211.389 86.2236 208.887 88.5442 205.436 88.5442ZM205.436 85.9613C207.01 85.9613 208.201 84.8312 208.201 82.9546C208.201 81.0779 207.01 79.9479 205.436 79.9479C203.862 79.9479 202.652 81.0779 202.652 82.9546C202.652 84.8312 203.862 85.9613 205.436 85.9613ZM213.494 88.3828V73.4097H216.642V88.3828H213.494ZM227.352 77.5263H230.5V88.3828H227.514V87.0913C226.686 88.0398 225.476 88.5442 224.144 88.5442C221.42 88.5442 219.503 87.0106 219.503 83.6608V77.5263H222.651V83.1967C222.651 85.0129 223.458 85.82 224.85 85.82C226.303 85.82 227.352 84.8918 227.352 82.894V77.5263ZM239.571 85.6384L240.419 87.8581C239.773 88.3223 238.825 88.5442 237.856 88.5442C235.293 88.5442 233.8 87.2326 233.8 84.6496V80.19H232.125V77.7685H233.8V75.125H236.948V77.7685H239.652V80.19H236.948V84.6093C236.948 85.5375 237.453 86.042 238.3 86.042C238.764 86.042 239.228 85.9008 239.571 85.6384ZM243.76 76.0129C242.59 76.0129 241.803 75.2461 241.803 74.2573C241.803 73.2685 242.59 72.5017 243.76 72.5017C244.93 72.5017 245.717 73.2281 245.717 74.1967C245.717 75.2461 244.93 76.0129 243.76 76.0129ZM242.186 88.3828V77.5263H245.334V88.3828H242.186ZM253.421 88.5442C249.971 88.5442 247.448 86.2236 247.448 82.9546C247.448 79.6855 249.971 77.3649 253.421 77.3649C256.872 77.3649 259.374 79.6855 259.374 82.9546C259.374 86.2236 256.872 88.5442 253.421 88.5442ZM253.421 85.9613C254.995 85.9613 256.186 84.8312 256.186 82.9546C256.186 81.0779 254.995 79.9479 253.421 79.9479C251.848 79.9479 250.637 81.0779 250.637 82.9546C250.637 84.8312 251.848 85.9613 253.421 85.9613ZM268.077 77.3649C270.64 77.3649 272.577 78.8582 272.577 82.1676V88.3828H269.429V82.6519C269.429 80.8963 268.622 80.0891 267.23 80.0891C265.716 80.0891 264.627 81.0174 264.627 83.0151V88.3828H261.479V77.5263H264.485V78.7976C265.333 77.8694 266.604 77.3649 268.077 77.3649Z" fill="#03B0EF"/>
<path d="M110.346 88.625C108.106 88.625 105.846 87.959 104.595 86.9904L105.705 84.5286C106.895 85.3963 108.671 86.0017 110.366 86.0017C112.303 86.0017 113.09 85.3559 113.09 84.4882C113.09 81.8447 104.878 83.6608 104.878 78.4142C104.878 76.0129 106.815 74.0151 110.83 74.0151C112.606 74.0151 114.422 74.4389 115.734 75.2662L114.725 77.7483C113.413 77.0017 112.061 76.6384 110.81 76.6384C108.873 76.6384 108.126 77.3649 108.126 78.2528C108.126 80.8559 116.339 79.06 116.339 84.246C116.339 86.607 114.382 88.625 110.346 88.625ZM124.506 85.6384L125.353 87.8581C124.708 88.3223 123.759 88.5442 122.791 88.5442C120.228 88.5442 118.735 87.2326 118.735 84.6496V80.19H117.06V77.7685H118.735V75.125H121.883V77.7685H124.587V80.19H121.883V84.6093C121.883 85.5375 122.387 86.042 123.235 86.042C123.699 86.042 124.163 85.9008 124.506 85.6384ZM130.127 78.9591C130.894 77.9097 132.185 77.3649 133.86 77.3649V80.2707C133.598 80.2505 133.396 80.2304 133.154 80.2304C131.419 80.2304 130.268 81.1788 130.268 83.2573V88.3828H127.12V77.5263H130.127V78.9591ZM146.268 82.9949C146.268 83.2371 146.228 83.5801 146.208 83.8425H137.995C138.297 85.1945 139.448 86.0218 141.102 86.0218C142.252 86.0218 143.08 85.6788 143.826 84.9725L145.501 86.7886C144.492 87.9389 142.979 88.5442 141.022 88.5442C137.268 88.5442 134.826 86.1833 134.826 82.9546C134.826 79.7057 137.309 77.3649 140.618 77.3649C143.806 77.3649 146.268 79.5039 146.268 82.9949ZM140.638 79.7461C139.205 79.7461 138.176 80.6138 137.954 82.0061H143.302C143.08 80.6339 142.051 79.7461 140.638 79.7461ZM152.447 77.3649C155.757 77.3649 157.674 78.8985 157.674 82.1878V88.3828H154.728V87.0308C154.142 88.0196 153.012 88.5442 151.418 88.5442C148.876 88.5442 147.362 87.1317 147.362 85.255C147.362 83.338 148.714 82.0061 152.024 82.0061H154.526C154.526 80.6541 153.719 79.8671 152.024 79.8671C150.873 79.8671 149.683 80.2505 148.896 80.8761L147.766 78.6766C148.956 77.829 150.712 77.3649 152.447 77.3649ZM152.205 86.4254C153.254 86.4254 154.163 85.9411 154.526 84.9523V83.8425H152.367C150.893 83.8425 150.429 84.3873 150.429 85.1138C150.429 85.9008 151.095 86.4254 152.205 86.4254ZM174.426 77.3649C177.009 77.3649 178.866 78.8582 178.866 82.1676V88.3828H175.718V82.6519C175.718 80.8963 174.931 80.0891 173.66 80.0891C172.247 80.0891 171.258 80.9972 171.258 82.9344V88.3828H168.11V82.6519C168.11 80.8963 167.364 80.0891 166.052 80.0891C164.66 80.0891 163.671 80.9972 163.671 82.9344V88.3828H160.523V77.5263H163.53V78.7775C164.337 77.8492 165.547 77.3649 166.94 77.3649C168.453 77.3649 169.745 77.9501 170.512 79.1407C171.379 78.0308 172.792 77.3649 174.426 77.3649Z" fill="#F58436"/>
</svg>
