<svg width="126" height="263" viewBox="0 0 126 263" fill="none" xmlns="http://www.w3.org/2000/svg">
<path d="M38.5011 94.8932L23.3728 31.444L83.3943 17.1328L98.5225 80.5821C99.4438 84.4439 102.527 87.4078 106.416 88.1972C138.611 94.7358 165.736 119.228 174.021 153.204C185.46 200.119 156.461 247.667 109.508 258.955C62.4722 270.264 15.2108 241.246 3.99548 194.21C-4.15802 160.011 8.99356 125.716 34.8733 105.264C37.9947 102.798 39.4203 98.7593 38.4989 94.8911L38.5011 94.8932Z" fill="white"/>
<path d="M14.8877 191.725C24.6456 232.648 65.728 257.912 106.651 248.155C147.574 238.397 172.838 197.314 163.081 156.392C161.453 149.564 158.953 143.172 155.725 137.306C149.059 142.559 141.863 147.138 134.265 150.917C109.785 163.09 81.2456 166.915 54.4276 161.615C41.5675 159.075 29.1032 154.508 16.075 153.083C15.9665 153.072 15.8622 153.059 15.7537 153.051C12.2408 165.249 11.7344 178.494 14.8877 191.725Z" fill="#FD784F"/>
<path d="M117.433 126.429C113.716 124.173 112.532 119.331 114.788 115.614C117.045 111.897 121.887 110.713 125.603 112.969C129.32 115.226 130.504 120.068 128.248 123.784C125.991 127.501 121.149 128.685 117.433 126.429Z" fill="#FD784F"/>
<path d="M101.814 141.787C99.3901 139.927 98.9329 136.454 100.793 134.03C102.653 131.606 106.126 131.149 108.55 133.009C110.973 134.869 111.431 138.342 109.571 140.766C107.711 143.19 104.238 143.647 101.814 141.787Z" fill="#FD784F"/>
<path d="M122.774 144.197C121.392 142.596 121.569 140.178 123.17 138.795C124.771 137.413 127.189 137.59 128.572 139.191C129.954 140.792 129.777 143.211 128.176 144.593C126.575 145.975 124.156 145.798 122.774 144.197Z" fill="#FD784F"/>
<path d="M26.8458 179.257C25.4564 179.619 25.2394 185.876 28.7565 194.768C32.1992 203.571 39.3739 215.009 51.034 223.652C62.5174 232.527 75.4753 236.327 84.8821 237.249C94.3952 238.219 100.359 236.31 100.329 234.876C100.344 231.625 77.7584 229.735 58.0683 214.356C37.9207 199.583 29.9672 178.361 26.8437 179.257L26.8458 179.257Z" fill="white"/>
<path d="M89.0075 263C95.9908 263 102.972 262.168 109.883 260.507C121.564 257.698 132.354 252.666 141.952 245.551C151.216 238.682 158.978 230.18 165.019 220.277C171.062 210.373 175.075 199.579 176.943 188.195C178.879 176.401 178.417 164.503 175.57 152.826C171.492 136.098 162.747 121.029 150.28 109.252C138.131 97.7727 123.073 89.9533 106.734 86.634C103.459 85.9701 100.846 83.4488 100.074 80.2125L84.5754 15.21L21.4496 30.2616L36.9481 95.262C37.7204 98.4983 36.5183 101.932 33.8863 104.011C20.7475 114.392 10.8173 128.236 5.17026 144.045C-0.627838 160.271 -1.5683 177.746 2.44463 194.581C5.23622 206.288 10.2385 217.096 17.3175 226.707C24.1518 235.991 32.6224 243.768 42.4908 249.823C52.3593 255.879 63.1278 259.907 74.4985 261.798C79.3199 262.6 84.1648 263 89.0075 263ZM82.2136 19.0548L96.9716 80.9529C98.0313 85.3935 101.614 88.8511 106.1 89.7618C138.573 96.3578 164.625 121.408 172.47 153.581C177.902 175.861 174.29 198.957 162.293 218.616C150.301 238.27 131.424 252.045 109.134 257.402C102.419 259.017 95.6333 259.815 88.899 259.815C73.2388 259.815 57.8425 255.502 44.1569 247.104C24.5838 235.093 10.8726 216.177 5.54687 193.84C-2.17683 161.447 9.72363 127.172 35.8629 106.516C39.4652 103.669 41.1099 98.96 40.0503 94.5215L25.2923 32.6255L82.2094 19.0548L82.2136 19.0548Z" fill="#013F71"/>
<path d="M21.5473 33.255C22.2729 33.255 23.009 33.172 23.7431 32.9954L83.7646 18.6842C86.2242 18.097 88.3094 16.5884 89.635 14.433C90.9606 12.2797 91.367 9.73709 90.7797 7.27742C90.1925 4.81775 88.6839 2.73257 86.5285 1.40698C84.3752 0.0814006 81.8326 -0.324998 79.3729 0.262259L19.3515 14.5734C16.8918 15.1607 14.8066 16.6693 13.481 18.8247C12.1554 20.9779 11.749 23.5206 12.3363 25.9803C13.3725 30.323 17.2642 33.2529 21.5473 33.2529L21.5473 33.255ZM23.0027 29.8911C19.6366 30.6932 16.2428 28.608 15.4407 25.2419C15.0513 23.61 15.3215 21.9269 16.2003 20.4971C17.079 19.0694 18.4599 18.0693 20.0919 17.6799L80.1134 3.36876C81.7453 2.97938 83.4284 3.24961 84.8561 4.12836C86.2838 5.00712 87.2839 6.38803 87.6732 8.02C88.0626 9.64985 87.7924 11.335 86.9136 12.7627C86.0349 14.1905 84.654 15.1905 83.022 15.5799L23.0005 29.8911L23.0027 29.8911Z" fill="#013F71"/>
</svg>
