<svg width="228" height="264" viewBox="0 0 228 264" fill="none" xmlns="http://www.w3.org/2000/svg">
<path d="M143.15 192.126L137.897 192.426L132.927 104.804L44.679 74.2242L46.4004 69.2564L137.978 100.988L143.15 192.126Z" fill="#013F71"/>
<path d="M172.963 123.695C184.534 103.973 177.927 78.6047 158.205 67.0336C138.483 55.4624 113.115 62.0699 101.544 81.7918C89.9726 101.514 96.58 126.882 116.302 138.453C136.024 150.024 161.392 143.416 172.963 123.695Z" fill="#FD4F9A"/>
<path d="M68.2906 85.0892C75.6626 72.5244 71.4529 56.3623 58.888 48.9903C46.3231 41.6183 30.1611 45.828 22.7891 58.3928C15.4171 70.9577 19.6268 87.1197 32.1916 94.4917C44.7565 101.864 60.9185 97.6541 68.2906 85.0892Z" fill="#4F52FD"/>
<path d="M165.212 215.728C172.584 203.163 168.375 187.001 155.81 179.629C143.245 172.257 127.083 176.467 119.711 189.031C112.339 201.596 116.549 217.758 129.114 225.13C141.678 232.502 157.84 228.293 165.212 215.728Z" fill="#4F52FD"/>
<path d="M166.319 91.6489C167.091 91.5384 169.339 94.1567 170.748 98.6097C172.163 103.011 172.74 109.246 170.265 115.149C167.953 121.119 163.213 125.21 159.144 127.4C155.04 129.633 151.602 129.959 151.126 129.344C150.006 127.965 159.889 122.843 163.798 112.539C168.127 102.406 164.555 91.8619 166.321 91.6446L166.319 91.6489Z" fill="white"/>
<path d="M62.2236 81.4417C63.6649 79.0787 63.3856 76.28 61.5997 75.1907C59.8137 74.1014 57.1975 75.1339 55.7562 77.497C54.3149 79.86 54.5943 82.6587 56.3802 83.748C58.1661 84.8373 60.7823 83.8047 62.2236 81.4417Z" fill="white"/>
<path d="M160.385 199.51C158.336 199.935 156.219 198.084 155.655 195.375C155.091 192.666 156.295 190.123 158.344 189.695C160.393 189.27 162.51 191.121 163.074 193.83C163.638 196.539 162.434 199.082 160.385 199.51Z" fill="white"/>
</svg>
