<svg width="256" height="325" viewBox="0 0 256 325" fill="none" xmlns="http://www.w3.org/2000/svg">
<path d="M166.936 318.303C166.925 318.303 166.915 318.303 166.904 318.303C166.548 318.285 166.273 317.984 166.291 317.626C166.303 317.378 167.511 292.785 168.287 283.027C168.316 282.671 168.624 282.406 168.982 282.434C169.338 282.462 169.602 282.773 169.575 283.129C168.801 292.867 167.595 317.442 167.582 317.689C167.563 318.036 167.277 318.303 166.936 318.303Z" fill="black"/>
<path d="M171.493 315.962C173.774 316.334 176.203 316.769 177.662 318.768C178.393 319.769 178.608 321.09 178.054 322.199C177.195 323.92 175.199 324.04 173.468 323.976C170.844 323.88 168.417 323.734 165.888 323.03C164.336 322.598 163.472 321.626 163.513 317.995C163.528 316.688 164.61 315.643 165.917 315.666C167.814 315.701 170.377 315.78 171.493 315.962Z" fill="#FF5233"/>
<path d="M174.078 324.632C173.865 324.632 173.653 324.627 173.443 324.619C170.867 324.525 168.337 324.381 165.714 323.65C163.598 323.062 162.827 321.527 162.867 317.987C162.876 317.184 163.2 316.431 163.778 315.871C164.357 315.308 165.126 315.004 165.929 315.021C167.88 315.057 170.45 315.139 171.598 315.325C173.798 315.682 176.535 316.128 178.184 318.386C179.098 319.638 179.27 321.209 178.632 322.487C177.732 324.286 175.89 324.632 174.078 324.632ZM165.871 316.311C165.422 316.311 164.999 316.483 164.675 316.796C164.347 317.115 164.161 317.544 164.157 318.001C164.116 321.58 164.957 322.099 166.058 322.406C168.547 323.1 170.993 323.238 173.489 323.329C175.159 323.392 176.799 323.261 177.475 321.91C177.896 321.067 177.767 320.009 177.138 319.148C175.801 317.318 173.457 316.936 171.388 316.6C170.552 316.463 168.603 316.361 165.903 316.312C165.894 316.311 165.882 316.311 165.871 316.311Z" fill="black"/>
<path d="M81.2045 301.752C81.0219 301.752 80.8394 301.674 80.7116 301.524C80.4804 301.252 80.5139 300.845 80.7861 300.614C87.6406 294.789 94.6107 287.582 101.353 280.612C102.783 279.133 104.208 277.659 105.627 276.204C105.877 275.948 106.286 275.943 106.54 276.193C106.795 276.441 106.8 276.85 106.552 277.106C105.134 278.56 103.711 280.032 102.281 281.509C95.5174 288.502 88.5245 295.733 81.6213 301.598C81.5011 301.702 81.352 301.752 81.2045 301.752Z" fill="black"/>
<path d="M80.6523 295.381C79.3471 293.475 77.9187 291.462 75.4909 290.992C74.2739 290.756 72.987 291.123 72.2188 292.096C71.0277 293.607 71.7685 295.464 72.5626 297.004C73.7659 299.337 74.9296 301.472 76.6439 303.461C77.6951 304.683 78.9425 305.051 82.21 303.469C83.3859 302.9 83.8727 301.476 83.2946 300.303C82.4549 298.601 81.2912 296.313 80.6523 295.381Z" fill="#FF5233"/>
<path d="M78.7645 305.17C77.7088 305.17 76.8934 304.742 76.1526 303.883C74.3759 301.82 73.168 299.591 71.9876 297.301C71.0703 295.521 70.3188 293.463 71.7123 291.698C72.5961 290.578 74.0914 290.064 75.6141 290.359C78.3599 290.892 79.9267 293.18 81.1862 295.017C81.8434 295.976 83.0101 298.266 83.8742 300.019C84.2301 300.743 84.2819 301.563 84.0202 302.327C83.7586 303.089 83.2155 303.702 82.4914 304.052C80.9504 304.795 79.7533 305.17 78.7645 305.17ZM74.7668 291.567C73.9454 291.567 73.1954 291.9 72.7254 292.497C71.7898 293.683 72.3694 295.221 73.1361 296.707C74.2815 298.928 75.4483 301.082 77.1323 303.04C77.8792 303.907 78.7067 304.447 81.9286 302.888C82.3408 302.689 82.6496 302.34 82.7987 301.905C82.9493 301.469 82.9189 301.002 82.7166 300.588C81.5224 298.165 80.6006 296.446 80.1214 295.746C78.9364 294.016 77.5947 292.057 75.3692 291.626C75.1654 291.587 74.9646 291.567 74.7668 291.567Z" fill="black"/>
<path d="M249.663 206.353C249.413 206.353 249.173 206.217 249.048 205.982C242.551 193.648 233.245 187.39 217.929 185.055C217.55 184.997 217.29 184.642 217.348 184.264C217.406 183.885 217.76 183.626 218.139 183.682C233.938 186.091 243.549 192.566 250.276 205.334C250.454 205.673 250.325 206.093 249.985 206.271C249.882 206.327 249.772 206.353 249.663 206.353Z" fill="black"/>
<path d="M255.346 207.969C255.163 211.17 252.421 213.619 249.22 213.436C246.02 213.254 243.57 210.511 243.753 207.31C243.936 204.108 246.678 201.661 249.879 201.843C253.081 202.024 255.529 204.767 255.346 207.969Z" fill="#FF5233"/>
<path d="M249.558 214.09C249.433 214.09 249.308 214.085 249.184 214.079C247.463 213.982 245.884 213.22 244.736 211.934C243.589 210.649 243.011 208.992 243.108 207.272C243.31 203.72 246.36 201.002 249.915 201.196C253.467 201.399 256.192 204.453 255.989 208.004C255.892 209.724 255.13 211.303 253.845 212.452C252.654 213.516 251.143 214.09 249.558 214.09ZM249.543 202.479C248.276 202.479 247.068 202.938 246.112 203.788C245.084 204.706 244.474 205.97 244.396 207.345C244.317 208.722 244.78 210.045 245.699 211.073C246.616 212.102 247.88 212.71 249.257 212.789C250.632 212.868 251.957 212.406 252.985 211.487C254.013 210.57 254.623 209.306 254.701 207.929C254.862 205.089 252.682 202.646 249.842 202.485C249.742 202.482 249.643 202.479 249.543 202.479Z" fill="black"/>
<path d="M34.7595 188.233C34.294 188.233 33.8224 188.174 33.3463 188.045C32.143 187.716 30.996 186.944 29.9403 185.748C27.8715 183.408 26.7519 180.162 25.865 177.304C23.7643 170.536 22.2096 163.471 21.2437 156.308C21.1965 155.955 21.4445 155.63 21.7974 155.583C22.1503 155.537 22.4758 155.783 22.523 156.136C23.4798 163.228 25.0193 170.221 27.0987 176.922C27.946 179.652 29.0094 182.745 30.9078 184.893C31.7825 185.883 32.7439 186.542 33.6855 186.799C35.7285 187.356 38.0528 186.306 40.9994 183.495C43.6204 180.994 46.0345 178.149 48.1748 175.043C48.3772 174.75 48.7788 174.677 49.0723 174.877C49.3659 175.08 49.4405 175.481 49.2382 175.775C47.0492 178.954 44.5757 181.864 41.8908 184.427C40.1095 186.13 37.5432 188.233 34.7595 188.233Z" fill="black"/>
<path d="M25.9959 140.757C27.8624 136.121 26.402 130.355 22.5519 127.168C21.6316 126.406 20.3142 125.774 19.2889 126.387C18.361 126.94 18.1998 128.194 18.1374 129.272C17.999 131.686 17.8621 134.101 17.7236 136.515C17.4118 141.968 12.7113 141.033 9.14259 143.748C7.17416 145.245 5.65145 148.307 5.28484 150.71C3.00306 165.69 11.216 167.675 20.696 166.283C24.0624 165.788 28.3994 164.383 29.6619 161.903C31.9757 157.364 31.0645 142.469 25.9959 140.757Z" fill="#FF5233"/>
<path d="M16.1294 167.295C12.1424 167.295 9.21105 166.31 7.2335 164.322C4.50449 161.58 3.6587 157.095 4.64596 150.613C5.01104 148.22 6.5368 144.916 8.75013 143.234C10.0264 142.264 11.4411 141.731 12.6885 141.261C15.13 140.342 16.8946 139.677 17.0771 136.478L17.4909 129.236C17.5396 128.387 17.64 126.618 18.9558 125.833C20.045 125.184 21.5418 125.497 22.9611 126.673C26.8858 129.922 28.448 135.61 26.8097 140.414C28.0039 141.059 29.0094 142.365 29.8004 144.309C31.9027 149.468 32.1217 158.495 30.2339 162.197C28.8785 164.856 24.464 166.382 20.7858 166.922C19.0988 167.17 17.5472 167.295 16.1294 167.295ZM20.2077 126.788C19.9963 126.788 19.7955 126.836 19.619 126.94C18.9801 127.322 18.8387 128.303 18.7809 129.309L18.3671 136.551C18.1359 140.59 15.5985 141.545 13.1433 142.469C11.9203 142.93 10.6562 143.404 9.53202 144.261C7.61228 145.721 6.24016 148.722 5.92223 150.807C5.01408 156.771 5.76251 161.012 8.14774 163.411C10.5193 165.796 14.5946 166.527 20.6002 165.644C23.8054 165.173 27.9521 163.834 29.0854 161.61C30.9093 158.031 30.3617 149.103 28.6062 144.795C27.8411 142.918 26.866 141.733 25.7875 141.369C25.6186 141.313 25.4817 141.188 25.4072 141.027C25.3326 140.865 25.3281 140.68 25.395 140.516C27.1429 136.174 25.7434 130.651 22.1381 127.665C21.5738 127.198 20.8375 126.788 20.2077 126.788Z" fill="black"/>
<path d="M23.565 144.883C23.3931 144.883 23.2212 144.815 23.0935 144.679C22.8501 144.419 22.8622 144.01 23.1239 143.767C24.1705 142.787 24.7759 141.78 25.4148 140.473C25.5715 140.152 25.9579 140.02 26.2788 140.177C26.5998 140.333 26.7322 140.72 26.5755 141.041C25.8727 142.478 25.1973 143.593 24.0077 144.708C23.8814 144.825 23.7232 144.883 23.565 144.883Z" fill="black"/>
<path d="M15.524 166.38C16.8277 165.705 17.7769 165.075 18.3717 164.492C18.9649 163.91 19.3985 162.871 19.3422 161.882C19.2783 160.749 18.285 159.567 16.4778 159.218C14.9125 158.916 13.37 159.364 10.7292 159.66C12.6915 159.472 16.6177 158.744 18.2363 157.618C18.9558 157.118 19.6632 156.453 19.7727 155.583C19.8396 155.055 19.6692 154.519 19.4167 154.051C18.685 152.696 17.284 151.801 15.8085 151.357C14.3329 150.913 10.4204 150.572 8.87943 150.542C10.4463 150.525 14.3481 150.526 15.9028 150.332C17.7023 150.106 19.8107 149.492 20.3431 147.758C20.7843 146.322 19.8122 144.778 18.5253 144.003C16.5645 142.825 14.5276 142.966 13.0292 142.85C10.3885 142.648 7.17265 142.818 5.22705 143.316C4.02379 143.625 2.91332 144.373 2.19988 145.389C1.48644 146.407 1.32824 147.89 2.09948 148.865C2.7323 149.664 3.79865 149.948 4.79047 150.187C3.29057 150.364 1.69636 151.743 1.05442 153.111C0.412478 154.477 0.526567 156.171 1.34649 157.439C2.66688 159.479 5.42785 160.102 7.84046 159.804C6.84255 160.37 5.48413 160.945 4.84979 161.9C4.21546 162.856 3.92643 164.088 4.28847 165.177C4.66877 166.319 5.70623 167.148 6.83799 167.559C7.96824 167.971 9.28407 167.915 10.4782 167.757C11.9142 167.567 14.0393 167.15 15.524 166.38Z" fill="#FF5233"/>
<path d="M8.88551 168.521C8.14773 168.521 7.35519 168.435 6.61741 168.166C5.18293 167.644 4.08311 166.602 3.67695 165.381C3.27688 164.179 3.51418 162.745 4.31281 161.543C4.60336 161.106 5.00191 160.747 5.44153 160.437C3.64957 160.2 1.86521 159.425 0.806462 157.789C-0.130592 156.34 -0.262937 154.396 0.471798 152.836C0.90838 151.908 1.78155 150.895 2.84638 150.234C2.38242 150.009 1.94127 149.703 1.59596 149.265C0.585888 147.991 0.870352 146.164 1.67354 145.018C2.46608 143.888 3.70433 143.039 5.07036 142.689C7.04335 142.184 10.2637 141.988 13.0825 142.205C13.3365 142.225 13.6073 142.237 13.8902 142.25C15.3202 142.312 17.1015 142.391 18.8615 143.45C20.3234 144.328 21.5144 146.154 20.9638 147.946C20.4846 149.503 18.9786 150.496 16.4823 150.901C18.072 151.485 19.3057 152.481 19.9872 153.745C20.3477 154.413 20.4922 155.06 20.4161 155.663C20.3021 156.567 19.7103 157.379 18.6074 158.148C18.2743 158.379 17.856 158.595 17.3814 158.793C19.0897 159.389 19.9233 160.696 19.9887 161.846C20.0526 162.961 19.5841 164.21 18.8265 164.953C18.1785 165.589 17.1958 166.243 15.8237 166.954C14.1367 167.827 11.8047 168.233 10.5664 168.396C10.0873 168.46 9.50616 168.521 8.88551 168.521ZM7.84197 159.158C8.11731 159.158 8.36679 159.334 8.45502 159.6C8.55237 159.892 8.42915 160.212 8.1599 160.364C7.96215 160.477 7.75222 160.588 7.53469 160.703C6.72694 161.134 5.80966 161.62 5.38829 162.256C4.80872 163.129 4.62617 164.144 4.90151 164.972C5.18445 165.822 5.99068 166.563 7.05856 166.951C8.1523 167.348 9.48486 167.235 10.393 167.115C11.324 166.992 13.6575 166.618 15.2274 165.805C16.4656 165.165 17.3722 164.567 17.9183 164.03C18.4188 163.539 18.7398 162.67 18.6972 161.917C18.6516 161.105 17.9092 160.151 16.3546 159.85C15.3567 159.657 14.3238 159.809 12.8939 160.019C12.6976 160.048 12.4923 160.078 12.2793 160.108C11.7271 160.195 11.219 160.259 10.7885 160.3C10.4371 160.334 10.1222 160.076 10.0857 159.724C10.0492 159.371 10.3033 159.054 10.6562 159.016C11.2129 158.954 11.7256 158.884 12.1956 158.815C14.2462 158.488 16.7425 157.868 17.8666 157.086C18.6516 156.538 19.0668 156.021 19.1323 155.499C19.1749 155.166 19.079 154.781 18.8478 154.355C18.0583 152.889 16.4869 152.233 15.6213 151.973C14.2523 151.561 10.4204 151.215 8.86574 151.185C8.51282 151.179 8.2314 150.89 8.23292 150.537C8.23444 150.184 8.51891 149.898 8.87182 149.895L9.66588 149.889C11.4837 149.875 14.5246 149.853 15.8221 149.69C18.0659 149.408 19.3787 148.695 19.7255 147.566C20.0769 146.421 19.1977 145.161 18.1922 144.556C16.7136 143.667 15.1802 143.599 13.8294 143.54C13.5312 143.526 13.2468 143.514 12.9806 143.494C10.3322 143.292 7.20916 143.474 5.38829 143.941C4.31585 144.215 3.34685 144.878 2.72925 145.76C2.21356 146.495 1.99603 147.692 2.60603 148.464C3.08977 149.074 3.94925 149.32 4.94106 149.559C5.2453 149.632 5.4537 149.913 5.43545 150.225C5.41719 150.537 5.17684 150.791 4.86652 150.828C3.68456 150.968 2.23638 152.113 1.63855 153.385C1.0894 154.551 1.18828 156.004 1.88803 157.087C3.1278 159.002 5.82487 159.403 7.75983 159.162C7.78873 159.159 7.81611 159.158 7.84197 159.158Z" fill="black"/>
<path d="M188.722 56.0214L187.259 81.7584C198.933 85.934 211.998 92.0173 217.776 102.988C221.814 110.656 222.424 119.618 222.703 128.281C223.231 144.698 218.827 212.741 215.982 254.237C214.735 272.423 199.091 286.219 180.891 285.183L74.166 279.115C55.9664 278.08 41.9867 262.599 42.8096 244.391C44.6868 202.838 48.0243 134.735 50.4095 118.485C51.6691 109.91 53.2906 101.074 58.1721 93.9127C65.1559 83.669 78.8254 79.1039 90.8975 76.279L92.3609 50.542" fill="white"/>
<path d="M182.82 285.89C182.166 285.89 181.512 285.872 180.853 285.834L74.1279 279.766C65.1529 279.255 56.8928 275.301 50.8689 268.629C44.8449 261.959 41.7508 253.34 42.1555 244.36C43.9627 204.357 47.3519 134.799 49.7614 118.389C51.021 109.812 52.6654 100.828 57.6306 93.5447C64.8288 82.9846 78.7751 78.4788 90.2723 75.7559L91.7083 50.5056C91.7296 50.1451 92.043 49.8636 92.3974 49.891C92.7579 49.9108 93.0333 50.2196 93.012 50.5801L91.5486 76.3172C91.5318 76.6062 91.3265 76.8496 91.0451 76.915C79.6909 79.5725 65.7537 83.9475 58.7106 94.2794C53.9021 101.333 52.2912 110.152 51.0544 118.577C48.654 134.932 45.2663 204.441 43.4607 244.418C43.0712 253.052 46.0467 261.34 51.8379 267.753C57.6306 274.166 65.5727 277.969 74.2009 278.461L180.926 284.529C189.557 285.019 197.877 282.141 204.359 276.425C210.84 270.709 214.736 262.812 215.328 254.19C218.066 214.265 222.579 144.819 222.047 128.299C221.773 119.787 221.172 110.844 217.194 103.289C211.368 92.2258 198.017 86.2992 187.037 82.3715C186.765 82.2742 186.588 82.0095 186.605 81.7189L188.068 55.9819C188.088 55.6214 188.401 55.3414 188.757 55.3673C189.118 55.3871 189.393 55.6959 189.372 56.0564L187.936 81.3051C199.05 85.3135 212.395 91.3724 218.351 102.679C222.458 110.479 223.074 119.591 223.354 128.255C223.888 144.832 219.371 214.327 216.632 254.277C216.017 263.244 211.965 271.457 205.224 277.402C198.977 282.916 191.085 285.89 182.82 285.89Z" fill="black"/>
<path d="M187.835 71.6035L188.721 56.0204L92.3609 50.541L91.4741 66.1241C99.4603 67.5358 181.173 71.3905 187.835 71.6035Z" fill="black"/>
<path d="M203.621 267.35C199.386 271.341 190.33 277.02 175.588 275.98C170.67 275.633 107.915 272.122 98.651 271.605C85.6327 270.877 69.4578 270.765 60.5786 268.553C54.7692 267.106 46.5806 261.35 42.9572 249.386C44.6229 265.351 57.6595 278.176 74.1674 279.115L180.893 285.183C199.092 286.217 214.736 272.422 215.984 254.237C216.279 249.943 216.589 245.363 216.91 240.584C214.575 247.431 209.929 261.402 203.621 267.35Z" fill="black"/>
<path d="M198.501 65.8507L81.5315 59.2001C78.8801 59.0495 76.8523 56.7768 77.0029 54.1254L79.7852 5.18406C79.9358 2.53262 82.2085 0.503365 84.8599 0.655484L201.829 7.30613C204.48 7.45672 206.508 9.72938 206.357 12.3808L203.575 61.3221C203.425 63.9736 201.152 66.0013 198.501 65.8507Z" fill="#44AB85"/>
<path d="M198.78 66.5038C198.675 66.5038 198.569 66.5008 198.464 66.4947L81.495 59.8441C78.4922 59.6722 76.1876 57.0907 76.358 54.0878L79.1402 5.14654C79.2224 3.69228 79.8673 2.35668 80.955 1.38616C82.0426 0.415636 83.4376 -0.0757069 84.8964 0.00947988L201.865 6.66012C204.868 6.83049 207.173 9.4135 207.002 12.4163L204.22 61.3576C204.137 62.8134 203.493 64.149 202.405 65.118C201.397 66.0186 200.121 66.5038 198.78 66.5038ZM84.5815 1.29185C83.5578 1.29185 82.5842 1.66301 81.8145 2.34906C80.9839 3.08988 80.4926 4.1091 80.4302 5.21957L77.6479 54.1609C77.5171 56.4533 79.2771 58.4248 81.5696 58.5556L198.539 65.2063C199.651 65.2701 200.718 64.8959 201.548 64.1551C202.378 63.4143 202.869 62.3951 202.933 61.2846L205.716 12.3433C205.846 10.0509 204.086 8.07939 201.794 7.94857L84.8249 1.29793C84.7428 1.29337 84.6621 1.29185 84.5815 1.29185Z" fill="black"/>
<path d="M192.182 257.481L66.0869 250.312C61.4396 250.047 57.8861 246.066 58.1493 241.418L65.3187 115.321C65.5834 110.674 69.5659 107.121 74.2131 107.384L200.309 114.553C204.956 114.818 208.51 118.8 208.247 123.448L201.077 249.544C200.813 254.193 196.83 257.746 192.182 257.481Z" fill="#4F7DFD"/>
<path d="M192.667 258.19C192.493 258.19 192.318 258.186 192.144 258.175L66.0473 251.006C63.615 250.867 61.3803 249.79 59.7587 247.971C58.1356 246.153 57.3188 243.812 57.4572 241.38L64.6266 115.283C64.9125 110.262 69.2251 106.416 74.2527 106.693L200.349 113.863C202.781 114.001 205.016 115.078 206.637 116.897C208.261 118.715 209.077 121.056 208.939 123.49L201.77 249.586C201.494 254.431 197.462 258.19 192.667 258.19ZM73.7294 108.065C69.6632 108.065 66.2451 111.252 66.0108 115.363L58.8415 241.459C58.7243 243.521 59.418 245.507 60.7932 247.048C62.1683 248.589 64.0622 249.503 66.1249 249.62L192.221 256.789C196.488 257.036 200.14 253.764 200.384 249.506L207.553 123.41C207.67 121.347 206.978 119.362 205.601 117.819C204.226 116.278 202.332 115.364 200.27 115.247L74.1736 108.078C74.026 108.068 73.8769 108.065 73.7294 108.065Z" fill="black"/>
<path d="M131.904 187.538C131.725 187.538 131.548 187.47 131.414 187.336L122.663 178.603C122.392 178.332 122.391 177.892 122.662 177.621C122.932 177.351 123.372 177.349 123.643 177.62L131.999 185.957L143.292 178.694C143.614 178.487 144.043 178.58 144.25 178.902C144.457 179.225 144.364 179.654 144.042 179.861L132.278 187.427C132.164 187.501 132.034 187.538 131.904 187.538Z" fill="black"/>
<path d="M92.761 51.8428C92.7488 51.8428 92.7367 51.8428 92.7245 51.8412C92.3685 51.8215 92.0962 51.5157 92.116 51.1597L94.2183 14.1857C94.2381 13.8297 94.5453 13.5574 94.8998 13.5772C95.2557 13.597 95.528 13.9027 95.5067 14.2587L93.4045 51.2312C93.3862 51.5781 93.1002 51.8428 92.761 51.8428Z" fill="white"/>
<path d="M111.86 52.9286C111.847 52.9286 111.835 52.9285 111.822 52.927C111.466 52.9072 111.193 52.6015 111.215 52.2455L113.317 15.2715C113.338 14.9155 113.644 14.6447 113.998 14.663C114.354 14.6828 114.627 14.9885 114.607 15.3445L112.505 52.317C112.483 52.6639 112.199 52.9286 111.86 52.9286Z" fill="white"/>
<path d="M130.957 54.0148C130.944 54.0148 130.932 54.0148 130.919 54.0133C130.563 53.9935 130.29 53.6877 130.31 53.3318L132.412 16.3577C132.432 16.0017 132.739 15.7279 133.094 15.7492C133.45 15.769 133.722 16.0747 133.701 16.4307L131.599 53.4033C131.582 53.7501 131.297 54.0148 130.957 54.0148Z" fill="white"/>
<path d="M150.055 55.1016C150.043 55.1016 150.031 55.1015 150.019 55.1C149.663 55.0802 149.39 54.7745 149.41 54.4185L151.512 17.4444C151.534 17.0885 151.844 16.8162 152.194 16.836C152.55 16.8557 152.822 17.1615 152.802 17.5175L150.7 54.49C150.679 54.8369 150.394 55.1016 150.055 55.1016Z" fill="white"/>
<path d="M169.154 56.1873C169.142 56.1873 169.129 56.1873 169.117 56.1858C168.761 56.166 168.489 55.8603 168.509 55.5043L170.611 18.5303C170.632 18.1743 170.94 17.9035 171.292 17.9218C171.648 17.9415 171.921 18.2473 171.901 18.6033L169.799 55.5759C169.777 55.9212 169.493 56.1873 169.154 56.1873Z" fill="white"/>
<path d="M188.251 57.2736C188.239 57.2736 188.226 57.2736 188.213 57.2721C187.857 57.2523 187.584 56.9465 187.604 56.5906L189.707 19.6165C189.726 19.2605 190.037 18.9867 190.388 19.008C190.744 19.0278 191.016 19.3335 190.997 19.6895L188.894 56.6621C188.876 57.0074 188.59 57.2736 188.251 57.2736Z" fill="white"/>
<path d="M105.816 171.998C105.629 175.275 102.822 177.78 99.5455 177.595C96.2689 177.409 93.7635 174.601 93.949 171.324C94.1361 168.048 96.9427 165.542 100.219 165.728C103.496 165.914 106.001 168.72 105.816 171.998Z" fill="#FF5233"/>
<path d="M110.223 162.525C110.39 159.594 111.96 158.219 113.795 158.324C115.629 158.427 117.033 159.971 116.867 162.903C116.702 165.834 115.13 167.209 113.296 167.104C111.461 167.001 110.057 165.457 110.223 162.525Z" fill="black"/>
<path d="M158.854 168.483C158.804 168.483 158.752 168.477 158.7 168.466L143.938 165.13C143.698 165.076 143.505 164.899 143.43 164.665C143.356 164.431 143.409 164.175 143.573 163.991L153.96 152.34C154.216 152.054 154.654 152.03 154.94 152.284C155.226 152.539 155.252 152.978 154.996 153.264L145.393 164.035L159.004 167.112C159.379 167.196 159.613 167.569 159.528 167.942C159.458 168.264 159.172 168.483 158.854 168.483Z" fill="black"/>
<path d="M144.092 165.147C143.789 165.147 143.512 164.948 143.426 164.643C143.321 164.275 143.534 163.89 143.902 163.785L160.868 158.928C161.237 158.822 161.621 159.036 161.726 159.404C161.832 159.772 161.618 160.157 161.25 160.262L144.285 165.119C144.22 165.138 144.156 165.147 144.092 165.147Z" fill="black"/>
<path d="M173.467 175.965C173.723 172.693 171.277 169.833 168.005 169.577C164.732 169.321 161.872 171.767 161.616 175.039C161.36 178.312 163.806 181.172 167.079 181.428C170.351 181.684 173.211 179.238 173.467 175.965Z" fill="#FF5233"/>
<path d="M69.6039 220.783C69.5537 220.783 69.505 220.782 69.4548 220.779C68.031 220.698 66.9418 219.478 67.0239 218.054L68.1527 198.215C68.2333 196.791 69.4548 195.705 70.8771 195.784C72.301 195.864 73.3901 197.084 73.308 198.508L72.1808 218.348C72.1017 219.721 70.9623 220.783 69.6039 220.783Z" fill="#9CB8FF"/>
<path d="M67.9321 234.26C67.8819 234.26 67.8332 234.258 67.783 234.255C66.3592 234.175 65.27 232.955 65.3521 231.531L65.6077 227.022C65.6883 225.598 66.9083 224.51 68.3322 224.59C69.756 224.67 70.8452 225.89 70.763 227.314L70.5059 231.823C70.4299 233.198 69.292 234.26 67.9321 234.26Z" fill="#9CB8FF"/>
</svg>
