<svg width="173" height="161" viewBox="0 0 173 161" fill="none" xmlns="http://www.w3.org/2000/svg">
<path d="M84.535 148.68C84.5666 148.683 84.5985 148.683 84.6305 148.68C84.9039 148.656 85.1013 148.422 85.0726 148.158C84.3253 141.488 84.2482 134.022 84.1731 126.802C84.1574 125.272 84.1411 123.748 84.119 122.236C84.1151 121.971 83.8889 121.753 83.6141 121.754C83.3393 121.753 83.1188 121.967 83.1227 122.232C83.145 123.742 83.1601 125.265 83.176 126.794C83.2514 134.037 83.33 141.527 84.0813 148.245C84.1081 148.477 84.3011 148.657 84.535 148.68Z" fill="black"/>
<path d="M36.9756 133.068C37.2133 133.092 37.4368 132.943 37.4915 132.709C38.3574 129.064 39.2537 125.294 40.9233 121.893C42.6464 118.382 45.2139 115.263 48.3455 112.874C48.5561 112.713 48.5911 112.412 48.4225 112.202C48.254 111.992 47.9459 111.953 47.7352 112.114C44.4884 114.59 41.8267 117.823 40.0405 121.464C38.3246 124.958 37.417 128.78 36.5387 132.475C36.4775 132.731 36.6417 132.991 36.9048 133.057C36.9287 133.061 36.9527 133.066 36.9756 133.068Z" fill="black"/>
<path d="M87.8627 147.115C89.5607 147.464 91.3674 147.867 92.4184 149.38C92.945 150.138 93.0803 151.113 92.6445 151.905C91.9678 153.136 90.4729 153.155 89.1806 153.049C87.2217 152.89 85.4096 152.699 83.533 152.098C82.381 151.728 81.7547 150.987 81.8566 148.33C81.8935 147.374 82.7229 146.645 83.6999 146.707C85.1168 146.798 87.0311 146.945 87.8627 147.115Z" fill="#FF5233"/>
<path d="M87.8288 153.406C88.2676 153.451 88.7071 153.489 89.149 153.525C90.6449 153.648 92.2796 153.579 93.0704 152.138C93.5726 151.224 93.4757 150.066 92.8165 149.117C91.6275 147.405 89.5895 146.985 87.9528 146.649C87.0985 146.473 85.1791 146.325 83.7195 146.232C83.1165 146.194 82.5394 146.389 82.0941 146.782C81.6513 147.173 81.3937 147.713 81.371 148.302C81.2713 150.895 81.8183 152.046 83.3882 152.55C84.889 153.032 86.3545 153.257 87.8288 153.406ZM87.772 147.576C89.312 147.893 91.0577 148.253 92.0216 149.64C92.4751 150.292 92.5504 151.072 92.2188 151.676C91.6868 152.643 90.4584 152.683 89.21 152.58C87.3459 152.428 85.5179 152.242 83.6719 151.649C82.8536 151.387 82.2354 150.977 82.3363 148.356C82.3488 148.021 82.4951 147.714 82.7486 147.491C83.0022 147.267 83.332 147.155 83.6755 147.178C85.6948 147.306 87.1492 147.448 87.772 147.576Z" fill="black"/>
<path d="M36.2227 129.737C34.8988 128.612 33.4659 127.434 31.6169 127.538C30.6907 127.589 29.8322 128.086 29.4712 128.921C28.9106 130.215 29.816 131.408 30.6968 132.364C32.0311 133.812 33.2988 135.126 34.9335 136.236C35.9374 136.918 36.9123 136.954 38.9595 135.232C39.6966 134.612 39.7641 133.507 39.1132 132.775C38.1672 131.709 36.8708 130.287 36.2227 129.737Z" fill="#FF5233"/>
<path d="M35.9625 137.139C36.9038 137.235 37.9181 136.741 39.2791 135.595C39.7323 135.214 40.0026 134.678 40.0403 134.085C40.0781 133.492 39.877 132.915 39.4751 132.463C38.5028 131.368 37.203 129.944 36.5357 129.377C35.2587 128.291 33.6705 126.942 31.5792 127.059C30.4201 127.124 29.4418 127.762 29.0254 128.723C28.3706 130.235 29.3237 131.57 30.342 132.676C31.6534 134.099 32.9701 135.473 34.6657 136.624C35.0991 136.922 35.5225 137.094 35.9625 137.139ZM35.9107 130.093C36.3974 130.506 37.4057 131.568 38.7517 133.082C38.9809 133.341 39.0952 133.669 39.0744 134.008C39.0527 134.346 38.8995 134.651 38.6414 134.867C36.6224 136.565 35.9165 136.33 35.2043 135.846C33.5965 134.754 32.324 133.426 31.0536 132.047C30.2032 131.124 29.4769 130.13 29.9176 129.113C30.1928 128.478 30.8581 128.057 31.6544 128.011C33.3481 127.916 34.7096 129.072 35.9107 130.093Z" fill="black"/>
<path d="M10.3546 79.5136C10.6027 79.5388 10.831 79.375 10.8761 79.1315C12.6653 69.4261 17.603 60.3218 24.7801 53.496C24.9718 53.3138 24.9734 53.0104 24.7835 52.8189C24.5936 52.6275 24.2838 52.6199 24.0922 52.8021C16.7737 59.7631 11.7385 69.0466 9.91325 78.9433C9.86563 79.2024 10.0422 79.4548 10.3076 79.5077C10.3237 79.5094 10.3397 79.5121 10.3546 79.5136Z" fill="black"/>
<path d="M6.55421 82.8084C7.49753 85.0048 10.0582 86.0692 12.2732 85.1864C14.4883 84.3036 15.5188 81.8071 14.5755 79.6108C13.6321 77.4144 11.0715 76.35 8.85642 77.2328C6.64139 78.1156 5.60974 80.612 6.55421 82.8084Z" fill="#FF5233"/>
<path d="M10.1708 85.9472C10.93 86.0246 11.7144 85.9266 12.463 85.6288C14.9205 84.649 16.0681 81.8693 15.0212 79.4326C14.514 78.2519 13.5741 77.3268 12.3731 76.8281C11.1731 76.3294 9.85624 76.3157 8.66553 76.7903C7.47483 77.2649 6.55297 78.1703 6.0701 79.3412C5.58732 80.5111 5.60027 81.8059 6.10742 82.9865C6.83616 84.681 8.43717 85.7704 10.1708 85.9472ZM10.8821 77.4174C11.2646 77.4564 11.6456 77.5527 12.0116 77.705C12.972 78.1037 13.7244 78.844 14.1299 79.7879C14.9668 81.7368 14.049 83.9597 12.0835 84.744C10.1168 85.5282 7.83793 84.5792 6.99991 82.6302C6.59436 81.6864 6.58351 80.651 6.96954 79.7146C7.35671 78.7784 8.09331 78.0535 9.04517 77.674C9.6345 77.44 10.2618 77.3542 10.8821 77.4174Z" fill="black"/>
<path d="M76.1297 125.21C43.3745 121.87 19.033 93.1045 21.7615 60.9607C24.4899 28.817 53.2551 5.46677 86.0103 8.80664C118.765 12.1465 143.107 40.9117 140.379 73.0555C137.65 105.199 108.885 128.549 76.1297 125.21Z" fill="black"/>
<path d="M76.0864 125.719C92.0666 127.348 107.609 122.774 119.85 112.837C132.091 102.9 139.566 88.7915 140.897 73.1096C142.229 57.4277 137.257 42.0496 126.898 29.8086C116.539 17.5677 102.033 9.92903 86.0533 8.29961C70.073 6.6702 54.5306 11.2451 42.2897 21.1816C30.0489 31.1181 22.5745 45.2272 21.2434 60.9091C19.9123 76.5911 24.8837 91.9692 35.2421 104.21C45.6005 116.451 60.1062 124.09 76.0864 125.719ZM85.9669 9.31722C101.67 10.9184 115.923 18.4243 126.102 30.4531C136.281 42.4819 141.166 57.5932 139.858 73.0025C138.55 88.413 131.206 102.276 119.177 112.041C107.148 121.805 91.8755 126.3 76.173 124.699C60.4694 123.098 46.2165 115.592 36.0376 103.563C25.8586 91.5345 20.9736 76.4232 22.2816 61.0139C23.5896 45.6034 30.9341 31.7402 42.9629 21.9758C54.9905 12.2113 70.2633 7.71601 85.9669 9.31722Z" fill="black"/>
<path d="M73.286 118.011C42.4563 114.867 19.5458 87.793 22.1138 57.5389C24.6818 27.2847 51.756 5.30719 82.5857 8.45072C113.415 11.5942 136.326 38.6684 133.758 68.9226C131.19 99.1768 104.116 121.154 73.286 118.011Z" fill="#4FFAFD"/>
<path d="M73.2453 118.491C88.2864 120.025 102.915 115.719 114.436 106.365C125.958 97.0125 132.993 83.733 134.246 68.9726C135.499 54.2122 130.819 39.7382 121.069 28.2162C111.32 16.6943 97.6664 9.50527 82.6264 7.97173C67.5864 6.43818 52.9566 10.7444 41.4359 20.0964C29.9139 29.4494 22.8785 42.7289 21.6256 57.4893C20.3727 72.2497 25.0523 86.7237 34.8024 98.2457C44.5513 109.768 58.2041 116.958 73.2453 118.491ZM82.545 8.93125C97.3243 10.4382 110.741 17.5039 120.321 28.8249C129.902 40.1471 134.5 54.3695 133.268 68.8729C132.037 83.3764 125.125 96.4262 113.803 105.617C102.482 114.807 88.1061 119.039 73.3267 117.532C58.5474 116.025 45.1307 108.96 35.5509 97.6381C25.9698 86.3159 21.3721 72.0936 22.6033 57.589C23.8345 43.0844 30.747 30.0357 42.0691 20.846C53.3901 11.6562 67.7656 7.42428 82.545 8.93125Z" fill="black"/>
<path d="M124.876 87.0188C125.091 87.0404 125.303 86.9295 125.394 86.7275C125.508 86.4744 125.389 86.1734 125.127 86.0569L28.9827 43.259C28.7211 43.1426 28.4148 43.253 28.3005 43.5071C28.1863 43.7602 28.3055 44.0601 28.5682 44.1777L124.712 86.9756C124.765 86.9987 124.821 87.0132 124.876 87.0188Z" fill="black"/>
<path d="M130.257 90.1591C130.342 90.1678 130.431 90.1543 130.513 90.1153C142.865 84.2786 153.008 74.412 159.076 62.3337C159.194 62.0997 159.094 61.8119 158.853 61.6915C158.612 61.571 158.322 61.6633 158.203 61.8972C152.229 73.791 142.241 83.5064 130.078 89.2541C129.839 89.3673 129.742 89.6519 129.862 89.8898C129.941 90.0457 130.094 90.1425 130.257 90.1591Z" fill="black"/>
<path d="M168.195 54.6497C167.625 53.195 166.411 52.0696 165.137 51.1328C164.093 50.3658 162.95 49.6741 161.679 49.4264C159.749 49.0507 157.679 49.8098 156.424 51.2665C155.17 52.7221 154.736 54.8038 155.203 56.6847C155.098 55.7027 154.992 54.7207 154.887 53.7388C154.788 52.8126 154.673 51.842 154.136 51.0648C153.6 50.2876 152.494 49.7979 151.676 50.249C150.917 50.6668 150.728 51.6886 150.921 52.5354C151.899 56.833 150.746 60.741 158.768 64.5748C164.042 67.0944 170.092 59.5045 168.195 54.6497Z" fill="#FF5233"/>
<path d="M160.379 65.5129C162.169 65.6953 164.069 65.0055 165.723 63.5185C168.857 60.699 169.566 56.841 168.646 54.4873C167.976 52.7735 166.484 51.5354 165.422 50.754C164.49 50.0693 163.232 49.2454 161.764 48.9596C159.685 48.5552 157.445 49.3376 156.052 50.9536C155.695 51.3663 155.399 51.8302 155.165 52.3264C155.047 51.8011 154.86 51.2722 154.534 50.8023C153.89 49.8688 152.52 49.2328 151.432 49.831C150.437 50.379 150.221 51.631 150.448 52.6288C150.623 53.4008 150.732 54.1772 150.836 54.9283C151.322 58.441 151.781 61.7597 158.564 65.0015C159.145 65.2801 159.756 65.4493 160.379 65.5129ZM167.743 54.8128C168.664 57.1689 167.512 60.6069 165.061 62.8107C163.102 64.5726 160.883 65.06 158.973 64.1472C152.669 61.1344 152.264 58.2084 151.796 54.8202C151.689 54.0496 151.579 53.2528 151.393 52.4404C151.249 51.8044 151.351 50.9786 151.919 50.6651C152.5 50.3451 153.343 50.7573 153.737 51.3265C154.218 52.0204 154.317 52.9546 154.405 53.7784L154.538 55.0153C154.524 55.6071 154.587 56.2044 154.733 56.7876C154.793 57.0324 155.036 57.1921 155.287 57.1547C155.538 57.1161 155.711 56.893 155.684 56.6438L155.507 54.9881C155.55 53.7263 155.999 52.5025 156.797 51.5777C157.972 50.2151 159.857 49.5542 161.596 49.8924C162.868 50.1402 164.005 50.8876 164.854 51.5121C165.816 52.2213 167.164 53.3346 167.743 54.8128Z" fill="black"/>
<path d="M74.2215 42.2252C75.0489 40.2473 74.4137 38.8217 73.1235 38.276C71.8333 37.7302 70.3739 38.2717 69.5464 40.2496C68.719 42.2274 69.3542 43.653 70.6444 44.1987C71.9347 44.7445 73.3941 44.203 74.2215 42.2252Z" fill="black"/>
<path d="M102.714 54.168C103.541 52.1901 102.906 50.7646 101.616 50.2188C100.324 49.673 98.866 50.2145 98.0386 52.1924C97.2112 54.1703 97.8464 55.5959 99.1366 56.1416C100.428 56.6875 101.886 56.1459 102.714 54.168Z" fill="black"/>
<path d="M102.455 61.8793C101.529 64.0934 102.635 66.6706 104.927 67.638C107.218 68.6053 109.825 67.5931 110.752 65.3791C111.678 63.1649 110.571 60.5877 108.281 59.6205C105.989 58.6541 103.381 59.6652 102.455 61.8793Z" fill="#FF5233"/>
<path d="M55.9184 42.3728C54.9925 44.587 56.0989 47.1642 58.3902 48.1315C60.6816 49.0978 63.2887 48.0866 64.2156 45.8737C65.1415 43.6596 64.0351 41.0813 61.7438 40.115C59.4525 39.1477 56.8454 40.1589 55.9184 42.3728Z" fill="#FF5233"/>
<path d="M85.6607 60.7054C89.2208 61.0639 92.6195 60.7771 95.1496 60.4762C95.4333 60.4426 95.6295 60.1912 95.5895 59.9138C95.5494 59.6364 95.2866 59.4399 95.0041 59.4737C91.4661 59.8942 86.1931 60.2878 81.2623 58.8534C76.5052 57.4687 72.6342 54.4207 70.9087 50.6997C70.7904 50.4433 70.482 50.3255 70.2225 50.4372C69.9618 50.5476 69.8473 50.845 69.9667 51.1016C71.8174 55.093 75.9361 58.3537 80.9838 59.8222C82.5352 60.2718 84.1127 60.5495 85.6607 60.7054Z" fill="black"/>
</svg>
