<svg width="191" height="274" viewBox="0 0 191 274" fill="none" xmlns="http://www.w3.org/2000/svg">
<path d="M213.013 90.2764L236.123 186.484C238.006 194.326 233.177 202.209 225.336 204.092C217.495 205.975 209.611 201.144 207.728 193.305L184.591 96.9854C189.155 98.4469 194.447 98.6913 199.81 97.4019C205.087 96.1349 209.629 93.576 213.016 90.2764L213.013 90.2764Z" fill="#FD4C4C"/>
<path d="M191.736 91.0239C194.298 91.0239 196.375 88.947 196.375 86.385C196.375 83.823 194.298 81.7461 191.736 81.7461C189.174 81.7461 187.097 83.823 187.097 86.385C187.097 88.947 189.174 91.0239 191.736 91.0239Z" fill="#FD4C4C"/>
<path d="M191.666 66.7044C192.018 68.1709 191.115 69.6424 189.651 69.9941C188.185 70.3457 186.713 69.4429 186.362 67.9789C186.01 66.5124 186.913 65.0409 188.377 64.6892C189.843 64.3376 191.315 65.2404 191.666 66.7044Z" fill="#FD4C4C"/>
<path d="M159.894 29.4309C155.415 29.4309 151.34 26.3707 150.247 21.8265C148.971 16.5067 152.258 11.1395 157.578 9.86258L197.48 0.277955C200.056 -0.340569 202.72 0.0809281 204.979 1.46512C207.239 2.84932 208.825 5.03162 209.444 7.60797C210.721 12.9278 207.434 18.295 202.114 19.5719L162.211 29.1565C161.436 29.3436 160.66 29.4309 159.894 29.4309ZM199.797 3.74469C199.32 3.74469 198.837 3.79956 198.353 3.91678L158.45 13.5014C155.138 14.297 153.088 17.6415 153.884 20.9536C154.679 24.2682 158.024 26.3133 161.336 25.5202L201.238 15.9356C204.55 15.14 206.601 11.7955 205.805 8.48338C205.124 5.65264 202.588 3.74717 199.797 3.74717L199.797 3.74469Z" fill="#033F70"/>
<path d="M221.83 213.694C210.906 213.694 200.969 206.229 198.311 195.151L157.77 26.3762L204.81 15.0781L245.351 183.853C246.86 190.135 245.832 196.63 242.458 202.139C239.083 207.649 233.764 211.514 227.481 213.023C225.591 213.477 223.695 213.694 221.832 213.694L221.83 213.694ZM162.282 29.1396L201.95 194.278C204.199 203.643 212.599 209.951 221.832 209.953C223.408 209.953 225.01 209.769 226.608 209.384C231.918 208.11 236.415 204.84 239.268 200.184C242.121 195.528 242.989 190.036 241.715 184.726L202.047 19.5874L162.282 29.1396Z" fill="#013F71"/>
<path d="M63.0408 126.3L86.1507 222.508C88.0337 230.349 83.2052 238.233 75.3639 240.116C67.5226 241.999 59.639 237.168 57.7559 229.329L34.6187 133.009C39.1828 134.47 44.4751 134.715 49.8373 133.425C55.1147 132.158 59.6564 129.599 63.0433 126.3L63.0408 126.3Z" fill="#FD4C4C"/>
<path d="M46.0954 124.478C47.4337 122.294 46.7475 119.438 44.5628 118.1C42.3781 116.761 39.5221 117.447 38.1839 119.632C36.8456 121.817 37.5318 124.673 39.7165 126.011C41.9012 127.349 44.7571 126.663 46.0954 124.478Z" fill="#FD4C4C"/>
<path d="M43.0605 102.634C43.4122 104.101 42.5093 105.572 41.0453 105.924C39.5788 106.275 38.1073 105.373 37.7557 103.909C37.404 102.442 38.3068 100.971 39.7708 100.619C41.2373 100.267 42.7088 101.17 43.0605 102.634Z" fill="#FD4C4C"/>
<path d="M53.1542 109.947C53.5059 111.413 52.603 112.885 51.139 113.236C49.6725 113.588 48.2011 112.685 47.8494 111.221C47.4977 109.755 48.4006 108.283 49.8646 107.931C51.3311 107.58 52.8026 108.483 53.1542 109.947Z" fill="#FD4C4C"/>
<path d="M9.92231 65.4553C5.443 65.4553 1.36771 62.3951 0.275318 57.8509C-1.00163 52.5311 2.28552 47.1639 7.60533 45.887L47.5076 36.3024C50.084 35.6838 52.7476 36.1053 55.0072 37.4895C57.2668 38.8737 58.853 41.056 59.4715 43.6324C60.7485 48.9522 57.4613 54.3194 52.1415 55.5963L12.2393 65.1809C11.4636 65.368 10.688 65.4553 9.92231 65.4553ZM49.837 39.7666C49.3532 39.7666 48.8644 39.824 48.383 39.9387L8.48074 49.5233C6.87458 49.9099 5.51779 50.8975 4.65485 52.3042C3.79191 53.7108 3.53004 55.3719 3.91662 56.9755C4.3032 58.5817 5.29085 59.9385 6.69749 60.8014C8.10414 61.6644 9.76267 61.9262 11.3688 61.5396L51.2711 51.955C52.8773 51.5684 54.234 50.5808 55.097 49.1742C55.9599 47.7675 56.2218 46.1065 55.8352 44.5028C55.4487 42.8991 54.461 41.5399 53.0544 40.6769C52.0692 40.0734 50.9643 39.7641 49.837 39.7641L49.837 39.7666Z" fill="#033F70"/>
<path d="M71.8146 249.723C67.4076 249.723 63.0754 248.51 59.2221 246.151C53.7128 242.777 49.847 237.457 48.3381 231.174L7.79736 62.3996L54.8376 51.1016L95.3783 219.876C98.4934 232.845 90.4776 245.932 77.5085 249.047C75.618 249.501 73.71 249.725 71.8146 249.725L71.8146 249.723ZM12.3091 65.163L51.9744 230.301C53.2489 235.611 56.5186 240.108 61.175 242.961C65.8314 245.814 71.3208 246.682 76.6331 245.408C87.5969 242.774 94.3732 231.713 91.7395 220.749L52.0717 55.6108L12.3066 65.163L12.3091 65.163Z" fill="#013F71"/>
<path d="M69.006 186.882L68.4579 187.014C66.8507 187.4 65.8609 189.016 66.247 190.623L71.989 214.522C72.3752 216.129 73.9911 217.119 75.5982 216.733L76.1463 216.601C77.7535 216.215 78.7433 214.599 78.3572 212.992L72.6152 189.093C72.229 187.486 70.6131 186.496 69.006 186.882Z" fill="white"/>
<path d="M138.026 108.287L161.136 204.495C163.019 212.336 158.191 220.22 150.349 222.103C142.508 223.986 134.624 219.155 132.741 211.316L109.604 114.996C114.168 116.458 119.46 116.702 124.823 115.413C130.1 114.146 134.642 111.587 138.029 108.287L138.026 108.287Z" fill="#D74CFD"/>
<path d="M121.734 104.29C121.867 101.731 119.902 99.5488 117.343 99.4152C114.785 99.2816 112.602 101.247 112.469 103.806C112.335 106.364 114.301 108.547 116.859 108.68C119.418 108.814 121.6 106.848 121.734 104.29Z" fill="#D74CFD"/>
<path d="M118.046 84.6214C118.398 86.0879 117.495 87.5594 116.031 87.9111C114.564 88.2627 113.093 87.3599 112.741 85.8959C112.389 84.4294 113.292 82.9579 114.756 82.6062C116.223 82.2546 117.694 83.1574 118.046 84.6214Z" fill="#D74CFD"/>
<path d="M128.14 91.9339C128.491 93.4004 127.588 94.8719 126.124 95.2236C124.658 95.5752 123.186 94.6724 122.835 93.2084C122.483 91.7419 123.386 90.2704 124.85 89.9187C126.316 89.5671 127.788 90.4699 128.14 91.9339Z" fill="#D74CFD"/>
<path d="M84.8902 47.4454C83.082 47.4454 81.3062 46.9491 79.725 45.9814C77.4654 44.5972 75.8792 42.4149 75.2607 39.8386C73.9837 34.5187 77.2709 29.1516 82.5907 27.8746L122.493 18.29C127.813 17.013 133.18 20.3002 134.457 25.62C135.734 30.9398 132.447 36.307 127.127 37.5839L87.2246 47.1686C86.449 47.3556 85.6658 47.4479 84.8902 47.4479L84.8902 47.4454ZM124.822 21.7542C124.339 21.7542 123.85 21.8116 123.368 21.9263L83.4661 31.5109C81.8599 31.8975 80.5031 32.8851 79.6402 34.2918C78.7773 35.6984 78.5154 37.3595 78.902 38.9631C79.2886 40.5693 80.2762 41.9261 81.6828 42.789C83.0895 43.652 84.748 43.9138 86.3542 43.5272L126.256 33.9426C127.863 33.556 129.219 32.5684 130.082 31.1618C130.945 29.7551 131.207 28.0941 130.821 26.4904C130.434 24.8842 129.446 23.5275 128.04 22.6645C127.055 22.061 125.947 21.7517 124.822 21.7517L124.822 21.7542Z" fill="#033F70"/>
<path d="M146.843 231.705C135.919 231.705 125.983 224.24 123.324 213.162L82.7832 44.3869L129.823 33.0889L170.364 201.864C173.479 214.833 165.463 227.919 152.494 231.034C150.604 231.488 148.708 231.705 146.845 231.705L146.843 231.705ZM87.295 47.1503L126.963 212.289C128.237 217.599 131.507 222.095 136.163 224.949C140.82 227.802 146.309 228.67 151.621 227.395C162.585 224.761 169.362 213.7 166.728 202.737L127.06 37.5981L87.295 47.1503Z" fill="#013F71"/>
<path d="M143.989 168.864L143.441 168.996C141.834 169.382 140.844 170.998 141.23 172.605L146.972 196.504C147.358 198.111 148.974 199.101 150.581 198.715L151.129 198.583C152.736 198.197 153.726 196.581 153.34 194.974L147.598 171.075C147.212 169.468 145.596 168.478 143.989 168.864Z" fill="white"/>
<path d="M49.3807 273.997C36.1373 273.997 24.0936 264.949 20.8688 251.519L8.55565 200.253C6.72751 192.637 7.97206 184.765 12.0648 178.086C16.1575 171.407 22.6046 166.721 30.219 164.893L231.237 116.608C238.851 114.777 246.725 116.024 253.404 120.117C260.083 124.21 264.769 130.657 266.597 138.274L278.911 189.539C280.739 197.156 279.494 205.027 275.401 211.706C271.309 218.385 264.862 223.071 257.245 224.9L56.2269 273.184C53.9349 273.736 51.6379 274 49.3782 274L49.3807 273.997ZM238.13 119.529C236.125 119.529 234.107 119.765 232.107 120.247L31.0894 168.532C17.3721 171.826 8.89486 185.666 12.1895 199.381L24.5026 250.646C27.3159 262.36 37.8258 270.256 49.3782 270.256C51.351 270.256 53.3537 270.027 55.354 269.546L256.372 221.261C263.016 219.665 268.642 215.577 272.211 209.751C275.78 203.925 276.868 197.056 275.272 190.412L262.959 139.147C261.362 132.503 257.275 126.876 251.449 123.307C247.376 120.81 242.792 119.529 238.13 119.529Z" fill="#033F70"/>
</svg>
