<svg width="179" height="263" viewBox="0 0 179 263" fill="none" xmlns="http://www.w3.org/2000/svg">
<path d="M140.055 94.8932L155.183 31.444L95.1614 17.1328L80.0331 80.5821C79.1118 84.4439 76.0287 87.4078 72.1392 88.1972C39.9444 94.7358 12.8199 119.228 4.53451 153.204C-6.90422 200.119 22.0948 247.667 69.0476 258.955C116.083 270.264 163.345 241.246 174.56 194.21C182.714 160.011 169.562 125.716 143.682 105.264C140.561 102.798 139.135 98.7593 140.057 94.8911L140.055 94.8932Z" fill="white"/>
<path d="M163.668 191.725C153.91 232.648 112.828 257.912 71.9048 248.155C30.982 238.397 5.71719 197.314 15.475 156.392C17.1027 149.564 19.6028 143.172 22.8306 137.306C29.4968 142.559 36.6928 147.138 44.291 150.917C68.7707 163.09 97.3101 166.915 124.128 161.615C136.988 159.075 149.452 154.508 162.481 153.083C162.589 153.072 162.693 153.059 162.802 153.051C166.315 165.249 166.821 178.494 163.668 191.725Z" fill="#FD784F"/>
<path d="M61.1229 126.429C64.8397 124.173 66.0236 119.331 63.7674 115.614C61.5111 111.897 56.6691 110.713 52.9524 112.969C49.2356 115.226 48.0517 120.068 50.3079 123.784C52.5642 127.501 57.4062 128.685 61.1229 126.429Z" fill="#FD784F"/>
<path d="M76.7416 141.787C79.1655 139.927 79.6228 136.454 77.7628 134.03C75.9028 131.606 72.4301 131.149 70.0061 133.009C67.5822 134.869 67.125 138.342 68.9849 140.766C70.8449 143.19 74.3177 143.647 76.7416 141.787Z" fill="#FD784F"/>
<path d="M55.7816 144.197C57.164 142.596 56.9869 140.178 55.3859 138.795C53.7849 137.413 51.3664 137.59 49.984 139.191C48.6016 140.792 48.7788 143.211 50.3798 144.593C51.9807 145.975 54.3992 145.798 55.7816 144.197Z" fill="#FD784F"/>
<path d="M151.71 179.256C153.099 179.618 153.316 185.876 149.799 194.768C146.356 203.57 139.182 215.009 127.522 223.652C116.038 232.527 103.08 236.327 93.6736 237.248C84.1605 238.218 78.1964 236.31 78.2262 234.876C78.2113 231.624 100.797 229.735 120.487 214.356C140.635 199.583 148.588 178.361 151.712 179.256H151.71Z" fill="white"/>
<path d="M89.5481 263C82.5649 263 75.5838 262.168 68.6729 260.506C56.9916 257.698 46.2018 252.665 36.6036 245.55C27.3394 238.682 19.5774 230.179 13.5367 220.277C7.49394 210.372 3.48102 199.578 1.61286 188.195C-0.32338 176.401 0.13834 164.502 2.98526 152.825C7.06414 136.097 15.8092 121.028 28.2756 109.251C40.425 97.7722 55.483 89.9528 71.8219 86.6335C75.0965 85.9696 77.7094 83.4483 78.4818 80.212L93.9802 15.2095L157.106 30.2611L141.608 95.2615C140.835 98.4978 142.037 101.932 144.669 104.011C157.808 114.392 167.738 128.235 173.385 144.044C179.184 160.27 180.124 177.745 176.111 194.58C173.319 206.287 168.317 217.096 161.238 226.707C154.404 235.99 145.933 243.767 136.065 249.823C126.196 255.878 115.428 259.906 104.057 261.798C99.2357 262.6 94.3909 263 89.5481 263ZM96.342 19.0543L81.584 80.9524C80.5244 85.393 76.9413 88.8506 72.456 89.7613C39.9824 96.3573 13.9304 121.407 6.08538 153.581C0.653254 175.86 4.26616 198.957 16.2624 218.615C28.2543 238.269 47.1316 252.044 69.4218 257.402C76.137 259.017 82.9224 259.815 89.6567 259.815C105.317 259.815 120.713 255.502 134.399 247.103C153.972 235.092 167.683 216.177 173.009 193.84C180.732 161.447 168.832 127.171 142.693 106.515C139.09 103.668 137.446 98.9595 138.505 94.521L153.263 32.625L96.3463 19.0543H96.342Z" fill="#013F71"/>
<path d="M157.008 33.255C156.283 33.255 155.547 33.172 154.813 32.9954L94.7911 18.6842C92.3314 18.097 90.2462 16.5884 88.9207 14.433C87.5951 12.2797 87.1887 9.73709 87.7759 7.27742C88.3632 4.81775 89.8718 2.73257 92.0272 1.40698C94.1804 0.0814005 96.7231 -0.324998 99.1827 0.262259L159.204 14.5734C161.664 15.1607 163.749 16.6693 165.075 18.8247C166.4 20.9779 166.807 23.5206 166.219 25.9803C165.183 30.323 161.292 33.2529 157.008 33.2529V33.255ZM155.553 29.8911C158.919 30.6932 162.313 28.608 163.115 25.2419C163.504 23.61 163.234 21.9269 162.355 20.4971C161.477 19.0694 160.096 18.0693 158.464 17.6799L98.4423 3.36876C96.8103 2.97938 95.1273 3.24961 93.6996 4.12836C92.2718 5.00712 91.2718 6.38803 90.8824 8.02C90.4931 9.64985 90.7633 11.335 91.642 12.7627C92.5208 14.1905 93.9017 15.1905 95.5337 15.5799L155.555 29.8911H155.553Z" fill="#013F71"/>
</svg>
