<svg width="199" height="229" viewBox="0 0 199 229" fill="none" xmlns="http://www.w3.org/2000/svg">
<path d="M20.7618 75.4502L1.44736 155.858C-0.126395 162.411 3.90908 169 10.4626 170.574C17.0161 172.147 23.605 168.11 25.1787 161.558L44.5161 81.0573C40.7016 82.2788 36.2784 82.4831 31.7968 81.4055C27.3862 80.3466 23.5904 78.2079 20.7597 75.4502L20.7618 75.4502Z" fill="#FD4C4C"/>
<path d="M38.5443 76.0744C36.4031 76.0744 34.6673 74.3386 34.6673 72.1974C34.6673 70.0561 36.4031 68.3203 38.5443 68.3203C40.6855 68.3203 42.4214 70.0561 42.4214 72.1974C42.4214 74.3386 40.6855 76.0744 38.5443 76.0744Z" fill="#FD4C4C"/>
<path d="M38.6025 55.7497C38.3086 56.9753 39.0632 58.2051 40.2868 58.4991C41.5124 58.793 42.7422 58.0384 43.0361 56.8148C43.33 55.5892 42.5754 54.3593 41.3519 54.0654C40.1262 53.7715 38.8964 54.5261 38.6025 55.7497Z" fill="#FD4C4C"/>
<path d="M30.2837 59.7614C29.9898 60.987 30.7443 62.2169 31.9679 62.5108C33.1935 62.8047 34.4234 62.0501 34.7173 60.8265C35.0112 59.6009 34.2566 58.3711 33.033 58.0772C31.8074 57.7833 30.5776 58.5378 30.2837 59.7614Z" fill="#FD4C4C"/>
<path d="M65.1565 24.5973C68.9002 24.5973 72.3061 22.0397 73.2191 18.2419C74.2864 13.7958 71.539 9.31005 67.0929 8.24282L33.7439 0.232306C31.5907 -0.284636 29.3646 0.067637 27.4761 1.2245C25.5875 2.38137 24.2618 4.20526 23.7449 6.35848C22.6776 10.8046 25.425 15.2903 29.8711 16.3575L63.2201 24.3681C63.8683 24.5244 64.5166 24.5973 65.1565 24.5973ZM31.8075 3.12969C32.2056 3.12969 32.61 3.17554 33.0144 3.27351L66.3634 11.284C69.1315 11.949 70.8449 14.7442 70.18 17.5123C69.515 20.2826 66.7198 21.9918 63.9517 21.3289L30.6027 13.3184C27.8346 12.6535 26.1212 9.85826 26.7861 7.09013C27.3551 4.72428 29.475 3.13176 31.8075 3.13176L31.8075 3.12969Z" fill="#033F70"/>
<path d="M13.3933 178.598C22.5231 178.598 30.8276 172.359 33.0496 163.1L66.9321 22.0441L27.6175 12.6016L-6.26512 153.658C-7.5262 158.909 -6.66739 164.336 -3.84714 168.941C-1.0269 173.545 3.41918 176.776 8.66989 178.037C10.2499 178.417 11.8341 178.598 13.3912 178.598L13.3933 178.598ZM63.1614 24.3536L30.0083 162.371C28.1282 170.198 21.1078 175.469 13.3912 175.471C12.0738 175.471 10.7356 175.317 9.39944 174.996C4.96167 173.931 1.20346 171.198 -1.18113 167.307C-3.56574 163.415 -4.29114 158.825 -3.22599 154.387L29.9271 16.3702L63.1614 24.3536Z" fill="#013F71"/>
<path d="M15.789 126.098L16.2471 126.208C17.5903 126.53 18.4176 127.881 18.0949 129.224L13.2959 149.198C12.9732 150.541 11.6226 151.368 10.2794 151.046L9.82137 150.936C8.47815 150.613 7.65088 149.262 7.9736 147.919L12.7726 127.945C13.0953 126.602 14.4458 125.775 15.789 126.098Z" fill="white"/>
<path d="M146.104 105.558L126.789 185.965C125.215 192.518 129.251 199.107 135.804 200.681C142.358 202.255 148.947 198.217 150.521 191.666L169.858 111.165C166.043 112.386 161.62 112.591 157.139 111.513C152.728 110.454 148.932 108.315 146.102 105.558L146.104 105.558Z" fill="#FD4C4C"/>
<path d="M160.266 104.035C159.147 102.209 159.721 99.8225 161.547 98.704C163.373 97.5855 165.76 98.159 166.878 99.9849C167.997 101.811 167.423 104.198 165.597 105.316C163.771 106.435 161.384 105.861 160.266 104.035Z" fill="#FD4C4C"/>
<path d="M162.803 85.778C162.509 87.0037 163.263 88.2335 164.487 88.5274C165.713 88.8213 166.942 88.0667 167.236 86.8432C167.53 85.6175 166.776 84.3877 165.552 84.0938C164.326 83.7999 163.097 84.5544 162.803 85.778Z" fill="#FD4C4C"/>
<path d="M154.367 91.8893C154.073 93.115 154.827 94.3448 156.051 94.6387C157.277 94.9326 158.506 94.178 158.8 92.9545C159.094 91.7288 158.34 90.499 157.116 90.2051C155.89 89.9112 154.661 90.6657 154.367 91.8893Z" fill="#FD4C4C"/>
<path d="M190.498 54.7057C194.242 54.7057 197.648 52.1481 198.561 48.3503C199.628 43.9042 196.881 39.4184 192.435 38.3512L159.086 30.3407C156.933 29.8238 154.706 30.176 152.818 31.3329C150.929 32.4898 149.604 34.3137 149.087 36.4669C148.019 40.913 150.767 45.3987 155.213 46.466L188.562 54.4765C189.21 54.6328 189.858 54.7057 190.498 54.7057ZM157.139 33.236C157.543 33.236 157.952 33.2839 158.354 33.3798L191.703 41.3903C193.045 41.7134 194.179 42.5389 194.901 43.7145C195.622 44.8901 195.841 46.2783 195.518 47.6186C195.195 48.961 194.369 50.095 193.193 50.8162C192.018 51.5374 190.632 51.7563 189.289 51.4332L155.94 43.4227C154.598 43.0996 153.464 42.2741 152.743 41.0985C152.022 39.9229 151.803 38.5346 152.126 37.1943C152.449 35.8541 153.274 34.718 154.45 33.9968C155.273 33.4924 156.197 33.2339 157.139 33.2339L157.139 33.236Z" fill="#033F70"/>
<path d="M138.771 208.71C142.454 208.71 146.075 207.697 149.295 205.725C153.9 202.905 157.131 198.458 158.392 193.208L192.274 52.1515L152.96 42.709L119.077 183.765C116.474 194.604 123.173 205.541 134.012 208.145C135.592 208.524 137.187 208.712 138.771 208.712L138.771 208.71ZM188.504 54.4611L155.353 192.478C154.288 196.916 151.555 200.674 147.663 203.059C143.772 205.443 139.184 206.169 134.744 205.104C125.581 202.903 119.917 193.658 122.118 184.495L155.271 46.4776L188.506 54.4611L188.504 54.4611Z" fill="#013F71"/>
<path d="M141.118 156.189L141.576 156.299C142.919 156.622 143.747 157.973 143.424 159.316L138.625 179.29C138.302 180.633 136.952 181.46 135.609 181.137L135.15 181.027C133.807 180.705 132.98 179.354 133.303 178.011L138.102 158.037C138.424 156.694 139.775 155.867 141.118 156.189Z" fill="white"/>
<path d="M83.4332 90.5029L64.1187 170.91C62.545 177.464 66.5805 184.053 73.134 185.626C79.6874 187.2 86.2764 183.163 87.8501 176.611L107.188 96.1101C103.373 97.3316 98.9498 97.5359 94.4682 96.4582C90.0576 95.3993 86.2618 93.2606 83.4311 90.5029L83.4332 90.5029Z" fill="#D74CFD"/>
<path d="M97.0498 87.1616C96.9381 85.0232 98.581 83.1992 100.719 83.0876C102.858 82.9759 104.682 84.6188 104.793 86.7571C104.905 88.8954 103.262 90.7195 101.124 90.8311C98.9855 90.9428 97.1615 89.2999 97.0498 87.1616Z" fill="#D74CFD"/>
<path d="M100.132 70.7233C99.8384 71.949 100.593 73.1788 101.817 73.4727C103.042 73.7666 104.272 73.012 104.566 71.7885C104.86 70.5628 104.105 69.333 102.882 69.0391C101.656 68.7452 100.426 69.4997 100.132 70.7233Z" fill="#D74CFD"/>
<path d="M91.6963 76.8356C91.4024 78.0612 92.1569 79.2911 93.3805 79.585C94.6062 79.8789 95.836 79.1243 96.1299 77.9007C96.4238 76.6751 95.6692 75.4453 94.4457 75.1514C93.22 74.8575 91.9902 75.612 91.6963 76.8356Z" fill="#D74CFD"/>
<path d="M127.842 39.6529C129.354 39.6529 130.838 39.2381 132.159 38.4293C134.048 37.2725 135.374 35.4486 135.891 33.2953C136.958 28.8492 134.21 24.3635 129.764 23.2963L96.4153 15.2858C91.9692 14.2185 87.4835 16.9658 86.4163 21.4119C85.3491 25.8581 88.0963 30.3438 92.5425 31.411L125.891 39.4215C126.54 39.5779 127.194 39.655 127.842 39.655L127.842 39.6529ZM94.4685 18.1811C94.8729 18.1811 95.2814 18.229 95.6837 18.3249L129.033 26.3354C130.375 26.6585 131.509 27.4839 132.23 28.6596C132.951 29.8352 133.17 31.2234 132.847 32.5637C132.524 33.9061 131.699 35.04 130.523 35.7612C129.347 36.4825 127.961 36.7013 126.619 36.3782L93.2699 28.3677C91.9275 28.0446 90.7936 27.2192 90.0724 26.0436C89.3512 24.868 89.1323 23.4797 89.4554 22.1394C89.7785 20.797 90.6039 19.6631 91.7795 18.9419C92.6029 18.4375 93.5284 18.179 94.4685 18.179L94.4685 18.1811Z" fill="#033F70"/>
<path d="M76.0646 193.651C85.1945 193.651 93.4989 187.412 95.7209 178.153L129.604 37.0968L90.2888 27.6543L56.4062 168.711C53.8028 179.55 60.5022 190.487 71.3413 193.09C72.9213 193.47 74.5054 193.651 76.0625 193.651L76.0646 193.651ZM125.833 39.4064L92.6797 177.424C91.6146 181.861 88.8819 185.62 84.9902 188.004C81.0985 190.389 76.5107 191.114 72.0708 190.049C62.9076 187.848 57.2442 178.603 59.4454 169.44L92.5984 31.423L125.833 39.4064Z" fill="#013F71"/>
<path d="M78.4502 141.131L78.9082 141.241C80.2514 141.564 81.0787 142.914 80.756 144.257L75.957 164.231C75.6343 165.574 74.2838 166.402 72.9406 166.079L72.4825 165.969C71.1393 165.646 70.312 164.296 70.6347 162.952L75.4337 142.979C75.7564 141.635 77.1069 140.808 78.4502 141.131Z" fill="white"/>
<path d="M157.52 228.998C168.588 228.998 178.654 221.436 181.349 210.211L191.64 167.365C193.168 160.999 192.128 154.421 188.708 148.839C185.287 143.257 179.899 139.34 173.535 137.812L5.53094 97.4573C-0.832855 95.9273 -7.41347 96.9695 -12.9956 100.39C-18.5777 103.811 -22.4944 109.199 -24.0223 115.565L-34.3132 158.41C-35.8411 164.776 -34.8009 171.355 -31.3804 176.937C-27.9598 182.519 -22.5715 186.436 -16.2056 187.964L151.798 228.318C153.714 228.779 155.634 229 157.522 229L157.52 228.998ZM-0.230484 99.8981C1.44542 99.8981 3.13176 100.096 4.80348 100.498L172.807 140.853C184.272 143.607 191.357 155.173 188.603 166.636L178.312 209.481C175.961 219.272 167.177 225.871 157.522 225.871C155.873 225.871 154.2 225.68 152.528 225.277L-15.4761 184.923C-21.029 183.588 -25.7315 180.172 -28.7144 175.303C-31.6972 170.434 -32.606 164.693 -31.272 159.14L-20.9811 116.294C-19.6471 110.741 -16.2306 106.039 -11.3614 103.056C-7.95749 100.97 -4.1263 99.8981 -0.230484 99.8981Z" fill="#033F70"/>
</svg>
