<svg width="223" height="348" viewBox="0 0 223 348" fill="none" xmlns="http://www.w3.org/2000/svg">
<path d="M94.763 178.354C95.0486 178.272 95.2742 178.031 95.3176 177.729C95.3756 177.33 95.0905 176.974 94.6837 176.935C78.3607 175.334 55.5221 171.853 45.7047 160.151C36.9662 149.736 33.9376 124.062 33.2168 116.441C33.1782 116.043 32.8163 115.763 32.4081 115.817C32.0011 115.868 31.6972 116.235 31.7353 116.631C32.4657 124.352 35.5463 150.378 44.5383 161.098C54.6877 173.195 77.8997 176.755 94.4776 178.38C94.5763 178.387 94.6729 178.379 94.763 178.354Z" fill="black"/>
<path d="M194.986 294.602C191.062 296.476 186.905 298.542 185.237 302.78C184.4 304.904 184.644 307.301 186.172 308.916C188.54 311.422 192.186 310.548 195.269 309.502C199.941 307.916 204.235 306.352 208.446 303.767C211.03 302.181 212.119 300.035 210.309 293.791C209.659 291.543 207.213 290.323 204.876 291.072C201.477 292.16 196.906 293.684 194.986 294.602Z" fill="#4F89FD"/>
<path d="M194.039 310.634C194.524 310.495 195.006 310.342 195.48 310.18C200.041 308.632 204.496 307.02 208.819 304.366C211.611 302.652 212.954 300.246 211.019 293.561C210.652 292.294 209.79 291.264 208.591 290.662C207.388 290.058 205.989 289.959 204.673 290.383C201.192 291.498 196.632 293.023 194.684 293.955C190.977 295.726 186.363 297.931 184.545 302.55C183.562 305.047 183.973 307.677 185.614 309.415C187.849 311.781 191.016 311.5 194.039 310.634ZM205.194 291.705C206.102 291.445 207.05 291.527 207.872 291.94C208.728 292.368 209.342 293.103 209.603 294.005C211.473 300.462 210.018 301.976 208.073 303.168C203.888 305.737 199.524 307.314 195.048 308.832C191.92 309.895 188.75 310.578 186.714 308.423C185.437 307.072 185.13 304.996 185.914 303.008C187.512 298.945 191.641 296.972 195.282 295.232C197.152 294.339 201.64 292.839 205.074 291.739C205.117 291.729 205.155 291.716 205.194 291.705Z" fill="black"/>
<path d="M172.634 301.998L286.764 260.791C307.718 253.226 319.107 230.731 312.206 210.548L257.447 50.4267C250.545 30.2432 227.963 20.015 207.01 27.5797L92.88 68.7871C71.9267 76.3518 60.537 98.8467 67.4388 119.03L122.198 279.151C129.101 299.334 151.683 309.563 172.634 301.998Z" fill="#FDEC4F"/>
<path d="M170.09 303.626C171.025 303.359 171.956 303.058 172.885 302.723L287.013 261.516C308.35 253.812 319.989 230.826 312.961 210.273L258.204 50.1542C254.799 40.199 247.573 32.2914 237.857 27.8898C228.141 23.4883 217.101 23.1185 206.763 26.8516L92.6351 68.0583C71.2986 75.7626 59.6597 98.7503 66.6868 119.302L121.444 279.42C128.167 299.078 149.572 309.497 170.09 303.626ZM172.386 301.266C151.883 308.67 129.709 298.625 122.956 278.875L68.1981 118.757C61.4445 99.0079 72.6287 76.9185 93.131 69.5162L207.259 28.3095C217.191 24.7224 227.802 25.0779 237.138 29.3069C246.474 33.5358 253.417 41.1341 256.689 50.7001L311.447 210.819C318.2 230.568 307.016 252.657 286.514 260.059L172.386 301.266Z" fill="black"/>
<path d="M144.712 294.212C151.038 297.641 161.158 299.103 175.337 295.338C179.538 294.221 183.809 292.444 228.958 276.368C274.106 260.292 294.03 251.752 298.464 248.327C303.076 244.762 306.711 241.828 309.973 233.238C311.545 229.099 312.592 225.929 311.638 213.749C319.398 233.961 307.955 255.178 287.314 262.528L174.883 302.561C154.242 309.91 131.965 299.882 125.128 280.16L121.617 270.038C128.853 283.719 137.867 290.5 144.712 294.212Z" fill="black"/>
<path d="M199.285 82.1137C202.524 91.6314 213.212 96.4187 223.157 92.8082C233.104 89.1972 238.541 78.5547 235.303 69.0387C232.064 59.521 221.375 54.7337 211.43 58.3442C201.485 61.9547 196.046 72.596 199.285 82.1137Z" fill="#8E42FF"/>
<path d="M222.036 93.9206C222.488 93.7902 222.938 93.6447 223.389 93.4814C233.706 89.7355 239.368 78.6559 236.008 68.7819C232.648 58.9095 221.518 53.9265 211.202 57.6703C200.884 61.4162 195.222 72.4958 198.583 82.3698C201.796 91.8109 212.116 96.7832 222.036 93.9206ZM212.91 58.6101C222.086 55.9624 231.628 60.5598 234.6 69.2932C237.707 78.4241 232.471 88.6696 222.929 92.1343C213.386 95.5973 203.095 90.9889 199.989 81.8574C196.881 72.7265 202.117 62.481 211.66 59.0163C212.075 58.8649 212.493 58.7303 212.91 58.6101Z" fill="black"/>
<path d="M215.865 129.332C219.104 138.85 229.792 143.637 239.737 140.027C249.684 136.416 255.121 125.773 251.883 116.257C248.644 106.74 237.955 101.952 228.01 105.563C218.065 109.173 212.627 119.816 215.865 129.332Z" fill="#8E42FF"/>
<path d="M238.616 141.141C239.068 141.011 239.518 140.865 239.967 140.701C250.284 136.955 255.946 125.875 252.586 116.001C250.958 111.219 247.482 107.429 242.797 105.33C238.112 103.231 232.781 103.074 227.781 104.889C222.783 106.704 218.718 110.272 216.334 114.937C213.95 119.602 213.534 124.804 215.162 129.589C218.374 139.032 228.696 144.004 238.616 141.141ZM229.505 105.826C233.752 104.601 238.189 104.881 242.128 106.645C246.461 108.585 249.676 112.09 251.181 116.513C254.288 125.643 249.053 135.89 239.51 139.354C229.969 142.819 219.678 138.209 216.57 129.078C215.065 124.654 215.45 119.843 217.655 115.529C219.859 111.215 223.619 107.914 228.241 106.236C228.659 106.086 229.08 105.949 229.505 105.826Z" fill="black"/>
<path d="M96.208 118.305C99.4467 127.823 110.135 132.61 120.08 129C130.027 125.389 135.464 114.746 132.225 105.23C128.987 95.7124 118.298 90.9251 108.353 94.5356C98.406 98.145 92.9692 108.787 96.208 118.305Z" fill="#8E42FF"/>
<path d="M118.959 130.113C119.411 129.983 119.861 129.837 120.311 129.673C130.631 125.926 136.291 114.847 132.93 104.973C131.303 100.19 127.826 96.4007 123.142 94.3016C118.457 92.2026 113.126 92.046 108.124 93.8614C103.126 95.6759 99.0606 99.2444 96.6768 103.909C94.2931 108.574 93.8776 113.778 95.505 118.561C98.7172 128.004 109.039 132.976 118.959 130.113ZM109.846 94.7974C114.094 93.5715 118.53 93.852 122.469 95.6157C126.802 97.5561 130.017 101.061 131.522 105.484C134.63 114.615 129.394 124.861 119.851 128.325C110.305 131.791 100.019 127.18 96.9112 118.049C95.4062 113.625 95.7908 108.814 97.9961 104.5C100.2 100.186 103.96 96.8855 108.582 95.2074C109.002 95.0567 109.423 94.9195 109.846 94.7974Z" fill="black"/>
<path d="M145.946 259.967C149.185 269.485 159.873 274.272 169.818 270.662C179.765 267.051 185.202 256.408 181.963 246.892C178.724 237.375 168.036 232.587 158.091 236.198C148.146 239.808 142.707 250.451 145.946 259.967Z" fill="#8E42FF"/>
<path d="M168.682 271.78C169.141 271.648 169.596 271.499 170.05 271.335C180.367 267.589 186.029 256.51 182.669 246.636C179.309 236.763 168.185 231.777 157.862 235.524C152.864 237.338 148.799 240.907 146.415 245.572C144.031 250.236 143.616 255.441 145.243 260.224C146.871 265.006 150.347 268.796 155.032 270.895C159.292 272.802 164.09 273.105 168.682 271.78ZM159.585 236.458C163.832 235.232 168.269 235.512 172.208 237.276C176.541 239.217 179.756 242.722 181.261 247.145C184.369 256.276 179.133 266.521 169.591 269.986C160.054 273.451 149.758 268.84 146.651 259.709C145.146 255.286 145.53 250.475 147.736 246.16C149.939 241.846 153.699 238.546 158.322 236.868C158.739 236.718 159.162 236.58 159.585 236.458Z" fill="black"/>
<path d="M112.788 165.524C116.026 175.042 126.715 179.829 136.66 176.218C146.607 172.607 152.043 161.965 148.805 152.449C145.566 142.931 134.878 138.144 124.933 141.754C114.986 145.365 109.549 156.008 112.788 165.524Z" fill="#8E42FF"/>
<path d="M135.522 177.339C135.981 177.206 136.435 177.058 136.89 176.893C141.888 175.079 145.953 171.51 148.337 166.846C150.721 162.181 151.136 156.978 149.509 152.194C147.881 147.411 144.405 143.622 139.72 141.522C135.035 139.423 129.7 139.268 124.702 141.082C114.385 144.828 108.723 155.908 112.083 165.782C113.711 170.565 117.187 174.354 121.872 176.453C126.132 178.36 130.93 178.664 135.522 177.339ZM126.425 142.016C130.672 140.791 135.109 141.069 139.048 142.834C143.381 144.775 146.596 148.28 148.101 152.703C149.607 157.126 149.222 161.937 147.017 166.252C144.813 170.566 141.053 173.866 136.431 175.544C131.808 177.224 126.877 177.078 122.544 175.136C118.211 173.195 114.996 169.69 113.491 165.267C110.383 156.136 115.619 145.891 125.162 142.426C125.581 142.275 126.002 142.138 126.425 142.016Z" fill="black"/>
<path d="M127.763 213.309C131.001 222.827 141.69 227.614 151.635 224.003C161.582 220.392 167.018 209.75 163.78 200.234C160.541 190.716 149.853 185.929 139.908 189.539C129.961 193.149 124.524 203.791 127.763 213.309Z" fill="#8E42FF"/>
<path d="M150.513 225.116C150.965 224.986 151.415 224.84 151.866 224.677C162.183 220.931 167.845 209.851 164.485 199.977C161.125 190.105 150.003 185.118 139.679 188.866C129.361 192.612 123.699 203.691 127.06 213.565C130.272 223.009 140.593 227.979 150.513 225.116ZM141.387 189.806C150.563 187.158 160.105 191.755 163.077 200.489C166.184 209.62 160.948 219.865 151.406 223.33C141.873 226.792 131.573 222.184 128.466 213.053C125.358 203.922 130.594 193.676 140.137 190.212C140.553 190.062 140.969 189.926 141.387 189.806Z" fill="black"/>
<path d="M58.0411 94.7457C58.2024 96.9949 57.4693 100.103 54.9786 102.088C53.4064 103.341 51.5025 104.001 49.546 104.333C48.2553 104.553 47.3661 105.768 47.5806 107.006C47.9984 109.426 47.5731 111.861 46.1299 114.156C42.483 119.953 34.0662 126.321 26.8556 125.4C22.8158 124.884 19.2344 122.228 17.6938 118.6C17.0558 117.1 16.7445 115.453 15.9301 114.042C13.8684 110.476 9.06611 109.161 7.06481 105.492C6.79462 104.996 6.62657 104.44 6.64331 103.868C6.73296 100.992 10.7885 100.479 13.048 101.838C15.1808 103.122 16.6635 105.346 19.016 106.225C16.8702 102.921 15.2161 99.3031 14.1186 95.5092C13.7176 94.1257 13.3906 92.6355 14.0747 91.2321C14.424 90.5162 15.0627 89.9295 15.8466 89.742C17.2146 89.4141 18.2001 90.38 19.0228 91.2707C21.1033 93.5195 23.1817 95.7671 25.2622 98.0158C23.7493 94.6762 22.8031 91.074 22.4797 87.3899C22.3937 86.409 22.5816 85.3927 23.144 84.5474C24.7725 82.0998 27.7691 83.1747 29.0186 85.0388C30.0292 86.5483 30.275 88.4314 30.8319 90.164C32.1929 94.3927 35.614 97.8641 39.8959 99.3548C38.8172 95.0604 39.1562 92.1529 41.1508 89.1798C42.1616 87.6719 43.82 86.0663 46.2809 85.2667C49.3191 84.2798 52.3122 84.845 54.4564 87.0318C56.5775 89.1991 57.8229 91.7042 58.0411 94.7457ZM51.3816 92.0348C50.5025 90.9477 49.654 90.2788 48.4241 90.4048C46.7326 90.5766 45.3716 92.0983 45.1931 93.7446C45.0147 95.3909 45.5103 97.2718 47.2479 98.5143C49.2955 99.9794 51.707 98.3747 52.5026 96.9672C53.516 95.1762 52.6254 93.5764 51.3816 92.0348Z" fill="#4F89FD"/>
<path d="M32.3552 125.588C38.0874 123.936 43.7803 119.247 46.7569 114.514C48.2555 112.132 48.7788 109.557 48.3122 106.858C48.2403 106.448 48.3426 106.032 48.5993 105.686C48.8514 105.343 49.2224 105.116 49.6427 105.044C52.0124 104.64 53.9072 103.853 55.4331 102.638C58.1657 100.46 58.9531 97.0915 58.78 94.6643C58.5584 91.5537 57.3231 88.8922 55.0038 86.5272C52.7185 84.196 49.4616 83.4888 46.0794 84.5906C43.2182 85.5195 41.4874 87.3988 40.5407 88.8116C38.6689 91.6014 38.1536 94.3821 38.8689 98.1505C35.3931 96.5302 32.7019 93.5368 31.5409 89.9247C31.3859 89.4394 31.2507 88.9257 31.1202 88.4299C30.7804 87.135 30.4275 85.7968 29.6475 84.6305C28.7255 83.2523 27.0825 82.3607 25.5593 82.4126C24.3383 82.4541 23.2658 83.0821 22.5337 84.1821C21.9113 85.1179 21.6389 86.2632 21.7472 87.4907C21.9636 89.9455 22.4438 92.347 23.181 94.6692L19.5848 90.7825C18.8308 89.9678 17.5717 88.6048 15.7049 89.052C14.736 89.2824 13.8833 89.9952 13.4128 90.957C12.6074 92.6063 12.9888 94.292 13.4087 95.7416C14.2333 98.5895 15.3602 101.329 16.7694 103.92C16.5146 103.7 16.2612 103.472 16.0052 103.241C15.2186 102.531 14.4043 101.798 13.4565 101.229C11.7664 100.212 9.3492 100.126 7.70999 101.023C6.58355 101.639 5.9426 102.657 5.90315 103.889C5.88257 104.536 6.05604 105.218 6.40591 105.86C7.49683 107.861 9.32941 109.182 11.1021 110.462C12.7673 111.662 14.3392 112.797 15.2809 114.426C15.7417 115.223 16.032 116.11 16.3386 117.047C16.5396 117.66 16.7464 118.296 17.009 118.909C18.6399 122.745 22.4539 125.577 26.7264 126.122C28.5414 126.349 30.4507 126.135 32.3552 125.588ZM49.0982 103.708C48.423 103.903 47.8342 104.311 47.4112 104.883C46.913 105.557 46.7147 106.365 46.8522 107.16C47.2578 109.505 46.8043 111.741 45.5046 113.807C40.7389 121.382 32.179 125.356 26.9833 124.693C23.1984 124.21 19.8188 121.702 18.3759 118.304C18.1374 117.742 17.9469 117.162 17.746 116.549C17.4309 115.587 17.1053 114.591 16.575 113.673C15.4886 111.795 13.7226 110.521 12.0166 109.288C10.2928 108.043 8.66311 106.867 7.71846 105.137C7.48367 104.707 7.36745 104.267 7.38031 103.862C7.40219 103.157 7.74168 102.62 8.38825 102.266C9.54338 101.635 11.4087 101.72 12.6386 102.46C13.4729 102.963 14.2025 103.621 14.9764 104.316C16.0843 105.313 17.2301 106.344 18.7251 106.904C19.0204 107.014 19.3648 106.922 19.575 106.676C19.787 106.431 19.8154 106.086 19.6467 105.828C17.5337 102.574 15.9132 99.0294 14.8321 95.2914C14.4677 94.0349 14.1617 92.7094 14.7424 91.5223C15.0115 90.9723 15.4762 90.5682 15.9944 90.4468C16.9371 90.2205 17.7021 90.945 18.4683 91.7719L24.7081 98.5175C24.9472 98.7746 25.3497 98.8155 25.6582 98.6133C25.9667 98.4111 26.0881 98.0258 25.9439 97.7082C24.4541 94.4227 23.5378 90.9214 23.2168 87.3026C23.1623 86.6733 23.2113 85.751 23.7602 84.9234C24.2183 84.2353 24.816 83.8749 25.5387 83.8497C26.5657 83.8153 27.7405 84.4757 28.396 85.4565C29.0512 86.4356 29.3591 87.6073 29.685 88.8487C29.8202 89.3623 29.9604 89.8954 30.1276 90.4138C31.5603 94.8698 35.109 98.4686 39.6203 100.038C39.8759 100.128 40.17 100.066 40.3798 99.882C40.5892 99.6962 40.68 99.4173 40.6148 99.1589C39.5768 95.0285 39.8993 92.3364 41.7631 89.5577C42.5742 88.3495 44.0509 86.7422 46.4854 85.9518C49.3161 85.0317 52.0199 85.6141 53.9126 87.5441C55.9979 89.6714 57.1084 92.0552 57.3066 94.8308C57.4545 96.8888 56.8016 99.7335 54.5303 101.544C53.218 102.589 51.5591 103.271 49.4564 103.628C49.3328 103.648 49.2147 103.675 49.0982 103.708ZM50.1196 99.6488C51.5155 99.2466 52.6372 98.193 53.1469 97.2914C54.3952 95.0839 53.2541 93.1622 51.971 91.5743C51.1394 90.5448 50.0636 89.5177 48.3809 89.6888C46.4032 89.8908 44.6805 91.6544 44.4592 93.702C44.2209 95.9008 45.0714 97.8696 46.7935 99.101C47.7176 99.7604 48.7984 99.9684 49.9225 99.7003C49.9892 99.6846 50.0555 99.6673 50.1196 99.6488ZM50.795 92.4953C52.2392 94.2844 52.5394 95.4478 51.8616 96.6454C51.506 97.2743 50.6622 98.063 49.6368 98.3062C48.938 98.4726 48.2883 98.3461 47.705 97.9301C45.8403 96.5969 45.8414 94.5885 45.9291 93.7874C46.0771 92.4217 47.1915 91.2499 48.4692 91.1189C49.2873 91.0348 49.9175 91.4076 50.795 92.4953Z" fill="black"/>
<path d="M51.3836 92.921C52.8591 91.7787 53.8633 90.8682 55.249 89.624L51.3836 92.921Z" fill="#4F89FD"/>
<path d="M51.5574 93.6133C51.6499 93.5867 51.7393 93.542 51.8204 93.4788C53.2514 92.3692 54.2625 91.4581 55.543 90.3051L55.7376 90.1296C56.0419 89.8549 56.0722 89.4025 55.8033 89.1192C55.5344 88.8359 55.0701 88.8289 54.7654 89.1019L54.5709 89.2774C53.2655 90.4532 52.3216 91.3033 50.9357 92.3774C50.6108 92.6285 50.5456 93.0789 50.791 93.3828C50.9737 93.6128 51.2784 93.6935 51.5574 93.6133Z" fill="black"/>
<path d="M196.845 105.651C197.125 105.57 197.35 105.334 197.395 105.035C197.455 104.639 197.177 104.282 196.772 104.24L183.837 102.886L192.887 92.7706C193.161 92.4642 193.138 92.0095 192.835 91.7541C192.533 91.4988 192.066 91.5394 191.79 91.8462L181.812 102.999C181.63 103.204 181.573 103.485 181.664 103.732C181.756 103.98 181.983 104.152 182.251 104.18L196.554 105.678C196.656 105.685 196.754 105.677 196.845 105.651Z" fill="black"/>
<path d="M229.409 78.5585C230.911 78.129 231.881 76.6408 231.598 75.1428C230.246 67.9894 223.871 62.2674 216.438 61.5398C214.816 61.3809 213.314 62.5441 213.086 64.1371C212.858 65.7301 213.989 67.1508 215.612 67.3097C220.507 67.7895 224.871 71.7039 225.761 76.4162C226.056 77.9774 227.603 78.959 229.215 78.6089C229.279 78.5921 229.345 78.577 229.409 78.5585Z" fill="#D1C5FF"/>
<path d="M126.567 114.669C128.069 114.239 129.04 112.751 128.756 111.253C127.404 104.1 121.029 98.3794 113.596 97.6502C111.973 97.4913 110.472 98.6545 110.243 100.246C110.015 101.839 111.145 103.26 112.768 103.419C117.663 103.899 122.027 107.815 122.916 112.525C123.212 114.087 124.758 115.068 126.37 114.716C126.438 114.704 126.502 114.687 126.567 114.669Z" fill="#D1C5FF"/>
<path d="M143.109 161.784C144.611 161.355 145.581 159.866 145.298 158.368C143.947 151.215 137.571 145.495 130.139 144.765C128.516 144.606 127.014 145.77 126.786 147.363C126.558 148.956 127.689 150.376 129.312 150.535C134.207 151.015 138.571 154.93 139.461 159.642C139.756 161.203 141.301 162.185 142.915 161.834C142.98 161.819 143.045 161.803 143.109 161.784Z" fill="#D1C5FF"/>
<path d="M159.654 208.901C161.156 208.472 162.127 206.983 161.843 205.486C160.491 198.332 154.116 192.612 146.683 191.883C145.06 191.724 143.559 192.887 143.33 194.478C143.102 196.071 144.232 197.492 145.856 197.651C150.751 198.131 155.115 202.045 156.005 206.757C156.3 208.319 157.847 209.3 159.459 208.95C159.525 208.937 159.589 208.92 159.654 208.901Z" fill="#D1C5FF"/>
<path d="M176.196 256.019C177.698 255.59 178.668 254.101 178.386 252.603C177.034 245.45 170.658 239.73 163.226 239C161.602 238.84 160.102 240.005 159.873 241.598C159.645 243.191 160.775 244.612 162.399 244.77C167.295 245.25 171.658 249.165 172.548 253.877C172.843 255.438 174.39 256.42 176.002 256.07C176.067 256.054 176.132 256.038 176.196 256.019Z" fill="#D1C5FF"/>
<path d="M203.007 107.431C204.177 110.86 208.022 112.591 211.596 111.297C215.169 110.002 217.118 106.173 215.95 102.742C214.78 99.3129 210.935 97.5821 207.361 98.8757C203.788 100.171 201.837 104.001 203.007 107.431Z" fill="#FF5233"/>
<path d="M130.685 132.823C131.855 136.252 135.7 137.982 139.274 136.689C142.847 135.394 144.797 131.565 143.628 128.133C142.458 124.704 138.613 122.974 135.039 124.267C131.466 125.564 129.515 129.394 130.685 132.823Z" fill="#FF5233"/>
<path d="M173.977 132.756C175.386 132.353 176.749 131.535 177.982 130.321C180.954 127.396 182.287 121.121 182.288 116.201C182.289 115.805 181.959 115.497 181.553 115.512C181.149 115.528 180.817 115.861 180.816 116.257C180.815 120.726 179.607 126.721 176.957 129.33C174.721 131.53 172.116 132.166 169.619 131.121C167.216 130.116 164.746 126.397 162.647 122.895C162.446 122.558 161.998 122.456 161.643 122.667C161.291 122.878 161.168 123.321 161.37 123.655C163.695 127.536 166.226 131.286 168.994 132.445C170.633 133.132 172.337 133.224 173.977 132.756Z" fill="black"/>
<path d="M151.189 113.868C150.144 110.793 147.991 109.859 145.974 110.591C143.959 111.322 142.845 113.447 143.889 116.52C144.935 119.592 147.087 120.529 149.104 119.796C151.12 119.063 152.234 116.94 151.189 113.868Z" fill="black"/>
<path d="M220.589 252.519C220.606 252.514 220.624 252.509 220.641 252.503C221.041 252.361 221.257 251.94 221.123 251.562L183.503 144.534C183.371 144.154 182.941 143.962 182.538 144.102C182.138 144.241 181.922 144.663 182.055 145.043L219.674 252.071C219.804 252.432 220.204 252.626 220.589 252.519Z" fill="black"/>
<path d="M235.739 45.1421C236.473 44.9323 237.135 44.4512 237.55 43.7509C238.38 42.3523 237.92 40.6079 236.52 39.8521C231.349 37.0619 225.477 35.2215 219.538 34.5285C217.931 34.3419 216.421 35.4687 216.164 37.0459C215.908 38.623 217.002 40.0549 218.608 40.242C223.819 40.8496 228.974 42.4654 233.513 44.914C234.212 45.2905 235.011 45.3504 235.739 45.1421Z" fill="#FFFD7C"/>
<path d="M134.524 270.964C134.593 270.945 134.662 270.922 134.732 270.899C136.314 270.335 137.171 268.652 136.647 267.139L128.929 244.852C128.405 243.34 126.706 242.566 125.117 243.135C123.535 243.698 122.678 245.382 123.202 246.894L130.92 269.181C131.418 270.626 133.003 271.393 134.524 270.964Z" fill="#FFFD7C"/>
</svg>
