<svg width="173" height="161" viewBox="0 0 173 161" fill="none" xmlns="http://www.w3.org/2000/svg">
<path d="M88.465 148.68C88.4334 148.683 88.4015 148.682 88.3695 148.68C88.0961 148.656 87.8987 148.422 87.9274 148.158C88.6747 141.488 88.7518 134.022 88.8269 126.801C88.8426 125.272 88.8589 123.747 88.881 122.236C88.8849 121.971 89.1111 121.753 89.3859 121.753C89.6607 121.752 89.8812 121.967 89.8773 122.232C89.855 123.742 89.8399 125.265 89.824 126.794C89.7486 134.037 89.67 141.527 88.9187 148.245C88.8919 148.477 88.6989 148.656 88.465 148.68Z" fill="black"/>
<path d="M136.024 133.068C135.787 133.092 135.563 132.942 135.509 132.709C134.643 129.064 133.746 125.293 132.077 121.892C130.354 118.382 127.786 115.262 124.655 112.874C124.444 112.713 124.409 112.412 124.578 112.202C124.746 111.991 125.054 111.952 125.265 112.113C128.512 114.589 131.173 117.823 132.96 121.463C134.675 124.958 135.583 128.779 136.461 132.474C136.523 132.731 136.358 132.991 136.095 133.056C136.071 133.061 136.047 133.065 136.024 133.068Z" fill="black"/>
<path d="M85.1372 147.115C83.4392 147.464 81.6326 147.867 80.5815 149.38C80.055 150.138 79.9197 151.113 80.3554 151.905C81.0322 153.136 82.5271 153.155 83.8193 153.049C85.7782 152.89 87.5903 152.699 89.467 152.098C90.6189 151.728 91.2452 150.987 91.1434 148.33C91.1064 147.374 90.277 146.645 89.3001 146.707C87.8831 146.798 85.9688 146.945 85.1372 147.115Z" fill="#FF5233"/>
<path d="M85.1712 153.406C84.7323 153.451 84.2929 153.489 83.851 153.525C82.355 153.648 80.7203 153.579 79.9296 152.138C79.4273 151.224 79.5243 150.066 80.1834 149.117C81.3724 147.405 83.4104 146.985 85.0472 146.649C85.9015 146.473 87.8208 146.325 89.2805 146.232C89.8834 146.194 90.4606 146.389 90.9058 146.782C91.3487 147.173 91.6062 147.713 91.629 148.302C91.7287 150.895 91.1816 152.046 89.6118 152.55C88.1109 153.032 86.6454 153.257 85.1712 153.406ZM85.228 147.576C83.688 147.893 81.9422 148.253 80.9783 149.64C80.5249 150.292 80.4495 151.072 80.7812 151.676C81.3131 152.643 82.5416 152.683 83.7899 152.58C85.654 152.428 87.482 152.242 89.328 151.649C90.1464 151.387 90.7646 150.977 90.6636 148.356C90.6511 148.021 90.5048 147.714 90.2513 147.491C89.9978 147.267 89.6679 147.155 89.3244 147.178C87.3051 147.306 85.8507 147.448 85.228 147.576Z" fill="black"/>
<path d="M136.777 129.736C138.101 128.611 139.534 127.433 141.383 127.537C142.309 127.589 143.168 128.085 143.529 128.92C144.089 130.215 143.184 131.407 142.303 132.363C140.969 133.811 139.701 135.125 138.066 136.235C137.063 136.917 136.088 136.953 134.04 135.232C133.303 134.612 133.236 133.506 133.887 132.774C134.833 131.708 136.129 130.286 136.777 129.736Z" fill="#FF5233"/>
<path d="M137.037 137.138C136.096 137.234 135.082 136.74 133.721 135.594C133.268 135.213 132.997 134.677 132.96 134.084C132.922 133.491 133.123 132.915 133.525 132.462C134.497 131.367 135.797 129.943 136.464 129.376C137.741 128.291 139.33 126.941 141.421 127.058C142.58 127.124 143.558 127.761 143.975 128.722C144.629 130.235 143.676 131.569 142.658 132.675C141.347 134.098 140.03 135.472 138.334 136.624C137.901 136.921 137.477 137.093 137.037 137.138ZM137.089 130.092C136.603 130.505 135.594 131.567 134.248 133.081C134.019 133.34 133.905 133.669 133.926 134.007C133.947 134.345 134.101 134.65 134.359 134.867C136.378 136.564 137.083 136.329 137.796 135.845C139.404 134.753 140.676 133.425 141.946 132.046C142.797 131.123 143.523 130.129 143.082 129.112C142.807 128.477 142.142 128.056 141.346 128.01C139.652 127.915 138.29 129.072 137.089 130.092Z" fill="black"/>
<path d="M162.645 79.5134C162.397 79.5385 162.169 79.3748 162.124 79.1313C160.335 69.4258 155.397 60.3216 148.22 53.4957C148.028 53.3135 148.027 53.0101 148.216 52.8187C148.406 52.6273 148.716 52.6196 148.908 52.8019C156.226 59.7629 161.261 69.0464 163.087 78.943C163.134 79.2021 162.958 79.4545 162.692 79.5075C162.676 79.5091 162.66 79.5119 162.645 79.5134Z" fill="black"/>
<path d="M166.446 82.8079C165.503 85.0043 162.942 86.0687 160.727 85.1859C158.512 84.3031 157.481 81.8066 158.425 79.6103C159.368 77.414 161.929 76.3495 164.144 77.2323C166.359 78.1151 167.39 80.6115 166.446 82.8079Z" fill="#FF5233"/>
<path d="M162.829 85.9469C162.07 86.0243 161.286 85.9263 160.537 85.6286C158.08 84.6488 156.932 81.8691 157.979 79.4323C158.486 78.2517 159.426 77.3266 160.627 76.8278C161.827 76.3292 163.144 76.3154 164.335 76.79C165.525 77.2647 166.447 78.17 166.93 79.341C167.413 80.5109 167.4 81.8056 166.893 82.9863C166.164 84.6808 164.563 85.7702 162.829 85.9469ZM162.118 77.4172C161.735 77.4562 161.354 77.5525 160.988 77.7047C160.028 78.1035 159.276 78.8438 158.87 79.7876C158.033 81.7365 158.951 83.9594 160.917 84.7437C162.883 85.5279 165.162 84.579 166 82.63C166.406 81.6862 166.417 80.6507 166.031 79.7144C165.643 78.7781 164.907 78.0533 163.955 77.6738C163.366 77.4398 162.738 77.3539 162.118 77.4172Z" fill="black"/>
<path d="M96.8704 125.209C129.626 121.869 153.967 93.1043 151.239 60.9605C148.51 28.8167 119.745 5.46653 86.9898 8.8064C54.2346 12.1463 29.8931 40.9114 32.6215 73.0552C35.35 105.199 64.1152 128.549 96.8704 125.209Z" fill="black"/>
<path d="M96.9136 125.719C80.9334 127.348 65.391 122.773 53.1501 112.837C40.9093 102.9 33.4337 88.791 32.1026 73.1091C30.7715 57.4272 35.743 42.0491 46.1025 29.8081C56.4609 17.5672 70.9666 9.92854 86.9468 8.29913C102.927 6.66971 118.469 11.2446 130.71 21.1811C142.951 31.1177 150.426 45.2267 151.757 60.9087C153.088 76.5906 148.116 91.9687 137.758 104.21C127.4 116.45 112.894 124.089 96.9136 125.719ZM87.0332 9.31673C71.3296 10.9179 57.0767 18.4238 46.8977 30.4526C36.7188 42.4814 31.8338 57.5927 33.1418 73.002C34.4498 88.4125 41.7943 102.276 53.8231 112.04C65.8518 121.804 81.1246 126.3 96.8271 124.699C112.531 123.097 126.784 115.592 136.962 103.563C147.141 91.5341 152.026 76.4227 150.718 61.0134C149.41 45.6029 142.066 31.7397 130.037 21.9753C118.01 12.2108 102.737 7.71552 87.0332 9.31673Z" fill="black"/>
<path d="M99.714 118.01C130.544 114.867 153.454 87.7928 150.886 57.5386C148.318 27.2845 121.244 5.30694 90.4143 8.45047C59.5846 11.594 36.674 38.6682 39.2421 68.9223C41.8101 99.1765 68.8843 121.154 99.714 118.01Z" fill="#FDC14F"/>
<path d="M99.7547 118.491C84.7135 120.025 70.0849 115.718 58.564 106.365C47.042 97.0123 40.0066 83.7327 38.7537 68.9724C37.5008 54.212 42.1805 39.7379 51.9305 28.216C61.6795 16.6941 75.3335 9.50503 90.3735 7.97148C105.414 6.43794 120.043 10.7442 131.564 20.0962C143.086 29.4491 150.121 42.7287 151.374 57.4891C152.627 72.2494 147.948 86.7235 138.198 98.2455C128.449 109.767 114.796 116.957 99.7547 118.491ZM90.455 8.93101C75.6756 10.438 62.2591 17.5037 52.6791 28.8246C43.0981 40.1469 38.5004 54.3692 39.7315 68.8727C40.9625 83.3761 47.8752 96.4259 59.1974 105.617C70.5184 114.807 84.8939 119.038 99.6732 117.532C114.453 116.025 127.869 108.96 137.449 97.6379C147.03 86.3157 151.628 72.0933 150.397 57.5887C149.165 43.0842 142.253 30.0355 130.931 20.8458C119.61 11.6559 105.234 7.42404 90.455 8.93101Z" fill="black"/>
<path d="M48.1239 87.0183C47.9089 87.0399 47.6973 86.929 47.6058 86.727C47.4916 86.4739 47.6107 86.1729 47.8735 86.0564L144.017 43.2586C144.279 43.1422 144.585 43.2525 144.7 43.5066C144.814 43.7597 144.695 44.0596 144.432 44.1773L48.288 86.9751C48.2352 86.9982 48.1794 87.0127 48.1239 87.0183Z" fill="black"/>
<path d="M42.7433 90.1586C42.6578 90.1674 42.5693 90.1538 42.4867 90.1148C30.135 84.2781 19.9916 74.4116 13.9241 62.3332C13.8065 62.0992 13.9063 61.8115 14.1467 61.691C14.3883 61.5705 14.6778 61.6628 14.7966 61.8967C20.7714 73.7905 30.7594 83.5059 42.9218 89.2536C43.1614 89.3668 43.258 89.6515 43.1379 89.8894C43.0591 90.0452 42.9064 90.142 42.7433 90.1586Z" fill="black"/>
<path d="M4.80522 54.6492C5.37452 53.1945 6.58887 52.0691 7.86284 51.1323C8.90689 50.3653 10.0503 49.6736 11.3208 49.4259C13.2515 49.0502 15.3209 49.8093 16.5756 51.266C17.8302 52.7216 18.2638 54.8033 17.7972 56.6842C17.902 55.7023 18.0079 54.7202 18.1126 53.7383C18.2118 52.8121 18.3266 51.8416 18.864 51.0643C19.4002 50.2871 20.5057 49.7974 21.324 50.2485C22.0832 50.6663 22.272 51.6881 22.079 52.5349C21.1007 56.8325 22.2538 60.7405 14.2323 64.5744C8.95767 67.0939 2.90843 59.504 4.80522 54.6492Z" fill="#FF5233"/>
<path d="M12.6211 65.5126C10.831 65.6951 8.93136 65.0052 7.27719 63.5182C4.14255 60.6988 3.43415 56.8408 4.35387 54.487C5.02395 52.7733 6.51558 51.5351 7.57799 50.7538C8.50979 50.069 9.76818 49.2452 11.2363 48.9594C13.3149 48.555 15.5551 49.3373 16.9483 50.9533C17.3046 51.3661 17.6009 51.83 17.8346 52.3261C17.9529 51.8008 18.1397 51.2719 18.4657 50.802C19.1103 49.8686 20.4798 49.2326 21.5676 49.8308C22.5627 50.3787 22.7791 51.6307 22.5519 52.6286C22.3765 53.4005 22.2681 54.1769 22.1644 54.9281C21.678 58.4408 21.2187 61.7594 14.4359 65.0012C13.8551 65.2799 13.2443 65.4491 12.6211 65.5126ZM5.25674 54.8126C4.33607 57.1687 5.48829 60.6066 7.93861 62.8104C9.89832 64.5724 12.1169 65.0598 14.0273 64.147C20.3306 61.1341 20.736 58.2082 21.2043 54.82C21.3109 54.0494 21.421 53.2526 21.6067 52.4402C21.7512 51.8042 21.6489 50.9784 21.0809 50.6649C20.4997 50.3448 19.6571 50.7571 19.2627 51.3263C18.7825 52.0201 18.6829 52.9543 18.5945 53.7782L18.4621 55.0151C18.4756 55.6069 18.4127 56.2041 18.2673 56.7873C18.2066 57.0321 17.9644 57.1919 17.7134 57.1544C17.4624 57.1159 17.2886 56.8927 17.3156 56.6435L17.4928 54.9879C17.4499 53.7261 17.0007 52.5023 16.2029 51.5774C15.0285 50.2149 13.1428 49.554 11.4038 49.8922C10.1321 50.14 8.99451 50.8874 8.14592 51.5119C7.18407 52.2211 5.83555 53.3343 5.25674 54.8126Z" fill="black"/>
<path d="M98.7785 42.2244C97.9511 40.2465 98.5863 38.821 99.8765 38.2752C101.167 37.7295 102.626 38.2709 103.454 40.2488C104.281 42.2267 103.646 43.6523 102.356 44.198C101.065 44.7438 99.6059 44.2023 98.7785 42.2244Z" fill="black"/>
<path d="M70.2863 54.1673C69.4589 52.1894 70.0941 50.7639 71.3843 50.2181C72.6757 49.6722 74.134 50.2138 74.9614 52.1917C75.7888 54.1696 75.1536 55.5951 73.8634 56.1409C72.572 56.6868 71.1137 56.1452 70.2863 54.1673Z" fill="black"/>
<path d="M70.5453 61.8793C71.4712 64.0934 70.3647 66.6706 68.0735 67.638C65.7822 68.6053 63.175 67.5931 62.248 65.3791C61.3221 63.1649 62.4285 60.5877 64.7187 59.6205C67.0112 58.6541 69.6194 59.6652 70.5453 61.8793Z" fill="#FF5233"/>
<path d="M117.082 42.3724C118.008 44.5865 116.901 47.1637 114.61 48.131C112.318 49.0973 109.711 48.0861 108.784 45.8732C107.858 43.6591 108.965 41.0808 111.256 40.1145C113.547 39.1472 116.155 40.1584 117.082 42.3724Z" fill="#FF5233"/>
<path d="M87.3392 60.7049C83.7791 61.0634 80.3805 60.7766 77.8504 60.4758C77.5667 60.4421 77.3704 60.1907 77.4105 59.9133C77.4506 59.6359 77.7133 59.4394 77.9958 59.4732C81.5339 59.8937 86.8068 60.2873 91.7376 58.8529C96.4947 57.4682 100.366 54.4202 102.091 50.6992C102.21 50.4428 102.518 50.325 102.777 50.4367C103.038 50.5472 103.153 50.8446 103.033 51.1011C101.183 55.0925 97.0639 58.3532 92.0161 59.8217C90.4648 60.2713 88.8872 60.549 87.3392 60.7049Z" fill="black"/>
</svg>
