<svg width="134" height="344" viewBox="0 0 134 344" fill="none" xmlns="http://www.w3.org/2000/svg">
<path d="M-75.5307 270.297L-5.97997 302.87C-2.42533 304.535 1.72597 303.099 3.29131 299.661L105.862 74.3701L23.4374 35.7675L-79.1331 261.058C-80.6979 264.495 -79.0854 268.632 -75.5307 270.297Z" fill="#4F9DFD"/>
<path d="M13.5743 61.1518L25.1431 35.7666L105.862 73.5332L94.2935 98.9184C88.0366 96.0079 17.9895 63.2792 13.5743 61.1518Z" fill="#4F9DFD"/>
<path d="M-71.312 252.172C-71.2975 254.244 -71.11 256.339 -70.5815 258.368C-70.1735 259.933 -69.415 261.401 -68.5329 262.775C-63.5119 270.592 -45.7594 279.252 -28.9663 287.108C-21.2126 290.736 -9.75023 297.153 -0.953927 294.931C1.44198 294.327 3.46105 293.004 5.32596 291.457L1.52525 299.796C-0.00763762 303.16 -4.07264 304.567 -7.55494 302.938L-75.6646 271.073C-79.1456 269.444 -80.7247 265.397 -79.1913 262.033L-70.4548 242.863C-70.9858 245.933 -71.3341 249.043 -71.312 252.172Z" fill="black"/>
<path d="M12.5718 53.0397L101.167 94.589L117.908 57.7673C118.566 56.3208 117.886 54.581 116.392 53.8804L33.2104 14.8697C31.7153 14.1685 29.9714 14.7734 29.3143 16.2185L12.5732 53.0403L12.5718 53.0397Z" fill="white"/>
<path d="M12.3174 53.5872L100.921 95.144C101.233 95.2903 101.597 95.1643 101.734 94.8625L118.477 58.0341C119.27 56.2894 118.449 54.1798 116.644 53.3335L33.4541 14.3158C31.6508 13.47 29.5364 14.201 28.7427 15.947L11.9998 52.7754C11.8645 53.0765 12.0055 53.4409 12.3174 53.5872ZM100.854 93.7852L13.3807 52.7587L29.8746 16.4779C30.3939 15.3356 31.7774 14.8566 32.9581 15.4103L116.148 54.428C117.329 54.9818 117.867 56.3621 117.348 57.5044L100.854 93.7852Z" fill="black"/>
<path d="M40.1468 226.326C40.204 226.353 40.2653 226.371 40.3301 226.381C40.5 226.405 40.6891 226.433 40.8977 226.464C43.5205 226.852 48.9759 227.66 54.4477 226.266C59.3343 225.02 64.6942 221.775 65.0856 216.408C65.3013 213.439 64.0885 210.256 61.4788 206.946C58.2361 202.836 52.6597 199.214 48.5622 197.446C48.2463 197.31 47.8872 197.447 47.7608 197.755C47.635 198.061 47.7957 198.422 48.1058 198.557C52.7722 200.572 57.8726 204.315 60.517 207.669C62.926 210.724 64.0494 213.619 63.8565 216.275C63.5109 221.028 58.5866 223.945 54.0953 225.092C48.8639 226.425 43.5759 225.643 41.0336 225.267C40.8217 225.236 40.63 225.206 40.4581 225.183C40.1201 225.135 39.8171 225.365 39.7809 225.698C39.7535 225.962 39.9073 226.214 40.1468 226.326Z" fill="black"/>
<path d="M44.0016 223.621C45.4487 224.399 46.7176 225.684 47.0635 227.257C47.5176 229.316 46.2621 231.391 44.5056 232.494C42.7491 233.598 40.5853 233.912 38.4775 234.075C39.268 234.981 41.0676 233.412 41.8049 235.071C42.1268 235.795 41.9707 236.695 41.3224 237.116C40.5131 237.642 38.9243 238.073 37.5606 238.174C36.4897 238.253 35.3449 238.464 34.4706 237.81C33.0032 236.713 32.9691 234.588 33.2897 232.849C33.9486 229.273 35.4968 225.893 37.7654 223.082C39.1626 221.348 42.3177 222.717 44.0016 223.621Z" fill="#FFB442"/>
<path d="M34.5862 238.575C35.4348 238.975 36.3749 238.89 37.222 238.815C37.3585 238.803 37.495 238.79 37.6304 238.78C39.1406 238.669 40.8025 238.193 41.6744 237.628C42.5269 237.074 42.825 235.878 42.3665 234.846C42.2446 234.573 42.1005 234.359 41.9392 234.195C42.9601 233.946 43.9468 233.577 44.8499 233.011C46.6442 231.884 48.2112 229.635 47.6635 227.153C47.3077 225.537 46.0742 224.058 44.2781 223.093C40.9352 221.297 38.5133 221.159 37.2751 222.697C34.9469 225.583 33.3597 229.05 32.6838 232.72C32.3518 234.526 32.3295 236.957 34.1113 238.289C34.2641 238.405 34.4236 238.499 34.5862 238.575ZM40.9377 234.935C41.0683 234.996 41.1555 235.111 41.2391 235.297C41.4315 235.728 41.3807 236.336 40.9675 236.606C40.2691 237.059 38.7752 237.474 37.491 237.569C37.3491 237.579 37.2074 237.592 37.0644 237.604C36.207 237.681 35.3969 237.753 34.8345 237.332C33.5077 236.34 33.6798 234.181 33.9012 232.983C34.5432 229.502 36.0493 226.214 38.2569 223.476C39.3633 222.105 42.1553 223.312 43.7235 224.156C45.1647 224.931 46.1888 226.13 46.4601 227.365C46.8818 229.277 45.5638 231.097 44.1593 231.978C42.4917 233.026 40.4088 233.313 38.4068 233.469C38.1789 233.487 37.984 233.628 37.9024 233.837C37.8208 234.045 37.8642 234.285 38.0175 234.46C38.5873 235.114 39.406 235.005 40.0039 234.927C40.4779 234.866 40.7512 234.847 40.9377 234.935Z" fill="black"/>
<path d="M93.9991 88.6977C94.3166 88.8447 94.6886 88.7162 94.8291 88.411L109.455 56.6566C109.596 56.3513 109.452 55.9842 109.135 55.8372C108.817 55.6902 108.445 55.8187 108.305 56.1239L93.6785 87.8783C93.5366 88.1829 93.6803 88.5501 93.9991 88.6977Z" fill="black"/>
<path d="M79.45 81.9839C79.7675 82.1309 80.1395 82.0024 80.2801 81.6972L94.9062 49.9427C95.0467 49.6375 94.9031 49.2703 94.5856 49.1233C94.2681 48.9763 93.8962 49.1048 93.7556 49.41L79.1295 81.1645C78.9889 81.4697 79.1325 81.8369 79.45 81.9839Z" fill="black"/>
<path d="M64.9017 75.2671C65.2192 75.4141 65.5912 75.2856 65.7317 74.9804L80.3578 43.2259C80.4984 42.9207 80.3547 42.5535 80.0372 42.4065C79.7198 42.2595 79.3478 42.388 79.2072 42.6932L64.5811 74.4477C64.4392 74.7523 64.5828 75.1195 64.9017 75.2671Z" fill="black"/>
<path d="M50.3529 68.5522C50.6704 68.6992 51.0423 68.5707 51.1829 68.2655L65.809 36.511C65.9496 36.2058 65.8059 35.8387 65.4884 35.6917C65.1709 35.5447 64.799 35.6732 64.6584 35.9784L50.0323 67.7329C49.8918 68.0381 50.0354 68.4052 50.3529 68.5522Z" fill="black"/>
<path d="M35.8048 61.8345C36.1223 61.9814 36.4942 61.853 36.6348 61.5477L51.2609 29.7933C51.4015 29.4881 51.2578 29.1209 50.9403 28.9739C50.6228 28.8269 50.2509 28.9554 50.1103 29.2606L35.4842 61.0151C35.3423 61.3196 35.4859 61.6868 35.8048 61.8345Z" fill="black"/>
<path d="M21.2569 55.1196C21.5744 55.2666 21.9464 55.1381 22.087 54.8329L36.713 23.0784C36.8536 22.7732 36.71 22.406 36.3925 22.2591C36.075 22.1121 35.703 22.2405 35.5624 22.5458L20.9364 54.3002C20.7944 54.6048 20.9381 54.972 21.2569 55.1196Z" fill="black"/>
<path d="M-13.9082 139.352C-12.639 139.941 -11.1526 139.428 -10.5904 138.205L19.1642 73.4908C19.7258 72.2694 19.1524 70.7999 17.8818 70.2106C16.6112 69.6214 15.1261 70.1346 14.5639 71.3574L-15.1906 136.072C-15.7515 137.295 -15.1775 138.763 -13.9082 139.352Z" fill="#7CB0FF"/>
<path d="M11.3235 257.728C12.5735 258.316 14.0315 257.811 14.581 256.6L15.8462 253.812C16.3951 252.602 15.828 251.144 14.578 250.557C13.328 249.97 11.87 250.475 11.3206 251.685L10.0553 254.474C9.50721 255.685 10.0748 257.142 11.3235 257.728Z" fill="#7CB0FF"/>
<path d="M-2.91811 288.632C-1.65359 289.222 -0.177013 288.711 0.380872 287.491L9.52292 267.501C10.0802 266.282 9.50767 264.816 8.24315 264.227C6.97863 263.637 5.50206 264.148 4.94477 265.366L-4.19728 285.356C-4.75382 286.577 -4.18128 288.043 -2.91811 288.632Z" fill="#7CB0FF"/>
<path d="M25.5377 176.524C25.8586 176.675 26.2361 176.558 26.3959 176.252C27.5479 174.046 29.4061 170.933 31.1709 168.815C31.7753 168.091 33.3301 166.468 34.7143 167.068C34.7277 167.074 34.741 167.08 34.7543 167.087C35.3495 167.367 35.7994 168.071 35.9066 168.897C36.0172 169.74 35.8108 170.623 35.5698 171.529C34.8687 174.177 34.0017 176.81 32.9957 179.353C32.8644 179.686 33.0449 180.064 33.3774 180.211C33.7186 180.353 34.1027 180.201 34.2339 179.869C35.2585 177.28 36.1406 174.6 36.855 171.905C37.1278 170.872 37.3625 169.855 37.2225 168.781C37.0493 167.452 36.2662 166.342 35.2065 165.875C33.6262 165.191 31.8243 165.933 30.1318 167.964C28.304 170.157 26.3917 173.356 25.2108 175.619C25.0463 175.936 25.1783 176.333 25.5044 176.508C25.5151 176.513 25.5271 176.519 25.5377 176.524Z" fill="black"/>
<path d="M-1.14578 164.274C-1.13513 164.279 -1.12444 164.284 -1.11187 164.288C-0.770019 164.429 -0.386091 164.273 -0.257551 163.94C0.667673 161.556 1.81879 157.997 2.27173 155.159C2.6925 152.53 2.07732 150.651 0.541439 149.869C-0.505482 149.334 -1.83316 149.462 -2.93712 150.19C-3.83113 150.779 -4.43941 151.619 -5.03317 152.501C-6.58574 154.803 -8.01459 157.225 -9.28421 159.698C-9.44737 160.015 -9.3121 160.412 -8.98486 160.585C-8.65086 160.749 -8.2593 160.641 -8.09614 160.324C-6.84962 157.895 -5.44464 155.515 -3.91993 153.253C-3.39929 152.479 -2.87253 151.748 -2.17157 151.285C-1.46929 150.823 -0.636499 150.714 -0.0311866 151.025C1.31452 151.71 1.11009 153.968 0.95976 154.906C0.521399 157.648 -0.599099 161.107 -1.5007 163.431C-1.62399 163.753 -1.46672 164.123 -1.14578 164.274Z" fill="black"/>
<path d="M7.51847 180.289C10.4496 181.96 13.7072 182.907 16.6377 184.58C15.4711 186.623 14.3245 188.491 12.6452 190.142C10.9131 191.846 8.99434 193.459 6.66076 194.245C5.53555 194.624 3.64026 195.346 1.21261 194.203C-1.21505 193.061 -1.90353 191.124 -2.35 190.005C-3.2768 187.687 -3.31545 185.151 -3.16564 182.703C-3.02102 180.33 -2.36921 178.229 -1.59944 175.999C1.54848 177.188 4.36996 179.101 7.51847 180.289Z" fill="#A62D11"/>
<path d="M0.965772 194.749C3.52875 195.955 5.54317 195.272 6.74585 194.864L6.8791 194.818C9.42066 193.964 11.4435 192.196 13.0867 190.578C14.8602 188.833 16.033 186.893 17.1761 184.891C17.2549 184.753 17.2736 184.588 17.2269 184.432C17.1802 184.277 17.0739 184.143 16.9302 184.059C15.4318 183.204 13.8394 182.531 12.301 181.88C10.7964 181.243 9.24214 180.585 7.8096 179.768C7.78032 179.751 7.74989 179.737 7.7183 179.725C6.179 179.144 4.67934 178.365 3.22805 177.611C1.74293 176.839 0.209463 176.043 -1.40229 175.434C-1.55703 175.375 -1.72599 175.379 -1.87306 175.445C-2.02013 175.511 -2.1314 175.633 -2.18315 175.782C-2.93728 177.967 -3.62582 180.135 -3.77976 182.642C-3.92113 184.966 -3.93014 187.682 -2.92031 190.207L-2.86697 190.341C-2.39244 191.54 -1.59721 193.544 0.965772 194.749ZM15.7993 184.798C14.7907 186.538 13.722 188.216 12.2048 189.708C10.655 191.233 8.75849 192.896 6.44359 193.675L6.30713 193.721C5.21427 194.092 3.56222 194.652 1.4597 193.663C-0.642821 192.674 -1.29443 191.03 -1.72586 189.942L-1.78124 189.805C-2.70018 187.504 -2.68784 184.955 -2.55386 182.764C-2.42199 180.62 -1.86275 178.703 -1.21665 176.792C0.117582 177.34 1.42355 178.018 2.69176 178.677C4.16158 179.44 5.68054 180.23 7.27277 180.836C8.75766 181.679 10.3329 182.344 11.8561 182.989C13.1694 183.545 14.5216 184.118 15.7993 184.798Z" fill="black"/>
<path d="M1.22504 185.911C2.77245 185.929 4.37598 186.314 5.69113 187.198C7.00835 188.083 7.9157 189.41 8.30695 190.914C8.52035 191.737 8.58452 192.577 8.54534 193.412C7.92867 193.766 7.28454 194.073 6.60226 194.302C5.47911 194.681 3.58727 195.401 1.16427 194.262C-1.25742 193.123 -1.94573 191.19 -2.39126 190.074C-2.81604 189.011 -3.04799 187.901 -3.16672 186.775C-1.78671 186.215 -0.292636 185.895 1.22504 185.911Z" fill="#EB5050"/>
<path d="M0.917065 194.808C3.47579 196.011 5.48702 195.329 6.6878 194.922L6.82084 194.876C7.49199 194.65 8.16159 194.344 8.87066 193.939C9.04165 193.841 9.14925 193.664 9.1591 193.465C9.20419 192.518 9.11757 191.617 8.90113 190.786C8.46536 189.107 7.44369 187.656 6.02384 186.702C4.34759 185.574 2.47874 185.32 1.20808 185.305C-0.336731 185.287 -1.89533 185.593 -3.42232 186.214C-3.66228 186.312 -3.80662 186.553 -3.77795 186.811C-3.64207 188.109 -3.37538 189.242 -2.9623 190.275L-2.90905 190.409C-2.43483 191.604 -1.64166 193.605 0.917065 194.808ZM7.94572 193.045C7.40815 193.337 6.8956 193.562 6.3854 193.733L6.24915 193.779C5.15802 194.15 3.50858 194.709 1.40955 193.722C-0.689474 192.735 -1.33984 191.094 -1.77179 190.007L-1.82578 189.872C-2.14946 189.062 -2.37394 188.175 -2.50821 187.174C-1.26344 186.719 -0.00360716 186.496 1.24129 186.511C2.33974 186.524 3.94481 186.738 5.3607 187.69C6.52021 188.47 7.35654 189.661 7.71585 191.043C7.87708 191.663 7.95466 192.336 7.94572 193.045Z" fill="black"/>
<path d="M33.9106 185.967C32.6551 188.737 33.9567 192.074 36.8181 193.42C39.6796 194.767 43.0162 193.613 44.2717 190.842C45.5272 188.072 44.2256 184.735 41.3641 183.389C38.5027 182.042 35.1661 183.196 33.9106 185.967Z" fill="#FF5233"/>
</svg>
