<svg width="177" height="355" viewBox="0 0 177 355" fill="none" xmlns="http://www.w3.org/2000/svg">
<path d="M147.403 309.689C147.242 309.74 147.063 309.726 146.914 309.634C146.644 309.468 146.575 309.114 146.758 308.843C151.367 301.997 155.742 293.948 159.973 286.164C160.871 284.513 161.765 282.867 162.659 281.238C162.816 280.952 163.175 280.834 163.459 280.975C163.744 281.113 163.848 281.458 163.692 281.744C162.8 283.371 161.906 285.016 161.008 286.666C156.764 294.475 152.375 302.549 147.732 309.443C147.652 309.564 147.533 309.648 147.403 309.689Z" fill="black"/>
<path d="M145.773 304.303C144.156 303.05 142.405 301.742 140.15 302.022C139.019 302.162 137.974 302.833 137.535 303.874C136.854 305.489 137.961 306.859 139.037 307.943C140.668 309.587 142.215 311.073 144.213 312.283C145.438 313.025 146.628 312.989 149.122 310.732C150.02 309.921 150.101 308.576 149.305 307.742C148.149 306.532 146.564 304.916 145.773 304.303Z" fill="#FF5233"/>
<path d="M146.499 313.139C145.569 313.434 144.746 313.3 143.883 312.777C141.813 311.524 140.204 309.97 138.604 308.356C137.36 307.103 136.195 305.566 136.992 303.679C137.498 302.482 138.691 301.627 140.105 301.452C142.655 301.136 144.595 302.639 146.154 303.846C146.968 304.476 148.556 306.094 149.745 307.339C150.236 307.854 150.482 308.535 150.438 309.257C150.393 309.977 150.064 310.649 149.512 311.148C148.335 312.21 147.371 312.863 146.499 313.139ZM139.653 302.714C138.929 302.943 138.349 303.436 138.081 304.073C137.546 305.342 138.432 306.485 139.471 307.532C141.023 309.096 142.578 310.598 144.541 311.788C145.411 312.315 146.272 312.542 148.731 310.318C149.046 310.033 149.233 309.652 149.258 309.241C149.284 308.828 149.143 308.44 148.864 308.146C147.219 306.423 145.987 305.222 145.394 304.762C143.927 303.626 142.265 302.339 140.198 302.596C140.009 302.619 139.827 302.658 139.653 302.714Z" fill="black"/>
<path d="M77.78 223.49C77.3693 223.621 76.9388 223.703 76.4872 223.726C75.3455 223.784 74.145 223.45 72.9218 222.73C70.5255 221.324 68.7451 218.882 67.2649 216.704C63.7592 211.548 60.6628 205.987 58.0616 200.177C57.9338 199.891 58.0731 199.545 58.3729 199.407C58.6731 199.269 59.0205 199.387 59.1482 199.673C61.7239 205.425 64.7894 210.929 68.26 216.035C69.6742 218.115 71.3673 220.442 73.5665 221.734C74.5799 222.329 75.5889 222.619 76.4823 222.574C78.4205 222.474 80.2147 220.932 82.1277 217.721C83.8292 214.864 85.2644 211.774 86.394 208.538C86.5008 208.232 86.8373 208.057 87.1453 208.146C87.4537 208.235 87.6175 208.555 87.5107 208.861C86.3559 212.173 84.8844 215.335 83.1417 218.263C81.9859 220.207 80.2357 222.711 77.78 223.49Z" fill="black"/>
<path d="M58.3723 184.899C58.8886 180.423 56.178 175.919 51.9818 174.285C50.9787 173.894 49.6552 173.725 48.8967 174.536C48.21 175.268 48.3748 176.382 48.5844 177.319C49.0545 179.415 49.5259 181.511 49.996 183.608C51.0587 188.343 46.6614 188.867 44.164 192.184C42.7863 194.013 42.1882 197.05 42.4534 199.202C44.1087 212.609 51.878 211.993 59.9415 208.143C62.8049 206.776 66.305 204.359 66.8155 201.891C67.7523 197.372 63.2865 184.933 58.3723 184.899Z" fill="#FF5233"/>
<path d="M56.14 210.285C52.6062 211.406 49.7665 211.39 47.5256 210.252C44.4335 208.682 42.583 205.098 41.8668 199.297C41.603 197.156 42.1442 193.912 43.693 191.857C44.5859 190.671 45.7091 189.82 46.6993 189.069C48.6377 187.6 50.0386 186.538 49.415 183.761L48.0038 177.473C47.8386 176.736 47.4933 175.201 48.4668 174.162C49.2728 173.303 50.6764 173.149 52.223 173.752C56.4992 175.418 59.2802 179.826 59.0074 184.38C60.2241 184.594 61.4361 185.425 62.6144 186.859C65.7441 190.664 68.1542 198.294 67.3899 201.979C66.8413 204.626 63.3032 207.166 60.1756 208.66C58.7413 209.345 57.3966 209.887 56.14 210.285ZM49.811 174.624C49.6236 174.684 49.4572 174.78 49.3266 174.919C48.854 175.424 48.9695 176.3 49.1651 177.173L50.5763 183.461C51.3628 186.967 49.3484 188.494 47.3989 189.97C46.4281 190.707 45.4242 191.466 44.638 192.512C43.295 194.296 42.8157 197.238 43.0455 199.104C43.7048 204.441 45.4093 207.845 48.1123 209.219C50.7998 210.585 54.591 210.062 59.6975 207.623C62.4225 206.321 65.7693 204.015 66.2278 201.802C66.9657 198.239 64.2886 190.786 61.6752 187.608C60.5362 186.223 59.381 185.488 58.3358 185.481C58.1724 185.48 58.0204 185.413 57.9147 185.296C57.8091 185.18 57.7595 185.023 57.7785 184.864C58.2619 180.674 55.6655 176.36 51.7371 174.829C51.1222 174.589 50.3692 174.447 49.811 174.624Z" fill="black"/>
<path d="M57.0157 189.185C56.8638 189.233 56.6952 189.223 56.5492 189.144C56.2705 188.991 56.1811 188.64 56.3528 188.36C57.0379 187.233 57.3266 186.208 57.5715 184.918C57.6314 184.601 57.9405 184.38 58.2624 184.423C58.5844 184.467 58.7958 184.758 58.7359 185.075C58.4665 186.494 58.1425 187.631 57.3641 188.912C57.2812 189.047 57.1555 189.141 57.0157 189.185Z" fill="black"/>
<path d="M55.6564 209.614C56.643 208.675 57.3276 207.874 57.7106 207.212C58.0922 206.55 58.2211 205.546 57.9296 204.721C57.596 203.776 56.4294 203.05 54.7477 203.26C53.2908 203.442 52.0378 204.256 49.777 205.247C51.4648 204.538 54.7552 202.818 55.9099 201.407C56.4231 200.78 56.8855 200.017 56.7695 199.247C56.6995 198.779 56.4181 198.372 56.0804 198.045C55.1025 197.098 53.6461 196.73 52.2338 196.767C50.8216 196.803 47.2818 197.61 45.913 198.016C47.2931 197.563 50.7406 196.47 52.0664 195.869C53.6012 195.173 55.3136 194.06 55.3599 192.436C55.3984 191.092 54.1621 190.053 52.8358 189.755C50.8152 189.303 49.0503 189.995 47.6983 190.316C45.3158 190.885 42.5165 191.931 40.9193 192.9C39.9318 193.499 39.1338 194.447 38.752 195.51C38.3705 196.575 38.5935 197.88 39.5133 198.493C40.2677 198.994 41.2793 198.937 42.2139 198.862C40.932 199.432 39.861 201.052 39.6283 202.394C39.3952 203.735 39.9104 205.143 40.9447 205.99C42.61 207.354 45.2017 207.11 47.2602 206.18C46.517 206.941 45.4575 207.81 45.1308 208.8C44.804 209.79 44.8499 210.918 45.4361 211.742C46.0515 212.606 47.1708 213.02 48.2711 213.052C49.3704 213.085 50.5191 212.668 51.5354 212.199C52.7575 211.635 54.533 210.685 55.6564 209.614Z" fill="#FF5233"/>
<path d="M50.3145 213.292C49.6629 213.499 48.942 213.649 48.2245 213.627C46.8299 213.586 45.6038 213.008 44.9464 212.084C44.2992 211.175 44.1581 209.89 44.5696 208.645C44.7195 208.192 44.9838 207.776 45.2962 207.389C43.6554 207.689 41.8901 207.532 40.5547 206.438C39.373 205.47 38.7808 203.855 39.0482 202.323C39.2069 201.412 39.7304 200.306 40.5095 199.447C40.0447 199.385 39.5803 199.249 39.1682 198.974C37.9644 198.174 37.7689 196.542 38.1983 195.343C38.622 194.161 39.5081 193.092 40.6291 192.412C42.2483 191.43 45.0447 190.36 47.5876 189.755C47.8168 189.7 48.059 189.635 48.3118 189.566C49.5901 189.218 51.1828 188.786 52.9962 189.192C54.502 189.528 56.0007 190.747 55.9524 192.424C55.9097 193.881 54.8224 195.147 52.7165 196.19C54.2633 196.241 55.5966 196.742 56.5076 197.625C56.9893 198.091 57.275 198.6 57.3555 199.135C57.4756 199.935 57.1516 200.791 56.3653 201.753C56.1276 202.042 55.8109 202.343 55.4401 202.644C57.0947 202.672 58.1505 203.549 58.4894 204.508C58.8185 205.437 58.71 206.63 58.2228 207.474C57.8059 208.196 57.0978 209.028 56.0596 210.016C54.783 211.231 52.8226 212.23 51.7687 212.715C51.3611 212.904 50.8627 213.118 50.3145 213.292ZM47.1036 205.629C47.3468 205.552 47.6103 205.632 47.7533 205.833C47.9107 206.054 47.88 206.36 47.6794 206.565C47.5322 206.716 47.3739 206.869 47.2101 207.028C46.6019 207.62 45.9107 208.291 45.694 208.95C45.3956 209.854 45.4824 210.767 45.9279 211.393C46.3857 212.037 47.279 212.44 48.317 212.47C49.3801 212.501 50.5296 212.032 51.3023 211.675C52.0945 211.31 54.0641 210.337 55.2521 209.207C56.1892 208.316 56.8438 207.554 57.1949 206.944C57.5168 206.386 57.5879 205.558 57.3662 204.931C57.1273 204.253 56.2384 203.651 54.7916 203.831C53.863 203.946 52.9879 204.365 51.7762 204.944C51.61 205.024 51.436 205.107 51.2553 205.193C50.7888 205.421 50.3557 205.618 49.9855 205.773C49.6833 205.9 49.3423 205.77 49.2238 205.481C49.1052 205.191 49.2523 204.851 49.5547 204.72C50.0312 204.511 50.4669 204.307 50.8653 204.117C52.5965 203.265 54.6496 202.038 55.4514 201.058C56.0108 200.373 56.2511 199.817 56.1813 199.355C56.1375 199.06 55.9588 198.76 55.6504 198.463C54.5945 197.438 53.0463 197.321 52.2182 197.343C50.9082 197.377 47.4392 198.157 46.0586 198.567C45.7454 198.661 45.4262 198.494 45.3412 198.194C45.2563 197.894 45.4376 197.571 45.7486 197.469L46.4485 197.242C48.0507 196.72 50.731 195.849 51.8373 195.347C53.7503 194.478 54.7354 193.504 54.7658 192.448C54.7961 191.376 53.7115 190.552 52.6754 190.32C51.1522 189.979 49.7811 190.351 48.5735 190.679C48.3068 190.751 48.0526 190.82 47.8126 190.878C45.4239 191.449 42.7102 192.479 41.216 193.387C40.3358 193.92 39.642 194.755 39.3123 195.678C39.0364 196.447 39.137 197.525 39.8643 198.009C40.4407 198.392 41.2601 198.361 42.1945 198.286C42.4811 198.262 42.734 198.443 42.7941 198.713C42.8542 198.983 42.704 199.266 42.4389 199.385C41.4291 199.835 40.4301 201.214 40.213 202.462C40.0132 203.608 40.4557 204.814 41.3386 205.539C42.9019 206.818 45.3819 206.402 47.0322 205.656C47.057 205.645 47.0808 205.636 47.1036 205.629Z" fill="black"/>
<path d="M179.1 69.6954L184.168 92.037C195.484 92.3556 208.498 93.9137 216.298 101.66C221.751 107.075 224.502 114.543 226.887 121.85C231.407 135.695 244.334 194.909 252.078 231.066C255.472 246.912 245.096 263.012 228.806 267.181L133.278 291.633C116.988 295.803 100.847 286.489 97.0745 270.742C88.4643 234.805 74.5826 175.836 72.6699 161.324C71.6615 153.666 70.9078 145.686 73.4395 138.227C77.0622 127.558 87.9779 119.873 97.9161 114.114L92.8481 91.7726" fill="white"/>
<path d="M230.678 267.247C230.102 267.428 229.521 267.594 228.931 267.745L133.406 292.196C125.372 294.252 117.119 293.175 110.163 289.161C103.209 285.148 98.3536 278.661 96.4921 270.896C88.2033 236.301 74.0079 176.078 72.0773 161.422C71.0685 153.763 70.2981 145.65 72.8734 138.064C76.6068 127.066 87.7808 119.355 97.2374 113.843L92.2655 91.9246C92.1952 91.6114 92.4018 91.2845 92.7208 91.2095C93.0434 91.1263 93.3622 91.313 93.4325 91.6262L98.5004 113.967C98.5571 114.218 98.4363 114.483 98.2045 114.617C88.8577 120.033 77.6595 127.63 74.0065 138.391C71.5124 145.737 72.2714 153.7 73.263 161.224C75.1878 175.829 89.3725 236.01 97.6562 270.583C99.4459 278.049 104.114 284.287 110.801 288.145C117.488 292.003 125.425 293.04 133.148 291.064L228.673 266.612C236.398 264.634 243.017 259.872 247.316 253.202C251.615 246.531 253.096 238.719 251.488 231.207C244.038 196.42 230.861 135.98 226.312 122.049C223.968 114.869 221.229 107.414 215.859 102.08C207.993 94.2681 194.766 92.923 184.123 92.6231C183.859 92.6157 183.638 92.4391 183.581 92.1868L178.513 69.8457C178.441 69.533 178.648 69.2074 178.968 69.1306C179.291 69.0474 179.61 69.2342 179.68 69.5474L184.651 91.4647C195.433 91.7961 208.687 93.2558 216.727 101.239C222.272 106.746 225.065 114.341 227.452 121.648C232.017 135.628 245.204 196.11 252.658 230.919C254.331 238.732 252.79 246.856 248.32 253.794C244.178 260.228 237.959 264.953 230.678 267.247Z" fill="black"/>
<path d="M179.854 82.2847L176.81 69.1147L91.9264 90.4512L94.9687 103.622C102.238 102.648 174.025 83.8977 179.854 82.2847Z" fill="black"/>
<path d="M244.802 247.24C242.104 251.702 235.635 258.867 222.59 261.975C218.239 263.012 162.933 277.006 154.769 279.073C143.296 281.977 129.235 286.244 120.99 286.797C115.596 287.16 107.085 284.579 101.016 275.603C106.364 288.434 120.81 295.588 135.362 291.919L229.442 268.2C245.486 264.155 255.686 248.463 252.322 233.001C251.529 229.349 250.678 225.456 249.788 221.395C249.436 227.719 248.821 240.593 244.802 247.24Z" fill="black"/>
<path d="M187.481 73.785L83.9325 100.174C81.5853 100.772 79.2625 99.4159 78.7452 97.1462L69.1981 55.2486C68.6808 52.9788 70.1647 50.6518 72.5123 50.0548L176.061 23.6663C178.408 23.068 180.731 24.4239 181.248 26.6936L190.795 68.5912C191.313 70.861 189.828 73.1867 187.481 73.785Z" fill="#444DAB"/>
<path d="M187.889 74.2593C187.798 74.288 187.704 74.3146 187.611 74.3382L84.0548 100.731C81.396 101.408 78.7562 99.8675 78.1701 97.2964L68.6222 55.3915C68.338 54.1465 68.5733 52.8473 69.2837 51.734C69.9941 50.6207 71.0895 49.8262 72.3816 49.4989L175.938 23.1062C178.596 22.4283 181.237 23.9696 181.823 26.5407L191.371 68.4456C191.654 69.6923 191.42 70.9911 190.709 72.1031C190.051 73.1359 189.057 73.8929 187.889 74.2593ZM72.4209 50.6631C71.5287 50.943 70.7711 51.5213 70.2682 52.3085C69.7257 53.1584 69.5468 54.1496 69.7641 55.1002L79.3121 97.0051C79.7589 98.9681 81.7749 100.144 83.8046 99.6274L187.361 73.2346C188.346 72.9843 189.185 72.3777 189.726 71.5282C190.268 70.6783 190.447 69.6871 190.231 68.7361L180.683 26.8312C180.237 24.8682 178.221 23.6921 176.191 24.2089L72.6344 50.6017C72.5617 50.6203 72.4911 50.6411 72.4209 50.6631Z" fill="black"/>
<path d="M231.844 240.452L119.394 269.249C115.249 270.31 111.15 267.912 110.238 263.891L85.5035 154.803C84.5924 150.783 87.2138 146.663 91.3579 145.601L203.809 116.803C207.954 115.742 212.053 118.141 212.965 122.161L237.699 231.249C238.611 235.271 235.99 239.391 231.844 240.452Z" fill="#EFFD4F"/>
<path d="M232.444 240.919C232.292 240.967 232.137 241.012 231.981 241.051L119.53 269.849C117.361 270.405 115.134 270.108 113.263 269.011C111.391 267.916 110.098 266.154 109.621 264.05L84.8867 154.962C83.9022 150.618 86.7415 146.158 91.2228 145.003L203.674 116.205C205.843 115.649 208.07 115.946 209.941 117.043C211.813 118.137 213.106 119.9 213.584 122.006L238.318 231.093C239.268 235.284 236.653 239.593 232.444 240.919ZM91.1011 146.313C87.5318 147.438 85.3156 151.09 86.1213 154.646L110.855 263.734C111.26 265.518 112.357 267.012 113.944 267.941C115.53 268.869 117.417 269.122 119.257 268.651L231.708 239.853C235.514 238.882 237.915 235.092 237.081 231.408L212.347 122.321C211.943 120.536 210.846 119.041 209.258 118.112C207.672 117.184 205.785 116.931 203.945 117.402L91.494 146.2C91.3622 146.233 91.2306 146.272 91.1011 146.313Z" fill="black"/>
<path d="M161.722 197.666C161.566 197.715 161.396 197.706 161.246 197.63L151.491 192.688C151.189 192.535 151.08 192.166 151.249 191.865C151.419 191.564 151.801 191.442 152.103 191.596L161.418 196.314L169.475 187.135C169.706 186.873 170.102 186.834 170.361 187.048C170.62 187.263 170.644 187.648 170.414 187.91L162.021 197.471C161.94 197.565 161.835 197.631 161.722 197.666Z" fill="black"/>
<path d="M92.4543 90.7426C92.4433 90.746 92.4322 90.7494 92.4207 90.7515C92.0918 90.8337 91.7655 90.646 91.6921 90.3333L84.1091 57.8489C84.0357 57.5363 84.2453 57.2157 84.5729 57.1338C84.9018 57.0515 85.228 57.2393 85.3001 57.5523L92.8827 90.0354C92.9551 90.3397 92.7629 90.6479 92.4543 90.7426Z" fill="white"/>
<path d="M109.239 86.6965C109.228 86.6999 109.217 86.7033 109.204 86.7058C108.875 86.7881 108.548 86.6003 108.476 86.2873L100.894 53.8029C100.821 53.4899 101.03 53.1709 101.357 53.0878C101.686 53.0055 102.012 53.1932 102.086 53.5059L109.668 85.9889C109.738 86.2941 109.547 86.6018 109.239 86.6965Z" fill="white"/>
<path d="M126.022 82.6515C126.011 82.6549 126 82.6583 125.987 82.6608C125.658 82.7431 125.332 82.5553 125.259 82.2427L117.676 49.7583C117.602 49.4456 117.811 49.1237 118.139 49.0431C118.468 48.9608 118.795 49.1486 118.867 49.4617L126.449 81.9448C126.523 82.2486 126.332 82.5564 126.022 82.6515Z" fill="white"/>
<path d="M142.807 78.6049C142.796 78.6083 142.785 78.6117 142.773 78.6137C142.445 78.696 142.118 78.5082 142.045 78.1956L134.462 45.7112C134.39 45.3982 134.602 45.0767 134.926 44.9961C135.255 44.9138 135.581 45.1016 135.654 45.4142L143.237 77.8973C143.306 78.2024 143.116 78.5102 142.807 78.6049Z" fill="white"/>
<path d="M159.592 74.5588C159.58 74.5622 159.569 74.5656 159.558 74.5677C159.229 74.65 158.903 74.4622 158.829 74.1496L151.246 41.6652C151.174 41.3522 151.384 41.0328 151.71 40.9501C152.039 40.8678 152.365 41.0556 152.439 41.3682L160.021 73.8513C160.091 74.1551 159.9 74.4642 159.592 74.5588Z" fill="white"/>
<path d="M176.375 70.5128C176.364 70.5162 176.353 70.5196 176.34 70.5221C176.011 70.6044 175.685 70.4166 175.611 70.104L168.028 37.6196C167.955 37.307 168.167 36.9842 168.492 36.9045C168.821 36.8222 169.147 37.01 169.221 37.3226L176.803 69.8056C176.875 70.1086 176.683 70.4181 176.375 70.5128Z" fill="white"/>
<path d="M135.308 191.042C135.942 193.87 134.084 196.776 131.157 197.533C128.229 198.29 125.34 196.61 124.703 193.782C124.069 190.954 125.927 188.048 128.855 187.291C131.783 186.534 134.671 188.213 135.308 191.042Z" fill="#FF5233"/>
<path d="M136.486 181.899C135.922 179.363 136.979 177.752 138.63 177.323C140.28 176.892 141.9 177.806 142.465 180.341C143.031 182.876 141.973 184.488 140.322 184.917C138.671 185.348 137.052 184.434 136.486 181.899Z" fill="black"/>
<path d="M180.106 174.007C180.062 174.021 180.015 174.03 179.967 174.035L166.163 175.328C165.939 175.349 165.726 175.253 165.603 175.075C165.48 174.898 165.465 174.666 165.564 174.464L171.861 161.693C172.016 161.379 172.396 161.236 172.709 161.372C173.023 161.509 173.153 161.873 172.998 162.186L167.176 173.994L179.904 172.803C180.254 172.77 180.551 173.02 180.567 173.36C180.584 173.653 180.386 173.918 180.106 174.007Z" fill="black"/>
<path d="M166.398 175.243C166.135 175.326 165.846 175.235 165.697 175.006C165.516 174.728 165.608 174.35 165.903 174.163L179.477 165.501C179.773 165.312 180.158 165.386 180.339 165.663C180.52 165.941 180.427 166.319 180.132 166.507L166.559 175.168C166.507 175.201 166.454 175.226 166.398 175.243Z" fill="black"/>
<path d="M116.541 242.72C116.496 242.734 116.452 242.746 116.406 242.757C115.11 243.085 113.825 242.339 113.54 241.091L109.541 223.712C109.254 222.465 110.075 221.19 111.369 220.862C112.666 220.534 113.95 221.28 114.236 222.527L118.236 239.906C118.512 241.11 117.759 242.341 116.541 242.72Z" fill="#FFF9B4"/>
<path d="M118.674 254.795C118.629 254.809 118.586 254.822 118.541 254.833C117.26 255.16 115.993 254.42 115.712 253.18L114.818 249.253C114.536 248.012 115.346 246.743 116.626 246.414C117.907 246.087 119.174 246.827 119.455 248.068L120.347 251.995C120.621 253.192 119.878 254.417 118.674 254.795Z" fill="#FFF9B4"/>
</svg>
