<svg width="147" height="327" viewBox="0 0 147 327" fill="none" xmlns="http://www.w3.org/2000/svg">
<path d="M92.319 216.814C92.199 216.777 92.085 216.708 91.9938 216.609C86.388 210.494 80.2401 197.33 74.2938 184.601C72.3465 180.433 70.5087 176.497 68.6853 172.79C68.5138 172.443 68.6608 172.034 69.0104 171.879C69.3605 171.723 69.7843 171.878 69.9538 172.226C71.7825 175.945 73.6248 179.889 75.574 184.062C81.4744 196.693 87.5757 209.754 93.0303 215.707C93.2944 215.995 93.2758 216.43 92.9892 216.679C92.8029 216.843 92.5477 216.885 92.319 216.814Z" fill="black"/>
<path d="M98.8985 218.972C98.0152 222.255 94.5491 224.133 91.1578 223.166C87.7666 222.199 85.7331 218.752 86.6164 215.469C87.4997 212.185 90.9659 210.308 94.3571 211.275C97.7504 212.241 99.7823 215.687 98.8985 218.972Z" fill="#FD4F52"/>
<path d="M10.4092 297.999C10.0856 297.9 9.86237 297.59 9.89423 297.253C10.7904 287.526 12.8679 276.895 14.8773 266.616C15.3021 264.445 15.7245 262.281 16.1347 260.135C16.2067 259.758 16.5807 259.517 16.972 259.597C17.3616 259.677 17.6201 260.047 17.5476 260.425C17.1369 262.574 16.714 264.739 16.2888 266.912C14.2855 277.158 12.2134 287.753 11.3247 297.414C11.2899 297.796 10.9414 298.071 10.5446 298.027C10.4984 298.021 10.4531 298.012 10.4092 297.999Z" fill="black"/>
<path d="M15.6276 296.841C17.957 297.827 20.4264 298.919 21.4943 301.357C22.0292 302.579 21.9417 303.992 21.089 304.985C19.7659 306.522 17.6208 306.115 15.8018 305.591C13.0428 304.796 10.5055 304.003 7.99362 302.609C6.45165 301.753 5.7692 300.526 6.68117 296.81C7.00975 295.473 8.40704 294.687 9.7872 295.058C11.7892 295.597 14.4882 296.36 15.6276 296.841Z" fill="#FD4F52"/>
<path d="M-3.2369 261.461C-30.2229 253.127 -45.8248 225.233 -38.0849 199.159L3.35474 59.5574C11.0947 33.4831 39.2455 19.102 66.2315 27.4364C93.2175 35.7708 108.819 63.6645 101.079 89.7389L59.6399 229.34C51.8999 255.415 23.7491 269.796 -3.2369 261.461Z" fill="#FD784F"/>
<path d="M28.8812 146.677C22.5797 144.681 -1.915 135.116 -17.073 128.198L-38.1927 199.623C-45.8575 225.546 -30.347 253.295 -3.54885 261.603C23.2493 269.911 51.1869 255.632 58.8517 229.71L80.1432 157.702C69.115 157.137 39.0878 149.909 28.8812 146.677Z" fill="black"/>
<path d="M31.5222 146.657C16.6678 142.143 1.5294 136.594 -13.8044 130.034C-14.1848 129.87 -14.3649 129.442 -14.2066 129.077C-14.0467 128.712 -13.609 128.549 -13.2282 128.711C18.2039 142.157 48.8218 151.35 77.7755 156.033C78.1841 156.098 78.4678 156.474 78.4091 156.867C78.3504 157.261 77.9709 157.528 77.5628 157.462C62.6176 155.043 47.23 151.431 31.5222 146.657Z" fill="white"/>
<path d="M61.4161 110.256C62.2998 107.265 64.3108 106.263 66.251 106.865C68.1896 107.467 69.3222 109.444 68.4386 112.435C67.555 115.427 65.5439 116.429 63.6037 115.827C61.6636 115.225 60.532 113.249 61.4161 110.256Z" fill="black"/>
<path d="M18.5277 97.2757C19.4113 94.2844 21.424 93.283 23.3626 93.8845C25.3011 94.4861 26.4338 96.4636 25.5502 99.455C24.6665 102.446 22.6555 103.448 20.7153 102.846C18.7751 102.244 17.6436 100.269 18.5277 97.2757Z" fill="black"/>
<path d="M11.6671 106.228C10.6814 109.565 7.08551 111.401 3.63448 110.33C0.18344 109.259 -1.81461 105.688 -0.828862 102.352C0.156886 99.0154 3.75278 97.1793 7.20382 98.2499C10.6549 99.3206 12.6529 102.892 11.6671 106.228Z" fill="#FF5233"/>
<path d="M73.6831 131.533C77.1337 132.604 80.7301 130.767 81.7157 127.432C82.7014 124.096 80.7031 120.524 77.2524 119.453C73.8017 118.383 70.2054 120.219 69.2197 123.555C68.2341 126.891 70.2324 130.463 73.6831 131.533Z" fill="#FF5233"/>
<path d="M29.2982 111.2C28.4769 111.1 27.63 111.023 26.8468 111.252C24.3144 111.994 23.8704 115.328 24.4477 117.886C25.7839 123.804 30.4192 129.122 36.368 130.903C42.3172 132.682 48.2841 130.305 52.5587 125.533C53.8997 124.036 55.4499 121.1 54.0291 119.59C53.0834 118.585 46.3138 115.643 41.1723 114.085C37.414 112.945 33.1377 111.667 29.2982 111.2Z" fill="#A62D11"/>
<path d="M36.0396 131.517C30.0962 129.677 25.1714 124.269 23.7593 118.012C22.8013 113.77 24.5721 111.192 26.6238 110.591C27.5307 110.326 28.4737 110.408 29.362 110.517C33.3586 111.002 37.7969 112.347 41.362 113.428C46.1293 114.881 53.3835 117.901 54.5434 119.133C56.3097 121.01 54.646 124.264 53.0973 125.993C48.3976 131.242 42.0731 133.323 36.1817 131.56C36.1351 131.547 36.0874 131.532 36.0396 131.517ZM29.2303 111.877C28.4589 111.784 27.7131 111.716 27.065 111.905C24.8248 112.561 24.6804 115.764 25.1305 117.757C26.4347 123.534 30.965 128.521 36.4247 130.211C36.4677 130.224 36.5122 130.238 36.5552 130.251C41.9059 131.852 47.6908 129.917 52.027 125.074C53.301 123.652 54.5285 121.113 53.5217 120.044C52.7754 119.251 46.4237 116.38 40.9816 114.735C37.4726 113.671 33.1012 112.346 29.2303 111.877Z" fill="black"/>
<path d="M44.71 126.22C43.8935 124.377 42.5961 122.715 40.8083 121.672C39.1741 120.72 37.2516 120.372 35.4015 120.576C33.2662 120.812 31.2709 121.711 29.581 122.945C28.8542 123.476 28.1834 124.071 27.5589 124.708C29.7474 127.627 32.804 129.918 36.3232 130.971C39.5823 131.946 42.8476 131.669 45.8368 130.438C45.6541 128.992 45.306 127.566 44.71 126.22Z" fill="#EB5050"/>
<path d="M35.9892 131.584C32.512 130.508 29.3216 128.211 26.9919 125.101C26.7891 124.83 26.808 124.461 27.0393 124.225C27.717 123.532 28.4258 122.915 29.1459 122.39C31.0649 120.987 33.1944 120.124 35.3003 119.891C37.3682 119.663 39.4465 120.086 41.1571 121.083C42.9563 122.131 44.4081 123.82 45.3585 125.964C45.9385 127.272 46.3338 128.757 46.5363 130.378C46.5729 130.677 46.408 130.958 46.129 131.073C42.8695 132.416 39.4124 132.608 36.136 131.628C36.0863 131.614 36.0385 131.599 35.9892 131.584ZM28.4801 124.784C30.6187 127.449 33.4477 129.412 36.5079 130.319C39.3057 131.157 42.2548 131.044 45.0707 129.997C44.8708 128.708 44.5353 127.524 44.0709 126.477C43.2436 124.609 41.9964 123.151 40.4639 122.256C39.0248 121.416 37.2617 121.06 35.5004 121.256C33.6355 121.461 31.737 122.236 30.0089 123.498C29.4925 123.875 28.9791 124.307 28.4801 124.784Z" fill="black"/>
<path d="M-3.62393 251.361C-4.48324 251.095 -5.33322 250.804 -6.17296 250.484C-7.6319 249.93 -8.38868 248.342 -7.86575 246.936C-7.34281 245.529 -5.73601 244.841 -4.27821 245.392C6.61644 249.526 19.444 248.498 29.1971 242.711C30.5019 241.936 32.2367 242.36 33.0711 243.657C33.9055 244.954 33.5235 246.634 32.2188 247.409C21.7844 253.599 8.28402 255.042 -3.62393 251.361Z" fill="#242424"/>
<path d="M37.4615 241.801C36.9781 241.651 36.5254 241.374 36.1594 240.975C35.1048 239.819 35.1814 238.077 36.3298 237.082L38.2974 235.38C39.4474 234.386 41.235 234.516 42.2896 235.671C43.3442 236.826 43.2676 238.569 42.1192 239.564L40.1516 241.266C39.4005 241.915 38.3755 242.084 37.4615 241.801Z" fill="#242424"/>
<path d="M20.6149 58.44C20.4516 58.3893 20.2908 58.3243 20.1346 58.2437C18.7359 57.5243 18.1629 55.8503 18.8572 54.5068C25.3772 41.8582 39.058 33.3355 53.7122 32.7938C55.2687 32.7371 56.6198 33.9253 56.7287 35.4486C56.8377 36.9719 55.6617 38.254 54.1047 38.3122C41.4152 38.7818 29.5683 46.1622 23.9223 57.1137C23.3076 58.3061 21.9021 58.8391 20.6149 58.44Z" fill="#FF967C"/>
<path d="M67.1617 39.3744C66.5839 39.1955 66.0542 38.8365 65.6717 38.3149C65.4797 38.0538 65.0078 37.8925 64.6989 37.9851C63.2277 38.4233 61.6341 37.6022 61.1395 36.1502C60.6444 34.6998 61.4364 33.1691 62.9092 32.7314C65.5541 31.9442 68.5526 32.9618 70.2038 35.2087C71.1217 36.4574 70.8525 38.1651 69.6008 39.0242C68.8691 39.5234 67.9671 39.6238 67.1617 39.3744Z" fill="#FF967C"/>
</svg>
