<svg width="177" height="355" viewBox="0 0 177 355" fill="none" xmlns="http://www.w3.org/2000/svg">
<path d="M147.402 309.767C147.242 309.818 147.062 309.803 146.913 309.711C146.644 309.545 146.574 309.192 146.757 308.92C151.367 302.074 155.741 294.026 159.973 286.242C160.87 284.59 161.765 282.944 162.658 281.315C162.815 281.029 163.174 280.911 163.458 281.052C163.744 281.19 163.847 281.536 163.692 281.821C162.799 283.448 161.905 285.093 161.008 286.743C156.763 294.552 152.374 302.626 147.732 309.52C147.651 309.641 147.532 309.725 147.402 309.767Z" fill="black"/>
<path d="M145.772 304.38C144.156 303.127 142.405 301.819 140.15 302.099C139.019 302.239 137.974 302.91 137.535 303.951C136.854 305.567 137.961 306.936 139.037 308.02C140.668 309.665 142.215 311.151 144.213 312.36C145.438 313.103 146.628 313.066 149.122 310.809C150.019 309.998 150.101 308.653 149.305 307.819C148.148 306.609 146.563 304.993 145.772 304.38Z" fill="#FF339C"/>
<path d="M146.499 313.216C145.568 313.511 144.745 313.377 143.882 312.855C141.812 311.601 140.203 310.047 138.603 308.434C137.36 307.18 136.195 305.643 136.992 303.756C137.497 302.559 138.69 301.704 140.104 301.529C142.655 301.213 144.595 302.716 146.154 303.924C146.967 304.553 148.555 306.171 149.745 307.416C150.235 307.931 150.481 308.613 150.437 309.334C150.393 310.054 150.064 310.726 149.511 311.225C148.334 312.287 147.37 312.94 146.499 313.216ZM139.652 302.791C138.928 303.021 138.349 303.513 138.08 304.15C137.545 305.419 138.432 306.562 139.471 307.609C141.023 309.173 142.577 310.675 144.54 311.865C145.41 312.392 146.271 312.619 148.731 310.395C149.045 310.111 149.232 309.729 149.257 309.318C149.284 308.905 149.143 308.517 148.863 308.223C147.219 306.5 145.986 305.299 145.393 304.84C143.926 303.703 142.265 302.416 140.198 302.673C140.009 302.696 139.827 302.736 139.652 302.791Z" fill="black"/>
<path d="M77.7798 223.568C77.3692 223.698 76.9387 223.78 76.4871 223.803C75.3454 223.861 74.1449 223.527 72.9216 222.807C70.5253 221.401 68.745 218.959 67.2648 216.781C63.759 211.625 60.6627 206.064 58.0615 200.255C57.9337 199.968 58.073 199.623 58.3728 199.484C58.673 199.346 59.0203 199.464 59.1481 199.75C61.7238 205.502 64.7893 211.006 68.2599 216.112C69.674 218.192 71.3672 220.519 73.5664 221.811C74.5798 222.406 75.5887 222.696 76.4822 222.651C78.4204 222.551 80.2146 221.009 82.1276 217.798C83.8291 214.941 85.2642 211.851 86.3939 208.615C86.5007 208.309 86.8371 208.135 87.1452 208.223C87.4536 208.312 87.6174 208.632 87.5106 208.938C86.3558 212.25 84.8843 215.412 83.1416 218.34C81.9858 220.284 80.2356 222.788 77.7798 223.568Z" fill="black"/>
<path d="M58.3719 184.976C58.8882 180.5 56.1777 175.997 51.9814 174.362C50.9783 173.971 49.6549 173.802 48.8964 174.613C48.2096 175.346 48.3745 176.459 48.584 177.396C49.0541 179.492 49.5255 181.588 49.9956 183.685C51.0583 188.42 46.661 188.944 44.1637 192.261C42.786 194.09 42.1879 197.127 42.453 199.279C44.1083 212.687 51.8776 212.071 59.9412 208.22C62.8045 206.853 66.3046 204.436 66.8152 201.968C67.7519 197.449 63.2862 185.01 58.3719 184.976Z" fill="#FF339C"/>
<path d="M56.1398 210.363C52.606 211.483 49.7662 211.468 47.5254 210.329C44.4333 208.759 42.5828 205.175 41.8666 199.375C41.6028 197.233 42.144 193.989 43.6927 191.934C44.5857 190.748 45.7089 189.897 46.6991 189.146C48.6375 187.677 50.0383 186.615 49.4148 183.838L48.0036 177.55C47.8384 176.813 47.493 175.278 48.4666 174.239C49.2725 173.38 50.6762 173.226 52.2228 173.829C56.499 175.496 59.2799 179.903 59.0071 184.457C60.2239 184.671 61.4358 185.502 62.6142 186.936C65.7438 190.741 68.1539 198.371 67.3896 202.056C66.8411 204.703 63.3029 207.243 60.1754 208.737C58.741 209.422 57.3964 209.964 56.1398 210.363ZM49.8108 174.702C49.6234 174.761 49.4569 174.858 49.3263 174.997C48.8538 175.501 48.9692 176.377 49.1648 177.25L50.576 183.538C51.3626 187.044 49.3481 188.571 47.3987 190.047C46.4278 190.784 45.4239 191.543 44.6378 192.589C43.2948 194.373 42.8154 197.316 43.0452 199.181C43.7045 204.518 45.409 207.922 48.112 209.296C50.7995 210.662 54.5908 210.139 59.6972 207.7C62.4223 206.398 65.769 204.092 66.2276 201.879C66.9654 198.316 64.2884 190.863 61.6749 187.685C60.5359 186.301 59.3808 185.565 58.3356 185.558C58.1721 185.558 58.0201 185.49 57.9145 185.373C57.8088 185.257 57.7592 185.1 57.7782 184.941C58.2616 180.751 55.6653 176.437 51.7368 174.906C51.122 174.666 50.3689 174.525 49.8108 174.702Z" fill="black"/>
<path d="M57.0156 189.262C56.8637 189.31 56.6951 189.3 56.549 189.221C56.2704 189.068 56.181 188.717 56.3527 188.437C57.0378 187.311 57.3265 186.285 57.5714 184.995C57.6313 184.678 57.9404 184.457 58.2623 184.501C58.5842 184.544 58.7957 184.835 58.7358 185.152C58.4664 186.571 58.1423 187.708 57.364 188.989C57.281 189.124 57.1554 189.218 57.0156 189.262Z" fill="black"/>
<path d="M55.6562 209.692C56.6427 208.752 57.3273 207.951 57.7103 207.289C58.0919 206.627 58.2209 205.623 57.9294 204.798C57.5958 203.853 56.4292 203.127 54.7474 203.338C53.2905 203.519 52.0375 204.333 49.7767 205.324C51.4646 204.615 54.755 202.895 55.9096 201.484C56.4229 200.857 56.8852 200.094 56.7692 199.324C56.6993 198.856 56.4178 198.449 56.0801 198.122C55.1023 197.175 53.6458 196.808 52.2336 196.844C50.8214 196.88 47.2816 197.687 45.9127 198.094C47.2929 197.64 50.7403 196.547 52.0662 195.946C53.601 195.25 55.3133 194.137 55.3596 192.514C55.3982 191.169 54.1618 190.13 52.8355 189.833C50.8149 189.38 49.0501 190.072 47.6981 190.394C45.3156 190.962 42.5162 192.008 40.919 192.977C39.9315 193.576 39.1335 194.524 38.7517 195.588C38.3703 196.653 38.5932 197.957 39.513 198.57C40.2674 199.071 41.279 199.014 42.2137 198.939C40.9317 199.509 39.8607 201.129 39.628 202.471C39.395 203.812 39.9102 205.22 40.9444 206.067C42.6098 207.431 45.2015 207.187 47.26 206.257C46.5168 207.018 45.4573 207.887 45.1305 208.877C44.8037 209.867 44.8497 210.995 45.4359 211.819C46.0512 212.683 47.1705 213.097 48.2708 213.129C49.3702 213.162 50.5189 212.746 51.5351 212.276C52.7573 211.712 54.5328 210.762 55.6562 209.692Z" fill="#FF339C"/>
<path d="M50.3143 213.369C49.6626 213.576 48.9418 213.726 48.2243 213.704C46.8297 213.663 45.6035 213.086 44.9461 212.161C44.2989 211.252 44.1578 209.967 44.5694 208.722C44.7193 208.27 44.9835 207.853 45.296 207.466C43.6552 207.767 41.8898 207.609 40.5545 206.515C39.3728 205.547 38.7805 203.932 39.0479 202.4C39.2067 201.489 39.7302 200.383 40.5093 199.524C40.0444 199.463 39.58 199.326 39.1679 199.051C37.9641 198.251 37.7687 196.619 38.198 195.42C38.6217 194.238 39.5079 193.169 40.6289 192.489C42.2481 191.507 45.0445 190.437 47.5874 189.832C47.8166 189.778 48.0587 189.712 48.3116 189.643C49.5898 189.295 51.1825 188.863 52.9959 189.269C54.5017 189.605 56.0004 190.824 55.9522 192.501C55.9094 193.958 54.8221 195.224 52.7162 196.267C54.2631 196.318 55.5964 196.819 56.5074 197.702C56.9891 198.169 57.2748 198.677 57.3553 199.212C57.4754 200.012 57.1513 200.868 56.3651 201.83C56.1273 202.12 55.8107 202.42 55.4398 202.722C57.0945 202.749 58.1502 203.626 58.4892 204.585C58.8182 205.514 58.7098 206.707 58.2225 207.551C57.8056 208.273 57.0976 209.105 56.0593 210.093C54.7828 211.308 52.8223 212.307 51.7684 212.792C51.3608 212.981 50.8624 213.195 50.3143 213.369ZM47.1034 205.706C47.3466 205.629 47.61 205.709 47.7531 205.91C47.9105 206.131 47.8797 206.437 47.6791 206.642C47.532 206.793 47.3737 206.946 47.2098 207.105C46.6016 207.698 45.9105 208.368 45.6937 209.027C45.3953 209.931 45.4822 210.844 45.9277 211.47C46.3855 212.114 47.2787 212.517 48.3168 212.547C49.3799 212.578 50.5294 212.109 51.3021 211.752C52.0943 211.387 54.0638 210.415 55.2518 209.284C56.1889 208.393 56.8436 207.631 57.1946 207.021C57.5165 206.464 57.5877 205.636 57.366 205.008C57.127 204.33 56.2382 203.728 54.7914 203.908C53.8627 204.023 52.9876 204.442 51.776 205.021C51.6097 205.101 51.4358 205.184 51.2551 205.27C50.7886 205.498 50.3554 205.695 49.9852 205.851C49.683 205.978 49.3421 205.847 49.2235 205.558C49.105 205.268 49.252 204.928 49.5544 204.797C50.0309 204.588 50.4666 204.385 50.8651 204.195C52.5963 203.342 54.6494 202.115 55.4511 201.135C56.0105 200.45 56.2509 199.894 56.1811 199.432C56.1373 199.137 55.9585 198.837 55.6501 198.54C54.5943 197.515 53.0461 197.399 52.2179 197.42C50.9079 197.454 47.439 198.234 46.0584 198.644C45.7452 198.738 45.4259 198.571 45.341 198.271C45.256 197.971 45.4374 197.648 45.7484 197.547L46.4482 197.319C48.0505 196.798 50.7308 195.926 51.837 195.424C53.75 194.556 54.7351 193.581 54.7655 192.525C54.7958 191.453 53.7113 190.629 52.6751 190.397C51.152 190.056 49.7809 190.428 48.5732 190.756C48.3066 190.828 48.0523 190.898 47.8124 190.955C45.4237 191.526 42.7099 192.557 41.2158 193.464C40.3355 193.997 39.6418 194.832 39.312 195.755C39.0362 196.524 39.1367 197.602 39.8641 198.087C40.4405 198.469 41.2599 198.438 42.1943 198.363C42.4809 198.34 42.7337 198.52 42.7939 198.79C42.854 199.06 42.7038 199.344 42.4386 199.462C41.4289 199.912 40.4298 201.291 40.2127 202.539C40.0129 203.685 40.4555 204.892 41.3383 205.616C42.9016 206.896 45.3816 206.479 47.0319 205.733C47.0567 205.722 47.0805 205.713 47.1034 205.706Z" fill="black"/>
<path d="M179.1 69.7726L184.168 92.1141C195.484 92.4328 208.498 93.9909 216.298 101.738C221.751 107.152 224.502 114.62 226.887 121.927C231.407 135.772 244.335 194.987 252.079 231.143C255.472 246.989 245.096 263.089 228.806 267.258L133.278 291.71C116.988 295.88 100.847 286.566 97.0746 270.819C88.4644 234.883 74.5827 175.913 72.67 161.401C71.6616 153.743 70.9079 145.763 73.4397 138.304C77.0623 127.635 87.978 119.95 97.9163 114.191L92.8482 91.8497" fill="white"/>
<path d="M230.678 267.324C230.102 267.506 229.521 267.672 228.931 267.822L133.406 292.274C125.372 294.329 117.118 293.252 110.163 289.238C103.208 285.225 98.3535 278.738 96.492 270.973C88.2032 236.378 74.0078 176.155 72.0772 161.5C71.0684 153.841 70.298 145.727 72.8733 138.142C76.6067 127.143 87.7806 119.432 97.2373 113.92L92.2654 92.0017C92.1951 91.6885 92.4017 91.3617 92.7207 91.2866C93.0432 91.2034 93.3621 91.3902 93.4324 91.7034L98.5003 114.045C98.557 114.295 98.4362 114.56 98.2044 114.694C88.8576 120.11 77.6594 127.707 74.0063 138.468C71.5123 145.814 72.2712 153.777 73.2629 161.302C75.1877 175.906 89.3724 236.087 97.6561 270.66C99.4458 278.127 104.114 284.364 110.8 288.222C117.488 292.08 125.425 293.117 133.148 291.141L228.673 266.689C236.398 264.711 243.017 259.949 247.316 253.279C251.614 246.608 253.096 238.797 251.488 231.284C244.038 196.497 230.861 136.058 226.312 122.126C223.968 114.947 221.229 107.491 215.859 102.157C207.993 94.3452 194.766 93.0001 184.123 92.7003C183.859 92.6929 183.638 92.5163 183.581 92.264L178.513 69.9229C178.441 69.6101 178.648 69.2845 178.968 69.2078C179.291 69.1246 179.609 69.3113 179.68 69.6245L184.651 91.5419C195.433 91.8733 208.687 93.3329 216.727 101.317C222.272 106.824 225.065 114.418 227.452 121.725C232.017 135.705 245.204 196.188 252.658 230.996C254.331 238.809 252.79 246.934 248.32 253.871C244.178 260.305 237.959 265.03 230.678 267.324Z" fill="black"/>
<path d="M179.854 82.3619L176.81 69.1918L91.9261 90.5284L94.9685 103.699C102.238 102.725 174.025 83.9749 179.854 82.3619Z" fill="black"/>
<path d="M244.802 247.318C242.103 251.779 235.635 258.944 222.59 262.052C218.238 263.089 162.932 277.084 154.768 279.15C143.296 282.054 129.235 286.321 120.99 286.874C115.596 287.237 107.084 284.656 101.016 275.681C106.364 288.511 120.81 295.666 135.362 291.997L229.442 268.277C245.485 264.232 255.685 248.54 252.322 233.078C251.528 229.426 250.678 225.533 249.788 221.472C249.436 227.797 248.821 240.67 244.802 247.318Z" fill="black"/>
<path d="M187.481 73.8621L83.932 100.251C81.5849 100.849 79.262 99.4931 78.7447 97.2233L69.1976 55.3258C68.6803 53.056 70.1642 50.729 72.5118 50.1319L176.06 23.7434C178.408 23.1451 180.73 24.501 181.248 26.7708L190.795 68.6683C191.312 70.9381 189.828 73.2638 187.481 73.8621Z" fill="#444DAB"/>
<path d="M187.889 74.3365C187.798 74.3652 187.704 74.3917 187.611 74.4153L84.0546 100.808C81.3958 101.485 78.756 99.9446 78.1699 97.3736L68.6219 55.4687C68.3377 54.2237 68.5731 52.9245 69.2835 51.8112C69.9938 50.6979 71.0892 49.9034 72.3813 49.5761L175.938 23.1833C178.596 22.5055 181.236 24.0468 181.822 26.6178L191.37 68.5227C191.654 69.7695 191.42 71.0682 190.709 72.1802C190.05 73.2131 189.057 73.97 187.889 74.3365ZM72.4206 50.7402C71.5285 51.0202 70.7709 51.5984 70.268 52.3856C69.7254 53.2356 69.5466 54.2267 69.7639 55.1773L79.3118 97.0823C79.7586 99.0452 81.7746 100.221 83.8043 99.7045L187.361 73.3118C188.345 73.0614 189.184 72.4548 189.726 71.6053C190.268 70.7554 190.447 69.7643 190.231 68.8132L180.683 26.9083C180.236 24.9453 178.22 23.7692 176.191 24.2861L72.6342 50.6788C72.5615 50.6974 72.4909 50.7182 72.4206 50.7402Z" fill="black"/>
<path d="M231.844 240.529L119.394 269.327C115.249 270.388 111.15 267.989 110.238 263.968L85.5035 154.881C84.5924 150.86 87.2138 146.74 91.3579 145.678L203.809 116.88C207.954 115.819 212.053 118.218 212.965 122.239L237.699 231.326C238.611 235.348 235.99 239.468 231.844 240.529Z" fill="#AC4FFD"/>
<path d="M232.444 240.997C232.292 241.045 232.137 241.089 231.981 241.128L119.53 269.926C117.36 270.482 115.134 270.185 113.263 269.088C111.391 267.994 110.098 266.231 109.621 264.127L84.8866 155.039C83.902 150.695 86.7414 146.235 91.2227 145.08L203.674 116.282C205.843 115.726 208.07 116.023 209.941 117.12C211.813 118.215 213.106 119.977 213.583 122.083L238.317 231.17C239.268 235.362 236.653 239.67 232.444 240.997ZM91.101 146.39C87.5317 147.515 85.3154 151.167 86.1212 154.723L110.855 263.811C111.26 265.595 112.357 267.09 113.944 268.018C115.53 268.946 117.417 269.199 119.257 268.728L231.708 239.93C235.514 238.959 237.915 235.169 237.081 231.485L212.347 122.398C211.942 120.613 210.846 119.119 209.258 118.189C207.672 117.261 205.785 117.008 203.945 117.48L91.4939 146.277C91.3621 146.31 91.2305 146.349 91.101 146.39Z" fill="black"/>
<path d="M161.722 197.743C161.566 197.792 161.396 197.783 161.246 197.707L151.491 192.765C151.189 192.612 151.08 192.243 151.249 191.942C151.419 191.641 151.801 191.52 152.103 191.673L161.418 196.391L169.475 187.212C169.706 186.951 170.102 186.911 170.361 187.126C170.62 187.34 170.644 187.725 170.414 187.987L162.021 197.548C161.94 197.642 161.835 197.708 161.722 197.743Z" fill="black"/>
<path d="M92.4543 90.8197C92.4433 90.8231 92.4322 90.8265 92.4207 90.8286C92.0918 90.9109 91.7655 90.7231 91.6921 90.4105L84.1091 57.9261C84.0357 57.6135 84.2453 57.2928 84.5729 57.211C84.9018 57.1287 85.228 57.3165 85.3001 57.6295L92.8827 90.1126C92.9551 90.4169 92.7629 90.7251 92.4543 90.8197Z" fill="white"/>
<path d="M109.239 86.7736C109.227 86.777 109.216 86.7804 109.204 86.7829C108.875 86.8652 108.548 86.6774 108.476 86.3644L100.893 53.88C100.821 53.567 101.03 53.2481 101.357 53.1649C101.686 53.0826 102.012 53.2704 102.086 53.583L109.668 86.0661C109.738 86.3712 109.547 86.679 109.239 86.7736Z" fill="white"/>
<path d="M126.022 82.7286C126.011 82.732 126 82.7354 125.987 82.7379C125.658 82.8202 125.332 82.6324 125.259 82.3198L117.676 49.8354C117.602 49.5228 117.811 49.2008 118.139 49.1203C118.468 49.038 118.794 49.2258 118.867 49.5388L126.449 82.0219C126.523 82.3258 126.332 82.6335 126.022 82.7286Z" fill="white"/>
<path d="M142.807 78.682C142.796 78.6854 142.785 78.6888 142.773 78.6909C142.444 78.7732 142.118 78.5854 142.045 78.2728L134.462 45.7884C134.39 45.4754 134.602 45.1539 134.925 45.0733C135.254 44.991 135.581 45.1788 135.654 45.4914L143.237 77.9744C143.306 78.2796 143.115 78.5873 142.807 78.682Z" fill="white"/>
<path d="M159.591 74.636C159.58 74.6394 159.569 74.6428 159.558 74.6449C159.229 74.7271 158.903 74.5394 158.829 74.2268L151.246 41.7424C151.174 41.4294 151.384 41.11 151.71 41.0272C152.039 40.945 152.365 41.1328 152.439 41.4454L160.021 73.9284C160.09 74.2323 159.9 74.5413 159.591 74.636Z" fill="white"/>
<path d="M176.375 70.5899C176.364 70.5933 176.353 70.5967 176.34 70.5992C176.011 70.6815 175.685 70.4937 175.612 70.1811L168.029 37.6968C167.955 37.3841 168.167 37.0613 168.492 36.9816C168.821 36.8993 169.147 37.0871 169.221 37.3997L176.803 69.8828C176.876 70.1858 176.684 70.4953 176.375 70.5899Z" fill="white"/>
<path d="M135.308 191.119C135.943 193.947 134.085 196.853 131.157 197.61C128.229 198.367 125.34 196.687 124.704 193.859C124.069 191.031 125.927 188.125 128.855 187.368C131.783 186.611 134.672 188.29 135.308 191.119Z" fill="#FFD633"/>
<path d="M136.486 181.976C135.922 179.44 136.979 177.829 138.63 177.4C140.28 176.969 141.9 177.883 142.465 180.418C143.031 182.953 141.973 184.565 140.322 184.994C138.671 185.425 137.052 184.511 136.486 181.976Z" fill="black"/>
<path d="M180.106 174.084C180.062 174.098 180.015 174.107 179.966 174.113L166.163 175.405C165.938 175.426 165.725 175.33 165.603 175.152C165.48 174.975 165.464 174.743 165.564 174.542L171.861 161.77C172.016 161.457 172.396 161.314 172.709 161.449C173.023 161.586 173.153 161.95 172.998 162.264L167.176 174.071L179.904 172.88C180.253 172.847 180.551 173.097 180.567 173.437C180.584 173.73 180.385 173.995 180.106 174.084Z" fill="black"/>
<path d="M166.398 175.32C166.135 175.403 165.846 175.312 165.697 175.083C165.516 174.805 165.608 174.427 165.903 174.24L179.477 165.578C179.773 165.389 180.158 165.463 180.339 165.741C180.521 166.018 180.427 166.396 180.133 166.584L166.56 175.245C166.507 175.278 166.454 175.303 166.398 175.32Z" fill="black"/>
<path d="M116.541 242.797C116.496 242.811 116.452 242.823 116.406 242.834C115.11 243.162 113.825 242.416 113.54 241.169L109.541 223.789C109.254 222.542 110.075 221.267 111.369 220.939C112.666 220.611 113.95 221.357 114.236 222.605L118.236 239.984C118.512 241.187 117.759 242.418 116.541 242.797Z" fill="#FFF9B4"/>
<path d="M118.674 254.873C118.629 254.887 118.586 254.899 118.541 254.91C117.26 255.238 115.993 254.497 115.712 253.257L114.818 249.33C114.536 248.09 115.346 246.82 116.626 246.491C117.906 246.164 119.174 246.904 119.455 248.145L120.347 252.072C120.621 253.269 119.878 254.494 118.674 254.873Z" fill="#FFF9B4"/>
</svg>
