<svg width="161" height="327" viewBox="0 0 161 327" fill="none" xmlns="http://www.w3.org/2000/svg">
<path d="M106.104 217.523C105.984 217.486 105.87 217.417 105.779 217.318C100.173 211.203 94.0249 198.039 88.0786 185.31C86.1312 181.142 84.2934 177.206 82.47 173.499C82.2985 173.152 82.4455 172.743 82.7952 172.588C83.1453 172.432 83.5691 172.587 83.7385 172.935C85.5672 176.654 87.4095 180.598 89.3587 184.771C95.2591 197.402 101.36 210.463 106.815 216.416C107.079 216.704 107.061 217.139 106.774 217.388C106.588 217.552 106.332 217.594 106.104 217.523Z" fill="black"/>
<path d="M112.683 219.681C111.8 222.964 108.334 224.842 104.943 223.875C101.551 222.908 99.5178 219.461 100.401 216.178C101.284 212.894 104.751 211.016 108.142 211.984C111.535 212.95 113.567 216.396 112.683 219.681Z" fill="#4F4FFD"/>
<path d="M24.194 298.708C23.8705 298.609 23.6472 298.299 23.6791 297.962C24.5752 288.235 26.6528 277.604 28.6622 267.325C29.0869 265.154 29.5093 262.99 29.9196 260.844C29.9916 260.467 30.3656 260.226 30.7569 260.306C31.1465 260.386 31.4049 260.756 31.3325 261.134C30.9218 263.283 30.4989 265.448 30.0737 267.621C28.0704 277.867 25.9983 288.462 25.1095 298.123C25.0748 298.505 24.7262 298.78 24.3295 298.736C24.2833 298.73 24.2379 298.721 24.194 298.708Z" fill="black"/>
<path d="M29.4126 297.55C31.742 298.536 34.2114 299.628 35.2793 302.066C35.8141 303.288 35.7267 304.701 34.874 305.694C33.5509 307.231 31.4057 306.824 29.5867 306.3C26.8278 305.505 24.2905 304.712 21.7786 303.318C20.2366 302.462 19.5542 301.235 20.4661 297.519C20.7947 296.182 22.192 295.396 23.5722 295.767C25.5742 296.306 28.2732 297.069 29.4126 297.55Z" fill="#4F4FFD"/>
<path d="M10.5479 262.17C-16.4381 253.836 -32.04 225.942 -24.3001 199.868L17.1395 60.2664C24.8795 34.192 53.0303 19.811 80.0163 28.1454C107.002 36.4798 122.604 64.3735 114.864 90.4478L73.4247 230.049C65.6847 256.124 37.5339 270.505 10.5479 262.17Z" fill="#4F4FFD"/>
<path d="M42.666 147.386C36.3646 145.39 11.8698 135.825 -3.2882 128.907L-24.4078 200.332C-32.0727 226.255 -16.5621 254.004 10.236 262.312C37.0341 270.62 64.9717 256.341 72.6365 230.419L93.9281 158.411C82.8998 157.846 52.8726 150.618 42.666 147.386Z" fill="black"/>
<path d="M45.3069 147.366C30.4526 142.852 15.3141 137.303 -0.0196942 130.743C-0.40008 130.579 -0.58021 130.151 -0.421865 129.786C-0.261946 129.421 0.175715 129.258 0.556558 129.42C31.9886 142.866 62.6066 152.059 91.5603 156.742C91.9688 156.807 92.2525 157.183 92.1939 157.576C92.1352 157.97 91.7556 158.237 91.3476 158.171C76.4023 155.752 61.0147 152.14 45.3069 147.366Z" fill="white"/>
<path d="M75.2009 110.964C76.0846 107.973 78.0956 106.971 80.0358 107.573C81.9744 108.175 83.1071 110.152 82.2234 113.143C81.3398 116.135 79.3287 117.137 77.3886 116.535C75.4484 115.933 74.3168 113.957 75.2009 110.964Z" fill="black"/>
<path d="M32.3124 97.9837C33.196 94.9924 35.2087 93.991 37.1473 94.5926C39.0858 95.1941 40.2185 97.1717 39.3349 100.163C38.4513 103.154 36.4402 104.156 34.5 103.554C32.5598 102.952 31.4283 100.977 32.3124 97.9837Z" fill="black"/>
<path d="M25.452 106.937C24.4662 110.274 20.8703 112.11 17.4193 111.039C13.9683 109.968 11.9702 106.397 12.956 103.061C13.9417 99.7244 17.5376 97.8883 20.9886 98.9589C24.4397 100.03 26.4377 103.601 25.452 106.937Z" fill="#FF5233"/>
<path d="M87.468 132.242C90.9187 133.313 94.5151 131.476 95.5007 128.141C96.4863 124.805 94.4881 121.233 91.0374 120.162C87.5867 119.091 83.9903 120.928 83.0047 124.264C82.0191 127.6 84.0174 131.172 87.468 132.242Z" fill="#FF5233"/>
<path d="M43.083 111.908C42.2617 111.808 41.4148 111.731 40.6316 111.96C38.0992 112.702 37.6552 116.036 38.2325 118.594C39.5687 124.512 44.204 129.83 50.1528 131.611C56.102 133.39 62.0689 131.013 66.3435 126.241C67.6845 124.744 69.2347 121.808 67.8139 120.298C66.8682 119.293 60.0986 116.351 54.9571 114.793C51.1988 113.653 46.9225 112.375 43.083 111.908Z" fill="#A62D11"/>
<path d="M49.8242 132.225C43.8808 130.385 38.956 124.977 37.5439 118.72C36.5859 114.478 38.3567 111.9 40.4084 111.299C41.3153 111.034 42.2583 111.116 43.1466 111.225C47.1432 111.71 51.5815 113.055 55.1466 114.136C59.9139 115.589 67.1681 118.609 68.3281 119.841C70.0943 121.718 68.4306 124.972 66.8819 126.701C62.1822 131.951 55.8577 134.031 49.9663 132.268C49.9197 132.255 49.872 132.24 49.8242 132.225ZM43.0149 112.585C42.2435 112.492 41.4977 112.424 40.8496 112.613C38.6094 113.269 38.465 116.472 38.9151 118.465C40.2193 124.242 44.7496 129.229 50.2094 130.919C50.2523 130.932 50.2969 130.946 50.3398 130.959C55.6905 132.56 61.4754 130.625 65.8116 125.782C67.0856 124.36 68.3131 121.821 67.3063 120.752C66.56 119.959 60.2083 117.088 54.7662 115.443C51.2573 114.379 46.8858 113.054 43.0149 112.585Z" fill="black"/>
<path d="M58.4946 126.929C57.6781 125.086 56.3807 123.424 54.593 122.381C52.9587 121.429 51.0362 121.081 49.1861 121.285C47.0508 121.521 45.0556 122.42 43.3657 123.654C42.6388 124.185 41.968 124.78 41.3435 125.417C43.5321 128.336 46.5886 130.627 50.1078 131.68C53.3669 132.655 56.6322 132.378 59.6214 131.147C59.4387 129.701 59.0907 128.275 58.4946 126.929Z" fill="#EB5050"/>
<path d="M49.774 132.293C46.2967 131.217 43.1063 128.92 40.7767 125.81C40.5739 125.539 40.5927 125.17 40.824 124.934C41.5017 124.241 42.2105 123.624 42.9306 123.098C44.8497 121.696 46.9791 120.833 49.085 120.6C51.153 120.372 53.2312 120.795 54.9418 121.792C56.7411 122.84 58.1929 124.529 59.1433 126.673C59.7232 127.981 60.1185 129.466 60.321 131.087C60.3577 131.385 60.1927 131.667 59.9138 131.782C56.6542 133.125 53.1972 133.317 49.9208 132.337C49.871 132.323 49.8233 132.308 49.774 132.293ZM42.2649 125.493C44.4034 128.158 47.2324 130.121 50.2927 131.028C53.0905 131.866 56.0395 131.753 58.8555 130.706C58.6555 129.416 58.3201 128.233 57.8557 127.186C57.0283 125.318 55.7811 123.86 54.2486 122.965C52.8095 122.125 51.0465 121.769 49.2852 121.965C47.4202 122.17 45.5217 122.945 43.7936 124.207C43.2773 124.584 42.7638 125.016 42.2649 125.493Z" fill="black"/>
<path d="M10.161 252.07C9.3017 251.804 8.45172 251.513 7.61198 251.193C6.15304 250.639 5.39626 249.051 5.91919 247.645C6.44213 246.238 8.04893 245.55 9.50673 246.101C20.4014 250.235 33.229 249.207 42.9821 243.42C44.2868 242.645 46.0216 243.069 46.8561 244.366C47.6905 245.663 47.3085 247.343 46.0037 248.118C35.5694 254.308 22.069 255.751 10.161 252.07Z" fill="#242424"/>
<path d="M51.2463 242.51C50.7629 242.36 50.3101 242.083 49.9441 241.684C48.8895 240.528 48.9661 238.786 50.1146 237.791L52.0821 236.089C53.2321 235.095 55.0197 235.225 56.0743 236.38C57.1289 237.535 57.0524 239.278 55.9039 240.273L53.9364 241.975C53.1852 242.624 52.1602 242.793 51.2463 242.51Z" fill="#242424"/>
<path d="M34.3997 59.149C34.2364 59.0983 34.0756 59.0333 33.9194 58.9527C32.5207 58.2332 31.9477 56.5593 32.642 55.2158C39.162 42.5672 52.8427 34.0444 67.497 33.5028C69.0535 33.4461 70.4045 34.6343 70.5135 36.1576C70.6224 37.6809 69.4464 38.963 67.8894 39.0212C55.2 39.4908 43.3531 46.8711 37.707 57.8227C37.0924 59.0151 35.6869 59.5481 34.3997 59.149Z" fill="#7C85FF"/>
<path d="M80.9467 40.0834C80.3689 39.9045 79.8392 39.5455 79.4567 39.0238C79.2646 38.7627 78.7928 38.6015 78.4839 38.694C77.0127 39.1323 75.4191 38.3112 74.9245 36.8592C74.4294 35.4088 75.2214 33.8781 76.6942 33.4404C79.3391 32.6531 82.3376 33.6708 83.9888 35.9177C84.9067 37.1664 84.6375 38.8741 83.3858 39.7332C82.6541 40.2324 81.7521 40.3328 80.9467 40.0834Z" fill="#7C85FF"/>
</svg>
