<svg width="210" height="348" viewBox="0 0 210 348" fill="none" xmlns="http://www.w3.org/2000/svg">
<path d="M114.932 178.502C114.646 178.42 114.421 178.18 114.377 177.878C114.319 177.479 114.604 177.123 115.011 177.083C131.334 175.483 154.173 172.001 163.99 160.3C172.729 149.885 175.757 124.211 176.478 116.59C176.517 116.191 176.878 115.912 177.287 115.965C177.694 116.016 177.998 116.383 177.959 116.78C177.229 124.5 174.148 150.526 165.156 161.247C155.007 173.344 131.795 176.904 115.217 178.529C115.118 178.536 115.022 178.528 114.932 178.502Z" fill="black"/>
<path d="M14.7092 294.75C18.633 296.625 22.7901 298.691 24.4583 302.929C25.2947 305.053 25.0511 307.45 23.5233 309.065C21.1546 311.571 17.509 310.697 14.4261 309.651C9.75396 308.065 5.46043 306.5 1.24927 303.916C-1.33525 302.33 -2.42396 300.184 -0.614417 293.939C0.0357944 291.692 2.48183 290.471 4.81942 291.221C8.21796 292.308 12.789 293.833 14.7092 294.75Z" fill="#FD804F"/>
<path d="M15.6562 310.783C15.1709 310.644 14.6893 310.49 14.2153 310.328C9.65391 308.78 5.19927 307.169 0.876156 304.515C-1.91624 302.8 -3.25919 300.394 -1.32428 293.709C-0.957347 292.442 -0.0946231 291.413 1.10405 290.811C2.30693 290.206 3.70626 290.108 5.02159 290.531C8.50283 291.647 13.063 293.172 15.0112 294.103C18.7182 295.875 23.3319 298.08 25.1494 302.698C26.1328 305.195 25.7222 307.825 24.0807 309.564C21.8457 311.93 18.6791 311.649 15.6562 310.783ZM4.50135 291.853C3.59281 291.593 2.6453 291.675 1.82265 292.089C0.96724 292.517 0.353016 293.251 0.0922464 294.153C-1.77779 300.611 -0.322759 302.124 1.62222 303.316C5.80683 305.886 10.1712 307.462 14.6466 308.981C17.7751 310.043 20.9451 310.726 22.9805 308.572C24.2576 307.22 24.5648 305.145 23.7808 303.156C22.1828 299.093 18.0535 297.121 14.4124 295.38C12.5428 294.487 8.0552 292.988 4.62056 291.888C4.57816 291.877 4.53998 291.864 4.50135 291.853Z" fill="black"/>
<path d="M37.06 302.147L-77.07 260.939C-98.0233 253.375 -109.413 230.88 -102.511 210.696L-47.7525 50.5751C-40.8507 30.3916 -18.2691 20.1634 2.68423 27.7281L116.814 68.9355C137.768 76.5002 149.157 98.9951 142.255 119.179L87.4967 279.3C80.5932 299.483 58.0116 309.711 37.06 302.147Z" fill="#4FA6FD"/>
<path d="M39.6041 303.775C38.6697 303.507 37.7388 303.206 36.8093 302.871L-77.3184 261.665C-98.655 253.96 -110.294 230.974 -103.267 210.421L-48.5092 50.3027C-45.104 40.3475 -37.8787 32.4398 -28.1626 28.0383C-18.4464 23.6367 -7.40659 23.267 2.93169 27L117.059 68.2068C138.396 75.911 150.035 98.8987 143.008 119.45L88.2501 279.569C81.5277 299.227 60.1229 309.645 39.6041 303.775ZM37.3085 301.414C57.812 308.819 79.9852 298.773 86.7389 279.024L141.496 118.905C148.25 99.1563 137.066 77.0669 116.564 69.6647L2.43591 28.458C-7.49662 24.8709 -18.107 25.2263 -27.4433 29.4553C-36.7796 33.6843 -43.722 41.2826 -46.9945 50.8485L-101.752 210.967C-108.506 230.716 -97.3214 252.806 -76.8192 260.208L37.3085 301.414Z" fill="black"/>
<path d="M64.9829 294.361C58.6572 297.789 48.5375 299.251 34.3583 295.486C30.1573 294.37 25.8862 292.593 -19.2625 276.517C-64.4112 260.441 -84.3347 251.901 -88.7686 248.475C-93.3806 244.911 -97.0164 241.976 -100.278 233.387C-101.85 229.248 -102.897 226.078 -101.943 213.898C-109.703 234.11 -98.26 255.327 -77.6187 262.676L34.8117 302.709C55.4529 310.059 77.7296 300.03 84.5673 280.308L88.0779 270.187C80.8422 283.867 71.8283 290.649 64.9829 294.361Z" fill="black"/>
<path d="M10.4092 82.2621C7.17046 91.7798 -3.51804 96.5671 -13.4631 92.9566C-23.4098 89.3456 -28.8466 78.7032 -25.6083 69.1871C-22.3695 59.6694 -11.681 54.8821 -1.73598 58.4926C8.20904 62.1031 13.648 72.7444 10.4092 82.2621Z" fill="#42FFD9"/>
<path d="M-12.3418 94.069C-12.7938 93.9386 -13.2436 93.7931 -13.6943 93.6299C-24.0117 89.8839 -29.6736 78.8044 -26.3133 68.9304C-22.9535 59.058 -11.8231 54.0749 -1.50699 57.8187C8.81043 61.5646 14.4723 72.6442 11.1121 82.5182C7.89863 91.9593 -2.42124 96.9317 -12.3418 94.069ZM-3.21514 58.7586C-12.391 56.1109 -21.9332 60.7083 -24.905 69.4416C-28.0126 78.5725 -22.7766 88.818 -13.2341 92.2827C-3.69109 95.7458 6.59992 91.1373 9.70581 82.0059C12.8134 72.8749 7.57747 62.6294 -1.96509 59.1647C-2.38067 59.0134 -2.79875 58.8787 -3.21514 58.7586Z" fill="black"/>
<path d="M-28.9215 141.289C-29.3734 141.158 -29.8233 141.013 -30.2719 140.848C-40.5893 137.102 -46.2512 126.023 -42.8909 116.149C-41.2635 111.366 -37.7868 107.576 -33.102 105.477C-28.4172 103.378 -23.0862 103.222 -18.0862 105.037C-13.0879 106.851 -9.02274 110.42 -6.63898 115.084C-4.2552 119.749 -3.83928 124.952 -5.4671 129.736C-8.67929 139.179 -19.0009 144.151 -28.9215 141.289ZM-19.81 105.974C-24.0569 104.748 -28.4939 105.028 -32.4332 106.792C-36.7658 108.733 -39.9813 112.238 -41.4863 116.661C-44.5935 125.79 -39.358 136.037 -29.8154 139.502C-20.2745 142.966 -9.98309 138.356 -6.87551 129.225C-5.37044 124.802 -5.75507 119.991 -7.96039 115.676C-10.164 111.362 -13.9238 108.062 -18.5464 106.384C-18.9641 106.234 -19.3852 106.096 -19.81 105.974Z" fill="black"/>
<path d="M113.487 118.454C110.248 127.971 99.5597 132.759 89.6147 129.148C79.668 125.537 74.2312 114.895 77.4696 105.379C80.7083 95.8608 91.3968 91.0735 101.342 94.684C111.289 98.2934 116.726 108.936 113.487 118.454Z" fill="#42FFD9"/>
<path d="M90.7358 130.262C90.2839 130.131 89.834 129.986 89.3837 129.821C79.0646 126.075 73.4044 114.996 76.7647 105.121C78.3921 100.339 81.8688 96.5492 86.5536 94.4501C91.2384 92.351 96.5694 92.1944 101.571 94.0098C106.569 95.8243 110.635 99.3928 113.018 104.057C115.402 108.722 115.818 113.927 114.19 118.709C110.978 128.153 100.656 133.124 90.7358 130.262ZM99.8494 94.9458C95.6009 93.7199 91.1655 94.0004 87.2262 95.7642C82.8936 97.7045 79.6782 101.21 78.1731 105.633C75.0655 114.764 80.3014 125.009 89.844 128.474C99.3899 131.94 109.676 127.328 112.784 118.197C114.289 113.774 113.904 108.963 111.699 104.648C109.495 100.334 105.736 97.0339 101.113 95.3559C100.694 95.2051 100.273 95.0679 99.8494 94.9458Z" fill="black"/>
<path d="M63.7487 260.116C60.51 269.633 49.8215 274.421 39.8764 270.81C29.9297 267.199 24.4929 256.557 27.7313 247.041C30.97 237.523 41.6585 232.736 51.6036 236.346C61.5486 239.957 66.9871 250.6 63.7487 260.116Z" fill="#42FFD9"/>
<path d="M41.0125 271.929C40.5538 271.796 40.0993 271.648 39.6452 271.484C29.3278 267.738 23.6659 256.658 27.0262 246.784C30.386 236.912 41.5101 231.925 51.8326 235.672C56.8309 237.487 60.896 241.055 63.2798 245.72C65.6635 250.385 66.079 255.589 64.4516 260.372C62.8242 265.155 59.3476 268.944 54.6628 271.043C50.4025 272.95 45.6046 273.254 41.0125 271.929ZM50.1096 236.606C45.8627 235.381 41.4257 235.661 37.4864 237.425C33.1538 239.365 29.9384 242.87 28.4333 247.293C25.3257 256.424 30.5616 266.67 40.1041 270.134C49.6412 273.599 59.9365 268.988 63.0441 259.857C64.5492 255.434 64.1645 250.623 61.9592 246.309C59.7556 241.995 55.9957 238.694 51.3732 237.016C50.9555 236.866 50.5328 236.728 50.1096 236.606Z" fill="black"/>
<path d="M96.9074 165.672C93.6686 175.19 82.9801 179.977 73.0351 176.367C63.0884 172.756 57.6516 162.113 60.89 152.597C64.1287 143.08 74.8172 138.292 84.7623 141.903C94.709 145.514 100.146 156.156 96.9074 165.672Z" fill="#42FFD9"/>
<path d="M74.1727 177.487C73.714 177.355 73.2595 177.206 72.8054 177.042C67.8071 175.227 63.7419 171.659 61.3582 166.994C58.9744 162.33 58.5585 157.127 60.1864 152.342C61.8138 147.56 65.2904 143.77 69.9752 141.671C74.66 139.572 79.9944 139.416 84.9928 141.231C95.3102 144.977 100.972 156.056 97.6118 165.93C95.9844 170.713 92.5078 174.503 87.823 176.602C83.5627 178.509 78.7648 178.812 74.1727 177.487ZM83.2698 142.165C79.0229 140.939 74.5863 141.217 70.6466 142.983C66.314 144.923 63.0986 148.428 61.5935 152.851C60.0884 157.275 60.473 162.086 62.6783 166.4C64.882 170.714 68.6418 174.015 73.2643 175.693C77.8865 177.372 82.8182 177.226 87.1512 175.284C91.4837 173.344 94.6992 169.839 96.2043 165.416C99.3119 156.285 94.076 146.039 84.5334 142.575C84.114 142.424 83.693 142.287 83.2698 142.165Z" fill="black"/>
<path d="M81.9324 213.456C78.6936 222.974 68.005 227.761 58.06 224.151C48.1133 220.54 42.6765 209.898 45.9149 200.381C49.1536 190.864 59.8421 186.076 69.7872 189.687C79.7343 193.296 85.1711 203.939 81.9324 213.456Z" fill="#42FFD9"/>
<path d="M59.1817 225.264C58.7298 225.133 58.2799 224.988 57.8292 224.824C47.5118 221.078 41.8499 209.999 45.2101 200.125C48.57 190.252 59.6923 185.265 70.0165 189.013C80.334 192.759 85.9959 203.839 82.6356 213.713C79.4234 223.156 69.1023 228.126 59.1817 225.264ZM68.3084 189.953C59.1325 187.305 49.5903 191.903 46.6186 200.636C43.511 209.767 48.7469 220.013 58.2894 223.477C67.8219 226.939 78.1218 222.331 81.2293 213.2C84.3369 204.069 79.101 193.824 69.5584 190.359C69.1424 190.21 68.7265 190.074 68.3084 189.953Z" fill="black"/>
<path d="M151.654 94.8942C151.492 97.1433 152.225 100.252 154.716 102.236C156.288 103.489 158.192 104.149 160.149 104.481C161.439 104.702 162.329 105.916 162.114 107.155C161.696 109.574 162.122 112.01 163.565 114.305C167.212 120.102 175.628 126.47 182.839 125.549C186.879 125.033 190.46 122.376 192.001 118.748C192.639 117.248 192.95 115.602 193.765 114.191C195.826 110.624 200.629 109.31 202.63 105.64C202.9 105.144 203.068 104.588 203.051 104.017C202.962 101.141 198.906 100.628 196.647 101.987C194.514 103.27 193.031 105.494 190.679 106.373C192.824 103.069 194.479 99.4516 195.576 95.6576C195.977 94.2741 196.304 92.7839 195.62 91.3806C195.271 90.6646 194.632 90.078 193.848 89.8905C192.48 89.5626 191.495 90.5284 190.672 91.4191C188.591 93.6679 186.513 95.9155 184.432 98.1643C185.945 94.8247 186.892 91.2224 187.215 87.5384C187.301 86.5574 187.113 85.5411 186.551 84.6958C184.922 82.2482 181.926 83.3231 180.676 85.1873C179.665 86.6967 179.42 88.5799 178.863 90.3124C177.502 94.5412 174.081 98.0125 169.799 99.5032C170.877 95.2089 170.538 92.3014 168.544 89.3282C167.533 87.8204 165.875 86.2148 163.414 85.4151C160.376 84.4282 157.382 84.9934 155.238 87.1802C153.117 89.3476 151.872 91.8526 151.654 94.8942ZM158.313 92.1833C159.192 91.0961 160.041 90.4272 161.271 90.5532C162.962 90.7251 164.323 92.2467 164.502 93.893C164.68 95.5394 164.184 97.4203 162.447 98.6627C160.399 100.128 157.988 98.5232 157.192 97.1156C156.179 95.3246 157.069 93.7249 158.313 92.1833Z" fill="#FD804F"/>
<path d="M177.34 125.736C171.607 124.085 165.914 119.396 162.938 114.663C161.439 112.281 160.916 109.705 161.383 107.007C161.455 106.597 161.352 106.18 161.096 105.834C160.843 105.492 160.472 105.264 160.052 105.192C157.682 104.788 155.788 104.002 154.262 102.786C151.529 100.608 150.742 97.2399 150.915 94.8127C151.136 91.7022 152.372 89.0406 154.691 86.6757C156.976 84.3445 160.233 83.6373 163.615 84.739C166.477 85.668 168.207 87.5473 169.154 88.9601C171.026 91.7499 171.541 94.5306 170.826 98.299C174.302 96.6787 176.993 93.6852 178.154 90.0731C178.309 89.5878 178.444 89.0742 178.575 88.5784C178.914 87.2835 179.267 85.9452 180.047 84.7789C180.969 83.4007 182.612 82.5091 184.135 82.561C185.357 82.6025 186.429 83.2305 187.161 84.3305C187.784 85.2664 188.056 86.4117 187.948 87.6391C187.731 90.0939 187.251 92.4954 186.514 94.8176L190.11 90.931C190.864 90.1162 192.123 88.7532 193.99 89.2005C194.959 89.4308 195.811 90.1436 196.282 91.1055C197.087 92.7548 196.706 94.4404 196.286 95.89C195.461 98.7379 194.335 101.478 192.925 104.068C193.18 103.849 193.434 103.62 193.69 103.389C194.476 102.68 195.291 101.947 196.238 101.378C197.928 100.36 200.346 100.274 201.985 101.172C203.111 101.787 203.752 102.805 203.792 104.037C203.812 104.684 203.639 105.367 203.289 106.008C202.198 108.009 200.365 109.331 198.593 110.61C196.928 111.811 195.356 112.946 194.414 114.575C193.953 115.371 193.663 116.258 193.356 117.195C193.155 117.808 192.948 118.444 192.686 119.057C191.055 122.893 187.241 125.725 182.968 126.27C181.153 126.497 179.244 126.283 177.34 125.736ZM160.597 103.857C161.272 104.051 161.861 104.46 162.284 105.031C162.782 105.705 162.98 106.513 162.843 107.309C162.437 109.653 162.891 111.89 164.19 113.955C168.956 121.531 177.516 125.505 182.712 124.842C186.496 124.358 189.876 121.851 191.319 118.452C191.557 117.89 191.748 117.31 191.949 116.697C192.264 115.735 192.59 114.739 193.12 113.822C194.206 111.944 195.972 110.669 197.678 109.437C199.402 108.192 201.032 107.016 201.976 105.285C202.211 104.856 202.327 104.415 202.315 104.011C202.293 103.305 201.953 102.768 201.307 102.414C200.151 101.784 198.286 101.868 197.056 102.609C196.222 103.111 195.492 103.769 194.718 104.465C193.611 105.462 192.465 106.493 190.97 107.052C190.674 107.162 190.33 107.07 190.12 106.825C189.908 106.579 189.879 106.234 190.048 105.976C192.161 102.722 193.782 99.1778 194.863 95.4398C195.227 94.1834 195.533 92.8578 194.952 91.6707C194.683 91.1208 194.219 90.7167 193.7 90.5953C192.758 90.369 191.993 91.0934 191.227 91.9203L184.987 98.666C184.748 98.923 184.345 98.964 184.037 98.7618C183.728 98.5596 183.607 98.1742 183.751 97.8566C185.241 94.5711 186.157 91.0698 186.478 87.451C186.533 86.8217 186.484 85.8994 185.935 85.0719C185.476 84.3838 184.879 84.0233 184.156 83.9981C183.129 83.9637 181.954 84.6241 181.299 85.6049C180.644 86.5841 180.336 87.7557 180.01 88.9971C179.875 89.5108 179.734 90.0439 179.567 90.5622C178.135 95.0182 174.586 98.617 170.075 100.187C169.819 100.277 169.525 100.215 169.315 100.03C169.106 99.8446 169.015 99.5657 169.08 99.3073C170.118 95.1769 169.796 92.4849 167.932 89.7061C167.121 88.498 165.644 86.8906 163.209 86.1003C160.379 85.1801 157.675 85.7625 155.782 87.6926C153.697 89.8199 152.586 92.2036 152.388 94.9792C152.24 97.0372 152.893 99.8819 155.165 101.692C156.477 102.738 158.136 103.42 160.238 103.776C160.362 103.796 160.48 103.823 160.597 103.857ZM159.575 99.7972C158.179 99.395 157.058 98.3415 156.548 97.4398C155.3 95.2323 156.441 93.3107 157.724 91.7227C158.555 90.6932 159.631 89.6662 161.314 89.8372C163.292 90.0392 165.014 91.8029 165.236 93.8504C165.474 96.0492 164.623 98.0181 162.901 99.2494C161.977 99.9088 160.896 100.117 159.772 99.8488C159.706 99.8331 159.639 99.8157 159.575 99.7972ZM158.9 92.6438C157.456 94.4328 157.155 95.5962 157.833 96.7938C158.189 97.4227 159.033 98.2115 160.058 98.4546C160.757 98.6211 161.407 98.4945 161.99 98.0786C163.854 96.7454 163.853 94.7369 163.766 93.9359C163.618 92.5702 162.503 91.3984 161.226 91.2673C160.407 91.1833 159.777 91.5561 158.9 92.6438Z" fill="black"/>
<path d="M158.311 93.0694C156.835 91.9272 155.831 91.0166 154.445 89.7725L158.311 93.0694Z" fill="#FD804F"/>
<path d="M158.137 93.7617C158.044 93.7352 157.955 93.6904 157.874 93.6272C156.443 92.5176 155.432 91.6066 154.151 90.4535L153.957 90.278C153.652 90.0034 153.622 89.5509 153.891 89.2676C154.16 88.9843 154.624 88.9773 154.929 89.2503L155.123 89.4258C156.429 90.6016 157.373 91.4517 158.759 92.5259C159.084 92.7769 159.149 93.2273 158.903 93.5312C158.721 93.7613 158.416 93.8419 158.137 93.7617Z" fill="black"/>
<path d="M12.8495 105.799C12.5692 105.719 12.3442 105.483 12.299 105.184C12.2391 104.788 12.5175 104.431 12.9223 104.389L25.8576 103.035L16.8076 92.919C16.5338 92.6127 16.5565 92.1579 16.8591 91.9026C17.1618 91.6472 17.6285 91.6878 17.904 91.9946L27.8823 103.147C28.0647 103.352 28.1218 103.633 28.03 103.881C27.9381 104.128 27.7117 104.3 27.443 104.328L13.14 105.826C13.0382 105.834 12.9407 105.825 12.8495 105.799Z" fill="black"/>
<path d="M83.128 114.817C81.6262 114.388 80.6547 112.899 80.9389 111.402C82.2907 104.248 88.666 98.5278 96.0987 97.7986C97.7216 97.6397 99.2228 98.803 99.4515 100.394C99.6798 101.987 98.5501 103.408 96.9272 103.567C92.032 104.047 87.6682 107.963 86.7786 112.674C86.4832 114.235 84.9365 115.217 83.3251 114.865C83.2573 114.853 83.1925 114.836 83.128 114.817Z" fill="#C5FFF3"/>
<path d="M66.5854 161.933C65.0836 161.503 64.1137 160.015 64.3962 158.517C65.7481 151.363 72.1234 145.643 79.5561 144.914C81.179 144.755 82.6802 145.918 82.9085 147.511C83.1368 149.104 82.0054 150.525 80.3825 150.684C75.4873 151.164 71.124 155.078 70.2339 159.79C69.9385 161.351 68.3935 162.333 66.7799 161.983C66.7147 161.968 66.6498 161.951 66.5854 161.933Z" fill="#C5FFF3"/>
<path d="M50.041 209.05C48.5392 208.62 47.5676 207.132 47.8518 205.634C49.2037 198.481 55.579 192.76 63.0116 192.031C64.6346 191.872 66.1358 193.035 66.3645 194.627C66.5927 196.22 65.4631 197.641 63.8385 197.799C58.9433 198.279 54.5799 202.194 53.6899 206.906C53.3945 208.467 51.8478 209.449 50.2359 209.098C50.1702 209.085 50.1054 209.068 50.041 209.05Z" fill="#C5FFF3"/>
<path d="M33.4983 256.168C31.9965 255.738 31.0266 254.25 31.3091 252.752C32.661 245.598 39.0363 239.878 46.4689 239.149C48.0923 238.988 49.5931 240.153 49.8213 241.746C50.0496 243.339 48.9199 244.76 47.2953 244.919C42.4001 245.399 38.0368 249.313 37.1467 254.025C36.8513 255.586 35.3047 256.568 33.6928 256.218C33.6275 256.203 33.5627 256.186 33.4983 256.168Z" fill="#C5FFF3"/>
<path d="M6.68728 107.58C5.51728 111.009 1.67275 112.739 -1.90109 111.446C-5.47449 110.15 -7.42392 106.321 -6.25519 102.89C-5.0852 99.4613 -1.24066 97.7305 2.33317 99.0242C5.90658 100.319 7.85769 104.149 6.68728 107.58Z" fill="#FF5233"/>
<path d="M79.0088 132.971C77.8388 136.4 73.9943 138.131 70.4205 136.837C66.8471 135.542 64.8976 131.713 66.0664 128.282C67.2363 124.853 71.0809 123.122 74.6547 124.416C78.2277 125.713 80.1788 129.542 79.0088 132.971Z" fill="#FF5233"/>
<path d="M35.7179 132.904C34.3083 132.502 32.9461 131.683 31.7127 130.47C28.7407 127.545 27.4078 121.27 27.4068 116.35C27.4058 115.954 27.7357 115.645 28.1417 115.66C28.5457 115.676 28.8772 116.01 28.8783 116.406C28.8801 120.874 30.0876 126.869 32.738 129.478C34.9734 131.679 37.5787 132.315 40.0754 131.269C42.4783 130.265 44.9491 126.546 47.0472 123.043C47.249 122.707 47.6965 122.605 48.0511 122.816C48.4041 123.026 48.5265 123.469 48.3251 123.804C45.9998 127.685 43.4685 131.435 40.7003 132.593C39.0612 133.281 37.3577 133.373 35.7179 132.904Z" fill="black"/>
<path d="M58.5063 114.016C59.5507 110.941 61.7042 110.007 63.721 110.739C65.7361 111.471 66.8494 113.595 65.8055 116.668C64.7598 119.741 62.6076 120.677 60.5908 119.945C58.5744 119.211 57.4607 117.089 58.5063 114.016Z" fill="black"/>
<path d="M-10.8946 252.668C-10.912 252.663 -10.9294 252.659 -10.9464 252.652C-11.3464 252.511 -11.5621 252.089 -11.4283 251.711L26.1913 144.684C26.3238 144.303 26.7539 144.111 27.1561 144.251C27.5565 144.391 27.7722 144.812 27.6397 145.192L-9.97991 252.22C-10.1092 252.581 -10.5097 252.775 -10.8946 252.668Z" fill="black"/>
<path d="M75.1707 271.113C75.1018 271.093 75.0321 271.07 74.9623 271.047C73.3807 270.484 72.5239 268.8 73.0471 267.287L80.7658 245.001C81.2891 243.488 82.9884 242.714 84.5777 243.283C86.1592 243.847 87.0162 245.53 86.4929 247.043L78.7742 269.329C78.2762 270.774 76.6916 271.542 75.1707 271.113Z" fill="#7CC8FF"/>
</svg>
