<svg width="170" height="344" viewBox="0 0 170 344" fill="none" xmlns="http://www.w3.org/2000/svg">
<path d="M158.992 315.968C158.957 315.985 158.921 315.998 158.883 316.008C158.546 316.097 158.208 315.906 158.129 315.578C156.705 309.718 153.364 299.147 150.678 290.654C149.41 286.645 148.316 283.182 147.589 280.749C147.493 280.428 147.683 280.082 148.016 279.976C148.348 279.87 148.696 280.046 148.792 280.367C149.516 282.79 150.609 286.249 151.874 290.254C154.565 298.764 157.913 309.356 159.347 315.255C159.417 315.544 159.262 315.842 158.992 315.968Z" fill="black"/>
<path d="M155.44 316.834C153.54 317.971 151.531 319.218 150.898 321.458C150.581 322.581 150.826 323.793 151.683 324.547C153.013 325.716 154.823 325.103 156.337 324.428C158.632 323.404 160.735 322.408 162.745 320.895C163.978 319.966 164.422 318.821 163.187 315.716C162.742 314.599 161.438 314.088 160.286 314.578C158.617 315.29 156.37 316.279 155.44 316.834Z" fill="#FFB442"/>
<path d="M158.112 324.274C157.602 324.514 157.089 324.746 156.572 324.976C154.82 325.758 152.82 326.372 151.264 325.004C150.276 324.135 149.909 322.721 150.306 321.318C151.023 318.783 153.304 317.417 155.137 316.32C156.092 315.748 158.345 314.754 160.066 314.023C160.776 313.72 161.554 313.706 162.254 313.982C162.951 314.258 163.487 314.787 163.761 315.475C164.966 318.504 164.79 320.101 163.108 321.368C161.5 322.578 159.826 323.469 158.112 324.274ZM157.297 316.549C156.59 316.881 156.061 317.15 155.743 317.341C154.019 318.374 152.065 319.543 151.484 321.598C151.211 322.565 151.446 323.52 152.098 324.094C153.144 325.013 154.642 324.537 156.104 323.884C158.289 322.91 160.413 321.91 162.391 320.423C163.267 319.763 163.841 319.014 162.622 315.951C162.467 315.56 162.162 315.258 161.765 315.101C161.365 314.944 160.921 314.952 160.515 315.126C159.223 315.674 158.134 316.156 157.297 316.549Z" fill="black"/>
<path d="M209.354 270.32L139.803 302.894C136.249 304.559 132.098 303.123 130.532 299.684L27.9617 74.3936L110.386 35.7909L212.957 261.082C214.521 264.519 212.909 268.656 209.354 270.32Z" fill="#FD4F4F"/>
<path d="M120.25 61.1752L108.681 35.7901L27.9615 73.5566L39.5304 98.9418C45.7872 96.0313 115.834 63.3026 120.25 61.1752Z" fill="#FD4F4F"/>
<path d="M205.136 252.195C205.121 254.268 204.934 256.363 204.405 258.391C203.997 259.956 203.239 261.424 202.357 262.799C197.336 270.616 179.583 279.275 162.79 287.132C155.036 290.76 143.574 297.177 134.778 294.955C132.382 294.35 130.363 293.028 128.498 291.48L132.298 299.82C133.831 303.183 137.896 304.591 141.379 302.962L209.488 271.096C212.969 269.468 214.548 265.421 213.015 262.056L204.279 242.887C204.81 245.957 205.158 249.066 205.136 252.195Z" fill="black"/>
<path d="M121.252 53.0631L32.6568 94.6125L15.9157 57.7907C15.258 56.3443 15.9376 54.6044 17.4313 53.9038L100.613 14.8931C102.108 14.192 103.852 14.7968 104.509 16.242L121.25 53.0638L121.252 53.0631Z" fill="white"/>
<path d="M121.506 53.6106L32.9023 95.1674C32.5903 95.3137 32.2264 95.1877 32.0892 94.8859L15.3464 58.0575C14.5532 56.3128 15.3747 54.2033 17.1792 53.3569L100.37 14.3392C102.173 13.4935 104.287 14.2245 105.081 15.9704L121.824 52.7988C121.959 53.1 121.818 53.4643 121.506 53.6106ZM32.9696 93.8086L120.443 52.7821L103.949 16.5013C103.43 15.359 102.046 14.88 100.866 15.4337L17.6752 54.4515C16.4946 55.0052 15.9564 56.3855 16.4757 57.5278L32.9696 93.8086Z" fill="black"/>
<path d="M93.6768 226.349C93.6196 226.376 93.5583 226.394 93.4936 226.404C93.3236 226.428 93.1345 226.456 92.9259 226.487C90.3031 226.875 84.8477 227.683 79.376 226.289C74.4893 225.043 69.1294 221.797 68.738 216.431C68.5223 213.461 69.7351 210.278 72.3448 206.969C75.5875 202.859 81.1639 199.236 85.2614 197.469C85.5773 197.333 85.9364 197.47 86.0628 197.777C86.1886 198.083 86.0279 198.445 85.7178 198.58C81.0514 200.595 75.951 204.338 73.3066 207.692C70.8976 210.746 69.7742 213.642 69.9671 216.297C70.3127 221.05 75.237 223.968 79.7283 225.114C84.9597 226.448 90.2477 225.666 92.79 225.289C93.0019 225.258 93.1936 225.229 93.3655 225.206C93.7035 225.157 94.0065 225.388 94.0427 225.721C94.0701 225.984 93.9163 226.236 93.6768 226.349Z" fill="black"/>
<path d="M89.8219 223.644C88.3748 224.422 87.1059 225.707 86.76 227.28C86.3059 229.339 87.5614 231.413 89.3179 232.517C91.0744 233.62 93.2382 233.935 95.3459 234.097C94.5555 235.004 92.7559 233.434 92.0186 235.093C91.6967 235.817 91.8528 236.718 92.501 237.139C93.3104 237.665 94.8992 238.095 96.2629 238.196C97.3338 238.276 98.4786 238.486 99.3529 237.833C100.82 236.736 100.854 234.61 100.534 232.872C99.8749 229.296 98.3267 225.916 96.058 223.104C94.6609 221.371 91.5057 222.739 89.8219 223.644Z" fill="#FFB442"/>
<path d="M99.2373 238.598C98.3887 238.997 97.4486 238.913 96.6015 238.837C96.465 238.825 96.3285 238.813 96.1931 238.803C94.6829 238.691 93.021 238.216 92.149 237.651C91.2966 237.096 90.9985 235.9 91.457 234.868C91.5789 234.595 91.723 234.382 91.8842 234.217C90.8634 233.969 89.8767 233.6 88.9735 233.033C87.1793 231.906 85.6123 229.657 86.16 227.175C86.5158 225.56 87.7493 224.081 89.5454 223.115C92.8883 221.319 95.3102 221.182 96.5484 222.719C98.8766 225.606 100.464 229.072 101.14 232.742C101.472 234.548 101.494 236.98 99.7122 238.312C99.5594 238.428 99.3999 238.521 99.2373 238.598ZM92.8857 234.957C92.7552 235.019 92.668 235.133 92.5844 235.32C92.392 235.751 92.4428 236.359 92.856 236.629C93.5544 237.082 95.0483 237.497 96.3325 237.591C96.4744 237.601 96.6161 237.614 96.7591 237.627C97.6165 237.703 98.4266 237.775 98.989 237.355C100.316 236.363 100.144 234.204 99.9223 233.005C99.2803 229.524 97.7742 226.237 95.5666 223.498C94.4602 222.127 91.6682 223.334 90.1 224.179C88.6588 224.953 87.6346 226.153 87.3634 227.387C86.9417 229.299 88.2597 231.12 89.6642 232C91.3318 233.048 93.4147 233.336 95.4167 233.492C95.6446 233.509 95.8395 233.651 95.9211 233.859C96.0027 234.068 95.9593 234.307 95.806 234.482C95.2362 235.137 94.4175 235.028 93.8196 234.95C93.3456 234.888 93.0722 234.87 92.8857 234.957Z" fill="black"/>
<path d="M182.257 185.58C182.018 185.693 181.73 185.649 181.548 185.454C181.323 185.211 181.347 184.826 181.602 184.594C181.731 184.477 181.878 184.345 182.039 184.201C183.968 182.473 187.983 178.877 190.379 173.953C192.437 169.724 193.45 164.013 190.124 160.661C188.266 158.788 185.375 157.783 181.529 157.671C177.255 157.547 171.398 158.984 166.955 161.259C166.651 161.415 166.279 161.303 166.133 161.006C165.986 160.71 166.115 160.341 166.423 160.184C171.114 157.79 177.077 156.324 181.615 156.456C185.78 156.577 188.944 157.701 191.022 159.794C194.777 163.579 193.725 169.842 191.487 174.442C188.981 179.593 184.839 183.302 182.847 185.084C182.689 185.226 182.545 185.354 182.417 185.471C182.369 185.517 182.314 185.553 182.257 185.58Z" fill="black"/>
<path d="M39.8246 88.7212C39.5071 88.8682 39.1352 88.7397 38.9946 88.4345L24.3685 56.68C24.2279 56.3748 24.3716 56.0076 24.6891 55.8606C25.0066 55.7136 25.3785 55.8421 25.5191 56.1473L40.1452 87.9018C40.2871 88.2064 40.1435 88.5736 39.8246 88.7212Z" fill="black"/>
<path d="M54.3738 82.0073C54.0563 82.1543 53.6844 82.0258 53.5438 81.7206L38.9177 49.9661C38.7771 49.6609 38.9208 49.2937 39.2383 49.1467C39.5558 48.9998 39.9277 49.1282 40.0683 49.4335L54.6943 81.1879C54.8349 81.4932 54.6913 81.8603 54.3738 82.0073Z" fill="black"/>
<path d="M68.9219 75.2905C68.6044 75.4375 68.2325 75.309 68.0919 75.0038L53.4658 43.2493C53.3252 42.9441 53.4689 42.5769 53.7864 42.4299C54.1039 42.283 54.4758 42.4114 54.6164 42.7166L69.2425 74.4711C69.3844 74.7757 69.2408 75.1429 68.9219 75.2905Z" fill="black"/>
<path d="M83.471 68.5757C83.1535 68.7227 82.7815 68.5942 82.6409 68.289L68.0149 36.5345C67.8743 36.2293 68.0179 35.8621 68.3354 35.7151C68.6529 35.5681 69.0248 35.6966 69.1654 36.0018L83.7915 67.7563C83.9321 68.0615 83.7885 68.4287 83.471 68.5757Z" fill="black"/>
<path d="M98.019 61.8579C97.7015 62.0049 97.3295 61.8764 97.1889 61.5712L82.5628 29.8167C82.4223 29.5115 82.5659 29.1443 82.8834 28.9973C83.2009 28.8503 83.5729 28.9788 83.7134 29.284L98.3395 61.0385C98.4815 61.3431 98.3378 61.7103 98.019 61.8579Z" fill="black"/>
<path d="M112.567 55.1431C112.249 55.29 111.877 55.1616 111.737 54.8563L97.1108 23.1019C96.9702 22.7967 97.1139 22.4295 97.4314 22.2825C97.7489 22.1355 98.1208 22.264 98.2614 22.5692L112.887 54.3237C113.029 54.6282 112.886 54.9954 112.567 55.1431Z" fill="black"/>
<path d="M147.731 139.375C146.462 139.964 144.976 139.451 144.414 138.229L114.659 73.5142C114.097 72.2928 114.671 70.8233 115.941 70.2341C117.212 69.6448 118.697 70.1581 119.259 71.3808L149.014 136.095C149.575 137.319 149.001 138.787 147.731 139.375Z" fill="#FF7E7C"/>
<path d="M122.5 257.752C121.25 258.339 119.792 257.834 119.243 256.623L117.978 253.835C117.429 252.626 117.996 251.168 119.246 250.58C120.496 249.993 121.954 250.498 122.503 251.709L123.769 254.497C124.317 255.708 123.749 257.165 122.5 257.752Z" fill="#FF7E7C"/>
<path d="M136.742 288.655C135.477 289.245 134.001 288.734 133.443 287.514L124.301 267.524C123.743 266.306 124.316 264.84 125.58 264.25C126.845 263.661 128.322 264.171 128.879 265.39L138.021 285.38C138.577 286.6 138.005 288.066 136.742 288.655Z" fill="#FF7E7C"/>
<path d="M108.286 176.548C107.965 176.699 107.587 176.583 107.427 176.276C106.275 174.07 104.417 170.958 102.652 168.84C102.048 168.116 100.493 166.493 99.1089 167.092C99.0956 167.099 99.0823 167.105 99.069 167.111C98.4737 167.391 98.0238 168.095 97.9167 168.921C97.806 169.764 98.0124 170.647 98.2534 171.553C98.9546 174.201 99.8215 176.834 100.828 179.378C100.959 179.71 100.778 180.089 100.446 180.236C100.105 180.378 99.7205 180.225 99.5893 179.893C98.5647 177.305 97.6826 174.624 96.9683 171.929C96.6955 170.896 96.4608 169.879 96.6008 168.805C96.7739 167.476 97.557 166.367 98.6168 165.9C100.197 165.216 101.999 165.958 103.691 167.988C105.519 170.181 107.432 173.381 108.612 175.644C108.777 175.96 108.645 176.357 108.319 176.532C108.308 176.537 108.296 176.543 108.286 176.548Z" fill="black"/>
<path d="M134.969 164.298C134.959 164.303 134.948 164.308 134.935 164.313C134.594 164.453 134.21 164.297 134.081 163.964C133.156 161.581 132.005 158.022 131.552 155.183C131.131 152.555 131.746 150.675 133.282 149.893C134.329 149.359 135.657 149.486 136.761 150.214C137.655 150.804 138.263 151.643 138.857 152.525C140.409 154.828 141.838 157.249 143.108 159.722C143.271 160.04 143.136 160.436 142.808 160.609C142.474 160.774 142.083 160.666 141.92 160.349C140.673 157.919 139.268 155.54 137.743 153.277C137.223 152.503 136.696 151.772 135.995 151.309C135.293 150.847 134.46 150.739 133.855 151.05C132.509 151.734 132.713 153.993 132.864 154.93C133.302 157.672 134.423 161.132 135.324 163.456C135.447 163.778 135.29 164.147 134.969 164.298Z" fill="black"/>
<path d="M126.305 180.314C123.374 181.985 120.116 182.932 117.186 184.604C118.352 186.647 119.499 188.515 121.178 190.166C122.91 191.87 124.829 193.483 127.163 194.269C128.288 194.648 130.183 195.37 132.611 194.228C135.038 193.086 135.727 191.148 136.173 190.03C137.1 187.711 137.139 185.176 136.989 182.727C136.844 180.354 136.193 178.253 135.423 176.024C132.275 177.213 129.453 179.126 126.305 180.314Z" fill="#A62D11"/>
<path d="M132.858 194.774C130.295 195.98 128.28 195.297 127.078 194.889L126.944 194.843C124.403 193.988 122.38 192.22 120.737 190.603C118.963 188.857 117.79 186.917 116.647 184.916C116.569 184.777 116.55 184.612 116.597 184.456C116.643 184.301 116.75 184.167 116.893 184.084C118.392 183.228 119.984 182.555 121.522 181.904C123.027 181.268 124.581 180.609 126.014 179.793C126.043 179.776 126.074 179.761 126.105 179.75C127.644 179.168 129.144 178.39 130.595 177.635C132.081 176.864 133.614 176.067 135.226 175.458C135.381 175.399 135.549 175.404 135.697 175.47C135.844 175.536 135.955 175.657 136.007 175.807C136.761 177.992 137.449 180.159 137.603 182.667C137.745 184.991 137.754 187.706 136.744 190.232L136.69 190.366C136.216 191.564 135.421 193.568 132.858 194.774ZM118.024 184.822C119.033 186.563 120.101 188.241 121.619 189.733C123.168 191.257 125.065 192.92 127.38 193.699L127.516 193.746C128.609 194.117 130.261 194.677 132.364 193.688C134.466 192.698 135.118 191.054 135.549 189.966L135.605 189.83C136.524 187.529 136.511 184.979 136.377 182.788C136.245 180.645 135.686 178.727 135.04 176.816C133.706 177.365 132.4 178.043 131.132 178.702C129.662 179.465 128.143 180.254 126.551 180.86C125.066 181.703 123.491 182.368 121.967 183.014C120.654 183.569 119.302 184.142 118.024 184.822Z" fill="black"/>
<path d="M132.598 185.936C131.051 185.954 129.447 186.339 128.132 187.222C126.815 188.108 125.908 189.435 125.516 190.939C125.303 191.761 125.239 192.602 125.278 193.437C125.895 193.79 126.539 194.098 127.221 194.327C128.344 194.705 130.236 195.425 132.659 194.286C135.081 193.148 135.769 191.214 136.215 190.098C136.639 189.035 136.871 187.926 136.99 186.799C135.61 186.239 134.116 185.919 132.598 185.936Z" fill="#EB5050"/>
<path d="M132.906 194.832C130.348 196.036 128.336 195.354 127.136 194.946L127.003 194.9C126.331 194.675 125.662 194.368 124.953 193.963C124.782 193.866 124.674 193.688 124.664 193.49C124.619 192.542 124.706 191.641 124.922 190.811C125.358 189.131 126.38 187.68 127.8 186.726C129.476 185.598 131.345 185.344 132.615 185.329C134.16 185.312 135.719 185.617 137.246 186.239C137.486 186.337 137.63 186.577 137.601 186.836C137.466 188.134 137.199 189.267 136.786 190.3L136.733 190.433C136.258 191.628 135.465 193.629 132.906 194.832ZM125.878 193.07C126.415 193.361 126.928 193.587 127.438 193.757L127.574 193.804C128.665 194.174 130.315 194.733 132.414 193.746C134.513 192.759 135.163 191.118 135.595 190.032L135.649 189.896C135.973 189.087 136.197 188.2 136.332 187.199C135.087 186.744 133.827 186.521 132.582 186.536C131.484 186.548 129.879 186.762 128.463 187.715C127.303 188.494 126.467 189.686 126.108 191.067C125.946 191.687 125.869 192.361 125.878 193.07Z" fill="black"/>
<path d="M99.9131 185.99C101.169 188.761 99.867 192.097 97.0056 193.444C94.1442 194.79 90.8075 193.636 89.552 190.866C88.2966 188.095 89.5982 184.758 92.4596 183.412C95.321 182.066 98.6577 183.22 99.9131 185.99Z" fill="#FF5233"/>
<path d="M155.133 166.612C157.994 165.266 159.296 161.928 158.041 159.158C156.785 156.388 153.448 155.234 150.587 156.58C147.726 157.926 146.424 161.263 147.68 164.033C148.935 166.804 152.272 167.958 155.133 166.612Z" fill="#FF5233"/>
</svg>
