<svg width="177" height="382" viewBox="0 0 177 382" fill="none" xmlns="http://www.w3.org/2000/svg">
<path d="M171.522 75.9313C154.163 104.419 127.279 108.61 98.8159 113.048C64.8972 118.336 26.4548 124.33 -2.91253 174.264C-30.87 221.804 -18.567 258.281 -7.71237 290.459C-3.38005 303.299 0.709485 315.429 2.05029 327.438C3.57638 341.103 1.32453 352.631 -5.02999 363.718L-8.69414 361.617C4.22923 339.07 -3.15777 317.169 -11.7129 291.805C-17.3442 275.109 -23.1674 257.844 -24.1192 238.183C-25.209 215.681 -19.4634 194.069 -6.55103 172.118C23.829 120.459 63.3227 114.302 98.1663 108.872C126.827 104.405 151.579 100.545 167.918 73.7302L171.523 75.9287L171.522 75.9313Z" fill="#013F71"/>
<path d="M90.9941 205.752C88.2194 212.024 84.7757 218.494 80.5488 225.195C66.9602 246.733 50.3887 261.749 29.8916 271.099C11.9834 279.267 -6.03085 282.01 -23.4506 284.661C-49.9119 288.688 -72.7675 292.164 -86.876 313.987L-90.4218 311.695C-83.482 300.962 -74.268 293.677 -61.4275 288.766C-50.1397 284.449 -37.4847 282.526 -24.0863 280.488C9.49171 275.379 47.5455 269.589 76.9759 222.944C107.888 173.952 95.5869 137.038 84.7341 104.473C75.626 77.1431 67.0258 51.3312 84.3821 22.8421L87.9878 25.0407C71.6466 51.8544 79.5692 75.6208 88.739 103.138C98.4141 132.171 109.209 164.576 90.993 205.754L90.9941 205.752Z" fill="#013F71"/>
<path d="M9.62482 318.953C7.15982 323.001 1.87919 324.283 -2.16779 321.816L-56.7698 288.545C-60.8179 286.08 -62.0996 280.8 -59.632 276.753C-57.167 272.704 -51.8864 271.423 -47.8394 273.89L6.76262 307.161C10.8107 309.626 12.0924 314.906 9.62482 318.953Z" fill="#4C52FD"/>
<path d="M50.4951 270.501C48.0301 274.549 42.7495 275.83 38.7025 273.363L-4.79976 246.856C-8.84789 244.391 -10.1295 239.11 -7.66196 235.063C-5.19696 231.015 0.0836711 229.734 4.13065 232.201L47.6329 258.708C51.681 261.173 52.9627 266.454 50.4951 270.501Z" fill="#FDB54F"/>
<path d="M-8.80703 340.382C-11.272 344.43 -16.5526 345.712 -20.5996 343.244L-91.7539 299.89C-95.8021 297.425 -97.0837 292.144 -94.6161 288.097C-92.1511 284.049 -86.8705 282.767 -82.8235 285.235L-11.6692 328.589C-7.62109 331.054 -6.33945 336.335 -8.80703 340.382Z" fill="#FDB54F"/>
<path d="M89.2475 225.527C86.7825 229.575 81.5019 230.857 77.4549 228.389L-17.6576 170.438C-21.7057 167.973 -22.9874 162.692 -20.5198 158.645C-18.0548 154.597 -12.7741 153.315 -8.72711 155.783L86.3853 213.735C90.4335 216.2 91.7151 221.48 89.2475 225.527Z" fill="#FDB54F"/>
<path d="M37.4512 228.258C34.9862 232.306 29.7056 233.588 25.6586 231.12L-36.3791 193.32C-40.4272 190.855 -41.7089 185.574 -39.2413 181.527C-36.7763 177.479 -31.4957 176.198 -27.4487 178.665L34.5891 216.466C38.6372 218.931 39.9188 224.211 37.4512 228.258Z" fill="#4C52FD"/>
<path d="M111.455 204.766C108.99 208.814 103.709 210.096 99.6622 207.628L34.8717 168.151C30.8235 165.686 29.5419 160.406 32.0094 156.359C34.4745 152.31 39.7551 151.029 43.8021 153.496L108.593 192.973C112.641 195.438 113.922 200.719 111.455 204.766Z" fill="#FDB54F"/>
<path d="M107.527 168.078C105.062 172.126 99.7818 173.408 95.7348 170.94L24.5805 127.586C20.5324 125.121 19.2508 119.84 21.7184 115.793C24.1834 111.745 29.464 110.464 33.511 112.931L104.665 156.285C108.713 158.75 109.995 164.031 107.527 168.078Z" fill="#FDB54F"/>
<path d="M144.594 81.8827C142.129 85.9308 136.849 87.2125 132.802 84.7449L61.6474 41.3908C57.5993 38.9258 56.3176 33.6452 58.7852 29.5982C61.2502 25.5501 66.5308 24.2684 70.5778 26.736L141.732 70.0901C145.78 72.5551 147.062 77.8357 144.594 81.8827Z" fill="#FDB54F"/>
<path d="M147.583 114.104C145.118 118.152 139.837 119.434 135.79 116.966L94.2541 91.6589C90.206 89.1939 88.9244 83.9133 91.3919 79.8663C93.857 75.8182 99.1376 74.5366 103.185 77.0041L144.72 102.312C148.769 104.777 150.05 110.057 147.583 114.104Z" fill="#4C52FD"/>
</svg>
