<svg width="185" height="212" viewBox="0 0 185 212" fill="none" xmlns="http://www.w3.org/2000/svg">
<path d="M96.8056 158.842L100.53 156.919L68.45 94.8094L116.591 38.0934L113.399 35.3834L63.4399 94.2377L96.8056 158.842Z" fill="#013F71"/>
<path d="M48.6412 123.981C32.7172 115.141 26.9745 95.0659 35.8147 79.1418C44.6548 63.2178 64.7302 57.4751 80.6542 66.3153C96.5783 75.1554 102.321 95.2308 93.4808 111.155C84.6406 127.079 64.5653 132.822 48.6412 123.981Z" fill="#FD4F9A"/>
<path d="M104.797 55.1088C94.6516 49.4767 90.9929 36.6867 96.625 26.5414C102.257 16.3962 115.047 12.7375 125.192 18.3696C135.338 24.0017 138.996 36.7917 133.364 46.937C127.732 57.0823 114.942 60.7409 104.797 55.1088Z" fill="#4F52FD"/>
<path d="M91.2323 183.965C81.0871 178.333 77.4284 165.543 83.0605 155.398C88.6926 145.253 101.483 141.594 111.628 147.226C121.773 152.858 125.432 165.648 119.8 175.793C114.168 185.939 101.378 189.597 91.2323 183.965Z" fill="#4F52FD"/>
<path d="M40.2191 99.3114C39.6447 99.5483 39.1636 102.255 40.0001 105.88C40.8124 109.471 42.9424 113.982 47.0304 117.028C51.034 120.186 55.9422 121.072 59.6198 120.926C63.3392 120.795 65.8292 119.627 65.9061 119.012C66.116 117.612 57.2632 118.102 50.4093 112.619C43.3352 107.422 41.5151 98.7431 40.2156 99.3095L40.2191 99.3114Z" fill="white"/>
<path d="M107.481 50.15C105.535 49.113 104.593 47.0803 105.377 45.6099C106.161 44.1394 108.373 43.788 110.319 44.825C112.265 45.862 113.206 47.8947 112.423 49.3651C111.639 50.8356 109.426 51.187 107.481 50.15Z" fill="white"/>
<path d="M87.9743 170.887C89.552 170.348 90.2539 168.221 89.5437 166.135C88.8336 164.048 86.9779 162.792 85.3994 163.328C83.8217 163.866 83.1197 165.994 83.8299 168.08C84.5401 170.167 86.3958 171.423 87.9743 170.887Z" fill="white"/>
</svg>
