<svg width="40" height="40" viewBox="0 0 40 40" fill="none" xmlns="http://www.w3.org/2000/svg">
<g clip-path="url(#clip0_697_14336)">
<path d="M1.14331 14.2988C1.14331 14.2988 0.196429 13.6038 1.33269 12.6757L3.98003 10.2651C3.98003 10.2651 4.73754 9.45353 5.53845 10.1606L29.9681 28.9955V38.0273C29.9681 38.0273 29.9563 39.4455 28.169 39.2888L1.14331 14.2988Z" fill="#2489CA"/>
<path d="M7.43984 20.1206L1.14304 25.9503C1.14304 25.9503 0.496003 26.4404 1.14304 27.3163L4.06655 30.0242C4.06655 30.0242 4.76094 30.7835 5.78673 29.9197L12.4623 24.765L7.43984 20.1206Z" fill="#1070B3"/>
<path d="M18.4953 20.1687L30.0434 11.1892L29.9685 2.20567C29.9685 2.20567 29.4753 0.245045 27.8301 1.26554L12.4629 15.5082L18.4953 20.1687Z" fill="#0877B9"/>
<path d="M28.1694 39.301C28.8401 40.0001 29.6528 39.7711 29.6528 39.7711L38.6522 35.2552C39.8042 34.4557 39.6425 33.4633 39.6425 33.4633V6.49666C39.6425 5.31144 38.451 4.90164 38.451 4.90164L30.651 1.07279C28.9466 7.24792e-05 27.8301 1.26564 27.8301 1.26564C27.8301 1.26564 29.2662 0.21301 29.9685 2.20578V37.8627C29.9685 38.1077 29.9172 38.3488 29.8146 38.5658C29.6094 38.9876 29.1636 39.3813 28.0944 39.2166L28.1694 39.301Z" fill="#3C99D4"/>
</g>
<defs>
<clipPath id="clip0_697_14336">
<rect width="40" height="40" fill="white"/>
</clipPath>
</defs>
</svg>
