<svg width="40" height="40" viewBox="0 0 40 40" fill="none" xmlns="http://www.w3.org/2000/svg">
<path d="M30.0005 27.9158C29.7338 27.9158 29.4838 27.8325 29.2505 27.6658C28.7005 27.2492 28.5838 26.4658 29.0005 25.9158C31.6171 22.4325 31.6171 17.5658 29.0005 14.0825C28.5838 13.5325 28.7005 12.7492 29.2505 12.3325C29.8005 11.9158 30.5838 12.0325 31.0005 12.5825C34.2671 16.9492 34.2671 23.0492 31.0005 27.4158C30.7505 27.7492 30.3838 27.9158 30.0005 27.9158Z" fill="#9B9B9B"/>
<path d="M33.0503 32.0851C32.7836 32.0851 32.5336 32.0018 32.3003 31.8351C31.7503 31.4184 31.6336 30.6351 32.0503 30.0851C36.5003 24.1518 36.5003 15.8518 32.0503 9.91842C31.6336 9.36842 31.7503 8.58509 32.3003 8.16842C32.8503 7.75176 33.6336 7.86842 34.0503 8.41842C39.1669 15.2351 39.1669 24.7684 34.0503 31.5851C33.8169 31.9184 33.4336 32.0851 33.0503 32.0851Z" fill="#9B9B9B"/>
<path d="M23.3663 6.29889C21.4997 5.26556 19.1163 5.53222 16.683 7.04889L11.8163 10.0989C11.483 10.2989 11.0997 10.4156 10.7163 10.4156H9.16634H8.33301C4.29967 10.4156 2.08301 12.6322 2.08301 16.6656V23.3322C2.08301 27.3656 4.29967 29.5822 8.33301 29.5822H9.16634H10.7163C11.0997 29.5822 11.483 29.6989 11.8163 29.8989L16.683 32.9489C18.1497 33.8656 19.583 34.3156 20.9163 34.3156C21.783 34.3156 22.6163 34.1156 23.3663 33.6989C25.2163 32.6656 26.2497 30.5156 26.2497 27.6489V12.3489C26.2497 9.48222 25.2163 7.33222 23.3663 6.29889Z" fill="#9B9B9B"/>
</svg>
