<svg width="40" height="40" viewBox="0 0 40 40" fill="none" xmlns="http://www.w3.org/2000/svg">
<path d="M34.9497 26.7987C34.5497 31.2487 31.333 34.1654 26.6663 34.1654H11.6663C7.06634 34.1654 3.33301 30.432 3.33301 25.832V14.1654C3.33301 9.63203 6.06634 6.46536 10.3163 5.93203C10.7497 5.86536 11.1997 5.83203 11.6663 5.83203H26.6663C27.0997 5.83203 27.5163 5.8487 27.9163 5.91536C31.8997 6.38203 34.5997 9.16536 34.9497 13.1987C34.9997 13.682 34.5997 14.082 34.1163 14.082H31.533C29.933 14.082 28.4497 14.6987 27.383 15.7987C26.1163 17.032 25.483 18.7654 25.633 20.4987C25.8997 23.532 28.5663 25.9154 31.733 25.9154H34.1163C34.5997 25.9154 34.9997 26.3154 34.9497 26.7987Z" fill="#9B9B9B"/>
<path d="M36.6667 18.282V21.7154C36.6667 22.632 35.9334 23.382 35 23.4154H31.7334C29.9334 23.4154 28.2834 22.0987 28.1334 20.2987C28.0334 19.2487 28.4334 18.2654 29.1334 17.582C29.75 16.9487 30.6 16.582 31.5334 16.582H35C35.9334 16.6154 36.6667 17.3654 36.6667 18.282Z" fill="#9B9B9B"/>
</svg>
