<svg width="40" height="40" viewBox="0 0 40 40" fill="none" xmlns="http://www.w3.org/2000/svg">
<path d="M19.9 3.6837L15.8833 13.0337H11.8666C11.2 13.0337 10.55 13.0837 9.91663 13.217L11.5833 9.21704L11.65 9.06704L11.75 8.80037C11.8 8.6837 11.8333 8.5837 11.8833 8.50037C13.8166 4.01704 15.9833 2.61704 19.9 3.6837Z" fill="#9B9B9B"/>
<path d="M31.2166 13.4865L31.1833 13.4698C30.1833 13.1865 29.1666 13.0365 28.1333 13.0365H17.7L21.45 4.31979L21.5 4.20312C21.7333 4.28646 21.9833 4.40313 22.2333 4.48646L25.9166 6.03646C27.9666 6.88646 29.4 7.76979 30.2833 8.83646C30.4333 9.03646 30.5666 9.21979 30.7 9.43646C30.85 9.66979 30.9666 9.90313 31.0333 10.1531C31.1 10.3031 31.1499 10.4365 31.1833 10.5865C31.4333 11.4365 31.45 12.4031 31.2166 13.4865Z" fill="#9B9B9B"/>
<path d="M20.8667 29.4354H21.2834C21.7834 29.4354 22.2 28.9854 22.2 28.4354C22.2 27.7354 22 27.6354 21.5667 27.4687L20.8667 27.2188V29.4354Z" fill="#9B9B9B"/>
<path d="M30.4833 15.8646C29.7333 15.6479 28.9499 15.5312 28.1333 15.5312H11.8666C10.7333 15.5312 9.66661 15.7479 8.66661 16.1813C5.76661 17.4313 3.73328 20.3146 3.73328 23.6646V26.9146C3.73328 27.3146 3.76661 27.6979 3.81661 28.0979C4.18328 33.3979 7.01661 36.2313 12.3166 36.5813C12.6999 36.6313 13.0833 36.6646 13.4999 36.6646H26.4999C32.6666 36.6646 35.9166 33.7312 36.2333 27.8979C36.2499 27.5813 36.2666 27.2479 36.2666 26.9146V23.6646C36.2666 19.9812 33.8166 16.8813 30.4833 15.8646ZM22.1333 25.8313C22.8999 26.0979 23.9333 26.6646 23.9333 28.4312C23.9333 29.9479 22.7499 31.1646 21.2833 31.1646H20.8666V31.5312C20.8666 32.0146 20.4833 32.3979 19.9999 32.3979C19.5166 32.3979 19.1333 32.0146 19.1333 31.5312V31.1646H18.9833C17.3833 31.1646 16.0666 29.8146 16.0666 28.1479C16.0666 27.6646 16.4499 27.2813 16.9333 27.2813C17.4166 27.2813 17.7999 27.6646 17.7999 28.1479C17.7999 28.8479 18.3333 29.4312 18.9833 29.4312H19.1333V26.6146L17.8666 26.1646C17.0999 25.8979 16.0666 25.3313 16.0666 23.5646C16.0666 22.0479 17.2499 20.8313 18.7166 20.8313H19.1333V20.4646C19.1333 19.9812 19.5166 19.5979 19.9999 19.5979C20.4833 19.5979 20.8666 19.9812 20.8666 20.4646V20.8313H21.0166C22.6166 20.8313 23.9333 22.1813 23.9333 23.8479C23.9333 24.3313 23.5499 24.7146 23.0666 24.7146C22.5833 24.7146 22.1999 24.3313 22.1999 23.8479C22.1999 23.1479 21.6666 22.5646 21.0166 22.5646H20.8666V25.3812L22.1333 25.8313Z" fill="#9B9B9B"/>
<path d="M17.8 23.5703C17.8 24.2703 18 24.3703 18.4334 24.537L19.1334 24.787V22.5703H18.7167C18.2 22.5703 17.8 23.0203 17.8 23.5703Z" fill="#9B9B9B"/>
</svg>
