<svg width="391" height="245" viewBox="0 0 391 245" fill="none" xmlns="http://www.w3.org/2000/svg">
<path d="M128.871 89.5986C125.976 89.5986 53.7413 89.1142 33.3379 89.1142C31.9105 89.1142 33.7143 86.7355 34.501 86.5698C37.0101 86.0408 39.6236 86.0137 42.1729 85.7597C44.7321 85.5032 47.112 84.9606 49.4846 83.9958C51.4917 83.1802 53.4947 82.2365 55.6697 81.9102C59.8732 81.2757 63.5606 83.4688 67.5034 84.437C70.0658 85.0655 72.392 84.812 74.6702 83.4944C76.4933 82.4418 78.1496 81.1794 80.0556 80.2493C87.2933 76.7301 96.1095 76.4048 103.66 79.2082C105.465 79.8813 107.205 80.7291 108.824 81.7531C110.749 82.9688 112.41 84.5244 114.341 85.7261C118.62 88.3924 123.91 87.525 128.576 89.053C128.832 89.1343 129.12 89.5986 128.871 89.5986Z" fill="#C2A8F9"/>
<path d="M358.099 25.8134C355.205 25.8134 282.97 25.3291 262.566 25.3291C261.139 25.3291 262.943 22.9503 263.729 22.7847C266.239 22.2556 268.852 22.2285 271.401 21.9745C273.961 21.718 276.341 21.1754 278.713 20.2107C280.72 19.395 282.723 18.4513 284.898 18.1251C289.101 17.4906 292.789 19.6836 296.731 20.6519C299.294 21.2803 301.62 21.0268 303.898 19.7092C305.721 18.6566 307.378 17.3942 309.284 16.4641C316.521 12.9449 325.338 12.6197 332.888 15.4231C334.693 16.0962 336.433 16.944 338.052 17.9679C339.977 19.1837 341.638 20.7392 343.569 21.9409C347.848 24.6073 353.138 23.7394 357.804 25.2678C358.061 25.3491 358.349 25.8134 358.099 25.8134Z" fill="#C2A8F9"/>
<path d="M228.068 52.8026C224.241 52.8026 159.84 53.2107 155.792 53.0867C155.501 53.0787 155.345 52.6666 155.634 52.5286C158.186 51.3123 161.08 51.5563 163.731 50.6959C165.291 50.19 166.249 49.2076 167.332 48.0813C168.267 47.107 169.351 46.3606 170.683 45.9746C171.861 45.6343 173.135 45.5906 174.332 45.8647C175.639 46.1648 176.773 46.8851 178.02 47.3389C181.113 48.4633 184.12 47.3946 186.329 45.1905C188.151 43.374 189.942 41.6598 192.418 40.6815C194.492 39.8613 196.794 39.6912 198.87 40.5957C201.232 41.6262 202.853 43.6982 205.072 44.9446C207.702 46.4248 210.847 46.075 213.752 46.5212C216.665 46.9694 218.889 49.3241 221.436 50.6804C222.306 51.1447 223.198 51.5327 224.213 51.5086C224.783 51.4945 225.342 51.3465 225.905 51.2787C226.782 51.1748 227.615 51.1989 228.205 51.9026C228.349 52.0748 228.319 52.8026 228.068 52.8026Z" fill="#C2A8F9"/>
<path d="M333.625 105.271C329.798 105.271 265.396 105.679 261.349 105.555C261.058 105.547 260.902 105.135 261.191 104.997C263.742 103.781 266.637 104.025 269.288 103.165C270.848 102.659 271.806 101.676 272.888 100.55C273.824 99.5757 274.908 98.8293 276.24 98.4433C277.418 98.103 278.691 98.0593 279.888 98.3334C281.195 98.6336 282.329 99.3539 283.576 99.8076C286.669 100.932 289.676 99.8633 291.885 97.6593C293.707 95.8427 295.498 94.1286 297.974 93.1503C300.048 92.3301 302.35 92.1599 304.426 93.0644C306.788 94.0949 308.409 96.1675 310.628 97.4133C313.258 98.8936 316.404 98.5437 319.308 98.99C322.221 99.4382 324.445 101.793 326.992 103.149C327.863 103.613 328.753 104.001 329.77 103.977C330.339 103.963 330.898 103.815 331.461 103.747C332.338 103.644 333.171 103.668 333.761 104.371C333.905 104.544 333.876 105.271 333.625 105.271Z" fill="#C2A8F9"/>
<path d="M220.685 80.7466C217.891 80.7466 170.872 81.0447 167.917 80.9539C167.705 80.9478 167.591 80.6472 167.802 80.5463C169.664 79.6583 171.777 79.8365 173.713 79.2086C174.852 78.8392 175.552 78.1219 176.342 77.2997C177.024 76.5884 177.816 76.0438 178.789 75.7617C179.649 75.5132 180.579 75.4811 181.452 75.6814C182.406 75.9007 183.235 76.4263 184.145 76.7576C186.404 77.5783 188.599 76.7982 190.211 75.189C191.542 73.8628 192.849 72.6109 194.657 71.8967C196.171 71.2978 197.852 71.1739 199.367 71.8339C201.093 72.5858 202.275 74.0992 203.896 75.0093C205.816 76.09 208.113 75.8345 210.234 76.1602C212.36 76.4875 213.984 78.2067 215.843 79.1965C216.479 79.5354 217.129 79.819 217.871 79.8014C218.287 79.7914 218.695 79.6829 219.106 79.6332C219.746 79.5574 220.355 79.575 220.785 80.089C220.89 80.215 220.869 80.7466 220.685 80.7466Z" fill="#C2A8F9"/>
<path d="M343.338 78.8794C340.543 78.8794 293.524 79.1775 290.569 79.0867C290.357 79.0807 290.243 78.78 290.454 78.6791C292.317 77.7911 294.43 77.9693 296.366 77.3414C297.505 76.972 298.204 76.2547 298.994 75.4325C299.676 74.7212 300.468 74.1766 301.441 73.8945C302.301 73.646 303.231 73.6139 304.104 73.8142C305.058 74.0335 305.887 74.5591 306.797 74.8904C309.056 75.7111 311.251 74.931 312.863 73.3218C314.194 71.9956 315.501 70.7438 317.309 70.0295C318.823 69.4306 320.504 69.3067 322.019 69.9667C323.744 70.7187 324.927 72.232 326.548 73.1421C328.468 74.2228 330.765 73.9673 332.885 74.2931C335.012 74.6203 336.635 76.3395 338.495 77.3294C339.13 77.6682 339.782 77.9518 340.523 77.9342C340.938 77.9242 341.347 77.8157 341.758 77.766C342.398 77.6903 343.007 77.7078 343.437 78.2218C343.542 78.3478 343.521 78.8794 343.338 78.8794Z" fill="#C2A8F9"/>
<path d="M119.369 39.4316C116.575 39.4316 69.5555 39.7298 66.6005 39.6389C66.3884 39.6329 66.2742 39.3322 66.4853 39.2313C68.3481 38.3434 70.461 38.5216 72.3967 37.8936C73.5358 37.5242 74.2355 36.8069 75.0258 35.9847C75.7082 35.2734 76.5001 34.7288 77.4724 34.4467C78.3326 34.1983 79.2627 34.1661 80.1359 34.3664C81.09 34.5858 81.9184 35.1113 82.8286 35.4431C85.0875 36.2638 87.2824 35.4838 88.8948 33.8745C90.2253 32.5484 91.5328 31.2965 93.3408 30.5822C94.8547 29.9834 96.5355 29.8594 98.051 30.5195C99.7761 31.2719 100.959 32.7848 102.579 33.6948C104.5 34.7755 106.796 34.52 108.917 34.8458C111.044 35.1731 112.667 36.8917 114.527 37.8821C115.162 38.2209 115.813 38.5045 116.555 38.4869C116.97 38.4769 117.378 38.3685 117.79 38.3188C118.43 38.243 119.038 38.2606 119.469 38.7746C119.574 38.9 119.552 39.4316 119.369 39.4316Z" fill="#C2A8F9"/>
<path d="M319.617 190.978C319.263 190.837 319.11 191.39 319.459 191.53C320.401 191.906 320.838 192.841 320.583 193.777C320.486 194.134 321.059 194.286 321.156 193.929C321.501 192.664 320.859 191.474 319.617 190.978Z" fill="#EBEBEB"/>
<path d="M322.217 190.442C321.842 191.257 321.728 192.093 321.873 192.974C321.933 193.336 322.506 193.182 322.447 192.821C322.33 192.108 322.427 191.391 322.73 190.731C322.884 190.397 322.372 190.106 322.217 190.442Z" fill="#EBEBEB"/>
<path d="M50.2304 178.195C50.5234 177.962 50.9462 178.365 50.6511 178.6C49.9421 179.164 49.5745 179.956 49.623 180.842C49.6428 181.211 49.048 181.21 49.0282 180.842C48.9724 179.821 49.4114 178.847 50.2304 178.195Z" fill="#EBEBEB"/>
<path d="M305.224 209.025C305.517 208.792 305.94 209.195 305.645 209.43C304.936 209.994 304.569 210.786 304.617 211.672C304.637 212.04 304.042 212.039 304.022 211.672C303.967 210.651 304.405 209.677 305.224 209.025Z" fill="#EBEBEB"/>
<path d="M242.432 199.304C242.725 199.072 243.147 199.475 242.852 199.709C242.143 200.274 241.776 201.066 241.824 201.952C241.844 202.32 241.249 202.319 241.229 201.952C241.174 200.931 241.613 199.956 242.432 199.304Z" fill="#EBEBEB"/>
<path d="M256.511 188.01C255.687 188.828 255.355 189.921 255.566 191.038C255.634 191.4 256.208 191.247 256.139 190.886C255.967 189.974 256.263 189.078 256.931 188.416C257.198 188.15 256.778 187.745 256.511 188.01Z" fill="#EBEBEB"/>
<path d="M254.342 188.322V190.243C254.342 190.612 254.937 190.612 254.937 190.243V188.322C254.937 187.953 254.342 187.952 254.342 188.322Z" fill="#EBEBEB"/>
<path d="M257.524 188.929C256.979 189.275 256.654 189.854 256.683 190.486C256.701 190.853 257.295 190.855 257.278 190.486C257.258 190.058 257.449 189.662 257.824 189.423C258.142 189.221 257.844 188.725 257.524 188.929Z" fill="#EBEBEB"/>
<path d="M205.377 221.077C205.023 220.936 204.869 221.49 205.219 221.63C206.161 222.006 206.598 222.941 206.343 223.877C206.246 224.234 206.819 224.386 206.916 224.029C207.261 222.764 206.619 221.573 205.377 221.077Z" fill="#EBEBEB"/>
<path d="M207.981 220.542C207.606 221.357 207.492 222.192 207.637 223.073C207.696 223.436 208.27 223.282 208.21 222.921C208.093 222.208 208.19 221.492 208.494 220.831C208.648 220.497 208.136 220.205 207.981 220.542Z" fill="#EBEBEB"/>
<path d="M81.9996 189.285C81.6462 189.143 81.4924 189.697 81.8417 189.837C82.7837 190.213 83.2211 191.148 82.9657 192.084C82.8682 192.441 83.4416 192.593 83.5391 192.236C83.8837 190.972 83.2414 189.78 81.9996 189.285Z" fill="#EBEBEB"/>
<path d="M84.5999 188.749C84.2251 189.564 84.1114 190.4 84.2559 191.28C84.3153 191.643 84.8887 191.489 84.8293 191.128C84.7125 190.415 84.8095 189.699 85.1129 189.038C85.2672 188.704 84.7548 188.412 84.5999 188.749Z" fill="#EBEBEB"/>
<path d="M159.533 229.776C159.195 229.604 158.894 230.098 159.233 230.27C159.907 230.613 160.277 231.274 160.215 232.004C160.185 232.371 160.779 232.369 160.81 232.004C160.887 231.085 160.378 230.206 159.533 229.776Z" fill="#EBEBEB"/>
<path d="M161.302 228.883C161.121 228.558 160.607 228.846 160.788 229.172C161.214 229.937 161.396 230.754 161.35 231.62C161.33 231.988 161.924 231.987 161.944 231.62C161.997 230.656 161.775 229.732 161.302 228.883Z" fill="#EBEBEB"/>
<path d="M162.683 229.262C162.36 229.825 162.223 230.451 162.304 231.09C162.35 231.451 162.946 231.455 162.899 231.09C162.83 230.546 162.921 230.033 163.196 229.552C163.381 229.228 162.868 228.939 162.683 229.262Z" fill="#EBEBEB"/>
<path d="M42.2911 186.26C41.9606 186.073 41.6609 186.568 41.9909 186.755C42.7911 187.208 43.2348 188.023 43.1863 188.912C43.1665 189.28 43.7613 189.279 43.7811 188.912C43.8405 187.825 43.2634 186.811 42.2911 186.26Z" fill="#EBEBEB"/>
<path d="M44.4702 187.631C44.4019 188.015 44.3331 188.399 44.2648 188.783C44.2006 189.143 44.7736 189.298 44.8382 188.935C44.9065 188.551 44.9753 188.167 45.0436 187.783C45.1083 187.423 44.5353 187.268 44.4702 187.631Z" fill="#EBEBEB"/>
<path d="M28.7142 209.687C28.4212 209.454 27.9984 209.857 28.2935 210.092C29.0025 210.657 29.37 211.449 29.3216 212.334C29.3017 212.702 29.8966 212.701 29.9164 212.334C29.9722 211.314 29.5332 210.339 28.7142 209.687Z" fill="#EBEBEB"/>
<path d="M335.745 176.191C335.452 175.958 335.03 176.361 335.325 176.596C336.034 177.16 336.401 177.953 336.353 178.838C336.332 179.207 336.927 179.206 336.948 178.838C337.003 177.818 336.564 176.843 335.745 176.191Z" fill="#EBEBEB"/>
<path d="M361.361 206.844C360.536 207.662 360.204 208.755 360.415 209.873C360.484 210.235 361.057 210.081 360.989 209.721C360.816 208.809 361.112 207.913 361.781 207.249C362.048 206.984 361.628 206.579 361.361 206.844Z" fill="#EBEBEB"/>
<path d="M359.193 207.156V209.077C359.193 209.446 359.788 209.446 359.788 209.077V207.156C359.788 206.787 359.193 206.786 359.193 207.156Z" fill="#EBEBEB"/>
<path d="M362.375 207.759C361.831 208.105 361.505 208.683 361.535 209.316C361.552 209.683 362.147 209.685 362.13 209.316C362.11 208.888 362.301 208.491 362.676 208.253C362.993 208.051 362.696 207.555 362.375 207.759Z" fill="#EBEBEB"/>
<path d="M110.562 207.444C109.738 208.261 109.405 209.354 109.617 210.472C109.685 210.834 110.258 210.681 110.19 210.32C110.018 209.408 110.314 208.512 110.982 207.849C111.249 207.584 110.829 207.179 110.562 207.444Z" fill="#EBEBEB"/>
<path d="M108.393 207.757V209.679C108.393 210.047 108.987 210.048 108.987 209.679V207.757C108.987 207.389 108.393 207.388 108.393 207.757Z" fill="#EBEBEB"/>
<path d="M111.575 208.361C111.03 208.707 110.705 209.285 110.734 209.918C110.752 210.285 111.346 210.287 111.329 209.918C111.309 209.49 111.5 209.094 111.875 208.856C112.192 208.653 111.895 208.157 111.575 208.361Z" fill="#EBEBEB"/>
<path opacity="0.4" d="M13.4648 153.702V157.791L379.55 157.791V153.702L13.4648 153.702Z" fill="#455A64"/>
<path opacity="0.4" d="M13.4648 164.995V169.084L379.55 169.084V164.995L13.4648 164.995Z" fill="#455A64"/>
<path d="M19.5158 148.267L16.784 145.785L14.0527 148.267V172.036H19.5158V148.267Z" fill="#2B353A"/>
<g opacity="0.4">
<path d="M17.2729 155.748C17.2729 156.008 17.054 156.22 16.7839 156.22C16.5139 156.22 16.2949 156.009 16.2949 155.748C16.2949 155.488 16.5139 155.277 16.7839 155.277C17.054 155.277 17.2729 155.488 17.2729 155.748Z" fill="#455A64"/>
<path d="M17.2729 167.169C17.2729 167.429 17.054 167.639 16.7839 167.639C16.5139 167.639 16.2949 167.429 16.2949 167.169C16.2949 166.909 16.5139 166.697 16.7839 166.697C17.054 166.697 17.2729 166.908 17.2729 167.169Z" fill="#455A64"/>
</g>
<path d="M26.7033 148.267L23.972 145.785L21.2402 148.267V172.036H26.7033V148.267Z" fill="#2B353A"/>
<g opacity="0.4">
<path d="M24.4604 155.748C24.4604 156.008 24.2415 156.22 23.9714 156.22C23.7014 156.22 23.4824 156.009 23.4824 155.748C23.4824 155.488 23.7014 155.277 23.9714 155.277C24.2415 155.277 24.4604 155.488 24.4604 155.748Z" fill="#455A64"/>
<path d="M24.4604 167.169C24.4604 167.429 24.2415 167.639 23.9714 167.639C23.7014 167.639 23.4824 167.429 23.4824 167.169C23.4824 166.909 23.7014 166.697 23.9714 166.697C24.2415 166.697 24.4604 166.908 24.4604 167.169Z" fill="#455A64"/>
</g>
<path d="M33.8927 148.267L31.161 145.785L28.4297 148.267V172.036H33.8927V148.267Z" fill="#2B353A"/>
<g opacity="0.4">
<path d="M31.6499 155.748C31.6499 156.008 31.4309 156.22 31.1609 156.22C30.8908 156.22 30.6719 156.009 30.6719 155.748C30.6719 155.488 30.8908 155.277 31.1609 155.277C31.4309 155.277 31.6499 155.488 31.6499 155.748Z" fill="#455A64"/>
<path d="M31.6499 167.169C31.6499 167.429 31.4309 167.639 31.1609 167.639C30.8908 167.639 30.6719 167.429 30.6719 167.169C30.6719 166.909 30.8908 166.697 31.1609 166.697C31.4309 166.697 31.6499 166.908 31.6499 167.169Z" fill="#455A64"/>
</g>
<path d="M41.0841 148.267L38.3529 145.785L35.6211 148.267V172.036H41.0841V148.267Z" fill="#2B353A"/>
<g opacity="0.4">
<path d="M38.8413 155.748C38.8413 156.008 38.6223 156.22 38.3523 156.22C38.0822 156.22 37.8633 156.009 37.8633 155.748C37.8633 155.488 38.0822 155.277 38.3523 155.277C38.6223 155.277 38.8413 155.488 38.8413 155.748Z" fill="#455A64"/>
<path d="M38.8413 167.169C38.8413 167.429 38.6223 167.639 38.3523 167.639C38.0822 167.639 37.8633 167.429 37.8633 167.169C37.8633 166.909 38.0822 166.697 38.3523 166.697C38.6223 166.697 38.8413 166.908 38.8413 167.169Z" fill="#455A64"/>
</g>
<path d="M48.2716 148.267L45.5399 145.785L42.8086 148.267V172.036H48.2716V148.267Z" fill="#2B353A"/>
<g opacity="0.4">
<path d="M46.0288 155.748C46.0288 156.008 45.8098 156.22 45.5398 156.22C45.2697 156.22 45.0508 156.009 45.0508 155.748C45.0508 155.488 45.2697 155.277 45.5398 155.277C45.8093 155.277 46.0288 155.488 46.0288 155.748Z" fill="#455A64"/>
<path d="M46.0288 167.169C46.0288 167.429 45.8098 167.639 45.5398 167.639C45.2697 167.639 45.0508 167.429 45.0508 167.169C45.0508 166.909 45.2697 166.697 45.5398 166.697C45.8093 166.697 46.0288 166.908 46.0288 167.169Z" fill="#455A64"/>
</g>
<path d="M55.4611 148.267L52.7298 145.785L49.998 148.267V172.036H55.4611V148.267Z" fill="#2B353A"/>
<g opacity="0.4">
<path d="M53.2188 155.748C53.2188 156.008 52.9998 156.22 52.7298 156.22C52.4597 156.22 52.2402 156.009 52.2402 155.748C52.2402 155.488 52.4592 155.277 52.7298 155.277C52.9998 155.277 53.2188 155.488 53.2188 155.748Z" fill="#455A64"/>
<path d="M53.2188 167.169C53.2188 167.429 52.9998 167.639 52.7298 167.639C52.4597 167.639 52.2402 167.429 52.2402 167.169C52.2402 166.909 52.4592 166.697 52.7298 166.697C52.9998 166.697 53.2188 166.908 53.2188 167.169Z" fill="#455A64"/>
</g>
<path d="M62.6491 148.267L59.9173 145.785L57.1855 148.267V172.036H62.6491V148.267Z" fill="#2B353A"/>
<g opacity="0.4">
<path d="M60.4058 155.748C60.4058 156.008 60.1868 156.22 59.9167 156.22C59.6467 156.22 59.4277 156.009 59.4277 155.748C59.4277 155.488 59.6467 155.277 59.9167 155.277C60.1868 155.277 60.4058 155.488 60.4058 155.748Z" fill="#455A64"/>
<path d="M60.4058 167.169C60.4058 167.429 60.1868 167.639 59.9167 167.639C59.6467 167.639 59.4277 167.429 59.4277 167.169C59.4277 166.909 59.6467 166.697 59.9167 166.697C60.1868 166.697 60.4058 166.908 60.4058 167.169Z" fill="#455A64"/>
</g>
<path d="M69.84 148.267L67.1082 145.785L64.377 148.267V172.036H69.84V148.267Z" fill="#2B353A"/>
<g opacity="0.4">
<path d="M67.5972 155.748C67.5972 156.008 67.3782 156.22 67.1082 156.22C66.8381 156.22 66.6191 156.009 66.6191 155.748C66.6191 155.488 66.8381 155.277 67.1082 155.277C67.3782 155.277 67.5972 155.488 67.5972 155.748Z" fill="#455A64"/>
<path d="M67.5972 167.169C67.5972 167.429 67.3782 167.639 67.1082 167.639C66.8381 167.639 66.6191 167.429 66.6191 167.169C66.6191 166.909 66.8381 166.697 67.1082 166.697C67.3782 166.697 67.5972 166.908 67.5972 167.169Z" fill="#455A64"/>
</g>
<path d="M77.0275 148.267L74.2962 145.785L71.5645 148.267V172.036H77.0275V148.267Z" fill="#2B353A"/>
<g opacity="0.4">
<path d="M74.7852 155.748C74.7852 156.008 74.5662 156.22 74.2962 156.22C74.0261 156.22 73.8066 156.009 73.8066 155.748C73.8066 155.488 74.0256 155.277 74.2962 155.277C74.5662 155.277 74.7852 155.488 74.7852 155.748Z" fill="#455A64"/>
<path d="M74.7852 167.169C74.7852 167.429 74.5662 167.639 74.2962 167.639C74.0261 167.639 73.8066 167.429 73.8066 167.169C73.8066 166.909 74.0256 166.697 74.2962 166.697C74.5662 166.697 74.7852 166.908 74.7852 167.169Z" fill="#455A64"/>
</g>
<path d="M84.215 148.267L81.4832 145.785L78.752 148.267V172.036H84.215V148.267Z" fill="#2B353A"/>
<g opacity="0.4">
<path d="M81.9727 155.748C81.9727 156.008 81.7537 156.22 81.4832 156.22C81.2131 156.22 80.9941 156.009 80.9941 155.748C80.9941 155.488 81.2131 155.277 81.4832 155.277C81.7532 155.277 81.9727 155.488 81.9727 155.748Z" fill="#455A64"/>
<path d="M81.9727 167.169C81.9727 167.429 81.7537 167.639 81.4832 167.639C81.2131 167.639 80.9941 167.429 80.9941 167.169C80.9941 166.909 81.2131 166.697 81.4832 166.697C81.7532 166.697 81.9727 166.908 81.9727 167.169Z" fill="#455A64"/>
</g>
<path d="M91.4045 148.267L88.6732 145.785L85.9414 148.267V172.036H91.4045V148.267Z" fill="#2B353A"/>
<g opacity="0.4">
<path d="M89.1621 155.748C89.1621 156.008 88.9432 156.22 88.6731 156.22C88.4031 156.22 88.1836 156.009 88.1836 155.748C88.1836 155.488 88.4026 155.277 88.6731 155.277C88.9432 155.277 89.1621 155.488 89.1621 155.748Z" fill="#455A64"/>
<path d="M89.1621 167.169C89.1621 167.429 88.9432 167.639 88.6731 167.639C88.4031 167.639 88.1836 167.429 88.1836 167.169C88.1836 166.909 88.4026 166.697 88.6731 166.697C88.9432 166.697 89.1621 166.908 89.1621 167.169Z" fill="#455A64"/>
</g>
<path d="M98.5925 148.267L95.8607 145.785L93.1289 148.267V172.036H98.5925V148.267Z" fill="#2B353A"/>
<g opacity="0.4">
<path d="M96.3496 155.748C96.3496 156.008 96.1307 156.22 95.8606 156.22C95.5906 156.22 95.3711 156.009 95.3711 155.748C95.3711 155.488 95.5901 155.277 95.8606 155.277C96.1307 155.277 96.3496 155.488 96.3496 155.748Z" fill="#455A64"/>
<path d="M96.3496 167.169C96.3496 167.429 96.1307 167.639 95.8606 167.639C95.5906 167.639 95.3711 167.429 95.3711 167.169C95.3711 166.909 95.5901 166.697 95.8606 166.697C96.1307 166.697 96.3496 166.908 96.3496 167.169Z" fill="#455A64"/>
</g>
<path d="M105.783 148.267L103.052 145.785L100.32 148.267V172.036H105.783V148.267Z" fill="#2B353A"/>
<g opacity="0.4">
<path d="M103.541 155.748C103.541 156.008 103.322 156.22 103.052 156.22C102.781 156.22 102.562 156.009 102.562 155.748C102.562 155.488 102.781 155.277 103.052 155.277C103.322 155.277 103.541 155.488 103.541 155.748Z" fill="#455A64"/>
<path d="M103.541 167.169C103.541 167.429 103.322 167.639 103.052 167.639C102.781 167.639 102.562 167.429 102.562 167.169C102.562 166.909 102.781 166.697 103.052 166.697C103.322 166.697 103.541 166.908 103.541 167.169Z" fill="#455A64"/>
</g>
<path d="M112.971 148.267L110.24 145.785L107.508 148.267V172.036H112.971V148.267Z" fill="#2B353A"/>
<g opacity="0.4">
<path d="M110.729 155.748C110.729 156.008 110.51 156.22 110.24 156.22C109.969 156.22 109.75 156.009 109.75 155.748C109.75 155.488 109.969 155.277 110.24 155.277C110.51 155.277 110.729 155.488 110.729 155.748Z" fill="#455A64"/>
<path d="M110.729 167.169C110.729 167.429 110.51 167.639 110.24 167.639C109.969 167.639 109.75 167.429 109.75 167.169C109.75 166.909 109.969 166.697 110.24 166.697C110.51 166.697 110.729 166.908 110.729 167.169Z" fill="#455A64"/>
</g>
<path d="M120.16 148.267L117.429 145.785L114.697 148.267V172.036H120.16V148.267Z" fill="#2B353A"/>
<g opacity="0.4">
<path d="M117.917 155.748C117.917 156.008 117.699 156.22 117.428 156.22C117.158 156.22 116.939 156.009 116.939 155.748C116.939 155.488 117.158 155.277 117.428 155.277C117.698 155.277 117.917 155.488 117.917 155.748Z" fill="#455A64"/>
<path d="M117.917 167.169C117.917 167.429 117.699 167.639 117.428 167.639C117.158 167.639 116.939 167.429 116.939 167.169C116.939 166.909 117.158 166.697 117.428 166.697C117.698 166.697 117.917 166.908 117.917 167.169Z" fill="#455A64"/>
</g>
<path d="M127.348 148.267L124.616 145.785L121.885 148.267V172.036H127.348V148.267Z" fill="#2B353A"/>
<g opacity="0.4">
<path d="M125.105 155.748C125.105 156.008 124.887 156.22 124.616 156.22C124.346 156.22 124.127 156.009 124.127 155.748C124.127 155.488 124.346 155.277 124.616 155.277C124.887 155.277 125.105 155.488 125.105 155.748Z" fill="#455A64"/>
<path d="M125.105 167.169C125.105 167.429 124.887 167.639 124.616 167.639C124.346 167.639 124.127 167.429 124.127 167.169C124.127 166.909 124.346 166.697 124.616 166.697C124.887 166.697 125.105 166.908 125.105 167.169Z" fill="#455A64"/>
</g>
<path d="M134.535 148.267L131.804 145.785L129.072 148.267V172.036H134.535V148.267Z" fill="#2B353A"/>
<g opacity="0.4">
<path d="M132.293 155.748C132.293 156.008 132.074 156.22 131.804 156.22C131.534 156.22 131.314 156.009 131.314 155.748C131.314 155.488 131.533 155.277 131.804 155.277C132.074 155.277 132.293 155.488 132.293 155.748Z" fill="#455A64"/>
<path d="M132.293 167.169C132.293 167.429 132.074 167.639 131.804 167.639C131.534 167.639 131.314 167.429 131.314 167.169C131.314 166.909 131.533 166.697 131.804 166.697C132.074 166.697 132.293 166.908 132.293 167.169Z" fill="#455A64"/>
</g>
<path d="M141.727 148.267L138.995 145.785L136.264 148.267V172.036H141.727V148.267Z" fill="#2B353A"/>
<g opacity="0.4">
<path d="M139.484 155.748C139.484 156.008 139.265 156.22 138.995 156.22C138.725 156.22 138.506 156.009 138.506 155.748C138.506 155.488 138.725 155.277 138.995 155.277C139.265 155.277 139.484 155.488 139.484 155.748Z" fill="#455A64"/>
<path d="M139.484 167.169C139.484 167.429 139.265 167.639 138.995 167.639C138.725 167.639 138.506 167.429 138.506 167.169C138.506 166.909 138.725 166.697 138.995 166.697C139.265 166.697 139.484 166.908 139.484 167.169Z" fill="#455A64"/>
</g>
<path d="M148.916 148.267L146.185 145.785L143.453 148.267V172.036H148.916V148.267Z" fill="#2B353A"/>
<g opacity="0.4">
<path d="M146.674 155.748C146.674 156.008 146.455 156.22 146.184 156.22C145.914 156.22 145.695 156.009 145.695 155.748C145.695 155.488 145.914 155.277 146.184 155.277C146.455 155.277 146.674 155.488 146.674 155.748Z" fill="#455A64"/>
<path d="M146.674 167.169C146.674 167.429 146.455 167.639 146.184 167.639C145.914 167.639 145.695 167.429 145.695 167.169C145.695 166.909 145.914 166.697 146.184 166.697C146.455 166.697 146.674 166.908 146.674 167.169Z" fill="#455A64"/>
</g>
<path d="M156.104 148.267L153.372 145.785L150.641 148.267V172.036H156.104V148.267Z" fill="#2B353A"/>
<g opacity="0.4">
<path d="M153.861 155.748C153.861 156.008 153.642 156.22 153.372 156.22C153.102 156.22 152.883 156.009 152.883 155.748C152.883 155.488 153.102 155.277 153.372 155.277C153.641 155.277 153.861 155.488 153.861 155.748Z" fill="#455A64"/>
<path d="M153.861 167.169C153.861 167.429 153.642 167.639 153.372 167.639C153.102 167.639 152.883 167.429 152.883 167.169C152.883 166.909 153.102 166.697 153.372 166.697C153.641 166.697 153.861 166.908 153.861 167.169Z" fill="#455A64"/>
</g>
<path d="M163.293 148.267L160.562 145.785L157.83 148.267V172.036H163.293V148.267Z" fill="#2B353A"/>
<g opacity="0.4">
<path d="M161.051 155.748C161.051 156.008 160.832 156.22 160.562 156.22C160.292 156.22 160.072 156.009 160.072 155.748C160.072 155.488 160.291 155.277 160.562 155.277C160.832 155.277 161.051 155.488 161.051 155.748Z" fill="#455A64"/>
<path d="M161.051 167.169C161.051 167.429 160.832 167.639 160.562 167.639C160.292 167.639 160.072 167.429 160.072 167.169C160.072 166.909 160.291 166.697 160.562 166.697C160.832 166.697 161.051 166.908 161.051 167.169Z" fill="#455A64"/>
</g>
<path d="M170.483 148.267L167.751 145.785L165.02 148.267V172.036H170.483V148.267Z" fill="#2B353A"/>
<g opacity="0.4">
<path d="M168.24 155.748C168.24 156.008 168.021 156.22 167.751 156.22C167.481 156.22 167.262 156.009 167.262 155.748C167.262 155.488 167.481 155.277 167.751 155.277C168.021 155.277 168.24 155.488 168.24 155.748Z" fill="#455A64"/>
<path d="M168.24 167.169C168.24 167.429 168.021 167.639 167.751 167.639C167.481 167.639 167.262 167.429 167.262 167.169C167.262 166.909 167.481 166.697 167.751 166.697C168.021 166.697 168.24 166.908 168.24 167.169Z" fill="#455A64"/>
</g>
<path d="M177.672 148.267L174.94 145.785L172.209 148.267V172.036H177.672V148.267Z" fill="#2B353A"/>
<g opacity="0.4">
<path d="M175.429 155.748C175.429 156.008 175.21 156.22 174.94 156.22C174.67 156.22 174.451 156.009 174.451 155.748C174.451 155.488 174.67 155.277 174.94 155.277C175.21 155.277 175.429 155.488 175.429 155.748Z" fill="#455A64"/>
<path d="M175.429 167.169C175.429 167.429 175.21 167.639 174.94 167.639C174.67 167.639 174.451 167.429 174.451 167.169C174.451 166.909 174.67 166.697 174.94 166.697C175.21 166.697 175.429 166.908 175.429 167.169Z" fill="#455A64"/>
</g>
<path d="M184.86 148.267L182.128 145.785L179.396 148.267V172.036H184.86V148.267Z" fill="#2B353A"/>
<g opacity="0.4">
<path d="M182.618 155.748C182.618 156.008 182.399 156.22 182.128 156.22C181.858 156.22 181.639 156.009 181.639 155.748C181.639 155.488 181.858 155.277 182.128 155.277C182.399 155.277 182.618 155.488 182.618 155.748Z" fill="#455A64"/>
<path d="M182.128 167.639C182.398 167.639 182.617 167.428 182.617 167.168C182.617 166.908 182.398 166.697 182.128 166.697C181.858 166.697 181.639 166.908 181.639 167.168C181.639 167.428 181.858 167.639 182.128 167.639Z" fill="#455A64"/>
</g>
<path d="M192.05 148.267L189.318 145.785L186.586 148.267V172.036H192.05V148.267Z" fill="#2B353A"/>
<g opacity="0.4">
<path d="M189.807 155.748C189.807 156.008 189.588 156.22 189.317 156.22C189.047 156.22 188.828 156.009 188.828 155.748C188.828 155.488 189.047 155.277 189.317 155.277C189.587 155.277 189.807 155.488 189.807 155.748Z" fill="#455A64"/>
<path d="M189.807 167.169C189.807 167.429 189.588 167.639 189.317 167.639C189.047 167.639 188.828 167.429 188.828 167.169C188.828 166.909 189.047 166.697 189.317 166.697C189.587 166.697 189.807 166.908 189.807 167.169Z" fill="#455A64"/>
</g>
<path d="M199.236 148.267L196.505 145.785L193.773 148.267V172.036H199.236V148.267Z" fill="#2B353A"/>
<g opacity="0.4">
<path d="M196.994 155.748C196.994 156.008 196.775 156.22 196.505 156.22C196.235 156.22 196.016 156.009 196.016 155.748C196.016 155.488 196.235 155.277 196.505 155.277C196.775 155.277 196.994 155.488 196.994 155.748Z" fill="#455A64"/>
<path d="M196.994 167.169C196.994 167.429 196.775 167.639 196.505 167.639C196.235 167.639 196.016 167.429 196.016 167.169C196.016 166.909 196.235 166.697 196.505 166.697C196.775 166.697 196.994 166.908 196.994 167.169Z" fill="#455A64"/>
</g>
<path d="M206.428 148.267L203.697 145.785L200.965 148.267V172.036H206.428V148.267Z" fill="#2B353A"/>
<g opacity="0.4">
<path d="M204.185 155.748C204.185 156.008 203.966 156.22 203.696 156.22C203.426 156.22 203.207 156.009 203.207 155.748C203.207 155.488 203.426 155.277 203.696 155.277C203.966 155.277 204.185 155.488 204.185 155.748Z" fill="#455A64"/>
<path d="M204.185 167.169C204.185 167.429 203.966 167.639 203.696 167.639C203.426 167.639 203.207 167.429 203.207 167.169C203.207 166.909 203.426 166.697 203.696 166.697C203.966 166.697 204.185 166.908 204.185 167.169Z" fill="#455A64"/>
</g>
<path d="M213.615 148.267L210.884 145.785L208.152 148.267V172.036H213.615V148.267Z" fill="#2B353A"/>
<g opacity="0.4">
<path d="M211.373 155.748C211.373 156.008 211.154 156.22 210.884 156.22C210.613 156.22 210.395 156.009 210.395 155.748C210.395 155.488 210.613 155.277 210.884 155.277C211.154 155.277 211.373 155.488 211.373 155.748Z" fill="#455A64"/>
<path d="M211.373 167.169C211.373 167.429 211.154 167.639 210.884 167.639C210.613 167.639 210.395 167.429 210.395 167.169C210.395 166.909 210.613 166.697 210.884 166.697C211.154 166.697 211.373 166.908 211.373 167.169Z" fill="#455A64"/>
</g>
<path d="M220.805 148.267L218.074 145.785L215.342 148.267V172.036H220.805V148.267Z" fill="#2B353A"/>
<g opacity="0.4">
<path d="M218.563 155.748C218.563 156.008 218.344 156.22 218.074 156.22C217.803 156.22 217.584 156.009 217.584 155.748C217.584 155.488 217.803 155.277 218.074 155.277C218.344 155.277 218.563 155.488 218.563 155.748Z" fill="#455A64"/>
<path d="M218.563 167.169C218.563 167.429 218.344 167.639 218.074 167.639C217.803 167.639 217.584 167.429 217.584 167.169C217.584 166.909 217.803 166.697 218.074 166.697C218.344 166.697 218.563 166.908 218.563 167.169Z" fill="#455A64"/>
</g>
<path d="M227.992 148.267L225.261 145.785L222.529 148.267V172.036H227.992V148.267Z" fill="#2B353A"/>
<g opacity="0.4">
<path d="M225.75 155.748C225.75 156.008 225.531 156.22 225.261 156.22C224.991 156.22 224.771 156.009 224.771 155.748C224.771 155.488 224.99 155.277 225.261 155.277C225.531 155.277 225.75 155.488 225.75 155.748Z" fill="#455A64"/>
<path d="M225.75 167.169C225.75 167.429 225.531 167.639 225.261 167.639C224.991 167.639 224.771 167.429 224.771 167.169C224.771 166.909 224.99 166.697 225.261 166.697C225.531 166.697 225.75 166.908 225.75 167.169Z" fill="#455A64"/>
</g>
<path d="M235.184 148.267L232.452 145.785L229.721 148.267V172.036H235.184V148.267Z" fill="#2B353A"/>
<g opacity="0.4">
<path d="M232.941 155.748C232.941 156.008 232.722 156.22 232.452 156.22C232.182 156.22 231.963 156.009 231.963 155.748C231.963 155.488 232.182 155.277 232.452 155.277C232.722 155.277 232.941 155.488 232.941 155.748Z" fill="#455A64"/>
<path d="M232.941 167.169C232.941 167.429 232.722 167.639 232.452 167.639C232.182 167.639 231.963 167.429 231.963 167.169C231.963 166.909 232.182 166.697 232.452 166.697C232.722 166.697 232.941 166.908 232.941 167.169Z" fill="#455A64"/>
</g>
<path d="M242.371 148.267L239.64 145.785L236.908 148.267V172.036H242.371V148.267Z" fill="#2B353A"/>
<g opacity="0.4">
<path d="M240.129 155.748C240.129 156.008 239.91 156.22 239.64 156.22C239.37 156.22 239.15 156.009 239.15 155.748C239.15 155.488 239.369 155.277 239.64 155.277C239.91 155.277 240.129 155.488 240.129 155.748Z" fill="#455A64"/>
<path d="M240.129 167.169C240.129 167.429 239.91 167.639 239.64 167.639C239.37 167.639 239.15 167.429 239.15 167.169C239.15 166.909 239.369 166.697 239.64 166.697C239.91 166.697 240.129 166.908 240.129 167.169Z" fill="#455A64"/>
</g>
<path d="M249.561 148.267L246.829 145.785L244.098 148.267V172.036H249.561V148.267Z" fill="#2B353A"/>
<g opacity="0.4">
<path d="M247.318 155.748C247.318 156.008 247.099 156.22 246.829 156.22C246.559 156.22 246.34 156.009 246.34 155.748C246.34 155.488 246.559 155.277 246.829 155.277C247.099 155.277 247.318 155.488 247.318 155.748Z" fill="#455A64"/>
<path d="M247.318 167.169C247.318 167.429 247.099 167.639 246.829 167.639C246.559 167.639 246.34 167.429 246.34 167.169C246.34 166.909 246.559 166.697 246.829 166.697C247.099 166.697 247.318 166.908 247.318 167.169Z" fill="#455A64"/>
</g>
<path d="M256.748 148.267L254.017 145.785L251.285 148.267V172.036H256.748V148.267Z" fill="#2B353A"/>
<g opacity="0.4">
<path d="M254.505 155.748C254.505 156.008 254.286 156.22 254.016 156.22C253.746 156.22 253.527 156.009 253.527 155.748C253.527 155.488 253.746 155.277 254.016 155.277C254.286 155.277 254.505 155.488 254.505 155.748Z" fill="#455A64"/>
<path d="M254.505 167.169C254.505 167.429 254.286 167.639 254.016 167.639C253.746 167.639 253.527 167.429 253.527 167.169C253.527 166.909 253.746 166.697 254.016 166.697C254.286 166.697 254.505 166.908 254.505 167.169Z" fill="#455A64"/>
</g>
<path d="M263.936 148.267L261.204 145.785L258.473 148.267V172.036H263.936V148.267Z" fill="#2B353A"/>
<g opacity="0.4">
<path d="M261.693 155.748C261.693 156.008 261.474 156.22 261.204 156.22C260.934 156.22 260.715 156.009 260.715 155.748C260.715 155.488 260.934 155.277 261.204 155.277C261.474 155.277 261.693 155.488 261.693 155.748Z" fill="#455A64"/>
<path d="M261.693 167.169C261.693 167.429 261.474 167.639 261.204 167.639C260.934 167.639 260.715 167.429 260.715 167.169C260.715 166.909 260.934 166.697 261.204 166.697C261.474 166.697 261.693 166.908 261.693 167.169Z" fill="#455A64"/>
</g>
<path d="M271.127 148.267L268.395 145.785L265.664 148.267V172.036H271.127V148.267Z" fill="#2B353A"/>
<g opacity="0.4">
<path d="M268.884 155.748C268.884 156.008 268.665 156.22 268.395 156.22C268.125 156.22 267.906 156.009 267.906 155.748C267.906 155.488 268.125 155.277 268.395 155.277C268.665 155.277 268.884 155.488 268.884 155.748Z" fill="#455A64"/>
<path d="M268.884 167.169C268.884 167.429 268.665 167.639 268.395 167.639C268.125 167.639 267.906 167.429 267.906 167.169C267.906 166.909 268.125 166.697 268.395 166.697C268.665 166.697 268.884 166.908 268.884 167.169Z" fill="#455A64"/>
</g>
<path d="M278.317 148.267L275.585 145.785L272.854 148.267V172.036H278.317V148.267Z" fill="#2B353A"/>
<g opacity="0.4">
<path d="M276.074 155.748C276.074 156.008 275.855 156.22 275.585 156.22C275.315 156.22 275.096 156.009 275.096 155.748C275.096 155.488 275.315 155.277 275.585 155.277C275.855 155.277 276.074 155.488 276.074 155.748Z" fill="#455A64"/>
<path d="M276.074 167.169C276.074 167.429 275.855 167.639 275.585 167.639C275.315 167.639 275.096 167.429 275.096 167.169C275.096 166.909 275.315 166.697 275.585 166.697C275.855 166.697 276.074 166.908 276.074 167.169Z" fill="#455A64"/>
</g>
<path d="M285.504 148.267L282.772 145.785L280.041 148.267V172.036H285.504V148.267Z" fill="#2B353A"/>
<g opacity="0.4">
<path d="M283.261 155.748C283.261 156.008 283.042 156.22 282.772 156.22C282.502 156.22 282.283 156.009 282.283 155.748C282.283 155.488 282.502 155.277 282.772 155.277C283.042 155.277 283.261 155.488 283.261 155.748Z" fill="#455A64"/>
<path d="M283.261 167.169C283.261 167.429 283.042 167.639 282.772 167.639C282.502 167.639 282.283 167.429 282.283 167.169C282.283 166.909 282.502 166.697 282.772 166.697C283.042 166.697 283.261 166.908 283.261 167.169Z" fill="#455A64"/>
</g>
<path d="M292.692 148.267L289.96 145.785L287.229 148.267V172.036H292.692V148.267Z" fill="#2B353A"/>
<g opacity="0.4">
<path d="M290.449 155.748C290.449 156.008 290.23 156.22 289.96 156.22C289.69 156.22 289.471 156.009 289.471 155.748C289.471 155.488 289.69 155.277 289.96 155.277C290.23 155.277 290.449 155.488 290.449 155.748Z" fill="#455A64"/>
<path d="M289.96 167.639C290.23 167.639 290.449 167.428 290.449 167.168C290.449 166.908 290.23 166.697 289.96 166.697C289.69 166.697 289.471 166.908 289.471 167.168C289.471 167.428 289.69 167.639 289.96 167.639Z" fill="#455A64"/>
</g>
<path d="M299.882 148.267L297.15 145.785L294.418 148.267V172.036H299.882V148.267Z" fill="#2B353A"/>
<g opacity="0.4">
<path d="M297.639 155.748C297.639 156.008 297.42 156.22 297.149 156.22C296.879 156.22 296.66 156.009 296.66 155.748C296.66 155.488 296.879 155.277 297.149 155.277C297.419 155.277 297.639 155.488 297.639 155.748Z" fill="#455A64"/>
<path d="M297.639 167.169C297.639 167.429 297.42 167.639 297.149 167.639C296.879 167.639 296.66 167.429 296.66 167.169C296.66 166.909 296.879 166.697 297.149 166.697C297.419 166.697 297.639 166.908 297.639 167.169Z" fill="#455A64"/>
</g>
<path d="M307.072 148.267L304.341 145.785L301.609 148.267V172.036H307.072V148.267Z" fill="#2B353A"/>
<g opacity="0.4">
<path d="M304.83 155.748C304.83 156.008 304.611 156.22 304.341 156.22C304.071 156.22 303.852 156.009 303.852 155.748C303.852 155.488 304.071 155.277 304.341 155.277C304.611 155.277 304.83 155.488 304.83 155.748Z" fill="#455A64"/>
<path d="M304.83 167.169C304.83 167.429 304.611 167.639 304.341 167.639C304.071 167.639 303.852 167.429 303.852 167.169C303.852 166.909 304.071 166.697 304.341 166.697C304.611 166.697 304.83 166.908 304.83 167.169Z" fill="#455A64"/>
</g>
<path d="M314.26 148.267L311.529 145.785L308.797 148.267V172.036H314.26V148.267Z" fill="#2B353A"/>
<g opacity="0.4">
<path d="M312.017 155.748C312.017 156.008 311.798 156.22 311.528 156.22C311.258 156.22 311.039 156.009 311.039 155.748C311.039 155.488 311.258 155.277 311.528 155.277C311.798 155.277 312.017 155.488 312.017 155.748Z" fill="#455A64"/>
<path d="M311.528 167.639C311.798 167.639 312.017 167.428 312.017 167.168C312.017 166.908 311.798 166.697 311.528 166.697C311.258 166.697 311.039 166.908 311.039 167.168C311.039 167.428 311.258 167.639 311.528 167.639Z" fill="#455A64"/>
</g>
<path d="M321.447 148.267L318.716 145.785L315.984 148.267V172.036H321.447V148.267Z" fill="#2B353A"/>
<g opacity="0.4">
<path d="M319.205 155.748C319.205 156.008 318.986 156.22 318.716 156.22C318.446 156.22 318.227 156.009 318.227 155.748C318.227 155.488 318.446 155.277 318.716 155.277C318.986 155.277 319.205 155.488 319.205 155.748Z" fill="#455A64"/>
<path d="M319.205 167.169C319.205 167.429 318.986 167.639 318.716 167.639C318.446 167.639 318.227 167.429 318.227 167.169C318.227 166.909 318.446 166.697 318.716 166.697C318.986 166.697 319.205 166.908 319.205 167.169Z" fill="#455A64"/>
</g>
<path d="M328.637 148.267L325.906 145.785L323.174 148.267V172.036H328.637V148.267Z" fill="#2B353A"/>
<g opacity="0.4">
<path d="M326.394 155.748C326.394 156.008 326.175 156.22 325.905 156.22C325.635 156.22 325.416 156.009 325.416 155.748C325.416 155.488 325.635 155.277 325.905 155.277C326.175 155.277 326.394 155.488 326.394 155.748Z" fill="#455A64"/>
<path d="M326.394 167.169C326.394 167.429 326.175 167.639 325.905 167.639C325.635 167.639 325.416 167.429 325.416 167.169C325.416 166.909 325.635 166.697 325.905 166.697C326.175 166.697 326.394 166.908 326.394 167.169Z" fill="#455A64"/>
</g>
<path d="M335.828 148.267L333.097 145.785L330.365 148.267V172.036H335.828V148.267Z" fill="#2B353A"/>
<g opacity="0.4">
<path d="M333.585 155.748C333.585 156.008 333.366 156.22 333.096 156.22C332.826 156.22 332.607 156.009 332.607 155.748C332.607 155.488 332.826 155.277 333.096 155.277C333.366 155.277 333.585 155.488 333.585 155.748Z" fill="#455A64"/>
<path d="M333.096 167.639C333.366 167.639 333.585 167.428 333.585 167.168C333.585 166.908 333.366 166.697 333.096 166.697C332.826 166.697 332.607 166.908 332.607 167.168C332.607 167.428 332.826 167.639 333.096 167.639Z" fill="#455A64"/>
</g>
<path d="M343.016 148.267L340.285 145.785L337.553 148.267V172.036H343.016V148.267Z" fill="#2B353A"/>
<g opacity="0.4">
<path d="M340.773 155.748C340.773 156.008 340.554 156.22 340.284 156.22C340.014 156.22 339.795 156.009 339.795 155.748C339.795 155.488 340.014 155.277 340.284 155.277C340.554 155.277 340.773 155.488 340.773 155.748Z" fill="#455A64"/>
<path d="M340.773 167.169C340.773 167.429 340.554 167.639 340.284 167.639C340.014 167.639 339.795 167.429 339.795 167.169C339.795 166.909 340.014 166.697 340.284 166.697C340.554 166.697 340.773 166.908 340.773 167.169Z" fill="#455A64"/>
</g>
<path d="M350.204 148.267L347.472 145.785L344.74 148.267V172.036H350.204V148.267Z" fill="#2B353A"/>
<g opacity="0.4">
<path d="M347.961 155.748C347.961 156.008 347.742 156.22 347.472 156.22C347.202 156.22 346.982 156.009 346.982 155.748C346.982 155.488 347.201 155.277 347.472 155.277C347.742 155.277 347.961 155.488 347.961 155.748Z" fill="#455A64"/>
<path d="M347.961 167.169C347.961 167.429 347.742 167.639 347.472 167.639C347.202 167.639 346.982 167.429 346.982 167.169C346.982 166.909 347.201 166.697 347.472 166.697C347.742 166.697 347.961 166.908 347.961 167.169Z" fill="#455A64"/>
</g>
<path d="M357.393 148.267L354.661 145.785L351.93 148.267V172.036H357.393V148.267Z" fill="#2B353A"/>
<g opacity="0.4">
<path d="M355.15 155.748C355.15 156.008 354.931 156.22 354.661 156.22C354.391 156.22 354.172 156.009 354.172 155.748C354.172 155.488 354.391 155.277 354.661 155.277C354.931 155.277 355.15 155.488 355.15 155.748Z" fill="#455A64"/>
<path d="M354.661 167.639C354.931 167.639 355.15 167.428 355.15 167.168C355.15 166.908 354.931 166.697 354.661 166.697C354.391 166.697 354.172 166.908 354.172 167.168C354.172 167.428 354.391 167.639 354.661 167.639Z" fill="#455A64"/>
</g>
<path d="M364.58 148.267L361.849 145.785L359.117 148.267V172.036H364.58V148.267Z" fill="#2B353A"/>
<g opacity="0.4">
<path d="M362.338 155.748C362.338 156.008 362.119 156.22 361.848 156.22C361.578 156.22 361.359 156.009 361.359 155.748C361.359 155.488 361.578 155.277 361.848 155.277C362.119 155.277 362.338 155.488 362.338 155.748Z" fill="#455A64"/>
<path d="M362.338 167.169C362.338 167.429 362.119 167.639 361.848 167.639C361.578 167.639 361.359 167.429 361.359 167.169C361.359 166.909 361.578 166.697 361.848 166.697C362.119 166.697 362.338 166.908 362.338 167.169Z" fill="#455A64"/>
</g>
<path d="M371.772 148.267L369.04 145.785L366.309 148.267V172.036H371.772V148.267Z" fill="#2B353A"/>
<g opacity="0.4">
<path d="M369.529 155.748C369.529 156.008 369.31 156.22 369.04 156.22C368.77 156.22 368.551 156.009 368.551 155.748C368.551 155.488 368.77 155.277 369.04 155.277C369.311 155.277 369.529 155.488 369.529 155.748Z" fill="#455A64"/>
<path d="M369.529 167.169C369.529 167.429 369.31 167.639 369.04 167.639C368.77 167.639 368.551 167.429 368.551 167.169C368.551 166.909 368.77 166.697 369.04 166.697C369.311 166.697 369.529 166.908 369.529 167.169Z" fill="#455A64"/>
</g>
<path d="M378.959 148.267L376.227 145.785L373.496 148.267V172.036H378.959V148.267Z" fill="#2B353A"/>
<g opacity="0.4">
<path d="M376.716 155.748C376.716 156.008 376.497 156.22 376.227 156.22C375.957 156.22 375.738 156.009 375.738 155.748C375.738 155.488 375.957 155.277 376.227 155.277C376.497 155.277 376.716 155.488 376.716 155.748Z" fill="#455A64"/>
<path d="M376.227 167.639C376.497 167.639 376.716 167.428 376.716 167.168C376.716 166.908 376.497 166.697 376.227 166.697C375.957 166.697 375.738 166.908 375.738 167.168C375.738 167.428 375.957 167.639 376.227 167.639Z" fill="#455A64"/>
</g>
<path d="M360.474 172.071C254.781 172.378 136.218 172.381 30.5254 172.071C136.219 171.762 254.781 171.764 360.474 172.071Z" fill="#263238"/>
<path d="M55.9134 85.5751C50.2272 72.2809 45.1963 58.7287 40.8594 44.9707C46.5508 58.2629 51.5707 71.8186 55.9134 85.5751Z" fill="#263238"/>
<path d="M71.2785 79.5564C60.4431 67.0819 50.152 54.1712 40.4531 40.8574C51.2932 53.3284 61.5749 66.2456 71.2785 79.5564Z" fill="#263238"/>
<path d="M305.906 86.5657C320.333 68.637 335.318 51.127 350.85 34.0762C336.428 52.0084 321.434 69.5114 305.906 86.5657Z" fill="#263238"/>
<path d="M318.209 93.0927C328.477 75.6535 339.359 58.552 350.848 41.834C340.585 59.2758 329.693 76.3717 318.209 93.0927Z" fill="#263238"/>
<path d="M51.4453 72.7122C51.4453 72.7122 72.2658 179.253 116.963 194.68C148.921 205.711 223.038 202.652 266.298 160.941C300.261 128.193 325.772 81.8452 325.772 81.8452C302.874 101.484 312.261 78.3772 312.261 78.3772C288.993 106.162 209.788 148.158 169.656 145.977C124.226 143.509 62.5242 68.3105 62.5242 68.3105C62.5242 68.3105 68.2536 82.9068 61.7484 83.1824C55.2432 83.4574 51.4453 72.7122 51.4453 72.7122Z" fill="#62479B"/>
<path opacity="0.1" d="M51.4453 72.7122C51.4453 72.7122 72.2658 179.253 116.963 194.68C148.921 205.711 223.038 202.652 266.298 160.941C300.261 128.193 325.772 81.8452 325.772 81.8452C302.874 101.484 312.261 78.3772 312.261 78.3772C288.993 106.162 209.788 148.158 169.656 145.977C124.226 143.509 62.5242 68.3105 62.5242 68.3105C62.5242 68.3105 68.2536 82.9068 61.7484 83.1824C55.2432 83.4574 51.4453 72.7122 51.4453 72.7122Z" fill="black"/>
<path d="M56.6592 218.699H49.8199L31.4199 38.5996L39.363 30.2793L56.6592 218.699Z" fill="#62479B"/>
<path opacity="0.4" d="M56.6592 218.699H49.8199L31.4199 38.5996L39.363 30.2793L56.6592 218.699Z" fill="black"/>
<path d="M337.197 218.698H344.037L359.582 32.4839L351.64 24.1641L337.197 218.698Z" fill="#62479B"/>
<path opacity="0.4" d="M337.197 218.698H344.037L359.582 32.4839L351.64 24.1641L337.197 218.698Z" fill="black"/>
<path d="M350.201 42.1562C353.96 44.7037 354.42 45.5775 358.589 42.9368C357.451 44.0391 355.913 45.305 354.171 45.0174C352.518 44.5134 351.292 43.373 350.201 42.1562Z" fill="#263238"/>
<path d="M350.645 36.6411L352.772 37.5015C353.856 37.9146 354.782 38.2976 355.908 37.7785C356.995 37.4121 358.057 36.994 359.158 36.6406C357.82 37.4503 356.481 38.2484 354.904 38.5511C353.279 38.4557 351.914 37.5266 350.645 36.6411Z" fill="#263238"/>
<path d="M350.557 37.7285C353.28 38.6642 356.221 39.4793 359.008 38.2887C356.502 40.171 352.977 39.3378 350.557 37.7285Z" fill="#263238"/>
<path d="M350.277 41.1914C351.214 41.729 352.152 42.3936 353.204 42.6124C354.26 42.6556 355.387 42.3323 356.453 42.1803C357.19 42.0462 357.935 41.9313 358.688 41.8334C357.988 42.1195 357.274 42.3625 356.546 42.5617C353.599 43.3824 352.471 43.4703 350.277 41.1914Z" fill="#263238"/>
<path d="M32.2227 44.8522C33.5088 45.1243 35.4028 45.6825 36.6884 45.7C37.3802 45.7096 38.083 45.3944 38.7581 45.0791C39.4322 44.7458 40.0984 44.3754 40.7616 43.9844C37.8239 46.9092 35.7755 46.5865 32.2227 44.8522Z" fill="#263238"/>
<path d="M32.0312 43.1207L34.42 43.568C35.1259 43.6553 36.0189 43.9113 36.668 43.6663C37.3525 43.3612 37.9818 42.8221 38.5839 42.3613L40.4518 40.8574C39.3664 42.16 38.233 43.6332 36.5267 44.231C34.958 44.3239 33.4409 43.7095 32.0312 43.1207Z" fill="#263238"/>
<path d="M32.4629 47.0342C35.1337 48.5807 36.523 47.8027 38.8597 46.2728L40.8595 44.9707C39.4733 46.3917 37.878 47.8062 35.8656 48.3192C34.5826 48.4542 33.3262 47.883 32.4629 47.0342Z" fill="#263238"/>
<path d="M274.672 145.847C273.347 147.132 227.218 168.069 224.931 167.855C224.68 167.829 223.812 165.829 220.742 161.013C220.594 160.784 190.684 147.673 190.684 147.673L213.779 123.162L243.701 138.187C243.701 138.187 267.314 139.844 269.804 140.335C272.285 140.838 275.996 144.561 274.672 145.847Z" fill="#FFBE93"/>
<path d="M241.624 136.442L215.448 162.641C215.448 162.641 184.195 144.275 181.299 145.061C178.485 145.825 159.666 182.566 131.339 188.563C108.889 193.316 96.0605 168.396 96.0605 168.396L124.964 150.431C124.964 150.431 127.588 150.45 128.18 149.839C145.904 131.518 159.731 110.368 175.42 107.104C191.094 103.844 241.624 136.442 241.624 136.442Z" fill="#263238"/>
<path d="M231.858 134.326C227.76 138.443 228.879 137.208 224.826 141.367C222.843 143.402 212.849 153.607 211.327 155.802C211.294 155.85 211.364 155.913 211.411 155.877C213.559 154.236 223.321 143.826 225.265 141.756C229.238 137.527 228.052 138.702 231.979 134.433C232.052 134.353 231.935 134.249 231.858 134.326Z" fill="#455A64"/>
<path d="M231.998 161.992C231.998 161.992 260.695 154.693 260.715 154.7C266.381 156.296 271.234 155.418 271.45 155.3C271.468 155.291 271.484 155.288 271.495 155.278C273.137 153.987 287.872 111.044 287.858 109.383C287.854 107.716 282.889 107.633 280.927 108.866C278.961 110.112 265.635 124.146 265.635 124.146L226.572 135.409L231.998 161.992Z" fill="#FFBE93"/>
<path d="M122.393 147.814C122.97 147.799 128.746 150.259 133.155 153.526C133.155 153.526 156.522 146.722 187.604 139.139C205.15 134.858 237.433 128.898 257.564 124.834L260.191 158.504L198.813 172.56C198.813 172.56 142.545 188.375 125.333 189.777C103.713 191.537 96.6152 167.717 96.6152 167.717C96.6152 167.717 122.37 147.812 122.393 147.814Z" fill="#263238"/>
<path d="M249.121 129.561C249.372 134.321 249.229 132.959 249.536 137.716C249.687 140.044 250.691 155.343 251.238 157.489C251.25 157.536 251.337 157.531 251.342 157.482C251.562 155.282 250.273 140.004 250.075 137.679C249.67 132.928 249.731 134.296 249.269 129.55C249.26 129.461 249.117 129.471 249.121 129.561Z" fill="#455A64"/>
<path d="M100.676 166.763C104.629 174.964 111.765 183.792 121.736 184.772C124.983 184.922 128.261 184.493 131.495 183.99C137.969 182.928 144.374 181.451 150.742 179.865C165.87 176.088 180.786 171.434 195.769 167.151C211.688 163.737 230.643 160.254 246.628 157.283C235.839 159.652 203.7 165.852 193.599 168.515C176.313 173.703 158.999 178.994 141.32 182.821C138.102 183.514 134.865 184.138 131.599 184.617C126.758 185.264 121.499 186.082 116.849 184.126C109.14 180.994 103.913 173.944 100.676 166.763Z" fill="#455A64"/>
<path d="M114.799 159.258C114.745 159.193 114.644 159.277 114.683 159.345C115.78 161.229 116.198 163.603 115.735 165.722C115.204 168.153 113.557 170.235 112.137 172.25C112.001 172.444 112.31 172.653 112.473 172.491C113.476 171.501 114.37 170.363 115.124 169.184C115.811 168.111 116.344 166.941 116.536 165.687C116.89 163.375 116.314 161.094 114.799 159.258Z" fill="#455A64"/>
<path d="M122.393 147.815C126.144 149.422 129.827 151.195 133.258 153.384L133.105 153.36C137.257 152.136 141.427 150.971 145.591 149.787C155.203 147.051 167.228 143.849 176.946 141.311C183.251 139.717 189.556 138.148 195.921 136.776C208.701 134.294 221.504 132.086 234.245 129.424C223.706 131.932 213.101 134.188 202.447 136.206C192.508 138.02 180.745 141.231 170.874 143.719C162.858 145.796 141.468 151.491 133.205 153.693L133.12 153.715L133.052 153.669C129.706 151.404 126.062 149.554 122.393 147.815Z" fill="#455A64"/>
<path d="M132.15 152.098C131.509 151.611 130.831 151.164 130.172 150.699C128.615 149.6 127.05 148.496 125.447 147.459C125.296 147.361 125.106 147.595 125.251 147.707C126.375 148.579 127.54 149.406 128.692 150.243C129.282 150.672 129.873 151.099 130.468 151.523C131.023 151.919 131.68 152.287 132.143 152.785C132.624 153.302 132.318 153.913 131.695 154.129C131.138 154.322 130.538 154.165 130.016 153.944C128.831 153.442 127.779 152.573 126.72 151.868C126.072 151.437 125.425 151.006 124.771 150.583C124.076 150.134 123.352 149.723 122.659 149.274C122.614 149.245 122.559 149.313 122.601 149.347C123.239 149.865 123.848 150.422 124.487 150.943C125.127 151.462 125.771 151.974 126.422 152.479C127.039 152.957 127.669 153.419 128.31 153.866C128.855 154.246 129.455 154.6 130.103 154.788C131.152 155.092 132.771 154.83 132.97 153.576C133.068 152.956 132.622 152.456 132.15 152.098Z" fill="#455A64"/>
<path d="M134.432 152.416C134.432 152.416 130.346 155.684 128.783 158.842L134.432 152.416Z" fill="#455A64"/>
<path d="M118.912 119.802C126.438 131.413 138.245 145.356 144.102 147.014C148.827 148.352 167.801 146.348 168.952 146.094C171.795 145.449 170.275 126.912 167.155 127.099C163.223 127.334 148.802 130.507 147.488 129.87C146.122 129.2 137.015 123.17 126.629 116.129C119.458 111.262 114.242 112.598 118.912 119.802Z" fill="#FFBE93"/>
<path d="M163.551 146.786C163.919 146.835 169.14 147.512 172.166 147.366C174.424 147.257 180.914 146.775 181.036 144.37C181.122 142.73 177.271 142.58 174.55 142.416C173.117 142.33 171.119 141.58 171.211 140.681C171.371 139.11 175.085 139.401 177.632 139.883C182.558 140.816 189.503 143.132 191.291 140.296C191.966 139.224 190.372 138.21 188.278 137.392C191.454 138.101 194.703 138.469 195.501 137.307C195.961 136.643 195.765 136.007 195.162 135.407C196.059 135.391 196.754 135.105 197.069 134.435C197.612 133.297 196.746 132.172 195.354 131.187C195.641 131.058 195.856 130.823 195.95 130.443C196.802 127.207 185.092 122.619 181.726 122.944C171.822 123.889 162.357 127.887 162.357 127.887C159.753 131.848 163.541 146.783 163.551 146.786Z" fill="#FFBE93"/>
<path d="M174.103 134.204C176.375 133.812 178.775 133.884 181.019 134.438C183.869 135.142 186.026 136.357 188.596 137.449C188.664 137.477 188.619 137.579 188.552 137.551C187.328 137.033 182.371 135.203 181.124 134.827C178.84 134.138 176.482 133.905 174.108 134.242C174.082 134.246 174.077 134.208 174.103 134.204Z" fill="#263238"/>
<path d="M174.468 129.898C177.101 129.732 179.796 129.554 182.421 129.908C185.294 130.296 187.907 131.615 190.461 132.872C191.995 133.626 193.513 134.412 195.01 135.233C195.072 135.267 195.031 135.368 194.965 135.335C192.361 134.025 189.716 132.788 187.034 131.634C184.51 130.549 181.911 129.94 179.146 129.855C177.589 129.807 176.03 129.874 174.474 129.942C174.445 129.943 174.439 129.9 174.468 129.898Z" fill="#263238"/>
<path d="M175.867 125.773C178.37 125.459 180.55 125.177 183.052 125.695C186.364 126.382 189.974 128.194 191.244 128.839C192.646 129.552 194.023 130.309 195.388 131.087C195.443 131.118 195.387 131.212 195.331 131.182C192.251 129.513 189.042 128.022 185.764 126.751C184.197 126.143 182.572 125.7 180.883 125.579C179.212 125.459 177.531 125.635 175.869 125.79C175.858 125.791 175.855 125.775 175.867 125.773Z" fill="#263238"/>
<path d="M130.615 137.264L136.961 119.702C136.961 119.702 124.383 113.163 117.134 111.143C113.072 110.01 112.518 112.327 114.237 115.608C120.255 127.095 130.615 137.264 130.615 137.264Z" fill="#455A64"/>
<path d="M135.388 124.06L136.963 119.702C136.963 119.702 135.977 119.188 134.398 118.405C134.007 118.786 133.873 119.192 133.692 119.147C133.477 119.101 133.598 118.538 133.465 117.945C132.523 117.486 131.434 116.964 130.259 116.408C130.255 116.408 130.255 116.408 130.255 116.408C128.211 116.669 126.408 118.6 126.761 119.723C126.898 120.145 127.419 120.705 128.043 120.899C128.331 120.986 128.486 120.953 128.873 121.094C129.153 121.194 129.884 121.508 129.854 121.753C129.786 122.238 127.135 121.67 126.154 122.9C125.319 123.94 125.741 126.21 127.17 127.018C127.307 127.097 128.292 127.636 129.071 127.275C129.575 127.039 129.742 126.538 130.741 125.908C131.02 125.734 131.162 125.676 131.244 125.73C131.489 125.883 130.862 126.737 130.977 127.661C131.089 128.518 131.816 129.289 132.608 129.612C132.841 129.707 133.077 129.765 133.318 129.79L135.272 124.379C135.177 124.172 135.108 123.965 135.216 123.994C135.276 124.01 135.332 124.031 135.388 124.06ZM133.633 123.248C132.962 123.443 132.26 123.107 132.066 122.494C131.873 121.881 132.265 121.227 132.935 121.032C133.602 120.837 134.303 121.173 134.497 121.786C134.691 122.399 134.304 123.053 133.633 123.248ZM125.346 114.196C125.802 114.784 126.215 115.435 126.761 115.045C126.813 115.008 126.873 114.954 126.933 114.892C126.408 114.656 125.879 114.424 125.346 114.196ZM124.64 113.894C123.349 113.347 122.058 112.825 120.819 112.365H120.815C120.299 112.431 119.369 112.448 118.974 112.991C118.496 113.637 118.806 115 119.688 115.456C119.774 115.497 120.381 115.8 120.841 115.564C121.142 115.411 121.228 115.104 121.818 114.702C121.981 114.59 122.063 114.553 122.119 114.582C122.27 114.669 121.908 115.199 122.003 115.754C122.089 116.268 122.549 116.72 123.035 116.894C124.098 117.283 125.371 116.401 125.436 115.701C125.479 115.24 125.032 114.515 124.64 113.894Z" fill="#37474F"/>
<path d="M133.863 119.352C132.654 121.976 129.588 129.184 128.233 134.12C128.225 134.149 128.338 134.192 128.351 134.164C130.123 130.222 133.065 122.131 134.032 119.416C134.05 119.365 133.886 119.303 133.863 119.352Z" fill="#263238"/>
<path opacity="0.1" d="M134.431 126.7L130.614 137.264C130.614 137.264 120.254 127.095 114.24 115.61C113.193 113.617 112.986 111.977 113.898 111.254L134.431 126.7Z" fill="black"/>
<path d="M325.768 81.8544C325.372 82.5711 299.995 128.451 266.297 160.942C223.038 202.651 148.92 205.712 116.96 194.68C76.0161 180.55 55.1096 89.9659 51.8867 74.8491L51.9514 73.9707C51.9555 73.9747 51.9555 73.9747 51.9555 73.9787C52.334 75.2632 76.674 157.495 126.09 171.526C175.889 185.67 253.453 168.085 325.768 81.8544Z" fill="#62479B"/>
<g opacity="0.1">
<path d="M81.3906 154.904C81.3906 154.904 100.671 182.813 111.633 188.14C124.673 194.477 148.538 197.645 149.539 197.232C150.541 196.819 130.403 193.337 112.339 184.627C105.916 181.53 81.3906 154.904 81.3906 154.904Z" fill="black"/>
<path d="M135.26 191.516C135.26 191.516 146.176 195.442 152.257 195.579C158.338 195.717 165.792 193.444 166.107 193.169C166.422 192.893 157.837 193.863 152.257 193.551C146.677 193.237 136.362 191.516 135.26 191.516Z" fill="black"/>
</g>
<path d="M133.95 150.03L94.2177 167.307C93.9101 166.456 86.7183 129.426 94.4569 113.712C96.0799 110.416 102.68 109.643 104.903 111.372C117.147 120.896 134.304 149.281 133.95 150.03Z" fill="#EBEBEB"/>
<path d="M97.2271 111.137C97.2271 111.137 109.39 129.494 109.833 131.265C110.277 133.037 118.576 159.239 118.576 159.239L93.8066 168.407C93.8066 168.407 84.749 116.513 97.2271 111.137Z" fill="#455A64"/>
<path d="M105.768 111.074C105.768 111.074 113.772 124.023 115.124 125.82C116.477 127.617 131.23 154.892 131.23 154.892L135.268 149.033C135.268 149.033 112.895 115.117 105.768 111.074Z" fill="#455A64"/>
<path d="M109.324 149.812C108.459 149.464 106.777 149.849 105.352 150.181C105.051 150.251 104.346 150.371 104.453 150.205C105.383 148.755 109.526 148.983 108.838 147.086C108.553 146.299 107.181 144.534 105.43 144.708C103.477 144.903 102.388 147.62 102.01 147.873C101.433 148.254 103.219 145.015 100.779 144.526C99.9488 144.36 97.961 145.023 97.3369 145.822C96.6097 146.754 97.1388 148.341 97.595 149.219C97.926 149.861 98.4469 150.164 98.3306 150.367C98.1669 150.648 97.143 150.036 96.1405 150.309C94.9617 150.636 94.2991 152.073 94.1099 153.035C93.6537 155.375 95.4137 158.076 96.8724 158.035C97.4058 158.019 98.219 157.629 98.6366 157.012C98.83 156.73 98.8347 156.548 99.1183 156.171C99.3206 155.906 99.9144 155.206 100.19 155.318C100.736 155.537 99.2601 158.234 100.392 159.672C101.351 160.89 104.127 161.134 105.512 159.837C105.645 159.713 106.574 158.81 106.39 157.857C106.269 157.24 105.74 156.904 105.314 155.632C105.194 155.276 105.168 155.106 105.259 155.032C105.512 154.812 106.313 155.756 107.427 155.914C108.464 156.059 109.587 155.504 110.207 154.75C111.562 153.097 110.619 150.334 109.324 149.812ZM101.734 153.151C100.964 153.171 100.319 152.55 100.293 151.763C100.272 150.976 100.883 150.325 101.653 150.305C102.427 150.284 103.073 150.901 103.094 151.689C103.115 152.476 102.509 153.13 101.734 153.151ZM103.486 123.966C103.279 122.818 101.717 122.101 100.74 121.816C100.026 121.609 99.4452 121.766 99.3722 121.547C99.269 121.236 100.439 120.942 100.917 120.052C101.476 119.003 100.848 117.553 100.25 116.762C98.7956 114.836 95.5472 114.214 94.5791 115.262C94.2261 115.647 93.9639 116.485 94.1401 117.201C94.222 117.528 94.3554 117.661 94.4456 118.117C94.5056 118.44 94.6307 119.334 94.3554 119.451C94.0025 119.604 93.4348 118.403 92.5485 117.512C91.4813 120.801 90.935 125.027 90.7285 129.642C91.2962 129.795 91.8431 129.799 92.2472 129.625C93.1032 129.261 93.9639 127.815 94.6953 126.593C94.8502 126.332 95.2375 125.756 95.2933 125.946C95.7495 127.591 92.733 130.338 94.639 131.158C95.4309 131.498 97.7024 131.751 98.7737 130.4C99.9655 128.9 98.6616 126.274 98.7305 125.835C98.8379 125.168 100.06 128.644 102.104 127.273C102.797 126.803 103.662 124.952 103.486 123.966ZM97.1393 123.916C96.6232 124.471 95.7109 124.5 95.1041 123.974C94.4931 123.452 94.4159 122.578 94.932 122.023C95.4481 121.468 96.3605 121.438 96.9673 121.965C97.5778 122.486 97.6555 123.36 97.1393 123.916ZM120.666 128.108C120.821 128.51 121.101 128.875 121.441 129.16C121.182 128.808 120.924 128.456 120.666 128.108ZM116.355 122.416C116.109 122.532 115.894 122.69 115.726 122.901C114.892 123.941 115.314 126.211 116.742 127.019C116.88 127.098 117.865 127.637 118.644 127.276C118.967 127.127 119.147 126.866 119.5 126.535C118.442 125.125 117.392 123.742 116.355 122.416ZM131.784 143.851C130.618 144.58 129.844 145.727 130.089 146.494C130.222 146.916 130.747 147.476 131.371 147.67C131.655 147.757 131.814 147.724 132.201 147.865C132.476 147.969 133.212 148.279 133.178 148.524C133.113 149.009 130.458 148.445 129.477 149.671C129.223 149.986 129.09 150.421 129.064 150.893C129.748 152.157 130.308 153.193 130.686 153.889C130.914 153.996 131.31 154.154 131.727 154.166L135.268 149.033C135.269 149.033 133.923 146.991 131.784 143.851ZM110.985 137.413C110.555 136.526 108.984 136.476 108.791 136.339C108.498 136.132 110.452 136.422 110.284 135.188C110.228 134.769 109.552 133.941 109.036 133.783C108.438 133.601 107.72 134.123 107.354 134.488C107.083 134.753 107.018 135.047 106.894 135.03C106.721 135.001 106.859 134.413 106.549 133.986C106.184 133.485 105.336 133.418 104.815 133.493C103.546 133.679 102.475 134.968 102.742 135.648C102.841 135.9 103.181 136.215 103.563 136.306C103.744 136.352 103.834 136.323 104.075 136.393C104.247 136.443 104.703 136.6 104.695 136.749C104.673 137.048 103.051 136.812 102.509 137.59C102.052 138.249 102.405 139.604 103.3 140.034C103.386 140.076 104.006 140.361 104.458 140.108C104.75 139.947 104.832 139.64 105.409 139.222C105.568 139.106 105.65 139.064 105.701 139.094C105.856 139.176 105.512 139.715 105.624 140.266C105.727 140.78 106.2 141.215 106.691 141.38C107.762 141.737 109.01 140.821 109.053 140.121C109.083 139.653 108.597 138.924 108.188 138.311C108.102 138.178 107.917 137.867 108.024 137.888C108.919 138.079 109.509 140.075 110.356 139.425C110.71 139.157 111.376 138.212 110.985 137.413ZM107.035 137.504C106.64 137.649 106.201 137.471 106.059 137.11C105.917 136.75 106.123 136.34 106.519 136.195C106.915 136.05 107.354 136.224 107.496 136.588C107.637 136.949 107.431 137.359 107.035 137.504ZM126.974 136.882C126.647 137.052 126.216 136.936 125.997 136.609C125.786 136.294 125.846 135.892 126.117 135.668C125.549 134.865 124.968 134.044 124.375 133.216C124.323 133.228 124.267 133.24 124.211 133.261C123.798 133.398 123.092 134.206 123.037 134.724C122.972 135.324 123.648 135.892 124.091 136.169C124.418 136.368 124.732 136.372 124.736 136.488C124.736 136.658 124.117 136.646 123.747 137.027C123.312 137.474 123.411 138.282 123.596 138.758C124.039 139.918 125.567 140.672 126.208 140.279C126.44 140.138 126.694 139.753 126.711 139.372C126.716 139.197 126.669 139.115 126.694 138.875C126.711 138.701 126.78 138.241 126.931 138.22C127.236 138.179 127.327 139.757 128.226 140.105C128.505 140.213 128.862 140.2 129.211 140.096C128.501 139.074 127.753 137.997 126.974 136.882ZM108.425 113.211C108.137 113.907 108.468 115.046 109.26 115.456C109.346 115.498 109.953 115.8 110.413 115.564C110.473 115.531 110.529 115.494 110.577 115.448C109.815 114.607 109.092 113.857 108.425 113.211Z" fill="#37474F"/>
<path d="M175.224 152.852H122.375V154.904H175.224V152.852Z" fill="#455A64"/>
<path d="M151.618 152.852H122.375V154.904H151.618V152.852Z" fill="#A6A6A6"/>
<path d="M150.73 154.902H197.048L203.593 124.613H157.275L150.73 154.902Z" fill="#A6A6A6"/>
<path d="M152.83 154.902H199.148L205.693 124.613H159.374L152.83 154.902Z" fill="#C7C7C7"/>
<path d="M176.174 140.435C175.994 142.077 177.231 143.408 178.936 143.408C180.641 143.408 182.168 142.077 182.348 140.435C182.527 138.794 181.29 137.463 179.585 137.463C177.88 137.463 176.353 138.794 176.174 140.435Z" fill="#EBEBEB"/>
<path d="M91.8935 119.274C86.5947 136.733 85.2648 165.156 90.7247 168.596C96.8055 172.427 104.126 148.01 103.541 147.109C103.099 146.428 101.452 132.409 98.6271 119.763C96.28 109.258 93.2042 114.957 91.8935 119.274Z" fill="#FFBE93"/>
<path d="M84.9941 141.269L103.375 135.563C103.375 135.563 101.215 121.957 98.5212 115.17C97.0119 111.367 94.7582 112.337 93.0743 115.636C87.1796 127.182 84.9941 141.269 84.9941 141.269Z" fill="#455A64"/>
<path d="M100.56 121.771C99.9319 121.634 99.4413 121.746 99.3725 121.547C99.3037 121.339 99.8068 121.137 100.293 120.756C99.7723 118.805 99.2088 116.953 98.6197 115.42C97.0963 114.616 95.2633 114.521 94.5793 115.262C94.2264 115.647 93.9642 116.485 94.1404 117.201C94.2222 117.528 94.3557 117.661 94.4459 118.116C94.5058 118.44 94.631 119.334 94.3557 119.451C93.9642 119.62 93.3188 118.145 92.2777 117.255C91.4472 119.011 90.6985 120.809 90.0229 122.591C90.1991 122.653 90.393 122.727 90.6037 122.823C90.9524 122.984 91.0984 123.084 91.0942 123.196C91.0859 123.448 90.3414 123.453 89.597 123.751C89.098 125.122 88.6461 126.481 88.2373 127.794C89.072 129.289 91.1719 130.089 92.2474 129.625C93.1034 129.261 93.9642 127.815 94.6956 126.593C94.8504 126.332 95.2378 125.756 95.2936 125.946C95.7497 127.591 92.7333 130.337 94.6393 131.158C95.4312 131.498 97.7027 131.75 98.774 130.4C99.9658 128.9 98.6619 126.274 98.7307 125.835C98.8339 125.197 99.9611 128.366 101.855 127.413C101.477 125.602 101.038 123.655 100.56 121.771ZM97.1396 123.916C96.6235 124.472 95.7112 124.501 95.1043 123.975C94.4933 123.453 94.4162 122.579 94.9323 122.024C95.4484 121.468 96.3607 121.439 96.9676 121.966C97.578 122.487 97.6557 123.361 97.1396 123.916ZM103.184 134.41C102.801 134.833 102.612 135.313 102.741 135.649C102.754 135.682 102.772 135.711 102.789 135.744L103.374 135.562C103.374 135.562 103.31 135.144 103.184 134.41ZM89.6444 134.145C89.1882 133.979 88.3233 134.215 87.5919 134.41C87.4371 134.455 87.0758 134.53 87.1274 134.443C87.5794 133.672 89.7304 133.709 89.3347 132.74C89.171 132.338 88.4224 131.448 87.5189 131.572C87.3683 131.593 87.2265 131.642 87.1013 131.713C86.8047 132.828 86.5419 133.88 86.3094 134.849C86.3913 134.957 86.4429 135.094 86.4512 135.239C86.4726 135.546 86.3094 135.819 86.0555 135.947C85.7245 137.397 85.4748 138.615 85.3027 139.518C85.8835 140.048 87.2218 140.081 87.8755 139.415C87.9402 139.348 88.4047 138.864 88.2884 138.375C88.2154 138.056 87.9313 137.89 87.6863 137.24C87.6175 137.057 87.6002 136.971 87.643 136.929C87.7723 136.813 88.2066 137.285 88.7873 137.343C89.3253 137.401 89.8972 137.091 90.2027 136.689C90.8706 135.806 90.3242 134.389 89.6444 134.145Z" fill="#37474F"/>
<path d="M101.799 132.971C98.8954 133.623 91.0733 135.612 86.166 137.544C86.1362 137.556 86.1691 137.669 86.1999 137.662C90.5347 136.648 99.0137 134.031 101.847 133.139C101.901 133.123 101.853 132.959 101.799 132.971Z" fill="#263238"/>
<path d="M101.134 136.26C101.861 135.968 102.593 135.694 103.33 135.431L103.231 135.588C102.754 133.57 102.343 131.542 101.98 129.504C101.621 127.466 101.299 125.422 101.082 123.357C101.629 125.361 102.072 127.386 102.477 129.417C102.878 131.449 103.23 133.49 103.517 135.54L103.535 135.666L103.419 135.697C102.661 135.898 101.9 136.087 101.134 136.26Z" fill="#263238"/>
<path d="M101.905 127.412C101.841 126.966 101.869 126.532 101.912 126.098C101.965 125.664 102.039 125.241 102.167 124.801C102.244 125.016 102.264 125.238 102.275 125.458C102.291 125.68 102.273 125.9 102.252 126.119C102.196 126.557 102.105 126.992 101.905 127.412Z" fill="#263238"/>
<path d="M90.2139 168.231C92.9598 171.441 98.9822 168.946 118.3 161.889C120.973 160.913 118.891 140.896 115.981 141.797C112.315 142.933 101.1 146.833 100.129 147.335C91.9307 151.572 87.9664 165.604 90.2139 168.231Z" fill="#FFBE93"/>
<path d="M92.269 155.75C93.0385 153.937 97.803 147.394 105.244 145.375C105.295 145.361 105.34 145.428 105.291 145.448C98.7966 148.112 93.2361 154.106 92.341 155.79C92.3175 155.834 92.2497 155.795 92.269 155.75Z" fill="#263238"/>
<path d="M113.672 142.786C113.672 142.786 120.892 139.667 125.713 137.839C128.402 136.819 133.171 135.461 135.497 135.573C138.975 135.739 153.389 138.562 152.715 141.925C152.105 144.97 140.059 141.038 140.059 141.038C140.059 141.038 152.591 143.974 151.153 147.517C149.714 151.061 136.739 144.882 136.739 144.882C136.739 144.882 149.543 148.175 147.457 151.611C145.881 154.207 133.793 149.247 133.793 149.247C133.793 149.247 144.776 152.151 143.275 154.886C141.616 157.909 130.151 154.003 130.151 154.003C125.117 160.353 119.403 162.522 115.609 161.697C114.73 161.507 113.672 142.786 113.672 142.786Z" fill="#FFBE93"/>
<path d="M136.38 139.913C145.791 141.399 149.902 144.89 149.773 144.819C146.724 143.133 141.551 141.555 140.098 141.135C138.649 140.716 137.81 140.384 136.361 139.965C136.325 139.954 136.345 139.907 136.38 139.913Z" fill="#263238"/>
<path d="M134.064 144.756C138.57 145.183 143.466 147.066 145.043 147.969C145.171 148.042 145.108 148.075 144.966 148.03C143.135 147.448 135.901 145.293 134.049 144.798C134.02 144.791 134.035 144.753 134.064 144.756Z" fill="#263238"/>
<path d="M131.775 148.8C135.771 149.471 137.486 150.158 140.196 151.528C140.326 151.594 140.227 151.644 140.085 151.596C137.304 150.638 135.13 149.868 131.754 148.897C131.701 148.881 131.714 148.789 131.775 148.8Z" fill="#263238"/>
<path d="M126.232 137.633C129.119 136.723 132.006 135.736 135.058 135.488C136.589 135.527 138.093 135.742 139.595 135.974C142.597 136.466 145.588 137.077 148.446 138.118C149.881 138.677 151.355 139.249 152.422 140.402C152.983 140.995 153.252 142.087 152.561 142.707C151.908 143.3 151.008 143.204 150.209 143.214C148.669 143.163 147.162 142.975 145.652 142.76L145.77 142.309C147.798 143.122 151.885 144.777 151.386 147.397C151.251 148.106 150.552 148.619 149.848 148.74C147.819 149.064 145.806 148.376 143.942 147.696L144.017 147.518C145.371 148.171 148.237 149.502 147.553 151.303C148.151 149.524 145.283 148.293 143.941 147.695L144.017 147.517C145.843 148.106 147.841 148.757 149.768 148.413C150.384 148.284 150.901 147.893 151.003 147.311C151.357 145.017 147.423 143.458 145.607 142.749L143.535 142.003L145.726 142.299C147.216 142.5 148.727 142.676 150.221 142.713C150.95 142.707 151.769 142.778 152.208 142.358C153.162 141.143 151.328 139.977 150.32 139.431C146.971 137.767 143.218 136.976 139.542 136.265C138.057 136.012 136.557 135.754 135.053 135.664C132.054 135.846 129.108 136.804 126.232 137.633Z" fill="#263238"/>
<path d="M103.576 109.498C103.576 109.498 109.203 116.653 111.438 120.155L110.218 112.89L104.352 107.035L103.576 109.498Z" fill="#455A64"/>
<path d="M105.807 118.236C103.729 118.475 99.1065 115.032 97.1723 111.991C97.0409 111.782 97.2677 109.508 97.408 106.732C97.4862 105.048 97.532 103.169 97.445 101.453L108.758 103.544C108.758 103.544 107.84 107.194 108.011 110.185C108.028 110.435 108.065 110.666 108.123 110.886C108.129 110.918 108.141 110.957 108.145 111.002C108.439 112.329 109.061 117.862 105.807 118.236Z" fill="#FFBE93"/>
<path d="M108.122 110.885C108.127 110.918 108.142 110.952 108.147 111.001C107.795 111.065 107.42 111.102 106.998 111.113C100.634 111.271 98.7021 103.885 98.2637 101.602L108.762 103.54C108.762 103.54 107.844 107.189 108.007 110.185C108.03 110.431 108.063 110.661 108.122 110.885Z" fill="#263238"/>
<path d="M97.0626 87.9715C95.4907 91.6693 96.5214 102.848 99.0968 105.55C102.831 109.466 109.47 110.4 113.059 105.963C116.537 101.662 114.927 87.1161 112 84.6089C107.691 80.917 99.384 82.5092 97.0626 87.9715Z" fill="#FFBE93"/>
<path d="M105.729 94.7112C106.069 94.6088 106.364 94.4597 106.689 94.3252C107.056 94.1731 107.365 94.0883 107.591 93.7515C107.712 93.5708 107.639 93.2626 107.467 93.1326C107.068 92.8299 106.572 92.9087 106.122 93.0743C105.635 93.254 105.307 93.513 105.047 93.9477C104.796 94.3694 105.281 94.8462 105.729 94.7112Z" fill="#263238"/>
<path d="M113.658 94.3418C113.304 94.3061 112.983 94.2163 112.638 94.146C112.247 94.0667 111.927 94.0421 111.636 93.755C111.48 93.6009 111.489 93.2852 111.63 93.125C111.958 92.7526 112.462 92.7355 112.936 92.8118C113.452 92.8951 113.826 93.0864 114.17 93.4634C114.503 93.8293 114.125 94.3889 113.658 94.3418Z" fill="#263238"/>
<path d="M106.806 103.45C107.004 103.616 107.206 103.85 107.492 103.857C107.766 103.864 108.079 103.728 108.323 103.621C108.347 103.61 108.374 103.634 108.36 103.658C108.173 103.958 107.756 104.163 107.389 104.122C107.03 104.082 106.837 103.796 106.733 103.488C106.719 103.445 106.777 103.426 106.806 103.45Z" fill="#263238"/>
<path d="M107.496 101.146C107.973 101.777 108.639 102.1 109.345 102.192C109.66 102.235 109.988 102.227 110.307 102.181C110.37 102.176 110.433 102.166 110.489 102.151C110.546 102.141 110.597 102.132 110.66 102.117C110.75 102.099 110.796 102.023 110.807 101.939L110.806 101.933C110.804 101.906 110.802 101.884 110.794 101.857C110.794 101.857 110.794 101.857 110.794 101.851L110.788 101.785C110.771 101.203 110.659 100.322 110.659 100.322C110.886 100.416 112.039 100.842 112.003 100.539C111.698 98.0342 111.359 95.2494 110.506 92.8189C110.482 92.7376 110.351 92.7637 110.364 92.846C110.558 95.2644 111.193 97.6331 111.428 100.059C111.062 99.9476 110.461 99.7368 110.147 99.7604C110.062 99.789 110.393 101.459 110.379 101.721C110.379 101.721 110.38 101.732 110.376 101.749C109.369 101.929 108.587 101.676 107.564 101.075C107.504 101.034 107.445 101.089 107.496 101.146Z" fill="#263238"/>
<path d="M109.934 101.907C109.934 101.907 109.44 102.632 108.722 102.923C108.458 103.031 108.169 103.084 107.86 103.022C107.225 102.898 107.177 102.346 107.263 101.867C107.333 101.473 107.5 101.127 107.5 101.127C107.5 101.127 108.463 101.9 109.934 101.907Z" fill="#263238"/>
<path d="M108.722 102.923C108.458 103.031 108.169 103.084 107.86 103.023C107.225 102.899 107.177 102.347 107.263 101.867C107.938 101.896 108.629 102.298 108.722 102.923Z" fill="#FF9ABB"/>
<path d="M107.622 96.4504C107.615 96.4218 107.562 96.4875 107.564 96.5182C107.609 97.2681 107.529 98.1344 106.831 98.4015C106.809 98.41 106.812 98.4472 106.839 98.4431C107.697 98.3051 107.79 97.1541 107.622 96.4504Z" fill="#263238"/>
<path d="M106.905 95.6827C105.648 95.6225 105.616 98.0464 106.78 98.1022C107.925 98.1574 107.958 95.7334 106.905 95.6827Z" fill="#263238"/>
<path d="M112.163 96.2161C112.17 96.1875 112.224 96.2527 112.222 96.2838C112.181 97.0337 112.266 97.8996 112.966 98.1631C112.987 98.1712 112.984 98.2088 112.958 98.2048C112.1 98.0713 112 96.9208 112.163 96.2161Z" fill="#263238"/>
<path d="M112.877 95.4467C114.133 95.3799 114.18 97.8033 113.016 97.8651C111.871 97.9263 111.825 95.5029 112.877 95.4467Z" fill="#263238"/>
<path d="M99.5161 94.851C100.72 92.6851 100.015 88.6253 101.382 87.785C104.342 85.966 108.881 91.0829 112.498 91.6812C116.004 92.2614 117.552 90.2757 117.389 87.4327C117.227 84.5896 115.125 82.3615 111.283 81.1673C107.31 79.9315 103.323 80.9204 101.09 81.8445C101.09 81.8445 102.211 80.6167 101.953 80.1383C101.695 79.66 99.7497 80.702 99.1277 81.1794C98.4964 81.6642 97.9886 82.6712 97.9886 82.6712C97.9886 82.6712 97.3797 82.3861 96.4137 82.256C95.5175 82.1356 94.2773 82.6295 94.1787 82.8212C94.0802 83.013 95.3309 83.3739 96.2187 83.5601C96.2187 83.5601 94.1824 85.4289 93.904 87.2615C93.6256 89.0941 95.0864 98.2432 95.7792 98.45C96.6707 98.7155 99.0271 95.7309 99.5161 94.851Z" fill="#263238"/>
<path d="M96.6048 83.3948C96.6392 83.3817 96.6747 83.4304 96.6397 83.451C95.6638 84.0247 94.8297 84.7415 94.2974 85.7324C93.678 86.8848 93.5383 88.2115 93.6113 89.4905C93.7541 91.9786 94.5971 94.3494 95.2754 96.7331C95.2952 96.8029 95.1732 96.837 95.1487 96.7688C94.2624 94.2886 93.3887 91.6082 93.3485 88.9654C93.3141 86.7122 94.2739 84.2802 96.6048 83.3948Z" fill="#263238"/>
<path d="M101.397 86.875C102.45 86.9006 103.581 87.1777 104.546 87.5833C105.496 87.9829 106.243 88.7127 107.051 89.319C108.865 90.6798 110.913 91.8373 113.24 92.0682C113.27 92.0712 113.264 92.1134 113.235 92.1124C111.085 92.0311 109.13 91.0995 107.414 89.9043C106.549 89.3015 105.769 88.5124 104.834 88.014C103.77 87.4478 102.552 87.2696 101.374 87.0583C101.252 87.0367 101.274 86.872 101.397 86.875Z" fill="#263238"/>
<path d="M103.418 81.227C104.948 80.7577 106.564 80.5474 108.167 80.5127C109.706 80.4796 111.268 80.6081 112.733 81.0849C115.262 81.9076 117.38 83.8833 117.546 86.5512C117.631 87.9029 117.243 89.3109 116.345 90.3695C116.285 90.4408 116.173 90.36 116.226 90.2837C117.683 88.2031 117.733 85.4072 116.035 83.4316C114.21 81.3098 111.239 80.6954 108.508 80.6804C106.789 80.6708 105.102 80.9113 103.423 81.2451C103.413 81.2476 103.407 81.2305 103.418 81.227Z" fill="#263238"/>
<path d="M105.616 100.566C104.009 100.431 102.635 99.2614 102.364 97.6596C102.043 95.7648 103.382 93.9723 105.35 93.6631C107.317 93.3534 109.179 94.6429 109.501 96.5373C109.821 98.4312 108.482 100.224 106.515 100.533C106.21 100.582 105.91 100.592 105.616 100.566ZM106.205 94.0943C105.951 94.0727 105.69 94.0812 105.427 94.1224C103.723 94.3904 102.563 95.9435 102.84 97.5844C103.119 99.2247 104.733 100.344 106.436 100.075C108.14 99.8065 109.3 98.2535 109.023 96.6126C108.787 95.2252 107.598 94.2117 106.205 94.0943Z" fill="#37474F"/>
<path d="M113.906 100.291C112.528 100.174 111.402 98.7103 111.346 96.8947C111.317 95.9787 111.562 95.1068 112.035 94.4407C112.523 93.751 113.196 93.36 113.93 93.3389C114.666 93.3163 115.359 93.6702 115.889 94.3313C116.402 94.9703 116.699 95.8261 116.727 96.7421C116.785 98.6606 115.626 100.255 114.143 100.298C114.063 100.299 113.985 100.297 113.906 100.291ZM114.128 93.8092C114.067 93.8042 114.006 93.8022 113.944 93.8042C113.37 93.8203 112.833 94.1395 112.434 94.7027C112.019 95.289 111.804 96.0625 111.829 96.8807C111.88 98.5426 112.907 99.8683 114.129 99.8322C115.346 99.798 116.294 98.4171 116.244 96.7557C116.219 95.937 115.957 95.1771 115.506 94.6154C115.12 94.1335 114.636 93.8524 114.128 93.8092Z" fill="#37474F"/>
<path d="M109.39 96.9459L109.068 96.598C109.603 96.1397 110.852 95.5073 111.762 96.3917L111.419 96.719C110.605 95.9259 109.439 96.9042 109.39 96.9459Z" fill="#37474F"/>
<path d="M93.3147 98.2972L92.8789 98.096C92.9769 97.9002 93.8632 96.179 94.9371 95.9797C95.9407 95.796 102.434 96.1966 102.71 96.2141L102.679 96.6785C100.817 96.562 95.8036 96.293 95.0289 96.437C94.3199 96.568 93.5514 97.8244 93.3147 98.2972Z" fill="#37474F"/>
<path d="M98.6442 97.1484C98.6442 97.1484 96.3258 93.4079 94.5809 94.1789C92.836 94.9499 94.3927 100.247 96.3102 101.09C98.2271 101.934 99.0727 100.24 99.0727 100.24L98.6442 97.1484Z" fill="#FFBE93"/>
<path d="M95.0667 95.686C95.0354 95.6809 95.0261 95.7231 95.0526 95.7362C96.3935 96.3711 97.0285 97.6551 97.4414 98.9692C97.0676 98.4482 96.5285 98.14 95.8086 98.5626C95.771 98.5852 95.8013 98.6415 95.8404 98.6364C96.4149 98.5591 96.8163 98.6821 97.1656 99.1449C97.4132 99.4727 97.5686 99.8762 97.736 100.247C97.7917 100.37 98.0196 100.322 97.9825 100.182C97.9799 100.172 97.9768 100.161 97.9737 100.15C98.1358 98.4567 96.9446 95.9886 95.0667 95.686Z" fill="#263238"/>
<path d="M96.2812 111.821V107.998L103.038 114.989L105.769 124.351C105.769 124.351 99.4869 114.197 96.2812 111.821Z" fill="#455A64"/>
<path d="M66.8094 226.034H7.60938C7.60938 226.034 12.2581 214.845 16.2228 214.845C20.1876 214.845 21.1448 219.32 21.9653 219.452C22.7859 219.583 27.981 199.18 38.2351 199.18C48.4892 199.18 49.2045 213.001 50.2826 213.265C51.3602 213.528 53.5477 210.941 59.2902 210.941C65.0327 210.941 66.8094 226.034 66.8094 226.034Z" fill="#37474F"/>
<path d="M63.502 218.59C63.502 218.59 59.7291 219.058 58.8809 222.227C58.8809 222.227 62.6496 222.356 63.502 218.59Z" fill="#455A64"/>
<path d="M37.7712 201.777C37.7712 201.777 35.958 204.997 38.132 207.514C38.132 207.514 40.4452 204.646 37.7712 201.777Z" fill="#455A64"/>
<path d="M59.3848 223.618C59.3848 223.618 60.515 222.279 62.4471 223.083C62.4471 223.083 61.554 224.692 59.3848 223.618Z" fill="#455A64"/>
<path d="M58.3313 218.75C58.3313 218.75 59.7503 217.9 59.8702 215.525C59.8702 215.525 57.4695 216.038 58.3313 218.75Z" fill="#455A64"/>
<path d="M17.1187 223.082C17.1187 223.082 16.8351 221.496 14.596 220.494C14.596 220.494 14.1841 222.828 17.1187 223.082Z" fill="#455A64"/>
<path d="M35.5061 205.662C35.5061 205.662 35.2653 204.069 33.0538 203.012C33.0538 203.012 32.5799 205.335 35.5061 205.662Z" fill="#455A64"/>
<path d="M352.344 223.741H297.332C297.332 223.741 305.396 210.405 311.621 209.65C317.847 208.896 317.847 217.577 318.37 217.577C318.893 217.577 323.597 201.473 331.437 201.473C339.277 201.473 341.368 213.551 341.76 213.928C342.152 214.306 344.635 208.644 348.293 208.644C351.952 208.644 352.344 223.741 352.344 223.741Z" fill="#455A64"/>
<path d="M334.271 204.438C334.271 204.438 332.266 206.979 333.792 209.424C333.792 209.424 336.179 207.249 334.271 204.438Z" fill="#37474F"/>
<path d="M305.344 217.439C305.344 217.439 306.312 220.492 309.264 220.731C309.264 220.731 308.829 217.595 305.344 217.439Z" fill="#37474F"/>
<path d="M334.999 209.97C334.999 209.97 334.827 208.477 336.527 207.812C336.527 207.812 337.018 209.33 334.999 209.97Z" fill="#37474F"/>
<path d="M331.131 211.87C331.131 211.87 330.662 210.541 328.594 209.973C328.594 209.973 328.569 212.036 331.131 211.87Z" fill="#37474F"/>
<path d="M306.464 221.167C306.464 221.167 305.29 220.337 303.256 221.013C303.256 221.013 304.464 222.717 306.464 221.167Z" fill="#37474F"/>
<path d="M365.745 223.741H333.809C333.809 223.741 336.316 217.705 338.455 217.705C340.594 217.705 341.11 220.119 341.553 220.19C341.996 220.261 344.798 209.254 350.33 209.254C355.862 209.254 356.248 216.71 356.83 216.852C357.411 216.994 358.591 212.352 361.689 212.352C364.787 212.352 365.745 223.741 365.745 223.741Z" fill="#37474F"/>
<path d="M362.419 216.623C362.419 216.623 359.5 218.135 359.835 220.969C359.835 220.969 362.944 219.944 362.419 216.623Z" fill="#455A64"/>
<path d="M346.578 213.012C346.578 213.012 346.653 216.203 349.429 217.201C349.429 217.201 349.89 214.068 346.578 213.012Z" fill="#455A64"/>
<path d="M350.309 214.553C350.309 214.553 349.419 213.317 350.586 211.955C350.586 211.955 351.769 213.064 350.309 214.553Z" fill="#455A64"/>
<path d="M348.294 218.109C348.294 218.109 347.359 217.034 345.217 217.224C345.217 217.224 345.968 219.156 348.294 218.109Z" fill="#455A64"/>
<path d="M340.178 221.947C340.178 221.947 339.837 220.583 337.831 219.836C337.831 219.836 337.612 221.888 340.178 221.947Z" fill="#455A64"/>
<path d="M92.1639 226.035H55.5137C55.5137 226.035 58.3914 219.108 60.8464 219.108C63.3008 219.108 63.8936 221.879 64.4014 221.96C64.9091 222.042 68.1258 209.41 74.474 209.41C80.8223 209.41 81.2655 217.967 81.9328 218.13C82.6001 218.293 83.9545 215.764 87.5095 215.764C91.0634 215.764 92.1639 226.035 92.1639 226.035Z" fill="#455A64"/>
<path d="M88.3467 217.867C88.3467 217.867 84.9972 219.603 85.3824 222.856C85.3824 222.856 88.9499 221.679 88.3467 217.867Z" fill="#37474F"/>
<path d="M70.166 213.723C70.166 213.723 70.2526 217.384 73.4374 218.529C73.4374 218.529 73.9671 214.935 70.166 213.723Z" fill="#37474F"/>
<path d="M74.4508 215.491C74.4508 215.491 73.4295 214.073 74.7683 212.51C74.7683 212.51 76.1258 213.783 74.4508 215.491Z" fill="#37474F"/>
<path d="M72.1331 219.572C72.1331 219.572 71.0602 218.338 68.6016 218.555C68.6016 218.555 69.4638 220.772 72.1331 219.572Z" fill="#37474F"/>
<path d="M62.8221 223.975C62.8221 223.975 62.4311 222.411 60.1284 221.553C60.1284 221.553 59.8771 223.908 62.8221 223.975Z" fill="#37474F"/>
</svg>
