<svg width="40" height="40" viewBox="0 0 40 40" fill="none" xmlns="http://www.w3.org/2000/svg">
<path d="M16.6673 28.25H10.3507C4.73398 28.25 3.33398 26.85 3.33398 21.2333V11.2333C3.33398 5.61667 4.73398 4.21667 10.3507 4.21667H27.9007C33.5173 4.21667 34.9173 5.61667 34.9173 11.2333" stroke="#222222" stroke-width="1.5" stroke-linecap="round" stroke-linejoin="round"/>
<path d="M16.666 35.7833V28.25" stroke="#222222" stroke-width="1.5" stroke-linecap="round" stroke-linejoin="round"/>
<path d="M3.33398 21.5833H16.6673" stroke="#222222" stroke-width="1.5" stroke-linecap="round" stroke-linejoin="round"/>
<path d="M11.2324 35.7833H16.6658" stroke="#222222" stroke-width="1.5" stroke-linecap="round" stroke-linejoin="round"/>
<path d="M36.6661 21.3333V30.85C36.6661 34.8 35.6828 35.7833 31.7328 35.7833H25.8161C21.8661 35.7833 20.8828 34.8 20.8828 30.85V21.3333C20.8828 17.3833 21.8661 16.4 25.8161 16.4H31.7328C35.6828 16.4 36.6661 17.3833 36.6661 21.3333Z" stroke="#222222" stroke-width="1.5" stroke-linecap="round" stroke-linejoin="round"/>
<path d="M28.7402 30.4167H28.7552" stroke="#222222" stroke-width="2" stroke-linecap="round" stroke-linejoin="round"/>
</svg>
