<svg width="40" height="40" viewBox="0 0 40 40" fill="none" xmlns="http://www.w3.org/2000/svg">
<path d="M10.6172 15.85C3.81719 16.3333 3.83386 26.1833 10.6172 26.6667H26.7172C28.6672 26.6833 30.5506 25.95 32.0006 24.6334C36.7672 20.4667 34.2172 12.1333 27.9339 11.3333C25.6839 -2.23337 6.03387 2.91667 10.6839 15.85" stroke="#222222" stroke-width="1.5" stroke-miterlimit="10" stroke-linecap="round" stroke-linejoin="round"/>
<path d="M20 26.6667V31.6667" stroke="#222222" stroke-width="1.5" stroke-miterlimit="10" stroke-linecap="round" stroke-linejoin="round"/>
<path d="M19.9993 38.3334C21.8403 38.3334 23.3327 36.841 23.3327 35C23.3327 33.1591 21.8403 31.6667 19.9993 31.6667C18.1584 31.6667 16.666 33.1591 16.666 35C16.666 36.841 18.1584 38.3334 19.9993 38.3334Z" stroke="#222222" stroke-width="1.5" stroke-miterlimit="10" stroke-linecap="round" stroke-linejoin="round"/>
<path d="M30.0007 35H23.334" stroke="#222222" stroke-width="1.5" stroke-miterlimit="10" stroke-linecap="round" stroke-linejoin="round"/>
<path d="M16.6667 35H10" stroke="#222222" stroke-width="1.5" stroke-miterlimit="10" stroke-linecap="round" stroke-linejoin="round"/>
</svg>
