<svg width="40" height="40" viewBox="0 0 40 40" fill="none" xmlns="http://www.w3.org/2000/svg">
<path d="M31.1169 31.1166L34.8169 29.2666V24.6333M23.7003 16.3L20.0003 18.15L23.7003 16.3ZM20.0003 18.15L16.3003 16.3L20.0003 18.15ZM20.0003 18.15V22.7833V18.15ZM34.8169 10.7333L31.1169 12.5833L34.8169 10.7333ZM34.8169 10.7333L31.1169 8.88332L34.8169 10.7333ZM34.8169 10.7333V15.3666V10.7333ZM23.7003 5.18331L20.0003 3.33331L16.3003 5.18331H23.7003ZM5.18359 10.7333L8.8836 8.88332L5.18359 10.7333ZM5.18359 10.7333L8.8836 12.5833L5.18359 10.7333ZM5.18359 10.7333V15.3666V10.7333ZM20.0003 36.6666L16.3003 34.8166L20.0003 36.6666ZM20.0003 36.6666L23.7003 34.8166L20.0003 36.6666ZM20.0003 36.6666V32.0333V36.6666ZM8.8836 31.1166L5.18359 29.2666V24.6333L8.8836 31.1166Z" stroke="#222222" stroke-width="1.5" stroke-linecap="round" stroke-linejoin="round"/>
</svg>
