<svg width="40" height="40" viewBox="0 0 40 40" fill="none" xmlns="http://www.w3.org/2000/svg">
<path d="M5.01758 18.7V26.1833C5.01758 33.6667 8.01758 36.6667 15.5009 36.6667H24.4842C31.9676 36.6667 34.9676 33.6667 34.9676 26.1833V18.7" stroke="#222222" stroke-width="1.5" stroke-linecap="round" stroke-linejoin="round"/>
<path d="M19.9995 20C23.0495 20 25.2995 17.5167 24.9995 14.4667L23.8995 3.33334H16.1162L14.9995 14.4667C14.6995 17.5167 16.9495 20 19.9995 20Z" stroke="#222222" stroke-width="1.5" stroke-linecap="round" stroke-linejoin="round"/>
<path d="M30.5173 20C33.884 20 36.3507 17.2667 36.0173 13.9167L35.5507 9.33334C34.9507 5.00001 33.284 3.33334 28.9173 3.33334H23.834L25.0007 15.0167C25.284 17.7667 27.7673 20 30.5173 20Z" stroke="#222222" stroke-width="1.5" stroke-linecap="round" stroke-linejoin="round"/>
<path d="M9.39932 20C12.1493 20 14.6326 17.7667 14.8993 15.0167L15.266 11.3333L16.066 3.33334H10.9827C6.61598 3.33334 4.94932 5.00001 4.34932 9.33334L3.89932 13.9167C3.56598 17.2667 6.03265 20 9.39932 20Z" stroke="#222222" stroke-width="1.5" stroke-linecap="round" stroke-linejoin="round"/>
<path d="M20.0007 28.3333C17.2173 28.3333 15.834 29.7167 15.834 32.5V36.6667H24.1673V32.5C24.1673 29.7167 22.784 28.3333 20.0007 28.3333Z" stroke="#222222" stroke-width="1.5" stroke-linecap="round" stroke-linejoin="round"/>
</svg>
