<svg width="40" height="40" viewBox="0 0 40 40" fill="none" xmlns="http://www.w3.org/2000/svg">
<path d="M28.3498 21.2166C29.3347 21.2166 30.133 20.4182 30.133 19.4333C30.133 18.4484 29.3347 17.65 28.3498 17.65C27.3648 17.65 26.5664 18.4484 26.5664 19.4333C26.5664 20.4182 27.3648 21.2166 28.3498 21.2166Z" stroke="#222222" stroke-width="1.5" stroke-linecap="round" stroke-linejoin="round"/>
<path d="M33.334 10V12.9833C32.9173 12.9333 32.434 12.9 31.9173 12.9H24.784C21.2173 12.9 20.034 14.0834 20.034 17.6501V26.1667H10.0007C4.66732 26.1667 3.33398 24.8334 3.33398 19.5001V10C3.33398 4.66671 4.66732 3.33337 10.0007 3.33337H26.6673C32.0006 3.33337 33.334 4.66671 33.334 10Z" stroke="#222222" stroke-width="1.5" stroke-linecap="round" stroke-linejoin="round"/>
<path d="M15 26.1667V33.3334" stroke="#222222" stroke-width="1.5" stroke-linecap="round" stroke-linejoin="round"/>
<path d="M3.33398 19.8334H20.0007" stroke="#222222" stroke-width="1.5" stroke-linecap="round" stroke-linejoin="round"/>
<path d="M9.91602 33.3334H19.9993" stroke="#222222" stroke-width="1.5" stroke-linecap="round" stroke-linejoin="round"/>
<path d="M28.3498 21.2167C29.3347 21.2167 30.133 20.4183 30.133 19.4334C30.133 18.4485 29.3347 17.6501 28.3498 17.6501C27.3648 17.6501 26.5664 18.4485 26.5664 19.4334C26.5664 20.4183 27.3648 21.2167 28.3498 21.2167Z" stroke="#222222" stroke-width="1.5" stroke-miterlimit="10" stroke-linecap="round" stroke-linejoin="round"/>
<path d="M33.3332 12.9833C32.9166 12.9333 32.4332 12.9 31.9165 12.9H24.7832C21.2165 12.9 20.0332 14.0834 20.0332 17.6501V31.9167C20.0332 35.4834 21.2165 36.6667 24.7832 36.6667H31.9165C35.4832 36.6667 36.6666 35.4834 36.6666 31.9167V17.6501C36.6666 14.6001 35.7999 13.3 33.3332 12.9833ZM28.3499 17.6501C29.3332 17.6501 30.1332 18.45 30.1332 19.4333C30.1332 20.4167 29.3332 21.2167 28.3499 21.2167C27.3666 21.2167 26.5666 20.4167 26.5666 19.4333C26.5666 18.45 27.3666 17.6501 28.3499 17.6501ZM28.3499 31.9167C26.3832 31.9167 24.7832 30.3167 24.7832 28.3501C24.7832 27.5334 25.0666 26.7667 25.5332 26.1667C26.1832 25.3334 27.1999 24.7834 28.3499 24.7834C29.2499 24.7834 30.0666 25.1167 30.6832 25.6501C31.4332 26.3167 31.9165 27.2834 31.9165 28.3501C31.9165 30.3167 30.3166 31.9167 28.3499 31.9167Z" stroke="#222222" stroke-width="1.5" stroke-miterlimit="10" stroke-linecap="round" stroke-linejoin="round"/>
<path d="M31.9165 28.35C31.9165 30.3167 30.3166 31.9167 28.3499 31.9167C26.3832 31.9167 24.7832 30.3167 24.7832 28.35C24.7832 27.5333 25.0666 26.7667 25.5332 26.1667C26.1832 25.3334 27.1999 24.7833 28.3499 24.7833C29.2499 24.7833 30.0666 25.1167 30.6832 25.65C31.4332 26.3167 31.9165 27.2833 31.9165 28.35Z" stroke="#222222" stroke-width="1.5" stroke-miterlimit="10" stroke-linecap="round" stroke-linejoin="round"/>
<path d="M28.3498 21.2167C29.3347 21.2167 30.133 20.4183 30.133 19.4334C30.133 18.4485 29.3347 17.6501 28.3498 17.6501C27.3648 17.6501 26.5664 18.4485 26.5664 19.4334C26.5664 20.4183 27.3648 21.2167 28.3498 21.2167Z" stroke="#222222" stroke-width="1.5" stroke-miterlimit="10" stroke-linecap="round" stroke-linejoin="round"/>
</svg>
