<svg width="40" height="40" viewBox="0 0 40 40" fill="none" xmlns="http://www.w3.org/2000/svg">
<path d="M17.4836 3.71666L9.16692 6.83332C7.25025 7.54999 5.68359 9.81664 5.68359 11.8666V24.25C5.68359 26.2166 6.98361 28.8 8.56695 29.9833L15.7336 35.3333C18.0836 37.1 21.9502 37.1 24.3002 35.3333L31.4669 29.9833C33.0503 28.8 34.3502 26.2166 34.3502 24.25V11.8666C34.3502 9.81664 32.7836 7.54999 30.8669 6.83332L22.5503 3.71666C21.1336 3.2 18.8669 3.2 17.4836 3.71666Z" stroke="#222222" stroke-width="1.5" stroke-linecap="round" stroke-linejoin="round"/>
<path d="M19.9982 18.2C19.9315 18.2 19.8482 18.2 19.7815 18.2C18.2148 18.15 16.9648 16.85 16.9648 15.2667C16.9648 13.65 18.2815 12.3333 19.8982 12.3333C21.5149 12.3333 22.8315 13.65 22.8315 15.2667C22.8149 16.8667 21.5649 18.15 19.9982 18.2Z" stroke="#222222" stroke-width="1.5" stroke-linecap="round" stroke-linejoin="round"/>
<path d="M16.6824 22.8667C15.0824 23.9333 15.0824 25.6833 16.6824 26.75C18.4991 27.9666 21.4824 27.9666 23.2991 26.75C24.8991 25.6833 24.8991 23.9333 23.2991 22.8667C21.4991 21.65 18.5158 21.65 16.6824 22.8667Z" stroke="#222222" stroke-width="1.5" stroke-linecap="round" stroke-linejoin="round"/>
</svg>
