<svg width="40" height="40" viewBox="0 0 40 40" fill="none" xmlns="http://www.w3.org/2000/svg">
<path d="M5.2832 12.4L19.9998 20.9167L34.6165 12.45" stroke="#222222" stroke-width="1.5" stroke-linecap="round" stroke-linejoin="round"/>
<path d="M20 36.0167V20.9" stroke="#222222" stroke-width="1.5" stroke-linecap="round" stroke-linejoin="round"/>
<path d="M16.5491 4.13337L7.64906 9.08343C5.63239 10.2001 3.98242 13.0001 3.98242 15.3001V24.7168C3.98242 27.0168 5.63239 29.8167 7.64906 30.9334L16.5491 35.8835C18.4491 36.9335 21.5657 36.9335 23.4657 35.8835L32.3658 30.9334C34.3824 29.8167 36.0324 27.0168 36.0324 24.7168V15.3001C36.0324 13.0001 34.3824 10.2001 32.3658 9.08343L23.4657 4.13337C21.549 3.06671 18.4491 3.06671 16.5491 4.13337Z" stroke="#222222" stroke-width="1.5" stroke-linecap="round" stroke-linejoin="round"/>
<path d="M28.3342 22.0666V15.9667L12.5176 6.83325" stroke="#222222" stroke-width="1.5" stroke-linecap="round" stroke-linejoin="round"/>
</svg>
