<svg width="40" height="40" viewBox="0 0 40 40" fill="none" xmlns="http://www.w3.org/2000/svg">
<path d="M33.3327 13.75V30C33.3327 35 30.3493 36.6667 26.666 36.6667H13.3327C9.64935 36.6667 6.66602 35 6.66602 30V13.75C6.66602 8.33334 9.64935 7.08334 13.3327 7.08334C13.3327 8.11668 13.7493 9.05 14.4326 9.73334C15.116 10.4167 16.0493 10.8333 17.0827 10.8333H22.916C24.9827 10.8333 26.666 9.15001 26.666 7.08334C30.3493 7.08334 33.3327 8.33334 33.3327 13.75Z" stroke="#222222" stroke-width="1.5" stroke-linecap="round" stroke-linejoin="round"/>
<path d="M26.6673 7.08334C26.6673 9.15001 24.984 10.8333 22.9173 10.8333H17.084C16.0507 10.8333 15.1173 10.4167 14.4339 9.73334C13.7506 9.05 13.334 8.11668 13.334 7.08334C13.334 5.01668 15.0173 3.33334 17.084 3.33334H22.9173C23.9507 3.33334 24.884 3.75002 25.5674 4.43335C26.2507 5.11668 26.6673 6.05001 26.6673 7.08334Z" stroke="#222222" stroke-width="1.5" stroke-linecap="round" stroke-linejoin="round"/>
<path d="M13.334 21.6667H20.0007" stroke="#222222" stroke-width="1.5" stroke-linecap="round" stroke-linejoin="round"/>
<path d="M13.334 28.3333H26.6673" stroke="#222222" stroke-width="1.5" stroke-linecap="round" stroke-linejoin="round"/>
</svg>
