<svg width="40" height="40" viewBox="0 0 40 40" fill="none" xmlns="http://www.w3.org/2000/svg">
<path d="M20 25C22.7614 25 25 22.7614 25 20C25 17.2386 22.7614 15 20 15C17.2386 15 15 17.2386 15 20C15 22.7614 17.2386 25 20 25Z" stroke="#222222" stroke-width="1.5" stroke-miterlimit="10" stroke-linecap="round" stroke-linejoin="round"/>
<path d="M3.33398 21.4667V18.5333C3.33398 16.8 4.75065 15.3667 6.50065 15.3667C9.51732 15.3667 10.7507 13.2333 9.23398 10.6167C8.36732 9.11666 8.88398 7.16666 10.4007 6.3L13.284 4.65C14.6007 3.86666 16.3007 4.33333 17.084 5.65L17.2673 5.96666C18.7673 8.58333 21.234 8.58333 22.7506 5.96666L22.934 5.65C23.7173 4.33333 25.4173 3.86666 26.734 4.65L29.6173 6.3C31.134 7.16666 31.6506 9.11666 30.784 10.6167C29.2673 13.2333 30.5007 15.3667 33.5173 15.3667C35.2507 15.3667 36.684 16.7833 36.684 18.5333V21.4667C36.684 23.2 35.2673 24.6333 33.5173 24.6333C30.5007 24.6333 29.2673 26.7667 30.784 29.3833C31.6506 30.9 31.134 32.8333 29.6173 33.7L26.734 35.35C25.4173 36.1333 23.7173 35.6667 22.934 34.35L22.7506 34.0333C21.2507 31.4167 18.784 31.4167 17.2673 34.0333L17.084 34.35C16.3007 35.6667 14.6007 36.1333 13.284 35.35L10.4007 33.7C8.88398 32.8333 8.36732 30.8833 9.23398 29.3833C10.7507 26.7667 9.51732 24.6333 6.50065 24.6333C4.75065 24.6333 3.33398 23.2 3.33398 21.4667Z" stroke="#222222" stroke-width="1.5" stroke-miterlimit="10" stroke-linecap="round" stroke-linejoin="round"/>
</svg>
