<svg width="40" height="40" viewBox="0 0 40 40" fill="none" xmlns="http://www.w3.org/2000/svg">
<path d="M36.6667 13.7833V7.05001C36.6667 4.40001 35.6 3.33334 32.95 3.33334H26.2167C23.5667 3.33334 22.5 4.40001 22.5 7.05001V13.7833C22.5 16.4333 23.5667 17.5 26.2167 17.5H32.95C35.6 17.5 36.6667 16.4333 36.6667 13.7833Z" stroke="#222222" stroke-width="1.5" stroke-linecap="round" stroke-linejoin="round"/>
<path d="M17.5007 14.2V6.63334C17.5007 4.28334 16.434 3.33334 13.784 3.33334H7.05065C4.40065 3.33334 3.33398 4.28334 3.33398 6.63334V14.1833C3.33398 16.55 4.40065 17.4833 7.05065 17.4833H13.784C16.434 17.5 17.5007 16.55 17.5007 14.2Z" stroke="#222222" stroke-width="1.5" stroke-linecap="round" stroke-linejoin="round"/>
<path d="M17.5007 32.95V26.2167C17.5007 23.5667 16.434 22.5 13.784 22.5H7.05065C4.40065 22.5 3.33398 23.5667 3.33398 26.2167V32.95C3.33398 35.6 4.40065 36.6667 7.05065 36.6667H13.784C16.434 36.6667 17.5007 35.6 17.5007 32.95Z" stroke="#222222" stroke-width="1.5" stroke-linecap="round" stroke-linejoin="round"/>
<path d="M24.166 29.1667H34.166" stroke="#222222" stroke-width="1.5" stroke-linecap="round"/>
<path d="M29.166 34.1667V24.1667" stroke="#222222" stroke-width="1.5" stroke-linecap="round"/>
</svg>
