<svg width="40" height="40" viewBox="0 0 40 40" fill="none" xmlns="http://www.w3.org/2000/svg">
<path d="M4.99935 14.9999C6.8403 14.9999 8.33268 13.5075 8.33268 11.6666C8.33268 9.82564 6.8403 8.33325 4.99935 8.33325C3.1584 8.33325 1.66602 9.82564 1.66602 11.6666C1.66602 13.5075 3.1584 14.9999 4.99935 14.9999Z" stroke="#222222" stroke-width="1.5" stroke-miterlimit="10" stroke-linecap="round" stroke-linejoin="round"/>
<path d="M34.9993 14.9999C36.8403 14.9999 38.3327 13.5075 38.3327 11.6666C38.3327 9.82564 36.8403 8.33325 34.9993 8.33325C33.1584 8.33325 31.666 9.82564 31.666 11.6666C31.666 13.5075 33.1584 14.9999 34.9993 14.9999Z" stroke="#222222" stroke-width="1.5" stroke-miterlimit="10" stroke-linecap="round" stroke-linejoin="round"/>
<path d="M31.6667 11.6666H25" stroke="#222222" stroke-width="1.5" stroke-miterlimit="10" stroke-linecap="round" stroke-linejoin="round"/>
<path d="M14.9987 11.6666H8.33203" stroke="#222222" stroke-width="1.5" stroke-miterlimit="10" stroke-linecap="round" stroke-linejoin="round"/>
<path d="M12.4993 27.5V30.8333C12.4993 31.85 11.8827 32.7333 11.016 33.1C10.6993 33.25 10.366 33.3333 9.99935 33.3333H6.66602C5.28268 33.3333 4.16602 32.2167 4.16602 30.8333V27.5C4.16602 26.1167 5.28268 25 6.66602 25H9.99935C11.3827 25 12.4993 26.1167 12.4993 27.5Z" stroke="#222222" stroke-width="1.5" stroke-miterlimit="10" stroke-linecap="round" stroke-linejoin="round"/>
<path d="M35.8333 27.5V30.8333C35.8333 32.2167 34.7167 33.3333 33.3333 33.3333H30C29.6333 33.3333 29.3 33.25 28.9833 33.1C28.1167 32.7333 27.5 31.85 27.5 30.8333V27.5C27.5 26.1167 28.6167 25 30 25H33.3333C34.7167 25 35.8333 26.1167 35.8333 27.5Z" stroke="#222222" stroke-width="1.5" stroke-miterlimit="10" stroke-linecap="round" stroke-linejoin="round"/>
<path d="M25 9.16663V14.1666C25 15.5333 23.8667 16.6666 22.5 16.6666H17.5C16.1333 16.6666 15 15.5333 15 14.1666V9.16663C15 7.79996 16.1333 6.66663 17.5 6.66663H22.5C23.8667 6.66663 25 7.79996 25 9.16663Z" stroke="#222222" stroke-width="1.5" stroke-miterlimit="10" stroke-linecap="round" stroke-linejoin="round"/>
<path d="M25 12.8833C28.95 14.8833 31.6667 19.1833 31.6667 24.1667C31.6667 24.45 31.65 24.7167 31.6167 25" stroke="#222222" stroke-width="1.5" stroke-miterlimit="10" stroke-linecap="round" stroke-linejoin="round"/>
<path d="M8.38203 25C8.3487 24.7167 8.33203 24.45 8.33203 24.1667C8.33203 19.1833 11.0487 14.8833 14.9987 12.8833" stroke="#222222" stroke-width="1.5" stroke-miterlimit="10" stroke-linecap="round" stroke-linejoin="round"/>
</svg>
