<svg width="40" height="40" viewBox="0 0 40 40" fill="none" xmlns="http://www.w3.org/2000/svg">
<path d="M16.7505 4.21667L6.71719 10.7667C3.50052 12.8667 3.50052 17.5667 6.71719 19.6667L16.7505 26.2167C18.5505 27.4 21.5172 27.4 23.3172 26.2167L33.3005 19.6667C36.5005 17.5667 36.5005 12.8833 33.3005 10.7833L23.3172 4.23333C21.5172 3.03333 18.5505 3.03333 16.7505 4.21667Z" stroke="#222222" stroke-width="1.5" stroke-linecap="round" stroke-linejoin="round"/>
<path d="M9.38385 21.8L9.36719 29.6167C9.36719 31.7333 11.0005 34 13.0005 34.6667L18.3172 36.4333C19.2339 36.7333 20.7505 36.7333 21.6839 36.4333L27.0005 34.6667C29.0005 34 30.6339 31.7333 30.6339 29.6167V21.8833" stroke="#222222" stroke-width="1.5" stroke-linecap="round" stroke-linejoin="round"/>
<path d="M35.666 25V15" stroke="#222222" stroke-width="1.5" stroke-linecap="round" stroke-linejoin="round"/>
</svg>
