<svg width="40" height="40" viewBox="0 0 40 40" fill="none" xmlns="http://www.w3.org/2000/svg">
<path d="M21.6673 36.6667H8.33398C5.00065 36.6667 3.33398 35 3.33398 31.6667V18.3333C3.33398 15 5.00065 13.3333 8.33398 13.3333H16.6673V31.6667C16.6673 35 18.334 36.6667 21.6673 36.6667Z" stroke="#222222" stroke-width="1.5" stroke-miterlimit="10" stroke-linecap="round" stroke-linejoin="round"/>
<path d="M16.8506 6.66666C16.7173 7.16666 16.6673 7.71666 16.6673 8.33332V13.3333H8.33398V9.99999C8.33398 8.16666 9.83398 6.66666 11.6673 6.66666H16.8506Z" stroke="#222222" stroke-width="1.5" stroke-miterlimit="10" stroke-linecap="round" stroke-linejoin="round"/>
<path d="M23.334 13.3333V21.6667" stroke="#222222" stroke-width="1.5" stroke-miterlimit="10" stroke-linecap="round" stroke-linejoin="round"/>
<path d="M30 13.3333V21.6667" stroke="#222222" stroke-width="1.5" stroke-miterlimit="10" stroke-linecap="round" stroke-linejoin="round"/>
<path d="M28.334 28.3333H25.0007C24.084 28.3333 23.334 29.0833 23.334 30V36.6667H30.0007V30C30.0007 29.0833 29.2507 28.3333 28.334 28.3333Z" stroke="#222222" stroke-width="1.5" stroke-miterlimit="10" stroke-linecap="round" stroke-linejoin="round"/>
<path d="M10 21.6667V28.3333" stroke="#222222" stroke-width="1.5" stroke-miterlimit="10" stroke-linecap="round" stroke-linejoin="round"/>
<path d="M16.666 31.6667V8.33334C16.666 5.00001 18.3327 3.33334 21.666 3.33334H31.666C34.9993 3.33334 36.666 5.00001 36.666 8.33334V31.6667C36.666 35 34.9993 36.6667 31.666 36.6667H21.666C18.3327 36.6667 16.666 35 16.666 31.6667Z" stroke="#222222" stroke-width="1.5" stroke-miterlimit="10" stroke-linecap="round" stroke-linejoin="round"/>
</svg>
