<svg width="40" height="40" viewBox="0 0 40 40" fill="none" xmlns="http://www.w3.org/2000/svg">
<path d="M20.0007 31.6667C23.6825 31.6667 26.6673 28.6819 26.6673 25C26.6673 21.3181 23.6825 18.3334 20.0007 18.3334C16.3188 18.3334 13.334 21.3181 13.334 25C13.334 28.6819 16.3188 31.6667 20.0007 31.6667Z" stroke="#222222" stroke-width="1.5" stroke-miterlimit="10" stroke-linecap="round" stroke-linejoin="round"/>
<path d="M17.4004 25L18.4837 26.0834C18.8004 26.4 19.3171 26.4167 19.6337 26.1L22.6004 23.3667" stroke="#222222" stroke-width="1.5" stroke-linecap="round" stroke-linejoin="round"/>
<path d="M15.0007 36.6667H25.0007C31.7007 36.6667 32.9007 33.9834 33.2507 30.7167L34.5007 20.7167C34.9507 16.65 33.784 13.3334 26.6674 13.3334H13.334C6.21735 13.3334 5.05069 16.65 5.50069 20.7167L6.75069 30.7167C7.10069 33.9834 8.30069 36.6667 15.0007 36.6667Z" stroke="#222222" stroke-width="1.5" stroke-miterlimit="10" stroke-linecap="round" stroke-linejoin="round"/>
<path d="M12.5 12.7833V11.1667C12.5 7.41668 15.5167 3.73335 19.2667 3.38335C23.7333 2.95001 27.5 6.46668 27.5 10.85V13.15" stroke="#222222" stroke-width="1.5" stroke-miterlimit="10" stroke-linecap="round" stroke-linejoin="round"/>
</svg>
