<svg width="40" height="40" viewBox="0 0 40 40" fill="none" xmlns="http://www.w3.org/2000/svg">
<path d="M11.6668 38.6546H4.14599C3.98354 38.6546 3.82109 38.5884 3.71279 38.4681C3.59848 38.3477 3.53831 38.1853 3.55034 38.0228L4.75367 14.2932C4.77172 13.9743 5.03645 13.7216 5.35534 13.7216H10.4695C10.7884 13.7216 11.0531 13.9743 11.0711 14.2932L12.2745 38.0228C12.2805 38.1853 12.2263 38.3477 12.112 38.4681C11.9977 38.5884 11.8413 38.6546 11.6788 38.6546H11.6668ZM4.77774 37.4513H11.035L9.89188 14.9249H5.9209L4.77774 37.4513Z" fill="#222222"/>
<path d="M36.6227 38.6546H11.6656C11.3347 38.6546 11.064 38.3838 11.064 38.0529C11.064 37.722 11.3347 37.4512 11.6656 37.4512H36.021V27.8487H34.6492C34.5229 27.8487 34.3965 27.8065 34.2942 27.7343L28.6145 23.5949V27.253C28.6145 27.5839 28.3438 27.8547 28.0129 27.8547H26.0394C25.913 27.8547 25.7867 27.8126 25.6844 27.7404L20.0047 23.6009V27.259C20.0047 27.5899 19.7339 27.8607 19.403 27.8607H17.4296C17.3032 27.8607 17.1769 27.8186 17.0746 27.7464L10.5165 22.9692C10.2457 22.7706 10.1916 22.3976 10.3841 22.1268C10.5766 21.8561 10.9557 21.8019 11.2264 21.9945L17.6221 26.6574H18.7954V22.4217C18.7954 22.193 18.9217 21.9885 19.1263 21.8862C19.3308 21.7839 19.5715 21.8019 19.752 21.9343L26.2319 26.6574H27.4052V22.4217C27.4052 22.193 27.5315 21.9885 27.7361 21.8862C27.9407 21.7839 28.1813 21.8019 28.3618 21.9343L34.8417 26.6574H36.6167C36.9476 26.6574 37.2183 26.9281 37.2183 27.259V38.0649C37.2183 38.3958 36.9476 38.6666 36.6167 38.6666L36.6227 38.6546Z" fill="#222222"/>
<path d="M32.7245 31.6873H29.6681C29.3372 31.6873 29.0664 31.4166 29.0664 31.0857C29.0664 30.7548 29.3372 30.484 29.6681 30.484H32.7245C33.0554 30.484 33.3262 30.7548 33.3262 31.0857C33.3262 31.4166 33.0554 31.6873 32.7245 31.6873Z" fill="#222222"/>
<path d="M23.8202 31.6873H20.7638C20.4329 31.6873 20.1621 31.4166 20.1621 31.0857C20.1621 30.7548 20.4329 30.484 20.7638 30.484H23.8202C24.1511 30.484 24.4219 30.7548 24.4219 31.0857C24.4219 31.4166 24.1511 31.6873 23.8202 31.6873Z" fill="#222222"/>
<path d="M9.77179 13.0597C9.44088 13.0597 9.17013 12.789 9.17013 12.4581C9.17013 12.1271 9.44088 11.8564 9.77179 11.8564C10.6021 11.8564 11.276 11.1825 11.276 10.3522C11.276 9.90098 11.0774 9.57608 10.9089 9.37753C10.7585 9.19704 10.7224 8.95035 10.8187 8.73375C10.915 8.51715 11.1316 8.38479 11.3662 8.38479H11.4204C11.8716 8.37275 12.2687 8.07794 12.4071 7.63271C12.4733 7.41611 12.6538 7.25968 12.8764 7.22358C13.099 7.18748 13.3216 7.27171 13.46 7.45221C13.6886 7.74702 14.0256 7.92151 14.3866 7.92151C15.0243 7.92151 15.5418 7.41009 15.5538 6.77834C15.5538 6.76029 15.5538 6.73623 15.5538 6.72419C15.5478 6.48353 15.6801 6.26091 15.9028 6.15863C16.1194 6.05635 16.3781 6.09245 16.5586 6.2549C16.721 6.3993 16.9918 6.56776 17.3648 6.56776C18.0387 6.56776 18.5862 6.02025 18.5862 5.34638C18.5862 4.67252 18.0387 4.125 17.3648 4.125C17.0279 4.125 16.7752 4.2694 16.6187 4.38974C16.4382 4.52812 16.1916 4.5582 15.987 4.45592C15.7824 4.35364 15.6501 4.14305 15.6501 3.91442C15.6501 3.90239 15.6501 3.89036 15.6501 3.87231C15.638 3.13828 15.0364 2.54263 14.2963 2.54263C13.6285 2.54263 13.0569 3.04201 12.9666 3.70986C12.9305 3.97459 12.726 4.17915 12.4612 4.22127C12.1965 4.26339 11.9438 4.125 11.8235 3.88434C11.6731 3.57147 11.3722 3.37894 11.0353 3.37894C10.6081 3.37894 10.2411 3.68579 10.1749 4.11297C10.1388 4.31754 10.0004 4.49804 9.80789 4.57625C9.61536 4.65447 9.39274 4.62439 9.22428 4.49804C8.8332 4.20924 8.38195 4.05281 7.91265 4.05281C6.69729 4.05281 5.70454 5.04555 5.70454 6.26091C5.70454 6.85054 5.93317 7.41009 6.35434 7.82524C6.5228 7.99371 6.57695 8.24641 6.49272 8.46902C6.40849 8.69164 6.19791 8.84205 5.96326 8.85409C5.16304 8.8962 4.53731 9.55202 4.53731 10.3462C4.53731 11.1404 5.21118 11.8504 6.04147 11.8504C6.37239 11.8504 6.64314 12.1211 6.64314 12.452C6.64314 12.783 6.37239 13.0537 6.04147 13.0537C4.54935 13.0537 3.33398 11.8383 3.33398 10.3462C3.33398 9.26322 3.97777 8.3186 4.91034 7.89142C4.6396 7.39806 4.4952 6.83851 4.4952 6.26091C4.4952 4.38372 6.02342 2.84948 7.90663 2.84948C8.38195 2.84948 8.84523 2.95176 9.27843 3.14429C9.64544 2.55466 10.3013 2.17561 11.0353 2.17561C11.4384 2.17561 11.8235 2.29595 12.1544 2.50653C12.6116 1.79656 13.4119 1.33328 14.2963 1.33328C15.3974 1.33328 16.342 2.03121 16.6969 3.01193C16.9135 2.95176 17.1362 2.91566 17.3648 2.91566C18.7005 2.91566 19.7895 4.00467 19.7895 5.34037C19.7895 6.67606 18.7005 7.76507 17.3648 7.76507C17.1001 7.76507 16.8353 7.72296 16.5886 7.63271C16.2337 8.4991 15.3853 9.11882 14.3866 9.11882C13.9353 9.11882 13.5081 8.99247 13.1411 8.76384C12.9125 9.0406 12.6297 9.2572 12.3048 9.39558C12.4191 9.69642 12.4793 10.0213 12.4793 10.3462C12.4793 11.8383 11.2639 13.0537 9.77179 13.0537V13.0597Z" fill="#222222"/>
</svg>
