<svg width="40" height="40" viewBox="0 0 40 40" fill="none" xmlns="http://www.w3.org/2000/svg">
<path d="M20.6173 3.58337L35.6173 9.58333C36.2006 9.81666 36.6673 10.5166 36.6673 11.1333V16.6667C36.6673 17.5833 35.9173 18.3333 35.0007 18.3333H5.00065C4.08398 18.3333 3.33398 17.5833 3.33398 16.6667V11.1333C3.33398 10.5166 3.80066 9.81666 4.38399 9.58333L19.384 3.58337C19.7173 3.45003 20.284 3.45003 20.6173 3.58337Z" stroke="#222222" stroke-width="1.5" stroke-miterlimit="10" stroke-linecap="round" stroke-linejoin="round"/>
<path d="M36.6673 36.6667H3.33398V31.6667C3.33398 30.75 4.08398 30 5.00065 30H35.0007C35.9173 30 36.6673 30.75 36.6673 31.6667V36.6667Z" stroke="#222222" stroke-width="1.5" stroke-miterlimit="10" stroke-linecap="round" stroke-linejoin="round"/>
<path d="M6.66602 30V18.3333" stroke="#222222" stroke-width="1.5" stroke-miterlimit="10" stroke-linecap="round" stroke-linejoin="round"/>
<path d="M13.334 30V18.3333" stroke="#222222" stroke-width="1.5" stroke-miterlimit="10" stroke-linecap="round" stroke-linejoin="round"/>
<path d="M20 30V18.3333" stroke="#222222" stroke-width="1.5" stroke-miterlimit="10" stroke-linecap="round" stroke-linejoin="round"/>
<path d="M26.666 30V18.3333" stroke="#222222" stroke-width="1.5" stroke-miterlimit="10" stroke-linecap="round" stroke-linejoin="round"/>
<path d="M33.334 30V18.3333" stroke="#222222" stroke-width="1.5" stroke-miterlimit="10" stroke-linecap="round" stroke-linejoin="round"/>
<path d="M1.66602 36.6667H38.3327" stroke="#222222" stroke-width="1.5" stroke-miterlimit="10" stroke-linecap="round" stroke-linejoin="round"/>
<path d="M20 14.1667C21.3807 14.1667 22.5 13.0474 22.5 11.6667C22.5 10.2859 21.3807 9.16666 20 9.16666C18.6193 9.16666 17.5 10.2859 17.5 11.6667C17.5 13.0474 18.6193 14.1667 20 14.1667Z" stroke="#222222" stroke-width="1.5" stroke-miterlimit="10" stroke-linecap="round" stroke-linejoin="round"/>
</svg>
