<svg width="40" height="40" viewBox="0 0 40 40" fill="none" xmlns="http://www.w3.org/2000/svg">
<path d="M13.334 20.3334H25.0007" stroke="#222222" stroke-width="1.5" stroke-miterlimit="10" stroke-linecap="round" stroke-linejoin="round"/>
<path d="M13.334 27H20.634" stroke="#222222" stroke-width="1.5" stroke-miterlimit="10" stroke-linecap="round" stroke-linejoin="round"/>
<path d="M16.6673 10H23.334C26.6673 10 26.6673 8.33337 26.6673 6.66671C26.6673 3.33337 25.0007 3.33337 23.334 3.33337H16.6673C15.0007 3.33337 13.334 3.33337 13.334 6.66671C13.334 10 15.0007 10 16.6673 10Z" stroke="#222222" stroke-width="1.5" stroke-miterlimit="10" stroke-linecap="round" stroke-linejoin="round"/>
<path d="M26.6667 6.69995C32.2167 6.99995 35 9.04995 35 16.6666V26.6666C35 33.3333 33.3333 36.6666 25 36.6666H15C6.66667 36.6666 5 33.3333 5 26.6666V16.6666C5 9.06662 7.78333 6.99995 13.3333 6.69995" stroke="#222222" stroke-width="1.5" stroke-miterlimit="10" stroke-linecap="round" stroke-linejoin="round"/>
</svg>
