<svg width="40" height="40" viewBox="0 0 40 40" fill="none" xmlns="http://www.w3.org/2000/svg">
<path d="M6.66602 30V10" stroke="#222222" stroke-width="1.5" stroke-linecap="round"/>
<path d="M33.334 10V30" stroke="#222222" stroke-width="1.5" stroke-linecap="round"/>
<path d="M19.9993 16.6666C27.3631 16.6666 33.3327 13.6819 33.3327 9.99998C33.3327 6.31808 27.3631 3.33331 19.9993 3.33331C12.6356 3.33331 6.66602 6.31808 6.66602 9.99998C6.66602 13.6819 12.6356 16.6666 19.9993 16.6666Z" stroke="#222222" stroke-width="1.5"/>
<path d="M33.3327 20C33.3327 23.6819 27.3631 26.6667 19.9993 26.6667C12.6356 26.6667 6.66602 23.6819 6.66602 20" stroke="#222222" stroke-width="1.5"/>
<path d="M33.3327 30C33.3327 33.6819 27.3631 36.6667 19.9993 36.6667C12.6356 36.6667 6.66602 33.6819 6.66602 30" stroke="#222222" stroke-width="1.5"/>
</svg>
