<svg width="40" height="40" viewBox="0 0 40 40" fill="none" xmlns="http://www.w3.org/2000/svg">
<path d="M30 31.4333H28.7333C27.4 31.4333 26.1333 31.95 25.2 32.8833L22.35 35.7001C21.05 36.9834 18.9333 36.9834 17.6333 35.7001L14.7833 32.8833C13.85 31.95 12.5667 31.4333 11.25 31.4333H10C7.23333 31.4333 5 29.2167 5 26.4834V8.29999C5 5.56665 7.23333 3.35004 10 3.35004H30C32.7667 3.35004 35 5.56665 35 8.29999V26.4834C35 29.2 32.7667 31.4333 30 31.4333Z" stroke="#222222" stroke-width="1.5" stroke-miterlimit="10" stroke-linecap="round" stroke-linejoin="round"/>
<path d="M11.666 15.2667C11.666 13.7167 12.9327 12.45 14.4827 12.45C16.0327 12.45 17.2994 13.7167 17.2994 15.2667C17.2994 18.4001 12.8493 18.7334 11.866 21.7167C11.666 22.3334 12.1827 22.95 12.8327 22.95H17.2994" stroke="#222222" stroke-width="1.5" stroke-linecap="round" stroke-linejoin="round"/>
<path d="M26.7329 22.9333V13.4167C26.7329 12.9834 26.4496 12.5999 26.0329 12.4833C25.6163 12.3666 25.1663 12.5333 24.933 12.8999C23.733 14.8333 22.4329 17.0333 21.2996 18.9666C21.1163 19.2833 21.1163 19.7 21.2996 20.0166C21.4829 20.3333 21.8329 20.5332 22.2163 20.5332H28.3329" stroke="#222222" stroke-width="1.5" stroke-linecap="round" stroke-linejoin="round"/>
</svg>
