<svg width="40" height="40" viewBox="0 0 40 40" fill="none" xmlns="http://www.w3.org/2000/svg">
<path d="M15.5176 24.5L18.0176 27L24.6842 20.3333" stroke="#222222" stroke-width="1.5" stroke-linecap="round" stroke-linejoin="round"/>
<path d="M16.6673 9.99998H23.334C26.6673 9.99998 26.6673 8.33331 26.6673 6.66665C26.6673 3.33331 25.0007 3.33331 23.334 3.33331H16.6673C15.0007 3.33331 13.334 3.33331 13.334 6.66665C13.334 9.99998 15.0007 9.99998 16.6673 9.99998Z" stroke="#222222" stroke-width="1.5" stroke-miterlimit="10" stroke-linecap="round" stroke-linejoin="round"/>
<path d="M26.6667 6.70001C32.2167 7.00001 35 9.05001 35 16.6667V26.6667C35 33.3333 33.3333 36.6667 25 36.6667H15C6.66667 36.6667 5 33.3333 5 26.6667V16.6667C5 9.06668 7.78333 7.00001 13.3333 6.70001" stroke="#222222" stroke-width="1.5" stroke-miterlimit="10" stroke-linecap="round" stroke-linejoin="round"/>
</svg>
