<svg width="40" height="40" viewBox="0 0 40 40" fill="none" xmlns="http://www.w3.org/2000/svg">
<path d="M5.83398 36.6667V8.33334C5.83398 5.00001 8.06732 3.33334 10.834 3.33334H24.1673C26.934 3.33334 29.1673 5.00001 29.1673 8.33334V36.6667H5.83398Z" stroke="#222222" stroke-width="1.5" stroke-linecap="round" stroke-linejoin="round"/>
<path d="M3.33398 36.6667H31.6673" stroke="#222222" stroke-width="1.5" stroke-linecap="round" stroke-linejoin="round"/>
<path d="M13.984 16.6667H21.034C22.7673 16.6667 24.184 15.8333 24.184 13.5167V11.4667C24.184 9.15001 22.7673 8.31668 21.034 8.31668H13.984C12.2507 8.31668 10.834 9.15001 10.834 11.4667V13.5167C10.834 15.8333 12.2507 16.6667 13.984 16.6667Z" stroke="#222222" stroke-width="1.5" stroke-linecap="round" stroke-linejoin="round"/>
<path d="M10.834 21.6667H15.834" stroke="#222222" stroke-width="1.5" stroke-linecap="round" stroke-linejoin="round"/>
<path d="M29.166 26.6833L36.666 26.6667V16.6667L33.3327 15" stroke="#222222" stroke-width="1.5" stroke-linecap="round" stroke-linejoin="round"/>
</svg>
