<svg width="40" height="40" viewBox="0 0 40 40" fill="none" xmlns="http://www.w3.org/2000/svg">
<path d="M33.3333 23.3333C35.1743 23.3333 36.6667 21.8409 36.6667 20C36.6667 18.159 35.1743 16.6667 33.3333 16.6667C31.4924 16.6667 30 18.159 30 20C30 21.8409 31.4924 23.3333 33.3333 23.3333Z" stroke="#222222" stroke-width="1.5" stroke-linecap="round" stroke-linejoin="round"/>
<path d="M33.3333 10C35.1743 10 36.6667 8.50762 36.6667 6.66667C36.6667 4.82572 35.1743 3.33334 33.3333 3.33334C31.4924 3.33334 30 4.82572 30 6.66667C30 8.50762 31.4924 10 33.3333 10Z" stroke="#222222" stroke-width="1.5" stroke-linecap="round" stroke-linejoin="round"/>
<path d="M33.3333 36.6667C35.1743 36.6667 36.6667 35.1743 36.6667 33.3333C36.6667 31.4924 35.1743 30 33.3333 30C31.4924 30 30 31.4924 30 33.3333C30 35.1743 31.4924 36.6667 33.3333 36.6667Z" stroke="#222222" stroke-width="1.5" stroke-linecap="round" stroke-linejoin="round"/>
<path d="M6.66732 23.3333C8.50827 23.3333 10.0007 21.8409 10.0007 20C10.0007 18.159 8.50827 16.6667 6.66732 16.6667C4.82637 16.6667 3.33398 18.159 3.33398 20C3.33398 21.8409 4.82637 23.3333 6.66732 23.3333Z" stroke="#222222" stroke-width="1.5" stroke-linecap="round" stroke-linejoin="round"/>
<path d="M10 20H30" stroke="#222222" stroke-width="1.5" stroke-linecap="round" stroke-linejoin="round"/>
<path d="M30.0007 6.66666H23.334C20.0007 6.66666 18.334 8.33333 18.334 11.6667V28.3333C18.334 31.6667 20.0007 33.3333 23.334 33.3333H30.0007" stroke="#222222" stroke-width="1.5" stroke-linecap="round" stroke-linejoin="round"/>
</svg>
