<svg width="40" height="40" viewBox="0 0 40 40" fill="none" xmlns="http://www.w3.org/2000/svg">
<path d="M34.8504 18.5333C34.8504 26.6833 28.9337 34.3166 20.8504 36.55C20.3004 36.7 19.7004 36.7 19.1504 36.55C11.067 34.3166 5.15039 26.6833 5.15039 18.5333V11.2166C5.15039 9.84995 6.18375 8.29995 7.46708 7.78329L16.7504 3.98334C18.8337 3.13334 21.1837 3.13334 23.2671 3.98334L32.5504 7.78329C33.8171 8.29995 34.8671 9.84995 34.8671 11.2166L34.8504 18.5333Z" stroke="#222222" stroke-width="1.5" stroke-linecap="round" stroke-linejoin="round"/>
<path d="M19.9993 20.8333C21.8403 20.8333 23.3327 19.341 23.3327 17.5C23.3327 15.6591 21.8403 14.1667 19.9993 14.1667C18.1584 14.1667 16.666 15.6591 16.666 17.5C16.666 19.341 18.1584 20.8333 19.9993 20.8333Z" stroke="#222222" stroke-width="1.5" stroke-miterlimit="10" stroke-linecap="round" stroke-linejoin="round"/>
<path d="M20 20.8333V25.8333" stroke="#222222" stroke-width="1.5" stroke-miterlimit="10" stroke-linecap="round" stroke-linejoin="round"/>
</svg>
