<svg width="41" height="40" viewBox="0 0 41 40" fill="none" xmlns="http://www.w3.org/2000/svg">
<g clip-path="url(#clip0_697_16151)">
<path d="M7.26042 0.00390625H33.7396C37.7542 0.00390625 41 3.2511 41 7.26737V32.7322C41 36.7485 37.7542 39.9957 33.7396 39.9957H7.26042C3.24583 39.9957 0 36.7485 0 32.7322V7.26737C0 3.2511 3.24583 0.00390625 7.26042 0.00390625Z" fill="#001E36"/>
<path d="M9.22461 28.0495V10.4634C9.22461 10.3438 9.27586 10.2754 9.39544 10.2754C9.68586 10.2754 9.95919 10.2754 10.3521 10.2583C10.7621 10.2412 11.1892 10.2412 11.6504 10.2241C12.1117 10.207 12.6071 10.207 13.1367 10.1899C13.6663 10.1729 14.1788 10.1729 14.6913 10.1729C16.0921 10.1729 17.2538 10.3438 18.2104 10.7027C19.0646 10.9932 19.8504 11.4717 20.4996 12.1041C21.0463 12.651 21.4734 13.3175 21.7467 14.0524C22.0029 14.7702 22.1396 15.5051 22.1396 16.2742C22.1396 17.7439 21.7979 18.9574 21.1146 19.9144C20.4313 20.8715 19.4746 21.5893 18.3642 21.9995C17.2025 22.4267 15.9213 22.5806 14.5204 22.5806C14.1104 22.5806 13.8371 22.5806 13.6663 22.5635C13.4954 22.5464 13.2563 22.5464 12.9317 22.5464V28.0324C12.9488 28.1521 12.8634 28.2546 12.7438 28.2717H9.42961C9.29294 28.2717 9.22461 28.2033 9.22461 28.0495ZM12.9488 13.5739V19.3163C13.1879 19.3334 13.41 19.3505 13.615 19.3505H14.5204C15.1867 19.3505 15.8529 19.2479 16.485 19.0428C17.0317 18.889 17.51 18.5643 17.8859 18.137C18.2446 17.7098 18.4154 17.1287 18.4154 16.3767C18.4325 15.8469 18.2959 15.3171 18.0225 14.8557C17.7321 14.4113 17.3221 14.0695 16.8267 13.8815C16.1946 13.6251 15.5113 13.5226 14.8109 13.5397C14.3667 13.5397 13.9738 13.5397 13.6492 13.5568C13.3075 13.5397 13.0684 13.5568 12.9488 13.5739ZM32.7996 18.2738C32.2871 18.0003 31.7404 17.8123 31.1596 17.6927C30.5275 17.556 29.8954 17.4705 29.2463 17.4705C28.9046 17.4534 28.5459 17.5047 28.2213 17.5901C27.9992 17.6414 27.8113 17.761 27.6917 17.9319C27.6063 18.0687 27.555 18.2396 27.555 18.3934C27.555 18.5472 27.6234 18.701 27.7259 18.8377C27.8796 19.0257 28.0846 19.1796 28.3067 19.2992C28.6996 19.5043 29.1096 19.6923 29.5196 19.8632C30.4421 20.1708 31.3304 20.5981 32.1504 21.1108C32.7142 21.4697 33.1754 21.9482 33.5 22.5293C33.7734 23.0762 33.91 23.6744 33.8929 24.2896C33.91 25.0929 33.6709 25.8961 33.2267 26.5627C32.7484 27.2463 32.0821 27.7761 31.3134 28.0837C30.4763 28.4426 29.4513 28.6306 28.2213 28.6306C27.4354 28.6306 26.6667 28.5622 25.8979 28.4084C25.3 28.3059 24.7021 28.1179 24.1554 27.8615C24.0359 27.7932 23.9504 27.6735 23.9675 27.5368V24.5631C23.9675 24.5118 23.9846 24.4434 24.0359 24.4092C24.0871 24.3751 24.1384 24.3922 24.1896 24.4263C24.8559 24.8194 25.5563 25.0929 26.3079 25.2638C26.9571 25.4347 27.6404 25.5201 28.3238 25.5201C28.9729 25.5201 29.4342 25.4347 29.7417 25.2809C30.015 25.1612 30.2029 24.8707 30.2029 24.5631C30.2029 24.3238 30.0663 24.1016 29.7929 23.8794C29.5196 23.6573 28.9559 23.4009 28.1188 23.0762C27.2475 22.7686 26.4446 22.3584 25.6929 21.8457C25.1634 21.4697 24.7192 20.9741 24.3946 20.393C24.1213 19.8461 23.9846 19.2479 24.0017 18.6497C24.0017 17.9149 24.2067 17.2141 24.5825 16.5818C25.0096 15.8982 25.6417 15.3513 26.3763 15.0095C27.1792 14.5993 28.1871 14.4113 29.4 14.4113C30.1004 14.4113 30.8179 14.4626 31.5184 14.5651C32.0309 14.6335 32.5263 14.7702 32.9875 14.9582C33.0559 14.9753 33.1242 15.0436 33.1584 15.112C33.1754 15.1804 33.1925 15.2487 33.1925 15.3171V18.1028C33.1925 18.1712 33.1584 18.2396 33.1071 18.2738C32.9534 18.3079 32.8679 18.3079 32.7996 18.2738Z" fill="#31A8FF"/>
</g>
<defs>
<clipPath id="clip0_697_16151">
<rect width="41" height="40" fill="white"/>
</clipPath>
</defs>
</svg>
