<svg width="41" height="40" viewBox="0 0 41 40" fill="none" xmlns="http://www.w3.org/2000/svg">
<g clip-path="url(#clip0_697_16155)">
<path d="M7.26042 0.00390625H33.7396C37.7542 0.00390625 41 3.2511 41 7.26737V32.7322C41 36.7485 37.7542 39.9957 33.7396 39.9957H7.26042C3.24583 39.9957 0 36.7485 0 32.7322V7.26737C0 3.2511 3.24583 0.00390625 7.26042 0.00390625Z" fill="#470137"/>
<path d="M21.5594 10.5149L16.4344 18.9747L21.901 27.9473C21.9352 28.0156 21.9523 28.084 21.9352 28.1523C21.9181 28.2207 21.8498 28.1694 21.7473 28.1865H17.8352C17.5619 28.1865 17.3739 28.1694 17.2544 27.9985C16.8956 27.2807 16.5198 26.58 16.161 25.8622C15.8023 25.1615 15.4094 24.4437 14.9994 23.7088C14.5894 22.9739 14.1794 22.239 13.7694 21.487H13.7352C13.3764 22.2219 12.9835 22.9568 12.5906 23.6917C12.1977 24.4266 11.8048 25.1615 11.4289 25.8793C11.036 26.5971 10.6431 27.332 10.2502 28.0327C10.1819 28.2036 10.0452 28.2207 9.85728 28.2207H6.09894C6.03061 28.2207 5.97936 28.2549 5.97936 28.1694C5.96227 28.1011 5.97936 28.0327 6.01352 27.9814L11.3264 19.2653L6.15019 10.4978C6.09894 10.4295 6.08186 10.3611 6.11602 10.3269C6.15019 10.2757 6.21852 10.2586 6.28686 10.2586H10.1648C10.2502 10.2586 10.3356 10.2757 10.4039 10.2928C10.4723 10.3269 10.5235 10.3782 10.5748 10.4466C10.8994 11.1815 11.2752 11.9164 11.6681 12.6512C12.0781 13.3861 12.471 14.1039 12.8981 14.8217C13.3081 15.5395 13.6839 16.2573 14.0427 16.9922H14.0769C14.4356 16.2403 14.8114 15.5054 15.1873 14.7876C15.5631 14.0698 15.956 13.352 16.3489 12.6342C16.7419 11.9164 17.1177 11.1815 17.4935 10.4808C17.5106 10.4124 17.5448 10.344 17.596 10.3098C17.6644 10.2757 17.7327 10.2586 17.8181 10.2757H21.4227C21.5081 10.2586 21.5935 10.3098 21.6106 10.3953C21.6277 10.4124 21.5935 10.4808 21.5594 10.5149ZM29.4519 28.5454C28.1877 28.5625 26.9235 28.3062 25.7789 27.7763C24.7027 27.2807 23.8144 26.4604 23.1994 25.452C22.5673 24.4095 22.2598 23.1106 22.2598 21.5554C22.2427 20.2907 22.5673 19.0431 23.1994 17.9493C23.8485 16.8384 24.7881 15.9155 25.9156 15.3003C27.1114 14.6337 28.5464 14.309 30.2377 14.309C30.3231 14.309 30.4427 14.309 30.5964 14.3261C30.7502 14.3432 30.921 14.3432 31.126 14.3603V8.9597C31.126 8.84006 31.1773 8.7717 31.2969 8.7717H34.7648C34.8502 8.75461 34.9185 8.82297 34.9356 8.89133V25.1957C34.9356 25.5033 34.9527 25.8451 34.9698 26.2211C35.0039 26.58 35.021 26.9218 35.0381 27.2124C35.0381 27.332 34.9869 27.4345 34.8673 27.4858C33.9789 27.8618 33.0394 28.1353 32.0827 28.3062C31.2114 28.46 30.3402 28.5454 29.4519 28.5454ZM31.126 25.1273V17.6075C30.9723 17.5733 30.8185 17.5391 30.6648 17.522C30.4769 17.505 30.2889 17.4879 30.101 17.4879C29.4348 17.4879 28.7685 17.6246 28.1706 17.9322C27.5898 18.2228 27.0944 18.65 26.7185 19.1969C26.3427 19.7438 26.1548 20.4787 26.1548 21.3674C26.1377 21.9656 26.2402 22.5637 26.4452 23.1277C26.616 23.5892 26.8723 23.9993 27.2139 24.3412C27.5385 24.6488 27.9314 24.8881 28.3756 25.0248C28.8369 25.1786 29.3152 25.247 29.7935 25.247C30.0498 25.247 30.2889 25.2299 30.511 25.2128C30.7331 25.2299 30.921 25.1957 31.126 25.1273Z" fill="#FF61F6"/>
</g>
<defs>
<clipPath id="clip0_697_16155">
<rect width="41" height="40" fill="white"/>
</clipPath>
</defs>
</svg>
