<svg width="41" height="40" viewBox="0 0 41 40" fill="none" xmlns="http://www.w3.org/2000/svg">
<g clip-path="url(#clip0_697_16159)">
<path d="M7.26044 0.00390625H33.7396C37.7541 0.00390625 41 3.25116 41 7.2674V32.7322C41 36.7485 37.7541 39.9957 33.7396 39.9957H7.26044C3.24589 39.9957 0 36.7485 0 32.7322V7.2674C0 3.25116 3.24589 0.00390625 7.26044 0.00390625Z" fill="#00005B"/>
<path d="M16.4684 23.9309H10.1134L8.81506 27.9642C8.78095 28.1179 8.64417 28.2205 8.4905 28.2034H5.27889C5.09095 28.2034 5.03978 28.1008 5.09095 27.8958L10.5918 12.1212C10.643 11.9502 10.6943 11.7965 10.7627 11.5914C10.8311 11.2326 10.8652 10.8565 10.8652 10.4805C10.8482 10.395 10.9164 10.3095 11.0018 10.2925H15.4264C15.5459 10.2925 15.6314 10.3437 15.6484 10.4292L21.8839 27.8615C21.9352 28.0495 21.8839 28.135 21.713 28.135H18.1426C18.023 28.152 17.9034 28.0666 17.8692 27.947L16.4683 23.8452V23.9307L16.4684 23.9309ZM11.1043 20.5299H15.4434C15.3409 20.1711 15.2043 19.7437 15.0505 19.2994C14.8967 18.838 14.743 18.3424 14.5893 17.8296C14.4184 17.2999 14.2648 16.7871 14.0939 16.2574C13.923 15.7276 13.7693 15.2319 13.6327 14.7363C13.4961 14.2577 13.3766 13.8134 13.2568 13.4032H13.2227C13.0689 14.1381 12.8811 14.873 12.6418 15.608C12.3857 16.4283 12.1293 17.2828 11.8559 18.1374C11.6339 19.009 11.3605 19.8123 11.1043 20.5301V20.5299ZM31.9459 22.3927H26.5305C26.5989 22.9225 26.7696 23.4523 27.0601 23.9138C27.3676 24.3752 27.7946 24.7342 28.3071 24.9392C28.9905 25.2298 29.7421 25.3835 30.4937 25.3665C31.0917 25.3494 31.6896 25.2981 32.2703 25.1785C32.7999 25.11 33.3124 24.9734 33.7908 24.7853C33.8762 24.7169 33.9274 24.7512 33.9274 24.922V27.5369C33.9274 27.6054 33.9103 27.6736 33.8933 27.742C33.8592 27.7934 33.8249 27.8275 33.7737 27.8616C33.2271 28.1008 32.6633 28.2718 32.0653 28.3744C31.2624 28.5281 30.4595 28.5965 29.6395 28.5794C28.3411 28.5794 27.2478 28.3743 26.3595 27.9812C25.5224 27.6223 24.7878 27.0584 24.207 26.3576C23.6603 25.6912 23.2674 24.9391 23.0283 24.1187C22.7892 23.3154 22.6695 22.478 22.6695 21.6236C22.6695 20.7007 22.8061 19.7949 23.0965 18.9061C23.3699 18.0516 23.7969 17.2654 24.3777 16.5647C24.9415 15.881 25.6418 15.3342 26.4447 14.941C27.2477 14.5479 28.2043 14.4113 29.2977 14.4113C30.2031 14.3942 31.1086 14.5652 31.9456 14.941C32.6461 15.2487 33.2611 15.7102 33.7395 16.3082C34.1836 16.8894 34.5424 17.5387 34.7645 18.2565C34.9865 18.9402 35.089 19.6408 35.089 20.3415C35.089 20.7517 35.072 21.1107 35.0549 21.4354C35.0208 21.7601 35.0036 21.9995 34.9865 22.1532C34.9695 22.2728 34.867 22.3753 34.7474 22.3753C34.6449 22.3753 34.457 22.3924 34.1836 22.4095C33.9102 22.4436 33.5856 22.4608 33.1927 22.4608C32.7997 22.4608 32.3897 22.3924 31.9456 22.3924L31.9459 22.3927ZM26.5305 19.8976H30.1351C30.5792 19.8976 30.9039 19.8976 31.1087 19.8805C31.2453 19.8634 31.3821 19.8291 31.5017 19.7438V19.5729C31.5017 19.3507 31.4676 19.1456 31.3992 18.9406C31.0917 17.9835 30.1862 17.334 29.1783 17.3683C28.2387 17.3169 27.3503 17.8126 26.9062 18.6672C26.7012 19.0603 26.5817 19.4705 26.5303 19.8977L26.5305 19.8976Z" fill="#9999FF"/>
</g>
<defs>
<clipPath id="clip0_697_16159">
<rect width="41" height="40" fill="white"/>
</clipPath>
</defs>
</svg>
