<svg width="40" height="40" viewBox="0 0 40 40" fill="none" xmlns="http://www.w3.org/2000/svg">
<path d="M28.1396 19.8753C27.9678 19.5242 28.115 19.1038 28.4656 18.932C28.8162 18.7601 29.2372 18.9073 29.409 19.2579C29.5809 19.6085 29.4337 20.0295 29.0831 20.2013C28.7324 20.3731 28.3115 20.226 28.1396 19.8753ZM31.5516 26.8878C31.3797 26.5371 31.5269 26.1162 31.8775 25.9444C32.2282 25.7726 32.6491 25.9202 32.821 26.2708C32.9928 26.6214 32.8457 27.0419 32.495 27.2137C32.1444 27.3855 31.7234 27.2384 31.5516 26.8878ZM31.8496 17.7888C29.6055 16.1866 26.6774 15.7726 23.9668 16.8212L31.376 32.0558C33.8729 30.5728 35.3528 28.0099 35.479 25.2571L38.2912 25.4573C38.3297 25.4601 38.3683 25.4551 38.4049 25.4428C38.4415 25.4305 38.4753 25.4111 38.5043 25.3856C38.5333 25.3601 38.557 25.3292 38.574 25.2945C38.5909 25.2598 38.6009 25.2221 38.6031 25.1836C38.6059 25.1451 38.6011 25.1064 38.5888 25.0698C38.5765 25.0332 38.5571 24.9995 38.5317 24.9704C38.5063 24.9414 38.4753 24.9177 38.4407 24.9008C38.406 24.8838 38.3683 24.8739 38.3298 24.8716L35.4823 24.6681C35.4543 23.4691 35.167 22.2454 34.5952 21.0674C34.0238 19.8926 33.2382 18.911 32.3125 18.1464L33.9116 15.7796C33.9536 15.7154 33.9688 15.6373 33.9538 15.5621C33.9389 15.4868 33.8949 15.4205 33.8315 15.3772C33.7681 15.334 33.6903 15.3175 33.6148 15.3311C33.5393 15.3446 33.4721 15.3873 33.4277 15.45L31.8496 17.7856" fill="#3DDC84"/>
<path d="M25.0226 23.5248C22.9327 24.5348 20.685 25.0465 18.3427 25.0465C15.7904 25.0484 13.2778 24.4148 11.0317 23.2028C8.78563 21.9908 6.87671 20.2386 5.47724 18.1044C5.25652 17.7677 4.80063 17.6872 4.47466 17.9256L1.78498 19.9064C1.47996 20.1308 1.40965 20.5587 1.62339 20.8744C3.4634 23.6192 5.95149 25.8684 8.86761 27.4229C11.7837 28.9774 15.038 29.7894 18.3427 29.7871C21.404 29.7871 24.346 29.1175 27.0846 27.7956L25.0226 23.5248ZM16.8632 6.6703H19.7737V3.4551C19.7737 2.65189 19.1213 2 18.3185 2C17.5152 2 16.8632 2.65189 16.8632 3.4551V6.6703Z" fill="#4285F4"/>
<path d="M14.5367 12.9456L4.53235 33.5345C4.31611 33.9785 4.19885 34.4642 4.18869 34.958L4.12909 37.6544C4.11512 38.3524 4.92165 38.745 5.46182 38.3031L7.54475 36.5919C7.92702 36.2788 8.23683 35.8866 8.4528 35.4422L18.3133 15.1439L14.54 12.9489L14.5367 12.9456ZM32.4621 34.9547C32.4518 34.4602 32.3326 33.9764 32.1184 33.5313L22.1145 12.9419L18.3412 15.1439L28.2017 35.4348C28.4186 35.8787 28.7282 36.2709 29.1098 36.5849L31.1927 38.2961C31.7328 38.738 32.5426 38.345 32.5254 37.6475L32.4658 34.951L32.4621 34.9547Z" fill="#4285F4"/>
<path d="M18.3246 6.41528C15.9157 6.41528 13.959 8.3756 13.959 10.7806C13.959 13.1861 15.9194 15.1459 18.3246 15.1459C20.7302 15.1459 22.6902 13.1861 22.6902 10.7806C22.6902 8.3756 20.7302 6.41528 18.3246 6.41528ZM18.3246 13.1823C17.003 13.1823 15.9227 12.1063 15.9227 10.7806C15.9227 9.4554 16.9993 8.37886 18.3246 8.37886C19.6504 8.37886 20.727 9.4554 20.727 10.7806C20.727 12.1063 19.6504 13.1823 18.3246 13.1823Z" fill="#073042"/>
</svg>
