<svg width="40" height="40" viewBox="0 0 40 40" fill="none" xmlns="http://www.w3.org/2000/svg">
<path d="M20.0247 22.5942C25.7651 22.5942 30.4186 18.2681 30.4186 12.9316C30.4186 7.59513 25.7651 3.26904 20.0247 3.26904C14.2844 3.26904 9.63086 7.59513 9.63086 12.9316C9.63086 18.2681 14.2844 22.5942 20.0247 22.5942Z" fill="#A4C639"/>
<path d="M12.1437 10.5159H27.9058C29.2993 10.5159 30.4186 11.6432 30.4186 13.0465V28.9208C30.4186 30.3242 29.2993 31.4515 27.9058 31.4515H12.1437C10.7502 31.4515 9.63086 30.3242 9.63086 28.9208V13.0465C9.63086 11.6547 10.7502 10.5159 12.1437 10.5159Z" fill="#A4C639"/>
<path d="M17.7746 8.99723C17.6946 9.04325 17.6033 9.05475 17.5233 9.03174C17.4433 9.00874 17.3634 8.95122 17.3291 8.8707L13.2858 1.53174C13.1944 1.3707 13.2515 1.16364 13.4114 1.08312C13.4914 1.03711 13.5828 1.02561 13.6627 1.04861C13.7427 1.07162 13.8226 1.12913 13.8569 1.20966L17.9002 8.56012C17.9916 8.70966 17.9345 8.91671 17.7746 8.99723Z" fill="#A4C639"/>
<path d="M35.9472 15.6921V25.4697C35.9472 26.7695 34.8964 27.8163 33.6172 27.8163C32.3379 27.8163 31.2871 26.758 31.2871 25.4697V15.6921C31.2871 14.3922 32.3379 13.3455 33.6172 13.3455C34.8964 13.3455 35.9472 14.4037 35.9472 15.6921Z" fill="#A4C639"/>
<path d="M26.2382 26.85V36.6277C26.2382 37.9275 25.1874 38.9743 23.9082 38.9743C22.6289 38.9743 21.5781 37.916 21.5781 36.6277V26.85C21.5781 25.5502 22.6289 24.5034 23.9082 24.5034C25.1874 24.5034 26.2382 25.5617 26.2382 26.85Z" fill="#A4C639"/>
<path d="M26.7635 1.53177L22.7202 8.88223C22.6745 8.96275 22.606 9.02027 22.526 9.04327C22.446 9.06628 22.3547 9.05478 22.2747 9.00876C22.1148 8.91674 22.0577 8.70968 22.1491 8.56014L26.181 1.19818C26.2267 1.11766 26.2952 1.06014 26.3752 1.03714C26.4094 1.02563 26.4323 1.02563 26.4665 1.02563C26.5236 1.02563 26.5808 1.03714 26.6264 1.07165C26.7978 1.16367 26.8549 1.37073 26.7635 1.53177Z" fill="#A4C639"/>
<path d="M8.76363 15.6921V25.4697C8.76363 26.7695 7.71282 27.8163 6.43357 27.8163C5.15433 27.8163 4.10352 26.7695 4.10352 25.4697V15.6921C4.10352 14.3922 5.15433 13.3455 6.43357 13.3455C7.71282 13.3455 8.76363 14.4037 8.76363 15.6921Z" fill="#A4C639"/>
<path d="M18.4707 26.85V36.6277C18.4707 37.9275 17.4199 38.9743 16.1406 38.9743C14.8614 38.9743 13.8105 37.916 13.8105 36.6277V26.85C13.8105 25.5502 14.8614 24.5034 16.1406 24.5034C17.4199 24.5034 18.4707 25.5617 18.4707 26.85Z" fill="#A4C639"/>
<path d="M20.0247 22.5942C25.7651 22.5942 30.4186 18.2681 30.4186 12.9316C30.4186 7.59513 25.7651 3.26904 20.0247 3.26904C14.2844 3.26904 9.63086 7.59513 9.63086 12.9316C9.63086 18.2681 14.2844 22.5942 20.0247 22.5942Z" fill="#A4C639"/>
<path d="M12.1437 10.5159H27.9058C29.2993 10.5159 30.4186 11.6432 30.4186 13.0465V28.9208C30.4186 30.3242 29.2993 31.4515 27.9058 31.4515H12.1437C10.7502 31.4515 9.63086 30.3242 9.63086 28.9208V13.0465C9.63086 11.6547 10.7502 10.5159 12.1437 10.5159Z" fill="#A4C639"/>
<path fill-rule="evenodd" clip-rule="evenodd" d="M30.8753 13.7484H9.17383V12.9202H30.8753V13.7484Z" fill="white"/>
<path fill-rule="evenodd" clip-rule="evenodd" d="M15.2274 8.16904C15.2022 8.16904 15.1817 8.18964 15.1817 8.21505C15.1817 8.24047 15.2022 8.26107 15.2274 8.26107C15.2527 8.26107 15.2731 8.24047 15.2731 8.21505C15.2731 8.18964 15.2527 8.16904 15.2274 8.16904ZM14.3594 8.21505C14.3594 7.73223 14.748 7.34082 15.2274 7.34082C15.7069 7.34082 16.0955 7.73223 16.0955 8.21505C16.0955 8.69788 15.7069 9.08929 15.2274 9.08929C14.748 9.08929 14.3594 8.69788 14.3594 8.21505Z" fill="white"/>
<path fill-rule="evenodd" clip-rule="evenodd" d="M24.8212 8.16904C24.796 8.16904 24.7755 8.18964 24.7755 8.21505C24.7755 8.24047 24.796 8.26107 24.8212 8.26107C24.8464 8.26107 24.8669 8.24047 24.8669 8.21505C24.8669 8.18964 24.8464 8.16904 24.8212 8.16904ZM23.9531 8.21505C23.9531 7.73223 24.3418 7.34082 24.8212 7.34082C25.3006 7.34082 25.6892 7.73223 25.6892 8.21505C25.6892 8.69788 25.3006 9.08929 24.8212 9.08929C24.3418 9.08929 23.9531 8.69788 23.9531 8.21505Z" fill="white"/>
</svg>
