<svg width="74" height="67" viewBox="0 0 74 67" fill="none" xmlns="http://www.w3.org/2000/svg">
<path d="M8.16327 8.19715C8.02365 4.19267 11.1474 0.5 15.3697 0.5H58.6356C62.8579 0.5 65.9817 4.19267 65.8421 8.19715C65.708 12.0439 65.8821 17.0268 67.1377 21.0897C68.3972 25.1653 70.5213 27.7413 74 28.0723V31.8256C70.5213 32.1566 68.3972 34.7327 67.1377 38.8082C65.8821 42.8712 65.708 47.8541 65.8421 51.7009C65.9817 55.7053 62.8579 59.398 58.6356 59.398H15.3697C11.1474 59.398 8.02365 55.7053 8.16341 51.7009C8.29739 47.8541 8.12323 42.8712 6.86755 38.8082C5.6081 34.7327 3.47887 32.1566 0 31.8256V28.0723C3.47872 27.7413 5.6081 25.1653 6.86755 21.0897C8.12323 17.0268 8.29739 12.0439 8.16327 8.19715Z" fill="url(#paint0_linear_1529_1403)"/>
<g filter="url(#filter0_d_1529_1403)">
<path d="M38.6044 45.6054C45.4403 45.6054 49.5596 42.2624 49.5596 36.7483C49.5596 32.5803 46.6204 29.5628 42.2561 29.0851V28.9115C45.4625 28.3905 47.9787 25.4164 47.9787 22.095C47.9787 17.3625 44.2379 14.2798 38.5376 14.2798H25.7119V45.6054H38.6044ZM30.6997 18.2525H37.3353C40.9425 18.2525 42.9909 19.8589 42.9909 22.7679C42.9909 25.8723 40.6085 27.6089 36.2887 27.6089H30.6997V18.2525ZM30.6997 41.6328V31.3212H37.2906C42.0111 31.3212 44.4605 33.0578 44.4605 36.4445C44.4605 39.831 42.0781 41.6328 37.5801 41.6328H30.6997Z" fill="url(#paint1_linear_1529_1403)"/>
<path d="M38.6044 45.6054C45.4403 45.6054 49.5596 42.2624 49.5596 36.7483C49.5596 32.5803 46.6204 29.5628 42.2561 29.0851V28.9115C45.4625 28.3905 47.9787 25.4164 47.9787 22.095C47.9787 17.3625 44.2379 14.2798 38.5376 14.2798H25.7119V45.6054H38.6044ZM30.6997 18.2525H37.3353C40.9425 18.2525 42.9909 19.8589 42.9909 22.7679C42.9909 25.8723 40.6085 27.6089 36.2887 27.6089H30.6997V18.2525ZM30.6997 41.6328V31.3212H37.2906C42.0111 31.3212 44.4605 33.0578 44.4605 36.4445C44.4605 39.831 42.0781 41.6328 37.5801 41.6328H30.6997Z" stroke="white"/>
</g>
<defs>
<filter id="filter0_d_1529_1403" x="9.21191" y="1.77979" width="56.8477" height="64.3257" filterUnits="userSpaceOnUse" color-interpolation-filters="sRGB">
<feFlood flood-opacity="0" result="BackgroundImageFix"/>
<feColorMatrix in="SourceAlpha" type="matrix" values="0 0 0 0 0 0 0 0 0 0 0 0 0 0 0 0 0 0 127 0" result="hardAlpha"/>
<feOffset dy="4"/>
<feGaussianBlur stdDeviation="8"/>
<feColorMatrix type="matrix" values="0 0 0 0 0 0 0 0 0 0 0 0 0 0 0 0 0 0 0.15 0"/>
<feBlend mode="normal" in2="BackgroundImageFix" result="effect1_dropShadow_1529_1403"/>
<feBlend mode="normal" in="SourceGraphic" in2="effect1_dropShadow_1529_1403" result="shape"/>
</filter>
<linearGradient id="paint0_linear_1529_1403" x1="10.9958" y1="2.05878" x2="75.5992" y2="53.4026" gradientUnits="userSpaceOnUse">
<stop stop-color="#9013FE"/>
<stop offset="1" stop-color="#6610F2"/>
</linearGradient>
<linearGradient id="paint1_linear_1529_1403" x1="27.9676" y1="16.3416" x2="42.3959" y2="40.7723" gradientUnits="userSpaceOnUse">
<stop stop-color="white"/>
<stop offset="1" stop-color="#F1E5FC"/>
</linearGradient>
</defs>
</svg>
