<svg width="152" height="152" viewBox="0 0 152 152" fill="none" xmlns="http://www.w3.org/2000/svg">
<rect x="0.824097" y="0.175781" width="151" height="151" rx="75.5" fill="white"/>
<path d="M98.7568 89.9183C98.7568 90.7283 98.5768 91.5608 98.1943 92.3708C97.8118 93.1808 97.3168 93.9458 96.6643 94.6658C95.5618 95.8808 94.3468 96.7583 92.9743 97.3208C91.6243 97.8833 90.1618 98.1758 88.5868 98.1758C86.2918 98.1758 83.8393 97.6358 81.2518 96.5333C78.6643 95.4308 76.0768 93.9458 73.5118 92.0783C70.9243 90.1883 68.4718 88.0958 66.1318 85.7783C63.8143 83.4383 61.7218 80.9858 59.8543 78.4208C58.0093 75.8558 56.5243 73.2908 55.4443 70.7483C54.3643 68.1833 53.8243 65.7308 53.8243 63.3908C53.8243 61.8608 54.0943 60.3983 54.6343 59.0483C55.1743 57.6758 56.0293 56.4158 57.2218 55.2908C58.6618 53.8733 60.2368 53.1758 61.9018 53.1758C62.5318 53.1758 63.1618 53.3108 63.7243 53.5808C64.3093 53.8508 64.8268 54.2558 65.2318 54.8408L70.4518 62.1983C70.8568 62.7608 71.1493 63.2783 71.3518 63.7733C71.5543 64.2458 71.6668 64.7183 71.6668 65.1458C71.6668 65.6858 71.5093 66.2258 71.1943 66.7433C70.9018 67.2608 70.4743 67.8008 69.9343 68.3408L68.2243 70.1183C67.9768 70.3658 67.8643 70.6583 67.8643 71.0183C67.8643 71.1983 67.8868 71.3558 67.9318 71.5358C67.9993 71.7158 68.0668 71.8508 68.1118 71.9858C68.5168 72.7283 69.2143 73.6958 70.2043 74.8658C71.2168 76.0358 72.2968 77.2283 73.4668 78.4208C74.6818 79.6133 75.8518 80.7158 77.0443 81.7283C78.2143 82.7183 79.1818 83.3933 79.9468 83.7983C80.0593 83.8433 80.1943 83.9108 80.3518 83.9783C80.5318 84.0458 80.7118 84.0683 80.9143 84.0683C81.2968 84.0683 81.5893 83.9333 81.8368 83.6858L83.5468 81.9983C84.1093 81.4358 84.6493 81.0083 85.1668 80.7383C85.6843 80.4233 86.2018 80.2658 86.7643 80.2658C87.1918 80.2658 87.6418 80.3558 88.1368 80.5583C88.6318 80.7608 89.1493 81.0533 89.7118 81.4358L97.1593 86.7233C97.7443 87.1283 98.1493 87.6008 98.3968 88.1633C98.6218 88.7258 98.7568 89.2883 98.7568 89.9183Z" fill="#03B0EF"/>
</svg>
