<svg width="40" height="40" viewBox="0 0 40 40" fill="none" xmlns="http://www.w3.org/2000/svg">
<path d="M14.8434 37.9976C12.6848 37.0645 10.6649 34.6931 10.6601 32.2667C10.6542 29.6213 12.3307 27.3753 14.4159 25.8993C14.1652 26.8463 14.0285 27.7126 14.6495 28.5598C15.2268 29.3474 16.238 29.7301 17.1927 29.5224C19.4237 29.034 19.526 26.5815 18.2034 25.1527C16.8958 23.7377 15.6308 22.1394 16.1285 20.0874C16.3777 19.0588 17.0093 18.0953 17.8094 17.4066C17.1944 19.0228 18.9421 20.6167 20.0935 21.4106C22.091 22.788 24.2825 23.829 26.1191 25.4437C28.051 27.1407 29.4775 29.4353 29.1895 32.0965C28.8773 34.981 26.5852 36.9872 24.0142 38C29.4471 36.8009 35.0607 32.5843 35.1757 26.559C35.271 21.602 31.8705 17.7872 27.6581 15.6031L27.4381 15.483C27.5537 15.7635 27.5915 16.0021 27.5871 16.2157C27.6248 16.0582 27.6505 15.8963 27.6577 15.7293C27.6567 15.9277 27.6307 16.1252 27.5805 16.3172L27.5871 16.2157C27.5246 16.4789 27.4192 16.73 27.2753 16.959L27.3371 16.8925C26.4967 18.2864 24.2216 18.5891 23.0977 17.1458C21.291 14.8241 23.1356 12.321 23.3936 9.86246C23.7167 6.78124 21.7844 3.79001 19.3885 2C20.7081 4.13459 18.9696 6.95866 17.5788 8.53748C16.2301 10.0679 14.59 11.3457 13.1011 12.7363C11.5018 14.2298 9.96429 15.803 8.64971 17.5559C6.02055 21.0645 4.41097 25.4772 5.59381 29.8543C6.77589 34.2284 10.5647 37.013 14.8434 37.9976Z" fill="#EE4323"/>
</svg>
