<svg width="40" height="40" viewBox="0 0 40 40" fill="none" xmlns="http://www.w3.org/2000/svg">
<path d="M11.1352 25.0845H5.11711C5.91398 27.8189 7.39242 30.2689 9.55773 32.4329C13.009 35.8851 17.1593 37.6089 22.0115 37.6089C22.9821 37.6089 23.9221 37.537 24.8352 37.3989C28.4912 36.847 31.6918 35.1942 34.4337 32.4332C36.6124 30.2686 38.1018 27.8189 38.9049 25.0845H11.1352ZM7.81742 16.9104H4.67273C4.55539 17.6119 4.4788 18.3195 4.44336 19.0298H39.5824C39.5466 18.3195 39.4696 17.6118 39.3518 16.9104M4.44336 20.9973C4.47898 21.7076 4.55556 22.4152 4.67273 23.1167H39.353C39.4702 22.4148 39.5468 21.7079 39.5837 20.9973M38.9062 14.9414C38.103 12.2011 36.6137 9.73887 34.4334 7.55887C31.699 4.82324 28.5071 3.18262 24.8634 2.63074C23.9198 2.4882 22.967 2.41675 22.0127 2.41699C17.1596 2.41699 13.009 4.13231 9.55805 7.55856C7.39242 9.73887 5.9118 12.2011 5.11586 14.9414" fill="#2C2255"/>
<path d="M3.3993 20.0136C3.3993 10.7314 10.3709 3.01891 19.4405 1.66266C19.2159 1.65422 18.989 1.64453 18.7618 1.64453C8.58492 1.64578 0.333984 9.86953 0.333984 20.0136C0.333984 30.1589 8.58492 38.3827 18.7621 38.3827C18.9902 38.3827 19.2159 38.3742 19.4418 38.3658C10.3709 37.0095 3.3993 29.297 3.3993 20.0136Z" fill="#F7941E"/>
<path d="M33.9706 19.0279C33.913 18.3122 33.7912 17.6031 33.6069 16.9092H10.4184C10.2341 17.6031 10.1123 18.3122 10.0547 19.0279H33.9706Z" fill="url(#paint0_linear_708_19184)"/>
<path d="M33.9706 20.9971H10.0547C10.1119 21.7127 10.2341 22.4218 10.4184 23.1164H33.6069C33.7912 22.4223 33.913 21.713 33.9706 20.9971Z" fill="url(#paint1_linear_708_19184)"/>
<path d="M22.0123 32.0157C26.8279 32.0157 30.9798 29.1773 32.8901 25.0845H11.1348C13.0463 29.1773 17.1966 32.0157 22.0123 32.0157Z" fill="url(#paint2_linear_708_19184)"/>
<path d="M8.28273 20.9973H39.5584C39.5755 20.6823 39.584 20.3669 39.584 20.0514C39.584 19.7083 39.5715 19.368 39.5521 19.0286H4.44398C4.42416 19.3692 4.41353 19.7102 4.41211 20.0514C4.41211 20.3689 4.4218 20.6836 4.43773 20.9973H8.28273ZM11.0659 14.9414H5.11617C4.92086 15.5823 4.79398 16.2405 4.67305 16.9105H39.2409C39.1216 16.2455 38.9635 15.5882 38.7674 14.9417M36.9799 23.1167H4.67336C4.79055 23.7855 4.92492 24.4436 5.11773 25.0845H38.8834C39.0763 24.4381 39.2318 23.7811 39.349 23.1167H36.9799Z" fill="white"/>
<defs>
<linearGradient id="paint0_linear_708_19184" x1="22.0127" y1="39.9951" x2="22.0127" y2="13.5292" gradientUnits="userSpaceOnUse">
<stop offset="0.303" stop-color="#473788"/>
<stop offset="0.872" stop-color="#2C2255"/>
</linearGradient>
<linearGradient id="paint1_linear_708_19184" x1="22.0127" y1="39.9952" x2="22.0127" y2="13.5292" gradientUnits="userSpaceOnUse">
<stop offset="0.303" stop-color="#473788"/>
<stop offset="0.872" stop-color="#2C2255"/>
</linearGradient>
<linearGradient id="paint2_linear_708_19184" x1="22.0125" y1="40.0003" x2="22.0125" y2="13.5302" gradientUnits="userSpaceOnUse">
<stop offset="0.303" stop-color="#473788"/>
<stop offset="0.863" stop-color="#2C2255"/>
</linearGradient>
</defs>
</svg>
