<svg width="78" height="79" viewBox="0 0 78 79" fill="none" xmlns="http://www.w3.org/2000/svg">
<path d="M0.507647 45.7658V37.085H11.3459V36.5773H0.507647V28.658H12.0312V28.1504H0V46.2734H12.1328V45.7658H0.507647ZM21.905 33.2269L17.4123 39.141L13.0212 33.2269H12.3612L17.1077 39.5217L11.9043 46.2734H12.5135L17.4123 39.9024L22.3365 46.2734H22.971L17.7423 39.5217L22.5142 33.2269H21.905ZM24.494 50.7407V42.6183H24.5447C24.8493 43.8029 25.45 44.7547 26.3469 45.4739C27.2437 46.193 28.3859 46.5526 29.7735 46.5526C30.6704 46.5526 31.4657 46.3707 32.1595 46.0069C32.8532 45.6431 33.4328 45.1481 33.8981 44.522C34.3635 43.8959 34.7188 43.1683 34.9642 42.3391C35.2096 41.51 35.3322 40.6385 35.3322 39.7247C35.3322 38.7433 35.2053 37.838 34.9515 37.0088C34.6977 36.1797 34.3296 35.4605 33.8474 34.8513C33.3651 34.2422 32.7813 33.7684 32.096 33.4299C31.4107 33.0915 30.6365 32.9223 29.7735 32.9223C29.1136 32.9223 28.5002 33.0196 27.9333 33.2142C27.3664 33.4088 26.863 33.6837 26.423 34.0391C25.9831 34.3945 25.6023 34.8133 25.2808 35.2955C24.9593 35.7778 24.714 36.3066 24.5447 36.8819H24.494V33.2269H23.9863V50.7407H24.494ZM29.7735 46.0703C28.1829 46.0703 26.9053 45.5246 25.9408 44.4332C24.9762 43.3417 24.494 41.7723 24.494 39.7247C24.494 38.8787 24.6124 38.0749 24.8493 37.3134C25.0862 36.5519 25.4289 35.8836 25.8773 35.3082C26.3257 34.7329 26.8799 34.276 27.5399 33.9376C28.1998 33.5991 28.9444 33.4299 29.7735 33.4299C30.6196 33.4299 31.3599 33.5991 31.9945 33.9376C32.629 34.276 33.1536 34.7371 33.5682 35.3209C33.9828 35.9047 34.2958 36.5731 34.5073 37.3261C34.7188 38.0791 34.8246 38.8787 34.8246 39.7247C34.8246 40.4862 34.7273 41.2435 34.5327 41.9965C34.3381 42.7495 34.0378 43.4263 33.6316 44.0271C33.2255 44.6278 32.7052 45.1185 32.0706 45.4992C31.4361 45.88 30.6704 46.0703 29.7735 46.0703ZM38.1243 46.2734V38.8871C38.1243 38.1764 38.2258 37.4826 38.4289 36.8058C38.632 36.1289 38.945 35.5324 39.368 35.0163C39.7911 34.5002 40.3283 34.0941 40.9798 33.798C41.6313 33.5018 42.4055 33.3792 43.3023 33.4299V32.9223C42.5239 32.9054 41.8428 32.99 41.259 33.1761C40.6752 33.3622 40.1718 33.6161 39.7488 33.9376C39.3257 34.2591 38.9873 34.6356 38.7335 35.0671C38.4797 35.4986 38.2935 35.9597 38.1751 36.4504H38.1243V33.2269H37.6167V46.2734H38.1243ZM43.9369 39.8517H54.8513C54.8851 38.9548 54.7963 38.0918 54.5848 37.2627C54.3732 36.4335 54.0348 35.6974 53.5695 35.0544C53.1041 34.4114 52.5034 33.8953 51.7673 33.5061C51.0312 33.1169 50.1556 32.9223 49.1403 32.9223C48.4126 32.9223 47.7019 33.0746 47.0081 33.3792C46.3143 33.6837 45.7052 34.1279 45.1806 34.7117C44.656 35.2955 44.233 36.0105 43.9115 36.8565C43.59 37.7026 43.4292 38.6671 43.4292 39.7501C43.4292 40.7147 43.5392 41.6157 43.7592 42.4534C43.9792 43.291 44.3176 44.0186 44.7745 44.6362C45.2314 45.2539 45.8194 45.7319 46.5386 46.0703C47.2577 46.4088 48.125 46.5695 49.1403 46.5526C50.6294 46.5526 51.8815 46.1338 52.8968 45.2962C53.9121 44.4586 54.5129 43.2783 54.699 41.7553H54.1913C53.9714 43.1937 53.4087 44.2724 52.5034 44.9916C51.5981 45.7108 50.4601 46.0703 49.0895 46.0703C48.1588 46.0703 47.372 45.9096 46.7289 45.5881C46.0859 45.2666 45.5613 44.8266 45.1552 44.2682C44.7491 43.7098 44.4487 43.0541 44.2542 42.3011C44.0595 41.548 43.9538 40.7316 43.9369 39.8517ZM54.3436 39.344H43.9369C43.9876 38.4302 44.1568 37.6096 44.4445 36.8819C44.7322 36.1543 45.1087 35.5324 45.574 35.0163C46.0394 34.5002 46.5809 34.1068 47.1985 33.836C47.8161 33.5653 48.4803 33.4299 49.191 33.4299C50.0371 33.4299 50.7816 33.5864 51.4247 33.8995C52.0677 34.2125 52.6049 34.6398 53.0364 35.1813C53.468 35.7228 53.7937 36.3531 54.0137 37.0723C54.2336 37.7915 54.3436 38.5487 54.3436 39.344ZM65.385 37.085H65.8926C65.8926 35.6297 65.4696 34.5721 64.6235 33.9122C63.7774 33.2522 62.6268 32.9223 61.1715 32.9223C60.3593 32.9223 59.6739 33.0238 59.1155 33.2269C58.5571 33.4299 58.1002 33.6922 57.7449 34.0137C57.3895 34.3352 57.1357 34.6906 56.9834 35.0798C56.8311 35.469 56.755 35.8412 56.755 36.1966C56.755 36.9073 56.8819 37.4742 57.1357 37.8972C57.3895 38.3203 57.7872 38.6502 58.3287 38.8871C58.7009 39.0563 59.124 39.2086 59.5978 39.344C60.0716 39.4794 60.6215 39.6232 61.2476 39.7755C61.8061 39.9109 62.356 40.0463 62.8975 40.1816C63.439 40.317 63.917 40.4989 64.3316 40.7274C64.7462 40.9558 65.0846 41.2477 65.3469 41.603C65.6092 41.9584 65.7403 42.4237 65.7403 42.9991C65.7403 43.5575 65.6092 44.0313 65.3469 44.4205C65.0846 44.8097 64.7504 45.127 64.3443 45.3723C63.9382 45.6177 63.4855 45.7954 62.9863 45.9054C62.4871 46.0153 62.0007 46.0703 61.5268 46.0703C59.987 46.0703 58.8067 45.7277 57.986 45.0424C57.1653 44.357 56.755 43.2783 56.755 41.8061H56.2473C56.2473 43.4475 56.6915 44.6489 57.5799 45.4104C58.4683 46.1719 59.7839 46.5526 61.5268 46.5526C62.0853 46.5526 62.6479 46.4891 63.2148 46.3622C63.7817 46.2353 64.2893 46.028 64.7377 45.7404C65.1861 45.4527 65.5499 45.0804 65.8292 44.6235C66.1084 44.1667 66.248 43.6083 66.248 42.9483C66.248 42.3222 66.1253 41.8146 65.8799 41.4254C65.6346 41.0362 65.313 40.7147 64.9154 40.4608C64.5177 40.207 64.0693 40.0082 63.5701 39.8644C63.0709 39.7205 62.5675 39.5809 62.0599 39.4455C61.3492 39.2594 60.7273 39.0987 60.1943 38.9633C59.6612 38.8279 59.1663 38.6671 58.7094 38.481C58.2694 38.2949 57.9183 38.0284 57.656 37.6815C57.3938 37.3346 57.2626 36.8396 57.2626 36.1966C57.2626 36.0781 57.2965 35.8666 57.3641 35.562C57.4318 35.2575 57.5926 34.9486 57.8464 34.6356C58.1002 34.3225 58.4894 34.0433 59.014 33.798C59.5386 33.5526 60.2577 33.4299 61.1715 33.4299C61.7976 33.4299 62.3687 33.4976 62.8848 33.633C63.4009 33.7684 63.8451 33.9841 64.2174 34.2802C64.5897 34.5764 64.8773 34.9529 65.0804 35.4097C65.2834 35.8666 65.385 36.425 65.385 37.085ZM77.137 37.085H77.6446C77.6446 35.6297 77.2216 34.5721 76.3755 33.9122C75.5294 33.2522 74.3788 32.9223 72.9235 32.9223C72.1113 32.9223 71.426 33.0238 70.8676 33.2269C70.3091 33.4299 69.8523 33.6922 69.4969 34.0137C69.1416 34.3352 68.8877 34.6906 68.7354 35.0798C68.5831 35.469 68.507 35.8412 68.507 36.1966C68.507 36.9073 68.6339 37.4742 68.8877 37.8972C69.1416 38.3203 69.5392 38.6502 70.0807 38.8871C70.453 39.0563 70.876 39.2086 71.3498 39.344C71.8236 39.4794 72.3736 39.6232 72.9997 39.7755C73.5581 39.9109 74.108 40.0463 74.6495 40.1816C75.191 40.317 75.6691 40.4989 76.0836 40.7274C76.4982 40.9558 76.8366 41.2477 77.0989 41.603C77.3612 41.9584 77.4924 42.4237 77.4924 42.9991C77.4924 43.5575 77.3612 44.0313 77.0989 44.4205C76.8366 44.8097 76.5024 45.127 76.0963 45.3723C75.6902 45.6177 75.2376 45.7954 74.7384 45.9054C74.2392 46.0153 73.7527 46.0703 73.2789 46.0703C71.739 46.0703 70.5587 45.7277 69.738 45.0424C68.9173 44.357 68.507 43.2783 68.507 41.8061H67.9994C67.9994 43.4475 68.4435 44.6489 69.3319 45.4104C70.2203 46.1719 71.5359 46.5526 73.2789 46.5526C73.8373 46.5526 74.3999 46.4891 74.9668 46.3622C75.5337 46.2353 76.0413 46.028 76.4897 45.7404C76.9382 45.4527 77.302 45.0804 77.5812 44.6235C77.8604 44.1667 78 43.6083 78 42.9483C78 42.3222 77.8773 41.8146 77.632 41.4254C77.3866 41.0362 77.0651 40.7147 76.6674 40.4608C76.2698 40.207 75.8214 40.0082 75.3222 39.8644C74.823 39.7205 74.3196 39.5809 73.8119 39.4455C73.1012 39.2594 72.4793 39.0987 71.9463 38.9633C71.4133 38.8279 70.9183 38.6671 70.4614 38.481C70.0215 38.2949 69.6704 38.0284 69.4081 37.6815C69.1458 37.3346 69.0146 36.8396 69.0146 36.1966C69.0146 36.0781 69.0485 35.8666 69.1162 35.562C69.1839 35.2575 69.3446 34.9486 69.5984 34.6356C69.8523 34.3225 70.2415 34.0433 70.766 33.798C71.2906 33.5526 72.0098 33.4299 72.9235 33.4299C73.5496 33.4299 74.1207 33.4976 74.6368 33.633C75.1529 33.7684 75.5971 33.9841 75.9694 34.2802C76.3417 34.5764 76.6293 34.9529 76.8324 35.4097C77.0355 35.8666 77.137 36.425 77.137 37.085Z" fill="#222222"/>
</svg>
