<svg width="62" height="40" viewBox="0 0 62 40" fill="none" xmlns="http://www.w3.org/2000/svg">
<path d="M24.5723 15.4009H26.3909L29.5116 21.0825L32.6323 15.4009H34.4096V24.7245H32.9216V17.5861L30.1936 22.5185H28.7883L26.0603 17.5861V24.7245H24.5723V15.4009Z" fill="#1C2B33"/>
<path d="M40.3408 19.3553C40.0308 19.0431 39.6174 18.8766 39.1008 18.8766C38.6048 18.8766 38.1914 19.0431 37.8608 19.3761C37.5301 19.7091 37.3234 20.1461 37.2201 20.7081H40.8574C40.8161 20.1253 40.6508 19.6883 40.3408 19.3553ZM39.2454 24.8912C38.5428 24.8912 37.9434 24.7455 37.4268 24.4333C36.9101 24.1212 36.4968 23.7049 36.2074 23.143C35.9181 22.6019 35.7734 21.9776 35.7734 21.27C35.7734 20.5624 35.9181 19.9172 36.2074 19.3761C36.4968 18.835 36.8894 18.398 37.4061 18.0858C37.9228 17.7736 38.5014 17.6279 39.1628 17.6279C39.8241 17.6279 40.3821 17.7944 40.8574 18.1066C41.3328 18.4188 41.7048 18.8558 41.9528 19.4177C42.2008 19.9796 42.3454 20.6456 42.3454 21.3948V21.8111H37.2614C37.3441 22.373 37.5921 22.8308 37.9434 23.1638C38.3154 23.4968 38.7701 23.6633 39.3281 23.6633C39.7828 23.6633 40.1548 23.6009 40.4854 23.4552C40.8161 23.3303 41.1054 23.1222 41.3948 22.8517L42.1801 23.8298C41.3534 24.5374 40.3821 24.8912 39.2454 24.8912Z" fill="#1C2B33"/>
<path d="M44.1229 19.0013H42.7383V17.7734H44.1229V15.7339H45.5696V17.7734H47.6569V19.0013H45.5696V22.1231C45.5696 22.6434 45.6523 23.018 45.8383 23.2261C46.0243 23.455 46.3136 23.5591 46.7476 23.5591C46.9336 23.5591 47.0989 23.5591 47.2229 23.5383C47.3469 23.5174 47.4916 23.4966 47.6569 23.4758V24.7037C47.4709 24.7661 47.2849 24.787 47.0989 24.8286C46.8923 24.8702 46.6649 24.8702 46.4583 24.8702C44.9083 24.8702 44.1229 24.0169 44.1229 22.2896V19.0013Z" fill="#1C2B33"/>
<path d="M53.733 20.2082C53.5884 19.8128 53.3404 19.5006 53.0097 19.2717C52.679 19.0428 52.2864 18.9387 51.8524 18.9179C51.2324 18.9179 50.7364 19.126 50.385 19.5422C50.013 19.9585 49.827 20.5204 49.827 21.228C49.827 21.9356 50.013 22.5183 50.3644 22.9345C50.7157 23.3508 51.191 23.5589 51.7904 23.5589C52.245 23.5589 52.6377 23.434 52.989 23.2051C53.3404 22.9762 53.5884 22.664 53.733 22.2686V20.2082ZM55.159 24.7243H53.733V23.7462C53.485 24.1 53.1544 24.3913 52.7824 24.5787C52.3897 24.766 51.9557 24.87 51.4597 24.87C50.8604 24.87 50.3024 24.7035 49.8477 24.3913C49.3724 24.0792 49.0004 23.6421 48.7317 23.101C48.463 22.5599 48.3184 21.9356 48.3184 21.228C48.3184 20.5204 48.463 19.896 48.7317 19.3341C49.0004 18.793 49.393 18.356 49.8684 18.0438C50.3437 17.7316 50.9017 17.5859 51.5424 17.5859C52.0177 17.5859 52.431 17.6692 52.803 17.8565C53.175 18.0438 53.485 18.3143 53.733 18.6473V17.7524H55.159V24.7243Z" fill="#1C2B33"/>
<path d="M21.4925 20.8949C21.4925 21.2487 21.4925 21.6234 21.4925 21.9772C21.4925 21.998 21.4925 21.998 21.4925 22.0188C21.4925 22.102 21.4925 22.1645 21.4718 22.2477C21.4512 22.4558 21.4098 22.6639 21.3685 22.8512C21.2858 23.1634 21.1825 23.4548 21.0378 23.7253C20.9138 23.9543 20.7485 24.1624 20.5625 24.3289C20.4592 24.4329 20.3352 24.5162 20.2112 24.5994C19.9632 24.7451 19.6945 24.8492 19.4052 24.8908C19.3638 24.8908 19.3432 24.8908 19.3018 24.9116C19.0952 24.9116 18.8678 24.9116 18.6612 24.9116C18.6405 24.9116 18.6405 24.9116 18.6198 24.9116C18.5372 24.8908 18.4338 24.8908 18.3512 24.87C18.1445 24.8284 17.9585 24.7659 17.7932 24.6619C17.5658 24.537 17.3798 24.3913 17.1938 24.2248C17.0492 24.0791 16.9045 23.9335 16.7598 23.767C16.5532 23.5172 16.3672 23.2467 16.1812 22.9969C15.9125 22.5807 15.6438 22.1645 15.3958 21.7274C15.1065 21.2279 14.8172 20.7285 14.5278 20.2498C14.4452 20.1041 14.3418 19.9584 14.2592 19.8127C14.2592 19.8127 14.2592 19.7919 14.2385 19.7919C14.2178 19.7711 14.2178 19.7711 14.1972 19.7919C14.1972 19.7919 14.1972 19.8127 14.1765 19.8127C14.1558 19.8544 14.1145 19.9168 14.0938 19.9584C13.9698 20.1665 13.8458 20.3955 13.7218 20.6036C13.5152 20.9574 13.3292 21.3112 13.1225 21.6442C12.9365 21.9772 12.7505 22.2893 12.5438 22.6015C12.3578 22.9137 12.1512 23.205 11.9238 23.4964C11.7378 23.7253 11.5518 23.9543 11.3452 24.1416C11.2005 24.2872 11.0352 24.4121 10.8698 24.5162C10.5805 24.7035 10.2705 24.8284 9.93984 24.87C9.91918 24.87 9.87784 24.87 9.85718 24.8908C9.62984 24.8908 9.42318 24.8908 9.19584 24.8908C9.17518 24.8908 9.17518 24.8908 9.15451 24.8908C9.03051 24.87 8.88584 24.8492 8.76184 24.8075C8.26584 24.6619 7.87318 24.3913 7.56318 23.9959C7.39784 23.7878 7.25318 23.538 7.14984 23.2883C7.02584 22.9761 6.94318 22.6431 6.90184 22.3101C6.88118 22.1853 6.86051 22.0604 6.86051 21.9147C6.86051 21.7899 6.83984 21.665 6.83984 21.5609C6.83984 21.4569 6.83984 21.332 6.83984 21.2279C6.83984 21.1447 6.83984 21.0614 6.83984 20.999C6.83984 20.8741 6.86051 20.7493 6.86051 20.6244C6.88118 20.4579 6.90184 20.2914 6.92251 20.1249C6.98451 19.7711 7.04651 19.4173 7.14984 19.0843C7.27384 18.6473 7.41851 18.2102 7.62518 17.8148C7.79051 17.461 7.97651 17.128 8.18318 16.8159C8.38984 16.5245 8.59651 16.2748 8.84451 16.025C9.03051 15.8585 9.21651 15.692 9.42318 15.5672C9.67118 15.4007 9.93984 15.2758 10.2292 15.1926C10.4565 15.1301 10.7045 15.0677 10.9525 15.0677C10.9732 15.0677 10.9938 15.0677 11.0145 15.0677C11.0558 15.0677 11.0765 15.0677 11.1178 15.0677C11.1385 15.0677 11.1592 15.0677 11.1798 15.0677C11.3038 15.0677 11.4278 15.0885 11.5312 15.1093C11.9238 15.1717 12.2958 15.2966 12.6265 15.5047C12.9365 15.692 13.2052 15.9002 13.4738 16.1499C13.6392 16.2956 13.7838 16.4621 13.9285 16.6077C14.0732 16.7742 14.1972 16.9199 14.3212 17.0864C14.3625 17.128 14.3625 17.128 14.3832 17.0864C14.4452 17.0032 14.5278 16.8991 14.5898 16.8159C14.7345 16.6286 14.8792 16.4621 15.0445 16.2748C15.1892 16.1291 15.3338 15.9834 15.4785 15.8377C15.6438 15.692 15.8298 15.5464 16.0365 15.4215C16.2432 15.2966 16.4705 15.1926 16.6978 15.1301C16.8632 15.0885 17.0078 15.0469 17.1732 15.0469C17.2972 15.0469 17.4212 15.0469 17.5658 15.0469C17.6692 15.0469 17.7725 15.0677 17.8965 15.0885C18.2272 15.1509 18.5372 15.2966 18.8472 15.4631C19.1158 15.6296 19.3638 15.8377 19.5912 16.0458C19.6532 16.1083 19.7358 16.1915 19.7978 16.2748C19.9425 16.4413 20.0665 16.6077 20.1905 16.7951C20.4385 17.1697 20.6452 17.5443 20.8105 17.9605C20.9138 18.1894 20.9965 18.4184 21.0585 18.6681C21.1412 18.9178 21.2032 19.1884 21.2652 19.4381C21.3065 19.6463 21.3478 19.8336 21.3685 20.0417C21.3892 20.1874 21.4098 20.3122 21.4098 20.4579C21.4305 20.562 21.4305 20.666 21.4305 20.7701C21.4925 20.8533 21.4925 20.8741 21.4925 20.8949ZM20.1078 21.4361C20.1078 21.3944 20.1078 21.3736 20.1078 21.3528C20.1078 21.2071 20.1078 21.0614 20.0872 20.9158C20.0872 20.7909 20.0665 20.666 20.0458 20.5412C20.0252 20.3538 20.0045 20.1457 19.9632 19.9584C19.8805 19.4798 19.7565 19.0011 19.5705 18.564C19.4465 18.2519 19.3018 17.9397 19.1158 17.6483C18.9712 17.3986 18.7852 17.1905 18.5785 16.9824C18.4338 16.8367 18.2892 16.7118 18.1032 16.6286C17.8345 16.4621 17.5245 16.3788 17.2145 16.3788C17.1318 16.3788 17.0492 16.3996 16.9665 16.3996C16.8012 16.4413 16.6358 16.5037 16.4912 16.5869C16.3258 16.691 16.1812 16.7951 16.0572 16.9199C15.8712 17.1072 15.6852 17.3153 15.5198 17.5235C15.3752 17.7108 15.2512 17.8981 15.1272 18.1062C15.0858 18.1686 15.0858 18.1478 15.1272 18.2102C15.3958 18.6265 15.6645 19.0427 15.9125 19.4589C16.1605 19.8752 16.3878 20.2706 16.6358 20.6868C16.7598 20.8949 16.8838 21.1031 17.0285 21.3112C17.2352 21.6234 17.4212 21.9355 17.6485 22.2477C17.7932 22.4558 17.9585 22.6639 18.1238 22.8721C18.2065 22.9761 18.3098 23.0594 18.4338 23.1426C18.5578 23.2259 18.6818 23.2675 18.8058 23.2883C18.9298 23.3091 19.0332 23.3091 19.1572 23.2883C19.4052 23.2675 19.6118 23.1426 19.7565 22.9553C19.8392 22.8304 19.9012 22.7056 19.9632 22.5599C20.0458 22.3101 20.0872 22.0604 20.0872 21.8107C20.0872 21.769 20.0872 21.7482 20.0872 21.7066C20.1078 21.6442 20.1078 21.5401 20.1078 21.4361ZM8.43118 21.5193C8.43118 21.5817 8.43118 21.6442 8.43118 21.7066C8.43118 21.8523 8.45184 21.998 8.47251 22.1436C8.49318 22.3101 8.53451 22.4766 8.61718 22.6431C8.67918 22.7888 8.76184 22.9345 8.88584 23.0594C8.96851 23.1426 9.07184 23.205 9.17518 23.2467C9.29918 23.2883 9.40251 23.3091 9.52651 23.3299C9.58851 23.3299 9.65051 23.3299 9.71251 23.3299C9.85718 23.3091 9.98118 23.2675 10.1052 23.205C10.2498 23.1218 10.3532 23.0385 10.4772 22.9345C10.6012 22.8304 10.7045 22.7056 10.7872 22.5807C10.9938 22.331 11.1592 22.0812 11.3452 21.8315C11.5725 21.4985 11.7998 21.1447 12.0065 20.8117C12.1512 20.5828 12.3165 20.333 12.4612 20.1041C12.6265 19.8336 12.8125 19.563 12.9778 19.2925C13.1018 19.0843 13.2465 18.8762 13.3705 18.6889C13.4118 18.6265 13.4118 18.6265 13.3705 18.5849C13.1845 18.3143 12.9778 18.0438 12.7712 17.8148C12.6058 17.6275 12.4405 17.461 12.2752 17.2945C12.1512 17.1905 12.0272 17.0864 11.8825 17.0032C11.7378 16.9199 11.5725 16.8575 11.3865 16.8159C11.2625 16.7951 11.1385 16.7742 11.0145 16.7742C10.9112 16.7742 10.8078 16.7951 10.7045 16.8159C10.5185 16.8783 10.3532 16.9615 10.1878 17.0656C10.0432 17.1697 9.91918 17.2737 9.81584 17.3986C9.71251 17.5026 9.62984 17.6275 9.52651 17.7524C9.34051 18.0021 9.19584 18.2727 9.07184 18.564C8.90651 18.9387 8.78251 19.3133 8.67918 19.6879C8.61718 19.9584 8.55518 20.2498 8.51384 20.5203C8.49318 20.6452 8.47251 20.7909 8.47251 20.9158C8.47251 21.0198 8.45184 21.1239 8.45184 21.2487C8.43118 21.3112 8.43118 21.4152 8.43118 21.5193Z" fill="url(#paint0_linear_703_19073)"/>
<defs>
<linearGradient id="paint0_linear_703_19073" x1="11.4292" y1="23.0822" x2="18.4407" y2="16.9551" gradientUnits="userSpaceOnUse">
<stop stop-color="#0082FB"/>
<stop offset="0.1846" stop-color="#007CF5"/>
<stop offset="0.4402" stop-color="#006AE5"/>
<stop offset="0.5056" stop-color="#0064E0"/>
<stop offset="0.703" stop-color="#006EE9"/>
<stop offset="0.9525" stop-color="#0082FB"/>
</linearGradient>
</defs>
</svg>
