<svg width="27" height="40" viewBox="0 0 27 40" fill="none" xmlns="http://www.w3.org/2000/svg">
<g clip-path="url(#clip0_697_16197)">
<path d="M13.5 20.0002C13.5 16.3183 16.5214 13.3335 20.2487 13.3335C23.9758 13.3335 26.9973 16.3183 26.9973 20.0002C26.9973 23.6821 23.9758 26.6668 20.2487 26.6668C16.5214 26.6668 13.5 23.6821 13.5 20.0002Z" fill="#1ABCFE"/>
<path d="M0.00195312 33.3332C0.00195312 29.6513 3.0234 26.6665 6.7506 26.6665H13.4993V33.3332C13.4993 37.0151 10.4778 39.9998 6.7506 39.9998C3.0234 39.9998 0.00195312 37.0151 0.00195312 33.3332Z" fill="#0ACF83"/>
<path d="M13.5 0V13.3332H20.2487C23.9759 13.3332 26.9973 10.3485 26.9973 6.66657C26.9973 2.98465 23.9759 0 20.2487 0H13.5Z" fill="#FF7262"/>
<path d="M0.00195312 6.66667C0.00195312 10.3486 3.0234 13.3333 6.7506 13.3333H13.4993V0H6.7506C3.0234 0 0.00195312 2.98483 0.00195312 6.66667Z" fill="#F24E1E"/>
<path d="M0.00195312 20.0002C0.00195312 23.6821 3.0234 26.6668 6.7506 26.6668H13.4993V13.3335H6.7506C3.0234 13.3335 0.00195312 16.3183 0.00195312 20.0002Z" fill="#A259FF"/>
</g>
<defs>
<clipPath id="clip0_697_16197">
<rect width="27" height="40" fill="white"/>
</clipPath>
</defs>
</svg>
