<svg width="55" height="40" viewBox="0 0 55 40" fill="none" xmlns="http://www.w3.org/2000/svg">
<mask id="mask0_703_19007" style="mask-type:luminance" maskUnits="userSpaceOnUse" x="1" y="14" width="53" height="13">
<path d="M53.0221 14.5254H1.86133V26.48H53.0221V14.5254Z" fill="white"/>
</mask>
<g mask="url(#mask0_703_19007)">
<path d="M11.2547 21.9046C11.0508 21.9757 10.5986 22.0825 10.1021 21.8245C10.0755 21.8156 10.0489 21.8423 10.0755 21.8601C10.2351 22.0291 10.5188 22.3315 10.6873 22.4738C10.7227 22.5005 10.7759 22.5005 10.8114 22.4649L11.2902 21.9402C11.2991 21.9313 11.2813 21.8957 11.2547 21.9046Z" fill="white"/>
<path d="M13.1121 19.7146C12.855 19.1631 12.4737 18.6472 11.8974 18.5761C11.791 18.5672 11.6846 18.5849 11.5959 18.6383L10.9664 19.0119C10.8068 19.1008 10.6117 19.092 10.4698 18.9763L9.92011 18.5494C9.73391 18.407 9.52997 18.3003 9.29944 18.2469C8.35957 18.0246 7.73004 18.5227 7.24237 19.4477C6.7813 20.3283 7.03844 21.6003 8.17337 21.9027C9.37037 22.2229 10.1595 20.8887 10.4698 20.4529C10.5319 20.3639 10.656 20.3639 10.7181 20.4529C11.2058 21.12 11.8619 21.8316 12.5712 21.6892C13.5022 21.5113 13.3958 20.3372 13.1121 19.7146ZM9.65411 20.4173C9.42357 20.5685 9.13097 20.5329 8.95364 20.275C8.77631 20.017 8.85611 19.7235 9.08664 19.5723C9.31717 19.4211 9.60977 19.4566 9.78711 19.7146C9.96444 19.9725 9.88464 20.2572 9.65411 20.4173ZM12.1013 20.4618C11.8708 20.613 11.5782 20.5774 11.4008 20.3194C11.2235 20.0615 11.3033 19.768 11.5338 19.6167C11.7644 19.4655 12.057 19.5011 12.2343 19.7591C12.4028 20.017 12.323 20.3105 12.1013 20.4618Z" fill="white"/>
<path d="M10.7114 20.8008C10.6671 20.7474 10.5784 20.7474 10.5341 20.8008L10.0375 21.3967C10.0109 21.4234 10.0198 21.4679 10.0464 21.4857C10.1617 21.5657 10.4454 21.7525 10.7203 21.7525C10.9774 21.7525 11.2079 21.6547 11.3232 21.5924C11.3587 21.5746 11.3675 21.5212 11.3409 21.4946L10.7114 20.8008Z" fill="white"/>
<path d="M16.4062 22.4859V18.501H17.2841V20.2355H20.2101V18.501H21.0879V22.4859H20.2101V20.9826H17.2841V22.4859H16.4062Z" fill="#FF4C46"/>
<path d="M23.5844 22.5921C22.9992 22.5921 22.5292 22.4409 22.1746 22.1384C21.8199 21.836 21.6426 21.4357 21.6426 20.9376C21.6426 20.4395 21.8199 20.0393 22.1746 19.7368C22.5292 19.4344 22.9992 19.2832 23.5844 19.2832C24.1696 19.2832 24.6395 19.4344 25.003 19.7368C25.3577 20.0393 25.535 20.4395 25.535 20.9376C25.535 21.4357 25.3577 21.836 25.003 22.1384C24.6395 22.4409 24.1696 22.5921 23.5844 22.5921ZM23.5844 21.9072C23.9213 21.9072 24.1962 21.8182 24.4001 21.6403C24.604 21.4624 24.7104 21.2312 24.7104 20.9376C24.7104 20.6441 24.604 20.404 24.4001 20.2261C24.1962 20.0482 23.9213 19.9592 23.5844 19.9592C23.2474 19.9592 22.9814 20.0482 22.7686 20.2261C22.5647 20.404 22.4583 20.6441 22.4583 20.9287C22.4583 21.2223 22.5647 21.4535 22.7686 21.6314C22.9726 21.8182 23.2474 21.9072 23.5844 21.9072Z" fill="#FF4C46"/>
<path d="M27.8617 22.5921C27.2765 22.5921 26.8066 22.4409 26.4519 22.1384C26.0973 21.836 25.9199 21.4357 25.9199 20.9376C25.9199 20.4395 26.0973 20.0393 26.4519 19.7368C26.8066 19.4344 27.2765 19.2832 27.8617 19.2832C28.4469 19.2832 28.9169 19.4344 29.2804 19.7368C29.6351 20.0393 29.8124 20.4395 29.8124 20.9376C29.8124 21.4357 29.6351 21.836 29.2804 22.1384C28.9257 22.4409 28.4558 22.5921 27.8617 22.5921ZM27.8617 21.9072C28.1987 21.9072 28.4735 21.8182 28.6775 21.6403C28.8814 21.4624 28.9878 21.2312 28.9878 20.9376C28.9878 20.6441 28.8814 20.404 28.6775 20.2261C28.4735 20.0482 28.1987 19.9592 27.8617 19.9592C27.5248 19.9592 27.2588 20.0482 27.046 20.2261C26.8421 20.404 26.7357 20.6441 26.7357 20.9287C26.7357 21.2223 26.8421 21.4535 27.046 21.6314C27.2588 21.8182 27.5337 21.9072 27.8617 21.9072Z" fill="#FF4C46"/>
<path d="M31.4368 22.5486C31.0467 22.5486 30.825 22.3707 30.7098 22.2017C30.5945 22.0416 30.5058 21.8281 30.5058 21.3656V20.0136H30.0625V19.3732H30.63V18.5015H31.3836V19.3732H32.2792V20.0136H31.3836V21.1788C31.3748 21.5257 31.4368 21.6502 31.5166 21.7392C31.6674 21.8904 32.1196 21.7837 32.2792 21.6858V22.3618C32.093 22.4952 31.756 22.5486 31.4368 22.5486Z" fill="#FF4C46"/>
<path d="M34.5267 22.592C33.9769 22.592 33.4183 22.5119 32.8597 22.3518V21.6402C33.3297 21.8181 33.8351 21.9071 34.3759 21.9071C34.7661 21.9071 35.0498 21.8804 35.2183 21.8359C35.3867 21.7825 35.4754 21.6936 35.4754 21.5691C35.4754 21.4445 35.3779 21.3645 35.1917 21.32C35.0055 21.2755 34.7749 21.24 34.5001 21.2311C34.2252 21.2222 33.9592 21.1955 33.6843 21.1599C33.4095 21.1243 33.1878 21.0354 32.9927 20.902C32.8065 20.7685 32.709 20.5728 32.709 20.3238C32.709 19.9858 32.8686 19.7278 33.1967 19.5499C33.5247 19.372 33.9681 19.292 34.5267 19.292C34.97 19.292 35.4843 19.3543 36.0783 19.4699V20.1548C35.5729 20.0481 35.0853 19.9947 34.6242 19.9947C33.9237 19.9947 33.5691 20.1014 33.5691 20.3149C33.5691 20.4216 33.6666 20.5017 33.8528 20.5462C34.039 20.5906 34.2695 20.6173 34.5444 20.6351C34.8104 20.6529 35.0853 20.6796 35.3513 20.7152C35.6261 20.7507 35.8567 20.8486 36.0429 20.982C36.2291 21.1243 36.3266 21.32 36.3266 21.5691C36.3266 21.916 36.167 22.1739 35.8389 22.3429C35.5463 22.503 35.103 22.592 34.5267 22.592Z" fill="#FF4C46"/>
<path d="M40.5647 19.3784V22.4916H39.5983L39.7224 21.2108H39.6692C39.5273 22.1358 39.0131 22.5894 38.1441 22.5894C37.7008 22.5806 37.3727 22.4382 37.1599 22.1536C36.956 21.869 36.8496 21.3975 36.8496 20.7304V19.3784H37.7274V20.6237C37.7274 21.0951 37.7895 21.4242 37.9225 21.6288C38.0555 21.8245 38.2683 21.9312 38.5697 21.9312C38.9067 21.9312 39.1727 21.78 39.3677 21.4687C39.5628 21.1574 39.6692 20.7571 39.6692 20.2412V19.3784H40.5647Z" fill="#FF4C46"/>
<path d="M41.7674 19.0802C41.599 19.0802 41.466 19.0357 41.3684 18.9557C41.2709 18.8667 41.2266 18.7422 41.2266 18.5821C41.2266 18.4131 41.2709 18.2886 41.3684 18.2085C41.466 18.1285 41.599 18.084 41.7674 18.084C41.9448 18.084 42.0778 18.1285 42.1753 18.2085C42.2728 18.2886 42.3172 18.4131 42.3172 18.5821C42.3172 18.9112 42.131 19.0802 41.7674 19.0802ZM41.333 22.4869V19.3737H42.2108V22.4869H41.333Z" fill="#FF4C46"/>
<path d="M47.1853 22.5921C46.6267 22.5921 46.1745 22.4409 45.8287 22.1384C45.4918 21.836 45.3145 21.4357 45.3145 20.9376C45.3145 20.4395 45.4829 20.0393 45.8287 19.7368C46.1657 19.4344 46.6179 19.2832 47.1853 19.2832C47.7439 19.2832 48.1873 19.4166 48.5331 19.6746C48.87 19.9325 49.0473 20.2794 49.0562 20.6975V21.2045H46.1657C46.2189 21.4535 46.343 21.6403 46.5558 21.756C46.7686 21.8716 47.0789 21.925 47.4957 21.925C48.0454 21.925 48.2937 21.836 48.5597 21.7382C48.604 21.7204 48.8877 21.5959 48.9232 21.5781V22.2897C48.6129 22.4142 48.338 22.4942 48.1075 22.5298C47.8681 22.5654 47.5666 22.5921 47.1853 22.5921ZM46.1391 20.7686L48.2139 20.7153C48.205 20.4395 48.1163 20.2438 47.9479 20.1282C47.7794 20.0126 47.5311 19.9503 47.1853 19.9503C46.8573 19.9503 46.609 20.0126 46.4405 20.1371C46.2721 20.2705 46.1657 20.484 46.1391 20.7686Z" fill="#FF4C46"/>
<path d="M44.1829 22.5486C43.7928 22.5486 43.5711 22.3707 43.4559 22.2017C43.3406 22.0416 43.2519 21.8281 43.2519 21.3656V20.0136H42.8086V19.3732H43.3761V18.5015H44.1297V19.3732H45.0253V20.0136H44.1297V21.1788C44.1209 21.5257 44.1829 21.6502 44.2627 21.7392C44.4135 21.8904 44.8657 21.7837 45.0253 21.6858V22.3618C44.8391 22.4952 44.4933 22.5486 44.1829 22.5486Z" fill="#FF4C46"/>
<path d="M49.9144 20.0973C49.8346 20.1774 49.7371 20.2219 49.6218 20.2219C49.5065 20.2219 49.409 20.1774 49.3292 20.0973C49.2494 20.0173 49.2051 19.9194 49.2051 19.8038C49.2051 19.6882 49.2494 19.5903 49.3292 19.5103C49.409 19.4302 49.5065 19.3857 49.6218 19.3857C49.7371 19.3857 49.8346 19.4302 49.9144 19.5103C49.9942 19.5903 50.0385 19.6882 50.0385 19.8038C50.0385 19.9105 50.0031 20.0084 49.9144 20.0973ZM49.3647 19.537C49.2937 19.6081 49.2583 19.6971 49.2583 19.7949C49.2583 19.8927 49.2937 19.9817 49.3647 20.0529C49.4356 20.124 49.5154 20.1596 49.6218 20.1596C49.7193 20.1596 49.808 20.124 49.8789 20.0529C49.9499 19.9817 49.9853 19.8927 49.9853 19.7949C49.9853 19.6971 49.9499 19.6081 49.8789 19.537C49.808 19.4658 49.7193 19.4302 49.6218 19.4302C49.5243 19.4302 49.4356 19.4658 49.3647 19.537ZM49.6129 19.5636C49.6661 19.5636 49.7105 19.5725 49.7371 19.5814C49.7814 19.5992 49.808 19.6437 49.808 19.6971C49.808 19.7415 49.7903 19.7682 49.7637 19.786C49.7459 19.7949 49.7282 19.8038 49.7016 19.8127C49.7371 19.8216 49.7637 19.8305 49.7814 19.8572C49.7991 19.8839 49.808 19.9016 49.808 19.9283V19.9639C49.808 19.9728 49.808 19.9817 49.808 19.9995C49.808 20.0084 49.808 20.0173 49.808 20.0262V20.0351H49.7282C49.7282 20.0351 49.7282 20.0351 49.7282 20.0262C49.7282 20.0262 49.7282 20.0262 49.7282 20.0173V19.9995V19.9639C49.7282 19.9105 49.7105 19.875 49.6839 19.8572C49.6661 19.8483 49.6395 19.8394 49.5952 19.8394H49.5331V20.0173H49.4533V19.5547H49.6129V19.5636ZM49.7016 19.6348C49.6839 19.6259 49.6484 19.617 49.6041 19.617H49.5331V19.786H49.6041C49.6395 19.786 49.6661 19.786 49.6839 19.7771C49.7193 19.7682 49.7282 19.7415 49.7282 19.706C49.7282 19.6704 49.7193 19.6437 49.7016 19.6348Z" fill="#FF4C46"/>
<path d="M9.91553 16.7967C9.0117 16.7898 8.00548 17.3456 7.27078 18.175C6.73823 18.7749 6.06843 20.4368 5.74097 21.3037C5.60064 21.6729 5.66728 22.0886 5.91595 22.3956C6.49699 23.1116 7.70514 24.2784 10.0418 24.2967C12.1826 24.3147 13.2725 23.3609 13.7834 22.6584C14.0668 22.2698 14.1531 21.7712 14.0182 21.3072C13.7898 20.526 13.3117 19.1711 12.5265 18.2337C11.6314 17.1672 10.8194 16.8036 9.91553 16.7967Z" fill="#FF4C46"/>
<path d="M10.6785 18.9736C12.0018 18.0505 12.7217 18.8532 13.1249 19.7427C13.4175 20.3831 13.5214 21.5847 12.5767 21.7656C11.8526 21.9056 11.1835 21.1715 10.6883 20.4837C10.638 20.4131 10.5387 20.3982 10.4702 20.4489C10.4576 20.4581 10.4464 20.4697 10.4348 20.4832C10.1091 20.9332 9.29455 22.2852 8.0754 21.9502C6.92216 21.632 6.66763 20.3322 7.14682 19.4359C7.85424 18.0835 8.89108 17.6431 10.6785 18.9736Z" fill="white"/>
<path d="M9.97295 21.8851C10.1248 22.0518 10.4412 22.3924 10.6309 22.5563C10.6682 22.5885 10.7225 22.5857 10.7546 22.5485L11.2648 21.9885C11.2725 21.9822 11.2735 21.9701 11.2668 21.9642C11.2619 21.9588 11.2522 21.9564 11.2454 21.9588C10.835 22.1146 10.3764 22.0765 9.99628 21.858C9.98708 21.8536 9.97543 21.8589 9.97299 21.8686C9.96764 21.8735 9.97005 21.8803 9.97295 21.8851Z" fill="white"/>
<path d="M10.486 20.8373L9.96708 21.4406C9.94375 21.4677 9.9461 21.5075 9.97321 21.531C9.97515 21.5315 9.9766 21.5339 9.97854 21.5344C10.0972 21.6203 10.3843 21.807 10.666 21.8105C10.8798 21.805 11.0889 21.7529 11.2806 21.655C11.3116 21.6382 11.3233 21.5998 11.3084 21.5692C11.3055 21.5643 11.3026 21.5594 11.2992 21.5565L10.6644 20.8332C10.6189 20.7844 10.5428 20.7836 10.4942 20.8291C10.4908 20.8344 10.4884 20.8359 10.486 20.8373Z" fill="white"/>
<path d="M12.2244 19.7818C12.3767 20.021 12.3092 20.3385 12.0727 20.4911C11.8358 20.6456 11.5173 20.5749 11.3645 20.3377C11.2137 20.101 11.2783 19.7869 11.5113 19.6313C11.7327 19.4728 12.044 19.5231 12.2021 19.7472C12.2094 19.7594 12.2191 19.7701 12.2244 19.7818Z" fill="#FF4C46"/>
<path d="M10.4389 18.9686C10.5851 19.0842 10.7872 19.1005 10.9473 19.005L14.1638 17.1292C14.2056 17.1027 14.2192 17.0484 14.1946 17.007C14.1767 16.9797 14.1462 16.9617 14.1147 16.964L10.6302 17.2502L6.65529 15.7333C6.60056 15.7132 6.53943 15.7431 6.51946 15.7979C6.50484 15.8396 6.51784 15.8862 6.55171 15.9155L10.4389 18.9686Z" fill="#FF4C46"/>
<path d="M9.01756 19.4966C8.75116 19.5879 8.61826 19.8701 8.69827 20.1343C8.78991 20.4014 9.0719 20.5351 9.33536 20.4555C9.60176 20.3642 9.73177 20.0771 9.65466 19.8178C9.65514 19.8159 9.65418 19.8115 9.64983 19.8042C9.56787 19.5478 9.30529 19.4107 9.05638 19.4817C9.04669 19.4792 9.03213 19.4879 9.01756 19.4966Z" fill="#FF4C46"/>
</g>
</svg>
