<svg width="48" height="48" viewBox="0 0 48 48" fill="none" xmlns="http://www.w3.org/2000/svg">
<g clip-path="url(#clip0_1005_18178)">
<path d="M40 26.072V4C39.9987 2.93952 39.5769 1.92285 38.827 1.17298C38.0772 0.423106 37.0605 0.00127029 36 0L4 0C2.93952 0.00127029 1.92285 0.423106 1.17298 1.17298C0.423106 1.92285 0.00127029 2.93952 0 4L0 37.6C0.00127029 38.6605 0.423106 39.6772 1.17298 40.427C1.92285 41.1769 2.93952 41.5987 4 41.6H26.696C27.4961 43.2854 28.7049 44.7441 30.2124 45.8434C31.7198 46.9427 33.4782 47.6477 35.3275 47.8943C37.1769 48.141 39.0585 47.9214 40.8014 47.2556C42.5443 46.5898 44.0931 45.4989 45.307 44.0821C46.5208 42.6653 47.3613 40.9675 47.7519 39.1432C48.1426 37.3188 48.0709 35.4258 47.5436 33.6361C47.0163 31.8465 46.0499 30.2171 44.7325 28.896C43.415 27.575 41.7882 26.6042 40 26.072ZM4 1.6H36C36.6365 1.6 37.247 1.85286 37.6971 2.30294C38.1471 2.75303 38.4 3.36348 38.4 4V6.4H27.2V5.6C27.2 4.96348 26.9471 4.35303 26.4971 3.90294C26.047 3.45286 25.4365 3.2 24.8 3.2H15.2C14.5635 3.2 13.953 3.45286 13.5029 3.90294C13.0529 4.35303 12.8 4.96348 12.8 5.6V6.4H1.6V4C1.6 3.36348 1.85286 2.75303 2.30294 2.30294C2.75303 1.85286 3.36348 1.6 4 1.6ZM25.6 6.4H14.4V5.6C14.4 5.38783 14.4843 5.18434 14.6343 5.03431C14.7843 4.88429 14.9878 4.8 15.2 4.8H24.8C25.0122 4.8 25.2157 4.88429 25.3657 5.03431C25.5157 5.18434 25.6 5.38783 25.6 5.6V6.4ZM4 40C3.36348 40 2.75303 39.7471 2.30294 39.2971C1.85286 38.847 1.6 38.2365 1.6 37.6V8H38.4V25.728C36.6984 25.4657 34.959 25.607 33.3222 26.1406C31.6853 26.6743 30.1968 27.5852 28.9768 28.8H25.6V27.2H27.2C27.6243 27.2 28.0313 27.0314 28.3314 26.7314C28.6314 26.4313 28.8 26.0243 28.8 25.6V22.4C28.8 21.9757 28.6314 21.5687 28.3314 21.2686C28.0313 20.9686 27.6243 20.8 27.2 20.8H25.6V19.2C25.6 18.7757 25.4314 18.3687 25.1314 18.0686C24.8313 17.7686 24.4243 17.6 24 17.6H20.8V16H22.4C22.8243 16 23.2313 15.8314 23.5314 15.5314C23.8314 15.2313 24 14.8243 24 14.4V11.2C24 10.7757 23.8314 10.3687 23.5314 10.0686C23.2313 9.76857 22.8243 9.6 22.4 9.6H17.6C17.1757 9.6 16.7687 9.76857 16.4686 10.0686C16.1686 10.3687 16 10.7757 16 11.2V14.4C16 14.8243 16.1686 15.2313 16.4686 15.5314C16.7687 15.8314 17.1757 16 17.6 16H19.2V17.6H16C15.5757 17.6 15.1687 17.7686 14.8686 18.0686C14.5686 18.3687 14.4 18.7757 14.4 19.2V20.8H12.8C12.3757 20.8 11.9687 20.9686 11.6686 21.2686C11.3686 21.5687 11.2 21.9757 11.2 22.4V25.6C11.2 26.0243 11.3686 26.4313 11.6686 26.7314C11.9687 27.0314 12.3757 27.2 12.8 27.2H14.4V28.8H11.2C10.7757 28.8 10.3687 28.9686 10.0686 29.2686C9.76857 29.5687 9.6 29.9757 9.6 30.4V32H8C7.57565 32 7.16869 32.1686 6.86863 32.4686C6.56857 32.7687 6.4 33.1757 6.4 33.6V36.8C6.4 37.2243 6.56857 37.6313 6.86863 37.9314C7.16869 38.2314 7.57565 38.4 8 38.4H12.8C13.2243 38.4 13.6313 38.2314 13.9314 37.9314C14.2314 37.6313 14.4 37.2243 14.4 36.8V33.6C14.4 33.1757 14.2314 32.7687 13.9314 32.4686C13.6313 32.1686 13.2243 32 12.8 32H11.2V30.4H19.2V32H17.6C17.1757 32 16.7687 32.1686 16.4686 32.4686C16.1686 32.7687 16 33.1757 16 33.6V36.8C16 37.2243 16.1686 37.6313 16.4686 37.9314C16.7687 38.2314 17.1757 38.4 17.6 38.4H22.4C22.8243 38.4 23.2313 38.2314 23.5314 37.9314C23.8314 37.6313 24 37.2243 24 36.8V33.6C24 33.1757 23.8314 32.7687 23.5314 32.4686C23.2313 32.1686 22.8243 32 22.4 32H20.8V30.4H27.6216C26.653 31.7783 26.0103 33.3586 25.7418 35.0216C25.4734 36.6847 25.5863 38.387 26.072 40H4ZM20 28.8H16V27.2H17.6C18.0243 27.2 18.4313 27.0314 18.7314 26.7314C19.0314 26.4313 19.2 26.0243 19.2 25.6V22.4C19.2 21.9757 19.0314 21.5687 18.7314 21.2686C18.4313 20.9686 18.0243 20.8 17.6 20.8H16V19.2H24V20.8H22.4C21.9757 20.8 21.5687 20.9686 21.2686 21.2686C20.9686 21.5687 20.8 21.9757 20.8 22.4V25.6C20.8 26.0243 20.9686 26.4313 21.2686 26.7314C21.5687 27.0314 21.9757 27.2 22.4 27.2H24V28.8H20ZM22.4 33.6V36.8H17.6V33.6H22.4ZM17.6 22.4V25.6H12.8V22.4H17.6ZM22.4 25.6V22.4H27.2V25.6H22.4ZM17.6 14.4V11.2H22.4V14.4H17.6ZM12.8 33.6V36.8H8V33.6H12.8ZM36.8 46.4C34.9013 46.4 33.0452 45.837 31.4665 44.7821C29.8878 43.7272 28.6574 42.2279 27.9308 40.4738C27.2042 38.7196 27.014 36.7893 27.3845 34.9271C27.7549 33.0649 28.6692 31.3544 30.0118 30.0118C31.3544 28.6692 33.0649 27.7549 34.9271 27.3845C36.7894 27.014 38.7196 27.2042 40.4738 27.9308C42.2279 28.6574 43.7272 29.8878 44.7821 31.4665C45.837 33.0452 46.4 34.9013 46.4 36.8C46.3972 39.3452 45.3849 41.7854 43.5852 43.5852C41.7854 45.3849 39.3452 46.3972 36.8 46.4Z" fill="#222222"/>
<path d="M3.99922 4.79995H4.79922C5.01139 4.79995 5.21487 4.71567 5.3649 4.56564C5.51493 4.41561 5.59922 4.21212 5.59922 3.99995C5.59922 3.78778 5.51493 3.5843 5.3649 3.43427C5.21487 3.28424 5.01139 3.19995 4.79922 3.19995H3.99922C3.78705 3.19995 3.58356 3.28424 3.43353 3.43427C3.2835 3.5843 3.19922 3.78778 3.19922 3.99995C3.19922 4.21212 3.2835 4.41561 3.43353 4.56564C3.58356 4.71567 3.78705 4.79995 3.99922 4.79995Z" fill="#222222"/>
<path d="M7.99922 4.79995H8.79922C9.01139 4.79995 9.21488 4.71567 9.3649 4.56564C9.51493 4.41561 9.59922 4.21212 9.59922 3.99995C9.59922 3.78778 9.51493 3.5843 9.3649 3.43427C9.21488 3.28424 9.01139 3.19995 8.79922 3.19995H7.99922C7.78705 3.19995 7.58356 3.28424 7.43353 3.43427C7.2835 3.5843 7.19922 3.78778 7.19922 3.99995C7.19922 4.21212 7.2835 4.41561 7.43353 4.56564C7.58356 4.71567 7.78705 4.79995 7.99922 4.79995Z" fill="#222222"/>
<path d="M32.8 4.79995H36C36.2122 4.79995 36.4157 4.71567 36.5657 4.56564C36.7157 4.41561 36.8 4.21212 36.8 3.99995C36.8 3.78778 36.7157 3.5843 36.5657 3.43427C36.4157 3.28424 36.2122 3.19995 36 3.19995H32.8C32.5878 3.19995 32.3843 3.28424 32.2343 3.43427C32.0843 3.5843 32 3.78778 32 3.99995C32 4.21212 32.0843 4.41561 32.2343 4.56564C32.3843 4.71567 32.5878 4.79995 32.8 4.79995Z" fill="#222222"/>
<path d="M41.1999 31.3088C41.1092 31.2558 41.0089 31.2212 40.9047 31.207C40.8006 31.1928 40.6947 31.1993 40.5931 31.226C40.4914 31.2528 40.3961 31.2993 40.3124 31.3629C40.2288 31.4265 40.1585 31.506 40.1055 31.5968L35.0319 40.3008L33.3655 38.6344C33.2147 38.4887 33.0126 38.408 32.8028 38.4098C32.5931 38.4117 32.3924 38.4958 32.2441 38.6441C32.0958 38.7925 32.0116 38.9931 32.0098 39.2029C32.008 39.4126 32.0886 39.6147 32.2343 39.7656L34.6343 42.1656C34.7843 42.3156 34.9878 42.3999 35.1999 42.4C35.2342 42.3999 35.2684 42.3977 35.3023 42.3936C35.4238 42.3779 35.5401 42.3346 35.6422 42.2669C35.7442 42.1992 35.8294 42.109 35.8911 42.0032L41.4911 32.4032C41.544 32.3122 41.5784 32.2118 41.5923 32.1075C41.6063 32.0032 41.5996 31.8972 41.5725 31.7956C41.5455 31.6939 41.4986 31.5986 41.4347 31.5151C41.3708 31.4316 41.291 31.3615 41.1999 31.3088Z" fill="#222222"/>
</g>
<defs>
<clipPath id="clip0_1005_18178">
<rect width="48" height="48" fill="white"/>
</clipPath>
</defs>
</svg>
