<svg width="48" height="48" viewBox="0 0 48 48" fill="none" xmlns="http://www.w3.org/2000/svg">
<g clip-path="url(#clip0_1005_21567)">
<path d="M44.2079 0.328125H3.79375C1.95597 0.328125 0.460938 1.82316 0.460938 3.66084V44.3392C0.460938 46.1768 1.95597 47.6719 3.79375 47.6719H44.2079C46.0457 47.6719 47.5407 46.1768 47.5407 44.3392V3.66084C47.5407 1.82316 46.0457 0.328125 44.2079 0.328125ZM3.79375 1.73438H44.2079C45.2702 1.73438 46.1344 2.59856 46.1344 3.66084V7.01044H1.86719V3.66084C1.86719 2.59856 2.73147 1.73438 3.79375 1.73438ZM44.2079 46.2656H3.79375C2.73147 46.2656 1.86719 45.4014 1.86719 44.3392V8.41659H46.1344V44.3391C46.1344 45.4014 45.2702 46.2656 44.2079 46.2656ZM24.9822 4.37241C24.9822 3.98409 25.2969 3.66928 25.6853 3.66928H41.9184C42.3068 3.66928 42.6215 3.98409 42.6215 4.37241C42.6215 4.76072 42.3068 5.07553 41.9184 5.07553H25.6853C25.2969 5.07553 24.9822 4.76072 24.9822 4.37241ZM5.08966 4.37241C5.08966 3.98409 5.40437 3.66928 5.79278 3.66928H7.22828C7.61669 3.66928 7.93141 3.98409 7.93141 4.37241C7.93141 4.76072 7.61669 5.07553 7.22828 5.07553H5.79278C5.40447 5.07553 5.08966 4.76072 5.08966 4.37241ZM9.91628 4.37241C9.91628 3.98409 10.231 3.66928 10.6194 3.66928H12.0549C12.4433 3.66928 12.758 3.98409 12.758 4.37241C12.758 4.76072 12.4433 5.07553 12.0549 5.07553H10.6194C10.231 5.07553 9.91628 4.76072 9.91628 4.37241ZM14.7428 4.37241C14.7428 3.98409 15.0575 3.66928 15.4459 3.66928H16.8814C17.2698 3.66928 17.5846 3.98409 17.5846 4.37241C17.5846 4.76072 17.2698 5.07553 16.8814 5.07553H15.4459C15.0575 5.07553 14.7428 4.76072 14.7428 4.37241ZM24.1328 9.83372C18.4891 9.83372 13.183 12.0315 9.19234 16.0223C5.20159 20.013 3.00372 25.3191 3.00372 30.9628C3.00372 34.6773 3.98191 38.3311 5.83234 41.5293C5.96275 41.7546 6.19881 41.8805 6.44162 41.8805C6.56087 41.8805 6.68181 41.8501 6.79253 41.7862L14.1392 37.5445C14.3008 37.4513 14.4186 37.2975 14.4668 37.1172C14.5151 36.9369 14.4896 36.7449 14.3961 36.5834C13.4121 34.8827 12.8919 32.9392 12.8919 30.9627C12.8919 24.7644 17.9345 19.7218 24.1327 19.7218C30.3309 19.7218 35.3735 24.7644 35.3735 30.9627C35.3735 32.9392 34.8533 34.8827 33.8693 36.5834C33.7758 36.7449 33.7503 36.9369 33.7986 37.1172C33.8468 37.2975 33.9647 37.4512 34.1263 37.5445L41.4729 41.7862C41.809 41.9802 42.2387 41.8653 42.433 41.5294C44.2835 38.3313 45.2617 34.6774 45.2617 30.9628C45.2617 25.319 43.0639 20.013 39.0731 16.0223C35.0826 12.0315 29.7766 9.83372 24.1328 9.83372ZM23.4297 18.3356C21.6389 18.4342 19.9464 18.907 18.4289 19.6772L14.8886 13.5452C17.453 12.1786 20.3526 11.3623 23.4297 11.2539V18.3356ZM24.8359 11.2538C27.913 11.3622 30.8126 12.1786 33.377 13.5451L29.8367 19.6771C28.3192 18.907 26.6267 18.4342 24.8359 18.3355V11.2538ZM11.5056 30.2598H4.42384C4.53231 27.1827 5.34859 24.2831 6.71509 21.7187L12.8471 25.259C12.077 26.7764 11.6042 28.469 11.5056 30.2598ZM6.70881 40.2108C5.31231 37.5827 4.53025 34.6549 4.42375 31.666H11.5058C11.6027 33.4102 12.0587 35.1164 12.8437 36.6687L6.70881 40.2108ZM13.5526 24.0424L7.42037 20.5019C9.00625 17.9774 11.1475 15.8362 13.672 14.2503L17.2125 20.3825C15.7562 21.3383 14.5083 22.5862 13.5526 24.0424ZM31.0532 20.3826L34.5937 14.2504C37.1182 15.8363 39.2595 17.9775 40.8453 20.502L34.7132 24.0425C33.7574 22.5862 32.5096 21.3383 31.0532 20.3826ZM36.7601 30.2598C36.6615 28.4691 36.1887 26.7765 35.4185 25.259L41.5505 21.7187C42.9171 24.2831 43.7334 27.1827 43.8418 30.2598H36.7601ZM41.5569 40.2108L35.422 36.6687C36.2071 35.1164 36.663 33.4102 36.7599 31.666H43.842C43.7355 34.655 42.9534 37.5828 41.5569 40.2108ZM30.7592 23.3644L24.867 27.1692C24.6259 27.1228 24.3801 27.0994 24.1328 27.0994C22.0024 27.0994 20.2694 28.8325 20.2694 30.9628C20.2694 33.0931 22.0024 34.8263 24.1328 34.8263C26.2632 34.8263 27.9963 33.0931 27.9963 30.9628C27.9963 30.7153 27.9728 30.4695 27.9264 30.2286L31.7312 24.3365C31.911 24.0581 31.872 23.6921 31.6378 23.4578C31.4034 23.2237 31.0376 23.1847 30.7592 23.3644ZM26.5828 29.7171C26.4731 29.8869 26.4418 30.096 26.4971 30.2905C26.5587 30.5077 26.59 30.7339 26.59 30.9628C26.59 32.3177 25.4877 33.42 24.1328 33.42C22.7779 33.42 21.6756 32.3177 21.6756 30.9628C21.6756 29.6078 22.7779 28.5056 24.1328 28.5056C24.3615 28.5056 24.5878 28.5369 24.8054 28.5986C24.9997 28.6539 25.2088 28.6225 25.3786 28.5128L28.7778 26.3178L26.5828 29.7171ZM22.3688 30.9628C22.3688 31.9355 23.1602 32.7269 24.1328 32.7269C25.1056 32.7269 25.8969 31.9356 25.8969 30.9628C25.8969 29.9901 25.1056 29.1987 24.1328 29.1987C23.1602 29.1987 22.3688 29.9902 22.3688 30.9628ZM24.4907 30.9628C24.4907 31.1601 24.3302 31.3207 24.1329 31.3207C23.9357 31.3207 23.7752 31.1602 23.7752 30.9628C23.7752 30.7655 23.9357 30.605 24.1329 30.605C24.3302 30.605 24.4907 30.7656 24.4907 30.9628ZM30.115 38.3848H18.1507C17.7623 38.3848 17.4476 38.6996 17.4476 39.0879V42.4291C17.4476 42.8174 17.7623 43.1322 18.1507 43.1322H30.115C30.5034 43.1322 30.8181 42.8174 30.8181 42.4291V39.0879C30.8181 38.6996 30.5033 38.3848 30.115 38.3848ZM29.4119 41.726H18.8538V39.7911H29.4119V41.726Z" fill="#222222"/>
</g>
<defs>
<clipPath id="clip0_1005_21567">
<rect width="48" height="48" fill="white"/>
</clipPath>
</defs>
</svg>
