<svg width="48" height="48" viewBox="0 0 48 48" fill="none" xmlns="http://www.w3.org/2000/svg">
<g clip-path="url(#clip0_1005_15652)">
<path d="M28.3166 39.3373L28.7113 37.3353L32.1433 35.9134L33.8384 37.05C34.4277 37.4452 35.1895 37.3708 35.6911 36.8692L38.7661 33.7942C39.2679 33.2924 39.3423 32.5306 38.9471 31.9415L37.8103 30.2464L39.2322 26.8143L41.2345 26.4196C41.9304 26.2822 42.4165 25.691 42.4165 24.9816V20.6328C42.4165 19.9233 41.9303 19.3319 41.2344 19.1949L39.2323 18.8001L37.8104 15.3681L38.9472 13.673C39.3422 13.0837 39.2679 12.3219 38.7663 11.8202L35.6912 8.74528C35.1895 8.24344 34.4277 8.16909 33.8386 8.56434L32.1435 9.70097L28.7114 8.27906L28.3167 6.27713C28.1795 5.58113 27.5881 5.09503 26.8787 5.09503H22.5298C21.8204 5.09503 21.2291 5.58122 21.0919 6.27703L20.6971 8.27906L17.265 9.70097L15.57 8.56434C14.9807 8.16909 14.2189 8.24344 13.7173 8.74528L10.6422 11.8203C10.1406 12.3221 10.0662 13.0839 10.4614 13.6729L11.5981 15.368L10.1762 18.8001L8.17428 19.1948C7.47819 19.3321 6.99209 19.9234 6.99209 20.6328V24.8971H2.85941C1.75869 24.8971 0.863281 25.7926 0.863281 26.8933V39.0639C0.863281 40.1647 1.75878 41.0602 2.85941 41.0602H5.98484V45.8971C5.98484 46.8499 6.75997 47.625 7.71266 47.625H17.4458C18.3986 47.625 19.1737 46.8499 19.1737 45.8971V36.7039L20.6971 37.335L21.0919 39.337C21.2291 40.0331 21.8204 40.5192 22.5298 40.5192H26.8787C27.5881 40.5192 28.1795 40.033 28.3167 39.3371L28.3166 39.3373ZM7.46825 26.2097H10.4214V29.6959H7.46825V26.2097ZM2.85941 39.7478C2.48244 39.7478 2.17578 39.4412 2.17578 39.064V26.8934C2.17578 26.5164 2.48244 26.2097 2.85941 26.2097H6.15575V30.3521C6.15575 30.7146 6.44956 31.0084 6.812 31.0084H11.0776C11.4401 31.0084 11.7339 30.7146 11.7339 30.3521V26.2097H15.0302C15.4072 26.2097 15.7139 26.5163 15.7139 26.8934V34.4362H7.71275C6.76006 34.4362 5.98494 35.2114 5.98494 36.1642V39.7479H2.85941V39.7478ZM14.767 22.8072C14.767 17.3278 19.2248 12.87 24.7042 12.87C30.1836 12.87 34.6414 17.3278 34.6414 22.8072C34.6414 28.2866 30.1836 32.7444 24.7042 32.7444C21.7092 32.7444 18.9239 31.4243 17.0263 29.1155V26.8934C17.0263 25.7927 16.1308 24.8972 15.0301 24.8972H14.9883C14.8422 24.2135 14.767 23.5128 14.767 22.8072ZM11.5299 35.7487H13.6287V38.2738H11.5299V35.7487ZM17.8612 45.8972C17.8612 46.1262 17.6749 46.3126 17.4458 46.3126H7.71266C7.48362 46.3126 7.29734 46.1263 7.29734 45.8972V36.1642C7.29734 35.9351 7.48362 35.7487 7.71266 35.7487H10.2174V38.9301C10.2174 39.2925 10.5112 39.5863 10.8736 39.5863H14.2849C14.6473 39.5863 14.9412 39.2925 14.9412 38.9301V35.7487H17.4458C17.6748 35.7487 17.8612 35.935 17.8612 36.1642V45.8972ZM22.3796 39.0833L21.9168 36.7364C21.8743 36.5211 21.727 36.3412 21.5242 36.2572L18.8372 35.144C18.5224 34.7158 18.0168 34.4362 17.4458 34.4362H17.0263V31.031C19.0961 32.9706 21.8137 34.0569 24.7042 34.0569C30.9073 34.0569 35.9539 29.0104 35.9539 22.8072C35.9539 16.6041 30.9072 11.5575 24.7042 11.5575C18.5011 11.5575 13.4545 16.6041 13.4545 22.8072C13.4545 23.511 13.5208 24.2108 13.6497 24.8972H8.3045V20.6329C8.3045 20.5553 8.35184 20.4978 8.42806 20.4826L10.7749 20.0198C10.9902 19.9773 11.1702 19.83 11.2542 19.6271L12.9451 15.5456C13.0291 15.3428 13.0062 15.1114 12.8839 14.929L11.5513 12.9418C11.5088 12.8784 11.5163 12.8025 11.5704 12.7484L14.6454 9.67341C14.6994 9.61941 14.7753 9.61191 14.839 9.65456L16.8259 10.987C17.0082 11.1094 17.2397 11.1324 17.4426 11.0483L21.5241 9.35728C21.727 9.27328 21.8742 9.09338 21.9167 8.87803L22.3795 6.53109C22.3943 6.45609 22.4532 6.40772 22.5297 6.40772H26.8786C26.9551 6.40772 27.0141 6.45619 27.0289 6.53119L27.4917 8.87803C27.5341 9.09338 27.6815 9.27328 27.8843 9.35728L31.9658 11.0483C32.1686 11.1322 32.4001 11.1093 32.5825 10.987L34.5695 9.65456C34.6332 9.612 34.709 9.61941 34.763 9.6735L37.838 12.7484C37.8922 12.8025 37.8996 12.8786 37.857 12.9421L36.5245 14.929C36.4021 15.1114 36.3792 15.3428 36.4632 15.5457L38.1542 19.6272C38.2382 19.83 38.4181 19.9773 38.6335 20.0198L40.9805 20.4828C41.0554 20.4975 41.1039 20.5565 41.1039 20.633V24.9817C41.1039 25.0582 41.0553 25.1173 40.9804 25.1321L38.6336 25.5948C38.4182 25.6372 38.2383 25.7846 38.1542 25.9874L36.4632 30.069C36.3792 30.2718 36.4022 30.5032 36.5245 30.6856L37.857 32.6727C37.8996 32.7362 37.8922 32.8121 37.838 32.8662L34.7629 35.9413C34.7088 35.9954 34.6329 36.0025 34.5693 35.9601L32.5823 34.6276C32.3999 34.5052 32.1685 34.4822 31.9656 34.5664L27.8841 36.2573C27.6812 36.3413 27.5339 36.5212 27.4915 36.7366L27.0287 39.0835C27.0139 39.1585 26.9549 39.207 26.8784 39.207H22.5296C22.4532 39.207 22.3941 39.1584 22.3793 39.0834L22.3796 39.0833ZM47.1364 22.8072C47.1364 28.7991 44.8031 34.4323 40.5661 38.6692C36.3293 42.906 30.696 45.2394 24.7042 45.2394C24.3417 45.2394 24.0479 44.9456 24.0479 44.5832C24.0479 44.2207 24.3417 43.9269 24.7042 43.9269C36.3496 43.9269 45.8239 34.4527 45.8239 22.8072C45.8239 11.1618 36.3497 1.6875 24.7042 1.6875C15.9792 1.6875 8.18891 7.03978 5.03403 15.1009L6.27641 14.3622C6.58784 14.177 6.99059 14.2793 7.17584 14.5909C7.36109 14.9024 7.25872 15.3051 6.94719 15.4903L4.17322 17.1396C4.00025 17.2424 3.78941 17.2602 3.60153 17.1877C3.41366 17.1153 3.26947 16.9604 3.2105 16.7678L2.26456 13.6824C2.15834 13.3359 2.35306 12.9689 2.69966 12.8627C3.04606 12.7561 3.41319 12.9512 3.51941 13.2978L3.87594 14.4608C7.26744 5.98894 15.4959 0.375 24.7042 0.375C30.696 0.375 36.3292 2.70844 40.5661 6.94528C44.8031 11.1821 47.1364 16.8154 47.1364 22.8072ZM28.9258 22.0314V28.8546C28.9258 29.217 29.2197 29.5108 29.5821 29.5108C29.9445 29.5108 30.2383 29.217 30.2383 28.8546V22.0314C31.1606 21.7498 31.8334 20.8912 31.8334 19.878C31.8334 18.8648 31.1606 18.0063 30.2383 17.7247V16.7599C30.2383 16.3974 29.9445 16.1036 29.5821 16.1036C29.2197 16.1036 28.9258 16.3974 28.9258 16.7599V17.7247C28.0037 18.0063 27.3309 18.8649 27.3309 19.878C27.3309 20.8911 28.0037 21.7498 28.9258 22.0314ZM29.5821 18.9393C30.0997 18.9393 30.5209 19.3603 30.5209 19.878C30.5209 20.3957 30.0998 20.8168 29.5821 20.8168C29.0644 20.8168 28.6434 20.3957 28.6434 19.878C28.6434 19.3603 29.0645 18.9393 29.5821 18.9393ZM19.17 22.0314V28.8546C19.17 29.217 19.4638 29.5108 19.8263 29.5108C20.1887 29.5108 20.4825 29.217 20.4825 28.8546V22.0314C21.4047 21.7498 22.0775 20.8912 22.0775 19.878C22.0775 18.8648 21.4047 18.0063 20.4825 17.7247V16.7599C20.4825 16.3974 20.1887 16.1036 19.8263 16.1036C19.4638 16.1036 19.17 16.3974 19.17 16.7599V17.7247C18.2478 18.0063 17.575 18.8649 17.575 19.878C17.575 20.8911 18.2478 21.7498 19.17 22.0314ZM19.8263 18.9393C20.3439 18.9393 20.765 19.3603 20.765 19.878C20.765 20.3957 20.3439 20.8168 19.8263 20.8168C19.3087 20.8168 18.8875 20.3957 18.8875 19.878C18.8875 19.3603 19.3086 18.9393 19.8263 18.9393ZM24.0479 27.0577V28.8546C24.0479 29.217 24.3417 29.5108 24.7042 29.5108C25.0666 29.5108 25.3604 29.217 25.3604 28.8546V27.0577C26.2827 26.776 26.9555 25.9174 26.9555 24.9042C26.9555 23.8911 26.2827 23.0325 25.3604 22.7509V16.7599C25.3604 16.3974 25.0666 16.1036 24.7042 16.1036C24.3417 16.1036 24.0479 16.3974 24.0479 16.7599V22.7509C23.1258 23.0325 22.453 23.8912 22.453 24.9042C22.453 25.9173 23.1258 26.776 24.0479 27.0577ZM24.7042 23.9655C25.2218 23.9655 25.643 24.3865 25.643 24.9042C25.643 25.4219 25.2219 25.843 24.7042 25.843C24.1865 25.843 23.7655 25.4219 23.7655 24.9042C23.7655 24.3865 24.1866 23.9655 24.7042 23.9655Z" fill="#222222"/>
</g>
<defs>
<clipPath id="clip0_1005_15652">
<rect width="48" height="48" fill="white"/>
</clipPath>
</defs>
</svg>
