<svg width="48" height="48" viewBox="0 0 48 48" fill="none" xmlns="http://www.w3.org/2000/svg">
<path d="M42.8877 9.06184H40.284V2.55275C40.284 1.54911 39.4695 0.727295 38.4586 0.727295H9.54223C8.53859 0.727295 7.72405 1.54184 7.72405 2.55275V9.06184H5.11314C3.42587 9.06184 2.05859 10.4364 2.05859 12.1164V36.8146C2.05859 38.5018 3.43314 39.8691 5.11314 39.8691H18.5677L15.7822 42.5818H14.7786C13.2877 42.5818 12.0731 43.7964 12.0731 45.28V46.0437H9.28041C8.94587 46.0437 8.6695 46.32 8.6695 46.6546C8.6695 46.9891 8.94587 47.2655 9.28041 47.2655H38.6986C39.0331 47.2655 39.3095 46.9891 39.3095 46.6546C39.3095 46.32 39.0331 46.0437 38.6986 46.0437H35.9059V45.28C35.9059 43.7891 34.6913 42.5818 33.2077 42.5818H32.204L29.4186 39.8691H42.8731C44.5604 39.8691 45.9277 38.4946 45.9277 36.8146V12.1164C45.9422 10.4291 44.5677 9.06184 42.8877 9.06184ZM34.6913 45.2873V46.0509H13.3095V45.2873C13.3095 44.4728 13.9713 43.8037 14.7931 43.8037H33.215C34.0295 43.8037 34.6913 44.4728 34.6913 45.2873ZM33.4695 20.5018L42.1822 23.44C42.1822 23.44 42.175 23.44 42.1677 23.44L37.8695 23.7891C37.2586 23.84 36.7859 24.3127 36.735 24.9237L36.3495 29.2218L33.4695 20.5018ZM33.855 19.3455C33.4113 19.2 32.924 19.3091 32.5895 19.6437C32.255 19.9782 32.1386 20.4655 32.2913 20.9091L34.3131 26.9818H9.54223C9.20768 26.9818 8.93859 26.7128 8.93859 26.3782V6.39275H39.055V21.0764L33.855 19.3455ZM9.54223 1.94911H38.4513C38.7859 1.94911 39.055 2.2182 39.055 2.55275V5.1782H8.94587V2.55275C8.94587 2.2182 9.21496 1.94911 9.54223 1.94911ZM5.11314 10.2837H7.71677V26.3855C7.71677 27.3891 8.53132 28.2109 9.53496 28.2109H34.7131L35.1859 29.6218C35.3604 30.1382 35.8259 30.4728 36.3568 30.4728C36.4077 30.4728 36.4586 30.4727 36.5095 30.4655C37.0986 30.3927 37.5495 29.9273 37.5931 29.3382L37.9641 25.0255L42.2622 24.6764C42.8586 24.6255 43.324 24.1818 43.3895 23.5927C43.4622 23.0037 43.1131 22.4582 42.5531 22.2691L40.2768 21.5055V10.2837H42.8804C43.8913 10.2837 44.7204 11.1055 44.7204 12.1237V31.3309H3.28041V12.1164C3.28041 11.1055 4.10223 10.2837 5.11314 10.2837ZM30.4586 42.5818H17.5422L20.3204 39.8691H27.6804L30.4586 42.5818ZM42.8877 38.6546H5.11314C4.10223 38.6546 3.27314 37.8327 3.27314 36.8146V32.5455H44.7131V36.8146C44.7204 37.8255 43.8986 38.6546 42.8877 38.6546Z" fill="#222222"/>
<path d="M23.9999 33.6509C22.9235 33.6509 22.0508 34.5236 22.0508 35.5927C22.0508 36.6691 22.9235 37.5418 23.9999 37.5418C25.0762 37.5418 25.949 36.6691 25.949 35.5927C25.949 34.5236 25.0762 33.6509 23.9999 33.6509ZM23.9999 36.3272C23.5999 36.3272 23.2726 36 23.2726 35.6C23.2726 35.2 23.5999 34.88 23.9999 34.88C24.3999 34.88 24.7271 35.2072 24.7271 35.6C24.7271 36 24.3999 36.3272 23.9999 36.3272Z" fill="#222222"/>
<path d="M22.3576 16.0291V13.6218C22.3576 12.8363 21.7176 12.2036 20.9394 12.2036H14.4958C13.7103 12.2036 13.0703 12.8436 13.0703 13.6218V20.0654C13.0703 20.8509 13.7103 21.4836 14.4958 21.4836H17.7685C18.2485 23.3891 19.9721 24.8 22.023 24.8C24.4449 24.8 26.423 22.8291 26.423 20.4C26.423 18.0945 24.6267 16.1963 22.3576 16.0291ZM14.2994 20.0654V13.6218C14.2994 13.5127 14.3867 13.4182 14.503 13.4182H20.9467C21.0558 13.4182 21.1503 13.5054 21.1503 13.6218V16.1018C19.1939 16.5018 17.7103 18.2109 17.6449 20.2691H14.503C14.3867 20.2618 14.2994 20.1745 14.2994 20.0654ZM22.0303 23.5854C20.2776 23.5854 18.8521 22.16 18.8521 20.4072C18.8521 18.6545 20.2776 17.2291 22.0303 17.2291C23.783 17.2291 25.2085 18.6545 25.2085 20.4072C25.2012 22.16 23.7758 23.5854 22.0303 23.5854Z" fill="#222222"/>
<path d="M29.2438 10.7636C29.0256 10.4436 28.662 10.2473 28.2693 10.24H28.262C27.8765 10.24 27.5129 10.4291 27.2874 10.7418L24.5311 14.6473C24.2765 15.0109 24.2402 15.4836 24.4438 15.8764C24.6474 16.2691 25.0474 16.5164 25.4911 16.5236L30.9311 16.5745H30.9456C31.382 16.5745 31.7893 16.3345 31.9929 15.9491C32.2038 15.5564 32.1747 15.0836 31.9274 14.72L29.2438 10.7636ZM25.5274 15.3527L28.2329 11.4473L30.9093 15.3527H25.5274Z" fill="#222222"/>
<path d="M11.2593 4.17458H11.9139C12.2484 4.17458 12.5248 3.89821 12.5248 3.56367C12.5248 3.22912 12.2484 2.95276 11.9139 2.95276H11.2593C10.9248 2.95276 10.6484 3.22912 10.6484 3.56367C10.6484 3.89821 10.9248 4.17458 11.2593 4.17458Z" fill="#222222"/>
<path d="M13.7086 4.17458H14.3631C14.6977 4.17458 14.974 3.89821 14.974 3.56367C14.974 3.22912 14.6977 2.95276 14.3631 2.95276H13.7086C13.374 2.95276 13.0977 3.22912 13.0977 3.56367C13.0977 3.89821 13.374 4.17458 13.7086 4.17458Z" fill="#222222"/>
<path d="M16.1597 4.17458H16.8143C17.1488 4.17458 17.4252 3.89821 17.4252 3.56367C17.4252 3.22912 17.1488 2.95276 16.8143 2.95276H16.1597C15.8252 2.95276 15.5488 3.22912 15.5488 3.56367C15.5488 3.89821 15.8252 4.17458 16.1597 4.17458Z" fill="#222222"/>
<path d="M18.6109 4.17458H19.2655C19.6 4.17458 19.8764 3.89821 19.8764 3.56367C19.8764 3.22912 19.6 2.95276 19.2655 2.95276H18.6109C18.2764 2.95276 18 3.22912 18 3.56367C18 3.89821 18.2764 4.17458 18.6109 4.17458Z" fill="#222222"/>
</svg>
