<svg width="48" height="48" viewBox="0 0 48 48" fill="none" xmlns="http://www.w3.org/2000/svg">
<path d="M22.573 38.5472C23.8827 38.5472 25.0077 39.4266 25.347 40.6575H34.1005C35.1983 40.6575 36.1011 39.7537 36.1011 38.6569V37.2778C36.1011 36.8634 36.4358 36.5287 36.8502 36.5287C37.2645 36.5287 37.602 36.8634 37.602 37.2778V38.6569C37.602 40.5834 36.0261 42.1594 34.0995 42.1594H25.3536C24.7958 44.2884 22.1145 45.0375 20.5358 43.4588C20.1823 43.1053 19.9189 42.6591 19.7886 42.1594H11.0455C9.11609 42.1594 7.54297 40.5834 7.54297 38.6569V37.3594C7.54297 36.945 7.87766 36.6103 8.29203 36.6103C8.70641 36.6103 9.04109 36.945 9.04109 37.3594V38.6559C9.04109 39.7537 9.94484 40.6566 11.0445 40.6566H19.7952C20.1383 39.4266 21.2623 38.5472 22.573 38.5472ZM23.548 40.4494C22.6817 39.5859 21.1958 40.2 21.1958 41.4244C21.1958 42.6469 22.6817 43.2638 23.548 42.3966C24.0852 41.8603 24.0852 40.9894 23.548 40.4494ZM31.0845 8.35031C30.6702 8.35031 30.3355 8.01563 30.3355 7.60125C30.3355 7.18688 30.6702 6.85219 31.0845 6.85219H34.1005C36.027 6.85219 37.603 8.42812 37.603 10.3547V16.3894C37.603 16.8038 37.2655 17.1384 36.8511 17.1384C36.4367 17.1384 36.102 16.8038 36.102 16.3894V10.3547C36.102 9.25406 35.1983 8.35125 34.1014 8.35125H31.0845V8.35031ZM9.04297 15.9206C9.04297 16.335 8.70828 16.6697 8.29391 16.6697C7.87953 16.6697 7.54484 16.335 7.54484 15.9206V10.3528C7.54484 8.42625 9.11797 6.85031 11.0473 6.85031H14.0605C14.4748 6.85031 14.8095 7.185 14.8095 7.59938C14.8095 8.01375 14.4748 8.34844 14.0605 8.34844H11.0473C9.94672 8.34844 9.04391 9.25219 9.04391 10.3519V15.9206H9.04297ZM24.8398 30.2925H26.6333V21.7622C26.6333 20.7178 27.5398 19.9209 28.5842 19.9209H41.3211C42.3655 19.9209 43.272 20.7178 43.272 21.7622V30.2925H45.0655C45.5783 30.2925 46.0086 30.8212 45.7217 31.4062L44.0286 35.3156C43.9067 35.5969 43.6302 35.7647 43.3433 35.7647V35.7703H26.5611C26.2292 35.7703 25.9442 35.5528 25.8486 35.2491L24.1527 31.3397C23.9398 30.8428 24.3148 30.2953 24.838 30.2953V30.2925H24.8398ZM43.9255 31.7916H25.9798L27.0505 34.2684H42.8548L43.9255 31.7916ZM30.1517 22.5094H39.7536C40.168 22.5094 40.5027 22.8469 40.5027 23.2584V30.2925H41.773V21.7622C41.773 21.5606 41.5414 21.4191 41.3211 21.4191H28.5842C28.3639 21.4191 28.1323 21.5597 28.1323 21.7622V30.2925H29.4027V23.2584C29.4027 22.8469 29.7402 22.5094 30.1517 22.5094ZM39.0036 24.0103H30.9036V30.2925H39.0036V24.0103ZM5.79078 32.1506H7.72578V31.1297H3.65422C2.81141 31.1297 2.12891 30.4444 2.12891 29.6016V20.1253C2.12891 19.2853 2.81422 18.6 3.65422 18.6H16.2983C17.1411 18.6 17.8264 19.2853 17.8264 20.1253V29.6016C17.8236 30.4519 17.1514 31.1269 16.2692 31.1297H12.2277V32.1506H14.1645C14.5789 32.1506 14.9136 32.4853 14.9136 32.8997V35.0175C14.9136 35.4319 14.5789 35.7694 14.1645 35.7694H5.79078C5.37641 35.7694 5.03891 35.4319 5.03891 35.0175V32.8997C5.03891 32.4853 5.37641 32.1506 5.79078 32.1506ZM13.4145 33.6488H6.53984V34.2675H13.4145V33.6488ZM9.22672 31.1297V32.1506H10.7286V31.1297H9.22672ZM3.62703 27.2606H16.3245V20.1253L16.2983 20.0991H3.65422L3.62797 20.1253V27.2606H3.62703ZM16.3245 29.6016V28.7616H3.62703L3.63266 29.6119C3.64297 29.6222 3.66172 29.6278 3.68047 29.6306H16.272L16.3245 29.6016ZM26.0323 4.93219L25.437 6.43875C25.3198 6.73406 25.0386 6.91406 24.7377 6.91406H20.4064C20.0792 6.91406 19.8036 6.70406 19.6995 6.41438L19.1127 4.93125C18.9158 4.93125 18.7592 4.90781 18.6055 5.06156C18.523 5.14406 18.4723 5.25563 18.4723 5.3775V13.4859H26.6736V5.37844C26.6736 5.13375 26.472 4.93219 26.2273 4.93219H26.0323ZM20.7261 4.93219L20.9173 5.41313H24.2286L24.4198 4.93219H20.7261ZM26.6727 16.1175V14.985H18.4714V16.1175C18.4714 16.3913 18.6523 16.6462 18.9177 16.6462H26.2311C26.4898 16.6462 26.6727 16.3913 26.6727 16.1175ZM18.9186 3.43125H26.2264C27.2998 3.43125 28.1745 4.30594 28.1745 5.37938V16.2C28.1745 17.2734 27.298 18.1453 26.2264 18.1453H18.8942C17.8498 18.1425 16.9733 17.2688 16.9733 16.2V5.37844C16.9733 4.305 17.848 3.43125 18.9186 3.43125Z" fill="#222222"/>
</svg>
