<svg width="48" height="48" viewBox="0 0 48 48" fill="none" xmlns="http://www.w3.org/2000/svg">
<g clip-path="url(#clip0_1005_21554)">
<path d="M9.8268 32.3747C9.8268 30.6795 8.44764 29.3002 6.75227 29.3002C5.05689 29.3002 3.67773 30.6795 3.67773 32.3747C3.67773 34.0699 5.05689 35.4492 6.75227 35.4492C8.44764 35.4492 9.8268 34.0699 9.8268 32.3747ZM4.81502 32.3747C4.81502 31.3063 5.68417 30.4375 6.75227 30.4375C7.82036 30.4375 8.68952 31.3063 8.68952 32.3747C8.68952 33.4431 7.82036 34.312 6.75227 34.312C5.68417 34.312 4.81502 33.4431 4.81502 32.3747Z" fill="#222222"/>
<path d="M41.133 0.851074C37.7247 0.851074 34.9518 3.62401 34.9518 7.03211C34.9518 8.94376 36.8532 12.3826 38.465 14.9547C37.9059 15.5122 37.5222 16.2414 37.3979 17.0566H28.6113C25.0868 17.0566 22.0411 19.1199 20.6016 22.0992C18.3468 21.9096 16.4984 23.6988 16.4984 25.8639C16.4984 27.9488 18.1965 29.6448 20.284 29.6448C20.3632 29.6448 20.4406 29.6378 20.5186 29.6329C21.9211 32.7076 25.017 34.8534 28.6113 34.8534H34.1613C36.5289 34.8534 38.4548 36.7795 38.4548 39.1468C38.4548 41.5141 36.5288 43.4403 34.1613 43.4403H10.5326C10.533 43.4161 10.5362 43.3927 10.5362 43.3683C10.5362 42.2649 10.0574 41.2749 9.30069 40.5836C10.8955 38.051 12.8187 34.602 12.8187 32.6974C12.8187 29.3532 10.0978 26.6323 6.75313 26.6323C3.4085 26.6323 0.6875 29.3534 0.6875 32.6977C0.6875 34.6021 2.61031 38.0504 4.205 40.5831C3.44769 41.2742 2.96994 42.2655 2.96994 43.3685C2.96994 45.4528 4.66803 47.1489 6.75547 47.1489C8.41681 47.1489 9.82831 46.0702 10.3342 44.5777H34.1612C37.1558 44.5777 39.592 42.1415 39.592 39.1469C39.592 36.1524 37.1558 33.7162 34.1612 33.7162H28.6112C25.5627 33.7162 22.9269 31.9458 21.6594 29.3819C23.0653 28.8302 24.0647 27.463 24.0647 25.8639C24.0647 24.2916 23.0996 22.9415 21.7311 22.3721C23.0277 19.8917 25.6238 18.1938 28.6112 18.1938H37.3973C37.6734 20.0086 39.242 21.4056 41.1355 21.4056C43.22 21.4056 44.9161 19.7095 44.9161 17.6252C44.9161 16.5813 44.4896 15.6363 43.8029 14.9517C45.4143 12.3799 47.3141 8.94292 47.3141 7.03211C47.3141 3.62401 44.5411 0.851074 41.133 0.851074ZM1.82469 32.6977C1.82469 29.9803 4.03541 27.7698 6.75303 27.7698C9.47066 27.7698 11.6814 29.9803 11.6814 32.6977C11.6814 34.8255 8.46359 39.9115 6.75303 42.382C5.04256 39.9115 1.82469 34.8255 1.82469 32.6977ZM6.75547 46.0117C5.29531 46.0117 4.10722 44.826 4.10722 43.3685C4.10722 42.6681 4.38566 42.0342 4.83294 41.5612C5.61631 42.7587 6.21837 43.5991 6.29169 43.7008C6.39856 43.8492 6.57022 43.9372 6.75303 43.9372C6.93584 43.9372 7.1075 43.8492 7.21438 43.7008C7.28769 43.5991 7.89003 42.7584 8.67369 41.5603C9.12088 42.0334 9.39894 42.6676 9.39894 43.3685C9.39884 44.826 8.213 46.0117 6.75547 46.0117ZM22.9275 25.864C22.9275 27.3216 21.7417 28.5077 20.2839 28.5077C18.8237 28.5077 17.6356 27.3216 17.6356 25.864C17.6356 24.4065 18.8237 23.2204 20.2839 23.2204C21.7416 23.2204 22.9275 24.4065 22.9275 25.864ZM41.1355 20.2685C39.675 20.2685 38.4869 19.0828 38.4869 17.6253C38.4869 16.9862 38.7167 16.4007 39.0969 15.9437C39.9379 17.2355 40.5942 18.1517 40.6717 18.2592C40.7786 18.4076 40.9502 18.4956 41.133 18.4956C41.3158 18.4956 41.4875 18.4076 41.5944 18.2592C41.6718 18.1517 42.3279 17.2359 43.1688 15.9443C43.5485 16.4013 43.7789 16.986 43.7789 17.6254C43.7788 19.0828 42.593 20.2685 41.1355 20.2685ZM41.133 16.9403C39.3883 14.4228 36.089 9.21151 36.089 7.03211C36.089 4.25073 38.3517 1.98826 41.133 1.98826C43.9141 1.98826 46.1769 4.25073 46.1769 7.03211C46.1769 9.21151 42.8775 14.4228 41.133 16.9403Z" fill="#222222"/>
<path d="M41.1333 3.57471C39.4087 3.57471 38.0059 4.97758 38.0059 6.70211C38.0059 8.42664 39.4087 9.82952 41.1333 9.82952C42.8575 9.82952 44.2604 8.42664 44.2604 6.70211C44.2604 4.97758 42.8575 3.57471 41.1333 3.57471ZM41.1333 8.69224C40.0358 8.69224 39.1431 7.79936 39.1431 6.70211C39.1431 5.60486 40.0358 4.71199 41.1333 4.71199C42.2305 4.71199 43.1232 5.60486 43.1232 6.70211C43.1232 7.79936 42.2305 8.69224 41.1333 8.69224Z" fill="#222222"/>
</g>
<defs>
<clipPath id="clip0_1005_21554">
<rect width="48" height="48" fill="white"/>
</clipPath>
</defs>
</svg>
