<svg width="48" height="48" viewBox="0 0 48 48" fill="none" xmlns="http://www.w3.org/2000/svg">
<path d="M13.9994 46.3855H4.97441C4.77947 46.3855 4.58453 46.3061 4.45457 46.1617C4.31739 46.0173 4.24519 45.8224 4.25963 45.6274L5.70362 17.1519C5.72528 16.7692 6.04296 16.466 6.42562 16.466H12.5626C12.9453 16.466 13.2629 16.7692 13.2846 17.1519L14.7286 45.6274C14.7358 45.8224 14.6708 46.0173 14.5337 46.1617C14.3965 46.3061 14.2088 46.3855 14.0138 46.3855H13.9994ZM5.7325 44.9415H13.2413L11.8695 17.91H7.1043L5.7325 44.9415Z" fill="#222222"/>
<path d="M43.948 46.3855H13.9995C13.6024 46.3855 13.2775 46.0606 13.2775 45.6635C13.2775 45.2664 13.6024 44.9415 13.9995 44.9415H43.226V33.4184H41.5798C41.4282 33.4184 41.2766 33.3679 41.1539 33.2813L34.3382 28.3139V32.7037C34.3382 33.1008 34.0133 33.4257 33.6162 33.4257H31.2481C31.0964 33.4257 30.9448 33.3751 30.8221 33.2885L24.0064 28.3211V32.7109C24.0064 33.108 23.6815 33.4329 23.2844 33.4329H20.9163C20.7647 33.4329 20.613 33.3823 20.4903 33.2957L12.6205 27.563C12.2956 27.3248 12.2306 26.8771 12.4617 26.5522C12.6927 26.2273 13.1476 26.1624 13.4725 26.3934L21.1473 31.9889H22.5552V26.906C22.5552 26.6317 22.7068 26.3862 22.9523 26.2634C23.1978 26.1407 23.4866 26.1624 23.7032 26.3212L31.4791 31.9889H32.887V26.906C32.887 26.6317 33.0386 26.3862 33.2841 26.2634C33.5296 26.1407 33.8184 26.1624 34.035 26.3212L41.8109 31.9889H43.9408C44.3379 31.9889 44.6628 32.3138 44.6628 32.7109V45.6779C44.6628 46.075 44.3379 46.3999 43.9408 46.3999L43.948 46.3855Z" fill="#222222"/>
<path d="M39.2686 38.0248H35.6009C35.2038 38.0248 34.8789 37.6999 34.8789 37.3028C34.8789 36.9057 35.2038 36.5808 35.6009 36.5808H39.2686C39.6657 36.5808 39.9906 36.9057 39.9906 37.3028C39.9906 37.6999 39.6657 38.0248 39.2686 38.0248Z" fill="#222222"/>
<path d="M28.5831 38.0248H24.9154C24.5183 38.0248 24.1934 37.6999 24.1934 37.3028C24.1934 36.9057 24.5183 36.5808 24.9154 36.5808H28.5831C28.9802 36.5808 29.3051 36.9057 29.3051 37.3028C29.3051 37.6999 28.9802 38.0248 28.5831 38.0248Z" fill="#222222"/>
<path d="M11.7254 15.6717C11.3283 15.6717 11.0034 15.3468 11.0034 14.9497C11.0034 14.5526 11.3283 14.2277 11.7254 14.2277C12.7217 14.2277 13.5304 13.4191 13.5304 12.4227C13.5304 11.8812 13.2921 11.4913 13.0899 11.2531C12.9094 11.0365 12.8661 10.7404 12.9816 10.4805C13.0972 10.2206 13.3571 10.0618 13.6387 10.0618H13.7036C14.2451 10.0473 14.7217 9.69355 14.8877 9.15927C14.9671 8.89935 15.1837 8.71163 15.4509 8.66831C15.718 8.62499 15.9852 8.72607 16.1512 8.94267C16.4256 9.29645 16.8299 9.50583 17.2631 9.50583C18.0284 9.50583 18.6493 8.89213 18.6638 8.13403C18.6638 8.11237 18.6638 8.08349 18.6638 8.06905C18.6565 7.78026 18.8154 7.51312 19.0825 7.39038C19.3424 7.26764 19.6529 7.31096 19.8695 7.5059C20.0644 7.67918 20.3893 7.88134 20.837 7.88134C21.6456 7.88134 22.3026 7.22432 22.3026 6.41568C22.3026 5.60704 21.6456 4.95003 20.837 4.95003C20.4327 4.95003 20.1294 5.12331 19.9417 5.26771C19.7251 5.43377 19.4291 5.46987 19.1836 5.34713C18.9381 5.22439 18.7793 4.97169 18.7793 4.69733C18.7793 4.68289 18.7793 4.66845 18.7793 4.64679C18.7648 3.76595 18.0428 3.05117 17.1548 3.05117C16.3534 3.05117 15.6675 3.65043 15.5592 4.45185C15.5159 4.76953 15.2704 5.01501 14.9527 5.06555C14.635 5.11609 14.3318 4.95003 14.1874 4.66123C14.0069 4.28579 13.6459 4.05475 13.2416 4.05475C12.7289 4.05475 12.2885 4.42297 12.2091 4.93559C12.1658 5.18107 11.9997 5.39767 11.7687 5.49153C11.5377 5.58538 11.2705 5.54928 11.0684 5.39767C10.5991 5.05111 10.0576 4.86339 9.4944 4.86339C8.03596 4.86339 6.84467 6.05468 6.84467 7.51312C6.84467 8.22067 7.11903 8.89213 7.62443 9.39031C7.82658 9.59247 7.89156 9.89571 7.79048 10.1628C7.68941 10.43 7.43671 10.6105 7.15513 10.6249C6.19487 10.6755 5.44399 11.4624 5.44399 12.4155C5.44399 13.3685 6.25263 14.2205 7.24899 14.2205C7.64609 14.2205 7.97098 14.5454 7.97098 14.9425C7.97098 15.3396 7.64609 15.6645 7.24899 15.6645C5.45843 15.6645 4 14.206 4 12.4155C4 11.1159 4.77254 9.98235 5.89163 9.46973C5.56673 8.87769 5.39345 8.20623 5.39345 7.51312C5.39345 5.26049 7.22733 3.41939 9.48718 3.41939C10.0576 3.41939 10.6135 3.54213 11.1333 3.77317C11.5738 3.06561 12.3607 2.61076 13.2416 2.61076C13.7253 2.61076 14.1874 2.75516 14.5845 3.00785C15.1332 2.1559 16.0935 1.59996 17.1548 1.59996C18.476 1.59996 19.6096 2.43748 20.0356 3.61433C20.2955 3.54213 20.5626 3.49881 20.837 3.49881C22.4398 3.49881 23.7466 4.80563 23.7466 6.40846C23.7466 8.0113 22.4398 9.31811 20.837 9.31811C20.5193 9.31811 20.2016 9.26757 19.9056 9.15927C19.4796 10.1989 18.4616 10.9426 17.2631 10.9426C16.7216 10.9426 16.209 10.791 15.7686 10.5166C15.4942 10.8487 15.1549 11.1087 14.765 11.2747C14.9022 11.6357 14.9744 12.0256 14.9744 12.4155C14.9744 14.206 13.5159 15.6645 11.7254 15.6645V15.6717Z" fill="#222222"/>
</svg>
