<svg width="48" height="48" viewBox="0 0 48 48" fill="none" xmlns="http://www.w3.org/2000/svg">
<g clip-path="url(#clip0_1005_13680)">
<path d="M3.67097 29.5276H4.65741C5.07159 29.5276 5.40741 29.1918 5.40741 28.7776C5.40741 28.3634 5.07159 28.0276 4.65741 28.0276H3.67097C3.12919 28.0276 2.68847 27.5868 2.68847 27.0451V8.72084H35.9726V19.2715C35.9726 19.6856 36.3084 20.0215 36.7226 20.0215C37.1368 20.0215 37.4726 19.6856 37.4726 19.2715V2.84468C37.4726 1.47575 36.359 0.362183 34.9901 0.362183H3.67097C2.30203 0.362183 1.18847 1.47584 1.18847 2.84468V27.0451C1.18847 28.4141 2.30212 29.5276 3.67097 29.5276ZM2.68847 2.84468C2.68847 2.3029 3.12919 1.86218 3.67097 1.86218H34.99C35.5318 1.86218 35.9725 2.303 35.9725 2.84468V7.22084H2.68847V2.84468ZM25.539 28.7776C25.539 29.1918 25.2032 29.5276 24.789 29.5276H23.9084C23.4942 29.5276 23.1584 29.1918 23.1584 28.7776C23.1584 28.3634 23.4942 28.0276 23.9084 28.0276H24.789C25.2032 28.0276 25.539 28.3634 25.539 28.7776ZM15.3815 4.54146C15.3815 5.17006 14.8701 5.68137 14.2416 5.68137C13.6131 5.68137 13.1017 5.17006 13.1017 4.54146C13.1017 3.91287 13.6131 3.40165 14.2416 3.40165C14.8701 3.40165 15.3815 3.91296 15.3815 4.54146ZM11.202 4.54146C11.202 5.17006 10.6906 5.68137 10.0621 5.68137C9.43359 5.68137 8.92219 5.17006 8.92219 4.54146C8.92219 3.91287 9.43359 3.40165 10.0621 3.40165C10.6906 3.40165 11.202 3.91296 11.202 4.54146ZM7.02262 4.54146C7.02262 5.17006 6.51122 5.68137 5.88272 5.68137C5.25422 5.68137 4.74281 5.17006 4.74281 4.54146C4.74281 3.91287 5.25422 3.40165 5.88272 3.40165C6.51122 3.40165 7.02262 3.91296 7.02262 4.54146ZM14.4598 20.3368C9.8055 20.3368 6.01903 24.1234 6.01903 28.7776C6.01903 30.4945 6.53475 32.0929 7.41872 33.4271L6.5655 34.2802C5.97384 34.2992 5.42137 34.537 5.00259 34.9556L0.958594 38.9996C0.521812 39.4363 0.28125 40.0186 0.28125 40.6392C0.28125 41.2599 0.521719 41.8422 0.9585 42.2788C1.39528 42.7155 1.97747 42.9561 2.598 42.9561C3.21853 42.9561 3.80081 42.7156 4.23759 42.2788L8.28178 38.2346C8.71397 37.8024 8.93709 37.2404 8.95603 36.673L9.81028 35.8187C11.1444 36.7027 12.7429 37.2184 14.4597 37.2184C19.114 37.2184 22.9005 33.4318 22.9005 28.7776C22.9005 24.1234 19.1139 20.3368 14.4597 20.3368H14.4598ZM7.22109 37.1741L3.177 41.2182C3.02353 41.3716 2.81794 41.4561 2.598 41.4561C2.37806 41.4561 2.17256 41.3716 2.01919 41.2182C1.86572 41.0648 1.78125 40.8592 1.78125 40.6393C1.78125 40.4195 1.86572 40.2139 2.01919 40.0604L6.06328 36.0163C6.21666 35.863 6.42225 35.7784 6.64219 35.7784C6.86212 35.7784 7.06763 35.8629 7.221 36.0162C7.54013 36.3354 7.54022 36.8547 7.221 37.174L7.22109 37.1741ZM8.41003 35.0978C8.36897 35.0494 8.32725 35.0013 8.28159 34.9557C8.23622 34.9103 8.18888 34.8675 8.1405 34.8264L8.36034 34.6065C8.44847 34.6987 8.53866 34.7889 8.63081 34.877L8.41003 35.0978ZM14.4598 35.7185C10.6327 35.7185 7.51903 32.6049 7.51903 28.7777C7.51903 24.9506 10.6327 21.8369 14.4598 21.8369C18.287 21.8369 21.4006 24.9506 21.4006 28.7777C21.4006 32.6049 18.287 35.7185 14.4598 35.7185ZM18.2729 25.8611C18.5658 26.154 18.5658 26.6289 18.2729 26.9217L13.5006 31.6941C13.3589 31.8357 13.1678 31.9137 12.9702 31.9137C12.9377 31.9137 12.9051 31.9117 12.8723 31.9074C12.6412 31.8769 12.4373 31.7407 12.3206 31.5387L10.5277 28.433C10.3205 28.0742 10.4435 27.6156 10.8022 27.4085C11.1611 27.2013 11.6196 27.3244 11.8267 27.683L13.1311 29.9424L17.2122 25.8611C17.5054 25.5682 17.9801 25.5683 18.2729 25.8611ZM47.2006 25.4941C44.1819 24.5133 40.9537 23.0013 37.0471 21.1266C36.842 21.0282 36.6033 21.0282 36.3982 21.1266C32.4916 23.0013 29.2634 24.5132 26.2447 25.4941C25.9357 25.5945 25.7265 25.8825 25.7265 26.2074V36.2559C25.7265 37.6504 26.0662 38.9004 26.765 40.0771C28.3898 42.813 31.9593 44.9303 35.1087 46.7982C35.5292 47.0477 35.9401 47.2914 36.3346 47.5299C36.4538 47.602 36.5882 47.6381 36.7226 47.6381C36.8571 47.6381 36.9913 47.602 37.1107 47.5299C37.5053 47.2914 37.9162 47.0476 38.3367 46.7981C41.4861 44.9302 45.0556 42.8129 46.6803 40.0771C47.3791 38.9005 47.7188 37.6505 47.7188 36.2559V26.2074C47.7188 25.8824 47.5097 25.5944 47.2006 25.4941ZM46.2188 36.2559C46.2188 37.3734 45.9479 38.3727 45.3907 39.3112C43.9613 41.718 40.5666 43.7315 37.5715 45.5081C37.2833 45.679 36.9997 45.8472 36.7226 46.013C36.4456 45.8472 36.1621 45.6791 35.8739 45.5082C32.8788 43.7316 29.4841 41.7181 28.0547 39.3113C27.4974 38.3728 27.2265 37.3735 27.2265 36.256V26.7481C30.0943 25.7696 33.127 24.3579 36.7226 22.6347C40.3182 24.3579 43.3509 25.7695 46.2188 26.7481V36.256V36.2559ZM32.6777 29.2224V30.103H32.2843C31.1144 30.103 30.1626 31.0547 30.1626 32.2246V38.2714C30.1626 39.4413 31.1143 40.393 32.2843 40.393H41.1612C42.3311 40.393 43.2829 39.4412 43.2829 38.2714V32.2246C43.2829 31.0547 42.3311 30.103 41.1612 30.103H40.7678V29.2224C40.7678 26.992 38.9532 25.1774 36.7228 25.1774C34.4924 25.1774 32.6779 26.992 32.6779 29.2224H32.6777ZM41.1611 31.603C41.5039 31.603 41.7828 31.8819 41.7828 32.2246V38.2714C41.7828 38.6142 41.5039 38.893 41.1611 38.893H32.2842C31.9414 38.893 31.6625 38.6142 31.6625 38.2714V32.2246C31.6625 31.8819 31.9414 31.603 32.2842 31.603H41.1611ZM39.2677 29.2224V30.103H34.1777V29.2224C34.1777 27.819 35.3194 26.6774 36.7226 26.6774C38.1259 26.6774 39.2676 27.8191 39.2676 29.2224H39.2677ZM35.2232 34.3021C35.2232 33.4753 35.8958 32.8027 36.7226 32.8027C37.5494 32.8027 38.2221 33.4753 38.2221 34.3021C38.2221 34.8334 37.9371 35.3293 37.4779 35.5976V36.9378C37.4779 37.3542 37.1391 37.6931 36.7226 37.6931C36.3062 37.6931 35.9672 37.3542 35.9672 36.9378V35.5977C35.5081 35.3294 35.223 34.8335 35.223 34.3021H35.2232ZM33.5411 12.2854C33.5411 12.6996 33.2053 13.0354 32.7911 13.0354H21.8533C21.4391 13.0354 21.1033 12.6996 21.1033 12.2854C21.1033 11.8712 21.4391 11.5354 21.8533 11.5354H32.7911C33.2053 11.5354 33.5411 11.8712 33.5411 12.2854ZM29.4645 20.6947C29.8787 20.6947 30.2145 21.0305 30.2145 21.4447C30.2145 21.8589 29.8787 22.1947 29.4645 22.1947H21.8533C21.4391 22.1947 21.1033 21.8589 21.1033 21.4447C21.1033 21.0305 21.4391 20.6947 21.8533 20.6947H29.4645ZM32.7911 17.615H21.8533C21.4391 17.615 21.1033 17.2792 21.1033 16.865C21.1033 16.4508 21.4391 16.115 21.8533 16.115H32.7911C33.2053 16.115 33.5411 16.4508 33.5411 16.865C33.5411 17.2792 33.2053 17.615 32.7911 17.615ZM6.43313 11.5353C5.70909 11.5353 5.12006 12.1243 5.12006 12.8484V16.3019C5.12006 17.026 5.70909 17.615 6.43313 17.615H17.8625C18.5865 17.615 19.1755 17.026 19.1755 16.3019V12.8484C19.1755 12.1243 18.5865 11.5353 17.8625 11.5353H6.43313ZM17.6755 16.115H6.62006V13.0353H17.6755V16.115Z" fill="#222222"/>
</g>
<defs>
<clipPath id="clip0_1005_13680">
<rect width="48" height="48" fill="white"/>
</clipPath>
</defs>
</svg>
