<svg width="48" height="48" viewBox="0 0 48 48" fill="none" xmlns="http://www.w3.org/2000/svg">
<path d="M42.8082 31.1415C42.4585 31.1415 42.1753 31.4249 42.1753 31.7743V41.863H29.1315V29.8867C29.1315 29.0723 28.469 28.4099 27.6549 28.4099H20.3446C19.5305 28.4099 18.8681 29.0727 18.8681 29.8867V41.863H5.82422V31.7743C5.82422 31.4249 5.5411 31.1415 5.19141 31.1415C4.84171 31.1415 4.55859 31.4249 4.55859 31.7743V42.1584C4.55859 42.6933 4.99398 43.1287 5.52891 43.1287H42.4707C43.0056 43.1287 43.441 42.6933 43.441 42.1584V31.7743C43.441 31.4249 43.1578 31.1415 42.8082 31.1415ZM20.1337 41.863V29.8867C20.1337 29.7704 20.2283 29.6755 20.3446 29.6755H27.6549C27.7713 29.6755 27.8659 29.7704 27.8659 29.8867V41.863H20.1337Z" fill="#222222"/>
<path d="M39.8018 39.3628C40.5447 39.3628 41.1492 38.7583 41.1492 38.0154V31.1098C41.1492 30.3669 40.5447 29.7628 39.8018 29.7628H31.9704C31.2275 29.7628 30.623 30.3669 30.623 31.1098V38.0154C30.623 38.7583 31.2275 39.3628 31.9704 39.3628H39.8018ZM31.8887 38.0154V31.1098C31.8887 31.065 31.9253 31.0284 31.9704 31.0284H39.8018C39.8469 31.0284 39.8835 31.065 39.8835 31.1098V38.0154C39.8835 38.0605 39.8469 38.0971 39.8018 38.0971H31.9704C31.9253 38.0971 31.8887 38.0605 31.8887 38.0154Z" fill="#222222"/>
<path d="M16.0284 39.3628C16.7713 39.3628 17.3757 38.7583 17.3757 38.0154V31.1098C17.3757 30.3669 16.7713 29.7628 16.0284 29.7628H8.19697C7.45408 29.7628 6.84961 30.3669 6.84961 31.1098V38.0154C6.84961 38.7583 7.45408 39.3628 8.19697 39.3628H16.0284ZM8.11523 38.0154V31.1098C8.11523 31.065 8.15182 31.0284 8.19697 31.0284H16.0284C16.0735 31.0284 16.1101 31.065 16.1101 31.1098V38.0154C16.1101 38.0605 16.0735 38.0971 16.0284 38.0971H8.19697C8.15182 38.0971 8.11523 38.0605 8.11523 38.0154Z" fill="#222222"/>
<path d="M43.7408 14.1294C43.7408 13.4534 44.2909 12.9036 44.9676 12.9036C45.3173 12.9036 45.6004 12.6202 45.6004 12.2708V10.7224C45.6004 10.373 45.3173 10.0896 44.9676 10.0896H32.4004C32.0507 10.0896 31.7676 10.373 31.7676 10.7224C31.7676 11.0721 32.0507 11.3552 32.4004 11.3552H44.3348V11.7194C43.4683 11.9468 42.7844 12.6304 42.5566 13.4965H32.6014V7.87902C32.6014 6.1813 31.2201 4.79999 29.5223 4.79999H18.4788C16.7807 4.79999 15.3997 6.1813 15.3997 7.87902V10.0896H3.0332C2.68351 10.0896 2.40039 10.373 2.40039 10.7224V12.2708C2.40039 12.6202 2.68351 12.9036 3.0332 12.9036C3.70985 12.9036 4.25994 13.4534 4.25994 14.1294C4.25994 14.3578 4.3809 14.5578 4.56217 14.6692V18.9915H3.42344C2.88818 18.9915 2.4528 19.4269 2.4528 19.9618V23.4076C2.4528 23.9426 2.88818 24.378 3.42344 24.378H4.56217L4.55977 31.7743C4.55977 32.1237 4.84288 32.4071 5.19258 32.4071C5.54227 32.4071 5.82539 32.1237 5.82539 31.7743L5.8278 24.378H42.2254L42.1765 31.7743C42.1765 32.1237 42.4596 32.4071 42.8093 32.4071C43.1587 32.4071 43.4421 32.1237 43.4421 31.7743L43.491 24.378H44.6297C45.165 24.378 45.6004 23.9426 45.6004 23.4076V19.9618C45.6004 19.4269 45.165 18.9915 44.6297 18.9915H43.491V14.6333C43.6426 14.5176 43.7408 14.335 43.7408 14.1294ZM16.665 7.87902C16.665 6.87904 17.4788 6.06561 18.4784 6.06561H29.522C30.522 6.06561 31.3354 6.87904 31.3354 7.87902V14.7836C31.3354 15.7836 30.522 16.597 29.522 16.597H18.4788C17.4788 16.597 16.6654 15.7836 16.6654 14.7836L16.665 7.87902ZM44.3348 23.1123H3.71842V20.2571H44.3348V23.1123ZM5.8278 18.9915V14.7622H15.3994C15.7491 14.7622 16.0322 14.4791 16.0322 14.1294C16.0322 13.78 15.7491 13.4965 15.3994 13.4965H5.44415C5.21641 12.6304 4.53251 11.9468 3.66602 11.7194V11.3552H15.3994V14.7839C15.3994 16.4816 16.7807 17.863 18.4784 17.863H29.522C31.2201 17.863 32.601 16.4816 32.601 14.7839V14.7625H42.2251V18.9915H5.8278Z" fill="#222222"/>
<path d="M21.5531 35.1364H21.0469C20.6972 35.1364 20.4141 35.4199 20.4141 35.7692C20.4141 36.1186 20.6972 36.402 21.0469 36.402H21.5531C21.9028 36.402 22.1859 36.1186 22.1859 35.7692C22.1859 35.4199 21.9028 35.1364 21.5531 35.1364Z" fill="#222222"/>
<path d="M19.4665 8.59128H20.242L21.0376 12.3947C21.1919 13.1317 21.8504 13.667 22.6035 13.667H26.3612C27.0226 13.667 27.6241 13.251 27.8578 12.6324L29.0987 9.34736C29.2167 9.03458 29.1739 8.68389 28.984 8.40934C28.7942 8.13447 28.4811 7.97033 28.1472 7.97033H21.1996C20.8502 7.97033 20.5668 8.25345 20.5668 8.60314C20.5668 8.95251 20.8502 9.23596 21.1996 9.23596H27.788L26.6739 12.1851C26.6252 12.3143 26.4996 12.4013 26.3615 12.4013H22.6035C22.4463 12.4013 22.3089 12.2893 22.2766 12.1357L21.4776 8.31739C21.3573 7.74258 20.8442 7.32565 20.2568 7.32565H19.4668C19.1171 7.32565 18.834 7.60877 18.834 7.95847C18.834 8.30783 19.1171 8.59128 19.4665 8.59128Z" fill="#222222"/>
<path d="M22.7137 14.1979H22.5449C22.1952 14.1979 21.9121 14.4811 21.9121 14.8307C21.9121 15.1801 22.1952 15.4636 22.5449 15.4636H22.7137C23.0634 15.4636 23.3465 15.1801 23.3465 14.8307C23.3465 14.4811 23.0634 14.1979 22.7137 14.1979Z" fill="#222222"/>
<path d="M25.4559 14.1979H25.2871C24.9374 14.1979 24.6543 14.4811 24.6543 14.8307C24.6543 15.1801 24.9374 15.4636 25.2871 15.4636H25.4559C25.8056 15.4636 26.0887 15.1801 26.0887 14.8307C26.0887 14.4811 25.8056 14.1979 25.4559 14.1979Z" fill="#222222"/>
</svg>
