<svg width="48" height="48" viewBox="0 0 48 48" fill="none" xmlns="http://www.w3.org/2000/svg">
<path d="M6.09937 24.7809H17.0859C17.3962 24.7809 17.6484 24.5287 17.6484 24.2184V13.2319C17.6484 12.9215 17.3962 12.6694 17.0859 12.6694H6.09937C5.78906 12.6694 5.53688 12.9215 5.53688 13.2319V24.2184C5.53688 24.5287 5.78906 24.7809 6.09937 24.7809ZM11.9953 19.4456H11.1919C10.5769 19.2684 10.1522 18.7078 10.1522 18.0619C10.1522 17.2669 10.7991 16.6209 11.5931 16.6209C12.3872 16.6209 13.0341 17.2678 13.0341 18.0619C13.0341 18.7087 12.6094 19.2684 11.9953 19.4456ZM10.8384 20.5706H12.3488C13.5272 20.5706 14.4853 21.5287 14.4853 22.7072V23.655H8.70094V22.7072C8.70094 21.5297 9.66 20.5706 10.8384 20.5706ZM6.66187 13.7944H16.5234V23.6559H15.6094V22.7081C15.6094 21.345 14.7684 20.1759 13.5787 19.6884C13.9434 19.2422 14.1591 18.674 14.1591 18.0628C14.1591 16.6481 13.0078 15.4969 11.5931 15.4969C10.1784 15.4969 9.02719 16.6481 9.02719 18.0628C9.02719 18.674 9.24188 19.2422 9.6075 19.6884C8.41781 20.175 7.57687 21.345 7.57687 22.7081V23.6559H6.66281V13.7944H6.66187ZM27.6319 28.2834C27.6319 28.5937 27.3797 28.8459 27.0694 28.8459H6.05062C5.74031 28.8459 5.48812 28.5937 5.48812 28.2834C5.48812 27.9731 5.74031 27.7209 6.05062 27.7209H27.0694C27.3797 27.7209 27.6319 27.9722 27.6319 28.2834ZM20.4225 24.179C20.4225 23.8687 20.6747 23.6165 20.985 23.6165H28.9669C29.2772 23.6165 29.5294 23.8687 29.5294 24.179C29.5294 24.4894 29.2772 24.7415 28.9669 24.7415H20.985C20.6747 24.7415 20.4225 24.4903 20.4225 24.179ZM20.4225 20.0756C20.4225 19.7653 20.6747 19.5131 20.985 19.5131H33.3938C33.7041 19.5131 33.9563 19.7653 33.9563 20.0756C33.9563 20.3859 33.7041 20.6381 33.3938 20.6381H20.985C20.6747 20.6381 20.4225 20.3859 20.4225 20.0756ZM20.4225 15.9722C20.4225 15.6619 20.6747 15.4097 20.985 15.4097H33.3938C33.7041 15.4097 33.9563 15.6619 33.9563 15.9722C33.9563 16.2825 33.7041 16.5347 33.3938 16.5347H20.985C20.6747 16.5347 20.4225 16.2825 20.4225 15.9722ZM46.0312 28.3069H44.6709C44.5284 27.8325 44.3391 27.375 44.1038 26.939L45.0656 25.9772C45.1706 25.8722 45.2306 25.7287 45.2306 25.5797C45.2306 25.4306 45.1716 25.2872 45.0656 25.1822L42.8484 22.965C42.6291 22.7456 42.2728 22.7456 42.0525 22.965L41.0906 23.9269C40.6537 23.6915 40.1963 23.5022 39.7219 23.3597V21.9994C39.7219 21.689 39.4697 21.4369 39.1594 21.4369H38.0363V11.7581C38.0363 9.99655 36.6028 8.56311 34.8413 8.56311H4.60125C2.83969 8.56311 1.40625 9.99655 1.40625 11.7581V29.7572C1.40625 31.5187 2.83969 32.9522 4.60125 32.9522H30.6431C30.765 33.2897 30.9113 33.6178 31.0819 33.9356L30.12 34.8975C30.015 35.0034 29.955 35.1459 29.955 35.295C29.955 35.444 30.0141 35.5875 30.12 35.6925L32.3372 37.9097C32.4431 38.0156 32.5856 38.0747 32.7347 38.0747C32.8838 38.0747 33.0272 38.0156 33.1322 37.9097L34.0941 36.9478C34.5309 37.1831 34.9884 37.3725 35.4628 37.515V38.8753C35.4628 39.1856 35.715 39.4378 36.0253 39.4378H39.1603C39.4706 39.4378 39.7228 39.1856 39.7228 38.8753V37.515C40.1972 37.3725 40.6547 37.1831 41.0916 36.9478L42.0534 37.9097C42.2728 38.129 42.6291 38.129 42.8494 37.9097L45.0666 35.6925C45.1716 35.5875 45.2316 35.444 45.2316 35.295C45.2316 35.1459 45.1725 35.0025 45.0666 34.8975L44.1047 33.9356C44.34 33.4987 44.5294 33.0412 44.6719 32.5678H46.0312C46.3416 32.5678 46.5938 32.3156 46.5938 32.0053V28.8703C46.5938 28.5581 46.3416 28.3069 46.0312 28.3069ZM2.53125 29.7572V11.7581C2.53125 10.6162 3.46031 9.68811 4.60125 9.68811H34.8422C35.9841 9.68811 36.9122 10.6172 36.9122 11.7581V21.4359H36.0253C35.715 21.4359 35.4628 21.6881 35.4628 21.9984V23.3587C34.9884 23.5012 34.5309 23.6906 34.095 23.9259L33.1331 22.964C32.9138 22.7447 32.5575 22.7447 32.3372 22.964L30.12 25.1812C30.015 25.2862 29.955 25.4297 29.955 25.5787C29.955 25.7278 30.0141 25.8712 30.12 25.9762L31.0819 26.9381C30.8466 27.375 30.6572 27.8325 30.5147 28.3059H29.1544C28.8441 28.3059 28.5919 28.5581 28.5919 28.8684V31.8262H4.60125C3.46031 31.8272 2.53125 30.8981 2.53125 29.7572ZM45.4688 31.4419H44.2397C43.9781 31.4419 43.7522 31.6219 43.6922 31.8759C43.5384 32.5322 43.2788 33.1565 42.9225 33.7312C42.7847 33.9534 42.8184 34.2403 43.0031 34.425L43.8731 35.295L42.4519 36.7162L41.5819 35.8462C41.3972 35.6615 41.1094 35.6278 40.8881 35.7656C40.3134 36.1219 39.6891 36.3806 39.0328 36.5353C38.7788 36.5953 38.5988 36.8222 38.5988 37.0828V38.3119H36.5887V37.0828C36.5887 36.8212 36.4087 36.5953 36.1547 36.5353C35.4984 36.3815 34.8741 36.1219 34.2994 35.7656C34.0772 35.6278 33.7903 35.6615 33.6056 35.8462L32.7356 36.7162L31.3144 35.295L32.1844 34.425C32.3691 34.2403 32.4019 33.9525 32.265 33.7312C31.9088 33.1565 31.65 32.5322 31.4953 31.8759C31.4353 31.6219 31.2084 31.4419 30.9478 31.4419H29.7188V29.4319H30.9478C31.2094 29.4319 31.4353 29.2519 31.4953 28.9978C31.6491 28.3415 31.9078 27.7172 32.265 27.1425C32.4028 26.9203 32.3691 26.6334 32.1844 26.4487L31.3144 25.5787L32.7356 24.1575L33.6056 25.0275C33.7903 25.2122 34.0781 25.2459 34.2994 25.1081C34.8741 24.7519 35.4984 24.4931 36.1547 24.3384C36.4087 24.2784 36.5887 24.0515 36.5887 23.7909V22.5619H38.5988V23.7909C38.5988 24.0515 38.7788 24.2784 39.0328 24.3384C39.6891 24.4922 40.3134 24.7519 40.8881 25.1081C41.1103 25.2459 41.3972 25.2122 41.5819 25.0275L42.4519 24.1575L43.8731 25.5787L43.0031 26.4487C42.8184 26.6334 42.7856 26.9212 42.9225 27.1425C43.2788 27.7172 43.5375 28.3415 43.6922 28.9978C43.7522 29.2519 43.9791 29.4319 44.2397 29.4319H45.4688V31.4419ZM37.5928 25.8319C35.0541 25.8319 32.9878 27.8972 32.9878 30.4369C32.9878 32.9756 35.0531 35.0419 37.5928 35.0419C40.1325 35.0419 42.1978 32.9765 42.1978 30.4369C42.1978 27.8972 40.1325 25.8319 37.5928 25.8319ZM37.5928 33.9159C35.6737 33.9159 34.1128 32.355 34.1128 30.4359C34.1128 28.5169 35.6737 26.9559 37.5928 26.9559C39.5119 26.9559 41.0728 28.5169 41.0728 30.4359C41.0728 32.355 39.5119 33.9159 37.5928 33.9159Z" fill="#222222"/>
</svg>
