<svg width="48" height="48" viewBox="0 0 48 48" fill="none" xmlns="http://www.w3.org/2000/svg">
<path d="M45.849 29.3528L43.9733 28.9148C43.8742 28.4355 43.7475 27.9615 43.5938 27.4965L44.991 26.1863C45.225 25.9673 45.294 25.623 45.162 25.3298C44.754 24.4282 44.2515 23.5605 43.6673 22.749C43.4798 22.4888 43.149 22.3762 42.84 22.47L41.022 23.022C40.6942 22.6545 40.3455 22.305 39.9765 21.9772L40.53 20.16C40.623 19.8532 40.5112 19.521 40.251 19.3335C39.8475 19.0425 39.4297 18.7717 39 18.5228V5.25C39 3.18225 37.3177 1.5 35.25 1.5H5.25C3.18225 1.5 1.5 3.18225 1.5 5.25V24.75C1.5 26.8177 3.18225 28.5 5.25 28.5H13.1798L10.725 35.25H6.75C6.33525 35.25 6 35.586 6 36C6 38.0677 7.68225 39.75 9.75 39.75H19.0087C19.1182 39.9157 19.2165 40.089 19.3328 40.2503C19.5203 40.5105 19.8495 40.623 20.16 40.5293L21.978 39.9772C22.3057 40.3447 22.6545 40.6942 23.0235 41.022L22.47 42.8392C22.377 43.146 22.4888 43.4782 22.749 43.6657C23.559 44.25 24.4275 44.7533 25.3305 45.1613C25.6237 45.294 25.9673 45.2257 26.187 44.9902L27.4965 43.5923C27.96 43.746 28.4348 43.8727 28.9155 43.9718L29.3535 45.8483C29.427 46.161 29.6903 46.3927 30.0105 46.4242C30.516 46.4745 31.0177 46.5 31.5 46.5C31.9823 46.5 32.484 46.4745 32.9902 46.425C33.3105 46.3935 33.5737 46.1618 33.6472 45.849L34.0853 43.9725C34.566 43.8735 35.04 43.7467 35.5042 43.593L36.8138 44.991C37.0342 45.2257 37.3785 45.2948 37.6702 45.162C38.5703 44.7547 39.4388 44.2515 40.2503 43.6665C40.5112 43.479 40.623 43.1468 40.53 42.8392L39.9772 41.0212C40.3455 40.6935 40.695 40.344 41.0228 39.9765L42.8407 40.5293C43.146 40.623 43.4805 40.5105 43.668 40.2503C44.2515 39.4395 44.7547 38.5718 45.1628 37.6695C45.2955 37.377 45.2265 37.0327 44.9917 36.813L43.5945 35.5028C43.7482 35.0378 43.875 34.5638 43.974 34.0837L45.8498 33.6458C46.1625 33.573 46.3942 33.309 46.4258 32.9895C46.4745 32.4855 46.5 31.9837 46.5 31.5C46.5 31.0163 46.4745 30.5145 46.4242 30.009C46.3927 29.6895 46.1618 29.4255 45.849 29.3528ZM5.25 3H35.25C36.4905 3 37.5 4.0095 37.5 5.25V17.7908C37.2525 17.7435 36.993 17.8177 36.8138 18.0082L35.5042 19.4062C35.0408 19.2525 34.566 19.1257 34.0853 19.0267L33.6472 17.1503C33.5737 16.8375 33.3105 16.6058 32.9902 16.5743C31.9762 16.4745 31.023 16.4745 30.009 16.5743C29.6888 16.6058 29.4255 16.8375 29.352 17.1503L28.914 19.0267C28.4332 19.1257 27.9592 19.2525 27.495 19.4062L26.1855 18.0082C25.9658 17.7743 25.6222 17.7052 25.329 17.8372C24.429 18.2445 23.5605 18.7478 22.749 19.3328C22.488 19.5203 22.3762 19.8525 22.4692 20.16L22.7257 21H7.5V12H15V10.5H7.5V6H33V15H34.5V5.25C34.5 4.836 34.1647 4.5 33.75 4.5H6.75C6.33525 4.5 6 4.836 6 5.25V21H3V5.25C3 4.0095 4.0095 3 5.25 3ZM22.5 22.5C22.326 22.674 22.1407 22.8382 21.9772 23.022L20.259 22.5H22.5ZM3 24.75V22.5H19.6567C19.5308 22.5518 19.4167 22.6328 19.3328 22.749C18.7493 23.5597 18.246 24.4275 17.838 25.3298C17.7052 25.6222 17.7743 25.9665 18.009 26.1863L18.8775 27H5.25C4.0095 27 3 25.9905 3 24.75ZM14.775 28.5H19.125C19.0912 28.638 19.0553 28.7753 19.0267 28.9148L17.151 29.3528C16.8383 29.4255 16.6065 29.6895 16.575 30.009C16.5255 30.5145 16.5 31.0163 16.5 31.5C16.5 31.9837 16.5255 32.4847 16.5758 32.991C16.6073 33.3105 16.839 33.5745 17.1517 33.6472L19.0275 34.0853C19.1085 34.479 19.221 34.8652 19.3387 35.25H12.321L14.775 28.5ZM9.75 38.25C8.772 38.25 7.938 37.623 7.62825 36.75H18.0765L18.0082 36.8138C17.7743 37.0327 17.7052 37.377 17.8372 37.6702C17.9265 37.8675 18.0375 38.0565 18.1357 38.25H9.75ZM44.9745 32.3115L43.1543 32.7367C42.8587 32.8057 42.6345 33.0457 42.585 33.345C42.4665 34.0627 42.2767 34.7723 42.021 35.4533C41.9145 35.7368 41.9895 36.057 42.2107 36.264L43.5653 37.5337C43.3245 38.0152 43.0515 38.4847 42.753 38.9362L40.9897 38.4C40.6987 38.3107 40.3845 38.4067 40.1925 38.6408C39.729 39.2048 39.207 39.7267 38.6408 40.1925C38.4067 40.3853 38.3123 40.6995 38.4 40.9897L38.9362 42.753C38.4832 43.0522 38.0145 43.3245 37.5337 43.566L36.2648 42.2107C36.0578 41.9895 35.7352 41.9145 35.454 42.0218C34.7752 42.2767 34.0658 42.4665 33.345 42.5857C33.0457 42.6353 32.8057 42.8595 32.7367 43.155L32.3123 44.9753C31.7603 45.009 31.2412 45.009 30.6892 44.9753L30.2648 43.155C30.1958 42.8595 29.9565 42.6353 29.6565 42.5857C28.9357 42.4665 28.227 42.276 27.5475 42.0218C27.2647 41.9152 26.943 41.9895 26.7367 42.2107L25.4678 43.566C24.9855 43.3245 24.516 43.0522 24.0645 42.753L24.6015 40.9905C24.6892 40.7002 24.594 40.386 24.3607 40.1932C23.7952 39.7282 23.2733 39.2062 22.809 38.6415C22.6163 38.4075 22.3013 38.3123 22.0118 38.4007L20.2485 38.9362C19.9492 38.484 19.677 38.0152 19.4355 37.5337L20.7908 36.264C21.012 36.057 21.087 35.7368 20.9805 35.4533C20.7248 34.7715 20.535 34.062 20.4165 33.3442C20.3678 33.045 20.1427 32.805 19.8472 32.736L18.027 32.3108C18.009 32.0363 18 31.7647 18 31.5C18 31.2353 18.009 30.9637 18.0255 30.6885L19.8458 30.2633C20.1413 30.1943 20.3655 29.9543 20.415 29.655C20.5335 28.9365 20.7232 28.227 20.979 27.5467C21.0863 27.2633 21.0112 26.943 20.79 26.7352L19.4347 25.4655C19.6755 24.984 19.9485 24.5152 20.247 24.063L22.0103 24.5985C22.3005 24.6863 22.6155 24.591 22.8075 24.3577C23.2717 23.7938 23.793 23.2718 24.3592 22.806C24.5933 22.6133 24.6877 22.299 24.6 22.0087L24.0637 20.2455C24.5167 19.9462 24.9855 19.674 25.4663 19.4325L26.7352 20.7878C26.9415 21.009 27.2633 21.0833 27.546 20.9767C28.2248 20.7218 28.9342 20.532 29.655 20.4128C29.9543 20.3632 30.1943 20.139 30.2633 19.8435L30.6877 18.0233C31.2397 17.9895 31.7588 17.9895 32.3108 18.0233L32.7352 19.8435C32.8042 20.139 33.0435 20.3632 33.3435 20.4128C34.0643 20.532 34.773 20.7225 35.4525 20.9767C35.7337 21.0833 36.0563 21.0082 36.2633 20.7878L37.5322 19.4325C38.0145 19.674 38.484 19.9462 38.9355 20.2455L38.3985 22.008C38.3108 22.2983 38.406 22.6125 38.6393 22.8053C39.2048 23.2703 39.7267 23.7923 40.191 24.357C40.3838 24.591 40.698 24.687 40.9883 24.5978L42.7515 24.0623C43.0508 24.5145 43.323 24.9832 43.5645 25.4647L42.2093 26.7345C41.988 26.9415 41.913 27.2618 42.0195 27.5452C42.2752 28.227 42.465 28.9365 42.5835 29.6543C42.6323 29.9535 42.8573 30.1935 43.1527 30.2625L44.973 30.6877C44.991 30.9637 45 31.2353 45 31.5C45 31.7647 44.991 32.0363 44.9745 32.3115Z" fill="#222222"/>
<path d="M36.75 31.5C36.75 28.605 34.3942 26.25 31.5 26.25C28.6058 26.25 26.25 28.605 26.25 31.5C26.25 34.395 28.6058 36.75 31.5 36.75C34.3942 36.75 36.75 34.395 36.75 31.5ZM31.5 35.25C29.4323 35.25 27.75 33.5677 27.75 31.5C27.75 29.4323 29.4323 27.75 31.5 27.75C33.5677 27.75 35.25 29.4323 35.25 31.5C35.25 33.5677 33.5677 35.25 31.5 35.25Z" fill="#222222"/>
<path d="M25.4209 27.1065L24.2066 26.2267C23.8909 26.6617 23.6134 27.1282 23.3809 27.6127L24.7331 28.2615C24.9266 27.858 25.1584 27.4687 25.4209 27.1065Z" fill="#222222"/>
<path d="M31.1414 24.009L31.0709 22.5105C30.5332 22.536 29.9954 22.6095 29.4727 22.7295L29.8094 24.1912C30.2459 24.0915 30.6937 24.03 31.1414 24.009Z" fill="#222222"/>
<path d="M37.0873 24.4448L36.1543 25.6193C36.5053 25.8975 36.8338 26.2095 37.1308 26.5463L38.2558 25.5548C37.9003 25.152 37.5073 24.7785 37.0873 24.4448Z" fill="#222222"/>
<path d="M24.2722 33.5107L22.8262 33.9097C22.9679 34.4257 23.1599 34.9335 23.3954 35.4195L24.7462 34.7662C24.5497 34.3612 24.3907 33.9382 24.2722 33.5107Z" fill="#222222"/>
<path d="M27.9291 24.903L27.2128 23.5845C26.7418 23.8402 26.2911 24.141 25.8711 24.477L26.8101 25.647C27.1596 25.3665 27.5361 25.116 27.9291 24.903Z" fill="#222222"/>
<path d="M38.8809 32.8395L40.3576 33.1058C40.4521 32.5808 40.5001 32.0408 40.5001 31.5V31.4678L39.0001 31.5C39.0001 31.9515 38.9596 32.4023 38.8809 32.8395Z" fill="#222222"/>
<path d="M31.8438 38.9925L31.9113 40.491C32.4498 40.4662 32.9875 40.3942 33.5103 40.275L33.1765 38.8125C32.7408 38.9115 32.293 38.9723 31.8438 38.9925Z" fill="#222222"/>
<path d="M37.5703 35.9062L38.7831 36.789C39.0988 36.3547 39.3778 35.889 39.6111 35.4045L38.2603 34.7535C38.0653 35.1562 37.8328 35.5447 37.5703 35.9062Z" fill="#222222"/>
<path d="M38.7235 29.4758L40.1695 29.0745C40.0263 28.5578 39.8328 28.05 39.5958 27.5648L38.248 28.2218C38.4445 28.6253 38.605 29.0468 38.7235 29.4758Z" fill="#222222"/>
<path d="M35.0586 38.1037L35.7703 39.4237C36.2421 39.1695 36.6943 38.8702 37.1151 38.5335L36.1791 37.362C35.8281 37.6417 35.4516 37.8915 35.0586 38.1037Z" fill="#222222"/>
<path d="M27.9707 39.7822C28.4657 39.9937 28.9832 40.1602 29.5075 40.2787L29.8367 38.8155C29.401 38.7172 28.9712 38.5785 28.5595 38.4022L27.9707 39.7822Z" fill="#222222"/>
<path d="M25.8585 36.4425L24.7305 37.431C25.0852 37.8353 25.4775 38.2095 25.8982 38.544L26.8312 37.3703C26.481 37.092 26.1532 36.78 25.8585 36.4425Z" fill="#222222"/>
<path d="M35.0125 23.211C34.519 23.001 34.0015 22.8353 33.475 22.7175L33.1465 24.1808C33.5845 24.279 34.015 24.417 34.4245 24.5918L35.0125 23.211Z" fill="#222222"/>
<path d="M24.1162 30.1755L22.6395 29.9122C22.5465 30.4327 22.5 30.9667 22.5 31.5V31.5165L24 31.5C24 31.0552 24.0397 30.609 24.1162 30.1755Z" fill="#222222"/>
<path d="M28.2803 8.46973L27.2197 9.53023L28.9395 11.25H19.5C17.4323 11.25 15.75 12.9322 15.75 15V19.5H17.25V15C17.25 13.7595 18.2595 12.75 19.5 12.75H28.9395L27.2197 14.4697L28.2803 15.5302L31.2803 12.5302C31.5735 12.237 31.5735 11.763 31.2803 11.4697L28.2803 8.46973Z" fill="#222222"/>
<path d="M9 7.5H10.5V9H9V7.5Z" fill="#222222"/>
<path d="M12 7.5H13.5V9H12V7.5Z" fill="#222222"/>
<path d="M15 7.5H16.5V9H15V7.5Z" fill="#222222"/>
</svg>
