<svg width="48" height="48" viewBox="0 0 48 48" fill="none" xmlns="http://www.w3.org/2000/svg">
<g clip-path="url(#clip0_1005_19165)">
<path d="M21.7614 24.8678L24.8671 21.7616C24.9281 21.7007 24.9765 21.6284 25.0095 21.5488C25.0425 21.4692 25.0595 21.3839 25.0595 21.2977C25.0595 21.2116 25.0425 21.1263 25.0095 21.0467C24.9765 20.9671 24.9281 20.8948 24.8671 20.8339L23.2126 19.1794C23.5527 18.5561 23.8254 17.8984 24.026 17.2174H26.3645C26.5385 17.2174 26.7055 17.1482 26.8285 17.0252C26.9516 16.9021 27.0207 16.7352 27.0207 16.5611V12.1691C27.0207 11.9951 26.9516 11.8282 26.8285 11.7051C26.7055 11.582 26.5385 11.5129 26.3645 11.5129H24.0312C23.8305 10.8309 23.5569 10.1725 23.2152 9.549L24.8671 7.89675C24.9281 7.83584 24.9765 7.7635 25.0095 7.68387C25.0425 7.60424 25.0595 7.51889 25.0595 7.43269C25.0595 7.34649 25.0425 7.26113 25.0095 7.18151C24.9765 7.10188 24.9281 7.02954 24.8671 6.96862L21.7614 3.8625C21.7005 3.80152 21.6282 3.75314 21.5486 3.72014C21.469 3.68713 21.3837 3.67014 21.2975 3.67014C21.2113 3.67014 21.126 3.68713 21.0464 3.72014C20.9668 3.75314 20.8945 3.80152 20.8336 3.8625L19.1814 5.51512C18.5579 5.17348 17.8995 4.89991 17.2175 4.69912V2.36512C17.2175 2.27893 17.2006 2.19357 17.1676 2.11393C17.1347 2.03429 17.0863 1.96192 17.0254 1.90098C16.9644 1.84003 16.8921 1.79169 16.8124 1.75873C16.7328 1.72577 16.6474 1.70883 16.5612 1.70887H12.1689C12.0827 1.70883 11.9973 1.72577 11.9177 1.75873C11.838 1.79169 11.7657 1.84003 11.7047 1.90098C11.6438 1.96192 11.5954 2.03429 11.5625 2.11393C11.5295 2.19357 11.5126 2.27893 11.5126 2.36512V4.70325C10.8317 4.90411 10.1741 5.1769 9.55098 5.517L7.89686 3.8625C7.83595 3.80151 7.76361 3.75313 7.68398 3.72011C7.60435 3.6871 7.519 3.67011 7.4328 3.67011C7.3466 3.67011 7.26124 3.6871 7.18162 3.72011C7.10199 3.75313 7.02965 3.80151 6.96873 3.8625L3.86261 6.96862C3.80162 7.02954 3.75323 7.10188 3.72022 7.18151C3.68721 7.26113 3.67022 7.34649 3.67022 7.43269C3.67022 7.51889 3.68721 7.60424 3.72022 7.68387C3.75323 7.7635 3.80162 7.83584 3.86261 7.89675L5.51636 9.55087C5.17628 10.1742 4.90349 10.8319 4.70261 11.5129H2.36523C2.27904 11.5128 2.19368 11.5298 2.11404 11.5627C2.0344 11.5957 1.96203 11.644 1.90109 11.705C1.84014 11.7659 1.7918 11.8383 1.75884 11.9179C1.72588 11.9976 1.70894 12.0829 1.70898 12.1691V16.5611C1.70894 16.6473 1.72588 16.7327 1.75884 16.8123C1.7918 16.892 1.84014 16.9643 1.90109 17.0253C1.96203 17.0862 2.0344 17.1346 2.11404 17.1675C2.19368 17.2005 2.27904 17.2174 2.36523 17.2174H4.69886C4.89974 17.8994 5.17344 18.5578 5.51523 19.1813L3.86261 20.8339C3.80163 20.8948 3.75325 20.9671 3.72025 21.0467C3.68724 21.1263 3.67025 21.2116 3.67025 21.2977C3.67025 21.3839 3.68724 21.4692 3.72025 21.5488C3.75325 21.6284 3.80163 21.7007 3.86261 21.7616L6.96798 24.8678C7.09115 24.9907 7.25805 25.0597 7.43205 25.0597C7.60605 25.0597 7.77294 24.9907 7.89611 24.8678L9.54836 23.2151C10.172 23.5568 10.8305 23.8305 11.5126 24.0315V26.3655C11.5126 26.5395 11.5817 26.7065 11.7048 26.8295C11.8279 26.9526 11.9948 27.0217 12.1689 27.0217H16.5612C16.7353 27.0217 16.9022 26.9526 17.0253 26.8295C17.1483 26.7065 17.2175 26.5395 17.2175 26.3655V24.027C17.8984 23.8261 18.556 23.5534 19.1791 23.2133L20.8336 24.8678C20.9567 24.9907 21.1235 25.0598 21.2975 25.0598C21.4715 25.0598 21.6383 24.9907 21.7614 24.8678ZM19.751 21.9289C19.6468 21.8245 19.5104 21.7583 19.3638 21.741C19.2173 21.7237 19.0693 21.7563 18.9436 21.8336C18.1596 22.3157 17.3039 22.6701 16.4086 22.8836C16.2653 22.918 16.1378 22.9996 16.0464 23.1152C15.9551 23.2308 15.9053 23.3738 15.905 23.5211V25.7074H12.8251V23.5271C12.8249 23.3796 12.775 23.2365 12.6835 23.1209C12.592 23.0052 12.4642 22.9238 12.3207 22.8896C11.4256 22.6755 10.5704 22.3197 9.78761 21.8355C9.66182 21.7579 9.51354 21.7251 9.36675 21.7422C9.21997 21.7594 9.08326 21.8255 8.97873 21.93L7.43261 23.475L5.25536 21.297L6.80036 19.7516C6.90475 19.6471 6.97086 19.5105 6.98801 19.3638C7.00515 19.2171 6.97234 19.0689 6.89486 18.9431C6.41073 18.1599 6.0551 17.3042 5.84148 16.4085C5.80735 16.265 5.72589 16.1372 5.61023 16.0457C5.49457 15.9542 5.35146 15.9043 5.20398 15.9041H3.02148V12.825H5.20736C5.35472 12.8248 5.49772 12.775 5.61335 12.6836C5.72898 12.5923 5.81052 12.4647 5.84486 12.3214C6.05815 11.4263 6.41258 10.5708 6.89486 9.78713C6.97202 9.66129 7.00458 9.51315 6.9873 9.36655C6.97002 9.21996 6.90391 9.08345 6.79961 8.979L5.25536 7.4325L7.43261 5.25525L8.97911 6.80175C9.08346 6.90608 9.21992 6.97222 9.36646 6.9895C9.51301 7.00678 9.6611 6.97419 9.78686 6.897C10.5708 6.41495 11.4263 6.06053 12.3215 5.847C12.4648 5.8126 12.5923 5.73104 12.6836 5.61543C12.775 5.49981 12.8248 5.35684 12.8251 5.2095V3.02137H15.905V5.2035C15.9052 5.35098 15.9551 5.49409 16.0466 5.60975C16.1381 5.7254 16.2659 5.80687 16.4094 5.841C17.305 6.05455 18.1607 6.41004 18.944 6.894C19.0696 6.97181 19.2179 7.00482 19.3647 6.98766C19.5115 6.9705 19.6482 6.90419 19.7525 6.7995L21.2975 5.2545L23.4751 7.4325L21.9301 8.97787C21.8257 9.08247 21.7597 9.21916 21.7425 9.36592C21.7254 9.51267 21.7582 9.66092 21.8356 9.78675C22.3197 10.5698 22.6752 11.4254 22.8886 12.321C22.9227 12.4645 23.0042 12.5923 23.1199 12.6838C23.2355 12.7753 23.3786 12.8252 23.5261 12.8254H25.7082V15.9049H23.522C23.3746 15.9052 23.2316 15.9551 23.116 16.0465C23.0003 16.1379 22.9188 16.2655 22.8845 16.4089C22.671 17.3041 22.3166 18.1596 21.8345 18.9435C21.7572 19.0692 21.7245 19.2172 21.7418 19.3637C21.7591 19.5103 21.8253 19.6467 21.9297 19.7509L23.4751 21.2977L21.2975 23.475L19.751 21.9289Z" fill="#222222"/>
<path d="M14.3645 8.68425C13.2409 8.68425 12.1426 9.01743 11.2083 9.64165C10.2741 10.2659 9.546 11.1531 9.11603 12.1911C8.68606 13.2292 8.57355 14.3714 8.79275 15.4734C9.01195 16.5754 9.553 17.5876 10.3475 18.3821C11.142 19.1766 12.1542 19.7176 13.2562 19.9368C14.3582 20.156 15.5004 20.0435 16.5384 19.6136C17.5765 19.1836 18.4637 18.4555 19.0879 17.5213C19.7122 16.587 20.0453 15.4887 20.0453 14.3651C20.0437 12.859 19.4446 11.415 18.3796 10.35C17.3146 9.285 15.8706 8.68594 14.3645 8.68425ZM14.3645 18.7343C13.5005 18.7343 12.656 18.4781 11.9376 17.9981C11.2193 17.5181 10.6593 16.8359 10.3287 16.0378C9.99804 15.2396 9.91148 14.3613 10.08 13.5139C10.2485 12.6666 10.6644 11.8882 11.2753 11.2772C11.8862 10.6663 12.6645 10.2502 13.5118 10.0815C14.3591 9.91289 15.2374 9.99929 16.0357 10.3298C16.8339 10.6603 17.5162 11.2201 17.9963 11.9384C18.4764 12.6567 18.7327 13.5012 18.7328 14.3651C18.7315 15.5233 18.2708 16.6336 17.4518 17.4525C16.6329 18.2714 15.5226 18.7321 14.3645 18.7335V18.7343Z" fill="#222222"/>
<path d="M45.6348 30.7826H43.3008C43.1 30.1006 42.8264 29.4422 42.4848 28.8187L44.137 27.1661C44.198 27.1052 44.2464 27.0329 44.2794 26.9533C44.3124 26.8737 44.3294 26.7884 44.3294 26.7022C44.3294 26.6161 44.3124 26.5308 44.2794 26.4512C44.2464 26.3716 44.198 26.2993 44.137 26.2384L41.0313 23.133C40.9704 23.072 40.898 23.0236 40.8184 22.9906C40.7388 22.9576 40.6534 22.9406 40.5672 22.9406C40.481 22.9406 40.3956 22.9576 40.316 22.9906C40.2364 23.0236 40.1641 23.072 40.1031 23.133L38.4509 24.7849C37.8275 24.4433 37.1692 24.1696 36.4874 23.9685V21.6345C36.4874 21.4605 36.4183 21.2935 36.2952 21.1705C36.1721 21.0474 36.0052 20.9782 35.8311 20.9782H31.4388C31.2647 20.9782 31.0978 21.0474 30.9747 21.1705C30.8517 21.2935 30.7825 21.4605 30.7825 21.6345V23.973C30.1015 24.1738 29.4438 24.4466 28.8205 24.7867L27.1664 23.133C27.1055 23.072 27.0332 23.0236 26.9536 22.9906C26.874 22.9576 26.7887 22.9406 26.7025 22.9406C26.6163 22.9406 26.531 22.9576 26.4514 22.9906C26.3718 23.0236 26.2995 23.072 26.2386 23.133L23.1325 26.2384C23.0095 26.3614 22.9405 26.5283 22.9405 26.7022C22.9405 26.8762 23.0095 27.0431 23.1325 27.1661L24.7874 28.8206C24.4472 29.4438 24.1745 30.1015 23.974 30.7826H21.6348C21.4607 30.7826 21.2938 30.8518 21.1707 30.9748C21.0477 31.0979 20.9785 31.2648 20.9785 31.4389V35.8309C20.9785 36.0049 21.0477 36.1718 21.1707 36.2949C21.2938 36.418 21.4607 36.4871 21.6348 36.4871H23.9688C24.1695 37.1691 24.4431 37.8275 24.7848 38.451L23.1325 40.1032C23.0095 40.2264 22.9404 40.3933 22.9404 40.5673C22.9404 40.7413 23.0095 40.9083 23.1325 41.0314L26.2386 44.1375C26.2995 44.1985 26.3718 44.2469 26.4514 44.2799C26.531 44.3129 26.6163 44.3299 26.7025 44.3299C26.7887 44.3299 26.874 44.3129 26.9536 44.2799C27.0332 44.2469 27.1055 44.1985 27.1664 44.1375L28.8186 42.4875C29.4421 42.8292 30.1005 43.1028 30.7825 43.3035V45.6375C30.7825 45.7237 30.7994 45.809 30.8324 45.8887C30.8653 45.9683 30.9137 46.0407 30.9746 46.1016C31.0356 46.1626 31.1079 46.2109 31.1876 46.2439C31.2672 46.2769 31.3526 46.2938 31.4388 46.2937H35.8308C35.917 46.2938 36.0023 46.2769 36.082 46.2439C36.1616 46.2109 36.234 46.1626 36.2949 46.1016C36.3559 46.0407 36.4042 45.9683 36.4372 45.8887C36.4701 45.809 36.4871 45.7237 36.487 45.6375V43.2994C37.1681 43.0985 37.8258 42.8256 38.449 42.4852L40.1031 44.1394C40.1641 44.2004 40.2364 44.2487 40.316 44.2818C40.3956 44.3148 40.481 44.3318 40.5672 44.3318C40.6534 44.3318 40.7388 44.3148 40.8184 44.2818C40.898 44.2487 40.9704 44.2004 41.0313 44.1394L44.137 41.034C44.198 40.9731 44.2464 40.9007 44.2794 40.8211C44.3124 40.7415 44.3294 40.6561 44.3294 40.5699C44.3294 40.4837 44.3124 40.3984 44.2794 40.3188C44.2464 40.2391 44.198 40.1668 44.137 40.1059L42.4829 38.4514C42.823 37.8282 43.0958 37.1707 43.2966 36.4897H45.6348C45.721 36.4898 45.8063 36.4729 45.886 36.4399C45.9656 36.4069 46.038 36.3586 46.0989 36.2976C46.1599 36.2367 46.2082 36.1643 46.2412 36.0847C46.2741 36.0051 46.2911 35.9197 46.291 35.8335V31.4389C46.2911 31.3527 46.2741 31.2673 46.2412 31.1877C46.2082 31.108 46.1599 31.0357 46.0989 30.9747C46.038 30.9138 45.9656 30.8654 45.886 30.8325C45.8063 30.7995 45.721 30.7826 45.6348 30.7826ZM44.9785 35.175H42.7926C42.6453 35.1752 42.5023 35.225 42.3867 35.3164C42.271 35.4077 42.1895 35.5353 42.1551 35.6786C41.9416 36.5738 41.5872 37.4293 41.1051 38.2132C41.028 38.339 40.9955 38.4871 41.0127 38.6336C41.03 38.7802 41.0961 38.9166 41.2004 39.021L42.7473 40.5679L40.5696 42.7451L39.0231 41.1986C38.9187 41.0945 38.7822 41.0285 38.6358 41.0112C38.4893 40.9939 38.3412 41.0264 38.2154 41.1034C37.4313 41.5854 36.5756 41.9398 35.6804 42.1534C35.5371 42.1877 35.4095 42.2692 35.3181 42.3849C35.2268 42.5005 35.177 42.6435 35.1768 42.7909V44.9767H32.095V42.7946C32.0948 42.6471 32.0449 42.504 31.9534 42.3884C31.8619 42.2727 31.7341 42.1913 31.5906 42.1571C30.695 41.9436 29.8393 41.5881 29.056 41.1041C28.9303 41.0264 28.7821 40.9934 28.6353 41.0106C28.4885 41.0277 28.3519 41.094 28.2475 41.1986L26.7025 42.7436L24.5249 40.5675L26.0699 39.0221C26.1744 38.9176 26.2406 38.7809 26.2578 38.6341C26.2749 38.4873 26.242 38.339 26.1644 38.2132C25.6805 37.4301 25.3252 36.5745 25.1118 35.679C25.0776 35.5355 24.9962 35.4077 24.8805 35.3162C24.7649 35.2247 24.6217 35.1748 24.4743 35.1746H22.291V32.0951H24.4769C24.6243 32.0948 24.7673 32.0449 24.8829 31.9535C24.9985 31.8621 25.0801 31.7345 25.1144 31.5911C25.3279 30.6959 25.6823 29.8404 26.1644 29.0565C26.2417 28.9308 26.2743 28.7828 26.257 28.6363C26.2398 28.4897 26.1736 28.3533 26.0691 28.2491L24.5249 26.7022L26.7025 24.525L28.249 26.0715C28.3532 26.176 28.4896 26.2423 28.6361 26.2596C28.7827 26.2769 28.9308 26.2442 29.0564 26.1667C29.8404 25.6847 30.6961 25.3303 31.5914 25.1167C31.7347 25.0824 31.8622 25.0008 31.9536 24.8852C32.0449 24.7696 32.0947 24.6266 32.095 24.4792V22.293H35.1749V24.4751C35.1751 24.6226 35.225 24.7657 35.3165 24.8814C35.408 24.997 35.5358 25.0785 35.6793 25.1126C36.5748 25.3264 37.4303 25.682 38.2135 26.166C38.3392 26.2438 38.4876 26.2768 38.6344 26.2596C38.7812 26.2424 38.918 26.1762 39.0224 26.0715L40.5674 24.525L42.745 26.7026L41.1996 28.248C41.0952 28.3525 41.029 28.4891 41.0119 28.6358C40.9947 28.7825 41.0276 28.9308 41.1051 29.0565C41.5891 29.8396 41.9444 30.6952 42.1578 31.5907C42.1918 31.7343 42.2733 31.8622 42.3889 31.9538C42.5046 32.0453 42.6477 32.0953 42.7953 32.0955H44.9774L44.9785 35.175Z" fill="#222222"/>
<path d="M33.636 27.954C32.5124 27.954 31.414 28.2872 30.4798 28.9114C29.5456 29.5356 28.8175 30.4229 28.3875 31.4609C27.9575 32.4989 27.845 33.6412 28.0642 34.7432C28.2834 35.8451 28.8245 36.8574 29.619 37.6519C30.4135 38.4463 31.4257 38.9874 32.5277 39.2066C33.6297 39.4258 34.7719 39.3133 35.8099 38.8833C36.848 38.4533 37.7352 37.7252 38.3594 36.791C38.9837 35.8568 39.3168 34.7584 39.3168 33.6349C39.3151 32.1287 38.7161 30.6848 37.6511 29.6198C36.5861 28.5547 35.1421 27.9557 33.636 27.954ZM33.636 38.004C32.772 38.004 31.9274 37.7478 31.209 37.2678C30.4906 36.7878 29.9307 36.1055 29.6001 35.3073C29.2695 34.5091 29.183 33.6308 29.3515 32.7834C29.5201 31.936 29.9361 31.1576 30.547 30.5467C31.158 29.9358 31.9363 29.5197 32.7837 29.3512C33.6311 29.1826 34.5094 29.2691 35.3077 29.5998C36.1059 29.9304 36.7881 30.4903 37.2681 31.2087C37.7481 31.9271 38.0043 32.7716 38.0043 33.6356C38.0028 34.7937 37.5421 35.9038 36.7232 36.7226C35.9042 37.5414 34.794 38.002 33.636 38.0032V38.004Z" fill="#222222"/>
<path d="M28.7658 7.82138C32.5787 8.94385 35.8715 11.379 38.0616 14.6959C37.5364 15.1713 37.2043 15.8233 37.1285 16.5277C37.0527 17.2321 37.2386 17.9398 37.6507 18.5161C38.0628 19.0924 38.6723 19.4971 39.3634 19.6532C40.0545 19.8092 40.7788 19.7058 41.3986 19.3625C42.0183 19.0192 42.4902 18.46 42.7245 17.7914C42.9588 17.1227 42.9391 16.3913 42.6691 15.7363C42.3991 15.0813 41.8978 14.5483 41.2604 14.239C40.623 13.9296 39.8942 13.8653 39.2125 14.0584C36.8532 10.4401 33.2804 7.7822 29.1366 6.5625C29.0534 6.53629 28.9659 6.52693 28.879 6.53496C28.7921 6.543 28.7078 6.56827 28.6308 6.60929C28.5538 6.65032 28.4858 6.70628 28.4307 6.77391C28.3756 6.84153 28.3345 6.91946 28.3099 7.00314C28.2853 7.08682 28.2776 7.17457 28.2873 7.26126C28.2969 7.34794 28.3238 7.43183 28.3663 7.50802C28.4088 7.5842 28.466 7.65115 28.5347 7.70496C28.6033 7.75876 28.6816 7.79834 28.7658 7.82138ZM41.5491 16.8278C41.5491 17.1372 41.4574 17.4397 41.2855 17.6969C41.1136 17.9542 40.8692 18.1547 40.5834 18.2732C40.2975 18.3916 39.9829 18.4226 39.6794 18.3622C39.3759 18.3018 39.0972 18.1528 38.8784 17.934C38.6596 17.7152 38.5106 17.4365 38.4502 17.133C38.3898 16.8295 38.4208 16.5149 38.5392 16.229C38.6576 15.9432 38.8582 15.6988 39.1155 15.5269C39.3727 15.355 39.6752 15.2633 39.9846 15.2633C40.3995 15.2636 40.7972 15.4286 41.0905 15.7219C41.3838 16.0152 41.5487 16.4129 41.5491 16.8278Z" fill="#222222"/>
<path d="M19.2326 40.1786C15.4204 39.0558 12.1282 36.6206 9.93857 33.3041C10.4638 32.8287 10.7959 32.1767 10.8717 31.4723C10.9475 30.7679 10.7617 30.0602 10.3496 29.4839C9.93747 28.9076 9.32788 28.5029 8.6368 28.3468C7.94572 28.1908 7.22138 28.2942 6.60163 28.6375C5.98188 28.9808 5.50997 29.54 5.27571 30.2086C5.04144 30.8773 5.06117 31.6087 5.33113 32.2637C5.6011 32.9187 6.10247 33.4517 6.73982 33.761C7.37718 34.0704 8.10604 34.1347 8.7877 33.9416C11.1465 37.5596 14.7186 40.2175 18.8617 41.4375C18.922 41.4553 18.9845 41.4643 19.0473 41.4641C19.2049 41.4638 19.3572 41.4067 19.4762 41.3034C19.5952 41.2 19.673 41.0573 19.6955 40.9013C19.7179 40.7453 19.6834 40.5864 19.5984 40.4537C19.5133 40.321 19.3833 40.2234 19.2322 40.1786H19.2326ZM6.4492 31.1722C6.44935 30.8629 6.54123 30.5604 6.71323 30.3033C6.88523 30.0461 7.12962 29.8457 7.41551 29.7274C7.7014 29.6091 8.01594 29.5782 8.31938 29.6387C8.62281 29.6991 8.90151 29.8482 9.12023 30.067C9.33896 30.2858 9.48789 30.5646 9.54819 30.8681C9.6085 31.1715 9.57747 31.486 9.45904 31.7719C9.3406 32.0577 9.14008 32.302 8.88281 32.4739C8.62555 32.6458 8.3231 32.7375 8.0137 32.7375C7.59876 32.7371 7.20094 32.572 6.90761 32.2786C6.61427 31.9851 6.4494 31.5872 6.4492 31.1722Z" fill="#222222"/>
</g>
<defs>
<clipPath id="clip0_1005_19165">
<rect width="48" height="48" fill="white"/>
</clipPath>
</defs>
</svg>
