<svg width="48" height="48" viewBox="0 0 48 48" fill="none" xmlns="http://www.w3.org/2000/svg">
<path d="M3.2 30.4H20.8V30.4128C20.8 43.2432 31.0224 45.9376 33.0704 46.3472C33.2448 46.3822 33.4222 46.3999 33.6 46.4C33.7771 46.3999 33.9537 46.3822 34.1272 46.3472C36.1776 45.9376 46.4 43.2432 46.4 30.4128V22.7328C46.4027 22.2621 46.2242 21.8084 45.9014 21.4658C45.5787 21.1233 45.1364 20.9181 44.6664 20.8928C43.6331 20.8454 42.6065 20.7016 41.6 20.4632V4.79998C41.6 3.95128 41.2629 3.13735 40.6627 2.53723C40.0626 1.93712 39.2487 1.59998 38.4 1.59998H3.2C2.35131 1.59998 1.53737 1.93712 0.937258 2.53723C0.337142 3.13735 0 3.95128 0 4.79998L0 27.2C0 28.0487 0.337142 28.8626 0.937258 29.4627C1.53737 30.0628 2.35131 30.4 3.2 30.4ZM44.8 22.7344V30.4144C44.8 41.996 35.6488 44.4144 33.8128 44.78C33.6719 44.8095 33.5265 44.8095 33.3856 44.78C31.5512 44.4112 22.4 41.9944 22.4 30.4128V22.7328C22.3996 22.6737 22.421 22.6165 22.4601 22.5723C22.4992 22.528 22.5533 22.4997 22.612 22.4928C28.6256 22.2008 31.964 19.3552 33.4192 17.6848C33.4413 17.6581 33.469 17.6366 33.5003 17.6219C33.5316 17.6072 33.5658 17.5995 33.6004 17.5995C33.635 17.5995 33.6692 17.6072 33.7005 17.6219C33.7318 17.6366 33.7595 17.6581 33.7816 17.6848C35.236 19.3544 38.5744 22.2 44.588 22.492C44.6471 22.4989 44.7015 22.5276 44.7407 22.5723C44.7799 22.6171 44.801 22.6749 44.8 22.7344ZM34.988 16.6352C34.8108 16.4442 34.5961 16.2919 34.3574 16.1877C34.1186 16.0835 33.8609 16.0297 33.6004 16.0297C33.3399 16.0297 33.0822 16.0835 32.8434 16.1877C32.6047 16.2919 32.39 16.4442 32.2128 16.6352C30.9248 18.1136 27.9552 20.6352 22.5328 20.8952C22.0631 20.9206 21.6211 21.1258 21.2986 21.4682C20.976 21.8106 20.7975 22.264 20.8 22.7344V28.8H3.2C2.77565 28.8 2.36869 28.6314 2.06863 28.3314C1.76857 28.0313 1.6 27.6243 1.6 27.2V13.6H40V19.984C38.074 19.3075 36.3501 18.1556 34.988 16.6352ZM40 12H1.6V7.99998H40V12ZM3.2 3.19998H38.4C38.8243 3.19998 39.2313 3.36855 39.5314 3.6686C39.8314 3.96866 40 4.37563 40 4.79998V6.39998H1.6V4.79998C1.6 4.37563 1.76857 3.96866 2.06863 3.6686C2.36869 3.36855 2.77565 3.19998 3.2 3.19998Z" fill="#222222"/>
<path d="M28.5648 33.8345C28.4139 33.6887 28.2118 33.6081 28.002 33.6099C27.7923 33.6117 27.5916 33.6959 27.4433 33.8442C27.295 33.9925 27.2108 34.1932 27.209 34.4029C27.2072 34.6127 27.2878 34.8148 27.4336 34.9657L30.6336 38.1657C30.7835 38.3157 30.987 38.4 31.1992 38.4001H31.2656C31.3812 38.3903 31.4934 38.3554 31.5942 38.298C31.695 38.2405 31.7822 38.1618 31.8496 38.0673L39.8496 26.8673C39.9664 26.6944 40.0111 26.4828 39.9742 26.2775C39.9373 26.0722 39.8216 25.8894 39.6518 25.7681C39.482 25.6469 39.2716 25.5967 39.0654 25.6284C38.8592 25.6601 38.6735 25.7711 38.548 25.9377L31.0968 36.3665L28.5648 33.8345Z" fill="#222222"/>
<path d="M13.5992 20.8H3.99922C3.78705 20.8 3.58356 20.8843 3.43353 21.0344C3.2835 21.1844 3.19922 21.3879 3.19922 21.6C3.19922 21.8122 3.2835 22.0157 3.43353 22.1657C3.58356 22.3158 3.78705 22.4 3.99922 22.4H13.5992C13.8114 22.4 14.0149 22.3158 14.1649 22.1657C14.3149 22.0157 14.3992 21.8122 14.3992 21.6C14.3992 21.3879 14.3149 21.1844 14.1649 21.0344C14.0149 20.8843 13.8114 20.8 13.5992 20.8Z" fill="#222222"/>
<path d="M10.3992 24H3.99922C3.78705 24 3.58356 24.0843 3.43353 24.2343C3.2835 24.3843 3.19922 24.5878 3.19922 24.8C3.19922 25.0122 3.2835 25.2157 3.43353 25.3657C3.58356 25.5157 3.78705 25.6 3.99922 25.6H10.3992C10.6114 25.6 10.8149 25.5157 10.9649 25.3657C11.1149 25.2157 11.1992 25.0122 11.1992 24.8C11.1992 24.5878 11.1149 24.3843 10.9649 24.2343C10.8149 24.0843 10.6114 24 10.3992 24Z" fill="#222222"/>
</svg>
