<svg width="24" height="24" viewBox="0 0 24 24" fill="none" xmlns="http://www.w3.org/2000/svg">
<rect y="-0.000183105" width="24" height="24" rx="4" fill="#4E4E4E"/>
<path d="M6.42111 8.37434C6.14017 8.10976 6 7.78241 6 7.39291C6 7.00341 6.14017 6.66129 6.42111 6.3967C6.70206 6.13211 7.0637 5.99982 7.50727 5.99982C7.95083 5.99982 8.29793 6.13211 8.57827 6.3967C8.85921 6.66129 8.99938 6.99357 8.99938 7.39291C8.99938 7.79225 8.85921 8.10976 8.57827 8.37434C8.29732 8.63893 7.94052 8.77122 7.50727 8.77122C7.07402 8.77122 6.70206 8.63893 6.42111 8.37434ZM8.76272 9.89173V17.9998H6.23664V9.89173H8.76272Z" fill="white"/>
<path d="M17.1737 10.6922C17.7241 11.2983 17.9996 12.1308 17.9996 13.1904V17.857H15.5997V13.5196C15.5997 12.9855 15.4632 12.5702 15.1901 12.2742C14.9171 11.9782 14.55 11.8306 14.0888 11.8306C13.6277 11.8306 13.2605 11.9788 12.9875 12.2742C12.7144 12.5702 12.5779 12.9855 12.5779 13.5196V17.857H10.1641V9.86953H12.5779V10.9291C12.8224 10.5759 13.1519 10.2972 13.5663 10.0917C13.9802 9.88676 14.4462 9.784 14.9638 9.784C15.8861 9.784 16.6228 10.0873 17.1731 10.6928L17.1737 10.6922Z" fill="white"/>
</svg>
