<svg width="48" height="48" viewBox="0 0 48 48" fill="none" xmlns="http://www.w3.org/2000/svg">
<g clip-path="url(#clip0_1005_13555)">
<path d="M11.6287 38.0512C8.9118 38.0512 6.70117 35.8406 6.70117 33.1237V30.0112C6.70117 27.2944 8.9118 25.0837 11.6287 25.0837H11.6737C12.0505 25.0837 12.3609 25.3894 12.3609 25.7662C12.3609 26.1431 12.059 26.4487 11.6821 26.4487H11.6287C9.66461 26.4487 8.06711 28.0462 8.06711 30.0103V33.1228C8.06711 35.0869 9.66461 36.6844 11.6287 36.6844C11.7777 36.6844 11.9287 36.675 12.0768 36.6553L12.1199 36.6497H12.164C12.5409 36.6497 12.8474 36.9553 12.8474 37.3322C12.8474 37.6847 12.5802 37.9753 12.2371 38.0109C12.0365 38.0391 11.8312 38.0512 11.6287 38.0512Z" fill="#222222"/>
<path d="M43.0666 37.785C42.8838 37.785 42.7028 37.7746 42.5303 37.755C42.1553 37.7118 41.8872 37.3734 41.9303 36.9984C41.9735 36.6234 42.3128 36.3543 42.6869 36.3984C42.8078 36.4125 42.9353 36.419 43.0666 36.419C45.0306 36.419 46.6281 34.8215 46.6281 32.8575V29.745C46.6281 28.7981 46.2569 27.9046 45.5819 27.2306C44.9078 26.5556 44.0144 26.1843 43.0675 26.1843H43.0553C42.6803 26.2059 42.3616 25.919 42.3381 25.5459C42.3147 25.169 42.6006 24.8447 42.9766 24.8212C43.0056 24.8193 43.0366 24.8193 43.0675 24.8193C44.38 24.8193 45.6166 25.3331 46.5485 26.2659C47.4813 27.1987 47.995 28.4343 47.995 29.7459V32.8584C47.9941 35.5743 45.7835 37.785 43.0666 37.785Z" fill="#222222"/>
<path d="M33.1176 45.1566C32.752 45.1566 32.4492 44.8678 32.4351 44.4994C32.4211 44.1225 32.7154 43.8056 33.0923 43.7915C37.2323 43.6359 40.7929 40.8609 41.9536 36.885C42.2095 36.0112 42.3389 35.1028 42.3389 34.1831V25.7841C42.3389 25.6941 42.3379 25.6041 42.3361 25.515C42.2667 21.6131 40.7086 17.9447 37.9486 15.1837C35.1173 12.3525 31.3523 10.7934 27.3473 10.7934C25.132 10.7934 23.0001 11.265 21.0089 12.1941C20.6667 12.3534 20.2607 12.2062 20.1014 11.8641C19.942 11.5219 20.0892 11.1159 20.4314 10.9566C22.6045 9.94218 24.9314 9.42749 27.3473 9.42749C31.717 9.42749 35.8251 11.1291 38.9142 14.2181C41.9264 17.2312 43.6261 21.2344 43.702 25.4906C43.7039 25.5881 43.7048 25.6856 43.7048 25.785V34.1841C43.7048 35.2331 43.5567 36.2709 43.2651 37.2684C41.9395 41.8087 37.8726 44.9794 33.1439 45.1566C33.1354 45.1566 33.127 45.1566 33.1176 45.1566Z" fill="#222222"/>
<path d="M12.1752 38.0522C11.8837 38.0522 11.6137 37.8637 11.5227 37.5703L11.5115 37.5356C11.1665 36.4603 10.9902 35.3306 10.9902 34.1841V25.7681C10.9921 23.9128 11.3024 22.0941 11.9109 20.3606C12.0355 20.0044 12.4255 19.8178 12.7818 19.9425C13.138 20.0672 13.3246 20.4572 13.1999 20.8134C12.6421 22.4016 12.358 24.0684 12.3562 25.7691V34.1841C12.3562 35.1891 12.5099 36.1781 12.8146 37.1259L12.8277 37.1681C12.9393 37.5281 12.7368 37.9106 12.3759 38.0222C12.3093 38.0419 12.2418 38.0522 12.1752 38.0522Z" fill="#222222"/>
<path d="M30.9539 48H24.7252C23.1558 48 21.8789 46.7231 21.8789 45.1537V43.8103C21.8789 42.2409 23.1558 40.9641 24.7252 40.9641H30.9539C32.5233 40.9641 33.8002 42.2409 33.8002 43.8103V45.1537C33.8002 46.7231 32.5233 48 30.9539 48ZM24.7242 42.3291C23.9077 42.3291 23.2439 42.9928 23.2439 43.8094V45.1528C23.2439 45.9694 23.9086 46.6331 24.7242 46.6331H30.953C31.7695 46.6331 32.4333 45.9684 32.4333 45.1528V43.8094C32.4333 42.9928 31.7686 42.3291 30.953 42.3291H24.7242Z" fill="#222222"/>
<path d="M23.0101 26.9465C21.5541 26.9465 20.3691 25.7615 20.3691 24.3056C20.3691 22.8497 21.5541 21.6647 23.0101 21.6647C24.466 21.6647 25.651 22.8497 25.651 24.3056C25.6501 25.7615 24.466 26.9465 23.0101 26.9465ZM23.0101 23.0306C22.307 23.0306 21.7351 23.6025 21.7351 24.3056C21.7351 25.0087 22.307 25.5806 23.0101 25.5806C23.7132 25.5806 24.2851 25.0087 24.2851 24.3056C24.2851 23.6025 23.7123 23.0306 23.0101 23.0306Z" fill="#222222"/>
<path d="M31.6859 26.9465C30.2299 26.9465 29.0449 25.7615 29.0449 24.3056C29.0449 22.8497 30.2299 21.6647 31.6859 21.6647C33.1418 21.6647 34.3268 22.8497 34.3268 24.3056C34.3268 25.7615 33.1418 26.9465 31.6859 26.9465ZM31.6859 23.0306C30.9827 23.0306 30.4109 23.6025 30.4109 24.3056C30.4109 25.0087 30.9827 25.5806 31.6859 25.5806C32.389 25.5806 32.9609 25.0087 32.9609 24.3056C32.9609 23.6025 32.389 23.0306 31.6859 23.0306Z" fill="#222222"/>
<path d="M27.3486 38.0522C23.6258 38.0522 20.5977 35.0231 20.5977 31.3012V30.6187H34.0995V31.3012C34.0995 35.024 31.0714 38.0522 27.3486 38.0522ZM22.0067 31.9847C22.3433 34.6331 24.6111 36.6872 27.3486 36.6872C30.087 36.6872 32.3539 34.6331 32.6905 31.9847H22.0067Z" fill="#222222"/>
<path d="M10.7395 21.4359C10.373 21.4359 10.0045 21.4172 9.63514 21.3797C6.78702 21.0891 4.22296 19.7072 2.41452 17.4881C0.606082 15.2691 -0.230168 12.4791 0.0604573 9.63093C0.351082 6.78281 1.73389 4.21875 3.95296 2.41031C6.17202 0.601871 8.96296 -0.234379 11.8101 0.0562459C17.6892 0.656246 21.9839 5.92687 21.3848 11.805C21.2461 13.1653 20.8589 14.4619 20.2336 15.6628C20.3705 15.9703 20.8486 16.6284 21.1476 17.04C22.0758 18.3187 22.5511 19.0153 22.3411 19.6453C21.983 20.7187 20.3611 20.5734 17.7436 20.2491C17.0901 20.1675 16.2042 20.0578 15.9295 20.0869C14.3301 20.9766 12.5564 21.4359 10.7395 21.4359ZM10.7058 1.36593C8.56171 1.36593 6.50014 2.09625 4.81639 3.46875C2.88046 5.04656 1.67389 7.28437 1.42077 9.76875C1.16764 12.2531 1.89702 14.6887 3.47483 16.6247C5.05264 18.5606 7.29046 19.7672 9.77483 20.0203C11.7126 20.2172 13.6308 19.8169 15.3201 18.8616C15.7083 18.6422 16.2717 18.6891 17.9123 18.8925C18.7045 18.9909 20.2251 19.1794 20.903 19.1034C20.7023 18.7481 20.3058 18.2034 20.0433 17.8416C19.1667 16.6341 18.5873 15.8362 18.9445 15.1772C19.5351 14.0897 19.8989 12.9075 20.0255 11.6653C20.2786 9.18093 19.5492 6.74531 17.9714 4.80937C16.3936 2.87343 14.1558 1.66687 11.6714 1.41375C11.3489 1.38281 11.0264 1.36593 10.7058 1.36593Z" fill="#222222"/>
<path d="M5.72492 12.8503C4.59148 12.8503 3.66992 11.9287 3.66992 10.7953C3.66992 9.66186 4.59148 8.7403 5.72492 8.7403C6.85836 8.7403 7.77992 9.66186 7.77992 10.7953C7.77992 11.9287 6.85836 12.8503 5.72492 12.8503ZM5.72492 10.1062C5.34523 10.1062 5.03586 10.4156 5.03586 10.7953C5.03586 11.175 5.34523 11.4844 5.72492 11.4844C6.10461 11.4844 6.41398 11.175 6.41398 10.7953C6.41398 10.4156 6.10461 10.1062 5.72492 10.1062Z" fill="#222222"/>
<path d="M10.7113 12.8503C9.57781 12.8503 8.65625 11.9287 8.65625 10.7953C8.65625 9.66186 9.57781 8.7403 10.7113 8.7403C11.8447 8.7403 12.7663 9.66186 12.7663 10.7953C12.7663 11.9287 11.8438 12.8503 10.7113 12.8503ZM10.7113 10.1062C10.3316 10.1062 10.0222 10.4156 10.0222 10.7953C10.0222 11.175 10.3316 11.4844 10.7113 11.4844C11.0909 11.4844 11.4003 11.175 11.4003 10.7953C11.4003 10.4156 11.0909 10.1062 10.7113 10.1062Z" fill="#222222"/>
<path d="M15.6976 12.8503C14.5641 12.8503 13.6426 11.9287 13.6426 10.7953C13.6426 9.66186 14.5641 8.7403 15.6976 8.7403C16.831 8.7403 17.7526 9.66186 17.7526 10.7953C17.7526 11.9287 16.831 12.8503 15.6976 12.8503ZM15.6976 10.1062C15.3179 10.1062 15.0085 10.4156 15.0085 10.7953C15.0085 11.175 15.3179 11.4844 15.6976 11.4844C16.0773 11.4844 16.3866 11.175 16.3866 10.7953C16.3866 10.4156 16.0782 10.1062 15.6976 10.1062Z" fill="#222222"/>
</g>
<defs>
<clipPath id="clip0_1005_13555">
<rect width="48" height="48" fill="white"/>
</clipPath>
</defs>
</svg>
