<svg width="48" height="48" viewBox="0 0 48 48" fill="none" xmlns="http://www.w3.org/2000/svg">
<path d="M42.6393 38.9984H5.36141C3.51288 38.9984 2.00781 37.4944 2.00781 35.6459V13.312C2.00781 11.4635 3.51181 9.95947 5.36141 9.95947H32.0643C32.3395 9.95947 32.5625 10.1824 32.5625 10.4576C32.5625 10.7328 32.3395 10.9557 32.0643 10.9557H5.36141C4.06221 10.9557 3.00515 12.0128 3.00515 13.312V35.6459C3.00515 36.9451 4.06221 38.0011 5.36141 38.0011H42.6403C43.9395 38.0011 44.9966 36.9451 44.9966 35.6459V13.312C44.9966 12.0128 43.9395 10.9557 42.6403 10.9557H39.3379C39.0627 10.9557 38.8398 10.7328 38.8398 10.4576C38.8398 10.1824 39.0627 9.95947 39.3379 9.95947H42.6403C44.4889 9.95947 45.9939 11.4635 45.9939 13.312V35.6459C45.9929 37.4944 44.4889 38.9984 42.6393 38.9984Z" fill="#222222"/>
<path d="M16.9646 38.9984H5.36141C3.51288 38.9984 2.00781 37.4944 2.00781 35.6459V23.2533C2.00781 23.0549 2.12515 22.8757 2.30755 22.7957C2.80035 22.5813 3.30915 22.4011 3.82648 22.2571V18.1931C3.82648 17.4421 4.43768 16.8309 5.18861 16.8309H8.73315C9.48408 16.8309 10.0942 17.4421 10.0942 18.1931V22.2571C11.0041 22.5099 11.8777 22.8715 12.699 23.3365L15.5726 20.4629C16.1038 19.9328 16.9678 19.9317 17.499 20.4629L20.0057 22.9696C20.5369 23.5008 20.5369 24.3648 20.0057 24.896L17.1321 27.7696C17.5982 28.5931 17.9598 29.4667 18.2126 30.3744H22.2755C23.0265 30.3744 23.6366 30.9856 23.6366 31.7365V35.2811C23.6366 36.032 23.0254 36.6432 22.2755 36.6432H18.2115C18.0121 37.36 17.7433 38.0587 17.4105 38.7243C17.3262 38.8917 17.1534 38.9984 16.9646 38.9984ZM3.00515 23.5861V35.6459C3.00515 36.9451 4.06221 38.0011 5.36141 38.0011H16.651C16.9454 37.3675 17.1769 36.7051 17.3411 36.0256C17.3955 35.8016 17.595 35.6437 17.8254 35.6437H22.2745C22.4761 35.6437 22.6393 35.4805 22.6393 35.2789V31.7344C22.6393 31.5328 22.4761 31.3696 22.2745 31.3696H17.8265C17.5961 31.3696 17.3955 31.2117 17.3411 30.9877C17.0819 29.9157 16.6585 28.8939 16.0803 27.9477C15.9598 27.7515 15.9907 27.4987 16.1529 27.3355L19.2995 24.1899C19.4414 24.048 19.4425 23.8155 19.2995 23.6736L16.7929 21.1669C16.651 21.024 16.4185 21.024 16.2766 21.1669L13.1299 24.3136C12.9667 24.4768 12.7139 24.5067 12.5177 24.3872C11.5737 23.8101 10.5518 23.3867 9.47768 23.1264C9.25368 23.072 9.09688 22.8725 9.09688 22.6421V18.1931C9.09688 17.9915 8.93368 17.8283 8.73208 17.8283H5.18861C4.98701 17.8283 4.82381 17.9915 4.82381 18.1931V22.6421C4.82381 22.8725 4.66595 23.0731 4.44301 23.1264C3.95555 23.2459 3.47235 23.3995 3.00515 23.5861Z" fill="#222222"/>
<path d="M10.4505 38.9983H5.36141C3.51288 38.9983 2.00781 37.4943 2.00781 35.6458V29.3546C2.00781 29.2287 2.05581 29.1061 2.14115 29.0143C3.38381 27.6821 5.14061 26.9183 6.96035 26.9183C10.5934 26.9183 13.5491 29.8741 13.5491 33.5071C13.5491 35.6554 12.4974 37.6735 10.7353 38.9077C10.6531 38.9663 10.5529 38.9983 10.4505 38.9983ZM3.00515 29.5562V35.6458C3.00515 36.945 4.06221 38.001 5.36141 38.001H10.2905C11.7102 36.9471 12.5539 35.2789 12.5539 33.5082C12.5539 30.4245 10.0451 27.9157 6.96141 27.9157C5.48088 27.9157 4.04941 28.5119 3.00515 29.5562Z" fill="#222222"/>
<path d="M28.5877 44.6805H19.4143C19.2373 44.6805 19.0741 44.5866 18.9845 44.4341C18.8949 44.2815 18.8927 44.0927 18.9791 43.9391C19.6629 42.7157 19.8421 40.6389 18.705 38.7583C18.6111 38.6047 18.609 38.4127 18.6975 38.2559C18.7861 38.0991 18.9514 38.0021 19.1317 38.0021H28.8714C29.0517 38.0021 29.217 38.0991 29.3055 38.2559C29.3941 38.4127 29.3909 38.6047 29.2981 38.7583C28.1599 40.6389 28.3402 42.7157 29.0239 43.9391C29.1103 44.0938 29.1082 44.2815 29.0186 44.4341C28.9279 44.5866 28.7647 44.6805 28.5877 44.6805ZM20.1823 43.6831H27.8197C27.3642 42.3935 27.3109 40.6645 28.0501 38.9983H19.953C20.6911 40.6645 20.6378 42.3935 20.1823 43.6831Z" fill="#222222"/>
<path d="M29.2122 46.9334H18.7866C17.8906 46.9334 17.1621 46.2038 17.1621 45.3078C17.1621 44.4118 17.8906 43.6832 18.7866 43.6832H29.2122C30.1082 43.6832 30.8368 44.4128 30.8368 45.3078C30.8368 46.2038 30.1082 46.9334 29.2122 46.9334ZM18.7866 44.6806C18.441 44.6806 18.1584 44.9622 18.1584 45.3088C18.1584 45.6555 18.44 45.9371 18.7866 45.9371H29.2122C29.5578 45.9371 29.8405 45.6555 29.8405 45.3088C29.8405 44.9632 29.5589 44.6806 29.2122 44.6806H18.7866Z" fill="#222222"/>
<path d="M41.9625 28.4085H22.1641C21.8889 28.4085 21.666 28.1856 21.666 27.9104C21.666 27.6352 21.8889 27.4123 22.1641 27.4123H41.4644V12.1515C41.4644 11.8763 41.6873 11.6533 41.9625 11.6533C42.2377 11.6533 42.4607 11.8763 42.4607 12.1515V27.9104C42.4618 28.1856 42.2377 28.4085 41.9625 28.4085Z" fill="#222222"/>
<path d="M39.3366 28.4085H35.6993C35.4241 28.4085 35.2012 28.1856 35.2012 27.9104V1.56478C35.2012 1.28958 35.4241 1.06665 35.6993 1.06665H39.3366C39.6118 1.06665 39.8348 1.28958 39.8348 1.56478V27.9104C39.8358 28.1856 39.6129 28.4085 39.3366 28.4085ZM36.1985 27.4123H38.8385V2.06398H36.1985V27.4123Z" fill="#222222"/>
<path d="M35.7008 28.4085H32.0645C31.7893 28.4085 31.5664 28.1856 31.5664 27.9104V5.68637C31.5664 5.41117 31.7893 5.18823 32.0645 5.18823H35.7008C35.976 5.18823 36.1989 5.41117 36.1989 5.68637V27.9104C36.1989 28.1856 35.976 28.4085 35.7008 28.4085ZM32.5627 27.4122H35.2016V6.18557H32.5627V27.4122Z" fill="#222222"/>
<path d="M32.0641 28.4085H28.4278C28.1526 28.4085 27.9297 28.1856 27.9297 27.9104V15.0357C27.9297 14.7605 28.1526 14.5376 28.4278 14.5376H32.0641C32.3393 14.5376 32.5622 14.7605 32.5622 15.0357V27.9104C32.5633 28.1856 32.3404 28.4085 32.0641 28.4085ZM28.927 27.4123H31.566V15.5349H28.927V27.4123Z" fill="#222222"/>
<path d="M28.4265 28.4085H24.7891C24.5139 28.4085 24.291 28.1856 24.291 27.9104V17.2746C24.291 16.9994 24.5139 16.7765 24.7891 16.7765H28.4265C28.7017 16.7765 28.9246 16.9994 28.9246 17.2746V27.9104C28.9257 28.1856 28.7017 28.4085 28.4265 28.4085ZM25.2883 27.4122H27.9283V17.7738H25.2883V27.4122Z" fill="#222222"/>
<path d="M24.1349 29.6032C23.8597 29.6032 23.6367 29.3802 23.6367 29.105V27.9104C23.6367 27.6352 23.8597 27.4122 24.1349 27.4122C24.4101 27.4122 24.633 27.6352 24.633 27.9104V29.105C24.633 29.3802 24.409 29.6032 24.1349 29.6032Z" fill="#222222"/>
<path d="M26.1173 29.6032C25.8421 29.6032 25.6191 29.3802 25.6191 29.105V27.9104C25.6191 27.6352 25.8421 27.4122 26.1173 27.4122C26.3925 27.4122 26.6154 27.6352 26.6154 27.9104V29.105C26.6165 29.3802 26.3925 29.6032 26.1173 29.6032Z" fill="#222222"/>
<path d="M28.0977 29.6032C27.8225 29.6032 27.5996 29.3802 27.5996 29.105V27.9104C27.5996 27.6352 27.8225 27.4122 28.0977 27.4122C28.3729 27.4122 28.5959 27.6352 28.5959 27.9104V29.105C28.5969 29.3802 28.374 29.6032 28.0977 29.6032Z" fill="#222222"/>
<path d="M30.0821 29.6032C29.8069 29.6032 29.584 29.3802 29.584 29.105V27.9104C29.584 27.6352 29.8069 27.4122 30.0821 27.4122C30.3573 27.4122 30.5803 27.6352 30.5803 27.9104V29.105C30.5813 29.3802 30.3573 29.6032 30.0821 29.6032Z" fill="#222222"/>
<path d="M32.0626 29.6032C31.7874 29.6032 31.5645 29.3802 31.5645 29.105V27.9104C31.5645 27.6352 31.7874 27.4122 32.0626 27.4122C32.3378 27.4122 32.5607 27.6352 32.5607 27.9104V29.105C32.5618 29.3802 32.3389 29.6032 32.0626 29.6032Z" fill="#222222"/>
<path d="M34.047 29.6032C33.7718 29.6032 33.5488 29.3802 33.5488 29.105V27.9104C33.5488 27.6352 33.7718 27.4122 34.047 27.4122C34.3222 27.4122 34.5451 27.6352 34.5451 27.9104V29.105C34.5451 29.3802 34.3222 29.6032 34.047 29.6032Z" fill="#222222"/>
<path d="M36.0274 29.6032C35.7522 29.6032 35.5293 29.3802 35.5293 29.105V27.9104C35.5293 27.6352 35.7522 27.4122 36.0274 27.4122C36.3026 27.4122 36.5256 27.6352 36.5256 27.9104V29.105C36.5266 29.3802 36.3037 29.6032 36.0274 29.6032Z" fill="#222222"/>
<path d="M38.0118 29.6032C37.7366 29.6032 37.5137 29.3802 37.5137 29.105V27.9104C37.5137 27.6352 37.7366 27.4122 38.0118 27.4122C38.287 27.4122 38.5099 27.6352 38.5099 27.9104V29.105C38.511 29.3802 38.2881 29.6032 38.0118 29.6032Z" fill="#222222"/>
<path d="M39.9942 29.6032C39.719 29.6032 39.4961 29.3802 39.4961 29.105V27.9104C39.4961 27.6352 39.719 27.4122 39.9942 27.4122C40.2694 27.4122 40.4924 27.6352 40.4924 27.9104V29.105C40.4924 29.3802 40.2694 29.6032 39.9942 29.6032Z" fill="#222222"/>
<path d="M41.9627 32.9578H25.6075C25.3323 32.9578 25.1094 32.7349 25.1094 32.4597C25.1094 32.1845 25.3323 31.9615 25.6075 31.9615H41.9627C42.2379 31.9615 42.4608 32.1845 42.4608 32.4597C42.4619 32.7349 42.2379 32.9578 41.9627 32.9578Z" fill="#222222"/>
<path d="M38.2317 35.6448H29.3399C29.0647 35.6448 28.8418 35.4219 28.8418 35.1467C28.8418 34.8715 29.0647 34.6486 29.3399 34.6486H38.2317C38.5069 34.6486 38.7298 34.8715 38.7298 35.1467C38.7298 35.4219 38.5069 35.6448 38.2317 35.6448Z" fill="#222222"/>
<path d="M14.4692 16.0245H11.2052C10.93 16.0245 10.707 15.8016 10.707 15.5264V12.2624C10.707 11.9872 10.93 11.7643 11.2052 11.7643H14.4692C14.7444 11.7643 14.9673 11.9872 14.9673 12.2624V15.5264C14.9673 15.8016 14.7444 16.0245 14.4692 16.0245ZM11.7033 15.0272H13.971V12.7605H11.7033V15.0272Z" fill="#222222"/>
<path d="M22.8318 13.0293H16.3849C16.1097 13.0293 15.8867 12.8064 15.8867 12.5312C15.8867 12.256 16.1097 12.0331 16.3849 12.0331H22.8307C23.1059 12.0331 23.3289 12.256 23.3289 12.5312C23.3299 12.8064 23.107 13.0293 22.8318 13.0293Z" fill="#222222"/>
<path d="M22.8318 15.7558H16.3849C16.1097 15.7558 15.8867 15.5329 15.8867 15.2577C15.8867 14.9825 16.1097 14.7595 16.3849 14.7595H22.8307C23.1059 14.7595 23.3289 14.9825 23.3289 15.2577C23.3299 15.5329 23.107 15.7558 22.8318 15.7558Z" fill="#222222"/>
</svg>
