<svg width="48" height="48" viewBox="0 0 48 48" fill="none" xmlns="http://www.w3.org/2000/svg">
<g clip-path="url(#clip0_1005_13615)">
<path fill-rule="evenodd" clip-rule="evenodd" d="M32.4509 48C32.3384 48 32.226 47.9438 32.1416 47.8875C24.3244 42.573 20.8938 36.1055 21.3437 27.529C21.3718 27.2759 21.5687 27.051 21.8217 27.0229C30.3138 25.7856 31.6636 21.399 32.8165 22.2988C36.4439 25.2232 38.5529 26.348 43.0801 27.0229C43.3332 27.051 43.5581 27.2759 43.5581 27.529C44.0362 36.1055 40.6056 42.573 32.7602 47.8875C32.6759 47.9438 32.5634 48 32.4509 48ZM22.4404 28.0633C22.1592 35.8524 25.3367 41.8137 32.4509 46.7346C39.5652 41.8137 42.7427 35.8524 42.4615 28.0633C38.0748 27.3603 35.7971 26.0949 32.4509 23.4517C29.1609 26.0387 26.827 27.3603 22.4404 28.0633Z" fill="#222222"/>
<path fill-rule="evenodd" clip-rule="evenodd" d="M32.4499 45.3849C32.3375 45.3849 32.225 45.3568 32.1406 45.3005C23.0018 39.1143 23.3955 29.7505 23.4236 29.3568C23.4517 29.1037 23.6485 28.8788 23.9016 28.8225C28.0071 28.232 32.0563 25.0545 32.1125 25.0264C32.3093 24.8577 32.5905 24.8577 32.8155 25.0264C32.8436 25.0545 36.8928 28.232 40.9983 28.8225C41.2795 28.8788 41.4763 29.1037 41.4763 29.3568C41.5044 29.7505 41.8981 39.0861 32.7592 45.3005C32.6749 45.3568 32.5624 45.3849 32.4499 45.3849ZM24.5484 29.8629C24.6046 31.7469 25.2513 39.058 32.4499 44.1476C39.6766 39.058 40.3234 31.7469 40.3515 29.8629C36.8085 29.2162 33.5185 26.9666 32.4499 26.1793C31.3814 26.9666 28.1195 29.2162 24.5484 29.8629Z" fill="#222222"/>
<path fill-rule="evenodd" clip-rule="evenodd" d="M21.624 42.3761C13.2725 42.3761 4.38672 40.2953 4.38672 36.4148V5.93322C4.38672 5.20211 5.5115 5.20211 5.5115 5.93322V36.4148C5.5115 38.7206 12.1196 41.2513 21.624 41.2513C23.1143 41.2513 24.5765 41.1951 26.0106 41.0545C26.7417 40.9982 26.8261 42.123 26.095 42.1793C24.6609 42.2917 23.1424 42.3761 21.624 42.3761ZM38.2988 26.9666C37.9895 26.9666 37.7365 26.7135 37.7365 26.4042V5.93322C37.7365 5.20211 38.8612 5.20211 38.8612 5.93322V26.4042C38.8612 26.7135 38.6082 26.9666 38.2988 26.9666Z" fill="#222222"/>
<path fill-rule="evenodd" clip-rule="evenodd" d="M21.624 11.8946C13.2725 11.8946 4.38672 9.81371 4.38672 5.93322C4.38672 2.08084 13.2725 0 21.624 0C29.9755 0 38.8612 2.08084 38.8612 5.93322C38.8612 9.81371 29.9755 11.8946 21.624 11.8946ZM21.624 1.12478C12.1196 1.12478 5.5115 3.65554 5.5115 5.93322C5.5115 8.23902 12.1196 10.7698 21.624 10.7698C31.1284 10.7698 37.7365 8.23902 37.7365 5.93322C37.7365 3.65554 31.1284 1.12478 21.624 1.12478Z" fill="#222222"/>
<path fill-rule="evenodd" clip-rule="evenodd" d="M21.624 22.3269C13.2725 22.3269 4.38672 20.246 4.38672 16.3655C4.38672 15.6344 5.5115 15.6344 5.5115 16.3655C5.5115 18.6432 12.1196 21.2021 21.624 21.2021C31.1284 21.2021 37.7365 18.6432 37.7365 16.3655C37.7365 15.6344 38.8612 15.6344 38.8612 16.3655C38.8612 20.246 29.9755 22.3269 21.624 22.3269Z" fill="#222222"/>
<path fill-rule="evenodd" clip-rule="evenodd" d="M21.624 31.9437C13.2725 31.9437 4.38672 29.8629 4.38672 26.0105C4.38672 25.2513 5.5115 25.2513 5.5115 26.0105C5.5115 28.2882 12.1196 30.819 21.624 30.819C21.9614 30.819 22.5519 30.7908 22.5519 31.3813C22.5519 32 21.9333 31.9437 21.624 31.9437ZM38.2707 26.9666C37.4553 26.9666 37.5677 25.4481 38.2988 25.4481C39.1143 25.4481 39.0018 26.9666 38.2707 26.9666Z" fill="#222222"/>
<path fill-rule="evenodd" clip-rule="evenodd" d="M9.44887 17.0123C7.05871 17.0123 7.05871 13.3568 9.44887 13.3568C11.8671 13.3568 11.8671 17.0123 9.44887 17.0123ZM9.44887 14.4815C8.52092 14.4815 8.52092 15.8875 9.44887 15.8875C10.3768 15.8875 10.3768 14.4815 9.44887 14.4815Z" fill="#222222"/>
<path fill-rule="evenodd" clip-rule="evenodd" d="M21.6234 16.6749C19.4301 16.6749 17.2649 16.5343 15.2403 16.2812C14.5092 16.1687 14.6498 15.0439 15.409 15.1564C21.4266 15.9438 29.0469 15.5782 34.0241 13.7223C34.7271 13.4692 35.1208 14.5378 34.4178 14.7909C31.184 15.9719 26.5162 16.6749 21.6234 16.6749Z" fill="#222222"/>
<path fill-rule="evenodd" clip-rule="evenodd" d="M9.44887 26.9947C7.05871 26.9947 7.05871 23.3392 9.44887 23.3392C11.8671 23.3392 11.8671 26.9947 9.44887 26.9947ZM9.44887 24.464C8.52092 24.464 8.52092 25.8699 9.44887 25.8699C10.4049 25.8699 10.3768 24.464 9.44887 24.464Z" fill="#222222"/>
<path fill-rule="evenodd" clip-rule="evenodd" d="M21.6234 26.6573C19.4301 26.6573 17.2649 26.5167 15.2403 26.2636C14.5092 26.1512 14.6498 25.0264 15.409 25.1389C19.402 25.6731 24.1542 25.645 28.1471 25.0826C28.8782 24.9983 29.0469 26.0949 28.3158 26.2074C26.2069 26.4886 23.9573 26.6573 21.6234 26.6573Z" fill="#222222"/>
<path fill-rule="evenodd" clip-rule="evenodd" d="M9.44887 36.9771C7.05871 36.9771 7.05871 33.3216 9.44887 33.3216C11.8671 33.3216 11.8671 36.9771 9.44887 36.9771ZM9.44887 34.4464C8.52092 34.4464 8.52092 35.8523 9.44887 35.8523C10.3768 35.8523 10.3768 34.4464 9.44887 34.4464Z" fill="#222222"/>
<path fill-rule="evenodd" clip-rule="evenodd" d="M21.6234 36.6398C19.4301 36.6398 17.2649 36.4992 15.2403 36.2461C14.5092 36.1336 14.6498 35.0088 15.409 35.1213C18.1366 35.4869 20.2174 35.515 23.0013 35.4869C23.7324 35.4869 23.7605 36.6116 23.0294 36.6116C22.5513 36.6398 22.1014 36.6398 21.6234 36.6398Z" fill="#222222"/>
<path fill-rule="evenodd" clip-rule="evenodd" d="M31.3823 37.8769C31.2136 37.8769 31.073 37.8207 30.9605 37.7363L28.7953 35.543C28.2611 35.0369 29.0484 34.2214 29.5827 34.7557L31.3823 36.5272L35.3191 32.5624C35.8533 32.0562 36.6407 32.8436 36.1345 33.3778L31.776 37.7363C31.6635 37.8207 31.5229 37.8769 31.3823 37.8769Z" fill="#222222"/>
</g>
<defs>
<clipPath id="clip0_1005_13615">
<rect width="48" height="48" fill="white"/>
</clipPath>
</defs>
</svg>
