<svg width="48" height="48" viewBox="0 0 48 48" fill="none" xmlns="http://www.w3.org/2000/svg">
<path d="M31.5 44.25C31.8978 44.25 32.2794 44.092 32.5607 43.8107C32.842 43.5294 33 43.1478 33 42.75V31.5C33 31.1022 32.842 30.7206 32.5607 30.4393C32.2794 30.158 31.8978 30 31.5 30H16.5C16.1022 30 15.7206 30.158 15.4393 30.4393C15.158 30.7206 15 31.1022 15 31.5V42.75C15 43.1478 15.158 43.5294 15.4393 43.8107C15.7206 44.092 16.1022 44.25 16.5 44.25H23.25V45.75H21.75V47.25H26.25V45.75H24.75V44.25H31.5ZM16.5 31.5H31.5V39.75H16.5V31.5ZM16.5 42.75V41.25H31.5V42.75H16.5Z" fill="#222222"/>
<path d="M17.3832 15.75H30.6177C32.0698 15.75 33.4624 15.1732 34.4891 14.1464C35.5159 13.1196 36.0927 11.7271 36.0927 10.275C36.0927 8.82293 35.5159 7.43035 34.4891 6.40358C33.4624 5.37682 32.0698 4.79999 30.6177 4.79999C30.1492 4.8001 29.683 4.86522 29.2325 4.99349C28.979 3.7937 28.3208 2.71748 27.3683 1.94517C26.4158 1.17287 25.2267 0.751404 24.0005 0.751404C22.7742 0.751404 21.5851 1.17287 20.6326 1.94517C19.6801 2.71748 19.0219 3.7937 18.7685 4.99349C18.3179 4.86522 17.8517 4.8001 17.3832 4.79999C15.9311 4.79999 14.5386 5.37682 13.5118 6.40358C12.485 7.43035 11.9082 8.82293 11.9082 10.275C11.9082 11.7271 12.485 13.1196 13.5118 14.1464C14.5386 15.1732 15.9311 15.75 17.3832 15.75ZM17.3832 6.29999C17.9642 6.30418 18.5364 6.4428 19.055 6.70499C19.167 6.76035 19.2912 6.7868 19.4161 6.78196C19.541 6.77712 19.6627 6.74112 19.7702 6.67725C19.8777 6.61339 19.9675 6.52367 20.0314 6.41626C20.0954 6.30885 20.1315 6.18716 20.1365 6.06224C20.1645 5.05648 20.5837 4.10132 21.305 3.39984C22.0263 2.69836 22.9928 2.3059 23.999 2.3059C25.0051 2.3059 25.9716 2.69836 26.6929 3.39984C27.4142 4.10132 27.8334 5.05648 27.8615 6.06224C27.8664 6.18716 27.9025 6.30885 27.9665 6.41626C28.0304 6.52367 28.1202 6.61339 28.2277 6.67725C28.3352 6.74112 28.4569 6.77712 28.5818 6.78196C28.7067 6.7868 28.8309 6.76035 28.943 6.70499C29.4615 6.4428 30.0337 6.30418 30.6147 6.29999C31.6689 6.29999 32.68 6.71879 33.4255 7.46424C34.1709 8.2097 34.5897 9.22076 34.5897 10.275C34.5897 11.3292 34.1709 12.3403 33.4255 13.0857C32.68 13.8312 31.6689 14.25 30.6147 14.25H17.3832C16.329 14.25 15.3179 13.8312 14.5725 13.0857C13.827 12.3403 13.4082 11.3292 13.4082 10.275C13.4082 9.22076 13.827 8.2097 14.5725 7.46424C15.3179 6.71879 16.329 6.29999 17.3832 6.29999Z" fill="#222222"/>
<path d="M12.2617 37.65L13.2367 36.513C10.4449 34.1122 8.53676 30.8462 7.81639 27.2352C7.09601 23.6242 7.6048 19.876 9.2617 16.5878L9.4312 18.063L10.9207 17.8913L10.4924 14.166C10.4792 14.0503 10.4392 13.9393 10.3756 13.8418C10.312 13.7443 10.2266 13.6629 10.1261 13.6041C10.0256 13.5453 9.91277 13.5107 9.79659 13.503C9.6804 13.4954 9.56403 13.5149 9.4567 13.56L6.0007 15.0135L6.58195 16.3965L7.9762 15.8093C6.13547 19.4024 5.55725 23.5105 6.3346 27.4722C7.11195 31.4339 9.19965 35.0188 12.2617 37.65Z" fill="#222222"/>
<path d="M36.9136 13.725C39.256 16.6673 40.5215 20.3223 40.4999 24.0831C40.4784 27.8439 39.1711 31.4842 36.7951 34.3995L36.8251 33.015L35.3251 32.9865L35.2501 36.7365C35.2483 36.8361 35.2664 36.9351 35.3033 37.0276C35.3402 37.1202 35.3951 37.2045 35.465 37.2756C35.5348 37.3466 35.6181 37.4031 35.71 37.4416C35.8018 37.4802 35.9005 37.5 36.0001 37.5C36.0665 37.5002 36.1326 37.4914 36.1966 37.4737L39.8161 36.4927L39.4231 35.0452L37.8736 35.4652C40.5531 32.2468 42.014 28.1878 42.0001 24C41.9958 19.93 40.6168 15.9807 38.0866 12.7927L36.9136 13.725Z" fill="#222222"/>
<path d="M27.0003 27.75H30.0003C30.1992 27.75 30.39 27.671 30.5306 27.5303C30.6713 27.3897 30.7503 27.1989 30.7503 27V23.25H31.5003C31.6416 23.2501 31.7801 23.2102 31.8997 23.135C32.0194 23.0598 32.1153 22.9523 32.1765 22.8249C32.2378 22.6975 32.2617 22.5554 32.2457 22.415C32.2297 22.2746 32.1744 22.1416 32.086 22.0313L29.086 18.2813C29.0131 18.1976 28.9231 18.1305 28.822 18.0845C28.721 18.0386 28.6113 18.0148 28.5003 18.0148C28.3893 18.0148 28.2796 18.0386 28.1785 18.0845C28.0775 18.1305 27.9875 18.1976 27.9145 18.2813L24.9145 22.0313C24.8262 22.1416 24.7708 22.2746 24.7548 22.415C24.7388 22.5554 24.7628 22.6975 24.824 22.8249C24.8852 22.9523 24.9812 23.0598 25.1008 23.135C25.2205 23.2102 25.359 23.2501 25.5003 23.25H26.2503V27C26.2503 27.1989 26.3293 27.3897 26.47 27.5303C26.6106 27.671 26.8014 27.75 27.0003 27.75ZM28.5003 19.95L29.9418 21.75C29.7532 21.7648 29.5771 21.8502 29.4489 21.9893C29.3206 22.1284 29.2497 22.3108 29.2503 22.5V26.25H27.7503V22.5C27.7509 22.3108 27.6799 22.1284 27.5517 21.9893C27.4234 21.8502 27.2474 21.7648 27.0588 21.75L28.5003 19.95Z" fill="#222222"/>
<path d="M21.0003 18H18.0003C17.8014 18 17.6106 18.079 17.47 18.2197C17.3293 18.3603 17.2503 18.5511 17.2503 18.75V22.5H16.5003C16.359 22.4999 16.2205 22.5398 16.1008 22.615C15.9812 22.6902 15.8852 22.7977 15.824 22.9251C15.7628 23.0525 15.7388 23.1946 15.7548 23.335C15.7708 23.4754 15.8262 23.6084 15.9145 23.7187L18.9145 27.4687C18.9848 27.5566 19.0739 27.6275 19.1753 27.6763C19.2767 27.725 19.3878 27.7504 19.5003 27.7504C19.6128 27.7504 19.7238 27.725 19.8252 27.6763C19.9266 27.6275 20.0158 27.5566 20.086 27.4687L23.086 23.7187C23.1744 23.6084 23.2297 23.4754 23.2457 23.335C23.2617 23.1946 23.2378 23.0525 23.1765 22.9251C23.1153 22.7977 23.0194 22.6902 22.8997 22.615C22.7801 22.5398 22.6416 22.4999 22.5003 22.5H21.7503V18.75C21.7503 18.5511 21.6713 18.3603 21.5306 18.2197C21.39 18.079 21.1992 18 21.0003 18ZM19.5003 25.8L18.0588 24C18.2474 23.9852 18.4234 23.8998 18.5517 23.7607C18.6799 23.6216 18.7509 23.4392 18.7503 23.25V19.5H20.2503V23.25C20.2497 23.4392 20.3206 23.6216 20.4489 23.7607C20.5771 23.8998 20.7532 23.9852 20.9418 24L19.5003 25.8Z" fill="#222222"/>
</svg>
