<svg width="48" height="48" viewBox="0 0 48 48" fill="none" xmlns="http://www.w3.org/2000/svg">
<path d="M22.6754 9.54837H24.5237L25.0816 11.2219L26.4545 10.7652L24.2867 4.26197C24.2392 4.1174 24.1473 3.99153 24.024 3.90229C23.9008 3.81306 23.7525 3.76501 23.6003 3.76501C23.4481 3.76501 23.2998 3.81306 23.1766 3.90229C23.0533 3.99153 22.9614 4.1174 22.9138 4.26197L20.7461 10.7652L22.119 11.2219L22.6754 9.54837ZM24.0425 8.10321H23.1566L23.5996 6.7751L24.0425 8.10321Z" fill="#222222"/>
<path d="M29.3806 9.54838C29.189 9.54838 29.0052 9.47225 28.8697 9.33674C28.7342 9.20123 28.6581 9.01744 28.6581 8.8258H27.2129C27.2129 9.25453 27.34 9.67365 27.5782 10.0301C27.8164 10.3866 28.155 10.6645 28.5511 10.8285C28.9472 10.9926 29.383 11.0355 29.8035 10.9519C30.224 10.8682 30.6103 10.6618 30.9135 10.3586C31.2166 10.0555 31.4231 9.6692 31.5067 9.2487C31.5904 8.8282 31.5474 8.39234 31.3834 7.99624C31.2193 7.60013 30.9415 7.26158 30.585 7.02338C30.2285 6.78519 29.8094 6.65805 29.3806 6.65805C29.2377 6.65805 29.098 6.61568 28.9792 6.53628C28.8604 6.45688 28.7677 6.34403 28.7131 6.21199C28.6584 6.07996 28.6441 5.93467 28.6719 5.7945C28.6998 5.65434 28.7686 5.52559 28.8697 5.42453C28.9707 5.32348 29.0995 5.25466 29.2397 5.22678C29.3798 5.1989 29.5251 5.21321 29.6572 5.2679C29.7892 5.32259 29.902 5.4152 29.9814 5.53403C30.0608 5.65286 30.1032 5.79256 30.1032 5.93547H31.5484C31.5484 5.50673 31.4212 5.08762 31.183 4.73114C30.9449 4.37466 30.6063 4.09681 30.2102 3.93274C29.8141 3.76867 29.3782 3.72574 28.9577 3.80938C28.5372 3.89303 28.151 4.09948 27.8478 4.40265C27.5446 4.70581 27.3382 5.09207 27.2545 5.51257C27.1709 5.93307 27.2138 6.36893 27.3779 6.76503C27.542 7.16114 27.8198 7.49969 28.1763 7.73788C28.5328 7.97608 28.9519 8.10322 29.3806 8.10322C29.5723 8.10322 29.7561 8.17934 29.8916 8.31485C30.0271 8.45036 30.1032 8.63416 30.1032 8.8258C30.1032 9.01744 30.0271 9.20123 29.8916 9.33674C29.7561 9.47225 29.5723 9.54838 29.3806 9.54838Z" fill="#222222"/>
<path d="M17.4587 10.9935C18.1295 10.9935 18.7727 10.7271 19.247 10.2528C19.7213 9.77851 19.9878 9.13525 19.9878 8.4645V8.10321C19.9878 7.91157 19.9116 7.72778 19.7761 7.59227C19.6406 7.45676 19.4568 7.38063 19.2652 7.38063H17.0974V8.8258H18.4812C18.3962 9.06726 18.2286 9.27087 18.0079 9.40056C17.7872 9.53025 17.5278 9.57766 17.2755 9.53439C17.0232 9.49112 16.7944 9.35995 16.6295 9.16413C16.4647 8.96831 16.3745 8.72047 16.3748 8.4645V6.29676C16.3748 6.0093 16.489 5.73362 16.6923 5.53035C16.8956 5.32709 17.1713 5.21289 17.4587 5.21289C17.7462 5.21289 18.0219 5.32709 18.2251 5.53035C18.4284 5.73362 18.5426 6.0093 18.5426 6.29676V6.65805H19.9878V6.29676C19.9878 5.62602 19.7213 4.98275 19.247 4.50847C18.7727 4.03418 18.1295 3.76773 17.4587 3.76773C16.788 3.76773 16.1447 4.03418 15.6704 4.50847C15.1961 4.98275 14.9297 5.62602 14.9297 6.29676V8.4645C14.9297 9.13525 15.1961 9.77851 15.6704 10.2528C16.1447 10.7271 16.788 10.9935 17.4587 10.9935Z" fill="#222222"/>
<path d="M45.9992 10.9936C45.9992 10.4186 45.7708 9.86726 45.3643 9.46073C44.9578 9.0542 44.4064 8.82581 43.8315 8.82581H34.4379V3.76775C34.4379 3.19283 34.2095 2.64145 33.803 2.23492C33.3965 1.82839 32.8451 1.60001 32.2702 1.60001H14.2057C13.6307 1.60001 13.0794 1.82839 12.6728 2.23492C12.2663 2.64145 12.0379 3.19283 12.0379 3.76775V8.82581H3.36696C2.79204 8.82581 2.24067 9.0542 1.83414 9.46073C1.42761 9.86726 1.19922 10.4186 1.19922 10.9936C1.19922 11.5685 1.42761 12.1199 1.83414 12.5264C2.24067 12.9329 2.79204 13.1613 3.36696 13.1613H7.70244V21.1097H6.97986C6.02201 21.1108 5.10372 21.4918 4.42642 22.1691C3.74912 22.8464 3.36811 23.7647 3.36696 24.7226V40.6562C3.10959 40.7071 2.86652 40.8138 2.6549 40.9689C2.44329 41.124 2.26828 41.3236 2.14225 41.5537C2.01621 41.7838 1.94221 42.0387 1.92547 42.3005C1.90873 42.5623 1.94965 42.8246 2.04536 43.0689C1.71589 43.2783 1.4631 43.5887 1.32484 43.9538C1.18659 44.3189 1.17031 44.7189 1.27844 45.094C1.38658 45.4691 1.6133 45.799 1.92468 46.0345C2.23605 46.2699 2.61531 46.3982 3.00567 46.4H44.1928C44.6401 46.3996 45.0714 46.2332 45.4031 45.933C45.7348 45.6328 45.9434 45.2202 45.9883 44.7751C46.0333 44.33 45.9115 43.8841 45.6466 43.5236C45.3816 43.1632 44.9923 42.9139 44.5541 42.824V13.0283C44.9753 12.8794 45.3402 12.604 45.5988 12.2398C45.8575 11.8756 45.9974 11.4403 45.9992 10.9936ZM25.767 42.7871V13.1613H43.1089V42.7871H25.767ZM14.9283 26.8903H15.5424C15.6952 26.8981 15.8423 26.95 15.9661 27.0398C16.0899 27.1296 16.1849 27.2534 16.2397 27.3961L16.9977 29.0819C17.0734 29.2496 17.1064 29.4335 17.0937 29.617C17.0811 29.8006 17.0233 29.9782 16.9255 30.134C16.8611 30.2433 16.7701 30.3345 16.6609 30.3991C16.5517 30.4637 16.4279 30.4995 16.3012 30.5032H14.9283V26.8903ZM14.9283 31.9484H15.8394L17.0743 35.9688C17.1198 36.2851 17.0977 36.6074 17.0097 36.9145C16.9216 37.2216 16.7696 37.5066 16.5635 37.7507C16.3828 37.9692 16.1562 38.1453 15.8998 38.2664C15.6434 38.3876 15.3635 38.4508 15.08 38.4516H14.9283V31.9484ZM14.9283 40.6562V39.8968H15.08C15.5721 39.8947 16.0578 39.7857 16.5036 39.5773C16.9494 39.369 17.3445 39.0662 17.6618 38.6901C18.0089 38.281 18.2631 37.8015 18.407 37.2847C18.5508 36.7679 18.5808 36.226 18.4949 35.6964C18.4889 35.6628 18.4812 35.6295 18.4718 35.5967L17.2766 31.7042C17.6268 31.5218 17.9233 31.251 18.1365 30.9187C18.3648 30.5601 18.5007 30.1506 18.532 29.7266C18.5633 29.3027 18.4889 28.8776 18.3157 28.4894L17.5577 26.8036C17.3881 26.4073 17.1078 26.0683 16.7503 25.8273C16.3929 25.5864 15.9735 25.4537 15.5424 25.4452H14.9283V24.7226C14.9271 23.7647 14.5461 22.8464 13.8688 22.1691C13.1915 21.4918 12.2732 21.1108 11.3153 21.1097V13.1613H24.3218V42.7871H16.3366C16.4323 42.3178 16.3377 41.8297 16.0736 41.4301C15.8095 41.0305 15.3975 40.7521 14.9283 40.6562ZM43.8315 10.271C44.0231 10.271 44.2069 10.3471 44.3424 10.4826C44.4779 10.6181 44.5541 10.8019 44.5541 10.9936C44.5541 11.1852 44.4779 11.369 44.3424 11.5045C44.2069 11.64 44.0231 11.7161 43.8315 11.7161H34.305C34.3906 11.4847 34.4355 11.2403 34.4379 10.9936V10.271H43.8315ZM13.4831 3.76775C13.4831 3.57611 13.5592 3.39232 13.6947 3.25681C13.8302 3.1213 14.014 3.04517 14.2057 3.04517H32.2702C32.4618 3.04517 32.6456 3.1213 32.7811 3.25681C32.9166 3.39232 32.9928 3.57611 32.9928 3.76775V10.9936C32.9928 11.1852 32.9166 11.369 32.7811 11.5045C32.6456 11.64 32.4618 11.7161 32.2702 11.7161H14.2057C14.014 11.7161 13.8302 11.64 13.6947 11.5045C13.5592 11.369 13.4831 11.1852 13.4831 10.9936V3.76775ZM2.64438 10.9936C2.64438 10.8019 2.72051 10.6181 2.85602 10.4826C2.99153 10.3471 3.17532 10.271 3.36696 10.271H12.0379V10.9936C12.0403 11.2403 12.0853 11.4847 12.1709 11.7161H3.36696C3.17532 11.7161 2.99153 11.64 2.85602 11.5045C2.72051 11.369 2.64438 11.1852 2.64438 10.9936ZM9.14761 13.1613H9.87019V21.1097H9.14761V13.1613ZM6.97986 22.5548H11.3153C11.8903 22.5548 12.4416 22.7832 12.8482 23.1898C13.2547 23.5963 13.4831 24.1477 13.4831 24.7226V40.6194H4.81212V24.7226C4.81212 24.1477 5.04051 23.5963 5.44704 23.1898C5.85357 22.7832 6.40494 22.5548 6.97986 22.5548ZM3.72825 42.0645H14.567C14.6628 42.0645 14.7547 42.1026 14.8224 42.1703C14.8902 42.2381 14.9283 42.33 14.9283 42.4258C14.9283 42.5216 14.8902 42.6135 14.8224 42.6813C14.7547 42.749 14.6628 42.7871 14.567 42.7871H3.72825C3.63243 42.7871 3.54054 42.749 3.47278 42.6813C3.40503 42.6135 3.36696 42.5216 3.36696 42.4258C3.36696 42.33 3.40503 42.2381 3.47278 42.1703C3.54054 42.1026 3.63243 42.0645 3.72825 42.0645ZM44.1928 44.9548H3.00567C2.90985 44.9548 2.81795 44.9168 2.7502 44.849C2.68244 44.7813 2.64438 44.6894 2.64438 44.5936C2.64438 44.4977 2.68244 44.4058 2.7502 44.3381C2.81795 44.2703 2.90985 44.2323 3.00567 44.2323H44.1928C44.2886 44.2323 44.3805 44.2703 44.4482 44.3381C44.516 44.4058 44.5541 44.4977 44.5541 44.5936C44.5541 44.6894 44.516 44.7813 44.4482 44.849C44.3805 44.9168 44.2886 44.9548 44.1928 44.9548Z" fill="#222222"/>
<path d="M6.25774 29.0581H12.0384C12.23 29.0581 12.4138 28.9819 12.5493 28.8464C12.6848 28.7109 12.761 28.5271 12.761 28.3355V25.4451C12.761 24.8702 12.5326 24.3189 12.126 23.9123C11.7195 23.5058 11.1681 23.2774 10.5932 23.2774H7.7029C7.12798 23.2774 6.5766 23.5058 6.17007 23.9123C5.76354 24.3189 5.53516 24.8702 5.53516 25.4451V28.3355C5.53516 28.5271 5.61129 28.7109 5.7468 28.8464C5.88231 28.9819 6.0661 29.0581 6.25774 29.0581ZM6.98032 25.4451C6.98032 25.2535 7.05645 25.0697 7.19196 24.9342C7.32747 24.7987 7.51126 24.7226 7.7029 24.7226H10.5932C10.7849 24.7226 10.9687 24.7987 11.1042 24.9342C11.2397 25.0697 11.3158 25.2535 11.3158 25.4451V27.6129H6.98032V25.4451Z" fill="#222222"/>
<path d="M11.3164 30.5032H12.7616V31.9484H11.3164V30.5032Z" fill="#222222"/>
<path d="M7.70312 30.5032H10.5934V31.9484H7.70312V30.5032Z" fill="#222222"/>
<path d="M5.53516 30.5032H6.98032V31.9484H5.53516V30.5032Z" fill="#222222"/>
<path d="M41.6644 18.9419H27.2128C27.0212 18.9419 26.8374 19.0181 26.7019 19.1536C26.5664 19.2891 26.4902 19.4729 26.4902 19.6645V31.2258C26.4902 31.4174 26.5664 31.6012 26.7019 31.7367C26.8374 31.8722 27.0212 31.9484 27.2128 31.9484H41.6644C41.8561 31.9484 42.0399 31.8722 42.1754 31.7367C42.3109 31.6012 42.387 31.4174 42.387 31.2258V19.6645C42.387 19.4729 42.3109 19.2891 42.1754 19.1536C42.0399 19.0181 41.8561 18.9419 41.6644 18.9419ZM33.716 30.5032H30.1031V28.6968C30.1031 28.2177 30.2935 27.7582 30.6322 27.4194C30.971 27.0806 31.4305 26.8903 31.9096 26.8903C32.3887 26.8903 32.8482 27.0806 33.1869 27.4194C33.5257 27.7582 33.716 28.2177 33.716 28.6968V30.5032ZM40.9418 30.5032H35.1612V28.6968C35.1612 27.8344 34.8186 27.0073 34.2088 26.3975C33.599 25.7877 32.772 25.4452 31.9096 25.4452C31.0472 25.4452 30.2201 25.7877 29.6104 26.3975C29.0006 27.0073 28.658 27.8344 28.658 28.6968V30.5032H27.9354V20.3871H40.9418V30.5032Z" fill="#222222"/>
</svg>
