<svg width="24" height="24" viewBox="0 0 24 24" fill="none" xmlns="http://www.w3.org/2000/svg">
<rect y="-0.000183105" width="24" height="24" rx="4" fill="#4E4E4E"/>
<path d="M14.9971 5.99982H9.00289C7.34687 5.99982 6 7.4065 6 9.13608V14.8636C6 16.5931 7.34687 17.9998 9.00289 17.9998H14.9971C16.6531 17.9998 18 16.5931 18 14.8636V9.13608C18 7.4065 16.6531 5.99982 14.9971 5.99982ZM7.05919 9.13608C7.05919 8.0166 7.93102 7.10606 9.00289 7.10606H14.9971C16.069 7.10606 16.9408 8.0166 16.9408 9.13608V14.8636C16.9408 15.983 16.069 16.8936 14.9971 16.8936H9.00289C7.93102 16.8936 7.05919 15.983 7.05919 14.8636V9.13608Z" fill="white"/>
<path d="M11.9995 14.9179C13.5398 14.9179 14.793 13.6091 14.793 12.0004C14.793 10.3917 13.5398 9.08282 11.9995 9.08282C10.4592 9.08282 9.20605 10.3917 9.20605 12.0004C9.20605 13.6091 10.4592 14.9179 11.9995 14.9179ZM11.9995 10.1896C12.9557 10.1896 13.7333 11.0018 13.7333 12.0004C13.7333 12.999 12.9557 13.8111 11.9995 13.8111C11.0434 13.8111 10.2658 12.999 10.2658 12.0004C10.2658 11.0018 11.0434 10.1896 11.9995 10.1896Z" fill="white"/>
<path d="M15.0516 9.55273C15.4666 9.55273 15.8044 9.19991 15.8044 8.76651C15.8044 8.33311 15.4666 7.98029 15.0516 7.98029C14.6366 7.98029 14.2988 8.33311 14.2988 8.76651C14.2988 9.19991 14.6366 9.55273 15.0516 9.55273Z" fill="white"/>
</svg>
