<svg width="48" height="48" viewBox="0 0 48 48" fill="none" xmlns="http://www.w3.org/2000/svg">
<path d="M42.7492 33H41.2492V27C41.2492 26.6022 41.0912 26.2206 40.8099 25.9393C40.5286 25.658 40.1471 25.5 39.7492 25.5H38.2492C37.8514 25.5 37.4699 25.658 37.1886 25.9393C36.9073 26.2206 36.7492 26.6022 36.7492 27V33H35.9992V22.5C35.9992 22.1022 35.8412 21.7206 35.5599 21.4393C35.2786 21.158 34.8971 21 34.4992 21H32.9992C32.6014 21 32.2199 21.158 31.9386 21.4393C31.6573 21.7206 31.4992 22.1022 31.4992 22.5V33H30.7492V24.75C30.7492 24.3522 30.5912 23.9706 30.3099 23.6893C30.0286 23.408 29.6471 23.25 29.2492 23.25H27.7492C27.3514 23.25 26.9699 23.408 26.6886 23.6893C26.4073 23.9706 26.2492 24.3522 26.2492 24.75V33C26.0504 32.9998 25.8597 32.9207 25.7191 32.7801C25.5785 32.6395 25.4994 32.4489 25.4992 32.25V20.25C25.4992 20.0511 25.4202 19.8603 25.2796 19.7197C25.1389 19.579 24.9481 19.5 24.7492 19.5C24.5503 19.5 24.3596 19.579 24.2189 19.7197C24.0783 19.8603 23.9992 20.0511 23.9992 20.25V32.25C23.9999 32.8465 24.2371 33.4185 24.659 33.8403C25.0808 34.2621 25.6527 34.4993 26.2492 34.5H42.7492C42.9481 34.5 43.1389 34.421 43.2796 34.2803C43.4202 34.1397 43.4992 33.9489 43.4992 33.75C43.4992 33.5511 43.4202 33.3603 43.2796 33.2197C43.1389 33.079 42.9481 33 42.7492 33ZM27.7492 33L27.7481 24.75H29.2492V33H27.7492ZM32.9992 33L32.9981 22.5H34.4992V33H32.9992ZM38.2492 33L38.2481 27H39.7492V33H38.2492ZM34.4992 10.5C34.4992 10.4015 34.5186 10.304 34.5563 10.213C34.594 10.122 34.6492 10.0393 34.7188 9.96961C34.7885 9.89996 34.8712 9.84472 34.9622 9.80704C35.0532 9.76936 35.1507 9.74997 35.2492 9.75H41.9992C42.1981 9.75 42.3889 9.82902 42.5296 9.96967C42.6702 10.1103 42.7492 10.3011 42.7492 10.5C42.7492 10.6989 42.6702 10.8897 42.5296 11.0303C42.3889 11.171 42.1981 11.25 41.9992 11.25H35.2492C35.1507 11.25 35.0532 11.2306 34.9622 11.193C34.8712 11.1553 34.7885 11.1 34.7188 11.0304C34.6492 10.9607 34.594 10.878 34.5563 10.787C34.5186 10.696 34.4992 10.5985 34.4992 10.5ZM32.2492 10.5C32.2492 10.3517 32.2932 10.2067 32.3756 10.0833C32.458 9.95999 32.5752 9.86386 32.7122 9.80709C32.8493 9.75032 33.0001 9.73547 33.1456 9.76441C33.291 9.79335 33.4247 9.86478 33.5296 9.96967C33.6345 10.0746 33.7059 10.2082 33.7348 10.3537C33.7638 10.4992 33.7489 10.65 33.6921 10.787C33.6354 10.9241 33.5392 11.0412 33.4159 11.1236C33.2926 11.206 33.1476 11.25 32.9992 11.25C32.8003 11.25 32.6096 11.171 32.4689 11.0303C32.3283 10.8897 32.2492 10.6989 32.2492 10.5ZM34.4992 13.5C34.4992 13.4015 34.5186 13.304 34.5563 13.213C34.594 13.122 34.6492 13.0393 34.7188 12.9696C34.7885 12.9 34.8712 12.8447 34.9622 12.807C35.0532 12.7694 35.1507 12.75 35.2492 12.75H41.9992C42.1981 12.75 42.3889 12.829 42.5296 12.9697C42.6702 13.1103 42.7492 13.3011 42.7492 13.5C42.7492 13.6989 42.6702 13.8897 42.5296 14.0303C42.3889 14.171 42.1981 14.25 41.9992 14.25H35.2492C35.1507 14.25 35.0532 14.2306 34.9622 14.193C34.8712 14.1553 34.7885 14.1 34.7188 14.0304C34.6492 13.9607 34.594 13.878 34.5563 13.787C34.5186 13.696 34.4992 13.5985 34.4992 13.5ZM34.4992 16.5C34.4992 16.4015 34.5186 16.304 34.5563 16.213C34.594 16.122 34.6492 16.0393 34.7188 15.9696C34.7885 15.9 34.8712 15.8447 34.9622 15.807C35.0532 15.7694 35.1507 15.75 35.2492 15.75H41.9992C42.1981 15.75 42.3889 15.829 42.5296 15.9697C42.6702 16.1103 42.7492 16.3011 42.7492 16.5C42.7492 16.6989 42.6702 16.8897 42.5296 17.0303C42.3889 17.171 42.1981 17.25 41.9992 17.25H35.2492C35.1507 17.25 35.0532 17.2306 34.9622 17.193C34.8712 17.1553 34.7885 17.1 34.7188 17.0304C34.6492 16.9607 34.594 16.878 34.5563 16.787C34.5186 16.696 34.4992 16.5985 34.4992 16.5ZM32.2492 13.5C32.2492 13.3517 32.2932 13.2067 32.3756 13.0833C32.458 12.96 32.5752 12.8639 32.7122 12.8071C32.8493 12.7503 33.0001 12.7355 33.1456 12.7644C33.291 12.7933 33.4247 12.8648 33.5296 12.9697C33.6345 13.0746 33.7059 13.2082 33.7348 13.3537C33.7638 13.4992 33.7489 13.65 33.6921 13.787C33.6354 13.9241 33.5392 14.0412 33.4159 14.1236C33.2926 14.206 33.1476 14.25 32.9992 14.25C32.8003 14.25 32.6096 14.171 32.4689 14.0303C32.3283 13.8897 32.2492 13.6989 32.2492 13.5ZM32.2492 16.5C32.2492 16.3517 32.2932 16.2067 32.3756 16.0833C32.458 15.96 32.5752 15.8639 32.7122 15.8071C32.8493 15.7503 33.0001 15.7355 33.1456 15.7644C33.291 15.7934 33.4247 15.8648 33.5296 15.9697C33.6345 16.0746 33.7059 16.2082 33.7348 16.3537C33.7638 16.4992 33.7489 16.65 33.6921 16.787C33.6354 16.9241 33.5392 17.0412 33.4159 17.1236C33.2926 17.206 33.1476 17.25 32.9992 17.25C32.8003 17.25 32.6096 17.171 32.4689 17.0303C32.3283 16.8897 32.2492 16.6989 32.2492 16.5ZM44.2492 5.25H6.74923C6.15269 5.25065 5.58078 5.48791 5.15896 5.90973C4.73715 6.33154 4.49988 6.90346 4.49923 7.5V17.2879C3.87526 17.3753 3.30389 17.6853 2.89042 18.1607C2.47695 18.6361 2.24924 19.2449 2.24924 19.875C2.24924 20.5051 2.47695 21.1139 2.89042 21.5893C3.30389 22.0647 3.87526 22.3747 4.49923 22.4621V25.9807C3.47969 26.9594 2.68532 28.1483 2.17124 29.4648C1.65716 30.7812 1.43568 32.1938 1.52217 33.6045C1.60866 35.0151 2.00105 36.39 2.6721 37.6339C3.34316 38.8777 4.27682 39.9606 5.4083 40.8074C6.53977 41.6543 7.84195 42.2448 9.22449 42.538C10.607 42.8312 12.0368 42.8201 13.4146 42.5055C14.7924 42.1908 16.0853 41.5801 17.2035 40.7157C18.3216 39.8514 19.2383 38.7541 19.89 37.5H44.2492C44.8458 37.4993 45.4177 37.2621 45.8395 36.8403C46.2613 36.4185 46.4986 35.8465 46.4992 35.25V7.5C46.4986 6.90346 46.2613 6.33154 45.8395 5.90973C45.4177 5.48791 44.8458 5.25065 44.2492 5.25ZM3.74923 19.875C3.74923 19.6525 3.81521 19.435 3.93883 19.25C4.06245 19.065 4.23815 18.9208 4.44371 18.8356C4.64928 18.7505 4.87548 18.7282 5.09371 18.7716C5.31194 18.815 5.51239 18.9222 5.66973 19.0795C5.82706 19.2368 5.93421 19.4373 5.97762 19.6555C6.02102 19.8738 5.99875 20.1 5.9136 20.3055C5.82845 20.5111 5.68425 20.6868 5.49925 20.8104C5.31424 20.934 5.09674 21 4.87423 21C4.57596 20.9997 4.29 20.881 4.0791 20.6701C3.86819 20.4592 3.74956 20.1733 3.74923 19.875ZM10.4992 24.788V32.5517L3.66097 36.2339C3.15057 35.0381 2.93027 33.7385 3.01804 32.4413C3.10581 31.1441 3.49918 29.8861 4.16601 28.7699C4.83284 27.6538 5.75422 26.7112 6.85491 26.0192C7.95559 25.3271 9.20436 24.9052 10.4992 24.788ZM11.9992 24.788C13.9183 24.9657 15.7148 25.8089 17.0775 27.1717C18.4403 28.5345 19.2836 30.3309 19.4612 32.25H11.9992V24.788ZM11.2492 41.25C9.88738 41.2492 8.54691 40.9112 7.34754 40.2661C6.14816 39.6211 5.12721 38.689 4.37586 37.5531L11.4389 33.75H19.4612C19.2723 35.7983 18.3258 37.7024 16.807 39.0895C15.2881 40.4767 13.3062 41.2471 11.2492 41.25ZM44.9992 35.25C44.999 35.4489 44.92 35.6395 44.7793 35.7801C44.6387 35.9207 44.4481 35.9998 44.2492 36H20.5221C21.1443 34.0895 21.1602 32.0333 20.5675 30.1134C19.9747 28.1935 18.8025 26.5041 17.2115 25.2768C15.6206 24.0496 13.6889 23.3447 11.6815 23.2588C9.674 23.173 7.68916 23.7103 5.99923 24.7972V22.2367C6.44678 22.0249 6.82518 21.6907 7.09064 21.2727C7.35611 20.8547 7.49777 20.3701 7.49923 19.875C7.49701 19.4817 7.40539 19.0941 7.2313 18.7415L11.0264 15.3679C11.3779 15.5793 11.7739 15.7056 12.1828 15.7367C12.5918 15.7677 13.0023 15.7027 13.3816 15.5467L16.6867 18.1562C16.5271 18.5564 16.4685 18.9899 16.5161 19.4181C16.5638 19.8464 16.7162 20.2564 16.9599 20.6117C17.2037 20.9671 17.5312 21.257 17.9135 21.4557C18.2959 21.6545 18.7213 21.756 19.1522 21.7512C19.5831 21.7465 20.0062 21.6357 20.3841 21.4287C20.762 21.2216 21.0831 20.9246 21.3189 20.564C21.5548 20.2034 21.6982 19.7902 21.7365 19.361C21.7748 18.9318 21.7067 18.4998 21.5384 18.1031L25.8739 14.5216C26.3901 14.8797 27.0179 15.0401 27.6427 14.9735C28.2674 14.9069 28.8473 14.6178 29.2764 14.1589C29.7055 13.7 29.9552 13.102 29.9798 12.4742C30.0043 11.8464 29.8022 11.2307 29.4103 10.7396C29.0183 10.2486 28.4628 9.91498 27.8452 9.79975C27.2275 9.68453 26.5891 9.79539 26.0465 10.1121C25.5038 10.4288 25.0933 10.9301 24.8898 11.5246C24.6864 12.119 24.7036 12.7668 24.9384 13.3495L20.5848 16.9459C20.1445 16.6525 19.6258 16.4989 19.0967 16.5053C18.5677 16.5117 18.0529 16.6778 17.6198 16.9817L14.5656 14.5705C14.8202 14.188 14.9699 13.7453 14.9997 13.2868C15.0295 12.8283 14.9384 12.37 14.7355 11.9577C14.5326 11.5455 14.225 11.1937 13.8434 10.9377C13.4619 10.6817 13.0198 10.5303 12.5614 10.4987C12.103 10.4672 11.6443 10.5566 11.2313 10.7579C10.8183 10.9593 10.4654 11.2656 10.2079 11.6462C9.95042 12.0267 9.79738 12.4682 9.7641 12.9265C9.73082 13.3848 9.81846 13.8438 10.0183 14.2576L6.22033 17.6335C6.1486 17.5902 6.07522 17.5497 5.99923 17.5133V7.5C5.99943 7.30115 6.07851 7.1105 6.21912 6.96989C6.35973 6.82928 6.55038 6.7502 6.74923 6.75H44.2492C44.4481 6.7502 44.6387 6.82928 44.7793 6.96989C44.92 7.1105 44.999 7.30115 44.9992 7.5V35.25ZM13.1697 13.9205C13.0124 14.0778 12.8119 14.185 12.5937 14.2284C12.3755 14.2718 12.1493 14.2495 11.9437 14.1644C11.7382 14.0792 11.5625 13.935 11.4388 13.75C11.3152 13.565 11.2492 13.3475 11.2492 13.125C11.2492 12.9025 11.3152 12.685 11.4388 12.5C11.5625 12.315 11.7382 12.1708 11.9437 12.0856C12.1493 12.0005 12.3755 11.9782 12.5937 12.0216C12.8119 12.065 13.0124 12.1722 13.1697 12.3295C13.3804 12.5406 13.4987 12.8267 13.4987 13.125C13.4987 13.4233 13.3804 13.7094 13.1697 13.9205ZM19.9197 19.9205C19.7624 20.0778 19.5619 20.185 19.3437 20.2284C19.1255 20.2718 18.8993 20.2495 18.6937 20.1644C18.4882 20.0792 18.3125 19.935 18.1888 19.75C18.0652 19.565 17.9992 19.3475 17.9992 19.125C17.9992 18.9025 18.0652 18.685 18.1888 18.5C18.3125 18.315 18.4882 18.1708 18.6937 18.0856C18.8993 18.0005 19.1255 17.9782 19.3437 18.0216C19.5619 18.065 19.7624 18.1722 19.9197 18.3295C20.1304 18.5406 20.2487 18.8267 20.2487 19.125C20.2487 19.4233 20.1304 19.7094 19.9197 19.9205ZM26.5787 11.5795C26.7361 11.4222 26.9365 11.315 27.1548 11.2716C27.373 11.2282 27.5992 11.2505 27.8047 11.3356C28.0103 11.4208 28.186 11.565 28.3096 11.75C28.4332 11.935 28.4992 12.1525 28.4992 12.375C28.4992 12.5975 28.4332 12.815 28.3096 13C28.186 13.185 28.0103 13.3292 27.8047 13.4144C27.5992 13.4995 27.373 13.5218 27.1548 13.4784C26.9365 13.435 26.7361 13.3278 26.5787 13.1705C26.368 12.9594 26.2497 12.6733 26.2497 12.375C26.2497 12.0767 26.368 11.7906 26.5787 11.5795Z" fill="#222222"/>
</svg>
