<svg width="48" height="48" viewBox="0 0 48 48" fill="none" xmlns="http://www.w3.org/2000/svg">
<path fill-rule="evenodd" clip-rule="evenodd" d="M19.4607 19.0324C19.8137 19.3536 21.5332 19.8486 24.2138 19.8486C26.8944 19.8486 28.6149 19.3536 28.9677 19.0324C28.615 18.7121 26.8944 18.2162 24.2138 18.2162C21.5333 18.2162 19.8135 18.7121 19.4607 19.0324ZM24.2139 20.8352C23.6229 20.8352 18.4355 20.7846 18.4355 19.0324C18.4356 17.2802 23.6229 17.2297 24.2138 17.2297C24.8056 17.2296 29.9929 17.2802 29.9929 19.0324C29.9929 20.7846 24.8055 20.8352 24.2139 20.8352Z" fill="#222222"/>
<path fill-rule="evenodd" clip-rule="evenodd" d="M24.2139 24.0065C23.6229 24.0065 18.4355 23.9559 18.4355 22.2037C18.4356 21.9314 18.6565 21.7104 18.9289 21.7104C19.1859 21.7104 19.3973 21.9074 19.4196 22.1592C19.6569 22.4769 21.4116 23.0199 24.2138 23.0199C27.017 23.0199 28.7708 22.4769 29.008 22.1592C29.0312 21.9074 29.2418 21.7104 29.4996 21.7104C29.7719 21.7104 29.9929 21.9314 29.9929 22.2037C29.9929 23.9559 24.8055 24.0065 24.2139 24.0065Z" fill="#222222"/>
<path fill-rule="evenodd" clip-rule="evenodd" d="M18.9289 22.697C18.6566 22.697 18.4355 22.4761 18.4355 22.2037L18.4356 19.0324C18.4356 18.7601 18.6565 18.5391 18.9289 18.5391C19.2013 18.5391 19.4221 18.7601 19.4221 19.0324L19.4222 22.2037C19.4222 22.4761 19.2012 22.697 18.9289 22.697Z" fill="#222222"/>
<path fill-rule="evenodd" clip-rule="evenodd" d="M29.4913 22.697C29.2191 22.697 28.998 22.4761 28.998 22.2037V19.0324C28.998 18.7601 29.219 18.5391 29.4913 18.5391C29.7638 18.5391 29.9846 18.7601 29.9846 19.0324L29.9846 22.2037C29.9846 22.4761 29.7637 22.697 29.4913 22.697Z" fill="#222222"/>
<path fill-rule="evenodd" clip-rule="evenodd" d="M24.2139 27.1872C23.6229 27.1872 18.4355 27.1367 18.4355 25.3845C18.4356 25.1121 18.6565 24.8912 18.9289 24.8912C19.1859 24.8911 19.3973 25.0882 19.4196 25.3399C19.6569 25.6576 21.4116 26.2006 24.2138 26.2006C27.017 26.2006 28.7708 25.6577 29.008 25.3399C29.0312 25.0881 29.2418 24.8912 29.4996 24.8912C29.7719 24.8911 29.9929 25.1121 29.9929 25.3845C29.9929 27.1367 24.8055 27.1872 24.2139 27.1872Z" fill="#222222"/>
<path fill-rule="evenodd" clip-rule="evenodd" d="M18.9289 25.8777C18.6566 25.8777 18.4355 25.6568 18.4355 25.3845L18.4356 22.2225C18.4356 21.9502 18.6565 21.7293 18.9289 21.7293C19.2013 21.7293 19.4221 21.9502 19.4221 22.2226L19.4222 25.3844C19.4222 25.6568 19.2012 25.8778 18.9289 25.8777Z" fill="#222222"/>
<path fill-rule="evenodd" clip-rule="evenodd" d="M29.4913 25.8777C29.2191 25.8777 28.998 25.6568 28.998 25.3845V22.2225C28.998 21.9502 29.219 21.7293 29.4913 21.7293C29.7638 21.7293 29.9846 21.9502 29.9846 22.2226L29.9846 25.3844C29.9846 25.6568 29.7637 25.8778 29.4913 25.8777Z" fill="#222222"/>
<path fill-rule="evenodd" clip-rule="evenodd" d="M24.2139 30.3773C23.6229 30.3773 18.4355 30.3268 18.4355 28.5746C18.4356 28.3022 18.6565 28.0813 18.9289 28.0813C19.1859 28.0813 19.3973 28.2783 19.4196 28.5301C19.6569 28.8478 21.4116 29.3907 24.2138 29.3907C27.017 29.3907 28.7708 28.8478 29.008 28.5301C29.0312 28.2783 29.2418 28.0813 29.4996 28.0813C29.7719 28.0813 29.9929 28.3022 29.9929 28.5746C29.9929 30.3268 24.8055 30.3773 24.2139 30.3773Z" fill="#222222"/>
<path fill-rule="evenodd" clip-rule="evenodd" d="M18.9289 29.0679C18.6566 29.0679 18.4355 28.8469 18.4355 28.5746L18.4356 25.4127C18.4356 25.1404 18.6565 24.9194 18.9289 24.9194C19.2013 24.9194 19.4221 25.1404 19.4221 25.4127L19.4222 28.5746C19.4222 28.8469 19.2012 29.0679 18.9289 29.0679Z" fill="#222222"/>
<path fill-rule="evenodd" clip-rule="evenodd" d="M29.4913 29.0679C29.2191 29.0679 28.998 28.8469 28.998 28.5746V25.4127C28.998 25.1404 29.219 24.9194 29.4913 24.9194C29.7638 24.9194 29.9846 25.1404 29.9846 25.4127L29.9846 28.5746C29.9846 28.8469 29.7637 29.0679 29.4913 29.0679Z" fill="#222222"/>
<path fill-rule="evenodd" clip-rule="evenodd" d="M26.4043 42.7166C26.2263 42.7166 26.0549 42.6207 25.9667 42.452C25.8401 42.2113 25.9333 41.9124 26.1748 41.7866C27.9306 40.8651 29.5499 38.7069 30.7343 35.7086C31.5351 33.6797 32.1131 31.3451 32.454 28.7716C32.6682 27.1718 32.7769 25.4976 32.7769 23.7942C32.777 22.161 32.6681 20.485 32.4531 18.815C32.1286 16.2868 31.5496 13.9565 30.7343 11.8891C29.5568 8.92164 27.9561 6.7755 26.2261 5.84629C25.9865 5.71779 25.8965 5.41891 26.0249 5.17827C26.1544 4.93846 26.4531 4.84857 26.6929 4.9779C28.6551 6.03124 30.3695 8.29564 31.6515 11.526C32.4978 13.6696 33.0963 16.0796 33.432 18.6891C33.6522 20.401 33.7635 22.119 33.7635 23.7942C33.7636 25.5412 33.6521 27.2601 33.432 28.9018C33.0809 31.5541 32.4823 33.9666 31.6524 36.0708C30.3618 39.3355 28.6267 41.6144 26.6329 42.6601C26.5594 42.6986 26.4814 42.7166 26.4043 42.7166Z" fill="#222222"/>
<path fill-rule="evenodd" clip-rule="evenodd" d="M22.0162 42.726C21.9391 42.726 21.8619 42.708 21.7892 42.6703C19.799 41.6358 18.0629 39.3577 16.768 36.0802C15.9236 33.94 15.3249 31.5275 14.9884 28.9086C14.5534 25.5215 14.5533 22.0856 14.9884 18.6985C15.3388 16.0435 15.9382 13.631 16.768 11.5268C18.0579 8.27671 19.7732 6.0124 21.7292 4.97612C21.9699 4.8485 22.2687 4.94016 22.3964 5.1808C22.5241 5.4223 22.4323 5.72035 22.1909 5.84794C20.4704 6.76001 18.8696 8.90535 17.6852 11.89C16.8855 13.9179 16.3064 16.2525 15.9664 18.826C15.5426 22.1284 15.5425 25.4787 15.9664 28.7827C16.2886 31.2851 16.8828 33.6831 17.6861 35.718C18.8749 38.7274 20.4934 40.8847 22.2439 41.7951C22.4856 41.9201 22.5796 42.2181 22.4537 42.4596C22.3665 42.6292 22.1942 42.726 22.0162 42.726Z" fill="#222222"/>
<path fill-rule="evenodd" clip-rule="evenodd" d="M41.2491 31.5463C41.2439 31.5463 41.2387 31.5463 41.2336 31.5463C40.9614 31.5377 40.7471 31.3108 40.7557 31.0385C40.8157 29.079 39.7571 26.622 37.7746 24.1195C36.4402 22.4349 34.6614 20.7204 32.6318 19.1617C31.3113 18.1554 29.9152 17.2262 28.485 16.4007C27.0094 15.5493 25.5047 14.8034 24.0145 14.1843C21.6372 13.1908 19.3291 12.5254 17.1538 12.205C13.9535 11.7297 11.2762 12.0526 9.61476 13.1146C9.38458 13.2619 9.07953 13.1942 8.93306 12.9647C8.78665 12.7352 8.85342 12.4303 9.08299 12.2838C10.9724 11.0763 13.813 10.7115 17.2977 11.2287C19.5543 11.561 21.942 12.2487 24.3939 13.273C25.9227 13.9085 27.4659 14.6732 28.9783 15.5459C30.4454 16.392 31.8755 17.3453 33.2313 18.3781C35.3561 20.0095 37.1442 21.7344 38.5479 23.5063C40.7053 26.2305 41.8099 28.8452 41.7414 31.0685C41.7339 31.3356 41.5145 31.5463 41.2491 31.5463Z" fill="#222222"/>
<path fill-rule="evenodd" clip-rule="evenodd" d="M34.0168 36.6138C33.1116 36.6138 32.1438 36.5385 31.1212 36.3877C28.8646 36.0554 26.4769 35.3677 24.0241 34.3435C22.4955 33.708 20.953 32.9424 19.4406 32.0705C17.948 31.209 16.5143 30.2566 15.1782 29.2384C13.0784 27.6258 11.2901 25.9009 9.86247 24.111C7.67453 21.3568 6.57046 18.7139 6.66806 16.4667C6.68005 16.1943 6.90956 15.9854 7.18195 15.9957C7.45426 16.0068 7.66578 16.2372 7.6538 16.5095C7.5674 18.4869 8.62583 20.9688 10.6341 23.497C12.0122 25.2235 13.7429 26.8918 15.7777 28.4548C17.0787 29.4464 18.4772 30.3757 19.933 31.2158C21.4087 32.0671 22.9134 32.8131 24.4035 33.4323C26.782 34.4257 29.0898 35.0911 31.2651 35.4114C34.4211 35.8773 37.0776 35.5664 38.745 34.5353C38.9771 34.3914 39.2803 34.4634 39.4242 34.6946C39.5674 34.9266 39.4952 35.2307 39.264 35.3737C37.9351 36.1959 36.151 36.6138 34.0168 36.6138Z" fill="#222222"/>
<path fill-rule="evenodd" clip-rule="evenodd" d="M14.404 36.6129C12.2689 36.6129 10.484 36.1959 9.15576 35.3737C8.92378 35.2307 8.85261 34.9266 8.99559 34.6946C9.13862 34.4633 9.44266 34.3914 9.67477 34.5353C11.3405 35.5655 13.997 35.8764 17.1547 35.4114C19.33 35.0911 21.638 34.4256 24.0146 33.4331C25.5065 32.813 27.0103 32.0671 28.4859 31.2158C29.9171 30.3902 31.312 29.461 32.6343 28.453C34.6624 26.8961 36.4411 25.1815 37.7754 23.497C39.8387 20.8943 40.8936 18.361 40.748 16.3647C40.7283 16.0932 40.9321 15.8569 41.2045 15.8372C41.476 15.8192 41.7123 16.0213 41.732 16.2928C41.8982 18.5691 40.7977 21.272 38.5487 24.1102C37.1452 25.8812 35.3569 27.6069 33.2339 29.2367C31.8774 30.2712 30.4462 31.2235 28.9792 32.0705C27.4668 32.9432 25.9235 33.708 24.3939 34.3434C21.9429 35.3677 19.5552 36.0554 17.2985 36.3877C16.2762 36.5375 15.3082 36.6129 14.404 36.6129Z" fill="#222222"/>
<path fill-rule="evenodd" clip-rule="evenodd" d="M7.15963 31.5463C6.89408 31.5463 6.67478 31.3357 6.66706 31.0685C6.59868 28.8451 7.70248 26.2305 9.85978 23.5063C11.2892 21.7146 13.0773 19.9907 15.1755 18.379C17.8888 16.309 20.8655 14.5911 24.0231 13.273C26.4759 12.2487 28.8636 11.5611 31.1202 11.2288C34.4159 10.7354 37.1614 11.0438 39.0601 12.1203C39.2966 12.2547 39.3795 12.5562 39.2459 12.7926C39.1116 13.0298 38.81 13.1129 38.5728 12.9784C36.8926 12.0261 34.2975 11.7512 31.265 12.2051C29.0889 12.5254 26.7808 13.1908 24.4034 14.1834C21.323 15.4697 18.4205 17.1449 15.775 19.1626C13.742 20.7246 12.0111 22.393 10.6322 24.1204C8.65145 26.6219 7.5928 29.0799 7.65279 31.0385C7.6614 31.3108 7.44725 31.5386 7.17491 31.5463C7.16982 31.5463 7.16462 31.5463 7.15963 31.5463Z" fill="#222222"/>
<path fill-rule="evenodd" clip-rule="evenodd" d="M7.76853 12.5468C6.79234 12.5468 5.99831 13.3416 5.99831 14.3179C5.99845 15.2941 6.79221 16.0881 7.7685 16.0881C8.7449 16.088 9.53958 15.2942 9.53958 14.3179C9.53958 13.3415 8.74485 12.5468 7.76853 12.5468ZM7.76853 17.0747C6.24839 17.0747 5.01172 15.838 5.01172 14.3179C5.01186 12.7977 6.24839 11.5602 7.7685 11.5602C9.28963 11.5602 10.5262 12.7977 10.5262 14.3179C10.5264 15.838 9.28952 17.0747 7.76853 17.0747Z" fill="#222222"/>
<path fill-rule="evenodd" clip-rule="evenodd" d="M8.18939 31.2852C7.21299 31.2852 6.41823 32.0792 6.41823 33.0555C6.41834 34.0318 7.21296 34.8257 8.18934 34.8257C9.16574 34.8257 9.95953 34.0318 9.95953 33.0555C9.95966 32.0791 9.16563 31.2852 8.18939 31.2852ZM8.18939 35.8123C6.66923 35.8123 5.43164 34.5756 5.43164 33.0555C5.43175 31.5353 6.6692 30.2987 8.18934 30.2987C9.70953 30.2986 10.9461 31.5353 10.9461 33.0555C10.9463 34.5756 9.70947 35.8123 8.18939 35.8123Z" fill="#222222"/>
<path fill-rule="evenodd" clip-rule="evenodd" d="M24.2139 41.0141C23.2375 41.0141 22.4436 41.808 22.4436 42.7843C22.4436 43.7606 23.2375 44.5554 24.2138 44.5554C25.1903 44.5554 25.9849 43.7606 25.9849 42.7843C25.9849 41.808 25.1902 41.0141 24.2139 41.0141ZM24.2139 45.542C22.6937 45.542 21.457 44.3045 21.457 42.7843C21.457 41.2642 22.6937 40.0276 24.2138 40.0276C25.7341 40.0275 26.9715 41.2642 26.9715 42.7843C26.9715 44.3044 25.7339 45.542 24.2139 45.542Z" fill="#222222"/>
<path fill-rule="evenodd" clip-rule="evenodd" d="M24.2139 3.44482C23.2375 3.44482 22.4436 4.2396 22.4436 5.21589C22.4436 6.19219 23.2375 6.98614 24.2138 6.98614C25.1903 6.98608 25.9849 6.19221 25.9849 5.21589C25.9849 4.23957 25.1902 3.44484 24.2139 3.44482ZM24.2139 7.97267C22.6937 7.97267 21.457 6.73606 21.457 5.21589C21.457 3.6949 22.6937 2.45825 24.2138 2.45825C25.7341 2.45822 26.9715 3.69492 26.9715 5.21589C26.9715 6.73603 25.7339 7.9727 24.2139 7.97267Z" fill="#222222"/>
<path fill-rule="evenodd" clip-rule="evenodd" d="M40.2305 12.5468C39.2541 12.5468 38.4592 13.3416 38.4592 14.3179C38.4594 15.2941 39.254 16.0881 40.2303 16.0881C41.2066 16.088 42.0005 15.2942 42.0005 14.3179C42.0005 13.3415 41.2066 12.5468 40.2305 12.5468ZM40.2305 17.0747C38.7103 17.0747 37.4727 15.838 37.4727 14.3179C37.4728 12.7977 38.7102 11.5602 40.2303 11.5602C41.7504 11.5602 42.9871 12.7977 42.9871 14.3179C42.9871 15.838 41.7504 17.0747 40.2305 17.0747Z" fill="#222222"/>
<path fill-rule="evenodd" clip-rule="evenodd" d="M40.2305 31.2852C39.2541 31.2852 38.4592 32.0792 38.4592 33.0555C38.4594 34.0318 39.254 34.8257 40.2303 34.8257C41.2066 34.8257 42.0005 34.0318 42.0005 33.0555C42.0005 32.0791 41.2066 31.2852 40.2305 31.2852ZM40.2305 35.8123C38.7103 35.8123 37.4727 34.5756 37.4727 33.0555C37.4728 31.5353 38.7102 30.2987 40.2303 30.2987C41.7504 30.2986 42.9871 31.5353 42.9871 33.0555C42.9871 34.5756 41.7504 35.8123 40.2305 35.8123Z" fill="#222222"/>
</svg>
