<svg width="48" height="48" viewBox="0 0 48 48" fill="none" xmlns="http://www.w3.org/2000/svg">
<path d="M11.3105 42.18H36.683C37.9205 42.18 38.933 41.1675 38.933 39.93V27.5775C38.933 26.34 37.9205 25.3275 36.683 25.3275H11.3105C10.073 25.3275 9.06055 26.34 9.06055 27.5775V39.93C9.06055 41.1675 10.073 42.18 11.3105 42.18ZM37.433 27.5775V39.93C37.433 39.99 37.4105 40.0425 37.403 40.095L25.5905 33.7575L37.403 27.42C37.418 27.4725 37.433 27.5175 37.433 27.5775ZM35.318 40.68H12.6905L24.008 34.6125L35.3255 40.68H35.318ZM24.0005 32.91L12.6605 26.8275H35.333L24.0005 32.91ZM22.418 33.7575L10.598 40.1025C10.583 40.05 10.5605 39.99 10.5605 39.93V27.5775C10.5605 27.5175 10.583 27.4725 10.5905 27.42L22.4105 33.765L22.418 33.7575Z" fill="#222222"/>
<path d="M25.0957 21.1575H37.4407C37.9207 21.1575 38.3407 20.9325 38.6107 20.58C38.6482 20.5575 38.6857 20.5425 38.7157 20.5125C38.8882 20.34 38.9482 20.1 38.9107 19.875C38.9182 19.8075 38.9332 19.7325 38.9332 19.665V7.32C38.9332 7.245 38.9182 7.1775 38.9107 7.11C38.9407 6.885 38.8882 6.645 38.7157 6.4725C38.6857 6.4425 38.6482 6.4275 38.6182 6.405C38.3407 6.0525 37.9207 5.82 37.4407 5.82H25.0957C24.2707 5.82 23.5957 6.495 23.5957 7.32V19.665C23.5957 20.49 24.2707 21.165 25.0957 21.165V21.1575ZM32.7607 13.485L37.4407 8.805V18.165L32.7607 13.485ZM36.8107 19.6575H26.5957L31.7032 14.55L36.8107 19.6575ZM31.7032 12.4275L26.5882 7.3125H36.8107L31.6957 12.4275H31.7032ZM30.6457 13.485L25.1032 19.0275V7.9425L30.6457 13.485Z" fill="#222222"/>
<path d="M12.143 11.985H17.5955C19.298 11.985 20.678 10.605 20.678 8.9025C20.678 7.2 19.298 5.82 17.5955 5.82H12.143C10.4405 5.82 9.06055 7.2 9.06055 8.9025C9.06055 10.605 10.4405 11.985 12.143 11.985ZM12.143 7.32H17.5955C18.4655 7.32 19.178 8.0325 19.178 8.9025C19.178 9.7725 18.4655 10.485 17.5955 10.485H12.143C11.273 10.485 10.5605 9.7725 10.5605 8.9025C10.5605 8.0325 11.273 7.32 12.143 7.32Z" fill="#222222"/>
<path d="M12.143 21.1575H17.5955C19.298 21.1575 20.678 19.7775 20.678 18.075C20.678 16.3725 19.298 14.9925 17.5955 14.9925H12.143C10.4405 14.9925 9.06055 16.3725 9.06055 18.075C9.06055 19.7775 10.4405 21.1575 12.143 21.1575ZM12.143 16.4925H17.5955C18.4655 16.4925 19.178 17.205 19.178 18.075C19.178 18.945 18.4655 19.6575 17.5955 19.6575H12.143C11.273 19.6575 10.5605 18.945 10.5605 18.075C10.5605 17.205 11.273 16.4925 12.143 16.4925Z" fill="#222222"/>
<path d="M4.18555 3.3V44.7C4.18555 46.11 5.33305 47.25 6.73555 47.25H41.2655C42.6755 47.25 43.8155 46.1025 43.8155 44.7V3.3C43.8155 1.89 42.668 0.75 41.2655 0.75H6.73555C5.32555 0.75 4.18555 1.8975 4.18555 3.3ZM42.323 3.3V44.7C42.323 45.2775 41.8505 45.75 41.273 45.75H6.73555C6.15805 45.75 5.68555 45.2775 5.68555 44.7V3.3C5.68555 2.7225 6.15805 2.25 6.73555 2.25H41.2655C41.843 2.25 42.3155 2.7225 42.3155 3.3H42.323Z" fill="#222222"/>
</svg>
