<svg width="48" height="48" viewBox="0 0 48 48" fill="none" xmlns="http://www.w3.org/2000/svg">
<g clip-path="url(#clip0_1005_18162)">
<path d="M44.4475 19C44.6632 18.0481 44.5462 17.7706 44.0472 12.5881C45.1808 9.76672 45.4495 9.56497 45.4495 8.78609C45.4495 7.84241 44.8882 6.99669 44.018 6.63031C33.865 2.4215 34.3108 2.39319 33.4839 2.39319C32.5402 2.39319 31.6945 2.95541 31.3282 3.82475L30.0483 6.86488L26.7577 9.49344V7.26978C26.7577 5.74972 25.5202 4.51316 24.0001 4.51316C22.48 4.51316 21.2425 5.74972 21.2425 7.26978V7.91394L18.5235 7.00138C16.7369 6.40147 14.8458 6.84594 13.5178 8.00347L12.4011 6.70831C12.9485 5.49116 11.9649 4.65838 11.929 4.58759C11.2879 3.84434 10.162 3.76559 9.42384 4.40206L0.615938 11.993C0.224156 12.3301 0 12.8217 0 13.3397C0 13.7654 0.152531 14.177 0.429469 14.4991C0.496687 14.5469 1.1745 15.6396 2.45738 15.2789L5.66119 18.9962H5.02172C4.63181 18.9962 4.31541 19.3126 4.31541 19.7025C4.31541 20.0934 4.63181 20.4088 5.02172 20.4088C10.7118 20.4088 15.3911 20.4088 21.2424 20.4088V21.6275C21.2424 23.1476 22.4799 24.3851 24 24.3851C25.5136 24.3851 26.7576 23.1523 26.7576 21.6275V20.4088C30.8159 20.4088 40.1966 20.4088 44.2704 20.4088C45.5475 20.4088 46.5873 21.4486 46.5873 22.7266C46.5873 23.8144 45.8168 24.7506 44.7818 24.9869C44.3272 25.0916 3.74578 25.0435 3.72956 25.0435C2.46028 25.0435 1.41272 24.0125 1.41272 22.7266C1.41272 21.8903 1.87041 21.1142 2.60691 20.7017C2.94788 20.5115 3.06938 20.0811 2.87813 19.7401C2.68791 19.4001 2.2575 19.2787 1.91747 19.4689C0.734625 20.1311 0 21.379 0 22.7267C0 24.7789 1.66509 26.4478 3.71447 26.4563L9.39919 43.6517C9.78534 44.8214 10.8731 45.6069 12.105 45.6069H14.7014C14.7016 45.6069 14.7018 45.6069 14.702 45.6069C14.7022 45.6069 14.7025 45.6069 14.7028 45.6069H33.4545C33.4548 45.6069 33.4551 45.6069 33.4553 45.6069C33.4555 45.6069 33.4557 45.6069 33.4559 45.6069H36.0052C37.2427 45.6069 38.3323 44.8157 38.7147 43.6385L40.8121 37.1909C40.9327 36.8208 40.7292 36.4214 40.3591 36.301C39.988 36.1804 39.5896 36.3838 39.4682 36.7549L39.1613 37.6989H35.7097L36.7793 32.6737H40.7958L40.3422 34.0679C40.1935 34.5256 40.5372 34.9928 41.0147 34.9928C41.3122 34.9928 41.5892 34.8026 41.6862 34.5049L44.3045 26.4553C46.597 26.3461 48.0001 24.5817 48.0001 22.7267C48 20.7291 46.4215 19.0933 44.4475 19ZM1.97588 13.9331C1.86853 13.9331 1.76775 13.8869 1.69894 13.8078C1.578 13.6363 1.41262 13.557 1.41262 13.3397C1.41262 13.2324 1.45781 13.1316 1.53787 13.0638C10.7656 5.17522 10.2958 5.38531 10.582 5.38531C10.8322 5.38531 10.9074 5.59606 11.0576 5.74128C11.1902 5.89456 11.1682 6.12575 11.0199 6.25456C1.79756 14.1378 2.26003 13.9331 1.97588 13.9331ZM15.1263 18.9962H9.7665C8.23669 17.1089 9.13247 14.2491 11.4618 13.5526C14.6689 12.5867 17.2314 16.3741 15.1263 18.9962ZM16.7915 18.9962C17.1183 18.3417 17.3001 17.6089 17.3001 16.8489C17.3001 13.631 14.1794 11.2663 11.0569 12.1992C8.23472 13.0425 6.74644 16.2724 8.09775 18.9961H7.527L3.63703 14.483L11.4396 7.75747C12.8515 9.39566 19.9748 17.6608 21.1256 18.9961H16.7915V18.9962ZM21.2424 16.9666L14.4398 9.07428C15.4023 8.2295 16.7764 7.90456 18.0742 8.34059L21.2423 9.40391L21.2424 16.9666ZM25.1594 22.3085C24.459 23.4938 22.6552 22.9802 22.6552 21.6276C22.6552 20.281 22.6552 9.70456 22.6552 7.26978C22.6552 6.52859 23.2588 5.92578 24.0001 5.92578C24.7413 5.92578 25.345 6.5285 25.345 7.26978V10.8967C25.3449 22.5398 25.4242 21.8593 25.1594 22.3085ZM30.7424 8.11841C30.9619 8.21066 40.9968 12.4347 41.9961 12.8557C41.0401 13.6468 39.0369 15.3025 38.9362 15.3882L27.61 10.6198L30.7424 8.11841ZM26.7576 18.9962V18.66L27.5562 18.9962H26.7576ZM36.9357 18.9962H31.1963L30.2903 18.6147C31.5297 19.0621 32.8237 18.0873 32.7711 16.7726L32.6985 14.9558C32.666 14.116 31.6658 13.6932 31.04 14.2579L29.6903 15.4756C28.7108 16.359 28.9228 17.9638 30.1047 18.5355L26.7576 17.1266V11.7941L37.9999 16.5267C37.7975 16.8837 37.6986 17.1776 36.9357 18.9962ZM30.636 16.5239L31.3225 15.9052L31.3593 16.8291C31.3832 17.3999 30.5705 17.4824 30.4871 16.9411C30.4768 16.8658 30.4692 16.6756 30.636 16.5239ZM42.9755 18.9962H38.4623L39.083 17.5213C39.454 16.6379 39.7922 16.5239 42.7692 14.0499C43.1084 18.0618 43.2982 18.0427 42.9755 18.9962ZM43.9643 9.14403L42.8888 11.6982C42.0967 11.3649 32.9123 7.49872 31.5551 6.92703L32.6306 4.37281C32.8294 3.90097 33.3709 3.67963 33.8427 3.87931L43.4698 7.93194C43.9408 8.13059 44.1631 8.67125 43.9643 9.14403ZM5.20256 26.4563H10.0546L11.0772 31.261H6.79087L5.20256 26.4563ZM7.25784 32.6736H11.378L12.4476 37.6988H8.91909L7.25784 32.6736ZM12.105 44.1942C11.4834 44.1942 10.9353 43.7977 10.7403 43.2081L9.38606 39.1115H12.7482L13.8301 44.1942H12.105ZM12.8223 32.6736H13.5907C13.9808 32.6736 14.2971 32.3574 14.2971 31.9673C14.2971 31.5772 13.9808 31.261 13.5907 31.261H12.5216L11.499 26.4563H16.8549L17.2803 31.261H16.4162C16.0261 31.261 15.7099 31.5772 15.7099 31.9673C15.7099 32.3574 16.0261 32.6736 16.4162 32.6736H17.4053L17.8502 37.6988H13.8919L12.8223 32.6736ZM15.2744 44.1942L14.1925 39.1115H17.9752L18.4251 44.1942H15.2744ZM18.2732 26.4562H23.2937V31.2609H18.6985L18.2732 26.4562ZM18.8237 32.6736H23.2938V37.6988H19.2684L18.8237 32.6736ZM23.2938 44.1942H19.8435L19.3936 39.1115H23.2938V44.1942ZM28.3138 44.1942H24.7063V39.1116H28.7637L28.3138 44.1942ZM28.8888 37.6988H24.7063V32.6736H29.3336L28.8888 37.6988ZM24.7063 31.261V31.2609V26.4563H29.8839L29.4586 31.261H24.7063ZM32.8828 44.1942H29.732L30.1819 39.1115H33.9645L32.8828 44.1942ZM30.3069 37.6988L30.7518 32.6736H35.3348L34.2653 37.6988H30.3069ZM38.7018 39.1116L37.3717 43.2015C37.1786 43.7949 36.6295 44.1942 36.0051 44.1942H34.327L35.4089 39.1115H38.7018V39.1116ZM35.6356 31.2609H30.8769L31.3023 26.4562H36.6583L35.6356 31.2609ZM41.2552 31.2609H37.08L38.1026 26.4562H42.8182L41.2552 31.2609Z" fill="#222222"/>
<path d="M23.9996 22.2931C24.336 22.2931 24.6086 22.0204 24.6086 21.6841C24.6086 21.3477 24.336 21.0751 23.9996 21.0751C23.6633 21.0751 23.3906 21.3477 23.3906 21.6841C23.3906 22.0204 23.6633 22.2931 23.9996 22.2931Z" fill="#222222"/>
<path d="M15.3709 16.621L14.6608 16.0616L14.8952 15.0981C14.9875 14.7195 14.7549 14.3371 14.3763 14.2448C13.9967 14.1525 13.6144 14.3851 13.5221 14.7646L13.3648 15.4136C11.7683 15.0313 10.2942 15.5902 9.42897 17.2633C9.26884 17.5722 9.35743 17.9507 9.63709 18.1571C9.72559 18.223 10.5365 18.7965 11.5941 18.7965C12.308 18.7965 13.2668 18.5319 14.0664 17.3924C14.4104 17.628 14.5613 17.8821 14.9338 17.8821C15.603 17.8821 15.8972 17.0342 15.3709 16.621ZM11.0933 17.3076C11.455 16.9083 11.8985 16.7124 12.4353 16.7124C12.5587 16.7124 12.6783 16.7228 12.7904 16.7397C12.3033 17.337 11.7465 17.4982 11.0933 17.3076Z" fill="#222222"/>
</g>
<defs>
<clipPath id="clip0_1005_18162">
<rect width="48" height="48" fill="white"/>
</clipPath>
</defs>
</svg>
