<svg width="48" height="48" viewBox="0 0 48 48" fill="none" xmlns="http://www.w3.org/2000/svg">
<path fill-rule="evenodd" clip-rule="evenodd" d="M20.9729 36.7271V31.4118C20.9729 31.0345 20.666 30.7276 20.2887 30.7276C19.911 30.7276 19.6044 31.0345 19.6044 31.4118V36.7271C19.6044 37.1048 19.911 37.4113 20.2887 37.4113C20.6659 37.4114 20.9729 37.1048 20.9729 36.7271ZM15.9688 31.4119V36.7272C15.9688 37.1049 16.2753 37.4114 16.653 37.4114C17.0306 37.4114 17.3372 37.1048 17.3372 36.7272V31.4119C17.3372 31.0346 17.0306 30.7276 16.653 30.7276C16.2753 30.7276 15.9688 31.0345 15.9688 31.4119Z" fill="#222222"/>
<path fill-rule="evenodd" clip-rule="evenodd" d="M13.9967 37.4115H22.9472C23.325 37.4115 23.6314 37.1049 23.6314 36.7272C23.6314 36.3495 23.3249 36.043 22.9472 36.043H13.9967C13.619 36.043 13.3125 36.3496 13.3125 36.7272C13.3124 37.1049 13.619 37.4115 13.9967 37.4115Z" fill="#222222"/>
<path fill-rule="evenodd" clip-rule="evenodd" d="M30.1237 30.7276H4.06832C3.68192 30.7276 3.36858 30.4147 3.36858 30.0283V9.07605C3.36858 8.68965 3.68199 8.37674 4.06832 8.37674H10.8027C11.1804 8.37674 11.4869 8.07019 11.4869 7.69252C11.4869 7.31485 11.1804 7.0083 10.8027 7.0083C10.8027 7.0083 6.38609 7.0083 4.06832 7.0083C2.92608 7.00823 2 7.9338 2 9.07605V30.0283C2 31.1706 2.926 32.0961 4.06825 32.0961H30.1237C30.5014 32.0961 30.8079 31.7896 30.8079 31.4119C30.808 31.0346 30.5014 30.7276 30.1237 30.7276ZM33.5737 17.2743V23.5472C33.5737 23.9244 33.8803 24.2314 34.258 24.2314C34.6357 24.2314 34.9422 23.9244 34.9422 23.5472V17.2743C34.9422 16.8966 34.6356 16.5901 34.258 16.5901C33.8803 16.5901 33.5737 16.8966 33.5737 17.2743Z" fill="#222222"/>
<path fill-rule="evenodd" clip-rule="evenodd" d="M29.9969 25.2294H2.68422C2.30647 25.2294 2 25.5355 2 25.9136V30.0283C2 30.5766 2.21803 31.1026 2.60579 31.4908C2.99355 31.8785 3.51949 32.0961 4.06825 32.0961H30.1237C30.5014 32.0961 30.8079 31.7896 30.8079 31.4119C30.8079 31.0347 30.5014 30.7277 30.1237 30.7277H4.06825C3.88256 30.7277 3.70468 30.6543 3.5733 30.5229C3.44235 30.3919 3.36851 30.2141 3.36851 30.0284V26.5981H29.9969C30.3746 26.5981 30.6811 26.2915 30.6811 25.9138C30.6811 25.5362 30.3746 25.2294 29.9969 25.2294Z" fill="#222222"/>
<path fill-rule="evenodd" clip-rule="evenodd" d="M34.2582 22.8629C31.1102 22.8629 28.5547 25.4184 28.5547 28.5664C28.5547 31.7144 31.1102 34.2699 34.2582 34.2699C37.4062 34.2699 39.9621 31.7144 39.9621 28.5664C39.9621 25.4184 37.4062 22.8629 34.2582 22.8629ZM34.2582 24.2314C36.6508 24.2314 38.5936 26.1738 38.5936 28.5664C38.5936 30.959 36.6508 32.9014 34.2582 32.9014C31.8656 32.9014 29.9232 30.959 29.9232 28.5664C29.9232 26.1738 31.8656 24.2314 34.2582 24.2314Z" fill="#222222"/>
<path fill-rule="evenodd" clip-rule="evenodd" d="M25.3711 45.736C29.5013 45.736 39.0183 45.736 43.1489 45.7224C43.8528 45.7224 44.5092 45.3592 44.8856 44.7616C45.2614 44.1636 45.3039 43.4146 44.9978 42.7782C44.9973 42.7773 44.9973 42.7768 44.9968 42.7759C43.0645 38.7917 38.98 36.0428 34.2586 36.0428C29.5382 36.0428 25.4546 38.7908 23.509 42.7677C23.5081 42.769 23.5077 42.7704 23.5067 42.7717C23.1988 43.4127 23.2417 44.1672 23.6203 44.7689C23.999 45.3711 24.66 45.736 25.3711 45.736ZM25.3711 44.3675C25.3711 44.3675 25.3711 44.3675 25.3707 44.3675C25.1303 44.3675 24.9068 44.2439 24.7786 44.0404C24.6508 43.8374 24.6362 43.5829 24.7398 43.3662C26.4632 39.8455 30.0788 37.4114 34.2586 37.4114C38.4381 37.4114 42.0537 39.8451 43.7648 43.3717C43.8665 43.5838 43.8524 43.8338 43.7269 44.0332C43.6015 44.2326 43.3821 44.3539 43.1467 44.3539C43.1457 44.3539 43.1449 44.3539 43.1444 44.3539C39.0152 44.3675 29.5004 44.3675 25.3711 44.3675Z" fill="#222222"/>
<path fill-rule="evenodd" clip-rule="evenodd" d="M19.9583 10.0705V4.46782C19.9583 4.08141 20.2717 3.7685 20.658 3.7685H35.8676C36.0528 3.7685 36.2307 3.84242 36.3621 3.97329C36.4935 4.10467 36.5669 4.28256 36.5669 4.46782V13.3895C36.5669 13.5747 36.4935 13.7526 36.3621 13.8841C36.2307 14.015 36.0528 14.0889 35.8676 14.0889H25.779C25.4017 14.0889 25.0948 14.3954 25.0948 14.7731C25.0948 15.1507 25.4017 15.4573 25.779 15.4573H35.8676C36.4159 15.4573 36.9419 15.2393 37.3296 14.8515C37.7174 14.4637 37.9354 13.9378 37.9354 13.3895C37.9354 11.1401 37.9354 6.7171 37.9354 4.46774C37.9354 3.91941 37.7174 3.39348 37.3296 3.00571C36.9419 2.61802 36.416 2.39999 35.8677 2.39999C32.5185 2.39999 24.0068 2.39999 20.6581 2.39999C19.5158 2.39999 18.5898 3.326 18.5898 4.46782V10.0705C18.5898 10.4482 18.8968 10.7547 19.2741 10.7547C19.6517 10.7547 19.9583 10.4482 19.9583 10.0705Z" fill="#222222"/>
<path fill-rule="evenodd" clip-rule="evenodd" d="M32.6819 5.58398H26.8014C26.4237 5.58398 26.1172 5.89053 26.1172 6.2682C26.1172 6.64587 26.4237 6.95242 26.8014 6.95242H32.6819C33.0591 6.95242 33.3661 6.64587 33.3661 6.2682C33.3661 5.89053 33.0591 5.58398 32.6819 5.58398Z" fill="#222222"/>
<path fill-rule="evenodd" clip-rule="evenodd" d="M32.6819 8.24438H27.9323C27.5545 8.24438 27.248 8.55093 27.248 8.9286C27.248 9.30627 27.5546 9.61282 27.9323 9.61282H32.6819C33.0591 9.61282 33.3661 9.30627 33.3661 8.9286C33.3661 8.55093 33.0592 8.24438 32.6819 8.24438Z" fill="#222222"/>
<path fill-rule="evenodd" clip-rule="evenodd" d="M32.6817 10.9047H29.2467C28.869 10.9047 28.5625 11.2113 28.5625 11.5889C28.5625 11.9667 28.869 12.2732 29.2467 12.2732H32.6817C33.0589 12.2732 33.3659 11.9666 33.3659 11.5889C33.3659 11.2113 33.0589 10.9047 32.6817 10.9047Z" fill="#222222"/>
<path fill-rule="evenodd" clip-rule="evenodd" d="M13.7024 4.5527C11.7021 4.5527 10.0781 6.17666 10.0781 8.17694C10.0781 10.1772 11.7021 11.8017 13.7024 11.8017C15.7031 11.8017 17.3271 10.1773 17.3271 8.17694C17.3271 6.17659 15.7031 4.5527 13.7024 4.5527ZM13.7024 5.92121C14.9477 5.92121 15.9586 6.93208 15.9586 8.17694C15.9586 9.4223 14.9477 10.4332 13.7024 10.4332C12.4575 10.4332 11.4466 9.4223 11.4466 8.17694C11.4466 6.93208 12.4575 5.92121 13.7024 5.92121Z" fill="#222222"/>
<path fill-rule="evenodd" clip-rule="evenodd" d="M18.8622 12.9909H11.6133C9.64448 12.9909 7.96349 14.4114 7.63505 16.3529C7.36729 17.938 7.04708 19.8316 6.85044 20.9921C6.77202 21.4583 6.90246 21.9359 7.20765 22.2968C7.51283 22.6581 7.96213 22.8665 8.43476 22.8665H15.9392C16.8264 22.8665 17.5458 22.1472 17.5458 21.2599V17.5458H19.2632C20.1811 17.5458 21.0637 17.1909 21.7261 16.5554C22.2767 16.0267 23.0066 15.327 23.6124 14.7458C24.048 14.3275 24.2998 13.7536 24.3126 13.1497C24.325 12.5521 24.1019 11.9736 23.6918 11.5394C23.6877 11.5348 23.6704 11.5165 23.6659 11.5125C23.2489 11.0846 22.6805 10.8378 22.083 10.8255C21.479 10.8127 20.8951 11.0408 20.459 11.4587L18.8622 12.9909ZM19.1373 14.3594C19.3138 14.3594 19.4836 14.291 19.6108 14.1687C19.6108 14.1687 20.5802 13.239 21.4063 12.4462C21.5801 12.2797 21.8131 12.1885 22.0545 12.1935C22.2926 12.1985 22.5198 12.297 22.6858 12.4676C22.6877 12.4694 22.695 12.4768 22.6968 12.4785C22.8601 12.6519 22.949 12.8827 22.944 13.1213C22.939 13.3621 22.8386 13.5911 22.6649 13.7581C22.0591 14.3393 21.3296 15.039 20.7786 15.5678C20.3708 15.9587 19.828 16.1772 19.2632 16.1772H16.8615C16.4838 16.1772 16.1772 16.4833 16.1772 16.8614V21.2598C16.1772 21.3912 16.0705 21.4979 15.9391 21.4979H8.43469C8.36492 21.4979 8.2983 21.4669 8.25265 21.4136C8.2075 21.3602 8.18832 21.2891 8.1997 21.2202C8.39633 20.0597 8.71655 18.1661 8.98431 16.5809C9.20148 15.2982 10.3122 14.3594 11.6132 14.3594H19.1373Z" fill="#222222"/>
<path fill-rule="evenodd" clip-rule="evenodd" d="M11.0738 22.2963L11.8001 18.0023C11.863 17.6297 11.6117 17.2765 11.2394 17.2136C10.8672 17.1502 10.5136 17.4015 10.4507 17.7739L9.72451 22.0682C9.66154 22.4404 9.91291 22.794 10.2851 22.8569C10.6574 22.9199 11.0109 22.6689 11.0738 22.2963Z" fill="#222222"/>
<path fill-rule="evenodd" clip-rule="evenodd" d="M23.9031 12.3198L25.3359 8.41271C25.466 8.0578 25.2835 7.6646 24.9291 7.53458C24.5742 7.40456 24.181 7.58703 24.0509 7.94152L22.6181 11.8486C22.4881 12.2035 22.6706 12.5967 23.025 12.7267C23.3799 12.8567 23.7731 12.6742 23.9031 12.3198Z" fill="#222222"/>
<path fill-rule="evenodd" clip-rule="evenodd" d="M17.5221 29.3473H19.4184C19.7961 29.3473 20.1026 29.0407 20.1026 28.6631C20.1026 28.2853 19.7961 27.9789 19.4184 27.9789H17.5221C17.1444 27.9789 16.8379 28.2854 16.8379 28.6631C16.8379 29.0407 17.1444 29.3473 17.5221 29.3473Z" fill="#222222"/>
</svg>
