<svg width="48" height="48" viewBox="0 0 48 48" fill="none" xmlns="http://www.w3.org/2000/svg">
<g clip-path="url(#clip0_1005_19136)">
<path d="M3.75 8.25H5.25V9.75H3.75V8.25Z" fill="#222222"/>
<path d="M6.75 8.25H26.25V9.75H6.75V8.25Z" fill="#222222"/>
<path d="M8.25 21.75H9.75V23.25H8.25V29.25H9.75V30.75H8.25V36.75H26.25V30.75H24.75V29.25H26.25V23.25H24.75V21.75H26.25V15.75H8.25V21.75ZM24.75 35.25H9.75V32.25H24.75V35.25ZM23.25 30.75H11.25V29.25H23.25V30.75ZM24.75 27.75H9.75V24.75H24.75V27.75ZM23.25 23.25H11.25V21.75H23.25V23.25ZM9.75 17.25H24.75V20.25H9.75V17.25Z" fill="#222222"/>
<path d="M47.25 9.75V0.75H39.75V4.5H37.5C35.4323 4.5 33.75 6.18225 33.75 8.25V23.25H29.25V9C29.25 6.93225 27.5677 5.25 25.5 5.25H4.5C2.43225 5.25 0.75 6.93225 0.75 9V37.5C0.75 39.5677 2.43225 41.25 4.5 41.25H25.5C27.5677 41.25 29.25 39.5677 29.25 37.5V24.75H33.75V39.75C33.75 41.8177 35.4323 43.5 37.5 43.5H39.75V47.25H47.25V38.25H39.75V42H37.5C36.2595 42 35.25 40.9905 35.25 39.75V31.5H39.75V35.25H47.25V26.25H39.75V30H35.25V17.25H39.75V21.75H47.25V12.75H39.75V15.75H35.25V8.25C35.25 7.0095 36.2595 6 37.5 6H39.75V9.75H47.25ZM2.25 37.5V11.9985C2.877 12.4695 3.65625 12.75 4.5 12.75H5.25V39.75H4.5C3.2595 39.75 2.25 38.7405 2.25 37.5ZM27.75 37.5C27.75 38.7405 26.7405 39.75 25.5 39.75H6.75V12.75H25.5C26.7405 12.75 27.75 13.7595 27.75 15V37.5ZM27.75 12.0015C27.123 11.5305 26.3438 11.25 25.5 11.25H4.5C3.2595 11.25 2.25 10.2405 2.25 9C2.25 7.7595 3.2595 6.75 4.5 6.75H25.5C26.7405 6.75 27.75 7.7595 27.75 9V12.0015ZM41.25 39.75H45.75V45.75H41.25V39.75ZM41.25 27.75H45.75V33.75H41.25V27.75ZM41.25 14.25H45.75V20.25H41.25V14.25ZM41.25 2.25H45.75V8.25H41.25V2.25Z" fill="#222222"/>
</g>
<defs>
<clipPath id="clip0_1005_19136">
<rect width="48" height="48" fill="white"/>
</clipPath>
</defs>
</svg>
