<svg width="48" height="48" viewBox="0 0 48 48" fill="none" xmlns="http://www.w3.org/2000/svg">
<path d="M46.2773 5.93456C46.2773 4.22547 44.8882 2.8291 43.1719 2.8291H4.83006C3.12097 2.8291 1.72461 4.21819 1.72461 5.93456V33.1273C1.72461 34.4073 2.51006 35.5127 3.62279 35.9855C3.9937 36.1455 4.40097 36.2327 4.83006 36.2327H18.6192L15.7901 40.4H13.9428C12.4301 40.4 11.201 41.6291 11.201 43.1418V43.92H8.36461C8.02279 43.92 7.74643 44.1964 7.74643 44.5382C7.74643 44.88 8.02279 45.1564 8.36461 45.1564H44.7137C45.5792 45.1564 46.2773 44.4509 46.2773 43.5927V39.8982V5.93456ZM30.1028 21.0182C30.1028 20.8364 30.2482 20.6909 30.4301 20.6909H44.7137C44.8955 20.6909 45.041 20.8364 45.041 21.0182V39.2873H30.1028V21.0182ZM4.83006 4.07274H43.1719C44.1973 4.07274 45.0337 4.9091 45.0337 5.93456V19.4909C44.9246 19.4691 44.8228 19.4546 44.7064 19.4546H30.4301C29.5646 19.4546 28.8664 20.16 28.8664 21.0182V27.5637H2.96825V5.93456C2.96825 4.9091 3.80461 4.07274 4.83006 4.07274ZM4.10279 34.8509C3.4337 34.5673 2.96097 33.9055 2.96097 33.1346V28.8H28.8592V34.9964H4.83006C4.57552 34.9964 4.32825 34.9455 4.10279 34.8509ZM20.1173 36.24H28.8664V39.9055V40.4073H17.281L20.1173 36.24ZM12.4373 43.1491C12.4373 42.32 13.1137 41.6437 13.9428 41.6437H28.8664V43.6C28.8664 43.7091 28.881 43.8182 28.9028 43.9273H12.4373V43.1491ZM45.0337 43.6C45.0337 43.7818 44.8882 43.9273 44.7064 43.9273H30.4301C30.2482 43.9273 30.1028 43.7818 30.1028 43.6V40.5237H45.0337V43.6Z" fill="#222222"/>
<path d="M22.8526 32.5164H25.1507C25.4926 32.5164 25.7689 32.24 25.7689 31.8982C25.7689 31.5564 25.4926 31.28 25.1507 31.28H22.8526C22.5107 31.28 22.2344 31.5564 22.2344 31.8982C22.2344 32.24 22.5107 32.5164 22.8526 32.5164Z" fill="#222222"/>
<path d="M6.53925 14.5382H41.4629C42.0593 14.5382 42.5393 14.0582 42.5393 13.4618V7.16364C42.5393 6.56728 42.0593 6.08728 41.4629 6.08728H6.53925C5.94289 6.08728 5.46289 6.56728 5.46289 7.16364V13.4546C5.46289 14.0509 5.95016 14.5382 6.53925 14.5382ZM6.70653 7.33092H41.3029V13.3018H6.70653V7.33092Z" fill="#222222"/>
<path d="M6.53925 21.7746H13.8483C14.4447 21.7746 14.9247 21.2946 14.9247 20.6982V16.8582C14.9247 16.2619 14.4447 15.7819 13.8483 15.7819H6.53925C5.94289 15.7819 5.46289 16.2619 5.46289 16.8582V20.6982C5.46289 21.2946 5.94289 21.7746 6.53925 21.7746ZM6.69925 17.0255H13.6811V20.5382H6.69925V17.0255Z" fill="#222222"/>
<path d="M5.92092 24.1746H14.2991C14.6409 24.1746 14.9173 23.8982 14.9173 23.5564C14.9173 23.2146 14.6409 22.9382 14.2991 22.9382H5.92092C5.5791 22.9382 5.30273 23.2146 5.30273 23.5564C5.30273 23.8982 5.5791 24.1746 5.92092 24.1746Z" fill="#222222"/>
<path d="M5.92092 26.4436H14.2991C14.6409 26.4436 14.9173 26.1673 14.9173 25.8255C14.9173 25.4836 14.6409 25.2073 14.2991 25.2073H5.92092C5.5791 25.2073 5.30273 25.4836 5.30273 25.8255C5.30273 26.1673 5.5791 26.4436 5.92092 26.4436Z" fill="#222222"/>
<path d="M25.7976 15.7891H18.4885C17.8921 15.7891 17.4121 16.2691 17.4121 16.8654V20.7054C17.4121 21.3018 17.8921 21.7818 18.4885 21.7818H25.7976C26.3939 21.7818 26.8739 21.3018 26.8739 20.7054V16.8654C26.8739 16.2691 26.3939 15.7891 25.7976 15.7891ZM25.6376 20.5382H18.6557V17.0254H25.6376V20.5382Z" fill="#222222"/>
<path d="M26.2556 22.9309H17.8701C17.5283 22.9309 17.252 23.2073 17.252 23.5491C17.252 23.8909 17.5283 24.1673 17.8701 24.1673H26.2556C26.5974 24.1673 26.8738 23.8909 26.8738 23.5491C26.8738 23.2073 26.5974 22.9309 26.2556 22.9309Z" fill="#222222"/>
<path d="M26.2556 25.2H17.8701C17.5283 25.2 17.252 25.4763 17.252 25.8181C17.252 26.16 17.5283 26.4363 17.8701 26.4363H26.2556C26.5974 26.4363 26.8738 26.16 26.8738 25.8181C26.8738 25.4763 26.5974 25.2 26.2556 25.2Z" fill="#222222"/>
<path d="M37.0694 42.8437H38.0657C38.4075 42.8437 38.6839 42.5673 38.6839 42.2255C38.6839 41.8837 38.4075 41.6073 38.0657 41.6073H37.0694C36.7275 41.6073 36.4512 41.8837 36.4512 42.2255C36.4512 42.5673 36.7275 42.8437 37.0694 42.8437Z" fill="#222222"/>
<path d="M42.7213 22.2618H32.4376C31.914 22.2618 31.4922 22.6837 31.4922 23.2073V26.1018C31.4922 26.6255 31.9213 27.0546 32.4376 27.0546H42.7213C43.2449 27.0546 43.674 26.6255 43.674 26.1018V23.2073C43.674 22.6837 43.2449 22.2618 42.7213 22.2618ZM42.4304 25.8182H32.7286V23.4982H42.4376V25.8182H42.4304Z" fill="#222222"/>
<path d="M36.0886 28.2982H32.4231C31.9067 28.2982 31.4922 28.72 31.4922 29.2291V32.5237C31.4922 33.04 31.914 33.4546 32.4231 33.4546H36.0886C36.6049 33.4546 37.0195 33.0328 37.0195 32.5237V29.2291C37.0195 28.7128 36.5976 28.2982 36.0886 28.2982ZM35.7831 32.2182H32.7286V29.5346H35.7831V32.2182Z" fill="#222222"/>
<path d="M36.4013 34.3273H32.1104C31.7686 34.3273 31.4922 34.6036 31.4922 34.9455C31.4922 35.2873 31.7686 35.5636 32.1104 35.5636H36.4013C36.7431 35.5636 37.0195 35.2873 37.0195 34.9455C37.0195 34.6036 36.7431 34.3273 36.4013 34.3273Z" fill="#222222"/>
<path d="M36.4013 36.4291H32.1104C31.7686 36.4291 31.4922 36.7054 31.4922 37.0473C31.4922 37.3891 31.7686 37.6654 32.1104 37.6654H36.4013C36.7431 37.6654 37.0195 37.3891 37.0195 37.0473C37.0195 36.7054 36.7431 36.4291 36.4013 36.4291Z" fill="#222222"/>
<path d="M42.735 28.2982H39.0696C38.5532 28.2982 38.1387 28.72 38.1387 29.2291V32.5237C38.1387 33.04 38.5605 33.4546 39.0696 33.4546H42.735C43.2514 33.4546 43.6659 33.0328 43.6659 32.5237V29.2291C43.6732 28.7128 43.2514 28.2982 42.735 28.2982ZM42.4296 32.2182H39.375V29.5346H42.4296V32.2182Z" fill="#222222"/>
<path d="M43.0478 34.3273H38.7569C38.415 34.3273 38.1387 34.6036 38.1387 34.9455C38.1387 35.2873 38.415 35.5636 38.7569 35.5636H43.0478C43.3896 35.5636 43.6659 35.2873 43.6659 34.9455C43.6732 34.6036 43.3969 34.3273 43.0478 34.3273Z" fill="#222222"/>
<path d="M43.0478 36.4291H38.7569C38.415 36.4291 38.1387 36.7054 38.1387 37.0473C38.1387 37.3891 38.415 37.6654 38.7569 37.6654H43.0478C43.3896 37.6654 43.6659 37.3891 43.6659 37.0473C43.6659 36.7054 43.3969 36.4291 43.0478 36.4291Z" fill="#222222"/>
</svg>
