<svg width="48" height="48" viewBox="0 0 48 48" fill="none" xmlns="http://www.w3.org/2000/svg">
<path d="M13.4743 31.3557C12.3351 31.3557 11.4076 32.2833 11.4076 33.4234C11.4076 34.5618 12.3351 35.4884 13.4743 35.4884C14.6136 35.4884 15.5411 34.5618 15.5411 33.4234C15.5411 32.2833 14.6136 31.3557 13.4743 31.3557ZM13.4743 34.0884C13.1068 34.0884 12.8076 33.79 12.8076 33.4234C12.8076 33.055 13.1068 32.7558 13.4743 32.7558C13.8418 32.7558 14.1411 33.055 14.1411 33.4234C14.1411 33.79 13.8418 34.0884 13.4743 34.0884ZM16.9787 16.7431H21.4876C21.8744 16.7431 22.1877 16.4299 22.1877 16.0431V11.5395C22.1877 11.1527 21.8744 10.8395 21.4876 10.8395H16.9787C16.592 10.8395 16.2787 11.1527 16.2787 11.5395V16.0431C16.2787 16.4299 16.5929 16.7431 16.9787 16.7431ZM17.6787 12.2404H20.7876V15.344H17.6787V12.2404ZM24.1669 16.7431H28.6741C29.0608 16.7431 29.3741 16.4299 29.3741 16.0431V11.5395C29.3741 11.1527 29.0608 10.8395 28.6741 10.8395H24.1678C23.781 10.8395 23.4678 11.1527 23.4678 11.5395V16.0431C23.4669 16.4299 23.7802 16.7431 24.1669 16.7431ZM24.8669 12.2404H27.9741V15.344H24.8678V12.2404H24.8669ZM16.9787 23.9199H21.4876C21.8744 23.9199 22.1877 23.6067 22.1877 23.2199V18.7189C22.1877 18.3321 21.8744 18.0189 21.4876 18.0189H16.9787C16.592 18.0189 16.2787 18.3321 16.2787 18.7189V23.2199C16.2787 23.6067 16.5929 23.9199 16.9787 23.9199ZM17.6787 19.4189H20.7876V22.5199H17.6787V19.4189ZM24.1669 23.9199H28.6741C29.0608 23.9199 29.3741 23.6067 29.3741 23.2199V18.7189C29.3741 18.3321 29.0608 18.0189 28.6741 18.0189H24.1678C23.781 18.0189 23.4678 18.3321 23.4678 18.7189V23.2199C23.4669 23.6067 23.7802 23.9199 24.1669 23.9199ZM24.8669 19.4189H27.9741V22.5199H24.8678V19.4189H24.8669ZM39.9967 25.1948H35.4878C35.101 25.1948 34.7878 25.5081 34.7878 25.8948V30.3985C34.7878 30.7852 35.101 31.0985 35.4878 31.0985H39.9967C40.3834 31.0985 40.6967 30.7852 40.6967 30.3985V25.8948C40.6967 25.5081 40.3825 25.1948 39.9967 25.1948ZM39.2967 29.6985H36.1878V26.5948H39.2967V29.6985ZM45.2992 43.9821H44.0051V23.8543C44.0051 23.5909 43.8572 23.3503 43.6227 23.2304L32.8785 17.7625V7.41819C32.8785 7.03144 32.5652 6.71818 32.1785 6.71818H30.8642V3.10003C30.8642 2.71328 30.551 2.40002 30.1642 2.40002H15.4886C15.1019 2.40002 14.7886 2.71328 14.7886 3.10003V6.71731H13.4743C13.0876 6.71731 12.7743 7.03056 12.7743 7.41731V15.2311H5.50303C5.11627 15.2311 4.80302 15.5444 4.80302 15.9311V31.5859L1.48674 34.0035C1.33624 34.1129 1.23562 34.2783 1.20762 34.4611C1.17874 34.6449 1.22512 34.8322 1.33449 34.9827L2.74063 36.9024C2.87801 37.0897 3.09063 37.1885 3.30588 37.1885C3.44938 37.1885 3.59376 37.1448 3.71801 37.0538L4.80302 36.2628V43.9803H3.50889C3.12213 43.9803 2.80888 44.2936 2.80888 44.6804C2.80888 45.0671 3.12213 45.3804 3.50889 45.3804H45.2992C45.686 45.3804 45.9992 45.0671 45.9992 44.6804C45.9992 44.2936 45.686 43.9821 45.2992 43.9821ZM36.1869 35.2023L36.347 34.9835C36.4564 34.8339 36.5019 34.6458 36.4739 34.4629C36.4459 34.28 36.3453 34.1146 36.1948 34.0053L36.1869 34V33.7751H39.2958V36.8762H36.1869V35.2023ZM34.8035 34.7228L34.226 35.512L24.6219 28.5076C24.4994 28.4184 24.3542 28.3729 24.2098 28.3729C24.0654 28.3729 23.9202 28.4175 23.7977 28.5076L20.862 30.6487L20.0308 30.0415L24.2098 26.9956L34.8035 34.7228ZM16.1886 3.80004H29.4642V6.71731H16.1886V3.80004ZM14.1743 8.11819H31.4785V30.5656L24.6219 25.565C24.376 25.3856 24.0427 25.3856 23.7968 25.565L18.8408 29.177L14.1743 25.775V8.11819ZM12.7743 22.5199H9.29531V19.4189H12.7743V22.5199ZM6.20303 16.632H12.7743V18.0189H8.5953C8.20855 18.0189 7.89529 18.3321 7.89529 18.7189V23.2199C7.89529 23.6067 8.20855 23.9199 8.5953 23.9199H12.7743V25.775L6.20303 30.5665V16.632ZM3.45726 35.5129L2.87801 34.7228L13.4743 26.9973L24.0707 34.7236L23.4932 35.5129L13.8865 28.5076C13.6406 28.3282 13.3072 28.3282 13.0613 28.5076L3.45726 35.5129ZM11.4111 43.9821V39.1442H15.5376V43.9821H11.4111ZM16.9376 43.9821V38.4442C16.9376 38.0574 16.6244 37.7442 16.2376 37.7442H10.7111C10.3243 37.7442 10.0111 38.0574 10.0111 38.4442V43.9821H6.20303V35.2434L13.4743 29.94L20.7456 35.2417V43.9821H16.9376ZM22.1465 43.9821V36.2628L23.2342 37.0555C23.5465 37.283 23.984 37.2148 24.2115 36.9033L25.6151 34.9835C25.7244 34.8339 25.7699 34.6458 25.7419 34.462C25.7131 34.2783 25.6124 34.1138 25.4628 34.0044L22.0494 31.5159L24.2098 29.94L31.4794 35.2417V43.9821H22.1465ZM32.8785 43.9821V36.2628L33.9661 37.0555C34.0904 37.1465 34.2347 37.1903 34.3783 37.1903C34.5235 37.1903 34.667 37.1439 34.7878 37.0573V37.5753C34.7878 37.9621 35.101 38.2753 35.4878 38.2753H39.9967C40.3834 38.2753 40.6967 37.9621 40.6967 37.5753V33.0743C40.6967 32.6875 40.3834 32.3743 39.9967 32.3743H35.4878C35.1325 32.3743 34.8394 32.6394 34.7948 32.9833L32.8794 31.5868V19.3332L42.6059 24.2831V43.9821H32.8785Z" fill="#222222"/>
</svg>
