<svg width="48" height="48" viewBox="0 0 48 48" fill="none" xmlns="http://www.w3.org/2000/svg">
<path d="M20.25 8.25H21.75V9.75H20.25V8.25Z" fill="#222222"/>
<path d="M39.75 26.25H41.25V27.75H39.75V26.25Z" fill="#222222"/>
<path d="M26.25 38.25H27.75V39.75H26.25V38.25Z" fill="#222222"/>
<path d="M20.25 40.5H21.75V42H20.25V40.5Z" fill="#222222"/>
<path d="M8.25 23.25H9.75V24.75H8.25V23.25Z" fill="#222222"/>
<path d="M26.25 8.25H27.75V9.75H26.25V8.25Z" fill="#222222"/>
<path d="M38.25 20.25H39.75V21.75H38.25V20.25Z" fill="#222222"/>
<path d="M34.5 12.75H36V14.25H34.5V12.75Z" fill="#222222"/>
<path d="M12 12.75H13.5V14.25H12V12.75Z" fill="#222222"/>
<path d="M34.5 33.75H36V35.25H34.5V33.75Z" fill="#222222"/>
<path d="M12 33.75H13.5V35.25H12V33.75Z" fill="#222222"/>
<path d="M23.9113 23.25C23.3868 23.2669 22.8848 23.467 22.4924 23.8156C22.1001 24.1641 21.8422 24.6391 21.7636 25.158C21.685 25.6769 21.7906 26.2069 22.0621 26.656C22.3336 27.1051 22.7539 27.445 23.2498 27.6165V29.25H24.7498V27.6113C25.258 27.4333 25.6852 27.0786 25.9537 26.6119C26.2221 26.1452 26.3139 25.5976 26.2122 25.0689C26.1106 24.5401 25.8223 24.0656 25.3999 23.7317C24.9775 23.3978 24.4492 23.2269 23.9113 23.25ZM24.7498 25.4708C24.7538 25.5692 24.7382 25.6675 24.7042 25.7599C24.6701 25.8524 24.6182 25.9372 24.5513 26.0096C24.4844 26.0819 24.404 26.1404 24.3145 26.1817C24.225 26.2229 24.1283 26.2461 24.0298 26.25C23.9313 26.2539 23.8329 26.2382 23.7403 26.204C23.6478 26.1697 23.5629 26.1176 23.4906 26.0505C23.3816 25.9499 23.3049 25.8191 23.2701 25.6749C23.2354 25.5306 23.2443 25.3793 23.2956 25.2401C23.3469 25.1009 23.4383 24.98 23.5584 24.8928C23.6784 24.8055 23.8216 24.7558 23.9698 24.75H23.9998C24.1937 24.7498 24.38 24.8247 24.5198 24.959C24.6597 25.0932 24.7421 25.2771 24.7498 25.4708Z" fill="#222222"/>
<path d="M27.75 21.138V20.25C27.75 19.2554 27.3549 18.3016 26.6517 17.5983C25.9484 16.8951 24.9946 16.5 24 16.5C23.0054 16.5 22.0516 16.8951 21.3483 17.5983C20.6451 18.3016 20.25 19.2554 20.25 20.25V21.138C19.8128 21.2926 19.4341 21.5784 19.1656 21.9565C18.8971 22.3345 18.7519 22.7863 18.75 23.25V29.25C18.75 29.8467 18.9871 30.419 19.409 30.841C19.831 31.2629 20.4033 31.5 21 31.5H27C27.5967 31.5 28.169 31.2629 28.591 30.841C29.0129 30.419 29.25 29.8467 29.25 29.25V23.25C29.2481 22.7863 29.1029 22.3345 28.8344 21.9565C28.5659 21.5784 28.1872 21.2926 27.75 21.138ZM21.75 20.25C21.75 19.6533 21.9871 19.081 22.409 18.659C22.831 18.2371 23.4033 18 24 18C24.5967 18 25.169 18.2371 25.591 18.659C26.0129 19.081 26.25 19.6533 26.25 20.25V21H21.75V20.25ZM27.75 29.25C27.75 29.4489 27.671 29.6397 27.5303 29.7803C27.3897 29.921 27.1989 30 27 30H21C20.8011 30 20.6103 29.921 20.4697 29.7803C20.329 29.6397 20.25 29.4489 20.25 29.25V23.25C20.25 23.0511 20.329 22.8603 20.4697 22.7197C20.6103 22.579 20.8011 22.5 21 22.5H27C27.1989 22.5 27.3897 22.579 27.5303 22.7197C27.671 22.8603 27.75 23.0511 27.75 23.25V29.25Z" fill="#222222"/>
<path d="M44.25 30.75C43.9159 30.7513 43.5864 30.8282 43.2863 30.975L41.5612 29.25H34.5V27.75H38.25V26.25H34.5V24.75H38.427L42.6922 22.617C43.0661 22.9751 43.5521 23.193 44.0681 23.2338C44.5841 23.2747 45.0984 23.1361 45.524 22.8414C45.9495 22.5467 46.2602 22.114 46.4034 21.6165C46.5466 21.1191 46.5135 20.5875 46.3098 20.1116C46.1061 19.6358 45.7442 19.2449 45.2854 19.0052C44.8266 18.7655 44.2991 18.6916 43.7922 18.7961C43.2852 18.9006 42.8299 19.177 42.5033 19.5787C42.1767 19.9803 41.9989 20.4824 42 21C42.0035 21.0912 42.0128 21.1822 42.0277 21.2723L38.073 23.25H34.5V21.75H36.75V20.25H34.5V18.75H37.8105L40.2855 16.275C40.5859 16.4219 40.9156 16.4988 41.25 16.5C41.695 16.5 42.13 16.368 42.5 16.1208C42.87 15.8736 43.1584 15.5222 43.3287 15.111C43.499 14.6999 43.5436 14.2475 43.4568 13.811C43.3699 13.3746 43.1557 12.9737 42.841 12.659C42.5263 12.3443 42.1254 12.13 41.689 12.0432C41.2525 11.9564 40.8001 12.001 40.389 12.1713C39.9778 12.3416 39.6264 12.63 39.3792 13C39.132 13.37 39 13.805 39 14.25C39.0013 14.5841 39.0782 14.9136 39.225 15.2137L37.1895 17.25H34.5C34.4988 16.2558 34.1033 15.3027 33.4003 14.5997C32.6973 13.8967 31.7442 13.5012 30.75 13.5V11.5605L35.0363 7.275C35.3364 7.42178 35.6659 7.49871 36 7.5C36.445 7.5 36.88 7.36804 37.25 7.12081C37.62 6.87357 37.9084 6.52217 38.0787 6.11104C38.249 5.6999 38.2936 5.2475 38.2068 4.81105C38.1199 4.37459 37.9057 3.97368 37.591 3.65901C37.2763 3.34434 36.8754 3.13005 36.439 3.04323C36.0025 2.95642 35.5501 3.00098 35.139 3.17127C34.7278 3.34157 34.3764 3.62996 34.1292 3.99997C33.882 4.36998 33.75 4.80499 33.75 5.25C33.7513 5.58412 33.8282 5.9136 33.975 6.21375L29.25 10.9388V13.5H27.75V11.25H26.25V13.5H24.75V8.112C25.2504 7.93508 25.6722 7.58695 25.9407 7.12914C26.2093 6.67133 26.3074 6.13332 26.2176 5.6102C26.1278 5.08708 25.856 4.61253 25.4502 4.27042C25.0444 3.92832 24.5308 3.74068 24 3.74068C23.4692 3.74068 22.9556 3.92832 22.5498 4.27042C22.144 4.61253 21.8722 5.08708 21.7824 5.6102C21.6927 6.13332 21.7907 6.67133 22.0593 7.12914C22.3278 7.58695 22.7496 7.93508 23.25 8.112V13.5H21.75V11.25H20.25V13.5H18.75V7.9395L15.525 4.7145C15.6719 4.41412 15.7488 4.08437 15.75 3.75C15.75 3.30499 15.618 2.86998 15.3708 2.49997C15.1236 2.12996 14.7722 1.84157 14.361 1.67127C13.9499 1.50097 13.4975 1.45642 13.061 1.54323C12.6246 1.63005 12.2237 1.84434 11.909 2.15901C11.5943 2.47368 11.3801 2.87459 11.2932 3.31105C11.2064 3.7475 11.251 4.1999 11.4213 4.61104C11.5916 5.02217 11.88 5.37357 12.25 5.62081C12.62 5.86804 13.055 6 13.5 6C13.8341 5.99871 14.1636 5.92178 14.4638 5.775L17.25 8.5605V13.5C16.2558 13.5012 15.3027 13.8967 14.5997 14.5997C13.8967 15.3027 13.5012 16.2558 13.5 17.25H10.8105L8.775 15.2137C8.92178 14.9136 8.99871 14.5841 9 14.25C9 13.805 8.86804 13.37 8.62081 13C8.37357 12.63 8.02217 12.3416 7.61104 12.1713C7.1999 12.001 6.74751 11.9564 6.31105 12.0432C5.87459 12.13 5.47368 12.3443 5.15901 12.659C4.84434 12.9737 4.63005 13.3746 4.54323 13.811C4.45642 14.2475 4.50098 14.6999 4.67127 15.111C4.84157 15.5222 5.12996 15.8736 5.49997 16.1208C5.86998 16.368 6.30499 16.5 6.75 16.5C7.08412 16.4987 7.4136 16.4218 7.71375 16.275L10.1888 18.75H13.5V20.25H8.7285L4.8 23.523C4.47805 23.3464 4.11722 23.2525 3.75 23.25C3.30499 23.25 2.86998 23.382 2.49997 23.6292C2.12996 23.8764 1.84157 24.2278 1.67127 24.639C1.50097 25.0501 1.45642 25.5025 1.54323 25.9389C1.63005 26.3754 1.84434 26.7763 2.15901 27.091C2.47368 27.4057 2.87459 27.6199 3.31105 27.7068C3.74751 27.7936 4.19991 27.749 4.61104 27.5787C5.02217 27.4084 5.37357 27.12 5.62081 26.75C5.86804 26.38 6 25.945 6 25.5C6.00051 25.199 5.94004 24.901 5.82225 24.624L9.2715 21.75H13.5V23.25H11.25V24.75H13.5V26.25H6.75V27.75H13.5V29.25H9.34875L6.32625 33.783C6.21846 33.764 6.10941 33.753 6 33.75C5.47823 33.7452 4.97072 33.9202 4.56283 34.2457C4.15494 34.5711 3.87156 35.027 3.76034 35.5369C3.64913 36.0467 3.71686 36.5792 3.95215 37.0449C4.18744 37.5107 4.57593 37.8812 5.05229 38.0942C5.52865 38.3071 6.06382 38.3495 6.56778 38.2143C7.07175 38.079 7.51377 37.7744 7.8195 37.3515C8.12523 36.9287 8.27603 36.4135 8.24653 35.8925C8.21702 35.3715 8.00902 34.8766 7.6575 34.491L10.1513 30.75H13.5C13.5012 31.7442 13.8967 32.6973 14.5997 33.4003C15.3027 34.1033 16.2558 34.4988 17.25 34.5V39.4395L14.4638 42.225C14.1636 42.0782 13.8341 42.0013 13.5 42C13.055 42 12.62 42.132 12.25 42.3792C11.88 42.6264 11.5916 42.9778 11.4213 43.389C11.251 43.8001 11.2064 44.2525 11.2932 44.6889C11.3801 45.1254 11.5943 45.5263 11.909 45.841C12.2237 46.1557 12.6246 46.3699 13.061 46.4568C13.4975 46.5436 13.9499 46.499 14.361 46.3287C14.7722 46.1584 15.1236 45.87 15.3708 45.5C15.618 45.13 15.75 44.695 15.75 44.25C15.7487 43.9159 15.6718 43.5864 15.525 43.2862L18.75 40.0612V34.5H20.25V39H21.75V34.5H23.25V40.9155L27.8055 43.7655C27.6831 44.291 27.7507 44.8428 27.9964 45.3231C28.2421 45.8035 28.6499 46.1813 29.1476 46.3896C29.6453 46.5979 30.2007 46.6231 30.7153 46.4609C31.2299 46.2987 31.6704 45.9595 31.9587 45.5035C32.247 45.0474 32.3645 44.504 32.2903 43.9696C32.2161 43.4352 31.955 42.9443 31.5534 42.5841C31.1517 42.2238 30.6355 42.0174 30.0962 42.0015C29.5569 41.9856 29.0294 42.1613 28.6073 42.4972L24.75 40.0845V34.5H26.25V36.75H27.75V34.5H29.25V40.5H34.638C34.8149 41.0004 35.1631 41.4222 35.6209 41.6907C36.0787 41.9593 36.6167 42.0573 37.1398 41.9676C37.6629 41.8778 38.1375 41.606 38.4796 41.2002C38.8217 40.7944 39.0093 40.2808 39.0093 39.75C39.0093 39.2192 38.8217 38.7056 38.4796 38.2998C38.1375 37.894 37.6629 37.6222 37.1398 37.5324C36.6167 37.4426 36.0787 37.5407 35.6209 37.8093C35.1631 38.0778 34.8149 38.4996 34.638 39H30.75V34.5C31.7442 34.4988 32.6973 34.1033 33.4003 33.4003C34.1033 32.6973 34.4988 31.7442 34.5 30.75H40.9395L42.225 32.0362C42.0782 32.3364 42.0013 32.6659 42 33C42 33.445 42.132 33.88 42.3792 34.25C42.6264 34.62 42.9778 34.9084 43.389 35.0787C43.8001 35.249 44.2525 35.2936 44.689 35.2068C45.1254 35.1199 45.5263 34.9057 45.841 34.591C46.1557 34.2763 46.3699 33.8754 46.4568 33.4389C46.5436 33.0025 46.499 32.5501 46.3287 32.139C46.1584 31.7278 45.87 31.3764 45.5 31.1292C45.13 30.882 44.695 30.75 44.25 30.75ZM44.25 20.25C44.3983 20.25 44.5433 20.294 44.6667 20.3764C44.79 20.4588 44.8861 20.5759 44.9429 20.713C44.9997 20.85 45.0145 21.0008 44.9856 21.1463C44.9566 21.2918 44.8852 21.4254 44.7803 21.5303C44.6754 21.6352 44.5418 21.7066 44.3963 21.7356C44.2508 21.7645 44.1 21.7497 43.963 21.6929C43.8259 21.6361 43.7088 21.54 43.6264 21.4167C43.544 21.2933 43.5 21.1483 43.5 21C43.5 20.8011 43.579 20.6103 43.7197 20.4697C43.8603 20.329 44.0511 20.25 44.25 20.25ZM41.25 13.5C41.3983 13.5 41.5433 13.544 41.6667 13.6264C41.79 13.7088 41.8861 13.8259 41.9429 13.963C41.9997 14.1 42.0145 14.2508 41.9856 14.3963C41.9566 14.5418 41.8852 14.6754 41.7803 14.7803C41.6754 14.8852 41.5418 14.9567 41.3963 14.9856C41.2508 15.0145 41.1 14.9997 40.963 14.9429C40.8259 14.8861 40.7088 14.79 40.6264 14.6667C40.544 14.5433 40.5 14.3983 40.5 14.25C40.5 14.0511 40.579 13.8603 40.7197 13.7197C40.8603 13.579 41.0511 13.5 41.25 13.5ZM36 4.5C36.1483 4.5 36.2933 4.54399 36.4167 4.6264C36.54 4.70881 36.6361 4.82594 36.6929 4.96299C36.7497 5.10003 36.7645 5.25083 36.7356 5.39632C36.7066 5.5418 36.6352 5.67544 36.5303 5.78033C36.4254 5.88522 36.2918 5.95665 36.1463 5.98559C36.0008 6.01453 35.85 5.99968 35.713 5.94291C35.5759 5.88614 35.4588 5.79002 35.3764 5.66668C35.294 5.54334 35.25 5.39834 35.25 5.25C35.25 5.05109 35.329 4.86032 35.4697 4.71967C35.6103 4.57902 35.8011 4.5 36 4.5ZM24 5.25C24.1483 5.25 24.2933 5.29399 24.4167 5.3764C24.54 5.45881 24.6361 5.57594 24.6929 5.71299C24.7497 5.85003 24.7645 6.00083 24.7356 6.14632C24.7067 6.2918 24.6352 6.42544 24.5303 6.53033C24.4254 6.63522 24.2918 6.70665 24.1463 6.73559C24.0008 6.76453 23.85 6.74968 23.713 6.69291C23.5759 6.63614 23.4588 6.54002 23.3764 6.41668C23.294 6.29334 23.25 6.14834 23.25 6C23.25 5.80109 23.329 5.61032 23.4697 5.46967C23.6103 5.32902 23.8011 5.25 24 5.25ZM12.75 3.75C12.75 3.60167 12.794 3.45666 12.8764 3.33332C12.9588 3.20999 13.0759 3.11386 13.213 3.05709C13.35 3.00033 13.5008 2.98547 13.6463 3.01441C13.7918 3.04335 13.9254 3.11478 14.0303 3.21967C14.1352 3.32456 14.2067 3.4582 14.2356 3.60368C14.2645 3.74917 14.2497 3.89997 14.1929 4.03701C14.1361 4.17406 14.04 4.29119 13.9167 4.3736C13.7933 4.45601 13.6483 4.5 13.5 4.5C13.3011 4.5 13.1103 4.42098 12.9697 4.28033C12.829 4.13968 12.75 3.94891 12.75 3.75ZM6 14.25C6 14.1017 6.04399 13.9567 6.1264 13.8333C6.20881 13.71 6.32594 13.6139 6.46299 13.5571C6.60003 13.5003 6.75083 13.4855 6.89632 13.5144C7.0418 13.5434 7.17544 13.6148 7.28033 13.7197C7.38522 13.8246 7.45665 13.9582 7.48559 14.1037C7.51453 14.2492 7.49968 14.4 7.44291 14.537C7.38615 14.6741 7.29002 14.7912 7.16668 14.8736C7.04334 14.956 6.89834 15 6.75 15C6.55109 15 6.36032 14.921 6.21967 14.7803C6.07902 14.6397 6 14.4489 6 14.25ZM3.75 26.25C3.60167 26.25 3.45666 26.206 3.33332 26.1236C3.20999 26.0412 3.11386 25.9241 3.05709 25.787C3.00033 25.65 2.98547 25.4992 3.01441 25.3537C3.04335 25.2082 3.11478 25.0746 3.21967 24.9697C3.32456 24.8648 3.4582 24.7934 3.60368 24.7644C3.74917 24.7355 3.89997 24.7503 4.03701 24.8071C4.17406 24.8639 4.29119 24.96 4.3736 25.0833C4.45601 25.2067 4.5 25.3517 4.5 25.5C4.5 25.6989 4.42098 25.8897 4.28033 26.0303C4.13968 26.171 3.94891 26.25 3.75 26.25ZM6 36.75C5.85167 36.75 5.70666 36.706 5.58332 36.6236C5.45999 36.5412 5.36386 36.4241 5.30709 36.287C5.25033 36.15 5.23547 35.9992 5.26441 35.8537C5.29335 35.7082 5.36478 35.5746 5.46967 35.4697C5.57456 35.3648 5.7082 35.2933 5.85368 35.2644C5.99917 35.2355 6.14997 35.2503 6.28701 35.3071C6.42406 35.3639 6.54119 35.46 6.6236 35.5833C6.70601 35.7067 6.75 35.8517 6.75 36C6.75 36.1989 6.67098 36.3897 6.53033 36.5303C6.38968 36.671 6.19891 36.75 6 36.75ZM13.5 45C13.3517 45 13.2067 44.956 13.0833 44.8736C12.96 44.7912 12.8639 44.6741 12.8071 44.537C12.7503 44.4 12.7355 44.2492 12.7644 44.1037C12.7934 43.9582 12.8648 43.8246 12.9697 43.7197C13.0746 43.6148 13.2082 43.5433 13.3537 43.5144C13.4992 43.4855 13.65 43.5003 13.787 43.5571C13.9241 43.6139 14.0412 43.71 14.1236 43.8333C14.206 43.9567 14.25 44.1017 14.25 44.25C14.25 44.4489 14.171 44.6397 14.0303 44.7803C13.8897 44.921 13.6989 45 13.5 45ZM30 43.5C30.1483 43.5 30.2933 43.544 30.4167 43.6264C30.54 43.7088 30.6361 43.8259 30.6929 43.963C30.7497 44.1 30.7645 44.2508 30.7356 44.3963C30.7066 44.5418 30.6352 44.6754 30.5303 44.7803C30.4254 44.8852 30.2918 44.9566 30.1463 44.9856C30.0008 45.0145 29.85 44.9997 29.713 44.9429C29.5759 44.8861 29.4588 44.79 29.3764 44.6667C29.294 44.5433 29.25 44.3983 29.25 44.25C29.25 44.0511 29.329 43.8603 29.4697 43.7197C29.6103 43.579 29.8011 43.5 30 43.5ZM36.75 39C36.8983 39 37.0433 39.044 37.1667 39.1264C37.29 39.2088 37.3861 39.3259 37.4429 39.463C37.4997 39.6 37.5145 39.7508 37.4856 39.8963C37.4566 40.0418 37.3852 40.1754 37.2803 40.2803C37.1754 40.3852 37.0418 40.4566 36.8963 40.4856C36.7508 40.5145 36.6 40.4997 36.463 40.4429C36.3259 40.3861 36.2088 40.29 36.1264 40.1667C36.044 40.0433 36 39.8983 36 39.75C36 39.5511 36.079 39.3603 36.2197 39.2197C36.3603 39.079 36.5511 39 36.75 39ZM33 30.75C33 31.3467 32.7629 31.919 32.341 32.341C31.919 32.7629 31.3467 33 30.75 33H17.25C16.6533 33 16.081 32.7629 15.659 32.341C15.2371 31.919 15 31.3467 15 30.75V17.25C15 16.6533 15.2371 16.081 15.659 15.659C16.081 15.2371 16.6533 15 17.25 15H30.75C31.3467 15 31.919 15.2371 32.341 15.659C32.7629 16.081 33 16.6533 33 17.25V30.75ZM44.25 33.75C44.1017 33.75 43.9567 33.706 43.8333 33.6236C43.71 33.5412 43.6139 33.4241 43.5571 33.287C43.5003 33.15 43.4855 32.9992 43.5144 32.8537C43.5434 32.7082 43.6148 32.5746 43.7197 32.4697C43.8246 32.3648 43.9582 32.2933 44.1037 32.2644C44.2492 32.2355 44.4 32.2503 44.537 32.3071C44.6741 32.3639 44.7912 32.46 44.8736 32.5833C44.956 32.7067 45 32.8517 45 33C45 33.1989 44.921 33.3897 44.7803 33.5303C44.6397 33.671 44.4489 33.75 44.25 33.75Z" fill="#222222"/>
</svg>
