<svg width="48" height="48" viewBox="0 0 48 48" fill="none" xmlns="http://www.w3.org/2000/svg">
<path d="M31.8392 1.60001H10.9326C9.94277 1.60119 8.99388 1.9949 8.294 2.69478C7.59412 3.39466 7.2004 4.34356 7.19922 5.33334V42.6667C7.2004 43.6565 7.59412 44.6054 8.294 45.3052C8.99388 46.0051 9.94277 46.3988 10.9326 46.4H31.8392C32.829 46.3988 33.7779 46.0051 34.4778 45.3052C35.1777 44.6054 35.5714 43.6565 35.5725 42.6667V33.6552C36.9763 32.4677 38.1043 30.9884 38.878 29.3205C39.6517 27.6526 40.0525 25.836 40.0525 23.9974C40.0525 22.1588 39.6517 20.3422 38.878 18.6743C38.1043 17.0064 36.9763 15.5271 35.5725 14.3396V5.33334C35.5714 4.34356 35.1777 3.39466 34.4778 2.69478C33.7779 1.9949 32.829 1.60119 31.8392 1.60001ZM34.0792 42.6667C34.0792 43.2608 33.8432 43.8305 33.4231 44.2506C33.0031 44.6707 32.4333 44.9067 31.8392 44.9067H10.9326C10.3385 44.9067 9.76871 44.6707 9.34863 44.2506C8.92855 43.8305 8.69255 43.2608 8.69255 42.6667V5.33334C8.69255 4.73925 8.92855 4.1695 9.34863 3.74942C9.76871 3.32934 10.3385 3.09334 10.9326 3.09334H31.8392C32.4333 3.09334 33.0031 3.32934 33.4231 3.74942C33.8432 4.1695 34.0792 4.73925 34.0792 5.33334V13.248C33.6 12.9466 33.1011 12.6777 32.5859 12.4431V6.08001C32.5859 5.68395 32.4286 5.30411 32.1485 5.02406C31.8684 4.74401 31.4886 4.58667 31.0926 4.58667H28.5688C28.291 4.58491 28.0183 4.6609 27.7815 4.80605C27.5446 4.95119 27.3531 5.1597 27.2286 5.40801L26.4587 6.95062C26.3655 7.13716 26.2224 7.29416 26.0452 7.40411C25.868 7.51406 25.6637 7.57265 25.4552 7.57334H17.3166C17.1071 7.57301 16.9018 7.51438 16.7238 7.404C16.5458 7.29362 16.402 7.13586 16.3086 6.94838L15.5432 5.40801C15.4187 5.1597 15.2272 4.95119 14.9903 4.80605C14.7535 4.6609 14.4807 4.58491 14.203 4.58667H11.6792C11.2832 4.58667 10.9033 4.74401 10.6233 5.02406C10.3432 5.30411 10.1859 5.68395 10.1859 6.08001V41.92C10.1859 42.3161 10.3432 42.6959 10.6233 42.976C10.9033 43.256 11.2832 43.4133 11.6792 43.4133H31.0926C31.4886 43.4133 31.8684 43.256 32.1485 42.976C32.4286 42.6959 32.5859 42.3161 32.5859 41.92V35.5599C33.1013 35.3247 33.6003 35.0547 34.0792 34.752V42.6667ZM15.9218 29.4992L14.7107 34.752C14.6462 35.0135 14.6501 35.2873 14.7221 35.5468C14.7942 35.8064 14.9318 36.043 15.1219 36.2339C15.312 36.4248 15.548 36.5635 15.8072 36.6366C16.0665 36.7098 16.3402 36.7149 16.602 36.6515L21.86 35.4389C23.5735 36.2709 25.4545 36.6999 27.3592 36.6933C28.4468 36.6929 29.53 36.5542 30.5826 36.2804C30.7551 36.2356 30.9231 36.1796 31.0926 36.1274V41.92H11.6792V6.08001H14.2074L14.9743 7.61665C15.1928 8.05102 15.5273 8.41642 15.9407 8.67235C16.3541 8.92829 16.8303 9.06477 17.3166 9.06667H25.4552C25.9412 9.06475 26.4172 8.92824 26.8304 8.67229C27.2436 8.41634 27.5778 8.05095 27.796 7.61665L28.5688 6.08001H31.0926V11.8689C29.1941 11.2847 27.185 11.1542 25.2269 11.4879C23.2689 11.8215 21.4164 12.6101 19.8186 13.7901C18.2208 14.9701 16.9222 16.5086 16.0272 18.2818C15.1323 20.0551 14.666 22.0137 14.6659 24C14.6599 25.9048 15.0895 27.7858 15.9218 29.4992ZM38.5592 24C38.56 24.787 38.4774 25.5719 38.3128 26.3416C37.7799 28.8504 36.4006 31.0997 34.4064 32.7125C32.4121 34.3254 29.924 35.2036 27.3592 35.2C25.5977 35.2059 23.8604 34.7893 22.2931 33.9852C22.1363 33.9058 21.9567 33.8836 21.7854 33.9225L16.26 35.2C16.2468 35.2041 16.2326 35.2041 16.2193 35.2001C16.206 35.1961 16.1942 35.1883 16.1854 35.1776C16.1741 35.1677 16.1661 35.1546 16.1624 35.1401C16.1586 35.1256 16.1594 35.1103 16.1644 35.0962L17.4338 29.5776C17.4733 29.4063 17.4511 29.2265 17.3711 29.0699C16.5676 27.5011 16.152 25.7625 16.1592 24C16.1592 21.0296 17.3392 18.1808 19.4396 16.0804C21.54 13.98 24.3888 12.8 27.3592 12.8C30.3296 12.8 33.1784 13.98 35.2788 16.0804C37.3792 18.1808 38.5592 21.0296 38.5592 24Z" fill="#222222"/>
<path d="M16.9068 40.4267H25.8668C26.0649 40.4267 26.2548 40.348 26.3948 40.208C26.5348 40.068 26.6135 39.878 26.6135 39.68C26.6135 39.482 26.5348 39.2921 26.3948 39.152C26.2548 39.012 26.0649 38.9333 25.8668 38.9333H16.9068C16.7088 38.9333 16.5189 39.012 16.3788 39.152C16.2388 39.2921 16.1602 39.482 16.1602 39.68C16.1602 39.878 16.2388 40.068 16.3788 40.208C16.5189 40.348 16.7088 40.4267 16.9068 40.4267Z" fill="#222222"/>
<path d="M18.401 6.08H19.1476C19.3457 6.08 19.5356 6.00134 19.6756 5.86131C19.8156 5.72128 19.8943 5.53136 19.8943 5.33334C19.8943 5.13531 19.8156 4.94539 19.6756 4.80536C19.5356 4.66534 19.3457 4.58667 19.1476 4.58667H18.401C18.2029 4.58667 18.013 4.66534 17.873 4.80536C17.733 4.94539 17.6543 5.13531 17.6543 5.33334C17.6543 5.53136 17.733 5.72128 17.873 5.86131C18.013 6.00134 18.2029 6.08 18.401 6.08Z" fill="#222222"/>
<path d="M22.1334 6.08H24.3734C24.5714 6.08 24.7613 6.00134 24.9014 5.86131C25.0414 5.72128 25.1201 5.53136 25.1201 5.33334C25.1201 5.13531 25.0414 4.94539 24.9014 4.80536C24.7613 4.66534 24.5714 4.58667 24.3734 4.58667H22.1334C21.9354 4.58667 21.7454 4.66534 21.6054 4.80536C21.4654 4.94539 21.3867 5.13531 21.3867 5.33334C21.3867 5.53136 21.4654 5.72128 21.6054 5.86131C21.7454 6.00134 21.9354 6.08 22.1334 6.08Z" fill="#222222"/>
<path d="M28.1061 23.4027V19.5648C29.0641 19.6195 29.9781 19.9849 30.7098 20.6056C30.85 20.7424 31.0383 20.8185 31.2342 20.8177C31.43 20.8169 31.6177 20.7392 31.7568 20.6013C31.8958 20.4634 31.9752 20.2763 31.9777 20.0805C31.9801 19.8847 31.9056 19.6957 31.77 19.5543C30.7556 18.6519 29.4624 18.1248 28.1061 18.061V17.28C28.1061 17.082 28.0275 16.892 27.8875 16.752C27.7474 16.612 27.5575 16.5333 27.3595 16.5333C27.1615 16.5333 26.9715 16.612 26.8315 16.752C26.6915 16.892 26.6128 17.082 26.6128 17.28V18.0632C24.0495 18.2872 22.1328 19.6663 22.1328 21.3867C22.1328 23.4385 24.4027 24.1023 26.6128 24.5973V28.4352C25.6549 28.3805 24.7408 28.0151 24.0092 27.3943C23.869 27.2576 23.6806 27.1814 23.4848 27.1823C23.2889 27.1831 23.1013 27.2608 22.9622 27.3987C22.8231 27.5366 22.7438 27.7236 22.7413 27.9195C22.7388 28.1153 22.8134 28.3043 22.9489 28.4456C23.9633 29.3481 25.2566 29.8752 26.6128 29.939V30.72C26.6128 30.918 26.6915 31.1079 26.8315 31.248C26.9715 31.388 27.1615 31.4667 27.3595 31.4667C27.5575 31.4667 27.7474 31.388 27.8875 31.248C28.0275 31.1079 28.1061 30.918 28.1061 30.72V29.9367C30.6695 29.7127 32.5861 28.3336 32.5861 26.6133C32.5861 24.5615 30.3163 23.8977 28.1061 23.4027ZM23.6261 21.3867C23.6261 20.6079 24.8208 19.753 26.6128 19.5618V23.0711C25.0284 22.6993 23.6261 22.2558 23.6261 21.3867ZM28.1061 28.4382V24.9288C29.6906 25.2977 31.0928 25.7412 31.0928 26.6103C31.0928 27.3921 29.8981 28.247 28.1061 28.4382Z" fill="#222222"/>
</svg>
