<svg width="24" height="24" viewBox="0 0 24 24" fill="none" xmlns="http://www.w3.org/2000/svg">
<rect y="-0.000183105" width="24" height="24" rx="4" fill="#4E4E4E"/>
<path d="M17.9859 12.2475C17.987 12.2269 17.9881 12.2057 17.9886 12.184L18 11.9183L17.9897 11.9156C17.9707 10.512 17.4702 9.18233 16.568 8.11986L16.5789 8.10845L16.2945 7.81622C15.1551 6.64458 13.6282 5.99982 11.9959 5.99982C11.1578 5.99982 10.3512 6.16875 9.59397 6.50117L9.58801 6.49629L9.34211 6.61796C9.01642 6.77928 8.70864 6.96831 8.42203 7.18124C8.23096 7.32355 8.04859 7.47673 7.87706 7.63914C7.813 7.69998 7.75057 7.76245 7.68923 7.826C6.84624 8.69726 6.27357 9.81514 6.07653 11.0389L6.01303 11.4349L6.02714 11.4382C6.00977 11.6245 6 11.8119 6 11.9998C6 13.5897 6.63401 15.1144 7.74949 16.235L7.7446 16.2437L7.9943 16.468C9.09567 17.4556 10.5162 17.9998 11.9948 17.9998C12.0996 17.9998 12.2044 17.9971 12.308 17.9917C13.0354 17.9547 13.7395 17.788 14.4039 17.4952C14.4039 17.4952 14.4044 17.4952 14.4049 17.4947L14.6649 17.38V17.3719C16.6001 16.4056 17.8931 14.4295 17.9837 12.2633C17.9837 12.2627 17.9837 12.2616 17.9837 12.2611C17.9837 12.26 17.9837 12.2589 17.9837 12.2584V12.2486L17.9859 12.2475ZM17.1071 12.5756C17.1049 12.5973 17.1016 12.6185 17.0989 12.6397C17.094 12.6766 17.0897 12.713 17.0843 12.75C17.081 12.7733 17.0767 12.7967 17.0729 12.8206C17.0674 12.8548 17.062 12.889 17.0555 12.9227C17.0512 12.9471 17.0457 12.9716 17.0408 12.996C17.0343 13.0286 17.0278 13.0612 17.0208 13.0938C17.0153 13.1188 17.0094 13.1438 17.0034 13.1682C16.9958 13.2003 16.9882 13.2318 16.9801 13.2633C16.9735 13.2882 16.967 13.3132 16.96 13.3382C16.9513 13.3692 16.9431 13.4001 16.9339 13.4311C16.9268 13.4561 16.9193 13.4811 16.9111 13.5061C16.9019 13.5365 16.8921 13.5669 16.8818 13.5973C16.8737 13.6223 16.8655 13.6467 16.8568 13.6712C16.8465 13.7016 16.8357 13.7315 16.8248 13.7614C16.8161 13.7858 16.8069 13.8102 16.7977 13.8341C16.7863 13.864 16.7743 13.8939 16.7624 13.9232C16.7526 13.9471 16.7428 13.971 16.7331 13.9949C16.7206 14.0248 16.7076 14.0541 16.6945 14.0835C16.6842 14.1068 16.6739 14.1302 16.663 14.153C16.6495 14.1823 16.6354 14.2117 16.6207 14.241C16.6098 14.2633 16.599 14.2861 16.5876 14.3083C16.5724 14.3382 16.5572 14.3676 16.5415 14.3969C16.5301 14.4186 16.5192 14.4398 16.5073 14.461C16.4904 14.4914 16.4731 14.5213 16.4562 14.5517C16.4448 14.5718 16.434 14.5913 16.422 14.6114C16.4025 14.6446 16.3824 14.6766 16.3623 14.7092C16.352 14.7255 16.3422 14.7423 16.3319 14.7586C16.3037 14.8026 16.2749 14.8461 16.2456 14.8896C16.2429 14.8939 16.2397 14.8982 16.2369 14.9026C16.2044 14.9504 16.1707 14.9971 16.1371 15.0438C16.1273 15.0574 16.1164 15.0704 16.1067 15.084C16.0822 15.1166 16.0578 15.1492 16.0328 15.1812C16.0193 15.1986 16.0052 15.2155 15.991 15.2328C15.9688 15.2605 15.9465 15.2882 15.9237 15.3154C15.9085 15.3339 15.8928 15.3518 15.877 15.3697C15.8548 15.3953 15.8331 15.4208 15.8103 15.4458C15.7935 15.4642 15.7766 15.4822 15.7598 15.5006C15.7375 15.5245 15.7153 15.549 15.6925 15.5729C15.6751 15.5913 15.6572 15.6093 15.6393 15.6272C15.6165 15.65 15.5937 15.6734 15.5704 15.6956C15.5519 15.7136 15.5334 15.7309 15.5145 15.7489C15.4911 15.7711 15.4678 15.7929 15.4439 15.8146C15.4249 15.832 15.4053 15.8494 15.3858 15.8662C15.3619 15.8874 15.3375 15.9086 15.3131 15.9292C15.293 15.946 15.2734 15.9629 15.2534 15.9792C15.2284 15.9998 15.204 16.0199 15.1785 16.0395C15.1578 16.0558 15.1377 16.0715 15.1171 16.0878C15.0916 16.1074 15.0661 16.1269 15.04 16.1459C15.0189 16.1611 14.9982 16.1769 14.9771 16.1921C14.9505 16.2111 14.9239 16.2296 14.8973 16.2481C14.8761 16.2627 14.8549 16.2774 14.8332 16.2915C14.8055 16.31 14.7778 16.3274 14.7502 16.3453C14.729 16.3589 14.7073 16.373 14.6856 16.386C14.6655 16.3985 14.6449 16.4105 14.6242 16.4224C14.5271 15.1568 14.2443 13.8461 13.7937 12.5859C14.9081 12.335 16.0393 12.3274 17.1076 12.5647C17.1076 12.568 17.1071 12.5712 17.1065 12.5745L17.1071 12.5756ZM13.4816 11.7858C13.3307 11.4284 13.1689 11.078 12.9952 10.7396C14.1145 10.2301 15.1301 9.54626 15.972 8.73475C16.6641 9.57722 17.068 10.6082 17.1304 11.7C15.9476 11.4626 14.7029 11.4919 13.4816 11.7853V11.7858ZM7.00312 10.7548C7.02266 10.6761 7.04437 10.5984 7.06717 10.5213C7.07151 10.5071 7.07585 10.493 7.0802 10.4784C7.10354 10.4029 7.12851 10.3279 7.15511 10.254C7.15674 10.2491 7.1589 10.2437 7.16053 10.2388C7.16379 10.2296 7.1676 10.2204 7.17085 10.2111C7.19799 10.1378 7.22676 10.065 7.25715 9.9933C7.2615 9.98298 7.26584 9.97266 7.27018 9.96234C7.27127 9.96017 7.27235 9.95799 7.2729 9.95582C7.30438 9.88249 7.33804 9.81025 7.37332 9.73855C7.37875 9.72714 7.38473 9.71573 7.39015 9.70378C7.42598 9.63154 7.46397 9.56038 7.50305 9.49031C7.50305 9.49031 7.50305 9.49031 7.50305 9.48977C7.50902 9.4789 7.51554 9.4675 7.52151 9.45663C7.56059 9.38819 7.6013 9.32084 7.6431 9.25403C7.64799 9.24642 7.65233 9.23936 7.65721 9.23176C7.66047 9.22687 7.66318 9.22252 7.66644 9.21763C7.70932 9.15082 7.75383 9.0851 7.79942 9.021C7.80757 9.00959 7.81572 8.99764 7.8244 8.98624C7.87163 8.92105 7.91994 8.85696 7.96988 8.79395C7.97802 8.78363 7.98616 8.77385 7.9943 8.76353C8.04532 8.70052 8.09743 8.6386 8.15117 8.57776C8.15822 8.57016 8.16529 8.56256 8.1718 8.55441C8.22771 8.49249 8.2847 8.43165 8.34333 8.37244C8.34984 8.36592 8.35636 8.35941 8.36287 8.35343C8.41987 8.2964 8.47903 8.24045 8.53874 8.18613C8.54417 8.18124 8.5496 8.17581 8.55503 8.17092C8.55829 8.16821 8.561 8.16549 8.56425 8.16277C8.62396 8.109 8.68584 8.05685 8.74826 8.00579C8.75858 7.99764 8.76835 7.98896 8.77866 7.98081C8.84217 7.93029 8.90677 7.88086 8.97245 7.83306C8.98385 7.82491 8.99524 7.81622 9.00719 7.80808C9.07341 7.76082 9.14072 7.71465 9.20965 7.6701C9.22051 7.66304 9.23137 7.65598 9.24277 7.64946C9.31334 7.60438 9.38499 7.56092 9.45827 7.51964C9.4637 7.51693 9.46858 7.51367 9.47401 7.51095C10.3344 8.26 11.1225 9.21709 11.7804 10.3094C10.1938 10.8684 8.51757 11.0297 6.99769 10.7717C6.99931 10.7663 7.0004 10.7603 7.00203 10.7548H7.00312ZM12.2445 6.85805C12.2717 6.85913 12.2994 6.86185 12.3265 6.86348C12.3819 6.86674 12.4367 6.87054 12.4921 6.87597C12.5241 6.87923 12.5561 6.88303 12.5881 6.88684C12.6375 6.89227 12.6875 6.89824 12.7369 6.9053C12.7705 6.91019 12.8042 6.91562 12.8378 6.92106C12.8851 6.92866 12.9323 6.93681 12.979 6.94604C13.0132 6.95256 13.0474 6.95962 13.081 6.96668C13.1271 6.97646 13.1727 6.98678 13.2189 6.99819C13.2525 7.00634 13.2862 7.01503 13.3199 7.02372C13.3655 7.03567 13.411 7.0487 13.4561 7.06228C13.4887 7.07206 13.5218 7.0813 13.5543 7.09162C13.6005 7.10628 13.6466 7.12203 13.6922 7.13779C13.7226 7.14865 13.7536 7.15897 13.784 7.16984C13.8339 7.1883 13.8827 7.20786 13.9316 7.22795C13.9577 7.23827 13.9837 7.24805 14.0092 7.25891C14.0793 7.28879 14.1487 7.32029 14.2177 7.35343C14.2247 7.35669 14.2318 7.35995 14.2383 7.36375C14.3078 7.39743 14.3762 7.43273 14.4446 7.46967C14.469 7.48325 14.4929 7.49737 14.5173 7.51095C14.5634 7.53703 14.6096 7.56364 14.6552 7.5908C14.6829 7.60764 14.71 7.62556 14.7377 7.64295C14.7789 7.66902 14.8202 7.69564 14.8609 7.7228C14.8897 7.74181 14.9174 7.7619 14.9456 7.782C14.9847 7.80916 15.0232 7.83686 15.0612 7.86565C15.0894 7.88629 15.1171 7.90802 15.1448 7.92975C15.1822 7.95908 15.2197 7.98895 15.2561 8.01883C15.2832 8.0411 15.3098 8.06337 15.3364 8.08618C15.3505 8.09868 15.3646 8.11117 15.3787 8.12366C14.5911 8.88195 13.6358 9.5191 12.5822 9.99058C11.9373 8.89553 11.1676 7.9216 10.3219 7.12964C10.8566 6.94495 11.4167 6.85153 11.9948 6.85153C12.0784 6.85153 12.1615 6.8537 12.244 6.85751L12.2445 6.85805ZM6.86579 11.6131C7.38146 11.7 7.91287 11.7434 8.45243 11.7434C9.69439 11.7434 10.9771 11.5142 12.2033 11.0645C12.365 11.3757 12.5176 11.6962 12.6587 12.0248C12.5876 12.0492 12.5159 12.0731 12.4454 12.0987C10.647 12.7641 9.15701 13.9488 8.1908 15.4632C7.3337 14.5207 6.85059 13.2844 6.85059 11.9993C6.85059 11.87 6.85602 11.7413 6.86524 11.6125L6.86579 11.6131ZM11.7679 17.1421C11.743 17.141 11.7185 17.1389 11.6936 17.1372C11.6431 17.1345 11.5926 17.1313 11.5421 17.1269C11.5128 17.1242 11.4835 17.1209 11.4542 17.1177C11.4086 17.1128 11.363 17.1079 11.3174 17.1019C11.2865 17.0976 11.2555 17.0932 11.2251 17.0884C11.1817 17.0818 11.1383 17.0748 11.0949 17.0672C11.0634 17.0617 11.0324 17.0558 11.0009 17.0492C10.9586 17.0411 10.9157 17.0319 10.8734 17.0226C10.8424 17.0156 10.811 17.0085 10.78 17.0009C10.7377 16.9906 10.6959 16.9797 10.6541 16.9683C10.6237 16.9602 10.5933 16.952 10.5629 16.9428C10.5206 16.9303 10.4782 16.9173 10.4364 16.9042C10.4071 16.895 10.3783 16.8857 10.349 16.876C10.3056 16.8613 10.2622 16.8456 10.2193 16.8298C10.1922 16.82 10.1656 16.8102 10.1384 16.7999C10.0912 16.7815 10.0445 16.7619 9.99782 16.7423C9.97557 16.7331 9.95331 16.7244 9.9316 16.7146C9.86483 16.6853 9.79862 16.6549 9.73294 16.6223C9.73131 16.6218 9.73022 16.6212 9.72859 16.6201C9.66128 16.587 9.59452 16.5522 9.52884 16.5164C9.5093 16.5055 9.48975 16.4941 9.47021 16.4827C9.42461 16.4572 9.37956 16.4311 9.3345 16.4039C9.31008 16.3893 9.2862 16.3735 9.26232 16.3583C9.22269 16.3333 9.1836 16.3089 9.14452 16.2828C9.11901 16.266 9.09404 16.2481 9.06853 16.2307C9.03216 16.2051 8.99525 16.1796 8.95942 16.1535C8.93391 16.1345 8.90841 16.1155 8.88289 16.096C8.86335 16.0813 8.84381 16.0655 8.82481 16.0503C9.6868 14.6294 11.0645 13.5169 12.7401 12.8966C12.8167 12.8684 12.8937 12.8423 12.9714 12.8162C13.4485 14.134 13.7318 15.5099 13.7959 16.8206C13.7215 16.8483 13.6472 16.8749 13.5717 16.8993C13.5516 16.9058 13.531 16.9113 13.5109 16.9178C13.4517 16.9363 13.3931 16.9536 13.3334 16.9699C13.3036 16.9781 13.2737 16.9852 13.2439 16.9922C13.1928 17.0047 13.1423 17.0172 13.0913 17.0286C13.0588 17.0357 13.0262 17.0422 12.9942 17.0487C12.9448 17.0585 12.8948 17.0677 12.8454 17.0759C12.8123 17.0813 12.7792 17.0867 12.7461 17.0916C12.6951 17.0992 12.644 17.1052 12.593 17.1112C12.561 17.115 12.5295 17.1188 12.4975 17.122C12.4416 17.1275 12.3851 17.1313 12.3287 17.1351C12.3015 17.1367 12.2744 17.1394 12.2467 17.1405C12.1631 17.1443 12.079 17.147 11.9943 17.147C11.9183 17.147 11.8429 17.1454 11.7674 17.1416L11.7679 17.1421Z" fill="white"/>
</svg>
