<svg width="48" height="48" viewBox="0 0 48 48" fill="none" xmlns="http://www.w3.org/2000/svg">
<path d="M39.9491 20.809C40.2702 21.8524 41.2431 22.6129 42.3904 22.6129C43.7986 22.6129 44.9443 21.4672 44.9443 20.059C44.9443 18.6508 43.7986 17.5051 42.3904 17.5051C41.2432 17.5051 40.2702 18.2657 39.9491 19.309H34.8227V16.5683H39.1061C39.3024 16.5683 39.4908 16.4914 39.631 16.354L41.1718 14.8444C41.5343 15.042 41.9495 15.1544 42.3905 15.1544C43.7987 15.1544 44.9443 14.0088 44.9443 12.6006C44.9443 11.1923 43.7986 10.0466 42.3905 10.0466C40.9823 10.0466 39.8366 11.1923 39.8366 12.6006C39.8366 13.0229 39.9402 13.4212 40.1225 13.7725L38.8 15.0682H34.8227V13.558C34.8227 13.5216 34.8213 13.4854 34.82 13.4492L37.8267 12.3368C37.9936 12.275 38.1333 12.1558 38.2204 12.0006L40.3052 8.2875C40.4797 8.32528 40.6607 8.34572 40.8463 8.34572C42.2546 8.34572 43.4002 7.2 43.4002 5.79178C43.4002 4.38356 42.2545 3.23784 40.8463 3.23784C39.4381 3.23784 38.2924 4.38356 38.2924 5.79178C38.2924 6.47344 38.5614 7.09313 38.9981 7.55156L37.0475 11.0257L34.3757 12.0142C33.8617 11.2005 32.9547 10.6585 31.9232 10.6585H31.6062V7.76587C31.6063 3.5355 28.1646 0.09375 23.9341 0.09375C19.7036 0.09375 16.2618 3.5355 16.2618 7.76587V10.6585H15.9448C14.9299 10.6585 14.0357 11.1832 13.5175 11.975L10.9515 11.0257L9.00097 7.55166C9.43775 7.09322 9.70672 6.47353 9.70672 5.79187C9.70672 4.38366 8.561 3.23794 7.15278 3.23794C5.74456 3.23794 4.59894 4.38366 4.59894 5.79187C4.59894 7.20009 5.74456 8.34572 7.15278 8.34572C7.33841 8.34572 7.51934 8.32528 7.69391 8.2875L9.77872 12.0006C9.8659 12.1558 10.0055 12.275 10.1725 12.3368L13.0497 13.4013C13.0469 13.4532 13.0453 13.5054 13.0453 13.558V15.0682H9.19916L7.87662 13.7725C8.05887 13.4212 8.16256 13.0229 8.16256 12.6006C8.16256 11.1923 7.01684 10.0466 5.60862 10.0466C4.20041 10.0466 3.05478 11.1923 3.05478 12.6006C3.05478 14.0088 4.2005 15.1544 5.60862 15.1544C6.04962 15.1544 6.46484 15.042 6.82728 14.8444L8.36816 16.354C8.50831 16.4914 8.69675 16.5683 8.89306 16.5683H13.0454V19.309H8.05006C7.72887 18.2657 6.75603 17.5051 5.60862 17.5051C4.20041 17.5051 3.05478 18.6508 3.05478 20.059C3.05478 21.4672 4.2005 22.6129 5.60862 22.6129C6.75594 22.6129 7.72878 21.8524 8.05006 20.809H13.0454V23.5497H8.89297C8.69666 23.5497 8.50822 23.6267 8.36806 23.764L6.82719 25.2736C6.46484 25.076 6.04953 24.9636 5.60853 24.9636C4.20031 24.9636 3.05469 26.1093 3.05469 27.5175C3.05469 28.9257 4.20041 30.0714 5.60853 30.0714C7.01675 30.0714 8.16247 28.9257 8.16247 27.5175C8.16247 27.0952 8.05878 26.6968 7.87653 26.3455L9.19906 25.0498H13.0452V26.5601C13.0452 26.6579 13.0503 26.7546 13.0598 26.8499L10.2025 27.7708C10.0226 27.8288 9.87116 27.9526 9.77862 28.1175L7.69381 31.8306C7.51925 31.7928 7.33831 31.7723 7.15269 31.7723C5.74447 31.7723 4.59884 32.918 4.59884 34.3262C4.59884 35.7344 5.74456 36.8801 7.15269 36.8801C8.56091 36.8801 9.70662 35.7344 9.70662 34.3262C9.70662 33.6445 9.43766 33.0248 9.00087 32.5664L10.9425 29.1082L13.5937 28.2538C14.1207 28.9834 14.978 29.4595 15.9448 29.4595H21.4881V33.24L19.7998 31.0857C18.6932 29.6737 17.235 29.6062 16.3487 30.1407C15.4556 30.6793 14.8757 31.9415 15.5937 33.5469C16.8432 36.3406 18.0149 38.2716 18.9566 39.8231C20.1843 41.8463 20.9982 43.1878 21.2195 45.086V47.1562C21.2195 47.5704 21.5553 47.9062 21.9695 47.9062H33.8352C34.2493 47.9062 34.5852 47.5704 34.5852 47.1562V45.273C36.2701 42.6922 36.5264 38.8162 36.5265 36.7017L36.5266 34.404C36.5266 33.0573 35.431 31.9616 34.0843 31.9616C33.7107 31.9616 33.3561 32.046 33.0391 32.1968C32.7367 31.1913 31.8024 30.4568 30.6997 30.4568C30.3307 30.4568 29.9805 30.539 29.6666 30.6862C29.5293 30.1981 29.2426 29.7728 28.8608 29.4594H31.9232C32.9052 29.4594 33.774 28.9684 34.2987 28.2194L37.0565 29.1082L38.9981 32.5663C38.5613 33.0247 38.2923 33.6444 38.2923 34.3261C38.2923 35.7343 39.438 36.88 40.8462 36.88C42.2545 36.88 43.4001 35.7343 43.4001 34.3261C43.4001 32.9179 42.2544 31.7722 40.8462 31.7722C40.6606 31.7722 40.4797 31.7927 40.3051 31.8305L38.2203 28.1173C38.1278 27.9525 37.9763 27.8287 37.7965 27.7706L34.8113 26.8086C34.8183 26.7265 34.8227 26.6437 34.8227 26.5599V25.0496H38.8L40.1225 26.3453C39.9402 26.6966 39.8366 27.095 39.8366 27.5173C39.8366 28.9255 40.9823 30.0713 42.3905 30.0713C43.7987 30.0713 44.9443 28.9255 44.9443 27.5173C44.9443 26.1091 43.7986 24.9634 42.3905 24.9634C41.9495 24.9634 41.5342 25.0758 41.1718 25.2734L39.631 23.7638C39.4908 23.6265 39.3024 23.5495 39.1061 23.5495H34.8227V20.8088H39.9491V20.809ZM42.3904 19.0051C42.9716 19.0051 43.4443 19.4779 43.4443 20.059C43.4443 20.6401 42.9716 21.1129 42.3904 21.1129C41.8093 21.1129 41.3366 20.6401 41.3366 20.059C41.3366 19.4779 41.8093 19.0051 42.3904 19.0051ZM42.3905 11.5466C42.9716 11.5466 43.4443 12.0194 43.4443 12.6006C43.4443 13.1816 42.9716 13.6544 42.3905 13.6544C41.8093 13.6544 41.3366 13.1816 41.3366 12.6006C41.3366 12.0194 41.8093 11.5466 42.3905 11.5466ZM40.8463 4.73794C41.4274 4.73794 41.9002 5.21072 41.9002 5.79187C41.9002 6.37303 41.4274 6.84581 40.8463 6.84581C40.2652 6.84581 39.7924 6.37303 39.7924 5.79187C39.7924 5.21072 40.2652 4.73794 40.8463 4.73794ZM6.09894 5.79187C6.09894 5.21072 6.57172 4.73794 7.15278 4.73794C7.73394 4.73794 8.20672 5.21072 8.20672 5.79187C8.20672 6.37303 7.73394 6.84572 7.15278 6.84572C6.57172 6.84572 6.09894 6.37303 6.09894 5.79187ZM5.60862 13.6544C5.02756 13.6544 4.55478 13.1816 4.55478 12.6006C4.55478 12.0194 5.02756 11.5466 5.60862 11.5466C6.18978 11.5466 6.66256 12.0194 6.66256 12.6006C6.66256 13.1816 6.18978 13.6544 5.60862 13.6544ZM5.60862 21.1129C5.02756 21.1129 4.55478 20.6401 4.55478 20.059C4.55478 19.4779 5.02756 19.0051 5.60862 19.0051C6.18978 19.0051 6.66256 19.4779 6.66256 20.059C6.66256 20.6401 6.18978 21.1129 5.60862 21.1129ZM5.60862 28.5714C5.02756 28.5714 4.55478 28.0987 4.55478 27.5175C4.55478 26.9363 5.02756 26.4636 5.60862 26.4636C6.18978 26.4636 6.66256 26.9363 6.66256 27.5175C6.66256 28.0987 6.18978 28.5714 5.60862 28.5714ZM7.15278 35.38C6.57172 35.38 6.09894 34.9072 6.09894 34.3261C6.09894 33.745 6.57172 33.2722 7.15278 33.2722C7.73394 33.2722 8.20672 33.745 8.20672 34.3261C8.20672 34.9072 7.73394 35.38 7.15278 35.38ZM41.9002 34.3262C41.9002 34.9073 41.4274 35.3801 40.8463 35.3801C40.2652 35.3801 39.7924 34.9073 39.7924 34.3262C39.7924 33.7451 40.2652 33.2723 40.8463 33.2723C41.4274 33.2723 41.9002 33.745 41.9002 34.3262ZM42.3905 26.4636C42.9716 26.4636 43.4443 26.9363 43.4443 27.5175C43.4443 28.0987 42.9716 28.5714 42.3905 28.5714C41.8093 28.5714 41.3366 28.0987 41.3366 27.5175C41.3366 26.9363 41.8093 26.4636 42.3905 26.4636ZM17.7618 7.76587C17.7618 4.36256 20.5307 1.59375 23.9341 1.59375C27.3375 1.59375 30.1063 4.36256 30.1063 7.76587V10.6585H28.3162V7.76587C28.3162 5.34966 26.3503 3.38381 23.9341 3.38381C21.5178 3.38381 19.552 5.34956 19.552 7.76587V10.6585H17.7618V7.76587ZM26.8162 10.6586H21.052V7.76587C21.052 6.17672 22.3449 4.88381 23.9341 4.88381C25.5233 4.88381 26.8162 6.17672 26.8162 7.76587V10.6586ZM24.9635 20.1549C24.6495 20.0077 24.2995 19.925 23.9304 19.925C23.563 19.925 23.2145 20.007 22.9016 20.153C22.3872 19.8096 22.0742 19.2341 22.0742 18.6072C22.0742 17.5818 22.9085 16.7475 23.934 16.7475C24.9596 16.7475 25.7937 17.5818 25.7937 18.6072C25.7938 19.2353 25.4797 19.8118 24.9635 20.1549ZM22.7195 46.4062V45.7933H33.0852V46.4062H22.7195ZM30.6997 31.9568C31.2193 31.9568 31.6421 32.3796 31.6421 32.8991V35.2279C31.6421 35.6421 31.9779 35.9779 32.3921 35.9779C32.8062 35.9779 33.1421 35.6421 33.1421 35.2279V34.404C33.1421 33.8844 33.5648 33.4616 34.0844 33.4616C34.604 33.4616 35.0267 33.8843 35.0267 34.4039L35.0266 36.7015C35.0265 38.2352 34.8647 41.9401 33.4284 44.2932H22.6151C22.2676 42.3926 21.3986 40.956 20.2388 39.0448C19.3189 37.529 18.1741 35.6424 16.963 32.9344C16.6606 32.2585 16.7235 31.6661 17.1232 31.4251C17.4736 31.2139 18.0721 31.3128 18.6192 32.0108L21.6477 35.8753C21.845 36.1272 22.1803 36.2259 22.4828 36.1216C22.7852 36.0173 22.9881 35.7325 22.9881 35.4127V22.3673C22.9881 21.8478 23.4108 21.425 23.9305 21.425C24.45 21.425 24.8727 21.8477 24.8727 22.3673L24.8727 34.6212C24.8727 35.0354 25.2085 35.3712 25.6227 35.3712C26.0368 35.3712 26.3727 35.0354 26.3727 34.6212V31.3466C26.3727 30.8271 26.7954 30.4043 27.315 30.4043C27.8347 30.4043 28.2574 30.827 28.2574 31.3466V35.2279C28.2574 35.6421 28.5932 35.9779 29.0074 35.9779C29.4216 35.9779 29.7574 35.6421 29.7574 35.2279V32.8991C29.7573 32.3795 30.18 31.9568 30.6997 31.9568ZM33.3227 26.56C33.3227 27.3317 32.695 27.9594 31.9232 27.9594H26.3726L26.3727 22.3673C26.3727 21.944 26.2643 21.5455 26.0739 21.198C26.8391 20.5672 27.2937 19.6242 27.2937 18.6072C27.2937 16.7546 25.7866 15.2475 23.934 15.2475C22.0814 15.2475 20.5742 16.7547 20.5742 18.6072C20.5742 19.6221 21.027 20.563 21.7892 21.1938C21.5974 21.5423 21.488 21.9423 21.488 22.3673V27.9594H15.9447C15.1731 27.9594 14.5452 27.3317 14.5452 26.56V13.558C14.5452 12.7864 15.173 12.1586 15.9447 12.1586H31.9233C32.695 12.1586 33.3228 12.7864 33.3228 13.558V26.56H33.3227Z" fill="#222222"/>
</svg>
