<svg width="48" height="48" viewBox="0 0 48 48" fill="none" xmlns="http://www.w3.org/2000/svg">
<path d="M46.503 23.923L47.8891 20.8813C47.9894 20.6612 47.971 20.4054 47.8401 20.202C47.7093 19.9988 47.4841 19.8759 47.2425 19.8759H42.2797L42.1137 19.5724C43.9396 16.702 44.6628 13.0388 44.2684 8.6062C44.2452 8.34445 44.0794 8.11701 43.8374 8.01463L35.0651 4.30513C34.8882 4.23032 34.6884 4.23032 34.5115 4.30513L25.7416 8.01473C25.4998 8.11701 25.334 8.34444 25.3107 8.60601C24.5778 16.8137 27.6765 22.3854 34.5209 25.1662C34.6066 25.2011 34.6975 25.2184 34.7884 25.2184C34.8794 25.2184 34.9701 25.201 35.0559 25.1662C37.6332 24.1191 39.6791 22.6759 41.1898 20.8453L45.3374 28.4292V35.6918C45.3374 37.2884 44.0385 38.5873 42.4418 38.5873H5.5582C3.96164 38.5873 2.66274 37.2884 2.66274 35.6918V28.4292L10.1961 14.6528C11.3279 12.5846 13.329 11.3984 15.6863 11.3984H24C24.3925 11.3984 24.7107 11.0803 24.7107 10.6878C24.7107 10.2953 24.3925 9.97719 24 9.97719H15.6862C12.7935 9.97719 10.338 11.4327 8.94914 13.9707L5.71992 19.876H0.757548C0.51586 19.876 0.290673 19.9989 0.159892 20.2021C0.0290167 20.4055 0.0106417 20.6613 0.11086 20.8814L1.49695 23.9231C1.61236 24.1764 1.8652 24.339 2.14364 24.339H3.27952L1.32858 27.9068C1.27149 28.0113 1.24139 28.1285 1.24139 28.2478V35.692V40.9487C1.24139 42.4939 2.49736 43.7511 4.04124 43.7511H8.02045C9.56414 43.7511 10.8202 42.4939 10.8202 40.9487V40.0088H37.18V40.9487C37.18 42.4939 38.436 43.7511 39.9798 43.7511H43.959C45.5027 43.7511 46.7589 42.4939 46.7589 40.9487V35.692V28.2478C46.7589 28.1286 46.7289 28.0113 46.6717 27.9067L44.7206 24.339H45.8565C46.1348 24.3389 46.3876 24.1763 46.503 23.923ZM34.7883 23.7384C28.8086 21.2028 26.157 16.427 26.6918 9.15604L34.7883 5.73135L42.8872 9.15604C43.1843 13.2134 42.4887 16.4927 40.7779 19.0404C40.7216 19.0978 40.6767 19.1637 40.6431 19.2347C39.2919 21.1586 37.3455 22.6541 34.7883 23.7384ZM2.60067 22.9176L1.8623 21.2972H4.94283L4.0567 22.9176H2.60067ZM9.39867 40.9485C9.39867 41.71 8.78039 42.3296 8.02036 42.3296H4.04114C3.28102 42.3296 2.66274 41.7101 2.66274 40.9485V38.8906C3.42914 39.5849 4.44511 40.0086 5.5582 40.0086H9.39867V40.9485ZM45.3373 40.9485C45.3373 41.71 44.7189 42.3296 43.9588 42.3296H39.9796C39.2195 42.3296 38.6012 41.7101 38.6012 40.9485V40.0086H42.4417C43.5549 40.0086 44.5709 39.5849 45.3373 38.8906V40.9485ZM43.9431 22.9176L43.0569 21.2972H46.1376L45.3992 22.9176H43.9431ZM9.98274 21.2921C9.95199 21.3504 9.95273 21.4049 9.98742 21.465C10.0207 21.5221 10.0559 21.5341 10.1044 21.5341H28.0321C28.4247 21.5341 28.7429 21.8523 28.7429 22.2448C28.7429 22.6372 28.4247 22.9554 28.0321 22.9554H10.1043C9.54502 22.9554 9.04139 22.6643 8.75714 22.1768C8.47533 21.6861 8.4653 21.1221 8.72733 20.6254L11.5893 15.2718C12.4709 13.6222 14.033 12.6761 15.8752 12.6761H24.0629C24.4554 12.6761 24.7736 12.9943 24.7736 13.3867C24.7736 13.7792 24.4554 14.0973 24.0629 14.0973H15.8752C14.5554 14.0973 13.4784 14.7524 12.8428 15.9418L9.98274 21.2921ZM5.57067 27.2937C5.3633 27.2565 5.15049 27.3129 4.98886 27.4479C4.82733 27.583 4.73405 27.7826 4.73405 27.9931V31.7026C4.73405 32.0952 5.05224 32.4134 5.44477 32.4134H13.5669C13.9594 32.4134 14.2776 32.0952 14.2776 31.7026V29.4547C14.2776 29.1107 14.0313 28.8162 13.6928 28.7553L5.57067 27.2937ZM12.8563 30.9918H6.15549V28.843L12.8563 30.0488V30.9918ZM42.555 32.4132C42.9476 32.4132 43.2658 32.095 43.2658 31.7024V27.9929C43.2658 27.7824 43.1724 27.5828 43.011 27.4477C42.8494 27.3127 42.6369 27.2564 42.4291 27.2935L34.307 28.755C33.9685 28.8159 33.7222 29.1104 33.7222 29.4544V31.7024C33.7222 32.0949 34.0404 32.4131 34.4329 32.4131L42.555 32.4132ZM35.1436 30.0488L41.8444 28.843V30.9918H35.1436V30.0488ZM17.3868 30.6073C17.322 30.7813 17.2662 30.9557 17.2164 31.1407L15.8617 35.9423C15.8012 36.1566 15.8446 36.3867 15.979 36.5641C16.1134 36.7416 16.323 36.8459 16.5456 36.8459H31.4542C31.6768 36.8459 31.8865 36.7416 32.0208 36.5641C32.1552 36.3867 32.1986 36.1565 32.1381 35.9423L30.7846 31.1448C30.7305 30.944 30.6694 30.7655 30.6166 30.6173C30.5159 30.3342 30.2477 30.145 29.9472 30.145H18.0526C17.7559 30.1451 17.4905 30.3294 17.3868 30.6073ZM29.427 31.5664L30.5154 35.4245H17.4845L18.573 31.5664H29.427ZM38.397 11.8359V11.3204C38.397 9.33051 36.7781 7.71163 34.7883 7.71163C32.7984 7.71163 31.1795 9.33051 31.1795 11.3204V11.8359C30.5587 11.9388 30.0833 12.479 30.0833 13.1297V18.8729C30.0833 19.5956 30.6712 20.1834 31.3937 20.1834H38.1827C38.9054 20.1834 39.4933 19.5956 39.4933 18.8729V13.1297C39.4933 12.479 39.0178 11.9389 38.397 11.8359ZM32.601 11.3204C32.601 10.1142 33.5821 9.13288 34.7883 9.13288C35.9944 9.13288 36.9756 10.1142 36.9756 11.3204V11.8168H32.601V11.3204ZM38.0719 18.762H31.5047V13.2381H38.0719V18.762ZM33.6089 16.0001C33.6089 15.3497 34.1381 14.8207 34.7884 14.8207C35.4387 14.8207 35.9678 15.3497 35.9678 16.0001C35.9678 16.6504 35.4387 17.1794 34.7884 17.1794C34.138 17.1794 33.6089 16.6504 33.6089 16.0001Z" fill="#222222"/>
</svg>
