<svg width="48" height="48" viewBox="0 0 48 48" fill="none" xmlns="http://www.w3.org/2000/svg">
<path d="M30.1969 36.6281C29.8875 36.6281 29.6344 36.375 29.6344 36.0656C29.6344 35.7563 29.8875 35.5031 30.1969 35.5031H38.7375C39.0469 35.5031 39.3 35.7563 39.3 36.0656C39.3 36.375 39.0469 36.6281 38.7375 36.6281H30.1969ZM22.8 16.275H25.8375C26.1469 16.275 26.4 16.5281 26.4 16.8375V17.7938H34.5469C34.8563 17.7938 35.1094 18.0469 35.1094 18.3563V23.3531C37.9312 22.9031 39.9469 20.325 39.6844 17.4469C39.4125 14.4563 36.75 12.2344 33.7406 12.4969C33.4875 12.525 33.2438 12.3656 33.1594 12.1125C32.625 10.5094 31.0031 9.47812 29.3812 9.66562C29.1094 9.70312 28.8375 9.525 28.7719 9.25312C27.8719 5.87812 24.7781 3.46875 21.225 3.46875C16.4719 3.46875 12.8344 7.66875 13.4906 12.375C13.5187 12.6187 13.3969 12.8625 13.1625 12.9656C9.675 14.5219 8.8125 19.1063 11.5219 21.825C12.5156 22.8094 13.875 23.4281 15.3844 23.4281H15.4688V20.4375H14.5125C14.2031 20.4375 13.95 20.1844 13.95 19.875V16.8375C13.95 16.5281 14.2031 16.275 14.5125 16.275H17.55C17.8594 16.275 18.1125 16.5281 18.1125 16.8375V19.875C18.1125 20.1844 17.8594 20.4375 17.55 20.4375H16.5938V23.4188H33.9844V18.9188H26.4V19.875C26.4 20.1844 26.1469 20.4375 25.8375 20.4375H22.8C22.4906 20.4375 22.2375 20.1844 22.2375 19.875V16.8375C22.2375 16.5281 22.4906 16.275 22.8 16.275ZM25.275 17.4H23.3625V19.3125H25.275V17.4ZM16.9875 17.4H15.075V19.3125H16.9875V17.4ZM16.5938 24.5437V26.5125H24.8625C25.1719 26.5125 25.425 26.7656 25.425 27.075V31.3688C25.425 31.6781 25.1719 31.9313 24.8625 31.9313H22.5656V33.375H24.8625C25.1719 33.375 25.425 33.6281 25.425 33.9375V38.2312C25.425 38.5406 25.1719 38.7937 24.8625 38.7937H22.5656V40.2375H24.8625C25.1719 40.2375 25.425 40.4906 25.425 40.8V45.0938C25.425 45.4031 25.1719 45.6562 24.8625 45.6562H7.73438C7.425 45.6562 7.17188 45.4031 7.17188 45.0938V40.8C7.17188 40.4906 7.425 40.2375 7.73438 40.2375H10.0406V38.7937H7.73438C7.425 38.7937 7.17188 38.5406 7.17188 38.2312V33.9375C7.17188 33.6281 7.425 33.375 7.73438 33.375H10.0406V31.9313H7.73438C7.425 31.9313 7.17188 31.6781 7.17188 31.3688V27.075C7.17188 26.7656 7.425 26.5125 7.73438 26.5125H15.4688V24.5437H15.3844C11.7469 24.5437 8.79375 21.5906 8.79375 17.9531C8.79375 15.4781 10.1719 13.2469 12.3187 12.1219C11.8312 6.88125 15.9562 2.34375 21.225 2.34375C25.1344 2.34375 28.5563 4.875 29.7281 8.54062C31.5938 8.53125 33.3094 9.6375 34.0687 11.3625C37.7437 11.25 40.8281 14.2406 40.8281 17.9531C40.8281 21.2719 38.3531 24.0563 35.1 24.4875V27.6375H37.0312C37.3406 27.6375 37.5938 27.8906 37.5938 28.2V33.3562C37.5938 33.6656 37.3406 33.9187 37.0312 33.9187H31.875C31.5656 33.9187 31.3125 33.6656 31.3125 33.3562V28.2C31.3125 27.8906 31.5656 27.6375 31.875 27.6375H33.9656V24.5344L16.5938 24.5437ZM31.8844 38.2219H37.0406C37.35 38.2219 37.6031 38.475 37.6031 38.7844V43.9406C37.6031 44.25 37.35 44.5031 37.0406 44.5031H31.8844C31.575 44.5031 31.3219 44.25 31.3219 43.9406V38.7844C31.3219 38.475 31.575 38.2219 31.8844 38.2219ZM36.4781 39.3469H32.4469V43.3781H36.4781V39.3469ZM9.32812 42.6469C9.32812 42.3375 9.58125 42.0844 9.89062 42.0844C10.2 42.0844 10.4531 42.3375 10.4531 42.6469V43.2375C10.4531 43.5469 10.2 43.8 9.89062 43.8C9.58125 43.8 9.32812 43.5469 9.32812 43.2375V42.6469ZM13.4625 42.6469C13.4625 42.3375 13.7156 42.0844 14.025 42.0844C14.3344 42.0844 14.5875 42.3375 14.5875 42.6469V43.2375C14.5875 43.5469 14.3344 43.8 14.025 43.8C13.7156 43.8 13.4625 43.5469 13.4625 43.2375V42.6469ZM11.3906 42.6469C11.3906 42.3375 11.6438 42.0844 11.9531 42.0844C12.2625 42.0844 12.5156 42.3375 12.5156 42.6469V43.2375C12.5156 43.5469 12.2625 43.8 11.9531 43.8C11.6438 43.8 11.3906 43.5469 11.3906 43.2375V42.6469ZM9.32812 35.7844C9.32812 35.475 9.58125 35.2219 9.89062 35.2219C10.2 35.2219 10.4531 35.475 10.4531 35.7844V36.375C10.4531 36.6844 10.2 36.9375 9.89062 36.9375C9.58125 36.9375 9.32812 36.6844 9.32812 36.375V35.7844ZM13.4625 35.7844C13.4625 35.475 13.7156 35.2219 14.025 35.2219C14.3344 35.2219 14.5875 35.475 14.5875 35.7844V36.375C14.5875 36.6844 14.3344 36.9375 14.025 36.9375C13.7156 36.9375 13.4625 36.6844 13.4625 36.375V35.7844ZM11.3906 35.7844C11.3906 35.475 11.6438 35.2219 11.9531 35.2219C12.2625 35.2219 12.5156 35.475 12.5156 35.7844V36.375C12.5156 36.6844 12.2625 36.9375 11.9531 36.9375C11.6438 36.9375 11.3906 36.6844 11.3906 36.375V35.7844ZM9.32812 28.9313C9.32812 28.6219 9.58125 28.3688 9.89062 28.3688C10.2 28.3688 10.4531 28.6219 10.4531 28.9313V29.5219C10.4531 29.8312 10.2 30.0844 9.89062 30.0844C9.58125 30.0844 9.32812 29.8312 9.32812 29.5219V28.9313ZM13.4625 28.9313C13.4625 28.6219 13.7156 28.3688 14.025 28.3688C14.3344 28.3688 14.5875 28.6219 14.5875 28.9313V29.5219C14.5875 29.8312 14.3344 30.0844 14.025 30.0844C13.7156 30.0844 13.4625 29.8312 13.4625 29.5219V28.9313ZM11.3906 28.9313C11.3906 28.6219 11.6438 28.3688 11.9531 28.3688C12.2625 28.3688 12.5156 28.6219 12.5156 28.9313V29.5219C12.5156 29.8312 12.2625 30.0844 11.9531 30.0844C11.6438 30.0844 11.3906 29.8312 11.3906 29.5219V28.9313ZM17.8219 43.5094C17.5125 43.5094 17.2594 43.2563 17.2594 42.9469C17.2594 42.6375 17.5125 42.3844 17.8219 42.3844H21.9938C22.3031 42.3844 22.5563 42.6375 22.5563 42.9469C22.5563 43.2563 22.3031 43.5094 21.9938 43.5094H17.8219ZM17.8219 36.6469C17.5125 36.6469 17.2594 36.3937 17.2594 36.0844C17.2594 35.775 17.5125 35.5219 17.8219 35.5219H21.9938C22.3031 35.5219 22.5563 35.775 22.5563 36.0844C22.5563 36.3937 22.3031 36.6469 21.9938 36.6469H17.8219ZM17.8219 29.7844C17.5125 29.7844 17.2594 29.5313 17.2594 29.2219C17.2594 28.9125 17.5125 28.6594 17.8219 28.6594H21.9938C22.3031 28.6594 22.5563 28.9125 22.5563 29.2219C22.5563 29.5313 22.3031 29.7844 21.9938 29.7844H17.8219ZM21.4313 40.2375V38.7937H11.1562V40.2375H21.4313ZM21.4313 33.375V31.9313H11.1562V33.375H21.4313ZM24.3 41.3625H8.29688V44.5312H24.3V41.3625ZM24.3 34.5H8.29688V37.6687H24.3V34.5ZM24.3 27.6375H8.29688V30.8063H24.3V27.6375ZM36.4781 28.7625H32.4469V32.7844H36.4781V28.7625Z" fill="#222222"/>
</svg>
