<svg width="48" height="48" viewBox="0 0 48 48" fill="none" xmlns="http://www.w3.org/2000/svg">
<path fill-rule="evenodd" clip-rule="evenodd" d="M5.77066 10.2649C5.45367 11.234 4.54177 11.9347 3.46751 11.9347C2.13047 11.9347 1.04492 10.8491 1.04492 9.512C1.04492 8.17497 2.13047 7.08942 3.46751 7.08942C4.54177 7.08942 5.45367 7.79012 5.77066 8.75906H9.11805C9.31777 8.75906 9.5093 8.8384 9.65047 8.97968L13.6372 12.9663L13.9874 12.6161C14.2077 12.3958 14.541 12.3339 14.8257 12.4605L16.1957 13.0697C16.4142 12.947 16.6372 12.8329 16.8639 12.7277V7.61356C15.895 7.29657 15.1943 6.38466 15.1943 5.3104C15.1943 3.97328 16.2797 2.88772 17.6169 2.88772C18.954 2.88772 20.0396 3.97328 20.0396 5.3104C20.0396 6.38466 19.3388 7.29657 18.3698 7.61356V12.0866L18.8726 10.7836C18.9847 10.4932 19.2638 10.3017 19.5751 10.3017H22.4469C22.7585 10.3017 23.038 10.4937 23.1497 10.7846L23.6876 12.1845C24.4319 12.3941 25.1482 12.6908 25.8234 13.0697L27.1933 12.4605C27.4781 12.3339 27.8113 12.3958 28.0317 12.6161L30.0619 14.6463C30.2819 14.8664 30.3439 15.1991 30.2179 15.4836L29.6109 16.8539C29.9901 17.5298 30.2871 18.2469 30.4967 18.9936L31.8937 19.5313C32.1844 19.6431 32.3762 19.9225 32.3762 20.234V23.1057C32.3762 23.4172 32.1844 23.6966 31.8937 23.8084L30.4962 24.3463C30.2862 25.0905 29.9881 25.8069 29.6105 26.482L30.2179 27.8532C30.3439 28.1377 30.2819 28.4705 30.0619 28.6905L28.0317 30.7207C27.8116 30.9408 27.4788 31.0027 27.1943 30.8767L25.8245 30.2699C25.1502 30.6489 24.4323 30.9457 23.6874 31.1552L23.1496 32.5526C23.0377 32.8433 22.7583 33.0351 22.4469 33.0351H19.5751C19.2637 33.0351 18.9843 32.8433 18.8724 32.5526C18.8724 32.5526 18.4893 31.5571 18.3698 31.2467V35.725C19.3388 36.042 20.0396 36.9539 20.0396 38.0281C20.0396 39.3652 18.954 40.4507 17.6169 40.4507C16.2797 40.4507 15.1943 39.3652 15.1943 38.0281C15.1943 36.9539 15.895 36.042 16.8639 35.725V30.6106C16.6372 30.5054 16.4144 30.3915 16.196 30.2694L14.8248 30.8767C14.5403 31.0027 14.2075 30.9408 13.9874 30.7207L13.6372 30.3705L9.65047 34.3572C9.5093 34.4984 9.31777 34.5777 9.11805 34.5777H5.77066C5.45367 35.5466 4.54177 36.2473 3.46751 36.2473C2.13047 36.2473 1.04492 35.1618 1.04492 33.8248C1.04492 32.4876 2.13047 31.4021 3.46751 31.4021C4.54177 31.4021 5.45367 32.1029 5.77066 33.0718H8.80624L12.5724 29.3056L11.9572 28.6905C11.7369 28.4702 11.675 28.1369 11.8016 27.8521L12.4106 26.4827C12.0318 25.8089 11.7349 25.0913 11.5238 24.3466L10.1254 23.8084C9.83466 23.6966 9.64285 23.4172 9.64285 23.1057V22.4214H5.77066C5.45367 23.3903 4.54177 24.091 3.46751 24.091C2.13047 24.091 1.04492 23.0055 1.04492 21.6684C1.04492 20.3313 2.13047 19.2457 3.46751 19.2457C4.54177 19.2457 5.45367 19.9465 5.77066 20.9155H9.64285V20.234C9.64285 19.9225 9.83466 19.6431 10.1254 19.5313C10.1254 19.5313 11.5235 18.9931 11.5235 18.9932C11.7347 18.2468 12.0317 17.53 12.4108 16.8545L11.8016 15.4846C11.675 15.1999 11.7369 14.8666 11.9572 14.6463L12.5724 14.0312L8.80624 10.2649H5.77066ZM4.38431 9.512C4.38431 9.00612 3.97349 8.5953 3.46751 8.5953C2.96153 8.5953 2.5508 9.00612 2.5508 9.512C2.5508 10.018 2.96153 10.4288 3.46751 10.4288C3.97349 10.4288 4.38431 10.018 4.38431 9.512ZM17.6169 6.22711C18.1229 6.22711 18.5337 5.81629 18.5337 5.3104C18.5337 4.80443 18.1229 4.3936 17.6169 4.3936C17.1109 4.3936 16.7002 4.80443 16.7002 5.3104C16.7002 5.81629 17.1109 6.22711 17.6169 6.22711ZM17.6169 37.1113C17.1109 37.1113 16.7002 37.5222 16.7002 38.0281C16.7002 38.5341 17.1109 38.9449 17.6169 38.9449C18.1229 38.9449 18.5337 38.5341 18.5337 38.0281C18.5337 37.5222 18.1229 37.1113 17.6169 37.1113ZM4.38431 33.8248C4.38431 33.3188 3.97349 32.908 3.46751 32.908C2.96153 32.908 2.5508 33.3188 2.5508 33.8248C2.5508 34.3307 2.96153 34.7415 3.46751 34.7415C3.97349 34.7415 4.38431 34.3307 4.38431 33.8248ZM4.38431 21.6684C4.38431 21.1625 3.97349 20.7516 3.46751 20.7516C2.96153 20.7516 2.5508 21.1625 2.5508 21.6684C2.5508 22.1744 2.96153 22.5851 3.46751 22.5851C3.97349 22.5851 4.38431 22.1744 4.38431 21.6684ZM22.4207 13.0859L21.9295 11.8076H20.0916L19.598 13.087C19.5086 13.3185 19.311 13.4911 19.0696 13.5484C18.2106 13.7526 17.3914 14.092 16.6384 14.5559C16.4269 14.6862 16.1646 14.7038 15.9375 14.6028L14.6865 14.0466L13.3878 15.3454L13.944 16.5964C14.045 16.8235 14.0274 17.0857 13.8971 17.2973C13.4328 18.0508 13.0932 18.8707 12.8863 19.7329C12.8285 19.9738 12.6558 20.1709 12.4246 20.2599L11.1487 20.751V22.5887L12.4246 23.0797C12.6557 23.1687 12.8283 23.3656 12.8861 23.6062C13.093 24.4655 13.4323 25.2879 13.8964 26.0384C14.0273 26.2502 14.0451 26.5129 13.944 26.7403L13.3878 27.9914L14.6871 29.2907L15.9386 28.7364C16.1648 28.6361 16.4258 28.6535 16.6368 28.7828C17.3902 29.2443 18.2098 29.5868 19.0719 29.7912C19.3138 29.8484 19.5117 30.0214 19.6011 30.2534L20.0921 31.5292H21.9299L22.4209 30.2534C22.5101 30.0216 22.7079 29.8487 22.9495 29.7913C23.8081 29.5872 24.6297 29.2482 25.3796 28.7844C25.591 28.6537 25.8533 28.6357 26.0805 28.7364L27.332 29.2907L28.6318 27.9909L28.0775 26.7394C27.9773 26.5131 27.9947 26.2521 28.1239 26.0411C28.5855 25.2876 28.9281 24.468 29.1324 23.6084C29.1898 23.3668 29.3627 23.1689 29.5945 23.0797L30.8703 22.5887V20.751L29.5945 20.2599C29.3625 20.1706 29.1896 19.9726 29.1323 19.7308C28.9281 18.8693 28.5888 18.0502 28.1249 17.2973C27.9948 17.0861 27.9771 16.8243 28.0775 16.5974L28.6318 15.3459L27.3325 14.0466L26.0815 14.6028C25.8544 14.7038 25.5922 14.6862 25.3806 14.5559C24.6277 14.092 23.8085 13.7526 22.9495 13.5484C22.7078 13.491 22.5099 13.3179 22.4207 13.0859ZM21.0095 15.9065C24.1932 15.9065 26.7743 18.4848 26.7743 21.6684C26.7743 24.8519 24.193 27.4332 21.0095 27.4332C17.826 27.4332 15.2477 24.852 15.2477 21.6684C15.2477 18.4847 17.8258 15.9065 21.0095 15.9065ZM21.0095 17.4123C18.6579 17.4123 16.7535 19.3167 16.7535 21.6684C16.7535 24.0201 18.6578 25.9273 21.0095 25.9273C23.3614 25.9273 25.2685 24.0202 25.2685 21.6684C25.2685 19.3166 23.3613 17.4123 21.0095 17.4123ZM20.9717 35.261C20.9717 34.8455 21.309 34.5081 21.7246 34.5081H34.8951C35.2542 30.0545 36.409 27.825 37.4942 25.9526C38.5327 24.1609 39.5234 22.7353 39.5234 19.691C39.5234 13.692 34.6601 8.82871 28.6611 8.82871C27.1107 8.82871 25.6361 9.15332 24.3018 9.73864C23.9213 9.9056 23.4767 9.73215 23.3098 9.35163C23.1428 8.97111 23.3163 8.52659 23.6968 8.35963C25.2163 7.69299 26.8955 7.32283 28.6611 7.32283C35.4918 7.32283 41.0293 12.8603 41.0293 19.691C41.0293 22.4436 40.3276 24.0298 39.4452 25.591C38.2446 27.7147 36.6724 29.786 36.3492 35.305C36.3489 35.3097 36.3486 35.3142 36.3483 35.3187L36.3466 37.1489C36.3466 38.3409 35.5484 39.353 34.4626 39.6793V40.9246C34.4626 42.1348 33.6364 43.16 32.5242 43.4697V44.7003C32.5242 46.1492 31.336 47.3412 29.8872 47.3412H27.4349C25.9866 47.3412 24.7941 46.1487 24.7941 44.7003V43.4692C23.681 43.1588 22.8595 42.134 22.8595 40.9246V39.6799C21.7702 39.3543 20.9717 38.3413 20.9717 37.1489V35.261ZM34.8417 36.0139H22.4776V37.1489C22.4776 37.7737 22.9877 38.2839 23.6125 38.2839H33.7097C34.3317 38.2839 34.8407 37.7733 34.8407 37.1485L34.8417 36.0139ZM32.9567 39.7897H24.3654V40.9246C24.3654 41.5495 24.8756 42.0596 25.5004 42.0596H31.8218C32.4443 42.0596 32.9567 41.5495 32.9567 40.9246V39.7897ZM31.0183 43.5655H26.3V44.7003C26.3 45.3228 26.8125 45.8353 27.4349 45.8353H29.8872C30.5092 45.8353 31.0183 45.3224 31.0183 44.7003V43.5655ZM29.4141 4.14824C29.4141 4.56377 29.0766 4.90118 28.6611 4.90118C28.2455 4.90118 27.9082 4.56377 27.9082 4.14824V1.41177C27.9082 0.99624 28.2455 0.658829 28.6611 0.658829C29.0766 0.658829 29.4141 0.99624 29.4141 1.41177V4.14824ZM38.0711 6.87219C37.8632 7.232 37.4022 7.35521 37.0425 7.1473C36.6827 6.9393 36.5594 6.4784 36.7674 6.11859L38.1375 3.74805C38.3454 3.38824 38.8064 3.26504 39.1661 3.47295C39.526 3.68095 39.6493 4.14184 39.4413 4.50165L38.0711 6.87219ZM44.2113 13.5619C43.8517 13.7701 43.3907 13.6472 43.1824 13.2875C42.9742 12.9278 43.0972 12.4668 43.4568 12.2586L45.8235 10.8885C46.1831 10.6803 46.6442 10.8032 46.8524 11.1628C47.0605 11.5225 46.9376 11.9834 46.578 12.1917L44.2113 13.5619Z" fill="#222222"/>
</svg>
