<svg width="48" height="48" viewBox="0 0 48 48" fill="none" xmlns="http://www.w3.org/2000/svg">
<g clip-path="url(#clip0_1005_21546)">
<path d="M43.6662 39.728C41.6284 39.0957 38.9736 38.6228 35.9234 38.3434C36.6228 37.5743 37.3466 36.7384 38.0725 35.842C40.4145 32.9502 42.2826 30.0362 43.625 27.181C45.318 23.5798 46.1765 20.0592 46.1765 16.7171C46.1764 7.551 38.7191 0.09375 29.5529 0.09375C25.2219 0.09375 21.1214 1.75003 18.0068 4.75753C15.0995 7.56488 13.3376 11.2696 12.9922 15.264C12.601 15.224 12.2041 15.2034 11.8025 15.2034C5.39905 15.2034 0.189453 20.4129 0.189453 26.8164C0.189453 33.2199 5.39905 38.4294 11.8025 38.4294C15.1114 38.4294 18.1013 37.0382 20.2186 34.8102C21.2123 36.1021 22.2192 37.2862 23.1806 38.3436C20.1311 38.6229 17.477 39.0957 15.4396 39.728C12.6905 40.5808 11.2967 41.6762 11.2967 42.9838C11.2967 44.5237 13.2156 45.7617 17.0002 46.6638C20.3621 47.4649 24.82 47.9062 29.5529 47.9062C34.2858 47.9062 38.7438 47.465 42.1055 46.6638C45.8901 45.7617 47.8091 44.5237 47.8091 42.9838C47.8091 41.6762 46.4152 40.5808 43.6662 39.728ZM11.8025 36.9295C6.2262 36.9295 1.68955 32.3928 1.68955 26.8165C1.68955 21.2403 6.2262 16.7034 11.8025 16.7034C17.3788 16.7034 21.9155 21.2402 21.9155 26.8164C21.9155 32.3927 17.3789 36.9295 11.8025 36.9295ZM18.199 16.7224C18.199 10.4618 23.2924 5.3685 29.5529 5.3685C35.8134 5.3685 40.9068 10.4618 40.9068 16.7224C40.9068 22.9829 35.8135 28.0763 29.5529 28.0763C27.3537 28.0763 25.2355 27.4511 23.4021 26.2665C23.2235 22.456 21.2 19.1205 18.2067 17.134C18.2018 16.9966 18.199 16.8591 18.199 16.7224ZM23.357 27.9851C25.2475 29.0284 27.3648 29.5763 29.5529 29.5763C36.6406 29.5763 42.4068 23.81 42.4068 16.7224C42.4068 9.63478 36.6406 3.86841 29.5529 3.86841C22.6095 3.86841 16.9351 9.40266 16.707 16.2916C15.9995 15.9606 15.2534 15.6986 14.4773 15.515C15.0892 7.65891 21.5933 1.59375 29.5529 1.59375C37.892 1.59375 44.6764 8.37806 44.6764 16.7171C44.6764 23.805 40.4621 30.5026 36.9268 34.8732C33.8354 38.6951 30.7073 41.4551 29.553 42.4274C28.2778 41.3528 24.5943 38.0956 21.2025 33.6273C22.3778 32.0097 23.1469 30.0787 23.357 27.9851ZM41.7577 45.2046C38.5066 45.9795 34.1721 46.4062 29.5529 46.4062C24.9337 46.4062 20.5993 45.9795 17.348 45.2047C13.748 44.3467 12.7968 43.3768 12.7968 42.9839C12.7968 42.6847 13.442 41.9183 15.8841 41.1608C18.0459 40.4901 21.0919 39.9882 24.4921 39.7405C27.008 42.3367 28.9605 43.8874 29.0885 43.9883C29.2248 44.0958 29.3888 44.1495 29.553 44.1495C29.717 44.1495 29.8812 44.0958 30.0174 43.9884C30.1327 43.8975 32.0865 42.3467 34.612 39.7404C38.013 39.9881 41.0597 40.49 43.2218 41.1608C45.6639 41.9183 46.3092 42.6847 46.3092 42.9839C46.3091 43.3767 45.3578 44.3466 41.7577 45.2046ZM20.0855 25.0368C19.9391 25.1832 19.7471 25.2564 19.5552 25.2564C19.3632 25.2564 19.1713 25.1832 19.0249 25.0368C17.0957 23.1076 14.5307 22.0451 11.8025 22.0451C9.07423 22.0451 6.50923 23.1076 4.58005 25.0368C4.28717 25.3296 3.81233 25.3296 3.51945 25.0368C3.22658 24.7438 3.22658 24.2691 3.51945 23.9761C5.73195 21.7636 8.67355 20.5451 11.8025 20.5451C14.9315 20.5451 17.8731 21.7636 20.0856 23.9761C20.3784 24.2691 20.3784 24.7438 20.0855 25.0368ZM18.0182 26.0434C18.311 26.3363 18.311 26.8111 18.0182 27.1041C17.8717 27.2505 17.6798 27.3237 17.4878 27.3237C17.2958 27.3237 17.1039 27.2505 16.9575 27.1041C14.115 24.2616 9.49002 24.2616 6.64742 27.1041C6.35445 27.3969 5.87961 27.3968 5.58683 27.1041C5.29395 26.8111 5.29395 26.3363 5.58683 26.0434C9.01414 22.6162 14.591 22.6162 18.0182 26.0434ZM15.9508 28.1108C16.2437 28.4037 16.2438 28.8786 15.9508 29.1715C15.8044 29.318 15.6125 29.3912 15.4205 29.3912C15.2285 29.3912 15.0365 29.318 14.8901 29.1715C14.0654 28.3467 12.9688 27.8925 11.8025 27.8925C10.6361 27.8925 9.53952 28.3467 8.7148 29.1715C8.42192 29.4643 7.94708 29.4643 7.6542 29.1715C7.36133 28.8787 7.36123 28.4038 7.6542 28.1108C8.76223 27.0029 10.2354 26.3926 11.8025 26.3926C13.3695 26.3926 14.8428 27.0029 15.9508 28.1108ZM11.8025 29.3164C10.542 29.3164 9.51645 30.3419 9.51645 31.6025C9.51645 32.863 10.542 33.8886 11.8025 33.8886C13.0631 33.8886 14.0886 32.863 14.0886 31.6025C14.0886 30.3419 13.0631 29.3164 11.8025 29.3164ZM11.8025 32.3885C11.369 32.3885 11.0165 32.0358 11.0165 31.6024C11.0165 31.169 11.369 30.8163 11.8025 30.8163C12.236 30.8163 12.5886 31.169 12.5886 31.6024C12.5886 32.0358 12.236 32.3885 11.8025 32.3885ZM21.8962 18.472L28.5675 18.8168L32.2016 24.4219C32.342 24.6385 32.5808 24.7638 32.8309 24.7638C32.8915 24.7638 32.953 24.7565 33.0138 24.7412C33.3249 24.6629 33.5519 24.3954 33.5783 24.0757L34.7948 9.38709C34.8187 9.09787 34.6737 8.82084 34.4224 8.67572C34.171 8.53059 33.8585 8.54353 33.62 8.70891L21.5076 17.1067C21.244 17.2895 21.1258 17.6197 21.2136 17.9284C21.3015 18.2369 21.5758 18.4554 21.8962 18.472ZM33.1688 10.8471L32.2648 21.7622L29.6178 17.6796C29.4869 17.4779 29.2673 17.3511 29.0272 17.3386L24.168 17.0874L33.1688 10.8471Z" fill="#222222"/>
</g>
<defs>
<clipPath id="clip0_1005_21546">
<rect width="48" height="48" fill="white"/>
</clipPath>
</defs>
</svg>
