<svg width="48" height="48" viewBox="0 0 48 48" fill="none" xmlns="http://www.w3.org/2000/svg">
<path d="M34.5 0H13.5C10.6058 0 8.25 2.35575 8.25 5.25V42.75C8.25 45.6442 10.6058 48 13.5 48H34.5C37.3943 48 39.75 45.6442 39.75 42.75V5.25C39.75 2.35575 37.3943 0 34.5 0ZM13.5 1.5H34.5C36.3105 1.5 37.8255 2.79075 38.1742 4.5H34.5C34.0853 4.5 33.75 4.83525 33.75 5.25C33.75 5.66475 34.0853 6 34.5 6H38.25V39.75H30C29.8005 39.75 29.61 39.8288 29.4697 39.9697L27.4395 42H20.5605L18.5303 39.9697C18.3893 39.8288 18.1995 39.75 18 39.75H9.75V6H31.5C31.9147 6 32.25 5.66475 32.25 5.25C32.25 4.83525 31.9147 4.5 31.5 4.5H9.82575C10.1745 2.79075 11.6888 1.5 13.5 1.5ZM34.5 46.5H13.5C11.4323 46.5 9.75 44.8177 9.75 42.75V41.25H17.6895L19.7197 43.2803C19.8607 43.4212 20.0505 43.5 20.25 43.5H27.75C27.9495 43.5 28.14 43.4212 28.2803 43.2803L30.3105 41.25H38.25V42.75C38.25 44.8177 36.5677 46.5 34.5 46.5Z" fill="#222222"/>
<path d="M30.711 8.763C30.609 8.457 30.3225 8.25 30 8.25H18C17.6768 8.25 17.391 8.45625 17.289 8.763L15.876 12.9998L12.3638 15.1072C12.138 15.243 12 15.4868 12 15.75V24C12 24.4147 12.3353 24.75 12.75 24.75H18C18.4148 24.75 18.75 24.4147 18.75 24V21.75H29.25V24C29.25 24.4147 29.5853 24.75 30 24.75H35.25C35.6647 24.75 36 24.4147 36 24V15.75C36 15.486 35.8612 15.2422 35.6362 15.1072L32.124 12.9998L30.711 8.763ZM18.54 9.75H29.4592L30.4597 12.75H17.5402L18.5408 9.75H18.54ZM13.4993 23.25V21.75H17.2493V23.25H13.4993ZM30.7493 23.25V21.75H34.4993V23.25H30.7493ZM34.4993 20.25H13.5V16.1745L16.7078 14.25H31.2922L34.5 16.1745L34.4993 20.25Z" fill="#222222"/>
<path d="M19.5 16.5H16.5C16.0853 16.5 15.75 16.8353 15.75 17.25C15.75 17.6647 16.0853 18 16.5 18H19.5C19.9148 18 20.25 17.6647 20.25 17.25C20.25 16.8353 19.9148 16.5 19.5 16.5Z" fill="#222222"/>
<path d="M28.5 16.5C28.0853 16.5 27.75 16.8353 27.75 17.25C27.75 17.6647 28.0853 18 28.5 18H31.5C31.9148 18 32.25 17.6647 32.25 17.25C32.25 16.8353 31.9148 16.5 31.5 16.5H28.5Z" fill="#222222"/>
<path d="M32.25 29.25H23.1915C22.122 27.4133 20.1337 26.25 18 26.25C14.6918 26.25 12 28.9418 12 32.25C12 35.5582 14.6918 38.25 18 38.25C20.4443 38.25 22.656 36.7343 23.5635 34.5H25.2727L27.3337 35.874C27.5857 36.0428 27.9135 36.0428 28.1655 35.874L29.9993 34.6515L31.833 35.874C32.0977 36.0503 32.4443 36.0405 32.6985 35.85L35.6985 33.6C35.8875 33.459 35.9985 33.2362 35.9985 33C35.9985 30.9323 34.3162 29.25 32.2485 29.25H32.25ZM32.2245 34.3313L30.4163 33.126C30.1642 32.958 29.8357 32.958 29.5845 33.126L27.7507 34.3485L25.728 33H23.0333C22.704 33 22.4108 33.213 22.317 33.528C21.5745 36.0382 18.705 37.5465 16.053 36.3097C14.8507 35.7487 13.9418 34.6447 13.6328 33.354C12.9255 30.3967 15.1597 27.75 18.0007 27.75C19.7167 27.75 21.3075 28.755 22.0582 30.312C22.1835 30.5708 22.4288 30.75 22.7167 30.75H32.2507C33.3705 30.75 34.302 31.5735 34.473 32.646L32.2245 34.3313Z" fill="#222222"/>
<path d="M16.875 33.375C17.4963 33.375 18 32.8713 18 32.25C18 31.6287 17.4963 31.125 16.875 31.125C16.2537 31.125 15.75 31.6287 15.75 32.25C15.75 32.8713 16.2537 33.375 16.875 33.375Z" fill="#222222"/>
</svg>
