<svg width="40" height="40" viewBox="0 0 40 40" fill="none" xmlns="http://www.w3.org/2000/svg">
<path d="M34.9939 13.6374C34.7619 13.8174 30.6655 16.1256 30.6655 21.2581C30.6655 27.1947 35.878 29.2949 36.034 29.3469C36.01 29.4749 35.206 32.2232 33.2858 35.0235C31.5736 37.4877 29.7854 39.948 27.0652 39.948C24.3449 39.948 23.6448 38.3678 20.5045 38.3678C17.4442 38.3678 16.3561 40 13.8678 40C11.3796 40 9.64341 37.7198 7.64721 34.9195C5.33498 31.6312 3.4668 26.5227 3.4668 21.6742C3.4668 13.8974 8.5233 9.77298 13.4998 9.77298C16.1441 9.77298 18.3483 11.5092 20.0084 11.5092C21.5886 11.5092 24.0529 9.66897 27.0612 9.66897C28.2013 9.66897 32.2977 9.77298 34.9939 13.6374ZM25.633 6.37664C26.8771 4.90049 27.7572 2.85229 27.7572 0.80408C27.7572 0.520052 27.7332 0.232023 27.6812 0C25.657 0.0760076 23.2488 1.34813 21.7966 3.0323C20.6565 4.32843 19.5924 6.37664 19.5924 8.45285C19.5924 8.76488 19.6444 9.07691 19.6684 9.17692C19.7964 9.20092 20.0044 9.22892 20.2125 9.22892C22.0287 9.22892 24.3129 8.0128 25.633 6.37664Z" fill="black"/>
</svg>
