<svg width="78" height="79" viewBox="0 0 78 79" fill="none" xmlns="http://www.w3.org/2000/svg">
<path fill-rule="evenodd" clip-rule="evenodd" d="M74.2829 56.9192L73.9515 57.7775C68.3065 68.7682 58.3056 75.513 44.0397 75.8105C37.3708 75.9479 31.0164 74.237 26.8653 72.3758C17.9065 68.3511 10.3723 60.8866 6.25753 52.9116C0.354676 41.4793 -0.709619 25.5763 11.5639 13.6982C11.753 13.6982 10.0753 16.2738 10.2644 16.2738L9.92658 17.3729C1.08231 45.0633 28.3311 68.7923 54.8195 66.0782C61.1854 65.426 69.3029 61.9396 74.2829 56.9192Z" fill="#21609B"/>
<path fill-rule="evenodd" clip-rule="evenodd" d="M58.2535 45.4697C64.9176 45.5158 71.8783 42.4011 75.9997 38.0282C72.3937 47.1822 61.9522 53.0669 47.9491 51.1949C36.2252 49.6262 25.0565 37.8279 23.9055 26.0059C23.0642 17.4022 26.0632 12.2674 31.0044 6.03833C29.287 9.29606 28.6453 11.8086 28.4853 13.4112C26.608 32.0226 43.3532 45.3725 58.2535 45.4697Z" fill="#21609B"/>
<path fill-rule="evenodd" clip-rule="evenodd" d="M75.3322 22.3537C74.2962 24.7297 68.3311 29.2175 65.6969 29.7783C55.2666 31.9999 48.5868 27.054 45.0883 21.4259C44.5679 20.5846 43.6061 18.2894 43.434 17.7052C42.0771 13.0914 42.701 6.11302 46.7491 2.5C45.5296 5.93471 45.3517 9.9246 45.9934 12.5184C46.3822 14.087 47.5669 16.8243 48.7525 18.5465C50.9103 21.6838 52.2785 22.4459 55.0497 24.1115C56.2975 24.8615 57.6367 25.4628 58.2153 25.6284C60.8427 26.401 66.3901 28.4392 75.3322 22.3537Z" fill="#21609B"/>
</svg>
