<svg width="40" height="40" viewBox="0 0 40 40" fill="none" xmlns="http://www.w3.org/2000/svg">
<g clip-path="url(#clip0_703_19071)">
<path d="M29.9667 18.8999C30.2404 18.8674 30.5204 18.8674 30.7929 18.8999C30.9429 18.5611 30.9692 17.9686 30.8317 17.3311C30.6367 16.3811 30.3692 15.8011 29.8092 15.8924C29.2554 15.9836 29.2367 16.6736 29.4317 17.6236C29.5492 18.1574 29.7442 18.6199 29.9654 18.8999H29.9667ZM25.2004 19.6549C25.5979 19.8311 25.8379 19.9474 25.9367 19.8436C25.9954 19.7786 25.9817 19.6611 25.8842 19.5049C25.6892 19.1861 25.2854 18.8599 24.8554 18.6786C23.9567 18.3011 22.9217 18.4249 22.1342 19.0036C21.8667 19.1986 21.6204 19.4724 21.6529 19.6349C21.6654 19.6874 21.7054 19.7261 21.7967 19.7386C22.0179 19.7649 22.7792 19.3811 23.6654 19.3224C24.2842 19.2836 24.8042 19.4786 25.2017 19.6549H25.2004ZM24.4004 20.1111C23.8792 20.1961 23.5992 20.3649 23.4179 20.5211C23.2554 20.6574 23.1642 20.8136 23.1642 20.9186L23.2029 21.0161L23.2879 21.0486C23.4054 21.0486 23.6654 20.9374 23.6654 20.9374C24.1992 20.7424 24.7717 20.6774 25.3317 20.7686C25.5917 20.7949 25.7154 20.8136 25.7742 20.7236C25.7867 20.6974 25.8067 20.6449 25.7542 20.5611C25.6367 20.3599 25.1092 20.0261 24.4004 20.1111ZM28.3592 21.7899C28.7104 21.9586 29.0954 21.8936 29.2192 21.6399C29.3492 21.3799 29.1667 21.0274 28.8154 20.8586C28.4642 20.6824 28.0792 20.7549 27.9492 21.0086C27.8254 21.2686 28.0079 21.6136 28.3592 21.7899ZM30.6179 19.8111C30.3317 19.8049 30.0904 20.1174 30.0904 20.5136C30.0842 20.9049 30.3054 21.2236 30.5917 21.2299C30.8779 21.2361 31.1129 20.9236 31.1192 20.5336C31.1254 20.1424 30.8979 19.8174 30.6179 19.8111ZM11.4442 26.8811C11.3729 26.7961 11.2554 26.8224 11.1442 26.8486C11.0529 26.8686 10.9617 26.8811 10.8767 26.8874C10.6817 26.8874 10.4992 26.7961 10.3879 26.6399C10.2579 26.4386 10.2642 26.1386 10.4079 25.7999L10.4729 25.6436C10.7079 25.1299 11.0854 24.2699 10.6554 23.4499C10.3367 22.8311 9.80917 22.4474 9.17041 22.3686C8.55791 22.2899 7.95292 22.5049 7.52917 22.9549C6.89791 23.6511 6.80041 24.6024 6.92416 24.9411C6.96916 25.0649 7.04167 25.0974 7.09292 25.1036C7.19667 25.1161 7.35291 25.0386 7.45791 24.7711L7.48416 24.6861C7.52916 24.5424 7.61416 24.2761 7.74416 24.0674C8.09542 23.5336 8.80541 23.3836 9.33291 23.7349C9.77541 24.0211 9.95166 24.5686 9.76291 25.0824C9.66541 25.3561 9.50291 25.8636 9.54166 26.2874C9.61291 27.1399 10.1342 27.4786 10.6029 27.5174C11.0592 27.5374 11.3779 27.2761 11.4629 27.0874C11.5079 26.9761 11.4692 26.9111 11.4429 26.8786L11.4442 26.8811ZM37.8179 25.3249C37.7979 25.2599 37.6879 24.8436 37.5317 24.3486L37.2129 23.4961C37.8379 22.5586 37.8504 21.7186 37.7667 21.2436C37.6754 20.6574 37.4342 20.1561 36.9404 19.6424C36.4517 19.1211 35.4429 18.5874 34.0242 18.1911L33.2817 17.9899C33.2817 17.9574 33.2429 16.2324 33.2104 15.4961C33.1904 14.9624 33.1454 14.1224 32.8854 13.3024C32.5792 12.1886 32.0392 11.2124 31.3679 10.5874C33.2167 8.66736 34.3754 6.55111 34.3692 4.74111C34.3629 1.24486 30.0854 0.18986 24.8117 2.37736L23.6917 2.85236C23.0079 2.18236 22.3304 1.51111 21.6404 0.841111C15.6242 -4.41264 -3.17708 16.5186 2.83167 21.6099L4.14667 22.7236C3.79542 23.6736 3.67167 24.6961 3.78167 25.7124C3.92542 27.1124 4.64167 28.4536 5.81292 29.4886C6.91917 30.4711 8.37791 31.0961 9.79792 31.0961C12.1354 36.4936 17.4804 39.8074 23.7429 39.9961C30.4679 40.1911 36.1129 37.0336 38.4754 31.3574C38.6317 30.9599 39.2892 29.1636 39.2892 27.5811C39.2892 25.9861 38.3904 25.3286 37.8179 25.3286V25.3249ZM10.3117 29.5699C10.1104 29.6086 9.89541 29.6224 9.68666 29.6149C7.66166 29.5624 5.46792 27.7336 5.24667 25.5586C5.00541 23.1561 6.22916 21.3136 8.39791 20.8774C8.69791 20.8124 9.00291 20.7924 9.30917 20.8061C10.5267 20.8774 12.3167 21.8086 12.7204 24.4586C13.0854 26.8086 12.5117 29.1986 10.3117 29.5761V29.5699ZM8.04667 19.4399C6.69917 19.6999 5.50792 20.4686 4.77792 21.5236C4.34167 21.1661 3.53417 20.4624 3.39167 20.1886C2.23292 17.9749 4.66167 13.6849 6.35417 11.2561C10.5467 5.26611 17.1154 0.728611 20.1567 1.54861C20.6517 1.69236 22.2854 3.59236 22.2854 3.59236C22.2854 3.59236 19.2454 5.27861 16.4254 7.63486C12.6304 10.5649 9.76542 14.8161 8.04667 19.4386V19.4399ZM29.3542 28.6786C29.3992 28.6586 29.4329 28.6074 29.4254 28.5611C29.4192 28.4961 29.3667 28.4499 29.3017 28.4574C29.3017 28.4574 26.1242 28.9324 23.1167 27.8261C23.4417 26.7649 24.3142 27.1486 25.6292 27.2536C27.6729 27.3774 29.7242 27.1561 31.6967 26.5961C33.0579 26.2049 34.8417 25.4374 36.2342 24.3374C36.7029 25.3661 36.8654 26.4986 36.8654 26.4986C36.8654 26.4986 37.2304 26.4336 37.5292 26.6224C37.8154 26.7986 38.0242 27.1699 37.8804 28.1136C37.5942 29.8849 36.8392 31.3236 35.5754 32.6511C34.7879 33.5036 33.8504 34.2074 32.8017 34.7211C32.2217 35.0274 31.6167 35.2811 30.9979 35.4899C26.2317 37.0461 21.3554 35.3336 19.7804 31.6549C19.6567 31.3749 19.5529 31.0824 19.4679 30.7824C18.7979 28.3599 19.3642 25.4499 21.1479 23.6211C21.2517 23.5036 21.3629 23.3674 21.3629 23.1911C21.3629 23.0474 21.2717 22.8986 21.1942 22.7874C20.5754 21.8824 18.4204 20.3461 18.8504 17.3636C19.1629 15.2211 21.0317 13.7174 22.7767 13.8024L23.2192 13.8286C23.9742 13.8736 24.6317 13.9724 25.2504 13.9974C26.2917 14.0424 27.2292 13.8936 28.3367 12.9686C28.7079 12.6561 29.0067 12.3824 29.5154 12.2986C29.5679 12.2924 29.7042 12.2399 29.9642 12.2536C30.2379 12.2661 30.4979 12.3511 30.7254 12.5011C31.6179 13.0936 31.7417 14.5261 31.7867 15.5736C31.8129 16.1724 31.8842 17.6174 31.9104 18.0349C31.9692 18.9849 32.2167 19.1224 32.7179 19.2849C33.0042 19.3824 33.2717 19.4536 33.6554 19.5586C34.8342 19.8911 35.5304 20.2286 35.9667 20.6586C36.2342 20.9261 36.3504 21.2124 36.3904 21.4849C36.5342 22.5011 35.6092 23.7511 33.1617 24.8899C30.4854 26.1336 27.2442 26.4461 25.0042 26.1986L24.2167 26.1074C22.4267 25.8661 21.4042 28.1836 22.4779 29.7799C23.1679 30.8024 25.0629 31.4724 26.9504 31.4724C31.2804 31.4724 34.6129 29.6174 35.8504 28.0149L35.9479 27.8711C36.0129 27.7799 35.9604 27.7349 35.8829 27.7861C34.8742 28.4761 30.3754 31.2299 25.5704 30.4036C25.5704 30.4036 24.9842 30.3061 24.4504 30.0974C24.0267 29.9349 23.1417 29.5249 23.0317 28.6124C26.9117 29.8174 29.3529 28.6774 29.3529 28.6774L29.3542 28.6786ZM15.7867 11.2299C17.2779 9.50486 19.1129 8.00736 20.7542 7.16736C20.8129 7.13486 20.8717 7.19986 20.8454 7.25236C20.7154 7.48736 20.4617 8.00111 20.3829 8.37861C20.3704 8.43736 20.4354 8.48236 20.4804 8.44986C21.5092 7.75361 23.2867 7.00486 24.8492 6.90736C24.9142 6.90736 24.9467 6.99236 24.8942 7.03111C24.6342 7.23236 24.4054 7.46111 24.2042 7.72111C24.1717 7.76611 24.2042 7.82486 24.2567 7.82486C25.3567 7.83736 26.9004 8.22236 27.9029 8.78861C27.9742 8.82736 27.9292 8.95736 27.8504 8.93861C26.3267 8.58736 23.8329 8.31986 21.2429 8.95861C18.9317 9.52486 17.1679 10.3911 15.8779 11.3349C15.8129 11.3799 15.7342 11.2949 15.7867 11.2299Z" fill="black"/>
</g>
<defs>
<clipPath id="clip0_703_19071">
<rect width="40" height="40" fill="white"/>
</clipPath>
</defs>
</svg>
