<svg width="78" height="79" viewBox="0 0 78 79" fill="none" xmlns="http://www.w3.org/2000/svg">
<path d="M26.6696 4.50084H48.5669L25.8353 71.8521C25.6017 72.5442 25.1569 73.1456 24.5636 73.5716C23.9702 73.9976 23.2582 74.2269 22.5278 74.227H5.48625C4.93281 74.2271 4.38731 74.0954 3.89487 73.8428C3.40244 73.5902 2.97723 73.224 2.65441 72.7744C2.3316 72.3249 2.12046 71.8049 2.03847 71.2576C1.95647 70.7103 2.00598 70.1513 2.1829 69.6269L23.3612 6.87576C23.5947 6.18339 24.0396 5.58172 24.6331 5.15552C25.2266 4.72931 25.9389 4.50088 26.6696 4.50084Z" fill="url(#paint0_linear_268_6933)"/>
<path d="M58.489 49.6752H23.7651C23.4423 49.6748 23.1269 49.7717 22.8599 49.9532C22.5929 50.1347 22.3868 50.3923 22.2683 50.6927C22.1499 50.993 22.1246 51.322 22.1959 51.6369C22.2671 51.9517 22.4315 52.2379 22.6677 52.458L44.9804 73.2839C45.6301 73.8899 46.4855 74.2268 47.3739 74.2266H67.0359L58.489 49.6752Z" fill="#0078D4"/>
<path d="M26.67 4.50051C25.9314 4.49768 25.2111 4.73111 24.6145 5.1667C24.018 5.60229 23.5763 6.21723 23.3541 6.92168L2.2094 69.5694C2.02058 70.0957 1.9613 70.6597 2.03658 71.2138C2.11185 71.7678 2.31946 72.2956 2.64185 72.7524C2.96424 73.2093 3.39192 73.5818 3.88871 73.8384C4.3855 74.095 4.93678 74.2282 5.49593 74.2267H22.9773C23.6284 74.1104 24.2369 73.8233 24.7407 73.3948C25.2446 72.9663 25.6256 72.4118 25.845 71.7878L30.0617 59.3607L45.1236 73.4092C45.7547 73.9313 46.5465 74.22 47.3656 74.2267H66.9545L58.3631 49.6752L33.3179 49.6811L48.6464 4.50051H26.67Z" fill="url(#paint1_linear_268_6933)"/>
<path d="M54.6373 6.87204C54.4041 6.18079 53.9599 5.58012 53.3673 5.15466C52.7747 4.72921 52.0635 4.5004 51.334 4.50049H26.9297C27.6592 4.50053 28.3703 4.72938 28.9629 5.15482C29.5555 5.58026 29.9997 6.18086 30.233 6.87204L51.4122 69.6257C51.5892 70.1502 51.6388 70.7093 51.5569 71.2568C51.475 71.8043 51.2639 72.3244 50.9411 72.7741C50.6183 73.2238 50.193 73.5901 49.7005 73.8429C49.208 74.0956 48.6624 74.2275 48.1088 74.2275H72.514C73.0675 74.2273 73.613 74.0954 74.1054 73.8426C74.5978 73.5898 75.0229 73.2234 75.3456 72.7737C75.6683 72.324 75.8794 71.804 75.9612 71.2566C76.0431 70.7092 75.9935 70.1501 75.8165 69.6257L54.6373 6.87204Z" fill="url(#paint2_linear_268_6933)"/>
<defs>
<linearGradient id="paint0_linear_268_6933" x1="34.6505" y1="9.6678" x2="11.9096" y2="76.85" gradientUnits="userSpaceOnUse">
<stop stop-color="#114A8B"/>
<stop offset="1" stop-color="#0669BC"/>
</linearGradient>
<linearGradient id="paint1_linear_268_6933" x1="41.7546" y1="40.9762" x2="36.4943" y2="42.7548" gradientUnits="userSpaceOnUse">
<stop stop-opacity="0.3"/>
<stop offset="0.071" stop-opacity="0.2"/>
<stop offset="0.321" stop-opacity="0.1"/>
<stop offset="0.623" stop-opacity="0.05"/>
<stop offset="1" stop-opacity="0"/>
</linearGradient>
<linearGradient id="paint2_linear_268_6933" x1="38.8606" y1="7.70797" x2="63.8233" y2="74.2132" gradientUnits="userSpaceOnUse">
<stop stop-color="#3CCBF4"/>
<stop offset="1" stop-color="#2892DF"/>
</linearGradient>
</defs>
</svg>
