<svg width="68" height="75" viewBox="0 0 68 75" fill="none" xmlns="http://www.w3.org/2000/svg">
<path d="M42.6862 35.045L27.8667 39.8841L14.974 45.5744L11.367 46.5266C10.4484 47.4004 9.48522 48.2854 8.44346 49.1814C7.30093 50.1671 6.23682 51.0634 5.41898 51.7129C4.51173 52.4299 3.16754 53.774 2.48432 54.6251C1.46493 55.9021 0.658462 57.2574 0.311193 58.2993C-0.304933 60.1812 -0.00234748 62.0853 1.18497 63.8441C2.70834 66.0843 5.74399 68.3693 9.28351 69.9263C11.0871 70.7218 14.1226 71.741 16.4076 72.3122C20.2048 73.2756 27.553 74.3173 31.5966 74.4743C32.4142 74.5078 33.512 74.5078 33.5567 74.4743C33.6464 74.4181 34.2737 73.2196 35.0019 71.7299C37.4887 66.6556 39.2808 61.8949 40.2553 57.8289C40.8377 55.3647 41.2969 52.0826 41.5993 48.1959C41.6778 47.1093 41.7113 43.4689 41.6441 42.2366C41.5432 40.2204 41.364 38.5851 41.0842 36.9833C41.0393 36.748 41.028 36.5351 41.0505 36.5239C41.0952 36.4904 41.2296 36.4456 43.0554 35.919L42.686 35.0454V35.0451H42.6862V35.045ZM39.3034 37.0278C39.4378 37.0278 39.7961 40.4666 39.8857 42.6398C39.9082 43.099 39.8968 43.4014 39.8745 43.4014C39.785 43.4014 37.9814 42.3374 36.6935 41.531C35.5733 40.8252 33.4451 39.4138 33.1091 39.145C32.9968 39.0666 33.008 39.0554 33.9267 38.7417C35.4835 38.2151 39.1802 37.0278 39.3034 37.0278ZM31.7536 39.5146C31.8545 39.5146 32.1119 39.6601 32.728 40.041C35.0355 41.486 38.172 43.2335 39.5161 43.816C39.9305 43.9952 39.9752 43.9279 39.0232 44.5777C36.9846 45.9666 34.4417 47.3331 31.3277 48.7109C30.7789 48.9574 30.3197 49.1477 30.3086 49.1477C30.2863 49.1477 30.3533 48.8679 30.4428 48.5317C31.1933 45.7424 31.619 42.9197 31.6416 40.657C31.6527 39.5368 31.6527 39.5368 31.7536 39.5034C31.7311 39.5146 31.7422 39.5146 31.7536 39.5146ZM30.1966 40.1082C30.2636 40.1753 30.219 42.6845 30.1293 43.3678C29.9277 45.0032 29.614 46.5266 29.0989 48.2405C28.9757 48.6547 28.8635 49.0022 28.8413 49.0245C28.7963 49.0804 27.2617 47.5795 26.7577 46.997C25.8839 45.9888 25.2008 44.9807 24.6967 43.995C24.439 43.491 24.0359 42.5054 24.0694 42.4717C24.2486 42.3485 30.1518 40.0635 30.1966 40.1082ZM22.8708 42.9869C22.8819 42.9869 22.8931 42.9869 22.9045 42.9981C22.9268 43.0205 23.0053 43.1998 23.0725 43.4013C23.4309 44.3759 24.2372 45.8096 24.9319 46.7282C25.6936 47.7364 26.6906 48.8116 27.5193 49.5173C27.7883 49.7413 28.0346 49.9541 28.0681 49.9878C28.1354 50.055 28.1578 50.0437 26.3319 50.7383C24.2151 51.5448 21.9074 52.3512 19.2639 53.2025C18.6324 53.4061 18.0014 53.6115 17.3711 53.8186C17.2701 53.8523 17.3038 53.7962 17.595 53.3371C18.9055 51.2871 20.8993 47.2659 22.0195 44.4207C22.21 43.9278 22.4004 43.435 22.4341 43.323C22.4789 43.1661 22.5348 43.1101 22.6803 43.0317C22.7587 43.0094 22.8373 42.9869 22.8708 42.9869ZM20.6307 43.9166C20.6642 43.9392 20.0929 45.1376 19.5329 46.2353C18.4463 48.3524 17.259 50.436 15.6684 52.9674C15.3996 53.4042 15.142 53.8076 15.1084 53.8523C15.0524 53.9308 15.0299 53.9083 14.8507 53.5611C14.4699 52.8106 14.1561 51.8472 13.9881 50.9623C13.8201 50.0885 13.8537 48.5652 14.0442 47.6243C14.1897 46.9299 14.1786 46.9411 14.5146 46.773C15.9484 46.045 20.5859 43.8719 20.6307 43.9166ZM39.953 44.7008V45.1713C39.953 47.6692 39.6842 51.0968 39.292 53.5948C39.2248 54.0316 39.1686 54.3899 39.1576 54.4013C39.1576 54.4013 38.8328 54.3118 38.452 54.1996C36.7718 53.6731 34.9459 52.9002 33.2993 51.993C32.2126 51.3993 30.6333 50.4247 30.6782 50.3798C30.6892 50.3687 31.1598 50.1223 31.7085 49.831C33.9043 48.6885 36.01 47.4564 37.8358 46.2354C38.5191 45.7761 39.5495 45.037 39.7738 44.8352L39.953 44.7008ZM12.1735 48.0162C12.2183 48.0162 12.2071 48.1059 12.1399 48.5091C12.095 48.8005 12.0391 49.3381 12.0168 49.7076C11.927 51.3431 12.196 52.5529 13.0025 54.2106C13.2265 54.6699 13.4058 55.0508 13.3945 55.0619C13.316 55.1292 5.90086 57.3024 3.57081 57.9407C2.87637 58.1311 2.27161 58.2992 2.22657 58.3102C2.14831 58.3327 2.13705 58.3216 2.17063 58.131C2.42822 56.4845 3.68284 54.3338 5.43019 52.5191C6.59519 51.3094 7.52496 50.6038 9.11553 49.6963C10.2581 49.0468 12.0167 48.0724 12.1511 48.0275C12.1512 48.0162 12.1623 48.0162 12.1735 48.0162ZM29.6477 51.1415C29.6589 51.1303 29.9277 51.276 30.2525 51.4664C32.6496 52.8554 35.9876 54.1436 38.8326 54.8044L39.0904 54.8605L38.7319 55.0619C37.2422 55.8909 32.3471 57.9294 27.3402 59.8002C26.612 60.0689 25.8952 60.3378 25.7606 60.3938C25.6262 60.4497 25.503 60.4834 25.503 60.4723C25.503 60.4609 25.7047 60.0689 25.9622 59.5873C27.3623 56.9662 28.7738 53.7738 29.4907 51.5559C29.5805 51.3431 29.6364 51.1528 29.6477 51.1415ZM27.8667 51.724C27.8781 51.7354 27.7883 51.9704 27.6762 52.2393C26.7018 54.6027 25.4247 57.1792 23.7893 60.0691C23.375 60.8085 23.0277 61.4022 23.0163 61.4022C23.0053 61.4022 22.6691 61.2004 22.2659 60.954C19.8911 59.4978 17.7853 57.7056 16.4077 55.9694L16.2059 55.7229L17.2252 55.4429C20.8769 54.4461 23.9795 53.3707 27.0601 52.049C27.497 51.8697 27.8555 51.724 27.8667 51.724ZM38.9337 55.5885C38.9448 55.8461 38.3735 58.1537 37.903 59.8225C37.511 61.2227 37.1748 62.3205 36.5589 64.2582C36.2901 65.1097 36.055 65.8152 36.0436 65.8152C36.0325 65.8152 35.9653 65.8041 35.8981 65.7818C32.5713 65.1767 29.5917 64.3367 26.7914 63.2166C26.0072 62.9029 24.8871 62.3988 24.8199 62.3428C24.7976 62.3202 25.4697 62.0068 26.3209 61.6371C31.4176 59.408 36.7046 56.8765 38.5191 55.7901C38.7319 55.6556 38.9 55.5885 38.9337 55.5885ZM13.3833 56.4623C13.4057 56.4846 11.9831 58.5345 9.9892 61.3236C9.29477 62.2982 8.4883 63.4406 8.18592 63.8663C7.88343 64.2919 7.42423 64.9641 7.16658 65.3673L6.69591 66.0954L6.19182 65.6698C5.59811 65.1768 4.56772 64.124 4.10847 63.5415C3.14508 62.343 2.49553 61.0773 2.23788 59.9236C2.11463 59.3859 2.11463 59.1169 2.22651 59.0835C2.39449 59.0387 5.3853 58.333 8.18581 57.6832C9.74281 57.3248 11.5461 56.8992 12.1958 56.7424C12.8456 56.5853 13.3722 56.4623 13.3833 56.4623ZM14.817 57.0111L15.1753 57.4143C16.7885 59.2178 18.4351 60.551 20.429 61.7157C20.7875 61.9174 21.0562 62.0965 21.0337 62.1079C20.9555 62.1639 14.1113 64.5943 10.9413 65.6921C9.16042 66.3194 7.69293 66.8234 7.68188 66.8234C7.67072 66.8234 7.56984 66.7563 7.45765 66.6778L7.25615 66.5322L7.58095 66.0618C8.63381 64.5384 9.95578 62.8694 12.8345 59.397L14.817 57.0111ZM23.7559 63.407C23.7669 63.3959 24.2598 63.575 24.8646 63.7993C26.321 64.348 27.4745 64.6952 29.0204 65.0873C30.9247 65.569 33.6802 66.0395 35.3045 66.1738C35.5509 66.1962 35.6853 66.2187 35.6405 66.2523C35.5619 66.2971 33.9155 66.846 32.7057 67.2269C30.7789 67.8316 24.8983 69.5678 20.1042 70.9457C19.2192 71.2033 18.4575 71.4161 18.4127 71.4272C18.3008 71.4498 17.931 71.3488 17.931 71.304C17.931 71.2817 18.1998 70.9345 18.5247 70.5536C20.1376 68.6269 21.7396 66.4763 23.0725 64.4377C23.4421 63.8774 23.7559 63.4182 23.7559 63.407ZM21.7842 63.4632C21.7954 63.4743 21.0002 64.7512 19.6114 66.9466C19.0176 67.8764 18.3567 68.9293 18.1214 69.299C17.8973 69.6574 17.5613 70.2176 17.371 70.5311L17.0461 71.1024L16.8781 71.0576C16.4748 70.9456 13.6409 69.9486 12.8903 69.6462C11.9606 69.2765 10.9973 68.8285 10.2803 68.4477C9.38434 67.966 8.26428 67.249 8.35379 67.2268C8.37616 67.2156 9.91079 66.801 11.7589 66.297C16.6652 64.9639 19.387 64.1911 21.1682 63.6311C21.4931 63.5303 21.7731 63.4518 21.7842 63.4632ZM35.73 66.7338H35.7412C35.786 66.8459 33.9715 71.8865 33.3103 73.477C33.1649 73.8354 33.1091 73.9252 33.0305 73.9138C32.8401 73.9028 30.2078 73.5331 28.6059 73.2978C25.8169 72.8722 21.1346 72.0544 19.9585 71.7857L19.6897 71.7297L21.3585 71.3486C24.9431 70.5422 26.6681 70.1054 28.4154 69.5677C30.6222 68.8956 32.8065 68.0555 35.0131 67.0251C35.3603 66.8682 35.6516 66.745 35.73 66.7338Z" fill="url(#paint0_linear_1529_6337)"/>
<path d="M27.4082 0.50033C27.1618 0.46691 23.1852 1.90066 20.6201 2.94226C17.1588 4.35381 14.4706 5.69805 12.8128 6.86274C12.1968 7.29978 11.4237 8.07257 11.3007 8.37495C11.2559 8.48699 11.2334 8.62139 11.2334 8.7558L12.7345 10.1784L16.3076 11.3209L24.8095 12.8443L34.5322 14.5134L34.6331 13.6733C34.5996 13.6733 34.577 13.6621 34.5437 13.6621L33.2664 13.4604L33.009 13.0012C31.6872 10.6713 30.231 7.7813 29.3797 5.83224C28.7189 4.32003 28.0916 2.57278 27.7443 1.31816C27.5538 0.556477 27.5315 0.511693 27.4085 0.500536V0.500278H27.4082V0.50033ZM27.2288 1.07178H27.2403C27.2513 1.08283 27.2961 1.39668 27.341 1.76611C27.5313 3.33452 27.8788 4.84648 28.4276 6.48194C28.8419 7.71415 28.8419 7.647 28.3604 7.50128C27.2178 7.18774 22.0988 6.30281 18.3912 5.78756C17.7975 5.7091 17.2934 5.63074 17.2934 5.61958C17.2486 5.5748 19.9704 4.1521 21.169 3.59217C22.7036 2.88632 26.9153 1.12772 27.2288 1.07178ZM16.4307 6.08994L16.8677 6.2354C19.2423 7.04203 25.2125 8.18461 28.5059 8.45341C28.8754 8.48704 29.1892 8.52072 29.2002 8.52072C29.2114 8.53188 28.8979 8.69991 28.4946 8.89025C26.9041 9.68556 25.1566 10.6601 23.9468 11.4106C23.5885 11.6346 23.2635 11.8139 23.2188 11.8139C23.174 11.8139 22.9389 11.7691 22.6924 11.7354L22.2444 11.6681L21.1244 10.5703C19.1529 8.65502 17.6071 7.17648 17.0134 6.61629L16.4307 6.08994ZM15.9828 6.43711L17.5622 8.40863C18.4246 9.49517 19.2983 10.5592 19.4889 10.7944C19.6792 11.0298 19.8361 11.2203 19.8249 11.2314C19.7801 11.265 17.54 10.828 16.3524 10.5593C15.1315 10.2792 14.6275 10.1448 13.877 9.90969L13.2609 9.70798V9.55106C13.272 8.80053 14.2243 7.68047 15.8372 6.53804L15.9828 6.43711ZM29.402 9.12548C29.4469 9.12548 29.5027 9.22626 29.6371 9.52869C30.018 10.3687 31.2055 12.6315 31.4965 13.0683C31.5864 13.2141 31.743 13.2252 30.1637 12.9676C26.3666 12.3514 25.1455 12.15 25.1455 12.1276C25.1455 12.1164 25.2575 12.0379 25.4031 11.9595C26.5793 11.3099 27.7666 10.4809 28.8196 9.596C29.0773 9.38313 29.3125 9.18153 29.3572 9.14785C29.3683 9.12548 29.3909 9.11433 29.402 9.12548Z" fill="url(#paint1_linear_1529_6337)"/>
<path d="M11.3768 8.21716C11.3768 8.21716 11.1305 8.60937 11.3657 9.19187C11.5114 9.55019 11.937 9.98698 12.4186 10.4351C12.4186 10.4351 17.4032 15.2965 18.0081 15.9911C20.7635 19.1722 21.9621 22.3086 22.0742 26.6324C22.1414 29.4103 21.6148 31.8522 20.3043 34.6862C17.9744 39.7716 13.0569 45.3836 5.47363 51.6116L6.58274 51.2419C7.29959 50.7041 8.27415 50.133 10.5592 48.8784C15.8349 45.9883 21.7717 43.3336 29.0527 40.6005C39.5369 36.6575 56.776 32.0424 66.5882 30.5416L67.6077 30.3847L67.4508 30.1383C66.5549 28.7492 65.9386 27.8868 65.1992 26.9683C63.0487 24.3024 60.439 22.1406 57.2464 20.3483C52.8555 17.8953 47.1762 15.9799 39.9851 14.5573C38.6297 14.2883 35.6501 13.7731 33.2307 13.4035C28.1004 12.6084 24.7848 12.0594 21.1332 11.4321C19.8228 11.208 17.8623 10.8721 16.563 10.5921C15.8909 10.4463 14.6029 10.144 13.5947 9.79674C12.7883 9.48294 11.6232 9.1693 11.3768 8.21716ZM14.2669 11.0176C14.278 11.0066 14.4572 11.0736 14.6925 11.152C15.1182 11.2975 15.667 11.4656 16.3168 11.6449C16.8085 11.7801 17.3013 11.9108 17.7954 12.0369C18.4675 12.2048 19.0274 12.3617 19.0386 12.3617C19.1172 12.4402 20.2485 16.058 20.6294 17.447C20.7748 17.9736 20.887 18.4215 20.8758 18.4215C20.8643 18.4329 20.7413 18.2423 20.5957 17.9847C19.2851 15.6772 17.2128 13.3362 14.8157 11.4543C14.5022 11.2304 14.2669 11.0288 14.2669 11.0176ZM19.778 12.541C19.834 12.541 20.0805 12.5746 20.3827 12.6418C22.287 13.0674 25.7035 13.7171 27.8877 14.0868C28.2574 14.1427 28.5487 14.2101 28.5487 14.2324C28.5487 14.2549 28.4141 14.3331 28.246 14.4229C27.8766 14.6132 26.3867 15.498 25.8939 15.8341C24.6505 16.663 23.5305 17.5591 22.7239 18.3656C22.3991 18.6905 22.1189 18.9593 22.1189 18.9593C22.1189 18.9593 22.0519 18.769 21.9957 18.5336C21.5927 16.9766 20.7524 14.669 19.9907 13.0449C19.8675 12.7874 19.7666 12.5521 19.7666 12.5298C19.7666 12.5522 19.7666 12.541 19.778 12.541ZM29.4783 14.3892C29.5455 14.4115 29.6575 14.7924 29.8815 15.6325C30.296 17.2568 30.4865 19.0714 30.4193 20.7628C30.3968 21.2332 30.3744 21.67 30.3519 21.7262L30.3184 21.8381L29.7359 21.6477C28.5374 21.2669 26.5884 20.6955 24.9195 20.2251C23.9672 19.9675 23.1945 19.7322 23.1945 19.7099C23.1945 19.6426 24.5835 18.2537 25.1771 17.7272C26.3082 16.7302 29.3774 14.3555 29.4783 14.3892ZM30.2512 14.5011C30.2849 14.4677 34.8886 15.2628 36.9833 15.6661C38.5404 15.9685 40.803 16.439 40.9373 16.4951C41.0045 16.5174 40.7692 16.6518 40.0187 16.9878C37.0616 18.3209 34.866 19.5193 32.682 20.9756C32.1107 21.3564 31.629 21.67 31.6178 21.67C31.6067 21.67 31.5955 21.3453 31.5955 20.9532C31.5955 18.825 31.1698 16.6743 30.3855 14.8597C30.3072 14.6804 30.24 14.5125 30.2512 14.5011ZM42.1582 16.8535C42.1919 16.8871 42.0462 17.7945 41.9118 18.3321C41.5086 20.0011 40.4221 22.4768 39.0893 24.8065C38.8538 25.221 38.6411 25.557 38.6185 25.5682C38.5963 25.5793 38.2938 25.4113 37.9465 25.2097C36.6472 24.448 35.1687 23.7311 33.5556 23.059C33.1077 22.8686 32.7155 22.7117 32.7043 22.6895C32.6258 22.6222 36.2327 20.2363 38.137 19.0937C39.6492 18.1753 42.1134 16.8086 42.1582 16.8535ZM43.0095 16.9879C43.1104 16.9879 45.149 17.548 46.213 17.8617C48.8454 18.6458 51.8697 19.7547 53.8412 20.6508L54.6587 21.0205L54.0877 21.1548C49.2712 22.2637 45.149 23.5408 41.1725 25.1538C40.8476 25.2882 40.5563 25.4002 40.5342 25.4002C40.5116 25.4002 40.6237 25.1426 40.7693 24.8289C41.9679 22.2862 42.7408 19.6315 42.931 17.3687C42.9424 17.1558 42.9758 16.9879 43.0095 16.9879ZM22.7127 21.6477C22.7463 21.614 24.3033 21.9838 25.1434 22.2188C26.4203 22.5774 29.131 23.4846 29.131 23.5519C29.131 23.563 28.8286 23.8207 28.4703 24.1344C27.0029 25.3554 25.5914 26.6434 23.8999 28.2788C23.3958 28.7607 22.9703 29.1527 22.948 29.1527C22.9255 29.1527 22.9145 29.0853 22.9255 28.9957C23.1831 27.1138 23.1272 24.6944 22.7688 22.2413C22.735 21.9276 22.7015 21.6589 22.7127 21.6477ZM55.432 21.6814C55.4541 21.7037 54.7149 22.8686 54.2445 23.5294C53.5726 24.4927 52.5866 25.7699 50.3575 28.5702C49.1816 30.0486 47.8596 31.7178 47.4229 32.2778C46.9747 32.8378 46.6052 33.3082 46.5938 33.3082C46.5827 33.3082 46.4373 33.1067 46.2803 32.8603C45.0257 30.9784 43.5247 29.3318 41.7436 27.8533C41.4076 27.5731 41.0382 27.2707 40.9149 27.1811C40.7917 27.0915 40.6908 27.0019 40.6908 26.9907C40.6908 26.9572 42.5948 26.1393 44.0401 25.557C46.5716 24.5264 50.0213 23.2943 52.609 22.4989C53.9644 22.0733 55.4094 21.6589 55.432 21.6814ZM56.2944 21.9053C56.339 21.8942 56.608 22.0286 56.9329 22.2188C59.6549 23.7758 62.3206 25.781 64.4266 27.842C65.0202 28.4246 66.4876 29.948 66.4651 29.9591C66.4651 29.9591 65.9499 30.0039 65.3451 30.0486C60.6293 30.4072 54.5919 31.404 48.7895 32.8041C48.3975 32.8936 48.0503 32.9721 48.0278 32.9721C48.0056 32.9721 48.4423 32.5353 48.9913 32.0089C52.3964 28.7269 53.9535 26.6547 55.7904 22.9581C56.0479 22.4094 56.2721 21.9389 56.2944 21.9053C56.2832 21.9053 56.2832 21.9053 56.2944 21.9053ZM31.3489 24.4593C31.5058 24.4928 32.962 25.1763 34.0597 25.725C35.0678 26.2289 36.5801 27.0356 36.6584 27.1027C36.6696 27.1138 36.1318 27.3939 35.4712 27.7188C33.3652 28.7717 31.5618 29.7685 29.6799 30.9111C29.1423 31.236 28.6942 31.505 28.6831 31.505C28.6382 31.505 28.6494 31.4599 28.9519 30.9111C29.9601 29.0742 30.7664 26.8788 31.2258 24.7392C31.2705 24.5712 31.3154 24.4593 31.3489 24.4593ZM29.8927 24.728C29.9263 24.7617 29.5455 26.1394 29.3104 26.8899C28.851 28.3125 28.0781 30.0935 27.3277 31.4377C27.1483 31.7512 26.8795 32.2105 26.7339 32.4681L26.454 32.9161L25.8267 32.3114C25.0987 31.6056 24.5049 31.1688 23.7433 30.7767C23.4407 30.62 23.2056 30.4854 23.2056 30.4632C23.2056 30.3735 25.121 28.6374 26.5884 27.3828C27.6412 26.4754 29.8591 24.6945 29.8927 24.728ZM38.798 28.391L39.3469 28.7493C40.6012 29.5671 42.0797 30.6536 43.2113 31.6056C43.8496 32.132 45.0817 33.2411 45.3283 33.5099L45.4625 33.6557L44.5554 33.9132C39.4251 35.3357 35.4599 36.6014 30.8336 38.3042C30.3184 38.4945 29.8815 38.6513 29.8478 38.6513C29.7808 38.6513 29.7246 38.7073 30.8785 37.6431C33.8358 34.9214 36.4567 31.9192 38.4058 28.9957L38.798 28.391ZM36.4568 28.9734C36.4791 28.9957 34.9446 31.1575 34.026 32.3785C32.9283 33.8348 30.9792 36.2766 29.6351 37.8671C29.0751 38.5281 28.5936 39.0769 28.571 39.0882C28.5374 39.0993 28.5262 38.9313 28.5262 38.6737C28.5262 37.3182 28.179 35.8732 27.5741 34.6412C27.3164 34.1259 27.2716 34.0027 27.3278 33.9467C27.5405 33.7562 30.8001 31.8968 32.8611 30.788C34.2501 30.0487 36.4229 28.951 36.4568 28.9734ZM22.2982 32.4458C22.3318 32.4458 22.5895 32.5801 22.8808 32.7371C23.5976 33.1291 24.2361 33.5659 24.8073 34.0365C24.8297 34.0588 24.5385 34.2941 24.1577 34.574C23.0935 35.3357 21.4806 36.5567 20.5398 37.3072C19.5538 38.0913 19.5205 38.1137 19.6324 37.9457C20.3717 36.8144 20.7412 36.1759 21.1334 35.3582C21.4806 34.6302 21.8277 33.7677 22.0742 33.0171C22.1638 32.6923 22.2758 32.4458 22.2982 32.4458ZM26.0732 35.4029C26.129 35.3919 26.1964 35.4925 26.4987 35.9407C27.1372 36.8926 27.6301 38.1698 27.7535 39.2003L27.7756 39.4244L26.2413 40.0181C23.4967 41.0821 20.9654 42.1351 19.2514 42.9191C18.7698 43.1432 17.9297 43.5464 17.3809 43.8154C16.832 44.0952 16.3839 44.3081 16.3839 44.2969C16.3839 44.2858 16.7311 44.0281 17.1567 43.7144C20.5062 41.2838 23.4072 38.6178 25.5802 35.9519C25.8155 35.6718 26.0284 35.4141 26.0506 35.403L26.0732 35.4029ZM24.337 35.8287C24.3818 35.8734 23.1049 37.3183 22.2312 38.2032C20.0693 40.41 17.9298 42.1351 15.275 43.8154C14.939 44.0281 14.6366 44.2185 14.6029 44.241C14.5245 44.2858 14.6252 44.1737 15.7902 42.9079C16.5296 42.1126 17.0896 41.4405 17.7281 40.6117C18.1537 40.063 18.2322 39.9845 18.8484 39.5475C20.495 38.3601 24.2921 35.7838 24.337 35.8287Z" fill="url(#paint2_radial_1529_6337)"/>
<defs>
<linearGradient id="paint0_linear_1529_6337" x1="11.1493" y1="67.1793" x2="16.508" y2="64.013" gradientUnits="userSpaceOnUse">
<stop stop-color="#909CA9"/>
<stop offset="1" stop-color="#EDEDEE"/>
</linearGradient>
<linearGradient id="paint1_linear_1529_6337" x1="11.2727" y1="7.48495" x2="15.5845" y2="7.48495" gradientUnits="userSpaceOnUse">
<stop stop-color="#939FAB"/>
<stop offset="1" stop-color="#DCDEE1"/>
</linearGradient>
<radialGradient id="paint2_radial_1529_6337" cx="0" cy="0" r="1" gradientUnits="userSpaceOnUse" gradientTransform="translate(33.0277 27.259) rotate(-171.457) scale(5.55904 11.1208)">
<stop stop-color="#EE352C"/>
<stop offset="1" stop-color="#A91D22"/>
</radialGradient>
</defs>
</svg>
