<svg width="78" height="79" viewBox="0 0 78 79" fill="none" xmlns="http://www.w3.org/2000/svg">
<path d="M19.7908 60.2832H16.9355C16.8345 55.4636 16.5565 50.9325 16.1018 46.6868H16.0764L11.7291 60.2832H9.55521L5.23385 46.6868H5.20902C4.88845 50.7631 4.6865 55.2953 4.60264 60.2832H2C2.16773 54.2177 2.58928 48.5313 3.26297 43.2234H6.80194L10.9208 55.7588H10.9462L15.0904 43.2234H18.4766C19.2181 49.4406 19.6562 55.1275 19.7908 60.2832ZM32.1739 47.6965C31.0114 54.0053 29.4775 58.5893 27.5739 61.4507C26.0908 63.6533 24.4659 64.7557 22.6964 64.7557C22.2246 64.7557 21.6425 64.6133 20.9528 64.3308V62.8097C21.29 62.8582 21.6856 62.8858 22.1402 62.8858C22.9668 62.8858 23.6311 62.6585 24.1376 62.2027C24.7434 61.6477 25.0463 61.0236 25.0463 60.3334C25.0463 59.86 24.8102 58.8922 24.339 57.4267L21.2056 47.6959H24.0107L26.2596 54.9736C26.7651 56.6261 26.9758 57.7798 26.8914 58.437C28.1213 55.1524 28.9804 51.5709 29.4698 47.6954H32.1739V47.6965Z" fill="#5D87A1"/>
<path d="M70.1817 60.2831H62.0708V43.2233H64.7993V58.1831H70.1817V60.2831ZM59.9477 60.6952L56.8115 59.1475C57.0896 58.9191 57.3555 58.6719 57.595 58.3856C58.928 56.8197 59.5929 54.504 59.5929 51.4367C59.5929 45.7928 57.3781 42.9695 52.947 42.9695C50.7742 42.9695 49.0792 43.6857 47.867 45.1186C46.535 46.6856 45.8701 48.993 45.8701 52.0437C45.8701 55.0425 46.4594 57.2423 47.6385 58.6377C48.7172 59.9018 50.3432 60.5347 52.5177 60.5347C53.3288 60.5347 54.0731 60.4353 54.7512 60.2351L58.8342 62.612L59.9477 60.6952ZM49.7882 56.8693C49.0974 55.7581 48.752 53.9737 48.752 51.5134C48.752 47.218 50.0569 45.0678 52.6694 45.0678C54.035 45.0678 55.0359 45.5821 55.676 46.6083C56.3657 47.7212 56.7127 49.4896 56.7127 51.9157C56.7127 56.2464 55.4067 58.4121 52.7958 58.4121C51.4297 58.4126 50.4288 57.9 49.7882 56.8693ZM44.6811 55.5545C44.6811 57.0012 44.1503 58.188 43.0898 59.1178C42.0283 60.0436 40.6047 60.5076 38.8209 60.5076C37.1524 60.5076 35.5346 59.9746 33.9688 58.9142L34.702 57.4492C36.0494 58.124 37.2694 58.4595 38.3646 58.4595C39.3925 58.4595 40.1959 58.2316 40.7785 57.7797C41.3606 57.3262 41.7077 56.69 41.7077 55.8856C41.7077 54.872 41.0009 54.0057 39.7043 53.2802C38.5086 52.6236 36.1173 51.2508 36.1173 51.2508C34.8212 50.3062 34.1724 49.2921 34.1724 47.6213C34.1724 46.2386 34.6562 45.1224 35.6246 44.2733C36.594 43.4208 37.8448 42.996 39.3782 42.996C40.9617 42.996 42.4013 43.4203 43.6979 44.26L43.0402 45.7255C41.9312 45.2543 40.8365 45.0187 39.7567 45.0187C38.8821 45.0187 38.2068 45.2289 37.7373 45.651C37.2638 46.0715 36.972 46.6094 36.972 47.2693C36.972 48.2779 37.6937 49.1552 39.0256 49.8951C40.2373 50.5528 42.6882 51.9493 42.6882 51.9493C44.0173 52.8923 44.6811 53.897 44.6811 55.5545Z" fill="#F8981D"/>
<path d="M73.6074 37.5094C71.9576 37.4674 70.6803 37.6335 69.6082 38.0871C69.2987 38.2107 68.8065 38.2107 68.7635 38.6019C68.9307 38.7674 68.95 39.0344 69.0951 39.2629C69.3423 39.675 69.7732 40.2295 70.1666 40.5187C70.5986 40.8497 71.0323 41.1775 71.487 41.466C72.2887 41.9621 73.1974 42.2506 73.9787 42.745C74.4339 43.0325 74.8863 43.4044 75.3421 43.7139C75.5661 43.8789 75.7096 44.1465 76.0003 44.2496V44.1867C75.8547 44.0014 75.8133 43.7332 75.6704 43.5268L75.0513 42.9298C74.4532 42.1265 73.71 41.4252 72.9083 40.8492C72.2484 40.3945 70.805 39.7766 70.5374 39.0162L70.4955 38.9743C70.949 38.9318 71.487 38.7674 71.9179 38.641C72.6192 38.4562 73.2587 38.4981 73.9781 38.3133C74.3092 38.2305 74.6375 38.1268 74.9697 38.0247V37.8388C74.5967 37.4674 74.3307 36.9742 73.9384 36.6233C72.889 35.7167 71.7325 34.8301 70.5374 34.0879C69.8974 33.6747 69.0741 33.4087 68.3927 33.0573C68.1472 32.9331 67.7334 32.8719 67.5888 32.6655C67.2191 32.212 67.0111 31.615 66.743 31.0781C66.1471 29.9453 65.5683 28.6884 65.054 27.4906C64.6821 26.6872 64.4559 25.885 64.0024 25.1418C61.8781 21.6381 59.5712 19.516 56.0256 17.4332C55.2637 16.9995 54.3571 16.8146 53.3888 16.5873L51.8422 16.5057C51.5123 16.3611 51.1818 15.9688 50.8937 15.7834C49.7174 15.0418 46.6888 13.4346 45.8237 15.5566C45.2664 16.898 46.648 18.2166 47.1225 18.897C47.4728 19.3693 47.9269 19.9067 48.1719 20.443C48.317 20.7934 48.3579 21.1652 48.503 21.5355C48.8329 22.4426 49.1414 23.4517 49.575 24.2981C49.8013 24.7296 50.0479 25.1831 50.337 25.5738C50.5025 25.8022 50.7906 25.9032 50.8535 26.2756C50.566 26.6861 50.5434 27.3057 50.3784 27.8211C49.6368 30.15 49.9265 33.0352 50.9776 34.7467C51.3065 35.2621 52.0911 36.3965 53.1405 35.9617C54.0697 35.5909 53.8639 34.4162 54.1309 33.3861C54.1921 33.1373 54.1519 32.9739 54.2755 32.8106V32.8509C54.5629 33.4275 54.8532 33.9831 55.1197 34.5613C55.7591 35.5705 56.8726 36.6222 57.8001 37.3212C58.2939 37.6942 58.6851 38.3321 59.3036 38.5599V38.4981H59.2628C59.1375 38.3133 58.9544 38.2305 58.7899 38.0871C58.4181 37.7157 58.0064 37.2622 57.7179 36.8506C56.8538 35.6958 56.0891 34.4173 55.4104 33.0981C55.0783 32.458 54.7919 31.7584 54.5243 31.1195C54.3996 30.8729 54.3996 30.501 54.1927 30.3768C53.8826 30.8298 53.4307 31.2221 53.2045 31.7772C52.8122 32.665 52.7714 33.7569 52.6257 34.8924L52.5446 34.9321C51.888 34.7672 51.6596 34.0879 51.4102 33.5114C50.7928 32.047 50.689 29.6965 51.2248 28.007C51.3683 27.575 51.989 26.2144 51.7412 25.8028C51.6171 25.4082 51.2044 25.1837 50.9782 24.873C50.7122 24.4824 50.4209 23.988 50.2355 23.5543C49.7411 22.4006 49.4923 21.1222 48.9598 19.969C48.711 19.4316 48.279 18.8754 47.9292 18.3805C47.5363 17.8243 47.1043 17.4326 46.7936 16.7733C46.691 16.5465 46.547 16.1757 46.712 15.9291C46.7523 15.7635 46.8361 15.7017 47.0005 15.6604C47.2676 15.4347 48.0307 15.7216 48.2983 15.8457C49.0625 16.1547 49.7014 16.4433 50.3392 16.8759C50.6278 17.0828 50.9373 17.4745 51.3076 17.5777H51.7412C52.3995 17.7212 53.1416 17.6174 53.7612 17.8039C54.8532 18.1549 55.8425 18.6696 56.7297 19.2253C59.4294 20.9374 61.6558 23.3701 63.1587 26.2756C63.4054 26.749 63.5102 27.1827 63.7353 27.6765C64.1696 28.6873 64.7064 29.718 65.1373 30.7073C65.5705 31.6757 65.9832 32.6644 66.6017 33.4689C66.9101 33.9014 68.1494 34.1282 68.705 34.355C69.1161 34.5398 69.7561 34.7043 70.1269 34.931C70.8282 35.363 71.5267 35.8591 72.186 36.3341C72.5143 36.5813 73.5461 37.0967 73.6074 37.5094ZM52.5821 19.5971C52.2976 19.5942 52.0139 19.6291 51.7385 19.7009V19.7423H51.7782C51.9443 20.0717 52.2329 20.3001 52.4387 20.5875C52.6047 20.9181 52.7488 21.2458 52.9115 21.5757L52.9512 21.5349C53.242 21.3291 53.3866 20.9992 53.3866 20.5042C53.2613 20.3586 53.242 20.2162 53.1377 20.0717C53.0164 19.8653 52.7488 19.7627 52.5821 19.5971Z" fill="#5D87A1"/>
<path d="M75.5702 60.2804H75.9972V58.1904H75.3567L74.8341 59.6167L74.2664 58.1904H73.6495V60.2804H74.0529V58.6903H74.0755L74.6703 60.2804H74.9776L75.5702 58.6903V60.2804ZM72.13 60.2804H72.5819V58.5446H73.1734V58.1898H71.5137V58.5446H72.1289L72.13 60.2804Z" fill="#F8981D"/>
</svg>
