<svg width="78" height="79" viewBox="0 0 78 79" fill="none" xmlns="http://www.w3.org/2000/svg">
<path d="M39.5077 75.4842C59.6618 75.4842 75.9998 59.1461 75.9998 38.9921C75.9998 18.8381 59.6618 2.5 39.5077 2.5C19.3537 2.5 3.01562 18.8381 3.01562 38.9921C3.01562 59.1461 19.3537 75.4842 39.5077 75.4842Z" fill="#5C2D91"/>
<path opacity="0.1" d="M14.2143 12.7634C10.5046 16.0692 7.50909 20.0977 5.41138 24.6021C3.31368 29.1064 2.15797 33.9918 2.01509 38.9586C1.87221 43.9254 2.74518 48.8691 4.58049 53.4866C6.41579 58.1041 9.17476 62.2982 12.6883 65.8117C16.2018 69.3252 20.3959 72.0842 25.0134 73.9195C29.6309 75.7548 34.5746 76.6278 39.5414 76.4849C44.5082 76.3421 49.3936 75.1863 53.8979 73.0886C58.4023 70.9909 62.4308 67.9954 65.7366 64.2857L14.2143 12.7634Z" fill="white"/>
<path d="M11.4548 44.9789C11.2419 44.9823 11.0306 44.9415 10.8343 44.859C10.6381 44.7766 10.461 44.6543 10.3144 44.5C10.1637 44.3512 10.0447 44.1734 9.96431 43.9775C9.88397 43.7815 9.84401 43.5714 9.84682 43.3596C9.8453 43.148 9.88585 42.9383 9.96611 42.7425C10.0464 42.5467 10.1648 42.3689 10.3144 42.2192C10.4596 42.0623 10.6361 41.9375 10.8325 41.853C11.029 41.7686 11.2409 41.7263 11.4548 41.7289C11.6683 41.7284 11.8796 41.7716 12.0757 41.8559C12.2719 41.9403 12.4486 42.0639 12.5951 42.2192C12.7473 42.3675 12.8681 42.5449 12.9504 42.7408C13.0327 42.9367 13.0748 43.1471 13.0741 43.3596C13.0761 43.5723 13.0346 43.7831 12.9523 43.9792C12.8699 44.1753 12.7484 44.3525 12.5951 44.5C12.4473 44.6527 12.27 44.7739 12.074 44.8562C11.878 44.9385 11.6673 44.9803 11.4548 44.9789Z" fill="white"/>
<path d="M34.1138 44.6941H31.126L20.4407 28.113C20.1745 27.7045 19.9528 27.2687 19.7792 26.813H19.688C19.7896 27.7597 19.8277 28.7121 19.8021 29.6639V44.6941H17.373V23.905H20.5319L30.9321 40.1896C31.3655 40.8663 31.6468 41.33 31.776 41.5809H31.833C31.7127 40.5668 31.6632 39.5456 31.6848 38.5247V23.905H34.1138V44.6941Z" fill="white"/>
<path d="M50.5581 44.6941H39.5078V23.905H50.0449V26.106H41.9938V33.0167H49.4975V35.2062H41.9938V42.4134H50.5695L50.5581 44.6941Z" fill="white"/>
<path d="M66.8773 26.106H60.8333V44.6941H58.4043V26.106H52.4287V23.905H66.8773V26.106Z" fill="white"/>
<path d="M32.8018 58.8346C31.9785 59.2334 31.0704 59.4252 30.1561 59.3934C29.5486 59.4208 28.9423 59.3179 28.3778 59.0918C27.8133 58.8656 27.3038 58.5213 26.8833 58.082C26.0453 57.144 25.6038 55.9177 25.6516 54.6609C25.621 53.9804 25.7273 53.3006 25.9643 52.662C26.2014 52.0234 26.5643 51.4389 27.0315 50.9432C27.4868 50.4768 28.0342 50.1102 28.6389 49.8667C29.2436 49.6233 29.8923 49.5083 30.5439 49.5292C31.3236 49.5025 32.1003 49.6384 32.8246 49.9283V51.0687C32.1272 50.6826 31.3409 50.486 30.5439 50.4985C30.0414 50.4843 29.5418 50.5789 29.0793 50.7757C28.6167 50.9725 28.2022 51.267 27.864 51.6389C27.1528 52.4491 26.7847 53.5042 26.8376 54.581C26.7844 55.6011 27.1276 56.6022 27.7956 57.375C28.1159 57.7195 28.5071 57.9906 28.9421 58.1697C29.3771 58.3488 29.8457 58.4317 30.3158 58.4127C31.1914 58.4356 32.0561 58.2145 32.8132 57.7741L32.8018 58.8346Z" fill="#F2F2F2"/>
<path d="M37.466 59.3933C37.0121 59.408 36.5603 59.325 36.1412 59.1499C35.7221 58.9748 35.3456 58.7117 35.037 58.3784C34.4135 57.6825 34.0897 56.7686 34.1361 55.8354C34.1077 55.3464 34.1767 54.8567 34.3392 54.3947C34.5017 53.9327 34.7544 53.5075 35.0826 53.1441C35.4177 52.8171 35.8162 52.5624 36.2536 52.3957C36.6911 52.2289 37.158 52.1537 37.6257 52.1748C38.0677 52.1512 38.5096 52.2236 38.921 52.387C39.3325 52.5504 39.7036 52.8009 40.0091 53.1213C40.6152 53.8517 40.9209 54.7853 40.8644 55.7327C40.9122 56.6943 40.5805 57.6362 39.9407 58.3556C39.6263 58.6954 39.2428 58.9638 38.8159 59.1428C38.389 59.3218 37.9287 59.4073 37.466 59.3933ZM37.5459 53.1555C37.2322 53.1423 36.9196 53.2 36.6313 53.3244C36.343 53.4488 36.0865 53.6366 35.8809 53.8739C35.4421 54.4389 35.2233 55.144 35.2651 55.8582C35.2253 56.5511 35.4448 57.2341 35.8809 57.774C36.0886 58.0079 36.3458 58.1927 36.6338 58.315C36.9217 58.4373 37.2333 58.494 37.5459 58.481C37.8519 58.4991 38.158 58.4468 38.4407 58.3282C38.7233 58.2096 38.9751 58.0278 39.1766 57.7968C39.5912 57.2303 39.7931 56.5359 39.7468 55.8354C39.7919 55.1315 39.5903 54.4338 39.1766 53.8625C38.9779 53.6267 38.7272 53.4401 38.4443 53.3174C38.1614 53.1947 37.8538 53.1393 37.5459 53.1555Z" fill="#F2F2F2"/>
<path d="M46.1902 53.4974C45.9439 53.336 45.6514 53.2599 45.3577 53.2807C45.128 53.2891 44.9038 53.3538 44.7049 53.4691C44.5061 53.5845 44.3386 53.7469 44.2173 53.9421C43.8779 54.4795 43.7145 55.1093 43.7498 55.7439V59.2335H42.6094V52.3912H43.7498V53.8167C43.8751 53.3756 44.1245 52.9798 44.4682 52.6763C44.7656 52.4182 45.1464 52.2764 45.5401 52.2772C45.7606 52.2673 45.981 52.2982 46.1902 52.3684V53.4974Z" fill="#F2F2F2"/>
<path d="M52.8737 56.0979H48.0499C48.0175 56.7354 48.225 57.3619 48.6315 57.8541C48.8429 58.0649 49.0964 58.2287 49.3754 58.3348C49.6545 58.4409 49.9528 58.487 50.2508 58.4699C51.0239 58.4622 51.7715 58.1928 52.3719 57.7058V58.7322C51.6669 59.1969 50.8319 59.4246 49.9885 59.3822C49.563 59.4036 49.138 59.331 48.7437 59.1693C48.3495 59.0077 47.9958 58.7611 47.7078 58.4471C47.1141 57.7065 46.8173 56.7715 46.8753 55.8242C46.8343 54.8745 47.1564 53.9449 47.7762 53.2241C48.0583 52.8983 48.4092 52.6392 48.8036 52.4657C49.1981 52.2921 49.6262 52.2084 50.057 52.2206C50.4459 52.1988 50.8347 52.2655 51.1942 52.4156C51.5537 52.5657 51.8745 52.7953 52.1324 53.0873C52.6575 53.7797 52.9165 54.6376 52.8623 55.5049L52.8737 56.0979ZM51.7333 55.1742C51.7564 54.6457 51.5952 54.1257 51.2772 53.7031C51.1211 53.5268 50.9272 53.388 50.71 53.2972C50.4928 53.2063 50.2578 53.1658 50.0227 53.1785C49.7773 53.1755 49.534 53.2236 49.3082 53.3198C49.0824 53.416 48.8791 53.5582 48.7113 53.7373C48.336 54.1344 48.0998 54.6426 48.0385 55.1856L51.7333 55.1742Z" fill="#F2F2F2"/>
</svg>
