<svg width="40" height="40" viewBox="0 0 40 40" fill="none" xmlns="http://www.w3.org/2000/svg">
<path d="M26.252 16.4133H32.862V17.6334H30.2398V24.0518H28.9287V17.6334H26.252V16.4133Z" fill="black"/>
<path d="M15.3815 16.4133V17.6334H10.0831V19.596H14.344V20.8161H10.0831V22.8318H15.3815V24.0518H8.77203V17.6334H8.77148V16.4133H15.3815Z" fill="black"/>
<path d="M18.6826 16.4167H16.9668L23.1124 24.0552H24.8332L21.76 20.2386L24.8282 16.4226L23.1124 16.4252L20.9009 19.1717L18.6826 16.4167Z" fill="black"/>
<path d="M20.4423 21.8728L19.5831 20.8044L16.9609 24.0609H18.6816L20.4423 21.8728Z" fill="black"/>
<path fill-rule="evenodd" clip-rule="evenodd" d="M8.81807 24.0518L2.66423 16.4102H1.02539V24.0486H2.33646V18.0429L7.17103 24.0518H8.81807Z" fill="black"/>
<path d="M33.158 24.0053C33.0619 24.0053 32.9803 23.972 32.9119 23.9055C32.8435 23.8389 32.8097 23.7584 32.8106 23.663C32.8097 23.5702 32.8435 23.4905 32.9119 23.424C32.9803 23.3575 33.0619 23.3242 33.158 23.3242C33.2503 23.3242 33.3312 23.3575 33.3995 23.424C33.4689 23.4905 33.5035 23.5702 33.5044 23.663C33.5035 23.726 33.4875 23.7838 33.4555 23.8354C33.4227 23.888 33.381 23.9291 33.3285 23.9589C33.2769 23.9895 33.2201 24.0053 33.158 24.0053Z" fill="black"/>
<path d="M35.3948 20.7874H35.9758V23.0257C35.9749 23.2314 35.9304 23.4073 35.8434 23.5553C35.7555 23.7032 35.6337 23.8161 35.4774 23.8958C35.322 23.9746 35.1398 24.0149 34.9329 24.0149C34.7436 24.0149 34.574 23.9807 34.423 23.9142C34.2719 23.8477 34.152 23.7479 34.0641 23.6166C33.9752 23.4852 33.9316 23.3216 33.9316 23.1255H34.5136C34.5145 23.2113 34.534 23.2857 34.5713 23.3478C34.6086 23.41 34.6601 23.4572 34.7259 23.4905C34.7924 23.5238 34.8689 23.5404 34.955 23.5404C35.0483 23.5404 35.1283 23.5211 35.1931 23.4817C35.2579 23.4432 35.3077 23.3855 35.3424 23.3084C35.3761 23.2323 35.3939 23.1377 35.3948 23.0257V20.7874Z" fill="black"/>
<path d="M38.3659 21.6626C38.3517 21.527 38.2895 21.421 38.1811 21.3458C38.0718 21.2696 37.9306 21.232 37.7573 21.232C37.6357 21.232 37.5309 21.2504 37.4438 21.2862C37.3568 21.323 37.2892 21.372 37.243 21.4342C37.1969 21.4963 37.1738 21.5672 37.1719 21.6469C37.1719 21.7134 37.1879 21.7712 37.219 21.8193C37.2501 21.8684 37.2918 21.9095 37.3461 21.9428C37.3993 21.9769 37.4588 22.0049 37.5238 22.0277C37.5895 22.0504 37.6552 22.0697 37.7209 22.0855L38.0238 22.1599C38.1456 22.1879 38.2638 22.2255 38.3766 22.2737C38.4893 22.3209 38.5915 22.3813 38.6812 22.454C38.771 22.5266 38.842 22.6142 38.8944 22.7166C38.9468 22.819 38.9735 22.9389 38.9735 23.0772C38.9735 23.2637 38.9256 23.4274 38.8287 23.5692C38.7319 23.7101 38.5924 23.8204 38.4094 23.9001C38.2273 23.9789 38.007 24.0191 37.7476 24.0191C37.4971 24.0191 37.2785 23.9806 37.0947 23.9036C36.9099 23.8274 36.7659 23.7154 36.662 23.5683C36.5581 23.4213 36.5021 23.2418 36.4941 23.0309H37.0698C37.0778 23.1411 37.1134 23.2331 37.1738 23.3075C37.235 23.381 37.315 23.4353 37.4127 23.472C37.5113 23.5079 37.6214 23.5263 37.7432 23.5263C37.8702 23.5263 37.9821 23.5071 38.0789 23.4694C38.1749 23.4318 38.2504 23.3793 38.3046 23.311C38.3597 23.2436 38.3872 23.1639 38.3881 23.0729C38.3872 22.9897 38.3623 22.9206 38.3143 22.8663C38.2655 22.812 38.198 22.7665 38.1118 22.7297C38.0248 22.693 37.9235 22.6597 37.808 22.6308L37.4403 22.538C37.1746 22.4706 36.9641 22.3682 36.8103 22.2308C36.6559 22.0933 36.5794 21.9113 36.5794 21.6828C36.5794 21.4955 36.6309 21.3309 36.7349 21.19C36.8379 21.049 36.9792 20.9396 37.1578 20.8617C37.3372 20.7829 37.5398 20.7444 37.7653 20.7444C37.9946 20.7444 38.1953 20.7829 38.3686 20.8617C38.5417 20.9396 38.6777 21.0481 38.7763 21.1864C38.8749 21.3248 38.9264 21.4832 38.9291 21.6626H38.3659Z" fill="black"/>
</svg>
