<svg width="223" height="48" viewBox="0 0 223 48" fill="none" xmlns="http://www.w3.org/2000/svg">
<mask id="mask0_1_4076" style="mask-type:luminance" maskUnits="userSpaceOnUse" x="0" y="0" width="211" height="48">
<path d="M210.486 0H0.294922V48H210.486V0Z" fill="white"/>
</mask>
<g mask="url(#mask0_1_4076)">
<path d="M23.566 23.68L33.4486 13.6533L24.0974 4.16C21.547 1.49333 18.0403 0 14.321 0C10.6018 0 7.09505 1.49333 4.43844 4.16C1.78183 6.82667 0.400391 10.4533 0.400391 14.1867C0.400391 17.92 1.88809 21.5467 4.43844 24.2133L23.566 43.7333C21.0157 41.0667 19.528 37.44 19.528 33.7067C19.528 29.9733 21.0157 26.3467 23.566 23.68Z" fill="#B5D77E"/>
<path d="M40.0371 46.2956C41.206 45.6556 42.3749 44.8022 43.3313 43.8422C42.3749 44.8022 41.3123 45.6556 40.0371 46.2956Z" fill="#B5D77E"/>
<path d="M66.6037 14.1876C66.6037 11.4143 65.7536 8.64096 64.2659 6.29429C62.7782 3.94762 60.5467 2.13429 57.9963 1.06763C55.446 0.000958625 52.6831 -0.319041 49.9202 0.214292C47.2636 0.747625 44.7133 2.13429 42.8005 4.05429L33.4492 13.5476L43.3318 23.5743C45.8822 26.241 47.3699 29.761 47.3699 33.4943C47.3699 37.2276 45.9884 40.7476 43.4381 43.521L62.4594 24.2143C63.7346 22.9343 64.7972 21.3343 65.5411 19.6276C66.285 17.921 66.6037 16.1076 66.6037 14.1876Z" fill="#23A6A6"/>
<path d="M23.6719 43.8398C24.947 45.1198 26.4348 46.1865 28.135 46.9332C29.8352 47.6798 31.6417 47.9998 33.4482 47.9998C34.7234 47.9998 35.9986 47.7865 37.2737 47.4665C34.9359 48.1065 32.3856 48.2132 29.9415 47.5732C27.6037 46.9332 25.3721 45.6532 23.6719 43.8398Z" fill="#23A6A6"/>
<path d="M43.3306 23.681L33.448 13.6543L23.5654 23.681C21.015 26.3476 19.5273 29.8676 19.5273 33.7076C19.5273 37.441 20.9088 41.0676 23.4591 43.7343L23.5654 43.841C25.2656 45.6543 27.4972 46.9343 29.9413 47.5743C32.3853 48.2143 34.8294 48.2143 37.2735 47.4676H37.486C37.8048 47.361 38.0174 47.2543 38.3362 47.1476L38.8675 46.9343C39.08 46.8276 39.1863 46.8276 39.2925 46.721C39.3988 46.6143 39.8239 46.5076 40.1427 46.2943C41.3116 45.6543 42.4805 44.801 43.4369 43.841L43.6494 43.6276C46.1997 40.961 47.5812 37.3343 47.5812 33.601C47.3686 29.9743 45.8809 26.4543 43.3306 23.681Z" fill="#1A9657"/>
<path d="M76.167 15.4668H79.8862C80.5238 15.4668 81.1614 15.5735 81.6927 15.6801C82.2241 15.7868 82.6491 16.0001 83.0742 16.3201C83.4992 16.6401 83.818 17.0668 83.9243 17.4935C84.1368 18.0268 84.2431 18.5601 84.2431 19.0935C84.2431 19.6268 84.1368 20.1601 83.9243 20.6935C83.7118 21.1201 83.393 21.5468 82.9679 21.7601C82.5428 22.0801 82.1178 22.2935 81.5865 22.4001C80.9489 22.5068 80.4176 22.6135 79.78 22.6135H77.4421V28.8001H76.0607L76.167 15.4668ZM77.5484 21.5468H79.8862C80.7364 21.6535 81.5865 21.3335 82.2241 20.9068C82.5428 20.6935 82.7554 20.3735 82.8616 20.0535C82.9679 19.7335 83.0742 19.4135 83.0742 19.0935C83.0742 18.7735 83.0742 18.3468 82.8616 18.0268C82.7554 17.7068 82.4366 17.3868 82.2241 17.2801C81.4802 16.8535 80.7364 16.6401 79.8862 16.7468H77.5484V21.5468Z" fill="#0F3140"/>
<path d="M86.1562 21.0132C86.1562 20.5865 86.1562 20.2665 86.1562 20.0532H87.3252C87.3252 20.2665 87.3252 20.5865 87.4314 20.7998C87.5377 21.1198 87.4314 21.3332 87.4314 21.5465C87.6439 21.0132 88.069 20.5865 88.6003 20.2665C89.1317 19.9465 89.663 19.8398 90.3006 19.8398H90.7256C90.8319 19.8398 90.9381 19.8398 91.1507 19.9465L90.9382 21.1198L90.5131 21.0132H89.9818C89.663 21.0132 89.3442 21.1198 89.0254 21.2265C88.7066 21.3332 88.3878 21.5465 88.1753 21.8665C87.9627 22.1865 87.7502 22.5065 87.644 22.9332C87.4314 23.4665 87.4314 23.8932 87.4314 24.4265V28.7998H86.1562V21.9732C86.1563 21.7598 86.1562 21.4398 86.1562 21.0132Z" fill="#0F3140"/>
<path d="M100.077 24.2139V24.5339C100.077 24.6406 100.077 24.7473 100.077 24.8539H92.8513C92.8513 25.2806 92.9576 25.7073 93.0639 26.1339C93.3827 26.8806 94.0203 27.5206 94.7641 27.8406C95.1892 28.0539 95.6142 28.0539 96.0393 28.0539C96.6769 28.0539 97.2082 27.9473 97.7395 27.6273C98.1646 27.3073 98.4834 26.9873 98.8022 26.5606L99.7585 27.3073C99.3335 27.9473 98.8022 28.3739 98.1646 28.6939C97.527 29.0139 96.7831 29.2273 96.0393 29.1206C95.4017 29.1206 94.7641 29.0139 94.2328 28.8006C93.7015 28.5873 93.1701 28.2673 92.8513 27.8406C92.0012 26.9873 91.5762 25.7073 91.5762 24.5339C91.5762 23.8939 91.6824 23.2539 91.895 22.7206C92.1075 22.1873 92.4263 21.6539 92.8513 21.2273C93.2764 20.8006 93.7015 20.4806 94.2328 20.2673C94.7641 20.0539 95.4017 19.9473 95.933 19.9473C96.5706 19.9473 97.2082 20.0539 97.7395 20.2673C98.2708 20.4806 98.6959 20.8006 99.0147 21.2273C99.3335 21.6539 99.6523 22.0806 99.7585 22.6139C100.077 23.0406 100.077 23.5739 100.077 24.2139ZM98.8022 23.7873C98.8022 23.0406 98.4834 22.2939 98.0583 21.7606C97.7395 21.4406 97.4207 21.2273 97.1019 21.1206C96.7831 21.0139 96.3581 20.9073 95.933 20.9073C95.508 20.9073 95.1892 21.0139 94.7641 21.1206C94.4453 21.2273 94.1265 21.5473 93.8077 21.7606C93.5952 21.9739 93.2764 22.2939 93.1701 22.7206C93.0639 23.0406 92.9576 23.4673 92.8513 23.7873H98.8022Z" fill="#0F3140"/>
<path d="M106.984 22.081C106.771 21.6544 106.453 21.441 106.134 21.2277C105.709 21.0144 105.284 20.9077 104.859 20.9077C104.646 20.9077 104.434 20.9077 104.221 21.0144C104.009 21.0144 103.796 21.121 103.583 21.2277C103.371 21.3344 103.265 21.441 103.158 21.6544C103.052 21.8677 103.052 22.081 103.052 22.2944C103.052 22.5077 103.052 22.721 103.158 22.8277C103.265 23.041 103.371 23.1477 103.583 23.2544C104.115 23.5744 104.646 23.681 105.177 23.7877C106.028 23.8944 106.771 24.2144 107.515 24.7477C107.728 24.961 107.94 25.1744 108.047 25.4944C108.153 25.8144 108.259 26.1344 108.259 26.4544C108.259 26.881 108.153 27.3077 107.94 27.7344C107.728 28.0544 107.515 28.3744 107.196 28.5877C106.878 28.801 106.559 29.0144 106.134 29.0144C105.709 29.121 105.39 29.121 104.965 29.121C104.327 29.121 103.69 29.0144 103.052 28.6944C102.415 28.3744 101.883 27.9477 101.564 27.4144L102.521 26.6677C102.733 27.0944 103.158 27.4144 103.583 27.6277C104.009 27.841 104.434 27.9477 104.965 27.9477C105.177 27.9477 105.496 27.9477 105.709 27.841C105.921 27.841 106.134 27.7344 106.346 27.6277C106.559 27.521 106.665 27.3077 106.771 27.0944C106.878 26.881 106.984 26.6677 106.984 26.3477C106.984 26.1344 106.878 25.921 106.771 25.7077C106.665 25.4944 106.453 25.3877 106.346 25.281C105.709 24.961 105.071 24.7477 104.434 24.641C104.221 24.641 103.902 24.5344 103.583 24.4277C103.265 24.321 103.052 24.2144 102.733 24.001C102.521 23.7877 102.308 23.5744 102.096 23.2544C101.883 22.9344 101.883 22.6144 101.883 22.1877C101.883 21.761 101.99 21.3344 102.096 21.0144C102.308 20.6944 102.521 20.481 102.84 20.2677C103.158 20.0544 103.477 19.841 103.796 19.841C104.221 19.7344 104.54 19.7344 104.965 19.7344C105.603 19.7344 106.134 19.841 106.771 20.161C107.303 20.3744 107.728 20.801 108.047 21.3344L106.984 22.081Z" fill="#0F3140"/>
<path d="M116.44 22.0798C116.228 21.7598 115.909 21.4398 115.484 21.2265C115.059 21.0132 114.634 20.9065 114.209 20.9065C113.784 20.9065 113.252 21.0132 112.827 21.2265C112.402 21.4398 112.084 21.6532 111.765 21.9732C111.446 22.2932 111.233 22.7198 111.127 23.1465C111.021 23.5732 110.915 24.1065 110.915 24.5332C110.915 24.9598 111.021 25.4932 111.127 25.9198C111.233 26.3465 111.552 26.6665 111.765 26.9865C112.084 27.3065 112.402 27.5198 112.827 27.7332C113.252 27.9465 113.678 28.0532 114.209 28.0532C114.74 28.0532 115.165 27.9465 115.59 27.7332C115.909 27.5198 116.228 27.1998 116.547 26.8798L117.503 27.6265C117.078 28.1598 116.653 28.4798 116.015 28.7998C115.484 29.0132 114.846 29.2265 114.209 29.1198C113.571 29.1198 112.934 29.0132 112.296 28.7998C111.765 28.5865 111.233 28.2665 110.808 27.8398C110.383 27.4132 110.065 26.8798 109.852 26.3465C109.427 25.1732 109.427 23.8932 109.852 22.6132C110.065 22.0798 110.383 21.5465 110.808 21.1198C111.233 20.6932 111.765 20.3732 112.296 20.1598C112.934 19.9465 113.571 19.8398 114.209 19.8398C114.846 19.8398 115.378 19.9465 116.015 20.2665C116.547 20.4798 117.078 20.9065 117.503 21.4398L116.44 22.0798Z" fill="#0F3140"/>
<path d="M118.991 21.0136C118.991 20.5869 118.991 20.2669 118.885 20.0536H120.054C120.054 20.2669 120.054 20.5869 120.16 20.8002C120.266 21.1202 120.16 21.3336 120.16 21.5469C120.372 21.0136 120.798 20.5869 121.329 20.2669C121.86 19.9469 122.391 19.7336 123.029 19.8402H123.454C123.56 19.8402 123.773 19.8402 123.879 19.9469L123.667 21.1202L123.348 21.0136H122.817C122.498 21.0136 122.179 21.1202 121.86 21.2269C121.541 21.3336 121.223 21.5469 121.01 21.8669C120.798 22.1869 120.585 22.5069 120.479 22.9336C120.372 23.4669 120.266 23.8936 120.266 24.4269V28.8002H118.991V21.9736C118.991 21.7602 118.991 21.4402 118.991 21.0136Z" fill="#0F3140"/>
<path d="M126.856 16.6409C126.856 16.7476 126.856 16.8542 126.75 16.9609C126.75 17.0676 126.644 17.1742 126.537 17.2809C126.325 17.4942 126.112 17.4942 125.9 17.4942C125.793 17.4942 125.687 17.4942 125.581 17.3876C125.475 17.3876 125.368 17.2809 125.262 17.1742C125.156 17.0676 125.05 16.9609 125.05 16.8542C125.05 16.7476 124.943 16.6409 124.943 16.5342C124.943 16.4276 124.943 16.3209 125.05 16.2142C125.05 16.1076 125.156 16.0009 125.262 15.8942C125.368 15.7876 125.475 15.7876 125.581 15.6809C125.687 15.6809 125.793 15.5742 125.9 15.5742C126.112 15.5742 126.325 15.6809 126.537 15.7876C126.644 15.8942 126.75 16.0009 126.75 16.1076C126.856 16.4276 126.856 16.5342 126.856 16.6409ZM126.644 28.9076H125.368V20.1609H126.644V28.9076Z" fill="#0F3140"/>
<path d="M130.574 33.3865H129.299V20.0532H130.574V21.5465C130.893 21.0132 131.424 20.4798 132.062 20.2665C132.593 19.9465 133.231 19.8398 133.868 19.8398C134.506 19.8398 135.143 19.9465 135.675 20.1598C136.206 20.3732 136.737 20.6932 137.056 21.1198C137.481 21.5465 137.8 22.0798 138.013 22.6132C138.438 23.7865 138.438 25.0665 138.013 26.2398C137.8 26.7732 137.481 27.3065 137.056 27.7332C136.631 28.1598 136.206 28.4798 135.675 28.6932C135.143 28.9065 134.506 29.1198 133.868 29.0132C133.231 29.0132 132.593 28.9065 132.062 28.5865C131.424 28.2665 130.999 27.8398 130.574 27.3065V33.3865ZM137.056 24.4265C137.056 23.9998 136.95 23.4665 136.844 23.0398C136.737 22.6132 136.525 22.1865 136.206 21.8665C135.887 21.5465 135.568 21.3332 135.143 21.1198C134.718 20.9065 134.293 20.7998 133.762 20.7998C133.231 20.7998 132.806 20.9065 132.381 21.1198C131.955 21.3332 131.637 21.5465 131.318 21.8665C130.68 22.6132 130.361 23.4665 130.361 24.4265C130.361 24.9598 130.468 25.3865 130.574 25.8132C130.68 26.2398 130.999 26.6665 131.318 26.9865C131.637 27.3065 131.955 27.5198 132.381 27.7332C132.806 27.9465 133.231 28.0532 133.656 28.0532C134.187 28.0532 134.612 27.9465 135.037 27.7332C135.462 27.5198 135.781 27.3065 136.1 26.9865C136.419 26.6665 136.631 26.2398 136.737 25.8132C137.056 25.3865 137.056 24.9598 137.056 24.4265Z" fill="#0F3140"/>
<path d="M144.495 21.1216H142.051V26.2416C142.051 26.5616 142.051 26.7749 142.157 27.0949C142.157 27.3082 142.264 27.4149 142.37 27.6282C142.476 27.7349 142.583 27.8416 142.795 27.8416C143.008 27.8416 143.114 27.9482 143.326 27.9482C143.539 27.9482 143.751 27.9482 143.858 27.8416C144.07 27.8416 144.177 27.7349 144.389 27.6282L144.495 28.6949C144.283 28.8016 144.07 28.8016 143.751 28.9082C143.539 28.9082 143.22 29.0149 142.901 29.0149C142.689 29.0149 142.37 29.0149 142.157 28.9082C141.945 28.8016 141.626 28.6949 141.414 28.5882C141.201 28.3749 140.989 28.1616 140.882 27.8416C140.776 27.5216 140.67 27.0949 140.67 26.6682V21.1216H138.863V20.0549H140.67V17.6016H141.945V20.0549H144.389V21.1216H144.495Z" fill="#0F3140"/>
<path d="M147.577 16.6424C147.577 16.7491 147.577 16.8557 147.471 16.9624C147.471 17.0691 147.364 17.1757 147.258 17.2824C147.046 17.4957 146.833 17.4957 146.62 17.4957C146.408 17.4957 146.195 17.3891 145.983 17.2824C145.877 17.1757 145.77 17.0691 145.77 16.9624C145.77 16.8557 145.664 16.7491 145.664 16.6424C145.664 16.5357 145.664 16.4291 145.77 16.3224C145.77 16.2157 145.877 16.1091 145.983 16.0024C146.195 15.7891 146.408 15.7891 146.62 15.7891C146.833 15.7891 147.046 15.8957 147.258 16.0024C147.364 16.1091 147.471 16.2157 147.471 16.3224C147.577 16.4291 147.577 16.5357 147.577 16.6424ZM147.364 28.9091H146.089V20.1624H147.364V28.9091Z" fill="#0F3140"/>
<path d="M158.735 24.4277C158.735 25.0677 158.629 25.7077 158.416 26.241C158.204 26.7744 157.885 27.3077 157.46 27.7344C157.035 28.161 156.504 28.481 155.972 28.6944C154.803 29.121 153.422 29.121 152.253 28.6944C151.722 28.481 151.19 28.161 150.765 27.7344C150.34 27.3077 150.022 26.7744 149.809 26.241C149.384 25.0677 149.384 23.7877 149.809 22.5077C150.022 21.9744 150.34 21.441 150.765 21.0144C151.19 20.5877 151.722 20.2677 152.253 20.0544C153.422 19.6277 154.803 19.6277 155.972 20.0544C156.504 20.2677 157.035 20.5877 157.46 21.0144C157.885 21.441 158.204 21.9744 158.416 22.5077C158.629 23.1477 158.735 23.7877 158.735 24.4277ZM157.354 24.4277C157.354 24.001 157.248 23.4677 157.141 23.041C157.035 22.6144 156.822 22.1877 156.504 21.8677C156.185 21.5477 155.866 21.3344 155.441 21.121C155.016 20.9077 154.591 20.801 154.06 20.801C153.635 20.801 153.103 20.9077 152.678 21.121C152.253 21.3344 151.934 21.5477 151.616 21.8677C151.297 22.1877 151.084 22.6144 150.978 23.041C150.872 23.4677 150.765 24.001 150.765 24.4277C150.765 24.8544 150.872 25.3877 150.978 25.8144C151.084 26.241 151.297 26.6677 151.616 26.9877C151.934 27.3077 152.253 27.521 152.678 27.7344C153.103 27.9477 153.528 28.0544 154.06 28.0544C154.485 28.0544 155.016 27.9477 155.441 27.7344C155.866 27.521 156.185 27.3077 156.504 26.9877C156.822 26.6677 157.035 26.241 157.141 25.8144C157.248 25.3877 157.354 24.961 157.354 24.4277Z" fill="#0F3140"/>
<path d="M161.922 20.0532C161.922 20.2665 161.922 20.5865 162.028 20.7998C162.134 21.1198 162.028 21.3332 162.028 21.5465C162.347 21.0132 162.772 20.5865 163.197 20.2665C163.728 19.9465 164.366 19.8398 165.003 19.8398C165.428 19.8398 165.96 19.8398 166.385 20.0532C166.81 20.2665 167.235 20.4798 167.554 20.7998C168.085 21.5465 168.404 22.5065 168.404 23.4665V28.9065H167.022V23.9998C167.022 23.5732 167.022 23.1465 166.916 22.7198C166.81 22.3998 166.704 22.0798 166.491 21.7598C166.279 21.4398 166.066 21.2265 165.747 21.1198C165.428 20.9065 165.003 20.9065 164.578 20.9065C164.259 20.9065 163.941 21.0132 163.622 21.1198C163.303 21.2265 162.984 21.4398 162.772 21.7598C162.453 22.0798 162.347 22.3998 162.134 22.8265C162.028 23.3598 161.922 23.8932 161.922 24.3198V28.7998H160.646V21.8665C160.646 21.6532 160.646 21.3332 160.646 20.9065C160.646 20.4798 160.646 20.1598 160.646 19.9465L161.922 20.0532Z" fill="#0F3140"/>
<path d="M183.176 24.9621C183.176 25.6021 183.07 26.2421 182.751 26.7754C182.432 27.3088 182.113 27.6287 181.582 27.9488C181.051 28.2688 180.519 28.4821 179.988 28.5887C179.35 28.6954 178.713 28.8021 178.182 28.8021H172.975V15.4688H178.182C178.713 15.4688 179.244 15.4688 179.776 15.5754C180.307 15.6821 180.732 15.8954 181.263 16.1088C181.688 16.4288 182.113 16.7488 182.326 17.2821C182.538 17.7088 182.751 18.3488 182.645 18.8821C182.645 19.5221 182.432 20.1621 182.007 20.6954C181.582 21.2287 181.051 21.5487 180.413 21.7621C180.732 21.8687 181.157 21.9754 181.476 22.0821C181.795 22.2954 182.113 22.5087 182.326 22.7221C182.538 23.0421 182.751 23.3621 182.857 23.6821C183.07 24.1088 183.176 24.5354 183.176 24.9621ZM179.563 19.4154C179.563 19.2021 179.563 18.9888 179.457 18.8821C179.35 18.6688 179.244 18.5621 179.032 18.4554C178.607 18.2421 178.075 18.1354 177.544 18.1354H175.95V20.9088H177.65C178.182 20.9088 178.607 20.8021 179.032 20.5887C179.244 20.4821 179.35 20.2687 179.457 20.1621C179.563 20.0554 179.563 19.6288 179.563 19.4154ZM179.988 24.6421C179.988 24.4288 179.988 24.2154 179.882 24.0021C179.776 23.7887 179.563 23.5754 179.35 23.4687C178.819 23.2554 178.288 23.1488 177.757 23.1488H175.95V26.2421H177.757C177.969 26.2421 178.288 26.2421 178.5 26.1354C178.713 26.1354 179.032 26.0287 179.244 25.9221C179.457 25.8154 179.669 25.6021 179.776 25.3887C179.882 25.1754 179.988 24.9621 179.988 24.6421Z" fill="#0F3140"/>
<path d="M184.769 28.9086V14.6152H187.851V28.9086H184.769Z" fill="#0F3140"/>
<path d="M193.163 16.4274C193.163 16.6407 193.163 16.854 193.057 17.0674C192.951 17.2807 192.845 17.494 192.738 17.6007C192.632 17.7074 192.419 17.9207 192.207 17.9207C191.994 18.0274 191.782 18.0274 191.569 18.0274C191.357 18.0274 191.144 18.0274 190.932 17.9207C190.719 17.814 190.507 17.7074 190.4 17.494C190.294 17.3874 190.082 17.174 189.975 16.9607C189.869 16.7474 189.869 16.534 189.869 16.3207C189.869 16.1074 189.869 15.894 189.975 15.6807C190.082 15.4674 190.188 15.254 190.294 15.1474C190.507 15.0407 190.613 14.8274 190.826 14.8274C191.038 14.7207 191.251 14.7207 191.463 14.7207C191.676 14.7207 191.888 14.7207 192.101 14.8274C192.313 14.934 192.526 15.0407 192.632 15.1474C192.738 15.254 192.951 15.4674 192.951 15.6807C193.057 16.0007 193.163 16.214 193.163 16.4274ZM189.869 28.9074V19.5207H192.951V28.9074H189.869Z" fill="#0F3140"/>
<path d="M200.39 22.2945C200.178 22.0812 199.859 21.8678 199.54 21.6545C199.221 21.4412 198.796 21.4412 198.477 21.4412C198.159 21.4412 197.946 21.5478 197.734 21.6545C197.627 21.6545 197.521 21.7612 197.415 21.8678C197.309 21.9745 197.309 22.0812 197.309 22.1878C197.309 22.2945 197.309 22.4012 197.415 22.5078C197.521 22.6145 197.627 22.7212 197.734 22.7212C198.159 22.8278 198.584 23.0412 199.009 23.1478C199.328 23.2545 199.753 23.3612 200.071 23.4678C200.39 23.5745 200.709 23.7878 201.028 24.0012C201.347 24.2145 201.559 24.5345 201.665 24.8545C201.878 25.1745 201.984 25.6012 201.878 26.0278C201.878 26.5612 201.772 27.0945 201.559 27.5212C201.347 27.9478 201.028 28.2678 200.603 28.4812C200.178 28.6945 199.753 28.9078 199.328 29.0145C198.902 29.1212 198.371 29.2278 197.946 29.2278C197.202 29.2278 196.458 29.1212 195.715 28.9078C195.077 28.6945 194.439 28.2678 193.908 27.8412L195.608 26.0278C195.927 26.3478 196.246 26.5612 196.565 26.7745C196.99 26.9878 197.415 27.0945 197.84 27.0945C198.052 27.0945 198.371 26.9878 198.584 26.8812C198.69 26.7745 198.796 26.7745 198.902 26.6678C199.009 26.5612 199.009 26.4545 199.009 26.2412C199.009 26.1345 199.009 25.9212 198.902 25.8145C198.796 25.7078 198.69 25.6012 198.584 25.6012C198.159 25.3878 197.627 25.2812 197.202 25.1745C196.883 25.0678 196.565 24.9612 196.246 24.8545C195.927 24.7478 195.608 24.5345 195.396 24.3212C195.183 24.1078 194.971 23.7878 194.758 23.5745C194.546 23.2545 194.546 22.8278 194.546 22.4012C194.546 21.9745 194.652 21.4412 194.864 21.0145C195.077 20.5878 195.396 20.2678 195.821 19.9478C196.246 19.7345 196.565 19.5212 197.096 19.4145C197.521 19.3078 197.946 19.2012 198.477 19.2012C199.115 19.2012 199.859 19.3078 200.496 19.5212C201.134 19.7345 201.665 20.0545 202.197 20.4812L200.39 22.2945Z" fill="#0F3140"/>
<path d="M208.892 22.2945C208.68 22.0812 208.361 21.8678 208.042 21.6545C207.723 21.4412 207.405 21.4412 206.98 21.4412C206.661 21.4412 206.448 21.5478 206.236 21.6545C206.129 21.6545 206.023 21.7612 205.917 21.8678C205.811 21.9745 205.811 22.0812 205.811 22.1878C205.811 22.2945 205.811 22.4012 205.917 22.5078C206.023 22.6145 206.129 22.7212 206.236 22.7212C206.661 22.8278 207.086 23.0412 207.511 23.1478C207.83 23.2545 208.255 23.3612 208.573 23.4678C208.892 23.5745 209.211 23.7878 209.53 24.0012C209.849 24.2145 210.061 24.5345 210.167 24.8545C210.38 25.1745 210.486 25.6012 210.38 26.0278C210.38 26.5612 210.274 27.0945 210.061 27.5212C209.849 27.9478 209.53 28.2678 209.105 28.4812C208.68 28.6945 208.255 28.9078 207.83 29.0145C207.405 29.1212 206.873 29.2278 206.448 29.2278C205.704 29.2278 204.961 29.1212 204.217 28.9078C203.579 28.6945 202.941 28.2678 202.41 27.8412L204.11 26.0278C204.429 26.3478 204.748 26.5612 205.067 26.7745C205.492 26.9878 205.917 27.0945 206.342 27.0945C206.554 27.0945 206.873 26.9878 207.086 26.8812C207.192 26.7745 207.298 26.7745 207.405 26.6678C207.511 26.5612 207.511 26.4545 207.511 26.2412C207.511 26.1345 207.511 25.9212 207.405 25.8145C207.298 25.7078 207.192 25.6012 207.086 25.6012C206.661 25.3878 206.129 25.2812 205.704 25.1745C205.386 25.0678 205.067 24.9612 204.748 24.8545C204.429 24.7478 204.11 24.5345 203.898 24.3212C203.685 24.1078 203.473 23.7878 203.26 23.5745C203.048 23.2545 203.048 22.8278 203.048 22.4012C203.048 21.8678 203.154 21.4412 203.367 20.9078C203.579 20.4812 203.898 20.1612 204.217 19.9478C204.642 19.7345 204.96 19.5212 205.492 19.4145C205.917 19.3078 206.342 19.2012 206.873 19.2012C207.511 19.2012 208.255 19.3078 208.892 19.5212C209.53 19.7345 210.061 20.0545 210.593 20.4812L208.892 22.2945Z" fill="#0F3140"/>
</g>
<path d="M217.393 7.89258C214.418 7.89258 212.08 10.2392 212.08 13.2259C212.08 16.2126 214.418 18.5592 217.393 18.5592C220.369 18.5592 222.707 16.2126 222.707 13.2259C222.707 10.2392 220.369 7.89258 217.393 7.89258ZM217.393 17.8126C214.843 17.8126 212.824 15.7859 212.824 13.2259C212.824 10.6659 214.843 8.63925 217.393 8.63925C219.944 8.63925 221.963 10.6659 221.963 13.2259C221.963 15.7859 219.944 17.8126 217.393 17.8126ZM219.2 12.2659C219.2 11.5192 218.562 10.8792 217.818 10.8792H215.906C215.693 10.8792 215.587 11.0926 215.587 11.1992V15.1459C215.587 15.3592 215.799 15.4659 215.906 15.4659C216.012 15.4659 216.224 15.2526 216.224 15.1459V13.5459H217.606L218.456 15.3592C218.562 15.4659 218.668 15.5726 218.775 15.5726C218.881 15.5726 218.881 15.5726 218.987 15.5726C219.2 15.4659 219.2 15.2526 219.2 15.0392L218.456 13.4392C218.881 13.2259 219.2 12.7992 219.2 12.2659ZM217.925 12.9059H216.331V11.6259H217.925C218.243 11.6259 218.562 11.9459 218.562 12.2659C218.456 12.5859 218.243 12.9059 217.925 12.9059Z" fill="#0F3140"/>
</svg>
