<svg width="40" height="22" viewBox="0 0 40 22" fill="none" xmlns="http://www.w3.org/2000/svg">
<path d="M0 10.9998C0 16.8102 8.95448 21.5205 20 21.5205C31.0454 21.5205 40 16.8102 40 10.9998C40 5.18945 31.0454 0.479025 20 0.479025C8.95448 0.479025 0 5.18945 0 10.9998Z" fill="url(#paint0_radial_703_17860)"/>
<path d="M20 20.7393C30.614 20.7393 39.2187 16.3787 39.2187 10.9996C39.2187 5.62065 30.614 1.25998 20 1.25998C9.38591 1.25998 0.78125 5.62065 0.78125 10.9996C0.78125 16.3787 9.38591 20.7393 20 20.7393Z" fill="#777BB3"/>
<path d="M10.8667 12.207C11.7394 12.207 12.391 12.0461 12.8032 11.7288C13.2111 11.4148 13.4928 10.8707 13.6404 10.1118C13.7781 9.40248 13.7256 8.90719 13.4846 8.6399C13.2381 8.3669 12.7053 8.22844 11.9009 8.22844H10.5062L9.73293 12.207H10.8667ZM6.30484 17.1079C6.2401 17.1079 6.17862 17.079 6.13746 17.0289C6.09622 16.9789 6.07951 16.9131 6.09188 16.8495L8.14107 6.30621C8.16089 6.20428 8.25023 6.13064 8.3541 6.13064H12.7706C14.1586 6.13064 15.1918 6.50752 15.8411 7.25094C16.494 7.99826 16.6956 9.04289 16.4403 10.3558C16.3364 10.8906 16.1578 11.3874 15.9093 11.8321C15.6605 12.2773 15.3317 12.6893 14.9319 13.0568C14.4533 13.5047 13.9117 13.8295 13.3234 14.0206C12.7445 14.2092 12.001 14.3048 11.1136 14.3048H9.32531L8.81461 16.9323C8.79479 17.0343 8.70552 17.1079 8.60164 17.1079H6.30484Z" fill="black"/>
<path d="M10.6853 8.44573H11.9011C12.872 8.44573 13.2092 8.65876 13.3238 8.78571C13.5139 8.99651 13.5498 9.44095 13.4276 10.0709C13.2903 10.7762 13.0358 11.2763 12.6711 11.5571C12.2977 11.8446 11.6906 11.9903 10.8669 11.9903H9.9964L10.6853 8.44573ZM12.7708 5.9139H8.35426C8.14651 5.9139 7.9679 6.06118 7.92826 6.2651L5.87908 16.8084C5.85434 16.9357 5.88776 17.0672 5.97015 17.1673C6.05262 17.2673 6.17545 17.3252 6.30507 17.3252H8.6018C8.80963 17.3252 8.98823 17.1779 9.02787 16.974L9.50443 14.5221H11.1139C12.024 14.5221 12.7902 14.4229 13.391 14.2272C14.0088 14.0264 14.5773 13.6861 15.0804 13.2156C15.4965 12.8328 15.8392 12.4031 16.0989 11.9383C16.3587 11.4734 16.5453 10.955 16.6536 10.3974C16.9223 9.01546 16.704 7.90884 16.0048 7.10849C15.3124 6.31581 14.2243 5.9139 12.7708 5.9139ZM9.46985 12.4243H10.8669C11.7929 12.4243 12.4827 12.2499 12.9358 11.901C13.3891 11.5521 13.6948 10.9697 13.8537 10.1536C14.0057 9.36999 13.9364 8.81704 13.646 8.49492C13.3552 8.1728 12.7737 8.0117 11.9011 8.0117H10.3275L9.46985 12.4243ZM12.7708 6.34793C14.0995 6.34793 15.0687 6.6966 15.678 7.39401C16.2871 8.09142 16.4706 9.06487 16.2275 10.3146C16.1275 10.8295 15.9583 11.3002 15.7201 11.7266C15.4816 12.1533 15.1701 12.5435 14.7853 12.8973C14.3267 13.3265 13.8172 13.6323 13.2566 13.8145C12.696 13.9971 11.9819 14.0881 11.1139 14.0881H9.14658L8.6018 16.8912H6.30507L8.35426 6.34793H12.7708Z" fill="white"/>
<path d="M21.7065 14.3052C21.6417 14.3052 21.5803 14.2762 21.5391 14.2262C21.4978 14.1762 21.4811 14.1104 21.4935 14.0468L22.4 9.38179C22.4862 8.93814 22.4649 8.61971 22.3401 8.48516C22.2637 8.40292 22.0343 8.26497 21.3558 8.26497H19.7136L18.5739 14.1295C18.5541 14.2315 18.4648 14.3052 18.3609 14.3052H16.0823C16.0174 14.3052 15.956 14.2762 15.9148 14.2262C15.8736 14.1762 15.8569 14.1104 15.8692 14.0468L17.9184 3.50347C17.9382 3.40155 18.0276 3.32791 18.1314 3.32791H20.4101C20.4749 3.32791 20.5363 3.35685 20.5776 3.40683C20.6188 3.45689 20.6355 3.52264 20.6231 3.5863L20.1286 6.131H21.8953C23.2411 6.131 24.1537 6.36827 24.6853 6.8564C25.2271 7.35438 25.3961 8.1506 25.1878 9.22323L24.2344 14.1295C24.2146 14.2315 24.1253 14.3052 24.0213 14.3052H21.7065Z" fill="black"/>
<path d="M20.4103 3.11068H18.1317C17.9238 3.11068 17.7452 3.25796 17.7056 3.46188L15.6564 14.0052C15.6317 14.1324 15.6651 14.264 15.7476 14.3641C15.83 14.4641 15.9529 14.522 16.0825 14.522H18.3611C18.5689 14.522 18.7476 14.3747 18.7872 14.1708L19.8927 8.48176H21.3561C22.0334 8.48176 22.1755 8.62644 22.1812 8.63266C22.2223 8.67686 22.2763 8.88158 22.1872 9.3402L21.2807 14.0052C21.2559 14.1324 21.2894 14.264 21.3718 14.3641C21.4543 14.4641 21.5771 14.522 21.7068 14.522H24.0216C24.2293 14.522 24.408 14.3747 24.4476 14.1708L25.401 9.26446C25.6247 8.11277 25.4333 7.24884 24.8323 6.69647C24.2588 6.16978 23.2982 5.91377 21.8955 5.91377H20.392L20.8364 3.62753C20.8611 3.50029 20.8277 3.36864 20.7452 3.26867C20.6628 3.16862 20.5399 3.11068 20.4103 3.11068ZM20.4103 3.54471L19.8655 6.3478H21.8955C23.1728 6.3478 24.0538 6.57074 24.5386 7.01605C25.0235 7.46166 25.1688 8.18366 24.975 9.1817L24.0216 14.0879H21.7068L22.6132 9.42302C22.7164 8.89235 22.6785 8.53038 22.4994 8.33738C22.3202 8.14438 21.939 8.04774 21.3561 8.04774H19.5349L18.3611 14.0879H16.0825L18.1317 3.54471H20.4103Z" fill="white"/>
<path d="M28.7925 12.207C29.6652 12.207 30.3168 12.0461 30.729 11.7288C31.1369 11.4149 31.4185 10.8708 31.5663 10.1118C31.7039 9.40248 31.6515 8.90719 31.4104 8.6399C31.1639 8.3669 30.6311 8.22844 29.8267 8.22844H28.4319L27.6587 12.207H28.7925ZM24.2307 17.1079C24.1659 17.1079 24.1045 17.079 24.0633 17.0289C24.0221 16.9789 24.0053 16.9131 24.0177 16.8495L26.0668 6.30621C26.0867 6.20428 26.176 6.13064 26.2799 6.13064H30.6964C32.0845 6.13064 33.1175 6.50752 33.767 7.25094C34.4198 7.99819 34.6214 9.04282 34.3662 10.3558C34.2621 10.8906 34.0835 11.3874 33.8351 11.8321C33.5863 12.2773 33.2575 12.6893 32.8577 13.0568C32.3791 13.5047 31.8374 13.8295 31.2492 14.0206C30.6703 14.2092 29.9268 14.3048 29.0394 14.3048H27.251L26.7405 16.9323C26.7206 17.0343 26.6314 17.1079 26.5274 17.1079H24.2307Z" fill="black"/>
<path d="M28.611 8.44573H29.8268C30.7977 8.44573 31.1349 8.65876 31.2495 8.78571C31.4397 8.99651 31.4756 9.44095 31.3533 10.0709C31.216 10.7762 30.9615 11.2763 30.5968 11.5571C30.2234 11.8446 29.6163 11.9903 28.7926 11.9903H27.9222L28.611 8.44573ZM30.6966 5.9139H26.28C26.0723 5.9139 25.8937 6.06118 25.854 6.2651L23.8049 16.8084C23.7801 16.9357 23.8135 17.0672 23.8959 17.1673C23.9784 17.2673 24.1012 17.3252 24.2309 17.3252H26.5276C26.7353 17.3252 26.914 17.1779 26.9537 16.974L27.4301 14.5221H29.0396C29.9497 14.5221 30.7159 14.4229 31.3167 14.2272C31.9345 14.0264 32.5031 13.686 33.0062 13.2155C33.4223 12.8327 33.7649 12.4031 34.0246 11.9383C34.2844 11.4734 34.471 10.955 34.5793 10.3974C34.848 9.01539 34.6297 7.90876 33.9305 7.10842C33.2381 6.31581 32.15 5.9139 30.6966 5.9139ZM27.3956 12.4243H28.7926C29.7186 12.4243 30.4084 12.2499 30.8616 11.901C31.3149 11.5521 31.6205 10.9697 31.7794 10.1536C31.9314 9.36999 31.8622 8.81704 31.5717 8.49492C31.2809 8.1728 30.6994 8.0117 29.8268 8.0117H28.2532L27.3956 12.4243ZM30.6966 6.34793C32.0252 6.34793 32.9944 6.6966 33.6037 7.39401C34.2129 8.09142 34.3963 9.06487 34.1532 10.3146C34.0532 10.8295 33.884 11.3002 33.6458 11.7266C33.4073 12.1533 33.0959 12.5435 32.711 12.8973C32.2524 13.3265 31.7429 13.6323 31.1823 13.8145C30.6217 13.9971 29.9076 14.0881 29.0396 14.0881H27.0723L26.5276 16.8912H24.2309L26.28 6.34793H30.6966Z" fill="white"/>
<defs>
<radialGradient id="paint0_radial_703_17860" cx="0" cy="0" r="1" gradientUnits="userSpaceOnUse" gradientTransform="translate(12.0081 4.17779) scale(26.2628)">
<stop stop-color="#AEB2D5"/>
<stop offset="0.3" stop-color="#AEB2D5"/>
<stop offset="0.75" stop-color="#484C89"/>
<stop offset="1" stop-color="#484C89"/>
</radialGradient>
</defs>
</svg>
