<svg width="40" height="40" viewBox="0 0 40 40" fill="none" xmlns="http://www.w3.org/2000/svg">
<g clip-path="url(#clip0_708_19195)">
<path d="M39.8364 22.5395C41.2362 11.5815 33.4976 1.56332 22.5595 0.163575C11.6215 -1.23617 1.56332 6.50243 0.163575 17.4405C-1.23617 28.3785 6.50243 38.4167 17.4405 39.8364C28.3985 41.2362 38.4167 33.4976 39.8364 22.5395Z" fill="#FF6C37"/>
<path d="M27.2184 12.8414L18.78 21.2799L16.4004 18.9004C24.6989 10.6019 25.5187 11.3217 27.2184 12.8414Z" fill="white"/>
<path d="M18.7792 21.4801C18.7192 21.4801 18.6792 21.4601 18.6392 21.4201L16.2397 19.0406C16.1597 18.9606 16.1597 18.8406 16.2397 18.7606C24.6782 10.3221 25.558 11.122 27.3377 12.7217C27.3777 12.7617 27.3977 12.8017 27.3977 12.8617C27.3977 12.9217 27.3777 12.9617 27.3377 13.0017L18.8992 21.4201C18.8792 21.4601 18.8192 21.4801 18.7792 21.4801ZM16.6796 18.9006L18.7792 21.0002L26.9178 12.8617C25.438 11.5419 24.4382 11.142 16.6796 18.9006Z" fill="#FF6C37"/>
<path d="M21.198 23.6995L18.8984 21.3999L27.3369 12.9614C29.5965 15.241 26.2171 18.9403 21.198 23.6995Z" fill="white"/>
<path d="M21.1983 23.8992C21.1383 23.8992 21.0983 23.8792 21.0583 23.8392L18.7587 21.5396C18.7188 21.4997 18.7188 21.4597 18.7188 21.3997C18.7188 21.3397 18.7387 21.2997 18.7787 21.2597L27.2172 12.8212C27.2972 12.7412 27.4172 12.7412 27.4972 12.8212C28.0171 13.3011 28.297 13.981 28.277 14.6809C28.237 16.9005 25.7175 19.72 21.3583 23.8392C21.2983 23.8792 21.2383 23.8992 21.1983 23.8992ZM19.1787 21.3997C20.4584 22.6994 20.9983 23.2193 21.1983 23.4193C24.5577 20.2199 27.8171 16.9405 27.8371 14.6809C27.8571 14.161 27.6571 13.6411 27.3172 13.2411L19.1787 21.3997Z" fill="#FF6C37"/>
<path d="M16.4401 18.9603L18.1398 20.66C18.1798 20.7 18.1798 20.74 18.1398 20.7799C18.1198 20.7999 18.1198 20.7999 18.0998 20.7999L14.5804 21.5598C14.4005 21.5798 14.2405 21.4598 14.2005 21.2799C14.1805 21.1799 14.2205 21.0799 14.2805 21.0199L16.3201 18.9803C16.3601 18.9403 16.4201 18.9203 16.4401 18.9603Z" fill="white"/>
<path d="M14.5199 21.76C14.22 21.76 14 21.5201 14 21.2201C14 21.0802 14.06 20.9402 14.16 20.8402L16.1996 18.8006C16.3196 18.7006 16.4796 18.7006 16.5995 18.8006L18.2992 20.5003C18.4192 20.6002 18.4192 20.7802 18.2992 20.9002C18.2592 20.9402 18.2192 20.9602 18.1593 20.9802L14.6399 21.74C14.5999 21.74 14.5599 21.76 14.5199 21.76ZM16.3796 19.1805L14.4199 21.1402C14.3799 21.1801 14.3599 21.2401 14.3999 21.3001C14.4199 21.3601 14.4799 21.3801 14.5399 21.3601L17.8393 20.6402L16.3796 19.1805Z" fill="#FF6C37"/>
<path d="M31.6775 8.16234C30.3978 6.92256 28.3381 6.96255 27.0984 8.26232C25.8586 9.56209 25.8986 11.6017 27.1984 12.8415C28.2582 13.8613 29.8579 14.0413 31.1176 13.2814L28.8381 11.0018L31.6775 8.16234Z" fill="white"/>
<path d="M29.4374 13.9413C27.5378 13.9413 25.998 12.4015 25.998 10.5019C25.998 8.60222 27.5378 7.0625 29.4374 7.0625C30.3173 7.0625 31.1771 7.40244 31.817 8.02233C31.857 8.06232 31.877 8.10231 31.877 8.1623C31.877 8.22229 31.857 8.26228 31.817 8.30228L29.1175 11.0018L31.2371 13.1214C31.3171 13.2014 31.3171 13.3214 31.2371 13.4014C31.2171 13.4214 31.2171 13.4214 31.1971 13.4414C30.6772 13.7613 30.0573 13.9413 29.4374 13.9413ZM29.4374 7.48242C27.7577 7.48242 26.398 8.84218 26.418 10.5219C26.418 12.2016 27.7777 13.5613 29.4574 13.5413C29.9173 13.5413 30.3773 13.4414 30.7972 13.2214L28.6976 11.1418C28.6576 11.1018 28.6376 11.0618 28.6376 11.0018C28.6376 10.9418 28.6576 10.9018 28.6976 10.8618L31.3771 8.1823C30.8372 7.72238 30.1573 7.48242 29.4374 7.48242Z" fill="#FF6C37"/>
<path d="M31.7374 8.22212L31.6974 8.18213L28.8379 11.0016L31.0975 13.2612C31.3174 13.1212 31.5374 12.9613 31.7174 12.7813C32.9971 11.5215 32.9971 9.48189 31.7374 8.22212Z" fill="white"/>
<path d="M31.1163 13.4814C31.0563 13.4814 31.0163 13.4614 30.9763 13.4214L28.6967 11.1418C28.6567 11.1018 28.6367 11.0618 28.6367 11.0019C28.6367 10.9419 28.6567 10.9019 28.6967 10.8619L31.5362 8.02239C31.6162 7.94241 31.7362 7.94241 31.8161 8.02239L31.8761 8.06238C33.2159 9.40214 33.2159 11.5618 31.8961 12.9215C31.6962 13.1215 31.4762 13.3014 31.2362 13.4414C31.1763 13.4614 31.1363 13.4814 31.1163 13.4814ZM29.1166 11.0019L31.1363 13.0215C31.2962 12.9215 31.4562 12.7815 31.5762 12.6616C32.716 11.5218 32.776 9.6621 31.6762 8.46231L29.1166 11.0019Z" fill="#FF6C37"/>
<path d="M27.5576 13.2012C27.0777 12.7213 26.2979 12.7213 25.8179 13.2012L18.2793 20.7399L19.5391 21.9997L27.5176 15.0009C28.0375 14.561 28.0775 13.7811 27.6376 13.2612C27.5976 13.2412 27.5776 13.2212 27.5576 13.2012Z" fill="white"/>
<path d="M19.5183 22.1999C19.4583 22.1999 19.4183 22.1799 19.3784 22.1399L18.1186 20.8801C18.0386 20.8001 18.0386 20.6802 18.1186 20.6002L25.6572 13.0615C26.2171 12.5016 27.117 12.5016 27.6769 13.0615C28.2368 13.6214 28.2368 14.5213 27.6769 15.0812C27.6569 15.1012 27.6369 15.1212 27.6169 15.1412L19.6383 22.1399C19.6183 22.1799 19.5783 22.1999 19.5183 22.1999ZM18.5585 20.7401L19.5383 21.72L27.3769 14.8412C27.8168 14.4813 27.8568 13.8214 27.4969 13.3815C27.137 12.9415 26.4771 12.9016 26.0372 13.2615C26.0172 13.2815 25.9972 13.3015 25.9572 13.3215L18.5585 20.7401Z" fill="#FF6C37"/>
<path d="M12.5013 29.3187C12.4213 29.3586 12.3813 29.4386 12.4013 29.5186L12.7413 30.9584C12.8213 31.1583 12.7013 31.3983 12.4813 31.4583C12.3214 31.5183 12.1414 31.4583 12.0414 31.3383L9.8418 29.1587L17.0205 21.98L19.5001 22.02L21.1798 23.6997C20.7798 24.0396 18.3603 26.3792 12.5013 29.3187Z" fill="white"/>
<path d="M12.3412 31.658C12.1812 31.658 12.0212 31.598 11.9212 31.478L9.74163 29.2984C9.70164 29.2584 9.68164 29.2184 9.68164 29.1585C9.68164 29.0985 9.70164 29.0585 9.74163 29.0185L16.9203 21.8398C16.9603 21.7998 17.0203 21.7798 17.0603 21.7798L19.5399 21.8198C19.5999 21.8198 19.6398 21.8398 19.6798 21.8798L21.3595 23.5595C21.3995 23.5995 21.4195 23.6594 21.4195 23.7194C21.4195 23.7794 21.3995 23.8194 21.3395 23.8594L21.1996 23.9794C19.0799 25.8391 16.2005 27.6987 12.6211 29.4784L12.961 30.8981C13.021 31.1581 12.9011 31.438 12.6611 31.578C12.5411 31.638 12.4411 31.658 12.3412 31.658ZM10.1416 29.1585L12.2012 31.1981C12.2612 31.2981 12.3812 31.3381 12.4811 31.2781C12.5811 31.2181 12.6211 31.0981 12.5611 30.9981L12.2212 29.5584C12.1812 29.3784 12.2612 29.2184 12.4211 29.1385C15.9605 27.3588 18.82 25.5191 20.9196 23.6994L19.4399 22.2197L17.1403 22.1797L10.1416 29.1585Z" fill="#FF6C37"/>
<path d="M8.14075 30.8784L9.86044 29.1587L12.42 31.7182L8.34072 31.4383C8.16075 31.4183 8.04077 31.2583 8.06077 31.0783C8.06077 30.9984 8.08076 30.9184 8.14075 30.8784Z" fill="white"/>
<path d="M12.4204 31.8979L8.32113 31.618C8.02119 31.598 7.82122 31.338 7.84122 31.0381C7.86122 30.9181 7.90121 30.7981 8.00119 30.7182L9.72088 28.9985C9.80087 28.9185 9.92084 28.9185 10.0008 28.9985L12.5604 31.558C12.6204 31.618 12.6404 31.698 12.6004 31.778C12.5604 31.8579 12.5004 31.8979 12.4204 31.8979ZM9.86085 29.4384L8.28114 31.0181C8.22115 31.0581 8.22115 31.1581 8.28114 31.1981C8.30114 31.2181 8.32113 31.2381 8.36112 31.2381L11.9005 31.478L9.86085 29.4384Z" fill="#FF6C37"/>
<path d="M16.3191 22.8996C16.1991 22.8996 16.1191 22.7997 16.1191 22.6997C16.1191 22.6397 16.1391 22.5997 16.1791 22.5597L18.1188 20.62C18.1988 20.5401 18.3187 20.5401 18.3987 20.62L19.6585 21.8798C19.7185 21.9398 19.7385 21.9998 19.7185 22.0798C19.6985 22.1398 19.6385 22.1998 19.5585 22.2198L16.3591 22.8996C16.3391 22.8996 16.3191 22.8996 16.3191 22.8996ZM18.2588 21.04L16.939 22.3597L19.0986 21.8998L18.2588 21.04Z" fill="#FF6C37"/>
<path d="M19.4984 22.0196L17.2988 22.4995C17.1388 22.5395 16.9788 22.4395 16.9389 22.2795C16.9189 22.1795 16.9389 22.0796 17.0188 21.9996L18.2386 20.7798L19.4984 22.0196Z" fill="white"/>
<path d="M17.2597 22.6997C16.9797 22.6997 16.7598 22.4797 16.7598 22.1998C16.7598 22.0598 16.8198 21.9398 16.8997 21.8398L18.1195 20.62C18.1995 20.5401 18.3195 20.5401 18.3995 20.62L19.6592 21.8798C19.7192 21.9398 19.7392 21.9998 19.7192 22.0798C19.6992 22.1398 19.6392 22.1998 19.5593 22.2198L17.3597 22.6997C17.3197 22.6997 17.2797 22.6997 17.2597 22.6997ZM18.2595 21.04L17.1797 22.1198C17.1397 22.1598 17.1397 22.1998 17.1597 22.2398C17.1797 22.2797 17.2197 22.2997 17.2797 22.2997L19.1193 21.8998L18.2595 21.04Z" fill="#FF6C37"/>
<path d="M31.7579 10.1421C31.7179 10.0221 31.5779 9.96209 31.4579 10.0021C31.3379 10.0421 31.2779 10.1821 31.3179 10.302C31.3179 10.322 31.3379 10.342 31.3379 10.362C31.4579 10.602 31.4179 10.9019 31.2579 11.1219C31.178 11.2219 31.198 11.3618 31.2779 11.4418C31.3779 11.5218 31.5179 11.5018 31.5979 11.4018C31.8978 11.0219 31.9578 10.542 31.7579 10.1421Z" fill="#FF6C37"/>
</g>
<defs>
<clipPath id="clip0_708_19195">
<rect width="40" height="40" fill="white"/>
</clipPath>
</defs>
</svg>
