<svg width="41" height="40" viewBox="0 0 41 40" fill="none" xmlns="http://www.w3.org/2000/svg">
<g clip-path="url(#clip0_697_16184)">
<path d="M7.26042 0.00390625H33.7396C37.7542 0.00390625 41 3.2511 41 7.26737V32.7322C41 36.7485 37.7542 39.9957 33.7396 39.9957H7.26042C3.24583 39.9957 0 36.7485 0 32.7322V7.26737C0 3.2511 3.24583 0.00390625 7.26042 0.00390625Z" fill="#00005B"/>
<path d="M9.73828 28.0324V10.4292C9.73828 10.3096 9.78953 10.2412 9.90911 10.2412C10.1995 10.2412 10.4729 10.2412 10.8658 10.2241C11.2758 10.207 11.7029 10.207 12.1641 10.1899C12.6254 10.1729 13.1208 10.1729 13.6504 10.1558C14.1799 10.1387 14.6924 10.1387 15.2049 10.1387C16.6058 10.1387 17.7674 10.3096 18.7241 10.6685C19.5783 10.959 20.3641 11.4376 21.0133 12.0699C21.5599 12.6168 21.987 13.2833 22.2604 14.0182C22.5166 14.736 22.6533 15.4709 22.6533 16.24C22.6533 17.7098 22.3116 18.9232 21.6283 19.8803C20.9449 20.8373 19.9883 21.5551 18.8779 21.9653C17.7162 22.3926 16.4349 22.5464 15.0341 22.5464C14.6241 22.5464 14.3508 22.5464 14.1799 22.5293C14.0091 22.5122 13.7699 22.5122 13.4454 22.5122V27.9983C13.4624 28.1179 13.377 28.2204 13.2574 28.2375H9.94328C9.80661 28.2375 9.73828 28.1692 9.73828 28.0153V28.0324ZM13.4624 13.5568V19.2992C13.7016 19.3163 13.9237 19.3334 14.1287 19.3334H15.0341C15.7004 19.3334 16.3666 19.2308 16.9987 19.0257C17.5454 18.8719 18.0237 18.5472 18.3995 18.1199C18.7583 17.6927 18.9291 17.1116 18.9291 16.3596C18.9462 15.8298 18.8095 15.3 18.5362 14.8386C18.2458 14.3942 17.8358 14.0524 17.3404 13.8644C16.7083 13.608 16.0249 13.5055 15.3245 13.5226C14.8804 13.5226 14.4874 13.5226 14.1629 13.5397C13.8212 13.5226 13.582 13.5397 13.4624 13.5568ZM25.1133 14.5651H28.1029C28.2737 14.5651 28.4104 14.6847 28.4616 14.8386C28.5129 14.9753 28.547 15.112 28.5641 15.2658C28.5983 15.4367 28.6324 15.6247 28.6495 15.7956C28.6666 15.9836 28.6837 16.1887 28.6837 16.4109C29.1962 15.8127 29.8112 15.3171 30.5116 14.9411C31.2974 14.4968 32.2029 14.2746 33.1083 14.2746C33.2279 14.2575 33.3304 14.3429 33.3474 14.4626V17.8636C33.3474 18.0003 33.262 18.0516 33.0741 18.0516C32.4591 18.0345 31.827 18.0858 31.2291 18.2225C30.7337 18.325 30.2554 18.4788 29.7941 18.6839C29.4695 18.8377 29.162 19.0428 28.9229 19.3163V28.0324C28.9229 28.2033 28.8545 28.2717 28.7008 28.2717H25.3354C25.1987 28.2888 25.0791 28.2033 25.062 28.0666V18.5301C25.062 18.1199 25.062 17.6927 25.0449 17.2483C25.0279 16.804 25.0279 16.3596 25.0108 15.9153C25.0108 15.5222 24.9766 15.1462 24.9424 14.7531C24.9254 14.6677 24.9766 14.5822 25.062 14.5651C25.062 14.548 25.0962 14.548 25.1133 14.5651Z" fill="#9999FF"/>
</g>
<defs>
<clipPath id="clip0_697_16184">
<rect width="41" height="40" fill="white"/>
</clipPath>
</defs>
</svg>
