<svg width="40" height="40" viewBox="0 0 40 40" fill="none" xmlns="http://www.w3.org/2000/svg">
<path d="M28.9551 24.7932L30.0514 22.0264H33.2169L31.7143 17.8293L33.5933 13.0876L38.9745 27.3471H35.0061L34.0865 24.7932H28.9551Z" fill="black" fill-opacity="0.91"/>
<path d="M25.5694 26.5671L31.3301 12.3076L27.5111 12.3079L23.5703 21.5227L20.7678 12.3079H17.8324L14.8237 21.5227L12.7016 17.3235L10.7812 23.2278L12.7311 26.5671H16.4896L19.2087 18.3034L21.8009 26.5671H25.5694Z" fill="black" fill-opacity="0.91"/>
<path d="M4.65062 21.6725H7.00304C7.71567 21.6725 8.3501 21.5933 8.90664 21.4345L9.5149 19.5641L11.2152 14.336C11.0859 14.1313 10.938 13.9373 10.7716 13.7548C9.8986 12.7903 8.62122 12.3083 6.93975 12.3083H1.02539V26.5678H4.65062V21.6725ZM7.76436 15.5887C8.10546 15.9312 8.27586 16.3898 8.27586 16.9637C8.27586 17.5425 8.12584 18.0014 7.82613 18.3406C7.49719 18.7175 6.89198 18.906 6.01016 18.906H4.65062V15.0752H6.0202C6.84207 15.0752 7.42356 15.2461 7.76436 15.5887Z" fill="black" fill-opacity="0.91"/>
</svg>
