<svg width="40" height="40" viewBox="0 0 40 40" fill="none" xmlns="http://www.w3.org/2000/svg">
<path d="M19.5654 2.00029C18.0993 2.00712 16.6993 2.13234 15.4674 2.35064C11.8384 2.99273 11.1795 4.33666 11.1795 6.81509V10.0884H19.7553V11.1794H11.1795H7.96107C5.46871 11.1794 3.28633 12.6797 2.60371 15.5338C1.81632 18.8052 1.78139 20.8466 2.60371 24.2625C3.21331 26.8051 4.66911 28.6168 7.16147 28.6168H10.11V24.6929C10.11 21.8581 12.5591 19.3576 15.4674 19.3576H24.0331C26.4176 19.3576 28.321 17.3914 28.321 14.9932V6.81509C28.321 4.48755 26.3604 2.7391 24.0331 2.35064C22.56 2.10505 21.0314 1.99347 19.5654 2.00029ZM14.9276 4.63292C15.8135 4.63292 16.5368 5.36922 16.5368 6.27456C16.5368 7.17668 15.8135 7.90618 14.9276 7.90618C14.0386 7.90618 13.3184 7.17668 13.3184 6.27456C13.3184 5.36922 14.0386 4.63292 14.9276 4.63292Z" fill="url(#paint0_linear_697_15364)"/>
<path d="M29.3907 11.179V14.9928C29.3907 17.9495 26.8877 20.4382 24.0334 20.4382H15.4676C13.1213 20.4382 11.1797 22.4493 11.1797 24.8025V32.9807C11.1797 35.3082 13.2006 36.6773 15.4676 37.345C18.1822 38.1444 20.7853 38.2889 24.0334 37.345C26.1923 36.719 28.3212 35.4591 28.3212 32.9807V29.7074H19.7555V28.6163H28.3212H32.6091C35.1015 28.6163 36.0302 26.8753 36.897 24.262C37.7924 21.5717 37.7543 18.9845 36.897 15.5333C36.2811 13.0484 35.1047 11.179 32.6091 11.179H29.3907ZM24.5731 31.8896C25.4621 31.8896 26.1823 32.6191 26.1823 33.5212C26.1823 34.4266 25.4621 35.1629 24.5731 35.1629C23.6873 35.1629 22.9639 34.4266 22.9639 33.5212C22.9639 32.6191 23.6873 31.8896 24.5731 31.8896Z" fill="url(#paint1_linear_697_15364)"/>
<defs>
<linearGradient id="paint0_linear_697_15364" x1="2" y1="2" x2="21.7996" y2="18.8469" gradientUnits="userSpaceOnUse">
<stop stop-color="#5A9FD4"/>
<stop offset="1" stop-color="#306998"/>
</linearGradient>
<linearGradient id="paint1_linear_697_15364" x1="24.367" y1="33.246" x2="17.2585" y2="23.2998" gradientUnits="userSpaceOnUse">
<stop stop-color="#FFD43B"/>
<stop offset="1" stop-color="#FFE873"/>
</linearGradient>
</defs>
</svg>
