<svg width="40" height="40" viewBox="0 0 40 40" fill="none" xmlns="http://www.w3.org/2000/svg">
<path d="M20.0172 22.9974C21.6728 22.9974 23.015 21.6553 23.015 19.9997C23.015 18.3441 21.6728 17.002 20.0172 17.002C18.3617 17.002 17.0195 18.3441 17.0195 19.9997C17.0195 21.6553 18.3617 22.9974 20.0172 22.9974Z" fill="#61DAFB"/>
<path fill-rule="evenodd" clip-rule="evenodd" d="M5.68436 18.1524C4.96079 18.8055 4.66152 19.4312 4.66152 20.0002C4.66152 20.5693 4.96079 21.1949 5.68436 21.8481C6.40785 22.5012 7.49581 23.1229 8.90244 23.66C11.7107 24.7322 15.6396 25.4107 20.0156 25.4107C24.3917 25.4107 28.3206 24.7322 31.1289 23.66C32.5355 23.1229 33.6234 22.5012 34.3469 21.8481C35.0705 21.1949 35.3698 20.5693 35.3698 20.0002C35.3698 19.4312 35.0705 18.8055 34.3469 18.1524C33.6234 17.4992 32.5355 16.8776 31.1289 16.3405C28.3206 15.2683 24.3917 14.5897 20.0156 14.5897C15.6396 14.5897 11.7107 15.2683 8.90244 16.3405C7.49581 16.8776 6.40785 17.4992 5.68436 18.1524ZM8.38084 14.9744C11.3943 13.8238 15.5081 13.1274 20.0156 13.1274C24.5232 13.1274 28.637 13.8238 31.6505 14.9744C33.1547 15.5487 34.4224 16.2505 35.3268 17.0669C36.2311 17.8833 36.8321 18.8733 36.8321 20.0002C36.8321 21.1272 36.2311 22.1172 35.3268 22.9336C34.4224 23.75 33.1547 24.4518 31.6505 25.0261C28.637 26.1767 24.5232 26.873 20.0156 26.873C15.5081 26.873 11.3943 26.1767 8.38084 25.0261C6.8766 24.4518 5.60893 23.75 4.7045 22.9336C3.80015 22.1172 3.19922 21.1272 3.19922 20.0002C3.19922 18.8733 3.80015 17.8833 4.7045 17.0669C5.60893 16.2505 6.8766 15.5487 8.38084 14.9744Z" fill="#61DAFB"/>
<path fill-rule="evenodd" clip-rule="evenodd" d="M14.4514 6.66465C13.524 6.36461 12.8325 6.41828 12.3397 6.70279C11.8469 6.9873 11.4547 7.55931 11.2508 8.51254C11.0469 9.46565 11.0525 10.7187 11.2907 12.2054C11.7662 15.1735 13.1431 18.9153 15.3311 22.7051C17.5191 26.4949 20.0712 29.5582 22.4039 31.4541C23.5723 32.4037 24.6547 33.0351 25.5821 33.3351C26.5095 33.6351 27.201 33.5814 27.6938 33.2969C28.1866 33.0124 28.5788 32.4404 28.7827 31.4872C28.9866 30.5341 28.981 29.281 28.7428 27.7943C28.2673 24.8262 26.8904 21.0844 24.7024 17.2946C22.5143 13.5048 19.9623 10.4415 17.6296 8.54566C16.4611 7.59602 15.3788 6.96466 14.4514 6.66465ZM18.5519 7.41088C21.0551 9.44535 23.715 12.6598 25.9688 16.5635C28.2226 20.4671 29.6764 24.3779 30.1867 27.563C30.4414 29.1529 30.4675 30.6016 30.2127 31.793C29.9578 32.9844 29.4009 33.9998 28.425 34.5633C27.449 35.1268 26.2911 35.1014 25.132 34.7264C23.9727 34.3513 22.7311 33.6044 21.4816 32.5888C18.9784 30.5544 16.3185 27.3399 14.0647 23.4363C11.8109 19.5326 10.3571 15.6218 9.84681 12.4367C9.59209 10.8469 9.56598 9.39816 9.82083 8.20668C10.0757 7.01531 10.6326 5.99987 11.6085 5.4364C12.5845 4.87293 13.7423 4.89835 14.9015 5.27335C16.0608 5.64838 17.3023 6.39535 18.5519 7.41088Z" fill="#61DAFB"/>
<path fill-rule="evenodd" clip-rule="evenodd" d="M28.7827 8.51278C28.5788 7.55956 28.1866 6.98755 27.6938 6.70303C27.201 6.41852 26.5095 6.36486 25.582 6.6649C24.6547 6.9649 23.5723 7.59627 22.4039 8.5459C20.0712 10.4418 17.5191 13.5051 15.3311 17.2949C13.143 21.0846 11.7662 24.8264 11.2907 27.7945C11.0525 29.2813 11.0469 30.5343 11.2508 31.4874C11.4546 32.4406 11.8469 33.0127 12.3397 33.2972C12.8324 33.5817 13.5239 33.6353 14.4514 33.3353C15.3787 33.0353 16.4611 32.4039 17.6295 31.4543C19.9622 29.5584 22.5143 26.4951 24.7024 22.7054C26.8904 18.9156 28.2672 15.1738 28.7428 12.2057C28.981 10.7189 28.9865 9.4659 28.7827 8.51278ZM30.1866 12.437C29.6763 15.6221 28.2225 19.5328 25.9687 23.4365C23.7149 27.3402 21.055 30.5546 18.5518 32.5891C17.3023 33.6046 16.0608 34.3516 14.9015 34.7266C13.7423 35.1016 12.5845 35.127 11.6085 34.5636C10.6325 34.0001 10.0756 32.9847 9.8208 31.7933C9.56595 30.6018 9.59207 29.1531 9.84679 27.5632C10.3571 24.3781 11.8109 20.4674 14.0647 16.5637C16.3185 12.66 18.9784 9.44559 21.4816 7.41113C22.7311 6.39559 23.9727 5.64863 25.1319 5.27359C26.2911 4.89859 27.449 4.87317 28.4249 5.43665C29.4009 6.00012 29.9578 7.01555 30.2126 8.20693C30.4675 9.3984 30.4414 10.8471 30.1866 12.437Z" fill="#61DAFB"/>
</svg>
