<svg width="144" height="35" viewBox="0 0 144 35" fill="none" xmlns="http://www.w3.org/2000/svg">
<path d="M15.2 16.9718L9.51371 15.1316C4.73395 13.5776 4.19829 11.1648 4.19829 9.48816C4.19829 5.84858 7.32986 3.31314 11.8212 3.31314C15.7356 3.31314 18.7848 5.35785 19.5677 8.46581L19.6501 8.83385L21.7103 6.78915L21.6691 6.66646C20.227 3.10867 16.4361 0.900391 11.8212 0.900391C6.71178 0.900391 1.47877 3.88566 1.47877 9.56995C1.43757 13.3322 3.86865 16.0312 8.68962 17.5852L14.3759 19.4254C16.1889 19.998 20.3094 21.7564 20.3094 25.8458C20.3094 29.6899 16.807 32.348 11.78 32.348C6.91781 32.348 3.70383 29.7308 2.71492 27.0726L2.5913 26.7864L0.572266 28.7902L0.654675 28.9129C2.71492 32.5525 6.91781 34.7607 11.8212 34.7607C18.414 34.7607 22.9877 31.0394 22.9877 25.764C23.0289 21.143 18.826 18.1577 15.2 16.9718Z" fill="#1D3049"/>
<path d="M49.2765 1.1875V19.8352L47.0515 17.2998H31.2288V1.1875H28.2208V34.4753H31.2288V19.9988H49.2765V34.4753H52.3257V1.1875H49.2765Z" fill="#1D3049"/>
<path d="M62.7501 1.1875H59.7422V34.4344H62.7501V1.1875Z" fill="#1D3049"/>
<path d="M70.127 1.1875V34.4753H91.059L89.2872 31.7763H73.1349V19.549H87.2682V16.8091H73.1349V3.92741H89.2872L91.0178 1.1875H70.127Z" fill="#1D3049"/>
<path d="M94.6426 1.1875V34.4753H113.803L112.031 31.7763H97.6505V1.1875H94.6426Z" fill="#1D3049"/>
<path d="M139.104 6.09296C136.013 2.90322 131.481 1.22656 126.001 1.22656H116.523V34.4735H126.001C131.481 34.4735 136.013 32.7968 139.104 29.6071C141.947 26.6627 143.43 22.6142 143.43 17.8705C143.43 13.1268 141.947 9.03734 139.104 6.09296ZM119.531 3.92558H126.001C136.59 3.92558 140.34 11.1229 140.34 17.8296C140.34 24.5362 136.59 31.7336 126.001 31.7336H119.531V3.92558Z" fill="#1D3049"/>
</svg>
