<svg width="78" height="79" viewBox="0 0 78 79" fill="none" xmlns="http://www.w3.org/2000/svg">
<path fill-rule="evenodd" clip-rule="evenodd" d="M38.9998 17.5C29.2197 17.5 23.107 22.3889 20.662 32.1667C24.3296 27.2777 28.6084 25.4445 33.4985 26.6667C36.2885 27.3633 38.2826 29.3882 40.49 31.6275C44.0855 35.2766 48.2475 39.5 57.3377 39.5C67.1178 39.5 73.2301 34.6111 75.6752 24.8333C72.0079 29.7222 67.729 31.5555 62.839 30.3333C60.0489 29.6367 58.0549 27.6118 55.8475 25.3725C52.252 21.7235 48.09 17.5 38.9998 17.5ZM20.662 39.5C10.8819 39.5 4.76926 44.3889 2.32422 54.1666C5.99178 49.2777 10.2706 47.4444 15.1607 48.6667C17.9507 49.3646 19.9448 51.3881 22.1521 53.6275C25.7477 57.2766 29.9097 61.5 38.9998 61.5C48.78 61.5 54.8925 56.6111 57.3377 46.8333C53.6701 51.7222 49.3912 53.5555 44.5012 52.3333C41.7111 51.6366 39.717 49.6118 37.5097 47.3724C33.9141 43.7234 29.7521 39.5 20.662 39.5Z" fill="#38BDF8"/>
</svg>
