<svg width="38" height="40" viewBox="0 0 38 40" fill="none" xmlns="http://www.w3.org/2000/svg">
<g clip-path="url(#clip0_708_19129)">
<path d="M24.7701 19.9564L31.5848 7.90162L34.8778 19.9564L31.5847 32.0082L24.7701 19.9564ZM21.4486 21.914L28.2643 33.9668L16.3943 30.8517L7.81909 21.914H21.4486ZM28.2628 5.94245L21.4486 17.9972H7.81909L16.3943 9.05897L28.2628 5.94245ZM37.9912 15.8539L33.8338 0.00927734L18.3161 4.25562L16.0191 8.39279L11.358 8.35857L0 19.9574L11.358 31.5536H11.3584L16.0176 31.5183L18.3179 35.6555L33.8338 39.9011L37.9911 24.0595L35.63 19.9565L37.9911 15.8542L37.9912 15.8539Z" fill="#222C37"/>
</g>
<defs>
<clipPath id="clip0_708_19129">
<rect width="38" height="40" fill="white"/>
</clipPath>
</defs>
</svg>
