<svg width="40" height="40" viewBox="0 0 40 40" fill="none" xmlns="http://www.w3.org/2000/svg">
<path d="M36.0187 21.9563C36.0187 21.9563 35.9059 21.9563 35.7926 22.0697C35.6786 22.0697 35.6786 22.0697 35.5649 22.0697H35.4509C35.4509 22.1829 35.3368 22.1829 35.2235 22.1829C35.1099 22.1829 34.9967 22.1829 34.8833 22.1829C34.8833 22.1829 34.7697 22.1829 34.6556 22.1829C34.542 22.1829 34.542 22.1829 34.4279 22.1829H34.3147C34.3147 22.0697 34.2007 22.0697 34.0878 22.0697C34.0878 22.0697 33.9746 22.0697 33.9746 21.9563H33.8605C33.8605 21.9563 33.7469 21.9563 33.7469 21.841H33.63C33.63 21.841 33.5159 21.841 33.5159 21.7278H33.4023C31.9235 20.6997 31.9235 18.4155 33.4023 17.3874C33.5159 17.3874 33.5159 17.3874 33.5159 17.3874L33.63 17.2737H33.7437C33.7437 17.2737 33.7437 17.2737 33.8578 17.1595C33.8578 17.1595 33.8578 17.1595 33.9711 17.1595L34.0852 17.0454C34.1979 17.0454 34.1979 17.0454 34.1979 17.0454H34.3116C34.4253 17.0454 34.4253 17.0454 34.4253 17.0454C34.5389 17.0454 34.5389 16.9308 34.653 16.9308C34.7666 16.9308 34.8803 16.9308 34.8803 16.9308C34.9939 16.9308 35.1068 16.9308 35.2205 16.9308V17.0454C35.3346 17.0454 35.4482 17.0454 35.4482 17.0454H35.5618C35.5618 17.0454 35.6759 17.0454 35.7895 17.0454V17.1595C35.9032 17.1595 35.9032 17.1595 36.016 17.2737C38.0666 18.1872 38.0666 21.042 36.0187 21.9563ZM26.577 31.4343V20.9286H30.1037C30.4439 22.2987 31.4673 23.5551 32.8336 24.1259C31.6961 27.3225 29.535 29.949 26.577 31.4343ZM21.572 33.0331V9.84918C23.0504 9.39274 24.1881 8.36464 24.7568 6.99417C28.5101 8.36464 31.3538 11.3338 32.8334 14.9884C31.4683 15.6735 30.4437 16.8161 30.1035 18.1866H25.2118C24.5291 18.1866 23.8467 18.7572 23.8467 19.557V32.5752C23.1641 32.8043 22.3681 33.0331 21.572 33.0331ZM16.3385 32.5754V19.5577C16.3385 18.7582 15.6562 18.1872 14.9734 18.1872H9.85434C9.5134 16.8171 8.60332 15.7878 7.35182 15.1035C8.71684 11.3349 11.6745 8.36531 15.4284 6.99474C16.1112 8.47975 17.3622 9.50746 18.841 9.85023V33.1478C18.0449 33.0331 17.1349 32.9185 16.3385 32.5754ZM7.35182 24.0103C8.60323 23.4398 9.5133 22.2987 9.85434 20.9286H13.6084V31.4343C10.6507 29.8357 8.37552 27.2085 7.35182 24.0103ZM2.4605 19.5577C2.4605 18.4155 3.14249 17.5017 4.16656 17.1595C4.16656 17.0454 4.28027 17.0454 4.39427 17.0454H4.50836C4.6216 17.0454 4.6216 16.9308 4.6216 16.9308C4.73521 16.9308 4.73521 16.9308 4.73521 16.9308C4.8493 16.9308 4.96254 16.9308 5.07663 16.9308C5.07663 16.9308 5.19025 16.9308 5.30434 16.9308C5.30434 16.9308 5.30434 16.9308 5.41834 16.9308C5.41834 16.9308 5.41834 17.0454 5.53158 17.0454H5.64529H5.75928H5.87252C5.87252 17.1595 5.98661 17.1595 5.98661 17.1595H6.10023L6.21432 17.2737H6.32794C6.32794 17.2737 6.32794 17.3874 6.44165 17.3874C6.44165 17.3874 6.44165 17.3874 6.55527 17.3874V17.5018C6.66936 17.5018 6.66936 17.5018 6.66936 17.6163C7.92038 18.6441 7.92038 20.5859 6.66936 21.6128C6.55527 21.7278 6.55527 21.7278 6.55527 21.7278C6.44165 21.7278 6.44165 21.7278 6.44165 21.841H6.32794C6.32794 21.841 6.21432 21.841 6.21432 21.9563H6.10033H5.98671C5.98671 22.0697 5.87262 22.0697 5.87262 22.0697H5.75938C5.75938 22.0697 5.64538 22.0697 5.64538 22.1829H5.53167C5.41843 22.1829 5.41843 22.1829 5.41843 22.1829C5.30444 22.1829 5.30444 22.1829 5.30444 22.1829C5.19035 22.1829 5.07673 22.1829 5.07673 22.1829C4.96264 22.1829 4.8494 22.1829 4.73531 22.1829H4.62169C4.62169 22.1829 4.62169 22.1829 4.50845 22.1829L4.39436 22.0697H4.28036H4.16665C3.14249 21.6128 2.4605 20.6987 2.4605 19.5577ZM20.0924 2.42706C21.003 2.42706 21.9129 2.88379 22.3681 3.683C22.823 4.48296 22.823 5.51029 22.3681 6.31026C21.3443 8.13708 18.841 8.13708 17.8172 6.31026C16.7939 4.59589 18.0449 2.42706 20.0924 2.42706ZM40 19.5577C40 16.9308 37.953 14.7609 35.45 14.5326C33.7436 9.73578 29.99 5.96712 25.0978 4.36842C24.3018 -1.45614 15.8838 -1.45614 15.0875 4.36842C10.196 5.85344 6.44184 9.73588 4.73521 14.5326C-1.52123 14.8753 -1.63532 24.2396 4.73521 24.5828C6.10033 28.922 9.39931 32.5755 13.6083 34.4027V38.6287C13.6083 40.4571 16.3384 40.4571 16.3384 38.6287V35.3175C17.1349 35.546 18.0449 35.6595 18.8409 35.6595V38.6287C18.8409 40.4571 21.572 40.4571 21.572 38.6287V35.6595C22.368 35.6595 23.164 35.5461 23.8468 35.3175V38.6287C23.8468 40.4571 26.5769 40.4571 26.5769 38.6287V34.4027C30.7859 32.5754 34.0849 28.9212 35.45 24.5828C37.953 24.3535 40 22.183 40 19.5577Z" fill="#00A2C5"/>
</svg>
