<svg width="40" height="40" viewBox="0 0 40 40" fill="none" xmlns="http://www.w3.org/2000/svg">
<path d="M4.55859 19.999C4.55859 26.1109 8.11041 31.3928 13.2608 33.8958L5.89541 13.7148C5.03867 15.6352 4.55859 17.7604 4.55859 19.999Z" fill="#21759B"/>
<path d="M30.4223 19.22C30.4223 17.3116 29.7368 15.9901 29.1489 14.9614C28.3662 13.6895 27.6326 12.6124 27.6326 11.3404C27.6326 9.92101 28.7091 8.59973 30.2254 8.59973C30.2939 8.59973 30.3588 8.60825 30.4255 8.61207C27.6784 6.09525 24.0185 4.55859 19.9987 4.55859C14.6044 4.55859 9.85855 7.32633 7.09766 11.5185C7.45992 11.5294 7.80132 11.537 8.09131 11.537C9.70636 11.537 12.2063 11.341 12.2063 11.341C13.0387 11.292 13.1368 12.5145 12.3054 12.6129C12.3054 12.6129 11.4689 12.7114 10.5381 12.7602L16.161 29.4856L19.54 19.351L17.1343 12.7596C16.3029 12.7108 15.5152 12.6124 15.5152 12.6124C14.6831 12.5636 14.7807 11.2914 15.6127 11.3404C15.6127 11.3404 18.1627 11.5364 19.6799 11.5364C21.2946 11.5364 23.7949 11.3404 23.7949 11.3404C24.6279 11.2914 24.7257 12.5139 23.8939 12.6124C23.8939 12.6124 23.0557 12.7108 22.1267 12.7596L27.7066 29.3584L29.2468 24.2116C29.9143 22.0759 30.4223 20.5418 30.4223 19.22Z" fill="#21759B"/>
<path d="M20.2694 21.3496L15.6367 34.8119C17.02 35.2186 18.4828 35.441 19.9986 35.441C21.7966 35.441 23.521 35.1301 25.126 34.5657C25.0846 34.4996 25.047 34.4294 25.0162 34.353L20.2694 21.3496Z" fill="#21759B"/>
<path d="M33.5482 12.5908C33.6146 13.0827 33.6522 13.6107 33.6522 14.1786C33.6522 15.7455 33.3596 17.5069 32.4782 19.7094L27.7617 33.3462C32.3521 30.6693 35.4397 25.6959 35.4397 19.9994C35.44 17.3148 34.7543 14.7903 33.5482 12.5908Z" fill="#21759B"/>
<path d="M19.9991 2C10.0747 2 2 10.0743 2 19.9991C2 29.9251 10.0747 37.9991 19.9991 37.9991C29.9233 37.9991 37.9991 29.9251 37.9991 19.9991C37.9988 10.0743 29.9233 2 19.9991 2ZM19.9991 37.1741C10.5298 37.1741 2.8253 29.4694 2.8253 19.9991C2.8253 10.5295 10.5295 2.82533 19.9991 2.82533C29.4682 2.82533 37.1721 10.5295 37.1721 19.9991C37.1721 29.4694 29.4682 37.1741 19.9991 37.1741Z" fill="#21759B"/>
</svg>
