<svg width="219" height="50" viewBox="0 0 219 50" fill="none" xmlns="http://www.w3.org/2000/svg">
<g clip-path="url(#clip0_5571_79577)">
<path d="M219 0H0V50H219V0Z" fill="#BC1E27"/>
<path d="M41.7143 18.9366L40.5217 13.9678L37.3416 18.9366H41.7143ZM42.5093 22.5142H34.9565L33.9627 24.1042H28L38.1366 9.39648H45.6894L48.8696 24.1042H42.7081L42.3105 22.5142H42.5093Z" fill="white"/>
<path d="M99.3544 18.9366L98.1619 13.9678L94.9817 18.9366H99.3544ZM100.149 22.5142H92.5967L91.6029 24.1042H85.6401L95.7768 9.39648H103.33L106.51 24.1042H100.348L99.9507 22.5142H100.149Z" fill="white"/>
<path d="M58.2115 13.1738L56.8202 20.7264H60.0004C61.3917 20.7264 62.3854 20.7264 62.9817 20.3289C63.578 20.1301 64.1743 19.7326 64.5718 19.3351C65.5656 18.1426 66.1618 15.7576 65.1681 14.3663C64.1743 12.9751 62.783 13.1738 61.1929 13.1738H58.2115ZM53.0438 9.39751H62.3854C64.1743 9.39751 67.5531 9.39751 68.7457 9.99376C69.5407 10.1925 70.5345 10.7888 71.1308 11.385C71.9258 12.18 71.9258 13.3726 71.9258 14.5651C71.9258 15.7576 71.9258 16.9501 71.5283 17.9439C71.5283 18.5401 71.1308 19.1364 70.7333 19.7326C69.7395 21.1239 68.5469 22.3164 66.7581 23.1114C66.1618 23.3102 65.3668 23.5089 64.7705 23.7077C63.3792 23.9064 60.5966 23.7077 59.6028 23.7077H50.2612L53.0438 9V9.39751Z" fill="white"/>
<path d="M178.261 13.1738L176.87 20.7264H180.05C181.441 20.7264 182.435 20.7264 183.031 20.3289C183.627 20.1301 184.224 19.7326 184.621 19.3351C185.615 18.1426 186.211 15.7576 185.217 14.3663C184.224 12.9751 182.832 13.1738 181.242 13.1738H178.261ZM173.093 9.39751H182.435C184.224 9.39751 187.602 9.39751 188.795 9.99376C189.59 10.1925 190.584 10.7888 191.18 11.385C191.975 12.18 191.975 13.3726 191.975 14.5651C191.975 15.7576 191.975 16.9501 191.578 17.9439C191.578 18.5401 191.18 19.1364 190.783 19.7326C189.789 21.1239 188.596 22.3164 186.807 23.1114C186.211 23.3102 185.416 23.5089 184.82 23.7077C183.429 23.9064 180.646 23.7077 179.652 23.7077H170.311L173.093 9V9.39751Z" fill="white"/>
<path d="M72.125 9.39648H79.0815L80.6716 18.9366L86.4355 9.39648H93.1933L83.0567 24.1042H75.9014L72.125 9.39648Z" fill="white"/>
<path d="M111.081 9.39648H118.038L122.808 17.9428L124.597 9.39648H130.559L127.379 24.1042H120.423L115.454 15.9553L113.665 24.1042H107.901L111.081 9.39648Z" fill="white"/>
<path d="M144.273 18.5401H151.429C151.429 18.5401 151.031 19.5339 150.832 19.5339C150.435 20.1301 150.037 20.7264 149.64 21.1239C147.056 23.9064 143.081 24.7015 139.304 24.7015C135.528 24.7015 130.559 24.5027 129.764 20.5277C129.565 19.3351 129.764 17.9439 129.764 16.9501C130.162 14.3663 131.752 12.18 134.137 10.7888C136.522 9.59626 139.106 9 141.69 9C144.273 9 147.454 9.00001 149.64 10.59C150.435 11.1863 150.832 11.9813 151.23 12.7763L151.826 15.1613H144.472C144.472 13.9688 143.28 12.9751 142.882 12.7763C142.485 12.7763 141.888 12.5776 141.093 12.5776C138.311 12.5776 136.522 14.3663 136.124 16.9501C135.727 19.3351 136.323 21.3227 139.304 21.3227C141.491 21.3227 142.882 20.3289 143.876 18.5401" fill="white"/>
<path d="M154.808 9.39648H171.702L170.907 13.1728H159.976L159.379 15.5578H169.715L169.119 18.5391H158.783L158.386 20.7254H169.119L168.522 24.1042H151.628L154.808 9.39648Z" fill="white"/>
<path d="M69.3419 30.666C68.9444 30.8647 68.3481 31.0635 67.5531 31.0635H66.3605V28.6785H67.7518C68.5468 28.6785 69.1431 28.6785 69.5406 29.076C69.9381 29.2747 69.9382 29.6722 69.9382 29.871C69.9382 30.0697 69.9382 30.4672 69.3419 30.666ZM73.1183 27.2872C72.3232 26.6909 71.1307 26.4922 69.3419 26.4922H61.5903V37.0261H66.1618V33.051H68.7456C70.5344 33.051 71.9257 32.6535 72.9195 32.0573C73.9133 31.461 74.3108 30.666 74.3108 29.4735C74.3108 28.281 73.9133 27.6847 73.1183 27.0884" fill="white"/>
<path d="M87.6269 29.8681C87.0306 29.4706 86.0368 29.0731 85.0431 29.0731C84.0493 29.0731 83.6518 29.0731 83.0555 29.2718C82.4592 29.2718 81.8629 29.6693 81.4654 30.0668V26.0918H77.2915V36.6257H81.4654V33.0481C81.4654 32.4519 81.4654 31.8556 81.8629 31.6569C82.2604 31.4581 82.658 31.2594 83.0555 31.2594C83.453 31.2594 83.8505 31.2594 84.0493 31.6569C84.248 31.6569 84.4468 32.2531 84.4468 32.6506V36.8244H88.6207V32.0544C88.6207 31.0606 88.2232 30.2656 87.6269 29.8681Z" fill="white"/>
<path d="M99.1553 33.8408C99.1553 34.2383 99.1553 34.4371 98.9566 34.6359C98.9566 34.8346 98.5591 35.0334 98.1615 35.2321C97.764 35.2321 97.3665 35.4309 96.969 35.4309C96.5715 35.4309 96.174 35.4309 95.9752 35.2321C95.7765 35.2321 95.5777 34.8346 95.5777 34.6359C95.5777 34.4371 95.5777 34.2383 95.9752 34.0396C96.174 34.0396 96.7702 33.6421 97.5653 33.6421C98.1615 33.6421 98.7578 33.4433 99.3541 33.2446V33.6421L99.1553 33.8408ZM103.13 35.4309V32.0521C103.13 31.6546 103.13 31.2571 102.733 30.8596C102.534 30.462 102.335 30.0645 101.938 29.8658C101.342 29.4683 100.745 29.2695 100.149 29.2695C99.3541 29.2695 98.3603 29.2695 97.1678 29.2695C95.9752 29.2695 95.5777 29.2695 94.9814 29.2695C94.3851 29.2695 93.7889 29.2695 93.3914 29.667C92.7951 29.8658 92.3976 30.0645 92.1988 30.4621C92.0001 30.6608 91.8013 31.0583 91.6025 31.6546H95.5777C95.5777 31.6546 95.9752 31.4558 96.174 31.2571C96.5715 31.2571 96.969 31.0583 97.764 31.0583C98.5591 31.0583 98.7578 31.0583 98.9566 31.2571C99.1553 31.2571 99.3541 31.6546 99.3541 32.0521C98.7578 32.0521 98.3603 32.2508 97.9628 32.4496C97.5653 32.4496 96.5715 32.6483 94.9814 32.8471C93.5901 32.8471 92.7951 33.2446 92.3976 33.6421C92 34.0396 91.6025 34.4371 91.6025 35.0334C91.6025 35.6296 92.0001 36.2259 92.5963 36.6234C93.1926 37.0209 94.1864 37.2196 95.5777 37.2196C96.969 37.2196 97.3665 37.2196 98.1615 36.8221C98.7578 36.8221 99.1553 36.4246 99.7516 36.0271C99.7516 36.2259 99.7516 36.4246 99.7516 36.4246C99.7516 36.4246 99.7516 36.6234 100.149 36.8221H104.124C103.926 36.4246 103.727 36.2259 103.727 36.0271C103.727 35.8284 103.727 35.6296 103.727 35.2321" fill="white"/>
<path d="M144.472 29.8688C143.876 29.4713 142.882 29.0738 141.689 29.0738C140.497 29.0738 140.298 29.0738 139.702 29.2725C139.106 29.2725 138.509 29.8688 137.913 30.2663C137.516 29.8688 137.118 29.4713 136.721 29.2725C136.124 29.0738 135.528 28.875 134.733 28.875C133.938 28.875 133.342 28.875 132.745 29.0738C132.149 29.0738 131.553 29.67 131.155 30.0675V28.875H127.379V36.4276H131.553V32.4526C131.553 31.8563 131.553 31.4588 131.95 31.26C132.348 31.0613 132.745 30.8625 133.143 30.8625C133.54 30.8625 133.739 30.8625 133.938 30.8625C134.137 30.8625 134.335 31.0613 134.335 31.26C134.335 31.26 134.335 31.6575 134.335 31.8563V36.0301H138.509V32.055C138.509 31.4588 138.509 31.0613 138.907 30.8625C139.106 30.6638 139.503 30.465 140.099 30.465C140.696 30.465 140.894 30.465 141.093 30.8625C141.093 30.8625 141.292 31.26 141.292 31.6575V36.0301H145.466V31.26C145.466 30.2663 145.068 29.4713 144.472 29.0738" fill="white"/>
<path d="M156.198 33.8408C156.198 34.2383 156.198 34.4371 155.999 34.6359C155.999 34.8346 155.602 35.0334 155.204 35.2321C154.806 35.2321 154.409 35.4309 154.011 35.4309C153.614 35.4309 153.216 35.4309 153.018 35.2321C152.819 35.2321 152.62 34.8346 152.62 34.6359C152.62 34.4371 152.62 34.2383 153.018 34.0396C153.216 34.0396 153.813 33.6421 154.608 33.6421C155.204 33.6421 155.8 33.4433 156.397 33.2446V33.6421L156.198 33.8408ZM160.173 35.4309V32.0521C160.173 31.6546 160.173 31.2571 159.775 30.8596C159.577 30.462 159.378 30.0645 158.98 29.8658C158.384 29.4683 157.788 29.2695 157.192 29.2695C156.397 29.2695 155.403 29.2695 154.21 29.2695C153.018 29.2695 152.62 29.2695 152.024 29.2695C151.428 29.2695 150.831 29.2695 150.434 29.667C149.838 29.8658 149.44 30.0645 149.241 30.4621C149.043 30.6608 148.844 31.0583 148.645 31.6546H152.62C152.62 31.6546 153.018 31.4558 153.216 31.2571C153.614 31.2571 154.011 31.0583 154.807 31.0583C155.602 31.0583 155.8 31.0583 155.999 31.2571C156.198 31.2571 156.397 31.6546 156.397 32.0521C155.8 32.0521 155.403 32.2508 155.005 32.4496C154.608 32.4496 153.614 32.6483 152.024 32.8471C150.633 32.8471 149.838 33.2446 149.44 33.6421C149.043 34.0396 148.645 34.4371 148.645 35.0334C148.645 35.6296 149.043 36.2259 149.639 36.6234C150.235 37.0209 151.229 37.2196 152.62 37.2196C154.011 37.2196 154.409 37.2196 155.204 36.8221C155.8 36.8221 156.198 36.4246 156.794 36.0271C156.794 36.2259 156.794 36.4246 156.794 36.4246C156.794 36.4246 156.794 36.6234 157.192 36.8221H161.167C160.968 36.4246 160.769 36.2259 160.769 36.0271C160.769 35.8284 160.769 35.6296 160.769 35.2321" fill="white"/>
<path d="M170.708 34.8361C170.31 34.8361 169.913 35.0348 169.316 35.0348C168.72 35.0348 168.124 35.0348 167.726 34.6373C167.329 34.2398 167.13 33.8423 167.13 33.2461C167.13 32.6498 167.329 32.0536 167.726 31.656C168.124 31.2585 168.72 31.0598 169.316 31.0598C169.913 31.0598 170.31 31.0598 170.708 31.2585C171.105 31.2585 171.304 31.656 171.304 32.0536L175.279 31.656C174.882 30.861 174.285 30.066 173.291 29.6685C172.298 29.271 171.105 29.0723 169.316 29.0723C167.527 29.0723 166.931 29.0723 166.136 29.4698C165.54 29.4698 165.142 29.8673 164.745 30.066C164.347 30.4635 163.95 30.6623 163.552 31.0598C163.155 31.656 162.956 32.2523 162.956 33.0473C162.956 33.8423 162.956 34.4386 163.354 34.8361C163.751 35.2336 164.149 35.6311 164.745 36.0286C165.341 36.4261 165.937 36.6249 166.732 36.8236C167.527 36.8236 168.521 37.0224 169.515 37.0224C170.509 37.0224 171.701 37.0224 172.496 36.6249C173.291 36.4261 173.888 36.0286 174.484 35.6311C174.882 35.2336 175.279 34.6373 175.478 34.0411L171.503 33.6436C171.503 34.0411 171.105 34.4386 170.708 34.6373" fill="white"/>
<path d="M185.217 29.4683L183.229 34.6359L181.043 29.4683H176.67L181.241 37.0209C181.043 37.4184 180.844 37.6171 180.446 37.8159C180.049 37.8159 179.651 38.0146 179.254 38.0146C178.459 38.0146 177.862 38.0146 177.266 37.8159L177.664 39.8034C178.856 39.8034 179.85 39.8034 180.446 39.8034C181.838 39.8034 183.03 39.6047 183.825 39.2072C184.421 38.8097 184.819 38.2134 185.415 37.4184L189.788 29.2695H185.614L185.217 29.4683Z" fill="white"/>
<path d="M114.26 30.2671H112.074V27.8821H114.26C115.254 27.8821 115.85 27.8821 116.049 28.0808C116.447 28.0808 116.447 28.4783 116.447 28.8758C116.447 29.2733 116.447 29.2733 116.049 29.4721C115.85 29.4721 115.652 29.8696 115.254 29.8696C114.658 29.8696 114.26 29.8696 113.863 29.8696M125.192 32.0559L123.006 30.4658L119.825 33.0496C119.428 32.8509 119.229 32.6521 119.03 32.4534C118.832 32.4534 118.235 32.2546 117.639 32.0559C118.434 32.0559 119.03 31.8571 119.428 31.6584C120.024 31.4596 120.621 31.0621 121.018 30.4658C121.416 30.0683 121.614 29.4721 121.614 28.8758C121.614 28.2796 121.416 27.4846 120.819 27.0871C120.223 26.4908 119.627 26.292 118.832 26.0933C118.037 26.0933 116.844 25.8945 115.254 25.8945H106.906V37.2234H111.875V32.6521H112.273C112.67 32.6521 113.068 32.6521 113.465 32.8509C113.664 32.8509 114.062 33.2484 114.459 33.6459L116.049 35.8322L111.676 39.211L113.863 40.9997L117.639 38.0184L119.627 40.6022H125.192L121.018 35.2359L124.596 32.4534L125.192 32.0559Z" fill="white"/>
</g>
<defs>
<clipPath id="clip0_5571_79577">
<rect width="219" height="50" fill="white"/>
</clipPath>
</defs>
</svg>
