<svg width="264" height="60" viewBox="0 0 264 60" fill="none" xmlns="http://www.w3.org/2000/svg">
<path d="M59.1115 0V15.0588L30.0268 45.2941L0 15.0588V0L30.0268 29.5294L59.1115 0Z" fill="#221F20"/>
<path d="M0 30.0024V60.0024L14.4835 45.5319C14.4835 45.4142 0 29.5319 0 30.0024Z" fill="#221F20"/>
<path d="M59.1091 59.8824V30L44.5078 44.4706C44.5078 44.4706 59.1091 60.3529 59.1091 59.8824Z" fill="#221F20"/>
<path d="M44.4994 0H14.4727L29.7804 15.2941C29.8982 15.2941 44.9704 0 44.4994 0Z" fill="#264845"/>
<path d="M14.6001 59.8866H44.6269L30.0256 45.416C30.0256 45.416 14.1291 59.8866 14.6001 59.8866Z" fill="#264845"/>
<path d="M79.9045 40.5898V20.4586H82.9381L89.9002 34.7182L96.8622 20.4586H99.8959V40.5898H96.7504V27.6863L90.5712 40.5898H89.2291L83.0639 27.6863V40.5898H79.9045ZM105.221 40.5898V20.4586H108.591V40.5898H105.221ZM121.348 41.0092C119.875 41.0092 118.547 40.7529 117.364 40.2403C116.189 39.7277 115.22 38.9961 114.456 38.0455C113.701 37.0855 113.221 35.9485 113.016 34.6344L116.511 34.1031C116.809 35.2961 117.42 36.2188 118.342 36.8712C119.274 37.5236 120.346 37.8498 121.558 37.8498C122.275 37.8498 122.951 37.7379 123.585 37.5142C124.219 37.2906 124.731 36.9644 125.123 36.5356C125.523 36.1069 125.724 35.5803 125.724 34.9559C125.724 34.6763 125.677 34.42 125.584 34.187C125.491 33.9447 125.351 33.7303 125.164 33.5439C124.987 33.3575 124.754 33.1898 124.465 33.0406C124.186 32.8822 123.86 32.7471 123.487 32.6352L118.286 31.0974C117.839 30.9669 117.354 30.7945 116.832 30.5802C116.32 30.3565 115.831 30.0536 115.365 29.6715C114.908 29.28 114.53 28.7861 114.232 28.1896C113.943 27.5838 113.799 26.8382 113.799 25.9528C113.799 24.6573 114.125 23.5715 114.777 22.6954C115.439 21.81 116.324 21.1483 117.434 20.7103C118.552 20.2722 119.792 20.0579 121.152 20.0672C122.532 20.0765 123.762 20.3142 124.843 20.7802C125.924 21.2369 126.828 21.9032 127.555 22.7793C128.282 23.6554 128.795 24.7132 129.093 25.9528L125.472 26.5819C125.323 25.8736 125.034 25.2724 124.605 24.7785C124.186 24.2752 123.669 23.8931 123.054 23.6321C122.448 23.3711 121.8 23.2313 121.11 23.2127C120.439 23.2034 119.815 23.3059 119.237 23.5203C118.668 23.7253 118.207 24.0235 117.853 24.415C117.508 24.8064 117.336 25.2631 117.336 25.785C117.336 26.279 117.485 26.6844 117.783 27.0013C118.081 27.3088 118.449 27.5558 118.887 27.7422C119.335 27.9193 119.787 28.0684 120.244 28.1896L123.85 29.1961C124.344 29.3266 124.899 29.5037 125.514 29.7274C126.129 29.9511 126.721 30.2633 127.289 30.664C127.858 31.0648 128.324 31.5914 128.687 32.2438C129.06 32.8962 129.247 33.7257 129.247 34.7322C129.247 35.7761 129.028 36.6941 128.59 37.4863C128.161 38.2692 127.578 38.9216 126.842 39.4435C126.106 39.9654 125.262 40.3568 124.312 40.6178C123.37 40.8788 122.382 41.0092 121.348 41.0092ZM141.252 41.0092C139.779 41.0092 138.451 40.7529 137.268 40.2403C136.093 39.7277 135.124 38.9961 134.36 38.0455C133.605 37.0855 133.125 35.9485 132.92 34.6344L136.415 34.1031C136.713 35.2961 137.324 36.2188 138.246 36.8712C139.178 37.5236 140.25 37.8498 141.462 37.8498C142.179 37.8498 142.855 37.7379 143.489 37.5142C144.123 37.2906 144.635 36.9644 145.027 36.5356C145.427 36.1069 145.628 35.5803 145.628 34.9559C145.628 34.6763 145.581 34.42 145.488 34.187C145.395 33.9447 145.255 33.7303 145.069 33.5439C144.891 33.3575 144.658 33.1898 144.37 33.0406C144.09 32.8822 143.764 32.7471 143.391 32.6352L138.19 31.0974C137.743 30.9669 137.258 30.7945 136.736 30.5802C136.224 30.3565 135.735 30.0536 135.269 29.6715C134.812 29.28 134.434 28.7861 134.136 28.1896C133.847 27.5838 133.703 26.8382 133.703 25.9528C133.703 24.6573 134.029 23.5715 134.681 22.6954C135.343 21.81 136.229 21.1483 137.338 20.7103C138.456 20.2722 139.696 20.0579 141.056 20.0672C142.436 20.0765 143.666 20.3142 144.747 20.7802C145.828 21.2369 146.732 21.9032 147.459 22.7793C148.186 23.6554 148.699 24.7132 148.997 25.9528L145.376 26.5819C145.227 25.8736 144.938 25.2724 144.509 24.7785C144.09 24.2752 143.573 23.8931 142.958 23.6321C142.352 23.3711 141.704 23.2313 141.014 23.2127C140.343 23.2034 139.719 23.3059 139.141 23.5203C138.572 23.7253 138.111 24.0235 137.757 24.415C137.412 24.8064 137.24 25.2631 137.24 25.785C137.24 26.279 137.389 26.6844 137.687 27.0013C137.985 27.3088 138.353 27.5558 138.792 27.7422C139.239 27.9193 139.691 28.0684 140.148 28.1896L143.754 29.1961C144.248 29.3266 144.803 29.5037 145.418 29.7274C146.033 29.9511 146.625 30.2633 147.193 30.664C147.762 31.0648 148.228 31.5914 148.591 32.2438C148.964 32.8962 149.151 33.7257 149.151 34.7322C149.151 35.7761 148.932 36.6941 148.494 37.4863C148.065 38.2692 147.482 38.9216 146.746 39.4435C146.01 39.9654 145.166 40.3568 144.216 40.6178C143.274 40.8788 142.287 41.0092 141.252 41.0092ZM160.011 40.5898V20.4586H163.045L170.007 34.7182L176.969 20.4586H180.002V40.5898H176.857V27.6863L170.678 40.5898H169.336L163.17 27.6863V40.5898H160.011ZM183.65 40.5898L189.997 20.4586H194.932L201.279 40.5898H197.812L192.052 22.5277H192.807L187.117 40.5898H183.65ZM187.187 36.2281V33.0826H197.756V36.2281H187.187ZM208.096 40.5898V23.6181H201.582V20.4586H217.98V23.6181H211.466V40.5898H208.096ZM229.848 41.0092C227.835 41.0092 226.111 40.5712 224.675 39.6951C223.24 38.8097 222.136 37.5795 221.362 36.0044C220.598 34.4293 220.216 32.6026 220.216 30.5242C220.216 28.4459 220.598 26.6192 221.362 25.0441C222.136 23.469 223.24 22.2434 224.675 21.3673C226.111 20.4819 227.835 20.0392 229.848 20.0392C232.169 20.0392 234.102 20.6217 235.65 21.7867C237.197 22.9424 238.282 24.5035 238.907 26.47L235.51 27.4067C235.118 26.0926 234.452 25.0674 233.511 24.3311C232.569 23.5855 231.348 23.2127 229.848 23.2127C228.496 23.2127 227.369 23.5156 226.465 24.1214C225.57 24.7272 224.894 25.58 224.438 26.6797C223.99 27.7702 223.762 29.0517 223.753 30.5242C223.753 31.9968 223.976 33.283 224.424 34.3827C224.88 35.4732 225.561 36.3213 226.465 36.9271C227.369 37.5329 228.496 37.8358 229.848 37.8358C231.348 37.8358 232.569 37.463 233.511 36.7174C234.452 35.9718 235.118 34.9466 235.51 33.6418L238.907 34.5784C238.282 36.545 237.197 38.1107 235.65 39.2757C234.102 40.4314 232.169 41.0092 229.848 41.0092ZM243.095 40.5898V20.4586H246.464V28.9305H255.998V20.4586H259.353V40.5898H255.998V32.09H246.464V40.5898H243.095Z" fill="#221F20"/>
</svg>
