<svg width="286" height="60" viewBox="0 0 286 60" fill="none" xmlns="http://www.w3.org/2000/svg">
<mask id="mask0_4353_78447" style="mask-type:luminance" maskUnits="userSpaceOnUse" x="4" y="0" width="263" height="60">
<path d="M266.628 0H4.11816V60H266.628V0Z" fill="white"/>
</mask>
<g mask="url(#mask0_4353_78447)">
<path d="M33.1818 29.6L45.5242 17.0667L33.8454 5.2C30.6602 1.86667 26.2806 0 21.6356 0C16.9906 0 12.611 1.86667 9.29315 5.2C5.97529 8.53333 4.25 13.0667 4.25 17.7333C4.25 22.4 6.108 26.9333 9.29315 30.2667L33.1818 54.6667C29.9966 51.3333 28.1386 46.8 28.1386 42.1333C28.1386 37.4667 29.9966 32.9333 33.1818 29.6Z" fill="#B5D77E"/>
<path d="M53.7524 57.8685C55.2123 57.0685 56.6722 56.0018 57.8666 54.8018C56.6722 56.0018 55.345 57.0685 53.7524 57.8685Z" fill="#B5D77E"/>
<path d="M86.9353 17.7345C86.9353 14.2679 85.8736 10.8012 84.0155 7.86786C82.1575 4.93453 79.3705 2.66786 76.1854 1.33453C73.0002 0.00119829 69.5497 -0.398802 66.0991 0.267865C62.7812 0.934532 59.5961 2.66787 57.2072 5.06786L45.5283 16.9345L57.8708 29.4679C61.0559 32.8012 62.9139 37.2012 62.9139 41.8679C62.9139 46.5345 61.1886 50.9345 58.0035 54.4012L81.7594 30.2679C83.352 28.6679 84.6791 26.6679 85.6081 24.5345C86.5371 22.4012 86.9353 20.1345 86.9353 17.7345Z" fill="#23A6A6"/>
<path d="M33.3091 54.7988C34.9017 56.3988 36.7597 57.7322 38.8831 58.6655C41.0065 59.5988 43.2627 59.9988 45.5188 59.9988C47.1114 59.9988 48.704 59.7322 50.2966 59.3322C47.3768 60.1322 44.1917 60.2655 41.1392 59.4655C38.2195 58.6655 35.4325 57.0655 33.3091 54.7988Z" fill="#23A6A6"/>
<path d="M57.8716 29.5997L45.5292 17.0664L33.1867 29.5997C30.0016 32.9331 28.1436 37.3331 28.1436 42.1331C28.1436 46.7997 29.8688 51.3331 33.054 54.6664L33.1867 54.7997C35.3101 57.0664 38.0971 58.6664 41.1496 59.4664C44.202 60.2664 47.2545 60.2664 50.3069 59.3331H50.5723C50.9705 59.1997 51.2359 59.0664 51.634 58.9331L52.2976 58.6664C52.563 58.5331 52.6958 58.5331 52.8285 58.3997C52.9612 58.2664 53.492 58.1331 53.8902 57.8664C55.35 57.0664 56.8099 55.9997 58.0043 54.7997L58.2698 54.5331C61.4549 51.1997 63.1802 46.6664 63.1802 41.9997C62.9148 37.4664 61.0568 33.0664 57.8716 29.5997Z" fill="#1A9657"/>
<path d="M98.8778 19.332H103.523C104.319 19.332 105.115 19.4654 105.779 19.5987C106.443 19.732 106.973 19.9987 107.504 20.3987C108.035 20.7987 108.433 21.332 108.566 21.8654C108.831 22.532 108.964 23.1987 108.964 23.8654C108.964 24.532 108.831 25.1987 108.566 25.8654C108.301 26.3987 107.902 26.932 107.372 27.1987C106.841 27.5987 106.31 27.8654 105.646 27.9987C104.85 28.132 104.186 28.2654 103.39 28.2654H100.47V35.9987H98.7451L98.8778 19.332ZM100.603 26.932H103.523C104.585 27.0654 105.646 26.6654 106.443 26.132C106.841 25.8654 107.106 25.4654 107.239 25.0654C107.372 24.6654 107.504 24.2654 107.504 23.8654C107.504 23.4654 107.504 22.932 107.239 22.532C107.106 22.132 106.708 21.732 106.443 21.5987C105.514 21.0654 104.585 20.7987 103.523 20.932H100.603V26.932Z" fill="#0F3140"/>
<path d="M111.348 26.2655C111.348 25.7322 111.348 25.3322 111.348 25.0655H112.808C112.808 25.3322 112.808 25.7322 112.94 25.9988C113.073 26.3988 112.94 26.6655 112.94 26.9322C113.206 26.2655 113.737 25.7322 114.4 25.3322C115.064 24.9322 115.727 24.7988 116.524 24.7988H117.054C117.187 24.7988 117.32 24.7988 117.585 24.9322L117.32 26.3988L116.789 26.2655H116.125C115.727 26.2655 115.329 26.3988 114.931 26.5322C114.533 26.6655 114.135 26.9322 113.869 27.3322C113.604 27.7322 113.338 28.1322 113.206 28.6655C112.94 29.3322 112.94 29.8655 112.94 30.5322V35.9988H111.348V27.4655C111.348 27.1988 111.348 26.7988 111.348 26.2655Z" fill="#0F3140"/>
<path d="M128.738 30.2689V30.6689C128.738 30.8022 128.738 30.9355 128.738 31.0689H119.713C119.713 31.6022 119.846 32.1355 119.979 32.6689C120.377 33.6022 121.173 34.4022 122.102 34.8022C122.633 35.0689 123.164 35.0689 123.695 35.0689C124.491 35.0689 125.154 34.9355 125.818 34.5355C126.349 34.1355 126.747 33.7355 127.145 33.2022L128.34 34.1355C127.809 34.9355 127.145 35.4689 126.349 35.8689C125.553 36.2689 124.624 36.5355 123.695 36.4022C122.898 36.4022 122.102 36.2689 121.438 36.0022C120.775 35.7355 120.111 35.3355 119.713 34.8022C118.651 33.7355 118.121 32.1355 118.121 30.6689C118.121 29.8689 118.253 29.0689 118.519 28.4022C118.784 27.7355 119.182 27.0689 119.713 26.5355C120.244 26.0022 120.775 25.6022 121.438 25.3355C122.102 25.0689 122.898 24.9355 123.562 24.9355C124.358 24.9355 125.154 25.0689 125.818 25.3355C126.482 25.6022 127.012 26.0022 127.411 26.5355C127.809 27.0689 128.207 27.6022 128.34 28.2689C128.738 28.8022 128.738 29.4689 128.738 30.2689ZM127.145 29.7355C127.145 28.8022 126.747 27.8689 126.216 27.2022C125.818 26.8022 125.42 26.5355 125.022 26.4022C124.624 26.2689 124.093 26.1355 123.562 26.1355C123.031 26.1355 122.633 26.2689 122.102 26.4022C121.704 26.5355 121.306 26.9355 120.908 27.2022C120.642 27.4689 120.244 27.8689 120.111 28.4022C119.979 28.8022 119.846 29.3355 119.713 29.7355H127.145Z" fill="#0F3140"/>
<path d="M137.364 27.6013C137.098 27.068 136.7 26.8013 136.302 26.5346C135.771 26.268 135.24 26.1346 134.709 26.1346C134.444 26.1346 134.179 26.1346 133.913 26.268C133.648 26.268 133.382 26.4013 133.117 26.5346C132.851 26.668 132.719 26.8013 132.586 27.068C132.453 27.3346 132.453 27.6013 132.453 27.868C132.453 28.1346 132.453 28.4013 132.586 28.5346C132.719 28.8013 132.851 28.9346 133.117 29.068C133.78 29.468 134.444 29.6013 135.108 29.7346C136.169 29.868 137.098 30.268 138.027 30.9346C138.293 31.2013 138.558 31.468 138.691 31.868C138.824 32.268 138.956 32.668 138.956 33.068C138.956 33.6013 138.824 34.1346 138.558 34.668C138.293 35.068 138.027 35.468 137.629 35.7346C137.231 36.0013 136.833 36.268 136.302 36.268C135.771 36.4013 135.373 36.4013 134.842 36.4013C134.046 36.4013 133.25 36.268 132.453 35.868C131.657 35.468 130.993 34.9346 130.595 34.268L131.79 33.3346C132.055 33.868 132.586 34.268 133.117 34.5346C133.648 34.8013 134.179 34.9346 134.842 34.9346C135.108 34.9346 135.506 34.9346 135.771 34.8013C136.037 34.8013 136.302 34.668 136.567 34.5346C136.833 34.4013 136.966 34.1346 137.098 33.868C137.231 33.6013 137.364 33.3346 137.364 32.9346C137.364 32.668 137.231 32.4013 137.098 32.1346C136.966 31.868 136.7 31.7346 136.567 31.6013C135.771 31.2013 134.975 30.9346 134.179 30.8013C133.913 30.8013 133.515 30.668 133.117 30.5346C132.719 30.4013 132.453 30.268 132.055 30.0013C131.79 29.7346 131.524 29.468 131.259 29.068C130.993 28.668 130.993 28.268 130.993 27.7346C130.993 27.2013 131.126 26.668 131.259 26.268C131.524 25.868 131.79 25.6013 132.188 25.3346C132.586 25.068 132.984 24.8013 133.382 24.8013C133.913 24.668 134.311 24.668 134.842 24.668C135.638 24.668 136.302 24.8013 137.098 25.2013C137.762 25.468 138.293 26.0013 138.691 26.668L137.364 27.6013Z" fill="#0F3140"/>
<path d="M149.173 27.5988C148.908 27.1988 148.51 26.7988 147.979 26.5322C147.448 26.2655 146.917 26.1322 146.386 26.1322C145.855 26.1322 145.192 26.2655 144.661 26.5322C144.13 26.7988 143.732 27.0655 143.334 27.4655C142.936 27.8655 142.67 28.3988 142.538 28.9322C142.405 29.4655 142.272 30.1322 142.272 30.6655C142.272 31.1988 142.405 31.8655 142.538 32.3988C142.67 32.9322 143.068 33.3322 143.334 33.7322C143.732 34.1322 144.13 34.3988 144.661 34.6655C145.192 34.9322 145.723 35.0655 146.386 35.0655C147.05 35.0655 147.581 34.9322 148.112 34.6655C148.51 34.3988 148.908 33.9988 149.306 33.5988L150.5 34.5322C149.97 35.1988 149.439 35.5988 148.642 35.9988C147.979 36.2655 147.183 36.5322 146.386 36.3988C145.59 36.3988 144.794 36.2655 143.997 35.9988C143.334 35.7322 142.67 35.3322 142.139 34.7988C141.609 34.2655 141.21 33.5988 140.945 32.9322C140.414 31.4655 140.414 29.8655 140.945 28.2655C141.21 27.5988 141.609 26.9322 142.139 26.3988C142.67 25.8655 143.334 25.4655 143.997 25.1988C144.794 24.9322 145.59 24.7988 146.386 24.7988C147.183 24.7988 147.846 24.9322 148.642 25.3322C149.306 25.5988 149.97 26.1322 150.5 26.7988L149.173 27.5988Z" fill="#0F3140"/>
<path d="M152.358 26.265C152.358 25.7317 152.358 25.3317 152.226 25.065H153.685C153.685 25.3317 153.685 25.7317 153.818 25.9984C153.951 26.3984 153.818 26.665 153.818 26.9317C154.084 26.265 154.614 25.7317 155.278 25.3317C155.942 24.9317 156.605 24.665 157.401 24.7984H157.932C158.065 24.7984 158.33 24.7984 158.463 24.9317L158.198 26.3984L157.8 26.265H157.136C156.738 26.265 156.34 26.3984 155.942 26.5317C155.543 26.665 155.145 26.9317 154.88 27.3317C154.614 27.7317 154.349 28.1317 154.216 28.665C154.084 29.3317 153.951 29.865 153.951 30.5317V35.9984H152.358V27.465C152.358 27.1984 152.358 26.7984 152.358 26.265Z" fill="#0F3140"/>
<path d="M162.179 20.8021C162.179 20.9354 162.179 21.0687 162.047 21.2021C162.047 21.3354 161.914 21.4688 161.781 21.6021C161.516 21.8688 161.25 21.8687 160.985 21.8687C160.852 21.8687 160.72 21.8687 160.587 21.7354C160.454 21.7354 160.321 21.6021 160.189 21.4687C160.056 21.3354 159.923 21.2021 159.923 21.0687C159.923 20.9354 159.791 20.8021 159.791 20.6687C159.791 20.5354 159.791 20.4021 159.923 20.2687C159.923 20.1354 160.056 20.0021 160.189 19.8687C160.321 19.7354 160.454 19.7354 160.587 19.6021C160.72 19.6021 160.852 19.4688 160.985 19.4688C161.25 19.4688 161.516 19.6021 161.781 19.7354C161.914 19.8687 162.047 20.0021 162.047 20.1354C162.179 20.5354 162.179 20.6687 162.179 20.8021ZM161.914 36.1354H160.321V25.2021H161.914V36.1354Z" fill="#0F3140"/>
<path d="M166.825 41.7322H165.232V25.0655H166.825V26.9322C167.223 26.2655 167.887 25.5988 168.683 25.3322C169.347 24.9322 170.143 24.7988 170.939 24.7988C171.735 24.7988 172.532 24.9322 173.195 25.1988C173.859 25.4655 174.522 25.8655 174.921 26.3988C175.451 26.9322 175.85 27.5988 176.115 28.2655C176.646 29.7322 176.646 31.3322 176.115 32.7988C175.85 33.4655 175.451 34.1322 174.921 34.6655C174.39 35.1988 173.859 35.5988 173.195 35.8655C172.532 36.1322 171.735 36.3988 170.939 36.2655C170.143 36.2655 169.347 36.1322 168.683 35.7322C167.887 35.3322 167.356 34.7988 166.825 34.1322V41.7322ZM174.921 30.5322C174.921 29.9988 174.788 29.3322 174.655 28.7988C174.522 28.2655 174.257 27.7322 173.859 27.3322C173.461 26.9322 173.063 26.6655 172.532 26.3988C172.001 26.1322 171.47 25.9988 170.806 25.9988C170.143 25.9988 169.612 26.1322 169.081 26.3988C168.55 26.6655 168.152 26.9322 167.754 27.3322C166.958 28.2655 166.56 29.3322 166.56 30.5322C166.56 31.1988 166.692 31.7322 166.825 32.2655C166.958 32.7988 167.356 33.3322 167.754 33.7322C168.152 34.1322 168.55 34.3988 169.081 34.6655C169.612 34.9322 170.143 35.0655 170.674 35.0655C171.337 35.0655 171.868 34.9322 172.399 34.6655C172.93 34.3988 173.328 34.1322 173.726 33.7322C174.124 33.3322 174.39 32.7988 174.522 32.2655C174.921 31.7322 174.921 31.1988 174.921 30.5322Z" fill="#0F3140"/>
<path d="M184.213 26.4H181.161V32.8C181.161 33.2 181.161 33.4667 181.293 33.8667C181.293 34.1333 181.426 34.2667 181.559 34.5333C181.691 34.6667 181.824 34.8 182.09 34.8C182.355 34.8 182.488 34.9333 182.753 34.9333C183.019 34.9333 183.284 34.9333 183.417 34.8C183.682 34.8 183.815 34.6667 184.08 34.5333L184.213 35.8667C183.948 36 183.682 36 183.284 36.1333C183.019 36.1333 182.621 36.2667 182.222 36.2667C181.957 36.2667 181.559 36.2667 181.293 36.1333C181.028 36 180.63 35.8667 180.364 35.7333C180.099 35.4667 179.833 35.2 179.701 34.8C179.568 34.4 179.435 33.8667 179.435 33.3333V26.4H177.179V25.0667H179.435V22H181.028V25.0667H184.08V26.4H184.213Z" fill="#0F3140"/>
<path d="M188.056 20.8049C188.056 20.9383 188.056 21.0716 187.923 21.2049C187.923 21.3383 187.79 21.4716 187.658 21.6049C187.392 21.8716 187.127 21.8716 186.861 21.8716C186.596 21.8716 186.331 21.7383 186.065 21.6049C185.932 21.4716 185.8 21.3383 185.8 21.2049C185.8 21.0716 185.667 20.9383 185.667 20.8049C185.667 20.6716 185.667 20.5383 185.8 20.4049C185.8 20.2716 185.932 20.1383 186.065 20.0049C186.331 19.7383 186.596 19.7383 186.861 19.7383C187.127 19.7383 187.392 19.8716 187.658 20.0049C187.79 20.1383 187.923 20.2716 187.923 20.4049C188.056 20.5383 188.056 20.6716 188.056 20.8049ZM187.79 36.1383H186.198V25.2049H187.79V36.1383Z" fill="#0F3140"/>
<path d="M201.995 30.5346C201.995 31.3346 201.863 32.1346 201.597 32.8013C201.332 33.468 200.934 34.1346 200.403 34.668C199.872 35.2013 199.208 35.6013 198.545 35.868C197.085 36.4013 195.36 36.4013 193.9 35.868C193.236 35.6013 192.573 35.2013 192.042 34.668C191.511 34.1346 191.113 33.468 190.847 32.8013C190.317 31.3346 190.317 29.7346 190.847 28.1346C191.113 27.468 191.511 26.8013 192.042 26.268C192.573 25.7346 193.236 25.3346 193.9 25.068C195.36 24.5346 197.085 24.5346 198.545 25.068C199.208 25.3346 199.872 25.7346 200.403 26.268C200.934 26.8013 201.332 27.468 201.597 28.1346C201.863 28.9346 201.995 29.7346 201.995 30.5346ZM200.27 30.5346C200.27 30.0013 200.137 29.3346 200.005 28.8013C199.872 28.268 199.607 27.7346 199.208 27.3346C198.81 26.9346 198.412 26.668 197.881 26.4013C197.35 26.1346 196.82 26.0013 196.156 26.0013C195.625 26.0013 194.962 26.1346 194.431 26.4013C193.9 26.668 193.502 26.9346 193.104 27.3346C192.705 27.7346 192.44 28.268 192.307 28.8013C192.174 29.3346 192.042 30.0013 192.042 30.5346C192.042 31.068 192.174 31.7346 192.307 32.268C192.44 32.8013 192.705 33.3346 193.104 33.7346C193.502 34.1346 193.9 34.4013 194.431 34.668C194.962 34.9346 195.492 35.068 196.156 35.068C196.687 35.068 197.35 34.9346 197.881 34.668C198.412 34.4013 198.81 34.1346 199.208 33.7346C199.607 33.3346 199.872 32.8013 200.005 32.268C200.137 31.7346 200.27 31.2013 200.27 30.5346Z" fill="#0F3140"/>
<path d="M205.976 25.0655C205.976 25.3322 205.976 25.7322 206.109 25.9988C206.241 26.3988 206.109 26.6655 206.109 26.9322C206.507 26.2655 207.038 25.7322 207.568 25.3322C208.232 24.9322 209.028 24.7988 209.825 24.7988C210.355 24.7988 211.019 24.7988 211.55 25.0655C212.081 25.3322 212.612 25.5988 213.01 25.9988C213.673 26.9322 214.071 28.1322 214.071 29.3322V36.1322H212.346V29.9988C212.346 29.4655 212.346 28.9322 212.213 28.3988C212.081 27.9988 211.948 27.5988 211.683 27.1988C211.417 26.7988 211.152 26.5322 210.754 26.3988C210.355 26.1322 209.825 26.1322 209.294 26.1322C208.896 26.1322 208.497 26.2655 208.099 26.3988C207.701 26.5322 207.303 26.7988 207.038 27.1988C206.639 27.5988 206.507 27.9988 206.241 28.5322C206.109 29.1988 205.976 29.8655 205.976 30.3988V35.9988H204.383V27.3322C204.383 27.0655 204.383 26.6655 204.383 26.1322C204.383 25.5988 204.383 25.1988 204.383 24.9322L205.976 25.0655Z" fill="#0F3140"/>
<path d="M232.517 31.2007C232.517 32.0006 232.384 32.8007 231.986 33.4673C231.588 34.134 231.19 34.534 230.526 34.934C229.863 35.334 229.199 35.6006 228.536 35.734C227.739 35.8673 226.943 36.0007 226.279 36.0007H219.776V19.334H226.279C226.943 19.334 227.607 19.334 228.27 19.4673C228.934 19.6007 229.465 19.8673 230.128 20.134C230.659 20.534 231.19 20.934 231.455 21.6007C231.721 22.134 231.986 22.934 231.853 23.6007C231.853 24.4007 231.588 25.2007 231.057 25.8673C230.526 26.534 229.863 26.934 229.066 27.2007C229.465 27.334 229.995 27.4673 230.394 27.6007C230.792 27.8673 231.19 28.134 231.455 28.4006C231.721 28.8006 231.986 29.2007 232.119 29.6007C232.384 30.134 232.517 30.6673 232.517 31.2007ZM228.005 24.2673C228.005 24.0007 228.005 23.734 227.872 23.6007C227.739 23.334 227.607 23.2006 227.341 23.0673C226.81 22.8006 226.147 22.6673 225.483 22.6673H223.492V26.134H225.616C226.279 26.134 226.81 26.0006 227.341 25.734C227.607 25.6006 227.739 25.334 227.872 25.2007C228.005 25.0673 228.005 24.534 228.005 24.2673ZM228.536 30.8007C228.536 30.534 228.536 30.2673 228.403 30.0007C228.27 29.734 228.005 29.4673 227.739 29.334C227.076 29.0673 226.412 28.934 225.749 28.934H223.492V32.8007H225.749C226.014 32.8007 226.412 32.8007 226.678 32.6673C226.943 32.6673 227.341 32.534 227.607 32.4006C227.872 32.2673 228.137 32.0006 228.27 31.734C228.403 31.4673 228.536 31.2007 228.536 30.8007Z" fill="#0F3140"/>
<path d="M234.506 36.1362V18.2695H238.355V36.1362H234.506Z" fill="#0F3140"/>
<path d="M244.994 20.5337C244.994 20.8004 244.994 21.0671 244.861 21.3337C244.728 21.6004 244.595 21.8671 244.463 22.0004C244.33 22.1337 244.065 22.4004 243.799 22.4004C243.534 22.5337 243.268 22.5337 243.003 22.5337C242.737 22.5337 242.472 22.5337 242.207 22.4004C241.941 22.2671 241.676 22.1337 241.543 21.8671C241.41 21.7337 241.145 21.4671 241.012 21.2004C240.879 20.9337 240.879 20.6671 240.879 20.4004C240.879 20.1337 240.879 19.8671 241.012 19.6004C241.145 19.3337 241.278 19.0671 241.41 18.9337C241.676 18.8004 241.808 18.5337 242.074 18.5337C242.339 18.4004 242.605 18.4004 242.87 18.4004C243.136 18.4004 243.401 18.4004 243.666 18.5337C243.932 18.6671 244.197 18.8004 244.33 18.9337C244.463 19.0671 244.728 19.3337 244.728 19.6004C244.861 20.0004 244.994 20.2671 244.994 20.5337ZM240.879 36.1337V24.4004H244.728V36.1337H240.879Z" fill="#0F3140"/>
<path d="M254.017 27.8686C253.752 27.602 253.353 27.3353 252.955 27.0686C252.557 26.802 252.026 26.802 251.628 26.802C251.23 26.802 250.965 26.9353 250.699 27.0686C250.566 27.0686 250.434 27.202 250.301 27.3353C250.168 27.4686 250.168 27.602 250.168 27.7353C250.168 27.8686 250.168 28.002 250.301 28.1353C250.434 28.2686 250.566 28.402 250.699 28.402C251.23 28.5353 251.761 28.802 252.292 28.9353C252.69 29.0686 253.221 29.202 253.619 29.3353C254.017 29.4686 254.415 29.7353 254.813 30.002C255.211 30.2686 255.477 30.6686 255.61 31.0686C255.875 31.4686 256.008 32.002 255.875 32.5353C255.875 33.202 255.742 33.8686 255.477 34.402C255.211 34.9353 254.813 35.3353 254.282 35.602C253.752 35.8686 253.221 36.1353 252.69 36.2686C252.159 36.402 251.495 36.5353 250.965 36.5353C250.036 36.5353 249.107 36.402 248.178 36.1353C247.381 35.8686 246.585 35.3353 245.921 34.802L248.045 32.5353C248.443 32.9353 248.841 33.202 249.239 33.4686C249.77 33.7353 250.301 33.8686 250.832 33.8686C251.097 33.8686 251.495 33.7353 251.761 33.602C251.894 33.4686 252.026 33.4686 252.159 33.3353C252.292 33.202 252.292 33.0686 252.292 32.802C252.292 32.6686 252.292 32.402 252.159 32.2686C252.026 32.1353 251.894 32.002 251.761 32.002C251.23 31.7353 250.566 31.602 250.036 31.4686C249.637 31.3353 249.239 31.202 248.841 31.0686C248.443 30.9353 248.045 30.6686 247.779 30.402C247.514 30.1353 247.249 29.7353 246.983 29.4686C246.718 29.0686 246.718 28.5353 246.718 28.002C246.718 27.4686 246.85 26.802 247.116 26.2686C247.381 25.7353 247.779 25.3353 248.31 24.9353C248.841 24.6686 249.239 24.402 249.903 24.2686C250.434 24.1353 250.965 24.002 251.628 24.002C252.424 24.002 253.353 24.1353 254.15 24.402C254.946 24.6686 255.61 25.0686 256.273 25.602L254.017 27.8686Z" fill="#0F3140"/>
<path d="M264.64 27.8686C264.375 27.602 263.977 27.3353 263.579 27.0686C263.181 26.802 262.783 26.802 262.252 26.802C261.854 26.802 261.588 26.9353 261.323 27.0686C261.19 27.0686 261.057 27.202 260.925 27.3353C260.792 27.4686 260.792 27.602 260.792 27.7353C260.792 27.8686 260.792 28.002 260.925 28.1353C261.057 28.2686 261.19 28.402 261.323 28.402C261.853 28.5353 262.384 28.802 262.915 28.9353C263.313 29.0686 263.844 29.202 264.242 29.3353C264.641 29.4686 265.039 29.7353 265.437 30.002C265.835 30.2686 266.1 30.6686 266.233 31.0686C266.499 31.4686 266.631 32.002 266.499 32.5353C266.499 33.202 266.366 33.8686 266.1 34.402C265.835 34.9353 265.437 35.3353 264.906 35.602C264.375 35.8686 263.844 36.1353 263.313 36.2686C262.782 36.402 262.119 36.5353 261.588 36.5353C260.659 36.5353 259.73 36.402 258.801 36.1353C258.005 35.8686 257.208 35.3353 256.545 34.802L258.668 32.5353C259.066 32.9353 259.465 33.202 259.863 33.4686C260.394 33.7353 260.924 33.8686 261.455 33.8686C261.721 33.8686 262.119 33.7353 262.384 33.602C262.517 33.4686 262.65 33.4686 262.783 33.3353C262.915 33.202 262.915 33.0686 262.915 32.802C262.915 32.6686 262.915 32.402 262.783 32.2686C262.65 32.1353 262.517 32.002 262.384 32.002C261.853 31.7353 261.19 31.602 260.659 31.4686C260.261 31.3353 259.863 31.202 259.465 31.0686C259.066 30.9353 258.668 30.6686 258.403 30.402C258.137 30.1353 257.872 29.7353 257.607 29.4686C257.341 29.0686 257.341 28.5353 257.341 28.002C257.341 27.3353 257.474 26.802 257.739 26.1353C258.005 25.602 258.403 25.202 258.801 24.9353C259.332 24.6686 259.73 24.402 260.394 24.2686C260.924 24.1353 261.455 24.002 262.119 24.002C262.915 24.002 263.844 24.1353 264.64 24.402C265.437 24.6686 266.1 25.0686 266.764 25.602L264.64 27.8686Z" fill="#0F3140"/>
</g>
<path d="M275.255 9.86719C271.539 9.86719 268.62 12.8005 268.62 16.5339C268.62 20.2672 271.539 23.2005 275.255 23.2005C278.971 23.2005 281.891 20.2672 281.891 16.5339C281.891 12.8005 278.971 9.86719 275.255 9.86719ZM275.255 22.2672C272.07 22.2672 269.549 19.7339 269.549 16.5339C269.549 13.3339 272.07 10.8005 275.255 10.8005C278.441 10.8005 280.962 13.3339 280.962 16.5339C280.962 19.7339 278.441 22.2672 275.255 22.2672ZM277.512 15.3339C277.512 14.4005 276.715 13.6005 275.786 13.6005H273.397C273.132 13.6005 272.999 13.8672 272.999 14.0005V18.9339C272.999 19.2005 273.265 19.3339 273.397 19.3339C273.53 19.3339 273.796 19.0672 273.796 18.9339V16.9339H275.521L276.583 19.2005C276.715 19.3339 276.848 19.4672 276.981 19.4672C277.113 19.4672 277.113 19.4672 277.246 19.4672C277.512 19.3339 277.512 19.0672 277.512 18.8005L276.583 16.8005C277.113 16.5339 277.512 16.0005 277.512 15.3339ZM275.919 16.1339H273.928V14.5339H275.919C276.317 14.5339 276.715 14.9339 276.715 15.3339C276.583 15.7339 276.317 16.1339 275.919 16.1339Z" fill="#0F3140"/>
</svg>
