<svg width="301" height="60" viewBox="0 0 301 60" fill="none" xmlns="http://www.w3.org/2000/svg">
<path d="M49.0744 0H10.9256C4.89155 0 0 4.89155 0 10.9256V49.0744C0 55.1084 4.89155 60 10.9256 60H49.0744C55.1085 60 60 55.1084 60 49.0744V10.9256C60 4.89155 55.1085 0 49.0744 0Z" fill="#FF9037"/>
<mask id="mask0_4380_78678" style="mask-type:luminance" maskUnits="userSpaceOnUse" x="0" y="0" width="60" height="60">
<path d="M49.0744 0H10.9256C4.89155 0 0 4.89155 0 10.9256V49.0744C0 55.1084 4.89155 60 10.9256 60H49.0744C55.1085 60 60 55.1084 60 49.0744V10.9256C60 4.89155 55.1085 0 49.0744 0Z" fill="white"/>
</mask>
<g mask="url(#mask0_4380_78678)">
<path d="M24.392 35.2089L41.7059 65.6989L56.9147 61.7425L69.9092 39.1653L60.1814 20.0728L23.666 8.56641L24.392 35.2089Z" fill="#F48438"/>
</g>
<path d="M28.0944 16.9144L35.2813 18.5841L36.7695 20.6893L31.7605 21.6331L31.579 25.771L33.4302 28.5296L36.334 30.9616L35.2087 32.232L27.4047 27.4044L23.8113 22.6131L24.2106 18.7293L26.6788 16.8418L28.0944 16.9144Z" fill="#FF9037"/>
<path d="M43.5934 18.7658C43.303 17.6769 42.8674 16.6606 42.2867 15.6805C41.7422 14.7368 41.0525 13.8657 40.254 13.0671C39.4554 12.2686 38.5843 11.6152 37.6406 11.0344C36.6968 10.49 35.6805 10.0544 34.5553 9.72772C33.4663 9.43734 32.3048 9.25586 31.1433 9.25586H15.9346V50.7078H24.6823V35.0635H31.1433C32.9219 35.0635 34.5916 34.7368 36.1524 34.0471C36.7694 33.7931 37.3502 33.5027 37.8946 33.1397C35.136 32.3775 30.1632 30.4537 26.2068 25.5172C20.4355 18.3666 27.1868 16.1524 32.7404 18.0762C38.2939 20 39.2014 22.8675 39.2014 22.8675C39.2014 22.8675 36.5879 20.4718 33.176 21.1978C29.764 21.9237 30.6351 26.2795 33.8293 29.0744C35.6442 30.7078 37.4228 31.9419 38.5843 32.7041C39.2014 32.3412 39.7458 31.7967 40.2903 31.2885C41.4518 30.127 42.3956 28.7477 43.0489 27.1869C43.7386 25.6261 44.0652 23.9564 44.0652 22.1778C44.0652 20.3992 43.9201 19.8548 43.5934 18.7658ZM24.3193 18.0036C23.2667 18.3303 22.1052 17.568 21.7059 16.2976C21.3066 15.0272 21.8148 13.7205 22.8311 13.3575C23.8838 13.0308 25.0453 13.7931 25.4446 15.0635C25.8438 16.3339 25.3357 17.6406 24.3193 18.0036Z" fill="#FF9037" stroke="white" stroke-width="4" stroke-miterlimit="10"/>
<path d="M78.1852 4.46385C77.6407 3.52011 76.5518 3.04824 74.9184 3.04824H73.7568V1.88672H88.8567C92.559 1.88672 95.9347 2.68526 98.9111 4.28236C101.888 5.87946 103.376 8.96476 103.376 13.502C103.376 18.0392 102.613 18.8377 101.053 20.4711C99.4919 22.1045 97.7859 23.1934 95.8621 23.7379C93.9383 24.2824 92.196 24.5364 90.599 24.5364H84.2106V40.217H78.9837V8.85587C78.9837 6.89579 78.7296 5.40759 78.1852 4.46385ZM92.559 21.5237C93.9383 20.8704 95.1362 19.8541 96.1162 18.4747C97.0962 17.0954 97.6044 15.3168 97.6044 13.1753C97.6044 11.0337 97.0962 9.29144 96.1162 7.87583C95.1362 6.49652 93.9383 5.48018 92.559 4.82682C91.1797 4.17347 89.8367 3.88309 88.6026 3.88309C87.3685 3.88309 85.8077 4.06457 84.2469 4.46385V21.8867C85.8077 22.286 87.2596 22.4675 88.6026 22.4675C89.9456 22.4675 91.1434 22.1408 92.559 21.5237Z" fill="#FF9037"/>
<path d="M110.49 15.4997C109.946 14.556 108.857 14.0841 107.223 14.0841H106.643V12.9226H111.289C112.777 12.9226 113.866 13.1403 114.628 13.5396C115.39 13.9389 115.898 14.6285 116.225 15.536H116.516C117.205 14.6285 118.149 13.9026 119.347 13.2855C120.545 12.6685 121.924 12.3418 123.485 12.3418C125.045 12.3418 126.207 12.6322 126.969 13.2129C127.623 13.7211 128.312 14.5922 129.002 15.8264L126.679 17.5687C126.243 16.9879 125.626 16.5523 124.828 16.2619C124.029 15.9716 123.085 15.8264 122.033 15.8264C120.98 15.8264 119.819 16.0804 118.839 16.6249C117.859 17.1331 117.096 17.859 116.516 18.7302V40.2184H111.289V19.8917C111.289 17.9316 111.035 16.4434 110.49 15.4997Z" fill="#FF9037"/>
<path d="M138.367 40.0006C137.096 39.4924 136.007 38.6213 135.1 37.4235C134.193 36.2256 133.721 34.6285 133.721 32.6685C133.721 29.7284 135.1 27.6231 137.822 26.389C140.545 25.1549 144.138 24.5378 148.53 24.5378H150.272C150.272 20.7265 149.764 18.1494 148.712 16.7701C147.659 15.3908 146.171 14.6648 144.174 14.6648C142.178 14.6648 141.053 15.0278 140 15.7538C138.948 16.4797 138.222 17.7501 137.786 19.6013H135.173C135.173 18.2946 135.245 17.242 135.39 16.4797C135.536 15.7175 135.935 15.0278 136.625 14.3745C137.314 13.7211 138.476 13.1766 140.073 12.85C141.67 12.5233 143.448 12.3418 145.336 12.3418C148.458 12.3418 150.962 13.1766 152.777 14.8826C154.592 16.5523 155.499 19.7828 155.499 24.5378V40.2184H152.595L150.563 37.605H150.272C149.583 38.5124 148.566 39.2383 147.187 39.8554C145.844 40.4725 144.138 40.7991 142.142 40.7991C140.145 40.7991 139.637 40.5451 138.367 40.0006ZM147.949 37.242C148.784 36.6249 149.583 35.7538 150.272 34.7011V26.8609H148.53C145.663 26.8609 143.412 27.4053 141.742 28.4579C140.073 29.5106 139.238 30.9262 139.238 32.6685C139.238 34.4108 139.782 35.8264 140.835 36.7701C141.888 37.7138 143.194 38.1857 144.755 38.1857C146.316 38.1857 147.115 37.859 147.949 37.242Z" fill="#FF9037"/>
<path d="M171.325 48.7846C172.559 47.9135 173.612 46.3164 174.483 43.9933L175.644 40.7991L166.352 18.1494C165.263 15.3545 163.122 13.83 159.964 13.5033V12.3418H164.9C168.276 12.3418 170.599 13.9026 171.869 16.9879L178.476 33.0678L185.808 12.9226H188.712L177.387 43.9933C176.262 47.0423 175.027 49.1113 173.684 50.2002C172.341 51.2892 170.563 51.8336 168.385 51.8336H166.643V50.0913C168.53 50.0913 170.091 49.6558 171.325 48.7846Z" fill="#FF9037"/>
<path d="M198.693 40.0006C197.423 39.4924 196.334 38.6213 195.427 37.4235C194.519 36.2256 194.047 34.6285 194.047 32.6685C194.047 29.7284 195.427 27.6231 198.149 26.389C200.871 25.1549 204.465 24.5378 208.857 24.5378H210.599C210.599 20.7265 210.091 18.1494 209.038 16.7701C207.986 15.3908 206.497 14.6648 204.501 14.6648C202.505 14.6648 201.379 15.0278 200.327 15.7538C199.274 16.4797 198.548 17.7501 198.113 19.6013H195.499C195.499 18.2946 195.572 17.242 195.717 16.4797C195.862 15.7175 196.261 15.0278 196.951 14.3745C197.641 13.7211 198.802 13.1766 200.399 12.85C201.996 12.5233 203.775 12.3418 205.662 12.3418C208.784 12.3418 211.289 13.1766 213.104 14.8826C214.918 16.5523 215.826 19.7828 215.826 24.5378V40.2184H212.922L210.889 37.605H210.599C209.909 38.5124 208.893 39.2383 207.514 39.8554C206.171 40.4725 204.465 40.7991 202.468 40.7991C200.472 40.7991 199.964 40.5451 198.693 40.0006ZM208.276 37.242C209.111 36.6249 209.909 35.7538 210.599 34.7011V26.8609H208.857C205.989 26.8609 203.739 27.4053 202.069 28.4579C200.399 29.5106 199.564 30.9262 199.564 32.6685C199.564 34.4108 200.109 35.8264 201.162 36.7701C202.214 37.7138 203.521 38.1857 205.082 38.1857C206.643 38.1857 207.441 37.859 208.276 37.242Z" fill="#FF9037"/>
<path d="M228.603 38.9107C227.368 37.6765 226.751 35.7891 226.751 33.2119V15.2083H222.686V12.8853H226.751V7.6584L229.655 4.17383H231.978V12.8853H238.947V15.2083H231.978V33.2119C231.978 36.6965 233.321 38.4388 236.044 38.4388C238.766 38.4388 237.75 38.3299 238.403 38.1484C239.056 37.9669 239.71 37.6765 240.399 37.2773L240.98 38.4388C240.073 39.0922 239.093 39.6366 238.004 40.1085C236.915 40.5441 235.499 40.7618 233.721 40.7618C231.942 40.7618 229.837 40.1448 228.603 38.9107Z" fill="#FF9037"/>
<path d="M247.078 15.4997C246.534 14.556 245.445 14.0841 243.811 14.0841H242.65V12.9226H247.877C249.292 12.9226 250.417 13.104 251.143 13.5033C251.906 13.9026 252.45 14.4834 252.813 15.2456H253.104C253.902 14.4471 254.955 13.7574 256.261 13.1766C257.568 12.6322 259.02 12.3418 260.653 12.3418C263.557 12.3418 265.917 13.104 267.768 14.6648C269.619 16.2256 270.526 18.9117 270.526 22.7955V40.2184H265.3V22.7955C265.3 20.0732 264.682 18.1131 263.485 16.8427C262.251 15.5723 260.762 14.9552 258.911 14.9552C257.06 14.9552 254.918 15.9716 253.104 18.0405V40.2184H247.877V19.8917C247.877 17.9316 247.623 16.4434 247.078 15.4997Z" fill="#FF9037"/>
<path d="M283.085 40.0006C281.815 39.4924 280.726 38.6213 279.819 37.4235C278.911 36.2256 278.439 34.6285 278.439 32.6685C278.439 29.7284 279.819 27.6231 282.541 26.389C285.263 25.1549 288.857 24.5378 293.249 24.5378H294.991C294.991 20.7265 294.483 18.1494 293.43 16.7701C292.377 15.3908 290.889 14.6648 288.893 14.6648C286.897 14.6648 285.771 15.0278 284.719 15.7538C283.666 16.4797 282.94 17.7501 282.505 19.6013H279.891C279.891 18.2946 279.964 17.242 280.109 16.4797C280.254 15.7175 280.653 15.0278 281.343 14.3745C282.033 13.7211 283.194 13.1766 284.791 12.85C286.388 12.5233 288.167 12.3418 290.054 12.3418C293.176 12.3418 295.681 13.1766 297.495 14.8826C299.31 16.5523 300.218 19.7828 300.218 24.5378V40.2184H297.314L295.281 37.605H294.991C294.301 38.5124 293.285 39.2383 291.906 39.8554C290.563 40.4725 288.857 40.7991 286.86 40.7991C284.864 40.7991 284.356 40.5451 283.085 40.0006ZM292.668 37.242C293.503 36.6249 294.301 35.7538 294.991 34.7011V26.8609H293.249C290.381 26.8609 288.131 27.4053 286.461 28.4579C284.791 29.5106 283.956 30.9262 283.956 32.6685C283.956 34.4108 284.501 35.8264 285.554 36.7701C286.606 37.7138 287.913 38.1857 289.474 38.1857C291.034 38.1857 291.833 37.859 292.668 37.242Z" fill="#FF9037"/>
<path d="M187.804 50.2002C187.659 49.9461 187.405 49.8373 187.006 49.8373H186.715V49.5469H192.523C193.358 49.5469 193.757 49.9461 193.757 50.7084V51.7973H193.467C193.467 50.6721 192.85 50.1276 191.652 50.1276H189.329V53.9752H192.596V54.5559H189.329V59.1295H188.022V51.2892C188.022 50.781 187.949 50.418 187.804 50.2002Z" fill="#3D3D3D"/>
<path d="M200.653 58.8026C200.182 58.476 199.819 58.0767 199.565 57.5322C199.31 56.9877 199.202 56.407 199.202 55.7173C199.202 55.0277 199.31 54.4469 199.565 53.9024C199.819 53.358 200.182 52.9224 200.653 52.632C201.125 52.3054 201.706 52.1602 202.359 52.1602C203.013 52.1602 203.594 52.3054 204.065 52.632C204.537 52.9587 204.9 53.358 205.154 53.9024C205.408 54.4469 205.517 55.0277 205.517 55.7173C205.517 56.407 205.408 56.9877 205.154 57.5322C204.9 58.0767 204.537 58.5123 204.065 58.8026C203.594 59.1293 203.013 59.2745 202.359 59.2745C201.706 59.2745 201.125 59.1293 200.653 58.8026ZM203.303 58.2945C203.594 58.0404 203.775 57.6774 203.957 57.2055C204.102 56.7337 204.174 56.2618 204.174 55.681C204.174 55.1003 204.102 54.6284 203.957 54.1565C203.811 53.6847 203.594 53.358 203.303 53.0676C203.013 52.8135 202.722 52.6683 202.359 52.6683C201.996 52.6683 201.67 52.8135 201.416 53.0676C201.125 53.3217 200.944 53.6847 200.762 54.1565C200.617 54.6284 200.545 55.1003 200.545 55.681C200.545 56.2618 200.617 56.7337 200.762 57.2055C200.908 57.6774 201.125 58.0041 201.416 58.2945C201.706 58.5486 201.996 58.6937 202.359 58.6937C202.722 58.6937 203.049 58.5486 203.303 58.2945Z" fill="#3D3D3D"/>
<path d="M213.031 58.6931C212.559 58.2938 212.341 57.6404 212.341 56.6604V54.047C212.341 53.5388 212.269 53.1758 212.124 52.958C211.978 52.704 211.724 52.5951 211.325 52.5951H211.18V52.3047H212.341C212.704 52.3047 212.958 52.341 213.14 52.4499C213.321 52.5588 213.43 52.704 213.539 52.958C213.612 53.2121 213.648 53.5751 213.648 54.047V56.6604C213.648 57.3501 213.793 57.8219 214.12 58.1486C214.41 58.4753 214.81 58.6205 215.245 58.6205C215.681 58.6205 216.225 58.3664 216.697 57.8582V52.3047H218.004V59.1286H217.278L216.77 58.5479H216.697C216.479 58.7657 216.225 58.9108 215.899 59.056C215.572 59.2012 215.209 59.2738 214.81 59.2738C214.084 59.2738 213.503 59.0923 213.031 58.6931Z" fill="#3D3D3D"/>
<path d="M225.191 52.9587C225.046 52.7046 224.791 52.5957 224.392 52.5957H224.102V52.3054H225.409C225.771 52.3054 226.026 52.3417 226.243 52.4505C226.425 52.5594 226.57 52.7046 226.643 52.8861H226.715C226.933 52.6683 227.187 52.5231 227.514 52.3779C227.84 52.2328 228.203 52.1602 228.603 52.1602C229.329 52.1602 229.909 52.3416 230.381 52.7409C230.853 53.1402 231.071 53.7936 231.071 54.7736V59.1293H229.764V54.7736C229.764 54.0839 229.619 53.6121 229.292 53.2854C228.966 52.9587 228.603 52.8135 228.167 52.8135C227.732 52.8135 227.187 53.0676 226.715 53.5758V59.1293H225.409V54.0476C225.409 53.5395 225.336 53.1765 225.191 52.9587Z" fill="#3D3D3D"/>
<path d="M238.476 58.2583C238.04 57.605 237.786 56.7338 237.786 55.7175C237.786 54.7011 238.004 53.83 238.476 53.1766C238.948 52.5233 239.637 52.1603 240.545 52.1603C241.452 52.1603 241.234 52.1966 241.525 52.2692C241.815 52.3418 242.069 52.4507 242.36 52.5959V51.2892C242.36 50.781 242.287 50.418 242.142 50.2002C241.997 49.9461 241.743 49.8373 241.343 49.8373H241.053V49.5469H242.36C242.723 49.5469 242.977 49.5832 243.158 49.6921C243.34 49.801 243.449 49.9461 243.557 50.2002C243.63 50.4543 243.666 50.8173 243.666 51.2892V59.1295H242.94L242.432 58.4761H242.36C242.142 58.7302 241.888 58.9117 241.597 59.0569C241.307 59.202 240.908 59.2746 240.4 59.2746C239.565 59.2746 238.911 58.948 238.476 58.2583ZM241.743 58.4761C241.96 58.3309 242.142 58.1131 242.36 57.8227V53.1766C242.069 53.0314 241.815 52.9226 241.597 52.85C241.38 52.7774 241.162 52.7411 240.98 52.7411C240.363 52.7411 239.891 52.9952 239.601 53.5396C239.311 54.0841 239.165 54.81 239.165 55.7175C239.165 56.6249 239.311 57.3146 239.601 57.859C239.891 58.4035 240.291 58.6939 240.835 58.6939C241.38 58.6939 241.525 58.6213 241.743 58.4761Z" fill="#3D3D3D"/>
<path d="M251.543 59.093C251.216 58.9478 250.962 58.73 250.708 58.4397C250.49 58.1493 250.381 57.75 250.381 57.2418C250.381 56.5159 250.708 55.9714 251.398 55.681C252.087 55.3907 252.958 55.2092 254.084 55.2092H254.519C254.519 54.2654 254.374 53.6121 254.12 53.2491C253.866 52.8861 253.467 52.7409 252.995 52.7409C252.523 52.7409 252.196 52.8498 251.942 53.0313C251.688 53.2128 251.506 53.5395 251.398 53.975H250.744C250.744 53.6484 250.744 53.3943 250.817 53.2128C250.889 53.0313 250.962 52.8498 251.107 52.6683C251.289 52.4868 251.579 52.3779 251.978 52.2691C252.378 52.1602 252.813 52.1602 253.285 52.1602C254.084 52.1602 254.701 52.3779 255.136 52.7772C255.608 53.2128 255.826 54.0113 255.826 55.2092V59.1293H255.1L254.592 58.476H254.519C254.338 58.6937 254.084 58.8752 253.757 59.0567C253.43 59.2019 252.995 59.2745 252.486 59.2745C251.978 59.2745 251.869 59.2019 251.543 59.093ZM253.938 58.4034C254.156 58.2582 254.338 58.0404 254.519 57.75V55.7899H254.084C253.358 55.7899 252.813 55.9351 252.378 56.1892C251.978 56.4433 251.761 56.8063 251.761 57.2418C251.761 57.6774 251.906 58.0404 252.16 58.2582C252.414 58.5123 252.741 58.6211 253.14 58.6211C253.539 58.6211 253.721 58.5485 253.938 58.4034Z" fill="#3D3D3D"/>
<path d="M263.666 58.8021C263.339 58.4754 263.194 58.0035 263.194 57.3865V52.8856H262.178V52.3048H263.194V50.9981L263.92 50.127H264.501V52.3048H266.243V52.8856H264.501V57.3865C264.501 58.2576 264.828 58.6932 265.517 58.6932C266.207 58.6932 265.953 58.6932 266.098 58.6206C266.243 58.5843 266.425 58.5117 266.606 58.4028L266.751 58.6932C266.534 58.8747 266.28 58.9836 266.026 59.0925C265.771 59.2014 265.408 59.274 264.937 59.274C264.465 59.274 263.957 59.1288 263.666 58.8021Z" fill="#3D3D3D"/>
<path d="M272.922 52.9595C272.777 52.7054 272.523 52.5965 272.124 52.5965H271.833V52.3061H273.14C273.503 52.3061 273.757 52.3424 273.939 52.4513C274.12 52.5602 274.229 52.7054 274.338 52.9595C274.41 53.2136 274.447 53.5766 274.447 54.0484V59.1301H273.14V54.0484C273.14 53.5403 273.067 53.1773 272.922 52.9595ZM273.104 51.1446C272.958 50.9631 272.85 50.7453 272.85 50.4913C272.85 50.2372 272.922 50.1283 273.031 50.0194C273.14 49.9105 273.321 49.8379 273.503 49.8379C273.684 49.8379 273.902 49.9468 274.084 50.1283C274.229 50.3098 274.338 50.5275 274.338 50.7816C274.338 51.0357 274.265 51.1446 274.156 51.2535C274.047 51.3624 273.866 51.435 273.684 51.435C273.503 51.435 273.285 51.3261 273.104 51.1446Z" fill="#3D3D3D"/>
<path d="M282.65 58.8026C282.178 58.476 281.815 58.0767 281.561 57.5322C281.307 56.9877 281.198 56.407 281.198 55.7173C281.198 55.0277 281.307 54.4469 281.561 53.9024C281.815 53.358 282.178 52.9224 282.65 52.632C283.122 52.3054 283.702 52.1602 284.356 52.1602C285.009 52.1602 285.59 52.3054 286.062 52.632C286.534 52.9587 286.897 53.358 287.151 53.9024C287.405 54.4469 287.514 55.0277 287.514 55.7173C287.514 56.407 287.405 56.9877 287.151 57.5322C286.897 58.0767 286.534 58.5123 286.062 58.8026C285.59 59.1293 285.009 59.2745 284.356 59.2745C283.702 59.2745 283.122 59.1293 282.65 58.8026ZM285.336 58.2945C285.626 58.0404 285.808 57.6774 285.989 57.2055C286.134 56.7337 286.207 56.2618 286.207 55.681C286.207 55.1003 286.134 54.6284 285.989 54.1565C285.844 53.6847 285.626 53.358 285.336 53.0676C285.045 52.8135 284.755 52.6683 284.392 52.6683C284.029 52.6683 283.702 52.8135 283.448 53.0676C283.158 53.3217 282.976 53.6847 282.795 54.1565C282.65 54.6284 282.577 55.1003 282.577 55.681C282.577 56.2618 282.65 56.7337 282.795 57.2055C282.94 57.6774 283.158 58.0041 283.448 58.2945C283.739 58.5486 284.029 58.6937 284.392 58.6937C284.755 58.6937 285.082 58.5486 285.336 58.2945Z" fill="#3D3D3D"/>
<path d="M294.374 52.9587C294.229 52.7046 293.975 52.5957 293.576 52.5957H293.285V52.3054H294.592C294.955 52.3054 295.209 52.3417 295.427 52.4505C295.608 52.5594 295.753 52.7046 295.826 52.8861H295.899C296.116 52.6683 296.37 52.5231 296.697 52.3779C297.024 52.2328 297.387 52.1602 297.786 52.1602C298.512 52.1602 299.093 52.3416 299.565 52.7409C300.037 53.1402 300.254 53.7936 300.254 54.7736V59.1293H298.948V54.7736C298.948 54.0839 298.802 53.6121 298.476 53.2854C298.149 52.9587 297.786 52.8135 297.35 52.8135C296.915 52.8135 296.37 53.0676 295.899 53.5758V59.1293H294.592V54.0476C294.592 53.5395 294.519 53.1765 294.374 52.9587Z" fill="#3D3D3D"/>
</svg>
