<svg width="557" height="60" viewBox="0 0 557 60" fill="none" xmlns="http://www.w3.org/2000/svg">
<g clip-path="url(#clip0_4353_78656)">
<mask id="mask0_4353_78656" style="mask-type:luminance" maskUnits="userSpaceOnUse" x="0" y="0" width="49" height="60">
<path d="M48.0678 0H0V59.4845H48.0678V0Z" fill="white"/>
</mask>
<g mask="url(#mask0_4353_78656)">
<path d="M0 59.4846V0.000100392H27.2635C27.2635 0.000100392 41.6878 -0.158525 46.6016 12.1349C48.8604 17.7661 48.4245 24.1508 45.3732 29.4251C42.5596 34.2632 37.0911 39.3392 26.3521 39.5375L15.5735 39.5771C15.5735 39.5771 11.69 50.324 10.9371 57.0259C10.9371 57.0259 11.7297 34.977 24.4104 18.2024C24.4104 18.2024 24.9255 20.3438 24.4896 22.287C24.4896 22.287 25.5596 21.7714 25.6388 21.1369C25.6388 21.1369 26.0351 23.7146 23.8952 26.9664C23.8952 26.9664 25.1633 26.6888 25.8766 26.0543C25.8766 26.0543 25.9558 27.9578 23.4197 30.4562C23.4197 30.4562 25.4803 30.0596 26.154 29.1475C26.154 29.1475 25.1633 33.3907 23.3404 34.739C23.3404 34.739 32.2169 32.0028 29.2449 19.3524C29.2449 19.3524 30.7507 19.63 31.5433 22.287C31.5433 22.287 31.9792 20.7007 31.464 20.0265C31.464 20.0265 33.5246 21.2162 34.119 24.2301C34.119 24.2301 34.4361 23.5163 34.4361 22.6835C34.4361 22.6835 36.0608 23.437 36.8929 25.9353C36.8929 25.9353 37.2892 25.6181 37.21 24.587C37.21 24.587 39.3102 26.0147 39.6668 27.4819C39.6668 27.4819 40.1027 23.1991 37.21 20.5024C37.21 20.5024 38.2403 20.5024 38.8347 21.018C38.8347 21.018 37.2496 17.092 32.8113 15.5454L33.9209 15.2678C33.9209 15.2678 33.168 14.4747 28.4127 14.1574L30.4337 13.6815C30.4337 13.6815 29.3638 13.0074 29.0468 13.0867C29.0468 13.0867 32.2169 12.4918 34.5549 13.3643C34.5549 13.3643 34.119 12.4522 32.6132 12.2142C32.6132 12.2142 35.506 11.8177 37.7647 13.047C37.7647 13.047 35.3475 9.59693 29.7204 10.2711L30.2752 9.7159C30.2752 9.7159 28.2542 9.20037 25.8369 11.4211C25.8369 11.4211 25.4803 8.56587 23.6971 7.09858L23.6178 8.36759C23.6178 8.36759 20.2099 4.63989 15.1376 5.43302C15.1376 5.43302 17.5945 6.02786 18.3474 6.82099L16.2075 7.01927C16.2075 7.01927 19.4173 8.20896 20.4476 9.20037L19.5362 9.27968C19.5362 9.27968 21.9535 10.6677 21.795 11.9367C21.795 11.9367 19.4173 9.59693 17.0793 9.12106L17.6737 9.91418C17.6737 9.91418 8.40097 7.89171 6.06296 12.6108C6.06296 12.6108 10.9371 11.1039 11.9674 11.5797C11.9674 11.5797 10.3823 12.6505 9.78792 13.4436C9.78792 13.4436 14.3451 12.0556 16.1283 12.4918L15.1376 13.6419C15.1376 13.6419 19.9721 13.1263 20.6458 14.3557C20.6458 14.3557 9.62941 14.6333 11.5315 26.2922C11.5315 26.2922 12.0863 23.1197 13.711 21.5731C13.711 21.5731 13.6318 22.6439 14.0677 23.5956C14.0677 23.5956 14.8602 19.3524 16.1679 18.9162C16.1679 18.9162 15.4546 20.9783 16.366 21.7318C16.366 21.7318 17.5549 17.6472 18.1493 17.6868C18.1493 17.6868 17.753 18.7575 17.8719 19.7886C17.8719 19.7886 20.8439 17.4092 22.112 17.2109C22.112 17.2109 8.32172 31.6459 5.74595 59.326H0V59.4846Z" fill="url(#paint0_linear_4353_78656)"/>
</g>
<path d="M50.7624 54.646C50.485 55.3995 50.4058 56.034 50.6039 56.5495C50.8021 57.065 51.1191 57.4616 51.555 57.7392C51.9909 58.0168 52.4268 58.1358 52.9023 58.1358H53.4175V58.6909H41.5293V58.1358H42.0444C42.8766 58.1358 43.788 57.8582 44.6995 57.3426C45.6109 56.7874 46.3638 55.915 46.9582 54.646H50.7624ZM62.6902 18.7174L62.928 25.4986L49.1773 58.5323H45.1354L59.52 26.0141C59.6389 25.7762 59.8371 25.3797 60.1145 24.7451C60.3918 24.1503 60.6692 23.4365 60.9862 22.6434C61.3033 21.8502 61.5807 21.1364 61.8581 20.383C62.1354 19.6691 62.2543 19.114 62.2543 18.6777H62.6902V18.7174ZM68.5154 45.4854V47.8251H52.189V45.4854H68.5154ZM62.6902 18.7174L80.7602 58.3737H70.8138L59.2823 29.4642L62.6902 18.7174ZM69.3476 54.646H79.0563C79.6903 55.915 80.4432 56.7874 81.315 57.3426C82.1868 57.8978 83.0586 58.1358 83.9304 58.1358H84.3663V58.6909H66.7322V58.1358H67.2473C68.0003 58.1358 68.6343 57.8185 69.1891 57.2237C69.7439 56.6288 69.8231 55.7564 69.3476 54.646Z" fill="#006868"/>
<path d="M89.5972 23.9127H89.4387C89.399 22.961 89.0424 22.1282 88.3687 21.454C87.6951 20.7799 86.8629 20.423 85.9119 20.423H85.1986V19.8281H89.6368V23.9127H89.5972ZM89.5972 54.6464V58.6913H85.1589V58.1361H85.8722C86.8233 58.1361 87.6554 57.7792 88.3291 57.1051C89.0028 56.4309 89.3594 55.5981 89.399 54.6464H89.5972ZM97.7604 19.8281V58.6913H89.4387V19.8281H97.7604ZM97.6019 23.9127V19.8281H102.04V20.3833C102 20.3833 101.763 20.3833 101.327 20.3833C100.376 20.3833 99.5436 20.7402 98.8699 21.4144C98.1963 22.0885 97.8396 22.9213 97.8 23.8731H97.6019V23.9127ZM112.422 56.3119L113.77 58.6913H97.6415V56.3119H112.422ZM116.464 47.3893L113.928 58.731H103.031L105.012 56.3516C106.875 56.3516 108.499 55.9947 109.886 55.2809C111.273 54.5671 112.502 53.536 113.492 52.1877C114.483 50.8394 115.276 49.2531 115.87 47.4289H116.464V47.3893Z" fill="#006868"/>
<path d="M122.725 54.6459V58.6909H116.583V58.1357C116.623 58.1357 116.9 58.1357 117.455 58.1357C118.446 58.1357 119.357 57.8184 120.11 57.2236C120.863 56.6287 121.339 55.7563 121.497 54.6459H122.725ZM126.133 19.0742H126.649L128.59 24.6261L124.865 58.7305H121.021L126.133 19.0742ZM125.182 55.558C125.182 55.5977 125.182 55.6373 125.182 55.677C125.182 55.7166 125.182 55.7563 125.182 55.8356C125.182 56.4305 125.38 56.9856 125.816 57.4615C126.252 57.9771 126.767 58.215 127.362 58.215H128.234V58.7305H124.786V55.558H125.182ZM126.609 19.0742L144.758 48.8958L141.588 59.8409L125.182 32.2401L126.609 19.0742ZM160.332 19.0742L160.768 25.1416L144.283 53.7338C143.53 55.0425 143.015 56.1529 142.658 57.065C142.301 57.9771 142.143 58.9288 142.143 59.8409H141.588L139.409 55.0028L160.332 19.0742ZM156.844 55.558H157.241V58.7305H153.872V58.215H154.705C155.339 58.215 155.854 57.9771 156.25 57.4615C156.646 56.946 156.844 56.4305 156.844 55.8356C156.844 55.7563 156.844 55.7166 156.844 55.677C156.844 55.5977 156.844 55.5977 156.844 55.558ZM160.847 19.0742L166.117 58.7305H157.201L154.427 33.1919L160.371 19.0742H160.847ZM164.413 54.6459H165.562C165.761 55.7563 166.236 56.6287 166.989 57.2236C167.742 57.8184 168.653 58.1357 169.604 58.1357H170.476V58.6909H164.374V54.6459H164.413Z" fill="#006868"/>
<path d="M185.297 19.0742C186.05 19.0742 186.961 19.1139 188.031 19.1932C189.141 19.2725 190.25 19.3518 191.4 19.5104C192.549 19.6294 193.579 19.788 194.451 19.907C195.323 20.026 195.917 20.1846 196.234 20.3036L195.56 27.7986H195.006C195.006 25.8554 194.292 24.3089 192.866 23.1588C191.439 22.0088 189.537 21.4139 187.159 21.4139C185.02 21.4139 183.276 21.9295 181.968 22.9605C180.661 23.9916 179.947 25.2606 179.868 26.7279C179.828 27.8383 180.185 28.79 180.938 29.6228C181.691 30.4556 182.602 31.209 183.751 31.8832L194.332 38.7834C196.036 39.7352 197.304 41.0042 198.176 42.5508C199.048 44.0973 199.404 45.9215 199.325 47.9837C199.127 51.5924 197.74 54.4476 195.164 56.4305C192.588 58.4529 189.062 59.4443 184.623 59.4443C182.999 59.4443 181.413 59.3254 179.868 59.0478C178.323 58.7702 176.975 58.3736 175.786 57.8977C174.598 57.3822 173.647 56.7874 172.973 56.1132C172.695 55.2804 172.537 54.3287 172.577 53.1786C172.616 52.0286 172.775 50.8786 173.092 49.6889C173.409 48.4992 173.805 47.5078 174.281 46.7543H174.796C174.637 48.6578 174.994 50.4027 175.826 51.9889C176.658 53.6149 177.887 54.8839 179.472 55.8356C181.096 56.7874 182.999 57.2236 185.218 57.1839C187.675 57.1443 189.537 56.5098 190.884 55.3201C192.232 54.1304 192.866 52.6631 192.866 50.9579C192.866 49.8079 192.509 48.7768 191.835 47.8647C191.162 46.9526 190.013 46.0405 188.467 45.2077L178.758 38.7834C176.817 37.673 175.39 36.2454 174.479 34.5005C173.607 32.7556 173.25 30.8918 173.488 28.8297C173.647 26.8865 174.201 25.2209 175.152 23.7537C176.103 22.2864 177.451 21.1363 179.115 20.3432C180.978 19.4708 182.999 19.0742 185.297 19.0742ZM196.353 19.6294L196.234 20.7794H189.696V19.6294H196.353Z" fill="#006868"/>
<path d="M203.129 1.66602C203.644 1.8643 204.476 2.10224 205.546 2.30052C206.616 2.4988 207.845 2.69708 209.152 2.85571C210.46 3.01433 211.688 3.09364 212.798 3.09364L203.129 3.96608V1.66602ZM253.852 3.09364V6.42477H203.129V3.09364H253.852ZM211.926 6.18684V6.42477C209.509 6.46443 207.567 7.2179 206.101 8.68518C204.635 10.1525 203.921 12.0956 203.921 14.594V15.4664L203.129 15.5457V6.18684H211.926ZM222.784 52.902V58.6918H216.444V57.8987H217.474C218.861 57.8987 220.01 57.4228 221.001 56.4314C221.991 55.44 222.507 54.29 222.546 52.902H222.784ZM234.434 3.41089V58.6918H222.546V3.41089H234.434ZM234.197 52.902H234.434C234.474 54.29 234.989 55.44 235.98 56.4314C236.971 57.4228 238.12 57.8987 239.507 57.8987H240.537V58.6918H234.197V52.902ZM253.852 1.66602V3.96608L244.183 3.09364C245.332 3.09364 246.56 3.01433 247.868 2.85571C249.176 2.69708 250.365 2.4988 251.474 2.30052C252.584 2.10224 253.376 1.90395 253.852 1.66602ZM253.852 6.18684V15.5457L253.059 15.4664V14.594C253.059 12.0956 252.346 10.1525 250.88 8.68518C249.414 7.2179 247.472 6.46443 244.975 6.42477V6.18684H253.852Z" fill="url(#paint1_linear_4353_78656)"/>
<path d="M279.411 19.0742C283.85 19.0742 287.694 19.907 290.983 21.5329C294.272 23.1985 296.808 25.4985 298.591 28.5124C300.374 31.5263 301.286 35.0954 301.286 39.2989C301.286 43.4629 300.374 47.0319 298.591 50.0458C296.808 53.0597 294.272 55.3994 290.983 57.0253C287.694 58.6909 283.85 59.484 279.411 59.484C274.973 59.484 271.129 58.6512 267.84 57.0253C264.551 55.3598 262.055 53.0597 260.271 50.0458C258.488 47.0319 257.616 43.4629 257.616 39.2593C257.616 35.0954 258.488 31.5263 260.271 28.5124C262.055 25.4985 264.551 23.1588 267.84 21.5329C271.09 19.907 274.973 19.0742 279.411 19.0742ZM279.411 57.1443C282.027 57.1443 284.286 56.4305 286.227 54.9632C288.129 53.4959 289.596 51.4338 290.626 48.7768C291.656 46.1198 292.171 42.9473 292.171 39.2989C292.171 35.6506 291.656 32.4781 290.626 29.8211C289.596 27.1641 288.129 25.102 286.227 23.6347C284.325 22.1674 282.066 21.4536 279.411 21.4536C276.836 21.4536 274.577 22.1674 272.675 23.6347C270.773 25.102 269.306 27.1641 268.276 29.8211C267.246 32.4781 266.731 35.6506 266.731 39.2989C266.731 42.9473 267.246 46.1198 268.276 48.7768C269.306 51.4338 270.773 53.4959 272.675 54.9632C274.577 56.4305 276.796 57.1443 279.411 57.1443Z" fill="#006868"/>
<path d="M314.68 23.8328H305.684C305.209 22.6035 304.496 21.731 303.505 21.1758C302.554 20.6206 301.642 20.3827 300.771 20.3827H300.374V19.8275H317.295V20.3827H316.78C316.067 20.3827 315.472 20.6603 314.917 21.2551C314.402 21.8896 314.323 22.7224 314.68 23.8328ZM304.377 20.1844H313.372L322.248 45.2869L318.92 59.7218L304.377 20.1844ZM332.036 18.9551L333.027 24.4673L320.743 53.5354C320.307 54.8044 319.99 55.8751 319.752 56.8268C319.554 57.7389 319.435 58.7303 319.395 59.7218H318.88L317.335 53.0991L331.521 18.9551H332.036ZM332.036 18.9947L344.242 45.961L341.587 59.6821L328.232 30.0985L332.036 18.9947ZM353.514 20.1844L343.092 53.5354C342.736 54.844 342.458 55.9544 342.3 56.9062C342.141 57.8579 342.102 58.77 342.181 59.7218H341.587L340.041 54.2095L349.75 20.1844H353.514ZM348.68 23.8328C348.957 22.7224 348.878 21.8896 348.402 21.2948C347.927 20.7 347.293 20.4224 346.58 20.4224H346.064V19.8275H357.675V20.3827H357.239C356.407 20.3827 355.456 20.6603 354.465 21.1758C353.475 21.731 352.761 22.6035 352.365 23.8328H348.68Z" fill="#006868"/>
<path d="M362.391 54.7661V58.6921H357.794V58.1369C358.468 58.1369 358.824 58.1369 358.864 58.1369C359.775 58.1369 360.568 57.8196 361.241 57.1455C361.915 56.4713 362.232 55.6782 362.232 54.7661H362.391ZM362.113 18.9961L370.118 27.5222L370.158 58.7317H362.232V25.9359C362.232 23.8738 361.994 21.5341 361.559 18.9961H362.113ZM362.113 18.9961L397.5 52.7436L398.174 59.4455L362.787 25.7377L362.113 18.9961ZM370.158 54.7661C370.158 55.6782 370.475 56.4713 371.148 57.1455C371.822 57.8196 372.614 58.1369 373.526 58.1369C373.566 58.1369 373.922 58.1369 374.596 58.1369V58.6921H369.999V54.7661H370.158ZM385.652 19.8289H390.249V23.7945H390.13C390.09 22.8428 389.733 22.01 389.099 21.3755C388.465 20.741 387.633 20.4237 386.682 20.4237C386.008 20.4237 385.652 20.4237 385.612 20.4237V19.8289H385.652ZM398.016 19.8289V52.3471C398.016 53.735 398.055 54.9644 398.174 56.0351C398.293 57.1455 398.451 58.2558 398.689 59.4455H398.174L390.13 50.4436V19.8289H398.016ZM402.454 19.8289V20.3841H401.463C400.552 20.3841 399.759 20.7013 399.085 21.3358C398.412 21.9703 398.055 22.8031 398.016 23.7549H397.857V19.8289H402.454Z" fill="#006868"/>
<path d="M409.983 23.9127H409.825C409.785 22.961 409.428 22.1282 408.755 21.454C408.081 20.7799 407.249 20.423 406.298 20.423H405.585V19.8281H410.023V23.9127H409.983ZM409.983 54.6463V58.6913H405.545V58.1361H406.258C407.209 58.1361 408.041 57.7792 408.715 57.105C409.389 56.4309 409.745 55.5981 409.785 54.6463H409.983ZM418.146 19.8281V58.6913H409.825V19.8281H418.146ZM436.613 38.2286V40.5684H417.592V38.2286H436.613ZM417.988 23.9127V19.8281H422.426V20.3833C422.386 20.3833 422.149 20.3833 421.713 20.3833C420.762 20.3833 419.93 20.7402 419.256 21.4144C418.582 22.0885 418.226 22.9213 418.186 23.8731H417.988V23.9127ZM417.988 54.6463H418.146C418.186 55.5981 418.543 56.4309 419.216 57.105C419.89 57.7792 420.722 58.1361 421.673 58.1361C422.109 58.1361 422.347 58.1361 422.386 58.1361V58.6913H417.948V54.6463H417.988ZM436.296 23.9127H436.137C436.137 22.961 435.78 22.1282 435.067 21.454C434.354 20.7799 433.522 20.423 432.571 20.423C432.135 20.423 431.897 20.423 431.857 20.423V19.8281H436.296V23.9127ZM436.296 54.6463V58.6913H431.857V58.1361C431.897 58.1361 432.135 58.1361 432.571 58.1361C433.522 58.1361 434.354 57.7792 435.067 57.105C435.78 56.4309 436.137 55.5981 436.137 54.6463H436.296ZM444.459 19.8281V58.6913H436.137V19.8281H444.459ZM444.261 23.9127V19.8281H448.699V20.3833H447.986C447.035 20.3833 446.202 20.7402 445.529 21.4144C444.855 22.0885 444.498 22.9213 444.459 23.8731H444.261V23.9127ZM444.261 54.6463H444.419C444.459 55.5981 444.815 56.4309 445.489 57.105C446.163 57.7792 446.995 58.1361 447.946 58.1361H448.659V58.6913H444.221V54.6463H444.261Z" fill="#006868"/>
<path d="M458.407 54.646C458.13 55.3995 458.051 56.034 458.249 56.5495C458.447 57.065 458.764 57.4616 459.2 57.7392C459.636 58.0168 460.072 58.1358 460.547 58.1358H461.062V58.6909H449.174V58.1358H449.689C450.522 58.1358 451.433 57.8582 452.344 57.3426C453.256 56.7874 454.009 55.915 454.603 54.646H458.407ZM470.335 18.7174L470.573 25.4986L456.822 58.5323H452.78L467.165 26.0141C467.284 25.7762 467.482 25.3797 467.759 24.7451C468.037 24.1106 468.314 23.4365 468.631 22.6434C468.948 21.8502 469.226 21.1364 469.503 20.383C469.78 19.6691 469.899 19.114 469.899 18.6777H470.335V18.7174ZM476.16 45.4854V47.8251H459.834V45.4854H476.16ZM470.335 18.7174L488.405 58.3737H478.459L466.927 29.4642L470.335 18.7174ZM476.993 54.646H486.701C487.335 55.915 488.088 56.7874 488.96 57.3426C489.832 57.8978 490.704 58.1358 491.575 58.1358H492.011V58.6909H474.377V58.1358H474.892C475.645 58.1358 476.279 57.8185 476.834 57.2237C477.389 56.6288 477.468 55.7564 476.993 54.646Z" fill="#006868"/>
<path d="M497.242 23.9127H497.083C497.044 22.961 496.687 22.1282 496.014 21.454C495.34 20.7799 494.508 20.423 493.557 20.423H492.843V19.8281H497.282V23.9127H497.242ZM497.242 54.6464V58.6913H492.804V58.1361H493.517C494.468 58.1361 495.3 57.7792 495.974 57.1051C496.648 56.4309 497.004 55.5981 497.044 54.6464H497.242ZM505.405 19.8281V58.6913H497.083V19.8281H505.405ZM505.247 23.9127V19.8281H509.685V20.3833C509.645 20.3833 509.408 20.3833 508.972 20.3833C508.021 20.3833 507.188 20.7402 506.515 21.4144C505.841 22.0885 505.484 22.9213 505.445 23.8731H505.247V23.9127ZM520.067 56.3119L521.415 58.6913H505.247V56.3119H520.067ZM524.109 47.3893L521.573 58.731H510.715L512.697 56.3516C514.559 56.3516 516.184 55.9947 517.571 55.2809C518.958 54.5671 520.186 53.536 521.177 52.1877C522.167 50.8394 522.96 49.2531 523.554 47.4289H524.109V47.3893Z" fill="#006868"/>
<path d="M530.173 25.1817H530.014C529.975 24.2299 529.618 23.3971 528.944 22.723C528.271 22.0488 527.438 21.6919 526.487 21.6919H525.774V21.1367H530.212V25.1817H530.173ZM530.173 55.9153V59.9602H525.734V59.405H526.448C527.399 59.405 528.231 59.0481 528.905 58.374C529.578 57.6998 529.935 56.867 529.975 55.9153H530.173ZM538.296 21.1367V59.9999H529.975V21.1367H538.296ZM538.138 25.1817V21.1367H542.576V21.6919C542.536 21.6919 542.299 21.6919 541.863 21.6919C540.912 21.6919 540.079 22.0488 539.406 22.723C538.732 23.3971 538.375 24.2299 538.336 25.1817H538.138ZM552.958 57.5808L554.306 59.9602H538.138V57.5808H552.958ZM557 48.6582L554.464 59.9999H543.606L545.588 57.6205C547.45 57.6205 549.075 57.2636 550.462 56.5498C551.849 55.836 553.077 54.8049 554.068 53.4566C555.059 52.1083 555.851 50.522 556.445 48.6978H557V48.6582Z" fill="#006868"/>
</g>
<defs>
<linearGradient id="paint0_linear_4353_78656" x1="0" y1="29.7423" x2="48.0567" y2="29.7423" gradientUnits="userSpaceOnUse">
<stop offset="2.02456e-07" stop-color="#006666"/>
<stop offset="1" stop-color="#008080"/>
</linearGradient>
<linearGradient id="paint1_linear_4353_78656" x1="203.12" y1="30.1949" x2="253.842" y2="30.1949" gradientUnits="userSpaceOnUse">
<stop offset="2.02456e-07" stop-color="#006666"/>
<stop offset="1" stop-color="#008080"/>
</linearGradient>
<clipPath id="clip0_4353_78656">
<rect width="557" height="60" fill="white"/>
</clipPath>
</defs>
</svg>
