<svg width="158" height="60" viewBox="0 0 158 60" fill="none" xmlns="http://www.w3.org/2000/svg">
<path d="M96.9029 39.1036V39.2358C96.9029 39.4122 96.8145 39.5445 96.5933 39.5445H92.7005V42.5869H96.0625C96.2836 42.5869 96.3721 42.7191 96.3721 42.8955V43.0278C96.3721 43.2483 96.2394 43.3364 96.0625 43.3364H92.7005V46.6875C92.7005 46.9079 92.5677 46.9961 92.3908 46.9961H92.0811C91.86 46.9961 91.7715 46.8638 91.7715 46.6875V39.1036C91.7715 38.8831 91.9042 38.7949 92.0811 38.7949H96.5933C96.7702 38.7949 96.9029 38.8831 96.9029 39.1036Z" fill="#000427"/>
<path d="M97.4351 44.1314C97.4351 42.4118 98.7622 41.0449 100.576 41.0449C102.036 41.0449 103.363 41.8827 103.54 43.7787C103.584 43.9991 103.451 44.0873 103.23 44.0873H98.364C98.2756 45.4101 99.293 46.3801 100.753 46.3801C101.372 46.3801 101.991 46.2037 102.522 45.8069C102.655 45.7187 102.832 45.7187 102.965 45.851L103.053 45.9392C103.186 46.0715 103.186 46.2478 102.965 46.4242C102.257 46.9974 101.461 47.1738 100.709 47.1738C98.7179 47.1738 97.4351 45.7628 97.4351 44.1314ZM102.611 43.3818C102.345 42.1472 101.416 41.7945 100.62 41.7945C99.6911 41.7945 98.7622 42.2795 98.4525 43.3818H102.611Z" fill="#000427"/>
<path d="M104.287 44.1314C104.287 42.4118 105.614 41.0449 107.428 41.0449C108.888 41.0449 110.215 41.8827 110.392 43.7787C110.436 43.9991 110.303 44.0873 110.082 44.0873H105.216C105.128 45.4101 106.145 46.3801 107.605 46.3801C108.224 46.3801 108.843 46.2037 109.374 45.8069C109.507 45.7187 109.684 45.7187 109.817 45.851L109.905 45.9392C110.038 46.0715 110.038 46.2478 109.817 46.4242C109.109 46.9974 108.313 47.1738 107.561 47.1738C105.57 47.1738 104.287 45.7628 104.287 44.1314ZM109.507 43.3818C109.242 42.1472 108.313 41.7945 107.516 41.7945C106.587 41.7945 105.658 42.2795 105.349 43.3818H109.507Z" fill="#000427"/>
<path d="M111.592 46.7305V38.8379C111.592 38.6175 111.725 38.5293 111.901 38.5293H112.167C112.344 38.5293 112.477 38.6616 112.477 38.8379V46.7305C112.477 46.9509 112.344 47.0391 112.167 47.0391H111.901C111.725 47.0391 111.592 46.9068 111.592 46.7305Z" fill="#000427"/>
<path d="M117.961 45.8927V46.7305C117.961 46.9509 117.828 47.0391 117.651 47.0391H117.386C117.209 47.0391 117.076 46.9068 117.076 46.7305V38.8379C117.076 38.6175 117.209 38.5293 117.386 38.5293H117.651C117.872 38.5293 117.961 38.6616 117.961 38.8379V42.3212C118.492 41.4394 119.332 41.0426 120.261 41.0426C122.075 41.0426 123.225 42.4094 123.225 44.129C123.225 45.8045 122.075 47.1714 120.261 47.1714C119.332 47.1714 118.492 46.7746 117.961 45.8927ZM122.296 44.0849C122.296 42.8503 121.5 41.7921 120.173 41.7921C118.89 41.7921 117.961 42.7181 117.961 44.0849C117.961 45.4077 118.89 46.3336 120.173 46.3336C121.5 46.3777 122.296 45.3195 122.296 44.0849Z" fill="#000427"/>
<path d="M124.065 44.1314C124.065 42.4118 125.392 41.0449 127.206 41.0449C128.666 41.0449 129.993 41.8827 130.17 43.7787C130.214 43.9991 130.081 44.0873 129.86 44.0873H124.994C124.905 45.4101 125.923 46.3801 127.383 46.3801C128.002 46.3801 128.621 46.2037 129.152 45.8069C129.285 45.7187 129.462 45.7187 129.595 45.851L129.683 45.9392C129.816 46.0715 129.816 46.2478 129.595 46.4242C128.931 46.9974 128.09 47.1738 127.338 47.1738C125.348 47.1738 124.065 45.7628 124.065 44.1314ZM129.241 43.3818C128.975 42.1472 128.046 41.7945 127.25 41.7945C126.321 41.7945 125.392 42.2795 125.082 43.3818H129.241Z" fill="#000427"/>
<path d="M131.456 45.1863V41.8793H130.659C130.527 41.8793 130.482 41.8352 130.482 41.703V41.3502C130.482 41.2179 130.527 41.1739 130.659 41.1739H131.456L131.633 39.6747C131.677 39.4983 131.765 39.4102 131.942 39.4102H132.075C132.252 39.4102 132.34 39.4983 132.34 39.6747V41.1739H134.066C134.198 41.1739 134.243 41.262 134.243 41.3502V41.6589C134.243 41.7911 134.154 41.8352 134.066 41.8352H132.34V45.2303C132.34 46.1122 132.738 46.3327 133.181 46.3327C133.623 46.3327 134.021 46.0681 134.021 45.539C134.021 45.4949 134.021 45.4067 133.977 45.3185C133.977 45.1863 134.021 45.0981 134.154 45.0981H134.552C134.641 45.0981 134.729 45.1422 134.773 45.2303C134.818 45.4067 134.818 45.6272 134.818 45.6272C134.818 46.4208 134.243 47.0822 133.181 47.0822C132.34 47.1704 131.456 46.7295 131.456 45.1863Z" fill="#000427"/>
<path d="M136.053 45.1863V41.8793H135.257C135.124 41.8793 135.08 41.8352 135.08 41.703V41.3502C135.08 41.2179 135.124 41.1739 135.257 41.1739H136.053L136.23 39.6747C136.274 39.4983 136.362 39.4102 136.539 39.4102H136.672C136.849 39.4102 136.938 39.4983 136.938 39.6747V41.1739H138.663C138.795 41.1739 138.84 41.262 138.84 41.3502V41.6589C138.84 41.7911 138.751 41.8352 138.663 41.8352H136.938V45.2303C136.938 46.1122 137.336 46.3327 137.778 46.3327C138.22 46.3327 138.619 46.0681 138.619 45.539C138.619 45.4949 138.619 45.4067 138.574 45.3185C138.574 45.1863 138.619 45.0981 138.751 45.0981H139.149C139.238 45.0981 139.326 45.1422 139.371 45.2303C139.415 45.4067 139.415 45.6272 139.415 45.6272C139.415 46.4208 138.84 47.0822 137.778 47.0822C136.938 47.1704 136.053 46.7295 136.053 45.1863Z" fill="#000427"/>
<path d="M139.989 44.1314C139.989 42.4118 141.316 41.0449 143.13 41.0449C144.59 41.0449 145.917 41.8827 146.094 43.7787C146.138 43.9991 146.005 44.0873 145.784 44.0873H140.918C140.83 45.4101 141.847 46.3801 143.307 46.3801C143.926 46.3801 144.546 46.2037 145.076 45.8069C145.209 45.7187 145.386 45.7187 145.519 45.851L145.607 45.9392C145.74 46.0715 145.74 46.2478 145.519 46.4242C144.855 46.9974 144.015 47.1738 143.307 47.1738C141.272 47.1738 139.989 45.7628 139.989 44.1314ZM145.209 43.3818C144.944 42.1472 144.015 41.7945 143.219 41.7945C142.29 41.7945 141.361 42.2795 141.051 43.3818H145.209Z" fill="#000427"/>
<path d="M147.287 46.7328V41.4858C147.287 41.3095 147.419 41.1772 147.596 41.1772H147.862C148.083 41.1772 148.171 41.3095 148.171 41.4858V42.5882C148.393 41.6181 149.056 41.0449 149.897 41.0449C149.985 41.0449 150.118 41.0449 150.162 41.089C150.339 41.1331 150.383 41.2654 150.383 41.4418V41.6622C150.383 41.8827 150.295 41.9709 150.162 41.9268C150.074 41.9268 149.941 41.8827 149.852 41.8827C149.1 41.8827 148.216 42.5441 148.171 44.7928V46.7328C148.171 46.9533 148.039 47.0415 147.862 47.0415H147.596C147.375 47.0415 147.287 46.9092 147.287 46.7328Z" fill="#000427"/>
<path d="M150.338 46.4652C150.338 46.0684 150.648 45.7598 151.046 45.7598C151.444 45.7598 151.753 46.0684 151.753 46.4652C151.753 46.8621 151.444 47.1707 151.046 47.1707C150.648 47.1707 150.338 46.8621 150.338 46.4652Z" fill="#000427"/>
<path d="M151.891 38.2659C151.891 38.3541 151.847 38.3982 151.802 38.3982H151.271V39.9414C151.271 39.9855 151.227 40.0296 151.183 40.0296H151.095C151.05 40.0296 151.006 39.9855 151.006 39.9414V38.3982H150.475C150.431 38.3982 150.387 38.3541 150.387 38.31V38.2659C150.387 38.2218 150.431 38.1777 150.475 38.1777H151.802C151.847 38.1777 151.891 38.2218 151.891 38.2659Z" fill="#000427"/>
<path d="M152.063 39.9414L152.24 38.2659C152.24 38.2218 152.284 38.1777 152.328 38.1777H152.461C152.505 38.1777 152.55 38.1777 152.55 38.2659L153.125 39.6328L153.7 38.2659C153.744 38.2218 153.744 38.1777 153.832 38.1777H153.965C154.009 38.1777 154.054 38.2218 154.054 38.2659L154.231 39.9414C154.231 40.0296 154.186 40.0296 154.142 40.0296H154.054C154.009 40.0296 153.965 39.9855 153.965 39.9414L153.832 38.6187L153.257 39.9414C153.257 39.9855 153.213 40.0296 153.125 40.0296H153.08C153.036 40.0296 152.992 39.9855 152.992 39.9414L152.417 38.6187L152.284 39.9414C152.284 39.9855 152.24 40.0296 152.196 40.0296H152.107C152.107 40.0296 152.063 39.9855 152.063 39.9414Z" fill="#000427"/>
<path d="M47.2714 30.6807C47.2714 32.1357 47.3599 32.1798 49.8371 32.3562V33.1939H41.6533V32.3562C44.1748 32.1798 44.2191 32.1357 44.2191 30.6807V17.6734C44.2191 16.2184 44.1748 16.1743 41.6533 16.042V15.1602H50.5891C55.5879 15.1602 57.0035 17.1443 57.0035 19.6135C57.0035 22.0827 55.0571 23.5818 52.3144 24.0668V24.1109C55.3667 24.7723 56.2515 26.6683 56.6053 28.9611C56.8708 30.7689 57.3574 32.0916 59.5692 32.3562V33.1939H57.1362C55.3667 33.1939 54.2166 32.6207 53.7742 30.9452C53.4645 29.7106 53.1106 27.7265 52.9337 26.9769C52.4029 25.0809 50.9873 24.5959 49.1736 24.5959H47.3156V30.6807H47.2714ZM47.2714 23.5818H49.439C52.2701 23.5818 53.6415 22.5236 53.6415 19.8339C53.6415 16.3947 51.2527 16.0861 49.1293 16.0861C47.2714 16.0861 47.2714 16.2625 47.2714 17.3648V23.5818Z" fill="#000427"/>
<path d="M65.7555 19.3019V20.1838L64.7823 20.2719C64.2957 20.316 64.2515 20.5365 64.5169 20.8892C65.3132 21.9915 66.6845 23.7111 67.2153 24.4166H67.2596C68.4097 23.0498 69.2502 22.0356 69.958 20.9333C70.2677 20.4924 70.1792 20.316 69.6484 20.2719L68.454 20.1397V19.2578H74.249V20.1397C72.7449 20.2719 72.3026 20.3601 71.4621 21.242C70.135 22.5647 68.9406 23.9316 67.8346 25.2544C69.3387 27.2385 70.8427 29.1786 72.1699 30.81C73.0988 31.9564 73.4085 32.1328 75.0895 32.221V33.1028H67.525V32.221L68.8079 32.0887C69.2945 32.0446 69.5156 31.78 69.206 31.4273C68.3655 30.2809 66.9942 28.429 66.1979 27.4149H66.1094C65.092 28.7377 63.8533 30.1486 63.0571 31.5155C62.9244 31.78 62.9244 32.0887 63.411 32.1328L64.7823 32.221V33.1028H58.7661V32.221C60.5356 32.1328 60.8452 31.9123 61.9512 30.6777C63.0128 29.5313 64.2515 28.0322 65.4901 26.4449C64.1188 24.6812 62.7032 22.9175 61.5088 21.3742C60.6683 20.2719 60.2259 20.2278 58.9431 20.1838V19.3019H65.7555Z" fill="#000427"/>
<path d="M85.6693 15.1191V16.001L84.1652 16.1333C83.5017 16.1774 83.369 16.3978 83.6344 17.0592C85.3596 21.3803 87.3945 26.0981 89.1197 30.2869L89.164 30.3751C90.845 26.1863 92.9241 20.9834 94.3839 16.9269C94.5166 16.4419 94.5166 16.1774 93.7204 16.1333L92.1721 16.001V15.1191H98.4979V16.001C96.9496 16.0892 96.5515 16.1333 95.9764 17.3679C94.03 21.8653 91.3758 27.9941 89.2524 33.197H86.9964C84.9172 27.9059 82.6612 22.5708 80.4936 17.5001C79.8742 16.1333 79.4319 16.0451 77.8394 16.001V15.1191H85.6693ZM97.3035 28.3028C96.8612 29.361 96.3746 30.5074 96.1534 31.3451C96.0207 31.8301 96.0649 32.1829 96.6842 32.1829L98.0998 32.3152V33.197H92.3933V32.3152C93.9415 32.227 94.2954 32.0506 94.6936 31.0806C95.8437 28.435 98.1883 22.5267 99.4711 19.3079H101.86C103.231 22.5267 105.664 28.3909 106.859 31.301C107.257 32.227 107.743 32.2711 109.115 32.3152V33.197H102.037V32.3152L103.275 32.227C103.851 32.1388 103.851 31.8742 103.718 31.4333C103.408 30.6397 102.789 29.1846 102.435 28.2587L97.3035 28.3028ZM99.7808 21.4243H99.7365C99.1172 23.0117 98.2325 25.7013 97.6132 27.2445H102.081C101.462 25.7454 100.356 22.8794 99.7808 21.4243ZM109.513 33.197V32.3152C111.592 32.1829 111.769 32.1829 111.769 30.7719V21.7771C111.769 20.3661 111.592 20.3661 109.513 20.2779V19.3961H117.077V20.2779C114.821 20.4102 114.689 20.4102 114.689 21.7771V30.3751C114.689 32.2711 114.821 32.1829 117.918 32.1829C119.068 32.1829 119.864 32.0065 120.395 31.5656C120.882 31.1688 121.457 29.7578 121.722 28.9201H122.695L122.12 33.197H109.513ZM135.613 19.3961V23.0117H134.728C134.374 20.763 133.312 20.3661 131.1 20.3661H128.933C128.446 20.3661 128.269 20.5866 128.269 21.0716V25.569H131.189C133.091 25.569 133.445 25.2163 133.666 23.7172H134.595V28.5673H133.666C133.489 27.1123 133.091 26.5391 131.189 26.5391H128.269V30.4192C128.269 32.0065 128.623 32.2711 131.499 32.2711C133.135 32.2711 134.02 32.1388 134.551 31.6538C134.993 31.2569 135.524 30.0224 135.701 29.1846H136.63L136.143 33.2411H123.182V32.3593C125.261 32.2711 125.438 32.227 125.438 30.816V21.7771C125.438 20.3661 125.261 20.3661 123.182 20.2779V19.3961H135.613ZM146.362 30.7719C146.362 32.1829 146.628 32.1829 149.016 32.3152V33.197H140.744V32.3152C143.221 32.1829 143.442 32.1829 143.442 30.7719V20.3661H141.938C139.638 20.3661 139.019 21.2921 138.753 23.4085H137.824V19.3961H151.98V23.4085H151.007C150.742 21.2921 150.166 20.3661 147.822 20.3661H146.318L146.362 30.7719Z" fill="#000427"/>
<path d="M4.71185 18.5136L11.7897 25.833C11.7897 25.833 13.4707 25.392 19.133 25.9652L10.2857 15.5154C10.2857 15.5154 7.76419 12.1643 5.02151 14.1044C2.3673 15.9563 4.71185 18.5136 4.71185 18.5136Z" fill="#55CA15"/>
<path d="M6.0397 25.4375C6.0397 25.4375 5.73005 40.4289 15.3737 45.3232C15.3737 45.3232 29.087 52.3338 36.8727 37.9597C36.8727 37.9597 27.4061 49.7324 16.4353 43.2067C16.4353 43.2067 9.0478 39.3266 8.60543 28.3476C8.60543 28.3476 22.8939 29.8026 26.0347 26.5398C26.0789 26.5398 14.0023 28.6122 6.0397 25.4375Z" fill="#0096FF"/>
<path d="M11.9229 36.3711C11.9229 36.3711 13.2942 42.3236 22.1858 43.9991C22.1858 43.9991 15.683 42.1031 11.9229 36.3711Z" fill="#0096FF"/>
<path d="M14.1323 37.207C14.1323 37.207 15.4594 41.0872 21.1217 42.3217C21.0775 42.3658 16.7423 40.8226 14.1323 37.207Z" fill="#0096FF"/>
</svg>
