<svg width="158" height="60" viewBox="0 0 158 60" fill="none" xmlns="http://www.w3.org/2000/svg">
<path d="M19.1706 28.9153L13.181 26.9782C8.14634 25.3425 7.58211 22.8027 7.58211 21.0378C7.58211 17.2067 10.8807 14.5378 15.6116 14.5378C19.7348 14.5378 22.9466 16.6901 23.7712 19.9616L23.858 20.3491L26.0281 18.1967L25.9847 18.0676C24.4656 14.3226 20.4726 11.998 15.6116 11.998C10.2297 11.998 4.71755 15.1404 4.71755 21.1239C4.67415 25.0842 7.23489 27.9252 12.313 29.561L18.3025 31.4981C20.2122 32.1007 24.5525 33.9517 24.5525 38.2564C24.5525 42.3028 20.8632 45.1008 15.5682 45.1008C10.4467 45.1008 7.06128 42.3458 6.01962 39.5478L5.88941 39.2465L3.7627 41.3557L3.8495 41.4849C6.01962 45.316 10.4467 47.6405 15.6116 47.6405C22.5559 47.6405 27.3736 43.7233 27.3736 38.1703C27.417 33.306 22.99 30.1637 19.1706 28.9153Z" fill="#1D3049"/>
<path d="M55.0649 12.2988V31.928L52.7211 29.2591H36.0546V12.2988H32.8862V47.3386H36.0546V32.1002H55.0649V47.3386H58.2766V12.2988H55.0649Z" fill="#1D3049"/>
<path d="M69.2602 12.2988H66.0918V47.2956H69.2602V12.2988Z" fill="#1D3049"/>
<path d="M77.0259 12.2988V47.3386H99.0743L97.208 44.4976H80.1943V31.6267H95.0813V28.7426H80.1943V15.1829H97.208L99.0309 12.2988H77.0259Z" fill="#1D3049"/>
<path d="M102.85 12.2988V47.3386H123.032L121.165 44.4976H106.018V12.2988H102.85Z" fill="#1D3049"/>
<path d="M149.684 17.4643C146.429 14.1067 141.654 12.3418 135.882 12.3418H125.899V47.3386H135.882C141.654 47.3386 146.429 45.5737 149.684 42.216C152.679 39.1167 154.241 34.8551 154.241 29.8617C154.241 24.8683 152.679 20.5637 149.684 17.4643ZM129.068 15.1829H135.882C147.036 15.1829 150.986 22.759 150.986 29.8187C150.986 36.8783 147.036 44.4545 135.882 44.4545H129.068V15.1829Z" fill="#1D3049"/>
</svg>
