<svg width="367" height="60" viewBox="0 0 367 60" fill="none" xmlns="http://www.w3.org/2000/svg">
<g clip-path="url(#clip0_4353_78613)">
<path d="M70.7701 59.813H62.0353V24.8162H48.8706V16.0586H83.9012V24.8162H70.7701V59.813Z" fill="#4450C1"/>
<path d="M121.06 59.8079H91.0457V51.0527H121.075" fill="#33418E"/>
<path d="M135.344 59.8131H126.58V16.0587H144.117C145.686 16.0533 147.248 16.2641 148.759 16.6851C150.219 17.0918 151.621 17.6864 152.929 18.4539C154.221 19.2165 155.411 20.1399 156.47 21.2019C157.536 22.2636 158.461 23.4582 159.221 24.7563C159.987 26.0679 160.582 27.4721 160.991 28.9347C162.035 32.7187 161.774 36.7436 160.249 40.3611C158.464 44.5615 155.113 47.9036 150.906 49.6803C148.759 50.6 146.446 51.0674 144.11 51.0531H135.344V59.8131ZM135.344 24.8163V42.3363H144.11C145.275 42.3439 146.429 42.1102 147.5 41.6499C149.6 40.7567 151.27 39.0828 152.158 36.9819C152.611 35.9049 152.845 34.7483 152.845 33.5799C152.845 32.4115 152.611 31.2549 152.158 30.1779C151.27 28.077 149.6 26.4031 147.5 25.5099C146.429 25.0496 145.275 24.8159 144.11 24.8235L135.344 24.8163Z" fill="#4450C1"/>
<path d="M184.753 59.813H176.025V24.8162H162.863V16.0586H197.893V24.8162H184.753V59.813Z" fill="#4450C1"/>
<path d="M211.3 59.813H202.53V16.0586H211.296L211.3 59.813Z" fill="#4450C1"/>
<path d="M252.897 16.0586L238.512 59.813H229.746L215.423 16.0586H225.378L234.113 45.2594L242.889 16.0586H252.897Z" fill="#4450C1"/>
<path d="M290.675 59.813H281.909V51.0554H264.372V59.813H255.645V33.5738C255.629 31.23 256.097 28.9083 257.019 26.753C257.902 24.6775 259.171 22.7881 260.759 21.185C262.353 19.588 264.241 18.3135 266.318 17.4314C268.48 16.5253 270.8 16.0586 273.144 16.0586C275.488 16.0586 277.809 16.5253 279.97 17.4314C284.174 19.2112 287.52 22.5538 289.301 26.753C290.223 28.9083 290.691 31.23 290.675 33.5738V59.813ZM281.909 42.329V33.5738C281.916 32.4043 281.682 31.246 281.222 30.1706C280.335 28.0646 278.658 26.3892 276.55 25.5026C275.472 25.0495 274.314 24.8162 273.144 24.8162C271.975 24.8162 270.817 25.0495 269.739 25.5026C267.631 26.3892 265.954 28.0646 265.067 30.1706C264.607 31.246 264.373 32.4043 264.379 33.5738V42.329H281.909Z" fill="#4450C1"/>
<path d="M315.352 59.813H306.618V24.8162H293.455V16.0586H328.486V24.8162H315.352V59.813Z" fill="#4450C1"/>
<path d="M47.1649 46.8553C47.1711 48.5962 46.8221 50.3201 46.1391 51.9217C45.4877 53.4734 44.5515 54.8898 43.3788 56.0977C42.1963 57.3005 40.7936 58.2651 39.2468 58.9393C37.652 59.6466 35.9252 60.0081 34.1804 60.0001H15.2189C14.6508 60.0087 14.0868 59.9016 13.5615 59.6854C13.0361 59.4692 12.5603 59.1484 12.1631 58.7425C11.7606 58.3467 11.4409 57.8749 11.2227 57.3545C11.0045 56.8341 10.8921 56.2755 10.8921 55.7113C10.8921 55.147 11.0045 54.5885 11.2227 54.0681C11.4409 53.5476 11.7606 53.0758 12.1631 52.6801C12.5599 52.2734 13.0355 51.9519 13.561 51.7353C14.0864 51.5186 14.6505 51.4114 15.2189 51.4201H34.0434C34.6399 51.4265 35.2314 51.3103 35.781 51.0786C36.3307 50.847 36.8268 50.5049 37.2385 50.0737C37.6688 49.6562 38.0093 49.1555 38.2394 48.6022C38.4694 48.0488 38.5842 47.4544 38.5766 46.8553C38.5901 46.2468 38.4795 45.6419 38.2515 45.0774C38.0235 44.513 37.683 44.0008 37.2505 43.5721C36.8389 43.1405 36.3429 42.798 35.7933 42.566C35.2436 42.334 34.6521 42.2173 34.0554 42.2233H25.1116C23.34 42.2361 21.5845 41.8856 19.9538 41.1937C16.7917 39.8659 14.2767 37.3524 12.9487 34.1929C12.2684 32.5621 11.9182 30.8128 11.9182 29.0461C11.9182 27.2793 12.2684 25.5301 12.9487 23.8993C13.611 22.3354 14.5686 20.9135 15.769 19.7113C16.9695 18.5172 18.3779 17.5518 19.925 16.8625C21.5361 16.1476 23.2816 15.7851 25.0444 15.7993H33.7696C34.3379 15.791 34.9019 15.8984 35.4272 16.1151C35.9526 16.3317 36.4283 16.653 36.8253 17.0593C37.2292 17.454 37.5502 17.9253 37.7693 18.4457C37.9884 18.966 38.1013 19.5248 38.1013 20.0893C38.1013 20.6538 37.9884 21.2126 37.7693 21.7329C37.5502 22.2532 37.2292 22.7246 36.8253 23.1193C36.4258 23.5262 35.9476 23.8478 35.4198 24.0644C34.892 24.281 34.3257 24.3881 33.7551 24.3793H24.9987C23.7993 24.4097 22.6602 24.9106 21.8277 25.7737C20.9876 26.6498 20.5187 27.8161 20.5187 29.0293C20.5187 30.2425 20.9876 31.4088 21.8277 32.2849C22.2398 32.7256 22.7404 33.0744 23.2968 33.3085C23.8532 33.5426 24.4528 33.6567 25.0564 33.6433H33.9882C35.7615 33.6321 37.5173 33.9944 39.1411 34.7065C40.7017 35.3864 42.1224 36.3499 43.3308 37.5481C44.5259 38.7466 45.4794 40.1635 46.1391 41.7217C46.8294 43.3446 47.1785 45.0919 47.1649 46.8553Z" fill="#4450C1"/>
<path d="M0.266526 31.3166C0.415469 30.023 2.06106 29.1566 3.93967 29.3702C5.81828 29.5838 7.21643 30.8102 7.06268 32.1062C6.90893 33.4022 5.26815 34.2662 3.38954 34.0526C1.51093 33.839 0.110375 32.6126 0.266526 31.3166Z" fill="#33418E"/>
<path d="M5.53964 22.2352C7.43506 23.1208 8.47767 24.8968 7.86748 26.2024C7.25729 27.508 5.22493 27.8488 3.32951 26.9632C1.43408 26.0776 0.384266 24.304 0.994454 22.996C1.60464 21.688 3.637 21.3592 5.53964 22.2352Z" fill="#33418E"/>
<path d="M9.76303 15.0147C11.5455 16.5747 12.1293 18.8355 11.0651 20.0691C10.0009 21.3027 7.66821 21.0291 5.87849 19.4739C4.08876 17.9187 3.51221 15.6531 4.58604 14.4339C5.65988 13.2147 7.97331 13.4571 9.76303 15.0147Z" fill="#33418E"/>
<path d="M15.9733 9.41215C17.5829 11.4785 17.7318 14.0537 16.3072 15.1721C14.8827 16.2905 12.4203 15.5033 10.8107 13.4369C9.20118 11.3705 9.05224 8.78335 10.4768 7.67935C11.9014 6.57535 14.3614 7.34575 15.9733 9.41215Z" fill="#33418E"/>
<path d="M25.5323 4.92477C26.4932 8.23437 25.4025 11.4456 23.13 12.0984C20.8574 12.7512 18.2292 10.5984 17.2803 7.29836C16.3314 3.99836 17.4124 0.777565 19.6826 0.124765C21.9528 -0.528036 24.5858 1.61756 25.5323 4.92477Z" fill="#33418E"/>
<path d="M91.0457 42.0506V16.0586H121.067V24.8162H99.8117V33.5738H114.197L114.187 42.0506H99.8021" fill="#33418E"/>
<path d="M366.247 59.8079H336.233V51.0527H366.262" fill="#33418E"/>
<path d="M336.231 42.0506L336.233 16.0586H366.255V24.8162H344.997V33.5738H359.382L359.375 42.0506H344.987" fill="#33418E"/>
</g>
<defs>
<clipPath id="clip0_4353_78613">
<rect width="366" height="60" fill="white" transform="translate(0.254395)"/>
</clipPath>
</defs>
</svg>
